<svg width="24" height="24" viewBox="0 0 24 24" fill="none" xmlns="http://www.w3.org/2000/svg">
<path d="M12 0C5.3792 0 0 5.3792 0 12C0 14.4263 0.721272 16.6894 1.96205 18.5781C2.00272 18.642 2.05568 18.6972 2.11785 18.7404C2.18001 18.7836 2.25015 18.8141 2.32419 18.83C2.39822 18.8458 2.47468 18.8469 2.54911 18.833C2.62354 18.819 2.69447 18.7905 2.75777 18.7489C2.82107 18.7074 2.87547 18.6536 2.91783 18.5909C2.96019 18.5281 2.98965 18.4575 3.0045 18.3833C3.01936 18.309 3.01931 18.2326 3.00436 18.1584C2.9894 18.0841 2.95985 18.0136 2.91741 17.9509C1.79476 16.242 1.14286 14.2 1.14286 12C1.14286 5.9968 5.9968 1.14286 12 1.14286C18.0032 1.14286 22.8571 5.9968 22.8571 12C22.8571 15.2422 21.4808 18.1065 19.2366 20.096C19.2355 20.0971 19.2344 20.0982 19.2333 20.0993C17.3042 21.8377 14.8018 22.8571 12 22.8571C9.3457 22.8571 6.9369 21.8903 5.04799 20.3092C6.12407 17.3929 8.87304 15.4286 12 15.4286C14.4674 15.4286 16.7171 16.642 18.0848 18.5848C18.172 18.7088 18.3049 18.7932 18.4542 18.8192C18.6035 18.8453 18.7571 18.8109 18.8811 18.7238C19.0052 18.6366 19.0895 18.5037 19.1155 18.3544C19.1416 18.2051 19.1073 18.0515 19.0201 17.9275C17.4415 15.6851 14.8423 14.2857 12 14.2857C8.30493 14.2857 5.02161 16.6524 3.85491 20.1574V20.1585L3.80357 20.3125C3.76849 20.4179 3.7649 20.5313 3.79325 20.6387C3.82159 20.7462 3.88064 20.843 3.96317 20.9174C6.09383 22.8375 8.91557 24 12 24C15.0788 24 17.8656 22.87 19.9955 20.952L19.9978 20.9498C22.4757 18.7519 24 15.5658 24 12C24 5.3792 18.6208 0 12 0ZM12 4.57143C9.82296 4.57143 8.11272 6.53014 8.11272 8.85714C8.11272 11.1841 9.82296 13.1429 12 13.1429C14.177 13.1429 15.8873 11.1841 15.8873 8.85714C15.8873 6.53014 14.177 4.57143 12 4.57143ZM12 5.71429C13.4851 5.71429 14.7444 7.08146 14.7444 8.85714C14.7444 10.6328 13.4851 12 12 12C10.5149 12 9.25558 10.6328 9.25558 8.85714C9.25558 7.08146 10.5149 5.71429 12 5.71429Z" fill="currentColor"/>
</svg>
