<svg width="21" height="26" viewBox="0 0 21 26" fill="none" xmlns="http://www.w3.org/2000/svg">
<path d="M0 16.2495C0 17.116 0.319316 17.7061 0.566968 18.1473C0.81462 18.5885 0.99029 18.8819 0.99029 19.5011C0.99029 19.6531 0.893919 20.2088 0.729114 20.8494C0.564309 21.49 0.339294 22.2547 0.107735 23.0008C-0.410961 24.6742 1.28698 26.2694 2.9219 25.6344H2.92299C3.40897 25.4455 3.88019 25.2849 4.26369 25.174C4.64718 25.0632 4.97947 25.0108 5.01457 25.0108C5.91241 25.0108 6.59051 25.2301 7.34882 25.4776C8.10713 25.7252 8.94567 26 10.0291 26C11.1126 26 11.9511 25.7253 12.7094 25.4776C13.4678 25.23 14.1459 25.0097 15.0437 25.0097C15.0785 25.0097 15.4111 25.062 15.7946 25.1729C16.1781 25.2839 16.6492 25.4455 17.1353 25.6344H17.1364C18.7713 26.2694 20.4692 24.6742 19.9505 23.0008C19.719 22.2544 19.494 21.4899 19.3291 20.8494C19.1643 20.2089 19.068 19.6531 19.068 19.5011C19.068 18.8819 19.2436 18.5896 19.4913 18.1484C19.7389 17.7073 20.0583 17.1163 20.0583 16.2495C20.0583 15.3826 19.739 14.7927 19.4913 14.3516C19.2436 13.9105 19.068 13.6188 19.068 13C19.068 12.3811 19.2436 12.0885 19.4913 11.6473C19.739 11.2062 20.0583 10.6171 20.0583 9.75054C20.0583 8.88397 19.739 8.29381 19.4913 7.85267C19.2436 7.41153 19.068 7.11885 19.068 6.5C19.068 6.34799 19.1643 5.79116 19.3291 5.15059C19.494 4.51003 19.719 3.74639 19.9505 3.00025C20.4692 1.32685 18.7713 -0.268332 17.1364 0.366733C16.65 0.555606 16.177 0.716066 15.7935 0.827054C15.41 0.938043 15.0785 0.990289 15.0437 0.990289C14.1459 0.990289 13.4678 0.770014 12.7094 0.52235C11.9511 0.274686 11.1126 -8.36328e-07 10.0291 -8.36328e-07C8.94561 -8.36328e-07 8.10713 0.274686 7.34882 0.52235C6.59051 0.770014 5.91236 0.990289 5.01457 0.990289C4.97976 0.990289 4.64721 0.938037 4.26369 0.827054C3.88016 0.71607 3.40905 0.555577 2.92299 0.366733H2.9219C1.287 -0.268332 -0.410961 1.32685 0.107735 3.00025C0.339307 3.7467 0.564307 4.51009 0.729114 5.15059C0.893921 5.7911 0.99029 6.34799 0.99029 6.5C0.99029 7.11885 0.814644 7.41049 0.566968 7.85158C0.319292 8.29268 0 8.88374 0 9.75054C0 10.6174 0.319304 11.2063 0.566968 11.6473C0.814632 12.0883 0.99029 12.3808 0.99029 13C0.99029 13.6192 0.81462 13.9116 0.566968 14.3527C0.319316 14.7937 0 15.3829 0 16.2495ZM1.11435 16.2495C1.11435 15.6306 1.29108 15.339 1.53876 14.8979C1.78643 14.4568 2.10464 13.8668 2.10464 13C2.10464 12.1332 1.78642 11.5431 1.53876 11.1021C1.29109 10.6611 1.11435 10.3697 1.11435 9.75054C1.11435 9.13137 1.29111 8.83892 1.53876 8.39787C1.78641 7.95682 2.10464 7.36658 2.10464 6.5C2.10464 6.06754 1.98106 5.5432 1.80864 4.87309C1.63622 4.20299 1.40681 3.42623 1.17202 2.66943C0.907334 1.81549 1.68701 1.08163 2.51925 1.4049C3.03276 1.60441 3.52997 1.77498 3.95463 1.89787C4.37929 2.02076 4.69389 2.10464 5.01457 2.10464C6.09808 2.10464 6.93656 1.82995 7.69488 1.58229C8.45319 1.33462 9.13134 1.11435 10.0291 1.11435C10.9269 1.11435 11.6051 1.33462 12.3634 1.58229C13.1217 1.82995 13.9602 2.10464 15.0437 2.10464C15.3644 2.10464 15.6791 2.02076 16.1036 1.89787C16.5282 1.77499 17.0253 1.60438 17.539 1.4049C18.3713 1.08163 19.1509 1.81549 18.8862 2.66943C18.6514 3.42599 18.422 4.20291 18.2496 4.87309C18.0772 5.54328 17.9536 6.06754 17.9536 6.5C17.9536 7.36658 18.2718 7.95673 18.5195 8.39787C18.7672 8.83902 18.9439 9.13169 18.9439 9.75054C18.9439 10.3694 18.7672 10.661 18.5195 11.1021C18.2718 11.5433 17.9536 12.1334 17.9536 13C17.9536 13.8666 18.2719 14.4568 18.5195 14.8979C18.7672 15.3389 18.9439 15.6303 18.9439 16.2495C18.9439 16.8686 18.7672 17.161 18.5195 17.6021C18.2718 18.0433 17.9536 18.6343 17.9536 19.5011C17.9536 19.9335 18.0772 20.4568 18.2496 21.1269C18.422 21.797 18.6515 22.5738 18.8862 23.3306C19.1509 24.1845 18.3713 24.9184 17.539 24.5951C17.0255 24.3956 16.5283 24.2261 16.1036 24.1032C15.679 23.9803 15.3644 23.8954 15.0437 23.8954C13.9602 23.8954 13.1217 24.1711 12.3634 24.4188C11.6051 24.6665 10.9269 24.8857 10.0291 24.8857C9.13129 24.8857 8.45319 24.6663 7.69488 24.4188C6.93656 24.1713 6.09803 23.8965 5.01457 23.8965C4.69419 23.8965 4.37932 23.9805 3.95463 24.1032C3.52994 24.226 3.03284 24.3956 2.51925 24.5951C1.68701 24.9184 0.907334 24.1845 1.17202 23.3306C1.40682 22.574 1.63621 21.7982 1.80864 21.128C1.98106 20.4578 2.10464 19.9335 2.10464 19.5011C2.10464 18.6343 1.78643 18.0434 1.53876 17.6021C1.29108 17.1609 1.11435 16.8683 1.11435 16.2495ZM3.90022 20.8004C3.90022 21.4095 4.40554 21.9148 5.01457 21.9148H15.0437C15.6527 21.9148 16.158 21.4095 16.158 20.8004V5.19956C16.158 4.59054 15.6527 4.08522 15.0437 4.08522H5.01457C4.40554 4.08522 3.90022 4.59054 3.90022 5.19956L3.90022 20.8004ZM5.01457 20.8004L5.01457 5.19956H15.0437L15.0437 20.8004H5.01457Z" fill="black"/>
</svg>
