<svg width="96" height="96" viewBox="0 0 96 96" fill="none" xmlns="http://www.w3.org/2000/svg">
<path d="M48 4.36328C47.026 4.36328 46.0529 4.53278 45.125 4.875L10.0625 17.793C7.62933 18.6903 6 21.0256 6 23.6211V70.3789C6 72.9744 7.6262 75.3115 10.0625 76.207L45.125 89.125C46.9809 89.8094 49.0201 89.8101 50.875 89.125L85.9336 76.207C88.3685 75.3101 90 72.9744 90 70.3789V23.6211C90 21.0256 88.3738 18.6885 85.9375 17.793L50.875 4.875C49.9471 4.53278 48.974 4.36328 48 4.36328ZM48 8.36328C48.5051 8.36328 49.0101 8.45112 49.4922 8.62891L84.5547 21.5469C85.4264 21.8673 86 22.6885 86 23.6211V70.3789C86 71.3115 85.4279 72.13 84.5508 72.4531L49.4922 85.3711C49.4909 85.3711 49.4896 85.3711 49.4883 85.3711C48.5272 85.726 47.4719 85.7267 46.5078 85.3711L11.4453 72.4531C10.5736 72.1327 10 71.3115 10 70.3789V23.6211C10 22.6885 10.5705 21.8695 11.4453 21.5469L46.5078 8.62891C46.9899 8.45112 47.4949 8.36328 48 8.36328ZM48 18C46.4087 18 44.8826 18.3161 43.7574 18.8787C42.6321 19.4413 42 20.2044 42 21C42 21.7956 42.6321 22.5587 43.7574 23.1213C44.8826 23.6839 46.4087 24 48 24C49.5913 24 51.1174 23.6839 52.2426 23.1213C53.3679 22.5587 54 21.7956 54 21C54 20.2044 53.3679 19.4413 52.2426 18.8787C51.1174 18.3161 49.5913 18 48 18ZM79.9023 24.375C79.654 24.3738 79.4076 24.4188 79.1758 24.5078L48 35.8711L16.8242 24.5078C16.5767 24.4142 16.3131 24.3707 16.0486 24.3797C15.7841 24.3888 15.5241 24.4502 15.2835 24.5604C15.043 24.6707 14.8267 24.8276 14.6472 25.022C14.4677 25.2165 14.3286 25.4446 14.2379 25.6932C14.1472 25.9418 14.1067 26.2059 14.1188 26.4702C14.1309 26.7346 14.1953 26.9939 14.3083 27.2332C14.4214 27.4724 14.5808 27.6869 14.7773 27.8641C14.9738 28.0413 15.2035 28.1778 15.4531 28.2656L46 39.3984V80C45.9963 80.265 46.0452 80.5281 46.144 80.7741C46.2429 81.02 46.3896 81.2439 46.5757 81.4326C46.7618 81.6213 46.9835 81.7712 47.228 81.8735C47.4725 81.9758 47.7349 82.0285 48 82.0285C48.2651 82.0285 48.5275 81.9758 48.772 81.8735C49.0165 81.7712 49.2382 81.6213 49.4243 81.4326C49.6104 81.2439 49.7571 81.02 49.856 80.7741C49.9548 80.5281 50.0037 80.265 50 80V39.3984L80.5469 28.2656C80.9932 28.1113 81.3706 27.8041 81.6122 27.3982C81.8537 26.9924 81.9439 26.5142 81.8667 26.0483C81.7895 25.5823 81.55 25.1588 81.1904 24.8525C80.8309 24.5463 80.3746 24.3771 79.9023 24.375ZM16.8594 36.7227C16.6026 36.7112 16.3506 36.734 16.1016 36.793C15.6176 36.911 15.1704 37.1693 14.8164 37.5273C14.4764 37.8673 14.2131 38.2966 14.0391 38.8086C13.8751 39.2906 13.8005 39.8284 13.8125 40.3984C13.8225 40.9484 13.9178 41.5068 14.0898 42.0508C14.2538 42.5768 14.4833 43.0772 14.7773 43.5352C15.0753 43.9992 15.4205 44.4022 15.8125 44.7422C16.2365 45.1022 16.6917 45.3615 17.1797 45.5195C17.4877 45.6155 17.7918 45.6641 18.0898 45.6641C18.2978 45.6641 18.505 45.6418 18.707 45.5938C19.191 45.4797 19.6341 45.2272 19.9961 44.8672C20.3381 44.5252 20.6013 44.0997 20.7773 43.5938C20.9453 43.1037 21.0237 42.5602 21.0117 41.9922C21.0017 41.4402 20.9084 40.88 20.7344 40.332C20.5704 39.808 20.339 39.3097 20.043 38.8438C19.745 38.3758 19.3998 37.9648 19.0078 37.6328C18.5818 37.2688 18.1226 37.0133 17.6406 36.8633C17.3766 36.7823 17.1161 36.7342 16.8594 36.7227ZM79.1367 38.7266C78.8807 38.7381 78.6214 38.7833 78.3594 38.8633C77.8794 39.0133 77.4182 39.2688 76.9922 39.6328C76.6022 39.9648 76.2531 40.3738 75.9531 40.8438C75.6591 41.3077 75.4256 41.8042 75.2656 42.3242C75.0896 42.8762 74.9983 43.4403 74.9883 43.9883C74.9763 44.5603 75.0547 45.0998 75.2227 45.5898C75.3987 46.0958 75.6619 46.5252 76.0039 46.8672C76.3659 47.2292 76.807 47.4778 77.293 47.5898C77.493 47.6378 77.6963 47.6602 77.9062 47.6602C78.2063 47.6602 78.5141 47.6156 78.8281 47.5156C79.3061 47.3616 79.7634 47.0984 80.1914 46.7344C80.5794 46.3984 80.9267 45.9992 81.2227 45.5352C81.5147 45.0772 81.7442 44.5747 81.9062 44.0547C82.0802 43.5047 82.1775 42.9444 82.1875 42.3984C82.1975 41.8264 82.121 41.2926 81.957 40.8086C81.783 40.2986 81.5215 39.8652 81.1875 39.5312C80.8275 39.1653 80.3806 38.911 79.8906 38.793C79.6426 38.737 79.3927 38.7151 79.1367 38.7266ZM69.8047 51.7695C69.5472 51.7838 69.2884 51.8301 69.0234 51.9141C68.5394 52.0701 68.0725 52.3371 67.6445 52.7031C67.2545 53.0351 66.9017 53.4478 66.5938 53.9258C66.3018 54.3858 66.0644 54.8899 65.8984 55.4219C65.7244 55.9719 65.635 56.5318 65.625 57.0938C65.617 57.6697 65.701 58.2114 65.875 58.6914C66.055 59.1974 66.3238 59.6229 66.6758 59.9609C67.0478 60.3169 67.5001 60.5581 67.9961 60.6641C68.1821 60.7021 68.3745 60.7227 68.5625 60.7227C68.8825 60.7227 69.2092 60.6666 69.5352 60.5586C70.0132 60.4026 70.4703 60.1395 70.9023 59.7695C71.2943 59.4295 71.6416 59.0186 71.9336 58.5586C72.2276 58.0946 72.461 57.5943 72.625 57.0703C72.797 56.5183 72.8884 55.9581 72.8984 55.4141C72.9084 54.8401 72.8263 54.3024 72.6562 53.8164C72.4762 53.3084 72.2092 52.8829 71.8672 52.5469C71.4992 52.1849 71.0445 51.936 70.5625 51.832C70.3155 51.775 70.0622 51.7553 69.8047 51.7695ZM35.6367 62.9375C35.3772 62.92 35.122 62.9354 34.875 62.9844C34.379 63.0864 33.9188 63.3277 33.5508 63.6797C33.1948 64.0157 32.9222 64.4453 32.7422 64.9453C32.5642 65.4233 32.4764 65.9592 32.4844 66.5352C32.4924 67.0832 32.5858 67.6451 32.7578 68.2031C32.9238 68.7391 33.1533 69.2412 33.4453 69.6992C33.7433 70.1732 34.0943 70.5896 34.4883 70.9336C34.9183 71.3076 35.3832 71.5743 35.8672 71.7383C36.2092 71.8543 36.5469 71.9141 36.8789 71.9141C37.0609 71.9141 37.2439 71.8973 37.4219 71.8633C37.9159 71.7673 38.3779 71.5278 38.7539 71.1758C39.1099 70.8418 39.3803 70.4143 39.5703 69.9023C39.7463 69.4203 39.8321 68.8846 39.8281 68.3086C39.8221 67.7626 39.7326 67.2007 39.5586 66.6367C39.3906 66.1007 39.1593 65.5948 38.8633 65.1328C38.5593 64.6548 38.2025 64.2383 37.8125 63.9023C37.3805 63.5283 36.9158 63.2597 36.4258 63.0977C36.1588 63.0087 35.8962 62.955 35.6367 62.9375ZM60.3633 64.9375C60.103 64.9555 59.8382 65.0097 59.5742 65.0977C59.0842 65.2597 58.6194 65.5323 58.1914 65.9023C57.7994 66.2403 57.4446 66.6548 57.1406 67.1328C56.8466 67.5948 56.6094 68.1006 56.4414 68.6406C56.2674 69.1986 56.1798 69.7626 56.1758 70.3086C56.1718 70.8846 56.2556 71.4202 56.4336 71.9062C56.6216 72.4143 56.8979 72.8418 57.2539 73.1758C57.6299 73.5278 58.0919 73.7673 58.5859 73.8633C58.7639 73.8993 58.943 73.9141 59.125 73.9141C59.457 73.9141 59.7947 73.8543 60.1367 73.7383C60.6207 73.5743 61.0856 73.3037 61.5156 72.9297C61.9076 72.5877 62.2606 72.1751 62.5586 71.7031C62.8506 71.2431 63.084 70.7372 63.25 70.1992C63.422 69.6432 63.5115 69.0832 63.5195 68.5352C63.5275 67.9592 63.4435 67.4212 63.2695 66.9492C63.0815 66.4432 62.807 66.0156 62.457 65.6836C62.083 65.3276 61.6228 65.0883 61.1328 64.9883C60.8798 64.9363 60.6235 64.9195 60.3633 64.9375Z" fill="black"/>
</svg>
