<svg width="16" height="25" viewBox="0 0 16 25" fill="none" xmlns="http://www.w3.org/2000/svg">
<path d="M2.97673 0.428223C1.44212 0.428223 0.186035 1.68431 0.186035 3.21892V23.8701C0.186047 23.9743 0.215229 24.0764 0.270278 24.1649C0.325326 24.2534 0.404043 24.3247 0.497519 24.3707C0.590995 24.4168 0.695497 24.4358 0.799198 24.4255C0.902898 24.4152 1.00165 24.3762 1.08429 24.3127L9.06286 18.1753C9.12099 18.1306 9.16975 18.0748 9.20634 18.0113C9.24294 17.9477 9.26665 17.8775 9.27612 17.8048C9.28559 17.7321 9.28065 17.6582 9.26156 17.5873C9.24247 17.5165 9.20962 17.4501 9.16487 17.392C9.12013 17.3339 9.06438 17.2851 9.00079 17.2485C8.93721 17.212 8.86704 17.1883 8.7943 17.1788C8.72156 17.1694 8.64767 17.1743 8.57684 17.1934C8.50602 17.2125 8.43965 17.2454 8.38153 17.2901L1.30231 22.7364V3.21892C1.30231 2.28767 2.04549 1.5445 2.97673 1.5445H13.0232C13.9545 1.5445 14.6977 2.28767 14.6977 3.21892V22.7364L10.0549 19.1651C9.9968 19.1198 9.93034 19.0864 9.8593 19.0668C9.78827 19.0473 9.71406 19.042 9.64098 19.0513C9.56789 19.0606 9.49736 19.0842 9.43346 19.1209C9.36956 19.1576 9.31354 19.2065 9.26865 19.2649C9.22376 19.3233 9.19088 19.3901 9.1719 19.4613C9.15292 19.5324 9.14822 19.6067 9.15807 19.6797C9.16792 19.7527 9.19213 19.823 9.2293 19.8867C9.26647 19.9503 9.31586 20.0059 9.37463 20.0503L14.9157 24.3127C14.9983 24.3762 15.0971 24.4152 15.2008 24.4255C15.3045 24.4358 15.409 24.4168 15.5025 24.3707C15.5959 24.3247 15.6747 24.2534 15.7297 24.1649C15.7848 24.0764 15.8139 23.9743 15.8139 23.8701V3.21892C15.8139 1.68431 14.5579 0.428223 13.0232 0.428223H2.97673Z" fill="black"/>
</svg>
