<svg width="76" height="76" viewBox="0 0 76 76" fill="none" xmlns="http://www.w3.org/2000/svg">
<path d="M12.949 9.33339e-10C10.9891 -3.03991e-05 9.0307 0.742562 7.5467 2.22656L2.22639 7.54688C-0.742651 10.5132 -0.74161 15.3836 2.22639 18.3516L21.8631 37.9883L2.22639 57.625C-0.742651 60.5913 -0.74161 65.4617 2.22639 68.4297L7.5467 73.75C10.513 76.719 15.3834 76.718 18.3514 73.75L37.9881 54.1133L57.6248 73.75C60.5912 76.719 65.4615 76.718 68.4295 73.75L73.7498 68.4297C76.7189 65.4633 76.7178 60.593 73.7498 57.625L54.1131 37.9883L73.7498 18.3516C76.7189 15.3852 76.7178 10.5149 73.7498 7.54688L68.4295 2.22656C65.4632 -0.742479 60.5928 -0.741438 57.6248 2.22656L37.9881 21.8633L18.3514 2.22656C16.8682 0.742042 14.909 3.04009e-05 12.949 9.33339e-10ZM12.949 3.97266C13.8766 3.97263 14.8044 4.33521 15.5233 5.05469L36.574 26.1055C36.9491 26.4804 37.4578 26.691 37.9881 26.691C38.5185 26.691 39.0271 26.4804 39.4022 26.1055L60.453 5.05469C61.893 3.61469 64.1637 3.61573 65.6014 5.05469L70.9217 10.375C72.3617 11.815 72.3607 14.0858 70.9217 15.5234L49.8709 36.5742C49.496 36.9493 49.2854 37.4579 49.2854 37.9883C49.2854 38.5186 49.496 39.0273 49.8709 39.4023L70.9217 60.4531C72.3617 61.8931 72.3607 64.1639 70.9217 65.6016L65.6014 70.9219C64.1614 72.3619 61.8906 72.3608 60.453 70.9219L39.4022 49.8711C39.0271 49.4962 38.5185 49.2855 37.9881 49.2855C37.4578 49.2855 36.9491 49.4962 36.574 49.8711L15.5233 70.9219C14.0833 72.3619 11.8125 72.3608 10.3748 70.9219L5.05452 65.6016C3.61452 64.1616 3.61556 61.8908 5.05452 60.4531L26.1053 39.4023C26.4802 39.0273 26.6908 38.5186 26.6908 37.9883C26.6908 37.4579 26.4802 36.9493 26.1053 36.5742L5.05452 15.5234C3.61452 14.0834 3.61556 11.8127 5.05452 10.375L10.3748 5.05469C11.0948 4.33469 12.0215 3.97269 12.949 3.97266Z" fill="black"/>
</svg>
