<svg width="92" height="89" viewBox="0 0 92 89" fill="none" xmlns="http://www.w3.org/2000/svg">
<path d="M29.9893 0.000177151C29.6307 0.00422651 29.2797 0.104628 28.9732 0.290868C28.6667 0.477108 28.4159 0.742334 28.2471 1.05877L27.2862 2.81268C25.6789 5.73714 25.8228 9.31978 27.6612 12.1056L29.0049 14.1447C30.0294 15.6957 30.1084 17.6777 29.212 19.3088L28.251 21.0588C28.1107 21.2893 28.0185 21.5459 27.9799 21.813C27.9413 22.0801 27.9572 22.3523 28.0266 22.6131C28.096 22.874 28.2175 23.118 28.3837 23.3307C28.5499 23.5433 28.7575 23.7201 28.9938 23.8504C29.2302 23.9808 29.4905 24.0619 29.759 24.0889C30.0276 24.116 30.2988 24.0884 30.5564 24.0079C30.814 23.9274 31.0527 23.7955 31.258 23.6203C31.4633 23.4451 31.631 23.2302 31.751 22.9885L32.7159 21.2385C34.3234 18.3136 34.1804 14.7266 32.3409 11.9416L30.9971 9.90643C30.9971 9.90513 30.9971 9.90382 30.9971 9.90252C29.9715 8.34838 29.8934 6.36999 30.7901 4.73846L31.7549 2.98846C31.929 2.68224 32.019 2.33551 32.0161 1.98331C32.0131 1.63112 31.9172 1.28595 31.738 0.982716C31.5588 0.679483 31.3028 0.428935 30.9957 0.256407C30.6887 0.0838795 30.3415 -0.00450974 29.9893 0.000177151ZM43.9893 0.000177151C43.6307 0.00422651 43.2797 0.104628 42.9732 0.290868C42.6667 0.477108 42.4159 0.742334 42.2471 1.05877L41.2862 2.81268C39.6789 5.73714 39.8228 9.31978 41.6612 12.1056L43.0049 14.1447C44.0294 15.6957 44.1084 17.6777 43.212 19.3088L42.251 21.0588C42.1107 21.2893 42.0185 21.5459 41.9799 21.813C41.9413 22.0801 41.9572 22.3523 42.0266 22.6131C42.096 22.874 42.2175 23.118 42.3837 23.3307C42.5499 23.5433 42.7575 23.7201 42.9938 23.8504C43.2302 23.9808 43.4905 24.0619 43.759 24.0889C44.0276 24.116 44.2988 24.0884 44.5564 24.0079C44.814 23.9274 45.0527 23.7955 45.258 23.6203C45.4633 23.4451 45.631 23.2302 45.751 22.9885L46.7159 21.2385C48.3234 18.3136 48.1804 14.7266 46.3409 11.9416L44.9971 9.90643C44.9971 9.90513 44.9971 9.90382 44.9971 9.90252C43.9715 8.34838 43.8934 6.36999 44.7901 4.73846L45.7549 2.98846C45.929 2.68224 46.019 2.33551 46.0161 1.98331C46.0131 1.63112 45.9172 1.28595 45.738 0.982716C45.5588 0.679483 45.3028 0.428935 44.9957 0.256407C44.6887 0.0838795 44.3415 -0.00450974 43.9893 0.000177151ZM57.9893 0.000177151C57.6307 0.00422651 57.2797 0.104628 56.9732 0.290868C56.6667 0.477108 56.4159 0.742334 56.2471 1.05877L55.2862 2.81268C53.6789 5.73714 53.8228 9.31978 55.6612 12.1056L57.0049 14.1447C58.0294 15.6957 58.1084 17.6777 57.212 19.3088L56.251 21.0588C56.1107 21.2893 56.0185 21.5459 55.9799 21.813C55.9413 22.0801 55.9572 22.3523 56.0266 22.6131C56.096 22.874 56.2175 23.118 56.3837 23.3307C56.5499 23.5433 56.7575 23.7201 56.9938 23.8504C57.2302 23.9808 57.4905 24.0619 57.759 24.0889C58.0276 24.116 58.2988 24.0884 58.5564 24.0079C58.814 23.9274 59.0527 23.7955 59.258 23.6203C59.4633 23.4451 59.631 23.2302 59.751 22.9885L60.7159 21.2385C62.3234 18.3136 62.1804 14.7266 60.3409 11.9416L58.9971 9.90643C58.9971 9.90513 58.9971 9.90382 58.9971 9.90252C57.9715 8.34838 57.8934 6.36999 58.7901 4.73846L59.7549 2.98846C59.929 2.68224 60.019 2.33551 60.0161 1.98331C60.0131 1.63112 59.9172 1.28595 59.738 0.982716C59.5588 0.679483 59.3028 0.428935 58.9957 0.256407C58.6887 0.0838795 58.3415 -0.00450974 57.9893 0.000177151ZM16.0401 28.0236C13.8249 28.0236 11.9636 29.8847 12.044 32.1369C12.7226 53.3335 22.3327 69.9886 24.7549 74.0236H2.00104C1.62416 74.0235 1.25491 74.1298 0.93583 74.3303C0.616746 74.5309 0.360813 74.8175 0.197516 75.1571C0.0342194 75.4968 -0.029796 75.8757 0.0128458 76.2501C0.0554875 76.6246 0.203051 76.9794 0.438535 77.2736C0.438535 77.2736 9.04865 88.0236 24.001 88.0236H64.001C78.9534 88.0236 87.5635 77.2736 87.5635 77.2736C87.799 76.9794 87.9466 76.6246 87.9892 76.2501C88.0319 75.8757 87.9679 75.4968 87.8046 75.1571C87.6413 74.8175 87.3853 74.5309 87.0662 74.3303C86.7472 74.1298 86.3779 74.0235 86.001 74.0236H63.2471C65.3323 70.5502 72.7292 57.7116 75.1846 40.6877C75.9929 37.9973 78.4712 36.0236 81.4503 36.0236C85.0914 36.0236 88.001 38.9333 88.001 42.5744C88.001 45.4298 86.6 47.9541 84.3018 50.2697C82.0036 52.5853 78.8499 54.574 75.8174 56.1017C75.5752 56.2153 75.3582 56.3763 75.1793 56.5752C75.0004 56.7741 74.8633 57.0068 74.7759 57.2597C74.6886 57.5125 74.6528 57.7803 74.6708 58.0472C74.6888 58.3141 74.7601 58.5747 74.8806 58.8136C75.001 59.0524 75.1682 59.2647 75.3722 59.4378C75.5761 59.6109 75.8127 59.7413 76.068 59.8214C76.3232 59.9014 76.592 59.9294 76.8582 59.9038C77.1245 59.8781 77.3829 59.7993 77.6182 59.6721C80.8898 58.0238 84.3738 55.875 87.1417 53.0861C89.9095 50.2973 92.001 46.7529 92.001 42.5744C92.001 36.7715 87.2532 32.0236 81.4503 32.0236C79.397 32.0236 77.4945 32.6419 75.8682 33.6642C75.8951 33.1533 75.9415 32.6534 75.9581 32.1369C76.0385 29.8847 74.1772 28.0236 71.962 28.0236H16.0401ZM16.044 32.0236H71.9581C71.8712 34.7138 71.6175 37.3598 71.2354 39.9377C71.2138 40.0251 71.1982 40.1138 71.1885 40.2033C71.1885 40.2098 71.1885 40.2163 71.1885 40.2228C68.4409 58.2796 59.5225 72.8231 58.7784 74.0236H29.2237C28.3696 72.6457 16.7439 53.696 16.044 32.0236ZM7.30572 78.0236H27.7159C27.914 78.0535 28.1154 78.0535 28.3135 78.0236H59.6846C59.8891 78.0555 60.0973 78.0555 60.3018 78.0236H80.6964C77.4663 80.7582 72.4638 84.0236 64.001 84.0236H24.001C15.5383 84.0236 10.5358 80.7582 7.30572 78.0236Z" fill="black"/>
</svg>
