<svg width="24" height="18" viewBox="0 0 24 18" fill="none" xmlns="http://www.w3.org/2000/svg">
<path d="M2.72727 0C1.22729 0 0 1.22729 0 2.72727V15.2727C0 16.7727 1.22729 18 2.72727 18H4.46165C4.55034 18.0001 4.63771 17.9786 4.7162 17.9373C4.79468 17.896 4.86192 17.8362 4.91208 17.763C4.96224 17.6899 4.99381 17.6056 5.00405 17.5175C5.0143 17.4294 5.00291 17.3402 4.97088 17.2575C4.9318 17.1565 4.90909 17.0377 4.90909 16.9091C4.90909 16.2972 5.38808 15.8182 6 15.8182C6.61192 15.8182 7.09091 16.2972 7.09091 16.9091C7.09091 17.0377 7.0682 17.1565 7.02912 17.2575C6.99709 17.3402 6.9857 17.4294 6.99595 17.5175C7.00619 17.6056 7.03776 17.6899 7.08792 17.763C7.13808 17.8362 7.20532 17.896 7.28381 17.9373C7.36229 17.9786 7.44966 18.0001 7.53835 18H16.4616C16.5503 18.0001 16.6377 17.9786 16.7162 17.9373C16.7947 17.896 16.8619 17.8362 16.9121 17.763C16.9622 17.6899 16.9938 17.6056 17.0041 17.5175C17.0143 17.4294 17.0029 17.3402 16.9709 17.2575C16.9318 17.1565 16.9091 17.0377 16.9091 16.9091C16.9091 16.2972 17.3881 15.8182 18 15.8182C18.6119 15.8182 19.0909 16.2972 19.0909 16.9091C19.0909 17.0377 19.0682 17.1565 19.0291 17.2575C18.9971 17.3402 18.9857 17.4294 18.9959 17.5175C19.0062 17.6056 19.0378 17.6899 19.0879 17.763C19.1381 17.8362 19.2053 17.896 19.2838 17.9373C19.3623 17.9786 19.4497 18.0001 19.5384 18H21.2727C22.7727 18 24 16.7727 24 15.2727V2.72727C24 1.22729 22.7727 0 21.2727 0H2.72727ZM2.72727 1.09091H21.2727C22.1837 1.09091 22.9091 1.81635 22.9091 2.72727V15.2727C22.9091 16.1837 22.1837 16.9091 21.2727 16.9091H20.1818C20.1818 15.7101 19.199 14.7273 18 14.7273C16.801 14.7273 15.8182 15.7101 15.8182 16.9091H8.18182C8.18182 15.7101 7.19899 14.7273 6 14.7273C4.80101 14.7273 3.81818 15.7101 3.81818 16.9091H2.72727C1.81635 16.9091 1.09091 16.1837 1.09091 15.2727V2.72727C1.09091 1.81635 1.81635 1.09091 2.72727 1.09091ZM7.63636 3.27273C6.8986 3.27273 6.27616 3.59478 5.88601 4.06747C5.49585 4.54016 5.31818 5.13745 5.31818 5.72727C5.31818 6.3171 5.49585 6.91439 5.88601 7.38707C6.27616 7.85976 6.8986 8.18182 7.63636 8.18182C8.37413 8.18182 8.99656 7.85976 9.38672 7.38707C9.77687 6.91439 9.95455 6.3171 9.95455 5.72727C9.95455 5.13745 9.77687 4.54016 9.38672 4.06747C8.99656 3.59478 8.37413 3.27273 7.63636 3.27273ZM7.63636 4.36364C8.08042 4.36364 8.34435 4.51885 8.5451 4.76207C8.74585 5.0053 8.86364 5.36255 8.86364 5.72727C8.86364 6.09199 8.74585 6.44925 8.5451 6.69247C8.34435 6.93569 8.08042 7.09091 7.63636 7.09091C7.19231 7.09091 6.92838 6.93569 6.72763 6.69247C6.52687 6.44925 6.40909 6.09199 6.40909 5.72727C6.40909 5.36255 6.52687 5.0053 6.72763 4.76207C6.92838 4.51885 7.19231 4.36364 7.63636 4.36364ZM14.1818 6.54545C14.1095 6.54443 14.0378 6.55779 13.9707 6.58474C13.9036 6.61169 13.8426 6.65171 13.7911 6.70246C13.7396 6.75321 13.6988 6.81369 13.6709 6.88037C13.643 6.94706 13.6286 7.01862 13.6286 7.09091C13.6286 7.1632 13.643 7.23476 13.6709 7.30145C13.6988 7.36813 13.7396 7.42861 13.7911 7.47936C13.8426 7.53011 13.9036 7.57013 13.9707 7.59708C14.0378 7.62403 14.1095 7.63739 14.1818 7.63636H20.1818C20.2541 7.63739 20.3259 7.62403 20.3929 7.59708C20.46 7.57013 20.5211 7.53011 20.5725 7.47936C20.624 7.42861 20.6649 7.36813 20.6928 7.30145C20.7207 7.23476 20.735 7.1632 20.735 7.09091C20.735 7.01862 20.7207 6.94706 20.6928 6.88037C20.6649 6.81369 20.624 6.75321 20.5725 6.70246C20.5211 6.65171 20.46 6.61169 20.3929 6.58474C20.3259 6.55779 20.2541 6.54443 20.1818 6.54545H14.1818ZM7.63636 9.27273C5.67948 9.27273 3.92833 10.4837 3.30256 12.2962C3.27803 12.3642 3.26725 12.4363 3.27086 12.5085C3.27447 12.5807 3.29239 12.6515 3.32357 12.7167C3.35476 12.7819 3.3986 12.8402 3.45253 12.8884C3.50647 12.9365 3.56943 12.9734 3.63776 12.997C3.70609 13.0206 3.77842 13.0303 3.85055 13.0257C3.92268 13.0211 3.99318 13.0022 4.05794 12.9701C4.1227 12.938 4.18044 12.8933 4.2278 12.8387C4.27516 12.7841 4.31119 12.7206 4.33381 12.652C4.80331 11.2921 6.12853 10.3636 7.63636 10.3636C9.1442 10.3636 10.4694 11.2921 10.9389 12.652C10.9615 12.7206 10.9976 12.7841 11.0449 12.8387C11.0923 12.8933 11.15 12.938 11.2148 12.9701C11.2795 13.0022 11.35 13.0211 11.4222 13.0257C11.4943 13.0303 11.5666 13.0206 11.635 12.997C11.7033 12.9734 11.7663 12.9365 11.8202 12.8884C11.8741 12.8403 11.918 12.7819 11.9492 12.7167C11.9804 12.6515 11.9983 12.5807 12.0019 12.5085C12.0055 12.4363 11.9947 12.3642 11.9702 12.2962C11.3444 10.4837 9.59325 9.27273 7.63636 9.27273ZM14.1818 9.27273C14.1095 9.27171 14.0378 9.28506 13.9707 9.31201C13.9036 9.33896 13.8426 9.37898 13.7911 9.42973C13.7396 9.48048 13.6988 9.54096 13.6709 9.60764C13.643 9.67433 13.6286 9.7459 13.6286 9.81818C13.6286 9.89047 13.643 9.96203 13.6709 10.0287C13.6988 10.0954 13.7396 10.1559 13.7911 10.2066C13.8426 10.2574 13.9036 10.2974 13.9707 10.3244C14.0378 10.3513 14.1095 10.3647 14.1818 10.3636H18.5455C18.6177 10.3647 18.6895 10.3513 18.7566 10.3244C18.8236 10.2974 18.8847 10.2574 18.9362 10.2066C18.9876 10.1559 19.0285 10.0954 19.0564 10.0287C19.0843 9.96203 19.0987 9.89047 19.0987 9.81818C19.0987 9.7459 19.0843 9.67433 19.0564 9.60764C19.0285 9.54096 18.9876 9.48048 18.9362 9.42973C18.8847 9.37898 18.8236 9.33896 18.7566 9.31201C18.6895 9.28506 18.6177 9.27171 18.5455 9.27273H14.1818Z" fill="black"/>
</svg>
