<svg width="89" height="64" viewBox="0 0 89 64" fill="none" xmlns="http://www.w3.org/2000/svg">
<path d="M10.0002 0C4.50117 0 0.000200015 4.50097 0.000200015 10V16C0.000226773 16.3292 0.0815301 16.6534 0.236895 16.9437C0.39226 17.234 0.616881 17.4814 0.890825 17.6641L37.3439 41.9648C41.3695 44.6502 46.6309 44.6502 50.6564 41.9648L84.0002 19.7383V54C84.0002 57.337 81.3372 60 78.0002 60H10.0002C6.66323 60 4.0002 57.337 4.0002 54V28C4.00395 27.735 3.95499 27.4719 3.85616 27.2259C3.75733 26.98 3.61061 26.7561 3.42452 26.5674C3.23843 26.3787 3.01669 26.2288 2.77217 26.1265C2.52766 26.0242 2.26525 25.9715 2.0002 25.9715C1.73515 25.9715 1.47274 26.0242 1.22823 26.1265C0.983714 26.2288 0.761969 26.3787 0.57588 26.5674C0.389791 26.7561 0.24307 26.98 0.144242 27.2259C0.0454145 27.4719 -0.00354808 27.735 0.000200015 28V54C0.000200015 59.499 4.50117 64 10.0002 64H78.0002C83.4992 64 88.0002 59.499 88.0002 54V16.2578C88.0267 16.0712 88.0267 15.8819 88.0002 15.6953V14.3477V10C88.0002 4.50097 83.4992 0 78.0002 0H10.0002ZM10.0002 4H78.0002C81.3372 4 84.0002 6.66303 84.0002 10V14.3477V14.9297L48.4377 38.6367C45.7473 40.4314 42.2531 40.4314 39.5627 38.6367L4.0002 14.9297V10C4.0002 6.66303 6.66323 4 10.0002 4Z" fill="black"/>
</svg>
