<svg width="24" height="22" viewBox="0 0 24 22" fill="none" xmlns="http://www.w3.org/2000/svg">
<path d="M6 0.63623C4.80145 0.63623 3.81818 1.6195 3.81818 2.81805V19.1817C3.81818 20.3802 4.80145 21.3635 6 21.3635H18C19.1985 21.3635 20.1818 20.3802 20.1818 19.1817V2.81805C20.1818 1.6195 19.1985 0.63623 18 0.63623H6ZM6 1.72714H18C18.6091 1.72714 19.0909 2.20896 19.0909 2.81805V19.1817C19.0909 19.7908 18.6091 20.2726 18 20.2726H6C5.39091 20.2726 4.90909 19.7908 4.90909 19.1817V2.81805C4.90909 2.20896 5.39091 1.72714 6 1.72714ZM1.63636 2.81805C0.739107 2.81805 0 3.55716 0 4.45441V17.5453C0 18.4426 0.739107 19.1817 1.63636 19.1817H2.18182C2.2541 19.1827 2.32586 19.1694 2.39293 19.1424C2.46001 19.1154 2.52105 19.0754 2.57253 19.0247C2.624 18.9739 2.66488 18.9135 2.69278 18.8468C2.72067 18.7801 2.73504 18.7085 2.73504 18.6362C2.73504 18.5639 2.72067 18.4924 2.69278 18.4257C2.66488 18.359 2.624 18.2985 2.57253 18.2478C2.52105 18.197 2.46001 18.157 2.39293 18.1301C2.32586 18.1031 2.2541 18.0898 2.18182 18.0908H1.63636C1.32817 18.0908 1.09091 17.8535 1.09091 17.5453V4.45441C1.09091 4.14621 1.32817 3.90896 1.63636 3.90896H2.18182C2.2541 3.90998 2.32586 3.89663 2.39293 3.86967C2.46001 3.84272 2.52105 3.80271 2.57253 3.75195C2.624 3.7012 2.66488 3.64073 2.69278 3.57404C2.72067 3.50736 2.73504 3.43579 2.73504 3.3635C2.73504 3.29122 2.72067 3.21965 2.69278 3.15296C2.66488 3.08628 2.624 3.0258 2.57253 2.97505C2.52105 2.9243 2.46001 2.88429 2.39293 2.85733C2.32586 2.83038 2.2541 2.81703 2.18182 2.81805H1.63636ZM21.8182 2.81805C21.7459 2.81703 21.6741 2.83038 21.6071 2.85733C21.54 2.88429 21.4789 2.9243 21.4275 2.97505C21.376 3.0258 21.3351 3.08628 21.3072 3.15296C21.2793 3.21965 21.265 3.29122 21.265 3.3635C21.265 3.43579 21.2793 3.50736 21.3072 3.57404C21.3351 3.64073 21.376 3.7012 21.4275 3.75195C21.4789 3.80271 21.54 3.84272 21.6071 3.86967C21.6741 3.89663 21.7459 3.90998 21.8182 3.90896H22.3636C22.6718 3.90896 22.9091 4.14621 22.9091 4.45441V17.5453C22.9091 17.8535 22.6718 18.0908 22.3636 18.0908H21.8182C21.7459 18.0898 21.6741 18.1031 21.6071 18.1301C21.54 18.157 21.4789 18.197 21.4275 18.2478C21.376 18.2985 21.3351 18.359 21.3072 18.4257C21.2793 18.4924 21.265 18.5639 21.265 18.6362C21.265 18.7085 21.2793 18.7801 21.3072 18.8468C21.3351 18.9135 21.376 18.9739 21.4275 19.0247C21.4789 19.0754 21.54 19.1154 21.6071 19.1424C21.6741 19.1694 21.7459 19.1827 21.8182 19.1817H22.3636C23.2609 19.1817 24 18.4426 24 17.5453V4.45441C24 3.55716 23.2609 2.81805 22.3636 2.81805H21.8182ZM12 4.99987C11.0303 4.99987 10.2344 5.42989 9.73295 6.05668C9.23152 6.68348 9 7.48168 9 8.27259C9 9.0635 9.23152 9.86171 9.73295 10.4885C10.2344 11.1153 11.0303 11.5453 12 11.5453C12.9697 11.5453 13.7656 11.1153 14.267 10.4885C14.7685 9.86171 15 9.0635 15 8.27259C15 7.48168 14.7685 6.68348 14.267 6.05668C13.7656 5.42989 12.9697 4.99987 12 4.99987ZM12 6.09078C12.6667 6.09078 13.098 6.34257 13.4148 6.7385C13.7315 7.13444 13.9091 7.69987 13.9091 8.27259C13.9091 8.84532 13.7315 9.41075 13.4148 9.80668C13.098 10.2026 12.6667 10.4544 12 10.4544C11.3333 10.4544 10.902 10.2026 10.5852 9.80668C10.2685 9.41075 10.0909 8.84532 10.0909 8.27259C10.0909 7.69987 10.2685 7.13444 10.5852 6.7385C10.902 6.34257 11.3333 6.09078 12 6.09078ZM12 12.6362C9.31941 12.6362 6.92388 14.268 6.06712 16.7144V16.7154L6.0309 16.8198C6.00418 16.8881 5.99151 16.961 5.99362 17.0343C5.99574 17.1076 6.0126 17.1797 6.0432 17.2463C6.0738 17.3129 6.11751 17.3727 6.17173 17.422C6.22594 17.4714 6.28955 17.5093 6.35874 17.5335C6.42794 17.5577 6.5013 17.5677 6.57445 17.5629C6.6476 17.5582 6.71904 17.5387 6.7845 17.5057C6.84995 17.4727 6.90809 17.4268 6.95543 17.3708C7.00276 17.3149 7.03834 17.2499 7.06001 17.1799L7.0973 17.0755V17.0744C7.79427 15.0857 9.76202 13.7271 12 13.7271C14.2383 13.7271 16.206 15.0862 16.9027 17.0755L16.94 17.1799C16.9617 17.2499 16.9972 17.3149 17.0446 17.3708C17.0919 17.4268 17.15 17.4727 17.2155 17.5057C17.281 17.5387 17.3524 17.5582 17.4256 17.5629C17.4987 17.5677 17.5721 17.5577 17.6413 17.5335C17.7105 17.5093 17.7741 17.4714 17.8283 17.422C17.8825 17.3727 17.9262 17.3129 17.9568 17.2463C17.9874 17.1797 18.0043 17.1076 18.0064 17.0343C18.0085 16.961 17.9958 16.8881 17.9691 16.8198L17.9329 16.7154V16.7144C17.0761 14.268 14.6806 12.6362 12 12.6362Z" fill="black"/>
</svg>
