<svg width="22" height="24" viewBox="0 0 22 24" fill="none" xmlns="http://www.w3.org/2000/svg">
<path d="M15.0697 0C14.1516 0 13.3953 0.756294 13.3953 1.67441V5.58138C13.3943 5.65534 13.4079 5.72877 13.4355 5.79741C13.4631 5.86604 13.504 5.92851 13.556 5.98118C13.6079 6.03385 13.6698 6.07567 13.738 6.10422C13.8063 6.13277 13.8795 6.14747 13.9535 6.14747C14.0274 6.14747 14.1007 6.13277 14.1689 6.10422C14.2371 6.07567 14.299 6.03385 14.3509 5.98118C14.4029 5.92851 14.4438 5.86604 14.4714 5.79741C14.499 5.72877 14.5126 5.65534 14.5116 5.58138V1.67441C14.5116 1.35905 14.7544 1.11628 15.0697 1.11628H19.5348C19.8502 1.11628 20.093 1.35905 20.093 1.67441V4.46511H16.7441C16.6702 4.46406 16.5968 4.47772 16.5281 4.5053C16.4595 4.53288 16.397 4.57383 16.3444 4.62576C16.2917 4.67769 16.2499 4.73957 16.2213 4.80781C16.1928 4.87605 16.1781 4.94928 16.1781 5.02324C16.1781 5.09721 16.1928 5.17044 16.2213 5.23868C16.2499 5.30691 16.2917 5.3688 16.3444 5.42073C16.397 5.47266 16.4595 5.51361 16.5281 5.54119C16.5968 5.56876 16.6702 5.58243 16.7441 5.58138H20.093V18.9767H16.7441C16.6702 18.9757 16.5968 18.9893 16.5281 19.0169C16.4595 19.0445 16.397 19.0854 16.3444 19.1374C16.2917 19.1893 16.2499 19.2512 16.2213 19.3194C16.1928 19.3876 16.1781 19.4609 16.1781 19.5348C16.1781 19.6088 16.1928 19.682 16.2213 19.7503C16.2499 19.8185 16.2917 19.8804 16.3444 19.9323C16.397 19.9843 16.4595 20.0252 16.5281 20.0528C16.5968 20.0804 16.6702 20.094 16.7441 20.093H20.093V22.3255C20.093 22.6409 19.8502 22.8837 19.5348 22.8837H16.186C16.112 22.8826 16.0386 22.8963 15.97 22.9239C15.9014 22.9514 15.8389 22.9924 15.7862 23.0443C15.7335 23.0963 15.6917 23.1581 15.6632 23.2264C15.6346 23.2946 15.6199 23.3678 15.6199 23.4418C15.6199 23.5158 15.6346 23.589 15.6632 23.6572C15.6917 23.7255 15.7335 23.7874 15.7862 23.8393C15.8389 23.8912 15.9014 23.9322 15.97 23.9597C16.0386 23.9873 16.112 24.001 16.186 23.9999H19.5348C20.453 23.9999 21.2093 23.2437 21.2093 22.3255V19.6286C21.2192 19.5683 21.2192 19.5068 21.2093 19.4465V5.11699C21.2192 5.05672 21.2192 4.99522 21.2093 4.93495V1.67441C21.2093 0.756294 20.453 0 19.5348 0H15.0697ZM1.67441 2.79069C0.756024 2.79069 0 3.54671 0 4.46511V22.3255C0 23.2439 0.756024 23.9999 1.67441 23.9999H6.13952C7.05764 23.9999 7.81394 23.2437 7.81394 22.3255V19.6286C7.8239 19.5683 7.8239 19.5068 7.81394 19.4465V7.90769C7.8239 7.84741 7.8239 7.78591 7.81394 7.72564V4.46511C7.81394 3.54671 7.05791 2.79069 6.13952 2.79069H1.67441ZM1.67441 3.90697H6.13952C6.44903 3.90697 6.69766 4.15559 6.69766 4.46511V7.2558H2.79069C2.71673 7.25475 2.6433 7.26841 2.57467 7.29599C2.50603 7.32357 2.44357 7.36452 2.3909 7.41645C2.33822 7.46838 2.2964 7.53027 2.26785 7.5985C2.2393 7.66674 2.2246 7.73997 2.2246 7.81394C2.2246 7.8879 2.2393 7.96113 2.26785 8.02937C2.2964 8.09761 2.33822 8.15949 2.3909 8.21142C2.44357 8.26335 2.50603 8.3043 2.57467 8.33188C2.6433 8.35946 2.71673 8.37312 2.79069 8.37207H6.69766V18.9767H2.79069C2.71673 18.9757 2.6433 18.9893 2.57467 19.0169C2.50603 19.0445 2.44357 19.0854 2.3909 19.1374C2.33822 19.1893 2.2964 19.2512 2.26785 19.3194C2.2393 19.3876 2.2246 19.4609 2.2246 19.5348C2.2246 19.6088 2.2393 19.682 2.26785 19.7503C2.2964 19.8185 2.33822 19.8804 2.3909 19.9323C2.44357 19.9843 2.50603 20.0252 2.57467 20.0528C2.6433 20.0804 2.71673 20.094 2.79069 20.093H6.69766V22.3255C6.69766 22.6409 6.45489 22.8837 6.13952 22.8837H1.67441C1.3649 22.8837 1.11628 22.635 1.11628 22.3255V4.46511C1.11628 4.15559 1.3649 3.90697 1.67441 3.90697ZM9.48835 7.2558C9.41439 7.25475 9.34096 7.26841 9.27233 7.29599C9.20369 7.32357 9.14123 7.36452 9.08855 7.41645C9.03588 7.46838 8.99406 7.53027 8.96551 7.5985C8.93696 7.66674 8.92226 7.73997 8.92226 7.81394C8.92226 7.8879 8.93696 7.96113 8.96551 8.02937C8.99406 8.09761 9.03588 8.15949 9.08855 8.21142C9.14123 8.26335 9.20369 8.3043 9.27233 8.33188C9.34096 8.35946 9.41439 8.37312 9.48835 8.37207H12.8372C13.1525 8.37207 13.3953 8.61485 13.3953 8.93021V11.7209H10.0465C9.97253 11.7199 9.8991 11.7335 9.83047 11.7611C9.76183 11.7887 9.69936 11.8296 9.64669 11.8816C9.59402 11.9335 9.5522 11.9954 9.52365 12.0636C9.4951 12.1318 9.4804 12.2051 9.4804 12.279C9.4804 12.353 9.4951 12.4262 9.52365 12.4945C9.5522 12.5627 9.59402 12.6246 9.64669 12.6765C9.69936 12.7285 9.76183 12.7694 9.83047 12.797C9.8991 12.8246 9.97253 12.8382 10.0465 12.8372H13.3953V18.9767H10.0465C9.97253 18.9757 9.8991 18.9893 9.83047 19.0169C9.76183 19.0445 9.69936 19.0854 9.64669 19.1374C9.59402 19.1893 9.5522 19.2512 9.52365 19.3194C9.4951 19.3876 9.4804 19.4609 9.4804 19.5348C9.4804 19.6088 9.4951 19.682 9.52365 19.7503C9.5522 19.8185 9.59402 19.8804 9.64669 19.9323C9.69936 19.9843 9.76183 20.0252 9.83047 20.0528C9.8991 20.0804 9.97253 20.094 10.0465 20.093H13.3953V22.3255C13.3953 22.6409 13.1525 22.8837 12.8372 22.8837H9.48835C9.41439 22.8826 9.34096 22.8963 9.27233 22.9239C9.20369 22.9514 9.14123 22.9924 9.08855 23.0443C9.03588 23.0963 8.99406 23.1581 8.96551 23.2264C8.93696 23.2946 8.92226 23.3678 8.92226 23.4418C8.92226 23.5158 8.93696 23.589 8.96551 23.6572C8.99406 23.7255 9.03588 23.7874 9.08855 23.8393C9.14123 23.8912 9.20369 23.9322 9.27233 23.9597C9.34096 23.9873 9.41439 24.001 9.48835 23.9999H12.8372C13.7553 23.9999 14.5116 23.2437 14.5116 22.3255V19.6286C14.5216 19.5683 14.5216 19.5068 14.5116 19.4465V12.3728C14.5216 12.3125 14.5216 12.251 14.5116 12.1907V8.93021C14.5116 8.01209 13.7553 7.2558 12.8372 7.2558H9.48835Z" fill="black"/>
</svg>
