<svg width="23" height="19" viewBox="0 0 23 19" fill="none" xmlns="http://www.w3.org/2000/svg">
<path d="M19.8606 0.78125C19.386 0.781258 18.9118 0.976814 18.5527 1.36734L9.67159 11.016L5.35675 6.32823C4.63807 5.54745 3.45836 5.54718 2.74008 6.32823L1.44816 7.7318C0.72948 8.51259 0.729233 9.79425 1.44816 10.5746L8.36278 18.0868C9.08136 18.8675 10.2609 18.8675 10.9795 18.0868L22.4613 5.61269C23.1796 4.83225 23.1794 3.55179 22.4613 2.77091V2.76989L21.1694 1.36734C20.81 0.976948 20.3351 0.781242 19.8606 0.78125ZM19.8606 1.81889C20.0872 1.8189 20.3143 1.91433 20.4901 2.10531L21.7811 3.50785C22.1323 3.88972 22.132 4.49347 21.7811 4.87472L10.3002 17.3488C9.94851 17.7309 9.39372 17.7309 9.04204 17.3488L2.12743 9.83664C1.7761 9.45529 1.77586 8.85172 2.12743 8.46977L3.41934 7.0662C3.77035 6.68452 4.32591 6.68425 4.67749 7.0662L9.33101 12.1229C9.37564 12.1715 9.42865 12.2101 9.48701 12.2364C9.54537 12.2627 9.60793 12.2762 9.67112 12.2762C9.7343 12.2762 9.79686 12.2627 9.85522 12.2364C9.91358 12.2101 9.96659 12.1715 10.0112 12.1229L19.232 2.10531C19.4075 1.91447 19.6339 1.81888 19.8606 1.81889Z" fill="black"/>
</svg>
