<svg width="23" height="18" viewBox="0 0 23 18" fill="none" xmlns="http://www.w3.org/2000/svg">
<path d="M18.9515 2.37974e-10C18.4769 7.8284e-06 18.0028 0.195564 17.6436 0.586093L8.76253 10.2347L4.44769 5.54698C3.72901 4.7662 2.5493 4.76593 1.83102 5.54698L0.539104 6.95055C-0.179578 7.73134 -0.179825 9.013 0.539104 9.79335L7.45372 17.3055C8.1723 18.0862 9.35181 18.0862 10.0704 17.3055L21.5522 4.83144C22.2706 4.051 22.2703 2.77054 21.5522 1.98966V1.98864L20.2603 0.586093C19.901 0.195698 19.4261 -7.88011e-06 18.9515 2.37974e-10ZM18.9515 1.03764C19.1781 1.03765 19.4053 1.13308 19.581 1.32406L20.872 2.7266C21.2232 3.10847 21.2229 3.71222 20.872 4.09347L9.39113 16.5676C9.03946 16.9496 8.48466 16.9496 8.13299 16.5676L1.21837 9.05539C0.867046 8.67404 0.866798 8.07047 1.21837 7.68852L2.51029 6.28495C2.86129 5.90327 3.41686 5.903 3.76843 6.28495L8.42196 11.3417C8.46658 11.3903 8.51959 11.4288 8.57795 11.4551C8.63631 11.4814 8.69887 11.495 8.76206 11.495C8.82524 11.495 8.8878 11.4814 8.94616 11.4551C9.00452 11.4288 9.05753 11.3903 9.10216 11.3417L18.3229 1.32406C18.4984 1.13322 18.7249 1.03763 18.9515 1.03764Z" fill="black"/>
</svg>
