<svg width="24" height="21" viewBox="0 0 24 21" fill="none" xmlns="http://www.w3.org/2000/svg">
<path d="M8.02455 0.000461186C7.97317 -0.00160454 7.92173 0.00327584 7.87165 0.0149701L0.44308 1.72926C0.317129 1.7583 0.204744 1.82918 0.12427 1.93033C0.0437968 2.03148 -1.04605e-05 2.15692 1.8736e-09 2.28618V18.8576C-2.95957e-06 18.9436 0.0193826 19.0284 0.0567135 19.1058C0.0940444 19.1833 0.148359 19.2513 0.215613 19.3048C0.282868 19.3583 0.361329 19.396 0.445156 19.415C0.528984 19.434 0.616017 19.4338 0.699777 19.4145L7.9654 17.7382L15.808 20.5384C15.9108 20.5752 16.022 20.5818 16.1283 20.5574L23.5569 18.8431C23.6829 18.8141 23.7953 18.7432 23.8757 18.642C23.9562 18.5409 24 18.4154 24 18.2862V1.71475C24 1.62879 23.9806 1.54395 23.9433 1.46652C23.906 1.3891 23.8516 1.32109 23.7844 1.26757C23.7171 1.21404 23.6387 1.17638 23.5548 1.15738C23.471 1.13838 23.384 1.13853 23.3002 1.15783L16.0335 2.83417L8.19197 0.0339433C8.13815 0.0144631 8.08172 0.00317652 8.02455 0.000461186ZM7.9654 1.16676L15.808 3.96698C15.9108 4.00376 16.022 4.01035 16.1283 3.98595L22.8571 2.4335V17.8319L16.0346 19.4056L8.19197 16.6054C8.0892 16.5686 7.97804 16.562 7.87165 16.5864L1.14286 18.1389V2.74042L7.9654 1.16676ZM6.17188 4.49153C5.76616 4.53153 5.46335 4.89092 5.50335 5.30292C5.54335 5.68577 5.86839 5.97144 6.24554 5.97144H6.31473C6.72616 5.93144 7.02326 5.56577 6.98326 5.16006C6.94326 4.74806 6.5833 4.4521 6.17188 4.49153ZM9.0067 4.75158C8.71795 4.7665 8.44978 4.94899 8.34263 5.24042C8.20492 5.62327 8.40049 6.0518 8.78906 6.19466C8.86906 6.22323 8.96018 6.23426 9.04018 6.23484C9.34304 6.23484 9.62902 6.0522 9.7433 5.74935C9.88102 5.36649 9.67973 4.93796 9.29688 4.7951C9.20116 4.76068 9.10295 4.7466 9.0067 4.75158ZM3.3817 4.97479C3.33271 4.97816 3.28359 4.98689 3.23438 5.00046H3.22768C2.83396 5.10903 2.60571 5.51452 2.71429 5.91452C2.79943 6.24024 3.10286 6.45805 3.42857 6.45805C3.49086 6.45805 3.55934 6.45189 3.62277 6.42903C4.02277 6.31989 4.25086 5.91385 4.14286 5.51385C4.04736 5.16935 3.7246 4.95119 3.3817 4.97479ZM11.7076 5.88439C11.4184 5.86778 11.1367 6.02305 11 6.29734C10.8171 6.66877 10.9713 7.1089 11.3371 7.29176C11.4456 7.34318 11.5544 7.371 11.6629 7.371C11.9424 7.371 12.2052 7.21756 12.3315 6.9547C12.5138 6.58327 12.3601 6.138 11.9944 5.96028C11.9016 5.91457 11.804 5.88993 11.7076 5.88439ZM14.2801 7.25158C13.9925 7.21268 13.6963 7.34549 13.5424 7.60649C13.331 7.96077 13.4454 8.41738 13.7991 8.62881C13.9191 8.69738 14.0512 8.73203 14.1763 8.7326C14.4335 8.7326 14.6798 8.60082 14.817 8.36653C15.0284 8.01225 14.9134 7.5601 14.5592 7.34868C14.4706 7.29596 14.376 7.26454 14.2801 7.25158ZM16.7199 8.40671C16.309 8.40157 15.9717 8.72644 15.9654 9.13216C15.9545 9.54416 16.2805 9.88649 16.692 9.8922H16.702C17.1077 9.8922 17.439 9.57135 17.4453 9.16564C17.4562 8.75364 17.1313 8.41814 16.7199 8.40671ZM19.5335 8.81854C19.2428 8.81045 18.9634 8.97343 18.8348 9.25158C18.664 9.62301 18.8289 10.0627 19.1998 10.2404V10.2348C19.3026 10.2863 19.4054 10.3029 19.5134 10.3029C19.794 10.3029 20.0623 10.1429 20.1886 9.87435C20.3595 9.50292 20.194 9.05805 19.8225 8.88662C19.7284 8.84391 19.6304 8.82124 19.5335 8.81854ZM7.42299 10.2784C7.27226 10.2819 7.12905 10.3449 7.02455 10.4536L5.71429 11.7639L4.40402 10.4536C4.35077 10.3988 4.28708 10.3553 4.21673 10.3256C4.14638 10.2959 4.07079 10.2806 3.99442 10.2806C3.88074 10.2806 3.76966 10.3146 3.67537 10.378C3.58108 10.4415 3.50786 10.5317 3.46509 10.637C3.42231 10.7424 3.41192 10.858 3.43523 10.9693C3.45855 11.0806 3.51452 11.1823 3.59598 11.2616L4.90625 12.5719L3.59598 13.8822C3.54114 13.9348 3.49736 13.9979 3.46719 14.0677C3.43703 14.1375 3.42109 14.2126 3.42032 14.2886C3.41955 14.3646 3.43395 14.44 3.46269 14.5104C3.49142 14.5808 3.53392 14.6447 3.58768 14.6985C3.64143 14.7523 3.70538 14.7948 3.77577 14.8235C3.84616 14.8522 3.92157 14.8666 3.99759 14.8659C4.07362 14.8651 4.14872 14.8491 4.21851 14.819C4.2883 14.7888 4.35136 14.745 4.40402 14.6902L5.71429 13.3799L7.02455 14.6902C7.07721 14.745 7.14028 14.7888 7.21006 14.819C7.27985 14.8491 7.35496 14.8651 7.43098 14.8659C7.507 14.8666 7.58242 14.8522 7.65281 14.8235C7.72319 14.7948 7.78714 14.7523 7.8409 14.6985C7.89466 14.6447 7.93715 14.5808 7.96589 14.5104C7.99462 14.44 8.00903 14.3646 8.00825 14.2886C8.00748 14.2126 7.99154 14.1375 7.96138 14.0677C7.93122 13.9979 7.88743 13.9348 7.83259 13.8822L6.52232 12.5719L7.83259 11.2616C7.91558 11.1818 7.97253 11.0788 7.99598 10.9661C8.01943 10.8534 8.00829 10.7362 7.96402 10.6299C7.91974 10.5237 7.8444 10.4332 7.74787 10.3705C7.65133 10.3078 7.53809 10.2756 7.42299 10.2784ZM20.5714 11.2683C20.1619 11.2626 19.8311 11.5972 19.8281 12.006C19.8281 12.0068 19.8281 12.0075 19.8281 12.0083V12.0116C19.8312 12.4204 20.1619 12.7481 20.5714 12.7538C20.9829 12.7538 21.3147 12.4236 21.3147 12.0116C21.3147 11.6002 20.9829 11.2683 20.5714 11.2683ZM9.92969 12.1277C9.73962 12.1392 9.55455 12.2234 9.41741 12.3777C9.14313 12.68 9.17134 13.1492 9.47991 13.4235C9.61705 13.5492 9.79438 13.6115 9.9721 13.6121C10.1778 13.6121 10.3782 13.5265 10.5268 13.3665C10.8005 13.058 10.7716 12.5895 10.4688 12.3152C10.3148 12.1778 10.1198 12.1162 9.92969 12.1277ZM12.3783 13.8587C12.0948 13.8098 11.7959 13.9315 11.6283 14.1891C11.4061 14.5319 11.503 14.9952 11.8516 15.2181C11.9716 15.2981 12.1145 15.3319 12.2511 15.3319C12.4911 15.3319 12.731 15.212 12.8739 14.9949C13.0962 14.6457 12.9992 14.1893 12.6507 13.9659C12.565 13.9103 12.4729 13.875 12.3783 13.8587ZM19.6105 13.9692C19.4232 14.0019 19.2488 14.1053 19.1317 14.2739C18.8974 14.611 18.9833 15.0742 19.3147 15.3085C19.4462 15.3999 19.5947 15.4402 19.7433 15.4402C19.9782 15.4402 20.2054 15.3324 20.3482 15.121C20.5825 14.7839 20.5034 14.32 20.1663 14.092C19.9977 13.9748 19.7978 13.9365 19.6105 13.9692ZM14.7824 15.2371C14.4938 15.2242 14.2136 15.3835 14.0804 15.6578C13.9032 16.0293 14.0571 16.4751 14.4286 16.6522C14.5314 16.7031 14.6398 16.7259 14.7478 16.7259C15.0226 16.7259 15.2906 16.5665 15.4163 16.2973C15.594 15.9322 15.4389 15.4868 15.0681 15.3096C14.9752 15.2652 14.8786 15.2413 14.7824 15.2371ZM17.4051 15.602C17.3558 15.6061 17.3059 15.6145 17.2567 15.6288C16.8676 15.7488 16.6458 16.1614 16.76 16.5551C16.8572 16.8809 17.1543 17.0858 17.4743 17.0864C17.5429 17.0864 17.6167 17.0747 17.6853 17.0518C18.079 16.9375 18.3025 16.5213 18.1819 16.1322C18.0824 15.7872 17.7504 15.5735 17.4051 15.602Z" fill="black"/>
</svg>
