<svg width="24" height="24" viewBox="0 0 24 24" fill="none" xmlns="http://www.w3.org/2000/svg">
<path d="M8.6974 0.000388898C8.63006 -0.00209688 8.5628 0.00734908 8.49875 0.0282902C3.56687 1.62589 0 6.25604 0 11.7134C0 18.4919 5.50815 24 12.2866 24C17.0718 24 21.2157 21.2539 23.2429 17.2546C23.2938 17.1539 23.3137 17.0403 23.3002 16.9283C23.2867 16.8163 23.2403 16.7108 23.1669 16.6251C23.0935 16.5394 22.9964 16.4773 22.8877 16.4468C22.7791 16.4162 22.6639 16.4184 22.5566 16.4532C21.4725 16.8048 20.3205 16.999 19.1213 16.999C12.9606 16.999 7.97755 12.0159 7.97755 5.85521C7.97755 4.04407 8.41717 2.34261 9.184 0.829617C9.22724 0.744246 9.24835 0.649383 9.2454 0.553731C9.24244 0.458079 9.21551 0.364702 9.16707 0.282166C9.11864 0.199629 9.05026 0.130577 8.96819 0.0813449C8.88613 0.0321123 8.79302 0.00427566 8.6974 0.000388898ZM15.4283 1.71465C15.1558 1.71465 14.9212 1.90761 14.8681 2.17446L14.7107 2.96128C14.6198 3.41727 14.2666 3.76944 13.81 3.85859L13.0333 4.01148C12.7641 4.06463 12.5712 4.30081 12.5723 4.57509C12.5735 4.8488 12.7691 5.08395 13.0389 5.13423L13.8 5.27597C14.2628 5.36169 14.6204 5.71549 14.7118 6.17663L14.8681 6.96903C14.9206 7.23645 15.1546 7.42939 15.4272 7.42996H15.4294C15.7014 7.42996 15.9349 7.237 15.9886 6.97014L16.1471 6.18779C16.2379 5.73808 16.5868 5.38863 17.0366 5.29606L17.8301 5.132C18.0963 5.07658 18.2877 4.84151 18.2865 4.56951C18.2854 4.29752 18.0908 4.06348 17.8234 4.01148L17.0466 3.85859C16.59 3.76944 16.2368 3.41727 16.1459 2.96128L15.9886 2.17446C15.9354 1.90761 15.7009 1.71465 15.4283 1.71465ZM7.63938 1.73027C7.16811 3.02886 6.83471 4.39276 6.83471 5.85521C6.83471 12.6337 12.3429 18.1418 19.1213 18.1418C19.9105 18.1418 20.6734 18.0447 21.4204 17.9008C19.4178 20.8535 16.1267 22.8572 12.2866 22.8572C6.1259 22.8572 1.14284 17.8741 1.14284 11.7134C1.14284 7.23972 3.84242 3.5041 7.63938 1.73027ZM19.9986 8.58061C19.9974 8.58061 19.9958 8.58172 19.9941 8.58172C19.7227 8.58287 19.4892 8.78418 19.4361 9.05047C19.3681 9.39218 19.1027 9.65599 18.7542 9.72456L18.7408 9.72679C18.4733 9.78222 18.2837 10.0201 18.2865 10.2926C18.2894 10.5652 18.4845 10.7981 18.7519 10.8484C19.0988 10.913 19.368 11.178 19.4405 11.5448C19.496 11.8106 19.7311 11.9902 20.0019 11.9902H20.0041C20.2756 11.9896 20.5113 11.7871 20.5644 11.5214C20.6324 11.1837 20.8934 10.9205 21.2586 10.8451C21.5249 10.7897 21.709 10.5535 21.7072 10.2815C21.7055 10.0095 21.5065 9.77433 21.2396 9.72233C20.8973 9.65547 20.632 9.39165 20.5588 9.0248C20.5022 8.76023 20.2677 8.58061 19.9986 8.58061Z" fill="black"/>
</svg>
