<svg width="96" height="96" viewBox="0 0 96 96" fill="none" xmlns="http://www.w3.org/2000/svg">
<path d="M48 6C24.8277 6 6 24.8277 6 48C6 71.1723 24.8277 90 48 90C71.1723 90 90 71.1723 90 48C90 24.8277 71.1723 6 48 6ZM48 10C69.0105 10 86 26.9895 86 48C86 69.0105 69.0105 86 48 86C26.9895 86 10 69.0105 10 48C10 26.9895 26.9895 10 48 10ZM49.9883 24C49.4599 24.0031 48.9542 24.2152 48.5817 24.59C48.2092 24.9647 48 25.4716 48 26V63C48 65.6306 45.4722 68 42 68C38.5278 68 36 65.6306 36 63C36 60.3694 38.5278 58 42 58C42.2305 58 42.4617 58.0106 42.6875 58.0312C42.9491 58.0551 43.2129 58.0273 43.4638 57.9492C43.7147 57.8712 43.9477 57.7445 44.1496 57.5763C44.3515 57.4082 44.5183 57.202 44.6405 56.9694C44.7626 56.7368 44.8378 56.4824 44.8617 56.2207C44.8855 55.9591 44.8576 55.6953 44.7795 55.4445C44.7014 55.1936 44.5746 54.9606 44.4065 54.7587C44.2383 54.5569 44.0321 54.3901 43.7994 54.2679C43.5668 54.1458 43.3124 54.0707 43.0508 54.0469C42.7086 54.0155 42.3575 54 42 54C36.6362 54 32 57.8986 32 63C32 68.1014 36.6362 72 42 72C47.3638 72 52 68.1014 52 63V31.2422C55.1629 34.5944 58.5833 37.6138 60.8984 40.5195C62.5223 42.5577 63.4976 44.5067 63.5898 46.6719C63.6821 48.837 62.914 51.4233 60.3945 54.8047C60.2375 55.0155 60.1235 55.2552 60.0591 55.5101C59.9947 55.765 59.9812 56.03 60.0192 56.2902C60.0573 56.5503 60.1462 56.8004 60.281 57.0261C60.4157 57.2518 60.5936 57.4488 60.8044 57.6058C61.0153 57.7628 61.255 57.8767 61.5099 57.9411C61.7648 58.0054 62.0299 58.0189 62.29 57.9808C62.5501 57.9427 62.8001 57.8537 63.0259 57.7189C63.2516 57.5841 63.4485 57.4062 63.6055 57.1953C66.488 53.3267 67.7255 49.7736 67.5859 46.5C67.4464 43.2264 65.9497 40.4401 64.0273 38.0273C60.1827 33.2018 54.5643 29.3511 51.6758 24.9102C51.4932 24.6293 51.243 24.3987 50.9482 24.2397C50.6533 24.0807 50.3233 23.9983 49.9883 24Z" fill="black"/>
</svg>
