<svg width="24" height="19" viewBox="0 0 24 19" fill="none" xmlns="http://www.w3.org/2000/svg">
<path d="M12 0.589844C8.72629 0.589844 5.75321 1.54938 3.57422 3.13379C1.39523 4.7182 0 6.95691 0 9.45312C0 11.9493 1.39523 14.188 3.57422 15.7725C5.75321 17.3569 8.72629 18.3164 12 18.3164H12.0205H12.0215C13.4262 18.3146 14.6334 17.3362 14.9912 15.9922L15.5547 13.877H15.5557C15.8283 12.852 16.8075 12.1923 17.8604 12.3242L20.3193 12.6318H20.3203C22.2209 12.87 23.9899 11.4202 24 9.4873V9.48437V9.45312C24 6.95691 22.6048 4.7182 20.4258 3.13379C18.2468 1.54938 15.2737 0.589844 12 0.589844ZM12 1.58984C15.0773 1.58984 17.8546 2.50127 19.8379 3.94336C21.8212 5.38545 23 7.32833 23 9.45312V9.48437C22.9919 10.8075 21.775 11.8064 20.4443 11.6396L17.9844 11.3311C16.4432 11.138 14.9882 12.1181 14.5889 13.6191L14.0254 15.7344C13.7802 16.6554 12.9588 17.3152 12.0195 17.3164H12C8.92271 17.3164 6.14537 16.405 4.16211 14.9629C2.17885 13.5208 1 11.5779 1 9.45312C1 7.32833 2.17885 5.38545 4.16211 3.94336C6.14537 2.50127 8.92271 1.58984 12 1.58984ZM9.25 3.45312C8.70833 3.45312 8.23845 3.67425 7.93848 4.01172C7.63851 4.34918 7.5 4.77951 7.5 5.20312C7.5 5.62674 7.63851 6.05707 7.93848 6.39453C8.23845 6.732 8.70833 6.95312 9.25 6.95312C9.79167 6.95312 10.2616 6.732 10.5615 6.39453C10.8615 6.05707 11 5.62674 11 5.20312C11 4.77951 10.8615 4.34918 10.5615 4.01172C10.2616 3.67425 9.79167 3.45312 9.25 3.45312ZM14.75 3.45312C14.2083 3.45312 13.7384 3.67425 13.4385 4.01172C13.1385 4.34918 13 4.77951 13 5.20312C13 5.62674 13.1385 6.05707 13.4385 6.39453C13.7384 6.732 14.2083 6.95312 14.75 6.95312C15.2917 6.95312 15.7616 6.732 16.0615 6.39453C16.3615 6.05707 16.5 5.62674 16.5 5.20312C16.5 4.77951 16.3615 4.34918 16.0615 4.01172C15.7616 3.67425 15.2917 3.45312 14.75 3.45312ZM9.25 4.45312C9.54167 4.45312 9.69678 4.5445 9.81348 4.67578C9.93017 4.80707 10 5.00174 10 5.20312C10 5.40451 9.93017 5.59918 9.81348 5.73047C9.69678 5.86175 9.54167 5.95312 9.25 5.95312C8.95833 5.95312 8.80322 5.86175 8.68652 5.73047C8.56983 5.59918 8.5 5.40451 8.5 5.20312C8.5 5.00174 8.56983 4.80706 8.68652 4.67578C8.80322 4.5445 8.95833 4.45312 9.25 4.45312ZM14.75 4.45312C15.0417 4.45312 15.1968 4.5445 15.3135 4.67578C15.4302 4.80707 15.5 5.00174 15.5 5.20312C15.5 5.40451 15.4302 5.59918 15.3135 5.73047C15.1968 5.86175 15.0417 5.95312 14.75 5.95312C14.4583 5.95312 14.3032 5.86175 14.1865 5.73047C14.0698 5.59918 14 5.40451 14 5.20312C14 5.00174 14.0698 4.80706 14.1865 4.67578C14.3032 4.5445 14.4583 4.45312 14.75 4.45312ZM4.75 6.45312C4.20833 6.45312 3.73845 6.67425 3.43848 7.01172C3.13851 7.34918 3 7.77951 3 8.20312C3 8.62674 3.13851 9.05707 3.43848 9.39453C3.73845 9.732 4.20833 9.95312 4.75 9.95312C5.29167 9.95312 5.76155 9.732 6.06152 9.39453C6.36149 9.05706 6.5 8.62674 6.5 8.20312C6.5 7.77951 6.36149 7.34918 6.06152 7.01172C5.76155 6.67425 5.29167 6.45312 4.75 6.45312ZM19.25 6.45312C18.7083 6.45312 18.2384 6.67425 17.9385 7.01172C17.6385 7.34918 17.5 7.77951 17.5 8.20312C17.5 8.62674 17.6385 9.05707 17.9385 9.39453C18.2384 9.732 18.7083 9.95312 19.25 9.95312C19.7917 9.95312 20.2616 9.732 20.5615 9.39453C20.8615 9.05706 21 8.62674 21 8.20312C21 7.77951 20.8615 7.34918 20.5615 7.01172C20.2616 6.67425 19.7917 6.45312 19.25 6.45312ZM4.75 7.45312C5.04167 7.45312 5.19678 7.5445 5.31348 7.67578C5.43017 7.80706 5.5 8.00174 5.5 8.20312C5.5 8.40451 5.43017 8.59918 5.31348 8.73047C5.19678 8.86175 5.04167 8.95312 4.75 8.95312C4.45833 8.95312 4.30322 8.86175 4.18652 8.73047C4.06983 8.59918 4 8.40451 4 8.20312C4 8.00174 4.06983 7.80707 4.18652 7.67578C4.30322 7.5445 4.45833 7.45312 4.75 7.45312ZM19.25 7.45312C19.5417 7.45312 19.6968 7.5445 19.8135 7.67578C19.9302 7.80706 20 8.00174 20 8.20312C20 8.40451 19.9302 8.59918 19.8135 8.73047C19.6968 8.86175 19.5417 8.95312 19.25 8.95312C18.9583 8.95312 18.8032 8.86175 18.6865 8.73047C18.5698 8.59918 18.5 8.40451 18.5 8.20312C18.5 8.00174 18.5698 7.80707 18.6865 7.67578C18.8032 7.5445 18.9583 7.45312 19.25 7.45312ZM10.75 11.4531C10.0417 11.4531 9.44678 11.7368 9.06348 12.168C8.68017 12.5992 8.5 13.1545 8.5 13.7031C8.5 14.2517 8.68017 14.8071 9.06348 15.2383C9.44678 15.6695 10.0417 15.9531 10.75 15.9531C11.4583 15.9531 12.0532 15.6695 12.4365 15.2383C12.8198 14.8071 13 14.2517 13 13.7031C13 13.1545 12.8198 12.5992 12.4365 12.168C12.0532 11.7368 11.4583 11.4531 10.75 11.4531ZM10.75 12.4531C11.2083 12.4531 11.4884 12.607 11.6885 12.832C11.8885 13.0571 12 13.3767 12 13.7031C12 14.0295 11.8885 14.3492 11.6885 14.5742C11.4884 14.7993 11.2083 14.9531 10.75 14.9531C10.2917 14.9531 10.0116 14.7993 9.81152 14.5742C9.61149 14.3492 9.5 14.0295 9.5 13.7031C9.5 13.3767 9.61149 13.0571 9.81152 12.832C10.0116 12.607 10.2917 12.4531 10.75 12.4531Z" fill="black"/>
</svg>
