<svg width="24" height="23" viewBox="0 0 24 23" fill="none" xmlns="http://www.w3.org/2000/svg">
<path d="M3.01971 0.000136001C2.91625 0.000785655 2.81555 0.033564 2.73153 0.0939385C2.64751 0.154313 2.58432 0.239301 2.55071 0.33715C2.51709 0.434999 2.51471 0.540876 2.54388 0.640139C2.57306 0.739402 2.63236 0.827148 2.71358 0.891242L4.27545 2.15673C4.32622 2.19954 4.38503 2.2318 4.44842 2.2516C4.51181 2.2714 4.57852 2.27836 4.64463 2.27206C4.71075 2.26576 4.77494 2.24633 4.83345 2.21491C4.89196 2.18349 4.94362 2.14072 4.98539 2.08908C5.02716 2.03745 5.05821 1.97801 5.07672 1.91422C5.09523 1.85044 5.10083 1.78361 5.09319 1.71763C5.08554 1.65166 5.06481 1.58788 5.03221 1.53002C4.99961 1.47216 4.95579 1.42138 4.90332 1.38067L3.34145 0.11518C3.25107 0.0401828 3.13715 -0.000552757 3.01971 0.000136001ZM20.9657 0.000136001C20.8533 0.00280609 20.745 0.0433426 20.6586 0.11518L19.0967 1.38067C19.0442 1.42138 19.0004 1.47216 18.9678 1.53002C18.9352 1.58788 18.9145 1.65166 18.9068 1.71764C18.8992 1.78361 18.9048 1.85044 18.9233 1.91422C18.9418 1.97801 18.9728 2.03746 19.0146 2.08909C19.0564 2.14072 19.108 2.1835 19.1665 2.21492C19.2251 2.24633 19.2893 2.26576 19.3554 2.27206C19.4215 2.27836 19.4882 2.27141 19.5516 2.2516C19.615 2.2318 19.6738 2.19955 19.7245 2.15673L21.2864 0.891242C21.3687 0.826388 21.4284 0.737307 21.4573 0.636609C21.4861 0.535912 21.4825 0.428698 21.447 0.330146C21.4116 0.231595 21.346 0.146697 21.2596 0.087471C21.1732 0.0282452 21.0704 -0.00230815 20.9657 0.000136001ZM12.1784 0.287747C11.8632 0.280771 11.551 0.293593 11.2434 0.32577C7.55285 0.711896 4.51236 3.83029 4.51236 7.63986C4.51236 9.77516 5.28458 11.1056 6.12104 12.229C6.95749 13.3523 7.82516 14.2904 8.27666 15.8821C8.29314 15.9467 8.32239 16.0073 8.36268 16.0604C8.40297 16.1135 8.45349 16.158 8.51126 16.1913C8.56902 16.2246 8.63287 16.2459 8.69902 16.2541C8.76517 16.2623 8.8323 16.2572 8.89644 16.239C8.96057 16.2209 9.02042 16.19 9.07245 16.1484C9.12448 16.1067 9.16764 16.055 9.19938 15.9964C9.23112 15.9378 9.2508 15.8734 9.25726 15.8071C9.26372 15.7407 9.25682 15.6737 9.23698 15.6101C8.72157 13.793 7.71692 12.6993 6.92245 11.6323C6.12797 10.5653 5.51072 9.5464 5.51072 7.63986C5.51072 3.26691 10.1387 -0.108636 14.6675 1.8428C17.1719 2.92195 18.6632 5.43596 18.4708 8.17609C18.3344 10.1188 17.4457 11.1153 16.477 12.3703C15.5083 13.6253 14.4959 15.1345 14.4959 17.753V20.2489C14.4959 21.0818 13.8312 21.7464 12.9984 21.7464H11.0016C10.1688 21.7464 9.50412 21.0818 9.50412 20.2489V18.2522H11.0016C11.0707 18.2522 11.139 18.2378 11.2023 18.21C11.2655 18.1822 11.3223 18.1416 11.369 18.0908C11.4157 18.0399 11.4514 17.9799 11.4738 17.9146C11.4961 17.8492 11.5047 17.7799 11.4989 17.7111C11.0503 12.3288 9.21911 9.33916 8.73586 8.59239C8.84074 8.56178 8.83427 8.59129 8.9523 8.54072C9.34868 8.37084 9.81551 8.0055 10.2646 7.49947C10.6147 7.85306 11.1453 8.26871 12 8.26871C12.8547 8.26871 13.3853 7.85306 13.7354 7.49947C14.1845 8.0055 14.6513 8.37084 15.0477 8.54072C15.1657 8.5913 15.1593 8.56178 15.2641 8.59239C14.7809 9.33916 12.9497 12.3288 12.5011 17.7111C12.4935 17.7775 12.4992 17.8448 12.5181 17.9089C12.5369 17.9731 12.5684 18.0328 12.6107 18.0845C12.6531 18.1363 12.7054 18.179 12.7645 18.2101C12.8237 18.2412 12.8885 18.2602 12.9551 18.2658C13.0217 18.2714 13.0888 18.2636 13.1523 18.2428C13.2159 18.222 13.2746 18.1887 13.325 18.1447C13.3754 18.1008 13.4165 18.0472 13.4458 17.9872C13.4751 17.9271 13.492 17.8617 13.4956 17.795C13.9846 11.9261 16.4 8.55924 16.4 8.55924C16.4534 8.48458 16.4852 8.39663 16.4919 8.30507C16.4985 8.21351 16.4798 8.12188 16.4378 8.04025C16.3958 7.95863 16.3321 7.89017 16.2537 7.84241C16.1753 7.79465 16.0852 7.76943 15.9934 7.76953C15.9934 7.76953 15.7993 7.7756 15.4416 7.62231C15.0839 7.46903 14.6084 7.16319 14.1624 6.49429C14.1181 6.42781 14.0585 6.37293 13.9886 6.33426C13.9187 6.29559 13.8406 6.27426 13.7607 6.27207C13.6809 6.26987 13.6016 6.28687 13.5297 6.32164C13.4578 6.35641 13.3953 6.40793 13.3474 6.47187C13.3474 6.47187 12.6669 7.27036 12 7.27036C11.3331 7.27036 10.6526 6.47187 10.6526 6.47187C10.6047 6.40793 10.5422 6.35641 10.4703 6.32164C10.3984 6.28687 10.3191 6.26987 10.2393 6.27207C10.1594 6.27426 10.0813 6.29559 10.0114 6.33426C9.94145 6.37293 9.88185 6.42781 9.83755 6.49429C9.39163 7.16318 8.91609 7.46903 8.55842 7.62231C8.20074 7.7756 8.00659 7.76953 8.00659 7.76953C7.91479 7.76943 7.82473 7.79465 7.74633 7.84241C7.66793 7.89017 7.60421 7.95863 7.56219 8.04025C7.52017 8.12188 7.50147 8.21351 7.50815 8.30507C7.51482 8.39663 7.54662 8.48458 7.60004 8.55924C7.60004 8.55924 9.81822 11.7552 10.4138 17.2539H9.00495C8.87256 17.2539 8.7456 17.3065 8.65199 17.4001C8.55838 17.4937 8.50578 17.6207 8.50577 17.753V20.2489C8.50577 21.6214 9.62916 22.7448 11.0016 22.7448H12.9984C14.3708 22.7448 15.4942 21.6214 15.4942 20.2489V17.753C15.4942 15.3799 16.3227 14.2049 17.2677 12.9807C18.2127 11.7564 19.3105 10.4782 19.4672 8.24628C19.688 5.10113 17.954 2.17235 15.0623 0.926341C14.0978 0.510712 13.1241 0.308674 12.1784 0.287747ZM0.506285 7.27036C0.440138 7.26942 0.374465 7.28164 0.313083 7.30631C0.2517 7.33097 0.195832 7.36759 0.148725 7.41404C0.101618 7.46048 0.0642113 7.51583 0.0386796 7.57686C0.0131479 7.63788 0 7.70338 0 7.76953C0 7.83569 0.0131479 7.90118 0.0386796 7.96221C0.0642113 8.02323 0.101618 8.07858 0.148725 8.12502C0.195832 8.17147 0.2517 8.20809 0.313083 8.23276C0.374465 8.25742 0.440138 8.26964 0.506285 8.26871H2.51566C2.58181 8.26964 2.64748 8.25742 2.70886 8.23276C2.77025 8.20809 2.82612 8.17147 2.87322 8.12502C2.92033 8.07858 2.95774 8.02323 2.98327 7.96221C3.0088 7.90118 3.02195 7.83569 3.02195 7.76953C3.02195 7.70338 3.0088 7.63788 2.98327 7.57686C2.95774 7.51583 2.92033 7.46048 2.87322 7.41404C2.82612 7.36759 2.77025 7.33097 2.70886 7.30631C2.64748 7.28164 2.58181 7.26942 2.51566 7.27036H0.506285ZM21.4843 7.27036C21.4182 7.26942 21.3525 7.28164 21.2911 7.30631C21.2298 7.33097 21.1739 7.36759 21.1268 7.41404C21.0797 7.46048 21.0423 7.51583 21.0167 7.57686C20.9912 7.63788 20.9781 7.70338 20.9781 7.76953C20.9781 7.83569 20.9912 7.90118 21.0167 7.96221C21.0423 8.02323 21.0797 8.07858 21.1268 8.12502C21.1739 8.17147 21.2298 8.20809 21.2911 8.23276C21.3525 8.25742 21.4182 8.26964 21.4843 8.26871H23.4937C23.5599 8.26964 23.6255 8.25742 23.6869 8.23276C23.7483 8.20809 23.8042 8.17147 23.8513 8.12502C23.8984 8.07858 23.9358 8.02323 23.9613 7.96221C23.9869 7.90118 24 7.83569 24 7.76953C24 7.70338 23.9869 7.63788 23.9613 7.57686C23.9358 7.51583 23.8984 7.46048 23.8513 7.41404C23.8042 7.36759 23.7483 7.33097 23.6869 7.30631C23.6255 7.28164 23.5599 7.26942 23.4937 7.27036H21.4843ZM4.58256 13.2673C4.47016 13.27 4.36194 13.3105 4.27545 13.3823L2.71358 14.6478C2.66111 14.6885 2.61729 14.7393 2.58468 14.7972C2.55208 14.855 2.53135 14.9188 2.52371 14.9848C2.51606 15.0508 2.52166 15.1176 2.54017 15.1814C2.55868 15.2452 2.58973 15.3046 2.6315 15.3562C2.67328 15.4079 2.72493 15.4507 2.78344 15.4821C2.84196 15.5135 2.90615 15.5329 2.97226 15.5392C3.03838 15.5455 3.10509 15.5386 3.16848 15.5188C3.23187 15.499 3.29068 15.4667 3.34145 15.4239L4.90332 14.1584C4.98557 14.0935 5.04534 14.0045 5.07416 13.9038C5.10298 13.8031 5.09941 13.6959 5.06393 13.5973C5.02846 13.4987 4.96288 13.4138 4.87649 13.3546C4.7901 13.2954 4.68727 13.2648 4.58256 13.2673ZM19.4028 13.2673C19.2994 13.2679 19.1986 13.3007 19.1146 13.3611C19.0306 13.4215 18.9674 13.5065 18.9338 13.6043C18.9002 13.7022 18.8978 13.808 18.927 13.9073C18.9562 14.0066 19.0155 14.0943 19.0967 14.1584L20.6586 15.4239C20.7093 15.4667 20.7681 15.499 20.8315 15.5188C20.8949 15.5386 20.9616 15.5455 21.0277 15.5392C21.0938 15.5329 21.158 15.5135 21.2166 15.4821C21.2751 15.4506 21.3267 15.4079 21.3685 15.3562C21.4103 15.3046 21.4413 15.2452 21.4598 15.1814C21.4783 15.1176 21.4839 15.0508 21.4763 14.9848C21.4686 14.9188 21.4479 14.855 21.4153 14.7972C21.3827 14.7393 21.3389 14.6885 21.2864 14.6478L19.7245 13.3823C19.6342 13.3073 19.5203 13.2666 19.4028 13.2673Z" fill="black"/>
</svg>
