<svg width="24" height="21" viewBox="0 0 24 21" fill="none" xmlns="http://www.w3.org/2000/svg">
<path d="M2.99999 0C1.35029 0 0 1.35029 0 2.99999V17.4C0 19.0499 1.35001 20.4 2.99999 20.4H20.9999C22.6499 20.4 23.9999 19.0499 23.9999 17.4V5.39999C23.9999 5.24086 23.9367 5.08826 23.8242 4.97574C23.7117 4.86322 23.5591 4.8 23.3999 4.79999H2.99999C2.92049 4.79886 2.84155 4.81355 2.76777 4.8432C2.69399 4.87285 2.62683 4.91687 2.57021 4.97269C2.51359 5.02852 2.46863 5.09504 2.43794 5.1684C2.40725 5.24175 2.39145 5.32047 2.39145 5.39999C2.39145 5.4795 2.40725 5.55822 2.43794 5.63158C2.46863 5.70493 2.51359 5.77146 2.57021 5.82728C2.62683 5.88311 2.69399 5.92712 2.76777 5.95677C2.84155 5.98642 2.92049 6.00111 2.99999 5.99999H22.7999V17.4C22.7999 18.402 22.002 19.2 20.9999 19.2H2.99999C1.99798 19.2 1.2 18.402 1.2 17.4V2.99999C1.2 1.9989 1.9989 1.2 2.99999 1.2H20.9999C22.001 1.2 22.7999 1.9989 22.7999 2.99999C22.7988 3.0795 22.8135 3.15844 22.8432 3.23222C22.8728 3.306 22.9168 3.37315 22.9726 3.42977C23.0285 3.48639 23.095 3.53136 23.1684 3.56204C23.2417 3.59273 23.3204 3.60854 23.3999 3.60854C23.4795 3.60854 23.5582 3.59273 23.6315 3.56204C23.7049 3.53136 23.7714 3.48639 23.8272 3.42977C23.8831 3.37315 23.9271 3.306 23.9567 3.23222C23.9864 3.15844 24.0011 3.0795 23.9999 2.99999C23.9999 1.35029 22.6497 0 20.9999 0H2.99999ZM13.18 7.79178C13.0522 7.7966 12.9292 7.84219 12.829 7.92188C12.7289 8.00157 12.6568 8.1112 12.6234 8.23475L10.2234 16.6347C10.1989 16.7113 10.19 16.7919 10.1972 16.872C10.2045 16.952 10.2278 17.0298 10.2656 17.1006C10.3035 17.1715 10.3552 17.2341 10.4178 17.2846C10.4803 17.3351 10.5523 17.3725 10.6295 17.3946C10.7068 17.4168 10.7877 17.4232 10.8675 17.4135C10.9473 17.4037 11.0243 17.3781 11.0939 17.338C11.1636 17.298 11.2245 17.2443 11.2731 17.1803C11.3216 17.1162 11.3568 17.0431 11.3765 16.9652L13.7765 8.56521C13.8042 8.47377 13.8096 8.37705 13.7924 8.28308C13.7751 8.18912 13.7357 8.10063 13.6774 8.02497C13.619 7.94932 13.5434 7.88869 13.4569 7.84813C13.3704 7.80757 13.2755 7.78825 13.18 7.79178ZM8.38943 9.59529C8.27463 9.59861 8.16318 9.63481 8.06834 9.69959L4.46835 12.0855C4.38605 12.1401 4.3185 12.2142 4.2717 12.3012C4.2249 12.3882 4.20029 12.4853 4.20006 12.5841C4.19983 12.6829 4.22398 12.7802 4.27037 12.8674C4.31677 12.9546 4.38396 13.029 4.466 13.084L8.066 15.498C8.13129 15.5453 8.20545 15.579 8.28405 15.597C8.36265 15.615 8.44408 15.617 8.52346 15.6028C8.60284 15.5887 8.67856 15.5587 8.74608 15.5146C8.81361 15.4705 8.87156 15.4133 8.91647 15.3463C8.96138 15.2793 8.99233 15.204 9.00748 15.1248C9.02262 15.0456 9.02164 14.9642 9.00461 14.8853C8.98757 14.8065 8.95483 14.732 8.90833 14.6661C8.86183 14.6002 8.80252 14.5444 8.73396 14.5019L5.88163 12.5894L8.73162 10.7004C8.8422 10.6295 8.92649 10.5244 8.97157 10.4011C9.01666 10.2777 9.02004 10.143 8.98119 10.0176C8.94235 9.89213 8.86343 9.78289 8.75654 9.70661C8.64965 9.63034 8.52069 9.59123 8.38943 9.59529ZM15.5929 9.59529C15.4632 9.59518 15.3369 9.63711 15.233 9.7148C15.1291 9.79249 15.0532 9.90176 15.0167 10.0262C14.9801 10.1507 14.9849 10.2837 15.0302 10.4052C15.0756 10.5267 15.1591 10.6303 15.2683 10.7004L18.1183 12.5894L15.266 14.5019C15.1974 14.5444 15.1381 14.6002 15.0916 14.6661C15.0451 14.732 15.0124 14.8065 14.9953 14.8853C14.9783 14.9642 14.9773 15.0456 14.9925 15.1248C15.0076 15.204 15.0386 15.2793 15.0835 15.3463C15.1284 15.4133 15.1863 15.4705 15.2539 15.5146C15.3214 15.5587 15.3971 15.5887 15.4765 15.6028C15.5559 15.617 15.6373 15.615 15.7159 15.597C15.7945 15.579 15.8686 15.5453 15.9339 15.498L19.5339 13.084C19.616 13.029 19.6832 12.9546 19.7296 12.8674C19.776 12.7802 19.8001 12.6829 19.7999 12.5841C19.7996 12.4853 19.775 12.3882 19.7282 12.3012C19.6814 12.2142 19.6139 12.1401 19.5316 12.0855L15.9316 9.69959C15.8318 9.63152 15.7137 9.59517 15.5929 9.59529Z" fill="black"/>
</svg>
