<svg width="24" height="20" viewBox="0 0 24 20" fill="none" xmlns="http://www.w3.org/2000/svg">
<path d="M3.13047 0C2.9921 1.38348e-05 2.8594 0.0549868 2.76156 0.152828C2.66372 0.25067 2.60875 0.383368 2.60873 0.521737V14.0869C2.60875 14.2253 2.66372 14.358 2.76156 14.4558C2.8594 14.5536 2.9921 14.6086 3.13047 14.6086C6.76784 14.6086 8.91898 15.1247 10.1352 15.6144C10.7433 15.8593 11.1181 16.0965 11.3336 16.2615C11.549 16.4264 11.5761 16.4775 11.5761 16.4775C11.6405 16.5672 11.7316 16.6341 11.8365 16.6687C11.9413 16.7033 12.0544 16.7038 12.1595 16.67C12.2646 16.6362 12.3563 16.57 12.4214 16.4809C12.4865 16.3917 12.5216 16.2842 12.5217 16.1738V5.73911C12.5227 5.66997 12.5099 5.60133 12.4842 5.53717C12.4584 5.47301 12.4201 5.41462 12.3716 5.36538C12.323 5.31615 12.2652 5.27705 12.2014 5.25037C12.1376 5.22368 12.0691 5.20994 12 5.20994C11.9309 5.20994 11.8624 5.22368 11.7986 5.25037C11.7348 5.27705 11.677 5.31615 11.6284 5.36538C11.5799 5.41462 11.5416 5.47301 11.5158 5.53717C11.4901 5.60133 11.4773 5.66997 11.4783 5.73911V15.166C11.2045 14.9957 10.9794 14.8291 10.5255 14.6463C9.22851 14.1241 7.02109 13.658 3.65221 13.6029V1.06895C6.94703 1.13844 8.9564 1.78919 10.0904 2.42628C10.6892 2.7627 11.0583 3.09105 11.2745 3.32403C11.4906 3.55702 11.5333 3.65623 11.5333 3.65623C11.5766 3.74291 11.6432 3.81581 11.7257 3.86675C11.8081 3.9177 11.9031 3.94469 12 3.94469C12.0969 3.94469 12.1919 3.9177 12.2743 3.86675C12.3568 3.81581 12.4234 3.74291 12.4667 3.65623C12.4667 3.65623 12.5094 3.55702 12.7255 3.32403C12.9417 3.09105 13.3108 2.7627 13.9096 2.42628C15.0436 1.78919 17.053 1.13844 20.3478 1.06895V13.5988C17.3487 13.6468 15.261 14.0177 13.9412 14.4731C13.8756 14.4947 13.8148 14.5292 13.7626 14.5745C13.7104 14.6198 13.6677 14.675 13.637 14.737C13.6063 14.7989 13.5882 14.8664 13.5838 14.9353C13.5794 15.0043 13.5887 15.0735 13.6112 15.1389C13.6338 15.2042 13.6691 15.2645 13.7151 15.3161C13.7612 15.3676 13.817 15.4096 13.8793 15.4394C13.9417 15.4692 14.0094 15.4864 14.0784 15.4898C14.1475 15.4933 14.2165 15.483 14.2816 15.4595C15.5507 15.0216 17.6162 14.6086 20.8695 14.6086C21.0079 14.6086 21.1406 14.5536 21.2384 14.4558C21.3363 14.358 21.3912 14.2253 21.3913 14.0869V0.521737C21.3912 0.383368 21.3363 0.25067 21.2384 0.152828C21.1406 0.0549868 21.0079 1.38348e-05 20.8695 0C17.0943 0 14.7827 0.739987 13.3991 1.51732C12.7265 1.89521 12.2896 2.27639 12 2.58321C11.7104 2.27639 11.2735 1.89521 10.6009 1.51732C9.21731 0.739987 6.9057 0 3.13047 0ZM0.513634 2.63416C0.375439 2.63632 0.243746 2.69322 0.147459 2.79237C0.0511715 2.89153 -0.00184353 3.02483 4.89818e-05 3.16303V16.6956C6.12543e-05 16.7708 0.0163414 16.8452 0.0477733 16.9135C0.0792052 16.9819 0.125046 17.0426 0.182152 17.0916C0.239258 17.1405 0.306279 17.1766 0.378621 17.1972C0.450963 17.2179 0.526915 17.2227 0.601269 17.2112C0.601269 17.2112 7.25243 16.2445 11.7106 19.2166C11.7963 19.2738 11.897 19.3042 12 19.3042C12.103 19.3042 12.2037 19.2738 12.2894 19.2166C16.7476 16.2445 23.3987 17.2112 23.3987 17.2112C23.4731 17.2227 23.549 17.2179 23.6214 17.1972C23.6937 17.1766 23.7607 17.1405 23.8178 17.0916C23.875 17.0426 23.9208 16.9819 23.9522 16.9135C23.9837 16.8452 23.9999 16.7708 23.9999 16.6956V3.16303C24.0009 3.09389 23.9882 3.02525 23.9624 2.9611C23.9366 2.89694 23.8983 2.83855 23.8498 2.78931C23.8012 2.74007 23.7434 2.70098 23.6796 2.67429C23.6158 2.6476 23.5474 2.63386 23.4782 2.63386C23.4091 2.63386 23.3406 2.6476 23.2768 2.67429C23.213 2.70098 23.1552 2.74007 23.1067 2.78931C23.0581 2.83855 23.0198 2.89694 22.9941 2.9611C22.9683 3.02525 22.9555 3.09389 22.9565 3.16303V16.1158C21.5556 15.9475 16.2606 15.532 12 18.1925C7.73944 15.532 2.44444 15.9475 1.04352 16.1158V3.16303C1.04448 3.09323 1.03142 3.02394 1.00511 2.95928C0.97881 2.89461 0.939798 2.83589 0.890388 2.78657C0.840978 2.73725 0.782174 2.69836 0.71746 2.67218C0.652745 2.646 0.583435 2.63307 0.513634 2.63416Z" fill="black"/>
</svg>
