<svg width="24" height="20" viewBox="0 0 24 20" fill="none" xmlns="http://www.w3.org/2000/svg">
<path d="M9.81821 0C8.92096 0 8.18185 0.739106 8.18185 1.63636V2.72727H2.72732C1.22759 2.72727 5.45493e-05 3.9548 5.45493e-05 5.45453V8.72725C6.9013e-05 8.87191 0.0575409 9.01064 0.15983 9.11293C0.262119 9.21522 0.400849 9.27269 0.545508 9.27271H4.36368V9.81816C4.36368 10.4144 4.85837 10.9091 5.45459 10.9091H7.09095C7.68716 10.9091 8.18185 10.4144 8.18185 9.81816V9.27271H15.8182V9.81816C15.8182 10.4144 16.3129 10.9091 16.9091 10.9091H18.5455C19.1417 10.9091 19.6364 10.4144 19.6364 9.81816V9.27271H21.2727C21.345 9.27373 21.4168 9.26037 21.4838 9.23342C21.5509 9.20647 21.612 9.16645 21.6634 9.1157C21.7149 9.06495 21.7558 9.00448 21.7837 8.93779C21.8116 8.8711 21.826 8.79954 21.826 8.72725C21.826 8.65497 21.8116 8.5834 21.7837 8.51672C21.7558 8.45003 21.7149 8.38955 21.6634 8.3388C21.612 8.28805 21.5509 8.24804 21.4838 8.22108C21.4168 8.19413 21.345 8.18078 21.2727 8.1818H19.0909C18.9463 8.18181 18.8075 8.23929 18.7052 8.34158C18.603 8.44386 18.5455 8.58259 18.5455 8.72725V9.81816H16.9091V8.72725C16.9091 8.58259 16.8516 8.44386 16.7493 8.34158C16.647 8.23929 16.5083 8.18181 16.3637 8.1818H7.6364C7.49174 8.18181 7.35301 8.23929 7.25072 8.34158C7.14843 8.44386 7.09096 8.58259 7.09095 8.72725V9.81816H5.45459V8.72725C5.45457 8.58259 5.3971 8.44386 5.29481 8.34158C5.19252 8.23929 5.05379 8.18181 4.90913 8.1818H1.09096V5.45453C1.09096 4.54445 1.81724 3.81817 2.72732 3.81817H8.72731C8.87197 3.81816 9.0107 3.76069 9.11298 3.6584C9.21527 3.55611 9.27275 3.41738 9.27276 3.27272V1.63636C9.27276 1.32816 9.51002 1.09091 9.81821 1.09091H14.1818C14.49 1.09091 14.7273 1.32816 14.7273 1.63636V2.72727H10.9091C10.8368 2.72624 10.7651 2.7396 10.698 2.76655C10.6309 2.7935 10.5699 2.83352 10.5184 2.88427C10.4669 2.93502 10.4261 2.9955 10.3982 3.06218C10.3703 3.12887 10.3559 3.20043 10.3559 3.27272C10.3559 3.34501 10.3703 3.41657 10.3982 3.48326C10.4261 3.54994 10.4669 3.61042 10.5184 3.66117C10.5699 3.71192 10.6309 3.75194 10.698 3.77889C10.7651 3.80584 10.8368 3.8192 10.9091 3.81817H15.1811C15.24 3.82791 15.3001 3.82791 15.359 3.81817H21.2727C22.1828 3.81817 22.9091 4.54445 22.9091 5.45453V16.9091C22.9091 17.8191 22.1828 18.5454 21.2727 18.5454H2.72732C1.81724 18.5454 1.09096 17.8191 1.09096 16.9091V10.9091C1.09198 10.8368 1.07863 10.765 1.05168 10.698C1.02472 10.6309 0.984709 10.5698 0.933958 10.5184C0.883207 10.4669 0.822731 10.426 0.756045 10.3981C0.68936 10.3702 0.617794 10.3558 0.545508 10.3558C0.473222 10.3558 0.401656 10.3702 0.334971 10.3981C0.268285 10.426 0.207809 10.4669 0.157058 10.5184C0.106306 10.5698 0.0662915 10.6309 0.0393386 10.698C0.0123858 10.765 -0.000967656 10.8368 5.45493e-05 10.9091V16.9091C5.45493e-05 18.4088 1.22759 19.6363 2.72732 19.6363H21.2727C22.7725 19.6363 24 18.4088 24 16.9091V5.45453C24 3.9548 22.7725 2.72727 21.2727 2.72727H15.8182V1.63636C15.8182 0.739106 15.0791 0 14.1818 0H9.81821Z" fill="black"/>
</svg>
