<svg width="96" height="96" viewBox="0 0 96 96" fill="none" xmlns="http://www.w3.org/2000/svg">
<path d="M48 8C36.7656 8 26.9992 10.318 21.1133 12.1055C16.9037 13.385 14 17.275 14 21.6836V30.4219C9.66611 30.9061 5.19968 32.6701 2.44533 36.2734C0.853032 38.3565 -0.0981914 41.0275 0.144549 43.9727C0.387289 46.9178 1.77472 50.0531 4.46486 53.2812C4.63069 53.4903 4.83669 53.6641 5.07073 53.7924C5.30476 53.9207 5.56209 54.0008 5.82757 54.0281C6.09304 54.0553 6.36129 54.0292 6.61651 53.9512C6.87174 53.8732 7.10878 53.745 7.31367 53.574C7.51856 53.403 7.68715 53.1927 7.80953 52.9555C7.9319 52.7184 8.00558 52.4591 8.02622 52.1931C8.04687 51.927 8.01405 51.6595 7.92972 51.4063C7.84539 51.1531 7.71124 50.9193 7.53517 50.7188C5.22532 47.9469 4.29228 45.5791 4.13283 43.6445C3.97338 41.71 4.53907 40.1238 5.62502 38.7031C7.42013 36.3547 10.8042 34.9531 14 34.4453V52.1055C14 63.1196 19.7606 71.9537 26.3516 78.4219C32.9426 84.8901 40.4259 89.1141 44.3985 91.1133C46.6639 92.2526 49.3362 92.2526 51.6016 91.1133C55.5742 89.1141 63.0574 84.8903 69.6485 78.4219C76.2395 71.9534 82 63.1167 82 52.1016V34.4453C85.1959 34.9531 88.5799 36.3547 90.375 38.7031C91.461 40.1238 92.0266 41.71 91.8672 43.6445C91.7078 45.5791 90.7747 47.9469 88.4649 50.7188C88.2888 50.9193 88.1546 51.1531 88.0703 51.4063C87.986 51.6595 87.9532 51.927 87.9738 52.1931C87.9944 52.4591 88.0681 52.7184 88.1905 52.9555C88.3129 53.1927 88.4815 53.403 88.6864 53.574C88.8913 53.745 89.1283 53.8733 89.3835 53.9512C89.6387 54.0292 89.907 54.0553 90.1725 54.0281C90.4379 54.0008 90.6953 53.9207 90.9293 53.7924C91.1633 53.6641 91.3693 53.4903 91.5352 53.2812C94.2253 50.0531 95.6127 46.9178 95.8555 43.9727C96.0982 41.0275 95.147 38.3565 93.5547 36.2734C90.8003 32.6701 86.3339 30.9061 82 30.4219V21.6836C82 17.2778 79.096 13.3841 74.8867 12.1055H74.8828C68.9967 10.3181 59.2327 8 48 8ZM48 12C58.6816 12 68.0966 14.2251 73.7227 15.9336C76.2755 16.7081 78 19.0226 78 21.6836V31.668C77.9639 31.8852 77.9639 32.107 78 32.3242V52.1016C78 61.7225 72.9712 69.5568 66.8438 75.5703C60.7163 81.5838 53.5501 85.6542 49.8047 87.5391C48.6581 88.1157 47.3419 88.1157 46.1953 87.5391C42.4499 85.6542 35.2837 81.5836 29.1563 75.5703C23.0288 69.557 18 61.7253 18 52.1055V32.3164C18.034 32.1055 18.034 31.8906 18 31.6797V21.6836C18 19.0201 19.7229 16.71 22.2774 15.9336C27.9034 14.2251 37.3185 12 48 12ZM42.0196 30C36.7079 29.9483 32.9008 31.0101 30.3985 32.1406C27.8961 33.2712 26.5547 34.6172 26.5547 34.6172C26.373 34.807 26.2305 35.0307 26.1353 35.2756C26.0401 35.5204 25.9941 35.7817 25.9999 36.0443C26.0056 36.307 26.0631 36.5659 26.169 36.8064C26.2748 37.0468 26.427 37.2641 26.6168 37.4457C26.8067 37.6273 27.0304 37.7698 27.2753 37.8649C27.5202 37.96 27.7815 38.006 28.0441 38.0002C28.3068 37.9943 28.5657 37.9368 28.8061 37.8309C29.0466 37.7249 29.2638 37.5727 29.4453 37.3828C29.4453 37.3828 30.0682 36.6791 32.0469 35.7852C34.0256 34.8912 37.2161 33.9537 41.9805 34C42.2448 34.0053 42.5076 33.9581 42.7536 33.8612C42.9996 33.7643 43.2239 33.6196 43.4136 33.4354C43.6033 33.2513 43.7547 33.0314 43.8588 32.7884C43.963 32.5454 44.018 32.2841 44.0206 32.0197C44.0232 31.7554 43.9733 31.4931 43.8739 31.2481C43.7745 31.0031 43.6275 30.7803 43.4414 30.5924C43.2553 30.4046 43.0338 30.2556 42.7898 30.1539C42.5457 30.0522 42.2839 29.9999 42.0196 30ZM53.9805 30C53.7161 29.9999 53.4543 30.0522 53.2103 30.1539C52.9662 30.2556 52.7447 30.4046 52.5586 30.5924C52.3726 30.7803 52.2256 31.0031 52.1261 31.2481C52.0267 31.4931 51.9769 31.7554 51.9795 32.0197C51.982 32.2841 52.037 32.5454 52.1412 32.7884C52.2454 33.0314 52.3967 33.2513 52.5864 33.4354C52.7761 33.6196 53.0005 33.7643 53.2465 33.8612C53.4924 33.9581 53.7552 34.0053 54.0196 34C58.7839 33.9537 61.9745 34.8912 63.9531 35.7852C65.9318 36.6791 66.5547 37.3828 66.5547 37.3828C66.7363 37.5727 66.9535 37.7249 67.1939 37.8309C67.4343 37.9368 67.6933 37.9943 67.9559 38.0002C68.2186 38.006 68.4798 37.96 68.7247 37.8649C68.9696 37.7698 69.1934 37.6273 69.3832 37.4457C69.573 37.2641 69.7252 37.0468 69.8311 36.8064C69.9369 36.5659 69.9944 36.307 70.0002 36.0443C70.0059 35.7817 69.9599 35.5204 69.8647 35.2756C69.7695 35.0307 69.627 34.807 69.4453 34.6172C69.4453 34.6172 68.1039 33.2712 65.6016 32.1406C63.0993 31.0101 59.2921 29.9483 53.9805 30ZM63.9258 51.9297C63.6323 51.9439 63.3456 52.0226 63.086 52.1602C61.9925 52.4212 55.2244 53.9732 48.0078 54.0039C40.5967 53.9749 33.5881 52.3223 32.7891 52.1289C32.5605 52.0297 32.3154 51.974 32.0664 51.9648C31.7392 51.9536 31.4142 52.0229 31.1199 52.1666C30.8257 52.3103 30.5712 52.524 30.3789 52.7891C30.3697 52.8007 30.3606 52.8124 30.3516 52.8242C30.3503 52.8268 30.349 52.8294 30.3477 52.832C30.1398 53.1225 30.0134 53.4634 29.9818 53.8192C29.9502 54.1751 30.0145 54.5329 30.168 54.8555C30.4115 55.7343 31.4622 59.2404 33.8086 62.9648C36.4984 67.2344 41.0874 71.8452 47.9571 71.9883C47.9857 71.9889 48.0143 71.9889 48.043 71.9883C54.9127 71.8452 59.5016 67.2344 62.1914 62.9648C64.5302 59.2525 65.5799 55.7574 65.8281 54.8633C66.0165 54.4725 66.0727 54.031 65.9883 53.6055C65.9093 53.1221 65.6557 52.6844 65.2756 52.3755C64.8954 52.0667 64.4151 51.908 63.9258 51.9297ZM35.0781 56.6758C38.1933 57.264 42.8869 57.9839 47.9922 58.0039C47.9974 58.0039 48.0026 58.0039 48.0078 58.0039C53.1131 57.9839 57.8067 57.264 60.9219 56.6758C60.4062 57.9184 59.746 59.3441 58.8086 60.832C56.5054 64.4879 53.1043 67.858 48 67.9844C42.8957 67.858 39.4946 64.4879 37.1914 60.832C36.254 59.3441 35.5938 57.9184 35.0781 56.6758Z" fill="black"/>
</svg>
