<svg width="24" height="24" viewBox="0 0 24 24" fill="none" xmlns="http://www.w3.org/2000/svg">
<path d="M3.15789 0C1.42222 0 0 1.42222 0 3.15789V20.8421C0 22.5778 1.42222 24 3.15789 24H20.8421C22.5778 24 24 22.5778 24 20.8421V3.15789C24 1.42222 22.5778 0 20.8421 0H3.15789ZM3.15789 1.26316H20.8421C21.893 1.26316 22.7368 2.10705 22.7368 3.15789V20.8421C22.7368 21.893 21.893 22.7368 20.8421 22.7368H3.15789C2.10705 22.7368 1.26316 21.893 1.26316 20.8421V3.15789C1.26316 2.10705 2.10705 1.26316 3.15789 1.26316ZM8.21053 4.42105C8.08549 4.4211 7.96328 4.45826 7.85938 4.52782C7.75548 4.59738 7.67456 4.69621 7.62687 4.81179C7.57919 4.92738 7.56688 5.05452 7.5915 5.1771C7.61613 5.29969 7.67659 5.41221 7.76521 5.50041L9.87212 7.59622C8.58461 8.70097 7.52634 9.71059 6.80058 10.7035C5.9715 11.8378 5.51398 13.0024 5.51398 14.2537C5.51398 16.2628 6.47286 17.9454 7.8713 19.0818C9.26973 20.2182 11.1019 20.8421 12.9523 20.8421H13.7245C13.8082 20.8433 13.8913 20.8278 13.969 20.7966C14.0466 20.7654 14.1173 20.7191 14.1769 20.6603C14.2365 20.6015 14.2838 20.5315 14.3161 20.4543C14.3484 20.3771 14.3651 20.2942 14.3651 20.2105C14.3651 20.1268 14.3484 20.044 14.3161 19.9667C14.2838 19.8895 14.2365 19.8195 14.1769 19.7607C14.1173 19.702 14.0466 19.6556 13.969 19.6244C13.8913 19.5932 13.8082 19.5778 13.7245 19.5789H12.9523C11.3896 19.5789 9.81974 19.0369 8.66817 18.1012C7.51661 17.1654 6.77714 15.8686 6.77714 14.2537C6.77714 13.2995 7.09804 12.4356 7.81949 11.4486C8.54094 10.4616 9.66804 9.38008 11.1957 8.10691C11.2634 8.05069 11.3186 7.98094 11.3578 7.90213C11.397 7.82333 11.4193 7.7372 11.4232 7.64928C11.4272 7.56137 11.4127 7.47359 11.3808 7.39159C11.3488 7.30959 11.3001 7.23517 11.2377 7.17311L9.74136 5.68421H16.4211V12.2874L14.9174 10.7911C14.8122 10.6866 14.6736 10.6224 14.5259 10.6098C14.3782 10.5972 14.2307 10.6369 14.1094 10.722C13.0837 11.4402 11.8528 12.3728 10.8516 13.3865C9.85031 14.4002 9.01234 15.484 9.01234 16.7134C9.01115 16.7971 9.02661 16.8802 9.05782 16.9579C9.08903 17.0355 9.13536 17.1062 9.19413 17.1658C9.25289 17.2254 9.32292 17.2727 9.40013 17.305C9.47735 17.3373 9.56021 17.354 9.64391 17.354C9.72761 17.354 9.81048 17.3373 9.88769 17.305C9.96491 17.2727 10.0349 17.2254 10.0937 17.1658C10.1525 17.1062 10.1988 17.0355 10.23 16.9579C10.2612 16.8802 10.2767 16.7971 10.2755 16.7134C10.2755 16.1403 10.8414 15.1929 11.7496 14.2734C12.5383 13.4749 13.5293 12.7344 14.4276 12.0863L16.6073 14.2549C16.6958 14.3429 16.8083 14.4026 16.9307 14.4267C17.0531 14.4508 17.1799 14.438 17.2951 14.3901C17.4103 14.3423 17.5087 14.2613 17.5779 14.1576C17.6472 14.0538 17.6842 13.9319 17.6842 13.8072V5.05263C17.6842 4.88513 17.6176 4.7245 17.4992 4.60606C17.3808 4.48762 17.2201 4.42107 17.0526 4.42105H8.21053Z" fill="black"/>
</svg>
