<svg width="24" height="21" viewBox="0 0 24 21" fill="none" xmlns="http://www.w3.org/2000/svg">
<path d="M2.60547 0C1.1858 0 0 1.11106 0 2.5V10.5C0 11.8889 1.1858 13 2.60547 13H3V15.4453C3 16.2544 4.00666 16.7308 4.63281 16.2188L8.56738 13H14.3945C15.8138 13 17 11.8889 17 10.5V7H21.6758C22.4265 7 23 7.56032 23 8.2334V15.7998C23 16.4729 22.4265 17.0332 21.6758 17.0332H20.9004C20.7678 17.0332 20.6406 17.0859 20.5469 17.1797C20.4531 17.2734 20.4004 17.4006 20.4004 17.5332V19.9453L16.9795 17.1465C16.8903 17.0734 16.7785 17.0333 16.6631 17.0332H11.3242C10.5735 17.0332 10 16.4729 10 15.7998V14.5C10.0009 14.4337 9.9887 14.368 9.96399 14.3065C9.93928 14.245 9.9026 14.189 9.85608 14.1418C9.80956 14.0947 9.75412 14.0572 9.69299 14.0316C9.63186 14.006 9.56626 13.9929 9.5 13.9929C9.43374 13.9929 9.36814 14.006 9.30701 14.0316C9.24588 14.0572 9.19044 14.0947 9.14392 14.1418C9.0974 14.189 9.06072 14.245 9.03601 14.3065C9.0113 14.368 8.99906 14.4337 9 14.5V15.7998C9 17.0417 10.06 18.0332 11.3242 18.0332H16.4844L19.876 20.8076C20.4587 21.2851 21.4004 20.839 21.4004 20.0859V18.0332H21.6758C22.94 18.0332 24 17.0417 24 15.7998V8.2334C24 6.99148 22.94 6 21.6758 6H17V2.5C17 1.11106 15.8142 0 14.3945 0H2.60547ZM2.60547 1H14.3945C15.3009 1 16 1.67994 16 2.5V6.41602C15.9911 6.47001 15.9911 6.52511 16 6.5791V10.5C16 11.3201 15.3003 12 14.3945 12H8.38867C8.27329 12.0001 8.16151 12.0401 8.07227 12.1133L4 15.4453V12.5C3.99999 12.3674 3.9473 12.2402 3.85354 12.1465C3.75977 12.0527 3.6326 12 3.5 12H2.60547C1.69913 12 1 11.3201 1 10.5V2.5C1 1.67994 1.69913 1 2.60547 1ZM4.5 3.5C4.43374 3.49906 4.36796 3.5113 4.30648 3.53601C4.24499 3.56072 4.18903 3.5974 4.14185 3.64392C4.09466 3.69044 4.0572 3.74588 4.03162 3.80701C4.00605 3.86814 3.99288 3.93374 3.99288 4C3.99288 4.06626 4.00605 4.13186 4.03162 4.19299C4.0572 4.25412 4.09466 4.30956 4.14185 4.35608C4.18903 4.4026 4.24499 4.43928 4.30648 4.46399C4.36796 4.4887 4.43374 4.50094 4.5 4.5H12.5C12.5663 4.50094 12.632 4.4887 12.6935 4.46399C12.755 4.43928 12.811 4.4026 12.8582 4.35608C12.9053 4.30956 12.9428 4.25412 12.9684 4.19299C12.994 4.13186 13.0071 4.06626 13.0071 4C13.0071 3.93374 12.994 3.86814 12.9684 3.80701C12.9428 3.74588 12.9053 3.69044 12.8582 3.64392C12.811 3.5974 12.755 3.56072 12.6935 3.53601C12.632 3.5113 12.5663 3.49906 12.5 3.5H4.5ZM4.5 6C4.43374 5.99906 4.36796 6.0113 4.30648 6.03601C4.24499 6.06072 4.18903 6.0974 4.14185 6.14392C4.09466 6.19044 4.0572 6.24588 4.03162 6.30701C4.00605 6.36814 3.99288 6.43374 3.99288 6.5C3.99288 6.56626 4.00605 6.63186 4.03162 6.69299C4.0572 6.75412 4.09466 6.80956 4.14185 6.85608C4.18903 6.9026 4.24499 6.93928 4.30648 6.96399C4.36796 6.9887 4.43374 7.00094 4.5 7H12.5C12.5663 7.00094 12.632 6.9887 12.6935 6.96399C12.755 6.93928 12.811 6.9026 12.8582 6.85608C12.9053 6.80956 12.9428 6.75412 12.9684 6.69299C12.994 6.63186 13.0071 6.56626 13.0071 6.5C13.0071 6.43374 12.994 6.36814 12.9684 6.30701C12.9428 6.24588 12.9053 6.19044 12.8582 6.14392C12.811 6.0974 12.755 6.06072 12.6935 6.03601C12.632 6.0113 12.5663 5.99906 12.5 6H4.5ZM4.5 8.5C4.43374 8.49906 4.36796 8.5113 4.30648 8.53601C4.24499 8.56072 4.18903 8.5974 4.14185 8.64392C4.09466 8.69044 4.0572 8.74588 4.03162 8.80701C4.00605 8.86814 3.99288 8.93374 3.99288 9C3.99288 9.06626 4.00605 9.13186 4.03162 9.19299C4.0572 9.25412 4.09466 9.30956 4.14185 9.35608C4.18903 9.4026 4.24499 9.43928 4.30648 9.46399C4.36796 9.4887 4.43374 9.50094 4.5 9.5H9.5C9.56626 9.50094 9.63204 9.4887 9.69352 9.46399C9.75501 9.43928 9.81097 9.4026 9.85815 9.35608C9.90534 9.30956 9.9428 9.25412 9.96838 9.19299C9.99395 9.13186 10.0071 9.06626 10.0071 9C10.0071 8.93374 9.99395 8.86814 9.96838 8.80701C9.9428 8.74588 9.90534 8.69044 9.85815 8.64392C9.81097 8.5974 9.75501 8.56072 9.69352 8.53601C9.63204 8.5113 9.56626 8.49906 9.5 8.5H4.5Z" fill="black"/>
</svg>
