<svg width="25" height="25" viewBox="0 0 25 25" fill="none" xmlns="http://www.w3.org/2000/svg">
<path d="M12.9637 0.972717C12.8314 0.974786 12.7052 1.02928 12.613 1.12425C12.5208 1.21922 12.47 1.34689 12.4718 1.47926V3.47809C12.4709 3.54431 12.4831 3.61005 12.5078 3.6715C12.5325 3.73295 12.5692 3.78887 12.6157 3.83603C12.6622 3.88319 12.7176 3.92064 12.7787 3.94619C12.8398 3.97175 12.9053 3.98492 12.9715 3.98492C13.0378 3.98492 13.1033 3.97175 13.1644 3.94619C13.2255 3.92064 13.2809 3.88319 13.3274 3.83603C13.3739 3.78887 13.4106 3.73295 13.4353 3.6715C13.46 3.61005 13.4722 3.54431 13.4713 3.47809V1.47926C13.4722 1.4124 13.4597 1.34604 13.4345 1.28411C13.4093 1.22217 13.3719 1.16593 13.3246 1.11869C13.2773 1.07146 13.2209 1.0342 13.159 1.00913C13.097 0.984054 13.0306 0.971673 12.9637 0.972717ZM4.83958 4.34087C4.74017 4.34089 4.64303 4.37057 4.56057 4.42609C4.47811 4.48161 4.41409 4.56047 4.37668 4.65257C4.33928 4.74467 4.33019 4.84584 4.35058 4.94313C4.37097 5.04043 4.41991 5.12943 4.49115 5.19876L5.90439 6.612C5.95043 6.65996 6.00558 6.69825 6.06661 6.72463C6.12764 6.751 6.19332 6.76494 6.2598 6.76562C6.32628 6.76629 6.39223 6.7537 6.45378 6.72857C6.51534 6.70344 6.57126 6.66628 6.61827 6.61927C6.66528 6.57225 6.70244 6.51633 6.72757 6.45478C6.7527 6.39323 6.7653 6.32728 6.76462 6.2608C6.76394 6.19432 6.75001 6.12864 6.72363 6.06761C6.69725 6.00658 6.65896 5.95143 6.611 5.90538L5.19777 4.49215C5.1512 4.44428 5.09551 4.40623 5.03399 4.38024C4.97247 4.35426 4.90636 4.34087 4.83958 4.34087ZM21.0889 4.34087C20.9591 4.34474 20.8358 4.39899 20.7453 4.49215L19.3321 5.90538C19.2841 5.95143 19.2458 6.00658 19.2195 6.06761C19.1931 6.12864 19.1792 6.19432 19.1785 6.2608C19.1778 6.32728 19.1904 6.39323 19.2155 6.45478C19.2407 6.51633 19.2778 6.57225 19.3248 6.61927C19.3718 6.66628 19.4278 6.70344 19.4893 6.72857C19.5509 6.7537 19.6168 6.76629 19.6833 6.76562C19.7498 6.76494 19.8155 6.751 19.8765 6.72463C19.9375 6.69825 19.9927 6.65996 20.0387 6.612L21.4519 5.19876C21.5242 5.12857 21.5735 5.03821 21.5934 4.9395C21.6134 4.8408 21.6031 4.73837 21.5638 4.64563C21.5246 4.55289 21.4583 4.47417 21.3735 4.41979C21.2887 4.36541 21.1895 4.3379 21.0889 4.34087ZM12.9715 4.97721C8.56176 4.97721 4.97622 8.56276 4.97622 12.9725C4.97622 17.3823 8.56176 20.9679 12.9715 20.9679C17.3813 20.9679 20.9669 17.3823 20.9669 12.9725C20.9669 8.56276 17.3813 4.97721 12.9715 4.97721ZM12.9715 5.97663C16.8412 5.97663 19.9675 9.10289 19.9675 12.9725C19.9675 16.8422 16.8412 19.9685 12.9715 19.9685C9.10189 19.9685 5.97563 16.8422 5.97563 12.9725C5.97563 9.10289 9.10189 5.97663 12.9715 5.97663ZM1.47826 12.4728C1.41204 12.4719 1.3463 12.4841 1.28485 12.5088C1.2234 12.5335 1.16748 12.5702 1.12032 12.6167C1.07316 12.6632 1.03572 12.7186 1.01016 12.7797C0.984597 12.8408 0.971436 12.9063 0.971436 12.9725C0.971436 13.0388 0.984597 13.1043 1.01016 13.1654C1.03572 13.2265 1.07316 13.2819 1.12032 13.3284C1.16748 13.3749 1.2234 13.4116 1.28485 13.4363C1.3463 13.461 1.41204 13.4732 1.47826 13.4723H3.47709C3.54331 13.4732 3.60905 13.461 3.6705 13.4363C3.73195 13.4116 3.78788 13.3749 3.83504 13.3284C3.88219 13.2819 3.91964 13.2265 3.9452 13.1654C3.97076 13.1043 3.98392 13.0388 3.98392 12.9725C3.98392 12.9063 3.97076 12.8408 3.9452 12.7797C3.91964 12.7186 3.88219 12.6632 3.83504 12.6167C3.78788 12.5702 3.73195 12.5335 3.6705 12.5088C3.60905 12.4841 3.54331 12.4719 3.47709 12.4728H1.47826ZM22.466 12.4728C22.3998 12.4719 22.334 12.4841 22.2726 12.5088C22.2111 12.5335 22.1552 12.5702 22.1081 12.6167C22.0609 12.6632 22.0235 12.7186 21.9979 12.7797C21.9723 12.8408 21.9592 12.9063 21.9592 12.9725C21.9592 13.0388 21.9723 13.1043 21.9979 13.1654C22.0235 13.2265 22.0609 13.2819 22.1081 13.3284C22.1552 13.3749 22.2111 13.4116 22.2726 13.4363C22.334 13.461 22.3998 13.4732 22.466 13.4723H24.4648C24.5311 13.4732 24.5968 13.461 24.6582 13.4363C24.7197 13.4116 24.7756 13.3749 24.8228 13.3284C24.8699 13.2819 24.9074 13.2265 24.9329 13.1654C24.9585 13.1043 24.9717 13.0388 24.9717 12.9725C24.9717 12.9063 24.9585 12.8408 24.9329 12.7797C24.9074 12.7186 24.8699 12.6632 24.8228 12.6167C24.7756 12.5702 24.7197 12.5335 24.6582 12.5088C24.5968 12.4841 24.5311 12.4719 24.4648 12.4728H22.466ZM6.24794 19.1818C6.11811 19.1857 5.99489 19.2399 5.90439 19.3331L4.49115 20.7463C4.44319 20.7924 4.4049 20.8475 4.37852 20.9085C4.35215 20.9696 4.33821 21.0353 4.33754 21.1017C4.33686 21.1682 4.34946 21.2342 4.37459 21.2957C4.39972 21.3573 4.43688 21.4132 4.48389 21.4602C4.5309 21.5072 4.58682 21.5444 4.64837 21.5695C4.70992 21.5946 4.77587 21.6072 4.84235 21.6066C4.90883 21.6059 4.97451 21.5919 5.03554 21.5656C5.09657 21.5392 5.15172 21.5009 5.19777 21.4529L6.611 20.0397C6.68321 19.9695 6.73253 19.8791 6.7525 19.7804C6.77247 19.6817 6.76215 19.5793 6.72291 19.4866C6.68366 19.3938 6.61731 19.3151 6.53256 19.2607C6.4478 19.2063 6.34859 19.1788 6.24794 19.1818ZM19.6795 19.1818C19.5802 19.182 19.4832 19.2118 19.4009 19.2674C19.3186 19.323 19.2547 19.4019 19.2174 19.494C19.1802 19.586 19.1711 19.6871 19.1916 19.7843C19.212 19.8815 19.2609 19.9704 19.3321 20.0397L20.7453 21.4529C20.7914 21.5009 20.8465 21.5392 20.9076 21.5656C20.9686 21.5919 21.0343 21.6059 21.1007 21.6066C21.1672 21.6072 21.2332 21.5946 21.2947 21.5695C21.3563 21.5444 21.4122 21.5072 21.4592 21.4602C21.5062 21.4132 21.5434 21.3573 21.5685 21.2957C21.5936 21.2342 21.6062 21.1682 21.6056 21.1017C21.6049 21.0353 21.5909 20.9696 21.5646 20.9085C21.5382 20.8475 21.4999 20.7924 21.4519 20.7463L20.0387 19.3331C19.992 19.2851 19.9362 19.247 19.8745 19.221C19.8128 19.195 19.7465 19.1817 19.6795 19.1818ZM12.9637 21.9605C12.8314 21.9625 12.7052 22.017 12.613 22.112C12.5208 22.207 12.47 22.3346 12.4718 22.467V24.4658C12.4709 24.532 12.4831 24.5978 12.5078 24.6592C12.5325 24.7207 12.5692 24.7766 12.6157 24.8238C12.6622 24.8709 12.7176 24.9084 12.7787 24.9339C12.8398 24.9595 12.9053 24.9727 12.9715 24.9727C13.0378 24.9727 13.1033 24.9595 13.1644 24.9339C13.2255 24.9084 13.2809 24.8709 13.3274 24.8238C13.3739 24.7766 13.4106 24.7207 13.4353 24.6592C13.46 24.5978 13.4722 24.532 13.4713 24.4658V22.467C13.4722 22.4001 13.4597 22.3338 13.4345 22.2718C13.4093 22.2099 13.3719 22.1537 13.3246 22.1064C13.2773 22.0592 13.2209 22.0219 13.159 21.9969C13.097 21.9718 13.0306 21.9594 12.9637 21.9605Z" fill="black"/>
</svg>
