<svg width="24" height="22" viewBox="0 0 24 22" fill="none" xmlns="http://www.w3.org/2000/svg">
<path d="M2.85714 0C1.28599 0 0 1.28599 0 2.85714V14.2857C0 15.8569 1.28599 17.1429 2.85714 17.1429H21.1429C22.714 17.1429 24 15.8569 24 14.2857V2.85714C24 1.28599 22.714 0 21.1429 0H2.85714ZM2.85714 1.14286H21.1429C22.0963 1.14286 22.8571 1.90372 22.8571 2.85714V14.2857C22.8571 15.2391 22.0963 16 21.1429 16H2.85714C1.90372 16 1.14286 15.2391 1.14286 14.2857V2.85714C1.14286 1.90372 1.90372 1.14286 2.85714 1.14286ZM8.5625 18.2779C8.41114 18.2803 8.26691 18.3426 8.16145 18.4512C8.05599 18.5598 7.99793 18.7058 8 18.8571V20.5714H6.28571C6.20999 20.5704 6.13481 20.5843 6.06455 20.6126C5.99428 20.6408 5.93032 20.6827 5.8764 20.7359C5.82247 20.7891 5.77965 20.8524 5.75043 20.9223C5.7212 20.9922 5.70615 21.0671 5.70615 21.1429C5.70615 21.2186 5.7212 21.2936 5.75043 21.3634C5.77965 21.4333 5.82247 21.4966 5.8764 21.5498C5.93032 21.603 5.99428 21.6449 6.06455 21.6731C6.13481 21.7014 6.20999 21.7154 6.28571 21.7143H8.57143H15.4286H17.7143C17.79 21.7154 17.8652 21.7014 17.9355 21.6731C18.0057 21.6449 18.0697 21.603 18.1236 21.5498C18.1775 21.4966 18.2203 21.4333 18.2496 21.3634C18.2788 21.2936 18.2939 21.2186 18.2939 21.1429C18.2939 21.0671 18.2788 20.9922 18.2496 20.9223C18.2203 20.8524 18.1775 20.7891 18.1236 20.7359C18.0697 20.6827 18.0057 20.6408 17.9355 20.6126C17.8652 20.5843 17.79 20.5704 17.7143 20.5714H16V18.8571C16.0011 18.7814 15.9871 18.7062 15.9588 18.636C15.9306 18.5657 15.8887 18.5018 15.8355 18.4478C15.7824 18.3939 15.719 18.3511 15.6491 18.3219C15.5793 18.2926 15.5043 18.2776 15.4286 18.2776C15.3528 18.2776 15.2779 18.2926 15.208 18.3219C15.1381 18.3511 15.0748 18.3939 15.0216 18.4478C14.9685 18.5018 14.9265 18.5657 14.8983 18.636C14.8701 18.7062 14.8561 18.7814 14.8571 18.8571V20.5714H9.14286V18.8571C9.1439 18.7807 9.1296 18.7048 9.10079 18.634C9.07198 18.5632 9.02925 18.4988 8.97514 18.4448C8.92102 18.3908 8.85662 18.3482 8.78574 18.3195C8.71486 18.2909 8.63895 18.2767 8.5625 18.2779Z" fill="black"/>
</svg>
