<svg width="24" height="25" viewBox="0 0 24 25" fill="none" xmlns="http://www.w3.org/2000/svg">
<path d="M9.27273 0.0361328C9.19575 0.0362124 9.11966 0.0525837 9.04946 0.0841705C8.97926 0.115757 8.91654 0.161844 8.86542 0.219402C8.8143 0.27696 8.77595 0.344684 8.75287 0.418125C8.7298 0.491565 8.72253 0.569057 8.73154 0.645508L9.62749 8.26376C9.63525 8.33542 9.65713 8.40483 9.69187 8.46798C9.72662 8.53113 9.77353 8.58678 9.8299 8.63169C9.88628 8.67661 9.95099 8.7099 10.0203 8.72966C10.0896 8.74942 10.1622 8.75524 10.2338 8.74679C10.3053 8.73835 10.3745 8.7158 10.4374 8.68045C10.5002 8.6451 10.5554 8.59766 10.5997 8.54086C10.6441 8.48405 10.6768 8.41902 10.6959 8.34952C10.715 8.28001 10.7201 8.20741 10.7109 8.13592L9.88637 1.13024C10.3035 1.13461 10.6806 1.37189 10.8601 1.7492L14.7156 9.85431H10.3636C8.1269 9.85431 6.18214 10.1293 4.60654 10.3646L2.66869 7.78116C2.35999 7.36957 1.87387 7.12704 1.35938 7.12704H0.545464C0.468078 7.12705 0.39158 7.14352 0.321049 7.17536C0.250518 7.2072 0.187569 7.25368 0.136383 7.31172C0.0851964 7.36976 0.046944 7.43802 0.0241662 7.51198C0.00138835 7.58594 -0.00539359 7.6639 0.00427087 7.74068L0.541202 12.0361L0.00427087 16.3316C-0.00539359 16.4084 0.00138835 16.4863 0.0241662 16.5603C0.046944 16.6342 0.0851964 16.7025 0.136383 16.7605C0.187569 16.8186 0.250518 16.8651 0.321049 16.8969C0.39158 16.9287 0.468078 16.9452 0.545464 16.9452H1.35938C1.8736 16.9452 2.35972 16.7031 2.66869 16.2911L4.60761 13.7076C6.18275 13.9429 8.12696 14.2179 10.3636 14.2179H14.7156L10.8601 22.3231C10.6806 22.7004 10.3035 22.9376 9.88637 22.942L10.7109 15.9363C10.7201 15.8648 10.715 15.7922 10.6959 15.7227C10.6768 15.6532 10.6441 15.5882 10.5997 15.5314C10.5554 15.4746 10.5002 15.4272 10.4374 15.3918C10.3745 15.3565 10.3053 15.3339 10.2338 15.3255C10.1622 15.317 10.0896 15.3228 10.0203 15.3426C9.95099 15.3624 9.88628 15.3956 9.8299 15.4406C9.77353 15.4855 9.72662 15.5411 9.69187 15.6043C9.65713 15.6674 9.63525 15.7368 9.62749 15.8085L8.73154 23.4267C8.72253 23.5032 8.7298 23.5807 8.75287 23.6541C8.77595 23.7276 8.8143 23.7953 8.86542 23.8529C8.91654 23.9104 8.97926 23.9565 9.04946 23.9881C9.11966 24.0197 9.19575 24.036 9.27273 24.0361H9.87572C10.7161 24.0361 11.4845 23.551 11.8455 22.7918L15.9237 14.2179H19.0909C19.9905 14.2179 21.1091 14.0282 22.059 13.7108C22.5339 13.5522 22.9647 13.3645 23.315 13.1206C23.6653 12.8768 24 12.5364 24 12.0361C24 11.5359 23.6653 11.1955 23.315 10.9516C22.9647 10.7078 22.5339 10.5201 22.059 10.3614C21.1091 10.0441 19.9905 9.85431 19.0909 9.85431H15.9237L11.8455 1.28045C11.4845 0.521253 10.7161 0.0361328 9.87572 0.0361328H9.27273ZM1.16336 8.21795H1.35938C1.53217 8.21795 1.6925 8.29811 1.79617 8.43634L3.92579 11.2755C3.98491 11.3543 4.06426 11.4156 4.15542 11.4529C4.24658 11.4902 4.34614 11.5022 4.44354 11.4875C6.06226 11.2443 8.0816 10.9452 10.3636 10.9452H15.5646H19.0909C19.8277 10.9452 20.8909 11.1209 21.7138 11.3959C22.1252 11.5333 22.4785 11.6988 22.6907 11.8465C22.8306 11.9439 22.8772 12.012 22.8952 12.0361C22.8772 12.0603 22.8306 12.1284 22.6907 12.2258C22.4785 12.3735 22.1252 12.5389 21.7138 12.6764C20.8909 12.9513 19.8277 13.127 19.0909 13.127H15.6637C15.6422 13.1236 15.6205 13.1215 15.5987 13.1206C15.5652 13.1197 15.5317 13.1218 15.4986 13.127H10.3636C8.0816 13.127 6.06169 12.8279 4.44354 12.5848C4.34614 12.5701 4.24658 12.582 4.15542 12.6193C4.06426 12.6567 3.98491 12.718 3.92579 12.7968L1.79617 15.6359C1.69278 15.7738 1.53135 15.8543 1.35938 15.8543H1.16336L1.62678 12.1491C1.63322 12.1171 1.63679 12.0847 1.63744 12.0521V12.05C1.63767 12.0354 1.63731 12.0208 1.63637 12.0063C1.63536 11.978 1.63216 11.9499 1.62678 11.9221L1.16336 8.21795Z" fill="black"/>
</svg>
