<svg width="84" height="80" viewBox="0 0 84 80" fill="none" xmlns="http://www.w3.org/2000/svg">
<path d="M10 0C4.50097 0 0 4.50097 0 10V54C0 58.6422 3.18336 62.5761 7.50391 63.6875C7.75837 63.7532 8.02329 63.7682 8.28354 63.7316C8.54379 63.6949 8.79427 63.6073 9.02067 63.4739C9.24707 63.3404 9.44496 63.1636 9.60303 62.9536C9.7611 62.7437 9.87627 62.5046 9.94194 62.2501C10.0076 61.9957 10.0225 61.7307 9.98578 61.4705C9.94905 61.2103 9.86141 60.9598 9.72787 60.7334C9.59433 60.5071 9.41751 60.3092 9.2075 60.1512C8.99749 59.9932 8.75841 59.8781 8.50391 59.8125C5.92045 59.1479 4 56.8178 4 54V10C4 6.66303 6.66303 4 10 4H74C77.337 4 80 6.66303 80 10V54C80 57.337 77.337 60 74 60H43.2578C41.5088 60 39.8061 60.5741 38.4141 61.6328L19.9258 75.6992C19.0316 76.3796 18 75.8645 18 74.7422V62C18.0037 61.735 17.9548 61.4719 17.856 61.2259C17.7571 60.98 17.6104 60.7561 17.4243 60.5674C17.2382 60.3787 17.0165 60.2288 16.772 60.1265C16.5275 60.0242 16.2651 59.9715 16 59.9715C15.7349 59.9715 15.4725 60.0242 15.228 60.1265C14.9835 60.2288 14.7618 60.3787 14.5757 60.5674C14.3896 60.7561 14.2429 60.98 14.144 61.2259C14.0452 61.4719 13.9963 61.735 14 62V74.7422C14 78.9159 19.0259 81.4104 22.3477 78.8828L40.8359 64.8164C41.5319 64.2871 42.3828 64 43.2578 64H74C79.499 64 84 59.499 84 54V10C84 4.50097 79.499 0 74 0H10ZM24 16C20.7111 16 18 18.7089 18 22V42C18 45.2911 20.7111 48 24 48H44C47.2889 48 50 45.2911 50 42V38V26V22C50 18.7089 47.2889 16 44 16H24ZM63.3164 16.1211C62.517 16.1169 61.7048 16.3274 60.9609 16.793L53.2617 21.6055C53.0328 21.7417 52.8334 21.9223 52.6753 22.1367C52.5171 22.351 52.4034 22.5948 52.3407 22.8538C52.278 23.1127 52.2677 23.3815 52.3104 23.6445C52.353 23.9074 52.4478 24.1592 52.5891 24.385C52.7303 24.6109 52.9153 24.8062 53.1331 24.9596C53.3509 25.113 53.5972 25.2213 53.8574 25.2782C54.1176 25.3351 54.3866 25.3395 54.6486 25.2911C54.9105 25.2426 55.1601 25.1423 55.3828 24.9961L63.082 20.1836C63.5707 19.8778 64 20.1159 64 20.6914V33V43.3086C64 43.8875 63.5716 44.1228 63.082 43.8164L55.3828 39.0039C55.1601 38.8577 54.9105 38.7574 54.6486 38.7089C54.3866 38.6605 54.1176 38.6649 53.8574 38.7218C53.5972 38.7787 53.3509 38.887 53.1331 39.0404C52.9153 39.1938 52.7303 39.3891 52.5891 39.615C52.4478 39.8408 52.353 40.0926 52.3104 40.3555C52.2677 40.6185 52.278 40.8873 52.3407 41.1462C52.4034 41.4052 52.5171 41.649 52.6753 41.8633C52.8334 42.0777 53.0328 42.2583 53.2617 42.3945L60.9609 47.207C63.9353 49.0686 68 46.8177 68 43.3086V33V20.6914C68 18.06 65.7145 16.1336 63.3164 16.1211ZM24 20H44C45.1271 20 46 20.8711 46 22V26V38V42C46 43.1289 45.1271 44 44 44H24C22.8729 44 22 43.1289 22 42V22C22 20.8711 22.8729 20 24 20Z" fill="black"/>
</svg>
