<svg width="302" height="473" viewBox="0 0 302 473" fill="none" xmlns="http://www.w3.org/2000/svg">
<path d="M83.6353 310.944C128.334 297.104 157.712 285.266 220.197 310.995C282.682 336.724 290.962 457.807 290.962 457.807L22.2002 457.628C22.2002 457.628 38.937 324.784 83.6353 310.944Z" fill="#714950"/>
<path d="M177.476 294.859C177.476 294.859 162.209 329.374 142.588 329.473C122.967 329.572 108.445 294.859 108.445 294.859L177.476 294.859Z" fill="#323A4E"/>
<path d="M115.337 294.967L140.614 261.352L171.779 294.985C171.688 295.186 171.561 295.462 171.399 295.804C171.033 296.574 170.491 297.678 169.787 299.006C168.378 301.663 166.324 305.209 163.742 308.773C161.157 312.34 158.058 315.904 154.564 318.614C151.07 321.325 147.217 323.154 143.114 323.32C134.491 323.67 127.538 316.681 122.665 309.329C120.248 305.682 118.384 302.007 117.125 299.241C116.495 297.859 116.018 296.707 115.698 295.901C115.538 295.498 115.418 295.182 115.338 294.967C115.337 294.967 115.337 294.967 115.337 294.967Z" fill="#F0CAAB" stroke="#CFAD92" stroke-width="1.29541"/>
<path d="M153.389 457.576C149.785 408.874 168.404 332.093 178.164 299.79C270.155 301.033 285.151 407.466 288.529 457.576H153.389Z" fill="#C1C0C0"/>
<path d="M158.319 457.576C154.715 408.874 173.335 332.093 183.095 299.79C275.086 301.033 290.082 407.466 293.46 457.576H158.319Z" fill="#49495C" stroke="#2E2D41" stroke-width="1.29541"/>
<path d="M183.749 296.092C219.931 302.792 255.562 322.496 268.96 371.508C287.877 416.834 290.342 456.281 290.342 456.281L263.645 457.186C267.527 295.639 174.581 294.394 183.749 296.092Z" fill="#37354B" fill-opacity="0.8"/>
<path d="M211.992 301.914L167.614 358.959C169.845 340.337 172.644 304.343 175.856 299.485C179.068 294.627 201.285 299.081 211.992 301.914Z" fill="#37354B"/>
<path d="M208.294 299.518L165.149 359.92C167.203 341.019 172.052 301.983 175.011 297.053C177.969 292.122 198.432 296.642 208.294 299.518Z" fill="#DDDDDD" stroke="#C1C0C0" stroke-width="1.29541"/>
<path d="M134.471 457.575C138.183 409.253 119.008 333.072 108.956 301.022C42.8496 301.022 23.1335 405.391 19.6542 455.11L134.471 457.575Z" fill="#C1C0C0"/>
<path d="M129.686 457.575C133.397 409.253 114.223 333.072 104.171 301.022C38.0644 301.022 17.1316 407.856 13.6523 457.575H129.686Z" fill="#49495C" stroke="#2E2D41" stroke-width="1.29541"/>
<path d="M79.9622 301.914L121.714 361.424C119.726 342.802 115.034 304.343 112.171 299.485C109.308 294.627 89.5054 299.081 79.9622 301.914Z" fill="#37354B"/>
<path d="M82.7513 299.518L123.347 361.424C121.414 342.523 116.849 301.983 114.065 297.052C111.282 292.122 92.0295 296.642 82.7513 299.518Z" fill="#DDDDDD" stroke="#C1C0C0" stroke-width="1.29541"/>
<path d="M63.5644 178.381C64.8869 186.194 64.5906 193.761 63.0697 199.666C61.5364 205.619 58.831 209.652 55.4887 210.832C52.1464 212.012 48.458 210.237 45.196 205.977C41.9606 201.752 39.2805 195.235 37.958 187.423C36.6356 179.61 36.9319 172.042 38.4528 166.138C39.9861 160.185 42.6914 156.152 46.0338 154.972C49.3761 153.792 53.0645 155.567 56.3265 159.827C59.5619 164.052 62.242 170.568 63.5644 178.381Z" fill="#F0CAAB" stroke="#DBBDA8" stroke-width="1.29541"/>
<path d="M250.405 181.944C249.604 188.524 247.368 194.39 244.434 198.552C241.487 202.733 237.934 205.073 234.488 204.936C231.041 204.798 228.09 202.2 226.184 197.825C224.288 193.471 223.495 187.485 224.296 180.904C225.097 174.324 227.333 168.459 230.267 164.297C233.215 160.116 236.767 157.776 240.213 157.913C243.66 158.05 246.611 160.649 248.517 165.024C250.414 169.378 251.206 175.364 250.405 181.944Z" fill="#F0CAAB" stroke="#DBBDA8" stroke-width="1.29541"/>
<rect x="116.898" y="259.065" width="55.8524" height="33.7573" transform="rotate(-0.363397 116.898 259.065)" fill="#F0CAAB" stroke="#CFAD92" stroke-width="1.29541"/>
<rect x="118.443" y="274.315" width="49.364" height="23.325" transform="rotate(-0.363397 118.443 274.315)" fill="#F0CAAB"/>
<rect x="168.878" y="264.475" width="5.09375" height="27.4354" transform="rotate(-0.363397 168.878 264.475)" fill="#AE7D5C" fill-opacity="0.25"/>
<path d="M232.782 178.67L232.776 178.615L232.78 178.559C236.316 124.92 223.925 98.6309 205.442 85.242C196.176 78.5298 185.32 75.0122 174.024 72.9549C164.883 71.2903 155.495 70.5875 146.448 69.9102C144.322 69.751 142.214 69.5932 140.133 69.4247C118.295 71.1976 95.8068 74.4491 79.4699 90.2447C63.1371 106.036 52.8044 134.525 55.7525 187.173C57.629 220.685 66.5026 241.542 80.9403 254.685C95.3876 267.836 115.518 273.369 140.167 275.971C168.777 275.964 193.677 268.023 210.54 251.941C227.392 235.869 236.308 211.578 232.782 178.67Z" fill="#F0CAAB" stroke="#DBBDA8" stroke-width="1.29541"/>
<path d="M56.906 180.953C57.4382 172.704 35.3738 278.142 149.019 275.428C256.556 272.86 231.408 156.506 232.589 154.144C232.589 154.144 226.923 149.377 224.323 151.782C239.675 223.819 190.002 255.206 185.627 247.086C162.914 204.924 113.497 210.477 100.325 240.352C87.1524 270.227 54.5442 217.562 56.906 180.953Z" fill="#AE7D5C" fill-opacity="0.25"/>
<path d="M54.2685 156.506C54.4786 164.77 41.123 69.1157 153.466 72.6602C243.277 75.4937 230.227 152.963 232.589 154.144C232.589 154.144 229.046 150.602 224.322 151.782C225.503 91.5551 182.617 86.3624 173.542 88.0123C147.562 92.736 136.933 95.0979 112.134 88.0123C87.3345 80.9267 53.3359 119.833 54.2685 156.506Z" fill="#AE7D5C" fill-opacity="0.15"/>
<path d="M138.39 274.248C159.647 281.334 204.247 263.972 213.694 247.439C237.313 223.82 232.589 158.869 233.77 155.326C233.77 155.326 227.419 150.232 224.818 152.638C238.99 278.997 124.9 269.751 138.39 274.248Z" fill="#AE7D5C" fill-opacity="0.15"/>
<ellipse opacity="0.2" cx="203.066" cy="220.276" rx="14.1711" ry="11.8093" fill="#C07373" fill-opacity="0.6"/>
<ellipse opacity="0.2" cx="82.6106" cy="220.276" rx="14.1711" ry="11.8093" fill="#C07373" fill-opacity="0.6"/>
<ellipse cx="178.948" cy="191.642" rx="15.3521" ry="17.7139" transform="rotate(-43.566 178.948 191.642)" fill="#52382C" fill-opacity="0.1"/>
<ellipse cx="180.427" cy="187.843" rx="17.6896" ry="20.8259" transform="rotate(-56.1338 180.427 187.843)" fill="#F0CAAB"/>
<path d="M160.712 158.789C160.189 162.345 162.482 165.758 166.974 168.351C171.437 170.926 177.927 172.592 185.386 172.697C192.845 172.803 199.797 171.328 204.998 168.888C210.232 166.434 213.519 163.099 214.043 159.543C214.566 155.987 212.273 152.573 207.781 149.981C203.318 147.405 196.828 145.74 189.369 145.635C181.91 145.529 174.958 147.004 169.757 149.443C164.522 151.898 161.236 155.233 160.712 158.789Z" fill="#0F0301" fill-opacity="0.5" stroke="#705949" stroke-width="1.29541"/>
<ellipse cx="27.7764" cy="12.9599" rx="27.7764" ry="12.9599" transform="matrix(-0.988485 0.151322 0.0199006 0.999802 212.892 149.331)" fill="#F0CAAB"/>
<path d="M167.149 179.206C167.149 170.076 174.551 162.673 183.682 162.673H186.044C196.48 162.673 204.939 171.133 204.939 181.568V189.262C204.939 192.84 202.039 195.739 198.462 195.739H183.682C174.551 195.739 167.149 188.337 167.149 179.206V179.206Z" fill="black"/>
<path d="M167.149 181.568C167.149 172.437 174.551 165.035 183.682 165.035H184.863C194.646 165.035 202.577 172.966 202.577 182.749V191.624C202.577 195.202 199.677 198.101 196.1 198.101H183.682C174.552 198.101 167.149 190.699 167.149 181.568V181.568Z" fill="white"/>
<circle cx="183.682" cy="181.568" r="14.1711" fill="#3E7075"/>
<circle cx="176.597" cy="191.016" r="2.36186" fill="white"/>
<ellipse cx="194.311" cy="176.845" rx="5.90465" ry="2.36186" fill="white"/>
<path d="M121.93 161.151C122.453 164.707 120.16 168.121 115.668 170.713C111.205 173.289 104.715 174.954 97.2564 175.06C89.7974 175.165 82.8455 173.69 77.6439 171.251C72.4096 168.797 69.1229 165.462 68.5995 161.906C68.076 158.35 70.3693 154.936 74.8608 152.344C79.3241 149.768 85.8138 148.103 93.2728 147.997C100.732 147.892 107.684 149.367 112.885 151.806C118.12 154.26 121.406 157.595 121.93 161.151Z" fill="#0F0301" fill-opacity="0.5" stroke="#705949" stroke-width="1.29541"/>
<ellipse cx="27.7764" cy="12.9599" rx="27.7764" ry="12.9599" transform="matrix(0.988485 0.151322 -0.0199006 0.999802 69.75 151.694)" fill="#F0CAAB"/>
<ellipse cx="15.3521" cy="17.7139" rx="15.3521" ry="17.7139" transform="matrix(-0.860338 -0.509724 -0.509724 0.860338 131.661 183.396)" fill="#52382C" fill-opacity="0.1"/>
<ellipse cx="17.9359" cy="20.5372" rx="17.9359" ry="20.5372" transform="matrix(-0.676664 -0.736292 -0.736292 0.676664 134.359 187.122)" fill="#F0CAAB"/>
<path d="M117.069 184.727C118.369 176.064 112.412 167.916 103.762 166.528L98.9324 165.753C88.3365 164.052 78.4554 171.277 76.8623 181.89L75.9992 187.64C75.4681 191.177 77.9009 194.504 81.4329 195.071L99.0532 197.899C107.703 199.287 115.768 193.39 117.069 184.727V184.727Z" fill="black"/>
<path d="M116.706 187.139C118.007 178.476 112.049 170.328 103.4 168.94L100.39 168.457C90.0778 166.802 80.4616 173.833 78.9112 184.162L77.9708 190.427C77.4397 193.964 79.8725 197.292 83.4045 197.858L98.6909 200.311C107.34 201.699 115.406 195.802 116.706 187.139V187.139Z" fill="white"/>
<path d="M82.1231 183.969C82.1231 192.277 87.034 196.863 94.5303 196.863C102.027 196.863 108.104 192.277 108.104 183.969C108.104 175.661 102.027 170 94.5303 170C87.034 170 82.1231 175.661 82.1231 183.969Z" fill="#3E7075"/>
<ellipse cx="2.36186" cy="2.44206" rx="2.36186" ry="2.44206" transform="matrix(-1 0 0 1 89.2085 189.536)" fill="white"/>
<ellipse cx="5.90465" cy="2.44206" rx="5.90465" ry="2.44206" transform="matrix(-1 0 0 1 110.465 174.884)" fill="white"/>
<path d="M119.913 234.12C119.913 242.925 127.05 250.063 135.855 250.063H141.76C150.565 250.063 157.702 242.925 157.702 234.12V234.12C157.702 231.185 155.323 228.806 152.388 228.806H125.227C122.292 228.806 119.913 231.185 119.913 234.12V234.12Z" fill="black"/>
<path d="M128.179 246.535C128.179 241.309 132.416 237.072 137.642 237.072H154.16C155.464 237.072 156.521 238.13 156.521 239.434V239.434C156.521 239.434 156.521 245.339 148.255 248.882C142.216 251.47 134.286 250.276 130.451 249.445C129.09 249.15 128.179 247.928 128.179 246.535V246.535Z" fill="#C07373"/>
<path d="M122.274 229.987C122.274 231.943 123.861 233.529 125.817 233.529H155.172H157.702V233.529C157.34 230.825 155.032 228.806 152.304 228.806H123.455C122.803 228.806 122.274 229.334 122.274 229.987V229.987Z" fill="#EEEEEE"/>
<path d="M53.1689 148.616C60.0354 116.945 96.7 89.6741 135.665 90.9565C186.122 91.2484 153.045 91.8646 165.652 91.9376C165.652 91.9376 182.66 117.654 179.222 117.634C82.7176 84.5429 50.4663 161.081 53.1689 148.616Z" fill="#AE7D5C" fill-opacity="0.25"/>
<path d="M231.728 83.8998C214.604 51.4446 167.538 41.5999 149.201 40.0845C149.201 40.0845 214.283 150.258 225.057 151.922C235.832 153.586 239.141 153.019 239.141 153.019C243.713 114.993 247.356 113.52 231.728 83.8998Z" fill="#5C595D" stroke="#615D63" stroke-width="1.29541"/>
<mask id="path-47-inside-1_10251_17217" fill="white">
<path fill-rule="evenodd" clip-rule="evenodd" d="M202.616 137.772C217.648 153.096 227.389 161.475 230.907 136.237C238.014 85.2444 203.059 41.0873 152.832 37.6098C102.605 34.1322 56.1264 72.6512 49.0191 123.644C45.9133 145.927 53.5057 143.081 67.2304 133.103C82.9902 110.328 107.414 94.2509 133.665 93.5284C164.97 92.6667 191.014 110.533 202.616 137.772Z"/>
</mask>
<path fill-rule="evenodd" clip-rule="evenodd" d="M202.616 137.772C217.648 153.096 227.389 161.475 230.907 136.237C238.014 85.2444 203.059 41.0873 152.832 37.6098C102.605 34.1322 56.1264 72.6512 49.0191 123.644C45.9133 145.927 53.5057 143.081 67.2304 133.103C82.9902 110.328 107.414 94.2509 133.665 93.5284C164.97 92.6667 191.014 110.533 202.616 137.772Z" fill="#524C49"/>
<path d="M230.907 136.237L229.6 136.161L230.907 136.237ZM202.616 137.772L201.39 138.328L201.475 138.526L201.626 138.681L202.616 137.772ZM152.832 37.6098L152.64 38.8779L152.832 37.6098ZM49.0191 123.644L47.712 123.568L49.0191 123.644ZM67.2304 133.103L67.9733 134.097L68.1727 133.952L68.311 133.752L67.2304 133.103ZM133.665 93.5284L133.604 94.7992L133.604 94.7992L133.665 93.5284ZM229.6 136.161C228.725 142.438 227.485 146.402 226.013 148.663C225.294 149.768 224.567 150.392 223.869 150.719C223.181 151.041 222.385 151.14 221.413 150.965C219.382 150.599 216.853 149.09 213.784 146.555C210.755 144.052 207.366 140.696 203.606 136.863L201.626 138.681C205.382 142.509 208.848 145.947 211.983 148.537C215.078 151.094 218.023 152.976 220.745 153.466C222.15 153.719 223.551 153.611 224.877 152.99C226.192 152.373 227.295 151.315 228.219 149.896C230.033 147.108 231.33 142.656 232.214 136.314L229.6 136.161ZM152.64 38.8779C202.101 42.3024 236.617 85.8124 229.6 136.161L232.214 136.314C239.411 84.6765 204.017 39.8722 153.023 36.3416L152.64 38.8779ZM50.3261 123.72C57.3424 73.3809 103.193 35.4544 152.64 38.8779L153.023 36.3416C102.017 32.8101 54.9104 71.9215 47.712 123.568L50.3261 123.72ZM66.4874 132.108C63.0652 134.596 60.0954 136.587 57.6111 137.853C55.0613 139.153 53.3378 139.522 52.2393 139.241C51.301 139 50.3803 138.143 49.9244 135.618C49.4695 133.099 49.5547 129.256 50.3261 123.72L47.712 123.568C46.9306 129.174 46.8001 133.33 47.3243 136.233C47.8474 139.13 49.1002 141.116 51.3873 141.702C53.5143 142.247 56.0682 141.426 58.7049 140.082C61.4072 138.705 64.5333 136.598 67.9733 134.097L66.4874 132.108ZM133.725 92.2575C106.918 92.9954 82.1018 109.401 66.1498 132.453L68.311 133.752C83.8786 111.256 107.91 95.5064 133.604 94.7992L133.725 92.2575ZM203.842 137.216C192.07 109.578 165.605 91.38 133.725 92.2575L133.604 94.7992C164.336 93.9533 189.958 111.488 201.39 138.328L203.842 137.216Z" fill="#302E2D" mask="url(#path-47-inside-1_10251_17217)"/>
<path fill-rule="evenodd" clip-rule="evenodd" d="M141.221 68.618C141.224 76.2187 133.821 82.358 124.676 82.3225C122.184 82.3129 119.82 81.8454 117.7 81.0165C116.404 81.0634 115.393 80.9583 114.779 80.8527C117.611 82.4395 121.015 83.3716 124.677 83.3858C134.52 83.424 142.497 76.8144 142.494 68.623C142.493 66.0637 141.713 63.6528 140.34 61.5462C140.193 61.8299 139.942 62.1677 139.537 62.5037C139.53 62.5098 139.523 62.5158 139.515 62.5217C140.606 64.3622 141.22 66.4321 141.221 68.618ZM137.467 58.2831C136.797 58.2589 136.143 58.3603 135.833 58.433L135.832 58.4343C132.888 56.1836 128.969 54.8018 124.664 54.7851C115.52 54.7497 108.117 60.889 108.12 68.4896C108.121 70.6383 108.714 72.6748 109.77 74.4916C109.752 74.5219 109.732 74.5546 109.711 74.5895C109.529 74.8922 109.247 75.3583 109.164 75.807C107.69 73.643 106.848 71.144 106.847 68.4847C106.843 60.2932 114.82 53.6837 124.664 53.7219C129.687 53.7414 134.226 55.4883 137.467 58.2831Z" fill="#2E2E30"/>
<path d="M127.022 61.8956L124.764 61.8272C125.021 62.3748 125.154 62.9571 125.155 63.5443C125.156 64.9624 124.534 66.143 123.288 67.0861C122.043 68.0292 120.515 68.4965 118.705 68.4881L117.996 68.4853C117.052 68.4816 116.302 68.5822 115.747 68.7871C115.192 68.992 114.914 69.2327 114.915 69.5092C114.915 69.8538 115.145 70.1383 115.606 70.3627C116.067 70.5872 116.711 70.7056 117.539 70.7181L121.652 70.7787C123.425 70.8154 124.804 71.131 125.792 71.7255C126.779 72.32 127.273 73.1454 127.273 74.2019C127.274 75.7994 126.233 77.1903 124.15 78.3748C122.067 79.5593 119.599 80.1442 116.746 80.1295C114.879 80.1223 113.304 79.7372 112.021 78.9742C110.738 78.2112 110.098 77.287 110.101 76.2015C110.101 75.4733 110.507 74.7634 111.319 74.0717C112.122 73.3912 113.105 72.8766 114.189 72.5684C113.48 72.3064 112.863 71.8985 112.393 71.3829C111.931 70.8728 111.699 70.3652 111.699 69.8604C111.699 69.5059 112.134 69.1272 113.005 68.7243C113.848 68.3317 114.764 68.0599 115.716 67.9202C114.762 67.5477 113.94 66.9732 113.333 66.2539C112.769 65.5736 112.471 64.7642 112.482 63.9384C112.481 62.5778 113.111 61.3922 114.371 60.3818C114.962 59.8928 115.664 59.5077 116.437 59.2492C117.209 58.9907 118.037 58.8639 118.871 58.8763C119.8 58.8809 120.722 59.0194 121.597 59.2858C122.416 59.5182 123.17 59.8889 123.811 60.375L127.026 60.2982C127.334 60.2994 127.488 60.5662 127.488 61.0987C127.488 61.6312 127.334 61.8968 127.026 61.8956L127.022 61.8956ZM113.071 75.5419C113.072 76.5155 113.564 77.3065 114.548 77.9152C115.532 78.5238 116.782 78.8314 118.3 78.8381C120.125 78.8452 121.707 78.5071 123.046 77.8238C124.385 77.1406 125.054 76.2973 125.054 75.294C125.053 74.6162 124.784 74.1287 124.245 73.8317C123.705 73.5346 122.801 73.3737 121.533 73.3489L117.408 73.2594C116.671 73.2668 115.938 73.163 115.243 72.9532C113.801 73.6056 113.08 74.4685 113.08 75.542L113.071 75.5419ZM121.13 60.7187C120.663 60.1262 119.915 59.828 118.886 59.824C116.925 59.8164 115.945 61.1927 115.946 63.953C115.947 65.2058 116.174 66.1164 116.63 66.6847C117.085 67.253 117.838 67.5395 118.89 67.5444C120.852 67.552 121.833 66.2051 121.831 63.5037C121.831 62.2423 121.597 61.3147 121.13 60.7208L121.13 60.7187ZM139.174 61.4399C139.046 61.5698 138.884 61.674 138.701 61.7449C138.518 61.8157 138.318 61.8515 138.116 61.8495C137.561 61.8394 137.022 61.6889 136.569 61.418C136.166 61.1903 135.816 61.0755 135.52 61.0736C134.749 61.0706 133.955 61.4422 133.139 62.1885L133.141 68.8432C133.142 69.7011 133.319 70.3009 133.674 70.6427C134.029 70.9844 134.788 71.2213 135.951 71.3535C136.141 71.3741 136.236 71.5077 136.235 71.7545C136.235 72.0296 136.141 72.1671 135.951 72.1671C135.465 72.1652 134.778 72.1331 133.889 72.0708C132.908 72.0074 132.128 71.9746 131.55 71.9723C130.972 71.9701 130.258 71.9971 129.409 72.0533C128.65 72.1092 128.027 72.1362 127.541 72.1343C127.352 72.1336 127.257 71.9953 127.257 71.7195C127.257 71.4727 127.352 71.3398 127.541 71.3207C128.572 71.2177 129.233 71.0185 129.523 70.7233C129.813 70.428 129.958 69.7986 129.957 68.835L129.955 63.3683C129.955 62.5806 129.833 62.0632 129.59 61.8163C129.347 61.5693 128.805 61.4044 127.963 61.3218C127.775 61.321 127.679 61.1909 127.679 60.9293C127.679 60.6878 127.774 60.567 127.963 60.5677C128.959 60.3785 129.93 60.1095 130.864 59.7643C131.627 59.4667 132.126 59.2098 132.359 58.9937C132.412 58.9417 132.477 58.899 132.549 58.8683C132.622 58.8375 132.702 58.8192 132.783 58.8146C133.113 58.8159 133.278 58.8952 133.278 59.0526L133.138 60.9154C134.085 60.1909 134.899 59.6815 135.582 59.387C136.207 59.1056 136.906 58.9561 137.618 58.9515C138.136 58.946 138.637 59.1067 139.019 59.4004C139.202 59.5273 139.349 59.6857 139.451 59.8646C139.553 60.0436 139.607 60.2387 139.609 60.4365C139.62 60.8054 139.465 61.1635 139.174 61.4399Z" fill="#2E2E30"/>
<mask id="path-51-inside-2_10251_17217" fill="white">
<path fill-rule="evenodd" clip-rule="evenodd" d="M224.638 126.524C231.69 137.067 233.32 145.946 229.311 149.747C220.924 150.881 214.512 150.058 209.288 147.893C204.484 146.831 200.071 145.21 197.884 142.941C197.788 141.609 197.462 140.156 196.924 138.605C194.011 135.312 191.372 131.545 188.615 127.611C184.636 121.932 180.411 115.903 174.764 110.443C172.026 108.037 169.109 105.667 166.051 103.379C154.431 95.4459 141.07 91.0696 131.461 87.9225C123.666 85.3696 118.341 83.6255 118.417 81.4475C86.7425 76.4734 57.3069 94.4973 55.6946 167.415C47.44 164.256 33.399 151.406 45.9527 117.682C58.5064 83.9575 107.576 67.2229 157.459 78.8399C188.164 85.9906 213.262 108.737 224.638 126.524Z"/>
</mask>
<path fill-rule="evenodd" clip-rule="evenodd" d="M224.638 126.524C231.69 137.067 233.32 145.946 229.311 149.747C220.924 150.881 214.512 150.058 209.288 147.893C204.484 146.831 200.071 145.21 197.884 142.941C197.788 141.609 197.462 140.156 196.924 138.605C194.011 135.312 191.372 131.545 188.615 127.611C184.636 121.932 180.411 115.903 174.764 110.443C172.026 108.037 169.109 105.667 166.051 103.379C154.431 95.4459 141.07 91.0696 131.461 87.9225C123.666 85.3696 118.341 83.6255 118.417 81.4475C86.7425 76.4734 57.3069 94.4973 55.6946 167.415C47.44 164.256 33.399 151.406 45.9527 117.682C58.5064 83.9575 107.576 67.2229 157.459 78.8399C188.164 85.9906 213.262 108.737 224.638 126.524Z" fill="#49495C"/>
<path d="M224.638 126.524L223.466 127.244L223.471 127.254L223.478 127.263L224.638 126.524ZM229.311 149.747L229.362 150.982L229.854 150.915L230.217 150.57L229.311 149.747ZM209.288 147.893L209.94 146.743L209.839 146.701L209.729 146.677L209.288 147.893ZM197.884 142.941L196.546 143.157L196.574 143.549L196.843 143.828L197.884 142.941ZM196.924 138.605L198.205 138.108L198.136 137.909L197.996 137.751L196.924 138.605ZM188.615 127.611L189.762 126.853L189.762 126.853L188.615 127.611ZM174.764 110.443L175.778 109.528L175.759 109.51L175.739 109.492L174.764 110.443ZM166.051 103.379L166.958 102.374L166.938 102.359L166.918 102.345L166.051 103.379ZM131.461 87.9225L130.897 89.1051L130.897 89.1051L131.461 87.9225ZM118.417 81.4475L119.758 81.3531L119.792 80.3754L118.777 80.2161L118.417 81.4475ZM55.6946 167.415L55.0736 168.578L56.9911 169.311L57.0354 167.306L55.6946 167.415ZM45.9527 117.682L47.2154 117.973L45.9527 117.682ZM157.459 78.8399L157.004 80.0529L157.459 78.8399ZM223.478 127.263C226.957 132.465 229.051 137.189 229.802 141.014C230.567 144.911 229.884 147.521 228.405 148.923L230.217 150.57C232.747 148.172 233.253 144.442 232.443 140.313C231.618 136.113 229.371 131.126 225.798 125.785L223.478 127.263ZM229.261 148.512C221.079 149.618 214.918 148.806 209.94 146.743L208.636 149.043C214.106 151.31 220.768 152.144 229.362 150.982L229.261 148.512ZM209.729 146.677C204.947 145.62 200.856 144.058 198.924 142.054L196.843 143.828C199.286 146.362 204.02 148.042 208.848 149.109L209.729 146.677ZM199.222 142.725C199.118 141.273 198.766 139.725 198.205 138.108L195.643 139.101C196.159 140.587 196.459 141.945 196.546 143.157L199.222 142.725ZM197.996 137.751C195.131 134.512 192.527 130.798 189.762 126.853L187.468 128.369C190.217 132.293 192.891 136.111 195.852 139.458L197.996 137.751ZM189.762 126.853C185.79 121.183 181.51 115.071 175.778 109.528L173.751 111.357C179.312 116.735 183.482 122.681 187.468 128.369L189.762 126.853ZM175.739 109.492C172.978 107.068 170.039 104.68 166.958 102.374L165.144 104.385C168.179 106.655 171.073 109.007 173.79 111.393L175.739 109.492ZM166.918 102.345C155.141 94.3047 141.621 89.8829 132.024 86.7398L130.897 89.1051C140.519 92.2563 153.722 96.587 165.185 104.413L166.918 102.345ZM132.024 86.7398C128.1 85.4548 124.894 84.4031 122.671 83.4082C121.557 82.9099 120.771 82.4601 120.281 82.0508C119.775 81.6287 119.756 81.3954 119.758 81.3531L117.077 81.5419C117.04 82.5886 117.658 83.39 118.373 83.9873C119.104 84.5974 120.122 85.1516 121.304 85.6807C123.672 86.7405 127.026 87.8373 130.897 89.1051L132.024 86.7398ZM118.777 80.2161C102.615 77.678 86.7475 80.9944 74.7857 94.4921C62.9367 107.863 55.1619 130.977 54.3538 167.525L57.0354 167.306C57.8396 130.936 65.5888 108.579 76.7793 95.9517C87.8571 83.4514 102.545 80.2429 118.058 82.6789L118.777 80.2161ZM56.3156 166.253C52.4731 164.783 47.1455 160.997 44.2908 153.485C41.4384 145.979 41.0127 134.636 47.2154 117.973L44.69 117.391C38.339 134.452 38.657 146.396 41.7503 154.536C44.8413 162.67 50.6615 166.889 55.0736 168.578L56.3156 166.253ZM47.2154 117.973C53.3068 101.609 68.288 89.2627 88.0515 82.4225C107.82 75.5806 132.277 74.2943 157.004 80.0529L157.914 77.6269C132.758 71.7685 107.739 73.041 87.3635 80.0932C66.983 87.1471 51.1524 100.03 44.69 117.391L47.2154 117.973ZM157.004 80.0529C187.325 87.1143 212.202 109.632 223.466 127.244L225.81 125.803C214.322 107.841 189.002 84.8669 157.914 77.6269L157.004 80.0529Z" fill="#3B394E" mask="url(#path-51-inside-2_10251_17217)"/>
<mask id="path-53-inside-3_10251_17217" fill="white">
<path fill-rule="evenodd" clip-rule="evenodd" d="M60.1115 165.487C67.7183 124.442 104.755 88.9154 143.62 90.0084C138.221 86.8449 132.103 84.3602 125.388 82.7427C92.6579 74.8581 58.1528 90.5678 48.3191 117.831C42.1037 135.063 47.2319 152.786 60.1115 165.487Z"/>
</mask>
<path fill-rule="evenodd" clip-rule="evenodd" d="M60.1115 165.487C67.7183 124.442 104.755 88.9154 143.62 90.0084C138.221 86.8449 132.103 84.3602 125.388 82.7427C92.6579 74.8581 58.1528 90.5678 48.3191 117.831C42.1037 135.063 47.2319 152.786 60.1115 165.487Z" fill="#374B37"/>
<path d="M143.62 90.0084L143.435 91.2559L144.419 88.9317L143.62 90.0084ZM60.1115 165.487L59.0904 166.394L60.9412 168.219L61.4326 165.567L60.1115 165.487ZM125.388 82.7427L124.924 83.9534L125.388 82.7427ZM48.3191 117.831L47.0518 117.553L48.3191 117.831ZM143.805 88.7609C104 87.6415 66.4787 123.921 58.7904 165.406L61.4326 165.567C68.9579 124.962 105.509 90.1893 143.435 91.2559L143.805 88.7609ZM124.924 83.9534C131.518 85.5419 137.524 87.9814 142.821 91.0852L144.419 88.9317C138.918 85.7085 132.687 83.1785 125.853 81.5321L124.924 83.9534ZM49.5864 118.11C59.1133 91.6969 92.71 76.1932 124.924 83.9534L125.853 81.5321C92.6058 73.523 57.1923 89.4387 47.0518 117.553L49.5864 118.11ZM61.1327 164.58C48.501 152.124 43.5545 134.833 49.5864 118.11L47.0518 117.553C40.6529 135.293 45.9628 153.449 59.0904 166.394L61.1327 164.58Z" fill="#133822" mask="url(#path-53-inside-3_10251_17217)"/>
<rect width="16.041" height="6.34391" rx="3.17195" transform="matrix(0.994728 0.102549 -0.113425 0.993547 142.769 36.0977)" fill="#302E2D"/>
</svg>
