<svg width="456" height="95" viewBox="0 0 456 95" fill="none" xmlns="http://www.w3.org/2000/svg">
<path d="M286.26 47V30.8H289.52C290.6 30.8 291.493 30.9467 292.2 31.24C292.907 31.52 293.427 31.98 293.76 32.62C294.107 33.2467 294.28 34.0733 294.28 35.1C294.28 35.7267 294.213 36.3 294.08 36.82C293.947 37.3267 293.733 37.76 293.44 38.12C293.147 38.4667 292.76 38.72 292.28 38.88L294.58 47H292.4L290.28 39.4H288.52V47H286.26ZM288.52 37.78H289.38C290.02 37.78 290.54 37.7 290.94 37.54C291.34 37.38 291.633 37.1067 291.82 36.72C292.007 36.3333 292.1 35.7933 292.1 35.1C292.1 34.1533 291.927 33.4733 291.58 33.06C291.233 32.6333 290.547 32.42 289.52 32.42H288.52V37.78ZM300.771 47.18C299.678 47.18 298.804 46.9667 298.151 46.54C297.498 46.1133 297.031 45.5067 296.751 44.72C296.471 43.92 296.331 42.9867 296.331 41.92V35.78C296.331 34.7133 296.471 33.8 296.751 33.04C297.044 32.2667 297.511 31.68 298.151 31.28C298.804 30.8667 299.678 30.66 300.771 30.66C301.864 30.66 302.731 30.8667 303.371 31.28C304.011 31.6933 304.471 32.28 304.751 33.04C305.044 33.8 305.191 34.7133 305.191 35.78V41.94C305.191 42.9933 305.044 43.9133 304.751 44.7C304.471 45.4867 304.011 46.1 303.371 46.54C302.731 46.9667 301.864 47.18 300.771 47.18ZM300.771 45.4C301.371 45.4 301.824 45.28 302.131 45.04C302.438 44.7867 302.644 44.44 302.751 44C302.858 43.5467 302.911 43.02 302.911 42.42V35.32C302.911 34.72 302.858 34.2067 302.751 33.78C302.644 33.34 302.438 33.0067 302.131 32.78C301.824 32.54 301.371 32.42 300.771 32.42C300.171 32.42 299.711 32.54 299.391 32.78C299.084 33.0067 298.878 33.34 298.771 33.78C298.664 34.2067 298.611 34.72 298.611 35.32V42.42C298.611 43.02 298.664 43.5467 298.771 44C298.878 44.44 299.084 44.7867 299.391 45.04C299.711 45.28 300.171 45.4 300.771 45.4ZM311.472 47.18C310.326 47.18 309.432 46.94 308.792 46.46C308.166 45.98 307.726 45.3333 307.472 44.52C307.232 43.7067 307.112 42.8 307.112 41.8V36.08C307.112 34.9867 307.232 34.0333 307.472 33.22C307.726 32.4067 308.166 31.78 308.792 31.34C309.432 30.8867 310.326 30.66 311.472 30.66C312.486 30.66 313.286 30.8467 313.872 31.22C314.472 31.5933 314.899 32.1267 315.152 32.82C315.419 33.5133 315.552 34.3467 315.552 35.32V36.6H313.412V35.46C313.412 34.86 313.379 34.3333 313.312 33.88C313.259 33.4133 313.099 33.0533 312.832 32.8C312.566 32.5467 312.119 32.42 311.492 32.42C310.852 32.42 310.386 32.56 310.092 32.84C309.799 33.1067 309.606 33.4933 309.512 34C309.432 34.4933 309.392 35.0733 309.392 35.74V42.16C309.392 42.9733 309.459 43.62 309.592 44.1C309.726 44.5667 309.946 44.9 310.252 45.1C310.559 45.3 310.972 45.4 311.492 45.4C312.106 45.4 312.546 45.2667 312.812 45C313.079 44.72 313.246 44.34 313.312 43.86C313.379 43.38 313.412 42.82 313.412 42.18V40.98H315.552V42.18C315.552 43.1667 315.432 44.04 315.192 44.8C314.952 45.5467 314.539 46.1333 313.952 46.56C313.366 46.9733 312.539 47.18 311.472 47.18ZM317.705 47V30.8H319.965V38.44L323.685 30.8H325.785L322.585 37.94L326.305 47H324.105L321.005 39.4L319.965 41.28V47H317.705ZM330.428 47L326.808 30.8H328.928L331.488 42.74L333.928 30.8H335.988L332.408 47H330.428ZM337.825 47V30.8H340.045V47H337.825ZM342.666 47V30.8H344.926V45.38H349.066V47H342.666ZM350.615 47V30.8H352.875V45.38H357.015V47H350.615ZM358.565 47V30.8H364.845V32.48H360.825V37.84H364.085V39.44H360.825V45.38H364.885V47H358.565ZM366.589 49.62L366.249 48.7C366.609 48.58 366.889 48.3667 367.089 48.06C367.303 47.7667 367.409 47.4133 367.409 47H366.269V44.7H368.469V46.96C368.469 47.6667 368.316 48.2267 368.009 48.64C367.703 49.0667 367.229 49.3933 366.589 49.62ZM374.97 47L375.27 30.8H377.49L380.35 43.94L383.23 30.8H385.43L385.73 47H383.91L383.73 35.24L380.99 47H379.71L376.99 35.24L376.81 47H374.97ZM387.333 47L390.773 30.8H392.953L396.413 47H394.273L393.533 42.92H390.233L389.453 47H387.333ZM390.533 41.3H393.233L391.873 34L390.533 41.3ZM398.057 47V30.8H401.317C402.397 30.8 403.29 30.9467 403.997 31.24C404.704 31.52 405.224 31.98 405.557 32.62C405.904 33.2467 406.077 34.0733 406.077 35.1C406.077 35.7267 406.01 36.3 405.877 36.82C405.744 37.3267 405.53 37.76 405.237 38.12C404.944 38.4667 404.557 38.72 404.077 38.88L406.377 47H404.197L402.077 39.4H400.317V47H398.057ZM400.317 37.78H401.177C401.817 37.78 402.337 37.7 402.737 37.54C403.137 37.38 403.43 37.1067 403.617 36.72C403.804 36.3333 403.897 35.7933 403.897 35.1C403.897 34.1533 403.724 33.4733 403.377 33.06C403.03 32.6333 402.344 32.42 401.317 32.42H400.317V37.78ZM410.908 47V41.28L407.408 30.8H409.508L411.988 38.62L414.428 30.8H416.548L413.068 41.28V47H410.908ZM418.057 47V30.8H420.317V45.38H424.457V47H418.057ZM425.126 47L428.566 30.8H430.746L434.206 47H432.066L431.326 42.92H428.026L427.246 47H425.126ZM428.326 41.3H431.026L429.666 34L428.326 41.3ZM435.85 47V30.8H437.39L441.99 41.56V30.8H443.87V47H442.43L437.77 35.94V47H435.85ZM446.416 47V30.8H449.936C451.136 30.8 452.083 30.9867 452.776 31.36C453.483 31.72 453.983 32.2667 454.276 33C454.583 33.7333 454.736 34.6467 454.736 35.74V41.7C454.736 42.8467 454.583 43.8133 454.276 44.6C453.983 45.3867 453.496 45.9867 452.816 46.4C452.15 46.8 451.25 47 450.116 47H446.416ZM448.676 45.38H449.956C450.783 45.38 451.37 45.22 451.716 44.9C452.063 44.58 452.27 44.1133 452.336 43.5C452.416 42.8867 452.456 42.1467 452.456 41.28V36.02C452.456 35.18 452.403 34.5 452.296 33.98C452.19 33.46 451.956 33.08 451.596 32.84C451.236 32.6 450.67 32.48 449.896 32.48H448.676V45.38Z" fill="#989492"/>
<path d="M306.307 70.5675C305.535 70.2689 305.43 70.0582 305.64 69.2151C305.816 68.3721 305.675 68.1438 304.903 67.7399L303.99 67.2305L305.272 67.1954C306.325 67.1954 306.518 67.09 306.518 66.4578V65.7553L294.896 65.966L283.274 66.1768V65.404C283.274 64.9649 282.73 56.1484 282.098 45.8039C281.466 35.4243 280.623 21.655 280.219 15.1919C279.816 8.69369 279.482 3.37216 279.447 3.37216C279.342 3.26678 169.091 2.56427 154.274 2.56427H137.841V4.14492C137.841 5.05819 137.613 10.6783 137.332 16.7023C137.104 22.6913 136.893 27.644 136.928 27.7142C136.964 27.7493 138.579 26.7658 140.527 25.554C143.213 23.9031 145.074 22.3927 148.269 19.2314C150.587 16.9482 152.887 14.8934 153.378 14.7177C154.08 14.4543 154.625 14.5245 155.836 15.0514L157.381 15.7539L160.313 13.0844C162.841 10.7661 163.912 9.37864 164.86 7.09548C165.158 6.39296 165.931 7.67505 165.931 8.85176V10.0636L168.968 11.17C172.707 12.5575 176.078 12.7507 177.044 11.6442C177.518 11.0998 177.553 10.9066 177.219 10.4675C176.886 10.0636 176.956 9.92309 177.763 9.62452C178.466 9.36108 178.571 9.15033 178.308 8.88688C177.57 8.14924 177.869 8.00874 180.765 7.78043C183.627 7.55211 183.697 7.51698 185.541 5.9012C186.787 4.82987 187.735 4.2503 188.297 4.2503C188.859 4.2503 190.386 5.19869 192.51 6.77935L195.881 9.30839L197.97 9.1152C199.813 8.90445 200.094 8.9747 200.428 9.5894C200.726 10.1338 200.656 10.327 200.059 10.731C199.48 11.0998 199.392 11.3984 199.585 12.136C199.761 12.8385 199.954 13.0141 200.463 12.8385C200.937 12.698 201.095 12.8385 201.2 13.4181C201.271 13.9977 201.569 14.226 202.236 14.2962C203.254 14.4367 203.377 14.8758 202.64 15.8418C201.938 16.755 202.008 16.9131 203.149 17.6332C204.062 18.1776 204.167 18.3708 204.167 19.9163V21.6024L207.468 22.9196C211.172 24.3948 214.438 26.5902 214.876 27.8372C215.105 28.5045 214.982 28.9436 214.174 30.0852L213.156 31.5253L214.297 33.2816L215.473 35.0379L218.809 35.9161L222.18 36.7942L223.057 38.4451C223.83 39.8501 224.269 40.2014 226.393 41.1673L228.816 42.3089L230.097 40.8688L231.379 39.4637L232.292 40.3068C232.801 40.781 233.977 42.0279 234.89 43.0992L236.575 45.0136L234.346 47.0684L232.116 49.1233L232.327 51.2484L232.52 53.3384L230.729 54.3219C229.255 55.1298 228.886 55.5337 228.5 56.6753C228.166 57.7291 227.762 58.1857 227.025 58.5018C226.218 58.8355 226.042 59.1165 226.182 59.6434C226.323 60.223 226.112 60.4513 225.129 60.8552C224.058 61.3294 223.847 61.5578 223.338 63.5072C222.759 65.527 222.759 65.7728 223.303 67.6521C223.602 68.7234 223.97 69.6367 224.111 69.6367C224.251 69.6015 224.953 69.6015 225.726 69.6015C227.043 69.6015 227.113 69.5664 227.956 67.6872L228.798 65.7377L229.378 66.8442L229.957 67.9506L230.589 66.5983C230.922 65.8255 231.326 65.2108 231.467 65.2108C231.607 65.2108 232.941 67.2306 234.469 69.7245C237.067 74.0274 238.103 75.1865 238.875 74.4137C239.051 74.2381 238.875 73.2019 238.507 71.9901C238.138 70.8485 237.839 69.7069 237.839 69.4962C237.839 68.7585 239.858 71.0768 240.227 72.2535C240.42 72.9209 240.894 74.203 241.245 75.1514L241.877 76.8374L244.669 76.732L247.495 76.5915L249.479 79.3138C250.55 80.789 251.568 82.0009 251.726 82.036C251.867 82.036 251.954 81.7374 251.954 81.3686C251.954 80.7364 251.989 80.7012 252.762 81.2281L253.605 81.7726L253.71 80.1217C253.85 78.3654 253.921 78.4356 254.992 81.474C255.624 83.16 255.975 83.564 257.748 84.7758L259.767 86.1633L259.591 85.2149C259.486 84.6704 259.293 83.4586 259.187 82.5629C259.047 81.5442 258.52 80.1041 257.8 78.9976C256.888 77.4872 256.659 76.7496 256.659 75.3621V73.641H255.185C253.798 73.641 253.64 73.5356 252.762 72.1657C252.148 71.2173 251.077 70.2514 249.76 69.4435C247.741 68.1965 247.671 68.1263 246.459 64.9298C245.389 62.1725 245.213 61.3294 245.248 59.1692L245.283 56.6402L246.091 60.504L246.898 64.3854L250.567 68.056L254.202 71.6915L255.588 71.4632L256.94 71.27L256.765 69.8474C256.624 68.8112 255.957 67.5994 254.272 65.2284L251.972 61.9968V57.6939C251.972 53.5842 251.937 53.3208 251.094 52.2319L250.216 51.0903L251.621 49.0706L253.008 47.0158H251.972C250.954 47.0158 250.761 46.805 250.567 45.5405C250.497 45.1014 250.761 44.8028 251.48 44.557C252.06 44.3813 252.551 44.1881 252.622 44.1179C252.692 44.0476 252.288 43.3802 251.673 42.6426C250.497 41.2025 250.655 41.0268 252.551 41.7996C253.218 42.063 253.798 42.2738 253.868 42.2035C253.938 42.1684 252.99 40.8512 251.779 39.3057C249.725 36.7064 249.286 35.5297 250.357 35.5999C250.585 35.5999 251.428 36.4429 252.235 37.444C253.043 38.4627 253.78 39.2706 253.921 39.2706C254.061 39.2706 254.5 38.972 254.939 38.6559L255.746 38.0412L253.868 36.5659C252.832 35.7931 252.025 35.0906 252.077 35.0203C252.112 34.9501 252.885 35.1257 253.763 35.3892C254.64 35.6526 255.343 35.7931 255.343 35.6877C255.343 35.5824 255.044 34.4408 254.64 33.1587C254.008 31.1038 253.868 30.8755 253.236 30.9985C252.657 31.1741 251.954 30.6648 250.006 28.6802C247.688 26.3619 247.583 26.1511 248.215 25.8174C249.233 25.273 249.391 25.3081 252.095 26.959C253.482 27.802 254.746 28.4694 254.921 28.4694C255.132 28.4694 255.501 28.206 255.834 27.8372C256.378 27.2576 256.343 27.2049 255.36 26.7834C254.693 26.5199 254.044 25.835 253.605 24.9569L252.938 23.5694L254.184 24.7461C254.886 25.3784 255.395 25.6945 255.29 25.4135C254.588 23.3586 254.588 23.3938 255.834 23.3938C256.712 23.3938 257.186 23.1655 257.713 22.4805C258.52 21.4443 258.555 21.497 256.326 19.9515C255.518 19.3368 255.518 19.3368 257.362 19.4421L259.205 19.5124L259.907 21.4619C260.574 23.4113 260.574 23.4113 261.224 22.7088C261.768 22.1292 261.768 21.9009 261.417 21.1282C261.083 20.4257 261.083 19.7758 261.417 18.0898C261.645 16.9131 261.961 15.9647 262.049 15.9647C262.189 15.9647 262.453 16.9833 262.663 18.1952C262.857 19.4421 263.102 20.5135 263.208 20.5837C263.313 20.6891 264.56 19.7407 266.034 18.4937L268.703 16.2106L267.649 15.2973L266.631 14.3489L267.404 12.6278C268.211 10.9417 268.246 10.9066 269.721 10.9066C270.827 10.9066 271.547 10.6783 272.372 10.0285L273.478 9.18545L272.811 10.8715C272.477 11.7847 271.933 13.1195 271.635 13.8045C271.371 14.4719 271.16 15.0866 271.231 15.1568C271.301 15.2271 272.618 14.1382 274.163 12.8034C275.743 11.4159 277.094 10.3446 277.129 10.4148C277.2 10.4851 276.866 11.1876 276.392 11.9955L275.514 13.4708L276.357 14.6124C276.831 15.2446 277.2 15.8242 277.2 15.8944C277.2 15.9998 275.585 15.7188 274.443 15.4203C274.075 15.3149 273.408 15.8944 272.354 17.2643L270.809 19.2489L273.741 19.7934C275.321 20.092 276.708 20.4081 276.778 20.4257C276.849 20.4959 274.584 20.654 271.757 20.7945L266.631 21.0228L265.595 22.2346C265.051 22.9371 263.805 25.273 262.839 27.4157L261.083 31.3848L261.891 33.7383C263.032 37.1103 263.102 37.1454 263.875 34.9501L264.577 32.9655L266.42 32.5616C267.439 32.3332 268.404 32.1225 268.615 32.0874C268.79 32.0874 267.983 33.0358 266.824 34.2125C264.946 36.1268 264.735 36.4429 264.735 37.7426V39.1476H263.225C262.347 39.1476 261.101 38.849 260.399 38.5153L259.117 37.848L258.538 41.1849C257.871 45.2595 257.871 45.0838 258.538 45.3648C259.012 45.5405 259.047 45.4 258.871 44.4165C258.661 43.3627 258.766 43.1695 260.223 41.8874C261.101 41.1146 261.944 40.4999 262.137 40.4999C262.312 40.4999 262.979 40.7985 263.576 41.2025C264.349 41.6767 264.718 42.1509 264.718 42.7129C264.718 43.2924 264.858 43.4505 265.227 43.3276C265.49 43.1871 265.736 43.2924 265.736 43.5383C265.736 43.7315 266.069 44.2057 266.473 44.557L267.21 45.1717L265.929 46.5767C264.717 47.929 264.682 48.0168 265.262 48.6315C265.806 49.2287 265.876 49.2287 266.473 48.7018C267.246 47.9993 267.509 48.2627 267.105 49.4043C266.526 50.8444 265.016 50.6161 262.786 48.7369C261.768 47.8588 260.838 47.2968 260.697 47.4548C260.258 47.9641 258.239 54.0233 258.432 54.2165C258.942 54.761 259.644 53.8126 260.083 51.8982C260.592 49.8082 260.592 49.8082 260.627 51.1957L260.662 52.6359L261.803 51.3538L262.944 50.1068L263.173 51.4591C263.313 52.1968 263.471 53.11 263.576 53.4437C263.752 54.0233 263.769 54.0584 264.085 53.5491C264.559 52.7061 264.928 52.8817 265.156 54.0233C265.332 54.9717 265.455 55.0771 266.262 54.8312C267.14 54.638 267.175 54.638 266.596 55.2703C265.824 56.1484 265.859 56.2538 267.035 56.0782C267.878 55.9728 268.071 56.0782 268.352 56.7807C268.545 57.29 269.194 57.9223 269.791 58.2208L270.862 58.8004L271.898 57.5534C273.109 56.1133 273.373 56.043 273.144 57.2197C272.969 58.0979 270.686 60.0474 269.809 60.0474C269.58 60.0474 268.457 59.819 267.351 59.4678C265.595 58.9936 265.332 58.8355 265.332 58.0803C265.332 57.2724 265.297 57.2724 263.243 57.5008C262.067 57.6413 261.048 57.7993 260.996 57.8696C260.925 57.9398 261.101 58.2735 261.435 58.6423C261.944 59.1868 261.944 59.2746 261.47 59.6785C260.557 60.4513 260.925 60.6621 262.312 60.1879C264.559 59.38 264.946 59.8893 263.348 61.5051C262.47 62.4183 261.944 63.314 261.768 64.1922C261.54 65.5094 261.54 65.5094 260.996 64.7718L260.416 64.0341L259.784 64.7366C259.117 65.4743 259.117 65.4743 260.961 68.9868C262.786 72.517 263.313 72.8682 263.313 70.5675C263.313 69.9879 263.453 69.4259 263.576 69.3205C263.752 69.2152 265.367 70.9012 267.21 73.0614L270.546 76.9604L270.722 74.765C270.897 72.4994 271.564 71.0944 272.741 70.4621C273.759 69.9177 273.653 71.1295 272.565 72.1481C272.091 72.5872 271.722 73.0263 271.722 73.1317C271.722 73.237 272.091 73.9044 272.53 74.6421L273.302 75.9593L275.286 72.2184C276.357 70.1635 277.27 68.5126 277.34 68.5478C277.375 68.618 277.042 70.0582 276.603 71.8144C276.164 73.5356 275.865 75.0811 275.971 75.2568C276.076 75.4324 276.778 75.8715 277.551 76.2754L278.973 76.9779L276.849 78.0141C275.058 78.8923 274.724 79.1908 274.566 80.1743C274.426 80.789 274.426 81.3511 274.531 81.4916C274.637 81.5969 275.707 81.4916 276.884 81.2984C278.06 81.0876 279.412 80.9295 279.921 80.9295C280.799 80.9295 280.764 80.9647 279.377 82.317C278.13 83.5288 278.06 83.6693 278.797 83.4937C281.887 82.721 281.87 82.6156 279.675 85.1797C278.569 86.4618 277.358 87.8669 276.989 88.3059L276.287 89.0787L277.094 88.8504C277.832 88.6221 277.867 88.6747 277.762 90.1325L277.621 91.678L279.026 90.8701C280.202 90.1676 280.851 90.0271 283.274 90.0271C285.872 90.0271 286.136 89.9568 286.434 89.2543C286.733 88.5869 287.347 88.4113 291.525 87.7088L296.265 86.9009L296.81 85.3202C297.249 84.003 297.547 83.6342 298.793 83.0546L300.233 82.3521L300.847 79.2611C301.286 77.0657 301.62 76.1349 302.059 75.889C302.937 75.3797 303.463 75.4851 303.235 76.0646C303.007 76.6793 303.411 76.6969 304.113 76.1349C304.587 75.7661 307.08 71.4808 307.08 71.0417C307.185 70.9714 306.781 70.7431 306.307 70.5675ZM236.698 29.4178L237.98 36.8644L231.291 33.3519L224.602 36.8644L225.884 29.4178L220.477 24.149L227.956 23.0601L231.291 16.2808L234.627 23.0601L242.106 24.149L236.698 29.4178Z" fill="#DDDDDD"/>
<path d="M236.698 29.4174L237.962 36.8816L231.291 33.3515L224.602 36.8816L225.866 29.4174L220.459 24.1486L227.938 23.0597L231.291 16.2805L234.627 23.0597L242.106 24.1486L236.698 29.4174Z" fill="#714950"/>
<path d="M3.36 47L0.72 30.8H2.6L4.34 42.44L6.52 30.86H8.12L10.32 42.5L12.02 30.8H13.86L11.26 47H9.62L7.36 35L5.08 47H3.36ZM19.8141 47.18C18.7207 47.18 17.8474 46.9667 17.1941 46.54C16.5407 46.1133 16.0741 45.5067 15.7941 44.72C15.5141 43.92 15.3741 42.9867 15.3741 41.92V35.78C15.3741 34.7133 15.5141 33.8 15.7941 33.04C16.0874 32.2667 16.5541 31.68 17.1941 31.28C17.8474 30.8667 18.7207 30.66 19.8141 30.66C20.9074 30.66 21.7741 30.8667 22.4141 31.28C23.0541 31.6933 23.5141 32.28 23.7941 33.04C24.0874 33.8 24.2341 34.7133 24.2341 35.78V41.94C24.2341 42.9933 24.0874 43.9133 23.7941 44.7C23.5141 45.4867 23.0541 46.1 22.4141 46.54C21.7741 46.9667 20.9074 47.18 19.8141 47.18ZM19.8141 45.4C20.4141 45.4 20.8674 45.28 21.1741 45.04C21.4807 44.7867 21.6874 44.44 21.7941 44C21.9007 43.5467 21.9541 43.02 21.9541 42.42V35.32C21.9541 34.72 21.9007 34.2067 21.7941 33.78C21.6874 33.34 21.4807 33.0067 21.1741 32.78C20.8674 32.54 20.4141 32.42 19.8141 32.42C19.2141 32.42 18.7541 32.54 18.4341 32.78C18.1274 33.0067 17.9207 33.34 17.8141 33.78C17.7074 34.2067 17.6541 34.72 17.6541 35.32V42.42C17.6541 43.02 17.7074 43.5467 17.8141 44C17.9207 44.44 18.1274 44.7867 18.4341 45.04C18.7541 45.28 19.2141 45.4 19.8141 45.4ZM26.4553 47V30.8H29.7153C30.7953 30.8 31.6886 30.9467 32.3953 31.24C33.102 31.52 33.622 31.98 33.9553 32.62C34.302 33.2467 34.4753 34.0733 34.4753 35.1C34.4753 35.7267 34.4086 36.3 34.2753 36.82C34.142 37.3267 33.9286 37.76 33.6353 38.12C33.342 38.4667 32.9553 38.72 32.4753 38.88L34.7753 47H32.5953L30.4753 39.4H28.7153V47H26.4553ZM28.7153 37.78H29.5753C30.2153 37.78 30.7353 37.7 31.1353 37.54C31.5353 37.38 31.8286 37.1067 32.0153 36.72C32.202 36.3333 32.2953 35.7933 32.2953 35.1C32.2953 34.1533 32.122 33.4733 31.7753 33.06C31.4286 32.6333 30.742 32.42 29.7153 32.42H28.7153V37.78ZM36.8264 47V30.8H39.0864V38.44L42.8064 30.8H44.9064L41.7064 37.94L45.4264 47H43.2264L40.1264 39.4L39.0864 41.28V47H36.8264ZM46.8488 47V30.8H49.0688V47H46.8488ZM51.6897 47V30.8H53.2297L57.8297 41.56V30.8H59.7097V47H58.2697L53.6097 35.94V47H51.6897ZM66.1161 47.2C65.1028 47.2 64.2894 46.9867 63.6761 46.56C63.0761 46.12 62.6361 45.4867 62.3561 44.66C62.0894 43.8333 61.9561 42.84 61.9561 41.68V36.26C61.9561 35.0733 62.0761 34.0667 62.3161 33.24C62.5694 32.4 63.0094 31.76 63.6361 31.32C64.2761 30.88 65.1628 30.66 66.2961 30.66C67.3094 30.66 68.1228 30.8333 68.7361 31.18C69.3628 31.5133 69.8161 32.0333 70.0961 32.74C70.3761 33.4333 70.5161 34.3133 70.5161 35.38V35.98H68.3961V35.48C68.3961 34.7733 68.3494 34.2 68.2561 33.76C68.1628 33.3067 67.9694 32.9733 67.6761 32.76C67.3961 32.5333 66.9494 32.42 66.3361 32.42C65.6694 32.42 65.1828 32.5733 64.8761 32.88C64.5828 33.1867 64.3961 33.6067 64.3161 34.14C64.2494 34.66 64.2161 35.2533 64.2161 35.92V41.92C64.2161 42.6933 64.2694 43.34 64.3761 43.86C64.4961 44.38 64.7161 44.7667 65.0361 45.02C65.3561 45.2733 65.8094 45.4 66.3961 45.4C66.9828 45.4 67.4361 45.26 67.7561 44.98C68.0761 44.7 68.2961 44.2867 68.4161 43.74C68.5361 43.1933 68.5961 42.5133 68.5961 41.7V40.58H66.5361V38.98H70.6361V47H69.2161L68.9961 45.14C68.7828 45.74 68.4494 46.2333 67.9961 46.62C67.5428 47.0067 66.9161 47.2 66.1161 47.2ZM77.5295 47V30.8H80.7895C81.8695 30.8 82.7629 30.9467 83.4695 31.24C84.1762 31.52 84.6962 31.98 85.0295 32.62C85.3762 33.2467 85.5495 34.0733 85.5495 35.1C85.5495 35.7267 85.4829 36.3 85.3495 36.82C85.2162 37.3267 85.0029 37.76 84.7095 38.12C84.4162 38.4667 84.0295 38.72 83.5495 38.88L85.8495 47H83.6695L81.5495 39.4H79.7895V47H77.5295ZM79.7895 37.78H80.6495C81.2895 37.78 81.8095 37.7 82.2095 37.54C82.6095 37.38 82.9029 37.1067 83.0895 36.72C83.2762 36.3333 83.3695 35.7933 83.3695 35.1C83.3695 34.1533 83.1962 33.4733 82.8495 33.06C82.5029 32.6333 81.8162 32.42 80.7895 32.42H79.7895V37.78ZM87.9006 47V30.8H94.1806V32.48H90.1606V37.84H93.4206V39.44H90.1606V45.38H94.2206V47H87.9006ZM96.0052 47L96.3052 30.8H98.5252L101.385 43.94L104.265 30.8H106.465L106.765 47H104.945L104.765 35.24L102.025 47H100.745L98.0252 35.24L97.8452 47H96.0052ZM113.388 47.18C112.295 47.18 111.422 46.9667 110.768 46.54C110.115 46.1133 109.648 45.5067 109.368 44.72C109.088 43.92 108.948 42.9867 108.948 41.92V35.78C108.948 34.7133 109.088 33.8 109.368 33.04C109.662 32.2667 110.128 31.68 110.768 31.28C111.422 30.8667 112.295 30.66 113.388 30.66C114.482 30.66 115.348 30.8667 115.988 31.28C116.628 31.6933 117.088 32.28 117.368 33.04C117.662 33.8 117.808 34.7133 117.808 35.78V41.94C117.808 42.9933 117.662 43.9133 117.368 44.7C117.088 45.4867 116.628 46.1 115.988 46.54C115.348 46.9667 114.482 47.18 113.388 47.18ZM113.388 45.4C113.988 45.4 114.442 45.28 114.748 45.04C115.055 44.7867 115.262 44.44 115.368 44C115.475 43.5467 115.528 43.02 115.528 42.42V35.32C115.528 34.72 115.475 34.2067 115.368 33.78C115.262 33.34 115.055 33.0067 114.748 32.78C114.442 32.54 113.988 32.42 113.388 32.42C112.788 32.42 112.328 32.54 112.008 32.78C111.702 33.0067 111.495 33.34 111.388 33.78C111.282 34.2067 111.228 34.72 111.228 35.32V42.42C111.228 43.02 111.282 43.5467 111.388 44C111.495 44.44 111.702 44.7867 112.008 45.04C112.328 45.28 112.788 45.4 113.388 45.4ZM121.81 47V32.48H119.07V30.8H126.73V32.48H124.07V47H121.81ZM128.291 47V30.8H134.571V32.48H130.551V37.84H133.811V39.44H130.551V45.38H134.611V47H128.291ZM136.436 47V30.8H138.696V45.38H142.836V47H136.436ZM146.299 47V41.28L142.799 30.8H144.899L147.379 38.62L149.819 30.8H151.939L148.459 41.28V47H146.299ZM158.018 47V30.8H164.278V32.42H160.278V37.82H163.378V39.42H160.278V47H158.018ZM165.83 47V30.8H169.09C170.17 30.8 171.064 30.9467 171.77 31.24C172.477 31.52 172.997 31.98 173.33 32.62C173.677 33.2467 173.85 34.0733 173.85 35.1C173.85 35.7267 173.784 36.3 173.65 36.82C173.517 37.3267 173.304 37.76 173.01 38.12C172.717 38.4667 172.33 38.72 171.85 38.88L174.15 47H171.97L169.85 39.4H168.09V47H165.83ZM168.09 37.78H168.95C169.59 37.78 170.11 37.7 170.51 37.54C170.91 37.38 171.204 37.1067 171.39 36.72C171.577 36.3333 171.67 35.7933 171.67 35.1C171.67 34.1533 171.497 33.4733 171.15 33.06C170.804 32.6333 170.117 32.42 169.09 32.42H168.09V37.78ZM180.341 47.18C179.248 47.18 178.375 46.9667 177.721 46.54C177.068 46.1133 176.601 45.5067 176.321 44.72C176.041 43.92 175.901 42.9867 175.901 41.92V35.78C175.901 34.7133 176.041 33.8 176.321 33.04C176.615 32.2667 177.081 31.68 177.721 31.28C178.375 30.8667 179.248 30.66 180.341 30.66C181.435 30.66 182.301 30.8667 182.941 31.28C183.581 31.6933 184.041 32.28 184.321 33.04C184.615 33.8 184.761 34.7133 184.761 35.78V41.94C184.761 42.9933 184.615 43.9133 184.321 44.7C184.041 45.4867 183.581 46.1 182.941 46.54C182.301 46.9667 181.435 47.18 180.341 47.18ZM180.341 45.4C180.941 45.4 181.395 45.28 181.701 45.04C182.008 44.7867 182.215 44.44 182.321 44C182.428 43.5467 182.481 43.02 182.481 42.42V35.32C182.481 34.72 182.428 34.2067 182.321 33.78C182.215 33.34 182.008 33.0067 181.701 32.78C181.395 32.54 180.941 32.42 180.341 32.42C179.741 32.42 179.281 32.54 178.961 32.78C178.655 33.0067 178.448 33.34 178.341 33.78C178.235 34.2067 178.181 34.72 178.181 35.32V42.42C178.181 43.02 178.235 43.5467 178.341 44C178.448 44.44 178.655 44.7867 178.961 45.04C179.281 45.28 179.741 45.4 180.341 45.4ZM186.943 47L187.243 30.8H189.463L192.323 43.94L195.203 30.8H197.403L197.703 47H195.883L195.703 35.24L192.963 47H191.683L188.963 35.24L188.783 47H186.943Z" fill="#989492"/>
</svg>
