<svg width="150" height="150" viewBox="0 0 150 150" fill="none" xmlns="http://www.w3.org/2000/svg">
<g clip-path="url(#clip0_10432_17850)">
<rect width="150" height="150" fill="#524C49"/>
<g clip-path="url(#clip1_10432_17850)">
<path d="M81.7999 23.2466C82.0099 23.2954 82.2199 23.3441 82.4363 23.3944C90.9399 25.3841 99.4946 30.1279 104.326 37.6293C107.356 42.5524 108.586 48.0505 107.49 53.7709C106.254 58.9327 103.629 62.9325 99.9382 66.6329C99.7315 66.8468 99.5249 67.0607 99.3119 67.2811C96.2846 70.2071 92.3106 72.2118 88.4555 73.8008C87.4262 74.2285 86.6185 74.5697 85.8956 75.4275C85.5253 76.5408 85.3582 77.5036 85.6031 78.6521C86.1638 79.5627 86.8782 80.2644 87.6509 80.9973C87.8553 81.1942 88.0597 81.3911 88.2703 81.5939C89.6451 82.8661 91.097 83.9445 92.6621 84.9709C92.8427 85.1107 93.0233 85.2505 93.2095 85.3946C93.2095 85.5881 93.2095 85.7815 93.2095 85.9809C85.1469 85.4573 76.8666 83.6991 70.5492 78.3349C68.6267 76.882 66.6117 76.6639 64.2833 76.3436C56.859 75.2279 50.1621 72.6946 44.3531 67.8055C44.1193 67.6139 43.8854 67.4224 43.6445 67.225C39.1471 63.3831 35.9709 58.1402 35.0828 52.2502C34.6246 46.4658 36.0524 40.5671 39.7531 35.9751C40.6611 34.9172 41.6259 33.9193 42.5978 32.9206C42.7652 32.7313 42.9326 32.542 43.1052 32.3469C51.9501 22.593 69.6318 20.1856 81.7999 23.2466ZM51.3858 47.1682C50.2285 48.3562 49.6155 49.3696 49.5608 51.0467C49.6995 52.5592 50.2612 53.6045 51.3926 54.5771C52.9209 55.6849 54.1988 55.68 56.0552 55.4932C57.4773 54.8196 58.3085 53.9867 58.9807 52.5617C59.2071 51.0085 59.179 49.7573 58.5053 48.3293C57.4538 47.1924 56.5596 46.5342 55.0496 46.149C53.5877 46.0976 52.5488 46.2164 51.3858 47.1682ZM68.635 46.9918C67.7224 47.8494 66.9369 48.7613 66.81 50.0379C66.7639 51.8158 66.7865 52.9547 68.0499 54.3206C69.1323 55.3259 69.9747 55.5811 71.4142 55.6398C72.8538 55.5811 73.6962 55.3259 74.7786 54.3206C75.8506 53.0432 76.3215 51.8741 76.2414 50.2165C75.7784 48.696 75.1786 47.652 73.9009 46.6987C72.0353 45.9928 70.3498 45.8883 68.635 46.9918ZM85.1414 47.4121C83.984 48.7485 83.7417 49.8715 83.7666 51.5803C83.9427 53.074 84.6873 54.0054 85.7676 55.0352C87.1934 55.6846 88.4499 55.7211 89.9914 55.4932C91.2937 54.8526 92.0945 54.0452 92.9169 52.8549C93.4118 51.367 93.3744 50.1228 92.7341 48.6958C92.1091 47.566 91.4636 46.9739 90.2839 46.4055C88.377 45.9432 86.6573 46.0322 85.1414 47.4121Z" fill="#CDCDCD"/>
<path d="M38.6135 82.0021C39.0545 82.0017 39.4954 82.0012 39.9364 82.0004C40.8553 81.9996 41.7741 82.0008 42.6929 82.0036C43.863 82.0069 45.033 82.005 46.2031 82.0015C47.112 81.9993 48.0208 82 48.9297 82.0015C49.3608 82.0019 49.792 82.0015 50.2232 82.0001C56.3545 81.9848 60.7697 84.1607 66.1124 86.9353C66.6233 87.1994 67.1343 87.4635 67.6454 87.7274C69.104 88.4814 70.5613 89.2379 72.0183 89.9951C72.3898 90.188 72.7614 90.3809 73.1329 90.5738C74.5467 91.3084 75.959 92.0458 77.3677 92.7903C78.2537 93.2581 79.1445 93.7119 80.0441 94.153C82.4874 95.3651 84.7913 96.5989 85.7648 99.298C86.2939 101.653 85.9201 103.595 84.6541 105.65C83.441 107.28 81.8101 108.166 79.8624 108.609C77.1263 108.887 74.7726 107.451 72.3907 106.29C71.3078 105.764 70.2198 105.251 69.1305 104.74C68.7154 104.545 68.3003 104.35 67.8852 104.155C67.675 104.056 67.4648 103.957 67.2482 103.855C66.1754 103.351 65.1033 102.845 64.0313 102.338C63.8189 102.238 63.6065 102.138 63.3876 102.034C62.1498 101.45 60.9133 100.862 59.6778 100.272C58.9281 99.915 58.1774 99.56 57.4265 99.2054C56.9108 98.961 56.3964 98.7137 55.8821 98.4664C54.3231 97.732 52.9771 97.1274 51.247 97.0307C51.2336 97.7312 51.2336 97.7312 51.5396 98.4964C52.2292 98.943 52.84 99.2681 53.584 99.5957C53.9007 99.7431 53.9007 99.7431 54.2239 99.8934C54.9176 100.215 55.6146 100.528 56.3118 100.842C56.7934 101.063 57.2747 101.285 57.7557 101.507C58.7293 101.956 59.7042 102.402 60.6803 102.846C61.9199 103.41 63.155 103.982 64.3879 104.561C67.4596 106.002 70.5387 107.426 73.6273 108.83C73.8653 108.939 74.1032 109.048 74.3484 109.16C74.566 109.258 74.7836 109.356 75.0078 109.458C75.1947 109.542 75.3815 109.627 75.5741 109.714C78.0278 110.691 80.5867 110.401 82.9867 109.417C84.7945 108.512 85.9941 107.256 86.9568 105.481C87.2469 104.605 87.2793 103.83 87.2989 102.912C87.3396 101.837 87.4799 100.997 87.8161 99.9622C88.9574 98.9534 90.2446 98.5058 91.6535 97.9631C93.2149 97.3224 94.7153 96.5474 96.2272 95.7985C99.6295 94.1203 103.064 92.5103 106.508 90.9192C108.581 89.9601 110.648 88.9892 112.711 88.0083C112.964 87.8877 113.218 87.7671 113.479 87.6429C114.74 87.0429 116.001 86.4419 117.261 85.8402C117.723 85.6205 118.184 85.4007 118.645 85.181C118.858 85.0792 119.07 84.9774 119.289 84.8725C121.441 83.8486 123.333 83.4327 125.695 84.0187C127.651 84.7831 129.062 86.1649 129.993 88.0484C130.568 89.8765 130.578 92.1467 129.798 93.9159C128.245 96.3826 125.653 97.7372 123.179 99.1194C122.666 99.4098 122.155 99.7012 121.643 99.9926C121.298 100.189 120.952 100.385 120.607 100.581C119.045 101.467 117.499 102.378 115.956 103.297C114.198 104.342 112.438 105.384 110.674 106.42C110.5 106.522 110.326 106.624 110.147 106.729C109.249 107.256 108.351 107.782 107.453 108.307C105.644 109.365 103.843 110.436 102.056 111.531C101.535 111.849 101.014 112.166 100.492 112.483C100.014 112.775 99.5385 113.072 99.0632 113.37C95.1784 115.728 90.773 116.724 86.4151 117.858C85.9001 117.993 85.3852 118.128 84.8702 118.264C83.801 118.545 82.7315 118.824 81.6618 119.103C80.2925 119.46 78.9237 119.819 77.555 120.179C76.2421 120.523 74.929 120.867 73.6159 121.211C73.3673 121.276 73.1187 121.341 72.8625 121.408C72.1593 121.593 71.4559 121.776 70.7525 121.96C70.5458 122.014 70.3391 122.068 70.1262 122.124C67.9899 122.679 66.0822 122.898 63.8816 122.92C63.6065 122.928 63.3314 122.937 63.048 122.945C58.0941 122.988 53.1996 120.905 48.5615 119.358C47.8865 119.134 47.2115 118.91 46.5364 118.686C45.1301 118.218 43.7243 117.75 42.3187 117.28C40.5238 116.68 38.7273 116.086 36.9304 115.492C35.5391 115.032 34.149 114.568 32.7591 114.104C32.0972 113.883 31.435 113.664 30.7723 113.445C29.8454 113.14 28.92 112.829 27.9949 112.518C27.7255 112.43 27.4561 112.342 27.1786 112.252C24.579 111.367 21.8802 110.219 20.5385 107.684C19.9022 105.621 19.9908 103.465 20.0236 101.323C20.0352 100.481 20.0296 99.64 20.0221 98.7976C20.0238 94.1527 20.8279 90.3346 24.0396 86.7704C28.2324 82.6271 32.9643 81.984 38.6135 82.0021Z" fill="#CDCDCD"/>
<path d="M87.2871 81.7343C89.1214 81.7343 90.9557 81.7343 92.8456 81.7343C92.9422 82.0245 93.0387 82.3147 93.1382 82.6137C91.2073 82.4202 89.2765 82.2267 87.2871 82.0274C87.2871 81.9307 87.2871 81.8339 87.2871 81.7343Z" fill="#9E9E9E"/>
</g>
</g>
<defs>
<clipPath id="clip0_10432_17850">
<rect width="150" height="150" fill="white"/>
</clipPath>
<clipPath id="clip1_10432_17850">
<rect width="110" height="107" fill="white" transform="translate(20 19)"/>
</clipPath>
</defs>
</svg>
