<svg width="150" height="150" viewBox="0 0 150 150" fill="none" xmlns="http://www.w3.org/2000/svg">
<rect width="150" height="150" fill="#714950"/>
<path d="M48.52 122.6V117.16C45.2933 118.12 42.76 118.6 40.92 118.6C37.24 118.6 35.4 116.813 35.4 113.24C35.4 111.133 35.8267 109.147 36.68 107.28C37.1333 106.293 37.7867 105.453 38.64 104.76C39.4933 104.067 40.5067 103.64 41.68 103.48V103.32L38.64 102.16C39.28 98.6133 40.3067 96.2 41.72 94.92C43.16 93.64 45.0667 93 47.44 93C49.8133 93 52.2133 93.28 54.64 93.84L52.48 99.52H49.12C48.2933 99.52 47.68 99.64 47.28 99.88C46.88 100.093 46.6267 100.533 46.52 101.2L46.28 102.72H60.2L58.36 108.32H55.72L53.32 122L48.52 122.6ZM45.72 112.28C46.68 112.28 47.6133 112.213 48.52 112.08V108.32H44.08C43.7867 109.387 43.64 110.213 43.64 110.8C43.64 111.787 44.3333 112.28 45.72 112.28Z" fill="#D9D9D9"/>
<path d="M106 112.16H86.56L81.76 140H58.96L72.16 65H118.96L112.6 84.2H91.48L89.8 94.28H109.24L106 112.16Z" fill="#D9D9D9"/>
<path d="M85 59.16H65.56L60.76 87H37.96L51.16 12H97.96L91.6 31.2H70.48L68.8 41.28H88.24L85 59.16Z" fill="#D9D9D9"/>
</svg>
