<svg width="150" height="150" viewBox="0 0 150 150" fill="none" xmlns="http://www.w3.org/2000/svg">
<g clip-path="url(#clip0_10435_17976)">
<rect width="150" height="150" fill="#DA3832"/>
<path d="M71.0285 91.4707C73.3653 92.5942 76.3175 92.4166 78.8248 91.9532C79.1623 91.794 79.4998 91.6348 79.8475 91.4707C83.2065 90.1613 86.6519 91.2893 89.9403 92.2619C90.4793 92.3835 91.0195 92.5004 91.5613 92.6093C92.7192 92.8795 92.7192 92.8795 93.6454 93.497C93.6454 93.7008 93.6454 93.9046 93.6454 94.1145C93.9511 94.2005 93.9511 94.2005 94.263 94.2882C95.5811 94.9198 96.6533 95.8349 97.6594 96.8934C97.6594 97.0972 97.6594 97.301 97.6594 97.5109C97.8632 97.5109 98.0669 97.5109 98.2769 97.5109C100.908 102.16 101.472 106.285 101.445 111.558C101.442 112.339 101.445 113.12 101.449 113.901C101.449 114.4 101.448 114.9 101.447 115.4C101.448 115.632 101.449 115.864 101.45 116.103C101.44 117.251 101.429 118.171 100.747 119.124C98.2696 120.683 95.3468 121.972 92.4104 122.212C91.8733 121.675 91.9868 120.917 91.9279 120.186C91.9021 119.873 91.8762 119.561 91.8495 119.239C91.8308 118.997 91.8121 118.756 91.7929 118.507C91.7554 118.789 91.718 119.072 91.6795 119.363C91.6277 119.73 91.576 120.097 91.5227 120.475C91.4725 120.841 91.4224 121.206 91.3707 121.582C91.1753 122.521 91.1753 122.521 90.5578 123.138C89.7068 123.376 88.8743 123.578 88.0105 123.756C87.7512 123.81 87.4919 123.863 87.2248 123.918C79.184 125.495 70.9009 125.404 62.8848 123.756C62.6341 123.705 62.3834 123.653 62.125 123.601C60.3779 123.217 60.3779 123.217 59.6814 122.521C59.486 121.65 59.486 121.65 59.334 120.63C59.2823 120.291 59.2305 119.953 59.1772 119.604C59.1398 119.344 59.1024 119.084 59.0639 118.816C58.962 119.835 58.8601 120.853 58.7551 121.903C56.3327 122.509 54.1883 121.391 52.0974 120.186C51.237 119.666 50.5112 119.217 49.8009 118.507C49.7351 117.564 49.7071 116.649 49.7081 115.705C49.7067 115.422 49.7054 115.139 49.7041 114.848C49.7023 114.246 49.7021 113.644 49.7035 113.042C49.7044 112.137 49.6973 111.232 49.6894 110.326C49.6785 106.965 49.8838 103.862 50.7272 100.599C50.931 100.599 51.1348 100.599 51.3448 100.599C51.3893 100.42 51.4339 100.242 51.4798 100.058C51.5372 99.829 51.5945 99.5997 51.6535 99.3635C51.679 99.1661 51.7045 98.9687 51.7307 98.7653C52.0868 97.7859 52.7411 97.2831 53.5061 96.5846C53.7927 96.2981 54.0792 96.0115 54.3745 95.7162C56.6001 93.8205 59.6827 92.4887 62.4603 91.6444C62.7701 91.5477 62.7701 91.5477 63.0862 91.449C65.4644 90.8362 68.7608 90.3533 71.0285 91.4707Z" fill="white"/>
<path d="M96.7331 74.3537C97.7366 74.7975 97.7366 74.7975 98.5857 75.28C99.4359 75.4385 100.2 75.5382 101.056 75.5887C101.311 75.6086 101.565 75.6285 101.828 75.649C103.886 75.7388 105.536 75.3301 107.466 74.6239C109.587 74.0507 111.541 74.3914 113.638 74.8747C113.88 74.9299 114.123 74.985 114.372 75.0418C117.475 75.7815 120.241 77.0523 122.978 78.6764C122.978 78.8802 122.978 79.084 122.978 79.2939C123.164 79.3775 123.349 79.4611 123.54 79.5472C125.784 80.7614 127.037 83.4988 127.918 85.778C128.435 87.8039 128.628 89.7513 128.618 91.8363C128.618 92.1038 128.619 92.3714 128.62 92.6471C128.62 93.2062 128.619 93.7653 128.616 94.3244C128.613 95.1814 128.616 96.0383 128.62 96.8953C128.62 97.441 128.619 97.9868 128.618 98.5326C128.619 98.7883 128.62 99.0439 128.622 99.3074C128.612 100.513 128.602 101.116 127.918 102.142C127.715 102.142 127.511 102.142 127.301 102.142C127.301 102.346 127.301 102.55 127.301 102.76C126.231 103.066 126.231 103.066 125.139 103.378C125.139 103.581 125.139 103.785 125.139 103.995C124.832 104.085 124.832 104.085 124.518 104.176C122.829 104.669 122.829 104.669 121.183 105.288C120.407 105.576 119.786 105.586 118.964 105.539C118.658 104.469 118.658 104.469 118.347 103.378C118.323 103.662 118.323 103.662 118.298 103.953C118.187 104.748 118.042 105.416 117.729 106.156C116.816 106.673 116.257 106.867 115.259 107.083C114.801 107.204 114.801 107.204 114.334 107.329C110.946 108.191 107.627 108.379 104.143 108.318C103.85 107.437 103.786 106.804 103.738 105.886C103.596 104.127 103.138 102.559 102.58 100.891C102.32 100.074 102.131 99.2801 101.982 98.4373C101.778 98.4373 101.575 98.4373 101.365 98.4373C101.269 98.1444 101.174 97.8514 101.075 97.5496C99.8732 94.7733 97.5646 92.8756 94.8806 91.6445C94.5152 91.4666 94.1498 91.2887 93.7733 91.1053C91.7144 90.1107 89.6659 89.2117 87.4702 88.5568C87.7108 87.4847 88.074 86.6871 88.7053 85.778C88.9091 85.778 89.1128 85.778 89.3228 85.778C89.3992 85.5742 89.4756 85.3704 89.5544 85.1604C89.9428 84.2282 90.3902 83.3507 90.8666 82.4612C91.7436 80.4811 91.9622 78.4659 92.1668 76.3401C92.2279 75.7784 92.3169 75.2198 92.4104 74.6624C93.6927 74.0213 95.3331 74.245 96.7331 74.3537Z" fill="white"/>
<path d="M44.8604 75.28C47.9349 75.8344 50.8306 75.7943 53.7567 74.6238C55.1944 74.2292 56.6553 74.189 58.1372 74.3537C59.0338 75.2503 58.9369 76.2532 59.0442 77.4606C59.3886 80.7015 60.1238 82.894 61.9594 85.6296C62.3865 86.2832 62.7468 86.9247 63.0775 87.6305C63.2813 87.6305 63.485 87.6305 63.695 87.6305C63.6106 88.2215 63.6106 88.2215 63.3862 88.8656C62.7714 89.0988 62.1521 89.3234 61.5204 89.506C60.1591 89.9322 58.8537 90.4874 57.5365 91.0328C56.0396 91.6445 56.0396 91.6445 55.3584 91.6445C55.3584 91.8483 55.3584 92.052 55.3584 92.262C55.1828 92.3448 55.0073 92.4276 54.8265 92.5129C52.9799 93.45 51.5782 94.5393 50.4181 96.2759C50.2002 96.9381 50.2002 96.9381 50.1094 97.511C49.9056 97.511 49.7018 97.511 49.4918 97.511C49.2857 98.1284 49.0799 98.746 48.8743 99.3636C48.776 99.6557 48.6777 99.9479 48.5764 100.249C47.7165 102.908 47.1788 105.569 46.713 108.318C44.3419 108.391 42.0891 108.111 39.7465 107.758C39.3821 107.707 39.0177 107.656 38.6423 107.603C36.6984 107.315 34.9066 107.011 33.1273 106.156C32.6642 105.172 32.6642 105.172 32.5098 104.304C32.306 104.813 32.1022 105.323 31.8923 105.848C28.6901 105.024 24.2421 103.79 22.3206 100.907C22.2564 100.128 22.2267 99.3842 22.2277 98.6049C22.2264 98.3766 22.2251 98.1483 22.2237 97.9131C22.2219 97.428 22.2218 96.9429 22.2231 96.4578C22.2241 95.7307 22.2169 95.0039 22.209 94.2768C22.1898 89.6945 22.6762 84.5023 25.717 80.8377C30.3542 76.3893 38.5771 72.4749 44.8604 75.28Z" fill="white"/>
<path d="M53.506 46.2561C53.8648 46.3743 53.8648 46.3743 54.2309 46.4949C57.7697 47.8555 60.2135 50.8596 61.7927 54.2167C62.4799 55.8524 62.628 57.3445 62.6145 59.1084C62.6128 59.3782 62.611 59.648 62.6092 59.9259C62.5117 63.5037 61.4127 66.8829 58.755 69.4134C58.5512 69.4134 58.3474 69.4134 58.1375 69.4134C57.9846 69.8719 57.9846 69.8719 57.8287 70.3397C57.1207 70.8029 57.1207 70.8029 56.227 71.266C55.9189 71.4264 55.6109 71.5868 55.2935 71.7521C55.0093 71.8973 54.7251 72.0426 54.4323 72.1923C54.0948 72.377 53.7573 72.5617 53.4095 72.7519C50.5764 74.0038 46.7501 73.7597 43.8499 72.84C41.2271 71.7841 39.1894 70.5336 37.5745 68.1832C37.1759 67.5592 37.1759 67.5592 36.6735 67.1423C34.5465 64.7858 34.4051 60.7124 34.5399 57.7154C34.6703 56.098 35.1417 54.7814 35.9064 53.3577C35.9992 53.1372 36.0919 52.9167 36.1875 52.6895C36.804 51.2642 37.5587 50.3955 38.783 49.4439C39.3095 49.0499 39.3095 49.0499 39.7371 48.5779C43.4793 45.0099 48.8815 44.7124 53.506 46.2561Z" fill="white"/>
<path d="M81.6375 63.0331C85.1331 65.0454 87.8795 67.9002 89.0141 71.8449C89.732 75.4162 89.753 79.4604 87.861 82.6734C87.2518 83.5399 86.6114 84.3527 85.9264 85.1604C85.7577 85.3673 85.5889 85.5743 85.415 85.7875C83.2589 88.1973 79.8081 89.7037 76.602 89.9064C73.6253 89.9871 71.2897 89.7324 68.6356 88.248C68.2523 88.0379 68.2523 88.0379 67.8613 87.8235C67.169 87.4182 67.169 87.4182 66.1655 86.7042C66.1655 86.5004 66.1655 86.2966 66.1655 86.0867C65.7579 85.8829 65.3504 85.6791 64.9305 85.4691C64.9305 85.2653 64.9305 85.0616 64.9305 84.8516C64.7267 84.8516 64.5229 84.8516 64.3129 84.8516C64.0168 84.3114 63.7209 83.771 63.4252 83.2306C63.2604 82.9297 63.0957 82.6288 62.9259 82.3188C62.7723 82.0338 62.6186 81.7488 62.4603 81.4552C62.3469 81.2622 62.2335 81.0691 62.1166 80.8702C60.8217 77.7957 61.1571 74.3473 62.1516 71.266C62.2192 71.0315 62.2869 70.7971 62.3566 70.5556C63.445 67.179 66.245 64.7182 69.3303 63.1223C69.7105 62.9423 70.0973 62.776 70.4882 62.6206C70.7569 62.5111 71.0255 62.4017 71.3023 62.2889C74.5656 61.3907 78.5757 61.6278 81.6375 63.0331ZM68.3269 62.9293C68.9444 63.2381 68.9444 63.2381 68.9444 63.2381L68.3269 62.9293ZM67.4006 63.5469C68.0181 63.8556 68.0181 63.8556 68.0181 63.8556L67.4006 63.5469Z" fill="white"/>
<path d="M108.466 46.5649C108.466 46.7686 108.466 46.9724 108.466 47.1824C108.772 47.2684 108.772 47.2684 109.084 47.3561C112.454 48.971 114.577 52.1372 115.876 55.519C117.03 58.9724 116.199 62.8754 114.641 66.017C114.535 66.2391 114.428 66.4612 114.318 66.69C112.745 69.6952 109.463 71.9708 106.279 73.0221C102.571 73.9842 98.6138 73.5656 95.2279 71.7677C92.107 69.8649 90.0048 67.1722 88.669 63.7531C87.8192 60.2223 87.836 55.6623 89.6315 52.4314C90.0302 52.0071 90.4422 51.5949 90.8666 51.1963C91.1903 50.8057 91.512 50.4133 91.8315 50.0192C96.1257 45.1644 102.52 44.315 108.466 46.5649Z" fill="white"/>
<path d="M80.6771 31.1266C80.9827 31.3304 81.2884 31.5342 81.6034 31.7441C81.6034 31.9479 81.6034 32.1517 81.6034 32.3617C81.8071 32.3617 82.0109 32.3617 82.2209 32.3617C84.4477 34.8854 85.4802 37.1067 85.4074 40.4764C85.1444 42.7092 84.3588 45.1972 82.8384 46.8736C79.7157 49.1825 77.1534 49.9835 73.2667 49.6525C70.4389 49.0607 68.1963 47.2077 66.5547 44.8763C65.165 42.2768 65.0388 39.1165 65.8287 36.2996C66.1136 35.5796 66.4158 34.8956 66.7827 34.2143C66.9865 34.2143 67.1903 34.2143 67.4002 34.2143C67.4834 34.0296 67.5666 33.8449 67.6523 33.6546C68.7079 31.7036 70.6458 30.7681 72.6842 30.1062C75.5403 29.4183 78.0068 29.9975 80.6771 31.1266Z" fill="white"/>
<path d="M45.1692 31.4354C47.2925 33.0408 48.8038 35.0211 49.4919 37.6107C49.9495 41.7473 49.9495 41.7473 48.5656 43.4772C47.6838 43.8544 46.8146 43.8193 45.8639 43.8053C45.6171 43.8025 45.3704 43.7997 45.1161 43.7969C44.9298 43.7933 44.7436 43.7897 44.5516 43.786C44.5516 43.9898 44.5516 44.1936 44.5516 44.4035C44.3387 44.4489 44.1258 44.4943 43.9064 44.541C41.3514 45.1508 39.1361 46.0516 37.5659 48.2438C36.8325 49.035 36.8325 49.035 35.8484 49.1701C33.9038 48.6925 32.2165 46.8874 31.1337 45.2792C30.8287 44.6874 30.5793 44.1012 30.3485 43.4772C30.2211 43.197 30.0938 42.9168 29.9625 42.6281C29.3634 40.0318 29.4147 36.9195 30.6573 34.5231C34.4489 29.9564 39.8373 28.2908 45.1692 31.4354Z" fill="white"/>
<path d="M116.803 31.4355C119.048 33.0813 120.598 35.1563 121.125 37.9195C121.44 40.7576 121.043 43.3605 119.392 45.7387C118.198 47.1707 116.908 48.6131 114.974 48.8252C113.821 48.7052 113.526 48.4279 112.731 47.607C109.589 44.6185 106.206 43.7408 101.982 43.4773C101.062 41.0189 100.954 38.4368 101.866 35.9511C103.151 33.1537 105.323 31.1999 108.198 30.1292C111.284 29.3011 114.052 29.8984 116.803 31.4355Z" fill="white"/>
<path d="M34.9802 50.27C34.8461 51.1814 34.6496 51.8565 34.2276 52.6822C32.636 55.929 32.4986 60.4662 33.4303 63.9388C34.2152 66.2066 35.2822 68.1166 36.8328 69.9537C36.9792 70.1304 37.1257 70.3071 37.2766 70.4892C37.808 71.0047 38.3196 71.2782 38.9941 71.5747C38.9229 72.1585 38.9229 72.1585 38.6853 72.8098C36.0367 74.2979 32.5263 73.9814 29.6817 73.3139C29.1137 73.1185 29.1137 73.1185 28.1874 72.501C27.9119 72.5125 27.6365 72.5241 27.3527 72.536C25.9904 72.4892 25.113 71.9807 23.9419 71.3238C23.7345 71.2138 23.5271 71.1037 23.3135 70.9903C22.3065 70.4404 21.7318 70.0737 21.0858 69.1046C21.0059 68.378 21.0059 68.378 21.0038 67.5234C21.0025 67.2107 21.0013 66.8979 21 66.5758C21.0028 66.2449 21.0057 65.914 21.0086 65.5731C21.0102 65.2376 21.0119 64.9022 21.0136 64.5566C21.0473 61.7114 21.2011 59.0941 22.3208 56.4453C22.5246 56.4453 22.7284 56.4453 22.9384 56.4453C23.0084 56.2224 23.0785 55.9995 23.1506 55.7698C24.2321 53.4524 26.8444 51.8593 29.1715 50.9454C31.1481 50.3298 32.9282 50.2289 34.9802 50.27Z" fill="white"/>
<path d="M115.877 50.27C118.992 50.1168 121.65 50.9848 124.522 52.1226C124.522 52.3264 124.522 52.5302 124.522 52.7401C124.764 52.8293 125.006 52.9184 125.255 53.0103C126.762 53.6561 127.7 55.0749 128.536 56.4453C129.636 59.3295 129.574 62.2907 129.52 65.3223C129.515 65.7814 129.511 66.2405 129.507 66.6996C129.497 67.8102 129.481 68.9205 129.462 70.0309C129.064 70.2383 128.665 70.4438 128.266 70.6485C128.044 70.7631 127.822 70.8777 127.593 70.9958C126.992 71.266 126.992 71.266 126.375 71.266C126.375 71.4698 126.375 71.6735 126.375 71.8835C125.07 72.3803 124.053 72.501 122.669 72.501C122.466 72.7048 122.262 72.9086 122.052 73.1186C118.547 74.0891 115.625 73.7915 112.171 72.8098C112.171 72.4022 112.171 71.9947 112.171 71.5747C112.924 70.9186 112.924 70.9186 113.715 70.3397C113.817 70.1359 113.919 69.9321 114.024 69.7222C114.228 69.7222 114.432 69.7222 114.642 69.7222C114.724 69.5554 114.807 69.3886 114.892 69.2168C115.159 68.6866 115.43 68.1586 115.703 67.632C115.942 67.1669 115.942 67.1669 116.185 66.6924C116.345 66.3847 116.504 66.0771 116.668 65.7601C117.626 63.6485 117.849 61.7608 117.845 59.475C117.845 59.1891 117.845 58.9032 117.845 58.6086C117.801 55.9739 117.363 53.734 115.877 51.5051C115.877 51.0975 115.877 50.6899 115.877 50.27Z" fill="white"/>
<path d="M72.1138 50.5788C73.1932 50.9736 74.1072 50.9694 75.2545 50.9648C75.6489 50.9664 76.0434 50.968 76.4497 50.9696C77.5705 50.9376 77.5705 50.9376 78.5074 50.574C80.5986 49.894 82.5781 50.3358 84.6525 50.849C84.8865 50.9027 85.1206 50.9565 85.3617 51.0118C87.0809 51.4248 87.0809 51.4248 87.7787 52.1226C87.7148 52.7474 87.7148 52.7474 87.5279 53.4735C87.4686 53.7115 87.4093 53.9495 87.3482 54.1947C87.2377 54.6122 87.1226 55.0285 86.997 55.4417C86.8115 56.3333 86.818 57.1701 86.8223 58.0808C86.8233 58.453 86.8243 58.8251 86.8253 59.2085C86.8279 59.5958 86.8305 59.9831 86.8331 60.3821C86.8345 60.7741 86.8359 61.1662 86.8374 61.5701C86.841 62.5378 86.8461 63.5055 86.8524 64.4732C86.6182 64.3235 86.384 64.1737 86.1427 64.0194C85.836 63.8237 85.5293 63.628 85.2133 63.4263C84.9091 63.232 84.6048 63.0376 84.2913 62.8374C83.4105 62.2832 82.5618 61.7934 81.6035 61.3856C81.4084 61.3 81.2134 61.2144 81.0125 61.1263C77.1982 59.7041 72.8089 60.1075 69.0659 61.5146C67.7064 62.1482 66.4812 62.9049 65.2619 63.7761C65.0505 63.9042 64.8392 64.0324 64.6214 64.1644C64.4176 64.0626 64.2139 63.9607 64.0039 63.8557C64.0298 63.4867 64.0556 63.1178 64.0823 62.7376C64.3017 59.4074 64.3227 56.6037 63.3864 53.3577C63.3478 52.4507 63.3478 52.4507 63.3864 51.8139C65.8847 50.7961 69.4728 49.4131 72.1138 50.5788Z" fill="white"/>
<path d="M98.261 26.5543C99.6947 27.8187 100.51 29.6672 100.892 31.5211C100.964 33.0533 100.448 34.3932 99.8205 35.7581C99.7059 36.0256 99.5912 36.2931 99.4731 36.5686C98.3962 37.9327 96.8313 38.9159 95.189 39.4633C93.0058 39.6724 91.0473 39.7756 89.2345 38.4188C87.6867 36.9592 86.556 35.429 86.2349 33.288C86.2846 29.8529 86.2846 29.8529 87.1612 28.3478C87.3649 28.3478 87.5687 28.3478 87.7787 28.3478C87.8487 28.1695 87.9188 27.9912 87.991 27.8075C88.9484 26.1661 90.4349 25.5559 92.2003 25.0792C94.312 24.7529 96.4522 25.4716 98.261 26.5543Z" fill="white"/>
<path d="M61.967 26.3939C63.7906 27.9098 64.7816 29.8118 65.0462 32.1494C64.8306 34.2697 63.7995 36.2741 62.4603 37.9194C60.4991 39.3525 58.647 39.624 56.285 39.4633C53.9167 38.906 52.3698 37.6588 51.0988 35.6218C50.2398 33.7951 50.2023 31.8965 50.7466 29.9688C51.5028 28.042 52.8379 26.4299 54.7412 25.5689C57.2437 24.6782 59.6962 24.9551 61.967 26.3939Z" fill="white"/>
<path d="M53.9884 39.7335C54.2944 39.7327 54.6005 39.7319 54.9159 39.7311C55.6673 39.7721 55.6673 39.7721 55.976 40.0809C56.535 40.1114 57.0952 40.1209 57.6549 40.1194C57.9602 40.1202 58.2655 40.121 58.58 40.1219C59.3691 40.134 59.3691 40.134 59.99 39.7721C60.6256 39.7094 60.6256 39.7094 61.3601 39.6949C61.6017 39.6869 61.8433 39.679 62.0922 39.6708C62.7689 39.7721 62.7689 39.7721 63.2995 40.1484C63.7862 40.825 63.8919 41.3441 64.0232 42.165C64.2494 43.4613 64.5473 44.6891 64.9302 45.9474C65.134 45.9474 65.3378 45.9474 65.5477 45.9474C66.3318 47.0028 66.5863 47.7252 66.474 49.035C66.0501 49.1848 65.6254 49.3323 65.2004 49.4789C64.964 49.5613 64.7275 49.6436 64.4839 49.7285C64.2236 49.8053 63.9633 49.8822 63.6951 49.9613C63.3935 50.0572 63.0918 50.1532 62.7809 50.252C61.8426 50.2701 61.8426 50.2701 61.0031 49.5657C60.7131 49.2377 60.4271 48.9062 60.1444 48.5719C58.0409 46.277 55.6987 44.9046 52.6629 44.0972C51.7123 43.8042 51.3219 43.6295 50.7271 42.8597C50.8657 42.4021 51.0079 41.9456 51.1516 41.4896C51.2304 41.2353 51.3092 40.9809 51.3904 40.7189C51.8889 39.5093 52.8178 39.7304 53.9884 39.7335Z" fill="white"/>
<path d="M89.4771 39.7335C89.8449 39.7323 89.8449 39.7323 90.2201 39.7311C90.8665 39.7721 90.8665 39.7721 91.4841 40.0809C91.998 40.1104 92.5131 40.1209 93.0279 40.1194C93.4386 40.1206 93.4386 40.1206 93.8577 40.1219C94.58 40.1276 94.58 40.1276 95.1892 39.7721C95.6967 39.7425 96.2054 39.732 96.7138 39.7335C96.984 39.7327 97.2543 39.7319 97.5327 39.7311C98.2769 39.7721 98.2769 39.7721 99.2032 40.0809C99.6591 41.1585 99.5341 42.3269 99.5119 43.4773C99.2616 43.5636 99.0112 43.65 98.7533 43.739C94.9874 45.1024 91.4436 46.9993 89.014 50.2701C87.2353 50.0828 85.704 49.4189 84.0737 48.7262C84.2684 47.6896 84.6645 47.0103 85.2509 46.1403C86.2781 44.4924 86.7444 42.8239 87.2048 40.948C87.2924 40.6619 87.3799 40.3757 87.4701 40.0809C88.2007 39.7156 88.6644 39.7309 89.4771 39.7335Z" fill="white"/>
</g>
<defs>
<clipPath id="clip0_10435_17976">
<rect width="150" height="150" fill="white"/>
</clipPath>
</defs>
</svg>
