<svg width="150" height="150" viewBox="0 0 150 150" fill="none" xmlns="http://www.w3.org/2000/svg">
<rect width="150" height="150" fill="#FAFAFA"/>
<path d="M75 130C105.376 130 130 105.376 130 75C130 44.6243 105.376 20 75 20C44.6243 20 20 44.6243 20 75C20 105.376 44.6243 130 75 130Z" fill="#FF6900"/>
<path d="M117.609 83.579C116.865 83.579 116.139 83.7995 115.52 84.2126C114.902 84.6256 114.42 85.2128 114.136 85.8997C113.851 86.5867 113.777 87.3425 113.922 88.0718C114.067 88.8011 114.425 89.4709 114.951 89.9967C115.476 90.5224 116.146 90.8805 116.876 91.0255C117.605 91.1706 118.361 91.0961 119.048 90.8116C119.735 90.5271 120.322 90.0452 120.735 89.427C121.148 88.8088 121.368 88.0819 121.368 87.3384C121.368 86.3413 120.972 85.3851 120.267 84.6801C119.562 83.9751 118.606 83.579 117.609 83.579Z" fill="white"/>
<path d="M33.0902 91.0301C35.1499 91.0301 36.8195 89.3604 36.8195 87.3007C36.8195 85.2411 35.1499 83.5714 33.0902 83.5714C31.0306 83.5714 29.3609 85.2411 29.3609 87.3007C29.3609 89.3604 31.0306 91.0301 33.0902 91.0301Z" fill="white"/>
<path d="M117.865 80.594C115.421 63.8947 106.263 51.4812 95.3083 51.4812C87.9925 51.4812 80.376 57.0376 75.3459 65.7143C70.3384 57.0376 62.7218 51.4812 55.3835 51.4812C44.4512 51.4812 35.3008 63.8947 32.8271 80.594H32.782L33.8196 80.7669C36.406 74.2481 40.8722 69.9248 45.985 69.9248C53.1504 69.9248 59.0903 78.4361 60.1429 89.5489V89.594C61.0075 91.4511 66.8121 92.9023 73.7444 93.3083L75.3534 93.3835C82.9775 93.1203 89.6391 91.5865 90.5414 89.6241V89.5789C91.6015 78.4662 97.5339 69.9549 104.707 69.9549C109.82 69.9549 114.301 74.2857 116.842 80.797L117.88 80.6241L117.865 80.594Z" fill="white"/>
<path d="M95.2557 89.3384H95V87.4136H94.3008V87.188H95.9098V87.4136H95.2331L95.2557 89.3384Z" fill="white"/>
<path d="M97.203 89.3384L96.4511 87.4361C96.4511 87.5865 96.4511 87.7669 96.4511 87.9699V89.3384H96.218V87.188H96.594L97.2706 88.9624L97.9549 87.188H98.3308V89.3384H98.0827V87.9549C98.0827 87.797 98.0827 87.6241 98.0827 87.4361L97.3308 89.3384H97.203Z" fill="white"/>
</svg>
