<svg width="150" height="150" viewBox="0 0 150 150" fill="none" xmlns="http://www.w3.org/2000/svg">
<rect width="150" height="150" fill="#222222"/>
<circle cx="75" cy="75" r="75" fill="#F5F7FB"/>
<path d="M75.0798 141.212C112.229 141.212 142.412 111.551 142.412 75.0443C142.412 38.538 112.229 8.87664 75.0798 8.87664C37.931 8.87664 7.7476 38.538 7.7476 75.0443C7.7476 111.551 37.931 141.212 75.0798 141.212ZM75.0798 145.775C35.3512 145.775 3.104 114.086 3.104 75.0443C3.104 36.0029 35.3512 4.31335 75.0798 4.31335C114.808 4.31335 147.056 36.0029 147.056 75.0443C147.056 114.086 114.808 145.775 75.0798 145.775Z" fill="black"/>
<path d="M85.4076 48.7294L75.9914 48.4125C77.0878 51.2012 77.6037 53.9898 77.6037 56.8419C77.6037 63.8136 75.024 69.6445 69.7999 74.2711C64.5759 78.8978 58.2554 81.2428 50.7095 81.2428H47.7428C43.8086 81.2428 40.6484 81.7498 38.3266 82.7639C36.0048 83.778 34.8439 84.9822 34.8439 86.3131C34.8439 88.0244 35.8113 89.4187 37.7462 90.4961C39.681 91.5736 42.3898 92.144 45.808 92.2074L62.9635 92.3975C70.3804 92.5243 76.1204 94.0454 80.248 96.9608C84.3757 99.8762 86.4395 103.932 86.4395 109.066C86.4395 116.925 82.1184 123.77 73.4116 129.601C64.7048 135.432 54.3857 138.411 42.5188 138.411C34.7149 138.411 28.1365 136.573 22.7834 132.833C17.4304 129.094 14.7861 124.594 14.7861 119.27C14.7861 115.721 16.463 112.172 19.8812 108.813C23.2994 105.39 27.2981 102.918 31.8772 101.334C28.7814 100.003 26.3306 98.0382 24.3958 95.5665C22.461 93.0947 21.4936 90.5595 21.4936 88.0877C21.4936 86.3131 23.2994 84.4751 26.9756 82.5104C30.5873 80.5456 34.3924 79.2147 38.3266 78.5175C34.07 76.4894 30.7808 73.7641 28.3945 70.405C26.0082 67.0459 24.8473 63.2432 24.8473 59.0602C24.8473 52.4054 27.4915 46.5745 32.7156 41.5676C38.0041 36.5606 44.2601 34.0888 51.4835 34.0888C55.3531 34.0888 59.1583 34.7226 62.8345 36.0536C66.5752 37.3846 69.6709 39.1592 72.0572 41.3774L85.4721 40.9338C86.762 40.9338 87.4069 42.2647 87.4069 44.8633C87.4069 47.4618 86.762 48.7928 85.4721 48.7928L85.4076 48.7294ZM27.1691 116.038C27.1691 120.791 29.2329 124.721 33.3605 127.636C37.4882 130.615 42.7122 132.073 49.0327 132.073C56.643 132.073 63.286 130.362 68.8325 127.002C74.4435 123.643 77.2168 119.46 77.2168 114.517C77.2168 111.158 76.1204 108.813 73.8631 107.355C71.6058 105.897 67.8651 105.137 62.5765 105.01L45.3565 104.63C41.9383 104.63 38.9071 104.123 36.3273 103.172C30.2648 106.404 27.2981 110.651 27.2981 115.911L27.1691 116.038ZM60.8352 43.0887C58.9003 40.1732 55.7401 38.7155 51.4835 38.7155C43.2927 38.7155 39.2295 45.4971 39.2295 59.0602C39.2295 65.2079 40.1969 69.7078 42.0673 72.4331C43.9376 75.2218 47.0979 76.6161 51.4835 76.6161C59.6743 76.6161 63.7374 69.9614 63.7374 56.7151C63.7374 50.504 62.77 45.9407 60.8352 43.0887ZM136.165 46.2576C134.939 47.5886 133.456 48.2857 131.779 48.2857C129.586 48.2857 127.458 47.5886 125.33 46.1942C123.653 45.0534 122.169 44.5464 120.944 44.5464C117.719 44.5464 114.43 46.3844 111.012 50.0603V82.7639C111.012 86.9469 111.721 89.9257 113.269 91.5736C114.753 93.2214 117.913 94.3623 122.75 94.9961C123.524 95.1228 123.911 95.7566 123.911 96.9608C123.911 98.2918 123.524 98.9889 122.75 98.9889C120.751 98.9889 117.848 98.8622 114.172 98.5453C110.044 98.2284 106.82 98.1016 104.433 98.1016C102.047 98.1016 99.0159 98.2284 95.4687 98.5453C92.3085 98.8622 89.7287 98.9889 87.6649 98.9889C86.8909 98.9889 86.504 98.2918 86.504 96.9608C86.504 95.7566 86.8909 95.1228 87.6649 94.9961C91.986 94.489 94.7593 93.475 95.9202 92.0172C97.1456 90.5595 97.726 87.454 97.726 82.7639V55.9546C97.726 52.0885 97.2101 49.5533 96.1781 48.3491C95.1462 47.1449 92.8889 46.321 89.4062 45.9407C88.6323 45.9407 88.2453 45.3069 88.2453 44.0393C88.2453 42.8351 88.6323 42.2647 89.4062 42.2647C94.3078 41.0605 98.371 39.7296 101.531 38.2085C104.691 36.7508 106.82 35.4832 107.787 34.4057C108.368 33.8353 108.948 33.5184 109.529 33.5184C110.883 33.5184 111.592 33.8987 111.592 34.6593L111.012 43.7858C114.946 40.1732 118.364 37.7014 121.202 36.2437C124.04 34.786 126.878 34.0888 129.715 34.0888C131.973 34.0888 133.972 34.786 135.584 36.2437C137.197 37.7014 138.035 39.4127 138.035 41.314C138.035 43.2154 137.455 44.9267 136.229 46.2576H136.165Z" fill="black"/>
</svg>
