<svg width="150" height="150" viewBox="0 0 150 150" fill="none" xmlns="http://www.w3.org/2000/svg">
<rect width="150" height="150" fill="#714950"/>
<path d="M36 19V23.3077C36 25.6803 37.9466 27.6154 40.3333 27.6154H44.6667V31.9231C44.6667 34.2957 46.6133 36.2308 49 36.2308H49.4062C50.1849 62.3798 67.9583 70.8101 67.9583 75C67.9583 79.1394 50.2018 87.5865 49.4062 113.769H49C46.6133 113.769 44.6667 115.704 44.6667 118.077V122.385H40.3333C37.9466 122.385 36 124.32 36 126.692V131H114V126.692C114 124.32 112.053 122.385 109.667 122.385H105.333V118.077C105.333 115.704 103.387 113.769 101 113.769H100.594C99.7982 87.6202 81.7708 79.1899 81.7708 75C81.7708 70.8606 99.7982 62.4135 100.594 36.2308H101C103.387 36.2308 105.333 34.2957 105.333 31.9231V27.6154H109.667C112.053 27.6154 114 25.6803 114 23.3077V19H36ZM53.7396 36.2308H96.2604C95.6849 53.0913 87.4075 61.8245 82.3125 67.0577C79.4857 69.9687 77.4375 72.0721 77.4375 75C77.4375 77.9615 79.4687 80.1322 82.3125 83.0769C87.3906 88.3101 95.6849 96.9591 96.2604 113.769H91.1146C91.1654 113.584 91.25 113.433 91.25 113.231C91.25 103.993 75 96.9423 75 96.9423C75 96.9423 58.75 102.563 58.75 113.365C58.75 113.517 58.8516 113.635 58.8854 113.769H53.7396C54.3151 96.8918 62.5247 88.1755 67.5521 82.9423C70.345 80.0312 72.2917 77.9111 72.2917 75C72.2917 72.0721 70.362 69.9856 67.5521 67.0577C62.5417 61.8245 54.2982 53.0577 53.7396 36.2308ZM75 53.4615C69.8711 53.4615 64.8438 54.0841 64.8438 56.4231C64.8438 62.2115 75 68 75 68C75 68 85.1562 63.0697 85.1562 56.2885C85.1562 53.9327 80.1289 53.4615 75 53.4615Z" fill="#D9D9D9"/>
</svg>
