<svg width="150" height="150" viewBox="0 0 150 150" fill="none" xmlns="http://www.w3.org/2000/svg">
<rect width="150" height="150" fill="#524C49"/>
<path d="M75.0412 15.001C73.3009 15.0107 71.5595 15.0973 69.8263 15.2578C65.2143 15.6849 60.654 16.6513 56.2522 18.1607C38.5713 23.6959 24.0816 38.1977 18.2785 55.8466C11.94 73.7867 14.9452 94.5731 25.9698 110.025C36.4673 125.475 54.5337 135.324 73.284 135.879H73.2943C93.1228 136.694 112.838 127.386 124.431 111.376C124.436 111.371 124.441 111.366 124.446 111.361C131.876 100.905 135.981 88.048 135.981 75.3755C135.981 55.8238 126.143 36.3871 109.562 25.59C99.4282 18.5428 87.2232 14.9327 75.0412 15.001ZM78.1085 22.7642H83.3696L91.2613 25.3948V30.6559L83.3696 25.3948L78.1085 22.7642ZM56.2522 23.725L59.6945 25.6568L70.2168 25.3948L74.4246 27.5013L74.9538 26.186L78.1085 28.2874L77.8464 29.0786L80.739 30.6559L83.3696 33.2865L86.0002 35.917L91.2613 41.1782L83.3696 46.4393L72.8473 56.9616L74.1626 59.5921L70.2168 56.9616H67.5862L59.6945 59.5921V72.7449H62.3251L67.5862 70.1144V75.3755H72.8473V78.0061L78.1085 80.6366L83.3696 78.0061L93.8919 77.744L96.5224 80.6366L101.784 83.2672L104.414 85.8978L113.621 88.5283L114.936 93.7895L112.306 99.0506L109.675 106.942L104.414 109.573L81.0011 127.987L82.9534 130.15C82.8151 130.169 82.6758 130.184 82.5373 130.201L78.1085 127.987L86.0002 106.942L84.1608 104.312L78.1085 101.681L75.4779 93.7895V88.5283L78.1085 85.8978V82.476L72.8473 80.6366L70.2168 78.0061L57.0639 72.7449L51.8028 70.1144L46.5417 54.331V43.8087L49.1722 38.5476V30.6559L45.6682 28.9039C48.9966 26.7741 52.5454 25.0274 56.2522 23.725ZM122.849 47.0558C127.908 55.5846 130.72 65.4937 130.72 75.3755L125.459 64.8532L123.09 51.7004L122.849 47.0558ZM78.1085 67.4838L86.0002 70.1144L84.6849 71.4297L76.2691 68.0079L78.1085 67.4838Z" fill="#D9D9D9"/>
</svg>
