<?xml version="1.0" encoding="utf-8"?>
<!-- Generator: Adobe Illustrator 26.0.1, SVG Export Plug-In . SVG Version: 6.00 Build 0)  -->
<svg version="1.1" id="Layer_1" xmlns="http://www.w3.org/2000/svg" xmlns:xlink="http://www.w3.org/1999/xlink" x="0px" y="0px"
	 viewBox="0 0 1000 536.7" style="enable-background:new 0 0 1000 536.7;" xml:space="preserve">
<style type="text/css">
	.st0{fill:#ACADAC;}
	.st1{fill:#484848;}
</style>
<g id="Layer_1_00000013898545121094190960000009331308490617637272_">
	<path class="st0" d="M974.8,401.8c-4.4-1.7-5-2.9-3.8-7.7c1-4.8,0.2-6.1-4.2-8.4l-5.2-2.9l7.3-0.2c6,0,7.1-0.6,7.1-4.2v-4
		l-66.2,1.2l-66.2,1.2v-4.4c0-2.5-3.1-52.7-6.7-111.6c-3.6-59.1-8.4-137.5-10.7-174.3c-2.3-37-4.2-67.3-4.4-67.3
		c-0.6-0.6-628.6-4.6-713-4.6H15.2v9c0,5.2-1.3,37.2-2.9,71.5c-1.3,34.1-2.5,62.3-2.3,62.7c0.2,0.2,9.4-5.4,20.5-12.3
		c15.3-9.4,25.9-18,44.1-36c13.2-13,26.3-24.7,29.1-25.7c4-1.5,7.1-1.1,14,1.9l8.8,4l16.7-15.2c14.4-13.2,20.5-21.1,25.9-34.1
		c1.7-4,6.1,3.3,6.1,10v6.9l17.3,6.3c21.3,7.9,40.5,9,46,2.7c2.7-3.1,2.9-4.2,1-6.7c-1.9-2.3-1.5-3.1,3.1-4.8c4-1.5,4.6-2.7,3.1-4.2
		c-4.2-4.2-2.5-5,14-6.3c16.3-1.3,16.7-1.5,27.2-10.7c7.1-6.1,12.5-9.4,15.7-9.4s11.9,5.4,24,14.4L345.8,53l11.9-1.1
		c10.5-1.2,12.1-0.8,14,2.7c1.7,3.1,1.3,4.2-2.1,6.5c-3.3,2.1-3.8,3.8-2.7,8c1,4,2.1,5,5,4c2.7-0.8,3.6,0,4.2,3.3
		c0.4,3.3,2.1,4.6,5.9,5c5.8,0.8,6.5,3.3,2.3,8.8c-4,5.2-3.6,6.1,2.9,10.2c5.2,3.1,5.8,4.2,5.8,13v9.6l18.8,7.5
		c21.1,8.4,39.7,20.9,42.2,28c1.3,3.8,0.6,6.3-4,12.8l-5.8,8.2l6.5,10l6.7,10l19,5l19.2,5l5,9.4c4.4,8,6.9,10,19,15.5l13.8,6.5
		l7.3-8.2l7.3-8l5.2,4.8c2.9,2.7,9.6,9.8,14.8,15.9l9.6,10.9L564.9,268l-12.7,11.7l1.2,12.1l1.1,11.9l-10.2,5.6
		c-8.4,4.6-10.5,6.9-12.7,13.4c-1.9,6-4.2,8.6-8.4,10.4c-4.6,1.9-5.6,3.5-4.8,6.5c0.8,3.3-0.4,4.6-6,6.9c-6.1,2.7-7.3,4-10.2,15.1
		c-3.3,11.5-3.3,12.9-0.2,23.6c1.7,6.1,3.8,11.3,4.6,11.3c0.8-0.2,4.8-0.2,9.2-0.2c7.5,0,7.9-0.2,12.7-10.9l4.8-11.1l3.3,6.3
		l3.3,6.3l3.6-7.7c1.9-4.4,4.2-7.9,5-7.9s8.4,11.5,17.1,25.7c14.8,24.5,20.7,31.1,25.1,26.7c1-1,0-6.9-2.1-13.8
		c-2.1-6.5-3.8-13-3.8-14.2c0-4.2,11.5,9,13.6,15.7c1.1,3.8,3.8,11.1,5.8,16.5l3.6,9.6l15.9-0.6l16.1-0.8l11.3,15.5
		c6.1,8.4,11.9,15.3,12.8,15.5c0.8,0,1.3-1.7,1.3-3.8c0-3.6,0.2-3.8,4.6-0.8l4.8,3.1l0.6-9.4c0.8-10,1.2-9.6,7.3,7.7
		c3.6,9.6,5.6,11.9,15.7,18.8l11.5,7.9l-1-5.4c-0.6-3.1-1.7-10-2.3-15.1c-0.8-5.8-3.8-14-7.9-20.3c-5.2-8.6-6.5-12.8-6.5-20.7v-9.8
		h-8.4c-7.9,0-8.8-0.6-13.8-8.4c-3.5-5.4-9.6-10.9-17.1-15.5c-11.5-7.1-11.9-7.5-18.8-25.7c-6.1-15.7-7.1-20.5-6.9-32.8l0.2-14.4
		l4.6,22l4.6,22.1l20.9,20.9l20.7,20.7l7.9-1.3l7.7-1.1l-1-8.1c-0.8-5.9-4.6-12.8-14.2-26.3L665.3,353v-24.5c0-23.4-0.2-24.9-5-31.1
		l-5-6.5l8-11.5l7.9-11.7h-5.9c-5.8,0-6.9-1.2-8-8.4c-0.4-2.5,1.1-4.2,5.2-5.6c3.3-1,6.1-2.1,6.5-2.5s-1.9-4.2-5.4-8.4
		c-6.7-8.2-5.8-9.2,5-4.8c3.8,1.5,7.1,2.7,7.5,2.3c0.4-0.2-5-7.7-11.9-16.5c-11.7-14.8-14.2-21.5-8.1-21.1c1.3,0,6.1,4.8,10.7,10.5
		c4.6,5.8,8.8,10.4,9.6,10.4s3.3-1.7,5.8-3.5l4.6-3.5l-10.7-8.4c-5.9-4.4-10.5-8.4-10.2-8.8c0.2-0.4,4.6,0.6,9.6,2.1s9,2.3,9,1.7
		s-1.7-7.1-4-14.4c-3.6-11.7-4.4-13-8-12.3c-3.3,1-7.3-1.9-18.4-13.2c-13.2-13.2-13.8-14.4-10.2-16.3c5.8-3.1,6.7-2.9,22.1,6.5
		c7.9,4.8,15.1,8.6,16.1,8.6c1.2,0,3.3-1.5,5.2-3.6c3.1-3.3,2.9-3.6-2.7-6c-3.8-1.5-7.5-5.4-10-10.4l-3.8-7.9l7.1,6.7
		c4,3.6,6.9,5.4,6.3,3.8c-4-11.7-4-11.5,3.1-11.5c5,0,7.7-1.3,10.7-5.2c4.6-5.9,4.8-5.6-7.9-14.4c-4.6-3.5-4.6-3.5,5.9-2.9l10.5,0.4
		l4,11.1c3.8,11.1,3.8,11.1,7.5,7.1c3.1-3.3,3.1-4.6,1.1-9c-1.9-4-1.9-7.7,0-17.3c1.3-6.7,3.1-12.1,3.6-12.1c0.8,0,2.3,5.8,3.5,12.7
		c1.1,7.1,2.5,13.2,3.1,13.6c0.6,0.6,7.7-4.8,16.1-11.9l15.2-13l-6-5.2l-5.8-5.4l4.4-9.8c4.6-9.6,4.8-9.8,13.2-9.8
		c6.3,0,10.4-1.3,15.1-5l6.3-4.8l-3.8,9.6c-1.9,5.2-5,12.8-6.7,16.7c-1.5,3.8-2.7,7.3-2.3,7.7c0.4,0.4,7.9-5.8,16.7-13.4
		c9-7.9,16.7-14,16.9-13.6c0.4,0.4-1.5,4.4-4.2,9l-5,8.4l4.8,6.5c2.7,3.6,4.8,6.9,4.8,7.3c0,0.6-9.2-1-15.7-2.7
		c-2.1-0.6-5.9,2.7-11.9,10.5l-8.8,11.3l16.7,3.1c9,1.7,16.9,3.5,17.3,3.6c0.4,0.4-12.5,1.3-28.6,2.1l-29.2,1.3l-5.9,6.9
		c-3.1,4-10.2,17.3-15.7,29.5l-10,22.6l4.6,13.4c6.5,19.2,6.9,19.4,11.3,6.9l4-11.3l10.5-2.3c5.8-1.3,11.3-2.5,12.5-2.7
		c1,0-3.6,5.4-10.2,12.1c-10.7,10.9-11.9,12.7-11.9,20.1v8h-8.6c-5,0-12.1-1.7-16.1-3.6l-7.3-3.8l-3.3,19c-3.8,23.2-3.8,22.2,0,23.8
		c2.7,1,2.9,0.2,1.9-5.4c-1.2-6-0.6-7.1,7.7-14.4c5-4.4,9.8-7.9,10.9-7.9c1,0,4.8,1.7,8.2,4c4.4,2.7,6.5,5.4,6.5,8.6
		c0,3.3,0.8,4.2,2.9,3.5c1.5-0.8,2.9-0.2,2.9,1.2c0,1.1,1.9,3.8,4.2,5.8l4.2,3.5l-7.3,8c-6.9,7.7-7.1,8.2-3.8,11.7
		c3.1,3.4,3.5,3.4,6.9,0.4c4.4-4,5.9-2.5,3.6,4c-3.3,8.2-11.9,6.9-24.6-3.8c-5.8-5-11.1-8.2-11.9-7.3c-2.5,2.9-14,37.4-12.9,38.5
		c2.9,3.1,6.9-2.3,9.4-13.2c2.9-11.9,2.9-11.9,3.1-4l0.2,8.2l6.5-7.3l6.5-7.1l1.3,7.7c0.8,4.2,1.7,9.4,2.3,11.3
		c1,3.3,1.1,3.5,2.9,0.6c2.7-4.8,4.8-3.8,6.1,2.7c1,5.4,1.7,6,6.3,4.6c5-1.1,5.2-1.1,1.9,2.5c-4.4,5-4.2,5.6,2.5,4.6
		c4.8-0.6,5.9,0,7.5,4c1.1,2.9,4.8,6.5,8.2,8.2l6.1,3.3l5.9-7.1c6.9-8.2,8.4-8.6,7.1-1.9c-1,5-14,16.1-19,16.1
		c-1.3,0-7.7-1.3-14-3.3c-10-2.7-11.5-3.6-11.5-7.9c0-4.6-0.2-4.6-11.9-3.3c-6.7,0.8-12.5,1.7-12.8,2.1c-0.4,0.4,0.6,2.3,2.5,4.4
		c2.9,3.1,2.9,3.6,0.2,5.9c-5.2,4.4-3.1,5.6,4.8,2.9c12.8-4.6,15-1.7,5.9,7.5c-5,5.2-8,10.3-9,15.3c-1.3,7.5-1.3,7.5-4.4,3.3
		l-3.3-4.2l-3.6,4c-3.8,4.2-3.8,4.2,6.7,24.2c10.4,20.1,13.4,22.1,13.4,9c0-3.3,0.8-6.5,1.5-7.1c1-0.6,10.2,9,20.7,21.3l19,22.2
		l1-12.5c1-12.9,4.8-20.9,11.5-24.5c5.8-3.1,5.2,3.8-1,9.6c-2.7,2.5-4.8,5-4.8,5.6s2.1,4.4,4.6,8.6l4.4,7.5l11.3-21.3
		c6.1-11.7,11.3-21.1,11.7-20.9c0.2,0.4-1.7,8.6-4.2,18.6c-2.5,9.8-4.2,18.6-3.6,19.6c0.6,1,4.6,3.5,9,5.8l8.1,4l-12.1,5.9
		c-10.2,5-12.1,6.7-13,12.3c-0.8,3.5-0.8,6.7-0.2,7.5c0.6,0.6,6.7,0,13.4-1.1c6.7-1.2,14.4-2.1,17.3-2.1c5,0,4.8,0.2-3.1,7.9
		c-7.1,6.9-7.5,7.7-3.3,6.7c17.6-4.4,17.5-5,5,9.6c-6.3,7.3-13.2,15.3-15.3,17.8l-4,4.4l4.6-1.3c4.2-1.3,4.4-1,3.8,7.3l-0.8,8.8
		l8-4.6c6.7-4,10.4-4.8,24.2-4.8c14.8,0,16.3-0.4,18-4.4c1.7-3.8,5.2-4.8,29-8.8l27-4.6l3.1-9c2.5-7.5,4.2-9.6,11.3-12.9l8.2-4
		l3.5-17.6c2.5-12.5,4.4-17.8,6.9-19.2c5-2.9,8-2.3,6.7,1c-1.3,3.5,1,3.6,5,0.4c2.7-2.1,16.9-26.5,16.9-29
		C979.8,404.1,977.5,402.8,974.8,401.8z M578.3,167.5l7.3,42.4l-38.1-20l-38.1,20l7.3-42.4l-30.8-30l42.6-6.2l19-38.6l19,38.6
		l42.6,6.2L578.3,167.5z"/>
</g>
<g id="Layer_2_00000019665057137413303070000001207107282235474579_">
	<polygon class="st1" points="578.3,167.5 585.5,210 547.5,189.9 509.4,210 516.6,167.5 485.8,137.5 528.4,131.3 547.5,92.7 
		566.5,131.3 609.1,137.5 	"/>
</g>
</svg>
