<svg width="800" height="800" viewBox="0 0 800 800" fill="none" xmlns="http://www.w3.org/2000/svg">
<path d="M316.195 258.515C301.505 260.402 287.999 258.676 276.159 249.418C270.633 256.127 268.379 263.981 267.322 272.396C266.171 281.54 267.382 290.35 270.158 299.04C270.426 299.883 270.861 300.806 270.734 301.615C270.546 302.799 269.918 303.917 269.483 305.067C268.399 304.586 266.894 304.412 266.299 303.582C261.047 296.25 257.087 288.357 256.545 278.303C255.435 279.701 254.625 280.631 253.923 281.621C250.304 286.705 246.759 291.835 243.059 296.859C242.451 297.682 241.193 298.023 240.23 298.585C239.708 297.374 238.537 296.023 238.765 294.966C242.263 278.39 248.752 263.144 259.522 249.906C262.185 246.635 264.947 243.457 267.864 240.012C262.947 236.487 258.846 232.232 257.816 226.292C256.739 220.084 256.405 213.729 256.077 207.421C256.003 205.95 257.047 204.271 257.95 202.939C258.94 201.488 260.271 200.23 261.609 199.059C268.346 193.126 273.791 186.463 277.871 178.215C283.551 166.729 294.381 160.542 306.362 157.859C323.36 154.053 340.665 151.591 357.87 148.761C361.349 148.186 364.995 148.333 368.547 148.514C379.257 149.049 389.793 148.581 400.415 146.467C414.53 143.664 428.953 143.865 443.328 144.166C457.396 144.46 470.681 147.952 483.264 153.919C504.323 163.906 520.056 179.219 528.445 201.32C533.535 214.719 534.285 228.64 532.586 242.775C529.609 267.499 516.819 287.407 501.353 305.897C483.498 327.249 462.132 344.776 439.736 361.071C424.584 372.096 409.433 383.146 396.622 396.913C389.813 404.225 383.009 411.724 377.464 419.985C366.814 435.846 367.911 452.249 377.591 468.357C385.725 481.896 398.509 489.382 412.724 494.619C421.781 497.958 431.401 499.797 440.445 503.162C445.797 505.155 450.64 504.54 455.296 502.553C469.009 496.7 481.191 488.679 489.599 475.909C492.676 471.24 492.429 470.223 487.78 467.166C480.461 462.35 472.28 460.43 463.698 460.236C447.489 459.861 431.475 461.674 415.621 464.992C408.108 466.564 400.583 468.096 393.024 469.447C387.659 470.404 382.193 466.417 381.116 460.557C379.772 453.225 378.534 445.847 377.905 438.428C377.685 435.826 379.257 432.983 380.347 430.394C380.735 429.484 382.514 428.233 382.989 428.468C384.113 429.029 385.364 430.274 385.625 431.451C386.949 437.532 387.98 443.679 389.11 449.8C389.632 452.63 390.16 455.466 390.676 458.249C395.458 458.931 397.171 457.634 396.428 453.285C394.542 442.241 392.569 431.204 390.154 420.273C389.438 417.022 390.936 415.296 392.796 413.771C393.405 413.269 396.362 414.206 396.763 415.129C398.716 419.664 400.609 424.313 401.706 429.103C403.493 436.876 404.683 444.79 406.048 452.657C406.436 454.898 407.58 455.567 409.747 455.179C411.861 454.797 413.614 454.456 413.192 451.546C411.901 442.636 410.764 433.699 409.567 424.768C408.831 419.276 408.088 413.784 407.259 407.617C410.115 406.693 413.279 405.677 416.644 404.593C417.527 412.667 418.223 419.952 419.153 427.21C420.056 434.254 421.119 441.285 422.276 448.288C422.939 452.282 423.461 452.483 427.374 451.466C427.902 451.325 428.431 451.185 429.434 450.924C429.06 444.663 428.611 438.368 428.33 432.06C427.929 423.056 427.615 414.045 427.367 405.034C427.347 404.412 428.143 403.295 428.685 403.215C431.615 402.78 434.578 402.606 437.856 402.312C437.856 405.79 438.09 408.78 437.816 411.731C436.759 423.083 436.632 434.381 438.659 445.659C439.575 450.77 439.816 451.031 445.629 449.666C445.629 447.713 445.556 445.746 445.643 443.786C446.211 431.224 446.82 418.661 447.402 406.098C447.543 403.054 449.195 401.89 452.152 401.783C459.122 401.529 459.149 401.629 457.336 408.352C454.232 419.892 453.884 431.672 454.948 443.492C455.423 448.817 456.232 449.225 462.179 449.171C461.323 434.95 464.728 421.223 467.136 407.382C467.457 405.536 467.905 403.884 470.34 403.897C472.996 403.911 472.876 405.917 473.17 407.623C473.431 409.162 473.424 410.761 473.859 412.239C474.066 412.948 474.929 413.717 475.652 413.925C476.1 414.052 477.13 413.289 477.378 412.7C478.287 410.573 478.983 408.352 479.899 405.757C480.716 405.757 481.946 405.57 483.104 405.804C484.783 406.145 486.408 406.787 488.054 407.302C487.372 409.102 487.171 411.45 485.893 412.593C483.498 414.734 480.455 416.146 477.725 417.932C476.862 418.494 475.719 419.109 475.418 419.952C472.835 427.23 470.815 434.629 471.511 442.482C472.059 448.63 472.273 448.857 479.438 450.563C479.438 448.007 479.558 445.519 479.411 443.051C479.144 438.549 480.689 434.722 483.579 431.411C490.977 422.949 498.369 414.48 505.901 406.145C507.42 404.466 509.574 403.349 511.989 401.563C507.005 399.636 502.182 397.502 497.192 395.91C485.746 392.251 473.912 390.645 461.945 390.719C448.807 390.806 435.682 391.535 422.544 391.95C419.835 392.037 417.119 391.963 413.888 391.963C417.962 384.785 423.755 382.391 430.458 381.066C442.305 378.725 454.232 379.38 466.112 379.982C486.361 381.019 505.801 385.541 523.635 395.555C547.262 408.821 564.193 427.839 570.174 454.643C576.589 483.368 569.792 509.129 550.4 531.766C533.121 551.935 511.28 565.213 487.653 576.217C464.694 586.914 440.565 593.757 415.748 598.36C411.386 599.169 406.918 599.39 402.509 599.912C401.666 600.012 400.837 600.239 399.312 600.54C400.917 602.494 402.041 604.106 403.406 605.491C413.6 615.846 426.819 619.752 440.478 622.488C465.918 627.586 490.596 625.077 514.116 613.919C521.528 610.401 528.512 605.986 535.676 601.952C537.188 601.102 538.626 600.112 540.098 599.182C540.379 599.43 540.653 599.684 540.934 599.932C538.011 603.577 535.295 607.417 532.124 610.835C521.635 622.134 509.239 630.783 495.633 638.082C480.515 646.189 464.641 651.534 447.81 654.357C433.816 656.705 419.741 656.518 405.847 654.324C372.494 649.046 342.284 636.122 316.543 614.107C309.131 607.772 303.786 599.042 297.344 591.543C295.592 589.509 293.525 587.503 291.19 586.252C274.981 577.555 261.161 566.096 249.073 552.209C238.129 539.64 231.42 525.244 228.483 509.069C223.673 482.538 230.711 459.052 247.441 438.181C254.625 429.223 263.108 421.751 272.513 415.269C273.45 414.62 274.533 414.186 275.838 413.49C275.149 417.952 274.647 421.892 273.884 425.785C273.67 426.862 272.901 428.059 272.025 428.742C259.375 438.569 249.695 450.697 243.38 465.447C242.196 468.203 241.133 471.012 240.049 473.815C239.949 474.076 240.096 474.431 240.156 474.979C241.086 474.852 241.956 474.832 242.778 474.605C255.375 471.113 265.583 476.418 275.349 483.388C277.891 490.265 284.996 492.392 289.658 497.068C291.33 498.747 293.518 499.911 295.471 501.316C295.705 501.122 295.939 500.934 296.174 500.74C295.531 499.536 294.956 498.292 294.24 497.141C282.313 477.949 278.159 456.891 280.206 434.689C282.38 411.128 290.12 389.294 303.05 369.433C309.185 360.014 315.687 350.836 322.062 341.572C323.942 338.842 324.905 336.213 324.396 332.608C322.142 316.54 320.216 300.425 318.389 284.303C317.613 277.446 317.393 270.536 316.877 263.646C316.764 262.101 316.469 260.576 316.195 258.542V258.515ZM291.344 521.19C290.608 522.227 290.046 523.157 289.35 523.98C281.664 533.077 275.55 543.091 271.577 554.356C269.443 560.397 269.416 560.39 275.416 562.992C275.577 563.059 275.818 562.926 276.152 562.865C276.788 560.945 277.47 558.972 278.092 556.972C281.51 545.954 287.297 536.281 294.628 527.458C296.388 525.337 298.334 525.043 300.421 526.756C302.375 528.361 301.465 530.02 300.328 531.739C293.859 541.553 288.788 551.982 286.073 563.508C284.173 571.555 284.026 571.521 291.759 573.97C291.839 573.997 291.953 573.91 292.247 573.816C292.862 569.996 293.27 566.023 294.173 562.17C296.468 552.376 300.054 543.091 305.586 534.596C307.144 532.201 309.111 532.877 310.817 533.659C311.492 533.967 311.921 536.027 311.62 537.037C309.92 542.677 308.175 548.322 306.047 553.808C303.311 560.872 302.094 568.163 301.893 575.662C301.866 576.626 302.315 578.137 303.01 578.492C305.385 579.703 307.96 580.512 310.489 581.482C310.864 576.338 310.65 571.669 311.633 567.274C313.667 558.196 316.269 549.239 318.791 540.275C319.68 537.118 322.256 538.262 324.336 538.71C326.617 539.198 326.477 540.991 326.116 542.697C325.627 544.978 325.039 547.239 324.45 549.5C321.68 560.096 319.687 570.799 320.537 581.817C320.637 583.148 321.319 585.134 322.283 585.563C324.45 586.513 326.965 586.673 329.721 587.235C329.046 571.428 330.25 556.136 333.614 540.997C336.444 541.352 338.926 541.666 341.588 542.001C341.234 545.138 340.886 548.001 340.592 550.864C339.474 561.815 337.936 572.726 339.528 583.803C340.016 587.175 341.414 588.513 344.612 588.399C345.689 588.359 346.759 588.399 347.415 588.399C347.803 572.819 348.184 557.527 348.572 542.148C352.124 542.402 354.82 542.59 357.87 542.81C357.69 546.202 357.349 549.64 357.362 553.072C357.402 563.086 357.161 573.127 357.864 583.101C358.352 590.051 358.954 590.011 366.252 589.877C366.446 589.877 366.634 589.69 367.062 589.463C365.128 574.385 364.185 559.179 365.389 543.874H372.942C373.022 545.359 373.042 546.791 373.176 548.209C374.293 560.169 375.243 572.15 376.634 584.078C377.377 590.439 377.725 590.406 384.321 589.938C384.969 589.891 385.605 589.723 386.207 589.623C384.367 574.09 382.548 558.698 380.695 542.978H389.017C389.244 543.914 389.512 544.764 389.659 545.64C391.699 557.888 393.672 570.143 395.76 582.378C396.923 589.215 396.997 589.208 403.733 588.533C404.349 588.473 404.958 588.312 405.419 588.225C402.549 572.21 399.72 556.397 396.877 540.502C399.934 540.028 402.516 539.619 405.406 539.171C408.577 555.366 411.085 571.535 416.256 587.021C419.005 586.419 421.367 585.897 424.129 585.295C420.424 569.916 416.738 554.644 412.971 539.031C415.761 538.482 418.102 538.027 420.504 537.552C424.879 552.898 429.167 567.936 433.501 583.114C436.472 582.372 439.107 581.716 442.452 580.88C440.137 573.575 438.023 566.571 435.696 559.648C433.14 552.048 430.411 544.509 427.682 536.964C426.966 534.977 427.267 534.061 429.488 533.351C435.093 531.572 440.626 529.552 446.098 527.405C448.232 526.568 449.094 527.277 449.951 529.084C455.082 539.941 460.333 550.744 465.43 561.614C467.042 565.046 468.307 568.645 469.765 572.244C472.213 570.986 474.655 569.735 477.471 568.29C476.006 564.544 474.842 560.818 473.136 557.367C468.494 548.001 463.604 538.763 458.861 529.445C458.145 528.04 456.881 526.394 459.329 525.271C461.303 524.361 463.236 523.371 464.788 526.006C470.929 536.449 477.157 546.844 483.231 557.326C484.488 559.501 485.244 561.969 486.281 564.417C487.572 563.956 488.515 563.668 489.425 563.287C493.847 561.461 494.235 560.852 492.181 556.691C489.124 550.51 485.98 544.356 482.522 538.389C479.291 532.81 475.484 527.565 472.233 521.993C471.631 520.963 471.999 518.447 472.849 517.765C473.678 517.096 476.207 517.324 477.09 518.14C480.435 521.217 483.98 524.321 486.428 528.08C492.335 537.151 497.667 546.597 503.252 555.942C504.47 555.279 506.008 554.403 507.594 553.594C509.761 552.49 510.504 551.105 509.025 548.817C507.333 546.202 505.982 543.366 504.256 540.777C498.202 531.713 492.563 522.327 484.361 514.882C483.552 514.146 482.943 511.718 483.345 511.383C484.622 510.306 486.368 509.504 488.027 509.283C488.984 509.156 490.308 510.159 491.144 510.989C494.951 514.735 499.085 518.273 502.289 522.501C507.982 530 513.093 537.94 518.551 545.854C518.886 545.64 519.528 545.232 520.17 544.824C524.933 541.773 524.893 541.787 522.15 536.904C517.153 528.027 511.561 519.618 503.774 512.862C502.182 511.484 500.817 509.831 499.479 508.192C497.078 505.256 497.205 504.446 500.376 501.47C513.621 509.851 524.846 520.18 531.816 534.776C532.759 534.054 533.656 533.432 534.485 532.736C538.399 529.458 538.486 529.137 535.516 524.842C529.094 515.551 522.257 506.667 512.557 500.406C508.631 497.871 508.664 496.359 512.109 492.706C526.378 498.346 536.439 508.968 545.055 521.257C549.276 516.902 549.998 514.949 548.072 512.34C542.881 505.329 537.208 498.74 529.776 493.971C525.134 490.987 520.371 488.198 515.648 485.308C516.725 481.883 519.1 481.401 522.023 482.237C530.365 484.612 538.158 488.151 544.633 494.004C548.286 497.309 551.503 501.102 554.902 504.654C558.608 500.312 558.507 498.325 554.948 493.643C549.811 486.873 543.041 482.378 535.549 478.705C531.629 476.785 527.836 474.625 523.983 472.571C524.057 472.237 524.13 471.902 524.204 471.568C526.572 470.986 529.074 469.594 531.281 469.969C538.693 471.206 545.744 473.735 551.697 478.538C554.728 480.986 557.497 483.756 560.461 486.445C562.367 481.394 562.28 476.745 558.046 472.952C550.982 466.624 543.041 462.356 533.241 462.015C524.13 461.701 515.889 464.53 507.928 468.41C506.209 469.246 504.463 470.946 503.687 472.671C498.71 483.722 491.205 492.7 481.612 499.904C464.239 512.949 443.857 519.21 423.333 524.869C408.396 528.99 393.057 531.378 377.558 531.94C359.409 532.602 341.281 532.957 323.647 526.923C310.208 522.321 297.953 516.16 288.875 504.901C286.374 501.791 284.387 498.265 282.039 495.028C281.303 494.011 279.39 492.492 279.316 492.559C277.149 494.646 275.677 492.445 274.413 491.569C266.272 485.896 257.214 485.883 248.09 487.428C244.966 487.957 242.069 490.057 239.213 491.69C238.43 492.138 237.708 493.509 237.741 494.432C237.842 497.549 238.296 500.66 238.684 504.46C240.317 503.122 241.153 502.165 242.203 501.617C246.979 499.115 251.742 496.546 256.672 494.379C258.606 493.529 261.021 493.723 261.904 496.419C262.746 498.974 261.736 500.613 259.228 501.643C252.772 504.299 247.642 508.6 243.648 514.347C241.019 518.126 240.932 519.952 243.795 524.113C244.518 523.23 245.24 522.401 245.896 521.531C250.685 515.156 256.833 510.474 264.031 507.149C265.222 506.6 266.553 506.132 267.844 506.065C268.834 506.012 269.857 506.654 270.861 506.988C270.473 507.952 270.285 509.089 269.643 509.831C268.794 510.821 267.61 511.544 266.533 512.326C259.87 517.163 254.258 522.956 250.224 530.194C248.23 533.773 248.498 535.325 251.843 538.262C256.525 529.11 263.663 522.18 271.764 516.16C273.235 515.069 275.035 514.34 276.788 513.758C277.43 513.544 278.547 514.032 279.095 514.567C279.376 514.842 279.062 516.053 278.687 516.608C277.691 518.066 276.56 519.437 275.389 520.762C268.914 528.107 262.017 535.158 259.288 544.998C258.044 549.486 258.211 549.955 262.78 552.236C263.208 551.085 263.609 549.948 264.044 548.831C268.111 538.482 273.945 529.405 283.002 522.668C285.424 520.869 287.999 519.805 291.391 521.203L291.344 521.19ZM449.095 204.03C448.753 204.25 448.412 204.478 448.078 204.699C448.292 205.956 448.439 207.227 448.727 208.465C450.024 214.104 451.784 219.67 452.606 225.376C455.657 246.474 452.941 267.145 446.686 287.333C444.104 295.682 441.027 304.017 437.047 311.777C428.732 327.972 417.935 342.655 406.65 356.87C394.676 371.955 381.672 386.217 369.751 401.342C357.482 416.908 349.368 434.488 347.997 454.603C346.686 473.782 352.325 490.74 365.644 504.707C369.978 509.249 375.504 512.628 380.227 516.835C382.367 518.742 384.655 519.203 387.23 519.237C400.87 519.424 413.948 516.367 426.825 512.219C427.775 511.912 428.631 511.296 430.25 510.447C427.628 509.831 425.916 509.35 424.176 509.035C409.399 506.339 395.753 500.988 383.478 492.198C371.517 483.629 363.082 472.477 359.69 458.162C355.656 441.131 359.864 425.377 369.51 411.149C380.615 394.779 395.077 381.421 409.948 368.63C418.952 360.891 428.872 354.208 438.452 347.151C446.071 341.538 454.071 336.414 461.423 330.474C478.535 316.64 492.716 300.084 504.938 281.821C518.35 261.78 524.618 240.153 520.27 215.91C517.528 200.625 509.795 188.309 498.918 177.185C495.212 181.466 491.68 185.547 488.081 189.708C488.582 190.243 488.944 190.651 489.332 191.039C505.714 207.415 509.734 227.503 506.664 249.585C504.262 266.844 496.804 282.129 486.93 296.197C476.722 310.733 463.43 322.373 449.576 333.277C445.335 336.615 440.211 338.829 435.495 341.558C436.639 336.227 439.428 332.153 443.047 328.634C449.436 322.426 456.098 316.479 462.299 310.091C475.317 296.665 485.438 281.373 491.787 263.646C498.389 245.217 497.319 227.376 488.342 210.017C486.348 206.157 483.779 202.739 479.491 200.565C488.81 220.727 489.546 241.404 484.301 262.857C482.943 262.623 481.773 262.281 480.588 262.255C476.909 262.161 476.287 260.168 476.829 256.97C477.371 253.793 477.638 250.562 477.826 247.344C478.843 229.904 475.337 213.676 464.654 199.454C463.597 198.049 462.219 196.879 460.995 195.601C460.6 195.822 460.199 196.049 459.804 196.27C460.119 197.528 460.219 198.892 460.768 200.029C472.822 224.834 473.183 249.866 462.473 275.205C460.533 279.801 457.135 282.912 452.734 286.297C453.777 281.581 454.473 277.567 455.57 273.66C459.483 259.746 462.447 245.752 459.992 231.196C458.56 222.7 456.353 214.432 451.891 206.953C451.222 205.829 450.038 205.006 449.095 204.05V204.03ZM417.968 178.55C419.179 183.272 418.169 187.319 416.403 191.213C413.025 198.645 407.801 204.485 401.619 209.87C390.134 219.89 376.835 226.212 362.694 231.289C349.95 235.865 336.698 238.166 323.453 240.42C311.506 242.454 299.445 244.22 287.397 240.648C286.541 240.394 285.578 240.487 284.661 240.42C284.534 240.688 284.414 240.962 284.286 241.23C285.042 241.879 285.725 242.655 286.568 243.15C294.655 247.872 303.539 249.786 312.61 248.18C327.012 245.631 341.428 242.829 355.522 238.982C374.353 233.851 391.532 225.543 406.322 212.044C417.895 201.481 420.531 188.122 421.889 174.048C422.363 169.104 420.544 163.94 419.775 158.876C419.393 156.394 418.129 155.27 415.46 155.571C405.84 156.668 396.188 157.438 386.595 158.722C379.564 159.665 372.607 161.21 365.195 162.562C365.891 161.124 366.333 160.214 367.095 158.648C362.908 158.648 359.148 158.073 355.629 158.749C339.588 161.813 323.52 164.85 307.639 168.649C295.364 171.586 287.317 179.974 282.3 191.681C290.829 193.072 299.405 194.036 307.593 191.855C315.687 189.694 323.507 186.269 331.18 182.811C338.19 179.653 345.181 177.292 353.001 177.553C361.683 177.84 370.4 178.128 379.063 177.667C389.9 177.085 399.813 174.208 404.857 163.057C405.8 160.963 407.787 160.274 409.56 161.197C410.503 161.685 411.139 163.752 411.058 165.05C410.51 173.606 405.687 179.172 398.094 182.53C395.298 183.767 392.361 184.704 389.063 185.941C391.953 190.958 394.662 195.641 397.519 200.598C403.486 196.216 409.185 191.781 411.593 184.517C412.61 181.446 414.637 179.767 417.955 178.556L417.968 178.55ZM559.557 455.132C558.648 452.436 558.28 450.569 557.424 448.951C551.135 437.03 544.974 425.049 534.204 416.233C529.615 412.48 525.435 409.483 518.939 411.71C515.293 412.961 511.848 413.851 509.213 416.935C504.677 422.246 499.954 427.397 495.238 432.555C491.72 436.401 489.894 440.883 489.325 446.054C488.643 452.249 489.405 453.974 495.085 457.179C495.553 452.884 495.994 448.583 496.489 444.295C496.824 441.432 497.974 438.809 501.065 438.495C504.323 438.167 504.918 441.271 505.373 443.532C506.316 448.268 506.798 453.091 507.534 458.329C514.939 452.904 522.973 448.65 532.378 447.338C542.225 445.967 550.373 450.181 559.564 455.125L559.557 455.132ZM359.402 308.593C355.77 314.071 352.345 319.235 348.907 324.42C349.629 325.216 350.097 325.838 350.673 326.346C351.502 327.082 352.372 327.785 353.281 328.42C365.617 337.003 379.584 340.568 394.295 340.046C408.081 339.558 404.402 341.297 411.634 330.628C413.801 327.43 415.393 323.844 417.46 320.045C396.054 324.199 377.337 318.68 359.402 308.599V308.593ZM331.052 349.09C331.353 349.519 331.654 349.987 331.989 350.415C332.33 350.856 332.658 351.325 333.079 351.679C347.187 363.734 363.476 368.911 381.932 366.811C383.484 366.637 385.244 365.373 386.287 364.102C389.532 360.148 392.528 355.981 395.512 351.82C396.114 350.977 396.208 349.779 396.602 348.529C394.248 348.709 392.495 348.937 390.736 348.963C374.788 349.231 360.218 344.769 346.86 336.153C345.749 335.437 344.619 334.581 343.374 334.28C342.552 334.079 341.1 334.447 340.652 335.076C337.414 339.578 334.364 344.207 331.059 349.084L331.052 349.09ZM312.161 376.33C326.504 388.919 342.471 394.003 360.479 392.893C361.844 392.806 363.503 391.843 364.399 390.766C367.537 387.02 370.44 383.08 373.33 379.133C373.959 378.27 374.173 377.099 374.728 375.688C365.028 376.076 356.011 375.313 347.696 371.48C339.474 367.687 331.561 363.225 323.453 359.024C319.874 364.503 316.088 370.309 312.168 376.323L312.161 376.33ZM371.323 285.327C370.299 287.601 369.243 290.27 367.925 292.805C363.911 300.532 363.811 301 371.992 304.586C388.535 311.824 405.707 314.172 423.474 309.917C424.364 309.703 425.34 308.686 425.735 307.803C427.688 303.448 429.501 299.027 431.267 294.592C431.682 293.548 431.729 292.364 431.97 291.1C410.677 297.04 390.863 293.18 371.316 285.327H371.323ZM379.15 260.335C378.086 264.649 376.935 268.891 376.066 273.192C375.885 274.088 376.454 275.7 377.17 276.109C379.946 277.687 382.795 279.346 385.839 280.196C401.8 284.651 417.855 284.865 433.97 280.805C436.472 280.176 437.937 278.992 438.325 276.53C439.094 271.627 439.803 266.717 440.592 261.472C419.454 267.339 398.977 268.636 379.15 260.348V260.335ZM355.609 402.526C348.478 401.583 341.334 401.683 334.946 399.542C326.597 396.746 318.831 392.197 310.83 388.371C309.191 387.588 307.626 386.672 306.281 385.949C304.609 389.695 303.077 393.013 301.646 396.372C300.816 398.305 299.88 400.258 299.512 402.298C299.304 403.449 299.779 405.228 300.615 405.978C312.329 416.453 326.31 420.674 341.789 420.306C343.441 420.266 345.749 419.323 346.579 418.045C349.897 412.941 352.746 407.536 355.609 402.519V402.526ZM294.889 413.523C293.819 421.203 292.963 427.899 291.919 434.562C291.545 436.943 292.488 438.528 294.341 439.592C306.83 446.723 320.122 449.854 334.477 447.332C335.334 447.178 336.598 446.576 336.799 445.914C338.418 440.636 339.829 435.297 341.414 429.591C323.855 430.24 308.643 425.451 294.889 413.523ZM442.251 233.684C428.705 238.835 415.634 240.353 402.382 240.862C396.823 241.076 391.278 241.457 385.719 241.752C382.889 241.899 381.585 243.35 381.437 246.207C381.297 248.963 381.912 250.762 384.889 251.732C403.546 257.813 422.103 257.325 440.606 251.19C441.315 250.956 442.158 249.786 442.178 249.03C442.318 244.106 442.251 239.169 442.251 233.697V233.684ZM303.632 203.04C296.127 202.625 288.922 202.953 282.045 201.615C276.319 200.504 272.52 202.043 269.128 206.15C268.305 207.147 266.74 208.184 266.794 209.134C267.101 214.706 267.784 220.252 268.352 225.951C275.557 225.402 281.43 227.202 287.237 229.637C293.652 232.326 300.395 232.206 307.833 231.503C306.388 221.69 304.984 212.184 303.632 203.04ZM333.568 256.863C328.363 256.756 327.661 257.258 327.982 261.579C329.119 276.871 330.276 292.163 331.688 307.435C332.103 311.957 333.374 316.399 334.257 320.874H335.387C345.361 309.402 353.154 296.665 358.258 281.895C356.767 281.708 355.803 281.5 354.84 281.48C352.358 281.433 351.081 280.069 351.041 277.747C350.927 271.533 350.9 265.318 350.974 259.104C350.994 257.271 351.442 255.451 351.716 253.518C345.816 254.214 344.17 255.344 343.823 260.636C343.354 267.707 343.475 274.824 343.542 281.922C343.582 286.363 344.15 290.805 344.177 295.247C344.197 298.512 342.926 301.221 338.899 302.726C332.578 287.849 333.688 272.336 333.574 256.863H333.568ZM292.655 448.415C292.334 448.563 292.013 448.71 291.685 448.857C292.321 454.242 292.682 459.681 293.752 464.979C294.12 466.811 295.966 468.751 297.659 469.828C300.254 471.474 303.298 472.417 306.148 473.655C315.593 477.755 325.199 477.16 334.819 474.491C335.641 474.264 336.692 472.845 336.685 471.989C336.638 467.133 336.297 462.276 336.083 458.015C328.397 457.607 320.884 457.687 313.513 456.69C306.021 455.68 298.97 452.837 292.648 448.415H292.655ZM298.267 479.836C302.863 494.399 307.345 498.406 321.674 501.088C321.895 501.128 322.102 501.215 322.323 501.242C328.992 502.025 335.441 501.222 341.468 498.172C343.02 497.389 345.087 496.613 343.809 493.917C342.431 491.014 341.214 488.017 340.224 484.967C339.461 482.612 338.418 482.699 336.284 483.328C332.076 484.559 327.741 485.776 323.4 486.037C314.65 486.565 306.522 483.742 298.267 479.843V479.836ZM432.337 173.512C440.318 173.894 448.7 174.342 457.082 174.603C457.911 174.63 459.262 173.693 459.537 172.91C460.975 168.843 462.166 164.682 463.41 160.542C463.945 158.762 463.236 158.087 461.39 157.652C451.817 155.404 442.144 154.554 432.331 154.916C428.558 155.056 428.284 155.417 429.106 158.99C430.244 163.9 431.294 168.836 432.331 173.506L432.337 173.512ZM359.857 199.809C361.59 201.648 363.577 203.441 365.175 205.535C367.329 208.351 369.082 211.482 371.256 214.285C371.811 214.994 373.577 215.562 374.313 215.208C379.083 212.893 383.718 210.304 388.555 207.729C386.515 200.779 383.718 194.577 379.196 189.246C378.735 188.704 377.959 188.102 377.317 188.089C373.009 187.988 368.701 188.035 364.393 188.035C362.968 191.741 361.429 195.728 359.857 199.815V199.809ZM360.419 628.395C361.583 626.268 362.526 624.502 363.496 622.763C367.717 615.184 372.132 607.852 381.631 605.865C382.621 605.658 383.377 604.293 384.24 603.464C383.197 602.875 382.153 601.798 381.103 601.785C371.002 601.657 360.894 601.711 351.054 601.711C350.398 603.263 349.81 605.129 348.86 606.795C346.987 610.079 344.819 613.197 343.006 616.515C342.618 617.217 343.087 619.264 343.408 619.324C344.813 619.585 346.987 619.933 347.656 619.17C351.315 615.003 354.546 610.467 358.071 606.18C359.095 604.935 360.486 603.832 361.944 603.149C362.961 602.674 364.814 602.554 365.476 603.163C366.206 603.832 366.433 605.651 366.105 606.735C365.543 608.608 364.493 610.374 363.463 612.066C360.727 616.575 357.891 621.017 354.967 625.686C357.074 626.736 358.64 627.519 360.419 628.409V628.395ZM317.934 230.393C322.871 229.583 327.547 228.767 332.236 228.058C334.377 227.737 334.712 226.533 334.17 224.754C333.099 221.248 332.083 217.73 330.899 214.265C330.604 213.395 329.935 212.291 329.173 212.004C324.249 210.144 321.005 206.391 317.794 202.518C316.985 201.541 315.794 200.886 314.784 200.083C314.503 200.29 314.215 200.498 313.934 200.705C315.232 210.331 316.53 219.951 317.934 230.386V230.393ZM393.365 614.555C392.522 616.287 391.953 617.565 391.291 618.803C388.562 623.886 385.792 628.95 383.076 634.041C382.394 635.319 381.578 636.697 383.545 637.687C385.297 638.57 386.02 637.587 386.903 636.202C390.883 629.954 394.99 623.786 399.225 617.338C395.03 613.451 390.461 609.217 385.919 605.009C384.822 606.869 383.986 608.668 382.822 610.207C378.333 616.14 373.691 621.96 369.229 627.914C368.473 628.917 368.339 630.389 367.918 631.64C369.617 632.001 371.45 632.924 372.969 632.549C374.179 632.255 375.089 630.449 375.972 629.191C378.527 625.559 380.882 621.786 383.545 618.234C385.759 615.291 388.883 614.086 393.371 614.548L393.365 614.555ZM364.252 518.896C359.991 514.474 355.977 510.193 351.783 506.099C351.221 505.55 349.509 505.53 348.713 505.965C341.24 510.079 333.213 511.27 324.838 510.768C323.58 510.694 322.336 510.474 320.844 510.286C324.711 517.531 352.465 522.916 364.252 518.889V518.896ZM409.62 227.891C411.266 228.547 411.761 228.868 412.289 228.935C421.628 230.105 430.337 227.717 438.786 224.078C439.402 223.817 440.144 222.606 440.004 222.038C438.987 217.937 437.749 213.883 436.612 209.903C427.588 215.917 418.965 221.663 409.627 227.891H409.62ZM478.956 183.266C482.95 178.677 487.98 175.285 489.452 169.124C484.274 166.609 479.445 164.261 475.003 162.1C472.568 167.412 470.38 172.188 467.972 177.432C471.497 179.305 475.076 181.199 478.956 183.259V183.266ZM363.095 220.533C359.777 215.689 356.834 211.388 354.251 207.629C349.903 209.522 346.104 211.174 341.923 212.987C343.006 216.974 344.224 221.462 345.448 225.958C351.469 224.105 356.753 222.486 363.095 220.533ZM348.432 187.333C341.722 190.189 335.173 192.979 328.557 195.795C332.069 201.775 338.665 203.909 343.943 201.18C349.141 198.491 351.02 193.4 348.432 187.333ZM344.037 601.343C335.22 599.544 327.005 597.865 317.975 596.012C319.279 598.6 319.975 600.494 321.085 602.106C324.477 607.049 327.36 606.976 330.551 602.025C330.671 601.838 330.751 601.57 330.925 601.484C331.782 601.042 333.193 600.106 333.441 600.346C334.257 601.136 335.2 602.413 335.093 603.403C334.926 604.989 334.11 606.574 333.307 608.019C331.481 611.317 331.949 612.688 336.317 614.655C338.826 610.334 341.361 605.952 344.037 601.343ZM418.557 627.813C416.002 633.325 413.58 638.543 410.744 644.664C414.691 644.664 417.34 644.711 419.982 644.624C420.537 644.604 421.4 644.216 421.567 643.788C423.186 639.486 424.691 635.145 426.263 630.73C423.628 629.733 421.353 628.87 418.564 627.813H418.557ZM404.188 620.729C400.971 627.592 397.94 634.068 394.743 640.891C397.372 641.527 399.552 642.048 401.64 642.55C403.158 639.212 404.503 636.289 405.814 633.345C407.158 630.328 408.469 627.291 409.874 624.081C407.687 622.789 405.8 621.672 404.188 620.722V620.729ZM364.747 251.873C361.162 254.274 357.65 273.513 359.536 279.467C364.339 274.971 367.67 257.793 364.747 251.873ZM431.374 644.129C439.381 645.166 441.081 644.263 443.174 638.142C443.576 636.964 445.081 635.239 442.793 634.583C440.425 633.907 437.455 631.7 435.548 634.449C433.622 637.232 432.772 640.751 431.374 644.122V644.129ZM471.217 637.145C471.136 636.784 471.049 636.429 470.969 636.068C465.082 636.068 459.202 636.108 453.316 636.055C448.285 636.015 447.81 636.576 449.208 642.356C456.54 640.617 463.878 638.878 471.217 637.145Z" fill="black"/>
</svg>
