<svg width="800" height="800" viewBox="0 0 800 800" fill="none" xmlns="http://www.w3.org/2000/svg">
<mask id="path-1-outside-1_8061_109" maskUnits="userSpaceOnUse" x="75.9149" y="119.799" width="546.294" height="563.339" fill="black">
<rect fill="white" x="75.9149" y="119.799" width="546.294" height="563.339"/>
<path d="M331.658 593.559C327.891 598.061 324.203 602.635 320.323 607.029C317.45 610.283 314.325 613.316 311.304 616.441C308.067 619.779 304.117 621.296 299.503 620.67C282.967 618.439 266.437 616.112 249.893 613.889C240.249 612.591 230.607 611.245 220.923 610.269C217.08 609.885 215.933 608.084 216.972 604.843C218.614 599.733 220.624 594.737 222.478 589.692C223.137 587.911 223.811 586.129 224.284 584.883C218.973 590.721 213.457 596.817 207.897 602.87C207.014 603.831 206.025 604.842 204.871 605.376C203.755 605.9 202.1 606.364 201.187 605.882C200.399 605.467 199.827 603.609 200.017 602.55C200.608 599.203 201.555 595.916 202.472 592.64C202.961 590.908 203.67 589.242 203.633 587.172C199.866 592.071 195.886 596.832 192.4 601.926C189.976 605.462 187.001 606.057 183.201 605.311C174.939 603.686 166.673 602.11 158.388 600.591C152.968 599.591 147.516 598.762 142.089 597.788C140.585 597.515 139.128 596.999 137.161 596.462C139.978 591.839 142.551 587.638 145.1 583.43C145.864 582.163 146.712 580.928 147.31 579.582C148.051 577.912 148.451 576.086 149.209 574.422C151.384 569.656 153.559 564.882 155.935 560.215C159.251 553.716 165.392 550.982 171.855 548.852C173.964 548.16 176.185 547.806 178.755 547.203C176.231 545.291 173.933 543.658 171.748 541.88C168.994 539.641 168.155 536.856 169.511 533.441C171.349 528.796 173.277 524.181 174.812 519.438C176.523 514.154 180.343 511.402 185.172 509.377C189.361 507.622 193.393 505.493 198.453 503.072C194.399 499.818 191.194 497.202 187.94 494.655C185.909 493.068 185.539 491.333 186.337 488.783C195.305 460.073 204.076 431.302 213.133 402.614C214.017 399.81 216.064 397.129 218.183 395.014C220.649 392.547 223.933 391.771 227.587 393.46C225.097 390.202 222.398 387.076 220.215 383.621C219.292 382.163 218.87 379.893 219.212 378.199C220.979 369.445 223.07 360.763 225.048 352.053C225.863 348.469 227.93 346.55 231.7 345.797C237.87 344.561 243.931 342.781 249.626 341.33C244.043 337.709 238.352 334.211 232.884 330.396C229.745 328.211 228.8 325.071 229.254 321.046C230.028 314.154 229.968 307.17 230.518 300.252C231.022 293.927 231.991 287.635 232.527 281.306C233.238 272.959 233.724 264.586 234.323 256.233C234.406 255.058 234.511 253.871 234.764 252.727C236.431 245.143 238.296 243.505 246.022 243.387C250.939 243.308 255.858 243.57 261.615 243.702C257.614 241.149 254.471 238.766 251.009 237.01C241.167 232.013 237.865 224.784 239.729 213.543C242.145 198.966 242.736 184.085 244.039 169.324C244.528 163.81 244.43 163.78 249.884 163.751C272.49 163.645 295.094 163.276 317.695 163.528C337.799 163.748 357.892 164.667 377.993 165.261C392.024 165.686 406.024 165.099 420.06 165.31C434.524 165.53 448.982 166.178 463.442 166.438C468.503 166.527 472.606 168.347 475.856 171.824C478.196 170.171 480.141 168.383 482.422 167.269C486.552 165.249 488.125 165.809 488.755 170.267C489.344 174.475 488.886 178.857 488.586 183.145C488.358 186.472 487.657 189.766 487.166 193.079C487.509 193.181 487.861 193.281 488.204 193.382C488.765 191.897 489.367 190.424 489.886 188.919C491.833 183.206 493.607 177.423 495.736 171.78C497.215 167.853 500.248 166.378 504.555 166.883C522.952 169.042 541.362 171.026 559.769 173.128C562.115 173.398 564.316 173.65 564.207 177.219C563.862 188.788 563.898 200.358 563.695 211.929C563.582 218.033 561.485 219.487 555.707 217.363C551.545 215.835 547.515 213.96 542.972 212.922C548.569 218.05 554.032 223.343 559.836 228.228C562.443 230.426 563.604 232.615 563.208 236.007C561.021 254.533 558.987 273.068 556.841 291.598C556.12 297.825 555.327 304.052 554.381 310.254C553.658 315.004 553.119 315.343 548.842 313.54C542.361 310.803 535.99 307.824 529.567 304.954C528.262 304.375 526.946 303.83 525.062 303.904C526.352 304.984 527.615 306.107 528.948 307.136C535.706 312.356 542.47 317.56 549.249 322.747C551.766 324.668 552.686 326.754 551.894 330.16C550.231 337.307 549.09 344.592 547.946 351.847C547.261 356.188 544.813 358.828 540.744 359.706C530.336 361.939 519.879 363.93 509.438 365.999C508.721 366.142 507.976 366.152 507.174 367.041C513.836 368.553 520.53 369.975 527.158 371.617C531.49 372.684 535.79 373.921 539.981 375.422C541.167 375.846 542.881 377.766 542.669 378.518C542.238 380.022 540.845 382.01 539.488 382.35C535.572 383.324 531.491 383.821 527.448 384.069C520.499 384.491 513.524 384.575 506.558 384.824C506.107 384.837 505.664 385.103 504.04 385.628C506.208 386.424 507.305 386.919 508.455 387.227C517.052 389.502 525.655 391.752 534.263 393.978C537.801 394.893 539.141 396.89 538.311 400.634C537.028 406.4 536.038 412.233 535.03 418.052C534.287 422.36 531.812 425.058 527.854 426.727C521.943 429.224 516.095 431.865 509.972 434.55C515.333 437.12 520.241 439.52 525.196 441.836C528.351 443.304 529.505 445.264 528.649 448.987C525.398 463.074 522.448 477.234 519.513 491.394C518.689 495.367 516.582 498.006 512.882 499.554C509.357 501.029 505.882 502.603 502.409 504.2C501.178 504.766 500.038 505.538 498.737 506.278C502.574 508.132 506.119 509.53 509.265 511.548C510.41 512.277 511.284 514.622 511.067 516.042C510.415 520.308 509.544 524.612 508.075 528.657C500.48 549.686 493.134 570.834 484.769 591.557C479.463 604.703 472.619 617.237 466.269 629.946C463.542 635.402 455.584 637.759 450.45 634.515C448.883 633.525 447.859 630.87 447.564 628.841C446.657 622.623 446.228 616.326 445.573 609.686C444.721 611.272 443.793 612.825 443.023 614.442C439.977 620.851 437.022 627.306 433.917 633.681C433.539 634.449 432.427 634.853 431.658 635.429C431.163 634.676 430.675 633.913 430.058 632.973C425.044 636.351 419.401 634.945 413.815 634.288C385.878 630.995 357.932 627.703 329.994 624.403C329.207 624.313 328.426 624.208 327.645 624.102C322.554 623.388 321.087 620.991 323.024 616.145C325.664 609.561 328.461 603.034 331.176 596.483C331.515 595.655 331.771 594.788 332.06 593.933C331.921 593.812 331.789 593.682 331.65 593.56L331.658 593.559ZM392.656 269.796C392.656 269.796 373.791 239.222 352.981 240.356C330.77 241.567 313.384 259.899 312.443 282.679C311.634 302.126 316.639 320.349 325.511 337.348C334.628 354.816 344.779 371.737 354.516 388.882C358.062 395.126 361.707 401.32 365.287 407.505C371.379 402.576 377.191 397.706 383.176 393.065C409.066 372.997 435.377 353.413 456.716 328.202C468.927 313.78 475.757 297.633 473.238 278.204C470.559 257.544 447.789 235.821 422.051 246.706C408.83 252.295 392.656 269.796 392.656 269.796ZM298.615 444.921C304.379 446.656 309.894 449.179 315.537 446.224C318.657 444.59 320.783 445.366 323.484 446.744C325.725 447.882 328.408 449.071 330.771 448.862C335.22 448.463 339.627 446.353 343.743 449.904C343.969 450.104 344.526 450.033 344.898 449.941C349.791 448.807 354.465 449.8 359.22 450.984C361.411 451.531 363.888 450.945 366.237 450.849C367.131 450.809 368.056 450.519 368.911 450.657C375.431 451.762 381.901 453.174 388.456 453.99C390.668 454.265 393.098 453.215 395.321 452.472C395.667 452.358 395.77 449.854 395.455 449.726C393.235 448.801 390.928 447.876 388.564 447.593C384.833 447.134 381.038 447.309 377.286 446.964C371.441 446.42 365.566 444.838 359.807 445.247C355.555 445.546 351.295 446.339 347.545 444.477C342.334 441.9 337.334 440.979 331.593 442.37C329.087 442.983 326.119 441.393 323.445 441.672C318.279 442.205 313.418 441.087 308.682 439.544C303.183 437.75 301.021 438.543 298.607 444.921L298.615 444.921ZM293.029 507.147C293.267 506.576 293.512 506.003 293.75 505.432C292.484 504.198 291.376 502.71 289.911 501.782C286.503 499.608 282.642 500.735 278.949 500.424C274.095 500.012 269.574 498.551 264.329 498.774C256.11 499.123 247.79 496.757 239.495 495.7C235.988 495.251 232.432 495.038 228.896 495.028C226.481 495.028 224.252 495.788 224.2 499.455C230.012 500.392 235.679 501.311 241.353 502.214C245.218 502.826 249.156 503.931 251.278 501.204C255.933 502.572 259.912 505.064 263.263 504.4C267.439 503.568 270.811 504.824 274.563 505.328C280.682 506.155 286.863 506.571 293.014 507.157L293.029 507.147ZM419.723 493.822C422.381 498.541 425.614 500.153 430.049 499.851C432.716 499.668 435.426 500.163 438.121 500.35C439.809 500.47 441.777 501.174 443.138 500.555C446.121 499.221 448.37 500.199 450.878 501.548C451.742 502.011 453.537 502.089 454.116 501.523C456.807 498.914 459.194 500.165 461.971 501.345C465.926 503.021 470.105 504.96 474.256 501.787C475.202 501.066 475.766 499.851 476.51 498.864C475.417 498.407 474.352 497.758 473.211 497.544C470.678 497.071 467.424 497.67 465.699 496.291C462.941 494.092 460.932 494.504 458.208 495.718C456.648 496.42 454.391 497.055 453.027 496.435C449.078 494.648 445.477 493.66 440.84 494.244C434.83 495.003 428.575 493.848 422.43 493.555C421.592 493.519 420.737 493.706 419.722 493.806L419.723 493.822ZM457.219 456.017C450.895 455.043 445.55 452.074 439.41 453.768C438.095 454.128 436.52 453.782 435.111 453.516C428.455 452.234 421.835 450.757 415.158 449.58C412.595 449.125 409.892 449.026 407.314 449.304C406.056 449.436 404.927 450.802 403.736 451.611C404.637 452.769 405.333 454.599 406.481 454.963C408.801 455.695 411.37 455.72 413.847 455.873C418.516 456.168 423.633 455.211 427.771 456.821C434.587 459.486 441.442 460.447 448.553 460.62C451.786 460.699 454.791 459.831 457.22 456.025L457.219 456.017ZM226.181 479.249C230.737 482.351 235.921 483.771 240.178 482.231C245.808 480.191 250.046 482.085 254.791 483.882C256.4 484.494 258.355 484.905 260.008 484.591C265.055 483.649 269.966 482.379 275.156 484.012C277.836 484.852 278.404 483.041 277.749 480.825C276.622 477.044 273.671 477.088 270.729 477.942C264.859 479.649 259.361 478.506 253.824 476.486C252.217 475.898 250.058 475.602 248.552 476.195C243.749 478.082 239.087 477.771 234.273 476.474C231.359 475.689 228.57 475.844 226.189 479.248L226.181 479.249ZM465.37 541.404C459.095 540.124 452.989 538.938 446.916 537.607C443.953 536.961 441.045 536.072 438.127 535.239C437.138 534.955 436.207 534.221 435.235 534.19C430.454 534.041 425.672 533.956 420.895 534.093C420.016 534.116 418.819 535.116 418.426 535.965C418.145 536.58 418.702 538.202 419.311 538.491C421.354 539.474 423.545 540.433 425.765 540.707C429.118 541.124 432.798 540.173 435.878 541.196C443.711 543.785 451.675 544.795 459.823 544.93C462.012 544.969 464.358 544.92 465.369 541.397L465.37 541.404ZM216.832 529.24C216.622 529.689 216.412 530.139 216.201 530.581C217.471 531.457 218.66 532.96 220.01 533.121C229.236 534.198 238.497 534.985 247.752 535.877C250.077 536.1 252.462 536.112 254.729 536.635C260.168 537.894 265.5 539.601 270.973 540.651C272.35 540.92 274.077 539.416 275.637 538.722C274.237 537.898 272.928 536.621 271.422 536.333C267.842 535.637 263.872 536.147 260.619 534.808C256.528 533.121 252.981 530.254 248.218 532.463C247.716 532.695 246.941 532.326 246.29 532.247C238.898 531.323 231.517 530.343 224.118 529.499C221.708 529.228 219.261 529.31 216.831 529.232L216.832 529.24ZM410.376 469.577C406.15 468.778 402.478 467.71 398.761 467.472C393.74 467.149 388.653 467.761 383.638 467.413C378.286 467.035 372.996 465.824 367.651 465.358C366.273 465.24 364.766 466.548 363.312 467.2C364.206 468.446 364.851 470.154 366.061 470.829C367.583 471.68 369.589 472.047 371.354 471.976C375.8 471.792 380.237 470.87 384.67 470.95C389.166 471.031 393.843 471.333 398.089 472.67C402.747 474.142 406.454 474.118 410.375 469.569L410.376 469.577ZM218.991 513.266C218.851 513.773 218.709 514.271 218.568 514.778C220.871 518.157 224.781 518.574 228.365 518.912C237.106 519.743 245.948 519.587 254.478 522.154C255.084 522.333 255.893 522.404 256.416 522.146C257.491 521.611 259.278 520.8 259.261 520.142C259.229 519.009 258.283 517.315 257.291 516.92C255.017 516.008 252.454 515.149 250.078 515.303C244.001 515.711 238.372 512.683 232.146 513.662C227.89 514.328 223.387 513.453 218.999 513.265L218.991 513.266ZM346.063 528.685C346.014 529.15 345.957 529.624 345.908 530.09C351.126 531.451 356.296 533.618 361.583 533.979C368.772 534.463 375.873 534.859 382.868 536.752C384.32 537.141 386.093 536.354 388.129 536.051C384.823 531.682 381.402 529.858 376.764 529.87C371.57 529.881 366.176 530.365 361.445 527.344C355.791 523.73 351.111 527.591 346.063 528.685ZM277.594 441.518C278.556 442.417 279.267 443.181 280.076 443.816C283.263 446.33 287.339 446.492 290.307 444.365C292.674 442.67 292.742 440.947 290.263 439.492C287.075 437.613 283.566 436.664 280.155 438.724C277.216 440.507 274.802 439.951 272.105 438.294C267.971 435.762 260.43 437.681 257.538 441.779C259.973 445.614 263.945 444.087 267.35 444.784C271.525 445.636 275.13 446.019 277.585 441.511L277.594 441.518ZM416.342 493.774C412.749 492.46 409.384 491.115 405.933 490.033C404.768 489.663 403.159 489.536 402.145 490.049C398.326 492.006 394.706 491.386 391.274 489.444C388.119 487.658 385.405 487.846 382.569 490.024C380.177 491.864 380.049 493.878 382.841 494.477C387.88 495.553 393.091 495.874 398.238 496.431C400.647 496.695 403.17 496.414 405.47 497.022C409.971 498.207 413.047 497.578 416.334 493.767L416.342 493.774ZM329.795 510.952C330.203 510.34 331.718 509.11 331.66 507.956C331.548 505.854 323.137 501.837 321.078 502.707C315.985 504.869 311.298 504.791 306.671 501.283C304.224 499.427 300.53 500.641 299.312 503.351C297.733 506.842 300.977 507.675 302.857 508.054C307.488 509.011 312.264 509.272 316.991 509.759C320.891 510.161 324.8 510.491 329.795 510.952ZM246.146 556.268C244.525 551.59 243.609 550.83 240.831 550.619C234.341 550.139 227.867 549.41 221.369 549.01C217.133 548.752 213.028 549.411 209.475 552.62C221.651 554.05 233.498 557.864 246.146 556.268ZM378.459 492.494C378.499 491.934 378.54 491.382 378.58 490.822C375.121 489.574 371.61 488.442 368.208 487.054C361.786 484.437 354.626 488.368 348.261 484.713C347.512 484.287 345.208 485.26 344.649 486.189C344.179 486.982 344.947 488.813 345.626 489.898C346.21 490.826 347.361 491.793 348.396 491.969C354.098 492.924 359.95 494.667 365.542 494.1C369.679 493.677 373.395 489.712 378.451 492.487L378.459 492.494ZM303.885 526.469C304.055 525.611 304.225 524.76 304.403 523.9C301.466 522.879 298.596 521.406 295.565 520.95C291.475 520.32 287.261 520.529 283.104 520.263C278.732 519.987 274.369 519.487 269.991 519.315C269.234 519.286 267.985 520.244 267.773 520.987C267.595 521.601 268.443 523.034 269.118 523.27C271.437 524.074 273.857 524.773 276.288 525.01C280.314 525.4 284.377 525.357 288.418 525.571C293.575 525.833 298.724 526.168 303.878 526.47L303.885 526.469ZM285.883 484.123C290.408 487.721 295.705 487.707 301.121 487.523C303.82 487.432 306.692 487.387 309.202 488.196C312.148 489.145 313.971 488.791 315.19 485.835C311.861 482.612 308.202 480.708 303.224 481.374C300.934 481.679 298.25 480.966 296.101 479.954C291.319 477.701 288.425 478.645 285.875 484.124L285.883 484.123ZM380.161 568.619C375.999 565.645 372.487 563.052 367.041 565.59C364.899 566.588 361.135 565.791 358.877 564.488C354.152 561.76 350.287 562.689 346.25 565.494C350.09 570.923 375.085 573.457 380.161 568.619ZM408.766 573.292C411.53 574.338 413.654 575.408 415.899 575.941C418.558 576.569 421.346 576.644 424.045 577.109C428.312 577.848 432.534 578.854 436.813 579.473C440.037 579.942 442.704 578.877 444.072 575.668C440.657 574.868 437.406 574.045 434.115 573.368C431.593 572.846 429.026 572.519 426.483 572.102C424.077 571.712 421.493 571.768 419.313 570.846C415.541 569.248 412.512 569.864 408.758 573.285L408.766 573.292ZM270.99 556.783C273.39 558.247 275.061 559.973 276.977 560.308C283.857 561.521 290.806 562.385 297.757 563.115C300.085 563.362 301.099 560.839 299.863 558.53C298.453 555.904 294.353 554.291 291.762 555.809C288.653 557.633 285.889 557.309 282.862 555.78C279.284 553.972 275.625 553.602 270.99 556.783ZM471.751 520.463C471.602 519.914 471.445 519.373 471.296 518.824C467.568 518.405 463.856 517.889 460.123 517.581C454.806 517.144 449.476 516.748 444.14 516.614C443.2 516.588 442.231 517.954 441.278 518.684C442.245 519.796 443.15 521.796 444.19 521.876C451.895 522.436 459.631 522.738 467.357 522.787C468.819 522.794 470.283 521.283 471.751 520.463ZM391.135 516.014C388.192 510.084 387.519 509.467 381.953 510.699C377.615 511.658 373.719 512.193 370.025 508.958C368.929 508.002 367.112 507.855 365.612 507.391C362.507 506.434 360.429 507.751 358.247 511.167C361.484 512.421 364.21 513.964 367.132 514.51C372.538 515.519 378.236 513.369 383.612 516.572C385.308 517.581 388.374 516.286 391.143 516.013L391.135 516.014ZM259.768 456.43C252.199 455.968 244.88 455.379 237.552 455.171C235.711 455.114 233.831 456.269 231.968 456.873C233.647 458.034 235.183 459.829 237.017 460.228C242.626 461.439 248.333 462.204 254.032 462.961C257.913 463.484 259.902 461.183 259.768 456.43ZM310.358 559.672C313.06 563.95 316.035 566.096 319.842 566.03C324.601 565.951 329.302 564.812 333.908 567.369C334.639 567.774 336.684 565.793 338.122 564.913C337.254 563.767 336.596 561.925 335.491 561.589C327.638 559.209 319.556 559.418 310.365 559.664L310.358 559.672ZM479.181 479.607C480.668 479.46 481.452 479.605 481.946 479.295C483.26 478.442 484.452 477.395 485.691 476.423C484.332 475.858 482.984 474.831 481.624 474.814C475.594 474.725 469.608 475.164 463.722 472.916C462.451 472.43 458.903 474.312 458.63 475.578C458.065 478.232 460.511 479.103 463.065 479.145C468.714 479.24 474.361 479.47 479.181 479.615L479.181 479.607ZM341.575 528.682L341.708 527.62C335.821 526.079 329.912 524.644 324.067 522.964C318.892 521.48 317.07 522.017 313.477 527.153C318.139 527.782 322.78 527.634 326.789 529.146C332.054 531.137 336.716 530.408 341.575 528.682ZM389.819 535.304C393.589 538.658 407.702 541.129 412.172 539.242C412.873 538.943 413.828 537.911 413.742 537.364C413.588 536.362 412.887 534.811 412.155 534.644C410.05 534.161 407.812 534.262 405.63 534.128C403.712 534.007 401.55 534.402 399.919 533.65C394.266 531.021 394.339 530.871 389.827 535.303L389.819 535.304ZM306.527 541.668C306.457 542.088 306.386 542.5 306.317 542.92C308.276 543.378 310.222 544.1 312.207 544.254C318.868 544.773 325.768 542.568 332.176 546.084C332.595 546.312 333.379 546.442 333.69 546.212C334.643 545.491 335.45 544.569 336.313 543.73C335.542 542.995 334.793 541.687 333.987 541.647C331.528 541.524 329.049 542.007 326.581 542.027C324.985 542.042 322.86 542.235 321.882 541.346C316.447 536.409 311.556 539.337 306.543 541.674L306.527 541.668ZM268.624 555.833C256.607 550.527 252.865 550.689 247.954 557.122C252.115 558.071 256.09 558.744 259.914 559.908C264.041 561.162 266.77 559.995 268.624 555.833ZM256.127 442.704C249.239 435.677 242.375 434.868 232.847 439.668C234.524 440.726 235.707 442.015 237.073 442.246C241.937 443.078 246.849 443.674 251.766 444.071C253.079 444.18 254.481 443.248 256.119 442.705L256.127 442.704ZM445.827 480.2C446.783 479.415 448.496 478.42 449.519 476.953C449.965 476.321 449.195 473.831 448.609 473.682C446.923 473.26 444.817 473.095 443.295 473.769C440.684 474.924 438.583 475.29 435.995 473.614C434.621 472.725 432.566 472.673 430.822 472.71C430.157 472.728 429.068 474.019 429.002 474.796C428.937 475.589 429.772 477.048 430.439 477.204C435.241 478.296 440.097 479.12 445.827 480.2ZM404.951 571.34C404.579 570.781 404.413 570.225 404.137 570.165C399.274 569.103 394.435 567.888 389.513 567.269C388.459 567.134 385.587 568.466 387.352 571.064C390.827 576.179 401.193 576.405 404.951 571.34ZM346.236 545.27C346.114 545.648 345.984 546.026 345.863 546.403C346.873 547.146 347.788 548.207 348.92 548.573C352.014 549.578 355.166 550.523 358.363 551.05C361.691 551.604 365.106 551.76 368.482 551.833C369.278 551.849 370.089 550.816 370.893 550.268C370.227 549.389 369.718 548.255 368.844 547.69C368.03 547.166 366.842 547.204 365.804 547.068C360.497 546.336 355.187 545.58 349.859 544.953C348.677 544.815 347.439 545.152 346.228 545.271L346.236 545.27ZM416.909 517.74C419.161 520.203 432.748 522.249 434.973 520.242C435.389 519.868 434.982 517.596 434.33 517.184C432.474 516 430.3 515.301 428.238 514.447C423.964 512.676 419.903 513.871 416.909 517.748L416.909 517.74ZM395.149 516.921C400.145 518.2 404.333 519.432 408.609 520.258C409.524 520.438 410.897 519.294 411.718 518.434C412.042 518.093 411.658 516.693 411.197 516.047C407.122 510.324 400.5 510.198 395.149 516.921ZM352.263 511.63C351.295 510.272 350.845 509.657 350.41 509.032C347.87 505.422 343.944 505.237 340.163 505.244C338.678 505.247 337.192 506.537 335.712 507.239C336.955 508.721 337.921 510.866 339.512 511.536C342.238 512.681 345.326 513.14 348.308 513.418C349.471 513.526 350.746 512.359 352.264 511.638L352.263 511.63ZM457.64 456.015C461.382 461.58 467.554 462.783 472.95 459.098C474.989 457.706 474.939 456.153 472.716 455.435C467.696 453.825 462.515 451.88 457.648 456.014L457.64 456.015ZM441.802 559.964C441.802 559.964 443.023 559.375 443.327 558.503C443.525 557.935 442.618 556.468 441.907 556.188C438.173 554.737 434.415 553.113 430.512 552.449C428.896 552.172 426.905 554.131 425.075 555.066C426.063 556.232 426.901 558.207 428.067 558.426C432.236 559.222 436.522 559.428 441.801 559.956L441.802 559.964ZM320.414 486.861C322.693 489.592 329.908 491.78 332.88 490.423C333.959 489.928 335.309 488.794 335.45 487.803C335.586 486.852 334.53 485.399 333.602 484.696C329.531 481.594 323.7 482.637 320.415 486.869L320.414 486.861ZM401.76 551.525C401.66 552.122 401.568 552.719 401.469 553.325C402.402 554.17 403.241 555.589 404.283 555.772C408.283 556.459 412.339 556.829 416.392 557.082C416.847 557.108 417.981 555.233 417.809 555.02C416.69 553.581 415.386 551.39 413.975 551.259C409.943 550.885 405.829 551.378 401.753 551.533L401.76 551.525ZM334.233 462.391C335.964 465.771 337.986 468.074 341.791 467.906C344.583 467.782 347.368 467.595 350.146 467.321C351.082 467.229 351.983 466.783 353.008 466.459C351.079 463.408 339.792 461.001 334.233 462.391ZM392.56 554.981C391.235 550.647 386.231 546.461 383.198 546.315C379.838 546.154 378.209 548.483 376.442 551.279C381.815 552.513 386.773 553.653 392.568 554.98L392.56 554.981ZM297.954 538.183C292.932 537.606 288.231 537.06 283.169 536.478C283.339 542.554 287.822 541.7 290.732 542.612C294.086 543.672 296.984 543.013 297.953 538.175L297.954 538.183ZM277.988 460.672C275.124 457.65 271.789 457.502 268.354 458.039C265.499 458.487 265.759 460.161 267.197 461.934C270.073 465.487 273.808 465.096 277.988 460.672ZM302.557 460.34C301.133 460.481 300.545 460.396 300.098 460.615C298.953 461.172 297.877 461.858 296.764 462.5C297.772 463.537 298.633 465.184 299.83 465.479C301.768 465.955 303.98 465.832 305.954 465.384C306.855 465.176 308.034 463.598 308.006 462.671C307.982 461.863 306.553 460.749 305.536 460.42C304.362 460.036 302.955 460.349 302.55 460.349L302.557 460.34ZM279.364 462.221C282.087 463.581 284.156 465.069 286.445 465.558C287.589 465.803 289.117 464.223 290.473 463.469C289.715 462.305 289.216 460.63 288.145 460.076C285.258 458.589 282.42 459.06 279.364 462.221ZM318.889 461.297C317.979 461.824 316.694 462.244 315.986 463.124C315.675 463.512 316.341 465.433 316.917 465.638C319.098 466.4 321.423 467.021 323.71 467.098C324.524 467.129 325.576 465.556 326.116 464.509C326.264 464.233 325.025 462.861 324.216 462.552C322.655 461.951 320.944 461.754 318.889 461.297ZM414.504 470.433C415.893 477.279 421.635 479.2 426.352 475.311C424.518 474.435 422.709 473.493 420.829 472.717C418.916 471.921 416.924 471.299 414.504 470.433ZM242.983 411.374C239.956 409.75 237.855 408.423 235.588 407.503C234.528 407.067 233.081 407.218 231.938 407.545C231.543 407.655 231.107 409.517 231.437 409.882C232.254 410.755 233.48 411.667 234.592 411.748C236.968 411.919 239.381 411.578 242.976 411.382L242.983 411.374ZM529.247 229.868C526.927 228.738 525.627 227.563 524.489 227.699C523.5 227.821 521.812 229.639 521.983 230.322C522.296 231.562 523.815 233.438 524.714 233.373C525.953 233.283 527.086 231.646 529.247 229.868Z"/>
</mask>
<path d="M331.658 593.559C327.891 598.061 324.203 602.635 320.323 607.029C317.45 610.283 314.325 613.316 311.304 616.441C308.067 619.779 304.117 621.296 299.503 620.67C282.967 618.439 266.437 616.112 249.893 613.889C240.249 612.591 230.607 611.245 220.923 610.269C217.08 609.885 215.933 608.084 216.972 604.843C218.614 599.733 220.624 594.737 222.478 589.692C223.137 587.911 223.811 586.129 224.284 584.883C218.973 590.721 213.457 596.817 207.897 602.87C207.014 603.831 206.025 604.842 204.871 605.376C203.755 605.9 202.1 606.364 201.187 605.882C200.399 605.467 199.827 603.609 200.017 602.55C200.608 599.203 201.555 595.916 202.472 592.64C202.961 590.908 203.67 589.242 203.633 587.172C199.866 592.071 195.886 596.832 192.4 601.926C189.976 605.462 187.001 606.057 183.201 605.311C174.939 603.686 166.673 602.11 158.388 600.591C152.968 599.591 147.516 598.762 142.089 597.788C140.585 597.515 139.128 596.999 137.161 596.462C139.978 591.839 142.551 587.638 145.1 583.43C145.864 582.163 146.712 580.928 147.31 579.582C148.051 577.912 148.451 576.086 149.209 574.422C151.384 569.656 153.559 564.882 155.935 560.215C159.251 553.716 165.392 550.982 171.855 548.852C173.964 548.16 176.185 547.806 178.755 547.203C176.231 545.291 173.933 543.658 171.748 541.88C168.994 539.641 168.155 536.856 169.511 533.441C171.349 528.796 173.277 524.181 174.812 519.438C176.523 514.154 180.343 511.402 185.172 509.377C189.361 507.622 193.393 505.493 198.453 503.072C194.399 499.818 191.194 497.202 187.94 494.655C185.909 493.068 185.539 491.333 186.337 488.783C195.305 460.073 204.076 431.302 213.133 402.614C214.017 399.81 216.064 397.129 218.183 395.014C220.649 392.547 223.933 391.771 227.587 393.46C225.097 390.202 222.398 387.076 220.215 383.621C219.292 382.163 218.87 379.893 219.212 378.199C220.979 369.445 223.07 360.763 225.048 352.053C225.863 348.469 227.93 346.55 231.7 345.797C237.87 344.561 243.931 342.781 249.626 341.33C244.043 337.709 238.352 334.211 232.884 330.396C229.745 328.211 228.8 325.071 229.254 321.046C230.028 314.154 229.968 307.17 230.518 300.252C231.022 293.927 231.991 287.635 232.527 281.306C233.238 272.959 233.724 264.586 234.323 256.233C234.406 255.058 234.511 253.871 234.764 252.727C236.431 245.143 238.296 243.505 246.022 243.387C250.939 243.308 255.858 243.57 261.615 243.702C257.614 241.149 254.471 238.766 251.009 237.01C241.167 232.013 237.865 224.784 239.729 213.543C242.145 198.966 242.736 184.085 244.039 169.324C244.528 163.81 244.43 163.78 249.884 163.751C272.49 163.645 295.094 163.276 317.695 163.528C337.799 163.748 357.892 164.667 377.993 165.261C392.024 165.686 406.024 165.099 420.06 165.31C434.524 165.53 448.982 166.178 463.442 166.438C468.503 166.527 472.606 168.347 475.856 171.824C478.196 170.171 480.141 168.383 482.422 167.269C486.552 165.249 488.125 165.809 488.755 170.267C489.344 174.475 488.886 178.857 488.586 183.145C488.358 186.472 487.657 189.766 487.166 193.079C487.509 193.181 487.861 193.281 488.204 193.382C488.765 191.897 489.367 190.424 489.886 188.919C491.833 183.206 493.607 177.423 495.736 171.78C497.215 167.853 500.248 166.378 504.555 166.883C522.952 169.042 541.362 171.026 559.769 173.128C562.115 173.398 564.316 173.65 564.207 177.219C563.862 188.788 563.898 200.358 563.695 211.929C563.582 218.033 561.485 219.487 555.707 217.363C551.545 215.835 547.515 213.96 542.972 212.922C548.569 218.05 554.032 223.343 559.836 228.228C562.443 230.426 563.604 232.615 563.208 236.007C561.021 254.533 558.987 273.068 556.841 291.598C556.12 297.825 555.327 304.052 554.381 310.254C553.658 315.004 553.119 315.343 548.842 313.54C542.361 310.803 535.99 307.824 529.567 304.954C528.262 304.375 526.946 303.83 525.062 303.904C526.352 304.984 527.615 306.107 528.948 307.136C535.706 312.356 542.47 317.56 549.249 322.747C551.766 324.668 552.686 326.754 551.894 330.16C550.231 337.307 549.09 344.592 547.946 351.847C547.261 356.188 544.813 358.828 540.744 359.706C530.336 361.939 519.879 363.93 509.438 365.999C508.721 366.142 507.976 366.152 507.174 367.041C513.836 368.553 520.53 369.975 527.158 371.617C531.49 372.684 535.79 373.921 539.981 375.422C541.167 375.846 542.881 377.766 542.669 378.518C542.238 380.022 540.845 382.01 539.488 382.35C535.572 383.324 531.491 383.821 527.448 384.069C520.499 384.491 513.524 384.575 506.558 384.824C506.107 384.837 505.664 385.103 504.04 385.628C506.208 386.424 507.305 386.919 508.455 387.227C517.052 389.502 525.655 391.752 534.263 393.978C537.801 394.893 539.141 396.89 538.311 400.634C537.028 406.4 536.038 412.233 535.03 418.052C534.287 422.36 531.812 425.058 527.854 426.727C521.943 429.224 516.095 431.865 509.972 434.55C515.333 437.12 520.241 439.52 525.196 441.836C528.351 443.304 529.505 445.264 528.649 448.987C525.398 463.074 522.448 477.234 519.513 491.394C518.689 495.367 516.582 498.006 512.882 499.554C509.357 501.029 505.882 502.603 502.409 504.2C501.178 504.766 500.038 505.538 498.737 506.278C502.574 508.132 506.119 509.53 509.265 511.548C510.41 512.277 511.284 514.622 511.067 516.042C510.415 520.308 509.544 524.612 508.075 528.657C500.48 549.686 493.134 570.834 484.769 591.557C479.463 604.703 472.619 617.237 466.269 629.946C463.542 635.402 455.584 637.759 450.45 634.515C448.883 633.525 447.859 630.87 447.564 628.841C446.657 622.623 446.228 616.326 445.573 609.686C444.721 611.272 443.793 612.825 443.023 614.442C439.977 620.851 437.022 627.306 433.917 633.681C433.539 634.449 432.427 634.853 431.658 635.429C431.163 634.676 430.675 633.913 430.058 632.973C425.044 636.351 419.401 634.945 413.815 634.288C385.878 630.995 357.932 627.703 329.994 624.403C329.207 624.313 328.426 624.208 327.645 624.102C322.554 623.388 321.087 620.991 323.024 616.145C325.664 609.561 328.461 603.034 331.176 596.483C331.515 595.655 331.771 594.788 332.06 593.933C331.921 593.812 331.789 593.682 331.65 593.56L331.658 593.559ZM392.656 269.796C392.656 269.796 373.791 239.222 352.981 240.356C330.77 241.567 313.384 259.899 312.443 282.679C311.634 302.126 316.639 320.349 325.511 337.348C334.628 354.816 344.779 371.737 354.516 388.882C358.062 395.126 361.707 401.32 365.287 407.505C371.379 402.576 377.191 397.706 383.176 393.065C409.066 372.997 435.377 353.413 456.716 328.202C468.927 313.78 475.757 297.633 473.238 278.204C470.559 257.544 447.789 235.821 422.051 246.706C408.83 252.295 392.656 269.796 392.656 269.796ZM298.615 444.921C304.379 446.656 309.894 449.179 315.537 446.224C318.657 444.59 320.783 445.366 323.484 446.744C325.725 447.882 328.408 449.071 330.771 448.862C335.22 448.463 339.627 446.353 343.743 449.904C343.969 450.104 344.526 450.033 344.898 449.941C349.791 448.807 354.465 449.8 359.22 450.984C361.411 451.531 363.888 450.945 366.237 450.849C367.131 450.809 368.056 450.519 368.911 450.657C375.431 451.762 381.901 453.174 388.456 453.99C390.668 454.265 393.098 453.215 395.321 452.472C395.667 452.358 395.77 449.854 395.455 449.726C393.235 448.801 390.928 447.876 388.564 447.593C384.833 447.134 381.038 447.309 377.286 446.964C371.441 446.42 365.566 444.838 359.807 445.247C355.555 445.546 351.295 446.339 347.545 444.477C342.334 441.9 337.334 440.979 331.593 442.37C329.087 442.983 326.119 441.393 323.445 441.672C318.279 442.205 313.418 441.087 308.682 439.544C303.183 437.75 301.021 438.543 298.607 444.921L298.615 444.921ZM293.029 507.147C293.267 506.576 293.512 506.003 293.75 505.432C292.484 504.198 291.376 502.71 289.911 501.782C286.503 499.608 282.642 500.735 278.949 500.424C274.095 500.012 269.574 498.551 264.329 498.774C256.11 499.123 247.79 496.757 239.495 495.7C235.988 495.251 232.432 495.038 228.896 495.028C226.481 495.028 224.252 495.788 224.2 499.455C230.012 500.392 235.679 501.311 241.353 502.214C245.218 502.826 249.156 503.931 251.278 501.204C255.933 502.572 259.912 505.064 263.263 504.4C267.439 503.568 270.811 504.824 274.563 505.328C280.682 506.155 286.863 506.571 293.014 507.157L293.029 507.147ZM419.723 493.822C422.381 498.541 425.614 500.153 430.049 499.851C432.716 499.668 435.426 500.163 438.121 500.35C439.809 500.47 441.777 501.174 443.138 500.555C446.121 499.221 448.37 500.199 450.878 501.548C451.742 502.011 453.537 502.089 454.116 501.523C456.807 498.914 459.194 500.165 461.971 501.345C465.926 503.021 470.105 504.96 474.256 501.787C475.202 501.066 475.766 499.851 476.51 498.864C475.417 498.407 474.352 497.758 473.211 497.544C470.678 497.071 467.424 497.67 465.699 496.291C462.941 494.092 460.932 494.504 458.208 495.718C456.648 496.42 454.391 497.055 453.027 496.435C449.078 494.648 445.477 493.66 440.84 494.244C434.83 495.003 428.575 493.848 422.43 493.555C421.592 493.519 420.737 493.706 419.722 493.806L419.723 493.822ZM457.219 456.017C450.895 455.043 445.55 452.074 439.41 453.768C438.095 454.128 436.52 453.782 435.111 453.516C428.455 452.234 421.835 450.757 415.158 449.58C412.595 449.125 409.892 449.026 407.314 449.304C406.056 449.436 404.927 450.802 403.736 451.611C404.637 452.769 405.333 454.599 406.481 454.963C408.801 455.695 411.37 455.72 413.847 455.873C418.516 456.168 423.633 455.211 427.771 456.821C434.587 459.486 441.442 460.447 448.553 460.62C451.786 460.699 454.791 459.831 457.22 456.025L457.219 456.017ZM226.181 479.249C230.737 482.351 235.921 483.771 240.178 482.231C245.808 480.191 250.046 482.085 254.791 483.882C256.4 484.494 258.355 484.905 260.008 484.591C265.055 483.649 269.966 482.379 275.156 484.012C277.836 484.852 278.404 483.041 277.749 480.825C276.622 477.044 273.671 477.088 270.729 477.942C264.859 479.649 259.361 478.506 253.824 476.486C252.217 475.898 250.058 475.602 248.552 476.195C243.749 478.082 239.087 477.771 234.273 476.474C231.359 475.689 228.57 475.844 226.189 479.248L226.181 479.249ZM465.37 541.404C459.095 540.124 452.989 538.938 446.916 537.607C443.953 536.961 441.045 536.072 438.127 535.239C437.138 534.955 436.207 534.221 435.235 534.19C430.454 534.041 425.672 533.956 420.895 534.093C420.016 534.116 418.819 535.116 418.426 535.965C418.145 536.58 418.702 538.202 419.311 538.491C421.354 539.474 423.545 540.433 425.765 540.707C429.118 541.124 432.798 540.173 435.878 541.196C443.711 543.785 451.675 544.795 459.823 544.93C462.012 544.969 464.358 544.92 465.369 541.397L465.37 541.404ZM216.832 529.24C216.622 529.689 216.412 530.139 216.201 530.581C217.471 531.457 218.66 532.96 220.01 533.121C229.236 534.198 238.497 534.985 247.752 535.877C250.077 536.1 252.462 536.112 254.729 536.635C260.168 537.894 265.5 539.601 270.973 540.651C272.35 540.92 274.077 539.416 275.637 538.722C274.237 537.898 272.928 536.621 271.422 536.333C267.842 535.637 263.872 536.147 260.619 534.808C256.528 533.121 252.981 530.254 248.218 532.463C247.716 532.695 246.941 532.326 246.29 532.247C238.898 531.323 231.517 530.343 224.118 529.499C221.708 529.228 219.261 529.31 216.831 529.232L216.832 529.24ZM410.376 469.577C406.15 468.778 402.478 467.71 398.761 467.472C393.74 467.149 388.653 467.761 383.638 467.413C378.286 467.035 372.996 465.824 367.651 465.358C366.273 465.24 364.766 466.548 363.312 467.2C364.206 468.446 364.851 470.154 366.061 470.829C367.583 471.68 369.589 472.047 371.354 471.976C375.8 471.792 380.237 470.87 384.67 470.95C389.166 471.031 393.843 471.333 398.089 472.67C402.747 474.142 406.454 474.118 410.375 469.569L410.376 469.577ZM218.991 513.266C218.851 513.773 218.709 514.271 218.568 514.778C220.871 518.157 224.781 518.574 228.365 518.912C237.106 519.743 245.948 519.587 254.478 522.154C255.084 522.333 255.893 522.404 256.416 522.146C257.491 521.611 259.278 520.8 259.261 520.142C259.229 519.009 258.283 517.315 257.291 516.92C255.017 516.008 252.454 515.149 250.078 515.303C244.001 515.711 238.372 512.683 232.146 513.662C227.89 514.328 223.387 513.453 218.999 513.265L218.991 513.266ZM346.063 528.685C346.014 529.15 345.957 529.624 345.908 530.09C351.126 531.451 356.296 533.618 361.583 533.979C368.772 534.463 375.873 534.859 382.868 536.752C384.32 537.141 386.093 536.354 388.129 536.051C384.823 531.682 381.402 529.858 376.764 529.87C371.57 529.881 366.176 530.365 361.445 527.344C355.791 523.73 351.111 527.591 346.063 528.685ZM277.594 441.518C278.556 442.417 279.267 443.181 280.076 443.816C283.263 446.33 287.339 446.492 290.307 444.365C292.674 442.67 292.742 440.947 290.263 439.492C287.075 437.613 283.566 436.664 280.155 438.724C277.216 440.507 274.802 439.951 272.105 438.294C267.971 435.762 260.43 437.681 257.538 441.779C259.973 445.614 263.945 444.087 267.35 444.784C271.525 445.636 275.13 446.019 277.585 441.511L277.594 441.518ZM416.342 493.774C412.749 492.46 409.384 491.115 405.933 490.033C404.768 489.663 403.159 489.536 402.145 490.049C398.326 492.006 394.706 491.386 391.274 489.444C388.119 487.658 385.405 487.846 382.569 490.024C380.177 491.864 380.049 493.878 382.841 494.477C387.88 495.553 393.091 495.874 398.238 496.431C400.647 496.695 403.17 496.414 405.47 497.022C409.971 498.207 413.047 497.578 416.334 493.767L416.342 493.774ZM329.795 510.952C330.203 510.34 331.718 509.11 331.66 507.956C331.548 505.854 323.137 501.837 321.078 502.707C315.985 504.869 311.298 504.791 306.671 501.283C304.224 499.427 300.53 500.641 299.312 503.351C297.733 506.842 300.977 507.675 302.857 508.054C307.488 509.011 312.264 509.272 316.991 509.759C320.891 510.161 324.8 510.491 329.795 510.952ZM246.146 556.268C244.525 551.59 243.609 550.83 240.831 550.619C234.341 550.139 227.867 549.41 221.369 549.01C217.133 548.752 213.028 549.411 209.475 552.62C221.651 554.05 233.498 557.864 246.146 556.268ZM378.459 492.494C378.499 491.934 378.54 491.382 378.58 490.822C375.121 489.574 371.61 488.442 368.208 487.054C361.786 484.437 354.626 488.368 348.261 484.713C347.512 484.287 345.208 485.26 344.649 486.189C344.179 486.982 344.947 488.813 345.626 489.898C346.21 490.826 347.361 491.793 348.396 491.969C354.098 492.924 359.95 494.667 365.542 494.1C369.679 493.677 373.395 489.712 378.451 492.487L378.459 492.494ZM303.885 526.469C304.055 525.611 304.225 524.76 304.403 523.9C301.466 522.879 298.596 521.406 295.565 520.95C291.475 520.32 287.261 520.529 283.104 520.263C278.732 519.987 274.369 519.487 269.991 519.315C269.234 519.286 267.985 520.244 267.773 520.987C267.595 521.601 268.443 523.034 269.118 523.27C271.437 524.074 273.857 524.773 276.288 525.01C280.314 525.4 284.377 525.357 288.418 525.571C293.575 525.833 298.724 526.168 303.878 526.47L303.885 526.469ZM285.883 484.123C290.408 487.721 295.705 487.707 301.121 487.523C303.82 487.432 306.692 487.387 309.202 488.196C312.148 489.145 313.971 488.791 315.19 485.835C311.861 482.612 308.202 480.708 303.224 481.374C300.934 481.679 298.25 480.966 296.101 479.954C291.319 477.701 288.425 478.645 285.875 484.124L285.883 484.123ZM380.161 568.619C375.999 565.645 372.487 563.052 367.041 565.59C364.899 566.588 361.135 565.791 358.877 564.488C354.152 561.76 350.287 562.689 346.25 565.494C350.09 570.923 375.085 573.457 380.161 568.619ZM408.766 573.292C411.53 574.338 413.654 575.408 415.899 575.941C418.558 576.569 421.346 576.644 424.045 577.109C428.312 577.848 432.534 578.854 436.813 579.473C440.037 579.942 442.704 578.877 444.072 575.668C440.657 574.868 437.406 574.045 434.115 573.368C431.593 572.846 429.026 572.519 426.483 572.102C424.077 571.712 421.493 571.768 419.313 570.846C415.541 569.248 412.512 569.864 408.758 573.285L408.766 573.292ZM270.99 556.783C273.39 558.247 275.061 559.973 276.977 560.308C283.857 561.521 290.806 562.385 297.757 563.115C300.085 563.362 301.099 560.839 299.863 558.53C298.453 555.904 294.353 554.291 291.762 555.809C288.653 557.633 285.889 557.309 282.862 555.78C279.284 553.972 275.625 553.602 270.99 556.783ZM471.751 520.463C471.602 519.914 471.445 519.373 471.296 518.824C467.568 518.405 463.856 517.889 460.123 517.581C454.806 517.144 449.476 516.748 444.14 516.614C443.2 516.588 442.231 517.954 441.278 518.684C442.245 519.796 443.15 521.796 444.19 521.876C451.895 522.436 459.631 522.738 467.357 522.787C468.819 522.794 470.283 521.283 471.751 520.463ZM391.135 516.014C388.192 510.084 387.519 509.467 381.953 510.699C377.615 511.658 373.719 512.193 370.025 508.958C368.929 508.002 367.112 507.855 365.612 507.391C362.507 506.434 360.429 507.751 358.247 511.167C361.484 512.421 364.21 513.964 367.132 514.51C372.538 515.519 378.236 513.369 383.612 516.572C385.308 517.581 388.374 516.286 391.143 516.013L391.135 516.014ZM259.768 456.43C252.199 455.968 244.88 455.379 237.552 455.171C235.711 455.114 233.831 456.269 231.968 456.873C233.647 458.034 235.183 459.829 237.017 460.228C242.626 461.439 248.333 462.204 254.032 462.961C257.913 463.484 259.902 461.183 259.768 456.43ZM310.358 559.672C313.06 563.95 316.035 566.096 319.842 566.03C324.601 565.951 329.302 564.812 333.908 567.369C334.639 567.774 336.684 565.793 338.122 564.913C337.254 563.767 336.596 561.925 335.491 561.589C327.638 559.209 319.556 559.418 310.365 559.664L310.358 559.672ZM479.181 479.607C480.668 479.46 481.452 479.605 481.946 479.295C483.26 478.442 484.452 477.395 485.691 476.423C484.332 475.858 482.984 474.831 481.624 474.814C475.594 474.725 469.608 475.164 463.722 472.916C462.451 472.43 458.903 474.312 458.63 475.578C458.065 478.232 460.511 479.103 463.065 479.145C468.714 479.24 474.361 479.47 479.181 479.615L479.181 479.607ZM341.575 528.682L341.708 527.62C335.821 526.079 329.912 524.644 324.067 522.964C318.892 521.48 317.07 522.017 313.477 527.153C318.139 527.782 322.78 527.634 326.789 529.146C332.054 531.137 336.716 530.408 341.575 528.682ZM389.819 535.304C393.589 538.658 407.702 541.129 412.172 539.242C412.873 538.943 413.828 537.911 413.742 537.364C413.588 536.362 412.887 534.811 412.155 534.644C410.05 534.161 407.812 534.262 405.63 534.128C403.712 534.007 401.55 534.402 399.919 533.65C394.266 531.021 394.339 530.871 389.827 535.303L389.819 535.304ZM306.527 541.668C306.457 542.088 306.386 542.5 306.317 542.92C308.276 543.378 310.222 544.1 312.207 544.254C318.868 544.773 325.768 542.568 332.176 546.084C332.595 546.312 333.379 546.442 333.69 546.212C334.643 545.491 335.45 544.569 336.313 543.73C335.542 542.995 334.793 541.687 333.987 541.647C331.528 541.524 329.049 542.007 326.581 542.027C324.985 542.042 322.86 542.235 321.882 541.346C316.447 536.409 311.556 539.337 306.543 541.674L306.527 541.668ZM268.624 555.833C256.607 550.527 252.865 550.689 247.954 557.122C252.115 558.071 256.09 558.744 259.914 559.908C264.041 561.162 266.77 559.995 268.624 555.833ZM256.127 442.704C249.239 435.677 242.375 434.868 232.847 439.668C234.524 440.726 235.707 442.015 237.073 442.246C241.937 443.078 246.849 443.674 251.766 444.071C253.079 444.18 254.481 443.248 256.119 442.705L256.127 442.704ZM445.827 480.2C446.783 479.415 448.496 478.42 449.519 476.953C449.965 476.321 449.195 473.831 448.609 473.682C446.923 473.26 444.817 473.095 443.295 473.769C440.684 474.924 438.583 475.29 435.995 473.614C434.621 472.725 432.566 472.673 430.822 472.71C430.157 472.728 429.068 474.019 429.002 474.796C428.937 475.589 429.772 477.048 430.439 477.204C435.241 478.296 440.097 479.12 445.827 480.2ZM404.951 571.34C404.579 570.781 404.413 570.225 404.137 570.165C399.274 569.103 394.435 567.888 389.513 567.269C388.459 567.134 385.587 568.466 387.352 571.064C390.827 576.179 401.193 576.405 404.951 571.34ZM346.236 545.27C346.114 545.648 345.984 546.026 345.863 546.403C346.873 547.146 347.788 548.207 348.92 548.573C352.014 549.578 355.166 550.523 358.363 551.05C361.691 551.604 365.106 551.76 368.482 551.833C369.278 551.849 370.089 550.816 370.893 550.268C370.227 549.389 369.718 548.255 368.844 547.69C368.03 547.166 366.842 547.204 365.804 547.068C360.497 546.336 355.187 545.58 349.859 544.953C348.677 544.815 347.439 545.152 346.228 545.271L346.236 545.27ZM416.909 517.74C419.161 520.203 432.748 522.249 434.973 520.242C435.389 519.868 434.982 517.596 434.33 517.184C432.474 516 430.3 515.301 428.238 514.447C423.964 512.676 419.903 513.871 416.909 517.748L416.909 517.74ZM395.149 516.921C400.145 518.2 404.333 519.432 408.609 520.258C409.524 520.438 410.897 519.294 411.718 518.434C412.042 518.093 411.658 516.693 411.197 516.047C407.122 510.324 400.5 510.198 395.149 516.921ZM352.263 511.63C351.295 510.272 350.845 509.657 350.41 509.032C347.87 505.422 343.944 505.237 340.163 505.244C338.678 505.247 337.192 506.537 335.712 507.239C336.955 508.721 337.921 510.866 339.512 511.536C342.238 512.681 345.326 513.14 348.308 513.418C349.471 513.526 350.746 512.359 352.264 511.638L352.263 511.63ZM457.64 456.015C461.382 461.58 467.554 462.783 472.95 459.098C474.989 457.706 474.939 456.153 472.716 455.435C467.696 453.825 462.515 451.88 457.648 456.014L457.64 456.015ZM441.802 559.964C441.802 559.964 443.023 559.375 443.327 558.503C443.525 557.935 442.618 556.468 441.907 556.188C438.173 554.737 434.415 553.113 430.512 552.449C428.896 552.172 426.905 554.131 425.075 555.066C426.063 556.232 426.901 558.207 428.067 558.426C432.236 559.222 436.522 559.428 441.801 559.956L441.802 559.964ZM320.414 486.861C322.693 489.592 329.908 491.78 332.88 490.423C333.959 489.928 335.309 488.794 335.45 487.803C335.586 486.852 334.53 485.399 333.602 484.696C329.531 481.594 323.7 482.637 320.415 486.869L320.414 486.861ZM401.76 551.525C401.66 552.122 401.568 552.719 401.469 553.325C402.402 554.17 403.241 555.589 404.283 555.772C408.283 556.459 412.339 556.829 416.392 557.082C416.847 557.108 417.981 555.233 417.809 555.02C416.69 553.581 415.386 551.39 413.975 551.259C409.943 550.885 405.829 551.378 401.753 551.533L401.76 551.525ZM334.233 462.391C335.964 465.771 337.986 468.074 341.791 467.906C344.583 467.782 347.368 467.595 350.146 467.321C351.082 467.229 351.983 466.783 353.008 466.459C351.079 463.408 339.792 461.001 334.233 462.391ZM392.56 554.981C391.235 550.647 386.231 546.461 383.198 546.315C379.838 546.154 378.209 548.483 376.442 551.279C381.815 552.513 386.773 553.653 392.568 554.98L392.56 554.981ZM297.954 538.183C292.932 537.606 288.231 537.06 283.169 536.478C283.339 542.554 287.822 541.7 290.732 542.612C294.086 543.672 296.984 543.013 297.953 538.175L297.954 538.183ZM277.988 460.672C275.124 457.65 271.789 457.502 268.354 458.039C265.499 458.487 265.759 460.161 267.197 461.934C270.073 465.487 273.808 465.096 277.988 460.672ZM302.557 460.34C301.133 460.481 300.545 460.396 300.098 460.615C298.953 461.172 297.877 461.858 296.764 462.5C297.772 463.537 298.633 465.184 299.83 465.479C301.768 465.955 303.98 465.832 305.954 465.384C306.855 465.176 308.034 463.598 308.006 462.671C307.982 461.863 306.553 460.749 305.536 460.42C304.362 460.036 302.955 460.349 302.55 460.349L302.557 460.34ZM279.364 462.221C282.087 463.581 284.156 465.069 286.445 465.558C287.589 465.803 289.117 464.223 290.473 463.469C289.715 462.305 289.216 460.63 288.145 460.076C285.258 458.589 282.42 459.06 279.364 462.221ZM318.889 461.297C317.979 461.824 316.694 462.244 315.986 463.124C315.675 463.512 316.341 465.433 316.917 465.638C319.098 466.4 321.423 467.021 323.71 467.098C324.524 467.129 325.576 465.556 326.116 464.509C326.264 464.233 325.025 462.861 324.216 462.552C322.655 461.951 320.944 461.754 318.889 461.297ZM414.504 470.433C415.893 477.279 421.635 479.2 426.352 475.311C424.518 474.435 422.709 473.493 420.829 472.717C418.916 471.921 416.924 471.299 414.504 470.433ZM242.983 411.374C239.956 409.75 237.855 408.423 235.588 407.503C234.528 407.067 233.081 407.218 231.938 407.545C231.543 407.655 231.107 409.517 231.437 409.882C232.254 410.755 233.48 411.667 234.592 411.748C236.968 411.919 239.381 411.578 242.976 411.382L242.983 411.374ZM529.247 229.868C526.927 228.738 525.627 227.563 524.489 227.699C523.5 227.821 521.812 229.639 521.983 230.322C522.296 231.562 523.815 233.438 524.714 233.373C525.953 233.283 527.086 231.646 529.247 229.868Z" stroke="black" stroke-width="23.7167" mask="url(#path-1-outside-1_8061_109)"/>
<ellipse cx="372.414" cy="168.342" rx="25.5416" ry="13.8348" transform="rotate(-47.9051 372.414 168.342)" fill="black"/>
<path d="M411.433 206.127L385.739 170.156L374.276 182.015C380.601 190.315 402.736 212.056 402.736 212.056C410.642 212.056 408.008 212.524 411.433 206.127Z" fill="black"/>
</svg>
