<svg width="800" height="800" viewBox="0 0 800 800" fill="none" xmlns="http://www.w3.org/2000/svg">
<rect x="138.205" y="205.585" width="24.2573" height="10.7018" rx="3.92398" stroke="black" stroke-width="6.42105"/>
<path d="M145.696 638.97V217.357H154.738C156.866 352.188 154.738 637.9 154.738 640.041C154.738 644.892 145.696 646.104 145.696 638.97Z" stroke="black" stroke-width="7.1345"/>
<path d="M227.772 260.816C228.753 261.669 229.614 262.189 230.162 262.933C231.408 264.621 230.739 266.767 228.724 267.389C227.401 267.798 227.572 268.49 227.975 269.354C229.039 271.632 231.494 272.207 233.294 270.432C234.488 269.255 235.36 267.751 236.432 266.317C237.879 266.639 238.201 267.979 238.38 269.246C239.052 273.979 234.606 278.835 229.832 278.701C227.1 278.625 225.565 276.856 224.448 274.753C223.567 273.092 223.084 271.226 222.35 269.48C222.179 269.077 221.705 268.799 221.372 268.464C221.139 268.875 220.694 269.296 220.706 269.702C220.835 273.541 221.846 277.098 224.622 279.924C225.594 280.914 225.73 281.796 224.931 282.856C223.025 285.388 221.109 287.91 219.191 290.427C219.05 290.611 218.835 290.74 218.717 290.842C216.398 288.527 214.081 286.296 211.895 283.951C211.544 283.574 211.494 282.535 211.762 282.044C212.599 280.514 213.628 279.081 214.627 277.644C216.28 275.267 216.507 272.587 216.353 269.83C216.336 269.503 216.02 269.194 215.844 268.878C215.511 269.112 215.004 269.281 214.88 269.597C214.506 270.54 214.261 271.535 214.005 272.519C212.959 276.564 210.816 279.638 206.703 281.2C202.518 282.789 198.962 280.374 198.661 275.79C198.47 272.879 199.239 271.334 201.213 269.883C201.967 272.613 203.237 274.85 206.606 273.868C208.486 273.319 209.449 271.649 209.193 269.88C206.697 269.585 205.677 268.811 205.839 267.123C205.984 265.634 206.517 264.198 208.052 263.593C209.258 263.117 209.264 262.411 208.931 261.415C207.896 258.32 205.336 256.395 202.383 256.536C198.555 256.714 195.605 261.132 196.943 264.679C197.279 265.57 197.615 266.461 198.001 267.488C194.601 268.487 191.421 268.764 188.362 267.264C185.38 265.804 184.517 262.989 184.266 259.993C183.556 251.522 191.509 242.423 201.266 243.127C203.688 243.302 205.884 244.091 207.546 245.925C210.958 249.688 213.345 253.963 214.028 259.061C214.111 259.683 214.244 260.317 214.488 260.889C214.632 261.231 215.169 261.754 215.304 261.695C215.702 261.523 216.221 261.126 216.268 260.764C216.398 259.759 216.43 258.714 216.294 257.712C215.64 252.927 213.813 248.608 210.507 245.037C205.692 239.833 205.636 233.731 209.152 228.478C211.538 224.913 214.099 221.467 216.566 217.954C217.311 216.894 217.995 215.794 218.843 214.503C220.352 216.41 221.737 218.15 223.113 219.899C224.622 221.817 226.19 223.692 227.61 225.672C231.002 230.396 231.329 235.372 228.467 240.447C227.374 242.388 226.113 244.248 224.799 246.056C222.441 249.3 221.369 252.979 220.827 256.863C220.706 257.727 220.473 258.603 220.547 259.453C220.594 259.996 221.112 260.498 221.419 261.018C221.935 260.597 222.668 260.276 222.916 259.739C223.331 258.831 223.429 257.777 223.679 256.79C224.914 251.922 226.926 247.446 230.25 243.586C233.356 239.979 237.449 239.071 241.843 239.723C249.932 240.92 253.789 247.387 252.454 254.804C251.346 260.959 246.183 264.107 240.558 264.516C239.412 264.601 239.338 264.002 239.668 263.143C240.066 262.11 240.57 261.099 240.826 260.031C241.374 257.744 240.246 256.01 238.513 254.74C236.821 253.502 234.844 253.344 232.958 254.354C230.247 255.809 228.512 258.054 227.769 260.828L227.772 260.816ZM208.486 267.409C208.901 267.409 209.196 267.45 209.476 267.404C211.739 267.03 213.987 266.496 216.265 266.291C219.766 265.976 223.29 265.914 226.797 265.658C227.368 265.617 227.905 265.12 228.456 264.834C227.961 264.32 227.519 263.727 226.947 263.322C226.632 263.1 226.089 263.143 225.653 263.149C223.01 263.193 220.343 263.068 217.73 263.377C215.125 263.687 212.561 264.39 210.003 265.024C208.91 265.295 207.993 265.894 208.489 267.412L208.486 267.409ZM190.967 263.196C190.967 262.91 191.011 262.705 190.955 262.53C190.885 262.305 190.761 262.081 190.611 261.897C188.984 259.946 188.934 257.704 189.529 255.429C190.572 251.443 193.118 248.859 197.161 247.741C197.544 247.636 198.01 247.253 198.107 246.909C198.175 246.675 197.73 246.152 197.4 245.992C197.102 245.846 196.634 245.962 196.262 246.056C190.313 247.545 185.934 254.182 186.968 260.13C187.328 262.2 188.739 263.319 190.964 263.193L190.967 263.196ZM217.874 245.703C218.935 245.971 219.562 245.492 219.565 244.135C219.571 240.876 219.624 237.62 219.621 234.362C219.621 233.78 219.736 232.887 218.746 233.077C218.39 233.147 217.918 233.859 217.909 234.286C217.844 238.023 217.871 241.761 217.871 245.703H217.874ZM212.063 241.942C211.901 241.022 211.83 240.461 211.703 239.909C211.232 237.863 210.513 235.868 211.444 233.713C211.698 233.126 211.291 232.259 211.158 231.322C208.341 233.778 208.783 238.89 212.066 241.942H212.063ZM214.721 282.205C216.212 282.424 216.996 281.787 217.379 280.795C217.594 280.231 217.391 279.51 217.376 278.859C217.173 278.832 216.966 278.806 216.763 278.78C216.115 279.869 215.463 280.961 214.724 282.205H214.721Z" fill="black"/>
<path d="M284.135 304.337C285.116 305.189 285.977 305.709 286.525 306.454C287.771 308.141 287.102 310.288 285.087 310.91C283.764 311.318 283.934 312.01 284.338 312.875C285.402 315.152 287.857 315.727 289.657 313.952C290.85 312.775 291.723 311.272 292.795 309.838C294.242 310.159 294.563 311.499 294.743 312.767C295.415 317.5 290.968 322.356 286.195 322.221C283.463 322.146 281.928 320.376 280.811 318.274C279.93 316.612 279.447 314.746 278.713 313C278.542 312.597 278.067 312.32 277.734 311.984C277.502 312.396 277.057 312.816 277.069 313.222C277.198 317.062 278.209 320.618 280.985 323.445C281.957 324.435 282.093 325.317 281.294 326.377C279.388 328.908 277.472 331.431 275.554 333.948C275.412 334.132 275.197 334.26 275.079 334.363C272.76 332.047 270.444 329.816 268.258 327.472C267.907 327.095 267.857 326.055 268.125 325.565C268.962 324.035 269.99 322.601 270.989 321.164C272.643 318.788 272.869 316.107 272.716 313.351C272.699 313.024 272.383 312.714 272.206 312.399C271.873 312.632 271.367 312.802 271.243 313.117C270.869 314.06 270.624 315.056 270.368 316.04C269.322 320.084 267.179 323.159 263.066 324.721C258.881 326.309 255.325 323.895 255.024 319.31C254.832 316.399 255.602 314.854 257.576 313.403C258.33 316.133 259.6 318.37 262.968 317.389C264.848 316.84 265.812 315.17 265.556 313.4C263.06 313.105 262.04 312.332 262.202 310.644C262.347 309.155 262.88 307.718 264.415 307.114C265.62 306.638 265.626 305.931 265.293 304.935C264.259 301.84 261.698 299.916 258.746 300.056C254.918 300.234 251.968 304.652 253.306 308.2C253.642 309.09 253.978 309.981 254.364 311.009C250.963 312.007 247.784 312.285 244.725 310.784C241.743 309.324 240.88 306.509 240.629 303.513C239.919 295.043 247.872 285.944 257.629 286.648C260.051 286.823 262.246 287.611 263.908 289.445C267.321 293.209 269.708 297.484 270.391 302.582C270.474 303.204 270.606 303.837 270.851 304.41C270.995 304.751 271.532 305.274 271.667 305.216C272.065 305.043 272.584 304.646 272.631 304.284C272.76 303.28 272.793 302.234 272.657 301.233C272.003 296.447 270.176 292.128 266.87 288.557C262.055 283.354 261.999 277.251 265.514 271.998C267.901 268.433 270.462 264.988 272.928 261.475C273.674 260.415 274.358 259.314 275.206 258.023C276.715 259.93 278.1 261.67 279.476 263.419C280.985 265.338 282.552 267.213 283.973 269.192C287.364 273.917 287.692 278.892 284.83 283.967C283.737 285.909 282.476 287.769 281.162 289.576C278.804 292.82 277.732 296.5 277.189 300.383C277.069 301.247 276.836 302.123 276.909 302.973C276.957 303.516 277.475 304.018 277.782 304.538C278.297 304.118 279.031 303.797 279.279 303.259C279.694 302.351 279.791 301.297 280.042 300.31C281.276 295.443 283.289 290.966 286.613 287.106C289.719 283.5 293.812 282.592 298.205 283.243C306.294 284.44 310.152 290.908 308.817 298.325C307.709 304.48 302.546 307.628 296.921 308.036C295.774 308.121 295.701 307.522 296.031 306.664C296.429 305.63 296.932 304.62 297.189 303.551C297.737 301.265 296.608 299.531 294.876 298.26C293.184 297.022 291.207 296.865 289.321 297.875C286.61 299.329 284.874 301.574 284.132 304.348L284.135 304.337ZM264.848 310.93C265.264 310.93 265.559 310.971 265.838 310.924C268.102 310.55 270.35 310.016 272.628 309.812C276.129 309.496 279.653 309.435 283.159 309.178C283.731 309.137 284.267 308.641 284.818 308.355C284.323 307.841 283.881 307.248 283.31 306.842C282.994 306.62 282.452 306.664 282.016 306.67C279.373 306.714 276.706 306.588 274.092 306.898C271.487 307.207 268.924 307.911 266.366 308.544C265.273 308.816 264.356 309.415 264.851 310.933L264.848 310.93ZM247.33 306.717C247.33 306.43 247.374 306.226 247.318 306.051C247.247 305.826 247.124 305.601 246.973 305.417C245.347 303.467 245.297 301.224 245.892 298.949C246.935 294.964 249.481 292.38 253.524 291.261C253.907 291.156 254.373 290.774 254.47 290.429C254.538 290.195 254.093 289.673 253.763 289.512C253.465 289.366 252.997 289.483 252.625 289.576C246.676 291.066 242.297 297.703 243.331 303.651C243.691 305.721 245.102 306.839 247.327 306.714L247.33 306.717ZM274.237 289.223C275.298 289.492 275.925 289.013 275.928 287.655C275.934 284.396 275.987 281.141 275.984 277.882C275.984 277.301 276.099 276.407 275.109 276.597C274.752 276.667 274.281 277.38 274.272 277.806C274.207 281.544 274.234 285.281 274.234 289.223H274.237ZM268.426 285.462C268.264 284.542 268.193 283.982 268.066 283.43C267.595 281.383 266.876 279.389 267.807 277.234C268.06 276.647 267.654 275.78 267.521 274.842C264.704 277.298 265.146 282.411 268.429 285.462H268.426ZM271.084 325.725C272.575 325.944 273.359 325.308 273.742 324.315C273.957 323.752 273.753 323.03 273.739 322.379C273.535 322.353 273.329 322.327 273.126 322.3C272.477 323.389 271.826 324.481 271.087 325.725H271.084Z" fill="black"/>
<path d="M343.351 251.541C344.332 252.394 345.193 252.914 345.741 253.658C346.987 255.346 346.318 257.492 344.303 258.114C342.98 258.523 343.151 259.215 343.554 260.079C344.618 262.357 347.073 262.932 348.873 261.157C350.067 259.98 350.939 258.476 352.012 257.043C353.458 257.364 353.78 258.704 353.959 259.971C354.631 264.704 350.185 269.56 345.411 269.426C342.679 269.35 341.144 267.581 340.027 265.478C339.146 263.817 338.663 261.951 337.929 260.205C337.758 259.802 337.284 259.524 336.951 259.189C336.718 259.6 336.273 260.021 336.285 260.427C336.414 264.266 337.425 267.823 340.201 270.65C341.173 271.639 341.309 272.521 340.51 273.581C338.604 276.113 336.689 278.636 334.77 281.153C334.629 281.337 334.414 281.465 334.296 281.567C331.977 279.252 329.661 277.021 327.474 274.676C327.123 274.299 327.073 273.26 327.341 272.769C328.178 271.239 329.207 269.806 330.206 268.369C331.859 265.992 332.086 263.312 331.932 260.555C331.915 260.228 331.6 259.919 331.423 259.603C331.09 259.837 330.583 260.006 330.459 260.322C330.085 261.265 329.84 262.26 329.584 263.245C328.538 267.289 326.396 270.363 322.282 271.926C318.098 273.514 314.541 271.099 314.24 266.515C314.049 263.604 314.818 262.059 316.792 260.608C317.546 263.338 318.817 265.575 322.185 264.594C324.065 264.045 325.028 262.374 324.772 260.605C322.276 260.31 321.256 259.536 321.419 257.848C321.563 256.359 322.096 254.923 323.632 254.318C324.837 253.842 324.843 253.136 324.51 252.14C323.475 249.045 320.915 247.121 317.962 247.261C314.134 247.439 311.184 251.857 312.522 255.404C312.858 256.295 313.194 257.186 313.58 258.213C310.18 259.212 307 259.489 303.941 257.989C300.959 256.529 300.096 253.714 299.845 250.718C299.135 242.247 307.089 233.149 316.845 233.852C319.267 234.027 321.463 234.816 323.125 236.65C326.537 240.413 328.924 244.688 329.608 249.786C329.69 250.408 329.823 251.042 330.067 251.614C330.212 251.956 330.748 252.479 330.883 252.42C331.281 252.248 331.8 251.851 331.847 251.489C331.977 250.484 332.009 249.439 331.874 248.437C331.219 243.652 329.392 239.333 326.086 235.762C321.271 230.559 321.215 224.456 324.731 219.203C327.118 215.638 329.678 212.192 332.145 208.679C332.89 207.619 333.574 206.519 334.422 205.228C335.931 207.135 337.316 208.875 338.692 210.624C340.201 212.542 341.769 214.417 343.189 216.397C346.581 221.121 346.908 226.097 344.047 231.172C342.953 233.114 341.692 234.974 340.378 236.781C338.02 240.025 336.948 243.704 336.406 247.588C336.285 248.452 336.052 249.328 336.126 250.178C336.173 250.721 336.691 251.223 336.998 251.743C337.514 251.322 338.247 251.001 338.495 250.464C338.91 249.556 339.008 248.502 339.258 247.515C340.493 242.647 342.505 238.171 345.829 234.311C348.935 230.705 353.028 229.796 357.422 230.448C365.511 231.645 369.368 238.113 368.033 245.529C366.925 251.684 361.762 254.832 356.137 255.241C354.991 255.326 354.917 254.727 355.247 253.869C355.645 252.835 356.149 251.825 356.405 250.756C356.953 248.47 355.825 246.735 354.092 245.465C352.401 244.227 350.423 244.069 348.537 245.08C345.826 246.534 344.091 248.779 343.348 251.553L343.351 251.541ZM324.065 258.135C324.48 258.135 324.775 258.175 325.055 258.129C327.318 257.755 329.566 257.221 331.844 257.016C335.345 256.701 338.869 256.64 342.376 256.383C342.947 256.342 343.484 255.845 344.035 255.559C343.54 255.045 343.098 254.453 342.526 254.047C342.211 253.825 341.669 253.869 341.232 253.874C338.589 253.918 335.922 253.793 333.309 254.102C330.704 254.412 328.14 255.115 325.582 255.749C324.489 256.021 323.573 256.619 324.068 258.138L324.065 258.135ZM306.546 253.921C306.546 253.635 306.591 253.431 306.535 253.255C306.464 253.031 306.34 252.806 306.19 252.622C304.563 250.671 304.513 248.429 305.108 246.154C306.151 242.168 308.697 239.584 312.74 238.466C313.123 238.361 313.589 237.978 313.686 237.634C313.754 237.4 313.309 236.877 312.979 236.717C312.681 236.571 312.213 236.688 311.842 236.781C305.892 238.27 301.513 244.907 302.548 250.855C302.907 252.925 304.319 254.044 306.543 253.918L306.546 253.921ZM333.453 236.428C334.514 236.696 335.141 236.217 335.144 234.86C335.15 231.601 335.203 228.345 335.2 225.087C335.2 224.506 335.315 223.612 334.325 223.802C333.969 223.872 333.497 224.584 333.488 225.011C333.424 228.748 333.45 232.486 333.45 236.428H333.453ZM327.642 232.667C327.48 231.747 327.409 231.186 327.283 230.635C326.811 228.588 326.092 226.593 327.023 224.438C327.277 223.851 326.87 222.984 326.737 222.047C323.92 224.503 324.362 229.615 327.645 232.667H327.642ZM330.3 272.93C331.791 273.149 332.575 272.512 332.958 271.52C333.173 270.956 332.97 270.235 332.955 269.584C332.752 269.557 332.545 269.531 332.342 269.505C331.694 270.594 331.043 271.686 330.303 272.93H330.3Z" fill="black"/>
<path d="M343.351 346.431C344.332 347.283 345.193 347.803 345.741 348.547C346.987 350.235 346.318 352.381 344.303 353.003C342.98 353.412 343.151 354.104 343.554 354.968C344.618 357.246 347.073 357.821 348.873 356.046C350.067 354.869 350.939 353.365 352.012 351.932C353.458 352.253 353.78 353.593 353.959 354.86C354.631 359.594 350.185 364.45 345.411 364.315C342.679 364.239 341.144 362.47 340.027 360.367C339.146 358.706 338.663 356.84 337.929 355.094C337.758 354.691 337.284 354.414 336.951 354.078C336.718 354.49 336.273 354.91 336.285 355.316C336.414 359.156 337.425 362.712 340.201 365.539C341.173 366.529 341.309 367.41 340.51 368.47C338.604 371.002 336.689 373.525 334.77 376.042C334.629 376.226 334.414 376.354 334.296 376.456C331.977 374.141 329.661 371.91 327.474 369.565C327.123 369.189 327.073 368.149 327.341 367.659C328.178 366.129 329.207 364.695 330.206 363.258C331.859 360.881 332.086 358.201 331.932 355.444C331.915 355.117 331.6 354.808 331.423 354.492C331.09 354.726 330.583 354.895 330.459 355.211C330.085 356.154 329.84 357.15 329.584 358.134C328.538 362.178 326.396 365.253 322.282 366.815C318.098 368.403 314.541 365.988 314.24 361.404C314.049 358.493 314.818 356.948 316.792 355.497C317.546 358.227 318.817 360.464 322.185 359.483C324.065 358.934 325.028 357.264 324.772 355.494C322.276 355.199 321.256 354.425 321.419 352.738C321.563 351.248 322.096 349.812 323.632 349.207C324.837 348.731 324.843 348.025 324.51 347.029C323.475 343.934 320.915 342.01 317.962 342.15C314.134 342.328 311.184 346.746 312.522 350.294C312.858 351.184 313.194 352.075 313.58 353.103C310.18 354.101 307 354.379 303.941 352.878C300.959 351.418 300.096 348.603 299.845 345.607C299.135 337.136 307.089 328.038 316.845 328.741C319.267 328.917 321.463 329.705 323.125 331.539C326.537 335.303 328.924 339.577 329.608 344.676C329.69 345.298 329.823 345.931 330.067 346.504C330.212 346.845 330.748 347.368 330.883 347.309C331.281 347.137 331.8 346.74 331.847 346.378C331.977 345.373 332.009 344.328 331.874 343.327C331.219 338.541 329.392 334.222 326.086 330.651C321.271 325.448 321.215 319.345 324.731 314.092C327.118 310.527 329.678 307.081 332.145 303.569C332.89 302.509 333.574 301.408 334.422 300.117C335.931 302.024 337.316 303.764 338.692 305.513C340.201 307.432 341.769 309.306 343.189 311.286C346.581 316.01 346.908 320.986 344.047 326.061C342.953 328.003 341.692 329.863 340.378 331.67C338.02 334.914 336.948 338.593 336.406 342.477C336.285 343.341 336.052 344.217 336.126 345.067C336.173 345.61 336.691 346.112 336.998 346.632C337.514 346.212 338.247 345.89 338.495 345.353C338.91 344.445 339.008 343.391 339.258 342.404C340.493 337.536 342.505 333.06 345.829 329.2C348.935 325.594 353.028 324.686 357.422 325.337C365.511 326.534 369.368 333.002 368.033 340.418C366.925 346.574 361.762 349.721 356.137 350.13C354.991 350.215 354.917 349.616 355.247 348.758C355.645 347.724 356.149 346.714 356.405 345.645C356.953 343.359 355.825 341.624 354.092 340.354C352.401 339.116 350.423 338.958 348.537 339.969C345.826 341.423 344.091 343.668 343.348 346.442L343.351 346.431ZM324.065 353.024C324.48 353.024 324.775 353.065 325.055 353.018C327.318 352.644 329.566 352.11 331.844 351.905C335.345 351.59 338.869 351.529 342.376 351.272C342.947 351.231 343.484 350.735 344.035 350.448C343.54 349.934 343.098 349.342 342.526 348.936C342.211 348.714 341.669 348.758 341.232 348.764C338.589 348.807 335.922 348.682 333.309 348.991C330.704 349.301 328.14 350.005 325.582 350.638C324.489 350.91 323.573 351.508 324.068 353.027L324.065 353.024ZM306.546 348.81C306.546 348.524 306.591 348.32 306.535 348.145C306.464 347.92 306.34 347.695 306.19 347.511C304.563 345.56 304.513 343.318 305.108 341.043C306.151 337.057 308.697 334.473 312.74 333.355C313.123 333.25 313.589 332.867 313.686 332.523C313.754 332.289 313.309 331.767 312.979 331.606C312.681 331.46 312.213 331.577 311.842 331.67C305.892 333.159 301.513 339.796 302.548 345.744C302.907 347.815 304.319 348.933 306.543 348.807L306.546 348.81ZM333.453 331.317C334.514 331.585 335.141 331.107 335.144 329.749C335.15 326.49 335.203 323.234 335.2 319.976C335.2 319.395 335.315 318.501 334.325 318.691C333.969 318.761 333.497 319.474 333.488 319.9C333.424 323.637 333.45 327.375 333.45 331.317H333.453ZM327.642 327.556C327.48 326.636 327.409 326.076 327.283 325.524C326.811 323.477 326.092 321.482 327.023 319.328C327.277 318.741 326.87 317.873 326.737 316.936C323.92 319.392 324.362 324.505 327.645 327.556H327.642ZM330.3 367.819C331.791 368.038 332.575 367.402 332.958 366.409C333.173 365.845 332.97 365.124 332.955 364.473C332.752 364.447 332.545 364.42 332.342 364.394C331.694 365.483 331.043 366.575 330.303 367.819H330.3Z" fill="black"/>
<path d="M223.491 352.138C224.473 352.991 225.333 353.51 225.881 354.255C227.128 355.943 226.459 358.089 224.443 358.711C223.12 359.12 223.291 359.812 223.695 360.676C224.758 362.954 227.213 363.529 229.013 361.753C230.207 360.577 231.079 359.073 232.152 357.639C233.599 357.96 233.92 359.301 234.1 360.568C234.771 365.301 230.325 370.157 225.551 370.023C222.819 369.947 221.284 368.177 220.167 366.075C219.286 364.414 218.803 362.548 218.069 360.802C217.898 360.399 217.424 360.121 217.091 359.785C216.858 360.197 216.413 360.618 216.425 361.023C216.555 364.863 217.565 368.42 220.341 371.246C221.314 372.236 221.449 373.118 220.651 374.178C218.744 376.709 216.829 379.232 214.91 381.749C214.769 381.933 214.554 382.062 214.436 382.164C212.117 379.848 209.801 377.618 207.614 375.273C207.264 374.896 207.213 373.857 207.482 373.366C208.318 371.836 209.347 370.402 210.346 368.966C211.999 366.589 212.226 363.908 212.073 361.152C212.055 360.825 211.74 360.515 211.563 360.2C211.23 360.434 210.723 360.603 210.599 360.918C210.225 361.861 209.98 362.857 209.724 363.841C208.678 367.885 206.536 370.96 202.422 372.522C198.238 374.111 194.681 371.696 194.38 367.112C194.189 364.2 194.958 362.656 196.932 361.204C197.687 363.935 198.957 366.171 202.325 365.19C204.205 364.641 205.168 362.971 204.912 361.202C202.416 360.907 201.397 360.133 201.559 358.445C201.703 356.956 202.236 355.519 203.772 354.915C204.977 354.439 204.983 353.732 204.65 352.737C203.615 349.641 201.055 347.717 198.102 347.857C194.274 348.036 191.325 352.453 192.662 356.001C192.998 356.892 193.334 357.782 193.72 358.81C190.32 359.809 187.14 360.086 184.082 358.585C181.099 357.125 180.236 354.31 179.986 351.315C179.275 342.844 187.229 333.745 196.985 334.449C199.408 334.624 201.603 335.413 203.265 337.246C206.677 341.01 209.064 345.285 209.748 350.383C209.83 351.005 209.963 351.639 210.207 352.211C210.352 352.553 210.888 353.075 211.024 353.017C211.421 352.845 211.94 352.448 211.987 352.085C212.117 351.081 212.149 350.036 212.014 349.034C211.36 344.248 209.533 339.93 206.226 336.359C201.411 331.155 201.355 325.053 204.871 319.8C207.258 316.234 209.818 312.789 212.285 309.276C213.03 308.216 213.714 307.115 214.563 305.825C216.071 307.731 217.456 309.472 218.832 311.221C220.341 313.139 221.909 315.014 223.329 316.994C226.721 321.718 227.048 326.694 224.187 331.768C223.093 333.71 221.832 335.57 220.518 337.378C218.161 340.622 217.088 344.301 216.546 348.184C216.425 349.049 216.192 349.925 216.266 350.774C216.313 351.318 216.832 351.82 217.138 352.34C217.654 351.919 218.387 351.598 218.635 351.061C219.051 350.152 219.148 349.098 219.398 348.111C220.633 343.244 222.646 338.768 225.969 334.907C229.075 331.301 233.168 330.393 237.562 331.044C245.651 332.241 249.508 338.709 248.173 346.126C247.065 352.281 241.902 355.429 236.277 355.838C235.131 355.922 235.057 355.324 235.387 354.465C235.785 353.432 236.289 352.421 236.545 351.353C237.093 349.066 235.965 347.332 234.232 346.062C232.541 344.824 230.563 344.666 228.678 345.676C225.967 347.13 224.231 349.376 223.488 352.15L223.491 352.138ZM204.205 358.731C204.62 358.731 204.915 358.772 205.195 358.725C207.458 358.352 209.706 357.817 211.984 357.613C215.485 357.298 219.009 357.236 222.516 356.979C223.088 356.938 223.624 356.442 224.175 356.156C223.68 355.642 223.238 355.049 222.666 354.643C222.351 354.421 221.809 354.465 221.373 354.471C218.729 354.515 216.063 354.389 213.449 354.699C210.844 355.008 208.28 355.712 205.722 356.346C204.629 356.617 203.713 357.216 204.208 358.734L204.205 358.731ZM186.686 354.518C186.686 354.232 186.731 354.027 186.675 353.852C186.604 353.627 186.48 353.402 186.33 353.218C184.703 351.268 184.653 349.025 185.248 346.751C186.292 342.765 188.838 340.181 192.88 339.062C193.264 338.957 193.729 338.575 193.826 338.23C193.894 337.997 193.449 337.474 193.119 337.313C192.822 337.167 192.353 337.284 191.982 337.378C186.032 338.867 181.653 345.504 182.688 351.452C183.047 353.522 184.459 354.64 186.683 354.515L186.686 354.518ZM213.593 337.024C214.654 337.293 215.282 336.814 215.285 335.456C215.29 332.198 215.344 328.942 215.341 325.683C215.341 325.102 215.455 324.209 214.465 324.399C214.109 324.469 213.637 325.181 213.629 325.607C213.564 329.345 213.59 333.082 213.59 337.024H213.593ZM207.782 333.263C207.62 332.344 207.549 331.783 207.423 331.231C206.951 329.184 206.232 327.19 207.163 325.035C207.417 324.448 207.01 323.581 206.878 322.644C204.06 325.099 204.502 330.212 207.785 333.263H207.782ZM210.44 373.527C211.931 373.746 212.715 373.109 213.098 372.116C213.313 371.553 213.11 370.832 213.095 370.18C212.892 370.154 212.686 370.128 212.482 370.102C211.834 371.191 211.183 372.283 210.443 373.527H210.44Z" fill="black"/>
<path d="M461.784 486.266C462.765 487.119 463.625 487.639 464.174 488.383C465.42 490.071 464.751 492.217 462.736 492.839C461.412 493.248 461.583 493.94 461.987 494.804C463.051 497.082 465.505 497.657 467.306 495.882C468.499 494.705 469.372 493.201 470.444 491.768C471.891 492.089 472.212 493.429 472.392 494.696C473.064 499.43 468.617 504.285 463.843 504.151C461.112 504.075 459.577 502.306 458.46 500.203C457.579 498.542 457.095 496.676 456.362 494.93C456.191 494.527 455.716 494.25 455.383 493.914C455.151 494.326 454.706 494.746 454.717 495.152C454.847 498.992 455.858 502.548 458.634 505.375C459.606 506.364 459.742 507.246 458.943 508.306C457.037 510.838 455.121 513.361 453.203 515.878C453.061 516.062 452.846 516.19 452.728 516.292C450.409 513.977 448.093 511.746 445.907 509.401C445.556 509.025 445.506 507.985 445.774 507.494C446.611 505.964 447.639 504.531 448.638 503.094C450.291 500.717 450.518 498.037 450.365 495.28C450.347 494.953 450.032 494.644 449.855 494.328C449.522 494.562 449.015 494.731 448.892 495.047C448.517 495.99 448.273 496.986 448.017 497.97C446.97 502.014 444.828 505.088 440.715 506.651C436.53 508.239 432.973 505.824 432.673 501.24C432.481 498.329 433.25 496.784 435.225 495.333C435.979 498.063 437.249 500.3 440.617 499.319C442.497 498.77 443.461 497.099 443.205 495.33C440.709 495.035 439.689 494.261 439.851 492.574C439.996 491.084 440.529 489.648 442.064 489.043C443.269 488.567 443.275 487.861 442.942 486.865C441.908 483.77 439.347 481.846 436.395 481.986C432.567 482.164 429.617 486.582 430.955 490.13C431.291 491.02 431.627 491.911 432.013 492.939C428.612 493.937 425.433 494.215 422.374 492.714C419.392 491.254 418.529 488.439 418.278 485.443C417.568 476.972 425.521 467.874 435.278 468.577C437.7 468.753 439.895 469.541 441.557 471.375C444.97 475.139 447.356 479.413 448.04 484.512C448.123 485.134 448.255 485.767 448.5 486.339C448.644 486.681 449.181 487.204 449.316 487.145C449.714 486.973 450.233 486.576 450.28 486.214C450.409 485.209 450.442 484.164 450.306 483.163C449.652 478.377 447.825 474.058 444.519 470.487C439.704 465.284 439.648 459.181 443.163 453.928C445.55 450.363 448.111 446.917 450.577 443.404C451.323 442.345 452.006 441.244 452.855 439.953C454.364 441.86 455.749 443.6 457.125 445.349C458.634 447.268 460.201 449.142 461.622 451.122C465.013 455.846 465.34 460.822 462.479 465.897C461.386 467.839 460.125 469.699 458.81 471.506C456.453 474.75 455.38 478.429 454.838 482.313C454.717 483.177 454.485 484.053 454.558 484.903C454.605 485.446 455.124 485.948 455.431 486.468C455.946 486.047 456.68 485.726 456.927 485.189C457.343 484.281 457.44 483.227 457.691 482.24C458.925 477.372 460.938 472.896 464.262 469.036C467.368 465.43 471.461 464.522 475.854 465.173C483.943 466.37 487.801 472.838 486.466 480.254C485.358 486.41 480.195 489.557 474.57 489.966C473.423 490.051 473.35 489.452 473.68 488.594C474.078 487.56 474.581 486.55 474.838 485.481C475.386 483.195 474.257 481.46 472.525 480.19C470.833 478.952 468.856 478.794 466.97 479.805C464.259 481.259 462.523 483.504 461.781 486.278L461.784 486.266ZM442.497 492.86C442.913 492.86 443.207 492.901 443.487 492.854C445.751 492.48 447.999 491.946 450.277 491.741C453.777 491.426 457.302 491.365 460.808 491.108C461.38 491.067 461.916 490.57 462.467 490.284C461.972 489.77 461.53 489.178 460.959 488.772C460.643 488.55 460.101 488.594 459.665 488.599C457.022 488.643 454.355 488.518 451.741 488.827C449.136 489.137 446.573 489.84 444.015 490.474C442.922 490.746 442.005 491.344 442.5 492.863L442.497 492.86ZM424.979 488.646C424.979 488.36 425.023 488.156 424.967 487.98C424.896 487.756 424.773 487.531 424.622 487.347C422.996 485.396 422.946 483.154 423.541 480.879C424.584 476.893 427.13 474.309 431.173 473.191C431.556 473.086 432.022 472.703 432.119 472.359C432.187 472.125 431.742 471.602 431.412 471.442C431.114 471.296 430.646 471.413 430.274 471.506C424.325 472.995 419.946 479.632 420.98 485.58C421.34 487.651 422.751 488.769 424.976 488.643L424.979 488.646ZM451.886 471.153C452.946 471.421 453.574 470.943 453.577 469.585C453.583 466.326 453.636 463.07 453.633 459.812C453.633 459.231 453.748 458.337 452.758 458.527C452.401 458.597 451.93 459.309 451.921 459.736C451.856 463.473 451.883 467.211 451.883 471.153H451.886ZM446.075 467.392C445.913 466.472 445.842 465.911 445.715 465.36C445.244 463.313 444.525 461.318 445.456 459.163C445.709 458.577 445.303 457.709 445.17 456.772C442.353 459.228 442.795 464.341 446.078 467.392H446.075ZM448.733 507.655C450.224 507.874 451.007 507.238 451.391 506.245C451.606 505.681 451.402 504.96 451.388 504.309C451.184 504.283 450.978 504.256 450.775 504.23C450.126 505.319 449.475 506.411 448.736 507.655H448.733Z" fill="black"/>
<path d="M533.129 534.068C534.11 534.92 534.971 535.44 535.519 536.185C536.765 537.872 536.096 540.019 534.081 540.641C532.758 541.049 532.928 541.741 533.332 542.606C534.396 544.883 536.851 545.458 538.651 543.683C539.844 542.506 540.717 541.003 541.789 539.569C543.236 539.89 543.557 541.23 543.737 542.498C544.409 547.231 539.962 552.087 535.189 551.952C532.457 551.876 530.922 550.107 529.805 548.005C528.924 546.343 528.441 544.477 527.707 542.731C527.536 542.328 527.061 542.051 526.729 541.715C526.496 542.127 526.051 542.547 526.063 542.953C526.192 546.793 527.203 550.349 529.979 553.176C530.951 554.166 531.087 555.048 530.288 556.107C528.382 558.639 526.466 561.162 524.548 563.679C524.406 563.863 524.191 563.991 524.073 564.094C521.754 561.778 519.438 559.547 517.252 557.202C516.901 556.826 516.851 555.786 517.119 555.296C517.956 553.766 518.984 552.332 519.983 550.895C521.637 548.519 521.863 545.838 521.71 543.082C521.693 542.755 521.377 542.445 521.2 542.13C520.867 542.363 520.361 542.533 520.237 542.848C519.863 543.791 519.618 544.787 519.362 545.771C518.316 549.815 516.173 552.89 512.06 554.452C507.875 556.04 504.319 553.626 504.018 549.041C503.826 546.13 504.596 544.585 506.57 543.134C507.324 545.864 508.594 548.101 511.962 547.12C513.842 546.571 514.806 544.901 514.55 543.131C512.054 542.836 511.034 542.063 511.196 540.375C511.341 538.886 511.874 537.449 513.409 536.845C514.614 536.369 514.62 535.662 514.287 534.666C513.253 531.571 510.692 529.647 507.74 529.787C503.912 529.965 500.962 534.383 502.3 537.931C502.636 538.821 502.972 539.712 503.358 540.74C499.957 541.738 496.778 542.016 493.719 540.515C490.737 539.055 489.874 536.24 489.623 533.244C488.913 524.774 496.866 515.675 506.623 516.379C509.045 516.554 511.24 517.342 512.902 519.176C516.315 522.94 518.702 527.215 519.385 532.313C519.468 532.935 519.6 533.568 519.845 534.141C519.989 534.482 520.526 535.005 520.661 534.947C521.059 534.774 521.578 534.377 521.625 534.015C521.754 533.011 521.787 531.965 521.651 530.964C520.997 526.178 519.17 521.859 515.864 518.288C511.049 513.085 510.993 506.982 514.508 501.729C516.895 498.164 519.456 494.718 521.922 491.206C522.668 490.146 523.352 489.045 524.2 487.754C525.709 489.661 527.094 491.401 528.47 493.15C529.979 495.069 531.546 496.943 532.967 498.923C536.358 503.648 536.686 508.623 533.824 513.698C532.731 515.64 531.47 517.5 530.156 519.307C527.798 522.551 526.726 526.231 526.183 530.114C526.063 530.978 525.83 531.854 525.903 532.704C525.951 533.247 526.469 533.749 526.776 534.269C527.291 533.849 528.025 533.528 528.273 532.99C528.688 532.082 528.785 531.028 529.036 530.041C530.27 525.174 532.283 520.697 535.607 516.837C538.713 513.231 542.806 512.323 547.2 512.974C555.288 514.171 559.146 520.639 557.811 528.056C556.703 534.211 551.54 537.359 545.915 537.767C544.768 537.852 544.695 537.253 545.025 536.395C545.423 535.361 545.927 534.351 546.183 533.282C546.731 530.996 545.602 529.261 543.87 527.991C542.178 526.753 540.201 526.596 538.315 527.606C535.604 529.06 533.868 531.305 533.126 534.079L533.129 534.068ZM513.842 540.661C514.258 540.661 514.553 540.702 514.833 540.655C517.096 540.281 519.344 539.747 521.622 539.543C525.123 539.227 528.647 539.166 532.153 538.909C532.725 538.868 533.261 538.372 533.812 538.086C533.317 537.572 532.875 536.979 532.304 536.573C531.988 536.351 531.446 536.395 531.01 536.401C528.367 536.445 525.7 536.319 523.086 536.629C520.481 536.938 517.918 537.642 515.36 538.275C514.267 538.547 513.35 539.146 513.845 540.664L513.842 540.661ZM496.324 536.447C496.324 536.161 496.368 535.957 496.312 535.782C496.242 535.557 496.118 535.332 495.967 535.148C494.341 533.198 494.291 530.955 494.886 528.68C495.929 524.695 498.475 522.111 502.518 520.992C502.901 520.887 503.367 520.505 503.464 520.16C503.532 519.926 503.087 519.404 502.757 519.243C502.459 519.097 501.991 519.214 501.619 519.307C495.67 520.797 491.291 527.434 492.325 533.382C492.685 535.452 494.096 536.57 496.321 536.445L496.324 536.447ZM523.231 518.954C524.292 519.223 524.919 518.744 524.922 517.386C524.928 514.127 524.981 510.872 524.978 507.613C524.978 507.032 525.093 506.138 524.103 506.328C523.746 506.398 523.275 507.111 523.266 507.537C523.201 511.275 523.228 515.012 523.228 518.954H523.231ZM517.42 515.193C517.258 514.273 517.187 513.713 517.06 513.161C516.589 511.114 515.87 509.12 516.801 506.965C517.054 506.378 516.648 505.511 516.515 504.573C513.698 507.029 514.14 512.142 517.423 515.193H517.42ZM520.078 555.456C521.569 555.675 522.353 555.039 522.736 554.046C522.951 553.482 522.747 552.761 522.733 552.11C522.529 552.084 522.323 552.058 522.12 552.031C521.472 553.12 520.82 554.212 520.081 555.456H520.078Z" fill="black"/>
<path d="M609.468 476.992C610.449 477.844 611.31 478.364 611.858 479.109C613.104 480.796 612.435 482.942 610.42 483.564C609.097 483.973 609.268 484.665 609.671 485.529C610.735 487.807 613.19 488.382 614.99 486.607C616.184 485.43 617.056 483.926 618.128 482.493C619.575 482.814 619.896 484.154 620.076 485.421C620.748 490.155 616.301 495.011 611.528 494.876C608.796 494.8 607.261 493.031 606.144 490.928C605.263 489.267 604.78 487.401 604.046 485.655C603.875 485.252 603.401 484.975 603.068 484.639C602.835 485.051 602.39 485.471 602.402 485.877C602.531 489.717 603.542 493.273 606.318 496.1C607.29 497.09 607.426 497.971 606.627 499.031C604.721 501.563 602.805 504.086 600.887 506.603C600.746 506.787 600.53 506.915 600.413 507.017C598.094 504.702 595.777 502.471 593.591 500.126C593.24 499.75 593.19 498.71 593.458 498.22C594.295 496.69 595.324 495.256 596.323 493.819C597.976 491.442 598.203 488.762 598.049 486.005C598.032 485.678 597.716 485.369 597.54 485.054C597.207 485.287 596.7 485.456 596.576 485.772C596.202 486.715 595.957 487.711 595.701 488.695C594.655 492.739 592.512 495.814 588.399 497.376C584.214 498.964 580.658 496.549 580.357 491.965C580.166 489.054 580.935 487.509 582.909 486.058C583.663 488.788 584.933 491.025 588.301 490.044C590.182 489.495 591.145 487.825 590.889 486.055C588.393 485.76 587.373 484.986 587.535 483.299C587.68 481.809 588.213 480.373 589.748 479.768C590.954 479.292 590.959 478.586 590.626 477.59C589.592 474.495 587.031 472.571 584.079 472.711C580.251 472.889 577.301 477.307 578.639 480.855C578.975 481.745 579.311 482.636 579.697 483.664C576.296 484.662 573.117 484.94 570.058 483.439C567.076 481.979 566.213 479.164 565.962 476.168C565.252 467.697 573.205 458.599 582.962 459.302C585.384 459.478 587.58 460.266 589.241 462.1C592.654 465.864 595.041 470.138 595.724 475.237C595.807 475.859 595.939 476.492 596.184 477.065C596.328 477.406 596.865 477.929 597 477.87C597.398 477.698 597.917 477.301 597.964 476.939C598.094 475.935 598.126 474.889 597.99 473.888C597.336 469.102 595.509 464.783 592.203 461.212C587.388 456.009 587.332 449.906 590.847 444.653C593.234 441.088 595.795 437.642 598.261 434.13C599.007 433.07 599.691 431.969 600.539 430.678C602.048 432.585 603.433 434.325 604.809 436.074C606.318 437.993 607.886 439.867 609.306 441.847C612.698 446.572 613.025 451.547 610.163 456.622C609.07 458.564 607.809 460.424 606.495 462.231C604.137 465.475 603.065 469.154 602.522 473.038C602.402 473.902 602.169 474.778 602.243 475.628C602.29 476.171 602.808 476.673 603.115 477.193C603.63 476.773 604.364 476.451 604.612 475.914C605.027 475.006 605.124 473.952 605.375 472.965C606.61 468.097 608.622 463.621 611.946 459.761C615.052 456.155 619.145 455.247 623.539 455.898C631.627 457.095 635.485 463.563 634.15 470.979C633.042 477.135 627.879 480.282 622.254 480.691C621.108 480.776 621.034 480.177 621.364 479.319C621.762 478.285 622.266 477.275 622.522 476.206C623.07 473.92 621.941 472.185 620.209 470.915C618.517 469.677 616.54 469.519 614.654 470.53C611.943 471.984 610.208 474.229 609.465 477.003L609.468 476.992ZM590.182 483.585C590.597 483.585 590.892 483.626 591.172 483.579C593.435 483.205 595.683 482.671 597.961 482.466C601.462 482.151 604.986 482.09 608.493 481.833C609.064 481.792 609.601 481.296 610.152 481.009C609.657 480.495 609.215 479.903 608.643 479.497C608.328 479.275 607.785 479.319 607.349 479.325C604.706 479.368 602.039 479.243 599.425 479.552C596.821 479.862 594.257 480.566 591.699 481.199C590.606 481.471 589.689 482.069 590.184 483.588L590.182 483.585ZM572.663 479.371C572.663 479.085 572.707 478.881 572.651 478.706C572.581 478.481 572.457 478.256 572.307 478.072C570.68 476.121 570.63 473.879 571.225 471.604C572.268 467.619 574.814 465.034 578.857 463.916C579.24 463.811 579.706 463.428 579.803 463.084C579.871 462.85 579.426 462.328 579.096 462.167C578.798 462.021 578.33 462.138 577.958 462.231C572.009 463.72 567.63 470.357 568.664 476.305C569.024 478.376 570.435 479.494 572.66 479.368L572.663 479.371ZM599.57 461.878C600.631 462.147 601.258 461.668 601.261 460.31C601.267 457.051 601.32 453.795 601.317 450.537C601.317 449.956 601.432 449.062 600.442 449.252C600.086 449.322 599.614 450.035 599.605 450.461C599.54 454.198 599.567 457.936 599.567 461.878H599.57ZM593.759 458.117C593.597 457.197 593.526 456.637 593.399 456.085C592.928 454.038 592.209 452.043 593.14 449.889C593.393 449.302 592.987 448.434 592.854 447.497C590.037 449.953 590.479 455.066 593.762 458.117H593.759ZM596.417 498.38C597.908 498.599 598.692 497.963 599.075 496.97C599.29 496.406 599.087 495.685 599.072 495.034C598.869 495.008 598.662 494.981 598.459 494.955C597.811 496.044 597.159 497.136 596.42 498.38H596.417Z" fill="black"/>
<path d="M609.468 562.606C610.449 563.458 611.31 563.978 611.858 564.723C613.104 566.411 612.435 568.557 610.42 569.179C609.097 569.587 609.268 570.279 609.671 571.144C610.735 573.421 613.19 573.997 614.99 572.221C616.184 571.044 617.056 569.541 618.128 568.107C619.575 568.428 619.896 569.768 620.076 571.036C620.748 575.769 616.301 580.625 611.528 580.491C608.796 580.415 607.261 578.645 606.144 576.543C605.263 574.881 604.78 573.015 604.046 571.269C603.875 570.866 603.401 570.589 603.068 570.253C602.835 570.665 602.39 571.085 602.402 571.491C602.531 575.331 603.542 578.887 606.318 581.714C607.29 582.704 607.426 583.586 606.627 584.646C604.721 587.177 602.805 589.7 600.887 592.217C600.746 592.401 600.53 592.529 600.413 592.632C598.094 590.316 595.777 588.085 593.591 585.741C593.24 585.364 593.19 584.324 593.458 583.834C594.295 582.304 595.324 580.87 596.323 579.433C597.976 577.057 598.203 574.376 598.049 571.62C598.032 571.293 597.716 570.983 597.54 570.668C597.207 570.901 596.7 571.071 596.576 571.386C596.202 572.329 595.957 573.325 595.701 574.309C594.655 578.353 592.512 581.428 588.399 582.99C584.214 584.578 580.658 582.164 580.357 577.579C580.166 574.668 580.935 573.123 582.909 571.672C583.663 574.402 584.933 576.639 588.301 575.658C590.182 575.109 591.145 573.439 590.889 571.669C588.393 571.374 587.373 570.601 587.535 568.913C587.68 567.424 588.213 565.987 589.748 565.383C590.954 564.907 590.959 564.2 590.626 563.204C589.592 560.109 587.031 558.185 584.079 558.325C580.251 558.503 577.301 562.921 578.639 566.469C578.975 567.359 579.311 568.25 579.697 569.278C576.296 570.277 573.117 570.554 570.058 569.053C567.076 567.593 566.213 564.778 565.962 561.782C565.252 553.312 573.205 544.213 582.962 544.917C585.384 545.092 587.58 545.88 589.241 547.714C592.654 551.478 595.041 555.753 595.724 560.851C595.807 561.473 595.939 562.106 596.184 562.679C596.328 563.02 596.865 563.543 597 563.485C597.398 563.312 597.917 562.915 597.964 562.553C598.094 561.549 598.126 560.503 597.99 559.502C597.336 554.716 595.509 550.397 592.203 546.826C587.388 541.623 587.332 535.52 590.847 530.267C593.234 526.702 595.795 523.257 598.261 519.744C599.007 518.684 599.691 517.583 600.539 516.292C602.048 518.199 603.433 519.939 604.809 521.689C606.318 523.607 607.886 525.482 609.306 527.461C612.698 532.186 613.025 537.161 610.163 542.236C609.07 544.178 607.809 546.038 606.495 547.845C604.137 551.09 603.065 554.769 602.522 558.652C602.402 559.516 602.169 560.392 602.243 561.242C602.29 561.785 602.808 562.288 603.115 562.807C603.63 562.387 604.364 562.066 604.612 561.528C605.027 560.62 605.124 559.566 605.375 558.579C606.61 553.712 608.622 549.235 611.946 545.375C615.052 541.769 619.145 540.861 623.539 541.512C631.627 542.709 635.485 549.177 634.15 556.594C633.042 562.749 627.879 565.897 622.254 566.305C621.108 566.39 621.034 565.791 621.364 564.933C621.762 563.899 622.266 562.889 622.522 561.82C623.07 559.534 621.941 557.8 620.209 556.529C618.517 555.291 616.54 555.134 614.654 556.144C611.943 557.598 610.208 559.844 609.465 562.617L609.468 562.606ZM590.182 569.199C590.597 569.199 590.892 569.24 591.172 569.193C593.435 568.819 595.683 568.285 597.961 568.081C601.462 567.765 604.986 567.704 608.493 567.447C609.064 567.406 609.601 566.91 610.152 566.624C609.657 566.11 609.215 565.517 608.643 565.111C608.328 564.889 607.785 564.933 607.349 564.939C604.706 564.983 602.039 564.857 599.425 565.167C596.821 565.476 594.257 566.18 591.699 566.813C590.606 567.085 589.689 567.684 590.184 569.202L590.182 569.199ZM572.663 564.986C572.663 564.699 572.707 564.495 572.651 564.32C572.581 564.095 572.457 563.87 572.307 563.686C570.68 561.736 570.63 559.493 571.225 557.218C572.268 553.233 574.814 550.649 578.857 549.53C579.24 549.425 579.706 549.043 579.803 548.698C579.871 548.464 579.426 547.942 579.096 547.781C578.798 547.635 578.33 547.752 577.958 547.845C572.009 549.335 567.63 555.972 568.664 561.92C569.024 563.99 570.435 565.108 572.66 564.983L572.663 564.986ZM599.57 547.492C600.631 547.761 601.258 547.282 601.261 545.924C601.267 542.665 601.32 539.41 601.317 536.151C601.317 535.57 601.432 534.676 600.442 534.866C600.086 534.936 599.614 535.649 599.605 536.075C599.54 539.813 599.567 543.55 599.567 547.492H599.57ZM593.759 543.731C593.597 542.811 593.526 542.251 593.399 541.699C592.928 539.652 592.209 537.658 593.14 535.503C593.393 534.916 592.987 534.049 592.854 533.111C590.037 535.567 590.479 540.68 593.762 543.731H593.759ZM596.417 583.994C597.908 584.213 598.692 583.577 599.075 582.584C599.29 582.021 599.087 581.299 599.072 580.648C598.869 580.622 598.662 580.596 598.459 580.569C597.811 581.658 597.159 582.751 596.42 583.994H596.417Z" fill="black"/>
<path d="M461.784 566.887C462.765 567.739 463.625 568.259 464.174 569.004C465.42 570.691 464.751 572.837 462.736 573.459C461.412 573.868 461.583 574.56 461.987 575.424C463.051 577.702 465.505 578.277 467.306 576.502C468.499 575.325 469.372 573.821 470.444 572.388C471.891 572.709 472.212 574.049 472.392 575.316C473.064 580.05 468.617 584.906 463.843 584.771C461.112 584.695 459.577 582.926 458.46 580.823C457.579 579.162 457.095 577.296 456.362 575.55C456.191 575.147 455.716 574.87 455.383 574.534C455.151 574.946 454.706 575.366 454.717 575.772C454.847 579.612 455.858 583.168 458.634 585.995C459.606 586.985 459.742 587.866 458.943 588.926C457.037 591.458 455.121 593.981 453.203 596.498C453.061 596.682 452.846 596.81 452.728 596.912C450.409 594.597 448.093 592.366 445.907 590.021C445.556 589.645 445.506 588.605 445.774 588.115C446.611 586.585 447.639 585.151 448.638 583.714C450.291 581.337 450.518 578.657 450.365 575.9C450.347 575.573 450.032 575.264 449.855 574.949C449.522 575.182 449.015 575.352 448.892 575.667C448.517 576.61 448.273 577.606 448.017 578.59C446.97 582.634 444.828 585.709 440.715 587.271C436.53 588.859 432.973 586.444 432.673 581.86C432.481 578.949 433.25 577.404 435.225 575.953C435.979 578.683 437.249 580.92 440.617 579.939C442.497 579.39 443.461 577.72 443.205 575.95C440.709 575.655 439.689 574.881 439.851 573.194C439.996 571.704 440.529 570.268 442.064 569.663C443.269 569.187 443.275 568.481 442.942 567.485C441.908 564.39 439.347 562.466 436.395 562.606C432.567 562.784 429.617 567.202 430.955 570.75C431.291 571.64 431.627 572.531 432.013 573.559C428.612 574.557 425.433 574.835 422.374 573.334C419.392 571.874 418.529 569.059 418.278 566.063C417.568 557.592 425.521 548.494 435.278 549.198C437.7 549.373 439.895 550.161 441.557 551.995C444.97 555.759 447.356 560.033 448.04 565.132C448.123 565.754 448.255 566.387 448.5 566.96C448.644 567.301 449.181 567.824 449.316 567.765C449.714 567.593 450.233 567.196 450.28 566.834C450.409 565.83 450.442 564.784 450.306 563.783C449.652 558.997 447.825 554.678 444.519 551.107C439.704 545.904 439.648 539.801 443.163 534.548C445.55 530.983 448.111 527.537 450.577 524.025C451.323 522.965 452.006 521.864 452.855 520.573C454.364 522.48 455.749 524.22 457.125 525.969C458.634 527.888 460.201 529.762 461.622 531.742C465.013 536.467 465.34 541.442 462.479 546.517C461.386 548.459 460.125 550.319 458.81 552.126C456.453 555.37 455.38 559.049 454.838 562.933C454.717 563.797 454.485 564.673 454.558 565.523C454.605 566.066 455.124 566.568 455.431 567.088C455.946 566.668 456.68 566.346 456.927 565.809C457.343 564.901 457.44 563.847 457.691 562.86C458.925 557.992 460.938 553.516 464.262 549.656C467.368 546.05 471.461 545.142 475.854 545.793C483.943 546.99 487.801 553.458 486.466 560.874C485.358 567.03 480.195 570.177 474.57 570.586C473.423 570.671 473.35 570.072 473.68 569.214C474.078 568.18 474.581 567.17 474.838 566.101C475.386 563.815 474.257 562.08 472.525 560.81C470.833 559.572 468.856 559.414 466.97 560.425C464.259 561.879 462.523 564.124 461.781 566.898L461.784 566.887ZM442.497 573.48C442.913 573.48 443.207 573.521 443.487 573.474C445.751 573.1 447.999 572.566 450.277 572.361C453.777 572.046 457.302 571.985 460.808 571.728C461.38 571.687 461.916 571.191 462.467 570.904C461.972 570.391 461.53 569.798 460.959 569.392C460.643 569.17 460.101 569.214 459.665 569.22C457.022 569.263 454.355 569.138 451.741 569.447C449.136 569.757 446.573 570.461 444.015 571.094C442.922 571.366 442.005 571.964 442.5 573.483L442.497 573.48ZM424.979 569.266C424.979 568.98 425.023 568.776 424.967 568.601C424.896 568.376 424.773 568.151 424.622 567.967C422.996 566.016 422.946 563.774 423.541 561.499C424.584 557.514 427.13 554.929 431.173 553.811C431.556 553.706 432.022 553.323 432.119 552.979C432.187 552.745 431.742 552.223 431.412 552.062C431.114 551.916 430.646 552.033 430.274 552.126C424.325 553.615 419.946 560.252 420.98 566.2C421.34 568.271 422.751 569.389 424.976 569.263L424.979 569.266ZM451.886 551.773C452.946 552.042 453.574 551.563 453.577 550.205C453.583 546.946 453.636 543.69 453.633 540.432C453.633 539.851 453.748 538.957 452.758 539.147C452.401 539.217 451.93 539.93 451.921 540.356C451.856 544.093 451.883 547.831 451.883 551.773H451.886ZM446.075 548.012C445.913 547.092 445.842 546.532 445.715 545.98C445.244 543.933 444.525 541.939 445.456 539.784C445.709 539.197 445.303 538.329 445.17 537.392C442.353 539.848 442.795 544.961 446.078 548.012H446.075ZM448.733 588.275C450.224 588.494 451.007 587.858 451.391 586.865C451.606 586.301 451.402 585.58 451.388 584.929C451.184 584.903 450.978 584.876 450.775 584.85C450.126 585.939 449.475 587.031 448.736 588.275H448.733Z" fill="black"/>
<path d="M394.69 208.113C280.538 158.457 195.875 194.082 167.813 218.101V616.92C193.735 592.425 275.401 553.993 394.69 596.23C513.979 638.466 627.513 600.035 669.368 575.54L665.088 186.709C622.518 214.534 508.842 257.769 394.69 208.113Z" stroke="black" stroke-width="7.1345"/>
<path d="M394.69 208.113C280.538 158.457 195.875 194.082 167.813 218.101V417.51M394.69 208.113C508.842 257.769 622.518 214.534 665.088 186.709L667.228 381.124M394.69 208.113V596.23M394.69 596.23C513.979 638.466 627.513 600.035 669.368 575.54L667.228 381.124M394.69 596.23C275.401 553.993 193.735 592.425 167.813 616.92V417.51M167.813 417.51C191.119 397.425 269.123 369.306 394.69 417.51C520.257 465.715 628.702 413.338 667.228 381.124" stroke="black" stroke-width="7.1345"/>
<path d="M589.95 309.586C590.977 314.051 592.566 318.198 592.758 322.415C593.078 329.366 590.639 335.582 586.103 340.673C581.634 345.69 575.51 346.069 570.562 341.569C564.288 335.865 562.818 328.55 564.622 320.243C564.845 319.227 565.278 318.24 565.359 317.216C565.404 316.665 564.905 316.065 564.651 315.493C564.079 315.811 563.11 316.021 563 316.469C562.488 318.606 561.178 318.942 559.371 319.019C554.593 319.224 551.458 322.436 549.001 326.356C547.719 328.406 546.265 329.762 544.14 330.719C541.922 331.721 539.944 333.331 537.855 334.671C536.152 335.763 534.449 336.856 532.161 338.319C533.873 332.739 537.909 328.505 535.489 322.836C533.149 333.328 529.436 342.374 517.443 344.36C523.204 339.453 526.812 333.857 526.957 326.353C526.7 326.205 526.444 326.058 526.187 325.91C525.866 326.565 525.387 327.187 525.247 327.881C523.987 334.203 520.566 339.313 516.457 343.595C513.574 346.605 509.249 346.718 505.049 346.101C507.541 343.669 509.92 341.491 512.14 339.143C514.447 336.709 516.016 333.768 516.491 330.269C516.596 329.502 516.597 328.684 516.453 327.937C516.373 327.535 515.869 327.234 515.556 326.888C515.268 327.233 514.755 327.561 514.727 327.929C514.099 335.766 508.805 340.246 504 345.033C503.327 345.699 502.14 345.766 501.187 346.112C501.052 345.884 500.911 345.661 500.775 345.432C501.837 342.825 503.164 340.303 503.897 337.591C504.694 334.637 505.131 331.521 505.325 328.446C505.398 327.265 504.38 325.997 503.709 324.425C502.986 328.898 502.673 332.762 501.687 336.416C500.6 340.424 498.538 343.792 494.391 345.186C492.84 345.705 491.538 347.068 490.122 348.046C490.294 348.389 490.466 348.732 490.642 349.07C492.711 348.255 494.776 347.439 496.913 346.597C498.289 348.55 498.094 350.027 496.157 351.133C489.996 354.664 483.766 358.064 477.686 361.745C471.331 365.593 465.111 369.69 458.852 373.709C455.475 375.877 451.683 375.641 447.989 375.781C447.579 375.798 446.653 373.926 446.751 373.034C447.027 370.534 449.093 369.483 452.954 369.461C451.941 367.585 448.423 367.103 446.213 368.571C444.312 369.834 443.079 371.521 443.013 374.07C442.981 375.339 442.99 376.818 441.065 376.566C439.38 376.348 438.341 375.353 438.714 373.638C439.136 371.686 440.059 369.857 440.403 367.592C439.466 369.144 438.484 370.664 437.616 372.257C437.298 372.833 437.447 373.863 437.036 374.19C436.371 374.725 435.419 374.851 434.588 375.148C434.386 374.428 433.808 373.499 434.04 373.013C435.206 370.545 436.551 368.175 437.9 365.814C438.399 364.941 439.081 364.191 439.684 363.389C439.499 363.135 439.309 362.882 439.124 362.628C438.023 363.448 436.787 364.119 435.85 365.12C434.769 366.275 433.873 367.663 433.036 369.045C432.236 370.364 431.61 371.811 430.909 373.196C430.668 373.131 430.433 373.072 430.192 373.008C430.074 372.392 429.805 371.756 429.854 371.158C430.603 362.365 436.83 356.962 444.755 359.038C455.174 361.765 462.643 356.379 469.882 349.811C471.062 348.743 472.128 347.536 473.263 346.406C477.043 342.647 479.464 338.241 479.716 332.512C479.866 329.149 480.578 325.814 481.046 322.441C479.321 323.691 478.81 325.031 477.911 330.361C477.417 333.294 476.878 336.218 476.297 339.514C464.822 329.665 462.148 317.532 465.176 303.438C465.716 300.913 466.06 298.338 466.563 295.373C471.348 294.691 475.515 292.143 477.423 286.607C477.908 285.205 477.665 283.515 477.757 281.952C477.452 281.883 477.148 281.81 476.844 281.741C476.383 282.845 475.794 283.903 475.486 285.056C474.473 288.831 472.154 291.087 468.752 292.328C465.997 293.333 463.283 294.473 460.594 295.676C458.289 296.705 456.082 296.569 454.13 295.012C453.412 294.442 452.813 293.142 452.862 292.218C452.891 291.625 454.125 290.855 454.942 290.601C456.8 290.02 458.772 289.851 460.61 289.223C461.533 288.904 462.265 287.943 463.085 287.274C462.306 286.254 461.527 285.234 460.497 283.888C458.874 288.009 456.069 288.716 453.213 288.616C449.035 288.47 449.182 284.023 447.216 281.298C448.301 281.579 449.18 282.125 449.797 281.889C450.764 281.517 451.546 280.618 452.41 279.938C451.533 279.565 450.679 279.054 449.767 278.865C448.913 278.685 448.001 278.852 446.438 278.878C447.153 277.818 447.508 277.073 448.046 276.535C450.638 273.939 453.256 271.374 455.903 268.846C459.589 265.325 464.134 263.735 468.77 262.332C472.189 261.295 475.531 259.977 478.967 259.008C479.954 258.729 481.785 258.856 482.098 259.464C482.931 261.071 481.407 261.41 480.293 262.042C478.22 263.219 476.248 264.63 474.332 266.093C473.883 266.436 473.825 267.36 473.591 268.013C474.26 267.987 475.12 268.235 475.559 267.876C477.233 266.522 478.772 264.971 480.51 263.359C481.643 266.266 480.922 268.747 479.687 271.278C479.144 272.399 477.396 273.995 479.221 275.013C480.899 275.945 481.901 273.889 482.299 272.498C483.07 269.791 483.444 266.949 484.074 263.688C486.278 265.681 488.731 267.402 490.583 269.683C493.677 273.49 496.816 277.391 499.18 281.724C504.751 291.943 512.97 297.333 523.673 299.185C531.61 300.558 539.398 299.669 547.23 298.507C553.434 297.582 559.642 296.662 565.869 296.029C573.703 295.234 581.106 297.392 588.045 301.073C594.013 304.235 599.73 307.946 605.547 311.441C611.66 315.115 617.881 318.225 625.202 316.894C630.797 315.879 635.637 311.138 636.881 305.33C638.351 298.465 633.934 292.08 626.834 291.122C623.694 290.702 620.472 291.018 617.331 290.592C609.815 289.579 603.959 283.705 603.268 276.791C602.49 269.051 607.099 261.243 614.321 258.361C619.143 256.436 624.071 255.846 629.162 257.408C631.56 258.144 634.086 258.391 636.602 258.868C636.86 261.773 634.237 265.759 630.568 267.062C628.133 267.925 625.444 267.954 622.948 268.666C620.798 269.278 618.646 270.116 616.699 271.254C614.719 272.414 613.794 274.756 614.714 276.87C615.405 278.462 617.09 280.122 618.638 280.611C621.646 281.557 624.929 281.445 628.002 282.217C636.245 284.293 642.511 288.96 644.436 298.385C645.857 305.345 643.779 311.554 639.845 316.982C633 326.426 623.638 327.614 613.613 325.058C605.061 322.877 597.504 318.525 591.793 311.034C591.293 310.382 590.48 310.002 589.936 309.592L589.95 309.586ZM488.221 283.263C489.127 289.014 489.576 294.275 488.458 299.703C487.299 305.332 483.433 308.897 480.655 313.31C487.465 309.732 490.255 303.411 491.058 295.781C491.62 290.451 490.406 284.464 488.216 283.263L488.221 283.263ZM482.764 285.271C483.007 295.878 479.445 304.24 470.86 310.431C475.853 310.249 479.306 306.785 482.112 299.96C484.485 294.197 484.915 287.936 482.764 285.271ZM496.207 287.309C496.992 296.061 497.987 304.18 494.838 312.457C499.412 309.97 500.525 290.912 496.207 287.309ZM504.893 295.191C504.962 299.357 505.31 302.964 504.997 306.502C504.688 310.004 503.718 313.432 503.05 316.819C507.273 315.287 508.948 300.686 504.888 295.191L504.893 295.191ZM512.916 315.687C516.019 312.92 515.94 302.505 512.677 301.164L512.916 315.687ZM475.892 296.006C472.922 299.147 470.126 302.108 467.031 305.378C471.287 304.951 475.397 300.422 475.892 296.006ZM465.061 273.082C464.944 272.817 464.827 272.546 464.71 272.28C463.44 272.301 462.158 272.239 460.899 272.375C460.157 272.455 459.45 272.865 458.731 273.124C458.977 273.822 459.042 274.822 459.517 275.145C460.145 275.575 461.239 275.834 461.86 275.531C463.029 274.956 464.004 273.928 465.061 273.082Z" fill="black"/>
<path d="M561.493 321.704C561.537 324.361 561.395 327.058 561.659 329.712C562.493 338.174 568.572 345.439 576.066 347.135C576.542 347.242 577.089 347.516 577.492 347.373C581.963 345.769 583.879 349.852 586.541 352.115C587.984 353.339 588.335 355.346 586.817 356.692C579.383 363.278 572.1 370.182 562.513 373.113C561.36 373.468 560.054 373.699 558.906 373.472C557.989 373.293 556.832 372.526 556.437 371.667C555.022 368.608 553.737 367.471 551.397 367.84C548.793 368.25 546.704 370.559 546.188 373.325C546.008 374.288 545.581 375.626 544.907 375.968C542.962 376.938 541.682 376.089 541.766 373.786C541.828 372.181 542.425 370.457 543.224 369.076C543.913 367.88 545.22 367.098 546.269 366.116C542.947 364.153 539.504 367.931 538.348 374.917C536.56 374.69 534.757 374.463 532.925 374.231C532.84 374.107 532.666 373.963 532.674 373.837C532.954 368.312 538.93 361.31 543.952 361.116C547.583 360.978 551.247 361.442 554.881 361.817C558.529 362.197 561.854 361.361 564.819 359.147C567.427 357.201 567.293 355.269 564.537 353.584C562.912 352.589 561.154 351.832 559.577 350.762C553.624 346.724 549.935 341.197 549.977 333.359C550.009 327.341 556.014 321.213 561.498 321.704L561.493 321.704Z" fill="black"/>
<path d="M596.083 319.168C597.872 321.828 599.709 324.455 601.436 327.158C605.044 332.817 609.678 336.893 616.203 337.697C618.912 338.03 621.692 337.669 625.006 337.615C624.924 349.201 624.843 360.908 624.761 373.072C621.716 372.87 619.227 372.775 616.762 372.454C616.409 372.407 615.777 371.097 615.946 370.706C616.69 368.98 617.676 367.375 618.572 365.735C615.819 364.203 613.41 367.236 613.069 373.815C611.643 373.283 609.862 373.197 609.102 372.203C607.928 370.676 609.455 367.191 611.859 364.777C608.95 363.299 607.67 365.087 605.991 372.962C602.856 373.475 601.438 372.005 602.245 368.752C603.304 364.478 606.219 359.523 611.934 359.869C615.448 360.083 616.095 358.678 614.683 355.173C613.52 352.283 611.433 351.096 608.577 350.755C604.056 350.217 599.505 349.663 595.082 348.583C592.054 347.841 589.216 346.2 585.799 344.752C592.882 337.579 595.356 329.061 595.429 319.535C595.652 319.411 595.87 319.287 596.092 319.162L596.083 319.168Z" fill="black"/>
<path d="M433.019 320.696C433.224 318.905 432.042 317.787 430.529 317.015C428.068 315.761 425.237 316.578 422.978 318.922C421.867 320.073 420.613 321.069 418.912 322.591C418.463 317.901 420.72 315.442 422.985 313.444C426.406 310.42 430.258 311.3 433.95 313.389C433.353 310.688 431.732 309.043 429.379 308.977C426.674 308.901 424.042 309.049 421.929 311.38C421.156 312.232 419.925 312.603 418.904 313.197C418.651 312.976 418.398 312.76 418.14 312.539C418.585 311.383 418.729 309.745 419.536 309.166C422.203 307.25 424.988 305.375 427.969 304.141C430.324 303.163 433.037 304.01 434.785 305.952C442.21 314.201 451.743 316.859 462.047 318.246C462.453 327.145 466.76 333.926 473.167 340.016C469.581 341.051 466.433 341.071 463.592 339.582C458.784 337.056 454.136 334.161 449.474 331.318C447.923 330.373 446.51 329.165 445.083 328.004C441.04 324.721 436.488 324.135 431.642 324.928C430.438 325.126 429.217 325.23 428.006 325.282C426.267 325.358 424.557 324.558 424.78 322.677C424.926 321.454 426.53 319.692 427.661 319.521C429.314 319.268 431.134 320.224 433.019 320.696Z" fill="black"/>
<path d="M329.622 488.96C330.453 493.141 331.777 497.034 331.883 500.97C332.062 507.46 329.848 513.22 325.824 517.9C321.86 522.512 316.521 522.771 312.276 518.497C306.894 513.079 305.719 506.232 307.409 498.51C307.618 497.567 308.009 496.652 308.095 495.699C308.141 495.185 307.716 494.618 307.503 494.08C307 494.368 306.153 494.549 306.051 494.965C305.574 496.95 304.428 497.244 302.853 497.288C298.689 497.405 295.913 500.354 293.716 503.973C292.57 505.865 291.284 507.108 289.42 507.968C287.474 508.868 285.728 510.34 283.889 511.558C282.39 512.55 280.891 513.543 278.877 514.873C280.448 509.695 284.025 505.807 281.998 500.481C279.81 510.232 276.446 518.614 265.972 520.282C271.06 515.793 274.283 510.629 274.517 503.631C274.296 503.489 274.074 503.347 273.853 503.205C273.563 503.812 273.137 504.384 273.005 505.029C271.818 510.907 268.765 515.622 265.124 519.553C262.569 522.316 258.801 522.355 255.152 521.715C257.358 519.485 259.461 517.49 261.428 515.333C263.472 513.098 264.882 510.379 265.346 507.122C265.448 506.408 265.461 505.645 265.346 504.946C265.282 504.57 264.847 504.281 264.579 503.953C264.324 504.271 263.872 504.57 263.843 504.912C263.183 512.213 258.507 516.311 254.254 520.703C253.658 521.314 252.623 521.358 251.789 521.666C251.674 521.451 251.554 521.24 251.439 521.025C252.402 518.61 253.594 516.277 254.271 513.758C255.008 511.015 255.433 508.115 255.646 505.249C255.727 504.149 254.859 502.951 254.296 501.474C253.602 505.636 253.275 509.235 252.363 512.629C251.359 516.35 249.515 519.46 245.883 520.698C244.525 521.157 243.371 522.409 242.123 523.299C242.268 523.622 242.413 523.945 242.562 524.263C244.376 523.534 246.185 522.805 248.059 522.052C249.23 523.896 249.038 525.27 247.335 526.273C241.919 529.471 236.443 532.547 231.095 535.887C225.505 539.379 220.029 543.105 214.52 546.758C211.548 548.729 208.248 548.45 205.029 548.523C204.671 548.533 203.892 546.773 203.99 545.941C204.267 543.614 206.08 542.665 209.444 542.704C208.588 540.939 205.531 540.435 203.585 541.77C201.912 542.919 200.814 544.474 200.72 546.851C200.673 548.034 200.66 549.413 198.987 549.149C197.522 548.919 196.632 547.976 196.981 546.381C197.377 544.567 198.208 542.875 198.54 540.767C197.701 542.2 196.824 543.604 196.045 545.076C195.759 545.609 195.874 546.572 195.512 546.87C194.925 547.359 194.095 547.462 193.367 547.726C193.2 547.051 192.711 546.176 192.919 545.726C193.971 543.442 195.176 541.252 196.385 539.07C196.832 538.264 197.437 537.574 197.974 536.836C197.816 536.596 197.654 536.356 197.497 536.117C196.526 536.865 195.44 537.471 194.61 538.391C193.652 539.452 192.851 540.733 192.102 542.01C191.387 543.227 190.82 544.567 190.19 545.848C189.982 545.785 189.777 545.726 189.569 545.663C189.475 545.085 189.249 544.489 189.3 543.931C190.079 535.74 195.581 530.796 202.453 532.855C211.488 535.559 218.071 530.649 224.47 524.634C225.513 523.656 226.459 522.546 227.463 521.509C230.81 518.062 232.982 513.988 233.284 508.648C233.463 505.513 234.131 502.413 234.587 499.273C233.067 500.413 232.603 501.655 231.743 506.614C231.27 509.342 230.759 512.061 230.206 515.128C220.353 505.763 218.198 494.403 221.038 481.302C221.545 478.954 221.881 476.558 222.363 473.8C226.54 473.237 230.206 470.924 231.947 465.79C232.39 464.489 232.202 462.909 232.305 461.452C232.041 461.383 231.777 461.31 231.513 461.242C231.095 462.264 230.567 463.242 230.282 464.313C229.345 467.819 227.293 469.888 224.313 470.993C221.898 471.888 219.518 472.91 217.159 473.991C215.137 474.915 213.217 474.753 211.539 473.272C210.922 472.729 210.419 471.506 210.475 470.646C210.509 470.093 211.594 469.394 212.31 469.169C213.936 468.655 215.656 468.528 217.266 467.971C218.075 467.687 218.726 466.802 219.45 466.191C218.786 465.227 218.122 464.264 217.245 462.992C215.771 466.812 213.319 467.428 210.832 467.291C207.196 467.09 207.388 462.943 205.714 460.371C206.655 460.65 207.413 461.173 207.954 460.963C208.801 460.63 209.495 459.804 210.257 459.183C209.5 458.821 208.763 458.332 207.971 458.141C207.23 457.96 206.434 458.102 205.071 458.102C205.71 457.124 206.029 456.434 206.506 455.941C208.801 453.559 211.118 451.207 213.459 448.889C216.721 445.661 220.702 444.248 224.76 443.011C227.753 442.096 230.682 440.918 233.688 440.067C234.553 439.822 236.145 439.969 236.409 440.541C237.112 442.052 235.779 442.346 234.8 442.918C232.977 443.984 231.24 445.27 229.55 446.605C229.154 446.918 229.09 447.779 228.877 448.385C229.46 448.37 230.206 448.615 230.593 448.287C232.07 447.05 233.433 445.627 234.97 444.15C235.915 446.879 235.251 449.182 234.14 451.525C233.65 452.561 232.105 454.024 233.68 455.002C235.128 455.897 236.03 453.994 236.396 452.703C237.108 450.19 237.474 447.544 238.07 444.512C239.96 446.405 242.072 448.048 243.652 450.204C246.292 453.804 248.97 457.491 250.967 461.569C255.672 471.188 262.753 476.343 272.047 478.235C278.941 479.639 285.737 478.93 292.575 477.966C297.991 477.199 303.411 476.436 308.844 475.942C315.678 475.321 322.094 477.448 328.085 480.989C333.237 484.03 338.163 487.581 343.179 490.931C348.45 494.452 353.824 497.449 360.219 496.32C365.107 495.459 369.391 491.111 370.557 485.713C371.937 479.331 368.181 473.306 362.012 472.303C359.282 471.863 356.472 472.108 353.743 471.663C347.211 470.602 342.196 465.032 341.693 458.572C341.127 451.339 345.253 444.126 351.584 441.548C355.812 439.827 360.113 439.353 364.524 440.888C366.602 441.612 368.799 441.881 370.983 442.365C371.166 445.079 368.824 448.757 365.61 449.916C363.476 450.684 361.135 450.669 358.95 451.295C357.068 451.833 355.182 452.581 353.47 453.613C351.729 454.664 350.89 456.835 351.661 458.821C352.24 460.317 353.683 461.892 355.025 462.371C357.63 463.3 360.492 463.247 363.157 464.014C370.306 466.078 375.697 470.528 377.238 479.35C378.375 485.864 376.476 491.625 372.971 496.628C366.874 505.332 358.703 506.296 350.009 503.758C342.592 501.591 336.073 497.415 331.206 490.339C330.78 489.723 330.078 489.356 329.609 488.965L329.622 488.96ZM241.399 462.836C242.106 468.215 242.421 473.13 241.37 478.177C240.28 483.409 236.861 486.676 234.378 490.75C240.361 487.517 242.881 481.663 243.69 474.558C244.256 469.594 243.286 463.99 241.395 462.836H241.399ZM236.618 464.626C236.677 474.524 233.454 482.27 225.888 487.913C230.24 487.82 233.297 484.642 235.839 478.318C237.989 472.978 238.453 467.144 236.618 464.626ZM248.297 466.733C248.855 474.91 249.604 482.5 246.743 490.173C250.762 487.923 252.006 470.162 248.297 466.733ZM255.748 474.22C255.748 478.108 256 481.478 255.676 484.774C255.357 488.035 254.463 491.219 253.832 494.368C257.532 493.004 259.202 479.409 255.744 474.22H255.748ZM262.442 493.464C265.184 490.931 265.265 481.214 262.442 479.913V493.464ZM230.478 474.533C227.847 477.419 225.369 480.138 222.627 483.14C226.339 482.808 229.984 478.646 230.478 474.533ZM221.375 452.982C221.277 452.733 221.179 452.478 221.081 452.229C219.974 452.229 218.858 452.151 217.76 452.258C217.113 452.322 216.491 452.693 215.861 452.923C216.065 453.579 216.108 454.513 216.517 454.821C217.057 455.231 218.007 455.491 218.552 455.217C219.578 454.698 220.442 453.755 221.375 452.982Z" fill="black"/>
<path d="M304.663 499.826C304.663 502.305 304.501 504.819 304.692 507.298C305.297 515.206 310.487 522.077 316.989 523.774C317.402 523.881 317.875 524.145 318.228 524.018C322.145 522.59 323.755 526.429 326.041 528.581C327.28 529.745 327.557 531.623 326.216 532.855C319.646 538.885 313.204 545.213 304.812 547.8C303.803 548.113 302.661 548.308 301.665 548.078C300.869 547.897 299.873 547.164 299.54 546.357C298.353 543.481 297.25 542.401 295.206 542.709C292.932 543.051 291.08 545.174 290.59 547.746C290.42 548.641 290.028 549.883 289.437 550.191C287.729 551.066 286.626 550.255 286.733 548.108C286.809 546.611 287.354 545.012 288.07 543.736C288.687 542.631 289.837 541.921 290.765 541.022C287.899 539.139 284.847 542.611 283.74 549.11C282.185 548.871 280.619 548.631 279.026 548.386C278.954 548.269 278.805 548.132 278.813 548.015C279.137 542.865 284.442 536.425 288.819 536.322C291.983 536.249 295.168 536.738 298.327 537.144C301.499 537.554 304.407 536.826 307.022 534.806C309.321 533.031 309.231 531.226 306.855 529.613C305.455 528.659 303.935 527.926 302.576 526.903C297.45 523.045 294.316 517.832 294.465 510.521C294.58 504.907 299.898 499.283 304.667 499.826H304.663Z" fill="black"/>
<path d="M334.825 497.992C336.345 500.501 337.908 502.98 339.373 505.528C342.434 510.863 346.411 514.737 352.082 515.587C354.437 515.94 356.864 515.646 359.751 515.646C359.512 526.454 359.274 537.374 359.027 548.719C356.379 548.484 354.211 548.357 352.07 548.02C351.763 547.971 351.231 546.739 351.384 546.377C352.057 544.778 352.938 543.296 353.743 541.78C351.367 540.308 349.225 543.1 348.834 549.233C347.599 548.714 346.049 548.607 345.402 547.668C344.401 546.225 345.781 542.997 347.91 540.782C345.398 539.359 344.256 541.007 342.681 548.328C339.943 548.758 338.73 547.364 339.479 544.342C340.463 540.371 343.073 535.794 348.046 536.205C351.103 536.459 351.686 535.158 350.507 531.867C349.536 529.153 347.735 528.014 345.253 527.652C341.323 527.08 337.367 526.493 333.531 525.417C330.904 524.678 328.456 523.104 325.501 521.7C331.772 515.118 334.05 507.21 334.251 498.325C334.446 498.212 334.638 498.1 334.834 497.987L334.825 497.992Z" fill="black"/>
<path d="M192.783 496.906C192.988 495.238 191.974 494.177 190.667 493.434C188.542 492.226 186.064 492.945 184.063 495.097C183.08 496.153 181.973 497.062 180.47 498.456C180.146 494.075 182.147 491.815 184.148 489.986C187.171 487.218 190.514 488.099 193.699 490.104C193.218 487.575 191.829 486.015 189.781 485.918C187.427 485.805 185.132 485.903 183.258 488.045C182.573 488.827 181.496 489.155 180.597 489.693C180.38 489.483 180.163 489.277 179.942 489.067C180.346 487.996 180.495 486.47 181.206 485.942C183.556 484.196 186.009 482.489 188.623 481.384C190.688 480.509 193.039 481.34 194.533 483.179C200.882 490.989 209.146 493.615 218.1 495.067C218.326 503.376 221.979 509.767 227.472 515.548C224.334 516.457 221.592 516.428 219.139 514.995C214.988 512.565 210.981 509.792 206.962 507.068C205.625 506.163 204.411 505.014 203.185 503.909C199.711 500.784 195.755 500.168 191.523 500.833C190.471 500.999 189.407 501.077 188.351 501.107C186.835 501.151 185.358 500.378 185.579 498.627C185.724 497.488 187.146 495.869 188.134 495.727C189.577 495.517 191.148 496.437 192.783 496.906Z" fill="black"/>
<rect x="143.199" y="194.883" width="14.269" height="9.9883" stroke="black" stroke-width="3.56725"/>
<path d="M168.883 175.977C168.883 185.548 160.821 193.456 150.69 193.456C140.559 193.456 132.497 185.548 132.497 175.977C132.497 166.405 140.559 158.497 150.69 158.497C160.821 158.497 168.883 166.405 168.883 175.977Z" stroke="black" stroke-width="4.99415"/>
<path d="M151.483 166.807C151.824 167.479 151.803 168.451 151.153 169.603C150.509 170.744 149.316 171.905 147.687 172.731C146.058 173.556 144.417 173.832 143.115 173.677C141.802 173.52 141.006 172.963 140.665 172.29C140.324 171.618 140.346 170.647 140.996 169.495C141.64 168.353 142.833 167.193 144.462 166.367C146.09 165.541 147.732 165.265 149.033 165.421C150.347 165.578 151.143 166.135 151.483 166.807Z" stroke="black" stroke-width="2.8538"/>
</svg>
