<svg width="800" height="800" viewBox="0 0 800 800" fill="none" xmlns="http://www.w3.org/2000/svg">
<path d="M521.481 513.532C519.202 515.216 514.773 520.706 506.618 523.703C491.21 529.366 475.709 534.863 460.296 540.501C449.367 544.499 438.517 548.502 429.58 556.463C425.478 560.119 420.846 563.111 416.327 566.465C416.342 566.172 416.253 565.972 416.327 565.923C428.054 557.56 437.413 545.853 451.874 541.275C469.243 535.776 486.405 529.862 503.646 523.967C509.635 521.92 515.491 519.377 521.357 516.365C518.518 516.761 515.447 516.673 512.811 517.619C501.406 521.726 490.259 526.255 478.874 530.407C466.558 534.901 453.97 538.972 441.718 543.629C438.017 545.036 434.797 547.705 431.438 549.93C422.971 555.523 414.613 561.193 406.171 566.821C405.512 567.262 404.779 567.578 403.818 567.548C412.889 560.964 421.871 554.378 430.942 547.793C420.469 550.508 412.552 557.974 402.703 562.037C407.013 558.717 411.398 555.386 415.708 552.066C415.614 551.834 415.436 551.618 415.336 551.385C414.217 551.806 413.023 552.091 411.992 552.67C407.033 555.469 402.332 558.562 397.254 561.123C394.013 562.758 390.372 563.635 386.85 564.591C392.255 561.777 397.67 558.968 403.075 556.154C402.862 555.678 402.55 555.189 402.332 554.714C396.917 556.364 391.502 558.004 385.983 559.683C385.983 559.669 386.002 559.282 385.859 558.569C380.483 561.873 375.217 565.071 370.005 568.276C369.837 568.053 369.683 567.833 369.51 567.61C373.974 564.281 378.423 560.954 382.886 557.624C376.624 557.367 372.686 561.964 367.404 563.817C369.753 561.692 372.116 559.564 374.464 557.439C374.276 557.131 374.157 556.832 373.969 556.525C372.081 557.115 370.139 557.701 368.643 558.166C367.375 557.2 366.26 556.377 365.175 555.55C364.397 556.64 363.555 557.692 362.822 558.817C362.069 559.976 361.415 561.202 360.592 562.594C367.038 569.887 371.145 578.487 374.216 587.613C375.286 590.799 376.188 594.13 376.57 597.459C377.144 602.468 375.41 604.243 370.253 604.426C369.54 607.825 367.29 609.26 363.812 608.978C363.372 608.943 362.648 609.115 362.45 609.427C360.667 612.301 358.348 612.972 355.266 611.61C354.86 611.432 354.077 611.926 353.532 612.198C352.665 612.634 351.759 613.704 351.055 613.545C346.384 612.51 341.682 611.243 337.06 610C336.549 609.861 336.089 609.08 335.697 609.164C331.61 610.021 329.945 607.534 329.009 604.333C321.87 603.348 321.607 600.003 323.188 594.533C326.507 583.025 331.209 572.185 339.537 563.074C335.385 556.708 334.587 550.212 339.908 542.607C337.04 542.978 335.202 542.944 333.592 543.474C325.085 546.278 316.723 549.232 307.954 551.308C315.628 548.37 323.193 545.421 330.867 542.483C330.718 542.007 330.644 541.534 330.495 541.059C321.444 541.98 312.972 545.573 303.99 547.282L325.17 539.356L324.798 538.102C315.241 538.225 306.71 542.659 297.55 544.774C304.847 541.832 312.175 538.903 319.472 535.965C319.452 535.613 319.368 535.249 319.348 534.897C318.149 534.897 316.856 534.616 315.756 534.943C309.207 536.915 302.707 539.029 296.187 541.09C295.206 541.402 294.211 541.695 293.091 541.601C300.26 538.653 307.473 535.698 314.642 532.745C314.498 532.235 314.29 531.722 314.146 531.212C309.871 532.203 305.605 533.043 301.389 534.247C297.143 535.46 293.036 537.043 288.632 537.885C295.479 535.205 302.306 532.512 309.935 529.525C304.055 527.285 299.437 531.101 294.453 530.283C297.693 529.124 300.993 527.975 304.238 526.815C304.188 526.364 304.164 525.919 304.114 525.468C302.613 525.468 300.963 525.193 299.531 525.515C293.443 526.882 287.389 528.425 281.325 529.896C280.368 530.129 279.417 530.319 278.352 530.19C285.224 527.981 292.041 525.774 298.912 523.564C298.867 523.197 298.833 522.831 298.788 522.465C293.928 520.483 289.167 524.655 283.182 523.208C287.413 521.826 290.703 520.769 293.958 519.709C293.913 519.248 293.874 518.792 293.834 518.331C289.925 518.564 285.977 518.79 282.068 519.028C282.038 518.721 281.974 518.422 281.944 518.114L287.393 516.164C287.413 515.861 287.374 515.552 287.393 515.25C286.016 515.052 284.599 514.471 283.306 514.724C276.103 516.116 268.914 517.706 261.631 518.935C268.622 516.72 275.697 514.508 282.687 512.293C282.588 511.862 282.414 511.424 282.315 510.993C273.239 510.517 264.649 514.038 255.686 514.925C262.736 512.899 269.816 510.867 276.866 508.841C276.762 508.335 276.722 507.829 276.618 507.323C268.102 507.437 259.739 509.854 251.228 510.513C258.223 508.764 265.288 507.024 272.283 505.28C272.248 504.735 272.194 504.184 272.159 503.639C270.376 503.639 268.572 503.413 266.833 503.685C259.992 504.75 253.1 505.963 246.273 507.122C245.649 507.226 244.99 507.285 244.292 506.983C251.981 505.016 259.759 503.056 267.453 501.084C267.463 500.643 267.443 500.194 267.453 499.753C265.783 499.584 264.104 499.056 262.498 499.304C254.512 500.532 246.536 501.979 238.47 503.019C246.432 500.914 254.413 498.808 262.375 496.703C262.355 496.242 262.271 495.77 262.251 495.309C260.963 495.22 259.67 494.934 258.411 495.093C252.783 495.791 247.16 496.618 241.443 496.811C242.662 496.494 255.33 492.251 256.553 491.934C256.514 491.716 253.829 489.705 247.104 485.804C247.104 485.804 234.416 471.965 247.76 486.454C247.76 486.454 209.964 449.282 196.731 424.03C195.161 427.082 194.18 429.094 192.892 431.601C193.446 432.77 194.388 434.394 194.997 436.153C197.989 444.773 201.031 453.406 203.791 462.101C204.306 463.726 204.044 465.738 203.667 467.457C202.612 472.288 201.116 473.189 196.112 472.396C193.932 478.019 188.869 475.82 184.717 476.36C184.093 476.439 183.374 476.356 182.859 476.638C178.926 478.783 176.919 478.483 173.694 475.446C173.005 474.797 171.881 474.256 170.969 474.3C167.179 474.469 164.078 473.859 163.785 469.331C157.479 468.924 155.646 465.584 157.964 459.763C161.982 449.681 166.708 439.992 174.313 431.679C170.91 428.245 169.676 424.102 171.217 419.634C171.955 417.483 173.739 415.72 174.932 413.704C175.641 412.5 176.607 411.107 176.543 409.849C176.29 405.088 177.87 403.07 182.488 402C184.316 401.579 186.317 400.528 187.566 399.151C204.663 380.325 225.322 366.474 248.131 355.709C258.337 350.888 268.974 346.946 279.467 342.75C282.122 341.685 283.455 340.296 283.182 337.254C282.85 333.533 282.444 330.255 279.467 327.253C273.611 321.347 273.774 316.019 279.095 309.356C279.487 308.865 279.744 307.937 279.591 307.327C275.518 291.182 271.381 275.052 267.205 258.931C266.734 257.108 265.848 255.364 265.099 253.62C263.901 250.826 262.335 248.782 259.154 247.598C252.372 245.071 248.661 237.696 249.494 229.546C250.133 223.304 256.152 217.102 262.994 215.581C269.737 214.085 276.915 217.175 280.21 222.966C283.787 229.253 282.989 237.862 277.98 243C276.202 244.823 275.979 246.266 276.866 248.604C280.116 257.155 283.821 265.406 290.49 271.936C294.508 275.869 297 275.939 301.389 272.307C302.405 271.465 303.381 270.487 304.486 269.784C305.08 269.407 306.234 269.115 306.591 269.428C307.136 269.913 307.592 271.022 307.458 271.75C306.195 278.418 297.713 282.166 291.976 278.608C289.851 277.291 287.943 275.697 285.66 274.568C288.191 278.472 291.723 281.111 296.187 282.34C300.775 283.603 304.52 282.062 307.334 278.005C306.338 278.48 305.63 278.82 304.362 279.429C305.536 278.141 306.353 277.33 307.087 276.487C307.83 275.625 308.513 274.737 310.059 272.865C311.139 275.134 312.467 276.737 312.536 278.392C312.779 284.148 312.566 289.929 312.536 295.7C312.526 297.053 312.536 298.404 312.536 299.757C312.903 299.831 313.284 299.915 313.651 299.989C315.018 295.917 316.46 291.86 317.738 287.758C318.253 286.113 318.491 284.379 318.729 282.665C319.591 276.402 319.195 275.542 313.775 272.431C307.344 268.735 304.173 261.911 305.6 254.797C306.883 248.391 312.348 243.528 319.101 242.706C325.556 241.918 333.755 245.97 336.193 251.732C338.417 256.983 338.551 262.591 334.706 267.198C332.11 270.309 331.565 273.276 332.725 276.952C333.711 280.088 334.474 283.288 335.821 286.349C337.005 280.181 333.057 273.634 337.927 267.817C339.824 277.463 336.51 287.234 339.413 296.583C339.76 296.573 340.057 296.562 340.404 296.552C340.404 294.863 340.404 293.179 340.404 291.489C340.433 279.292 340.498 267.092 340.528 254.89C341.291 255.524 341.994 256.145 342.757 256.779C349.054 265.83 359.359 266.547 372.235 258.606C375.985 271.224 372.061 284.169 374.96 296.753V269.985C375.445 269.876 375.96 269.769 376.446 269.66C377.273 271.993 378.636 274.295 378.799 276.673C379.166 282.014 378.982 287.393 379.047 292.759C379.062 293.908 379.359 295.062 379.542 296.211C379.983 296.236 380.464 296.249 380.905 296.273C381.058 294.792 381.38 293.307 381.276 291.845C380.905 286.589 380.424 281.349 380.781 276.023C384.714 280.536 381.157 285.991 382.886 291.381C383.476 290.212 383.937 289.511 384.125 288.734C384.571 286.891 384.833 284.997 385.24 283.145C386.339 278.126 385.765 274.323 381.152 270.558C374.206 264.895 374.216 254.751 380.038 248.682C386.592 241.845 396.679 241.102 403.199 246.963C410.115 253.186 410.893 263.027 404.933 270.047C404.561 270.488 404.08 270.916 403.694 271.347C402.252 272.962 399.582 274.582 399.607 276.178C399.671 280.76 400.91 285.336 402.084 289.864C404.759 285.331 400.137 279.708 405.428 275.62V296.552C405.805 296.562 406.166 296.573 406.543 296.583C408.708 286.764 404.026 275.938 411.125 265.851V297.218C411.348 297.208 411.522 297.197 411.745 297.187V258.621C423.105 267.881 433.702 266.609 443.576 256.562C448.247 269.983 444.864 283.275 446.177 296.304C449.511 288.338 445.458 279.87 447.911 271.889C450.041 273.034 450.294 273.854 449.768 279.135C449.501 281.795 449.218 284.453 448.901 287.108C449.204 287.187 449.466 287.261 449.768 287.34C450.68 284.427 451.329 281.417 452.493 278.608C454.074 274.794 453.558 271.944 450.759 268.669C445.973 263.066 446.211 254.655 450.511 249.131C454.995 243.364 463.175 241.05 469.833 243.681C476.705 246.396 480.99 253.183 479.989 260.634C479.127 267.059 475.07 271.338 469.338 273.964C467.272 274.91 466.449 276.065 466.737 278.314C467.277 282.565 467.599 286.847 468.099 291.102C468.203 292.004 468.718 292.853 469.214 294.369C469.61 288.469 469.902 283.35 470.328 278.237C470.348 277.999 471.225 277.83 471.815 277.602C472.384 278.424 472.984 279.127 473.796 280.296C473.935 278.086 474.024 276.41 474.168 274.181C479.741 278.61 483.893 284.361 491.384 281.349C495.134 279.843 498.468 277.808 500.302 272.586C498.161 274.543 496.873 275.835 495.471 277.029C488.61 282.855 481.837 279.487 477.512 273.933C477.027 273.309 477.735 271.77 477.884 270.651C478.751 270.824 479.756 270.787 480.485 271.208C481.688 271.902 482.65 272.983 483.829 273.732C487.193 275.872 490.477 275.78 493.366 273.035C501.045 265.732 505.578 256.46 508.848 246.576C509.12 245.749 508.174 244.309 507.485 243.402C502.699 237.155 501.664 229.383 505.008 223.493C508.56 217.23 514.892 214.289 522.224 215.488C528.793 216.563 534.382 222.326 535.848 229.639C537.072 235.728 534.065 243.545 528.045 246.236C521.877 248.995 519.266 253.857 517.765 259.535C513.653 275.071 509.928 290.7 506.123 306.321C505.905 307.228 506.494 308.555 507.114 309.402C512.093 316.169 511.775 322.335 505.627 328.166C501.129 332.432 503.066 337.812 502.655 342.781C502.605 343.361 504.087 344.28 505.008 344.701C531.82 356.903 556.225 372.721 577.711 392.865C587.025 401.6 595.482 411.317 604.216 420.655C605.609 422.147 606.892 423.891 607.684 425.749C608.651 428.013 610.087 428.602 612.391 429.201C614.135 429.657 616.062 431.993 616.478 433.831C617.048 436.357 618.029 437.715 620.318 438.909C625.346 441.524 627.432 448.61 625.272 454.298C624.806 455.521 624.261 456.697 623.662 458.06C630.94 464.842 635.73 473.26 639.887 482.103C640.903 484.263 641.859 486.498 642.488 488.792C643.845 493.726 642.443 495.884 637.162 496.92C637.028 500.1 635.136 501.676 631.836 501.502C631.584 501.487 631.232 501.765 631.093 502.013C629.468 504.946 627.07 505.313 624.281 504.243C620.105 508.092 617.325 508.312 613.134 505.528C608.21 505.483 603.676 505.822 600.253 501.858C599.896 501.447 598.96 501.477 598.271 501.487C594.704 501.526 592.361 499.372 592.326 495.681C592.237 486.516 594.66 477.9 598.148 469.547C599.569 466.139 601.427 462.888 602.978 459.732C601.541 457.24 600.184 454.915 598.519 452.022C595.839 454.009 592.832 455.49 590.84 457.843C580.278 470.313 566.827 479.159 553.559 488.25C548.412 491.777 542.819 494.706 537.458 497.926C536.779 498.332 536.195 498.857 535.724 500.155C537.533 500.046 533.544 500.284 535.724 500.155C530.171 501.914 530.755 503.207 525.568 504.846C525.583 505.223 522.794 508.185 524.33 508.423M425.74 504.134C426.424 504.07 426.865 504.124 427.227 503.995C433.479 501.76 439.677 499.489 445.929 497.245C446.781 496.938 447.668 496.728 448.53 496.455C454.242 494.652 460.014 493.086 465.622 490.99C477.17 486.68 488.694 482.082 500.178 477.598C501.02 477.271 501.827 476.861 502.655 476.499C510.923 472.907 519.098 469.207 527.426 465.754C533.351 463.297 539.494 461.135 545.509 458.896C549.512 457.405 553.52 456.062 557.523 454.561C564.28 452.029 571.033 449.545 577.711 446.82C584.84 443.912 592.222 441.301 598.891 437.531C606.961 432.968 606.926 430.649 600.872 423.767C584.88 405.585 567.303 389.194 547.119 375.773C532.97 366.365 518.325 357.693 503.893 348.711C503.368 348.384 502.625 348.231 502.035 347.999C506.896 353.651 503.547 358.58 500.797 363.713C502.253 363.876 503.264 363.978 503.769 364.038C501.981 365.014 499.841 366.192 497.701 367.366C497.849 367.644 498.047 367.91 498.196 368.187H505.751C505.721 368.048 505.657 367.908 505.627 367.769C500.515 369.211 495.501 370.647 490.393 372.088C490.492 372.524 490.542 372.968 490.641 373.404C495.709 372.845 500.752 372.279 505.38 371.763C498.25 374.062 490.804 376.477 483.333 378.885C483.467 379.405 483.571 379.913 483.705 380.433C490.205 379.106 496.65 377.782 503.15 376.454C503.16 376.544 503.264 376.628 503.274 376.718L487.297 381.687C487.416 382.262 487.549 382.842 487.668 383.421C492.751 382.713 497.805 382.008 503.893 381.161C500.584 382.251 498.201 383.022 495.347 383.963C504.592 386.812 513.143 389.408 521.605 392.014C521.496 392.351 521.342 392.699 521.233 393.036C513.217 391.584 505.137 390.441 497.205 388.623C478.032 384.219 459.538 386.233 441.965 394.77C436.595 397.375 432.057 401.688 427.227 405.344C426.479 405.909 426.29 407.154 425.616 408.487C432.894 404.83 439.503 401.478 446.177 398.129C441.866 401.458 437.229 404.071 432.676 406.845C431.938 407.296 431.695 408.47 431.19 409.307C432.211 409.297 433.266 409.572 434.163 409.23C438.423 407.62 442.58 405.835 446.796 404.121C443.372 406.578 439.672 408.212 436.02 410.05C435.376 410.372 435.198 411.548 434.782 412.326C435.599 412.4 436.402 412.714 437.135 412.496C438.745 412.021 440.276 411.278 441.842 410.639L442.089 411.072C440.494 412.325 438.929 413.574 437.383 414.788C441.634 416.596 445.552 418.025 449.273 419.928C452.964 421.81 456.496 424.172 460.048 426.322C458.745 426.505 457.809 425.968 456.828 425.641C450.521 423.55 444.259 421.364 437.878 419.541C436.318 419.095 434.415 419.883 432.181 420.16C433.826 423.108 435.252 425.172 436.144 427.437C437.006 429.621 437.333 432.033 437.878 434.341C437.566 434.441 437.199 434.537 436.887 434.636C434.054 427.204 428.822 421.529 422.892 416.615C403.64 400.652 381.44 397.4 357.62 402.201C342.039 405.342 329.192 413.887 317.367 424.092C316.113 425.172 314.81 426.19 313.527 427.235C313.319 427.012 313.121 426.788 312.908 426.57C316.098 423.235 319.348 419.896 322.445 416.661C320.978 414.006 319.65 411.714 318.853 410.267C321.226 409.098 323.802 407.819 326.408 406.536C326.339 406.105 326.354 405.682 326.284 405.251C323.346 404.354 320.309 403.454 317.367 402.557C322.752 403.077 328.167 403.949 333.468 405.034C335.668 405.485 337.506 405.593 338.794 402.913C331.759 397.696 323.639 395.431 315.261 393.841C317.347 393.727 319.586 393.438 321.454 394.057C327.612 396.108 333.666 398.53 339.784 400.715C341.073 401.175 342.504 401.257 343.872 401.504C343.971 400.939 344.025 400.366 344.119 399.801C322.554 382.942 297.971 382.751 272.407 387.834C272.352 387.512 272.214 387.18 272.159 386.858C283.158 384.584 294.166 382.312 304.981 380.077C302.732 379.384 300.235 378.589 297.674 377.801C299.422 375.086 297.872 374.351 295.692 374.039C287.25 372.82 278.748 371.62 270.301 370.416C270.296 370.258 270.306 370.111 270.301 369.952C277.921 370.467 285.476 370.985 293.091 371.5C293.19 371.287 293.358 371.078 293.462 370.865C287.176 368.864 280.849 366.859 274.512 364.843C278.852 365.323 283.247 365.808 287.641 366.298C287.75 366.001 287.904 365.708 288.013 365.416C284.644 363.835 281.285 362.252 277.857 360.647C279.814 361.113 281.711 361.566 284.297 362.18C280.928 356.815 280.745 351.935 284.421 346.203C277.832 348.927 272.377 351.105 266.957 353.448C244.926 362.97 223.504 373.514 204.658 388.654C199.778 392.573 195.126 396.883 190.538 401.148C189.399 402.208 188.22 403.776 190.291 405.297C192.475 406.902 194.502 408.68 196.855 409.988C205.262 414.66 214.046 418.815 222.245 423.814C230.811 429.04 238.961 434.873 247.14 440.705C253.373 445.149 259.278 450.008 265.347 454.685C269.979 458.252 274.735 461.786 279.343 465.383C286.685 471.12 294.057 476.791 301.265 482.692C308.152 488.32 315.291 493.732 321.454 500.093C330.272 509.194 338.338 519.084 346.72 528.611C351.199 533.704 355.945 534.886 361.707 532.28C371.16 528.01 380.409 523.487 389.946 519.415C400.538 514.897 411.279 510.666 422.025 506.534C424.794 505.469 425.666 504.183 424.626 501.394C421.291 492.471 418.121 483.517 414.841 474.579C415.49 476.417 416.753 478.05 417.814 479.858C422.193 487.329 425.369 495.256 425.74 504.134ZM457.324 274.66C456.774 276.915 456.273 279.074 455.713 281.209C452.771 292.51 449.704 303.729 441.47 312.622C436.035 318.493 429.729 322.765 421.282 321.571C414.856 320.664 410.66 316.291 407.162 311.213C400.756 301.904 397.209 291.563 396.139 280.327C395.946 278.31 396.159 276.035 392.795 275.945C389.579 275.861 389.421 277.641 389.203 279.94C388.093 291.572 384.605 302.456 377.808 311.987C369.193 324.076 356.228 324.998 345.977 314.356C336.619 304.641 332.046 292.499 329.257 279.568C328.88 277.824 328.603 276.067 328.266 274.397C323.926 274.021 322.787 274.849 322.569 278.748C322.479 280.313 322.593 281.894 322.445 283.454C321.692 291.336 320.25 299.012 315.137 305.423C310.46 311.289 304.238 311.963 298.788 306.801C295.583 303.769 292.298 300.395 290.366 296.521C286.338 288.446 283.029 280.031 279.838 271.58C276.94 263.896 274.646 255.976 272.035 247.97C270.341 248.321 269.187 248.548 267.948 248.806C268.191 249.811 268.335 250.537 268.567 251.221C274.993 270.2 281.508 289.159 284.049 309.154C284.708 314.351 287.572 317.792 291.728 320.363C294.949 322.36 298.199 324.284 301.637 325.859C326.304 337.16 352.621 341.178 379.418 342.1C398.383 342.749 417.283 342.042 436.144 339.298C454.326 336.652 471.978 332.312 488.287 323.692C492.449 321.492 497.656 318.884 499.435 315.084C502.239 309.094 502.526 301.93 503.893 295.267L502.902 295.019C499.97 302.292 495.526 308.424 489.526 313.427C479.464 321.82 466.583 318.193 462.402 305.733C461.708 303.667 461.416 301.48 460.915 299.354C461.976 300.206 462.303 301.221 462.773 302.172C463.615 303.866 464.334 305.618 465.374 307.188C471.953 317.141 482.392 317.909 490.765 308.922C498.865 300.227 505.033 290.445 507.857 278.624C510.22 268.735 513.544 259.097 516.527 249.224C514.391 247.777 512.895 248.232 511.944 251.174C508.971 260.355 505.92 269.514 502.779 278.639C499.058 289.449 494.178 299.588 485.067 307.049C478.998 312.013 474.52 311.402 469.833 305.16C464.126 297.56 463.006 288.591 462.649 279.584C462.501 275.809 460.737 275.043 457.324 274.676V274.66ZM498.815 334.591C498.459 334.373 498.057 334.164 497.701 333.941C497.037 334.228 496.338 334.441 495.719 334.808C475.406 346.733 452.939 351.54 429.951 354.16C404.957 357.014 379.914 357.161 354.895 354.238C334.052 351.805 313.676 347.042 294.701 337.703C292.457 336.598 290.302 335.401 287.889 334.142C287.255 336.629 287.161 338.213 289.994 338.942C293.626 339.873 295.152 344.289 292.843 346.791C291.917 347.797 290.366 348.259 288.508 349.299C290.133 351.003 291.411 352.769 293.091 354.067C303.49 362.098 315.296 367.45 327.894 370.943C353.666 378.087 379.869 380.192 406.543 378.993C428.569 378.003 449.981 374.192 470.7 366.701C479.519 363.515 487.881 359.261 494.604 352.488C495.595 351.488 496.254 350.185 497.081 349.02C496.695 349.1 496.353 349.173 495.967 349.253C494.733 347.499 492.87 345.915 492.375 343.973C491.518 340.614 494.698 339.849 496.834 338.353C497.859 337.635 498.186 335.879 498.815 334.591ZM494.48 493.978C491.404 494.929 489.496 495.872 488.907 498.731C488.159 502.348 487.024 505.877 486.058 509.445C485.825 509.38 485.677 509.308 485.439 509.243C486.42 505.3 487.416 501.367 488.535 496.873C486.89 497.334 485.741 497.57 484.696 497.941C482.06 498.883 479.479 500.342 476.769 500.744C473.767 501.185 472.939 502.487 472.558 505.311C472.077 508.913 470.839 512.426 469.957 515.978C469.719 515.918 469.575 515.857 469.338 515.792C470.323 511.601 471.285 507.426 472.31 503.081C468.431 503.849 467.807 504.761 467.108 507.912C466.142 512.286 464.809 516.587 463.64 520.917L463.021 520.746C464.279 515.807 465.478 510.881 466.86 505.466C464.408 505.946 462.724 506.294 461.039 506.596C458.047 507.136 456.675 508.542 456.085 511.906C455.178 517.049 453.167 521.988 451.626 527.017C451.344 526.922 451.042 526.832 450.759 526.738C452.379 521.095 454.024 515.453 455.713 509.553C452.488 509.622 450.898 510.514 450.635 513.392C450.437 515.587 449.867 517.784 449.149 519.879C448.158 522.763 446.835 525.555 445.681 528.379L445.433 528.209C446.954 522.62 448.485 517.031 450.14 510.962C446.826 511.522 445.141 512.651 444.814 515.421C444.215 520.578 442.872 525.504 439.736 529.834C441.193 524.603 442.694 519.464 444.195 514.074C440.871 513.955 439.795 514.985 439.241 517.542C438.175 522.441 436.461 527.202 435.03 532.017L434.163 531.754C435.669 526.448 437.239 521.129 438.745 515.823C438.255 515.511 437.749 515.201 437.259 514.894C436.219 516.004 434.653 516.956 434.163 518.269C433.137 521.039 432.82 524.043 431.933 526.877C431.24 529.102 430.234 531.204 429.332 533.364C429.184 533.3 428.985 533.227 428.837 533.163C430.273 528.015 431.69 522.873 433.172 517.557C429.892 517.25 428.956 518.466 428.465 520.824C427.668 524.658 426.409 528.402 425.369 532.188C425.116 532.113 424.878 532.035 424.626 531.955C425.616 527.928 426.687 523.9 427.722 519.694C424.532 519.877 423.149 521.096 422.768 523.92C422.391 526.714 421.381 529.433 420.662 532.188C420.533 532.153 420.415 532.114 420.291 532.079C420.821 528.601 421.371 525.122 421.901 521.644C421.4 521.471 420.915 521.307 420.415 521.133C415.981 525.141 417.908 532.375 413.974 536.383C414.92 532.355 415.961 528.152 416.947 523.951C416.496 523.728 416.035 523.513 415.584 523.285C414.613 524.806 413.221 526.203 412.735 527.868C411.69 531.445 411.769 535.417 408.772 538.117C409.887 534.159 410.942 530.197 412.116 526.026C409.154 525.778 408.168 526.452 407.534 528.89C406.33 533.522 404.422 537.97 402.827 542.499C402.55 542.399 402.237 542.298 401.96 542.204C403.585 537.354 405.255 532.503 407.162 526.815C403.729 528.212 402 529.6 401.217 532.404C400.147 536.219 398.621 539.883 397.254 543.613C397.011 543.514 396.753 543.418 396.51 543.319C397.828 539.182 399.111 535.049 400.474 530.779C396.981 530.026 396.555 531.823 395.891 533.736C394.603 537.412 393.023 540.977 391.556 544.589C391.289 544.475 391.081 544.362 390.813 544.248C392.081 540.735 393.355 537.216 394.9 532.931C388.167 535.041 390.01 542.118 385.735 544.883C386.825 541.786 387.855 538.829 389.079 535.346C382.564 535.94 385.002 543.234 380.533 544.666C381.568 542.129 382.614 539.65 383.629 537.173C383.198 536.92 382.822 536.667 382.391 536.414C380.419 539.06 378.418 541.708 375.95 545.022C376.456 543.075 376.768 541.956 377.065 540.826C376.565 540.39 376.079 539.962 375.579 539.526C374.345 541.29 373.102 543.044 371.739 544.991C371.814 543.896 371.799 543.14 371.863 542.189C368.702 543.551 365.928 544.805 363.069 546.044C362.881 549.423 363.926 550.872 367.652 550.936C389.094 551.303 409.555 546.18 429.828 540.037C452.929 533.037 475.406 524.469 497.205 514.12C526.559 500.184 553.822 482.844 579.321 462.72C580.179 462.046 581.397 461.766 582.418 461.296C581.898 460.627 581.328 459.952 580.808 459.283C576.28 461.359 571.761 463.437 567.184 465.538C562.413 463.734 563.077 469.053 560.991 470.817V467.442C560.649 467.244 560.342 467.052 560 466.854C558.251 469.499 556.497 472.14 554.426 475.276C555.066 472.967 555.566 471.252 556.037 469.547C555.71 469.27 555.373 468.999 555.046 468.727C554.005 469.723 552.574 470.537 551.949 471.746C550.666 474.233 549.898 476.922 548.853 479.533L548.234 479.317C548.967 476.82 549.74 474.33 550.587 471.452C544.25 472.358 546.331 478.612 543.156 481.02C543.626 478.756 544.077 476.493 544.518 474.378C534.525 473.422 535.987 481.994 532.999 487.785C533.861 484.04 534.525 481.088 535.229 478.032C531.746 477.729 530.522 478.951 530.027 481.825C529.388 485.525 528.085 489.108 527.054 492.739C526.836 492.675 526.653 492.603 526.435 492.538C527.49 488.327 528.481 484.101 529.531 479.889C529.1 479.736 528.724 479.594 528.293 479.44C522.635 483.384 524.979 491.51 520.49 495.681C521.57 491.827 522.739 487.63 523.958 483.28C520.47 483.305 520.133 483.726 519.375 486.253C518.062 490.622 516.616 494.927 515.164 499.257C514.921 499.168 514.659 499.078 514.421 498.994C515.897 494.268 517.359 489.548 518.88 484.673C515.427 484.019 514.466 485.527 513.802 487.925C512.603 492.264 511.102 496.515 509.715 500.806C509.447 500.711 509.115 500.621 508.848 500.527C510.151 495.949 511.567 491.373 512.935 486.562C509.348 486.859 507.911 488.318 507.237 491.331C506.306 495.507 504.552 499.504 503.15 503.577C502.957 503.503 502.848 503.429 502.655 503.36C504.082 498.812 505.494 494.275 506.99 489.519C503.016 490.921 499.687 491.986 496.462 493.343C495.734 493.65 495.263 494.914 494.976 495.836C493.524 500.523 492.152 505.249 490.765 509.955C490.497 509.876 490.165 509.787 489.898 509.708C491.374 504.654 492.845 499.597 494.48 493.994V493.978ZM505.132 313.613C502.739 316.214 500.896 319.027 498.32 321.013C488.337 328.697 476.65 332.86 464.755 336.403C445.161 342.239 424.898 344.199 404.561 345.041C377.367 346.166 350.466 344.84 324.179 337.285C308.261 332.712 291.907 328.269 280.334 313.768C280.041 315.725 279.115 317.788 279.714 319.156C281.007 322.084 282.647 325.291 285.04 327.253C294.102 334.689 304.793 339.152 315.88 342.595C332.898 347.881 350.342 350.826 368.147 351.807C394.435 353.254 420.563 352.675 446.548 348.122C463.868 345.09 480.772 340.539 495.719 330.814C499.35 328.45 502.675 325.264 505.38 321.865C507.356 319.383 506.995 316.061 505.132 313.629V313.613ZM207.011 430.471C208.775 447.092 313.324 532.76 332.601 533.751C328.741 528.257 324.996 522.875 321.206 517.48C320.874 517.658 320.547 517.828 320.215 518.006C320.805 519.923 321.37 521.842 322.073 524.121C319.249 519.237 316.638 514.721 314.022 510.203C313.71 510.332 313.344 510.461 313.032 510.59C313.958 513.488 314.949 516.377 315.88 519.276C314.003 516.511 313.066 513.431 311.793 510.513C311.159 509.056 309.836 507.899 308.821 506.611C308.439 506.884 308.087 507.159 307.706 507.432C308.657 510.543 309.608 513.656 310.555 516.767C309.093 514.276 308.008 511.64 306.963 508.98C305.962 506.439 305.987 503.276 302.256 502.122C302.776 505 303.331 507.885 303.866 510.822C300.978 507.161 302.415 501.557 298.417 498.545C298.01 498.664 297.584 498.767 297.178 498.886C297.892 502.339 298.57 505.79 299.284 509.243C297.664 505.156 296.702 500.916 295.444 496.765C295.033 495.417 293.794 494.314 292.967 493.096C292.521 493.309 292.174 493.517 291.728 493.73C292.338 497.203 292.947 500.677 293.71 505.017C291.788 498.938 290.039 493.714 288.384 488.482C287.839 488.616 287.319 488.74 286.774 488.869C287.002 491.837 287.294 494.804 287.517 497.771C286.744 495.557 286.279 493.301 285.907 491.036C285.134 486.31 285.035 486.264 282.192 486.16C282.494 489.028 282.85 491.845 283.182 495.015C281.166 490.294 281.731 485.07 279.095 480.973C278.545 481.087 278.035 481.215 277.485 481.329C277.886 484.584 278.243 487.838 278.6 490.727C276.38 487.333 278.362 481.897 273.398 478.063C273.279 480.455 273.254 481.861 273.15 483.961C272.63 481.306 272.268 479.34 271.788 477.428C271.342 475.669 271.481 473.209 268.196 473.65V480.679C267.136 476.597 267.473 472.748 263.242 470.291C263.484 473.174 263.668 475.47 263.861 477.768C263.009 475.539 262.558 473.284 262.003 471.049C261.523 469.122 262.439 466.302 258.411 465.708C258.877 469.795 259.273 473.38 259.65 476.669C256.717 472.582 259.417 465.788 254.2 462.395C253.829 462.514 253.457 462.632 253.085 462.751C253.66 466.343 254.245 469.935 254.819 473.526C253.492 469.796 252.714 465.961 251.971 462.116C251.569 460.045 251.396 457.753 247.76 457.688C248.528 461.815 249.266 465.705 249.989 469.594C248.83 466.958 248.156 464.196 247.388 461.466C246.655 458.85 246.818 455.694 242.805 454.282C243.41 458.087 243.895 461.366 244.416 464.655C243.023 461.073 242.181 457.395 241.443 453.694C241.022 451.588 240.17 450.173 237.356 450.768C238.054 454.117 238.792 457.343 239.461 460.568C238.322 458.145 237.381 455.652 236.736 453.106C236.097 450.579 235.8 447.953 232.278 446.65C232.649 449.142 232.966 451.178 233.269 453.214C232.322 451.43 231.832 449.548 231.411 447.656C230.96 445.645 230.281 443.874 227.447 444.142C227.71 445.762 227.948 447.203 228.314 449.467C225.352 442.703 223.193 439.395 221.75 439.543V441.618C220.15 439.463 218.559 437.258 216.92 435.054L216.176 435.503C216.355 436.667 216.494 437.837 216.672 439.002C216.31 432.814 209.528 434.032 207.011 430.44V430.471ZM286.65 352.891C286.333 352.97 286.1 353.059 285.783 353.139C286.487 355.318 286.581 358.092 288.013 359.564C291.818 363.477 295.791 367.438 300.398 370.277C316.505 380.21 334.692 384.156 353.037 387.292C385.591 392.855 417.893 391.167 450.016 383.979C463.189 381.031 476.234 377.124 487.421 369.302C491.899 366.171 495.352 361.6 499.063 357.474C499.91 356.532 499.786 354.704 500.302 352.395C498.825 353.252 498.404 353.425 498.072 353.742C490.641 360.926 481.758 365.819 472.186 369.426C454.708 376.015 436.541 379.665 417.937 381.161C393.924 383.093 369.976 383.031 346.225 378.498C328.479 375.109 311.139 370.459 295.94 360.09C292.709 357.885 289.742 355.299 286.65 352.891ZM278.228 232.193C278.312 224.945 273.224 219.454 266.338 219.39C259.04 219.32 253.536 224.779 253.457 232.131C253.383 239.157 258.6 244.899 265.099 244.904C272.338 244.904 278.149 239.258 278.228 232.193ZM392.423 271.998C399.151 272.359 404.71 267.315 405.056 260.448C405.418 253.324 399.884 247.5 392.547 247.134C385.745 246.792 380.102 251.903 379.666 258.73C379.22 265.735 384.853 271.591 392.423 271.998ZM519.251 219.436C512.073 219.56 506.836 224.921 506.866 232.193C506.891 238.679 513.737 245.19 520.242 244.997C526.281 244.819 531.929 238.685 531.885 232.348C531.83 225.175 526.078 219.317 519.251 219.436ZM463.888 246.777C456.729 246.787 451.265 252.173 451.255 259.302C451.245 266.09 456.288 270.899 463.392 270.914C470.016 270.929 475.595 265.137 475.654 258.265C475.709 252.082 470.319 246.768 463.888 246.777ZM309.564 258.513C309.544 264.914 315.469 270.896 321.825 270.836C328.107 270.777 333.696 265.219 333.716 258.962C333.73 252.412 327.884 246.837 320.958 246.777C314.587 246.728 309.588 251.894 309.564 258.513ZM339.289 552.438C339.794 557.09 342.564 561.159 346.72 562.888C350.733 564.558 354.221 563.304 357.248 560.659C360.023 558.231 360.825 553.703 359.478 550.131C358.655 547.961 357.223 546.949 354.771 546.864C351.927 546.77 349.069 545.891 346.225 545.812C344.689 545.767 342.752 546.252 341.766 547.282C340.513 548.585 340.077 550.684 339.289 552.438ZM350.312 570.087C349.985 570.087 349.772 570.098 349.445 570.103C349.222 570.896 348.781 571.675 348.702 572.487C348.182 577.729 347.781 582.981 347.34 588.232C346.844 594.138 346.359 600.044 345.977 605.959C345.819 608.406 346.74 610.046 349.569 610.155C352.239 610.259 352.992 608.73 353.161 606.501C353.26 605.188 353.493 603.856 353.409 602.553C352.755 592.778 352.061 583.015 351.303 573.246C351.219 572.181 350.634 571.133 350.312 570.087ZM623.29 449.87C622.067 447.645 621.031 445.289 619.575 443.228C617.885 440.84 615.829 440.822 613.506 442.779C610.86 445.004 607.808 446.791 605.207 449.065C604.316 449.848 603.662 451.606 603.845 452.765C604.534 457.145 608.864 459.972 613.63 459.546C619.248 459.046 622.498 455.686 623.29 449.87ZM614.373 465.166C614.051 465.221 613.709 465.266 613.382 465.321C613.382 467.025 613.342 468.726 613.382 470.43C613.56 477.415 613.738 484.397 614.001 491.377C614.12 494.498 614.373 497.612 614.62 500.728C614.858 503.735 616.979 503.914 619.327 503.701C621.779 503.483 622.017 501.853 621.68 499.985C620.253 492.053 618.817 484.117 617.221 476.22C616.468 472.49 615.23 468.852 614.249 465.166H614.373ZM183.85 432.406C185.936 431.544 188.185 430.968 190.043 429.759C192.649 428.064 193.397 423.113 191.529 421.894C188.938 420.21 186.372 418.537 183.85 416.754C180.253 414.212 176.884 415.103 175.056 419.2C172.227 425.532 176.503 431.906 183.85 432.422V432.406ZM183.355 437.484C183.092 437.435 182.879 437.379 182.612 437.329C182.285 437.87 181.898 438.39 181.621 438.955C176.577 449.285 177.221 460.618 175.923 471.607C175.616 474.188 177.742 474.802 179.887 474.827C182.19 474.857 182.072 473.23 182.116 471.56C182.394 461.364 182.77 451.164 183.107 440.968C183.147 439.804 183.27 438.633 183.355 437.469V437.484ZM347.711 569.731C347.34 569.602 346.968 569.478 346.597 569.344C345.982 570.672 345.224 571.946 344.863 573.339C343.337 579.239 341.682 585.137 340.528 591.112C339.641 595.7 339.165 600.405 338.917 605.077C338.858 606.226 340.379 607.444 341.147 608.637C341.791 607.508 342.831 606.43 343.005 605.231C344.565 594.411 346.017 583.585 347.464 572.75C347.597 571.75 347.607 570.737 347.711 569.731ZM353.78 569.685C353.523 569.729 353.295 569.764 353.037 569.809C352.968 570.418 352.859 571.041 352.913 571.636C354.038 583.278 355.167 594.915 356.381 606.547C356.451 607.196 357.248 608.311 357.62 608.281C358.368 608.217 359.473 607.622 359.601 607.043C360.037 605.14 360.528 603.079 360.221 601.206C358.67 591.778 356.911 582.386 355.143 572.998C354.925 571.849 354.226 570.774 353.78 569.669V569.685ZM345.11 568.555L344.367 568.09C343.376 569.443 341.895 570.651 341.395 572.162C338.174 581.912 335.078 591.698 332.229 601.562C331.873 602.796 333.354 604.551 333.963 606.067C334.791 604.814 336.193 603.623 336.317 602.305C337.337 591.292 339.884 580.699 344.367 570.583C344.654 569.934 344.897 569.233 345.11 568.555ZM611.029 465.213C610.736 465.203 610.454 465.191 610.162 465.182C609.968 465.999 609.735 466.8 609.666 467.628C609.057 474.673 608.269 481.716 607.932 488.776C607.739 492.769 608.155 496.817 608.551 500.806C608.631 501.608 609.904 502.281 610.657 503.019C611.113 502.073 612.024 501.128 612.019 500.186C611.945 489.659 611.727 479.131 611.524 468.603C611.504 467.469 611.182 466.342 611.029 465.213ZM356.877 568.322C356.545 568.436 356.218 568.549 355.886 568.663C356.074 569.644 356.208 570.663 356.505 571.605C357.253 573.963 358.313 576.231 358.734 578.633C360.127 586.58 361.301 594.591 362.698 602.538C362.891 603.647 364.229 604.556 365.051 605.557C365.675 604.506 366.384 603.483 366.909 602.383C367.092 601.996 366.909 601.383 366.785 600.912C364.338 591.682 361.93 582.451 359.354 573.261C358.868 571.522 357.719 569.962 356.877 568.322ZM617.717 464.825L616.85 465.166C617.127 466.504 617.241 467.843 617.593 469.16C619.203 475.219 621.1 481.243 622.547 487.336C623.513 491.419 623.919 495.62 624.777 499.737C624.925 500.456 625.99 500.981 626.634 501.595C627.204 500.887 627.952 500.266 628.244 499.459C628.497 498.745 628.344 497.796 628.121 497.028C625.47 487.952 622.834 478.873 620.07 469.826C619.54 468.087 618.5 466.485 617.717 464.825ZM185.46 473.836C189.027 471.151 188.715 440.06 185.213 437.469C184.147 441.462 184.251 472.251 185.46 473.836ZM180.63 436.85C180.432 436.721 180.214 436.581 180.011 436.447C179.371 437.111 178.663 437.712 178.153 438.46C172.966 446.109 169.22 454.433 166.882 463.37C166.466 464.96 165.881 466.62 166.015 468.201C166.094 469.167 167.392 470.029 168.12 470.941C168.779 470.158 169.731 469.479 169.978 468.588C170.389 467.106 170.092 465.375 170.598 463.943C173.476 455.803 176.513 447.721 179.515 439.621C179.862 438.68 180.238 437.761 180.63 436.834V436.85ZM188.061 436.586C187.818 436.676 187.561 436.76 187.318 436.85C187.318 437.3 187.318 437.801 187.442 438.212C190.444 448.145 190.841 458.27 189.795 468.526C189.706 469.422 189.582 470.377 189.795 471.22C189.964 471.883 190.593 472.799 191.158 472.923C191.787 473.061 192.817 472.637 193.139 472.102C193.659 471.245 193.991 470.069 193.882 469.083C192.921 460.522 192.049 451.951 190.786 443.429C190.434 441.071 188.978 438.86 188.061 436.586ZM605.083 501.224C605.965 488.724 606.837 476.716 607.684 464.702C606.505 467.793 605.212 470.991 604.712 474.3C603.558 481.925 602.651 489.602 601.863 497.276C601.606 499.773 602.686 501.635 605.083 501.224ZM634.313 497.694C634.933 492.095 624.499 465.591 619.698 464.144C619.877 464.768 619.941 465.341 620.194 465.816C625.287 475.457 628.68 485.663 630.474 496.409C630.93 499.158 632.698 498.328 634.313 497.694ZM340.899 567.595C340.666 567.748 340.102 567.962 339.784 568.353C332.834 577.073 329.004 587.297 325.789 597.785C325.591 598.429 326.844 599.509 327.399 600.386C328.177 599.771 329.361 599.3 329.628 598.512C330.733 595.247 331.268 591.793 332.477 588.573C335.128 581.533 338.085 574.59 340.899 567.595ZM177.41 435.642C176.543 435.746 176.211 435.693 176.047 435.812C175.581 436.149 175.205 436.526 174.809 436.942C168.17 443.893 164.291 452.461 160.937 461.265C160.491 462.439 160.838 465.055 161.556 465.367C163.994 466.418 164.35 464.022 164.776 462.441C167.169 453.598 170.816 445.389 176.171 437.933C176.577 437.369 176.865 436.692 177.41 435.642ZM359.478 567.626C359.289 567.779 359.17 567.932 358.982 568.09C360.845 572.286 362.99 576.373 364.432 580.708C366.428 586.722 367.865 592.945 369.634 599.039C369.842 599.757 370.852 600.251 371.492 600.85C372.121 600.117 372.953 599.468 373.226 598.621C373.468 597.853 373.171 596.801 372.854 595.973C370.342 589.429 368.024 582.815 365.175 576.42C363.773 573.279 361.385 570.554 359.478 567.641V567.626ZM437.259 505.45C431.864 503.617 421.851 511.101 421.405 517.294C427.326 517.16 436.877 510.023 437.259 505.45ZM605.455 464.284C605.118 464.393 604.905 464.396 604.836 464.5C598.628 474.032 596.537 484.809 595.547 495.867C595.472 496.694 597.082 497.672 598.519 499.257C599.332 492.217 599.634 486.533 600.749 481.004C601.873 475.416 603.81 469.976 605.455 464.284ZM190.786 435.673C190.464 435.866 190.117 436.057 189.795 436.246C194.467 445.693 195.765 455.893 196.731 466.188C196.835 467.283 198.118 468.264 198.837 469.3C199.426 468.15 200.655 466.854 200.447 465.878C198.98 458.947 197.39 452.008 195.369 445.225C194.373 441.871 192.371 438.849 190.786 435.673ZM623.414 462.766C623.156 462.94 622.929 463.104 622.671 463.277C622.914 463.832 623.067 464.453 623.414 464.934C629.131 472.915 632.941 481.782 636.047 491.036C636.364 491.973 637.935 492.512 638.896 493.235C639.164 492.066 640.036 490.634 639.639 489.767C637.251 484.535 634.769 479.271 631.836 474.331C629.409 470.244 626.248 466.595 623.414 462.751V462.766ZM371.12 538.009C377.556 537.602 384.635 531.145 384.496 525.933C380.251 525.948 373.721 531.742 371.12 538.009ZM601.987 445.674C606.981 443.787 609.889 440.483 612.267 436.772C612.683 436.123 611.742 434.568 611.4 433.428C610.355 433.884 609.255 434.217 608.304 434.821C607.66 435.233 607.348 436.24 606.694 436.586C603.31 438.39 602.725 441.602 601.987 445.674ZM437.135 510.9C442.362 511.688 448.242 506.686 449.273 500.79C445.344 499.75 440.088 504.083 437.135 510.9ZM386.107 531.429C392.027 532.098 397.675 524.069 397.006 520.081C392.636 520.541 387.211 526.113 386.107 531.429ZM441.098 303.72C441.445 303.73 441.743 303.736 442.089 303.751V264.133C441.743 264.133 441.445 264.138 441.098 264.133V303.72ZM462.03 495.727C457.433 495.42 450.863 501.266 450.14 506.24C454.693 506.824 461.564 500.711 462.03 495.727ZM473.92 491.377C469.65 491.61 463.65 497.383 462.526 502.06C467.851 502.704 473.469 497.461 473.92 491.377ZM409.639 521.66C414.326 522.13 421.004 515.072 419.795 510.915C415.074 511.138 411.279 515.15 409.639 521.66ZM358.734 542.499C363.322 543.46 370.382 537.057 369.881 532.544C365.849 532.563 359.894 537.792 358.734 542.499ZM517.27 479.611C522.288 480.725 529.11 474.268 528.788 469.021C522.487 469.819 521.02 475.712 517.27 479.611ZM485.687 492.956C490.413 493.1 496.566 486.65 495.843 482.568C490.997 481.706 488.53 486.476 485.687 492.956ZM553.931 464.686C558.846 465.811 565.445 460.165 565.573 454.948C561.868 455.052 556.517 459.499 553.931 464.686ZM496.462 489.101C501.788 488.903 508.179 481.997 507.361 477.846C501.491 479.312 499.276 484.167 496.462 489.101ZM541.298 464.485C537.473 464.227 530.839 470.416 530.151 474.904C534.704 475.256 541.119 469.281 541.298 464.485ZM177.162 451.434C176.632 451.32 176.082 451.207 175.552 451.093C174.209 456.949 172.777 462.804 171.465 468.665C171.36 469.126 171.395 469.704 171.588 470.12C171.836 470.655 172.322 471.089 172.703 471.56C173.144 471.149 173.981 470.792 174.065 470.322C175.155 464.035 176.146 457.73 177.162 451.434ZM398.616 525.716C402.966 526.464 409.332 519.639 407.905 515.73C403.367 515.874 400.469 519.885 398.616 525.716ZM369.881 265.216C369.629 265.216 369.391 265.227 369.138 265.232V297.419C369.391 297.419 369.629 297.424 369.881 297.419V265.216ZM552.816 460.103C548.883 459.801 542.65 465.725 542.165 470.105C546.262 470.526 551.9 465.35 552.816 460.103ZM436.02 301.816C436.223 301.821 436.437 301.842 436.64 301.847V267.09C436.437 267.085 436.223 267.079 436.02 267.074V301.816ZM577.711 450.644C571.434 451.174 569.651 456.309 566.44 460.227C570.934 461.292 576.651 456.341 577.711 450.644ZM358.115 537.575C357.788 537.025 357.451 536.479 357.124 535.934C353.963 536.905 350.803 537.809 347.711 538.969C347.464 539.063 347.731 541.772 347.959 541.802C349.876 542.04 352.026 542.51 353.656 541.786C355.395 541.018 356.678 539.027 358.115 537.575ZM426.855 269.567C426.592 269.547 426.256 269.525 425.988 269.505V300.004C426.251 300.009 426.588 300.015 426.855 300.02V269.567ZM365.051 268.251C364.779 268.246 364.457 268.24 364.184 268.235V298.441C364.457 298.441 364.779 298.43 365.051 298.425V268.251ZM269.187 461.28C265.615 457.743 258.515 455.896 255.067 457.472C256.053 461.603 263.143 462.444 269.187 461.28ZM354.152 300.748C354.375 300.728 354.548 300.705 354.771 300.686V268.592C354.548 268.601 354.375 268.613 354.152 268.622V300.748ZM415.708 298.147C415.981 298.157 416.298 298.152 416.575 298.162V266.749C416.303 266.749 415.985 266.749 415.708 266.749V298.147ZM264.604 465.12C265.932 468.781 272.848 470.847 277.857 469.083C275.474 465.546 267.71 463.227 264.604 465.12ZM474.168 496.347C478.3 497.025 482.189 494.311 484.076 490.154C484.398 489.45 484.294 488.499 484.324 487.661C483.472 487.661 482.124 487.297 481.723 487.723C479.211 490.374 476.888 493.191 474.168 496.347ZM348.95 301.506C349.202 301.501 349.44 301.496 349.693 301.491V266.842C349.44 266.847 349.202 266.853 348.95 266.858V301.506ZM343.872 302.931C344.11 302.911 344.377 302.904 344.615 302.884V263.653C344.377 263.653 344.11 263.653 343.872 263.653V302.931ZM431.933 269.211C431.636 269.211 431.363 269.206 431.066 269.211V300.871C431.363 300.871 431.636 300.882 431.933 300.887V269.211ZM320.463 503.794C318.59 500.34 311.194 498.306 307.582 500.109C308.34 503.552 314.756 505.443 320.463 503.794ZM258.783 453.4C255.553 450.001 247.794 448.063 244.787 449.777C246.457 453.572 251.262 454.861 258.783 453.4ZM303.866 489.705C302.222 486.767 294.751 484.466 292.348 485.804C291.956 486.022 291.506 486.985 291.605 487.089C292.695 488.198 293.804 489.948 295.073 490.092C297.842 490.409 300.686 489.888 303.866 489.69V489.705ZM359.973 269.18C359.73 269.18 359.478 269.18 359.23 269.18V299.184C359.473 299.184 359.725 299.189 359.973 299.184V269.18ZM589.106 446.619C584.727 446.941 580.134 451.649 579.941 455.83C584.018 456.009 588.1 451.979 589.106 446.619ZM299.284 492.662C299.611 497.492 304.58 497.718 311.793 495.712C308.082 492.249 303.871 492.286 299.284 492.662ZM421.777 269.087L421.034 269.041V298.766L421.777 298.781V269.087ZM295.196 481.918C292.189 478.806 284.778 477.609 282.563 479.735C284.545 483.45 288.29 484.127 295.196 481.918ZM338.917 532.157C338.561 532.617 338.159 533.089 337.803 533.55C338.665 534.858 339.507 537.241 340.404 537.266C343.267 537.35 346.19 536.56 349.074 536.104L348.95 534.448C345.571 533.685 342.296 532.92 338.917 532.157ZM248.503 445.876C246.417 442.928 239.897 441.803 236.365 443.646C237.43 447.005 243.469 448.164 248.503 445.876ZM326.284 518.145C326.586 521.881 332.115 524.139 336.564 522.341C334.563 518.68 329.802 516.728 326.284 518.145ZM286.527 475.833C286.616 475.348 286.68 474.863 286.774 474.378C283.678 473.595 280.626 472.687 277.485 472.117C276.623 471.964 275.474 472.852 274.512 473.263C275.186 474.115 275.88 475.645 276.618 475.709C279.893 475.977 283.227 475.833 286.527 475.833ZM198.713 413.828C195.215 412.971 192.431 412.241 189.671 411.676C188.973 411.532 187.66 411.768 187.566 412.109C187.328 412.952 187.333 414.51 187.813 414.788C189.22 415.6 190.885 416.469 192.396 416.32C194.244 416.137 196.057 414.948 198.713 413.828ZM239.957 439.559C240.001 439.138 240.036 438.726 240.081 438.305C235.78 437.75 231.475 437.188 226.209 436.509C229.325 441.102 235.151 441.927 239.957 439.559ZM331.858 526.134C332.447 529.775 338.224 531.517 343.005 529.664C341.875 526.795 336.212 524.965 331.858 526.134ZM598.024 442.408C594.957 442.735 591.108 447.533 590.84 451.279C594.67 451.531 598.683 446.733 598.024 442.408ZM422.149 407.48C426.796 403.21 431.086 399.231 436.144 394.584C429.099 396.645 422.297 403.046 422.149 407.48ZM516.65 474.44C513.425 473.934 509.001 479.053 509.219 483.001C513.074 482.337 517.091 477.69 516.65 474.44ZM215.433 423.674C215.443 423.273 215.418 422.868 215.433 422.467C212.154 422.254 208.805 421.905 205.525 421.925C204.608 421.93 203.712 423.028 202.8 423.628C203.865 424.232 205.02 425.425 206.02 425.331C209.166 425.039 212.312 424.274 215.433 423.69V423.674ZM231.658 434.047C228.25 431.59 221.859 430.941 219.521 432.685C220.71 436.366 225.649 435.588 231.658 434.047ZM223.112 428.474C220.16 426.061 213.159 425.833 211.222 428.087C213.001 430.44 219.783 430.659 223.112 428.474ZM206.268 418.937C206.204 418.541 206.085 418.141 206.02 417.745C203.533 417.581 201.071 417.243 198.589 417.342C197.712 417.377 196.845 418.482 195.988 419.092C196.939 419.711 197.985 420.94 198.837 420.826C201.334 420.484 203.692 419.606 206.144 418.937H206.268ZM325.789 510.451C323.767 507.29 320.299 506.392 316.623 507.943C317.461 510.504 322.737 512.021 325.789 510.451ZM304.733 303.38C304.986 303.399 305.224 303.422 305.476 303.441V286.767C305.224 286.767 304.986 286.757 304.733 286.752V303.38ZM332.972 409.292C332.819 408.826 332.631 408.364 332.477 407.898C330.416 408.324 328.246 408.456 326.408 409.338C325.645 409.705 325.63 411.692 325.293 412.945C325.64 413.163 326.061 413.393 326.408 413.611C328.613 412.174 330.768 410.728 332.972 409.292ZM309.068 304.185C309.356 304.185 309.648 304.19 309.935 304.185V283.33C309.648 283.33 309.356 283.33 309.068 283.33V304.185ZM330.991 513.733C327.681 512.906 324.303 512.074 320.587 511.148C321.216 514.526 326.388 515.858 330.991 513.733ZM181.249 411.165C183.3 409.233 184.831 407.824 186.327 406.412L186.08 405.437C184.94 405.382 183.647 404.944 182.735 405.375C181.532 405.949 180.437 407.075 179.763 408.239C179.51 408.675 180.556 409.871 181.249 411.149V411.165ZM477.884 285.591C477.636 285.591 477.388 285.591 477.14 285.591V304.231C477.388 304.231 477.636 304.231 477.884 304.231V285.591ZM423.759 413.178C425.8 414.525 427.316 415.735 429.084 416.661C429.61 416.934 430.729 416.566 431.314 416.15C431.621 415.932 431.671 414.896 431.438 414.401C430.462 412.29 426.553 411.403 423.759 413.162V413.178ZM472.558 301.243C472.791 301.213 473.068 301.175 473.301 301.15V282.634C473.068 282.639 472.791 282.655 472.558 282.665V301.243ZM419.052 405.669C422.173 402.047 425.096 398.641 428.713 394.444C423.075 396.991 418.824 402.092 419.052 405.669ZM512.811 517.619L525.568 504.846Z" fill="black"/>
<path d="M343.54 257.005C342.777 256.37 342.009 255.741 341.246 255.107C339.155 251.59 336.936 248.141 335.014 244.535C333.161 241.062 331.595 237.435 329.926 233.863C329.45 232.848 329.054 231.797 327.85 231.01C328.915 234.597 329.975 238.183 331.04 241.765L330.406 242.523C328.533 241.329 326.656 240.135 324.555 238.798C324.808 238.634 324.456 238.862 323.634 239.397V230.182C323.356 230.163 323.079 230.148 322.801 230.128C322.618 232.164 322.603 234.24 322.192 236.232C321.954 237.386 321.34 238.823 320.433 239.402C318.922 240.368 317.535 239.992 317.614 237.693C317.758 233.487 318.021 229.281 317.877 225.085C317.837 223.915 316.817 222.295 315.781 221.721C308.588 217.737 305.922 207.69 310.361 200.596C314.771 193.556 324.312 191.951 330.956 197.133C337.639 202.35 338.383 212.377 332.809 218.748C331.838 219.858 331.313 222.053 331.65 223.494C334.196 234.324 338.283 244.391 346.701 252.199C354.236 259.184 361.96 259.71 370.08 253.373C378.15 247.081 381.623 238.139 383.877 228.567C384.328 226.64 384.64 224.683 384.987 222.731C385.775 218.297 385.859 214.502 382.118 210.623C377.491 205.822 377.833 197.653 381.484 192.401C384.467 188.111 391.834 185.921 397.878 187.526C407.524 190.093 410.794 203.93 403.243 211.639C400.786 214.151 400.013 216.42 400.504 219.66C402.391 232.169 406.156 243.851 415.787 252.675C424.353 260.522 432.969 259.967 441.252 251.709C449.545 243.44 452.89 232.907 455.173 221.889C455.372 220.923 454.564 219.556 453.88 218.634C450.596 214.22 449.674 209.37 451.047 204.103C452.691 197.802 458.453 193.481 464.344 194.017C472.602 194.765 478.097 199.734 478.825 207.041C479.444 213.239 476.64 217.574 471.775 221.091C470.561 221.968 469.556 223.9 469.462 225.411C469.164 230.078 469.353 234.77 469.353 239.61C466.103 240.14 464.938 238.397 464.79 235.498C464.671 233.15 464.582 230.797 463.759 228.443V239.164C462.922 238.179 462.595 237.797 462.674 237.891C460.489 239.244 458.394 240.537 455.57 242.286C456.937 237.43 458.057 233.467 459.172 229.504L458.25 229.246C457.056 232.511 456.353 236.073 454.574 238.981C449.199 247.745 444.522 257.119 434.46 261.974C426.964 265.59 414.955 261.478 411.74 253.849C410.759 251.525 409.585 248.939 407.732 247.393C400.642 241.488 398.576 233.343 396.847 224.951C396.535 223.425 396.208 221.904 395.321 220.428C395.525 222.711 395.604 225.015 395.975 227.269C396.362 229.623 396.932 231.956 397.605 234.245C398.279 236.524 399.181 238.733 400.36 242.023C397.447 240.651 394.4 240.165 393.365 238.461C392.28 236.677 393.122 233.72 392.666 231.158C391.938 235.607 393.528 241.364 386.676 241.31C387.88 235.568 389.158 229.652 390.333 223.717C390.551 222.622 390.362 221.443 389.778 220.16C389.58 220.844 389.352 221.522 389.188 222.221C387.984 227.438 387.028 232.734 385.482 237.852C384.814 240.066 383.01 241.978 381.578 243.92C379.389 246.893 376.59 249.519 374.9 252.739C370.134 261.82 359.919 265.481 350.624 260.933C348.202 259.749 345.893 258.322 343.535 257.005H343.54ZM332.943 208.904C332.873 203.058 327.736 197.564 322.331 197.559C316.723 197.549 311.942 202.79 311.962 208.924C311.981 214.294 317.322 219.65 322.613 219.61C328.41 219.565 333.012 214.8 332.938 208.909L332.943 208.904ZM392.572 212.164C399.072 212.233 403.64 207.883 403.773 201.502C403.892 195.874 398.829 190.623 393.191 190.524C387.241 190.415 382.708 195.007 382.609 201.23C382.51 207.418 386.78 212.104 392.572 212.164ZM475.129 208.854C475.144 202.84 469.947 197.663 463.858 197.618C458.547 197.584 454.093 202.726 454.039 208.963C453.984 214.814 458.532 219.491 464.255 219.471C470.2 219.452 475.114 214.651 475.129 208.85V208.854Z" fill="black"/>
<path d="M316.148 277.282V292.105C315.9 292.12 315.657 292.135 315.41 292.15C315.192 287.201 314.969 282.251 314.751 277.302C315.216 277.297 315.682 277.287 316.148 277.282Z" fill="black"/>
<path d="M476.149 539.441C482.912 537.008 489.674 534.576 496.437 532.143C496.526 532.391 496.61 532.634 496.7 532.881C489.902 535.319 483.11 537.761 476.313 540.199C476.258 539.946 476.204 539.693 476.149 539.446V539.441Z" fill="black"/>
<path d="M431.884 499.187C427.915 489.794 423.699 479.821 420.162 471.458C426.206 478.751 431.012 488.471 431.884 499.187Z" fill="black"/>
<path d="M263.46 410.036C260.096 418.319 255.721 429.08 251.782 438.775C252.798 427.896 258.005 417.452 263.46 410.036Z" fill="black"/>
<path d="M247.784 436.809C249.003 424.582 253.863 413.89 261.186 403.888C258.461 409.456 255.577 414.638 253.363 420.088C251.153 425.518 249.617 431.22 247.784 436.804V436.809Z" fill="black"/>
<path d="M322.519 454.901C318.734 463.507 314.097 474.054 309.613 484.255C311.605 472.93 316.866 462.645 322.519 454.901Z" fill="black"/>
<path d="M243.479 432.583C244.43 422.05 249.147 411.998 254.636 403.942C251.193 412.781 247.18 423.086 243.479 432.583Z" fill="black"/>
<path d="M305.065 480.515C307.027 469.551 311.337 459.598 317.347 451.626C313.567 460.514 309.336 470.467 305.065 480.515Z" fill="black"/>
<path d="M528.219 430.125C532.995 438.612 535.873 448.298 535.734 458.652C533.203 449.046 530.641 439.321 528.219 430.125Z" fill="black"/>
<path d="M538.984 426.712C543.319 434.896 546.554 444.671 546.158 455.442C543.656 445.424 541.169 435.451 538.984 426.712Z" fill="black"/>
<path d="M437.214 496.968C433.548 487.822 429.867 478.642 426.518 470.299C432.017 477.736 436.377 486.638 437.214 496.968Z" fill="black"/>
<path d="M302.762 442.412C299.601 450.408 295.622 460.455 291.733 470.289C292.952 459.35 297.758 449.6 302.762 442.412Z" fill="black"/>
<path d="M532.995 427.257C537.795 435.61 541.105 445.731 540.867 455.922C538.281 446.504 535.462 436.249 532.995 427.257Z" fill="black"/>
<path d="M300.819 476.388C300.542 469.893 306.433 455.535 311.813 449.115C308.533 457.25 304.486 467.297 300.819 476.388Z" fill="black"/>
<path d="M274.726 420.39C271.604 428.148 267.458 438.448 263.772 447.619C264.446 437.21 269.756 427.386 274.726 420.39Z" fill="black"/>
<path d="M327.26 458.627C323.554 466.945 318.838 477.532 314.85 486.494C316.435 476.462 321.147 465.885 327.26 458.627Z" fill="black"/>
<path d="M551.023 453.494C548.754 443.853 546.49 434.237 544.627 426.335C548.288 433.781 551.771 443.095 551.023 453.494Z" fill="black"/>
<path d="M442.337 495.303C438.948 486.375 435.381 476.972 432.448 469.253C437.571 476.13 441.732 485.315 442.337 495.303Z" fill="black"/>
<path d="M319.056 493.153C320.577 480.871 325.616 470.864 332.324 461.748C329.896 466.668 327.161 471.632 324.957 476.824C322.787 481.941 321.152 487.282 319.056 493.153Z" fill="black"/>
<path d="M296.163 473.336C297.505 463.076 301.84 453.851 307.141 445.84C303.658 454.559 299.898 463.987 296.163 473.336Z" fill="black"/>
<path d="M531.013 462.66C528.303 452.117 525.791 442.347 523.527 433.539C527.951 441.758 530.374 451.557 531.013 462.66Z" fill="black"/>
<path d="M337.243 474.55C334.261 482.858 330.907 492.212 327.721 501.1C328.36 491.28 332.239 482.115 337.243 474.55Z" fill="black"/>
<path d="M287.621 466.251C288.875 455.818 293.586 446.563 298.357 439.697C295.29 447.282 291.411 456.883 287.621 466.251Z" fill="black"/>
<path d="M283.455 464.567C284.465 455.08 287.641 446.647 292.799 439.097C289.742 447.435 286.635 455.892 283.455 464.567Z" fill="black"/>
<path d="M331.877 506.133C332.16 495.937 336.624 487.792 340.83 479.41C337.882 488.213 334.979 496.883 331.877 506.133Z" fill="black"/>
<path d="M403.437 511.251C400.073 502.715 396.823 494.466 394.009 487.317C399.161 493.51 402.476 501.734 403.437 511.251Z" fill="black"/>
<path d="M323.733 495.457C324.511 485.623 329.346 476.2 334.271 468.813C331.095 476.849 327.231 486.614 323.733 495.457Z" fill="black"/>
<path d="M255.86 441.307C257.148 431.468 261.641 421.668 266.665 414.465C263.46 422.431 259.432 432.434 255.86 441.307Z" fill="black"/>
<path d="M271.609 455.134C272.724 445.226 276.683 436.011 281.488 428.649C278.496 436.675 275.003 446.038 271.609 455.134Z" fill="black"/>
<path d="M269.91 418.3C266.908 426.142 263.197 435.823 259.774 444.765C260.804 434.892 265.119 425.449 269.91 418.3Z" fill="black"/>
<path d="M467.455 487.089C464.79 478.657 462.035 469.933 459.583 462.179C464.096 469.274 467.297 477.854 467.455 487.089Z" fill="black"/>
<path d="M285.08 432.315C282.082 440.375 278.946 448.793 275.82 457.215C276.663 447.936 280.279 439.677 285.08 432.315Z" fill="black"/>
<path d="M439.518 470.166C443.952 477.151 446.94 485.241 447.301 494.228C444.646 486.024 441.995 477.82 439.518 470.166Z" fill="black"/>
<path d="M277.044 426.311C274.285 433.95 271.015 443.021 267.983 451.414C268.211 442.015 272.927 433.474 277.044 426.311Z" fill="black"/>
<path d="M344.184 484.463C341.429 492.643 338.506 501.318 335.806 509.344C334.954 505.519 339.616 491.191 344.184 484.463Z" fill="black"/>
<path d="M408.871 509.111C405.626 500.758 402.743 493.336 400.028 486.356C404.635 492.583 408.019 499.831 408.871 509.111Z" fill="black"/>
<path d="M398.026 511.905C394.598 503.849 391.298 496.116 388.346 489.18C393.191 495.268 396.827 502.853 398.026 511.905Z" fill="black"/>
<path d="M525.058 463.497C523.195 455.199 521.337 446.9 519.484 438.646C522.898 446.534 525.563 454.659 525.058 463.497Z" fill="black"/>
<path d="M504.522 445.939C508.164 453.391 510.715 461.357 510.641 470.007C508.585 461.912 506.524 453.822 504.522 445.939Z" fill="black"/>
<path d="M279.888 459.558C280.819 450.908 283.881 442.476 288.667 435.892C285.942 443.234 282.826 451.642 279.888 459.558Z" fill="black"/>
<path d="M464.423 459.286C468.778 465.895 471.681 474.728 471.953 483.502C469.446 475.446 466.687 466.568 464.423 459.286Z" fill="black"/>
<path d="M484.181 451.146C487.921 458.166 491.231 466.841 491.3 475.912C488.902 467.564 486.356 458.701 484.181 451.146Z" fill="black"/>
<path d="M520.341 465.602C518.31 457.205 516.363 449.159 514.584 441.797C518.236 448.728 520.292 456.784 520.341 465.602Z" fill="black"/>
<path d="M455.902 466.678C459.613 473.366 462.347 480.852 462.536 489.764C460.167 481.526 457.983 473.916 455.902 466.678Z" fill="black"/>
<path d="M509.759 444.146C513.46 451.959 515.917 459.663 515.595 468.134C513.663 460.198 511.761 452.365 509.759 444.146Z" fill="black"/>
<path d="M347.652 488.862C345.259 496.229 342.445 504.889 339.75 513.197C340.057 504.102 344.124 495.823 347.652 488.862Z" fill="black"/>
<path d="M557.092 428.208C558.544 435.258 559.995 442.303 561.447 449.353L560.144 449.63C558.895 442.575 557.642 435.52 556.394 428.461C556.626 428.376 556.859 428.292 557.092 428.208Z" fill="black"/>
<path d="M452.32 492.152C449.947 484.478 447.569 476.809 445.196 469.135C445.448 469.051 445.701 468.971 445.954 468.887L453.35 491.905C453.009 491.989 452.667 492.068 452.325 492.152H452.32Z" fill="black"/>
<path d="M482.01 482.07C479.657 473.044 477.561 465.023 475.669 457.745C479.37 464.557 481.337 472.647 482.01 482.07Z" fill="black"/>
<path d="M561.585 428.198C564.345 434.406 565.856 441.258 564.935 448.545C563.795 441.624 562.656 434.698 561.585 428.198Z" fill="black"/>
<path d="M239.021 428.743C241.958 420.489 244.896 412.241 247.834 403.987C248.062 404.071 248.29 404.15 248.518 404.235C245.62 412.498 242.721 420.767 239.823 429.03C239.556 428.936 239.288 428.837 239.021 428.743Z" fill="black"/>
<path d="M486.499 479.014C484.597 471.473 482.69 463.938 480.787 456.397L481.535 456.194C483.537 463.745 485.538 471.3 487.54 478.85C487.193 478.905 486.846 478.959 486.499 479.014Z" fill="black"/>
<path d="M419.498 503.066C416.679 495.823 414.004 488.942 410.932 481.055C415.109 488.545 418.884 495.036 419.498 503.066Z" fill="black"/>
<path d="M384.467 493.544C388.143 500.124 391.75 506.876 392.136 515.234C389.461 507.674 386.934 500.52 384.467 493.544Z" fill="black"/>
<path d="M555.447 452.415C554.273 445.236 553.094 438.052 551.92 430.874C552.182 430.829 552.445 430.779 552.708 430.735L556.473 452.256C556.131 452.311 555.789 452.365 555.447 452.415Z" fill="black"/>
<path d="M405.903 485.038C409.599 491.266 413.508 497.364 414.008 505.172C411.214 498.231 408.559 491.637 405.903 485.038Z" fill="black"/>
<path d="M574.432 445.543C573.367 438.627 572.297 431.706 571.231 424.79C571.499 424.745 571.766 424.7 572.034 424.656C573.183 431.552 574.338 438.443 575.487 445.34C575.135 445.409 574.789 445.478 574.437 445.548L574.432 445.543Z" fill="black"/>
<path d="M476.858 482.541C474.812 474.827 472.9 467.619 471.186 461.173C474.549 467.188 476.615 474.386 476.858 482.541Z" fill="black"/>
<path d="M579.317 442.491C578.118 435.961 576.919 429.432 575.72 422.897C575.958 422.848 576.195 422.798 576.428 422.749C577.761 429.268 579.089 435.793 580.421 442.313C580.05 442.372 579.683 442.427 579.312 442.486L579.317 442.491Z" fill="black"/>
<path d="M505.34 472.221C503.987 465.662 502.64 459.107 501.287 452.548C501.545 452.488 501.797 452.434 502.055 452.375C503.521 458.924 504.983 465.473 506.449 472.023C506.078 472.087 505.706 472.152 505.34 472.221Z" fill="black"/>
<path d="M351.229 504.26C349.975 510.612 348.722 516.968 347.469 523.319C347.151 523.255 346.834 523.185 346.517 523.121C347.835 516.78 349.148 510.433 350.466 504.092C350.719 504.151 350.976 504.206 351.229 504.265V504.26Z" fill="black"/>
<path d="M231.009 400.236C229.102 406.474 226.897 413.672 224.851 420.346C224.108 417.071 227.923 404.636 231.009 400.236Z" fill="black"/>
<path d="M452.31 470.012L457.908 489.105C457.606 489.194 457.309 489.284 457.006 489.373C455.188 483.002 453.365 476.626 451.547 470.254C451.8 470.175 452.057 470.096 452.31 470.012Z" fill="black"/>
<path d="M215.988 417.532C218.163 410.447 220.338 403.368 222.508 396.283C222.691 396.343 222.874 396.397 223.058 396.457C220.997 403.571 218.941 410.69 216.88 417.804C216.583 417.715 216.285 417.621 215.983 417.532H215.988Z" fill="black"/>
<path d="M342.698 518.543C344.278 512.029 345.858 505.514 347.439 499.004C347.672 499.058 347.904 499.113 348.137 499.167C346.596 505.692 345.056 512.212 343.515 518.737C343.242 518.672 342.975 518.608 342.702 518.543H342.698Z" fill="black"/>
<path d="M581.828 423.601C582.948 429.541 584.068 435.486 585.182 441.426C584.816 441.495 584.449 441.565 584.087 441.634C583.106 435.669 582.121 429.699 581.14 423.734C581.368 423.69 581.595 423.645 581.828 423.601Z" fill="black"/>
<path d="M382.381 500.248C384.056 505.737 385.73 511.221 387.405 516.71C387.048 516.819 386.696 516.928 386.339 517.037C384.764 511.509 383.189 505.975 381.608 500.446C381.866 500.381 382.123 500.317 382.376 500.248H382.381Z" fill="black"/>
<path d="M219.823 418.879C222.151 411.795 224.48 404.705 226.808 397.621C227.011 397.685 227.214 397.754 227.423 397.819C225.139 404.903 222.86 411.988 220.576 419.067C220.323 419.003 220.075 418.939 219.823 418.874V418.879Z" fill="black"/>
<path d="M392.413 293.443C391.849 309.802 381.732 328.42 363.917 329.887C359.339 330.263 354.013 329.049 349.956 326.86C334.682 318.611 329.306 304.234 327.567 287.964C328.935 292.12 329.772 296.564 331.788 300.379C335.152 306.74 338.432 313.473 343.238 318.675C355.286 331.725 371.472 330.704 381.9 316.267C386.052 310.52 388.291 303.381 391.363 296.862C391.769 296 391.938 295.029 392.418 293.443H392.413Z" fill="black"/>
<path d="M459.211 288.87C457.531 305.586 451.651 319.884 435.718 327.81C423.981 333.651 408.747 328.623 401.673 316.435C398.834 311.546 397.184 305.967 394.989 300.701C395.341 300.552 395.688 300.404 396.04 300.255C397.818 304.035 399.423 307.914 401.415 311.58C406.676 321.261 414.157 327.82 425.879 327.568C432.845 327.419 438.507 324.139 443.387 319.373C451.567 311.382 456.229 301.508 458.76 290.505C458.889 289.955 459.062 289.415 459.211 288.87Z" fill="black"/>
<path d="M327.077 296.203C325.155 300.954 323.871 306.106 321.181 310.367C315.618 319.17 304.763 320.582 296.628 314.048C290.237 308.92 285.823 302.361 282.915 293.701C287.131 299.185 290.653 304.045 294.473 308.662C299.313 314.518 306.908 316.728 312.878 314.162C317.718 312.081 320.463 307.939 322.658 303.411C323.871 300.904 324.837 298.273 325.913 295.697C326.304 295.861 326.69 296.029 327.082 296.193L327.077 296.203Z" fill="black"/>
<path d="M336.688 362.114C336.614 364.209 335.306 366.131 332.313 366.3C329.222 366.473 326.378 363.213 326.532 359.805C326.666 356.758 328.548 355.396 331.402 355.371C334.444 355.341 336.738 358.026 336.688 362.119V362.114Z" fill="black"/>
<path d="M450.348 361.777C450.358 357.947 453.009 355.212 456.11 355.371C458.964 355.514 460.767 357.03 460.886 359.963C461.015 363.154 458.022 366.339 455.079 366.136C452.112 365.933 450.546 364.135 450.348 361.777Z" fill="black"/>
<path d="M356.673 366.796C356.683 363.016 358.611 361.599 361.484 361.386C364.229 361.182 366.503 363.932 366.314 367.093C366.141 369.971 364.452 371.378 361.623 371.388C358.457 371.393 356.629 369.441 356.673 366.796Z" fill="black"/>
<path d="M393.127 373.826C389.931 373.756 387.811 371.492 387.88 368.213C387.949 364.809 390.64 362.173 393.89 362.337C396.595 362.471 399.072 365.215 399.022 368.024C398.968 371.106 396.144 373.89 393.127 373.826ZM389.505 367.375C391.15 368.782 392.18 370.323 393.037 370.229C394.108 370.115 395.034 368.658 396.025 367.781C395.123 366.801 394.36 365.285 393.28 365.007C392.478 364.799 391.269 366.201 389.505 367.37V367.375Z" fill="black"/>
<path d="M429.387 365.789C429.392 369.158 427.89 370.991 424.868 371.264C422.257 371.502 420.177 369.307 420.187 366.632C420.196 363.565 422.119 361.321 424.893 361.336C427.989 361.355 429.233 363.253 429.387 365.794V365.789Z" fill="black"/>
<path d="M479.142 351.591C479.211 348.465 481.302 346.2 484.116 346.309C486.806 346.413 488.153 347.925 488.158 350.565C488.163 353.394 485.865 355.98 483.472 355.96C481.024 355.94 479.087 353.988 479.142 351.591Z" fill="black"/>
<path d="M301.904 346.349C306.056 346.443 308.409 348.97 308.3 351.977C308.216 354.385 306.859 355.817 304.421 355.856C301.627 355.901 298.868 352.983 299.408 350.05C299.695 348.479 301.33 347.157 301.904 346.354V346.349Z" fill="black"/>
<path d="M463.442 508.655C461.837 513.876 460.236 519.093 458.631 524.315C458.329 524.221 458.027 524.127 457.72 524.033C459.241 518.806 460.762 513.579 462.283 508.353C462.669 508.452 463.055 508.556 463.442 508.655Z" fill="black"/>
<path d="M287.562 326.096C296.708 330.54 307.111 335.598 316.193 340.013C306.448 336.951 295.85 332.299 287.562 326.096Z" fill="black"/>
<path d="M375.202 387.222C346.572 384.467 318.268 380.623 294.141 362.827C318.853 378.681 346.765 383.828 375.202 387.222Z" fill="black"/>
<path d="M482.694 371.006C472.315 374.702 461.936 378.398 451.557 382.089C451.473 381.856 451.388 381.623 451.304 381.39C461.673 377.724 472.043 374.058 482.417 370.392L482.694 371.001V371.006Z" fill="black"/>
<path d="M257.658 232.412C258.149 237.237 261.399 240.576 265.293 240.259C271.907 239.714 274.968 235.592 274.339 228.072C276.925 231.163 276.811 234.686 274.022 238.258C271.178 241.889 266.368 243.237 262.538 241.473C258.481 239.605 256.732 236.36 257.658 232.412Z" fill="black"/>
<path d="M402.782 258.114C403.278 263.158 401.465 266.185 398.18 268.181C394.514 270.406 390.664 269.767 387.206 267.562C383.927 265.471 383.198 262.182 383.595 258.798C384.734 260.78 385.512 263.42 387.276 264.852C389.015 266.264 391.72 266.958 394.043 267.062C398.358 267.255 401.138 264.327 402.777 258.114H402.782Z" fill="black"/>
<path d="M512.137 227.458C511.146 234.418 513.886 238.941 519.326 240.012C523.631 240.859 527.723 237.49 529.358 231.753C530.329 234.919 528.541 238.699 524.988 240.997C521.347 243.356 517.096 242.766 513.48 239.392C510.497 236.613 509.823 231.951 512.137 227.453V227.458Z" fill="black"/>
<path d="M455.362 257.708C456.59 263.252 459.375 265.714 464.393 266.036C468.406 266.294 470.789 263.941 473.004 257.545C473.801 261.503 472.389 264.862 469.105 266.824C465.473 268.994 460.504 268.618 457.343 265.69C455.149 263.658 454.534 261.038 455.362 257.703V257.708Z" fill="black"/>
<path d="M330.208 255.741C332.343 259.467 331.58 262.315 329.415 264.921C327.102 267.701 322.276 268.825 318.749 267.532C315.097 266.19 313.007 262.999 312.843 258.986C314.057 260.497 315.187 262.905 317.074 263.985C319.016 265.095 321.825 265.585 324.025 265.159C328.781 264.238 330.55 261.29 330.203 255.741H330.208Z" fill="black"/>
<path d="M606.189 450.864C614.66 455.833 618.118 455.456 620.615 449.59C620.908 449.675 621.205 449.759 621.497 449.843C620.828 451.74 620.615 454.039 619.382 455.441C617.187 457.933 614.021 458.017 610.935 457.032C608.165 456.145 606.729 454.123 606.184 450.869L606.189 450.864Z" fill="black"/>
<path d="M192.505 423.546C191.267 425.468 190.558 427.574 189.097 428.624C186.273 430.655 182.844 430.566 180.11 428.485C178.623 427.351 177.989 425.106 176.979 423.382C179.847 424.77 182.166 426.756 184.519 426.791C186.897 426.83 189.305 424.938 192.505 423.541V423.546Z" fill="black"/>
</svg>
