<svg width="800" height="800" viewBox="0 0 800 800" fill="none" xmlns="http://www.w3.org/2000/svg">
<path d="M632.443 539.827C635.097 541.466 637.552 542.982 640 544.498C639.87 544.744 639.739 544.998 639.609 545.245C638.841 544.936 638.025 544.717 637.319 544.312C636.029 543.579 634.836 542.687 633.547 541.953C630.482 540.211 629.597 540.397 626.682 543.352C628.877 545.32 632.381 545.526 634.034 548.475C632.573 549.339 631.997 548.057 631.195 547.693C629.233 546.802 627.402 545.595 625.393 544.854C623.802 544.271 622.047 544.257 620.682 546.027C622.348 548.55 625.475 548.934 627.56 550.669C627.457 550.875 627.361 551.088 627.258 551.293C626.566 551.136 625.818 551.101 625.201 550.793C623.775 550.073 622.451 549.147 621.018 548.448C620.003 547.954 618.899 547.583 617.795 547.378C616.739 547.186 615.642 547.446 615.319 548.667C615.018 549.792 615.888 550.176 616.752 550.635C619.269 551.966 619.249 552.007 620.6 554.667C618.618 553.454 617.219 552.59 615.813 551.746C614.647 551.04 613.529 550.203 612.274 549.709C611.129 549.257 609.792 549.03 608.866 550.704C610.93 552.823 613.029 554.983 615.127 557.136C614.983 557.314 614.839 557.486 614.695 557.664C614.085 557.308 613.468 556.958 612.864 556.588C610.917 555.408 609.044 554.064 607.008 553.076C604.916 552.062 604.176 552.398 602.269 554.496C604.518 556.766 608.468 557.417 609.435 561.937C608.235 561.031 607.604 560.483 606.912 560.037C604.813 558.693 602.77 557.232 600.562 556.108C598.854 555.243 597.29 555.874 596.173 557.39C597.167 560.586 601.817 559.742 602.502 563.898C601.364 563.418 600.596 563.178 599.91 562.794C598.024 561.731 596.248 560.455 594.287 559.557C592.099 558.556 590.145 559.276 588.362 561.114C590.44 563.569 594.835 563.246 595.549 567.162C593.896 567.807 593.169 566.703 592.264 566.127C590.824 565.201 589.466 564.138 587.964 563.329C585.653 562.087 583.843 562.471 581.422 564.536C582.725 567.279 587.217 566.682 587.957 570.756C583.671 568.616 580.407 563.932 574.934 567.059C576.052 570.234 580.167 570.262 581.051 574.225C578.96 572.971 577.485 572.017 575.942 571.188C574.338 570.323 572.713 569.473 571.019 568.829C569.88 568.396 568.632 568.65 568.138 569.939C567.693 571.105 568.523 571.86 569.469 572.408C571.087 573.348 572.905 574.075 574.07 576.564C572.863 576.29 572.205 576.297 571.739 576.002C570.292 575.09 568.955 573.999 567.501 573.101C565.101 571.62 563.736 571.77 561.253 573.684C562.111 577.099 566.767 577.058 568.056 581.117C566.726 580.432 565.93 580.144 565.279 579.664C563.907 578.642 562.652 577.455 561.267 576.461C558.462 574.452 556.796 574.754 554.204 577.75C555.932 579.739 559.498 579.869 560.266 583.291C558.572 583.243 557.975 581.975 557.015 581.303C554.787 579.753 552.64 577.785 549.568 579.094C549.074 579.307 548.649 579.691 548.272 579.938C548.217 581.975 549.822 582.174 550.919 582.859C551.954 583.504 552.997 584.142 553.532 585.993C552.4 585.52 551.666 585.342 551.083 584.944C550.24 584.368 549.554 583.572 548.724 582.969C546.009 581.008 544.576 581.138 541.647 583.641C543.382 585.266 545.117 586.892 547.236 588.88C546.194 588.97 545.625 589.093 545.59 589.004C544.685 586.72 542.155 586.7 540.577 585.362C539.371 584.334 537.972 584.553 536.703 585.198C534.598 586.274 532.554 587.481 530.154 588.812C530.744 589.731 531.32 590.615 531.717 591.233C529.996 590.951 528.055 590.444 526.108 590.403C525.168 590.382 524.208 591.253 523.056 591.815C524.654 594.373 528.11 594.092 528.858 597.267C528.131 597.13 527.486 597.164 527.034 596.883C525.497 595.937 524.085 594.799 522.535 593.88C519.806 592.254 518.942 592.439 516.164 595.025C516.576 595.683 517.008 596.369 517.714 597.494C513.901 595.512 510.987 596.053 508.511 599.064C508.134 599.523 507.098 599.489 506.358 599.592C503.128 600.051 501.955 600.792 500.597 603.528C501.784 604.091 503.011 604.584 504.143 605.229C505.274 605.88 506.852 606.134 506.996 607.835C507.016 608.082 506.509 608.603 506.474 608.589C505.446 608.006 504.321 607.513 503.464 606.731C500.104 603.638 498.067 603.055 494.919 604.557C494.528 604.742 494.24 605.126 493.548 605.73C494.35 606.491 494.995 607.19 495.735 607.78C496.798 608.637 498.012 609.337 499.006 610.263C499.857 611.058 499.706 611.86 498.526 612.279C496.956 610.763 495.543 609.117 493.856 607.828C491.483 606.011 489.522 606.553 487.629 609.234C488.274 611.854 492.588 611.607 492.423 615.852C490.88 614.446 489.796 613.547 488.823 612.553C485.833 609.501 484.036 609.158 481.005 611.819C479.709 612.958 478.522 613.492 476.89 613.616C475.896 613.691 474.819 614.014 473.969 614.535C470.472 616.647 466.247 617.422 463.223 620.446C462.661 621.015 461.598 621.153 460.741 621.338C459.856 621.537 458.834 621.345 458.052 621.708C457.209 622.092 456.256 622.805 455.968 623.601C455.803 624.06 456.743 625.109 457.394 625.631C458.772 626.721 460.645 627.372 460.446 629.821C458.635 629.875 458.155 628.381 457.271 627.482C455.474 625.665 453.458 624.478 450.845 625.418C450.077 625.692 449.041 626.351 448.918 626.988C448.808 627.544 449.659 628.552 450.331 628.957C451.915 629.923 453.526 630.753 453.615 633.099C452.251 633.62 451.483 632.625 450.701 631.94C449.844 631.192 449.24 630.109 448.301 629.519C447.197 628.826 445.859 628.099 444.625 628.106C441.765 628.12 440.874 629.903 442.314 633.071C439.955 631.658 437.788 630.602 435.456 631.898C434.675 632.337 434.092 633.14 433.413 633.791C435.779 635.753 437.781 637.385 439.735 639.072C439.907 639.222 439.79 639.709 439.811 640.004C438.817 640.999 438.069 640.285 437.424 639.682C436.176 638.509 435.093 637.151 433.783 636.061C431.403 634.086 429.223 634.456 427.049 637.09C428.269 639.545 432.405 639.799 432.315 644.05C431.246 643.179 430.539 642.679 429.929 642.089C428.955 641.136 428.091 640.073 427.09 639.147C425.122 637.316 423.503 637.186 421.261 638.55C419.444 639.655 419.334 641.012 421.014 642.295C421.83 642.919 422.77 643.378 423.551 644.03C423.908 644.331 424.025 644.921 423.839 645.744C422.68 644.77 421.57 643.728 420.342 642.836C417.764 640.964 415.171 640.971 412.689 642.644C411.564 643.406 411.969 644.112 412.785 645.072C411.338 645.072 410.014 644.853 408.801 645.134C407.573 645.415 406.455 646.183 405.269 646.745C406.051 649.283 409.541 649.509 408.903 652.835C407.841 651.786 406.819 651.045 406.14 650.071C404.597 647.843 402.684 647.705 400.448 648.72C399.57 649.118 398.72 649.571 397.904 649.968C398.5 652.993 402.176 653.082 402.642 656.278C401.881 656.031 401.319 656.01 401.003 655.722C400.167 654.947 399.474 654.021 398.658 653.233C395.84 650.503 393.858 650.634 390.737 653.864C392.054 655.496 394.694 656.106 395.058 659.069C394.345 658.815 393.81 658.767 393.481 658.479C392.877 657.965 392.418 657.292 391.862 656.716C389.249 653.987 387.775 653.946 384.428 656.62C385.162 658.088 385.917 659.597 386.671 661.105C386.472 661.229 386.273 661.352 386.067 661.482C385.279 660.708 384.497 659.919 383.695 659.151C381.912 657.464 381.342 657.395 379.155 658.458C377.207 659.411 375.239 660.324 373.298 661.284C369.774 663.019 366.166 662.758 363.273 660.399C359.268 657.128 355.757 656.531 352.06 660.577C351.882 660.769 351.443 660.714 350.648 660.872C351.059 660.049 351.203 659.439 351.587 659.062C352.149 658.513 353.027 658.246 353.493 657.649C353.919 657.1 354.296 656.147 354.097 655.592C353.884 655.009 352.863 654.241 352.355 654.337C350.264 654.755 348.158 655.29 346.204 656.133C344.489 656.874 342.974 658.088 340.958 658.609C341.232 658.273 341.445 657.862 341.781 657.615C343.605 656.278 345.559 655.098 347.274 653.637C348.7 652.424 348.426 651.265 346.814 650.469C345.511 649.831 344.263 648.995 342.885 648.631C341.904 648.371 340.546 648.412 339.723 648.919C337.597 650.236 335.67 651.868 333.689 653.411C332.804 654.097 331.981 654.858 331.151 655.557C329.69 654.741 329.759 653.843 330.801 653.075C333.085 651.388 335.444 649.79 337.783 648.179C338.324 647.808 338.928 647.534 339.49 647.219C337.879 643.968 336.795 643.392 333.894 644.935C330.575 646.697 327.462 648.837 324.252 650.798C323.635 651.175 322.97 651.47 322.161 651.573C323.018 648.981 325.494 648.213 327.393 646.841C329.389 645.394 331.81 644.489 333.243 642.377C331.57 639.771 331.103 639.504 328.566 640.656C324.52 642.494 320.549 644.51 316.558 646.464C315.961 646.759 315.392 647.102 314.672 647.493C313.986 646.21 314.645 645.703 315.468 645.243C318.554 643.522 321.667 641.828 324.719 640.045C325.837 639.394 327.427 638.838 326.721 637.014C326.282 635.876 324.492 635.341 322.744 636.047C319.788 637.247 316.935 638.715 314.034 640.045C312.93 640.553 311.799 640.999 310.42 641.582C309.927 639.373 310.983 638.838 312.416 638.454C315.42 637.645 317.964 636.027 320.275 634.004C318.231 631.268 316.538 630.698 313.788 631.988C310.379 633.592 307.053 635.362 303.679 637.042C303.028 637.371 302.322 637.597 301.238 638.043C301.704 636.034 303.083 635.588 304.159 634.95C306.313 633.661 308.541 632.488 310.75 631.281C311.854 630.678 312.677 629.882 312.025 628.552C311.408 627.29 310.276 626.639 308.905 627.174C307.211 627.839 305.606 628.73 303.954 629.505C302.136 630.356 300.484 631.652 297.864 631.768C298.838 630.129 300.175 629.539 301.286 628.737C302.116 628.141 303.042 627.667 303.913 627.119C305.051 626.405 305.956 625.555 305.263 624.053C304.701 622.84 303.24 622.243 301.718 622.874C299.928 623.608 298.255 624.616 296.534 625.514C295.724 625.939 294.977 626.57 294.12 626.783C293.249 627.002 292.275 626.831 290.622 626.831C293.715 624.026 297.473 623.518 299.469 620.611C297.898 618.355 297.082 617.923 294.668 618.814C292.001 619.802 289.45 621.111 286.837 622.263C286.007 622.634 285.171 623.059 284.293 623.251C283.847 623.354 283.305 622.997 282.283 622.696C285.603 619.781 289.861 619.335 292.673 616.592C291.171 614.206 289.662 613.774 286.926 614.885C284.389 615.92 281.879 617.011 279.328 618.012C277.984 618.54 276.585 618.924 274.85 618.848C275.186 618.396 275.419 617.731 275.872 617.518C277.62 616.688 279.465 616.05 281.221 615.234C282.729 614.535 284.176 613.685 285.644 612.91C284.121 609.968 283.429 609.611 281.063 610.516C278.217 611.607 275.398 612.779 272.566 613.911C272.456 613.712 272.347 613.513 272.23 613.314C273.924 612.094 275.632 610.907 277.291 609.645C278.162 608.98 279.39 608.404 278.813 606.95C278.361 605.805 276.969 605.496 275.22 606.306C273.156 607.266 271.174 608.418 269.178 609.522C268.109 610.112 267.073 610.77 265.592 611.058C265.921 610.468 266.12 609.707 266.607 609.316C268.116 608.109 269.741 607.046 271.311 605.915C272.223 605.256 273.492 604.653 272.648 603.247C271.784 601.8 270.543 602.28 269.37 602.952C267.587 603.981 265.818 605.03 264.008 605.99C262.746 606.662 261.422 607.204 259.996 607.54C261.889 604.063 266.223 604.029 268.561 601.313C267.149 598.207 266.435 597.912 263.658 599.187C260.757 600.518 257.863 601.882 254.942 603.172C254.393 603.412 253.728 603.377 252.329 603.583C254.949 599.558 259.084 599.4 262.053 597.487C261.326 594.84 260.202 594.085 257.335 594.826C254.585 595.539 251.911 596.575 249.216 597.5C248.242 597.83 247.33 598.364 246.336 598.584C244.813 598.92 244.381 598.159 244.854 595.971C245.519 596.506 246.096 597.315 246.774 597.425C247.433 597.528 248.235 596.972 248.921 596.595C250.622 595.663 252.309 594.696 253.954 593.681C254.592 593.29 255.12 592.728 255.984 592.001C252.322 589.868 249.168 587.817 245.094 590.375C242.879 591.767 240.431 592.782 238.051 593.907C237.311 594.257 236.474 594.401 235.24 594.771C236.056 591.589 238.456 591.171 240.356 590.128C242.303 589.065 244.724 588.771 246.144 586.83C244.793 584.306 244.038 583.819 241.576 584.704C239.121 585.582 236.783 586.823 234.431 587.968C233.203 588.565 232.078 589.388 230.837 589.95C230.09 590.286 229.205 590.307 228.204 590.108C230.954 585.938 236.584 585.513 239.498 581.618C238.456 579.904 237.208 579.622 235.775 580.096C234.259 580.596 232.764 581.172 231.31 581.831C227.717 583.449 224.151 585.136 220.468 586.624C221.95 584.533 224.034 583.216 226.208 582.023C228.108 580.98 230.055 580.007 231.88 578.841C232.428 578.491 233.052 577.469 232.901 577.01C232.709 576.447 231.688 575.748 231.105 575.816C229.438 576.002 227.724 576.324 226.201 576.996C223.596 578.148 221.134 579.622 218.596 580.925C218.048 581.207 217.43 581.337 216.669 581.255C219.001 577.833 223.513 577.27 226.208 574.136C224.748 572.223 223.129 571.674 221.058 572.635C218.884 573.643 216.704 574.644 214.523 575.631C213.192 576.235 211.855 576.818 210.161 577.565C210.271 575.714 211.361 575.09 212.363 574.493C214.132 573.451 216.004 572.587 217.739 571.496C218.301 571.14 218.987 570.221 218.877 569.734C218.74 569.144 217.842 568.403 217.218 568.342C216.128 568.232 214.907 568.39 213.892 568.801C211.67 569.693 209.565 570.852 207.37 571.818C206.527 572.189 205.69 573.142 204.394 572.086C206.657 569.13 211.211 568.938 212.815 565.29C211.608 563.72 210.154 563.761 208.721 564.364C206.938 565.112 205.231 566.037 203.496 566.888C201.987 567.622 200.499 568.458 198.222 567.491C199.971 566.607 201.349 565.921 202.721 565.221C203.633 564.755 204.565 564.316 205.436 563.781C206.444 563.157 207.322 562.369 206.794 561.004C206.348 559.852 205.231 559.639 203.592 560.304C201.054 561.333 198.524 562.375 195.973 563.384C195.39 563.61 194.752 563.692 193.785 563.932C194.601 561.765 196.329 561.635 197.701 560.99C199.121 560.325 200.533 559.653 202.2 558.864C201.637 558.055 201.39 557.363 200.897 557.026C197.838 554.921 196.851 551.753 196.844 548.379C196.844 543.606 197.358 538.833 197.495 534.053C197.612 529.829 197.53 525.605 197.495 521.373C197.454 515.791 197.379 510.209 197.317 504.634C197.248 499.045 197.152 493.456 197.125 487.867C197.111 485.816 197.351 483.759 197.331 481.709C197.187 469.831 197.036 457.954 196.809 446.076C196.734 442.202 196.48 438.32 196.185 434.453C196 432.032 196.899 430.132 198.805 428.843C200.869 427.451 203.002 426.031 205.306 425.14C211.903 422.596 218.61 420.346 225.241 417.884C226.243 417.514 227.127 416.705 227.895 415.937C228.163 415.669 228.115 414.757 227.861 414.38C227.621 414.037 226.908 413.88 226.407 413.9C225.859 413.921 225.317 414.202 224.789 414.421C217.286 417.562 209.428 419.53 201.548 421.437C196.892 422.568 193.477 421.217 190.596 417.267C181.62 404.978 174.803 391.53 169.79 377.273C166.629 368.276 164.146 359.011 162.891 349.424C161.184 336.34 160.519 323.249 161.369 310.123C161.897 301.949 162.521 293.651 164.434 285.73C167.891 271.446 173.733 258.053 182.388 246.004C186.763 239.907 192.098 234.805 197.989 230.217C199.223 229.257 200.177 227.941 201.322 226.85C203.208 225.047 204.881 222.845 207.089 221.611C214.297 217.579 221.943 214.644 230.234 213.54C234.177 213.018 237.983 213.334 241.693 214.596C245.622 215.933 249.298 216.571 253.584 215.22C270.763 209.802 288.256 205.413 305.277 199.406C313.225 196.601 321.502 194.756 329.615 192.397C338.05 189.949 346.451 187.378 354.879 184.902C372.722 179.663 390.587 174.506 408.41 169.198C417.585 166.469 426.679 163.437 435.84 160.646C439.105 159.652 442.458 158.925 445.777 158.102C447.663 157.636 449.021 156.662 449.809 154.776C450.468 153.206 451.352 151.711 452.299 150.291C455.056 146.156 459.287 144.126 463.806 142.707C469.457 140.924 475.183 139.367 480.882 137.735C484.592 136.672 488.281 136.885 492.053 137.598C501.283 139.346 509.485 143.043 515.972 149.948C518.702 152.856 521.225 156.004 523.447 159.316C528.021 166.146 532.314 173.162 536.758 180.081C539.35 184.12 541.983 188.132 544.644 192.116C545.851 193.927 545.988 195.641 544.788 197.527C536.579 210.447 528.515 223.456 520.19 236.293C510.802 250.763 501.105 265.027 491.689 279.476C482.767 293.157 473.887 306.866 464.149 319.991C462.99 321.548 461.721 323.022 460.569 324.586C459.931 325.45 459.41 326.403 458.457 327.932C460.103 328.083 461.118 328.433 461.975 328.207C466.316 327.034 470.622 327.884 474.847 328.522C486.278 330.25 495.982 335.517 504.033 343.787C505.459 345.255 506.701 346.914 507.956 348.547C509.211 350.185 510.63 350.487 512.729 350.199C516.761 349.644 520.862 349.383 524.935 349.445C528.213 349.493 531.587 349.822 534.735 350.686C543.471 353.093 551.083 357.688 557.729 363.791C563.324 368.927 567.974 374.825 571.231 381.772C571.842 383.082 572.843 384.275 573.892 385.29C574.448 385.832 575.462 385.941 576.299 386.127C577.828 386.463 579.454 386.517 580.907 387.045C583.26 387.903 585.523 389.027 587.799 390.09C592.243 392.175 596.66 394.328 601.11 396.392C610.937 400.96 620.716 405.65 630.653 409.978C635.049 411.891 636.88 414.73 636.791 419.475C636.605 428.946 636.811 438.43 636.743 447.907C636.701 453.373 636.352 458.838 636.304 464.311C636.187 477.553 636.187 490.795 636.077 504.03C636.05 507.109 635.824 510.189 635.632 513.268C635.474 515.784 635.652 518.198 636.269 520.701C637.497 525.659 637.017 530.72 635.687 535.596C635.282 537.084 633.732 538.25 632.498 539.834L632.443 539.827ZM358.095 231.939C359.192 229.875 358.301 227.612 357.786 225.458C356.723 221.014 358.102 217.366 360.941 214.095C363.321 211.352 366.283 209.555 369.815 208.561C378.167 206.216 386.486 203.774 394.804 201.326C399.625 199.907 404.412 198.425 409.541 198.46C411.454 198.473 413.381 197.938 415.281 197.582C417.304 197.205 419.286 196.608 421.323 196.327C426.72 195.586 431.815 196.416 436.245 199.797C437.699 200.908 439.084 202.204 439.214 204.213C439.358 206.49 439.516 208.78 439.434 211.057C439.317 214.143 438.103 216.804 435.785 218.93C435.031 219.622 434.236 220.336 433.721 221.2C433.337 221.844 433.365 222.743 433.097 224.135C434.949 223.73 436.17 223.566 437.315 223.188C440.236 222.235 443.089 221.083 446.031 220.192C460.885 215.686 475.759 211.263 490.606 206.757C494.103 205.694 497.553 204.494 500.995 203.267C502.353 202.78 502.97 201.786 502.319 200.277C501.551 198.508 500.508 197.973 498.876 198.521C496.064 199.461 493.273 200.455 490.434 201.299C484.303 203.109 478.152 204.837 472.015 206.606C470.149 207.141 468.298 207.745 466.426 208.232C465.87 208.376 465.239 208.252 463.923 208.252C464.883 207.423 465.225 206.936 465.692 206.764C468.558 205.674 471.418 204.57 474.332 203.623C481.485 201.312 488.658 199.09 495.824 196.827C496.147 196.725 496.442 196.533 496.764 196.409C498.252 195.813 498.924 194.839 498.375 193.186C497.854 191.636 496.887 190.95 495.255 191.314C494.028 191.588 492.766 191.76 491.586 192.164C483.817 194.832 476.067 197.548 468.305 200.243C467.008 200.695 465.726 201.182 464.409 201.532C464.101 201.614 463.484 201.278 463.333 200.976C463.182 200.675 463.312 200.016 463.566 199.79C464.06 199.351 464.697 199.036 465.328 198.796C467.783 197.856 470.218 196.862 472.721 196.087C478.063 194.441 483.446 192.946 488.802 191.341C489.879 191.019 490.866 190.347 491.95 190.086C492.444 189.963 493.088 190.443 493.685 190.649C493.945 190.004 494.083 189.565 494.288 189.167C494.542 188.681 494.857 188.221 495.104 187.823C493.301 184.621 493.294 184.6 490.352 185.451C487.616 186.239 484.886 187.048 482.164 187.892C475.004 190.093 467.859 192.315 460.322 194.654C460.741 192.425 462.071 191.622 463.765 191.122C468.366 189.764 472.961 188.406 477.549 187C482.116 185.595 486.69 184.196 490.811 181.775C489.851 178.051 489.097 177.64 485.86 178.613C478.975 180.678 472.076 182.694 465.171 184.689C464.519 184.881 463.792 184.813 462.832 184.881C463.49 182.872 465.047 182.804 466.234 182.392C471.637 180.54 477.082 178.833 482.486 176.988C483.926 176.494 485.27 175.706 486.649 175.054C485.229 172.085 483.967 171.55 480.998 172.442C478.159 173.292 475.347 174.245 472.522 175.13C468.167 176.488 463.806 177.839 459.438 179.169C458.354 179.498 457.168 180.355 455.899 178.469C464.663 175.164 473.434 172.599 482.068 169.623C480.731 166.366 479.654 165.666 476.746 166.441C471.356 167.881 465.994 169.445 460.638 171.015C456.509 172.229 452.408 173.532 448.287 174.801C447.951 172.298 448.465 171.317 451.332 170.569C456.283 169.28 461.296 168.183 466.309 167.141C469.518 166.475 472.645 165.721 475.567 163.725C474.346 161.648 472.577 160.845 470.643 160.681C468.613 160.509 466.432 160.352 464.526 160.907C454.562 163.821 444.111 164.878 434.407 168.807C433.042 169.356 431.534 169.541 430.107 169.939C426.699 170.885 423.291 171.831 419.896 172.839C416.941 173.717 414.019 174.711 411.064 175.582C401.531 178.373 391.979 181.096 382.453 183.914C373.813 186.472 365.206 189.161 356.559 191.698C349.111 193.879 341.595 195.833 334.155 198.048C319.706 202.348 305.27 206.702 290.856 211.133C280.596 214.287 270.379 217.592 260.161 220.864C258.899 221.268 257.719 221.92 256.533 222.441C257.692 226.007 258.81 226.727 261.793 225.856C268.362 223.95 274.939 222.071 281.461 220.02C290.712 217.112 299.908 214.033 309.145 211.085C310.434 210.673 311.819 210.454 313.177 210.385C313.753 210.358 314.357 210.934 314.953 211.235C314.933 211.503 314.912 211.777 314.892 212.045C312.423 212.799 309.954 213.574 307.479 214.315C297.521 217.27 287.543 220.157 277.62 223.202C273.368 224.505 269.185 226.048 265.036 227.653C262.513 228.626 261.978 229.593 262.561 231.013C263.26 232.707 264.495 233.139 266.765 232.522C268.52 232.048 270.283 231.568 272.059 231.191C272.744 231.047 273.492 231.171 274.905 231.171C272.504 233.955 269.494 234.394 267.32 235.998C268.328 239.29 269.124 239.825 271.839 239.071C273.046 238.735 274.212 238.193 275.439 237.987C276.79 237.761 278.224 237.301 280.329 238.351C276.955 239.955 274.226 241.258 271.531 242.534C272.292 245.997 272.978 246.594 276.139 245.846C282.441 244.365 288.702 242.712 294.984 241.162C295.388 241.059 295.868 241.293 296.28 241.21C297.789 240.915 299.359 240.723 300.779 240.175C302.287 239.585 302.226 239.427 304.187 239.708C303.192 240.182 302.411 240.682 301.554 240.95C295.018 242.986 288.469 244.989 281.92 246.984C280.391 247.451 278.807 247.759 277.318 248.308C275.865 248.843 275.632 249.679 276.338 250.962C277.531 253.143 279.458 253.63 281.79 252.724C284.862 251.538 288.003 250.537 291.164 249.604C292.241 249.289 293.482 249.165 294.675 250.427C290.053 252.141 285.431 253.863 280.432 255.714C281.33 257.312 281.735 258.807 282.709 259.52C283.628 260.192 285.15 260.041 286.748 260.309C284.834 261.79 285.088 263.443 286.035 265.192C286.302 265.685 286.364 266.282 286.583 266.81C287.605 269.244 288.16 269.512 290.78 268.703C305.936 263.998 321.091 259.301 336.233 254.555C343.961 252.135 351.662 249.611 359.377 247.122C362.415 246.141 365.46 245.167 368.471 244.09C369.108 243.864 369.602 243.233 369.993 242.925C365.974 239.215 362.182 235.704 358.088 231.918L358.095 231.939ZM533.816 201.93C533.59 201.648 533.356 201.367 533.13 201.086C531.978 201.45 530.84 201.834 529.681 202.183C523.447 204.042 517.316 206.462 510.959 207.608C501.139 209.377 491.682 212.326 482.171 215.137C472.536 217.983 462.962 221.035 453.334 223.908C445.571 226.226 437.733 228.311 429.991 230.697C421.693 233.249 413.477 236.046 405.214 238.707C390.113 243.569 374.999 248.404 359.899 253.266C349.681 256.558 339.483 259.904 329.258 263.155C318.705 266.508 308.116 269.738 297.576 273.126C294.113 274.237 290.718 275.601 287.351 276.987C285.253 277.851 283.353 279.222 281.214 279.929C274.61 282.123 267.965 284.235 261.272 286.135C258.11 287.033 256.217 288.912 254.887 291.779C252.727 296.442 250.388 301.016 248.146 305.645C246.054 309.958 243.757 314.19 241.96 318.626C235.199 335.345 228.608 352.14 221.943 368.893C220.804 371.76 219.501 374.558 218.439 377.452C213.954 389.658 208.886 401.618 203.413 413.914C204.545 413.818 205.519 413.852 206.438 413.626C211.869 412.295 217.3 410.965 222.697 409.504C226.544 408.462 230.33 407.207 234.156 406.082C236.234 405.472 238.353 404.992 240.424 404.361C245.993 402.667 251.472 400.589 257.136 399.321C260.634 398.539 262.945 396.701 264.694 393.972C268.815 387.56 274.521 382.965 280.919 379.022C289.799 373.55 299.4 370.56 309.824 370.957C315.152 371.156 320.542 371.842 325.734 373.042C330.39 374.119 334.491 372.713 338.77 371.691C340.608 371.252 342.439 370.786 344.29 370.326C344.942 373.934 343.893 375.621 340.814 376.457C339.662 376.773 338.496 377.04 337.351 377.321C337.337 379.591 338.66 380.558 339.936 381.491C342.041 383.02 343.831 385.105 346.608 385.489C347.712 385.646 348.371 385.077 348.433 383.973C348.508 382.718 348.439 381.456 348.508 380.208C348.789 375.038 348.577 369.84 351.169 365.005C353.589 360.486 355.503 355.706 357.841 351.139C360.118 346.702 363.492 343.026 367.367 340.009C381.054 329.338 396.525 325.196 413.676 328.46C419.368 329.544 425.081 330.943 429.771 334.749C431.637 336.264 433.289 335.393 434.702 334.18C438.199 331.169 442.355 329.715 446.723 328.659C447.389 328.502 448.047 328.303 448.712 328.124C450.557 327.637 451.963 326.623 453.06 325.018C459.122 316.158 465.383 307.428 471.301 298.465C479.798 285.6 488.034 272.557 496.421 259.623C501.146 252.34 505.981 245.133 510.719 237.857C517.392 227.618 524.023 217.352 530.654 207.087C531.752 205.393 532.767 203.651 533.823 201.93H533.816ZM535.249 507.528C535.112 507.212 534.975 506.904 534.838 506.588C535.455 506.005 535.976 505.231 536.703 504.867C538.616 503.9 540.626 503.125 542.587 502.247C551.968 498.071 561.349 493.888 570.731 489.712C573.974 488.265 574.722 485.138 572.452 481.791C568.358 483.382 564.182 484.911 560.081 486.619C548.388 491.488 536.703 496.384 525.059 501.383C521.932 502.727 518.811 504.216 515.979 506.088C512.783 508.2 509.423 509.688 505.809 510.854C501.263 512.328 496.764 514.015 492.368 515.908C486.711 518.349 481.218 521.175 475.581 523.671C464.416 528.615 453.197 533.422 442.012 538.326C440.236 539.101 438.57 540.115 436.8 540.911C433.831 542.255 432.864 544.395 432.94 547.7C433.111 555.339 432.802 562.986 432.706 570.632C432.686 572.429 432.706 574.225 433.708 575.988C434.483 575.748 435.148 575.611 435.758 575.35C443.644 572.031 451.531 568.705 459.41 565.359C463.189 563.754 466.995 562.177 470.718 560.448C481.272 555.545 491.772 550.525 502.339 545.643C509.8 542.2 517.344 538.943 524.819 535.535C534.481 531.132 544.095 526.633 553.751 522.217C559.669 519.508 565.656 516.95 571.547 514.2C574.557 512.795 574.729 511.56 572.603 508.46C565.642 510.23 559.765 515.099 551.817 516.484C553.072 514.351 554.663 513.72 556.131 513.055C560.705 510.991 565.327 509.03 569.921 507C570.957 506.54 572.041 506.081 572.918 505.395C574.125 504.456 574.317 502.638 573.577 501.335C572.665 499.731 571.403 500.512 570.285 500.951C569.119 501.404 568.036 502.069 566.89 502.59C561.281 505.148 555.678 507.713 550.041 510.202C549.102 510.614 548.1 511.526 546.763 510.532C547.291 508.762 548.848 508.179 550.226 507.514C553.1 506.115 555.994 504.757 558.942 503.523C562.728 501.939 566.63 500.615 570.381 498.949C573.796 497.426 574.448 494.814 572.418 491.268C570.168 492.256 567.885 493.257 565.601 494.272C560.177 496.672 554.869 499.408 549.287 501.363C545.789 502.59 542.594 504.133 539.549 506.143C538.98 506.52 538.39 506.931 537.752 507.123C536.95 507.363 536.086 507.404 535.249 507.528ZM305.922 514.392C306.141 514.125 306.368 513.857 306.587 513.59C311.333 516.511 316.092 519.412 320.824 522.361C327.798 526.709 334.717 531.159 342.267 534.499C343.351 534.979 344.524 535.267 345.676 535.651C346.725 531.879 346.204 530.885 343.42 529.596C339.799 527.923 336.15 526.27 332.735 524.226C325.885 520.119 319.157 515.791 312.437 511.478C310.105 509.983 307.931 508.241 305.689 506.616C306.525 506.389 307.019 506.636 307.499 506.917C316.215 512.136 324.89 517.437 333.668 522.553C336.912 524.446 340.368 525.968 343.769 527.573C344.496 527.916 345.408 527.854 346.403 527.998C346.519 525.982 345.491 525.083 344.311 524.363C339.428 521.408 334.532 518.48 329.629 515.572C316.668 507.884 303.686 500.238 290.739 492.53C283.086 487.97 275.357 483.526 267.889 478.671C254.38 469.886 240.486 461.767 226.489 453.805C225.872 453.455 225.091 453.4 224.089 453.126C223.986 455.259 224.117 457.103 223.767 458.845C223.253 461.403 224.13 463.015 226.359 464.16C228.897 465.463 231.461 466.738 233.896 468.213C237.455 470.366 241 472.567 243.894 475.647C240.308 473.905 236.879 471.916 233.423 469.989C231.029 468.659 228.643 467.294 226.16 466.162C224.268 465.298 223.438 466.011 223.301 468.069C223.191 469.749 224.199 470.442 225.468 471.168C229.623 473.555 233.738 476.01 237.825 478.513C239.848 479.754 241.713 481.242 243.75 482.456C244.895 483.135 246.322 483.341 247.467 484.013C252.199 486.783 256.876 489.643 261.566 492.482C264.886 494.491 268.212 496.508 271.51 498.551C272.415 499.113 273.561 499.655 272.772 501.267C271.86 500.828 271.003 500.512 270.241 500.039C265.372 497.056 260.545 494.018 255.669 491.049C251.28 488.381 246.857 485.768 242.44 483.149C237.537 480.241 232.627 477.333 227.703 474.453C227.12 474.11 226.455 473.761 225.804 473.706C225.091 473.644 224.055 473.678 223.692 474.11C223.287 474.604 223.15 475.797 223.479 476.312C224.124 477.327 225.056 478.266 226.078 478.904C229.377 480.947 232.785 482.82 236.124 484.802C241.336 487.887 246.582 490.953 250.334 495.911C251.417 497.344 252.946 497.666 254.592 497.653C257.959 497.625 260.826 498.942 263.397 500.965C264.92 502.165 266.298 503.537 267.759 504.812C268.438 505.402 269.124 506.019 269.885 506.492C278.052 511.526 286.233 516.518 294.401 521.552C296.719 522.978 298.694 524.802 300.449 527.024C297.665 527.792 297.021 527.875 294.449 526.407C290.382 524.089 286.46 521.531 282.448 519.124C278.567 516.793 274.644 514.516 270.502 512.068C269.686 514.9 270.036 517.081 271.366 518.768C268.76 523.945 264.46 527.093 259.187 528.547C258.522 530.432 259.454 531.502 260.455 532.449C262.19 534.101 263.816 535.987 265.832 537.208C273.053 541.583 280.404 545.752 287.756 549.901C288.915 550.553 290.369 551.04 291.658 550.978C292.885 550.923 294.408 550.347 295.19 549.462C296.191 548.338 295.615 546.795 294.504 545.794C292.597 544.079 292.632 542.022 293.208 539.814C293.352 539.258 293.489 538.71 293.619 538.154C295.299 531.056 302.198 526.887 309.817 529.651C314.364 531.296 318.334 534.053 321.777 537.475C324.026 539.718 325.439 542.42 325.651 545.656C325.795 547.926 325.85 550.21 326.063 552.48C326.632 558.556 320.769 563.905 315.324 563.912C314.185 563.912 313.026 563.685 311.909 563.809C311.36 563.87 310.53 564.44 310.434 564.892C310.311 565.537 310.695 566.319 310.983 566.991C311.093 567.244 311.538 567.361 311.826 567.539C322.483 573.965 333.133 580.391 343.81 586.789C344.332 587.104 345.031 587.118 345.628 587.269C346.8 583.909 346.65 582.962 344.098 581.289C338.386 577.551 332.968 573.334 326.742 570.413C326.022 570.077 325.308 569.699 324.671 569.226C324.218 568.89 323.896 568.376 323.519 567.937C324.657 567.745 325.562 567.882 326.289 568.321C331.46 571.462 336.582 574.678 341.746 577.833C342.96 578.573 344.263 579.163 345.566 579.849C346.821 576.242 346.519 574.795 343.817 573.08C340.635 571.064 337.289 569.315 334.031 567.43C333.106 566.895 332.242 566.264 331.35 565.674C337.159 565.756 340.917 569.933 345.751 572.422C346.752 569.295 346.869 566.771 344.524 565.029C345.141 564.302 346.019 563.726 346.204 562.979C346.938 559.962 345.312 557.993 342.919 556.457C338.208 553.433 333.503 550.409 328.806 547.364C328.058 546.884 327.359 546.329 326.522 545.718C326.954 544.765 327.318 543.969 327.839 542.838C329.807 543.805 331.679 544.614 333.435 545.608C336.514 547.357 339.497 549.277 342.576 551.026C343.591 551.602 344.64 552.487 345.964 551.993C346.807 547.741 346.43 546.884 342.974 544.916C339.305 542.831 335.574 540.836 331.981 538.627C317.1 529.479 302.232 520.311 287.413 511.053C284.087 508.975 281.001 506.52 277.805 504.236C277.936 504.037 278.066 503.838 278.203 503.633C286.151 507.336 293.125 512.726 300.689 517.101C308.295 521.497 315.673 526.297 323.128 530.954C330.541 535.583 337.879 540.335 345.717 544.388C346.938 540.253 346.691 539.395 343.605 537.626C340.937 536.09 338.139 534.773 335.499 533.189C326.79 527.964 318.115 522.683 309.467 517.355C308.171 516.552 307.101 515.387 305.922 514.392ZM205.546 432.731C206.774 433.767 207.651 434.665 208.673 435.351C215.03 439.603 221.312 443.985 227.827 447.983C238.244 454.381 248.852 460.443 259.31 466.773C271.62 474.22 283.778 481.935 296.15 489.273C312.45 498.942 328.868 508.419 345.299 517.862C351.038 521.161 356.97 524.123 362.84 527.189C365.81 528.739 368.958 529.116 372.133 527.95C376.734 526.256 381.37 524.624 385.841 522.642C396.909 517.746 407.635 511.958 418.977 507.816C438.007 500.869 456.173 492.002 474.662 483.876C490.962 476.709 507.119 469.228 523.653 462.569C537.738 456.898 551.598 450.671 565.519 444.602C570.333 442.503 574.996 440.076 579.783 437.916C585.29 435.426 590.831 432.992 596.406 430.653C605.876 426.676 615.388 422.794 624.858 418.831C625.955 418.371 627.3 417.946 627.217 416.3C610.882 407.104 593.121 400.912 576.807 391.736C576.471 391.551 575.963 391.668 575.202 391.633C575.469 393.951 575.613 396.077 576.004 398.162C576.128 398.834 576.807 399.52 577.41 399.952C578.233 400.541 579.207 400.939 580.153 401.337C590.673 405.767 601.199 410.176 611.712 414.627C612.432 414.936 613.036 415.512 614.133 416.266C612.473 416.972 611.452 417.432 610.409 417.843C601.803 421.231 593.135 424.475 584.59 428.02C575.099 431.956 565.731 436.194 556.282 440.234C540.118 447.153 523.934 454.045 507.743 460.909C500.488 463.988 493.15 466.869 485.929 470.03C474.84 474.892 463.868 480.001 452.772 484.843C440.421 490.24 427.995 495.445 415.61 500.759C408.478 503.825 401.36 506.918 394.262 510.058C387.37 513.11 380.52 516.251 373.634 519.309C372.181 519.954 370.624 520.386 369.129 520.941C367.641 521.497 366.283 521.339 364.87 520.557C361.771 518.85 358.527 517.389 355.475 515.599C340.299 506.719 325.151 497.776 310.016 488.82C304.811 485.741 299.681 482.518 294.49 479.411C286.652 474.714 278.772 470.092 270.941 465.387C260.366 459.037 249.84 452.605 239.245 446.282C233.457 442.826 227.58 439.52 221.751 436.146C220.585 435.467 219.309 434.871 219.241 433.191C219.57 432.964 219.81 432.697 220.105 432.601C230.604 429.104 241.117 425.634 251.616 422.122C255.305 420.888 256.3 418.886 255.196 415.128C251.424 415.21 214.413 428.287 205.539 432.745L205.546 432.731ZM320.453 452.392C320.131 452.344 319.809 452.289 319.486 452.241C318.636 453.819 317.594 455.327 316.97 456.994C314.46 463.707 313.623 470.688 313.767 477.848C313.849 482.01 316.448 484.472 319.191 486.893C320.385 487.949 321.509 487.51 322.099 485.995C322.675 484.507 322.298 483.272 321.009 482.394C320.385 481.969 319.623 481.75 318.821 481.386C319.191 480.008 319.527 478.726 319.829 477.608C319.239 476.421 316.332 476.497 318.437 474.282C319.891 475.002 320.872 475.797 320.817 477.628C320.762 479.555 321.962 480.714 323.793 481.311C324.822 481.647 325.775 482.189 327.133 482.799C325.85 483.409 325.027 483.807 324.739 483.937C324.623 485.46 324.678 486.509 324.438 487.476C323.978 489.293 324.259 490.37 325.631 490.85C327.475 491.495 327.921 490.219 327.997 488.395C329.252 489.328 330.308 489.849 330.98 490.685C331.858 491.783 330.486 492.468 330.123 493.353C329.608 494.615 330.349 495.253 331.412 495.698C334.196 496.857 336.98 498.023 339.847 499.223C340.702 498.236 340.91 496.549 340.471 494.162C343.906 494.985 347.164 495.767 350.414 496.549C350.387 496.809 350.353 497.077 350.325 497.337C349.379 497.337 348.426 497.413 347.486 497.317C346.478 497.214 345.47 496.748 344.482 496.816C343.708 496.871 342.555 497.33 342.322 497.913C342.055 498.579 342.37 499.786 342.878 500.389C343.982 501.699 345.552 502.055 347.239 501.534C347.767 501.37 348.46 500.794 348.748 500.965C350.977 502.282 353.418 501.706 355.763 501.946C356.346 502.007 356.874 502.515 358.212 503.242C357.217 504.277 356.559 504.956 355.805 505.745C354.748 504.826 354.33 504.462 353.919 504.106C353.185 503.468 352.273 502.871 351.546 503.784C351.066 504.387 350.846 505.491 351.018 506.252C351.299 507.507 352.417 508.042 353.685 507.809C354.556 507.644 355.386 507.233 356.381 506.876C356.929 507.473 357.354 508.262 357.999 508.536C358.596 508.79 359.425 508.502 360.241 508.447C359.624 510.545 360.886 511.581 362.381 512.28C364.582 513.316 366.921 513.851 369.369 513.144C371.234 512.603 373.065 511.924 374.958 511.512C377.653 510.922 379.779 509.558 381.514 507.199C381.164 506.506 380.773 505.745 380.3 504.812C382.008 504.435 383.009 505.059 384.044 506.136C385.032 507.158 386.849 506.732 387.473 505.484C388.118 504.195 387.583 503.317 386.335 502.748C380.026 499.875 375.753 494.567 370.823 490.048C373.449 486.818 373.977 486.77 376.803 489.314C377.653 490.075 378.469 490.884 379.374 491.577C383.626 494.841 387.672 498.387 392.788 500.368C395.97 501.603 397.232 501.383 399.09 498.448C400.921 495.554 402.492 492.503 404.295 489.588C406.915 485.371 407.696 480.707 408.074 475.873C408.478 470.613 406.949 465.71 405.721 460.724C404.391 455.327 401.202 451.007 397.609 447.002C395.867 445.061 393.652 443.422 390.724 443.82C388.81 444.081 386.883 444.403 385.025 444.917C378.956 446.604 374.245 450.424 370.35 455.142C365.728 460.738 360.454 465.237 353.397 467.376C352.746 467.575 352.095 467.836 351.498 468.165C349.036 469.529 346.382 469.92 343.598 470.071C333.73 470.592 325.782 465.607 322.079 456.418C321.537 455.074 320.995 453.723 320.46 452.378L320.453 452.392ZM463.943 586.103C464.128 586.425 464.32 586.748 464.505 587.07C463.58 587.845 462.716 588.709 461.707 589.36C460.562 590.101 459.321 590.711 458.073 591.267C449.857 594.943 442.307 600.045 433.57 602.603C432.343 602.959 432.322 604.166 432.604 605.202C432.898 606.265 433.714 606.566 434.757 606.258C435.635 605.997 436.547 605.839 437.376 605.469C443.411 602.76 449.446 600.065 455.433 597.254C460.802 594.737 466.096 592.049 471.452 589.484C478.454 586.13 485.504 582.866 492.498 579.506C501.66 575.11 510.733 570.522 519.957 566.264C533.02 560.229 546.201 554.462 559.299 548.502C563.139 546.754 566.884 544.779 570.628 542.824C572.109 542.049 573.625 541.185 573.878 539.217C572.575 537.928 571.197 538.271 569.942 538.737C567.802 539.533 565.711 540.458 563.64 541.418C559.704 543.243 555.815 545.17 551.858 546.953C550.48 547.57 548.951 547.871 547.339 548.365C547.085 546.253 548.244 545.718 549.39 545.19C555.829 542.248 562.282 539.334 568.701 536.351C570.244 535.631 571.704 534.725 573.165 533.841C574.674 532.929 574.461 531.571 573.913 530.213C573.289 528.677 572.095 528.67 570.786 529.171C569.4 529.706 568.042 530.302 566.657 530.837C564.902 531.516 563.132 532.167 561.116 532.929C561.075 530.899 562.255 530.494 563.215 530.014C565.773 528.745 568.379 527.58 570.95 526.338C573.316 525.2 574.139 523.945 573.954 521.874C573.803 520.173 573.158 519.508 571.519 519.892C569.757 520.304 568.008 520.914 566.355 521.661C552.304 528.005 538.294 534.437 524.236 540.76C514.553 545.115 504.781 549.277 495.097 553.632C478.639 561.024 462.208 568.486 445.777 575.933C442.657 577.346 439.571 578.834 436.451 580.247C434.208 581.261 433.296 582.942 433.31 585.404C433.33 590.087 433.152 594.771 433.077 599.455C433.07 599.997 433.241 600.538 433.385 601.457C443.768 596.335 453.471 590.43 463.929 586.103H463.943ZM612.549 532.737C609.682 532.236 609.607 532.353 606.836 533.758C603.792 535.301 600.651 536.652 597.537 538.058C595.562 538.95 593.436 539.574 591.585 540.678C585.749 544.161 579.57 546.74 573.001 548.454C572.02 548.708 571.101 549.229 570.168 549.661C554.807 556.704 539.425 563.706 524.092 570.804C509.272 577.661 494.473 584.553 479.709 591.527C468.25 596.938 456.797 602.376 445.455 608.027C440.051 610.715 434.928 613.966 429.634 616.88C428.16 617.689 426.555 618.279 424.964 618.835C421.851 619.925 418.641 620.762 415.59 622.003C411.05 623.848 406.579 625.864 402.149 627.969C399.172 629.382 395.915 630.616 393.535 632.769C391.41 634.696 389.325 635.54 386.643 635.876C382.063 636.452 377.831 638.146 373.833 640.477C372.05 641.52 371.227 642.795 371.632 644.969C371.968 646.745 371.865 648.604 371.989 650.421C372.064 651.518 372.201 652.616 372.311 653.672C376.631 653.672 386.479 648.144 389.435 644.27C394.324 644.174 396.107 643.666 400.489 641.259C401.888 640.491 403.328 639.792 404.775 639.106C411.379 635.993 417.969 632.838 424.621 629.821C426.589 628.929 427.618 627.606 428.057 625.521C428.414 623.82 428.818 622.003 430.738 620.796C430.937 621.502 431.095 621.914 431.157 622.339C431.733 626.179 432.261 626.495 435.696 625.013C436.115 624.835 436.519 624.616 436.938 624.424C446.045 620.206 455.158 616.002 464.259 611.771C473.578 607.437 482.911 603.131 492.197 598.735C508.189 591.157 524.153 583.531 540.111 575.899C552.777 569.843 565.416 563.733 578.082 557.671C583.232 555.209 588.423 552.843 593.56 550.354C598.593 547.913 603.599 545.423 608.558 542.831C609.614 542.282 610.896 541.35 611.198 540.335C611.925 537.88 612.13 535.281 612.542 532.743L612.549 532.737ZM552.551 370.333C552.572 368.255 551.399 367.501 550.24 366.774C547.332 364.964 544.493 363.016 541.469 361.425C529.42 355.096 517.145 354.691 504.506 359.841C494.261 364.017 491.483 379.488 499.857 386.394C501.002 387.34 502.147 388.28 503.292 389.219C503.978 389.782 504.671 390.323 505.768 391.194C504.87 391.722 504.266 392.374 503.718 392.326C502.723 392.244 501.681 391.901 500.81 391.4C494.508 387.766 491.175 382.149 490.489 375.024C490.263 372.713 490.736 370.333 490.921 367.481C490.05 368.201 489.515 368.557 489.083 369.017C482.706 375.806 478.31 383.61 476.678 392.895C476.362 394.678 475.409 396.392 476.259 398.217C477.062 399.945 478.543 400.939 479.723 401.495C481.794 399.883 483.556 398.511 485.318 397.14C485.483 397.353 485.654 397.558 485.819 397.771C484.976 398.463 484.166 399.204 483.282 399.842C480.744 401.673 480.655 402.379 482.733 404.683C484.859 407.042 487.444 408.976 488.761 412.055C489.44 413.633 491.024 414.236 492.821 413.845C493.465 413.701 494.117 413.578 494.151 413.564C495.557 414.771 496.483 415.848 497.642 416.499C499.596 417.596 501.688 418.46 503.745 419.352C504.568 419.709 505.542 420.23 506.33 420.079C508.511 419.654 509.876 420.806 511.494 421.93C510.287 422.849 509.313 423.59 508.477 424.221C507.229 423.35 506.207 422.472 505.041 421.862C503.457 421.025 501.743 420.442 500.124 419.667C497.408 418.364 494.734 416.986 492.032 415.669C491.888 415.601 491.621 415.772 491.209 415.882C490.859 417.672 491.902 418.968 493.246 419.736C495.392 420.963 497.738 421.855 500.001 422.877C500.824 423.247 501.832 423.398 502.456 423.967C504.595 425.922 507.846 425.682 509.841 427.862C510.033 428.068 510.486 428.068 510.822 428.102C514.114 428.445 517.399 428.809 520.697 429.083C521.417 429.145 522.165 428.905 523.09 428.781C522.919 427.403 522.885 426.264 522.631 425.174C519.915 413.502 520.923 402.05 524.675 390.769C524.956 389.919 525.333 389.034 525.895 388.355C528.439 385.276 530.963 382.17 533.692 379.255C537.45 375.243 542.045 372.562 547.476 371.424C549.129 371.074 550.775 370.71 552.537 370.326L552.551 370.333ZM325.699 382.897C325.795 382.602 325.885 382.307 325.981 382.012C325.171 381.525 324.424 380.832 323.553 380.572C317.717 378.871 311.737 377.712 305.661 378.178C295.094 378.988 285.623 382.759 277.936 390.179C274.761 393.245 271.887 396.722 269.35 400.342C261.704 411.239 260.792 423.405 263.384 436.05C264.577 441.879 267.8 446.714 271.105 451.562C277.161 460.464 286.028 465.127 295.793 468.412C298.433 469.303 301.403 469.255 304.228 469.523C305.62 469.653 306.326 468.713 306.429 467.424C306.532 466.073 305.764 465.285 304.461 465.065C303.679 464.935 302.87 464.921 302.075 464.846C299.812 464.64 297.528 464.565 295.299 464.187C292.755 463.755 292.165 462.898 292.097 460.23C292.062 458.907 292.097 457.577 292.097 456.28C292.892 456.034 293.592 455.807 295.018 455.362C293.242 454.059 291.98 453.133 290.019 451.693C289.758 455.663 290.286 458.742 290.622 461.89C288.277 461.348 287.482 459.846 287.379 457.542C284.69 459.689 282.455 458.646 280.816 456.85C278.135 453.921 275.81 450.657 273.355 447.523C273.252 447.393 273.341 447.119 273.341 446.892C273.924 447.077 274.507 447.27 275.529 447.606C275.117 446.303 274.637 445.37 274.603 444.43C274.582 443.793 275.049 442.778 275.556 442.586C276.091 442.373 277.366 442.757 277.538 443.189C277.922 444.17 278.039 445.37 277.881 446.419C277.552 448.552 277.929 450.41 279.335 452.454C280.014 451.268 280.542 450.328 280.994 449.533C281.296 449.416 281.413 449.32 281.509 449.34C282.4 449.512 283.285 449.718 284.176 449.882C286.59 450.335 287.413 449.471 286.796 447.146C286.604 446.419 286.425 445.692 286.24 444.958C287.968 443.772 289.162 444.094 290.211 445.603C289.669 447.208 288.641 448.799 290.211 450.493C295.91 450.753 301.704 451.028 307.575 451.295C307.931 452.927 307.04 454.799 308.349 456.774C310.612 453.524 312.67 450.561 314.617 447.763C311.641 444.417 308.857 441.413 306.21 438.293C295.162 425.277 296.623 406.288 304.934 395.33C309.577 389.206 315.283 384.741 323.21 383.747C324.074 383.637 324.897 383.191 325.734 382.897H325.699ZM459.959 474.659C458.656 472.993 456.921 472.732 455.289 472.321C452.806 471.69 450.742 470.469 448.774 468.775C444.337 464.962 441.615 459.963 438.762 455.053C437.973 453.695 437.431 452.111 437.116 450.568C435.888 444.472 435.641 438.355 436.992 432.224C440.462 416.465 453.129 406.096 469.196 405.883C470.273 405.87 471.356 405.76 472.433 405.691C472.515 405.445 472.604 405.198 472.687 404.951C471.672 404.135 470.732 403.182 469.621 402.53C467.447 401.268 465.205 400.137 462.942 399.04C454.891 395.138 446.367 394.068 437.603 395.398C429.648 396.612 422.797 400.39 416.269 405.006C410.618 409.011 408.321 413.88 410.549 420.627C410.92 421.745 410.968 422.973 411.283 424.872C407.251 422.767 406.743 419.084 404.912 416.067C404.295 416.739 403.712 417.137 403.452 417.686C400.962 422.952 398.617 428.287 397.671 434.075C397.513 435.022 398.075 436.311 398.72 437.113C400.475 439.294 402.396 441.351 404.371 443.34C405.235 444.211 406.291 445.006 407.408 445.473C410.577 446.803 413.827 447.921 417.023 449.176C417.873 449.512 418.758 449.992 417.942 451.466C416.851 449.773 415.679 448.737 413.608 450.136C413.107 450.479 411.626 449.635 410.762 449.087C410.179 448.716 409.87 447.907 409.068 446.762C408.581 447.873 407.93 448.655 408.115 449.073C409.027 451.137 409.994 453.181 412.579 453.825C414.938 454.415 417.208 455.327 418.984 457.343C416.707 456.904 414.431 456.466 412.175 456.034C411.379 459.36 411.743 459.942 414.588 460.011C416.897 460.07 418.442 461.218 419.224 463.454C418.271 463.817 417.208 464.016 416.399 464.585C415.734 465.051 415.199 465.909 414.972 466.697C414.876 467.04 415.727 468.055 416.111 468.041C416.92 468 417.846 467.644 418.477 467.122C419.19 466.526 419.629 465.6 420.164 464.846C421.631 465.861 422.708 467.047 424.018 467.424C427.57 468.453 431.225 469.118 434.825 469.996C435.415 470.14 435.923 470.64 436.451 470.97C434.503 475.091 435.182 476.017 439.708 475.962C440.593 475.955 441.47 476.353 442.362 476.476C443.699 476.661 445.084 477.011 446.387 476.84C447.485 476.696 448.239 476.86 449.227 477.34C450.241 477.834 451.661 477.978 452.745 477.69C453.348 477.532 453.629 476.175 454.061 475.352C456.818 477.196 457.332 477.155 459.959 474.659ZM360.893 360.417C360.612 360.493 360.324 360.568 360.043 360.643C359.329 363.119 358.671 365.602 357.903 368.057C356.401 372.829 355.976 377.671 356.881 382.609C358.006 388.712 359.583 394.699 363.273 399.801C367.524 405.678 372.853 410.506 378.764 414.702C382.481 417.343 386.623 418.838 391.087 419.523C394.379 420.031 394.756 419.729 395.462 415.964C390.004 415.759 384.785 414.716 380.355 411.239C382.323 411.226 384.188 411.623 386.074 411.911C389.448 412.426 392.822 412.94 396.21 413.317C397.376 413.447 398.569 413.05 398.672 411.555C398.74 410.533 397.293 409.209 396.278 409.703C394.31 410.663 392.63 409.559 390.827 409.545C385.176 409.518 380.04 407.378 374.752 405.863C373.703 405.561 372.674 404.834 371.893 404.052C370.048 402.201 368.148 400.336 366.66 398.21C365.241 396.18 363.465 393.835 363.382 391.572C363.293 389.096 362.587 387.368 360.859 385.818C363.876 383.623 364.774 386.298 365.59 387.231C367.291 387.628 368.635 387.546 369.307 388.184C371.145 389.905 373.045 391.379 375.575 392.045C374.869 392.209 374.238 392.175 373.621 392.065C372.846 391.928 372.091 391.64 371.317 391.578C370.322 391.503 369.232 391.345 368.327 391.654C366.153 392.394 365.947 393.917 367.744 395.378C368.313 395.837 369.06 396.077 369.863 396.488C370.5 395.439 370.994 394.616 371.687 393.478C372.427 395.336 373.669 396.056 375.383 396.242C376.72 396.386 377.571 397.298 377.872 398.614C375.692 400.246 375.644 400.267 374.197 398.148C373.593 397.263 372.901 396.687 371.989 397.469C371.077 398.251 371.186 399.307 371.92 400.205C372.194 400.541 372.62 400.795 373.031 400.96C375.616 402.009 378.339 402.702 380.65 404.437C381.336 404.951 382.474 404.855 383.777 405.109C383.585 404.039 383.338 403.483 383.427 402.99C383.571 402.167 383.715 401.008 384.264 400.685C384.751 400.397 385.91 400.864 386.575 401.303C388.042 402.269 389.462 403.038 391.327 402.777C392.671 402.592 393.021 403.394 392.747 404.882C391.019 404.286 389.524 403.778 388.042 403.257C386.054 402.557 385.683 402.75 384.47 405.417C385.471 405.856 386.431 406.508 387.473 406.679C390.82 407.221 394.125 407.893 397.561 408.119C401.072 408.345 403.561 407.776 405.776 405.061C407.038 403.504 407.34 403.14 406.167 401.611C405.687 400.98 405.145 400.336 404.487 399.91C399.721 396.797 397.389 391.962 395.38 386.956C392.088 378.761 390.998 370.278 394.009 361.864C397.245 352.826 403.122 345.838 412.106 341.805C414.588 340.694 417.016 339.46 419.876 338.089C418.71 337.554 417.956 337.046 417.126 336.854C414.575 336.251 412.017 335.688 409.438 335.236C396.903 333.034 385.628 336.402 375.404 343.472C372.256 345.646 369.527 348.553 366.996 351.468C363.951 354.965 365.021 359.862 369.019 362.282C369.787 362.749 370.658 363.194 371.529 363.332C374.67 363.825 377.824 364.203 380.979 364.6C381.87 364.71 382.762 364.758 384.106 364.875C374.643 370.58 367.243 368.139 360.893 360.445V360.417ZM477.535 466.156C478.07 466.032 478.365 466.059 478.495 465.922C483.81 460.409 487.979 454.264 488.98 446.433C489.124 445.301 489.07 444.149 489.193 443.011C490.297 432.91 487.698 423.809 481.883 415.539C480.285 413.276 478.2 411.658 475.539 411.205C470.698 410.382 465.747 409.751 461.015 411.637C445.64 417.747 438.57 430.358 440.778 446.495C441.951 455.053 447.313 461.444 454.308 466.327C455.748 467.328 457.648 467.65 459.294 468.384C460.939 469.118 462.544 469.934 464.128 470.778C464.807 471.141 465.397 471.662 466.24 472.259C467.571 471.429 468.839 470.64 470.369 469.687C468.442 467.644 466.878 465.977 465.047 464.036C468.894 464.304 469.34 467.774 471.418 469.317C475.258 468.364 475.875 466.841 473.66 463.927C473.18 463.289 472.556 462.761 472.104 462.109C471.768 461.629 471.583 461.04 471.171 460.148C474.723 461.06 475.937 463.735 477.542 466.162L477.535 466.156ZM447.876 379.817C448.02 365.245 442.088 353.58 430.937 344.37C428.599 342.443 426.178 341.744 423.332 342.669C421.055 343.41 418.73 344.082 416.57 345.083C405.872 350.069 399.049 358.12 397.753 370.1C396.697 379.838 399.248 388.417 406.88 395.076C411.221 398.861 412.956 399.026 417.818 395.96C422.982 392.703 428.516 390.474 434.517 389.178C437.891 388.451 441.244 388.081 444.666 387.964C447.197 387.875 447.67 387.436 447.848 384.961C447.972 383.253 447.869 381.539 447.869 379.824L447.876 379.817ZM551.42 434.11C553.779 431.984 556.172 430.064 558.277 427.862C562.536 423.419 565.402 418.083 567.048 412.199C568.92 405.479 568.687 398.655 567.261 391.86C566.253 387.073 564.312 382.753 560.938 379.152C559.58 377.705 557.969 376.69 555.898 376.526C550.13 376.066 544.857 377.157 540.07 380.702C530.545 387.759 526.197 397.305 525.662 408.921C525.127 420.545 529.688 430.242 536.689 439.075C536.936 439.383 537.416 439.507 538.177 439.939C538.726 435.79 534.735 433.931 534.131 430.42C534.749 430.537 535.448 430.516 535.51 430.708C536.216 432.882 538.095 433.684 539.878 434.651C540.667 435.083 541.38 435.673 542.086 436.242C544.013 437.799 544.562 437.881 546.647 436.702C548.265 435.783 549.877 434.823 548.628 432.141C549.616 432.841 550.24 433.28 551.413 434.103L551.42 434.11ZM245.986 295.468C250.615 291.607 252.336 284.715 249.792 279.942C246.521 273.798 242.9 267.845 239.457 261.79C235.199 254.295 229.98 247.547 223.863 241.464C220.708 238.33 217.156 235.93 212.795 234.956C211.403 234.647 209.832 234.497 208.468 234.805C202.755 236.094 197.968 239.009 193.813 243.172C189.952 247.039 187.305 251.627 184.719 256.345C180.605 263.854 175.942 271.096 174.645 279.812C174.515 280.697 174.152 281.588 173.72 282.384C172.053 285.449 171.189 288.734 170.812 292.176C170.551 294.556 170.298 296.943 170.071 299.322C169.441 306.022 168.138 312.64 168.288 319.436C168.494 328.577 168.974 337.67 170.243 346.75C171.176 353.443 171.964 360.115 174.879 366.322C175.112 366.822 175.119 367.433 175.263 367.981C176.031 370.841 176.627 373.762 177.629 376.533C178.945 380.181 180.783 383.637 182.052 387.299C184.843 395.384 189.266 402.53 194.183 409.429C194.512 409.888 194.917 410.32 195.363 410.663C196.528 411.548 197.482 411.411 198.195 410.135C198.805 409.045 199.093 407.762 199.745 406.706C201.192 404.375 200.547 402.489 198.997 400.466C196.569 397.298 194.046 394.143 192.119 390.666C188.423 383.98 184.651 377.335 181.839 370.169C177.416 358.922 174.481 347.326 173.713 335.304C173.219 327.583 172.677 319.806 173.576 312.05C173.994 308.422 174.138 304.753 174.776 301.174C176.449 291.827 179.11 282.788 182.854 273.997C185.837 266.995 190.144 261.098 195.459 255.851C197.386 253.952 199.635 252.279 201.966 250.9C209.345 246.532 213.021 246.902 218.98 253.019C222.306 256.434 225.413 260.179 228.026 264.163C232.147 270.458 235.836 277.048 239.581 283.584C241.336 286.642 242.797 289.872 244.422 293.006C244.82 293.774 245.348 294.481 245.965 295.454L245.986 295.468ZM345.861 598.083C346.643 594.778 346.224 593.777 343.289 591.994C335.286 587.138 327.126 582.523 319.287 577.414C315.365 574.856 310.606 573.197 308.212 568.492C307.129 568.623 306.107 568.685 305.119 568.883C301.101 569.679 297.048 570.378 293.084 571.393C290.266 572.12 287.619 571.702 285.027 570.817C282.661 570.008 280.329 569.027 278.114 567.862C273.972 565.681 269.816 563.48 265.866 560.977C260.757 557.74 255.655 554.448 250.896 550.731C243.784 545.17 237.373 538.963 236.913 529.027C236.872 528.115 236.769 527.202 236.605 526.304C236.406 525.221 236.111 524.151 235.857 523.074C235.686 523.239 235.514 523.41 235.343 523.575C232.675 522.368 230.007 521.161 227.34 519.947C226.181 519.419 225.166 518.171 223.582 519.152C223.554 524.11 228.389 524.987 231.18 528.156C228.752 527.161 226.812 526.366 224.878 525.577C223.657 528.519 223.767 528.841 226.064 530.213C228.766 531.825 231.756 533.073 233.909 536.186C230.261 535.096 227.463 532.942 224.055 532.572C222.841 534.245 223.465 535.528 224.617 536.618C225.605 537.558 226.709 538.394 227.827 539.176C236.351 545.115 244.882 551.04 253.426 556.944C254.928 557.98 256.478 558.96 258.055 559.886C270.543 567.258 283.045 574.61 295.539 581.968C297.789 583.291 299.75 584.937 301.32 587.084C300.381 586.96 299.578 586.638 298.845 586.199C293.043 582.77 287.194 579.417 281.474 575.864C271.579 569.72 261.758 563.459 251.925 557.225C249.518 555.696 247.008 554.277 244.813 552.48C238.936 547.666 232.264 544.155 225.749 540.376C225.303 540.115 224.72 540.088 224.137 539.93C223.314 541.398 223.65 542.543 224.59 543.496C225.385 544.305 226.291 545.026 227.23 545.663C233.375 549.826 239.471 554.064 245.711 558.076C260.407 567.526 275.151 576.9 289.923 586.226C307.492 597.329 325.103 608.356 342.713 619.404C343.529 619.918 344.448 620.261 345.333 620.693C346.485 617.977 346.355 617.038 344.579 615.687C343.495 614.864 342.261 614.226 341.102 613.499C332.584 608.178 324.047 602.884 315.564 597.514C312.773 595.745 310.071 593.825 307.389 591.891C306.882 591.521 306.676 590.732 306.333 590.135C306.512 589.943 306.697 589.758 306.875 589.566C309.865 590.293 311.902 592.748 314.46 594.257C317.018 595.765 319.548 597.315 322.072 598.879C324.691 600.504 327.297 602.157 329.896 603.809C332.406 605.4 334.902 607.005 337.399 608.61C339.95 610.249 342.501 611.895 345.107 613.575C346.608 610.091 346.444 608.678 344.167 606.868C342.295 605.38 340.203 604.173 338.256 602.774C337.714 602.39 337.344 601.766 336.898 601.252C337.049 601.039 337.207 600.833 337.357 600.621C340.121 602.02 342.892 603.412 345.703 604.831C346.704 601.334 346.581 600.806 344.366 599.277C343.426 598.625 342.411 598.09 341.438 597.5C333.833 592.865 326.221 588.249 318.636 583.586C317.182 582.695 315.749 581.714 314.974 580.013C318.821 581.303 322.003 583.723 325.404 585.712C328.854 587.728 332.187 589.943 335.602 592.014C338.969 594.051 342.117 596.486 345.84 598.083H345.861ZM198.092 363.647C197.324 366.678 196.7 369.744 194.21 371.972C193.799 372.343 193.106 372.727 193.079 373.145C192.914 375.799 192.379 378.576 194.773 381.066C195.431 380.188 196.028 379.543 196.446 378.796C198.4 375.312 200.231 371.753 202.268 368.31C203.345 366.493 204.737 364.861 206.198 362.865C205.882 360.897 206.102 359.834 207.459 356.803C212.157 346.277 216.827 335.743 221.511 325.217C222.155 323.77 223.211 322.405 223.431 320.903C223.993 317.07 225.625 313.716 227.477 310.432C230.446 305.158 233.525 299.946 236.55 294.707C238.113 291.991 237.873 290.64 235.062 287.842C233.34 290.736 231.681 293.548 230.001 296.346C228.828 298.307 227.669 300.275 226.414 302.182C225.886 302.991 225.235 303.848 223.465 303.382C225.159 300.269 226.524 297.265 228.334 294.556C230.151 291.834 232.408 289.413 234.492 286.834C234.293 286.21 234.17 285.655 233.944 285.14C233.669 284.516 233.347 283.899 232.984 283.323C231.736 281.355 231.07 281.3 229.198 282.781C228.334 283.467 227.82 284.935 226.291 284.489C227.271 281.787 228.78 279.284 228.945 276.699C229.123 273.921 226.942 271.83 224.364 269.827C223.602 271.021 222.848 271.967 222.341 273.037C219.844 278.297 217.266 283.522 214.996 288.878C207.878 305.707 200.862 322.57 193.854 339.446C191.227 345.769 188.786 352.167 186.187 358.504C185.227 360.842 185.789 362.632 187.956 364.566C188.889 363.057 189.664 361.713 190.521 360.431C191.358 359.183 191.851 357.633 193.47 356.933C193.36 358.099 193.079 359.162 192.613 360.136C191.625 362.193 190.48 364.175 189.52 366.246C188.203 369.092 188.711 371.232 191.138 373.495C193.401 370.176 194.512 366.054 198.085 363.64L198.092 363.647ZM318.362 442.25C321.441 439.321 323.964 436.674 326.742 434.343C333.01 429.076 339.867 424.865 348.124 423.453C349.921 423.144 351.717 422.788 353.487 422.356C355.427 421.882 355.907 421.197 355.832 419.215C355.811 418.646 355.667 418.09 355.585 417.521C354.097 407.269 349.173 398.868 341.808 391.75C338.036 388.102 333.853 386.6 328.463 387.464C318.492 389.055 310.647 393.704 306.512 402.942C300.209 417.034 303.94 430.29 315.564 440.563C316.38 441.283 317.456 441.715 318.368 442.257L318.362 442.25ZM182.264 349.63C182.552 349.651 182.84 349.678 183.122 349.699C183.519 349.054 183.999 348.444 184.294 347.758C185.412 345.131 186.434 342.471 187.545 339.844C192.667 327.761 198.01 315.767 202.885 303.588C207.309 292.54 213.11 282.178 218.103 271.418C219.255 268.943 220.256 266.392 221.236 263.841C221.648 262.778 221.367 261.612 220.283 261.235C219.604 261.002 218.576 261.344 217.869 261.735C216.957 262.236 216.395 263.532 214.831 262.709C215.229 261.454 215.73 260.309 215.942 259.109C216.292 257.154 214.201 255.474 212.466 256.331C211.814 256.654 211.32 257.401 210.895 258.046C208.927 260.988 207.069 264.005 205.039 266.899C203.976 268.408 202.776 269.923 199.861 270.349C203.599 265.267 206.877 260.816 210.148 256.373C207.919 254.898 207.13 254.953 205.107 256.667C195.747 264.574 189.259 274.443 185.631 286.21C183.512 293.075 181.709 300.015 180.289 307.051C179.946 308.758 179.562 310.5 180.639 312.722C182.196 309.225 183.423 306.18 184.905 303.272C185.659 301.791 186.797 300.461 187.949 299.233C188.313 298.842 189.273 299.014 190.452 298.863C187.984 303.738 185.796 308.107 183.547 312.434C183.19 313.12 182.621 313.792 181.983 314.217C180.351 315.301 179.94 316.747 180.042 318.626C180.33 323.859 180.461 329.098 180.715 334.337C180.763 335.352 181.119 336.347 181.263 337.355C181.709 340.468 182.909 343.506 181.894 346.757C181.633 347.593 182.113 348.67 182.258 349.63H182.264ZM464.272 386.113C463.141 385.098 461.906 384.529 461.605 383.637C459.815 378.377 459.684 372.898 460.055 367.412C460.13 366.322 460.651 365.169 461.255 364.223C463.833 360.191 466.268 356.035 469.223 352.298C473.331 347.106 478.906 344.062 485.421 342.752C486.368 342.56 487.259 342.141 488.281 341.799C486.635 339.371 486.621 339.419 482.87 338.075C473.139 334.591 463.305 333.796 453.41 337.163C449.179 338.603 444.796 339.954 441.464 343.108C441.752 343.822 441.841 344.164 442.019 344.452C442.321 344.939 442.643 345.413 443.013 345.845C447.601 351.235 450.557 357.482 452.813 364.148C453.492 366.157 454.733 367.967 455.666 369.778C455.46 371.588 455.145 373.46 455.056 375.346C454.884 378.974 456.064 382.567 455.2 386.257C454.836 387.8 455.611 389.123 457.401 389.596C459.054 390.035 460.645 390.701 462.304 391.126C468.174 392.621 467.962 392.511 470.341 386.785C472.433 381.744 474.483 376.629 477.857 372.226C483.693 364.6 490.503 358.12 499.246 353.875C500.22 353.402 501.084 352.695 501.976 352.112C499.788 348.176 496.86 346.373 493.026 346.427C483.014 346.565 475.395 351.214 469.429 358.963C465.273 364.36 464.725 370.683 464.67 377.164C464.643 380.099 464.423 383.041 464.279 386.14L464.272 386.113ZM344.585 640.669C344.901 637.851 344.825 635.512 345.484 633.414C346.32 630.767 345.669 629.018 343.502 627.537C337.94 623.731 332.509 619.733 326.838 616.112C314.72 608.363 302.466 600.833 290.3 593.16C282.29 588.105 274.342 582.942 266.346 577.867C258.343 572.792 250.327 567.752 242.276 562.746C236.845 559.372 231.379 556.06 225.879 552.809C224.782 552.164 223.438 551.931 222.19 551.492C221.154 555.278 221.627 556.32 224.425 557.479C225.577 557.959 226.825 558.432 227.731 559.235C232.799 563.761 238.806 566.867 244.443 570.536C245.245 571.057 245.986 571.674 246.754 572.244C238.182 568.479 230.323 563.61 223.102 557.767C221.23 560.298 221.168 560.716 222.656 562.341C223.417 563.178 224.268 563.994 225.207 564.604C229.603 567.471 234.033 570.289 238.477 573.08C243.695 576.358 248.962 579.568 254.174 582.852C264.117 589.12 274.075 595.375 283.957 601.738C290.581 606.004 297.034 610.53 303.666 614.782C313.376 621.002 323.183 627.071 332.934 633.215C336.678 635.574 340.395 637.981 344.585 640.669ZM388.042 439.692C387.974 437.36 386.431 436.455 384.915 435.783C379.409 433.342 374.073 430.489 368.018 429.433C363.369 428.624 358.671 428.164 354.07 428.987C344.558 430.688 336 434.597 329.176 441.646C327.873 442.99 326.858 444.76 326.179 446.515C323.224 454.161 330.561 463.892 337.268 465.449C347.891 467.911 356.381 463.982 363.307 456.376C366.845 452.488 370.363 448.641 374.348 445.212C377.557 442.442 381.246 440.83 385.395 440.172C386.259 440.035 387.11 439.863 388.049 439.692H388.042ZM371.893 634.347C373.682 633.86 374.889 633.633 376.028 633.208C378.483 632.289 380.862 631.144 383.352 630.314C386.006 629.43 386.89 627.928 386.883 625.007C386.774 596.684 386.856 568.362 386.877 540.04C386.877 537.297 386.877 534.554 386.753 531.818C386.712 530.885 386.301 529.966 385.958 528.643C382.049 530.302 378.613 531.804 375.136 533.217C372.832 534.149 371.954 535.685 371.954 538.223C371.934 550.093 371.659 561.964 371.605 573.835C371.515 592.453 371.522 611.065 371.515 629.683C371.515 631.021 371.728 632.351 371.899 634.34L371.893 634.347ZM629.974 423.905C625.853 424.831 622.904 426.58 619.825 428.006C616.945 429.337 615.559 431.538 615.511 434.768C615.388 443.326 615.011 451.885 614.963 460.443C614.853 480.543 614.873 500.643 614.86 520.743C614.86 521.709 615.018 522.676 615.134 524.082C620.229 521.888 624.886 519.878 629.59 517.855C629.823 486.694 630.797 455.574 629.981 423.899L629.974 423.905ZM352.163 528.656C351.978 533.608 351.69 538.038 351.669 542.474C351.621 552.521 351.669 562.567 351.752 572.614C351.793 578.32 352.081 584.025 352.067 589.731C352.046 601.156 351.909 612.574 351.793 623.998C351.779 625.589 352.129 626.81 353.72 627.647C356.545 629.135 359.24 630.863 362.031 632.427C362.868 632.893 363.842 633.133 365.282 633.681C365.385 631.837 365.515 630.52 365.522 629.203C365.556 603.494 365.584 577.785 365.584 552.068C365.584 547.727 365.392 543.38 365.474 539.046C365.529 536.049 364.335 534.081 361.613 532.839C359.226 531.749 356.943 530.439 354.584 529.28C354.008 528.999 353.315 528.944 352.156 528.656H352.163ZM204.195 440.261C204.106 441.701 203.989 442.709 203.989 443.71C203.983 449.066 203.989 454.422 204.01 459.778C204.058 472.574 204.12 485.364 204.154 498.16C204.181 508.899 204.154 519.638 204.223 530.378C204.229 531.777 204.634 533.169 204.751 533.923C207.459 534.924 209.551 535.48 211.423 536.46C213.247 537.414 214.475 539.409 217.074 540.054C217.156 538.47 217.3 537.249 217.266 536.035C217.17 532.956 216.854 529.877 216.875 526.798C216.944 515.037 217.177 503.276 217.204 491.515C217.218 484.095 216.841 476.675 216.868 469.255C216.889 463.55 217.211 457.844 217.513 452.145C217.664 449.354 216.676 447.228 214.379 445.733C211.704 443.992 208.982 442.318 206.252 440.672C205.807 440.405 205.183 440.439 204.202 440.254L204.195 440.261ZM480.628 517.273C479.256 515.208 477.261 515.208 475.635 514.55C471.37 512.829 469.649 510.353 469.662 505.779C469.662 504.984 469.758 504.147 469.566 503.393C469.011 501.219 469.361 499.134 469.834 497.001C470.136 495.65 470.088 494.224 470.245 492.208C468.236 492.955 466.858 493.401 465.527 493.977C456.845 497.735 448.17 501.507 439.502 505.313C437.013 506.403 434.483 507.446 432.693 509.133C432.809 512.554 432.967 515.613 432.994 518.672C433.042 523.808 432.994 528.944 433.008 534.081C433.008 535.185 433.138 536.289 433.214 537.516C449.165 530.707 464.814 524.021 480.628 517.273ZM522.322 497.859C522.453 498.057 522.583 498.263 522.72 498.462C530.84 494.834 538.952 491.193 547.079 487.586C554.691 484.205 562.337 480.886 569.935 477.478C571.163 476.929 572.37 476.175 573.343 475.262C574.29 474.378 574.098 472.341 573.227 471.484C572.274 470.544 571.355 471.066 570.436 471.601C569.249 472.286 568.097 473.041 566.863 473.624C562.015 475.907 557.166 478.198 552.263 480.351C548.436 482.031 544.528 483.519 540.66 485.09C541.462 482.902 543.3 482.346 545.014 481.613C552.976 478.184 560.979 474.837 568.879 471.264C570.566 470.503 571.958 469.008 573.337 467.692C573.769 467.28 573.707 466.348 573.981 465.168C572.411 465.346 571.259 465.285 570.244 465.621C567.329 466.588 564.428 467.63 561.589 468.809C558.846 469.948 556.213 471.333 553.491 472.513C551.797 473.246 550.062 473.98 548.094 473.932C548.649 473.116 549.273 472.471 550.027 472.087C553.593 470.298 557.166 468.508 560.794 466.855C563.702 465.531 566.76 464.53 569.627 463.124C571.108 462.398 572.438 461.225 573.556 459.997C573.981 459.531 573.865 458.207 573.508 457.535C573.302 457.145 572.102 457.09 571.396 457.193C570.511 457.323 569.647 457.714 568.811 458.077C562.213 460.93 555.63 463.81 549.026 466.656C548.1 467.054 547.202 468.021 545.782 467.164C546.948 465.099 548.868 464.27 550.686 463.488C557.29 460.642 563.921 457.871 570.587 455.19C574.214 453.729 574.777 452.673 573.46 448.689C570.107 448.826 531.258 464.551 527.582 467.335C528.343 467.89 529.201 468.281 529.715 468.94C530.75 470.243 532.095 471.58 532.417 473.095C533.007 475.859 533.089 478.76 533.11 481.613C533.158 487.449 531.381 492.359 525.779 495.239C524.51 495.89 523.461 496.988 522.316 497.872L522.322 497.859ZM204.072 395.7C204.751 394.411 205.361 393.471 205.772 392.449C207.007 389.377 208.2 386.291 209.345 383.185C213.494 371.938 217.506 360.643 221.792 349.459C224.281 342.957 227.223 336.635 229.911 330.209C233.567 321.472 237.201 312.722 240.781 303.951C241.199 302.922 241.35 301.743 241.425 300.618C241.501 299.439 241.185 298.259 239.848 297.903C238.545 297.553 238.031 298.65 237.537 299.521C234.938 304.088 232.291 308.621 229.85 313.271C228.423 315.986 227.271 318.867 226.14 321.726C223.959 327.24 222.107 332.89 219.721 338.308C216.45 345.721 212.877 353.004 209.304 360.28C207.151 364.683 204.764 368.969 202.481 373.303C200.883 376.334 199.251 379.344 197.68 382.389C196.453 384.762 196.72 386.037 198.531 386.991C199.882 387.704 200.588 387.299 202.186 384.885C202.885 383.829 203.592 382.766 204.298 381.71C204.511 381.834 204.73 381.964 204.943 382.087C204.209 383.85 203.681 385.743 202.686 387.34C200.759 390.447 201.829 392.874 204.072 395.686V395.7ZM255.1 511.8C251.657 509.263 249.792 509.277 247.824 512.15C243.154 518.96 241.405 526.215 245.266 534.081C247.337 538.291 250.423 541.652 254.29 544.189C262.211 549.394 270.235 554.434 278.231 559.523C281.632 561.69 285.219 563.274 289.333 563.685C301.814 564.92 308.322 558.515 310.386 549.689C310.66 548.523 310.647 547.145 310.283 546.027C310.023 545.224 309.035 544.347 308.219 544.161C307.677 544.038 306.642 544.936 306.23 545.622C305.222 547.275 304.454 549.072 303.583 550.807C302.047 553.872 299.496 555.627 296.239 556.485C291.452 557.753 286.906 556.985 282.667 554.633C276.982 551.479 271.27 548.331 265.804 544.813C260.922 541.665 256.176 538.236 252.473 533.621C248.948 529.225 248.53 524.555 251.156 519.577C252.48 517.067 253.728 514.509 255.093 511.814L255.1 511.8ZM224.562 507.974C222.937 510.483 222.882 511.142 224.652 512.465C228.464 515.311 232.373 518.027 236.461 520.955C236.776 520.125 237.126 519.323 237.386 518.493C238.662 514.482 240.006 510.483 241.158 506.437C242.139 502.967 244.457 500.807 247.508 499.209C248.242 498.825 248.921 498.352 249.819 497.804C247.186 496.329 244.895 495.088 242.639 493.778C238.099 491.145 233.608 488.422 229.034 485.851C227.415 484.939 225.749 483.711 223.609 484.63C222.889 486.674 223.609 488.066 225.255 489.053C226.723 489.938 228.266 490.685 229.733 491.563C232.593 493.278 235.48 494.978 237.496 497.783C233.203 495.499 228.91 493.209 224.645 490.939C222.855 493.833 223.102 494.848 225.564 496.514C228.3 498.373 231.016 500.259 233.69 502.199C234.129 502.522 234.321 503.187 234.623 503.688C233.464 503.763 232.723 503.345 231.955 503.002C229.987 502.117 228.053 501.13 226.023 500.43C224.192 499.799 223.047 500.821 223.541 502.707C223.863 503.941 224.597 505.278 225.557 506.088C227.018 507.322 228.842 508.118 230.481 509.16C231.345 509.709 232.559 510.045 232.524 512.068C229.617 510.573 227.066 509.27 224.556 507.98L224.562 507.974ZM580.139 539.56C584.357 538.984 584.974 538.25 584.974 534.506C584.96 509.379 584.947 484.253 584.953 459.126C584.953 454.443 585.036 449.759 585.07 445.082C585.077 443.902 585.029 442.73 583.459 442.538C581.957 442.353 580.935 443.148 580.709 444.862C580.544 446.104 580.537 447.372 580.523 448.627C580.373 462.096 580.194 475.557 580.098 489.026C579.989 504.901 579.947 520.777 579.893 536.652C579.893 537.537 580.037 538.422 580.133 539.56H580.139ZM405.132 521.346C405.283 521.593 405.433 521.847 405.577 522.094C406.009 522.183 406.496 522.436 406.867 522.327C411.866 520.852 416.865 519.378 421.124 516.505C421.487 516.772 421.645 516.827 421.659 516.909C423.167 523.959 423.846 531.036 423.25 538.271C422.783 543.942 422.386 549.723 422.982 555.346C423.435 559.584 423.49 563.733 423.346 567.937C423.25 570.783 422.852 573.636 422.941 576.475C423.195 584.45 423.641 592.412 423.97 600.381C424.018 601.512 423.846 602.651 423.757 603.782C423.572 606.059 423.311 608.329 423.222 610.605C423.195 611.298 423.641 612.004 423.867 612.69C427.09 611.778 427.255 611.703 427.282 608.72C427.344 600.271 427.378 591.822 427.303 583.374C427.111 562.033 426.864 540.692 426.596 519.344C426.576 517.876 426.363 516.381 426.013 514.955C425.458 512.678 424.491 512.164 422.262 512.939C420.116 513.686 418.004 514.564 415.912 515.462C413.087 516.683 410.261 517.91 407.511 519.275C406.599 519.728 405.913 520.633 405.125 521.332L405.132 521.346ZM403.362 621.502C406.661 620.282 407.203 619.191 407.066 615.481C406.915 611.38 406.935 607.273 406.963 603.165C407.018 594.264 407.306 585.362 407.162 576.461C407.018 567.457 406.517 558.453 406.064 549.456C405.66 541.37 405.104 533.292 404.59 525.207C404.549 524.542 404.487 523.684 404.076 523.273C403.513 522.704 402.546 522.08 401.867 522.196C401.216 522.306 400.352 523.252 400.235 523.945C400.03 525.145 400.276 526.434 400.414 527.676C400.777 531.077 401.36 534.458 401.531 537.866C401.854 544.456 402.005 551.06 402.142 557.657C402.409 570.893 402.725 584.135 402.814 597.377C402.855 603.988 402.416 610.605 402.252 617.223C402.217 618.636 401.737 620.227 403.369 621.509L403.362 621.502ZM497.292 506.849C494.974 505.477 495.001 505.587 493.047 506.033C490.277 506.664 487.492 507.343 484.674 507.583C482.253 507.788 480.943 506.732 480.463 504.428C479.976 502.097 479.524 499.648 479.729 497.317C479.88 495.643 480.909 493.881 481.992 492.51C482.939 491.309 484.427 490.439 485.812 489.691C489.735 487.586 493.788 485.727 497.676 483.574C502.209 481.064 506.9 479.11 512.015 478.136C514.464 477.67 516.85 476.84 519.243 476.106C522.549 475.091 523.879 476.051 523.488 479.473C523.303 481.085 523.18 482.511 523.975 484.075C524.709 485.522 523.961 486.975 522.871 488.114C522.24 488.772 521.513 489.334 520.841 489.952C519.538 491.145 519.401 492.42 520.478 493.84C524.565 491.515 526.259 489.78 526.595 486.914C526.965 483.745 527.212 480.536 527.157 477.354C527.089 473.39 523.66 470.771 519.703 471.388C518.921 471.511 518.139 471.744 517.399 472.046C508.724 475.557 500.035 479.027 491.408 482.655C488.466 483.889 485.668 485.474 482.857 486.989C479.62 488.731 477.624 491.378 477.412 495.143C477.233 498.222 477 501.301 477.055 504.38C477.144 509.304 479.88 511.8 484.77 511.169C487.801 510.778 490.777 509.825 493.719 508.941C494.851 508.598 495.824 507.734 497.299 506.856L497.292 506.849ZM461.104 152.301C461.989 152.417 462.428 152.541 462.866 152.52C471.37 152.088 478.029 155.702 483.727 161.716C489.982 168.313 494.775 175.918 499.438 183.654C502.73 189.126 506.221 194.482 509.773 199.79C511.302 202.08 512.221 201.971 514.347 199.619C513.647 198.556 512.873 197.451 512.159 196.313C509.876 192.637 507.565 188.982 505.363 185.259C503.8 182.612 502.661 179.683 500.885 177.201C496.908 171.639 492.54 166.359 488.555 160.804C485.606 156.69 481.732 153.761 477.412 151.395C473.51 149.263 469.306 148.378 464.848 149.523C463.388 149.9 462.064 150.408 461.104 152.307V152.301ZM215.174 226.165C215.243 226.377 215.243 226.665 215.387 226.789C215.812 227.152 216.251 227.557 216.765 227.756C223.273 230.327 227.902 235.23 232.229 240.422C238.676 248.164 244.367 256.421 248.914 265.438C251.486 270.534 254.441 275.389 258.302 279.682C262.067 278.934 265.763 278.283 269.418 277.439C271.188 277.035 272.923 276.376 274.575 275.622C275.103 275.375 275.714 274.36 275.604 273.846C275.357 272.728 274.315 272.564 273.43 273.167C270.433 275.217 266.915 275.087 263.562 275.643C260.963 276.075 258.652 275.327 257.239 273.146C255.395 270.294 253.433 267.372 252.363 264.204C250.807 259.568 248.647 255.392 245.595 251.634C239.917 244.632 234.259 237.617 228.485 230.697C226.887 228.784 225.015 227.042 223.054 225.506C220.489 223.497 217.43 223.874 215.188 226.165H215.174ZM535.77 193.069C535.002 191.561 534.447 190.333 533.768 189.181C532.04 186.225 530.085 183.393 528.522 180.355C524.805 173.114 520.128 166.503 515.472 159.865C512.626 155.805 509.176 152.342 505.089 149.537C499.699 145.841 493.705 144.38 487.225 144.915C485.805 145.031 484.249 145.045 483.542 147.048C485.058 148.138 486.738 148.344 488.418 148.447C490.126 148.549 491.84 148.563 493.555 148.577C498.382 148.618 502.49 150.312 505.651 154.001C507.503 156.161 509.341 158.363 510.973 160.694C515.04 166.489 518.976 172.366 522.981 178.202C525.786 182.282 527.877 186.699 529.208 191.465C529.406 192.185 529.434 192.953 529.537 193.666C527.143 194.386 524.901 194.859 522.83 195.73C520.814 196.574 518.201 196.375 516.637 198.741C517.275 198.953 517.632 199.214 517.885 199.138C523.118 197.568 528.35 195.97 533.562 194.338C534.186 194.146 534.721 193.68 535.763 193.069H535.77ZM235.795 220.438C235.699 220.788 235.603 221.138 235.507 221.481C237.133 222.455 238.669 223.668 240.411 224.347C244.854 226.082 248.125 229.12 250.848 232.906C256.457 240.689 262.184 248.383 267.656 256.256C270.118 259.795 272.141 263.649 274.246 267.427C275.131 269.011 275.707 270.774 276.482 272.426C277.332 274.257 278.114 274.621 279.616 273.997C281.255 273.318 281.824 272.138 281.186 270.424C280.83 269.471 280.322 268.552 279.76 267.701C272.916 257.312 266.188 246.84 259.125 236.602C256.553 232.871 253.296 229.58 250.114 226.315C247.275 223.408 243.695 221.563 239.711 220.678C238.449 220.397 237.098 220.507 235.788 220.438H235.795ZM403.294 221.076C405.838 220.171 408.417 219.362 410.899 218.313C412.181 217.771 412.38 216.427 412.367 215.096C412.312 209.404 406.099 205.153 400.757 207.169C395.449 209.171 394.345 212.401 397.403 217.174C398.727 219.238 400.249 221.11 403.287 221.083L403.294 221.076ZM384.113 210.618C383.969 210.419 383.825 210.22 383.681 210.022C381.102 210.851 378.565 211.839 375.939 212.47C371.961 213.423 369.06 215.885 366.269 218.642C364.315 220.569 363.794 222.797 365.117 225.163C366.722 228.03 368.429 230.869 370.391 233.495C373.106 237.123 377.509 237.199 381.452 238.152C381.857 238.248 382.357 238.076 382.789 237.939C385.176 237.185 387.576 236.458 389.928 235.608C390.662 235.347 391.272 234.743 392.198 234.119C387.946 231.376 384.058 231.994 380.41 233.825C377.79 235.134 375.808 234.49 373.82 232.899C371.152 230.766 369.472 227.941 368.388 224.752C367.408 221.879 367.922 220.438 370.432 218.601C372.709 216.934 375.273 216.001 378.058 215.878C379.964 215.796 381.315 215.055 382.289 213.464C382.872 212.504 383.503 211.565 384.113 210.618ZM352.287 633.791C351.992 633.949 351.69 634.107 351.395 634.264C351.395 636.603 351.525 638.948 351.361 641.28C351.189 643.721 352.143 645.49 354.097 646.745C356.675 648.398 359.295 649.996 361.949 651.532C362.648 651.937 363.547 651.998 364.644 652.3C364.918 649.084 365.206 646.286 365.385 643.481C365.481 641.986 364.644 640.868 363.423 640.107C361.496 638.907 359.542 637.755 357.567 636.637C355.825 635.65 354.049 634.738 352.287 633.791ZM605.341 499.017C606.336 499.017 607.241 499.079 608.132 499.004C609.566 498.88 610.334 497.797 609.902 496.631C608.9 493.908 609.778 491.241 609.73 488.56C609.641 483.656 609.675 478.753 609.717 473.85C609.73 472.485 609.984 471.134 610.066 469.77C610.128 468.727 610.121 467.657 608.852 467.26C607.639 466.882 606.397 467.541 605.945 468.967C605.636 469.927 605.588 470.976 605.472 471.991C605.328 473.233 605.41 474.536 605.088 475.722C603.065 483.19 604.642 490.685 604.834 498.174C604.834 498.366 605.053 498.558 605.341 499.024V499.017ZM530.929 442.058C529.784 438.211 528.542 437.182 525.621 437.168C523.125 437.154 520.622 437.031 518.126 437.106C511.878 437.305 505.891 436.338 500.241 433.52C498.293 432.546 497.175 432.718 496.695 433.938C495.955 435.831 497.607 436.318 498.766 436.839C503.745 439.068 508.586 441.653 514.237 441.948C519.689 442.229 525.127 442.311 530.929 442.058ZM435.614 479.219C434.03 477.841 432.466 477.1 430.491 477.423C429.847 477.526 429.134 477.354 428.482 477.196C425.081 476.401 421.515 476.223 418.477 474.124C417.962 473.768 416.488 473.98 416.138 474.446C415.747 474.968 415.891 476.181 416.227 476.888C416.598 477.656 417.352 478.438 418.127 478.78C422.495 480.714 426.891 482.587 431.342 484.301C432.151 484.61 433.687 484.465 434.16 483.91C435.299 482.573 436.704 482.593 438.145 482.36C440.284 482.017 442.41 481.62 444.529 481.167C445.619 480.934 446.819 480.749 447.162 479.171C445.016 477.087 442.842 478.396 440.702 479.295C438.967 478.41 437.274 476.099 435.621 479.206L435.614 479.219ZM508.614 485.487C506.666 485.474 505.117 486.358 503.752 487.647C501.215 490.054 500.7 493.113 500.878 496.418C501.029 499.312 503.032 502.186 505.521 502.967C507.4 503.557 510.424 502.378 511.851 499.854C513.113 497.625 513.997 495.088 514.546 492.585C515.348 488.937 512.324 485.542 508.614 485.487ZM389.407 215.837C387.988 216.44 388.159 217.538 388.372 218.703C388.941 221.824 390.299 224.519 392.555 226.761C393.906 228.105 395.216 229.504 396.436 230.766C396.038 231.719 395.771 232.357 395.298 233.495C398.967 232.714 402.066 232.014 405.18 231.39C411.674 230.087 418.12 228.64 424.203 225.918C425.17 225.486 426.473 225.39 426.727 223.49C425.808 223.435 424.95 223.202 424.189 223.38C420.863 224.155 417.565 225.033 414.259 225.904C409.857 227.07 405.454 228.222 401.072 229.463C399.008 230.046 397.691 229.559 396.587 227.605C394.358 223.668 391.883 219.862 389.4 215.816L389.407 215.837ZM215.469 558.761C216.704 555.916 216.813 555.168 216.683 551.972C216.498 547.597 211.855 542.797 207.494 542.495C206.931 542.454 206.355 542.481 205.793 542.543C204.613 542.66 203.839 543.359 203.839 544.518C203.839 547.378 203.9 550.333 206.444 552.288C209.304 554.489 212.301 556.498 215.469 558.755V558.761ZM412.723 206.133C412.977 206.483 413.025 206.62 413.107 206.654C413.526 206.819 413.937 207.025 414.376 207.093C417.386 207.539 419.08 209.014 418.929 212.312C418.833 214.465 420.315 215.59 422.235 216.097C424.628 216.728 426.98 216.571 429.236 215.494C432.487 213.937 434.023 211.379 433.653 208.156C433.282 204.906 431.273 202.622 427.693 202.074C422.557 201.285 417.784 202.698 413.32 205.214C413.066 205.358 412.963 205.756 412.73 206.133H412.723ZM362.484 412.446C362.175 413.132 362.079 413.235 362.093 413.331C362.182 414.12 362.278 414.901 362.388 415.683C363.526 423.432 363.389 421.78 369.451 423C375.685 424.248 382.117 424.783 387.35 428.98C387.439 429.049 387.549 429.131 387.652 429.138C388.186 429.152 388.989 429.35 389.201 429.09C389.565 428.637 389.832 427.787 389.647 427.286C389.393 426.614 388.776 425.928 388.138 425.579C386.952 424.927 385.656 424.468 384.367 424.015C377.468 421.615 370.905 418.598 365.2 413.921C364.452 413.31 363.478 412.981 362.484 412.453V412.446ZM616.958 533.717C616.986 534.053 616.993 534.396 617.034 534.732C617.431 537.996 618.563 538.675 621.573 537.304C623.322 536.501 625.023 535.576 626.676 534.588C629.213 533.066 629.967 531.159 629.329 528.252C628.877 526.174 627.793 525.303 625.695 525.714C623.11 526.222 620.709 527.257 618.776 529.129C617.486 530.378 616.821 531.893 616.958 533.717ZM301.663 538.209C303.494 538.12 304.845 537.873 306.141 538.051C307.671 538.264 309.412 538.476 310.606 539.334C314.741 542.303 316.723 549.12 315.255 554.126C315.043 554.846 315.008 555.614 314.885 556.361C318.067 556.869 319.054 556.423 319.569 553.838C320.666 548.304 319.335 543.387 315.097 539.526C312.951 537.571 310.256 536.453 307.383 536.083C305.435 535.836 303.357 535.802 301.663 538.216V538.209ZM394.324 549.846C396.176 548.475 395.874 546.658 395.846 544.984C395.771 540.458 395.682 535.932 395.414 531.42C395.332 530.062 395.531 528.409 394.111 527.415C392.136 528.773 391.416 529.918 391.986 532.25C393.028 536.529 392.034 540.836 392.466 545.128C392.747 547.913 392.109 550.772 391.979 553.605C391.924 554.77 392.116 555.943 392.198 557.157C397.293 556.176 397.787 554.208 394.324 549.84V549.846ZM599.711 489.115C597.4 491.021 597.188 492.832 597.057 494.635C596.824 497.927 596.522 501.219 596.502 504.51C596.488 507.452 596.66 510.415 597.05 513.329C597.242 514.756 597.86 516.292 599.999 516.882C599.677 507.665 600.822 498.771 599.711 489.115ZM608.475 511.409C609.072 509.935 609.833 508.625 610.087 507.233C610.238 506.389 609.895 505.052 609.278 504.552C608.208 503.681 606.829 504.174 605.869 505.08C605.328 505.594 604.765 506.417 604.752 507.116C604.683 510.833 604.834 514.543 604.196 518.24C604.107 518.761 605.122 519.686 605.815 520.077C606.665 520.557 607.495 520.221 608.16 519.344C609.97 516.971 610.08 513.768 608.475 511.416V511.409ZM391.999 614.665C392.205 615.029 392.466 616.105 392.966 616.229C393.7 616.407 395.099 616.16 395.346 615.666C396.121 614.103 396.855 612.361 396.951 610.647C397.129 607.369 395.634 604.036 397.424 600.772C397.636 600.388 397.074 599.174 396.56 598.872C395.161 598.049 392.836 599.215 392.555 600.82C392.383 601.807 392.349 602.884 392.555 603.857C393.241 607.033 393.083 610.146 392.212 613.252C392.123 613.575 392.109 613.925 391.999 614.672V614.665ZM266.504 264.067C266.435 261.447 264.303 259.027 262.19 259.184C260.298 259.328 258.535 261.667 258.604 263.957C258.666 266.035 261.004 268.648 262.849 268.703C264.714 268.758 266.566 266.405 266.504 264.067ZM600.898 477.292C602.283 471.552 602.194 458.324 600.616 455.128C600.02 456.527 599.217 457.604 599.135 458.736C598.785 463.735 598.593 468.741 598.456 473.754C598.415 475.249 598.936 476.634 600.891 477.299L600.898 477.292ZM591.235 450.904C591.235 453.112 592.401 454.964 593.992 455.492C595.521 455.999 596.852 455.279 598.12 453.249C598.299 452.961 598.484 452.666 598.628 452.358C599.457 450.554 598.168 446.927 596.433 446.152C594.993 445.507 592.504 447.036 591.66 449.149C591.413 449.773 591.331 450.472 591.235 450.904ZM411.002 530.741C411.358 531.681 411.598 532.689 412.099 533.546C413.56 536.021 415.823 536.083 417.455 533.669C418.079 532.75 418.573 531.681 418.868 530.611C419.409 528.656 418.106 526.517 416.097 525.79C414.369 525.159 412.778 525.968 411.818 528.073C411.448 528.883 411.29 529.781 411.002 530.748V530.741ZM419.951 562.108C419.965 558.864 417.969 557.191 415.686 557.788C413.621 558.329 411.797 560.915 412.099 563.047C412.319 564.57 412.97 565.948 414.499 566.552C416.173 567.21 417.414 566.243 418.326 565.029C419.115 563.973 419.629 562.705 419.951 562.108ZM396.155 562.663C392.63 563.452 391.588 565.029 391.992 568.348C392.219 570.255 392.356 572.175 392.555 574.088C392.623 574.76 392.568 575.583 392.932 576.057C393.343 576.585 394.159 577.044 394.818 577.065C395.291 577.078 395.963 576.413 396.217 575.885C396.491 575.309 396.429 574.548 396.436 573.869C396.436 571.27 396.059 568.698 396.855 566.085C397.156 565.105 396.422 563.802 396.162 562.657L396.155 562.663ZM598.333 482.909C598.319 480.941 596.577 478.904 594.89 478.89C593.011 478.87 590.378 481.825 590.474 483.835C590.556 485.535 592.936 487.935 594.493 487.894C596.276 487.846 598.347 485.158 598.333 482.909ZM499.205 161.106C501.324 161.154 503.148 159.165 503.121 156.854C503.093 154.776 501.118 153.041 498.725 152.993C496.483 152.952 494.803 154.584 494.823 156.779C494.851 159.076 496.853 161.051 499.205 161.099V161.106ZM521.211 185.876C521.376 183.791 519.538 181.679 517.33 181.411C515.177 181.151 513.387 182.557 513.284 184.58C513.167 186.898 515.588 190.203 517.426 190.23C518.907 190.251 521.061 187.775 521.211 185.876ZM589.514 523.163C589.521 525.344 590.892 526.969 592.668 526.901C594.938 526.812 597.818 524.309 597.709 522.526C597.606 520.852 595.219 518.733 593.402 518.699C591.468 518.665 589.514 520.914 589.521 523.163H589.514ZM600.843 442.737C600.747 441.55 600.692 440.213 600.507 438.903C600.356 437.888 599.711 437.285 598.607 437.333C595.137 437.484 591.818 438.231 588.78 439.952C587.683 440.576 586.709 441.386 587.429 443.285C589.644 442.695 591.777 441.749 593.944 441.653C596.118 441.557 598.326 442.305 600.843 442.73V442.737ZM416.893 470.099C417.016 470.373 417.05 470.682 417.201 470.757C421.885 473.061 427.138 473.582 431.979 475.434C432.528 475.647 433.762 475.201 434.03 474.714C434.393 474.056 434.387 472.931 434.064 472.218C433.481 470.922 432.295 470.688 430.882 470.99C428.798 471.436 426.939 471.532 424.738 470.352C422.722 469.269 419.917 469.625 417.455 469.406C417.283 469.392 417.064 469.879 416.886 470.112L416.893 470.099ZM238.532 233.331C238.545 235.683 240.39 237.692 242.495 237.637C244.395 237.589 245.917 235.402 245.849 232.83C245.808 231.246 243.304 228.956 241.652 228.983C240.129 229.01 238.525 231.253 238.532 233.331ZM412.25 603.24C412.524 603.851 412.915 605.037 413.56 606.066C414.246 607.17 415.336 607.451 416.495 606.703C418.298 605.544 419.471 603.919 419.711 601.766C419.883 600.209 418.861 598.982 417.27 598.584C414.698 597.946 412.175 599.976 412.257 603.233L412.25 603.24Z" fill="black"/>
<path d="M420.554 180.191C402.32 184.868 385.093 192.137 366.619 195.696C367.03 195.312 367.38 194.763 367.867 194.571C372.009 192.967 376.151 191.376 380.341 189.901C381.61 189.456 383.009 189.373 384.346 189.113C385.237 188.941 386.15 188.838 387 188.55C395.387 185.698 403.767 182.817 412.154 179.944C413.772 179.389 415.37 178.771 417.016 178.339C418.408 177.976 419.766 178.051 420.554 180.191Z" fill="black"/>
<path d="M326.831 208.718C327.386 207.477 327.482 206.723 327.894 206.455C328.744 205.907 329.738 205.55 330.712 205.242C336.356 203.431 342.007 201.634 347.671 199.879C352.238 198.459 356.819 197.088 361.407 195.744C362.196 195.511 363.06 195.511 363.89 195.408C363.979 195.627 364.075 195.84 364.164 196.059C363.622 196.505 363.149 197.143 362.525 197.362C357.251 199.207 351.964 201.01 346.656 202.759C341.671 204.398 336.665 205.962 331.652 207.518C330.287 207.944 328.881 208.218 326.831 208.725V208.718Z" fill="black"/>
<path d="M348.995 242.199C348.727 244.352 347.349 244.825 346.101 245.257C340.1 247.335 334.073 249.344 328.052 251.354C327.119 251.669 326.111 252.156 325.116 250.901C325.425 250.531 325.665 249.962 326.077 249.783C330.232 247.973 334.395 246.183 338.599 244.482C341.842 243.166 345.175 242.171 349.002 242.199H348.995Z" fill="black"/>
<path d="M428.276 180.137C428.9 180.637 429.415 181.049 429.991 181.501C429.696 181.885 429.559 182.263 429.305 182.372C423.016 185.088 416.721 187.783 410.412 190.458C409.678 190.766 408.883 191.171 408.128 191.15C404.055 191.027 400.688 193.077 397.122 194.538C395.25 195.306 393.295 195.861 391.217 196.136C393.611 194.051 396.546 193.009 399.405 191.994C403.479 190.547 407.676 189.415 411.845 188.249C417.722 186.61 423.147 184.087 428.283 180.137H428.276Z" fill="black"/>
<path d="M370.48 202.006C364.836 204.886 359.446 207.149 353.521 208.02C351.985 208.246 350.544 209.048 349.043 209.542C347.98 209.885 346.869 210.262 345.771 208.815C353.548 205.578 361.558 203.679 369.355 201.148C369.526 201.093 369.856 201.519 370.473 202.006H370.48Z" fill="black"/>
<path d="M300.6 255.743C305.778 253.521 313.479 251.601 316.544 251.882C316.153 252.623 315.989 253.453 315.509 253.741C314.453 254.372 313.252 254.79 312.08 255.188C309.501 256.052 306.916 256.902 304.303 257.657C302.15 258.274 302.006 258.15 300.6 255.743Z" fill="black"/>
<path d="M214.598 404.998C215.174 403.462 215.634 402.091 216.203 400.76C220.873 389.719 225.639 378.713 230.227 367.638C236.687 352.023 242.9 336.298 249.456 320.724C253.221 311.782 257.418 303.018 261.553 294.24C262.081 293.122 263.26 291.95 264.399 291.552C273.327 288.404 282.304 285.387 291.301 282.438C299.435 279.777 307.636 277.288 315.783 274.661C323.711 272.104 331.611 269.45 339.531 266.851C359.261 260.363 379.004 253.91 398.72 247.375C406.62 244.755 414.41 241.765 422.358 239.303C429.867 236.972 437.562 235.237 445.105 233.022C458.567 229.065 471.974 224.909 485.421 220.911C495.159 218.017 504.918 215.226 514.69 212.456C516.72 211.88 518.647 210.631 521.04 211.132C521.41 212.62 520.636 213.614 519.929 214.609C516.692 219.162 513.332 223.634 510.219 228.276C502.524 239.749 494.899 251.27 487.314 262.818C479.229 275.128 471.233 287.499 463.175 299.822C461.365 302.593 459.383 305.254 457.586 308.038C455.357 311.487 453.149 314.95 451.099 318.509C449.59 321.122 447.718 322.83 444.605 323.522C440.38 324.455 436.273 325.909 432.13 327.212C429.621 328 427.447 328.021 424.999 326.485C420.87 323.886 415.96 323.317 411.249 322.583C405.269 321.657 399.193 321.184 393.186 322.425C389.956 323.09 386.781 324.064 383.64 325.093C373.086 328.57 364.233 334.618 356.943 342.998C352.993 347.545 350.092 352.743 348.138 358.373C347.006 361.644 345.011 363.098 341.781 363.688C338.66 364.264 335.629 365.306 332.537 366.033C327.03 367.336 321.551 367.542 315.934 366.273C308.576 364.614 301.135 364.874 293.983 367.363C283.731 370.929 274.294 375.942 266.902 384.165C265.914 385.262 264.865 386.366 264.131 387.635C262.664 390.172 260.51 391.646 257.788 392.517C245.389 396.467 233.011 400.493 220.592 404.388C218.823 404.943 216.944 405.684 214.598 405.012V404.998Z" fill="black"/>
<path d="M542.196 519.919C540.838 520.804 539.981 521.558 538.987 521.977C532.383 524.733 525.744 527.408 519.134 530.144C518.414 530.439 517.81 531.001 517.118 531.372C516.137 531.893 515.177 532.688 513.901 531.762C513.606 529.986 514.971 529.451 516.199 528.923C517.769 528.251 519.435 527.806 520.985 527.092C526.17 524.72 531.32 522.271 536.484 519.844C538.136 519.069 539.768 518.273 542.196 519.919Z" fill="black"/>
<path d="M456.057 547.92C455.721 548.461 455.515 549.25 455.028 549.504C453.129 550.505 451.147 551.369 449.179 552.233C445.763 553.728 442.328 555.195 438.899 556.663C438.289 556.924 437.651 557.129 436.656 557.5C436.759 555.388 438.158 554.777 439.386 554.215C442.787 552.665 446.244 551.239 449.679 549.778C451.551 548.982 453.43 548.208 455.309 547.426C455.556 547.59 455.81 547.755 456.057 547.92Z" fill="black"/>
<path d="M297.974 508.866C288.064 503.812 279.259 496.907 269.583 491.462C269.274 491.29 269.171 490.755 269.007 490.454C269.233 490.22 269.295 490.124 269.384 490.063C269.473 490.001 269.617 489.912 269.686 489.946C270.584 490.399 271.517 490.803 272.36 491.338C281.069 496.879 289.765 502.434 298.467 507.989C298.303 508.283 298.138 508.571 297.974 508.866Z" fill="black"/>
<path d="M292.172 546.097C288.256 545.466 266.147 532.834 263.185 529.494C263.562 529.494 263.939 529.378 264.172 529.508C273.471 534.809 282.757 540.137 292.028 545.479C292.152 545.548 292.124 545.884 292.165 546.097H292.172Z" fill="black"/>
<path d="M378.538 507.789C377.838 508.193 377.31 508.721 376.727 508.79C373.943 509.126 371.145 509.311 368.354 509.606C366.825 509.764 365.309 510.038 363.519 510.292C362.854 509.537 362.127 508.536 362.6 506.952C363.211 504.936 362.114 503.797 360.193 502.817C361.407 502.735 362.621 502.652 363.862 502.57C363.986 507.857 365.343 507.843 369.019 507.885C370.665 505.155 370.651 505.094 368.004 502.378C369.383 501.788 370.432 501.514 370.686 503.441C370.727 503.777 370.679 504.127 370.713 504.463C371.07 507.638 372.112 508.303 375.287 507.384C376.229 507.11 377.308 507.247 378.524 507.795L378.538 507.789Z" fill="black"/>
<path d="M502.236 569.226C501.132 569.946 500.097 570.81 498.924 571.373C489.988 575.659 481.032 579.897 472.056 584.094C471.027 584.574 469.799 585.397 468.551 583.984C468.805 583.586 468.949 583.045 469.278 582.894C478.961 578.354 488.651 573.848 498.362 569.37C499.445 568.87 500.631 568.602 501.777 568.225C501.928 568.561 502.085 568.897 502.236 569.233V569.226Z" fill="black"/>
<path d="M496.243 563.733C486.834 567.56 478.152 572.155 468.867 575.288C468.737 575.09 468.606 574.884 468.476 574.685C468.785 574.267 469.025 573.745 469.429 573.464C470.266 572.881 471.171 572.381 472.097 571.935C478.769 568.733 485.456 565.564 492.128 562.369C493.76 561.587 495.139 561.505 496.243 563.733Z" fill="black"/>
<path d="M516.226 562.891C515.808 560.737 517.213 560.203 518.365 559.668C522.391 557.809 526.437 555.999 530.51 554.25C533.644 552.906 536.813 551.644 539.994 550.417C541.195 549.957 542.477 549.71 544.473 549.155C543.259 551.308 541.88 551.836 540.612 552.426C537.519 553.866 534.412 555.272 531.278 556.602C526.389 558.68 521.472 560.696 516.226 562.884V562.891Z" fill="black"/>
<path d="M437.548 588.352C437.795 586.316 438.913 585.911 439.934 585.465C445.359 583.106 450.776 580.747 456.235 578.464C457.195 578.059 458.306 578.018 459.451 578.127C457.812 580.637 455.001 580.994 452.676 582.153C450.337 583.319 447.91 584.327 445.482 585.314C442.986 586.329 440.456 587.241 437.548 588.345V588.352Z" fill="black"/>
<path d="M514.361 553.215C514.93 552.748 515.437 552.145 516.089 551.85C520.649 549.745 525.23 547.687 529.818 545.637C531.107 545.061 532.417 544.615 533.24 546.611C532.78 546.988 532.41 547.475 531.93 547.66C526.231 549.834 520.512 551.967 514.8 554.106C514.649 553.811 514.505 553.516 514.354 553.215H514.361Z" fill="black"/>
<path d="M464.019 605.503C465.822 604.639 467.564 603.611 469.436 602.939C474.387 601.169 479.057 598.906 483.323 595.807C484.715 594.792 486.244 594.072 488.315 594.634C487.609 596.163 486.279 596.719 485.01 597.356C480.45 599.64 475.875 601.91 471.329 604.228C468.277 605.785 466.782 606.223 464.019 605.51V605.503Z" fill="black"/>
<path d="M311.106 585.328C315.865 586.37 332.008 596.773 334.134 600.175C330.26 599.338 312.635 587.982 311.106 585.328Z" fill="black"/>
<path d="M203.996 286.711C203.509 287.603 203.105 288.549 202.529 289.372C200.89 291.711 199.902 294.33 198.709 296.895C196.515 301.599 193.552 305.954 190.871 310.432C190.679 310.754 190.164 310.885 189.053 311.563C189.554 309.828 189.678 308.724 190.164 307.819C194.197 300.379 198.64 293.199 203.283 286.149C203.523 286.341 203.763 286.526 204.003 286.718L203.996 286.711Z" fill="black"/>
<path d="M323.375 622.03C313.102 615.378 302.836 608.726 292.563 602.074C292.673 601.868 292.79 601.67 292.899 601.464C293.283 601.608 293.708 601.697 294.051 601.91C297.995 604.378 301.917 606.881 305.874 609.336C309.166 611.373 312.498 613.341 315.797 615.364C317.642 616.496 319.5 617.621 321.276 618.862C322.264 619.554 323.087 620.473 323.985 621.289C323.786 621.536 323.587 621.783 323.382 622.03H323.375Z" fill="black"/>
<path d="M383.873 539.986C383.921 542.352 381.809 545.115 379.854 545.232C378.017 545.349 375.884 542.832 375.808 540.466C375.726 538.08 378.154 535.563 380.561 535.535C382.364 535.515 383.818 537.469 383.873 539.993V539.986Z" fill="black"/>
<path d="M625.119 439.35C620.846 438.411 619.42 436.662 619.996 433.014C620.14 432.095 620.695 431.059 621.381 430.428C623.493 428.501 624.851 428.94 625.887 431.67C626.874 434.282 626.696 436.772 625.119 439.343V439.35Z" fill="black"/>
<path d="M353.891 539.204C353.843 537.517 354.693 536.365 356.14 535.686C357.635 534.98 358.678 535.762 359.72 536.832C361.188 538.347 361.805 540.219 362.23 542.16C362.6 543.82 361.188 545.287 359.466 545.219C356.819 545.109 353.864 541.92 353.891 539.211V539.204Z" fill="black"/>
<path d="M361.942 584.149C361.922 584.375 361.908 584.718 361.867 585.054C361.565 587.482 360.55 588.716 358.973 588.579C357.19 588.428 355.229 586.145 355.304 584.286C355.318 583.95 355.352 583.6 355.441 583.278C355.99 581.18 357.876 579.719 359.631 580.014C361.181 580.275 361.977 581.646 361.949 584.149H361.942Z" fill="black"/>
<path d="M214.338 451.501C214.235 454.326 213.199 455.464 210.772 455.43C207.987 455.396 205.704 453.27 205.861 450.856C206.012 448.614 208.488 445.96 210.381 445.946C211.992 445.932 214.79 448.593 214.338 451.501Z" fill="black"/>
<path d="M439.166 514.474C438.09 512.849 438.933 512.28 439.722 511.855C441.313 510.991 442.938 510.161 444.611 509.461C449.213 507.528 453.835 505.655 458.464 503.797C459.163 503.516 459.952 503.454 460.816 503.578C459.177 505.902 456.221 505.71 454.054 507.027C451.647 508.495 449.041 509.626 446.511 510.881C444.097 512.081 441.676 513.247 439.166 514.474Z" fill="black"/>
<path d="M425.005 204.295C428.276 204.337 430.958 207.868 430.162 210.796C429.449 213.437 425.897 214.513 423.414 212.765C422.694 212.257 422.097 211.503 421.597 210.755C420.767 209.514 419.93 208.149 420.897 206.654C421.885 205.125 423.442 204.446 425.005 204.289V204.295Z" fill="black"/>
</svg>
