<svg width="800" height="800" viewBox="0 0 800 800" fill="none" xmlns="http://www.w3.org/2000/svg">
<path d="M533.239 449.907V487.395C537.556 487.996 541.115 488.492 544.681 488.98C547.512 490.458 546.542 493.72 542.247 494.908C533.742 497.271 525.661 496.684 519.038 489.942C518.238 489.128 517.771 487.989 517.658 487.812C512.479 497.59 507.483 506.836 502.664 516.167C500.004 521.318 501.518 526.518 506.046 529.503C507.214 530.274 507.999 531.618 508.969 532.701C507.179 533.84 505.445 535.835 503.584 535.955C496.812 536.394 490.925 533.995 486.276 528.88C485.894 528.463 485.399 528.159 485.406 528.166C477 534.264 468.664 539.924 460.789 546.171C456.225 549.793 453.55 554.901 454.18 561.056C454.349 562.704 455.248 564.289 455.85 565.888C456.324 567.147 456.854 568.392 457.357 569.637C455.857 570.04 453.953 571.236 452.92 570.712C448.285 568.364 443.445 566.043 439.575 562.69C436.561 560.079 434.827 560.2 431.763 562.18C421.468 568.831 421.51 578.926 424.079 588.59C426.385 597.263 430.935 605.399 435.068 613.478C436.313 615.905 439.476 617.348 441.761 619.244L448.165 629.191C448.165 629.191 449.241 634.143 439.575 643.34L389.244 649H339.669L316.673 646.524C316.673 646.524 320.755 643.439 322.659 631.809C324.626 619.76 323.253 607.769 320.083 596.047C315.512 579.131 305.082 571.42 286.614 571.278C271.436 571.165 256.675 569.149 242.715 562.845C225.386 555.028 216.342 541.275 213.611 522.768C212.281 513.776 210.151 504.905 208.722 495.92C208.311 493.338 208.538 490.359 209.451 487.926C212.302 480.306 210.271 473.904 206.16 467.332C203.634 463.292 201.419 458.531 200.882 453.89C199.955 445.86 202.941 441.269 211.878 438.559C223.51 435.036 227.862 426.688 229.681 416.055C230.891 408.987 231.697 401.835 232.313 394.69C232.419 393.43 230.983 391.634 229.773 390.749C227.53 389.101 224.933 387.941 222.265 386.448C217.163 391.336 216.562 399.819 221.161 405.945C222.074 407.162 222.046 409.094 222.449 410.7C220.439 411.096 218.034 412.404 216.491 411.732C204.695 406.561 199.764 396.465 198.143 384.417C196.296 370.693 202.155 360.01 212.564 350.877C208.729 348.825 205.162 347.113 201.78 345.083C183.567 334.153 179.314 313.799 189.171 296.233C191.237 292.554 196.367 290.46 200.365 288.111C201.334 287.545 203.408 288.854 205.99 289.597C195.348 296.042 194.435 304.602 202.24 312.625C213.172 323.859 227.169 326.017 237.655 317.69C236.516 316.806 235.455 316.013 234.429 315.179C225.994 308.323 222.159 299.445 223.553 288.698C224.933 278.079 229.61 269.264 239.453 264.008C240.832 263.272 242.679 262.798 244.165 263.06C245.403 263.279 246.422 264.751 247.54 265.671C246.649 266.534 245.913 267.772 244.852 268.189C236.254 271.571 234.365 281.263 241.094 287.941C251.305 298.079 268.436 297.895 279.234 287.524C277.054 279.534 279.283 274.636 285.92 272.83C286.975 268.416 288.263 263.81 289.055 259.12C289.26 257.903 288.277 256 287.237 255.144C281.201 250.191 282.022 242.997 289.048 239.615C290.053 239.134 291.15 237.662 291.213 236.587C291.765 227.383 292.126 218.165 292.423 208.954C292.459 207.878 291.985 206.577 291.312 205.721C284.031 196.467 284.569 194.536 296.202 190.383C295.084 179.502 296.725 167.978 289.076 158.363C288.722 157.918 288.333 157.486 287.909 157.104C281.972 151.763 282.467 148.006 290.958 143.337C288.468 138.165 286.133 132.775 283.224 127.709C282.588 126.598 279.821 126.054 278.201 126.301C272.901 127.101 268.436 126.231 266.058 121.01C263.744 115.951 265.584 109.895 269.801 107.221C274.004 104.561 280.635 105.799 284.562 109.004C295.14 117.635 297.299 129.527 298.289 142.049C298.459 144.235 299.294 146.372 299.832 148.593C310.856 144.872 316.432 146.52 319.935 154.027C322.447 159.403 321.109 162.905 316.029 166.223C314.521 167.207 313.198 169.47 312.993 171.282C312.066 179.424 311.274 187.603 311.09 195.788C311.033 198.328 313.035 200.91 314.097 203.471C316.241 202.169 319.064 201.356 320.402 199.481C326.628 190.758 328.709 180.662 328.864 170.128C328.886 168.728 328.298 167.086 327.456 165.947C321.428 157.797 321.732 155.236 330.343 148.898C328.921 146.895 327.562 144.808 326.02 142.863C324.633 141.115 322.744 139.708 321.619 137.826C316.085 128.601 316.835 124.448 327.753 118.413C321.321 109.52 320.692 106.309 324.633 102.58C328.206 99.1986 334.143 99.1349 338.601 102.425C343.986 106.401 344.332 110.079 340.667 116.977C344.304 120.196 348.734 122.615 350.842 126.337C353.963 131.848 353.623 138.335 349.738 143.719C346.583 148.084 345.953 152.307 346.328 157.72C346.859 165.403 345.302 173.206 344.976 180.974C344.7 187.546 344.87 194.147 344.948 200.733C344.962 202.028 345.493 203.315 346.222 206.541C348.875 203.061 351.267 201.115 352.038 198.667C353.644 193.524 354.748 188.147 355.336 182.792C355.597 180.401 353.92 177.854 353.475 175.321C352.838 171.699 351.154 167.39 352.463 164.547C353.602 162.077 358.265 159.969 361.393 159.934C368.065 159.856 374.023 173.241 368.893 177.238C359.51 184.539 363.162 193.545 364.074 202.006C364.541 206.308 367.81 210.312 369.82 214.451C370.655 214.33 371.49 214.217 372.325 214.097C374.759 208.076 377.236 202.077 379.585 196.028C380.215 194.408 380.738 192.626 380.76 190.913C380.795 188.239 381.071 185.226 379.988 182.947C377.186 177.033 378.007 172.711 384.786 169.725C383.625 167.49 382.543 165.615 381.665 163.655C379.868 159.616 377.115 155.64 376.677 151.43C375.764 142.622 381.878 137.493 392.017 137.932C388.699 131.133 388.048 124.943 396.617 121.958C401.457 120.267 405.787 121.505 408.731 125.735C412.17 130.673 411.299 134.763 406.339 140.436C428.395 155.265 410.599 164.638 401.117 174.663C408.03 181.455 406.7 189.909 398.159 191.402C397.155 203.23 396.143 215.158 395.102 227.482C403.233 226.251 407.797 222.417 410.726 215.929C413.818 209.081 414.859 202.035 414.462 194.67C414.413 193.793 414.031 192.795 413.486 192.095C411.038 188.968 410.302 185.07 413.606 183.047C416.776 181.108 421.418 179.927 424.956 180.648C429.357 181.547 432.202 190.737 430.475 195.052C430.263 195.59 430.015 196.219 429.584 196.545C418.163 205.155 420.215 217.309 421.56 228.932C421.956 232.321 425.076 235.398 427.914 240.266C432.124 234.267 435.627 229.321 439.065 224.327C439.716 223.386 440.077 222.247 440.594 221.214C442.625 217.089 444.365 213.517 440.374 208.904C434.777 202.431 437.664 195.392 445.597 192.045C447.366 191.303 448.512 187.426 448.717 184.9C449.8 171.26 444.938 158.788 441.103 145.99C436.66 131.154 447.351 116.814 462.168 117.925C467.808 118.349 473.122 123.061 479.568 126.315C479.681 125.679 480.601 123.705 480.219 122.035C479.49 118.852 477.898 115.873 476.894 112.739C475.719 109.068 477.063 107.094 481.09 107.009C482.377 106.981 484.288 106.754 484.819 105.927C487.762 101.314 491.689 99.4462 496.855 101.293C501.822 103.061 503.117 107.257 502.891 112.067C503.131 112.279 503.294 112.435 503.471 112.577C505.629 114.267 507.794 115.958 509.959 117.649C507.808 119.764 505.848 122.149 503.443 123.924C501.299 125.502 498.482 126.167 496.303 127.716C495.326 128.41 495.178 130.27 494.654 131.607C495.808 131.94 497.06 132.732 498.107 132.527C503.315 131.508 508.884 129.655 512.875 134.508C516.3 138.682 519.774 143.358 521.345 148.395C524.373 158.094 516.441 169.944 506.33 174.288C495.51 178.936 488.668 188.027 483.05 198.059C482.073 199.799 481.167 201.582 480.049 203.676C484.139 207.673 485.83 212.371 481.889 217.571C479.285 221.009 476.787 224.985 470.433 222.678C468.36 231.656 466.357 240.344 464.376 248.932C475.11 253.722 478.585 249.866 486.312 238.193C489.559 233.29 491.838 227.864 489.835 221.242C488.328 216.24 496.282 211.118 502.204 213.786C505.502 215.271 508.764 219.07 509.79 222.494C510.412 224.574 507.221 229.802 504.914 230.404C495.836 232.753 495.701 240.344 494.293 246.888C493.388 251.097 494.194 255.731 494.583 260.138C494.682 261.298 496.084 262.346 497.711 264.574C504.49 255.681 510.78 247.425 516.901 239.396C513.313 231.904 514.693 228.671 521.154 224.723C522.71 223.768 523.149 219.912 522.979 217.471C522.689 213.283 521.104 209.194 520.793 205.006C520.078 195.406 527.897 189.817 536.926 193.184C537.888 193.545 538.836 193.963 540.825 194.783C540.598 192.597 540.683 191.076 540.252 189.711C538.539 184.27 541.072 179.339 546.464 177.917C553.866 175.965 559.328 178.802 560.687 184.794C562.265 191.755 559.144 195.774 553.731 197.797C556.066 201.858 559.484 205.459 560.199 209.534C561.437 216.63 556.993 221.9 549.769 224.497C545.693 225.961 541.695 227.652 537.471 229.321C543.485 238.016 542.014 242.006 532.624 245.635C531.513 246.06 530.543 247.56 530.062 248.776C528.272 253.34 526.715 258.002 525.222 262.197C528.647 265.395 531.541 268.104 534.499 270.87C537.527 266.739 540.641 262.621 543.62 258.398C545.976 255.059 546.861 251.67 544.915 247.524C542.933 243.301 545.276 240.457 549.45 239.417C556.618 237.627 561.338 240.329 563.39 246.583C565.286 252.377 561.529 255.023 557.432 256.417C552.663 258.044 550.653 261.242 548.983 265.48C547.002 270.517 544.518 275.349 542.247 280.273C541.617 280.06 540.988 279.848 540.365 279.629C541.221 282.876 542.084 286.116 543.174 290.241C547.901 284.921 552.033 280.357 556.066 275.702C558.536 272.851 561.02 269.986 563.157 266.894C564.345 265.175 564.628 262.855 565.69 261.023C567.402 258.058 569.065 254.924 571.393 252.469C577.174 246.371 576.665 238.455 578.356 231.118C581.115 219.191 589.019 215.059 600.319 219.268C603.631 209.994 606.497 207.192 612.016 207.822C618.045 208.515 622.425 212.597 622.927 217.995C623.451 223.655 621.222 225.883 611.825 229.074C618.561 248.967 602.81 249.144 590.597 252.307C591.298 254.514 592.062 256.134 592.302 257.825C592.869 261.688 591.694 264.298 587.675 266.159C583.493 268.09 578.547 270.495 576.339 274.146C571.966 281.39 568.817 289.498 566.164 297.57C565.577 299.36 569.023 302.6 570.947 304.892C571.124 305.104 574.322 303.619 575.122 302.31C577.556 298.348 579.53 294.096 581.618 289.929C583.182 286.795 584.71 283.64 586.125 280.442C587.314 277.747 588.786 275.059 589.323 272.207C591.107 262.77 596.23 258.242 603.405 260.973C605.86 261.907 607.523 264.907 610.353 267.772C614.011 264.22 618.208 260.103 622.453 256.035C629.338 249.434 637.214 245.02 647.106 246.124C652.604 246.739 657.734 248.734 658.724 255.087C659.538 260.294 658.809 265.324 652.965 267.673C646.724 270.177 641.983 268.635 636.626 261.765C631.425 264.503 625.963 267.284 620.635 270.297C619.955 270.679 619.418 272.448 619.715 273.247C622.651 281.221 621.243 283.208 616.304 282.614C600.893 289.328 593.746 300.782 587.165 313.035C587.993 314.669 589.847 316.685 589.769 318.624C589.677 321.022 588.545 324.864 586.889 325.479C576.849 329.214 573.233 338.73 567.317 346.116C564.699 349.384 562.866 353.282 560.623 356.989C561.168 357.633 561.833 358.086 562.01 358.687C562.916 361.659 565.053 365.21 564.14 367.516C563.256 369.745 559.3 371.011 556.47 372.136C554.135 373.063 550.257 372.306 549.189 373.806C546.111 378.142 543.959 383.172 541.851 388.103C541.518 388.882 543.216 390.629 544.108 391.825C548.226 397.329 546.938 401.878 540.506 404.212C536.02 405.839 536.041 409.773 537.23 412.864C540.238 420.661 540.549 420.547 535.39 426.547C543.761 433.557 553.47 429.723 555.84 417.555C557.545 418.425 560.27 419.161 560.284 419.939C560.326 423.448 560.765 427.827 558.932 430.317C554.241 436.684 547.066 439.734 539.346 441.276C538.575 441.432 537.803 441.573 537.11 442.273C543.492 445.188 548.877 439.783 554.828 439.521C556.583 446.695 548.842 450.218 533.211 449.956L533.239 449.907ZM218.317 507.671C219.371 512.864 220.39 517.009 221.027 521.219C222.973 534.017 227.331 545.506 239.283 552.184C258.692 563.022 279.807 564.925 301.424 562.52C311.387 561.416 321.222 559.174 331.143 557.653C332.346 557.469 334.221 558.219 334.9 559.174C335.502 560.016 335.254 561.912 334.73 563.036C332.417 567.96 329.445 572.615 327.513 577.674C325.659 582.534 324.576 587.281 326.374 593.082C329.119 601.933 330.931 611.405 331.093 620.652C331.362 635.862 331.093 637.681 331.093 637.681L337.193 635.205H409.948L435.068 631.809C419.743 601.412 413.89 576.02 416.62 565.3C407.691 570.345 400.112 570.281 392.562 566.821C398.485 563.532 405.214 560.865 404.018 553.104C403.516 549.835 399.044 547.175 396.383 544.232C395.93 544.6 395.485 544.975 395.032 545.343C395.591 546.553 396.291 547.72 396.68 548.979C397.268 550.847 397.643 552.785 398.11 554.696C395.817 554.908 393.234 555.898 391.267 555.191C381.333 551.611 375.594 544.253 374.009 533.868C373.231 528.781 371.646 524.968 365.815 523.964C364.52 523.737 363.643 521.07 362.574 519.535C364.329 518.643 366.07 517.045 367.839 517.009C371.646 516.946 375.523 518.346 379.259 517.986C396.44 516.295 407.811 506.673 414.356 491.031C417.993 482.33 418.382 473.267 414.873 464.601C411.646 456.628 405.759 450.607 396.808 449.376C387.432 448.082 379.344 450.515 374.582 459.755C373.464 461.934 371.879 463.907 370.308 465.803C364.4 472.963 357.437 479.125 347.977 480.129C339.726 481.007 330.492 484.381 323.734 475.736C323.451 475.375 322.574 475.531 322.093 475.248C316.941 472.255 311.458 469.68 306.78 466.072C302.096 462.457 302.535 457.158 307.396 454.208C309.837 462.592 315.597 464.495 323.225 461.665C330.379 459.005 335.466 454.18 337.334 449.015C330.053 438.63 323.763 429.645 317.359 420.519C314.217 421.764 309.781 423.894 305.125 425.259C300.32 426.667 295.317 427.403 290.371 428.301C278.519 430.459 260.065 422.394 254.142 412.079C252.897 409.914 253.307 406.801 252.777 402.741C267.296 411.4 282.991 405.549 292.444 389.348C275.108 399.232 257.864 399.125 240.04 390.417C239.29 398.086 238.377 404.474 238.094 410.891C237.372 427.155 227.94 441.389 214.552 445.903C208.099 448.082 206.188 452.595 209.443 458.715C210.583 460.851 212.224 462.825 214 464.495C218.26 468.506 219.732 473.267 218.578 478.906C217.899 482.238 217.213 485.577 216.342 488.867C215.21 493.14 215.359 496.571 220.206 498.665C222.725 499.754 225.081 501.622 226.942 503.66C227.848 504.65 227.728 506.886 227.431 508.435C227.353 508.852 224.919 509.022 223.588 508.944C222.237 508.859 220.906 508.315 218.295 507.65L218.317 507.671ZM566.737 329.589C567.013 330.099 567.296 330.608 567.572 331.11C565.393 332.554 563.256 335.058 561.027 335.143C558.904 335.228 555.698 333.275 554.743 331.344C553.378 328.585 552.854 324.913 553.335 321.836C554.58 313.841 555.819 305.713 558.437 298.108C562.116 287.432 567.048 277.181 571.492 266.647C571.216 266.774 569.85 266.972 569.263 267.758C564.515 274.125 559.951 280.626 555.267 287.036C549.047 295.554 541.44 302.374 531.584 306.519C526.673 308.585 522.739 307.227 520.46 302.869C518.146 298.447 515.429 293.544 515.351 288.804C515.217 280.838 516.554 272.738 518.175 264.885C519.597 257.966 522.25 251.295 524.989 242.494C522.173 244.192 520.305 244.751 519.349 246.003C517.078 248.989 515.288 252.342 513.2 255.476C506.117 266.116 497.909 275.533 485.639 280.442C478.082 283.47 471.12 282.48 468.105 275.858C464.206 267.298 460.944 257.995 459.89 248.727C459.041 241.256 461.956 233.375 463.003 225.643C463.187 224.249 462.819 221.844 461.949 221.412C458.029 219.459 453.84 218.045 449.623 216.382C448.979 217.818 448.597 218.54 448.328 219.304C443.559 232.583 435.075 243.067 423.81 251.33C414.222 258.37 402.999 257.393 397.225 248.034C393.56 242.091 390.432 234.939 389.951 228.126C389.201 217.486 390.906 206.669 391.564 195.929C391.734 193.163 392.958 189.859 387.963 189.293C387.503 190.659 387.064 191.946 386.64 193.241C384.736 199.028 383.307 205.02 380.837 210.553C376.507 220.238 369.87 228.02 360.048 232.753C354.274 235.54 348.21 234.472 345.472 228.727C342.599 222.714 339.719 216.191 339.16 209.696C338.12 197.528 338.834 185.218 338.587 172.979C338.551 171.204 337.214 169.456 336.485 167.695C334.886 169.676 334.469 171.168 334.44 172.675C334.207 186.739 329.975 199.658 323.713 212.123C320.961 217.606 316.651 220.358 311.026 219.742C305.676 219.155 304.106 214.344 303.242 209.619C302.528 205.742 301.848 201.858 301.148 197.974C300.645 198.016 300.136 198.059 299.634 198.108C299.634 203.358 299.69 208.614 299.612 213.863C299.556 217.967 299.825 222.162 299.068 226.145C297.957 232.045 298.77 233.856 304.608 235.101C305.868 235.37 307.184 235.554 308.358 236.042C316.927 239.601 325.418 243.35 334.03 246.81C349.597 253.064 365.32 258.929 380.802 265.381C399.107 273.007 417.208 281.129 435.45 288.918C443.431 292.328 451.661 295.172 459.572 298.737C471.516 304.121 483.226 310.021 495.135 315.504C505.339 320.201 515.719 324.517 525.887 329.292C527.225 329.922 527.77 332.242 528.675 333.785C528.215 334.181 527.748 334.57 527.288 334.966C525.406 334.45 523.404 334.181 521.656 333.374C504.369 325.38 487.267 317.004 469.846 309.321C446.184 298.886 422.295 288.988 398.513 278.822C386.321 273.608 374.136 268.38 361.994 263.06C352.236 258.787 342.677 254.026 332.777 250.128C322.963 246.265 312.844 243.188 302.832 239.848C301.445 239.381 299.895 239.396 298.417 239.19C298.226 239.664 298.042 240.145 297.85 240.619C299.266 241.589 300.568 242.813 302.117 243.478C313.46 248.359 324.895 253.014 336.209 257.952C359.086 267.934 381.87 278.136 404.761 288.09C418.071 293.877 431.544 299.282 444.889 304.998C451.434 307.8 457.817 310.976 464.32 313.891C484.245 322.833 504.221 331.662 524.111 340.682C534.025 345.175 543.79 349.985 553.611 354.641C556.434 351.28 554.481 349.441 551.87 348.082C548.849 346.512 545.502 345.521 542.636 343.739C541.285 342.897 540.726 340.774 539.813 339.239C541.61 339.168 543.613 338.546 545.162 339.126C549.974 340.93 554.616 343.194 559.654 345.429C567.735 331.988 575.702 318.73 584.37 304.319C574.995 311.174 573.572 325.43 559.017 324.114C559.484 326.307 559.895 328.231 560.291 330.113C562.831 329.915 564.784 329.766 566.744 329.618L566.737 329.589ZM296.499 258.058C294.992 263.577 293.952 268.026 292.544 272.356C291.234 276.382 292.671 278.49 296.308 280.343C326.975 296.006 357.26 312.448 388.26 327.41C413.925 339.791 440.275 350.771 466.556 361.828C486.234 370.106 506.351 377.343 526.114 385.422C531.824 387.757 534.867 386.894 536.855 380.93C538.143 377.081 540.421 373.558 542.849 368.698C461.793 329.582 378.707 295.745 296.506 258.058H296.499ZM422.111 361.673C422.451 362.012 422.798 362.345 423.137 362.684C421.517 364.262 419.967 367.007 418.262 367.113C416.182 367.24 413.408 365.599 411.972 363.866C410.641 362.26 410.783 359.487 410.068 357.294C409.552 355.723 409.078 353.509 407.91 352.914C404.556 351.195 400.848 350.148 397.282 348.839C397.048 349.384 396.822 349.929 396.588 350.481C398.548 351.443 400.509 352.398 402.631 353.438C402.391 356.614 399.603 359.352 396.468 359.013C391.989 358.524 390.199 354.011 391.381 345.564C388.897 344.474 386.293 343.335 383.696 342.196C383.915 342.798 384.135 343.399 384.354 344C382.274 345.663 380.399 348.288 378.064 348.79C372.445 350.007 369.721 345.592 370.867 338.737C371.094 337.4 369.813 335.2 368.575 334.344C365.27 332.066 364.209 335.433 362.256 337.131C360.685 338.496 357.565 340.067 356.319 339.381C354.394 338.327 353.05 335.56 352.321 333.247C351.918 331.966 353.269 330.134 354.012 328.026C351.819 326.887 349.519 325.698 348.748 325.295C344.686 327.842 341.863 330.898 338.905 331.04C336.74 331.146 333.796 327.771 332.339 325.281C331.49 323.831 332.884 321.065 333.471 317.775C331.681 316.77 328.815 315.164 325.461 313.283C325.475 318.511 323.409 321.291 318.965 321.079C314.323 320.852 312.887 316.459 314.479 307.439C312.144 306.505 309.681 305.522 308.16 304.913C307.184 307.22 306.872 309.752 305.478 310.693C304.283 311.507 300.462 310.976 300.214 310.226C299.252 307.354 299.252 304.156 298.742 299.777C298.339 299.53 296.471 298.383 294.298 297.053C293.704 302.02 290.47 303.449 286.968 301.963C284.944 301.107 283.925 297.888 281.604 294.485C286.097 294.853 288.248 295.023 291.666 295.306C286.876 291.047 283.281 293.226 280.996 295.547C278.576 298.001 279.021 301.369 282.658 303.477C296.188 311.323 309.271 320.032 323.246 326.965C356.298 343.364 389.251 360.152 423.222 374.464C455.63 388.117 489.248 398.942 522.42 410.763C528.831 413.048 531.265 410.579 530.876 403.179C530.006 402.804 529.008 402.373 529.135 402.429C527.409 404.608 526.071 406.299 524.734 407.997C523.333 406.872 520.842 405.853 520.715 404.601C519.958 396.925 514.056 396.961 508.721 396.175C509.33 396.812 510.186 396.911 510.872 397.314C512.224 398.1 513.476 399.048 514.771 399.925C513.724 401.418 512.245 404.318 511.714 404.148C509.245 403.384 506.669 402.146 504.844 400.356C502.983 398.524 501.949 395.85 501.235 394.661C497.166 395.864 494.159 397.803 492.333 397.01C490.302 396.126 488.342 392.843 488.137 390.459C487.677 385.04 484.132 385.394 482.533 385.125C479.179 387.488 477.12 390.183 475.245 390.056C467.666 389.554 466.534 383.406 465.791 377.258C463.902 377.003 462.183 376.77 460.477 376.536C458.22 380.208 455.708 383.611 451.087 381.623C446.75 379.762 446.099 375.815 446.849 371.45C447.012 370.523 446.566 368.839 445.915 368.528C443.127 367.191 440.155 366.243 437.247 365.153C437.049 365.528 436.851 365.91 436.653 366.285C437.735 367.891 438.818 369.504 440.714 372.306C437.912 372.921 434.551 374.442 433.879 373.664C431.586 371.004 430.249 367.523 428.543 364.354C429.039 364.014 429.541 363.675 430.036 363.335C426.272 361.368 422.508 359.409 418.057 357.088C417.654 359.494 417.399 361.064 417.052 363.158C419.246 362.522 420.682 362.104 422.126 361.687L422.111 361.673ZM496.826 145.87C497.81 145.87 498.886 145.664 499.841 145.912C502.197 146.52 505.855 146.733 506.499 148.197C507.497 150.454 507.157 153.998 506.011 156.312C504.674 159.021 502.169 161.434 499.629 163.209C489.609 170.22 481.21 178.554 475.86 189.725C475.209 191.09 473.759 192.081 472.683 193.241C473.32 181.78 477.177 172.067 485.045 164.249C491.774 157.564 493.543 149.548 490.338 141.002C489.227 138.045 485.406 134.458 482.491 134.133C473.957 133.185 464.093 146.91 465.508 155.35C466.704 162.502 466.329 169.909 466.824 177.196C466.987 179.644 467.497 182.106 468.204 184.461C468.784 186.393 469.888 188.161 470.844 190.164C463.039 192.272 460.194 190.454 460.378 183.867C460.753 170.793 458.871 158.116 455.114 145.615C453.677 140.84 453.55 135.286 458.616 132.767C461.093 131.537 465.098 133.39 469.669 134.02C471.594 132.329 471.296 129.577 468.133 126.705C464.206 123.139 458.701 122.715 454.201 125.813C447.351 130.525 445.915 139.658 448.675 149.768C451.406 159.764 452.856 170.135 454.456 180.408C455.149 184.858 453.118 190.793 455.376 193.651C457.916 196.863 463.888 197.366 468.374 199.035C468.593 199.12 468.862 199.283 469.046 199.219C471.353 198.469 474.424 198.363 475.804 196.785C480.269 191.663 483.474 185.325 488.342 180.698C494.767 174.592 502.374 169.739 509.358 164.207C517.849 157.486 516.752 143.528 507.49 139.304C502.94 137.232 496.437 140.974 496.834 145.87H496.826ZM554.701 367.056C555.656 366.321 556.908 365.833 557.05 365.118C557.199 364.361 556.512 363.123 555.812 362.578C554.531 361.574 553.01 360.838 551.524 360.137C523.595 347.092 495.779 333.778 467.674 321.135C441.599 309.406 415.184 298.44 388.946 287.071C357.862 273.601 326.798 260.06 295.728 246.562C295.303 246.378 294.744 246.088 294.383 246.223C293.081 246.704 291.843 247.347 290.576 247.935C291.242 248.904 291.687 250.312 292.6 250.764C295.537 252.229 298.685 253.255 301.693 254.592C333.924 269.003 366.141 283.435 398.365 297.867C447.33 319.798 496.289 341.744 545.276 363.639C548.255 364.969 551.425 365.875 554.708 367.049L554.701 367.056ZM270.771 303.597C271.57 305.642 271.754 307.984 273 308.96C278.08 312.929 283.154 317.124 288.829 320.081C321.47 337.081 353.977 354.386 387.121 370.36C424.291 388.28 462.565 403.717 502.133 415.673C510.412 418.177 518.882 420.052 527.331 421.913C528.732 422.224 530.473 420.979 532.942 420.158C439.808 392.716 353.793 353.091 270.764 303.597H270.771ZM538.575 396.876C537.237 395.793 536.056 394.251 534.527 393.699C526.595 390.848 518.373 388.712 510.603 385.472C476.653 371.322 442.391 357.782 409.056 342.295C370.903 324.566 333.598 305.012 295.933 286.229C292.084 284.312 288.298 282.268 283.989 280.025C284.626 293.481 502.381 394.046 538.575 396.869V396.876ZM296.159 336.501C295.65 335.829 295.14 335.157 294.638 334.478C275.144 347.998 255.642 361.517 236.148 375.037L237.026 376.749C243.96 375.503 251.128 374.987 257.758 372.815C265.11 370.41 272.674 367.467 278.873 362.996C287.555 356.742 295.105 348.91 303.009 341.616C303.801 340.888 303.688 339.183 303.646 339.366C288.694 348.924 273.552 358.758 258.197 368.259C255.657 369.83 252.225 369.957 249.203 370.749C248.934 370.098 248.665 369.441 248.397 368.79C256.683 363.781 265.174 359.083 273.184 353.671C281.095 348.323 288.517 342.246 296.159 336.487V336.501ZM266.787 414.329C280.974 420.604 303.83 411.287 317.706 394.612C328.942 381.114 339.068 359.791 336.103 355.504C321.222 384.241 305.096 411.506 266.78 414.329H266.787ZM429.789 447.41C427.305 446.143 426.102 445.697 425.09 444.99C418.347 440.278 410.606 436.472 405.129 430.565C392.881 417.35 389.314 400.583 388.968 382.974C388.932 381.163 387.92 379.366 387.354 377.562C386.76 377.704 386.173 377.838 385.578 377.98C385.196 379.784 384.595 381.573 384.46 383.392C382.769 406.002 390.652 424.827 407.195 440.137C413.132 445.634 420.258 447.876 429.782 447.41H429.789ZM373.839 440.038C347.651 420.569 345.366 394.605 352.866 365.684C343.717 382.323 339.733 399.458 347.948 417.583C353.121 428.994 361.704 436.819 373.839 440.038ZM282.779 407.29C306.745 395.765 321.208 376.098 330.81 351.825C329.6 351.11 328.737 350.601 327.584 349.915C313.899 370.198 302.761 392.228 282.779 407.297V407.29ZM245.842 383.498C251.029 383.498 256.477 384.538 261.36 383.321C282.885 377.923 299.924 365.84 312.031 347.106C312.802 345.91 312.781 344.206 313.135 342.741C294.56 363.399 274.118 379.6 245.842 383.505V383.498ZM375.863 433.381C360.091 413.048 357.557 390.94 363.176 367.056C362.129 366.773 361.095 366.49 360.119 366.222C350.807 387.474 354.515 422.825 375.863 433.381ZM444.287 502.266C456.989 494.618 466.478 456.019 456.791 442.005C455.828 442.337 454.788 442.705 453.861 443.023C453.861 453.409 455.107 463.653 453.515 473.437C451.908 483.285 447.479 492.68 444.287 502.266ZM216.618 383.031C223.801 375.702 231.853 367.481 241.009 358.142C240.578 360.873 240.443 361.75 240.245 362.967C256.251 353.148 271.846 343.59 287.435 334.032C287.116 333.509 286.805 332.985 286.486 332.462C268.839 341.991 250.866 350.976 233.686 361.276C225.237 366.342 219.053 374.428 216.618 383.038V383.031ZM210.724 399.026C209.436 369.292 227.487 355.157 251.001 344.849C222.824 345.734 198.759 377.173 210.724 399.026ZM199.707 319.416C200.231 320.513 200.804 321.991 201.61 323.328C206.818 332.058 215.67 334.223 224.699 335.78C242.127 338.779 259.371 339.374 275.611 330.559C277.337 329.618 278.958 328.479 280.628 327.425C280.507 326.823 280.394 326.222 280.274 325.621C252.041 338.539 225.032 339.034 199.714 319.409L199.707 319.416ZM476.271 210.736C467.39 207.312 458.609 203.818 449.715 200.613C448.356 200.125 446.502 200.995 444.882 201.235C445.589 203.188 445.759 206.244 447.104 206.902C454.13 210.347 461.397 213.319 468.692 216.184C473.023 217.882 475.259 215.625 476.278 210.729L476.271 210.736ZM388.84 144.455C383.123 145.056 381.205 149.591 383.519 155.088C385.295 159.311 386.965 163.627 389.251 167.567C390.822 170.277 393.369 172.413 395.279 174.578C398.464 170.355 400.692 167.242 403.091 164.271C405.129 161.738 407.875 159.644 409.396 156.864C411.766 152.527 409.679 148.063 405.108 146.52C406.07 153.397 403.622 158.703 398.046 162.742C393.567 165.99 391.437 165.615 388.805 160.854C385.911 155.618 384.8 150.334 388.833 144.462L388.84 144.455ZM463.697 502.386C478.089 500.533 499.43 465.952 493.501 453.854C486.007 471.732 479.405 489.355 463.697 502.386ZM425.748 519.966C426.237 520.002 426.725 520.044 427.22 520.08C427.652 517.604 428.296 515.142 428.48 512.644C429.124 503.985 429.973 495.312 430.058 486.638C430.15 477.045 429.598 467.431 429.032 457.852C428.954 456.536 427.178 455.319 425.756 453.501V519.966H425.748ZM378.608 374.93C378.212 376.161 377.575 377.378 377.469 378.63C377.002 384.106 376.266 389.61 376.408 395.079C376.832 411.556 382.267 426.129 394.112 437.915C395.577 439.373 397.714 440.144 399.539 441.233C382.783 421.92 376.79 399.882 378.601 374.923L378.608 374.93ZM447.762 448.124C445.986 450.996 444.082 452.638 444.238 454.06C445.448 465.598 442.986 476.493 439.313 487.282C437.884 491.484 436.907 495.842 435.492 500.964C445.42 493.005 452.467 463.936 447.769 448.124H447.762ZM553.519 206.088C552.918 206.06 552.316 206.039 551.715 206.011C551.326 207.185 550.979 208.374 550.547 209.534C548.828 214.139 538.596 220.888 535.221 219.672C531.881 218.469 530.013 209.06 531.98 203.372C532.093 203.039 532.291 202.735 532.383 202.396C532.723 201.115 533.034 199.82 533.508 197.931C528.152 199.247 526.687 202.48 527.14 206.753C527.635 211.416 529.298 216.113 528.93 220.669C528.598 224.822 529.616 227.036 533.31 228.458C535.263 226.187 536.905 223.421 539.296 221.737C541.815 219.962 545.169 219.424 547.95 217.96C549.974 216.891 552.493 215.547 553.293 213.687C554.22 211.522 553.512 208.657 553.512 206.096L553.519 206.088ZM488.222 418.821C487.621 418.779 487.026 418.729 486.425 418.687C485.717 421.375 484.953 424.049 484.316 426.752C480.941 440.95 479.391 455.906 467.334 466.999C478.146 464.82 480.608 455.871 483.736 447.898C487.408 438.552 488.937 428.768 488.222 418.821ZM424.008 420.158C431.147 430.148 440.728 429.964 450.507 428.436C460.265 426.914 469.343 423.901 474.566 414.053C459.097 426.214 442.342 427.346 424.008 420.158ZM230.36 344.142C221.161 340.718 211.984 338.404 203.938 334.004C195.249 329.257 191.265 320.442 190.345 308.932C187.282 321.864 192.355 330 200.726 336.579C209.373 343.371 219.159 346.024 230.36 344.142ZM346.646 359.663C334.016 376.225 333.513 398.927 317.04 413.225C326.897 406.384 334.086 397.661 337.844 386.236C340.398 378.461 343.285 370.799 345.974 363.066C346.349 361.984 346.434 360.795 346.646 359.656V359.663ZM451.76 503.292C460.76 502.775 482.13 474.35 481.889 464.488C468.091 474.498 466.343 493.083 451.76 503.292ZM322.524 466.801C322.623 467.353 322.722 467.905 322.822 468.456C326.968 467.48 331.504 467.268 335.197 465.393C345.818 459.988 351.161 450.437 353.376 439.097C353.758 437.144 352.519 434.873 352.031 432.751C346.484 448.556 340.922 463.051 322.531 466.801H322.524ZM303.66 374.874C288.85 380.286 273.608 385.854 259.364 391.053C267.863 395.617 299.372 384.651 303.66 374.874ZM331.299 473.338C341.905 477.293 359.871 461.17 363.232 444.905C362.008 444.099 360.671 443.214 359.185 442.231C355.272 457.83 345.868 467.77 331.299 473.338ZM270.077 317.032C254.22 312.122 235.639 311.67 229.256 290.531C227.501 307.609 250.449 320.527 270.077 317.032ZM448.165 552.517C448.526 552.418 448.88 552.311 449.241 552.212C449.389 550.84 449.418 549.446 449.715 548.109C451.767 538.849 453.911 529.609 455.913 520.334C456.189 519.068 455.835 517.667 455.772 516.33C454.434 517.115 452.382 517.582 451.859 518.735C447.408 528.541 445.137 538.785 446.807 549.609C446.962 550.628 447.705 551.554 448.172 552.517H448.165ZM323.034 396.635C312.116 410.098 298.077 418.39 279.488 421.892C296.435 425.429 312.632 416.402 323.034 396.635ZM487.635 126.04C488.194 126.139 488.746 126.238 489.305 126.337C491.944 123.38 494.866 120.62 497.159 117.416C499.742 113.801 498.496 110.009 495.128 107.9C491.491 105.622 488.427 108.763 487.875 111.664C486.991 116.298 487.635 121.229 487.635 126.04ZM446.955 514.88C443.41 514.448 442.037 515.736 439.716 521.24C435.329 531.675 435.98 550.189 441.556 554.724C438.308 540.412 442.115 527.579 446.948 514.88H446.955ZM466.23 508.803C477.148 508.308 497.102 490.204 499.919 477.71C497.159 479.705 494.958 480.568 493.897 482.181C487.868 491.336 480.941 499.549 471.516 505.407C469.98 506.362 468.466 507.367 466.23 508.803ZM339.521 122.163C339.457 122.516 339.294 122.87 339.358 123.174C339.556 124.087 339.733 125.035 340.101 125.884C343.137 132.874 340.978 138.583 336.004 143.783C334.929 144.907 333.577 147.009 333.98 148.02C334.631 149.655 336.62 150.758 338.127 152.159C348.267 137.309 348.585 127.285 339.514 122.163H339.521ZM372.459 416.097C369.693 401.977 369.24 387.891 371.801 373.721C371.971 372.801 371.122 371.697 370.747 370.679C364.697 386.441 366.332 401.439 372.459 416.097ZM499.19 471.916C512.387 463.724 519.915 438.205 512.719 427.636C513.158 443.823 509.797 458.205 499.19 471.916ZM595.451 243.124C595.847 243.626 596.244 244.128 596.633 244.631C599.874 242.02 604.126 239.997 606.086 236.637C608.379 232.71 605.202 229.456 601.19 228.26C596.888 226.98 596.781 230.849 596.286 233.361C595.656 236.545 595.699 239.863 595.451 243.124ZM591.927 246.017C586.578 243.612 584.866 240.075 587.42 234.91C589.387 230.934 592.571 227.567 595.77 223.174C593.661 223.74 591.347 223.768 589.798 224.871C583.613 229.3 584.186 236.573 582.509 242.968C581.476 246.923 582.7 248.946 586.458 250.375C588.198 248.989 589.989 247.56 591.927 246.017ZM350.503 474.378C360.742 469.885 368.214 461.714 371.808 450.126C372.183 448.923 371.058 447.261 370.91 446.78C363.763 456.444 356.906 465.719 350.503 474.385V474.378ZM428.812 546.814C418.234 537.837 411.979 526.503 409.948 512.581C403.431 520.405 413.068 538.176 428.812 546.814ZM397.537 383.293C393.333 392.511 399.235 416.968 405.922 423.2C403.318 410.82 400.48 397.293 397.537 383.293ZM336.542 403.215C331.49 408.62 334.377 425.705 342.082 430.423C340.278 421.573 338.481 412.723 336.542 403.215ZM398.69 519.782C398.407 521.318 397.338 523.412 397.883 524.926C399.419 529.192 400.961 533.741 403.728 537.193C407.167 541.494 411.837 544.819 416.097 548.668C410.266 538.983 404.726 529.793 398.69 519.775V519.782ZM499.586 457.873C500.173 457.937 500.754 458.007 501.341 458.071C506.874 447.572 506.202 436.345 505.912 425.174C505.353 425.103 504.794 425.04 504.235 424.969C502.685 435.935 501.136 446.907 499.579 457.873H499.586ZM259.286 327.05C259.187 326.427 259.088 325.805 258.989 325.175C248.531 321.39 239.764 328.175 230.091 329.285C230.19 329.95 230.289 330.622 230.395 331.287L259.286 327.05ZM338.375 438.064C336.174 434.18 333.803 430.565 332.006 426.681C330.152 422.684 328.864 418.432 327.265 414.131C321.456 417.385 325.447 421.34 326.536 424.658C328.992 432.136 335.006 438.517 338.375 438.064ZM469.131 517.193C468.756 516.811 468.381 516.429 467.999 516.047C466.308 517.137 463.697 517.865 463.088 519.386C460.442 526.015 458.383 532.878 456.104 539.655C456.833 539.924 457.562 540.193 458.291 540.462C461.907 532.708 465.515 524.947 469.131 517.193ZM476.809 433.876C469.464 437.328 465.834 449.539 469.796 457.165C472.131 449.405 474.474 441.637 476.809 433.876ZM525.102 480.886L527.253 480.618C528.598 468.195 526.326 452.213 521.762 450.154C522.923 460.865 524.012 470.876 525.102 480.886ZM395.173 156.672C396.008 156.68 396.85 156.687 397.685 156.694C398.145 153.192 399.376 149.534 398.704 146.259C398.407 144.787 394.36 143.917 391.883 143.238C391.529 143.139 389.512 146.054 389.873 146.902C391.296 150.305 393.355 153.439 395.173 156.672ZM548.877 205.218C548.615 204.327 548.354 203.443 548.092 202.551C545.445 201.95 542.502 200.372 540.259 201.066C538.695 201.554 537.464 205.105 537.308 207.376C537.216 208.748 540.344 211.649 540.521 211.529C543.45 209.647 546.132 207.383 548.877 205.211V205.218ZM237.768 294.903C239.276 300.378 253.18 308.649 262.372 307.312C261.02 305.84 260.32 304.461 259.223 303.972C251.864 300.732 244.42 297.69 237.768 294.903ZM495.73 421.509C493.472 431.428 491.442 440.356 489.326 449.638C490.019 449.27 490.55 449.164 490.748 448.853C495.694 441.113 497.683 432.518 497.831 423.462C497.845 422.769 496.331 422.047 495.723 421.517L495.73 421.509ZM329.204 137.67C331.008 136.093 333.322 134.996 334.101 133.227C336.86 126.903 333.959 123.217 327.987 126.358C322.779 129.096 327.003 133.871 329.204 137.67ZM475.599 422.79C466.173 430.409 456.536 434.102 444.818 433.119C452.913 438.934 470.766 433.161 475.599 422.79ZM468.211 531.406C468.813 531.838 469.414 532.269 470.016 532.694C474.445 525.81 478.875 518.926 483.304 512.043C482.667 511.633 482.031 511.222 481.394 510.805C474.077 515.743 472.726 524.614 468.211 531.399V531.406ZM510.122 471.873C504.964 480.66 499.975 489.164 495.015 497.604C502.169 494.335 511.162 479.273 510.122 471.873ZM423.654 411.541C421.885 405.203 420.215 398.998 418.347 392.857C418.142 392.178 416.804 391.839 415.736 391.181C414.653 401.17 417.838 409.171 423.654 411.541ZM407.139 389.483C404.556 397.47 409.283 416.055 414.335 419.161C411.986 409.469 409.665 399.904 407.139 389.483ZM305.309 161.526C301.063 165.884 301.799 181.511 305.309 186.343V161.526ZM427.878 395.907C427.114 396.218 426.343 396.536 425.579 396.847C427.687 402.811 429.661 408.825 432.053 414.668C432.428 415.588 434.7 415.744 437.042 416.593C433.596 408.811 430.744 402.359 427.885 395.907H427.878ZM419.288 500.547C414.745 505.237 417.356 523.829 422.883 528.59C421.751 519.754 420.491 509.935 419.288 500.547ZM523.057 270.099C526.616 277.471 529.949 284.369 533.317 291.337C535.518 284.793 529.369 271.337 523.057 270.099ZM393.786 130.893C396.079 133.022 397.954 135.916 399.207 135.668C401.124 135.286 402.603 132.732 404.273 131.105C402.454 129.513 400.841 127.405 398.725 126.598C397.905 126.287 395.959 128.926 393.786 130.893ZM203.061 387.212C204.405 381.694 205.233 375.864 207.299 370.509C209.302 365.309 212.564 360.597 215.366 355.511C206.549 361.439 200.846 376.374 203.068 387.212H203.061ZM384.092 176.092C385.592 183.903 391.395 182.785 395.159 184.483C396.001 184.865 397.593 183.57 398.846 183.039C398.768 182.431 398.683 181.823 398.605 181.214C394.225 179.665 389.838 178.116 384.099 176.092H384.092ZM543.691 187.652C546.627 189.739 548.396 191.932 549.649 191.67C551.517 191.281 553.017 189.166 554.68 187.779C553.179 186.294 551.8 183.832 550.137 183.613C548.594 183.414 546.733 185.622 543.698 187.652H543.691ZM611.167 224.737C613.389 221.815 615.427 220.181 615.759 218.257C615.936 217.245 612.893 214.465 611.747 214.691C609.907 215.059 607.629 217.005 607.077 218.766C606.723 219.905 609.122 221.9 611.16 224.73L611.167 224.737ZM435.16 452.715C435.648 462.507 436.058 470.727 436.469 478.948C437.112 478.948 437.756 478.948 438.4 478.948C438.4 471.307 438.485 463.667 438.287 456.033C438.266 455.149 436.716 454.307 435.16 452.708V452.715ZM647.099 251.118C645.563 254.323 643.9 256.169 644.268 257.4C644.792 259.127 646.823 260.4 648.21 261.864C649.54 260.485 652.13 258.879 651.924 257.782C651.578 255.865 649.512 254.252 647.092 251.125L647.099 251.118ZM338.07 110.447C335.516 108.403 333.973 106.21 332.565 106.294C331.051 106.386 329.664 108.622 328.228 109.924C329.699 111.332 330.987 113.369 332.728 113.9C333.768 114.218 335.53 112.18 338.077 110.447H338.07ZM520.113 234.267C524.557 236.587 528.017 238.391 532.213 240.584C532.511 238.731 533.169 236.849 532.787 236.601C529.97 234.804 527.02 233.177 523.942 231.911C523.291 231.642 521.939 233.099 520.113 234.274V234.267ZM281.434 115.675C278.837 113.694 277.09 111.473 276.049 111.763C274.337 112.244 272.618 114.154 271.875 115.88C271.563 116.602 274.004 119.623 274.755 119.467C276.729 119.064 278.455 117.486 281.434 115.675ZM465.254 411.803C464.772 410.975 464.291 410.148 463.81 409.32C458.942 412.277 454.066 415.241 449.198 418.199C449.587 418.871 449.977 419.543 450.366 420.215C455.333 417.413 460.293 414.605 465.261 411.803H465.254ZM389.244 546.659C387.835 540.476 386.555 534.83 385.132 528.583C381.495 533.288 383.647 541.7 389.244 546.659ZM584.505 261.624C585.934 255.476 580.974 255.971 578.448 254.401C577.768 253.976 576.346 254.762 575.264 254.995C576.792 256.834 578.136 258.9 579.934 260.428C580.917 261.263 582.679 261.192 584.505 261.624ZM444.012 441.898C438.591 438.665 434.282 436.097 429.831 433.437C429.838 438.722 435.039 442.04 444.012 441.898ZM341.353 158.979C337.561 158.208 333.775 157.429 329.289 156.517C330.655 161.681 336.436 163.011 341.353 158.979Z" fill="black"/>
<path d="M403.99 472.467C403.551 473.031 402.856 474.77 401.723 475.134C400.66 475.469 398.748 474.713 397.89 473.801C393.824 469.48 388.001 469.594 384.693 474.485C384.211 475.198 384.466 477.051 385.082 477.771C392.684 486.761 391.217 503.186 375.483 504.983C373.762 505.182 371.835 503.607 370 502.851C371.311 501.468 372.387 499.372 373.981 498.837C379.805 496.898 382.943 493.519 381.165 489.634C380.548 488.287 378.168 487.595 376.461 486.953C374.952 486.39 372.649 486.832 371.842 485.863C371.112 484.986 371.509 482.598 372.154 481.229C375.483 474.164 378.799 467.149 386.478 463.435C394.49 459.564 404.195 463.841 403.997 472.467H403.99Z" fill="black"/>
<path d="M445 241.107C443.331 244.041 442.211 247.499 439.901 249.82C431.676 258.107 422.704 265.642 410.323 266.924C407.048 267.261 403.119 266.462 400.26 264.857C392.309 260.401 387.21 253.45 385.161 244.661C384.696 242.656 385.372 240.39 385.527 238.248C386.083 238.165 386.64 238.083 387.196 238C388.013 240.094 388.964 242.154 389.611 244.296C392.957 255.269 401.717 263.101 411.492 261.572C417.513 260.628 423.401 257.087 428.633 253.664C434.232 249.999 438.986 245.109 444.106 240.748C444.401 240.872 444.697 240.989 445 241.113V241.107Z" fill="black"/>
<path d="M456.601 256C457.156 260.612 457.571 265.252 458.295 269.842C461.249 288.539 476.431 295.095 491.642 284.342C493.224 283.226 494.989 282.368 497 281.196C495.671 287.652 485.784 294.23 477.085 294.952C468.534 295.66 459.364 288.467 455.37 277.657C452.698 270.428 451.313 263.114 456.601 256Z" fill="black"/>
<path d="M337.517 220C338.722 223.626 339.742 226.498 340.64 229.406C343.721 239.401 350.966 242.537 360.166 237.375C364.722 234.823 368.809 231.446 374 227.82C371.219 236.202 366.698 241.392 359.196 243.667C352.371 245.736 345.746 246.027 340.676 239.878C335.998 234.212 334.615 227.834 337.51 220H337.517Z" fill="black"/>
<path d="M511.65 296C512.552 298.854 513.446 301.702 514.348 304.556C517.096 313.238 523.972 316.127 532.058 311.804C537.331 308.977 542.426 305.829 547.771 302.73C547.871 303.325 548.093 303.758 547.957 303.947C543.442 310.187 531.721 320.394 521.675 318.841C514.477 317.729 511.858 312.16 509.74 306.69C508.53 303.562 509.21 299.736 509.038 296.224L511.65 296Z" fill="black"/>
<path d="M428 273.924C429.507 268.051 434.714 262.679 439.168 263.015C443.768 263.364 444.941 266.722 444.999 270.333C445.086 276.301 440.016 282.092 435.004 280.824C432.215 280.118 430.303 276.322 428 273.924Z" fill="black"/>
<path d="M492 302.519C492.07 296.26 495.996 291.33 499.454 292.074C501.284 292.471 503.68 295.078 503.946 296.956C504.588 301.483 499.384 307.88 496.017 306.899C493.963 306.301 492.629 303.256 492.007 302.519H492Z" fill="black"/>
<path d="M382 246.321C378.184 249.97 375.555 252.488 372.926 255C371.154 252.606 367.616 249.873 368.034 247.902C368.656 244.981 372.099 242.609 374.332 240C376.493 241.776 378.646 243.559 381.993 246.314L382 246.321Z" fill="black"/>
<path d="M537 324.505C536.952 320.133 542.616 314.426 546.367 315.047C547.457 315.229 549.274 317.893 548.965 318.426C546.97 321.928 545.125 326.07 541.971 328.229C538.625 330.522 537.151 327.23 537 324.498V324.505Z" fill="black"/>
<path d="M325.206 237C321.356 232.717 320.913 227.346 324.207 223.099C324.837 222.288 326.796 221.712 327.561 222.153C329.164 223.085 331.116 224.515 331.606 226.179C333.041 231.081 330.479 235.093 325.206 237Z" fill="black"/>
<path d="M301.252 219.494C304.707 220.947 308.234 223.71 311.471 223.432C315.032 223.126 318.34 220.017 322 218C319.257 225.197 311.591 230.317 306.033 228.701C300.561 227.112 300.709 222.936 301.252 219.487V219.494Z" fill="black"/>
<path d="M535.647 342C533.402 339.746 531.704 338.044 530 336.343C531.136 335.172 532.965 332.8 533.291 333.014C535.376 334.384 537.136 336.328 539 338.081C538.12 339.105 537.247 340.129 535.647 342Z" fill="black"/>
<path d="M425 326.436C424.937 332.554 421.953 334.665 417.467 334.987C413.62 335.267 408.993 330.83 409 327.087C409 322.929 412.925 319.065 417.2 319.001C421.209 318.943 424.986 323.051 425 326.429V326.436Z" fill="black"/>
<path d="M483.073 346C485.478 350.541 488.179 353.402 487.991 356.033C487.856 357.921 483.987 360.682 481.569 360.96C477.511 361.432 475.375 357.592 476.161 353.888C476.672 351.485 479.695 349.683 483.067 346H483.073Z" fill="black"/>
<path d="M334 285.211C330.058 287.701 327.676 290.404 326.036 289.95C323.734 289.313 321.988 286.31 320 284.325C321.901 282.062 323.982 277.83 325.662 278.005C328.091 278.262 330.232 281.726 334 285.211Z" fill="black"/>
<path d="M351.577 304.732C350.343 302.57 348.33 300.492 348.056 298.224C347.638 294.77 349.557 291.986 353.626 292C357.796 292.014 360.625 294.6 359.881 298.373C359.398 300.839 356.281 302.81 354.348 305C353.424 304.915 352.501 304.823 351.577 304.739V304.732Z" fill="black"/>
<path d="M519 369.146C514.873 371.113 512.251 373.471 510.45 372.918C508.448 372.302 505.98 369.027 506 366.934C506.02 365.157 509.796 361.65 511.01 362.028C513.478 362.791 515.332 365.668 519 369.146Z" fill="black"/>
<path d="M457.796 343.766C455.697 344.936 453.246 347.404 451.589 346.943C449.398 346.333 447.833 343.433 446 341.511C447.791 339.893 449.728 336.837 451.329 337.007C453.682 337.262 455.788 339.823 458 341.404C457.93 342.191 457.867 342.979 457.796 343.759V343.766Z" fill="black"/>
<path d="M310 272.089C306.559 274.554 304.565 277.098 302.723 276.997C300.952 276.896 297.943 273.997 298.001 272.421C298.066 270.441 300.7 267 302.233 267C304.35 267 306.473 269.61 310 272.096V272.089Z" fill="black"/>
<path d="M383.38 318C380.81 314.583 378.859 312.702 378.014 310.447C377.752 309.756 381.196 306.747 381.764 307.017C384.152 308.158 386.373 309.936 387.967 311.969C388.317 312.419 385.812 314.874 383.388 318H383.38Z" fill="black"/>
<path d="M485.993 156.81C483.138 161.836 480.844 166.171 478.181 170.261C477.713 170.981 475.426 171.24 474.475 170.743C469.752 168.295 468.225 153.735 472.557 150.948C474.716 149.559 478.323 148.414 480.291 149.328C482.613 150.408 483.877 153.836 486 156.803L485.993 156.81Z" fill="black"/>
</svg>
