<svg width="800" height="800" viewBox="0 0 800 800" fill="none" xmlns="http://www.w3.org/2000/svg">
<path d="M179.016 171.216C189.665 167.413 200.153 168.251 211.189 170.394C259.159 179.714 305.533 174.196 350.104 153.848C371.015 144.303 390.88 133.009 409.786 119.975C417.656 114.554 420.048 114.739 427.822 120.153C458.94 141.797 492.031 159.294 529.142 168.404C553.066 174.277 577.329 176.137 601.777 173.825C615.068 172.569 628.174 169.468 641.458 168.058C646.71 167.502 652.212 169.266 657.585 170.039C658.849 170.225 660.074 170.668 661.008 170.909C643.939 196.131 637.946 224.3 637.631 253.952C637.301 285.223 637.768 316.502 637.358 347.765C636.745 394.26 630.414 439.862 614.722 483.892C591.668 548.609 551.206 599.946 494.552 638.321C471.393 654.013 446.969 667.836 423.134 682.529C420.548 684.124 418.123 684.454 415.272 682.875C379.2 662.882 344.449 640.883 312.735 614.397C269.937 578.647 240.76 533.65 222.926 481.049C212.857 451.34 206.034 420.835 204.616 389.556C202.949 352.848 203.094 316.059 202.385 279.31C202.103 264.698 202.151 250.045 201.104 235.473C199.662 215.488 193.717 196.606 184.542 178.804C183.116 176.041 180.853 173.713 179 171.199L179.016 171.216ZM209.586 195.237C211.391 203.139 213.856 210.743 214.734 218.517C216.361 232.871 217.706 247.322 218.02 261.758C218.898 301.865 218.584 342.005 219.913 382.097C220.807 409.05 225.777 435.584 233.438 461.506C248.292 511.739 272.418 556.567 310.729 593.026C341.863 622.654 378.41 644.177 416.456 663.414C417.914 664.155 420.459 663.881 422.022 663.116C443.224 652.748 463.789 641.245 483.339 627.986C523.286 600.888 555.974 567.112 579.125 524.451C607.956 471.334 620.167 414.044 621.521 354.185C622.238 322.39 621.617 290.556 621.746 258.745C621.827 239.517 623.704 220.482 628.98 201.898C629.616 199.667 630.172 197.403 630.857 194.826C623.857 195.696 617.517 196.55 611.162 197.258C576.725 201.085 542.925 197.774 509.785 187.793C478.361 178.328 449.611 163.273 422.344 145.245C419.766 143.545 418.026 143.433 415.328 145.213C388.689 162.725 360.552 177.265 330.135 187.077C300.732 196.558 270.589 200.465 239.729 198.096C229.741 197.331 219.776 196.219 209.578 195.237H209.586ZM526.347 607.598C526.999 607.679 527.313 607.824 527.458 607.727C528.119 607.276 528.747 606.776 529.359 606.253C562.596 577.681 587.366 542.97 604.75 502.814C625.395 455.118 633.878 404.901 635.175 353.379C636.053 318.5 635.046 283.572 635.626 248.676C636.069 222.335 641.973 197.186 655.925 174.381C656.263 173.834 656.392 173.157 657.005 171.465C650.439 171.216 644.293 170.297 638.308 170.909C628.472 171.924 618.798 174.365 608.962 175.437C578.11 178.804 547.661 176.524 517.832 167.639C484.757 157.787 454.727 141.805 426.597 122.03C419.388 116.963 417.898 117.003 410.857 121.957C395.141 133.001 378.531 142.49 361.357 151.085C310.52 176.54 257.419 183.105 201.95 170.772C195.667 169.379 189.657 170.579 183.632 172.392C198.107 197.186 204.109 223.825 204.423 251.882C204.664 273.092 204.254 294.301 204.624 315.511C205.051 340.185 205.494 364.874 206.88 389.507C208.338 415.381 213.3 440.772 220.63 465.639C232.85 507.116 251.401 545.274 280.038 578.091C282.068 580.419 284.171 582.675 286.297 584.914C288.319 587.041 290.414 589.103 292.484 591.189C292.895 590.44 292.887 590.158 292.75 589.981C292.17 589.248 291.565 588.523 290.937 587.822C268.503 562.826 251.401 534.496 238.199 503.716C218.64 458.131 210.134 410.194 208.958 360.919C208.12 325.766 208.587 290.588 208.539 255.418C208.515 238.301 206.477 221.449 201.901 204.967C199.775 197.307 196.955 189.84 194.611 182.783C209.2 184.66 223.86 187.012 238.618 188.349C268.906 191.088 298.533 187.294 327.444 177.893C358.659 167.744 387.319 152.511 414.385 134.137C417.35 132.123 419.331 132.091 422.465 134.016C436.513 142.619 450.473 151.456 465.046 159.092C516.696 186.174 571.336 195.478 629.012 185.151C634.562 184.16 640.113 183.129 645.743 182.106C645.743 182.92 645.816 183.21 645.735 183.452C645.179 185.103 644.656 186.762 644.011 188.381C634.828 211.339 631.155 235.207 631.236 259.889C631.348 295.187 631.203 330.494 630.535 365.784C629.963 395.766 625.339 425.281 617.549 454.24C602.526 510.104 575.944 559.419 534.233 600.066C531.695 602.539 529.11 604.972 526.363 607.598H526.347Z" fill="black"/>
<path d="M243.483 227.49C255.542 226.781 266.932 226.338 278.282 225.388C302.456 223.358 325.688 217.171 348.388 208.842C371.603 200.319 393.562 189.227 414.506 176.129C417.761 174.091 420.121 174.325 423.23 176.266C454.082 195.543 486.827 210.542 522.263 219.274C545.027 224.88 568.146 227.418 591.587 227.071C593.037 227.047 594.495 227.071 596.348 227.071C596.436 228.811 596.573 230.229 596.573 231.655C596.589 271.255 597.169 310.855 596.444 350.439C595.486 402.847 585.65 453.459 561.847 500.671C534.434 555.037 492.619 595.209 439.373 623.95C433.718 627.003 427.975 629.919 422.102 632.505C420.411 633.254 417.801 633.319 416.142 632.545C329.402 592.373 274.126 526.384 252.787 432.732C244.812 397.74 243.088 362.184 243.306 326.442C243.491 294.897 243.443 263.361 243.491 231.816C243.491 230.366 243.491 228.916 243.491 227.482L243.483 227.49ZM249.46 232.573C249.46 234.087 249.46 235.263 249.46 236.432C249.468 265.286 249.46 294.148 249.5 323.002C249.549 354.112 249.396 385.198 255.051 416.018C261.342 450.293 272.273 482.812 289.656 513.076C318.011 562.456 359.166 597.851 409.52 623.411C416.472 626.939 421.812 627.019 428.772 623.403C466.52 603.796 499.837 578.679 526.331 545.25C568.509 492.052 587.592 430.332 589.944 363.36C591.418 321.399 590.322 279.35 590.363 237.35C590.363 235.908 590.234 234.474 590.137 232.541C588.035 232.541 586.19 232.557 584.353 232.541C567.01 232.404 549.836 230.656 532.823 227.297C493.86 219.604 458.054 204.049 424.31 183.492C420.137 180.946 417.165 181.099 413.081 183.572C384.548 200.867 354.333 214.384 322.071 223.156C298.517 229.56 274.512 232.404 249.468 232.565L249.46 232.573Z" fill="black"/>
<path d="M481.833 619.48C481.76 623.548 478.707 626.512 474.639 626.48C470.628 626.448 467.607 623.323 467.655 619.271C467.704 615.404 471.023 612.126 474.873 612.142C478.675 612.158 481.905 615.565 481.833 619.472V619.48ZM480.173 619.295C480.157 616.58 477.499 613.817 474.841 613.753C472.013 613.68 469.25 616.516 469.291 619.448C469.331 622.412 471.691 624.829 474.583 624.877C477.644 624.926 480.198 622.38 480.173 619.295Z" fill="black"/>
<path d="M417.543 654.085C413.403 654.069 410.511 651.169 410.527 647.053C410.543 642.985 413.532 640.085 417.664 640.125C421.643 640.166 424.93 643.372 424.89 647.158C424.841 650.968 421.531 654.093 417.551 654.077L417.543 654.085ZM417.64 652.434C420.693 652.434 422.9 650.275 422.98 647.206C423.061 644.064 420.653 641.632 417.511 641.68C414.547 641.72 412.202 644.024 412.138 646.948C412.065 650.138 414.377 652.434 417.64 652.434Z" fill="black"/>
<path d="M605.877 437.582C605.934 441.69 602.913 444.904 598.974 444.936C595.091 444.969 591.78 441.722 591.716 437.832C591.651 433.707 594.527 430.759 598.7 430.678C602.921 430.598 605.829 433.393 605.885 437.582H605.877ZM593.432 437.751C593.448 440.788 596.138 443.446 599.078 443.325C601.825 443.221 604.266 440.546 604.266 437.654C604.266 434.601 602.019 432.306 598.998 432.265C595.703 432.217 593.408 434.481 593.424 437.751H593.432Z" fill="black"/>
<path d="M236.008 376.192C235.975 380.308 233.051 383.192 228.919 383.176C225.06 383.16 221.589 379.841 221.589 376.168C221.589 372.511 225.447 368.797 229.217 368.821C233.067 368.846 236.04 372.076 236.008 376.192ZM234.308 376.015C234.308 373.042 232.012 370.577 229.177 370.473C226.293 370.368 223.433 373.075 223.393 375.934C223.345 379.06 225.777 381.565 228.863 381.573C232.036 381.581 234.316 379.253 234.308 376.007V376.015Z" fill="black"/>
<path d="M262.389 490.828C262.284 494.864 259.231 497.82 255.171 497.796C251.184 497.772 247.97 494.638 247.97 490.771C247.97 486.849 251.49 483.481 255.526 483.546C259.537 483.61 262.494 486.744 262.389 490.828ZM260.778 490.49C260.73 487.565 258.289 485.197 255.308 485.205C252.296 485.205 249.613 487.936 249.718 490.884C249.823 493.776 252.336 496.169 255.244 496.161C258.337 496.152 260.826 493.607 260.778 490.49Z" fill="black"/>
<path d="M505.636 205.314C501.472 205.33 498.491 202.494 498.403 198.434C498.314 194.189 501.375 191.128 505.677 191.168C509.6 191.209 512.927 194.503 512.862 198.273C512.79 202.204 509.616 205.297 505.636 205.314ZM511.187 197.975C511.066 194.89 508.496 192.642 505.234 192.908C501.987 193.174 500.07 194.906 500.038 198.273C500.014 201.415 502.511 203.702 505.709 203.638C508.746 203.574 511.307 200.931 511.187 197.967V197.975Z" fill="black"/>
<path d="M555.563 532.917C559.494 532.933 562.733 536.115 562.749 539.957C562.757 543.655 559.317 547.175 555.628 547.231C551.673 547.296 548.265 543.84 548.33 539.82C548.394 535.922 551.56 532.901 555.563 532.917ZM555.596 545.395C558.504 545.338 561.017 542.882 561.073 540.03C561.138 537.041 558.439 534.464 555.386 534.568C552.188 534.689 549.804 537.203 549.965 540.288C550.118 543.188 552.615 545.451 555.596 545.395Z" fill="black"/>
<path d="M229.088 273.253C225.068 273.043 221.967 269.733 222.168 265.866C222.378 261.927 226.019 258.842 230.135 259.116C233.792 259.357 236.749 262.724 236.588 266.478C236.418 270.441 233.067 273.462 229.08 273.261L229.088 273.253ZM229.362 260.702C226.373 260.727 223.731 263.361 223.788 266.261C223.844 269.306 226.438 271.738 229.571 271.529C232.842 271.311 234.678 269.41 234.936 266.204C235.17 263.296 232.391 260.67 229.362 260.694V260.702Z" fill="black"/>
<path d="M332.624 205.242C328.531 205.282 325.325 202.302 325.237 198.387C325.14 194.44 328.652 190.831 332.567 190.839C336.361 190.847 339.68 194.222 339.72 198.105C339.761 202.044 336.619 205.202 332.624 205.242ZM332.164 203.607C335.242 203.727 337.956 201.287 338.045 198.306C338.125 195.447 335.314 192.442 332.543 192.434C329.788 192.426 326.896 195.35 326.864 198.177C326.832 201.029 329.232 203.486 332.164 203.607Z" fill="black"/>
<path d="M581.776 483.795C585.948 483.811 588.751 486.647 588.719 490.827C588.687 494.927 585.674 498.005 581.727 497.972C577.836 497.94 574.437 494.734 574.348 491.005C574.252 487.017 577.579 483.779 581.776 483.795ZM587.076 490.827C587.092 487.517 584.804 485.293 581.477 485.374C578.602 485.438 576.04 487.952 576.008 490.731C575.976 493.623 578.811 496.361 581.784 496.305C584.675 496.257 587.068 493.776 587.076 490.827Z" fill="black"/>
<path d="M236.024 322.414C236 326.571 233.011 329.608 229.008 329.568C224.98 329.527 221.935 326.418 221.967 322.382C221.991 318.371 225.052 315.326 229.112 315.269C233.22 315.213 236.056 318.137 236.032 322.414H236.024ZM234.421 322.269C234.372 319.225 232.109 316.953 229.112 316.929C225.914 316.905 223.562 319.273 223.578 322.503C223.594 325.54 225.818 327.755 228.903 327.787C232.165 327.82 234.469 325.516 234.421 322.278V322.269Z" fill="black"/>
<path d="M319.864 593.533C315.86 593.566 312.55 590.488 312.429 586.654C312.316 582.949 315.667 579.686 319.679 579.582C323.956 579.469 326.783 582.167 326.856 586.437C326.92 590.537 323.996 593.509 319.864 593.541V593.533ZM319.92 581.136C316.819 581.072 314.104 583.617 314.12 586.582C314.128 589.272 316.779 591.858 319.606 591.947C322.844 592.043 325.229 589.731 325.245 586.485C325.261 583.44 323.038 581.209 319.92 581.144V581.136Z" fill="black"/>
<path d="M238.239 444.501C234.332 444.469 231.078 441.223 231.142 437.405C231.199 433.635 234.566 430.219 238.295 430.147C242.251 430.066 245.626 433.578 245.497 437.63C245.376 441.585 242.259 444.542 238.239 444.51V444.501ZM243.902 437.485C243.926 434.545 241.171 431.685 238.368 431.742C235.516 431.798 232.713 434.698 232.777 437.534C232.842 440.409 235.283 442.818 238.191 442.874C241.405 442.931 243.878 440.603 243.91 437.493L243.902 437.485Z" fill="black"/>
<path d="M610.284 259.969C614.351 260.033 617.268 263.126 617.179 267.283C617.098 271.053 613.965 274.219 610.251 274.275C606.24 274.34 602.671 270.787 602.808 266.864C602.945 263.006 606.304 259.904 610.284 259.969ZM609.994 261.548C607.013 261.628 604.371 264.327 604.419 267.227C604.468 270.086 607.4 272.849 610.219 272.68C613.256 272.503 615.592 269.837 615.431 266.719C615.27 263.658 612.966 261.459 609.994 261.54V261.548Z" fill="black"/>
<path d="M361.107 626.584C356.967 626.528 354.091 623.572 354.147 619.447C354.204 615.492 357.418 612.351 361.349 612.399C365.393 612.447 368.309 615.492 368.293 619.657C368.277 623.733 365.256 626.641 361.107 626.584ZM361.148 624.973C364.362 624.973 366.738 622.581 366.682 619.391C366.625 616.37 364.297 614.075 361.284 614.075C358.078 614.075 355.71 616.491 355.807 619.681C355.895 622.798 358.095 624.973 361.148 624.973Z" fill="black"/>
<path d="M459.673 185.602C455.75 185.498 452.503 182.259 452.519 178.465C452.536 174.414 455.87 171.224 459.995 171.296C463.902 171.369 466.995 174.607 466.931 178.562C466.866 182.396 463.459 185.699 459.673 185.602ZM454.114 178.457C454.171 181.422 456.95 184.12 459.834 184.016C462.621 183.919 465.4 180.922 465.311 178.111C465.223 175.332 462.629 172.891 459.753 172.899C456.757 172.899 454.058 175.565 454.114 178.457Z" fill="black"/>
<path d="M610.469 316.236C614.545 316.236 617.614 319.201 617.622 323.156C617.622 327.175 614.617 330.237 610.606 330.285C606.465 330.341 603.106 327.087 603.171 323.083C603.227 319.225 606.417 316.236 610.461 316.236H610.469ZM610.501 328.609C613.57 328.521 616.341 325.806 615.954 322.914C615.544 319.797 613.699 317.791 610.404 317.654C607.376 317.525 604.757 320.216 604.782 323.22C604.806 326.378 607.271 328.698 610.501 328.601V328.609Z" fill="black"/>
<path d="M523.149 586.276C523.262 590.126 520.039 593.413 516.092 593.477C512.29 593.542 508.995 590.601 508.802 586.977C508.585 582.876 511.758 579.413 515.851 579.284C519.766 579.163 523.028 582.288 523.149 586.268V586.276ZM521.53 586.219C521.433 583.376 518.879 580.911 516.004 580.895C512.999 580.871 510.405 583.577 510.518 586.606C510.631 589.562 513.015 591.858 515.971 591.85C519.049 591.842 521.626 589.232 521.53 586.227V586.219Z" fill="black"/>
<path d="M378.45 185.892C374.431 185.892 371.217 182.855 371.128 178.964C371.04 174.88 374.399 171.537 378.499 171.626C382.454 171.714 385.596 174.904 385.628 178.843C385.652 182.702 382.422 185.884 378.459 185.892H378.45ZM378.402 184.24C381.375 184.168 384.057 181.453 383.976 178.586C383.896 175.71 380.988 173.052 378.088 173.197C375.212 173.342 372.626 176.258 372.796 179.166C372.965 182.041 375.47 184.313 378.402 184.24Z" fill="black"/>
<path d="M610.187 369.489C614.343 369.514 617.195 372.422 617.147 376.602C617.098 380.533 614.247 383.441 610.364 383.514C606.143 383.594 602.76 380.388 602.824 376.369C602.889 372.486 606.119 369.465 610.187 369.489ZM610.203 381.943C613.183 381.887 615.6 379.47 615.608 376.554C615.608 373.348 613.175 370.98 609.961 371.06C606.683 371.149 604.435 373.557 604.596 376.804C604.741 379.72 607.231 381.999 610.211 381.943H610.203Z" fill="black"/>
<path d="M274.988 539.942C275.173 536.18 278.685 532.982 282.503 533.086C286.442 533.199 289.415 536.446 289.278 540.489C289.141 544.436 285.822 547.514 281.883 547.328C278 547.151 274.794 543.711 274.98 539.934L274.988 539.942ZM276.728 539.934C276.607 543.043 279.048 545.653 282.092 545.685C284.92 545.717 287.449 543.276 287.546 540.425C287.659 537.235 285.323 534.746 282.189 534.706C279.281 534.665 276.84 537.001 276.728 539.934Z" fill="black"/>
<path d="M482.865 404.77C483.953 409.543 485.688 413.987 485.827 418.481C486.061 425.889 483.16 432.465 477.889 437.808C472.695 443.072 465.699 443.368 460.138 438.489C453.086 432.304 451.546 424.488 453.761 415.673C454.035 414.595 454.548 413.552 454.659 412.463C454.721 411.877 454.163 411.229 453.884 410.615C453.226 410.944 452.115 411.151 451.982 411.626C451.357 413.892 449.856 414.227 447.792 414.277C442.336 414.411 438.699 417.778 435.82 421.909C434.32 424.069 432.635 425.487 430.192 426.47C427.642 427.497 425.355 429.177 422.945 430.567C420.981 431.701 419.018 432.834 416.379 434.352C418.437 428.44 423.123 424.002 420.468 417.923C417.601 429.055 413.194 438.623 399.47 440.527C406.137 435.402 410.36 429.507 410.666 421.518C410.376 421.356 410.086 421.194 409.796 421.032C409.417 421.724 408.859 422.378 408.686 423.115C407.13 429.825 403.13 435.207 398.36 439.695C395.013 442.849 390.076 442.894 385.295 442.163C388.185 439.617 390.94 437.339 393.518 434.877C396.195 432.326 398.042 429.222 398.65 425.504C398.784 424.689 398.801 423.818 398.65 423.02C398.566 422.59 397.997 422.26 397.646 421.886C397.311 422.249 396.72 422.59 396.681 422.981C395.816 431.315 389.691 435.994 384.118 441.007C383.337 441.705 381.981 441.755 380.888 442.107C380.737 441.861 380.581 441.621 380.43 441.375C381.691 438.618 383.253 435.955 384.14 433.08C385.105 429.948 385.663 426.637 385.942 423.366C386.048 422.11 384.91 420.742 384.174 419.056C383.264 423.807 382.835 427.916 381.641 431.79C380.324 436.038 377.909 439.589 373.15 441.001C371.371 441.526 369.859 442.955 368.224 443.971C368.414 444.34 368.604 444.708 368.799 445.071C371.175 444.239 373.546 443.407 376.001 442.548C377.535 444.652 377.284 446.221 375.053 447.366C367.957 451.017 360.782 454.528 353.776 458.341C346.451 462.327 339.277 466.581 332.058 470.751C328.164 473.001 323.841 472.683 319.623 472.767C319.155 472.778 318.134 470.768 318.262 469.819C318.625 467.162 321.001 466.079 325.408 466.123C324.287 464.108 320.282 463.533 317.732 465.057C315.54 466.369 314.101 468.144 313.978 470.857C313.917 472.208 313.9 473.783 311.707 473.481C309.788 473.219 308.622 472.141 309.08 470.321C309.599 468.25 310.687 466.319 311.122 463.912C310.023 465.548 308.873 467.15 307.853 468.831C307.479 469.439 307.629 470.539 307.155 470.88C306.385 471.438 305.298 471.555 304.344 471.857C304.126 471.086 303.485 470.087 303.758 469.573C305.136 466.966 306.715 464.465 308.299 461.975C308.885 461.054 309.677 460.267 310.38 459.424C310.173 459.15 309.961 458.877 309.755 458.603C308.483 459.458 307.06 460.15 305.973 461.199C304.717 462.411 303.669 463.873 302.687 465.33C301.75 466.721 301.008 468.25 300.182 469.713C299.909 469.64 299.641 469.573 299.368 469.501C299.245 468.842 298.949 468.161 299.016 467.524C300.037 458.174 307.245 452.529 316.248 454.88C328.086 457.967 336.711 452.362 345.095 445.495C346.462 444.379 347.701 443.112 349.017 441.928C353.402 437.992 356.247 433.342 356.643 427.246C356.877 423.667 357.753 420.128 358.35 416.544C356.359 417.845 355.751 419.263 354.624 424.923C354.004 428.038 353.335 431.142 352.61 434.643C339.701 423.952 336.878 410.984 340.599 396.028C341.263 393.348 341.704 390.612 342.334 387.464C347.807 386.822 352.61 384.181 354.891 378.32C355.472 376.835 355.226 375.031 355.36 373.368C355.014 373.29 354.668 373.206 354.322 373.128C353.776 374.294 353.084 375.411 352.71 376.634C351.483 380.636 348.794 382.998 344.889 384.259C341.726 385.281 338.607 386.448 335.517 387.682C332.867 388.737 330.351 388.552 328.153 386.861C327.344 386.241 326.686 384.846 326.759 383.863C326.803 383.232 328.226 382.434 329.163 382.177C331.294 381.591 333.548 381.446 335.656 380.809C336.716 380.486 337.57 379.475 338.518 378.777C337.648 377.678 336.778 376.578 335.629 375.126C333.698 379.486 330.485 380.19 327.227 380.033C322.463 379.804 322.714 375.07 320.522 372.134C321.755 372.452 322.748 373.05 323.456 372.809C324.566 372.43 325.475 371.486 326.474 370.777C325.481 370.364 324.516 369.806 323.478 369.588C322.508 369.382 321.464 369.544 319.679 369.544C320.516 368.427 320.934 367.64 321.559 367.076C324.566 364.357 327.601 361.672 330.669 359.026C334.942 355.341 340.158 353.728 345.475 352.316C349.397 351.272 353.235 349.926 357.173 348.955C358.306 348.676 360.392 348.843 360.738 349.496C361.658 351.221 359.912 351.556 358.629 352.21C356.241 353.427 353.965 354.895 351.751 356.419C351.232 356.776 351.148 357.759 350.869 358.451C351.634 358.434 352.61 358.713 353.117 358.339C355.053 356.927 356.838 355.302 358.852 353.616C360.091 356.731 359.22 359.361 357.764 362.035C357.123 363.218 355.098 364.888 357.162 366.004C359.059 367.026 360.241 364.854 360.721 363.38C361.653 360.511 362.132 357.491 362.913 354.029C365.39 356.19 368.157 358.066 370.227 360.528C373.686 364.636 377.195 368.846 379.811 373.502C385.975 384.483 395.253 390.367 407.431 392.527C416.463 394.13 425.366 393.32 434.325 392.22C441.421 391.344 448.523 390.473 455.641 389.909C464.595 389.2 473.002 391.629 480.851 395.67C487.601 399.143 494.055 403.196 500.627 407.02C507.533 411.039 514.574 414.461 522.953 413.172C529.357 412.189 534.969 407.226 536.498 401.063C538.305 393.778 533.385 386.9 525.301 385.756C521.725 385.253 518.044 385.532 514.468 385.024C505.91 383.813 499.338 377.454 498.68 370.08C497.938 361.823 503.344 353.588 511.639 350.646C517.179 348.681 522.813 348.14 528.593 349.893C531.315 350.719 534.194 351.026 537.055 351.579C537.295 354.677 534.227 358.875 530.015 360.198C527.22 361.075 524.152 361.058 521.29 361.773C518.825 362.387 516.353 363.241 514.111 364.419C511.829 365.619 510.73 368.098 511.74 370.364C512.498 372.073 514.39 373.87 516.147 374.417C519.561 375.478 523.31 375.417 526.802 376.293C536.168 378.649 543.231 383.729 545.25 393.8C546.74 401.236 544.252 407.813 539.661 413.524C531.672 423.461 520.967 424.56 509.575 421.663C499.857 419.19 491.316 414.422 484.94 406.344C484.382 405.641 483.462 405.222 482.848 404.776L482.865 404.77ZM367.276 374.948C368.202 381.089 368.615 386.699 367.237 392.46C365.809 398.434 361.329 402.163 358.077 406.813C365.915 403.123 369.217 396.441 370.277 388.329C371.019 382.663 369.747 376.265 367.27 374.948H367.276ZM361.011 376.991C361.089 388.29 356.866 397.133 346.953 403.575C352.654 403.469 356.66 399.841 359.99 392.622C362.808 386.526 363.416 379.866 361.011 376.991ZM376.313 379.397C377.044 388.731 378.026 397.395 374.277 406.155C379.543 403.587 381.172 383.31 376.313 379.397ZM386.076 387.944C386.076 392.382 386.405 396.229 385.981 399.991C385.563 403.715 384.391 407.349 383.566 410.944C388.413 409.387 390.6 393.867 386.07 387.944H386.076ZM394.845 409.912C398.438 407.02 398.544 395.927 394.845 394.442V409.912ZM352.967 388.301C349.519 391.595 346.273 394.699 342.68 398.127C347.544 397.747 352.32 392.996 352.967 388.301ZM341.04 363.699C340.911 363.414 340.783 363.124 340.655 362.839C339.204 362.839 337.743 362.75 336.304 362.872C335.456 362.945 334.641 363.369 333.815 363.632C334.083 364.38 334.139 365.446 334.675 365.798C335.383 366.267 336.627 366.562 337.341 366.25C338.686 365.658 339.818 364.581 341.04 363.699Z" fill="black"/>
<path d="M481.866 276.33C482.563 277.687 483.233 279.055 483.953 280.4C490.162 292.001 482.692 308.888 469.922 312.003C465.895 312.986 462.536 311.339 459.847 308.559C453.527 302.027 450.871 294.362 453.354 285.313C453.599 284.42 453.973 283.487 453.906 282.6C453.85 281.84 453.248 281.12 452.885 280.378C452.266 280.813 451.173 281.187 451.1 281.701C450.793 283.895 449.371 284.302 447.569 284.403C443.139 284.66 439.363 286.854 437.393 290.432C433.555 297.405 426.51 299.777 420.513 303.691C419.698 304.227 418.716 304.511 417.327 305.125C419.905 299.962 423.296 295.669 422.872 290.147C422.599 290.024 422.326 289.907 422.058 289.784C421.545 290.694 420.953 291.565 420.524 292.514C419.38 295.054 418.359 297.65 417.204 300.19C413.986 307.247 407.933 310.368 400.748 311.981C405.294 306.666 410.22 301.642 411.007 294.239C411.074 293.62 410.717 292.955 410.56 292.308C410.326 292.285 410.086 292.263 409.852 292.241C409.372 293.48 408.781 294.692 408.44 295.964C406.728 302.34 402.555 307.197 398.008 311.518C394.516 314.834 389.657 314.46 384.452 313.628C392.709 309.446 398.187 304.009 397.947 295.149C397.423 294.82 396.904 294.491 396.38 294.156C394.594 303.456 390.433 310.708 380.531 313.12C383.27 307.359 386.634 301.876 384.815 295.177C384.609 294.418 383.794 293.826 382.868 292.659C382.628 295.445 382.757 297.617 382.193 299.593C381.312 302.664 380.302 305.801 378.684 308.52C377.647 310.262 375.46 311.345 373.73 312.64C372.101 313.857 370.394 314.957 368.715 316.112C368.91 316.453 369.106 316.799 369.301 317.139C370.662 316.542 371.995 315.839 373.407 315.381C374.216 315.118 375.153 315.247 376.034 315.197C376.04 316.28 376.453 317.636 375.956 318.384C375.237 319.473 373.953 320.327 372.743 320.941C361.63 326.529 350.473 332.028 339.338 337.583C337.681 338.409 336.181 339.621 334.463 340.268C332.186 341.128 329.776 341.625 327.411 342.239C325.922 342.624 324.427 343.132 322.915 343.221C321.604 343.3 320.259 342.864 318.932 342.658C319.233 341.245 319.066 339.269 319.936 338.554C321.314 337.421 323.383 337.136 325.526 336.36C324.856 335.891 324.192 335.099 323.395 334.926C319.874 334.166 315.518 336.974 314.536 340.475C313.576 343.88 312.315 344.366 309.253 342.624C308.466 342.177 307.518 342.01 306.436 341.647C305.627 336.511 309.783 333.882 312.957 330.66C309.939 329.7 305.56 332.564 304.779 335.674C304.065 338.521 303.055 341.156 299.301 342.574C299.462 340.832 299.278 339.397 299.769 338.264C301.024 335.383 302.363 332.492 304.07 329.862C306.491 326.133 310.235 325.005 314.536 325.547C315.73 325.697 316.962 325.798 318.095 326.178C326.87 329.103 334.122 325.636 340.872 320.595C344.136 318.155 347.109 315.308 350.116 312.539C353.809 309.145 355.896 304.925 356.576 299.906C357.084 296.171 357.965 292.492 358.4 288.696C353.117 293.363 355.36 300.955 351.656 306.426C344.761 301.318 340.621 294.736 339.171 286.34C338.128 280.311 338.87 274.538 340.582 268.749C341.307 266.298 341.441 263.68 341.86 261.062C350.864 260.029 357.798 251.337 354.194 245.626C354.055 245.693 353.804 245.749 353.787 245.838C352.548 253.386 347.996 257.528 340.632 259.046C338.217 259.543 335.974 261.14 333.564 261.374C331.651 261.559 329.514 260.637 327.685 259.767C327.004 259.443 326.513 257.802 326.686 256.914C326.814 256.255 328.097 255.596 328.984 255.356C331.378 254.709 333.871 254.413 336.242 253.709C337.023 253.481 337.849 252.548 338.128 251.75C338.301 251.253 337.564 249.908 337.096 249.835C336.164 249.69 335.098 250.047 334.161 250.399C331.79 251.287 329.525 252.604 327.088 253.095C325.994 253.313 324.231 252.247 323.406 251.242C322.156 249.729 321.459 247.758 320.471 245.871C321.844 245.871 322.937 246.05 323.93 245.816C324.806 245.609 325.581 244.945 326.396 244.487L326.307 243.426C324.254 243.169 322.195 242.907 319.417 242.561C320.41 241.461 321.057 240.585 321.855 239.892C324.583 237.525 327.445 235.309 330.106 232.875C334.133 229.191 339.082 227.923 344.225 226.779C348.431 225.847 352.481 224.211 356.621 222.949C357.536 222.67 358.529 222.653 359.483 222.514C359.6 223.502 359.834 224.49 359.795 225.472C359.75 226.572 359.232 227.678 359.321 228.749C359.566 231.781 358.875 234.394 356.883 236.766C356.37 237.38 356.615 238.631 356.515 239.585C357.485 239.295 359.014 239.289 359.326 238.664C360.81 235.733 361.959 232.629 363.432 229.09C365.089 230.408 367.343 231.63 368.821 233.478C372.81 238.48 376.726 243.577 380.196 248.942C386.042 257.98 394.332 262.703 404.725 264.668C416.909 266.968 428.735 264.953 440.612 262.653C450.631 260.71 460.69 259.906 470.737 262.379C478.419 264.272 485.085 268.369 491.757 272.428C498.329 276.425 504.532 281.087 512.136 283.158C518.345 284.849 524.286 284.626 529.82 281.087C534.807 277.893 537.502 272.026 536.442 267.063C535.248 261.497 530.707 257.556 524.303 256.791C520.71 256.361 517.045 256.456 513.475 255.92C505.174 254.67 500.287 250.237 499.132 243.281C498.066 236.855 502.429 228.297 508.604 225.037C515.271 221.514 522.227 222.067 529.234 223.854C531.789 224.507 534.35 225.132 536.894 225.763C535.17 231.128 531.17 234.371 525.312 234.879C522.997 235.08 520.682 235.225 518.373 235.471C517.552 235.555 516.727 235.789 515.957 236.079C512.788 237.269 510.964 239.736 511.338 242.259C511.684 244.615 514.412 246.681 517.642 246.742C523.393 246.843 528.866 247.887 534.004 250.611C543.058 255.407 548.056 265.377 544.776 274.728C541.407 284.341 534.718 291.236 524.163 293.061C509.603 295.579 497.882 289.678 487.512 280.121C485.911 278.641 484.332 277.14 482.742 275.644C482.446 275.872 482.145 276.101 481.849 276.325L481.866 276.33ZM356.23 281.12C365.686 277.592 369.686 270.228 370.344 260.917C370.857 253.592 369.541 249.321 366.495 247.781C370.723 261.531 367.56 272.651 356.23 281.12ZM361.697 250.427C360.297 256.104 359.901 261.419 357.658 265.785C355.41 270.156 351.321 273.572 347.974 277.475C352.124 277.24 354.763 274.561 357.078 271.362C361.502 265.249 363.098 258.538 361.697 250.427ZM374.472 279.149C377.792 278.563 377.903 276.386 378.243 274.644C379.683 267.32 380.079 260.029 376.888 252.989C376.76 261.659 378.433 270.385 374.472 279.149ZM382.885 283.727C385.869 283.744 386.689 281.768 387.192 279.73C388.731 273.494 388.341 267.381 385.869 261.419C385.356 268.922 387.465 276.665 382.885 283.727ZM394.449 282.499C396.82 281.584 397.043 279.272 397.099 277.296C397.194 273.628 398.338 269.637 395.347 266.561C395.046 266.583 394.751 266.605 394.449 266.628V282.505V282.499ZM343.115 271.44C348.699 270.686 354.283 264.646 354.043 261.916C351.042 264.529 347.321 267.772 343.115 271.44ZM333.832 236.721C333.626 237.146 333.419 237.564 333.213 237.989C334.223 238.882 335.372 240.629 336.209 240.484C337.927 240.194 339.478 238.899 341.095 238.017C340.973 237.693 340.856 237.375 340.733 237.051C338.429 236.939 336.131 236.828 333.827 236.721H333.832ZM358.105 227.175C357.943 227.008 357.787 226.84 357.625 226.673C355.817 227.711 353.915 228.627 352.247 229.849C351.589 230.335 351.449 231.518 351.076 232.384C352.069 232.244 353.374 232.451 353.988 231.898C355.527 230.508 356.749 228.772 358.099 227.175H358.105ZM368.671 285.011C369.636 282.706 370.456 280.741 371.276 278.77C367.164 281.115 366.394 283.018 368.671 285.011Z" fill="black"/>
<path d="M335.461 502.723C334.892 505.38 332.677 506.821 328.772 507.385C323.06 508.211 323.595 502.913 321.068 499.731C322.139 500.149 322.82 500.674 323.183 500.512C324.315 499.993 325.33 499.217 326.39 498.542C325.498 498.151 324.639 497.593 323.707 497.414C322.669 497.219 321.559 497.369 320.483 497.369C320.343 497.129 320.204 496.884 320.064 496.644C320.879 495.767 321.637 494.829 322.519 494.031C325.113 491.664 327.802 489.403 330.368 487.008C335.009 482.665 340.878 481.403 346.802 480.052C350.189 479.276 353.424 477.852 356.749 476.781C357.658 476.485 359.248 475.988 359.472 476.312C360.074 477.183 360.481 478.517 360.314 479.555C359.516 484.373 360.28 489.721 355.421 493.261C359.734 494.762 361.223 492.016 362.261 481.794C367.812 484.847 371.744 489.498 375.281 494.494C377.859 498.129 380.363 501.835 382.612 505.676C387.604 514.218 395.548 518.086 404.708 520.275C415.481 522.854 426.242 522.435 437.059 520.582C442.632 519.627 448.238 518.673 453.867 518.276C464.444 517.534 474.29 520.392 483.49 525.495C489.169 528.649 494.77 531.948 500.315 535.342C506.976 539.418 514.178 541.087 521.876 540.3C524.375 540.043 526.796 539.021 529.106 538.391C526.902 541.69 524.654 545.279 522.149 548.674C521.458 549.617 519.996 550.555 518.897 550.55C505.514 550.438 494.095 545.76 485.13 535.577C484.265 534.594 483.233 533.757 482.279 532.853C482.017 533.042 481.755 533.232 481.492 533.422C482.067 534.589 482.502 535.85 483.239 536.9C490.134 546.703 483.255 562.909 474.514 568.207C470.296 570.764 463.909 570.027 459.864 566.7C453.767 561.681 451.881 555.049 452.662 547.485C452.891 545.279 453.482 543.108 454.001 540.942C454.509 538.843 453.945 537.497 451.736 537.095C451.53 537.224 451.24 537.324 451.245 537.419C451.323 541.266 449.722 542.527 445.655 543.041C441.366 543.582 437.84 546.932 435.43 550.695C433.745 553.324 431.703 555.004 428.847 556.249C425.377 557.757 422.214 559.973 418.884 561.81C417.969 562.312 416.909 562.558 415.458 563.083C418.237 557.729 422.616 553.497 420.691 547.06C417.238 558.231 411.135 566.605 398.377 569.022C403.024 563.808 408.307 559.599 408.775 552.503C408.831 551.621 408.273 550.7 407.665 549.779C406.867 557.673 401.389 562.714 396.993 568.358C396.43 569.078 395.303 569.748 394.422 569.765C389.563 569.854 384.698 569.731 379.153 569.676C382.868 563.144 386.121 557.478 384.826 550.628C384.653 549.723 383.605 548.986 382.684 548.266C382.952 553.933 381.987 559.113 378.813 563.758C377.474 565.718 376.007 567.242 373.541 567.984C371.744 568.52 370.255 570.072 368.632 571.172C368.816 571.512 368.994 571.853 369.178 572.188C370.45 571.663 371.683 570.988 373.005 570.675C373.864 570.468 374.852 570.792 375.783 570.881C375.588 571.691 375.666 572.824 375.153 573.254C373.033 575.024 370.908 576.933 368.464 578.15C362.077 581.327 355.516 584.163 348.772 587.25C345.24 584.056 341.614 580.779 337.598 577.151C351.12 570.223 359.048 560.163 357.207 543.688C355.31 550.081 353.603 555.831 351.807 561.866C339.907 551.119 336.242 538.564 340.303 523.842C342.334 516.484 342.524 516.501 349.129 512.504C352.431 510.505 354.378 507.519 354.964 503.756C355.154 502.533 354.674 501.21 354.495 499.932C354.239 499.954 353.982 499.982 353.726 500.004C353.497 500.892 353.235 501.768 353.039 502.662C351.985 507.507 348.822 510.377 344.309 511.923C341.168 513.001 337.983 513.961 334.814 514.966C331.701 515.954 328.901 515.351 327.54 513.191C327.037 512.398 326.719 511.22 326.926 510.36C327.037 509.897 328.399 509.618 329.235 509.456C331.227 509.071 333.302 508.987 335.227 508.406C336.337 508.071 338.05 506.999 338.038 506.279C338.022 504.967 336.917 503.672 336.27 502.371C335.991 502.489 335.718 502.606 335.439 502.723H335.461ZM356.225 535.527C364.275 532.032 369.948 523.837 370.394 515.558C370.813 507.826 370.093 504.013 368.364 502.963C367.945 508.775 368.068 514.893 366.93 520.766C365.708 527.08 360.531 531.122 356.225 535.527ZM347.662 531.306C352.582 530.352 355.806 527.398 358.172 523.329C362.384 516.094 363.594 507.692 360.615 503.644C360.487 515.033 357.815 524.903 347.662 531.306ZM376.626 507.301C377.094 516.373 377.965 525.433 373.848 534.477C379.571 531.876 381.356 512.085 376.626 507.301ZM397.239 549.612C395.325 553.586 394.109 557.249 391.967 560.241C389.853 563.194 386.796 565.477 383.956 568.241C384.91 568.241 385.579 568.358 386.187 568.224C390.935 567.152 398.566 557.014 398.304 552.034C398.26 551.236 397.629 550.466 397.233 549.617L397.239 549.612ZM385.367 516.518C386.048 524.356 387.236 532.043 382.076 539.245C385.925 538.346 387.331 535.99 388.09 530.497C388.893 524.668 387.794 517.869 385.367 516.518ZM394.444 522.257V538.201C397.986 536.224 397.272 532.607 397.445 529.609C397.585 527.153 398.226 524.077 394.444 522.257ZM359.131 481.023L358.534 479.929C356.258 481.157 353.904 482.263 351.751 483.675C350.953 484.2 350.635 485.456 350.094 486.377C351.299 486.299 352.811 486.645 353.642 486.048C355.639 484.613 357.318 482.726 359.126 481.023H359.131ZM342.535 524.49C347.182 524.881 352.359 520.649 352.839 516.082C349.374 518.913 346.139 521.548 342.535 524.49ZM341.33 490.983H332.733C333.977 492.563 334.591 494.159 335.528 494.377C337.938 494.941 339.45 493.154 341.33 490.983ZM370.908 534.276C370.601 534.081 370.294 533.891 369.982 533.696C368.894 534.885 367.733 536.029 366.757 537.308C366.512 537.631 366.852 538.407 366.925 538.977C367.477 538.876 368.325 538.971 368.531 538.647C369.424 537.252 370.132 535.739 370.908 534.271V534.276Z" fill="black"/>
<path d="M442.76 599.186C442.107 596.021 439.859 595.703 437.728 595.775C432.306 595.959 430.917 599.694 430.989 604.317C428.942 604.183 427.19 604.065 425.439 603.954C426.03 601.514 426.225 598.868 427.341 596.696C428.139 595.144 430.169 594.234 431.748 592.962C427.19 591.599 423.162 595.569 421.528 603.005C419.676 602.865 417.773 602.726 415.972 602.592C415.81 602.212 415.67 602.039 415.676 601.871C415.866 596.981 419.118 593.509 421.902 590.137C424.194 587.362 428.072 587.055 431.765 587.68C435.24 588.267 438.732 588.786 442.23 589.193C446.063 589.64 449.65 588.635 452.841 586.564C456.193 584.381 456.082 582.148 452.478 580.479C447.552 578.196 443.379 575.142 440.406 570.525C435.357 562.693 436.194 553.275 442.693 548.105C444.584 546.598 446.989 545.727 449.834 544.197C449.666 546.358 449.544 547.681 449.471 549.009C448.818 560.599 455.881 570.335 466.531 572.54C468.36 572.92 474.463 576.108 475.746 577.364C479.097 580.631 478.826 583.637 474.932 586.38C469.325 590.349 463.836 594.491 458.124 598.299C453.962 601.073 449.237 602.458 444.16 602.43C443.63 602.43 442.721 602.446 442.626 602.692C441.711 605.121 439.67 604.668 437.935 604.439C436.852 604.294 435.056 603.474 435.006 602.848C434.905 601.564 435.38 599.728 436.311 598.968C438.174 597.439 440.49 597.065 442.782 599.203L442.76 599.186Z" fill="black"/>
<path d="M449.594 287.518C449.594 288.606 449.639 289.522 449.588 290.432C449.064 299.213 452.791 306.113 459.2 311.713C462.319 314.437 466.029 315.833 470.246 315.403C471.786 315.247 472.712 315.738 473.666 317.078C474.642 318.445 476.21 319.433 477.621 320.444C479.97 322.13 480.148 323.129 478.29 325.401C478.056 325.686 477.827 326.01 477.526 326.205C470.134 330.978 462.938 336.114 455.228 340.313C452.121 342.004 447.887 341.574 444.183 342.227C443.268 342.389 442.425 343.003 441.561 343.428C440.953 343.729 440.378 344.287 439.759 344.338C438.197 344.472 436.618 344.382 435.112 344.382C433.115 340.089 434.509 338.23 440.568 336.885C440.585 336.622 440.607 336.354 440.624 336.092C439.134 336.003 437.483 335.461 436.189 335.919C433.449 336.89 431.023 338.42 430.638 341.859C430.537 342.769 429.723 344.098 428.981 344.31C427.96 344.6 425.695 344.031 425.684 343.779C425.623 341.837 425.511 339.648 426.342 338.001C427.157 336.388 429.065 335.327 430.532 333.993C428.362 332.966 425.93 333.602 424.066 336.449C422.711 338.509 422.214 341.128 421.288 343.629C420.624 343.528 419.821 343.383 419.012 343.288C415.615 342.897 415.347 342.518 416.217 339.218C417.818 333.144 422.917 328.528 428.54 328.382C430.833 328.321 433.148 328.773 435.441 329.103C440.016 329.756 444.612 331.107 449.176 329.354C451.033 328.639 452.852 327.579 454.386 326.311C455.892 325.066 455.703 323.503 453.89 322.47C452.601 321.739 451.212 321.186 449.929 320.444C442.643 316.218 437.522 310.339 436.707 301.653C436.021 294.306 441.884 287.953 449.594 287.523V287.518Z" fill="black"/>
<path d="M450.163 417.174C450.163 420.005 449.951 422.874 450.202 425.705C450.994 434.732 457.794 442.575 466.313 444.513C466.854 444.635 467.473 444.937 467.936 444.792C473.069 443.162 475.177 447.544 478.173 450C479.796 451.329 480.159 453.473 478.402 454.879C469.794 461.763 461.354 468.987 450.358 471.94C449.036 472.297 447.541 472.521 446.236 472.258C445.192 472.052 443.887 471.214 443.452 470.293C441.895 467.011 440.451 465.777 437.773 466.128C434.794 466.519 432.367 468.942 431.726 471.879C431.502 472.9 430.989 474.318 430.214 474.67C427.977 475.669 426.532 474.742 426.671 472.292C426.772 470.583 427.486 468.758 428.423 467.301C429.232 466.039 430.738 465.23 431.954 464.202C428.2 462.053 424.2 466.017 422.75 473.436C420.713 473.163 418.66 472.889 416.574 472.61C416.479 472.476 416.284 472.32 416.295 472.186C416.719 466.307 423.67 458.955 429.405 458.838C433.55 458.754 437.723 459.312 441.862 459.775C446.018 460.244 449.828 459.413 453.253 457.107C456.266 455.08 456.149 453.02 453.036 451.178C451.2 450.09 449.209 449.252 447.429 448.085C440.713 443.681 436.607 437.73 436.802 429.384C436.953 422.975 443.92 416.555 450.168 417.174H450.163Z" fill="black"/>
<path d="M489.682 415.081C491.673 417.945 493.721 420.775 495.64 423.684C499.651 429.774 504.861 434.196 512.292 435.167C515.377 435.569 518.557 435.234 522.339 435.234C522.027 447.572 521.714 460.038 521.391 472.989C517.921 472.721 515.081 472.576 512.275 472.191C511.874 472.135 511.176 470.728 511.377 470.315C512.259 468.49 513.413 466.798 514.468 465.068C511.355 463.387 508.549 466.575 508.035 473.576C506.418 472.984 504.387 472.861 503.539 471.789C502.228 470.142 504.036 466.458 506.825 463.929C503.534 462.304 502.039 464.186 499.974 472.543C496.387 473.034 494.797 471.443 495.779 467.993C497.068 463.46 500.488 458.235 507.003 458.703C511.009 458.994 511.773 457.509 510.228 453.752C508.956 450.653 506.596 449.353 503.344 448.939C498.195 448.286 493.012 447.616 487.986 446.388C484.544 445.545 481.336 443.748 477.465 442.145C485.682 434.631 488.667 425.604 488.929 415.46C489.185 415.332 489.436 415.204 489.693 415.075L489.682 415.081Z" fill="black"/>
<path d="M514.914 335.234C510.685 334.502 509.871 335.647 508.604 343.864C507.087 343.647 505.564 343.429 503.935 343.194C503.098 339.672 503.595 336.562 506.429 334.056C503.227 332.733 501.676 335.234 500.705 343.06C497.118 343.931 496.382 343.49 496.549 340.035C496.65 337.936 496.906 335.736 497.67 333.804C498.998 330.455 501.754 329.065 505.391 328.908C507.188 328.83 510.033 330.399 510.563 327.061C511.098 323.677 508.543 320.015 505.402 319.463C502.2 318.904 498.948 318.659 495.729 318.19C490.039 317.358 484.259 316.811 479.2 313.668C478.653 313.327 478.14 312.942 477.308 312.361C485.799 305.863 488.728 296.847 489.481 286.006C491.372 288.574 493.051 290.511 494.357 292.683C500.209 302.408 508.694 306.617 519.94 305.098C521.513 304.886 522.261 305.283 522.244 306.896C522.211 309.587 522.244 312.278 522.133 314.969C521.792 323.242 521.329 331.51 521.073 339.783C521 342.083 520.18 342.993 517.926 342.781C516.917 342.686 515.873 342.921 514.864 342.804C513.837 342.686 512.091 342.497 511.98 342.028C511.689 340.799 511.857 339.292 512.348 338.109C512.772 337.081 513.893 336.344 514.919 335.245L514.914 335.234Z" fill="black"/>
<path d="M303.579 413.843C303.847 411.939 302.52 410.728 300.807 409.879C298.023 408.5 294.776 409.321 292.154 411.777C290.866 412.983 289.415 414.022 287.446 415.613C287.022 410.611 289.644 408.031 292.266 405.944C296.227 402.784 300.606 403.789 304.779 406.078C304.149 403.191 302.33 401.41 299.647 401.299C296.562 401.17 293.555 401.282 291.1 403.727C290.202 404.62 288.791 404.994 287.614 405.609C287.329 405.368 287.044 405.134 286.754 404.894C287.284 403.671 287.48 401.93 288.411 401.327C291.491 399.334 294.704 397.385 298.129 396.124C300.835 395.124 303.914 396.073 305.872 398.172C314.19 407.088 325.018 410.086 336.75 411.744C337.046 421.229 341.832 428.525 349.028 435.124C344.917 436.162 341.324 436.129 338.111 434.493C332.672 431.719 327.422 428.553 322.156 425.444C320.405 424.411 318.815 423.099 317.208 421.837C312.656 418.27 307.473 417.567 301.928 418.326C300.55 418.516 299.156 418.605 297.772 418.638C295.786 418.689 293.85 417.807 294.14 415.808C294.33 414.507 296.193 412.659 297.488 412.498C299.379 412.257 301.437 413.307 303.579 413.843Z" fill="black"/>
<path d="M537.134 525.785C533.022 515.965 529.218 513.537 518.674 513.559C516.364 513.559 514.005 513.498 511.745 513.068C501.324 511.069 495.885 499.631 500.677 490.146C505.302 480.99 513.921 477.92 524.771 479.304C528.777 479.818 532.71 480.929 536.726 481.783C536.576 486.852 531.962 490.816 525.524 491.184C523.304 491.312 521.067 491.396 518.88 491.753C517.542 491.971 516.208 492.529 515.003 493.183C511.985 494.824 510.964 496.733 511.617 499.48C512.309 502.399 514.59 503.282 517.251 503.577C520.387 503.924 523.55 504.102 526.646 504.672C532.369 505.727 536.871 508.92 540.537 513.325C542.205 515.334 542.93 517.305 540.737 519.706C539.231 521.358 538.383 523.602 537.128 525.78L537.134 525.785Z" fill="black"/>
<path d="M287.318 277.621C290.804 268.416 298.765 264.72 306.073 271.838C314.709 280.245 325.269 282.534 336.382 285.186C336.755 294.375 341.96 301.364 348.465 307.667C348.286 308.008 348.113 308.354 347.935 308.694C344.214 307.952 340.214 307.84 336.839 306.322C331.283 303.826 326.122 300.449 320.828 297.384C319.222 296.457 317.682 295.397 316.209 294.269C312.338 291.31 308.17 291.198 303.529 292.092C300.745 292.628 297.694 292.002 294.81 291.584C294.257 291.505 293.437 289.875 293.571 289.116C294.073 286.291 297.621 284.896 300.204 286.397C301.203 286.978 302.04 287.832 302.988 288.586C303.836 283.79 298.168 281.518 293.052 284.55C291.39 285.538 289.878 286.771 288.277 287.91C286.955 284.717 289.053 281.239 293.666 278.185C297.677 275.528 301.214 277.677 305.242 279.52C304.009 275.187 300.896 274.428 297.878 273.624C295.546 272.999 293.443 272.826 291.797 275.388C290.966 276.689 289.186 277.387 287.836 278.353C287.664 278.107 287.491 277.862 287.318 277.616V277.621Z" fill="black"/>
<path d="M336.337 539.071C336.504 548.662 341.486 555.775 348.487 562.424C343.656 563.356 339.707 562.87 336.075 560.838C330.123 557.5 323.629 555.021 318.625 550.103C317.989 549.477 317.074 548.819 316.237 548.752C312.661 548.467 311.144 545.776 309.309 543.325C306.486 539.557 303.546 535.878 300.879 531.708C302.587 532.389 304.299 533.07 306.179 533.818C305.995 531.434 305.142 529.737 302.865 528.794C301.17 528.09 299.502 527.247 298.001 526.203C297.382 525.774 297.237 524.652 296.874 523.848C297.616 523.552 298.341 523.06 299.1 522.988C302.481 522.675 305.8 523.725 307.462 526.471C311.808 533.645 318.96 535.381 326.178 537.145C329.408 537.933 332.717 538.396 336.32 539.071H336.337Z" fill="black"/>
<path d="M477.688 571.094C480.46 566.851 483.679 563.033 485.626 558.645C487.568 554.268 488.237 549.322 489.498 544.51C490.58 546.039 492.036 547.882 493.247 549.869C496.415 555.072 499.695 560.13 505.938 562.112C507.411 562.581 508.934 562.882 510.362 563.239C506.685 567.717 503.076 572.127 499.433 576.498C499.126 576.867 498.524 577.263 498.106 577.218C490.837 576.364 483.624 575.304 477.688 571.1V571.094Z" fill="black"/>
<path d="M435.285 474.252C434.922 469.797 436.004 468.351 439.474 468.295C441.444 468.261 442.503 469.11 442.358 471.075C442.141 474.017 440.054 474.949 435.285 474.252Z" fill="black"/>
<path d="M490.502 342.429C490.976 340.542 491.272 338.89 491.863 337.36C492.03 336.925 493.146 336.551 493.698 336.679C494.072 336.768 494.485 337.829 494.418 338.398C494.178 340.352 493.598 342.161 490.507 342.429H490.502Z" fill="black"/>
</svg>
