<svg width="800" height="800" viewBox="0 0 800 800" fill="none" xmlns="http://www.w3.org/2000/svg">
<g clip-path="url(#clip0_8061_307)">
<path d="M410.01 656.02C410.22 656.75 413.3 658.86 413.85 661.5C414.97 666.83 412.06 667.73 412.01 669.33C411.97 670.73 414.45 673.96 415 675.69C419.36 689.37 408.89 706.14 393.74 699.62C385.26 695.96 382.91 685.27 384.98 677.01C385.54 674.79 387.22 672.29 387.27 669.96C387.35 666.4 385.8 661.53 387.97 658.16C388.35 657.57 389.42 657.45 389.64 657.03C390.91 654.63 389.36 651.22 389.3 648.72C388.2 602.88 388.81 556.5 388.63 510.69C388.51 480.11 388.44 449.45 389.33 418.97C387.35 417.03 364.63 431.87 361.11 433.76C312.69 459.76 254.1 451.12 219.7 406.92C217.06 403.53 207.12 385.28 205.99 384.62C205.43 384.29 204.62 384.06 204.06 384.4C201.9 388.39 195.84 391.14 191.46 392.12C161.38 398.83 140.61 363.26 131.19 340.07C120.35 313.39 138.28 288.16 166.64 288.94L157.66 270.92C139.52 227.02 144.15 183.15 165.63 141.56C175.83 121.81 192.89 102.38 217.6 105.62C231.14 107.4 239.93 123.97 234.32 136.23C230.3 145.01 218.49 150.03 210.96 142.26C202.46 133.48 211.89 122.11 221.98 128.9C221.59 118.28 209.93 119.37 204.3 126.22C195.12 137.4 203.72 158.57 210.77 169.12C230.57 198.73 268.71 201.37 300.13 209.78C326.52 216.84 353.3 228.05 373.32 246.93C371.53 236.39 366.62 225.71 361.67 216.24C356.72 206.77 351.16 198.17 343.65 190.92C336.13 209.86 307.34 205.25 305.32 185.24C303.79 170.04 314.6 155.84 329.31 152.57C349.06 148.18 365.09 158.46 377.32 172.91C375.72 162.58 371.75 152.09 367.23 142.66C362.03 131.82 353.08 118.34 341.48 113.73C337.04 111.97 330.39 110.12 331.26 117.24C331.45 118.82 336.39 120.62 337.87 121.68C337.59 131.09 325.12 125.94 324.04 118.5C322.58 108.4 331.3 99.85 340.99 98.89C358.17 97.19 376.58 103.48 386.99 117.54C394.04 108.92 407.98 107.02 413.27 118.47L414.65 118.88C423.6 102.29 457.22 90.52 472.32 103.56C476.7 107.34 479.73 115.06 476.57 120.45C474.66 123.71 468.41 128.35 464.97 124.92C459.97 119.93 473.58 118.4 469.4 113.15C465.96 108.84 453.69 116.52 450.66 119.21C438.53 129.96 428.96 151.73 426.67 167.56L437.8 159.02C454.38 148.66 479.54 147.03 491.23 165.33C500.72 180.19 495.65 205.7 473.84 202.72C465.77 201.62 463.06 197.27 460.06 190.48C459.78 189.85 460.45 189.31 459.01 189.56C446.36 200.82 437.44 216.74 432.19 232.76C431.31 235.45 429.67 240.03 429.4 242.65C429.3 243.61 428.71 245.21 430.32 244.9C451.1 229.34 473.69 218.49 498.67 211.23C527.01 203 566.24 199.19 586.35 175.56C596.62 163.48 607.9 136.9 594.03 123.85C588.17 118.34 580.51 121.83 578.68 128.87C586.14 123.07 595.06 130.19 591.36 139.23C587.98 147.5 577.43 148.26 570.99 142.89C558.45 132.44 565.74 109.89 580.66 105.86C611.25 97.6 635.94 137.06 645 160.89C656.54 191.24 657.87 231.34 646.69 261.91C643.19 271.47 637.89 280.21 634.01 289.57H643.68C650.39 289.57 663.27 298.68 666.97 304.28C674.78 316.1 673.55 325.9 669.36 338.59C662.83 358.37 650.98 379.94 631.26 389.17C617.34 395.68 606.63 392.28 594.4 384.29C584.42 404.42 570.33 420.62 551.27 432.54C517.09 453.9 478.17 454.1 442.87 435.04C432.19 429.27 422.22 420.38 409.98 418.26V655.98L410.01 656.02ZM398.67 208.92C397.56 178.98 401.11 142.94 379.68 118.89C370.34 108.41 351.6 103.11 338 104.9C339.32 107.45 342.97 107.27 345.51 108.39C374.22 121.06 386.2 175.33 392.48 203.45C395.8 218.33 396.95 230.92 397.98 245.96C398.35 251.36 399.6 256.8 399.35 262.27C400.21 261.99 400.54 258.65 400.59 257.86C401.23 247.24 398.97 230.44 398.01 219.27C396.35 200.16 394.57 178.15 390.37 159.56C386.55 142.67 378.94 127.27 368.02 113.9C369.35 113.48 372.13 115.98 373.05 116.87C393.95 137.17 397.78 172.97 396.77 200.5L398.68 208.91L398.67 208.92ZM460.68 104.9L443.17 106.38C414.57 114.22 406.46 140.68 403.35 167.24C401.98 178.92 400.99 191.46 400.65 203.22C400.31 214.98 401.35 225.69 401.35 236.92C402.51 237.08 401.98 235.41 402.01 234.6C402.21 229.6 402.11 224.25 402.04 219.22C401.62 189.06 404.27 136.39 430.36 116.24C431 115.75 432.58 114.27 433.35 115.22C423.88 125.56 417.2 136.9 413.18 150.39C409.85 161.55 407.47 175.72 406.11 187.33C405.59 191.78 405.17 196.08 405.35 200.58C405.38 201.39 404.85 203.06 406.01 202.9C408.43 176.85 413.42 149.73 427.48 127.35C432.67 119.09 440.4 106.39 451.35 107.22C442.03 112.77 436.41 119.58 430.81 128.69C416.8 151.47 411.1 183.23 406.21 209.44C405.64 212.5 404.91 216.88 404.69 219.92C404.63 220.71 404.13 223.57 405.34 223.58L405.5 219.41C412.35 192.79 416.29 163.64 428.11 138.66C433.69 126.87 440.74 115.99 452.45 109.65C453.18 109.26 462.21 106.16 460.69 104.89L460.68 104.9ZM242.99 316.28C238.71 316.68 233.42 316.28 228.99 316.28C228.2 316.28 224.16 314.31 223.33 316.28C234.73 318.87 244.15 318.84 255.47 316.1C279.87 310.2 294.93 299.04 322.02 305.93C354.19 314.12 371.39 352.31 368.08 383.24C362.94 384.94 364.49 381.77 363.93 378.7C363.42 375.85 362.05 373.23 361.99 370.29L354.67 379.62C356.79 374.45 362.11 369.7 359.99 363.62L356.33 368.95L357.67 364.96C348.7 370.27 339.89 373.98 329.33 374.95C329.09 373.55 330.25 373.03 331.32 372.61C335.97 370.79 343.21 370.11 348.29 368.24C349.32 367.86 360.61 362.92 358.66 360.95C343.96 368.67 328 369.93 311.67 368.28C299.18 367.02 287.68 363.61 276.41 358.2C260.87 350.74 247.43 340.04 236.32 326.94C235.32 327.46 236.47 328.54 236.8 329.13C240.82 336.4 249.86 346.37 256.34 351.59C260.73 355.12 266.52 357.35 270.66 361.28C270.76 361.78 270.02 361.71 269.68 361.6C264.73 360.03 256.01 354.67 251.99 351.28C243.78 344.37 234.46 334.33 229.32 324.94C228.09 324.79 228.74 326.33 228.97 326.96C232.81 337.5 250.1 356.1 259.39 362.56C260.43 363.28 262.11 363.22 263.05 364.27L262.34 367.61C254.59 360.58 246.53 355.05 239.32 347.29C233.65 341.18 228.8 334.39 224.01 327.6C227.55 335.79 233.02 343.71 238.69 350.59C245.64 359.03 254.08 365.83 261.34 373.95L260.35 374.94C248.36 365.16 238.06 353.72 227.35 342.59L222.01 334.27C223.89 341.17 229.59 347.66 234.02 353.25C237.55 357.71 242.08 363.23 245.97 367.31C248.82 370.3 259.42 378.5 260.67 381.28C260.83 381.64 260.8 382.41 260.35 382.27C246.45 373.58 236.84 360.22 226.02 348.27L240.7 369.26L258.68 388.62C258.93 389.48 258.54 389.94 257.7 389.6C254.44 388.32 247.93 382.02 245.34 379.29C237.48 371 230.94 361.49 224.42 352.19C224.16 351.81 223.69 349.8 222.7 350.94C221.64 352.16 237.83 375.09 239.76 377.55C242.07 380.49 245.43 384.74 248.02 387.29C251.28 390.52 255.67 392.57 258.04 396.61C256.67 397.11 254.33 395.51 253.17 394.81C247.16 391.19 240.81 383.78 236.43 378.21C232.05 372.64 228.49 366.47 224.37 360.93C223.37 361.45 224.56 362.54 224.82 363.15C228.88 372.77 237.38 384.47 244.37 392.28C249.53 398.04 256.14 402.38 260.71 408.61C259.25 409 256.99 406.99 255.83 406.16C239.11 394.24 224.71 375.33 218.71 355.6C217.47 355.45 218.19 356.96 218.35 357.63C218.74 359.28 219.61 361.45 220.22 363.1C229.23 387.3 247.23 407.35 269.38 420.28L261.35 408.64C258.09 397.63 257.31 386.2 268.5 379.72C273.33 376.93 279.36 376.16 283.75 380.24C287.61 383.83 290.12 391.58 285.76 395.65C281.99 399.17 274.12 395.95 276.05 393.61C288.07 392.68 281.39 380.09 272.12 384.68C261.98 389.7 265.21 402.96 270.03 410.63C278.63 424.31 287.14 421.17 300.87 423.14C301.94 423.29 303.86 423.26 303.38 424.95H291.71C289.25 424.95 283.34 422.31 281.03 420.96C279.05 420.84 280.53 421.72 281.14 422.18C292.57 430.84 313.25 429.92 326.57 426.47C333.87 424.58 345.5 419.34 351.09 414.31L361.38 403.61C347.78 425.21 322.32 433.23 297.68 431.64C273.04 430.05 240.13 407.31 226.44 387.53L217.37 372.27C222.7 388.25 235.05 402.31 248.38 412.26C273.86 431.26 302.59 439.78 333.9 429.81C350.68 424.47 365.6 410.57 382.06 403.95C394.91 398.79 406.86 398.84 420.05 402.93L417.9 401.42L401.39 395.61C404.2 394.42 406.55 395.1 409.38 395.6C409.28 377.5 411.58 359.29 415.84 341.71C434.31 265.56 497.53 275.35 554.97 248.81C566.35 243.55 581.22 234.76 590.09 225.93C598.76 217.31 611.84 184.75 612.76 172.58C613.85 158.07 611.13 144.09 607.39 130.22C606.23 130.06 606.76 131.74 606.73 132.54C606.33 142.83 608.19 148.62 604.75 159.24C590.37 203.69 540.86 207.39 502.57 218.42C463.32 229.73 425.13 252.13 408.13 290.68C404.83 298.16 403.64 306.16 400.37 313.6C396.31 305.21 395.32 295.58 391.69 286.93C377.19 252.38 339.99 230.1 305.51 219.76C263.31 207.1 211.87 206.51 195.51 157.07C192.58 148.21 193.62 144.05 194.05 135.25C194.09 134.53 194.49 132.1 193.36 132.23C186.98 149.05 185.87 164.78 190.35 182.24C192.5 190.6 196.34 198.6 198.68 206.91C194.33 202.27 191.4 195.9 189.34 189.92C186.13 180.58 184.13 167.78 184.69 157.91C184.98 152.78 186.86 147.45 186.68 142.24L184.87 148.08C179.51 176.97 186.68 195.98 204.71 217.9C244.19 265.91 302.75 255.09 349.73 286.25C374.48 302.67 388.51 338.2 387.38 367.29C387.35 368.1 387.88 369.77 386.72 369.61C381.4 340.37 374.92 308.85 348.27 291.7C316.84 271.47 288.9 270.67 255.02 258.94C226.78 249.17 201.75 233.73 187.24 206.7C179.89 193 175.89 179.21 175.35 163.58L173.97 165.91C175.09 172.5 174.5 178.97 175.65 185.62C179.16 205.87 193.65 224.61 208.68 237.94C216.07 244.49 224.78 250.43 233.36 255.27C232.9 256.19 231.57 255.27 230.91 255.06C217.55 250.94 196.34 228.97 187.38 217.91C184.69 214.6 182.14 211 180.69 206.93C179.46 206.78 180.11 208.32 180.34 208.95C184.09 219.3 196.54 233.8 204.69 241.28C219.77 255.12 234.4 262.42 254.04 267.94C259.51 269.48 265.26 269.96 270.7 271.62L267.89 272.09C257.18 269.15 245.42 267.4 235.02 263.62C221.56 258.72 202.55 244.11 193.4 233.07C169.78 204.6 159.34 153.03 189.01 124.89C197.81 116.55 218.49 108.06 225.29 122.65C231.63 136.25 216.54 132.58 215.36 134.25C217.48 144.55 228.37 136.16 228.73 129.22C229.14 121.33 222.86 113.33 214.97 112.3C183.88 108.21 167.12 151.35 164.77 176.01C160.76 218.06 195.27 259.89 233.01 274.3C240.56 277.18 251.06 279.45 259.12 280.2C259.87 280.27 261.51 280.82 261.36 279.62C230.81 275.62 201.16 258.33 183.48 233.15C170.25 214.31 164.21 198.85 166.03 175.27L168.01 168.26C169.92 184.88 170.98 201.37 178.78 216.5C198.24 254.25 230.92 269.71 270.69 278.62C281.93 281.14 294.44 281.81 305.37 284.61C308.78 285.48 312.43 286.35 314.7 289.28C305.88 289.06 297.14 287.22 288.36 286.28C252.58 282.44 227.56 283.32 198.37 258.92C188.87 250.97 182.43 242.32 175.36 232.26C180.22 245.1 189.87 255.16 200.37 263.58C208.36 269.98 223.99 279.33 233.68 282.28C241.03 284.52 249.06 285.17 256.69 285.61C255.1 287.72 249.6 287.1 246.99 286.97C218.44 285.46 191.8 263.49 175.35 241.6C183.73 259.14 201.37 271.97 218.01 281.28C208.13 280.74 200.46 274.06 193.33 267.95C188.69 263.97 184.13 259.16 179.67 254.94C178.88 255.89 180.78 257.88 181.36 258.59C195.51 275.78 211.42 282.56 232.54 288.09C238.94 289.77 245.41 290.6 252.02 290.95C250.48 293.39 243.25 292.53 240.43 292.2C231.95 291.19 208.93 283.95 201.42 279.87C196.77 277.34 192.3 271.88 187.67 268.95C186.61 269.61 187.83 270.44 188.35 270.94C192.59 274.97 197.75 279.69 202.89 282.4C208.39 285.3 217.47 288.58 223.5 290.46C227.53 291.72 231.74 293.15 236.01 292.96C235.54 294.19 232.11 293.68 231.02 293.61C218.89 292.85 206.71 289.38 197.67 280.95C196.58 281.62 197.89 282.42 198.34 282.95C207.04 293.35 222.29 295.77 234.99 296.31C241.75 296.6 248.59 296.03 255.35 296.29C255.23 297.37 252.51 297.53 251.68 297.61C234.72 299.36 219.98 301.36 204.48 292.82C203.09 292.06 201.19 289.84 200.02 290.61C212.09 301.67 231.63 304.01 247.35 302.28L240.02 300.96L261.35 299.63L237.6 304.87C227 305.59 216.35 303.99 206.68 299.63C209.37 302.87 214.82 304.68 218.84 305.8C232.93 309.7 245.96 307.63 260.02 304.97C259.19 306.58 256.47 306.94 254.83 307.44C243.06 311 231.99 311.94 219.88 309.43L206.69 305.29C219.81 314.24 236.48 314.3 251.5 310.77C272.02 305.95 287.29 296.43 309.69 297.63C325.39 298.47 337.99 302.46 348.69 314.29C349.13 313.82 344.94 308.87 344.37 308.28C340.56 304.28 328.3 294.12 323.63 291.68C322.72 291.21 321.72 290.97 320.7 290.94C320.68 289.59 323.37 290.39 324.07 290.58C331.35 292.48 347.65 306.81 352.31 313.01C364.74 329.58 372.61 351.76 372.72 372.59C372.72 373.59 373.26 376.71 372.04 376.96C367.2 340.26 350.38 304.52 309.02 301.62C283.13 299.81 265.64 314.19 243.02 316.28H242.99ZM532.69 301.61C540.9 303.07 550.13 306.93 559.03 307.6C570.87 308.5 582.32 305.4 593.35 301.6C593.5 300.36 591.99 301.07 591.32 301.24C588.28 301.97 585.27 303.29 582.03 303.95C567.59 306.9 552.99 306.26 539.19 300.77C538.48 300.49 537.2 300.58 537.36 299.62C552.45 301.23 566.4 303.88 581.36 299.95C584.31 299.17 588.01 297.9 590.86 296.78C591.75 296.43 593.87 295.96 594.02 294.95C589.3 295.78 584.86 297.82 580.16 298.75C565 301.75 541.42 298.22 526.68 293.28C525.71 292.95 524.67 292.91 524.03 291.94L529.62 291.67C544.63 297.29 562.93 296.66 578.84 294.76L596.02 288.28C588.38 290.21 580.98 293.01 573.01 293.6C563.51 294.31 553.88 292.18 544.34 292.94L542.02 292.28H548.68L546.69 290.95C548.61 291.7 567.99 288.51 568.03 289.94L560.03 291.61C560.03 292.81 562.91 292.33 563.68 292.26C568.22 291.85 574.88 290.44 579.36 289.28C584.64 287.91 590.55 285.86 594.69 282.28C585.07 286.02 575.19 289.31 564.69 288.94C564.48 288.79 565.03 288.15 565.35 287.94C568.83 285.69 580.94 283.4 585.8 281.72L592.02 278.95C580.85 278.76 570.42 286.03 559.68 286.93C550.04 287.74 540.33 285.7 530.69 286.27L535.35 285.6L532.33 284.91L489.01 289.6L484.69 288.95C489.87 286.86 494.44 285.02 500 283.92C512.72 281.4 525.95 280.62 538.7 277.28C594.42 262.69 632.52 224.43 632.07 164.6C631.91 143.99 608.27 106.89 584.15 112.69C573.66 115.21 565.64 131.61 577.83 138.11C582.66 140.69 586.36 138.64 584.73 133.2C580.37 132 573.89 135.27 574.03 128.57C574.17 121.87 580.36 115.66 587.02 114.9C612.43 112 630.84 148.47 630.73 169.93C630.53 208.05 606.46 241.5 574.22 259.46C573.63 259.79 572.55 260.93 572.03 259.94C584.14 250.36 596.47 242.19 605.52 229.41C618.47 211.12 627.59 187.98 626.7 165.24C626.67 164.43 627.2 162.76 626.04 162.92C624.89 175.1 622.83 186.85 618.36 198.25C603.05 237.24 560.3 255.61 522.69 266.61C503 272.37 477.32 275.49 460.08 286.68C421.67 311.6 412.49 349.26 417.43 393.23C417.52 394.01 417.73 396.88 418.68 396.98C416.49 371.55 419.16 341.59 432.81 319.42C437.53 311.75 453.37 296.4 461.55 292.82C462.21 292.53 464.67 291.51 464.69 292.96C444.68 304.55 429.7 322.5 424.89 345.51C422.76 355.7 421.6 370.28 422.02 380.66C422.05 381.47 421.52 383.14 422.68 382.98C423.05 361.26 426.01 334.92 440.35 317.63C449.64 306.43 466.67 292.97 481.7 292.97H498.37C498.92 292.97 499.73 292.36 500.7 292.97V293.63H488.37C486.99 293.63 479.97 295.12 478.4 295.66C476.09 296.45 473.59 299.12 471.37 298.63L472.7 296.97C469.39 298.01 465.1 300.61 462.09 302.69C455.69 307.12 443.57 317.6 439.5 324.1C428.89 341.05 425.3 369.65 426.66 389.35C426.74 390.49 426.59 391.55 427.7 392.31C426.99 377.71 427.41 362.54 431.03 348.31C440.7 310.29 471.11 292.87 509.52 298.48C523.61 300.54 535.61 307.51 549.37 310.64C561.57 313.41 570.37 314.06 582.55 310.47L588.71 307.64C568.83 315.48 548.86 310.28 530.05 302.29C529.92 301.09 531.9 301.7 532.71 301.63L532.28 300.96C529.28 300.77 525.26 300.25 523.37 297.63C524.36 297.68 535.89 300.62 534.7 301.62C534.04 301.67 533.36 301.57 532.7 301.62L532.69 301.61ZM404.01 122.23V135.57L409.83 124.56C403.92 117.12 397.19 113.91 391.47 123.77C392.14 127.15 394.32 130.02 395.37 133.21C396.73 137.37 396.95 141.72 398.01 145.9C398.25 146.83 398.01 147.98 399.34 148.23C399.63 140.44 397.69 131.6 398.68 123.88C398.83 122.67 398.45 122.8 400.01 122.89C400.43 131.6 401.74 140.58 400.65 149.21L401.34 151.56C401.11 148.06 402.49 144.69 402.71 141.25C403.04 135.92 402.08 129.68 402.66 124.53C402.77 123.53 402.8 122.47 404.02 122.22L404.01 122.23ZM600.7 213.59C618.4 193.04 621.41 163.56 612.69 138.24C611.45 138.08 612.2 139.58 612.33 140.27C612.97 143.71 614.14 147.06 614.62 150.66C617.08 169.28 615.97 182.28 608.16 199.37C605.92 204.26 602.72 208.61 600.71 213.59H600.7ZM329.67 163.58C332.64 163.17 337.14 163.58 340.34 163.58C357.08 163.58 377.86 190.54 383.93 204.67L393.34 232.26C391.63 217.92 386.12 204.83 378.55 192.72C369.61 178.4 356.31 163.44 338.68 160.91C338.52 159.73 340.19 160.25 340.93 160.33C347.05 160.97 355.57 163.68 360.36 167.58C362.26 167.76 360.91 166.76 360.33 166.27C351.73 158.99 333.13 156.77 323.54 162.79C322.5 163.44 315.77 169.42 316.67 170.25C341.53 161.64 358.63 179.37 370.95 198.32C382.43 215.97 389.64 236.16 393.01 256.95C395.45 256.95 388.03 231.31 387.35 229.26C380.81 209.48 367.39 185.39 350.61 172.65C343.96 167.6 335.99 166.3 328 164.92C327.75 164.25 329.39 163.63 329.66 163.59L329.67 163.58ZM474.68 161.58C458.11 156.71 444.06 166.46 432.34 176.91C431.33 175.84 433.67 174.22 434.36 173.6C438.58 169.85 444.39 166.35 449.34 163.57C449.53 162.51 448.46 162.86 447.82 163.05C442.58 164.56 432.61 172.49 430.18 177.42C427.16 183.57 423.42 188.13 420.33 194.24C412.37 209.94 409.19 227.54 407.35 244.93L412.21 220.79C418.94 197.09 435.67 167.92 461.98 163.21L474.68 161.59V161.58ZM482.02 168.91C476.06 163.1 462.79 165.92 455.78 169.01C438.62 176.58 420.39 206.89 415.17 224.42C414.6 226.32 413.96 228.24 414.02 230.26L419.44 217.36C427.26 200.45 443.28 173.13 462.68 168.58C469.37 167.01 475.34 167.5 482.02 168.91ZM621.76 227.98C627.24 219.71 632.17 210.11 634.49 200.37C636.47 192.05 636.98 178.43 635.19 170.08C635.05 169.44 634.95 168.08 634.04 168.24C637.36 186.25 634.91 203.7 625.65 219.53C612.48 242.03 592.05 263.96 567.04 272.94C559.98 275.48 552.04 277.13 544.85 279.42C544.04 279.68 542.03 279.92 542.03 280.92C553.53 278.17 565.43 276.06 576.04 270.6C596.33 260.17 609.33 246.7 621.76 227.97V227.98ZM392 265.6C388.73 249.2 383.98 233.79 376.35 218.91C367.38 201.43 348.87 170.92 326.32 171.54C312.41 171.92 305.97 188.21 319.85 194.74C327.05 198.12 337.18 195.92 337.01 186.92C332.19 192.84 325.01 195.52 318.65 189.94C312.29 184.36 317.56 176.71 324.38 175.62C348.85 171.72 371.85 212.61 379.92 231.35C384.38 241.7 386.98 252.72 390.59 263.35C390.89 264.22 390.79 265.38 392.01 265.59L392 265.6ZM467.36 185.58C464.59 194.73 475.95 199.44 483.02 194.24C493.16 186.78 490.61 172.67 477.71 171.55C456.55 169.71 440.26 190.77 430.4 206.97C419.68 224.6 412.25 245.08 409.35 265.59L416.67 240.58C424.69 218.03 447.22 175.2 475.09 174.99C484.24 174.92 492.14 184.16 483.31 190.54C475.86 195.92 471.59 192.05 467.36 185.58ZM191.98 307.61C175.71 286.55 163.1 263.95 157.64 237.6C154.11 220.55 154.19 204.96 155.79 187.72C155.86 186.98 156.58 185.45 155.32 185.59C147.38 225.99 158.28 264.1 181.44 297.15C188.29 306.92 194.58 312.59 199.15 324.11C206.04 341.47 210.81 359.69 205.99 378.29C211.92 372.2 210.4 358.21 209.02 350.25C203.76 319.97 189.1 299.22 175.64 272.95C165.8 253.74 158.11 233.57 157.98 211.59C156.82 211.43 157.35 213.1 157.32 213.91C156.62 231.18 162.87 250.97 170.08 266.5C176.62 280.59 186.06 293.23 191.98 307.6V307.61ZM598.03 378.95C587.13 360.52 595.32 334.7 604.35 316.93C610.79 304.27 619.6 296.59 626.57 285.14C644.52 255.66 648.96 230.04 646.73 195.89C646.58 193.56 645.65 191.32 646.03 188.92L645.34 195.95C647.94 216.26 645.43 235.38 638.71 254.61C632.86 271.37 624.58 285.22 614.22 299.48C613.38 300.63 613.39 301.14 613.38 299.31C616.62 291.02 622.11 283.94 626.16 276.07C631.72 265.25 640.43 244.44 641.36 232.58C641.42 231.84 641.85 230.1 640.71 230.27C633.93 275.78 593.24 308.5 590.7 355.3C590.38 361.16 591.22 373.5 595.68 377.64C596.41 378.32 596.83 379.21 598.03 378.96V378.95ZM612.27 252.5C612.75 251.97 613.64 251.71 614.32 250.9C616.93 247.78 620.26 243.06 622.32 239.54C623.36 237.75 625.19 235.04 625.04 232.93C617.55 246.59 606.07 258.55 592.91 266.81C583.28 272.85 571.28 279.31 560.16 281.4C553.87 282.58 547.41 282.75 541.23 284.48C540.54 284.67 539.21 284.64 539.37 285.6C546.28 285.21 553.44 285.2 560.29 284.19C585.43 280.49 606.66 271.1 621.65 250.21C622.87 248.52 625.31 245.65 625.04 243.6C618.46 251.98 612.46 261.35 603.43 267.4C599.03 270.35 587.6 276.43 582.68 277.93C580.16 278.7 576.28 279.45 573.69 279.62C572.36 279.7 572.65 279.47 572.7 278.29C588.09 273.2 601.54 264.57 612.27 252.51V252.5ZM616.02 266.93L624.03 254.93L614.71 265.94C614.24 267.04 615.6 267.29 616.03 266.93H616.02ZM401.87 272.41C400.38 271.55 396.63 272.99 396.11 274.74C395.13 278.04 399.05 280.4 399.35 283.6C400.11 284.17 405.64 274.58 401.87 272.41ZM639.37 334.28C639.41 325.27 630.58 326.94 630.68 335.3C630.72 338.94 635.93 344.84 639.17 346.15C649.65 350.38 660.73 343.83 664.36 333.61C673.49 307.87 637.3 286.77 618.71 305.96C618.58 307.73 619 306.63 619.85 306.43C625.29 305.14 631.36 302.88 637.04 302.89C653.68 302.9 669.19 318.9 660.15 335.4C653.25 348.01 634.32 349.58 632.71 332.96C637.99 338.39 641.83 341.7 649.03 336.29C658.77 328.99 651.42 314.81 641.38 311.94C623.57 306.86 614.67 329.15 609.53 342.13C606.7 349.28 600.4 365.73 600.18 372.83C600.03 377.58 609.34 384.46 613.67 385.68C624.79 388.8 636.7 380.21 644.07 372.67C650.04 366.56 655.66 358.8 657.37 350.31C642.8 359.71 619.59 350.74 622.86 331.46C624.15 323.85 633.58 317.04 640.92 321.75C645.84 324.9 645.83 333.23 639.37 334.31V334.28ZM177.32 306.94C174.52 298.7 163.14 298.12 155.83 299.11C134.8 301.96 124.19 334.3 145.54 345.06C152.27 348.46 163.04 348.41 167.61 341.57C173.02 333.48 164.69 322.3 161.31 334.95C154.59 334.04 153.64 324.64 159.99 321.95C166.34 319.26 173.02 322.19 175.81 328.13C182.57 342.55 169.39 355.1 155.07 354.2C151.33 353.97 147.68 352.27 143.99 351.95C150.8 369.39 170.22 392.74 191.31 384.62C198.64 381.8 200.6 378.44 199.98 370.64C199.02 358.66 186.43 328.65 178.64 319.3C165.87 303.98 141.55 314.01 147.64 332.3C150.02 339.45 161.89 343.31 164.01 333.97C164.24 332.96 163.49 332.78 165.31 332.95C167.77 342.75 159.11 346.71 150.5 344.1C136.82 339.95 133.38 326.29 140.75 314.72C148.52 302.53 165.02 301.8 177.31 306.94H177.32ZM553.69 317.61C558.45 318.01 564.14 317.61 569.02 317.61C569.21 317.61 572.72 316.9 572.68 316.28C564.27 317.27 554.96 316.49 546.66 314.63C538.36 312.77 530.68 308.56 522.52 306.1C482.6 294.02 449.45 306.71 435.99 347.27C435.41 349.01 429.91 369.63 431.67 369.63C436.15 338.03 452.05 309.92 485.85 304.45C514.31 299.85 529.77 315.59 553.68 317.61H553.69ZM551.36 326.29C540.35 326.36 530.58 319.68 520.37 316.27C494.79 307.71 471.39 310.86 454.79 333.4C453.08 335.73 444.2 350.04 444.73 351.86C474.78 369.96 514.09 358.4 539.67 337.61C540.7 336.77 552.23 326.93 551.35 326.3L551.36 326.29ZM625.37 311.62C607.27 317.58 602.52 339.86 598.71 356.29C599.67 356.45 599.58 355.16 599.86 354.46C601.57 350.17 602.4 345.15 604.02 340.61C608.42 328.35 614.63 319.14 625.37 311.62ZM248.66 326.29C274.76 354.04 320.86 372.72 356.51 351.98C349.78 334.48 337.78 318.54 318.8 313.81C310.23 311.67 299.22 311.64 290.52 313.14C275.99 315.65 263.38 324.69 248.65 326.29H248.66ZM202.65 360.95C201.9 351.08 198.84 341 194.34 332.27C191.92 327.58 185.67 317.1 181.35 314.59C180.48 314.08 180.04 313.25 178.66 313.62C177.79 314.42 184.53 320.35 185.3 321.3C190.06 327.14 193.26 334.03 196.5 340.78L202.65 360.96V360.95ZM538.69 365.62L539.64 362.91C550.81 355.53 559.93 346.3 566.97 334.89C568.49 332.43 570.93 329.13 571.03 326.28C565.41 334.09 559.53 343.15 552.03 349.29C550.13 350.85 534.94 361.03 533.52 361.45C532.59 361.73 531.63 361.64 530.69 361.61C529.32 360.38 537.34 356.78 538.24 356.16C545.5 351.16 556.94 340.22 561.49 332.73C562.08 331.76 563.59 329.4 563.03 328.27C557.19 335.48 550.47 342.07 542.9 347.48C516.52 366.33 479.96 374.94 448.68 364.28L454.23 367.72C457.93 369.4 470.91 373.76 474.36 373.56C475.57 373.49 477.38 371.45 479.34 372.27V375.61C472.33 375.07 465.69 374.59 458.98 372.3L448 366.95C453.04 373.13 461.86 376.84 469.35 379.33C470.29 379.64 471.11 379.2 472.02 379.25L472.67 380.94C462.43 380.14 452.52 375.65 446.01 367.61C446.26 371.32 449.71 374.57 452.36 376.93C453.37 377.83 463.3 384.23 462 385.62C453.98 380.91 447.79 376.33 443 368.27C442.78 367.9 442.38 365.71 441.35 366.96C439.58 369.1 456.21 388.7 458.68 391.3L458.36 392.29C452.02 385.67 444.26 380.47 439.68 372.29C439.24 373.89 440.94 376.22 441.74 377.57C446.92 386.38 454.97 393.44 462.36 400.29C463.16 399.35 462.03 397.96 462.08 396.7C462.11 395.98 462.51 392.56 463.35 392.29C466.56 404.24 487.67 420.51 499.6 413.52C505.76 409.91 507.37 401.95 503.05 396.26C499.62 391.75 492.19 388.49 490.14 395.85C491.28 398.46 496.21 399.26 495.28 402.48C493.65 408.13 485.6 402.31 484.85 397.11C483.02 384.45 501.42 382 508.15 393.84C516.73 408.93 504.92 423.37 488 420.66C474.42 418.48 471.74 410.3 463.03 402.95C461.41 401.58 458.88 400.49 457.05 398.93C450.09 393.01 441.42 385.12 438.69 376.28C436.98 377.04 438.98 380.7 439.46 381.85C445.65 396.49 460.19 405.42 472.03 414.95C457.75 409.23 443.68 398.55 437.35 384.29C436.19 384.11 436.66 385.85 436.84 386.47C438.31 391.68 447.48 402.57 451.68 406.31C469.75 422.39 497.99 428.49 520.71 419.3C521.9 418.82 523.21 416.97 524.03 417.96L521.37 420.63C523.8 421.71 525.33 416.86 526.26 415.85C528.45 413.47 532.44 411.8 532.7 407.63C532.28 407.14 523.54 414.86 521.38 413.3L533.41 405.82C536.72 399.37 536.01 387.92 528.71 384.62C518.67 380.08 513.8 392.73 525.36 393.97C528.58 396.31 521.22 399.68 516.47 396.86C510.14 393.09 511.34 384.04 516.75 380C523 375.34 530.91 377.59 536.37 382.29L541.02 388.27C552.43 378.03 561.1 367.9 568.58 354.48C570.24 351.51 573.46 346.03 574.57 343.13C574.81 342.52 575.11 341.43 574.05 341.61C568.73 349.61 564.53 359.72 558.38 366.95C553.12 373.14 545.75 378.45 539.03 382.94C537.95 382.27 539.25 381.47 539.7 380.94C541.93 378.28 544.82 376.56 547.07 374.31C552.71 368.69 558.44 362.67 562.71 355.95L541.99 372.57L538.7 374.28L539.04 372.29C553.06 360.52 568.58 349.39 574.71 331.28L567.64 342.22C563.28 347.92 547.93 362.04 541.74 365C540.69 365.5 539.91 365.83 538.69 365.61V365.62ZM542.68 396.29C545.81 390.97 551.55 386.99 555.7 382.3C562.56 374.56 569.26 364.53 574.14 355.4C574.99 353.81 576.1 352.2 576.02 350.29L566.98 364.25C559.39 373.73 552.01 384.35 540.73 389.69L541.35 395.96L542.67 396.29H542.68ZM533.36 418.29L545.37 409.97C561.22 395.62 576.79 378.22 582.03 356.95L576.15 370.06C567.9 384.74 556.34 397.34 543.68 408.27C541.75 409.94 538.67 411.1 536.99 412.92C535.59 414.44 534.93 416.79 533.36 418.28V418.29ZM544.69 402.96C550.23 394.24 558.77 388.49 564.97 380.24C569.57 374.12 574.3 366.24 576.69 358.96L567.24 373.84C560.21 383.18 551.93 391.78 541.68 397.62L540.03 408.97C541.6 407.3 547.25 404.38 548.02 402.63C548.15 402.34 548.19 401.54 547.7 401.64L544.7 402.96H544.69ZM574.7 386.96C579.84 382.35 582.67 375.63 584.02 368.96L574.7 386.96ZM414.01 395.63L413.68 369.62C412.15 377.67 411.83 386.04 412.34 394.24C412.42 395.51 412.83 395.77 414.01 395.63ZM227.99 403.63L214.66 382.96C214.53 387.11 217.19 388.66 218.93 391.68C221.17 395.56 222.98 398.7 225.49 402.46C226.31 403.7 226.33 403.84 227.99 403.62V403.63ZM455.35 421.64C457.93 424.66 462.97 426.55 466.71 427.94C503.51 441.61 538.67 428.71 564.37 400.97L572.69 389.62C568.57 392.93 566.02 397.93 562.39 401.65C538.14 426.55 504.02 439.31 470.04 427.93C464.98 426.24 460.15 423.89 455.35 421.63V421.64ZM520.69 421.64C517.2 422.8 513.65 423.9 510.03 424.64C498.99 426.89 485.23 425.92 474.27 423.05C461.64 419.75 450.49 410.57 441.36 401.63C441.07 402.88 442.05 403.22 442.69 403.97C459.58 424.02 487.75 434.33 513.21 425.81C515.89 424.91 518.95 424.1 520.7 421.64H520.69ZM429.35 415.63C416.21 405.79 400.81 401.95 385 407.62C374.77 411.29 367.46 417.66 358.61 423.23C356.42 424.61 351.56 424.91 352.02 428.3C355.72 429.18 357.32 425.86 359.79 424.41C381.35 411.77 396.64 402.61 422.2 412.46C424.64 413.4 426.8 415.12 429.36 415.63H429.35ZM234.66 409.62C235.09 409.1 230.78 405.45 229.33 406.3C229.12 409.45 232.17 410.76 234.66 409.62ZM570.69 406.3C569.78 405.44 564.39 410.09 565.36 410.96C566.98 411.86 571.41 406.99 570.69 406.3ZM242.66 418.3C243.7 417.38 237.21 411.46 237.34 414.64C237.35 414.97 241.52 419.31 242.66 418.3ZM556.03 419.63C557.56 419.34 563 416.25 562.69 414.65C562.49 413.59 561.88 413.74 561.03 414.3C559.45 415.33 557.35 418.13 556.03 419.63ZM251.99 424.97C253.74 423.18 247.53 420.73 246.67 420.31C245.66 422.54 251.04 425.95 251.99 424.97ZM553.36 421.64C552.08 422.03 546.39 423.55 546.7 425.29C546.96 426.79 548.21 425.83 548.88 425.49C550.5 424.69 552.46 423.26 553.36 421.64ZM263.24 429.06L256.67 426.31C256.04 428.68 262.86 431.51 263.33 430.97L263.24 429.06ZM542.69 427.64C541.8 426.84 533.91 431.18 533.36 432.96C534.91 433.81 544.23 429.03 542.69 427.64ZM347.33 429.64C346.8 429.11 343.15 430.49 342.29 430.92C341.43 431.35 340.62 430.88 341.34 432.64C342.46 435.36 348.94 431.27 347.33 429.65V429.64ZM275.29 433.68L268.66 432.31C269.37 435.4 272.65 435.04 275 436.29L275.29 433.67V433.68ZM335.94 434.35C335.08 434.37 329.36 435.13 330.01 436.63C330.85 438.58 335.23 436.29 336.67 436.3L335.94 434.35ZM469.97 435.69L464.01 434.31C463.97 436.86 467.53 436.51 469.09 437.57C470.52 438.01 470.01 436.63 469.97 435.69ZM528.02 434.98C525.59 434 523.42 435.78 521.09 436.25L520.7 438.31C521.04 438.68 525 437.41 525.82 437.08C526.92 436.63 528.45 436.61 528.03 434.99L528.02 434.98ZM289.33 438.31L280.66 436.98C281.78 439.38 287.83 440.97 289.33 438.31ZM325.33 436.98L319.34 437.97L320.45 439.67C321.86 439.67 323.36 439.89 324.68 439.33L325.33 436.98ZM314 438.31L308 438.98V440.98H314.01V438.32L314 438.31ZM514.68 438.31C512.63 438.2 510.8 438.23 508.79 438.78C507.61 439.11 507.06 438.57 507.35 440.3C509.33 440.46 511.22 440.25 513.14 439.73C514.28 439.42 515 440.21 514.68 438.31ZM302.67 438.98C301.01 439.02 299.32 438.91 297.66 438.98C296.63 439.02 295.02 438.35 295.34 439.97C297.17 441.88 300.33 440.68 302.67 440.98V438.99V438.98ZM500.69 438.98L496.01 439.29L495.36 441.64H500.69V438.98ZM395.35 454.97C396.17 455.89 400.66 451.49 397.67 450.31C395.22 449.34 395.3 453.53 395.35 454.97ZM399.92 459.56C401.36 457.08 395.5 455.37 395.33 456.67L397.02 651.04L400 649.34C393.79 647.78 399.38 643.46 399.35 642.01C399.34 641.4 398.07 641.65 397.67 641.04C396.45 639.17 397.58 636.48 399.33 635.33C399.7 633.72 396.41 634.46 397.46 631.49C397.87 630.33 399.36 629.93 399.35 628.68C399.35 628.06 396.93 628.64 397.34 625.39C397.7 622.58 399.78 621.83 397.27 618.01L399.36 615.98C399.91 614.13 396.99 614.22 397.32 611.35C397.54 609.47 401.7 607.78 397.67 606.36L397.29 604.67L400.01 601.34C396.43 600.75 396.16 597.41 399.36 595.98C399.9 594.19 396.45 593.77 397.4 590.78L400 588.67C397 587.36 395.92 584.83 399.36 583.33C398.96 582.07 398.07 581.5 397.94 580.02C397.54 575.43 398.25 568.26 398.43 563.45C398.54 560.26 399.2 557.94 399.3 556.02C399.37 554.63 397.83 553.15 398.12 551.48C398.32 550.33 399.79 549.24 399.79 548.68C399.79 548.07 398.31 546.61 398.63 543.98C398.79 542.61 400.05 541.32 399.95 540.76C399.68 539.25 395.2 536.88 400.68 533.99C400.95 532.96 399.16 532.3 398.81 531.2C397.9 528.26 399.77 526.83 399.76 526C399.76 525.57 398.68 524.64 398.61 523.34C398.47 521.01 399.93 514.6 399.74 512.67C399.68 512.03 398.55 511.33 398.64 510.03C398.75 508.48 400.98 507.77 400.68 506.67C400.46 505.85 397.59 506.42 398.84 502.16C399.13 501.17 400.47 500.21 400.47 499.33C400.47 498.45 399.1 497.48 398.84 496.5C397.65 492.02 400.79 490.24 400.64 489.41L398.02 486.01L400.72 480.71C394.62 477.55 400.63 474.41 400.7 473.96C401.13 471.55 398.06 471.85 397.99 470.01L400.62 465.41C400.27 463.35 393.46 462.53 399.91 459.57L399.92 459.56ZM403.01 656.35C399.98 655.58 394.08 656.92 390.68 656.35C390.51 657.69 390.55 657.45 391.51 657.86C395.03 659.36 400.29 657.78 404.02 657.68C404.04 657.26 403.25 656.41 403.02 656.35H403.01ZM402.01 663.68C401.75 662.34 400.6 662.59 399.67 662.36C394.79 661.11 390.15 660.59 390.68 667.02L402.01 663.68ZM403.34 669.03C402.93 668.48 391.1 667.39 389.79 667.81C388.91 668.09 388.5 668.77 388.68 669.69C389.77 670.86 402.34 672.53 403.35 669.04L403.34 669.03ZM394.67 671.69C393.68 671.44 393.82 671.69 393.34 672.1C389.35 675.51 387.46 677.72 388 683.36C388.4 687.56 391.87 693.6 396 695.02L391.33 685.37C392.12 684.2 392.99 686.04 393.76 686.19C394.66 686.36 396.19 685.51 397.3 685.66L397.27 681.74C392.33 681.78 398.29 678.62 397.91 676.79C396.47 674.78 394.02 674.86 394.68 671.69H394.67Z" fill="black"/>
<path d="M397.34 320.94C396.38 321.1 396.44 319.78 396.21 319.08C391.47 304.45 388.52 288.71 379.23 276.04C377.78 274.07 371.6 266.57 370.02 265.24C369.19 264.54 368.36 264.74 368.68 265.91C369.27 268.02 377.87 277.42 379.87 280.73C381.09 282.74 382.54 285.65 383.45 287.82C383.85 288.78 385.06 290.67 384.34 291.59C381.8 287.83 379.83 283.7 377.35 279.91C357.25 249.17 328.8 234.08 294.14 224.43C268.93 217.41 239.68 214.49 219.65 196.24C218.56 196.92 219.88 197.71 220.32 198.24C227.07 206.42 234.48 212.54 242.66 219.24C242.76 219.74 242.02 219.67 241.68 219.56C232.19 216.57 217.03 197.79 211.07 189.49C209.69 187.56 207.81 185.25 207.34 182.89C228.4 207.59 263.8 212.05 293.49 220.42C316.95 227.04 336.28 233.99 356.23 248.36C380.77 266.03 395 290.49 397.35 320.92L397.34 320.94Z" fill="black"/>
<path d="M404.67 316.27C403.42 316.42 404.21 314.95 404.31 314.25C409.27 282.04 433.93 255.15 461.14 239.05C490.1 221.91 526.16 218.46 557.52 206.75C570 202.09 579.52 196.38 590.02 188.25C590.5 188.76 587.59 192.27 587.04 192.93C582.47 198.28 580.15 199.97 574.23 202.78C519.81 228.67 464.03 224.04 423.46 276.72C414.59 288.24 409.19 302.58 404.67 316.28V316.27Z" fill="black"/>
<path d="M305.48 403.49L305.44 399.07C308.22 398.1 310.92 397.34 309.53 393.8C303.6 387.43 295.88 396.23 295.33 402.63C294.69 410.04 300.97 415.92 308.23 415.58C319.93 415.02 331.21 403.95 338.34 395.63L338.99 398.95C344.23 395.39 350.54 391.29 354.68 386.45C357.57 383.07 358.95 378.23 361.99 374.95C359.65 387.39 347.82 393.66 339.32 401.28C329.06 410.48 318.75 426.02 302.01 420.61C292.28 417.46 288.75 409.94 290.16 400.13C291.57 390.32 303.02 381.66 311.34 388.6C317.84 394.01 314.2 408.82 305.47 403.49H305.48Z" fill="black"/>
<path d="M361.77 283.84C362.33 284.46 364.66 288.46 362.35 287.6L336.62 267.98C329.5 264.48 319.43 259.94 314.69 253.93C311.65 250.07 298.66 248.87 293.76 248.82L292.69 247.85C292.56 243.24 297.42 243.9 300.83 244.42C312.56 246.18 333.43 262.26 343.54 269.72C347.8 272.87 358.73 280.48 361.76 283.84H361.77Z" fill="black"/>
<path d="M505.85 249.43C504.85 250.46 498.36 249.32 495.85 249.75C494.21 250.03 488.3 252.75 487.32 253.91C486.81 254.51 487.3 255.58 486.43 256.27C484.38 257.9 477.62 260.28 474.68 261.91C465.66 266.93 456.39 272.54 448.08 278.65C444.77 281.09 441.72 285.29 437.36 286.26C445.77 276.91 456.2 269.42 466.75 262.65C473.1 258.58 479.81 255.32 486.25 251.48C491.02 248.64 492.43 245.24 499.2 244.42C502.38 244.03 509.62 245.56 505.85 249.43Z" fill="black"/>
<path d="M390.67 328.94C388.9 330.98 387.23 320.36 387 319.61C381.01 299.51 369.8 278.48 355.37 263.24C353.67 261.45 350.04 260.28 350 256.93C367.28 269.41 380.25 288.18 386.84 308.43C388.94 314.89 390.9 322.13 390.66 328.94H390.67Z" fill="black"/>
<path d="M376.67 373.62C375.73 373.78 375.7 372.44 375.54 371.77C373.58 363.88 373.25 355.05 371.16 346.81C366.78 329.55 355.24 309.27 341.66 297.63C340.58 296.7 327.48 287.95 328.68 286.95C344.08 292.99 356.26 308.32 364.13 322.5C372.66 337.86 376.45 356.08 376.68 373.62H376.67Z" fill="black"/>
<path d="M272.53 233.73C272.94 234.35 272.4 235.91 273.3 236.64C280.85 233.75 289.26 238.37 282.94 246.21C276.19 254.58 259.46 239.84 266.6 233.87C267.98 232.71 271.73 232.51 272.53 233.73Z" fill="black"/>
<path d="M227.09 222.49C234.23 229.86 241.08 237.19 249.99 242.6C249.56 243.47 248.17 242.65 247.52 242.4C238.12 238.71 217.73 217.29 211.05 208.86C207.36 204.19 204.09 198.86 201.31 193.6C200.03 193.57 200.65 196.43 200.81 197.1C202.39 203.59 212.89 216.41 217.64 221.61C221.17 225.48 225.22 229.33 229.31 232.61C228.85 233.55 227.65 232.52 227.09 232.16C222.66 229.29 216.82 223.93 213.29 219.96C204.75 210.37 200.64 200.03 196.62 187.95C192.6 175.87 189.53 163.56 190.64 150.26L193.5 171.73C198.53 193.01 212.46 207.42 227.07 222.5L227.09 222.49Z" fill="black"/>
<path d="M528.69 234.26C540.75 236.58 527.92 254.05 519.4 249.21C509.68 243.68 517.51 230.39 526.97 238.26L528.68 234.26H528.69Z" fill="black"/>
<path d="M443.35 263.61C442.2 267.49 438.69 269.4 436.34 272.26C423.97 287.31 415.49 306.82 411.2 325.8L408.02 331.61C409.78 320.57 412.09 309.44 416.57 299.16C421.25 288.41 430.42 276.27 438.35 267.59C438.94 266.94 442.63 262.87 443.36 263.61H443.35Z" fill="black"/>
<path d="M243.33 230.25C234.82 226.49 227.23 218.48 220.99 211.6C213.06 202.86 204.84 192.98 200.65 181.93C198.33 175.79 196.58 169.36 195.33 162.92L203.88 184.04C208.05 193.29 219.33 206.48 226.32 214.27C231.52 220.08 237.71 224.9 243.33 230.26V230.25Z" fill="black"/>
<path d="M597.76 187.34C597.04 188.72 595.49 188.45 594.79 189.28C590.72 194.13 587.47 202.25 583.03 207.6C579.55 211.79 573.06 218.58 569.05 222.3C566.46 224.7 563.13 227.23 560.02 228.93C558.69 227.35 569.56 219.15 571.02 217.6C583.49 204.44 592.87 190.18 600.59 173.82C601.43 172.04 602.09 170.12 602.69 168.25C604.06 168.25 603.19 170.86 603.05 171.61C602.31 175.52 599.57 183.86 597.75 187.34H597.76Z" fill="black"/>
<path d="M609.36 169.24C607.92 186.29 594.66 216.25 581 226.89C579.53 228.04 577.8 229.83 576.03 230.24C579.71 226.01 583.84 222.3 587.34 217.88C596.87 205.82 600.15 193.32 605.18 179.04L609.37 154.89C609.08 159.55 609.76 164.62 609.37 169.23L609.36 169.24Z" fill="black"/>
<path d="M366.01 389.63C356.33 409.5 334.35 424.4 312.01 424.29L329.2 419.15C337.18 416.18 348.6 408.6 354.69 402.64C358.16 399.24 360.62 394.57 363.87 391.15C364.52 390.47 364.53 389.26 366.01 389.63Z" fill="black"/>
<path d="M550.7 243.59L564.04 232.6C570.91 225.94 578.11 219.49 584.01 211.9C588.42 206.23 591.53 199.66 596.02 194.25C592.39 208.87 581.41 220.06 570.34 229.57C566.26 233.07 560.59 237.78 556.25 240.81C554.64 241.93 552.76 243.62 550.7 243.58V243.59Z" fill="black"/>
<path d="M348.67 256.93C347.48 258.07 330.62 245.77 328.21 244.39C317.15 238.08 306.54 235.92 295.17 231.42C294.46 231.14 293.18 231.23 293.34 230.27C299.48 230.77 306.27 233.1 312.15 235.12C323.37 238.99 338.8 246.32 347.36 254.59C348.08 255.28 348.92 255.76 348.68 256.93H348.67Z" fill="black"/>
<path d="M380.67 366.95C379.55 366.36 379.29 363.53 379 362.29C374.1 341.29 373.28 332.36 362.35 312.92C360.58 309.77 358.15 306.91 356.68 303.6C372.75 320.5 379.6 344.02 380.67 366.94V366.95Z" fill="black"/>
<path d="M494.68 234.26C495 236 494.35 235.43 493.35 235.9C487.2 238.77 479.52 240.29 473.56 244.15L448.01 259.6C460.54 247.39 477.71 238.54 494.68 234.27V234.26Z" fill="black"/>
<path d="M399.66 327.89C404.33 327.67 405.42 335.9 400.91 337.51C395.91 337.42 395.16 328.1 399.66 327.89Z" fill="black"/>
<path d="M336.67 409.63C343.18 404.26 350.45 399.76 355.99 393.28C358.42 390.43 360.24 387.13 362.67 384.3C361.59 390.25 356.08 395.77 351.69 399.65C347.3 403.53 341.82 407.42 336.67 409.63Z" fill="black"/>
<path d="M330 299.6L316.02 295.25L301.33 292.95C311.2 292.65 322.49 292.01 330 299.6Z" fill="black"/>
<path d="M558.7 219.59C558.47 218.31 559.55 217.66 560.38 216.94C565.28 212.61 572.17 209.43 576.69 204.26C578.69 206.57 561.05 218.81 558.7 219.6V219.59Z" fill="black"/>
<path d="M348.67 373.63C344.72 378.23 337.18 380.19 331.34 380.29C331.01 378.34 331.81 379.21 332.89 378.88C335.85 377.97 338.9 377.48 341.85 376.47C344.27 375.64 346.24 374.16 348.67 373.63Z" fill="black"/>
<path d="M284.66 226.93C284.81 228.12 283.16 227.58 282.42 227.51C278.13 227.1 271.75 225.66 267.65 224.27C266.91 224.02 265.23 223.89 265.33 222.93L284.66 226.93Z" fill="black"/>
<path d="M285.33 365.62C285.4 367.01 285.38 369.29 284.35 370.3C280.55 374.03 278.2 364.14 285.33 365.62Z" fill="black"/>
<path d="M297.91 371.05C298.5 378.09 292.63 378.21 294.3 370.93L296.17 370.42L297.91 371.05Z" fill="black"/>
<path d="M508.68 230.26C509 232 508.35 231.43 507.35 231.9C504.48 233.24 500.5 234.41 497.35 234.25L504.05 231.29L508.68 230.26Z" fill="black"/>
<path d="M537.36 222.93C534.62 226.2 529.18 225.58 525.36 226.92C525.09 225.32 525.53 225.66 526.68 225.28C530.04 224.17 533.96 224.11 537.35 222.93H537.36Z" fill="black"/>
<path d="M302.68 376.28V371.63L305.37 371.91C307 374.51 305.95 376.92 302.68 376.28Z" fill="black"/>
<path d="M551.36 262.26L560.9 257.47C573.87 255.21 585.05 244.58 594.71 235.93C598.41 232.62 601.58 228.79 605.36 225.58C605.36 226.9 604.14 228.23 603.35 229.23C594.01 241.08 575.16 255.41 560.85 260.07C557.96 261.01 554.39 261.85 551.37 262.25L551.36 262.26Z" fill="black"/>
<path d="M568.69 261.61C567.65 263.3 564.73 264.09 562.86 264.78C547.59 270.39 531.53 274.38 515.35 276.27C515.02 274.32 515.82 275.19 516.9 274.86C523.94 272.69 530.95 273.32 538.15 271.41C548.29 268.72 558.47 263.82 568.68 261.61H568.69Z" fill="black"/>
<path d="M494.03 377.63C494.03 376.08 492.18 375.37 492 373.95C491.4 369.1 500.05 373.95 494.03 377.63Z" fill="black"/>
<path d="M527.3 372.24C524.46 374.22 522.56 368.37 525.03 367.63C527.5 366.89 528.5 371.4 527.3 372.24Z" fill="black"/>
<path d="M503.87 371.14C505.06 372.31 503.94 375.97 502.37 375.63C499.47 375 500.48 367.79 503.87 371.14Z" fill="black"/>
<path d="M518.68 370.95C516.34 372.61 513.77 361.77 519.99 367.38L518.68 370.95Z" fill="black"/>
<path d="M535.22 369.47C531.87 371.46 530.39 364.48 534.89 365.73C537.02 366.32 536.42 368.75 535.22 369.47Z" fill="black"/>
<path d="M487.35 376.29H484.01C484.07 374.72 483.49 372.75 485.02 371.63C486.7 371.27 487.67 375.06 487.35 376.29Z" fill="black"/>
<path d="M179.52 364.48C183.44 359.71 194.76 363.82 190.58 371.22C186.89 377.77 174.34 370.79 179.52 364.48Z" fill="black"/>
<path d="M614.52 362.45C623.15 360.88 625.35 369.89 620.28 372.88C610.82 378.47 604.57 364.26 614.52 362.45Z" fill="black"/>
<path d="M392.67 191.58C391.68 191.75 391.84 190.33 391.67 189.59C389.88 181.58 388.64 173.47 386.34 165.58C380.31 144.87 370.7 124.9 355.34 109.57C360.57 111.92 365.72 118.04 369.32 122.58C384.8 142.12 391.18 166.99 392.67 191.57V191.58Z" fill="black"/>
</g>
<defs>
<clipPath id="clip0_8061_307">
<rect width="544.7" height="603.08" fill="white" transform="translate(128 98)"/>
</clipPath>
</defs>
</svg>
