<svg width="800" height="800" viewBox="0 0 800 800" fill="none" xmlns="http://www.w3.org/2000/svg">
<g clip-path="url(#clip0_8061_309)">
<path d="M162.757 638.426C165.022 624.736 195.845 610.101 207.64 605.785C238.999 594.307 269.833 590.034 295.558 566.014C310.637 551.938 335.107 512.876 344.862 493.882C371.188 442.612 376.19 369.459 363.772 313.572C362.002 305.605 357.29 294.567 356.539 287.158C356.399 285.827 356.582 285.709 357.247 287.018C358.76 289.971 360.317 293.332 361.111 296.564C362.109 296.564 361.744 294.062 361.701 293.407C361.046 283.121 356.839 268.014 353.845 257.931C349.595 243.576 343.8 229.338 334.033 217.881C333.604 217.796 333.668 218.429 333.754 218.719C335.547 224.453 342.007 233.343 344.68 239.721C345.152 240.848 345.764 242.341 346.032 243.5C346.172 244.08 346.783 245.358 345.721 245.24C341.524 235.641 335.493 226.321 328.624 218.44L339.367 239.334L341.449 245.24C336.673 238.529 332.885 230.487 327.97 223.948C327.573 223.422 326.821 222.155 326.929 223.851C333.207 234.406 338.702 245.53 343.542 256.836C345.592 261.636 348.415 267.799 349.971 272.641C350.325 273.726 351.13 275.54 350.572 276.603C341.213 258.865 332.166 240.365 320.543 223.969C309.993 209.098 301.976 206.103 288.475 195.612C278.751 188.064 270.842 178.272 259.101 173.386C258.961 172.345 260.281 172.925 260.839 173.064C264.553 174.052 268.481 176.339 271.625 178.519C273.192 176.833 263.05 170.53 261.762 169.865C246.952 162.209 223.287 160.255 209.507 170.831C209.421 171.271 210.033 171.185 210.344 171.099C213.886 170.187 217.653 168.168 221.388 167.32C222.343 167.105 223.255 166.729 222.032 167.964C210.999 173.064 199.644 175.963 190.897 184.993C174.38 202.044 194.546 212.738 190.446 229.875C190.071 231.443 189.674 232.441 187.86 232.119C186.497 228.254 185.821 224.184 184.587 220.276C179.736 204.986 173.704 198.866 184.769 184.263C206.47 155.649 237.636 149.593 271.26 145.974C275.006 145.566 278.376 143.515 282.132 143.172C295.676 141.916 310.294 148.09 323.741 148.927C351.613 150.656 369.096 136.59 392.159 158.601C405.532 171.368 417.283 184.779 432.738 195.559C442.096 202.087 453.376 206.446 460.824 215.358C471.621 228.275 474.626 250.383 480.368 266.521C491.583 298.046 508.905 330.085 515.87 362.727C517.276 369.319 517.458 378.016 519.691 383.997C523.232 393.467 533.621 404.72 540.629 412.086C547.122 418.914 554.077 425.314 561.192 431.477L562.319 431.531C569.724 426.248 576.314 426.044 584.363 429.92C590.03 432.647 594.698 437.211 599.743 440.754C611.13 448.764 622.699 456.495 634.021 464.591L632.122 469.927C625.543 465.621 618.76 461.756 612.267 457.3C607.148 453.778 599.71 448.71 595.085 444.834C594.323 444.201 589.504 438.649 589.096 439.143C584.835 465.965 573.577 491.97 561.375 516.054C544.826 548.706 520.152 584.375 492.774 608.791C486.024 614.815 478.393 620.71 469.399 622.761C474.497 628.215 481.935 631.49 488.159 635.634C497.443 641.83 506.962 648.272 515.569 655.241L511.148 658L509.463 657.667C496.767 648.616 482.868 640.413 470.355 631.189C459.654 623.308 452.528 616.49 454.589 601.973C455.243 597.346 457.283 593.008 457.733 588.552C446.55 579.361 435.174 569.278 422.478 562.203C406.648 553.377 402.741 556.48 385.913 555.449C372.841 554.654 360.628 550.252 348.297 546.322C347.095 551.605 347.052 557.156 346.214 562.503C343.521 579.737 340.966 600.277 336.802 616.952C334.817 624.887 333.829 627.195 326.735 631.393C306.87 643.129 279.106 656.54 256.053 647.177C251.041 645.148 247.327 640.928 242.305 638.695C233.955 634.969 224.478 634.206 215.903 631.458C209.571 629.428 199.183 624.79 202.713 616.35C202.853 616.028 206.191 613.376 203.529 613.065C193.248 618.401 176.559 625.713 171.021 636.429C168.22 641.851 169.315 655.906 159.387 650.366C148.161 644.085 150.866 610.982 150.147 599.697C148.698 576.784 136.463 556.598 128.704 535.66C122.876 519.93 121.352 505.746 120.579 489.082C119.592 467.769 118.122 456.999 132.825 440.282C147.528 423.564 166.675 412.44 184.383 400.597C170.366 383.514 173.532 360.16 191.809 347.63C186.604 342.573 181.002 336.753 178.137 329.957C170.517 311.929 180.047 290.905 198.667 285.182C188.332 273.124 184.114 256.943 191.155 242.04C192.915 238.325 198.474 231.711 201.801 229.317C203.851 227.835 206.545 227.448 208.369 225.623C210.763 223.239 215.131 215.058 214.336 211.632C209.55 217.366 206.073 226.01 198.667 228.737C198.667 227.556 198.528 226.332 198.796 225.161C199.644 221.446 204.28 213.501 206.416 209.968C210.044 203.955 214.54 198.705 218.629 193.1C218.501 192.499 217.191 193.54 216.955 193.712C208.616 200.025 202.982 208.776 197.24 217.323L199.826 207.37L195.823 207.058L196.961 201.926C196.306 201.421 189.996 204.847 188.418 203.343C197.251 195.473 208.026 189.771 219.048 185.52C231.047 180.902 237.711 178.583 250.665 182.116C276.39 189.138 301.407 211.235 316.218 232.86C326.639 248.075 332.81 264.578 341.439 280.608C347.502 291.872 348.726 291.85 351.591 305.24C352.611 310.018 354.425 314.785 354.274 319.67L353.706 321.657L352.557 315.107C351.752 314.184 351.988 315.708 352.053 316.17C353.373 325.125 356.539 334.584 358.095 343.775C359.158 350.057 359.909 356.37 360.531 362.705L359.576 361.116L350.271 323.944L349.767 326.446L355.401 358.722L346.279 329.076L345.871 330.912L350.271 358.153L340.591 331.363C342.265 343.528 345.581 355.511 347.352 367.644C350.711 390.686 351.935 413.61 346.687 436.405C342.759 453.499 336.148 471.946 325.48 485.893L325.201 485.045C336.652 467.565 341.439 446.208 344.594 425.754L344.004 419.741C342.115 433.721 337.468 447.164 332.295 460.21L329.74 464.494C335.89 445.639 341.213 426.796 342.855 406.899L342.297 404.344C340.376 419.097 336.491 433.453 331.468 447.4C329.043 454.143 326.027 462.98 322.26 468.971C321.895 469.551 321.08 470.732 321.208 469.068C326.628 455.7 331.855 441.216 335.171 427.15C336.341 422.168 337.736 415.854 338.23 410.819C338.305 410.045 338.841 407.361 337.736 407.189C335.826 418.442 332.402 429.684 328.463 440.4C325.233 449.193 320.865 459.394 316.186 467.457C316.025 467.726 315.327 469.272 314.93 468.477C321.466 452.715 328.635 435.804 332.22 419.065C334.817 406.942 335.085 393.854 337.564 381.635L337.167 379.809C336.888 382.956 335.461 386.23 334.924 389.258C332.466 403.184 332.713 412.837 328.195 427C323.891 440.475 318.193 454.498 309.811 465.911C318.01 448.302 325.845 430.113 330.61 411.173C333.196 400.876 333.626 391.599 333.175 380.958L331.597 381.935L326.907 399.77C325.877 399.77 326.295 397.311 326.349 396.645C326.617 393.295 328.098 389.044 328.098 385.801C328.098 384.802 328.12 383.557 326.918 383.245C322.249 402.798 314.018 422.919 302.116 439.122C302.019 437.039 304.015 434.483 304.96 432.272C308.619 423.693 312.708 414.319 315.95 405.633C316.518 404.119 317.334 402.025 317.667 400.5C317.795 399.931 318.246 398.503 317.237 398.643C316.164 403.442 313.503 407.909 311.056 412.139C308.287 416.95 303.629 424.412 300.119 428.567C299.701 429.061 298.842 430.21 299.003 428.589C301.783 423.95 304.455 419.054 306.891 414.244C307.149 413.728 308.083 412.741 307.267 412.333C303.972 414.254 300.699 417.905 298.134 420.869C282.572 438.886 264.896 472.16 260.507 495.557C259.702 499.852 259.68 504.136 259.144 508.452C259.004 509.58 259.272 509.279 260.238 509.257C259.777 501.376 262.739 493.57 265.519 486.312C268.298 479.054 272.58 469.841 277.431 463.442C277.829 462.916 278.58 461.649 278.472 463.345C267.815 483.005 260.249 504.576 257.952 526.931L256.825 524.086L255.688 537.196C257.405 537.475 256.6 536.777 256.836 535.811C261.344 517.321 265.765 495.922 274.963 479.215C275.296 478.603 278.15 473.46 278.472 473.9C272.216 490.113 266.506 506.831 262.675 523.946C258.811 541.211 258.113 559.701 246.844 574.25L249.721 564.007C251.513 555.932 251.148 547.697 251.116 539.472L243.281 565.563L242.573 565.435C244.161 556.963 248.529 548.674 249.839 540.191C250.579 535.36 250.365 530.098 251.116 525.224L243.002 551.025C240.502 557.124 237.711 563.115 234.739 568.989C234.116 570.213 234.009 570.352 234.052 568.87C238.033 558.777 241.918 548.62 245.02 538.216C246.855 532.074 248.959 524.612 250.279 518.384C250.504 517.321 250.837 516.119 250.976 515.088C251.052 514.465 251.61 513.123 250.569 513.252L240.738 540.771C235.404 552.346 231.637 564.747 224.833 575.603C224.468 576.183 223.652 577.364 223.781 575.699C237.024 547.46 246.662 517.6 255.119 487.59C252.994 489.726 251.771 493.667 250.708 496.577C244.988 512.146 239.665 527.844 233 543.294C228.728 553.194 223.727 563.996 218.79 573.563C218.157 574.776 218.071 574.948 218.104 573.445C220.1 567.582 223.362 562.235 225.756 556.576C231.637 542.715 236.638 527.962 242.176 514.261C243.56 510.836 244.795 507.335 245.986 503.835C245.986 501.645 243.7 505.875 243.625 506.036C240.394 512.811 237.089 519.715 233.934 526.566C230.778 533.416 228.482 540.9 224.629 547.471L223.996 546.838C236.971 516.666 249.238 485.7 265.293 457.01C268.449 451.384 272.377 446.166 275.07 440.282C271.582 443.932 268.545 448.184 265.937 452.522C260.356 461.831 254.915 471.752 249.699 481.319C239.182 500.582 230.746 520.757 221.495 540.632L221.323 538.463C230.66 515.367 240.19 492.239 252.758 470.689C256.332 464.558 261.183 458.771 263.683 452.254C256.6 460.36 249.946 469.433 244.076 478.527C239.418 485.754 235.672 493.656 231.122 500.915C230.757 501.494 229.941 502.675 230.07 501.011C237.175 484.959 245.964 469.712 256.868 455.969C259.691 452.415 263.05 449.183 265.959 445.672C271.776 438.639 276.83 431.09 283.645 424.884C282.282 425.142 280.694 426.538 279.653 427.44C272.162 433.839 262.503 445.092 255.999 452.812C246.125 464.548 237.121 477.11 228.643 489.877C227.784 489.437 228.804 488.502 229.029 487.976C230.456 484.605 232.839 480.31 234.739 477.153C246.501 457.676 262.696 440.389 277.378 423.166C276.959 422.78 273.139 426.087 272.548 426.602C234.309 460.156 208.788 500.324 184.748 544.615C182.14 549.415 179.8 554.44 177.632 559.454C176.559 559.572 177.16 558.294 177.342 557.736C178.609 553.871 180.83 549.039 182.505 545.216C187.538 533.706 194.01 522.883 198.152 510.986L176.967 545.957L172.502 555.46C171.365 555.556 172.169 553.817 172.33 553.291C173.522 549.329 175.722 545.463 177.138 541.566L193.022 512.704C192.561 512.178 186.808 519.791 186.293 520.51C181.324 527.382 175.979 535.542 171.472 542.747C169.905 545.249 168.778 548.191 167.286 550.542C166.921 551.122 166.106 552.303 166.245 550.639C172.985 534.683 182.644 519.533 193.612 506.165C195.984 503.277 199.097 500.431 201.565 497.586C202.703 496.265 204.452 494.376 204.999 492.754C188.246 507.926 173.554 525.653 163.101 545.775C161.995 546.988 162.06 546.108 162.489 545.163C169.39 529.937 177.117 517.267 187.914 504.458C197.659 492.894 209.604 483.306 219.241 471.656C215.957 473.116 212.877 476.305 210.119 478.774C194.578 492.679 180.423 507.121 168.295 524.182C164.861 529.014 161.716 534.06 158.829 539.236C157.509 539.816 158.561 538.398 158.722 537.99C166.642 517.514 188.976 493.667 205.557 479.354C218.876 467.855 233.977 458.159 245.664 444.802C246.179 444.211 249.324 440.775 248.884 440.303C238.742 449.054 228.782 458.062 218.383 466.513C206.835 475.897 195.029 483.982 184.19 494.451C172.223 506.015 163.24 519.715 154.569 533.803C153.828 533.438 154.526 532.246 154.74 531.698C165.741 503.9 200.739 478.023 223.523 459.662C231.798 452.994 239.665 445.704 248.046 439.154C253.359 435.01 257.587 433.088 262.589 427.483C263.587 426.366 264.263 425.024 265.422 424.047C264.746 423.22 263.576 424.627 262.975 425.024C243.721 437.715 222.686 454.208 204.999 469.089C198.217 474.791 191.659 480.868 185.338 487.053C184.415 486.484 185.531 485.797 185.907 485.346C192.153 477.894 202.263 470.002 209.861 463.699C218.254 456.742 226.979 449.977 235.511 443.17C244.29 436.169 256.031 429.222 263.136 420.632C263.673 419.988 264.521 419.709 264.274 418.635C263.598 417.97 249.442 427.021 247.8 428.084C227.87 441.001 205.847 458.041 188.751 474.49C173.565 489.093 162.51 507.722 151.993 525.825C150.802 525.889 151.66 524.225 151.875 523.71C157.413 510.052 174.638 486.677 184.769 475.639C202.831 455.969 226.453 442.042 246.05 424.616C246.748 423.993 252.415 418.646 251.738 418.055C242.852 418.152 234.17 424.605 226.711 429.222C217.588 434.87 208.455 441.044 199.698 447.239C177.922 462.647 156.2 479.655 145.156 504.726C144.029 504.812 144.716 503.008 144.845 502.418C151.327 474.125 193.612 445.929 215.882 429.222C217.202 428.234 218.801 427.096 220.389 426.592L220.11 425.464C215.903 428.621 211.149 430.919 206.759 433.775C196.778 440.282 187.463 448.42 177.589 454.777C176.656 455.378 174.756 456.892 173.65 456.538L204.463 432.057C210.237 428.782 215.903 425.228 220.948 420.901L203.894 430.35L178.147 449.075L166.224 455.679C175.99 446.606 188.729 441.13 198.131 431.445C197.111 430.124 197.294 430.843 196.381 431.38C193.892 432.83 192.26 435.493 190.468 436.867C187.044 439.476 181.989 441.42 178.265 443.481C174.541 445.543 171.139 448.828 166.803 449.397L194.729 430.296C194.321 429.501 193.237 430.264 192.7 430.554C184.19 435.031 176.194 440.947 167.887 445.65C167.168 446.058 166.61 446.735 165.666 446.552C165.505 445.382 167.394 444.383 168.241 443.717C171.783 440.958 175.529 437.823 179.156 435.257C184.029 431.81 189.609 428.793 194.718 425.743L186.722 428.578L163.938 440.851L177.482 430.618L194.718 422.039C194.847 420.976 193.57 421.62 192.979 421.728C190.318 422.222 187.162 423.22 184.64 424.219C177.224 427.171 170.56 432.304 163.369 435.718C172.126 427.601 182.709 421.695 193.57 416.896C193.591 415.747 191.284 416.423 190.693 416.584C188.128 417.261 182.998 419.441 180.476 420.622C174.445 423.435 169.068 427.665 162.8 430.017C166.996 426.742 171.44 423.478 175.958 420.665C178.448 419.108 191.348 412.483 192.174 411.227C193.763 408.789 187.71 409.391 186.476 410.679C186.186 410.679 186.229 409.573 185.81 409.487C179.843 408.242 154.88 427.375 149.685 432.025C138.867 441.72 127.502 452.092 126.332 467.393C125.108 483.381 126.128 510.374 130.872 525.557C138.781 550.875 152.884 571.061 155.384 599.106C156.618 613.022 154.601 628.097 159.119 641.561C159.677 643.215 160.815 646.554 162.8 646.715C163.09 644.171 162.403 640.874 162.8 638.448L162.757 638.426ZM295.183 162.95C299.712 167.17 319.427 169.059 324.943 166.601C328.581 164.979 329.322 159.611 326.371 157.12C324.621 155.638 315.563 153.651 312.773 153.05C304.316 151.214 295.569 150.173 287.015 148.895C286.672 149.195 290.611 156.228 291.115 157.044C292.027 158.526 294.066 161.898 295.193 162.95H295.183ZM509.28 368.997V377.265C509.28 380.067 503.474 388.721 501.65 391.298C501.306 391.781 501.306 392.372 501.274 392.93C499.825 391.867 500.244 393.199 499.342 394.101C497.443 396.001 495.5 397.87 493.611 399.791C493.193 399.963 493.912 398.074 491.476 398.782C489.748 399.287 485.981 402.24 484.017 403.313C468.616 411.71 451.906 419.816 433.918 419.312L428.359 420.89C440.755 420.493 452.689 420.933 464.559 416.917C474.83 413.449 498.602 400.565 504.311 391.663C506.147 388.807 508.186 384.91 508.722 381.56L509.13 383.396L504.44 402.658C510.214 392.071 511.953 376.61 509.119 364.906C508.98 364.337 508.958 363.188 508.154 363.328C506.844 375.064 498.977 385.35 490.488 392.973C491.1 391.556 492.302 388.389 493.075 387.304C497.453 381.173 502.186 375.461 505.406 368.278C506.737 365.293 509.313 360.321 506.447 357.626C505.438 367.268 498.001 375.139 491.626 381.871L484.779 386.703C489.597 380.422 495.94 374.956 500.061 368.074C501.553 365.583 505.878 356.467 505.846 353.997C505.846 353.557 505.524 351.807 504.73 351.936C501.768 359.849 497.732 367.945 491.315 373.582C489.726 374.978 487.301 376.749 485.347 377.587C491.905 370.865 497.775 363.36 501.403 354.599C502.712 351.442 504.172 348.532 503.013 345.096C502.465 344.527 500.158 351.936 499.696 352.891C498.527 355.339 496.337 358.818 494.706 361.009C493.708 362.351 485.551 371.875 484.21 370.747C491.787 361.814 499.782 351.989 501.306 339.964C499.793 339.652 500.33 340.35 499.89 341.091C498.537 343.378 497.808 346.127 496.477 348.532C493.182 354.47 488.932 359.645 483.652 363.918L495.715 345.483C497.174 342.605 500.287 337 499.106 333.929C498.806 333.156 499.31 332.942 497.904 333.124C496.069 341.564 490.574 349.144 484.221 354.792L491.154 343.775C493.44 338.589 497.292 333.339 496.756 327.433C495.103 327.111 495.844 327.917 495.468 328.679C492.077 335.669 488.75 343.013 482.514 347.952C483.866 344.538 486.507 341.8 488.31 338.643C489.866 335.905 494.073 328.088 494.427 325.383C494.62 323.933 494.964 321.206 493.343 320.583C491.679 327.326 487.29 334.863 481.945 339.395L491.948 319.466C492.452 317.695 492.291 314.817 490.488 313.733C489.887 320.486 485.079 327.455 480.228 331.975L489.039 314.86C489.93 312.584 490.435 309.202 488.213 307.462C487.15 312.874 483.802 318.135 480.228 322.29C481.205 319.23 483.061 316.503 484.317 313.55C486.024 309.502 489.329 304.219 485.358 300.622C484.618 304.617 482.471 309.105 479.659 312.025C481.527 306.27 485.712 300.708 483.641 294.352L478.522 303.468C479.455 298.314 483.448 293.504 481.355 288.081L477.373 295.49C478.135 290.959 480.754 287.126 479.069 282.38C477.513 280.748 477.996 286.653 476.805 286.374C476.654 284.109 477.974 282.401 477.706 280.093C477.352 276.915 473.091 268.014 471.846 264.245C470.73 260.873 470.108 257.201 468.809 253.883C467.747 254.442 468.412 256.45 467.94 257.845C465.901 263.837 448.386 273.769 442.408 276.786C439.757 278.128 436.945 279.406 434.047 280.104L455.093 267.81C459.043 264.202 464.398 261.142 466.931 256.278C467.188 255.795 469.313 251.36 467.392 252.176C460.567 260.068 451.434 267.026 441.453 270.408L466.995 250.619L464.538 239.055C461.372 244.585 455.844 248.021 450.521 251.264C448.976 252.208 447.205 253.529 445.445 253.873C448.504 251.113 452.013 248.858 455.147 246.185C457.207 244.435 460.449 240.226 462.391 239.002C463.003 238.615 463.647 238.862 464.248 239.055C465.063 237.595 460.17 226.568 459.01 224.624C452.904 214.37 438.93 208.175 429.304 201.314C412.239 189.149 397.794 173.988 383.026 159.224L382.189 163.777C381.545 159.578 380.568 157.775 376.973 155.595C367.754 150.012 357.537 153.737 347.696 154.65C342.63 155.122 337.124 155.155 332.026 155.23C334.828 160.373 331.973 167.91 326.489 169.929C319.416 172.538 302.298 170.992 295.537 167.492C288.389 163.787 286.618 155.262 281.016 150.097C271.7 158.741 276.755 172.689 283.109 181.633C298.713 203.601 350.089 220.523 369.063 194.26L377.628 179.743C376.995 191.071 370.598 199.059 362.817 206.532C369.171 203.912 373.356 197.298 378.497 192.853C379.184 193.218 378.69 194.528 378.465 195.097C377.306 198.039 372.412 203.805 369.965 205.985L361.69 211.665C370.33 209.496 377.059 202.495 383.058 196.278C383.488 196.192 383.434 196.858 383.337 197.116C381.728 201.121 376.479 206.983 373.088 209.678C369.096 212.856 364.556 214.403 360.542 217.366C370.48 214.907 378.465 208.626 386.181 202.259C386.632 201.883 387.308 200.756 387.888 201.69C381.652 211.471 372.036 218.751 360.531 221.081C361.229 222.037 361.884 221.983 362.946 221.844C365.919 221.457 370.673 218.59 373.839 217.871L393.018 205.416C385.999 214.961 375.943 223.003 363.955 225.075C364.534 225.612 364.889 226.396 365.833 226.396C366.649 226.396 374.913 223.218 376.308 222.617C378.551 221.64 381.406 220.222 383.498 218.977C385.022 218.075 396.399 209.399 397 209.968C390.71 220.04 379.141 225.236 368.505 229.628C370.319 232.259 371.156 230.079 373.238 229.241C375.739 228.243 378.529 227.631 380.858 226.6C388.038 223.411 394.982 218.644 401.282 213.962L402.13 214.242C394.488 223.111 384.067 230.423 372.498 233.064C373.174 234.02 373.936 233.934 374.966 233.891C380.772 233.601 386.493 229.284 391.794 227.298L406.111 218.536C398.856 227.287 388.199 234.556 377.048 237.359C376.919 238.379 378.325 237.906 378.959 237.853C389.433 236.865 400.788 227.717 410.093 223.1C410.307 224.12 409.567 224.496 408.966 225.108C404.641 229.456 395.379 235.877 389.777 238.422C389.047 238.755 380.751 241.299 381.599 241.922C393.662 240.827 402.892 232.506 413.516 227.674C413.012 228.619 412.046 229.531 411.241 230.24C406.583 234.374 399.178 240.451 393.554 242.77C390.786 243.909 387.727 244.359 385.012 245.626C385.012 247.591 398.244 243.017 399.243 242.76C405.414 241.149 411.617 240.086 417.498 237.37C413.184 241.761 406.873 243.372 401.529 246.196L389.004 249.911C399.554 249.556 409.76 246.12 419.773 243.082C414.343 248.053 406.895 250.394 400.026 252.713C399.146 253.014 398.395 252.208 398.695 253.916C402.698 253.894 407.335 252.971 411.241 251.929C415.631 250.759 420.063 248.128 424.345 247.924L410.662 255.333L397.568 259.617C407.034 260.508 415.674 256.02 424.485 253.765C425.075 253.615 426.266 252.885 426.631 253.636C418.925 259.789 410.275 261.442 401.249 264.159C400.487 264.384 399.479 264.202 399.275 265.319C409.374 265.641 419.247 262.505 428.617 259.048L428.906 260.186C423.261 263.343 417.487 265.888 411.359 268.014L401.55 270.451C404.265 271.868 408.859 270.934 412.025 270.386C418.153 269.324 424.281 266.714 430.613 266.467L426.438 268.84C422.886 269.914 419.387 271.976 415.942 273.167C413.527 274.005 408.676 274.606 407.227 275.293C406.97 275.422 406.508 276.045 406.669 276.152C416.468 277.258 426.148 273.898 435.732 272.169L421.78 277.87L403.814 283.282C412.218 284.441 420.535 281.8 428.885 281.285L414.085 286.138L403.246 288.124C403.063 288.296 404.04 289.37 404.394 289.531C407.946 291.131 417.702 287.33 422.049 288.124C422.328 289.703 421.716 289.08 420.804 289.413C415.759 291.195 409.674 292.645 404.416 293.858L404.383 296.102L426.041 292.119L406.09 299.806L405.521 301.804L429.454 296.682L406.927 306.356L407.217 307.816C408 308.332 408.816 308.053 409.642 307.956C416.564 307.097 424.131 303.833 431.16 302.963L408.44 312.433L408.376 314.355L431.74 309.234L408.934 319.209C408.977 320.207 408.494 320.712 409.792 320.637C415.856 320.282 422.832 318.156 428.885 317.212L423.326 319.917C421.04 321.174 410.994 323.074 410.082 324.921C409.846 326.209 410.64 325.705 411.499 325.769C418.013 326.242 423.208 324.663 429.454 323.493L420.203 327.058L411.273 329.248V331.975C416.371 333.725 421.405 330.644 426.599 330.901L412.915 336.302L412.347 338.868L428.305 336.592L413.162 342.852L413.495 346.277L428.874 343.432L414.461 349.82C412.733 350.776 413.119 352.451 415.201 352.322C420.782 351.989 427.2 349.155 432.856 348.564L424.453 352.408C421.544 354.19 413.592 353.858 414.343 358.26L429.432 356.542L414.643 361.696L414.622 365.1L430.581 361.116C427.544 365.808 418.904 366.195 415.545 368.589C414.568 369.287 414.472 369.577 414.622 370.801L434.562 366.248C433.028 368.095 430.291 369.373 428.112 370.339C425.172 371.649 416.951 373.732 414.965 375.321C414.311 375.847 414.665 376.395 414.611 377.072C422.542 377.19 429.862 373.711 437.417 371.95C432.234 377.061 423.755 378.092 417.444 381.323C416.575 381.764 414.332 382.623 414.622 383.911C424.098 383.589 432.491 379.412 441.41 377.082C434.165 382.762 425.419 385.232 416.876 388.174L415.191 390.192C425 389.763 434.079 385.5 443.685 383.933L429.99 390.461C426.374 392.533 420.449 392.673 417.069 394.638C416.285 395.099 415.545 395.346 415.759 396.463L448.246 391.91L417.477 402.733C422.092 402.658 427.404 402.787 431.954 402.111C433.543 401.874 451.648 396.302 451.68 397.322C444.586 400.232 436.183 405.847 428.585 406.717C424.818 407.146 420.686 406.567 416.908 407.576C420.653 409.476 425.869 407.952 430.012 408.435L428.874 409.562C438.651 408.51 447.441 402.809 457.368 402.164L438.716 410.572C433.886 412.934 429.218 412.955 424.174 413.696C423.68 413.771 422.456 413.954 422.617 414.684C425.494 414.104 428.821 415.317 431.418 415.285C437.793 415.199 446.11 410.819 452.26 408.714C466.716 403.764 472.694 402.089 485.251 392.683C486.936 391.427 489.147 388.496 491.003 388.743C489.984 389.838 489.308 391.18 488.192 392.2C478.79 400.833 465.868 405.085 454.535 409.852C449.158 412.118 443.932 414.705 438.566 416.982L438.855 418.12C451.444 414.383 464.688 412.418 476.193 405.858C481.012 403.109 485.648 399.126 490.145 395.872L490.703 398.149C492.806 395.185 496.273 393.51 498.698 390.74C502.326 386.595 504.719 380.336 507.456 375.547L509.237 369.062L509.28 368.997ZM271.046 152.32C259.594 152.245 247.263 153.823 236.284 157.163C234.513 157.699 231.669 158.236 230.585 159.718C240.512 159.267 249.388 160.394 258.661 163.852C260.099 164.389 268.341 168.63 268.76 168.276C269.769 167.417 267.976 167.019 267.687 166.805C265.261 165.001 262.857 163.669 261.355 160.867L269.329 164.281L268.695 160.072L261.355 156.314L269.329 158.591L271.046 152.32ZM291.566 213.898C288.754 211.063 285.566 208.669 282.39 206.264C269.951 196.89 248.497 181.235 233.15 192.23C226.067 197.309 223.598 210.924 225.133 219.063C225.498 221.006 226.518 223.132 228.299 224.163C224.049 215.101 226.067 204.589 232.045 196.826C232.463 196.289 235.06 193.304 235.715 193.937C228.042 202.559 224.436 219.535 233.429 228.146C231.293 223.529 229.544 219.46 230.027 214.177C230.639 207.402 237.132 197.008 243.689 194.507C244.322 195.183 239.375 199.65 238.667 200.595C235.297 205.04 232.528 210.419 233.429 216.174L232.302 212.191C231.841 219.138 234.052 225.494 238.581 230.702C239.804 232.119 242.23 235.136 244.258 234.717C239.246 229.714 234.084 223.143 234.857 215.616C236.209 218.375 236.863 221.317 238.452 223.991C239.622 225.956 241.65 228.307 243.131 230.143C245.932 233.622 249.538 238.379 253.949 239.56C246.963 233.214 239.246 225.709 238.838 215.616C240.673 218.139 241.006 221.65 242.852 224.163C246.92 229.703 252.629 235.287 257.748 240.043L263.061 242.706C257.266 238.153 250.011 232.366 247.649 225.054C247.403 224.313 246.351 221.543 247.671 221.328C253.391 231.99 263.716 243.619 275.607 247.269C282.1 249.266 291.383 251.317 297.651 248.225C305.604 244.306 308.169 230.584 300.967 224.743C301.268 228.318 301.407 231.582 300.527 235.136C298.392 243.769 293.487 248.579 284.418 245.863C275.349 243.146 261.795 236.554 262.503 225.612C263.64 207.853 278.526 208.293 291.555 213.909L291.566 213.898ZM223.738 219.03C222.944 216.432 221.559 213.468 221.527 210.698C221.506 208.948 222.364 206.768 222.536 204.986C222.6 204.353 223.062 202.935 222.042 203.075C220.872 208.433 218.608 214.993 223.738 219.041V219.03ZM275.457 214.607C269.039 215.68 265.368 224.99 268.255 230.09C269.157 231.679 278.183 235.856 280.544 237.187C285.427 239.946 290.557 246.507 294.528 239.968C296.599 236.564 299.014 226.976 297.19 223.39C295.118 219.331 280.039 213.844 275.457 214.617V214.607ZM381.051 278.332C374.193 257.964 365.973 236.521 350.271 221.317C352.579 227.266 355.841 232.871 358.106 238.841C359.522 242.566 361.519 248.289 362.549 252.069C362.699 252.616 363.332 254.485 362.238 254.377C359.866 248.45 357.033 241.783 353.985 236.124C352.568 233.493 350.711 230.111 348.565 228.157C352.321 238.314 357.161 248.085 360.95 258.243C371.092 285.408 377.692 317.598 380.461 346.492C381.674 359.108 380.858 371.757 381.03 384.405C380.032 384.534 380.493 383.106 380.461 382.419C380.322 378.993 380.622 375.547 380.483 372.122C380.429 370.908 379.946 369.824 379.892 368.718C378.615 340.855 374.998 314.151 367.185 287.341L362.227 272.072C362.699 277.151 364.663 282.026 365.822 286.997C384.239 366.141 383.251 447.991 338.069 517.901C334.677 523.151 330.502 527.951 327.208 533.266C326.811 533.899 324.857 536.863 325.169 537.206C331.179 532.063 337.371 526.738 343.124 521.262C360.413 504.812 378.69 485.41 389.766 464.129C417.047 411.699 410.748 318.468 386.815 265.394C385.269 261.958 383.348 257.824 381.019 254.946C386.353 271.138 391.955 287.179 395.658 303.876C398.91 318.543 402.119 336.012 402.13 350.991C402.13 351.732 402.57 354.126 401.539 354.158C398.835 330.461 394.123 306.936 387.577 284.023C385.13 275.476 381.792 267.262 379.141 258.812C378.068 255.397 376.866 245.122 373.882 243.543C373.657 243.425 372.949 243.404 373.034 243.823C375.084 247.602 375.245 252.348 376.265 256.557C377.778 262.795 380.461 269.71 381.427 275.916C381.524 276.528 382.092 278.418 381.008 278.332H381.051ZM197.519 263.225C197.122 260.787 197.809 257.513 197.519 254.957H198.088V262.935C199.569 263.053 199.043 263.031 199.215 262.076C201.028 251.961 205.096 240.526 215.195 236.135C205.869 244.639 201.941 253.293 202.628 266.092C202.885 270.859 203.604 277.741 207.779 280.608C204.871 274.681 203.851 268.701 204.345 262.054C204.688 257.48 209.496 248.45 212.437 244.488C213.843 242.599 215.646 240.15 218.039 239.549C207.307 250.297 204.838 263.343 209.078 277.87C210.054 281.21 210.977 284.978 214.605 286.299C214.991 285.859 212.705 282.949 212.319 282.036C208.176 272.362 207.929 258.661 215.174 250.372C211.449 259.273 211.353 269.023 213.746 278.321C214.755 282.219 216.483 288.135 220.872 289.144C211.911 277.215 212.051 258.243 223.716 248.096C223.212 250.19 221.431 251.747 220.465 253.679C216.097 262.441 216.3 272.867 219.864 281.897C221.334 285.623 224.06 291.002 228.278 292.001C216.741 281.467 217.578 262.742 227.698 251.521C226.357 254.796 224.607 257.266 223.566 260.787C220.669 270.569 223.577 283.314 229.727 291.41C230.435 292.344 232.345 294.234 233.397 293.439C227.355 287.029 225.294 278.257 226.056 269.549L227.709 264.073V274.617C227.709 278.558 234.223 292.451 237.089 295.447C237.583 295.963 240.33 298.142 240.813 297.702C239.386 295.179 237.11 293.063 235.78 290.476C233.837 286.696 231.809 278.182 231.723 273.951C231.701 273.049 231.819 272.276 232.828 272.04C233.601 279.502 236.778 288.65 241.135 294.814C241.607 295.479 244.644 299.517 245.374 298.84C240.877 292.57 237.507 284.184 237.4 276.324C237.4 275.734 237.722 272.802 238.538 272.62C237.98 279.567 241.5 285.687 243.678 292.001L244.805 290.873C246.512 295.104 248.111 300.086 252.79 301.707L249.367 295.436L248.24 296.564C247.016 291.324 244.365 286.406 244.215 280.909C244.194 280.265 243.85 278.751 244.805 278.901C244.752 280.651 245.095 282.38 245.685 284.012C246.523 286.321 248.937 290.905 250.204 293.182C252.608 297.498 255.441 302.04 259.348 305.132L252.93 293.31C252.125 290.615 250.966 287.609 250.579 284.828C250.493 284.205 250.021 281.746 251.084 281.757C251.084 283.593 251.695 285.365 252.361 287.04C254.11 291.431 262.192 306.335 266.195 307.988C266.538 308.128 267.15 308.096 267.032 307.709C260.389 300.472 256.954 292.473 256.214 282.605C256.171 281.972 255.752 279.953 256.772 280.05C257.072 284.195 258.285 288.683 260.088 292.409C261.891 296.134 269.157 306.421 272.216 308.783C272.999 309.395 273.965 310.318 275.006 310.265C264.703 299.849 256.815 281.779 268.159 269.216C267.59 273.103 264.585 276.185 263.866 280.018C262.514 287.201 266.399 293.686 270.209 299.377C273.772 304.703 280.866 313.529 286.951 315.698C287.488 315.891 288.808 316.449 288.679 315.397C279.481 310.78 271.003 298.84 268.867 288.736C268.749 288.167 268.234 286.202 269.296 286.31C271.217 293.965 277.399 301.61 282.69 307.408C293.401 319.166 309.703 327.401 326.038 326.242C342.372 325.082 349.788 304.917 341.589 291.249C337.135 283.829 315.649 272.47 307.31 267.949C286.167 256.514 263.866 251.704 242.884 241.171C237.014 238.218 229.92 232.398 223.362 231.614C202.907 229.199 190.65 247.677 195.491 266.339C197.487 274.026 202.123 281.693 210.033 284.001C208.219 280.598 204.334 279.642 202.145 276.217C200.932 274.316 197.852 265.383 197.498 263.193L197.519 263.225ZM313.782 240.129L312.644 240.419C317.302 251.811 323.462 262.999 330.32 273.2C326.821 261.314 320.371 250.523 313.782 240.129ZM322.335 268.636C319.684 260.927 315.992 252.831 310.948 246.4C311.796 250.673 314.275 255.086 316.347 258.951C318.064 262.173 320.103 265.759 322.335 268.636ZM314.93 264.653C313.03 260.197 311.088 255.322 308.104 251.543C309.145 255.966 311.463 261.657 314.93 264.653ZM212.909 321.098V330.504C212.909 334.423 223.137 351.828 226.614 353.267C227.108 353.471 228.052 354.04 228.299 353.321C221.967 347.007 216.44 338.46 217.76 329.087C218.962 331.159 219.112 333.639 220.057 335.916C222.021 340.705 230.306 353.256 234.739 355.447C235.254 355.704 236.531 356.316 236.863 355.608C230.446 350.422 225.037 342.809 223.813 334.445C223.727 333.854 223.287 331.836 224.317 331.943C224.908 336.012 227.323 339.642 229.437 343.067C232.935 348.736 237.819 356.123 244.247 358.475C244.784 358.668 246.104 359.226 245.975 358.174C238.377 354.534 233.365 347.501 231.422 339.373C231.272 338.761 230.564 336.496 231.723 336.496C232.656 341.113 235.801 344.978 238.087 348.94L239.128 348.457L241.704 353.589L241.425 351.302L242.552 351.034C240.298 348.36 239.021 344.441 238.248 341.07C238.119 340.49 237.486 339.212 238.559 339.341C241.307 345.504 248.959 357.777 254.464 361.352C254.947 361.664 255.731 362.759 256.235 361.857C251.899 356.778 247.113 351.495 245.245 344.914C245.084 344.334 244.398 343.11 245.127 342.755C251.084 351.077 256.879 361.191 266.506 365.55C259.219 359.43 253.08 352.311 250.805 342.777C250.665 342.197 250.053 340.909 251.116 341.037C256.868 352.505 266.796 365.851 279.621 369.534L268.781 361.857C264.628 357.24 261.022 352.129 258.618 346.363C258.296 345.579 256.589 342.584 257.952 342.176C259.573 346.481 262.675 350.143 265.647 353.578C270.735 359.484 279.803 369.083 287.155 371.402C288.174 371.724 291.577 373.077 292.156 371.821C282.551 369.137 272.022 359.903 267.547 351.098C266.839 349.702 265.68 347.147 265.647 345.579C270.262 351.796 275.757 358.153 281.628 363.242C292.231 372.444 298.993 376.32 313.535 376.932C329.826 377.619 342.147 369.319 337.586 351.732C335.042 341.939 330.492 339.416 321.788 335.604C292.864 322.934 261.376 314.248 231.927 301.771C223.92 298.378 211.503 290.626 203.014 291.474C184.64 293.31 177.997 315.161 185.359 330.118C187.828 335.132 193.215 341.048 198.678 342.734C189.384 334.241 186.69 328.711 189.244 315.912C189.438 314.935 189.803 312.423 190.693 311.95C189.073 322.086 193.28 338.643 202.273 344.559C206.277 347.19 212.362 348.489 216.912 350.143L206.083 342.444C197.315 331.395 199.225 313.969 210.065 305.1C209.4 307.344 207.081 308.922 205.965 310.973C200.095 321.85 202.434 335.186 210.065 344.441C205.107 333.629 202.595 321.098 211.203 311.37C210.784 313.464 209.432 315.118 208.766 317.201C206.008 325.801 208.122 333.682 212.244 341.402C214.336 345.322 217.921 352.322 222.6 352.14C215.367 345.88 210.537 336.85 211.213 327.047L212.92 321.055L212.909 321.098ZM279.589 376.417C267.848 374.398 257.158 368.815 245.825 365.432C238.935 363.371 231.776 362.179 224.876 360.16C213.21 356.757 200.127 347.77 189.513 357.863C174.273 372.347 183.835 400.897 203.218 406.062C193.076 398.793 183.567 389.323 185.048 375.633C185.113 375.042 185.274 372.959 186.111 373.002C185.392 379.487 187.409 387.057 190.586 392.769C191.08 393.661 191.648 395.561 192.958 395.239C192.722 393.585 191.327 392.576 190.672 390.976C187.946 384.308 187.506 377.759 190.2 371.08C192.421 365.561 196.95 357.519 202.66 355.329C190.672 366.506 188.397 381.291 197.068 395.411C202.273 403.882 210.859 405.847 220.325 406.062L213.242 399.759C209.85 394.348 207.167 388.367 207.768 381.817L209.496 375.858C208.884 384.437 211.75 391.363 216.451 398.278C219.241 402.379 222.192 406.985 227.741 406.942C219.488 401.381 213.789 393.338 214.068 382.988C214.09 382.301 213.65 380.862 214.626 381.001C216.258 387.422 217.835 395.486 223.18 399.813C221.538 395.507 220.207 391.685 220.336 386.982C220.357 386.295 219.917 384.856 220.894 384.996C222.353 391.61 223.738 397.322 227.848 402.852C229.694 405.343 231.422 408.188 235.146 407.522C230.489 404.172 226.142 398.535 225.466 392.683C225.38 391.985 225.004 389.119 226.024 388.99C226.239 391.03 227.387 393.134 228.417 394.863C231.326 399.727 236.037 407.673 241.983 408.37L237.443 404.086C234.942 401.069 231.927 395.26 231.304 391.406C231.208 390.804 230.703 389.43 231.723 389.559C235.211 398.224 242.949 407.554 252.243 410.078L244.526 404.408C241.36 400.543 238.216 397.257 237.486 392.061C237.389 391.352 236.917 388.55 237.99 388.421C239.107 395.561 249.796 407.018 256.224 409.82C258.543 410.829 260.421 411.613 263.072 411.227L253.198 405.998C247.134 401.134 243.432 395.046 242.251 387.293C242.154 386.692 241.478 385.436 242.552 385.565C244.548 392.211 249.56 399.287 254.829 403.786C261.988 409.906 266.989 411.849 276.444 412.375C288.679 413.063 304.262 412.73 310.841 400.554C313.449 395.733 316.046 386.606 310.959 382.709C314.554 393.081 308.405 407.039 296.385 407.243C283.012 407.469 270.692 398.245 275.328 383.847C276.229 381.055 278.558 379.058 279.599 376.427L279.589 376.417ZM512.135 400.071C512.811 394.122 512.135 385.79 512.135 379.541C512.135 379.444 511.362 378.639 510.998 378.682V396.366L509.86 395.786C509.388 418.356 495.049 440.518 475.474 451.201C471.771 453.22 466.426 456.602 462.219 455.142C461.726 457.354 461.586 455.442 460.588 455.335C459.751 455.238 458.646 456.076 457.69 455.936L442.032 452.823C450.854 459.222 461.415 460.156 471.299 455.593C493.3 445.425 509.366 424.487 512.135 400.081V400.071ZM284.729 399.781C291.362 402.207 297.511 406.159 304.058 401.166C308.737 397.59 310.444 384.115 304.251 382.258C301.332 381.377 287.799 379.477 285.148 379.971C280.49 380.83 278.365 386.982 280.157 390.965L301.826 397.805C294.378 397.107 286.908 395.078 280.179 391.814C280.179 392.576 280.029 393.392 280.447 394.101C281.531 395.937 296.567 399.759 299.54 400.94C299.658 401.799 298.209 401.896 297.662 401.874C294.099 401.767 289.977 400.135 286.468 399.469C285.878 399.362 284.601 398.718 284.729 399.781ZM456.284 465.943C464.248 466.223 471.46 463.56 478.318 459.759C486.936 454.992 495.049 446.982 501.285 439.401C511.191 427.365 515.129 411.903 514.4 396.366L513.273 402.927C511.04 428.095 495.21 451.899 470.376 459.136C469.786 459.308 470.29 460.747 467.661 459.673L468.24 460.8C461.243 461.842 454.857 461.176 448.471 458.052L412.948 441.42C420.771 448.141 430.828 451.878 439.167 457.944C429.218 454.444 419.924 448.678 409.524 446.552L435.174 461.938C425.44 458.707 416.221 453.606 406.111 451.684C405.993 453.112 407.796 453.8 408.784 454.422C415.556 458.61 423.734 460.897 430.044 465.933C426.159 465.793 405.167 455.99 403.256 457.955L403.611 459.705C410.587 463.667 418.55 466.158 424.914 471.065C416.779 468.778 408.955 464.676 400.402 464.236L401.335 467.135L419.773 475.628C411.928 474.383 404.48 470.55 396.409 471.076L397 473.052L416.361 481.33C412.411 480.428 408.504 479.365 404.501 478.667C402.022 478.238 395.98 476.96 393.855 477.346C393.114 477.486 392.213 477.905 392.428 478.764L412.937 487.031L390.968 483.016L389.004 484.465L410.093 492.733C406.09 493.152 388.049 487.053 385.859 488.696C385.28 489.125 384.861 489.673 385.012 490.457L407.807 498.434C399.972 498.692 392.052 494.601 384.657 493.957C384.089 493.903 380.354 493.313 381.03 494.73L406.1 504.136L377.038 499.014C376.748 500.539 377.37 500.002 378.175 500.41C384.25 503.406 391.397 505.134 397.686 507.722L407.807 510.417C400.584 510.106 393.34 508.184 386.257 506.616C382.028 505.682 378.175 503.459 373.614 504.157C377.896 507.743 384.282 508.549 389.272 511.008L410.082 517.267C405.682 516.806 401.303 516.183 396.967 515.281C389.326 513.692 379.839 509.773 372.594 508.882C371.747 508.774 370.265 508.355 369.622 509.01C379.924 513.563 390.506 518.169 401.41 521.111C405.864 522.314 410.941 522.722 415.116 523.957C416.103 524.247 416.607 523.753 416.35 525.256C407.453 524.182 398.674 522.206 390.013 519.962C383.842 518.363 376.318 515.152 370.341 513.993C369.536 513.831 367.969 513.542 367.346 514.143C383.166 521.702 400.412 527.511 418.067 528.402C413.613 530.549 407.785 529.873 403.031 529.196C390.678 527.425 378.722 521.637 366.917 519.136C366.348 519.018 364.384 518.502 364.492 519.565C381.502 526.254 400.037 533.996 418.625 532.686C419.162 530.517 415.48 531.924 415.212 530.41C428.767 531.022 440.626 522.303 447.988 511.587C448.622 512.489 447.28 514.186 446.797 514.959C436.14 532.235 415.684 538.345 396.399 534.114C384.936 531.602 374.011 526.662 362.807 523.817C362.238 523.678 360.413 523.012 360.499 524.128C368.355 526.824 375.868 530.614 383.863 532.976C401.4 538.151 413.581 540.245 430.591 532.976C446.904 526.018 454.943 509.365 458.249 492.797L460.223 477.958C463.776 490.145 458.989 502.117 456.242 513.874C458.528 511.04 459.579 506.777 460.803 503.33C461.597 502.396 461.372 503.932 461.307 504.393C460.695 508.538 459.279 514.594 457.658 518.427C456.36 521.476 452.968 524.987 452.26 527.285C452.174 527.575 452.099 528.219 452.528 528.123C455.082 525.653 457.487 522.432 458.528 519.007C459.601 518.889 459 520.166 458.817 520.725C454.964 532.6 443.202 543.928 431.547 548.191C428.22 549.404 424.399 549.737 421.104 550.864C420.353 551.122 419.366 551.025 419.183 552.077C438.394 551.057 456.993 536.251 464.076 518.588C468.315 508.012 467.8 496.759 471.084 486.827C471.514 485.539 471.986 483.703 473.327 483.091C473.08 484.916 472.383 486.666 472.2 488.513C469.775 513.982 462.896 541.78 436.441 551.949L423.755 555.492C426.642 556.619 429.422 555.9 432.309 555.223C442.976 552.722 452.936 545.496 460.213 537.529L465.063 530.42C474.926 540.041 485.605 548.663 496.144 557.489C497.657 558.756 505.653 567.571 507.531 565.767C507.778 564.619 507.273 564.243 506.705 563.459C501.135 555.857 490.08 548.534 483.019 542.113C477.556 537.142 471.975 531.333 467.07 525.857L475.055 531.827C480.765 538.366 487.902 543.316 494.438 548.931C496.477 550.682 509.205 563.556 510.955 562.342C513.176 557.543 508.669 556.651 505.825 554.085C495.2 544.454 481.258 532.922 472.2 522.153C471.664 521.509 470.816 521.229 471.063 520.156C478.758 525.954 485.047 533.395 492.141 539.837C497.153 544.39 504.547 551.498 509.871 555.17C513.284 557.521 515.409 558.692 515.248 553.237C510.783 549.543 506.748 545.367 502.422 541.534C494.051 534.093 484.339 526.458 476.751 518.18C476.236 517.611 472.383 513.176 472.78 512.747L516.106 551.831C517.276 552.475 518.263 550.8 518.875 550.016C518.982 549.382 517.265 547.246 516.675 546.655C507.102 536.949 495.919 528.617 486.142 519.039C485.058 517.987 473.241 506.53 473.907 505.918C475.27 506.176 476.858 507.572 477.899 508.474C491.014 519.673 503.345 533.47 516.943 544.11C518.102 545.012 522.503 548.126 521.537 544.658C521.193 543.402 514.164 536.702 512.661 535.284C501.682 524.902 485.487 513.574 477.105 501.29C476.515 500.421 475.527 499.626 475.613 498.509C476.365 497.683 490.81 512.436 492.13 513.627C502.476 523.044 513.198 532.128 523.78 541.265L524.488 539.418C511.223 525.449 495.328 513.874 482.16 499.648L477.33 492.797C491.637 504.898 504.998 518.266 519.487 530.152C520.281 530.807 527.536 536.723 528.04 536.122C528.266 534.436 527.826 533.008 526.699 531.763C512.436 519.479 497.4 507.915 484.725 493.935L530.316 531.559L536.884 518.448C527.139 507.207 513.659 499.787 504.107 488.234L537.174 515.893C539.084 516.924 540.404 514.379 539.61 512.919L500.695 477.969L541.445 510.46C548.367 498.08 554.206 485.109 559.293 471.87L550.278 462.014L559.679 469.981C561.343 468.843 561.665 466.759 560.559 465.106C555.644 459.737 549.247 455.292 544.568 449.741C544.031 449.097 543.184 448.818 543.43 447.744L561.944 464.268C563.296 463.055 563.983 460.94 562.834 459.394C552.574 451.094 543.849 441.162 534.297 432.068L533.16 430.07L563.65 459.147C565.432 459.544 565.593 455.378 564.24 454.551C555.558 445.768 546.071 437.726 537.678 428.653C534.008 424.67 529.65 420.138 527.45 415.242L534.845 424.09L565.925 454.014L567.836 446.971C560.302 438.682 550.685 432.615 542.54 424.949C535.768 418.571 529.951 411.313 523.747 404.408C524.198 414.115 524.348 424.036 522.803 433.678C522.653 434.612 522.599 437.114 521.762 437.479C521.665 434.054 522.782 430.317 522.921 426.957C523.168 421.062 522.492 409.305 521.032 403.711C520.775 402.744 519.819 400.403 518.918 399.845C519.24 409.047 518.639 418.152 517.201 427.214L516.074 426.635C512.693 446.058 494.824 472.966 474.615 477.25C474.046 477.368 472.082 477.883 472.19 476.82C496.133 468.971 515.022 440.625 517.136 416.015C517.201 415.232 517.759 412.558 516.643 412.386C515.881 414.587 516.042 417.927 515.462 419.945C515.323 420.428 514.518 420.418 514.4 420.804C507.209 444.19 494.137 468.145 467.832 472.751L463.067 472.257C474.443 470.518 487.623 463.109 495.275 454.583C497.121 452.533 500.448 448.721 500.394 446.026C490.778 456.613 474.476 468.413 459.429 467.049C458.807 466.996 456.285 466.792 456.231 465.986L456.284 465.943ZM432.341 425.443C441.163 426.312 451.101 426.055 459.912 424.809C468.09 423.65 486.024 414.287 492.195 408.639C493.096 407.812 497.314 403.711 497.303 402.927C497.26 400.683 493.719 404.881 493.289 405.171C475.205 417.454 456.091 424.047 434.326 424.884C433.639 424.906 432.201 424.455 432.341 425.443ZM427.79 443.685C430.216 444.673 433.189 447.465 435.754 448.012C438.941 448.689 442.3 449.322 445.67 450.052C461.425 453.467 470 451.631 482.772 441.978C493.987 433.506 502.97 420.869 506.436 407.211L497.786 423.349C487.387 438.392 470.87 451.931 451.455 449.387C443.846 448.388 434.809 446.09 428.069 442.569L427.801 443.685H427.79ZM499.02 408.918C496.799 408.736 496.144 410.98 494.974 412C490.81 415.618 487.687 417.25 483.341 419.752C481.817 420.622 483.759 417.927 482.224 418.625L469.968 424.315C471.836 424.927 474.25 424.466 476.128 423.929C482.546 422.093 491.379 418.259 495.897 413.492C496.327 413.041 499.417 409.294 499.02 408.929V408.918ZM481.505 434.677C481.892 434.258 484.038 433.7 485.058 432.862C489.222 429.405 492.678 424.53 495.5 419.934C495.908 419.269 497.142 417.626 496.466 416.907C493.343 420.31 491.229 424.487 487.923 427.751C481.119 434.483 475.452 439.347 466.115 442.429C457.959 445.113 452.442 444.415 444.232 444.619C443.631 444.63 441.356 444.555 441.463 445.414C448.976 445.414 455.651 446.842 463.121 445.135C471.675 443.181 476.182 440.4 481.505 434.687V434.677ZM480.217 426.592C480.325 425.98 481.58 425.292 479.949 425.464C477.867 427.708 474.572 426.377 472.769 426.914C463.486 429.684 455.458 436.545 444.103 434.097L436.902 435.138C442.816 435.6 449.362 436.341 455.265 435.557C460.567 434.848 475.087 429.115 480.217 426.592C480.089 427.3 480.099 428.106 481.065 427.73C481.752 427.461 486.367 424.487 486.925 423.918C487.601 423.252 487.902 423.499 487.623 422.028C485.186 423.607 482.836 425.303 480.217 426.592ZM210.054 422.608C208.927 422.565 207.876 423.22 206.91 423.735C205.504 424.498 200.095 427.944 199.075 428.857C198.775 429.126 197.948 430.457 198.077 430.586L210.044 422.619L210.054 422.608ZM464.259 428.31L424.936 430.575C435.035 432.561 445.284 430.833 455.426 430.017C458.281 429.791 462.466 431.058 464.259 428.31ZM479.08 431.155C478.232 431.048 477.889 430.747 476.987 431.005C472.125 432.379 466.062 436.223 461.007 437.866C455.587 439.627 450.178 439.208 444.608 439.949L438.061 439.702C452.077 444.211 467.65 439.627 479.091 431.166L479.08 431.155ZM439.746 437.425C433.725 437.071 427.801 435.783 422.081 434.011C422.349 434.956 424.206 435.536 425.054 435.879C427.683 436.942 431.686 438.059 434.498 438.413C435.646 438.553 440.293 439.423 439.757 437.436L439.746 437.425ZM463.69 596.519C461.468 596.605 460.975 600.148 460.824 601.909C459.708 614.45 466.394 618.68 477.191 612.582C493.279 603.487 514.679 577.621 525.722 562.493C545.233 535.768 573.749 485.646 580.371 453.521C582.668 442.386 584.449 431.466 568.565 435.74V437.436C579.63 437.79 574.06 450.536 572 457.128C557.64 502.987 520.42 566.283 485.369 599.117C477.309 606.665 462.348 615.599 463.69 596.54V596.519ZM356.539 528.649C369.503 533.803 382.543 538.946 396.323 541.587C405.585 543.359 411.434 543.971 420.836 541.952C431.847 539.59 442.944 535.488 447.151 524.086C442.536 529.068 438.812 532.504 432.545 535.413C402.87 549.157 386.536 534.866 359.415 528.337C358.803 528.187 356.539 527.478 356.539 528.638V528.649ZM428.917 541.77C421.093 544.4 411.896 546.193 403.535 545.785C392.17 545.227 381.084 541.995 370.351 538.495C364.18 536.487 358.31 533.609 351.978 532.074C352.847 533.448 354.897 534.146 356.335 534.844C365.94 539.461 376.297 542.543 386.739 544.626L379.828 545.431C369.332 544.379 359.823 539.719 349.702 537.217C348.05 538.506 358.653 542.328 359.415 542.607C375.653 548.491 409.878 551.422 425.665 544.497C426.041 544.336 429.883 542.682 428.917 541.77ZM504.73 569.139C492.517 556.265 477.094 546.859 465.697 533.212C465.235 532.332 464.387 533.051 464.269 533.524C463.625 536.154 469.711 541.372 471.664 543.209C476.976 548.18 496.917 566.175 502.229 568.505C503.045 568.87 503.775 569.3 504.73 569.139ZM208.359 617.617C206.47 621.558 211.02 623.416 214.057 624.736C222.965 628.612 233.44 629.364 242.691 633.154C251.309 636.676 256.686 642.077 266.345 643.709C283.463 646.608 296.148 640.864 310.97 633.337C321.004 628.237 327.658 625.681 330.62 614.214C335.396 595.692 338.466 572.543 341.063 553.387C341.943 546.891 343.048 540.374 342.855 533.813C341.9 534.318 341.675 536.734 341.428 537.797C338.788 549.135 337.232 560.785 334.023 572.016C330.814 583.248 326.435 594.522 322.056 605.087C321.627 604.046 322.443 602.328 322.764 601.232C326.403 588.917 331.232 577.364 334.044 564.619C335.547 557.811 337.382 548.749 338.133 541.909C338.197 541.287 338.788 539.966 337.736 540.084C333.561 558.799 327.304 576.902 320.629 594.822C319.62 594.973 320.071 593.545 320.199 592.965C321.08 588.938 323.162 584.139 324.342 579.994C326.553 572.231 329.504 562.911 330.76 555.052C330.857 554.45 331.361 553.065 330.341 553.205C326.757 566.637 321.026 579.286 315.509 591.966L315.08 590.109C318.085 579.543 322.561 568.441 324.954 557.779C325.083 557.199 325.716 555.921 324.643 556.05L315.22 579.983L305.829 599.375C308.63 586.447 316.186 573.487 318.675 560.635C318.794 560.044 319.427 558.767 318.364 558.896C313.889 571.458 307.643 583.129 301.729 594.994L290.439 622.75C290.46 620.355 291.501 618.004 292.285 615.771C297.275 601.501 304.123 587.371 308.931 573.122C309.499 571.437 310.294 569.139 310.701 567.475C310.841 566.906 311.453 565.606 310.39 565.735C301.761 586.437 290.439 606.021 284.729 627.882C283.667 627.99 284.182 626.035 284.3 625.456C285.287 620.71 287.112 615.03 288.572 610.338C292.081 599.117 297.415 588.541 300.119 577.138L288.453 601.093L278.462 629.589C277.421 629.718 277.968 628.376 278.054 627.753C279.739 614.783 286.178 601.136 289.473 588.423C289.623 587.854 290.278 586.598 289.591 586.254L271.561 630.083L269.94 629.89L282.218 591.419L281.907 589.11L262.181 638.695C259.981 637.481 259.219 635.194 257.019 633.68C248.766 628.011 238.667 626.755 229.48 624.178C222.418 622.192 215.313 619.958 208.391 617.628L208.359 617.617ZM501.306 574.271L462.552 542.35C463.357 544.314 465.031 545.753 466.534 547.203C472.619 553.065 481.205 559.776 487.934 565.145C491.014 567.603 495.704 571.694 498.945 573.52C499.729 573.96 500.287 574.497 501.317 574.282L501.306 574.271ZM496.745 578.835L458.56 548.051C457.948 548.663 460.867 551.261 461.404 551.766C467.843 557.747 476.901 564.747 483.942 570.277C487.88 573.38 492.077 576.934 496.756 578.835H496.745ZM491.615 583.398C491.229 582.539 490.327 581.734 489.608 581.132C479.294 572.543 467.789 562.922 457.122 554.901C455.866 553.967 454.546 552.485 452.861 552.614C455.748 556.029 459.408 558.842 462.853 561.719C470.054 567.732 478.436 574.765 485.97 580.22C487.601 581.401 489.63 582.979 491.615 583.398ZM427.211 557.167C446.014 567.453 461.543 582.797 479.069 595.101C480.657 594.951 482.503 593.867 481.387 592.224C480.743 591.279 477.438 588.724 476.236 587.671C466.802 579.371 443.867 560.066 432.48 557.317L427.211 557.167ZM487.054 588.53L446.593 556.609C446.293 557.865 447.312 557.876 447.903 558.434C451.702 562.052 457.465 566.315 461.715 569.708C468.498 575.13 477.77 583.194 484.843 587.628C485.551 588.069 486.099 588.734 487.065 588.541L487.054 588.53ZM242.831 608.491C237.872 607.986 232.195 608.856 227.162 608.491L245.524 610.359C250.257 611.25 255.098 614.074 259.916 614.214C260.571 614.235 261.172 614.321 260.496 613.623C259.455 612.539 245.074 608.727 242.82 608.491H242.831ZM243.399 614.192C235.157 613.269 225.316 614.879 216.901 614.192C216.644 615.824 217.245 615.137 218.222 615.406C222.933 616.705 228.664 615.148 233.74 615.298C243.582 615.588 251.964 618.96 261.065 622.181C262.063 621.494 260.882 620.967 260.41 620.559C257.791 618.315 246.92 614.59 243.41 614.192H243.399ZM260.12 627.399C250.332 622.32 239.461 618.863 228.299 619.335C228.16 620.141 229.308 620.162 229.877 620.302C238.538 622.438 243.915 623.029 252.436 626.819C254.647 627.807 257.587 630.019 259.369 630.728C260.807 631.307 260.185 627.968 260.12 627.399Z" fill="#231F20"/>
<path d="M584.524 492.733L587.647 486.451C592.015 475.704 594.795 464.451 598.208 453.392C600.88 453.542 600.569 456.248 600.505 458.256C600.236 466.223 597.403 474.555 596.491 482.468L604.476 457.386C604.787 457.15 605.849 458.395 606.042 458.943C608.125 464.891 603.735 475.972 603.907 482.468L609.606 461.369C609.702 461.273 611.28 462.185 611.57 462.529C614.725 466.373 609.874 482.812 610.174 488.159L615.873 465.353C617.601 465.417 618.556 466.974 618.749 468.456C619.651 475.306 617.183 483.069 616.442 489.866L619.469 480.074L621.572 468.778C621.862 468.445 624.148 469.884 624.405 470.206C626.251 472.439 623.88 483.101 623.847 486.441L627.786 473.137L632.39 472.192C630.77 479.322 628.655 486.237 626.273 493.151C607.33 548.233 568.115 612.968 523.157 650.291C522.009 651.246 521.483 653.587 518.811 652.857C513.906 649.657 509.366 645.867 504.558 642.549C497.443 637.642 488.642 632.671 481.956 627.528C481.259 626.991 478.983 625.015 479.112 624.221C484.027 620.205 489.19 616.458 493.901 612.174C513.069 594.726 531.314 570.298 545.427 548.534C565.099 518.201 581.798 485.023 591.897 450.192H593.657C595.053 451.212 593.239 460.5 592.895 462.604C591.189 473.148 587.755 482.618 584.514 492.701L584.524 492.733ZM502.444 617.048L492.173 624.736H487.065C488.449 626.325 489.952 627.753 492.184 627.871C491.583 624.618 495.092 624.35 497.035 622.739C498.977 621.128 500.802 618.959 502.455 617.038L502.444 617.048ZM501.306 630.158C502.433 629.858 510.214 623.738 509.27 622.75L504.14 627.012L501.306 630.158ZM500.061 631.393L494.459 629.02C495.436 630.599 501.253 636.472 500.061 631.393ZM507.574 635.86L503.024 636.139L507.005 638.705L507.574 635.86Z" fill="#231F20"/>
<path d="M264.209 572.564C272.784 566.283 281.381 560.034 289.291 552.904C310.798 533.556 326.049 514.325 339.539 488.556L346.279 474.49C343.424 485.603 338.348 496.77 332.703 506.799C318.386 532.246 298.392 550.767 275.092 567.764C271.829 570.148 269.221 574.711 264.22 572.553L264.209 572.564Z" fill="#231F20"/>
<path d="M267.053 564.575C266.377 563.974 277.614 555.363 278.462 554.611C294.882 540.105 311.206 525.395 322.7 506.498L338.294 480.761C335.117 490.338 329.944 499.83 324.632 508.431C312.644 527.843 296.417 542.994 278.87 557.296L267.064 564.575H267.053Z" fill="#231F20"/>
<path d="M261.923 550.327C260.882 550.456 261.43 549.114 261.516 548.491C261.827 546.15 262.707 543.767 263.007 541.426C265.508 521.981 269.833 501 279.288 483.595C279.632 482.962 279.921 482.049 280.737 481.91C274.77 499.712 268.846 517.514 264.928 535.939C263.93 540.642 264.209 545.689 261.923 550.327Z" fill="#231F20"/>
<path d="M434.337 585.685C434.831 585.685 436.859 584.933 436.902 586.254C430.645 587.392 424.152 586.641 417.788 586.812C398.116 587.338 375.814 588.638 356.228 587.435C355.176 587.371 351.581 587.51 351.978 585.696H434.337V585.685Z" fill="#231F20"/>
<path d="M277.882 571.426C277.27 570.867 279.299 568.645 279.803 568.248C283.152 565.531 287.509 563.459 290.997 560.324C296.943 554.966 301.59 547.697 308.083 542.929L300.087 555.17C297.962 558.144 280.716 574.024 277.882 571.437V571.426Z" fill="#231F20"/>
<path d="M352.547 579.404L357.934 578.244C378.422 578.91 399.146 577.396 419.494 578.287C422.22 578.405 425.483 577.933 428.08 578.266C429.121 578.394 429.003 578.072 428.928 579.404H352.557H352.547Z" fill="#231F20"/>
<path d="M417.52 570.867L353.684 571.705C353.684 570.417 354.682 570.374 355.659 570.255C360.843 569.622 367.894 570.449 373.378 570.309C386.772 569.955 401.582 569.107 414.965 570.288C415.867 570.363 416.661 570.685 417.52 570.867Z" fill="#231F20"/>
<path d="M180.991 472.214C172.255 482.661 163.798 493.656 156.951 505.467C153.646 511.179 151.199 517.643 147.367 522.958C152.529 506.788 162.639 492.153 173.597 479.354C175.185 477.497 177.342 475.177 179.049 473.406C179.639 472.794 179.875 471.956 180.991 472.214Z" fill="#231F20"/>
<path d="M426.073 592.524L420.654 593.652C416.425 593.534 412.315 594.146 408.15 594.242C391.258 594.65 369.965 595.445 353.373 594.242C352.74 594.199 350.239 593.942 350.261 593.362L426.063 592.514L426.073 592.524Z" fill="#231F20"/>
<path d="M561.439 321.098C561.632 321.152 562.308 321.871 562.298 322.236C559.175 322.376 555.998 322.075 552.875 322.215C541.134 322.741 528.148 323.729 516.396 322.827C514.883 322.709 511.792 322.537 510.998 321.098H561.439Z" fill="#231F20"/>
<path d="M229.437 179.12L197.53 191.081C196.746 190.362 200.632 187.86 201.125 187.549C208.842 182.76 220.347 178.723 229.448 179.109L229.437 179.12Z" fill="#231F20"/>
<path d="M548.045 294.878L547.176 296.027L500.738 295.726C500.738 294.438 501.736 294.395 502.712 294.277C507.499 293.686 514.207 294.416 519.294 294.33C520.646 294.309 521.891 293.718 523.232 293.718C531.496 293.686 539.878 294.201 548.045 294.889V294.878Z" fill="#231F20"/>
<path d="M581.101 387.25C582.024 387.948 581.101 388.281 580.253 388.388C577.162 388.786 573.213 388.227 569.961 388.367C558.928 388.85 542.411 390.343 531.797 388.367C530.863 388.195 530.82 388.743 530.938 387.25H581.09H581.101Z" fill="#231F20"/>
<path d="M578.815 372.991L570.572 374.151C556.685 373.958 542.776 374.58 528.942 373.55C528.18 373.496 526.559 374.054 526.946 372.712C544.246 371.757 561.547 372.905 578.815 373.002V372.991Z" fill="#231F20"/>
<path d="M554.592 314.259C555.569 314.226 557.93 312.487 558.864 314.828C542.883 315.826 526.742 316.041 510.676 315.998L508.991 315.397L509.57 314.259C524.552 313.872 539.621 314.774 554.592 314.259Z" fill="#231F20"/>
<path d="M570.841 343.335C566.762 343.475 562.641 343.174 558.563 343.314C546.961 343.732 534.898 344.591 523.222 343.936C521.826 343.861 520.174 343.797 518.972 343.056C518.972 342.476 529.414 342.809 530.659 342.766C542.754 342.326 556.213 341.209 568.308 342.176C569.306 342.251 570.508 342.068 570.841 343.335Z" fill="#231F20"/>
<path d="M190.103 548.609C189.094 548.749 189.524 547.31 189.674 546.752C189.964 545.624 190.693 543.638 191.144 542.511C193.419 536.852 197.637 528.939 200.653 523.506C204.399 516.741 208.713 510.202 213.478 504.125L192.668 542.317L190.103 548.599V548.609Z" fill="#231F20"/>
<path d="M576.539 358.732C564.487 358.926 552.381 358.507 540.329 358.711C535.725 358.786 530.283 359.913 525.508 359.334C524.531 359.215 523.544 359.173 523.533 357.884C533.675 357.336 543.892 357.605 554.055 357.616C560.624 357.616 567.943 356.832 574.575 357.573C575.434 357.669 576.336 357.691 576.55 358.732H576.539Z" fill="#231F20"/>
<path d="M579.963 380.969C562.502 380.582 544.869 381.882 527.525 380.121L574.007 379.24C575.777 379.809 578.933 379.197 579.963 380.969Z" fill="#231F20"/>
<path d="M169.025 395.239C168.81 396.28 167.909 396.302 167.05 396.398C160.439 397.139 153.656 396.312 147.11 396.355C138.61 396.409 130.185 396.592 121.728 396.946L122.565 395.808C138.084 396.173 153.624 393.542 169.025 395.249V395.239Z" fill="#231F20"/>
<path d="M568.565 335.357L562.029 336.517C548.743 335.411 534.587 337.891 521.515 337.086C520.463 337.022 516.868 337.161 517.265 335.347H568.565V335.357Z" fill="#231F20"/>
<path d="M542.057 396.366C541.799 396.345 541.102 395.862 540.372 395.776C539.889 395.722 534.126 396.152 536.079 394.659C545.663 394.895 555.3 394.348 564.884 394.627C568.887 394.745 574.028 394.895 577.956 395.228C578.654 395.293 581.015 395.443 581.101 396.366C568.34 395.711 554.721 397.247 542.057 396.366Z" fill="#231F20"/>
<path d="M565.142 327.949C565.056 328.861 562.695 329.022 562.008 329.076C553.465 329.796 544.343 329.624 535.821 329.677C528.48 329.72 521.14 329.806 513.852 329.076L514.7 327.938H565.153L565.142 327.949Z" fill="#231F20"/>
<path d="M167.029 387.25C167.254 387.304 168.059 388.249 167.887 388.388C152.572 389.784 137.118 388.109 121.717 388.388C121.674 388.023 122.479 387.25 122.576 387.25H167.029Z" fill="#231F20"/>
<path d="M577.677 365.003C578.6 365.701 577.677 366.033 576.829 366.141C568.49 367.204 558.016 365.368 549.441 366.119C546.715 367.236 544.493 366.13 542.078 366.119C537.066 366.087 530.23 366.742 525.518 366.141C524.477 366.012 524.595 366.334 524.671 365.003H577.677Z" fill="#231F20"/>
<path d="M555.451 308.547C543.967 308.794 532.43 308.246 520.946 308.525C516.739 308.632 511.888 309.298 507.574 309.459C506.522 309.502 505.964 309.642 505.868 308.278C508.207 308.192 510.676 307.516 512.972 307.398C524.456 306.807 541.617 306.485 552.918 307.398C553.916 307.473 555.118 307.29 555.451 308.557V308.547Z" fill="#231F20"/>
<path d="M165.322 372.422C165.956 372.519 167.158 373.131 166.739 374.129C152.444 374.559 138.277 373.313 124.003 373.56C123.767 372.959 125.881 372.422 125.999 372.422H165.322Z" fill="#231F20"/>
<path d="M175.293 343.904C160.428 344.065 145.618 343.861 130.829 343.056C144.77 342.014 158.754 342.186 172.76 342.175L175.293 343.915V343.904Z" fill="#231F20"/>
<path d="M573.685 350.185C573.395 351.216 570.873 351.28 570.004 351.345C559.797 352.054 548.421 351.13 538.043 351.302C536.551 351.323 521.204 352.998 521.247 351.044L573.685 350.196V350.185Z" fill="#231F20"/>
<path d="M411.252 599.944L404.727 601.103C386.171 600.137 367.507 603.047 349.123 600.792L411.252 599.944Z" fill="#231F20"/>
<path d="M542.915 286.889C543.838 287.587 542.915 287.92 542.067 288.028C533.535 289.112 523.383 286.804 514.722 288.629L497.314 288.028C497.271 287.662 498.076 286.889 498.172 286.889H542.915Z" fill="#231F20"/>
<path d="M168.456 365.003C169.368 365.69 168.456 366.044 167.608 366.141C161.952 366.817 155.62 366.796 149.9 366.742C143.6 366.678 133.587 366.839 127.673 366.162C126.815 366.066 125.913 366.044 125.699 365.003H168.445H168.456Z" fill="#231F20"/>
<path d="M520.689 259.52H486.496V257.813H518.124C518.478 257.813 520.721 258.844 520.689 259.52Z" fill="#231F20"/>
<path d="M268.76 535.499C267.73 535.639 268.245 534.264 268.341 533.652C269.994 523.184 274.899 512.382 278.032 502.289L280.737 496.727L268.771 535.499H268.76Z" fill="#231F20"/>
<path d="M171.3 357.605C170.957 358.872 169.765 358.689 168.767 358.764C160.031 359.462 148.011 359.043 139.071 358.764C135.208 358.646 130.807 357.873 126.836 357.884C141.658 357.97 156.554 356.177 171.3 357.605Z" fill="#231F20"/>
<path d="M532.076 272.641C532.205 273.64 530.788 273.178 530.09 273.21C517.297 273.726 504.472 273.94 491.615 273.779C490.692 273.071 491.626 272.749 492.452 272.641C496.82 272.083 502.68 272.802 507.306 272.663C508.658 272.62 509.903 272.072 511.244 272.051C518.167 271.922 525.229 271.814 532.065 272.652L532.076 272.641Z" fill="#231F20"/>
<path d="M163.895 402.078L161.502 403.388C148.333 404.204 134.939 402.927 121.717 402.937C135.69 401.456 149.836 402.282 163.895 402.089V402.078Z" fill="#231F20"/>
<path d="M582.238 402.647C582.367 403.646 580.95 403.184 580.253 403.216C567.836 403.732 555.311 404.408 542.905 402.927C542.905 402.368 546.446 402.089 547.155 402.046C558.842 401.38 570.583 402.712 582.228 402.647H582.238Z" fill="#231F20"/>
<path d="M550.889 301.138C551.018 302.136 549.602 301.675 548.904 301.707C533.804 302.33 518.66 302.211 503.592 302.845C503.496 301.438 503.442 301.857 504.451 301.718C505.245 301.61 507.628 301.138 507.864 301.138H550.9H550.889Z" fill="#231F20"/>
<path d="M137.655 504.726C137.88 506.841 140.874 515.002 139.018 516.151L136.893 516.72C135.068 513.466 130.829 503.878 137.655 504.715V504.726Z" fill="#231F20"/>
<path d="M165.322 379.262L166.181 380.679C166.084 381.484 165.451 380.4 165.322 380.4H127.416V379.262H165.322Z" fill="#231F20"/>
<path d="M526.377 265.222C525.862 266.156 523.114 266.317 522.127 266.381C513.326 266.929 499.428 267.079 490.724 266.381C489.726 266.306 488.524 266.489 488.192 265.222H526.377Z" fill="#231F20"/>
<path d="M537.775 280.619C537.914 281.607 536.476 281.156 535.789 281.188C532.087 281.328 528.921 280.683 525.551 280.597C515.172 280.318 504.773 281.091 494.459 279.771C508.873 279.32 523.447 278.976 537.775 280.63V280.619Z" fill="#231F20"/>
<path d="M507.295 243.554C507.488 243.608 508.164 244.327 508.154 244.692C500.673 245.626 493.15 245.1 485.616 245.24C483.62 245.283 480.7 247.108 481.935 243.554H507.295Z" fill="#231F20"/>
<path d="M176.999 350.185C176.999 351.141 175.1 351.27 174.445 351.323C167.447 351.882 160.289 351.302 153.377 351.302C145.114 351.302 136.796 351.592 128.554 351.044L139.082 350.164C151.725 351.431 164.346 350.132 177.01 350.196L176.999 350.185Z" fill="#231F20"/>
<path d="M161.126 580.638L163.337 580.209C164.882 583.913 166.846 588.895 164.163 592.514C161.158 593.19 160.514 582.464 161.115 580.638H161.126Z" fill="#231F20"/>
<path d="M135.937 487.053L137.107 497.296C131.065 498.67 131.87 490.918 133.662 487.289L135.937 487.053Z" fill="#231F20"/>
<path d="M158.668 563.545C159.323 563.931 164.077 574.894 159.602 574.722C156.329 571.898 156.264 567.453 156.479 563.437C157.155 563.523 158.121 563.223 158.658 563.545H158.668Z" fill="#231F20"/>
<path d="M146.788 514.4C145.553 513.928 147.163 510.567 147.496 509.697C150.834 501.108 157.37 491.734 163.884 485.324L152.39 502.622L146.777 514.4H146.788Z" fill="#231F20"/>
<path d="M170.731 336.496H137.955C137.837 336.496 135.733 335.959 135.959 335.357C146.444 336.12 157.777 334.488 168.188 335.325C169.186 335.4 170.388 335.218 170.721 336.496H170.731Z" fill="#231F20"/>
<path d="M394.724 606.783L389.337 607.943C379.635 608.072 369.911 607.696 360.22 607.9C356.55 607.975 351.441 609.736 347.996 607.632L394.724 606.783Z" fill="#231F20"/>
<path d="M150.866 549.275L153.066 548.856L156.275 556.898C152.98 561.773 149.482 551.476 150.877 549.275H150.866Z" fill="#231F20"/>
<path d="M139.436 521.874C142.387 519.898 143.987 527.199 144.341 528.982L140.906 530.324C138.996 529.722 138.116 522.765 139.436 521.884V521.874Z" fill="#231F20"/>
<path d="M136.538 455.679C136.066 450.815 137.397 447.432 142.237 445.983C141.368 449.408 141.379 456.752 136.538 455.679Z" fill="#231F20"/>
<path d="M166.17 321.098C166.449 322.816 165.741 322.011 164.786 322.247C156.919 324.233 147.485 321.463 139.383 322.226L149.331 321.066L166.17 321.087V321.098Z" fill="#231F20"/>
<path d="M514.979 250.404L513.005 251.564C502.991 250.973 493.01 253.024 483.062 251.542L485.047 250.973L514.979 250.404Z" fill="#231F20"/>
<path d="M167.308 328.518C168.735 329.999 164.217 329.699 163.584 329.677C158.325 329.495 152.927 329.237 147.646 329.087C146.412 329.055 135.959 329.377 135.959 328.797C142.484 328.163 149.095 328.657 155.653 328.539C159.345 328.475 163.498 327.004 167.308 328.528V328.518Z" fill="#231F20"/>
<path d="M260.786 576.558C260.915 576.655 259.745 578.502 259.391 578.856C258.285 579.962 250.976 583.602 250.526 581.379C249.968 578.609 258.478 575.732 260.786 576.548V576.558Z" fill="#231F20"/>
<path d="M582.238 416.907C581.841 418.034 579.019 417.991 578.01 418.045C573.653 418.259 569.209 417.991 564.841 418.012C562.566 418.023 560.312 418.807 557.737 418.034C556.792 417.325 557.801 416.992 558.584 416.896C562.867 416.348 568.887 416.982 573.438 416.917C576.303 416.874 579.062 415.758 582.249 416.896L582.238 416.907Z" fill="#231F20"/>
<path d="M216.333 590.817C217.792 594.189 208.348 597.034 207.221 595.37C206.116 592.095 215.442 589.904 216.333 590.817Z" fill="#231F20"/>
<path d="M166.17 598.795C166.503 601.919 168.585 609.178 163.906 609.06C163.53 605.892 161.598 599.063 166.17 598.795Z" fill="#231F20"/>
<path d="M137.676 460.8L137.054 469.304L134.016 468.842C133.104 465.492 133.211 460.639 137.676 460.8Z" fill="#231F20"/>
<path d="M150.211 543.477C147.539 543.981 145.607 542.296 145.124 539.74C144.555 536.734 145.092 534.876 148.226 536.036L150.222 543.477H150.211Z" fill="#231F20"/>
<path d="M121.148 411.194L132.804 410.024L153.066 410.056C153.109 410.582 150.104 411.194 149.932 411.194H121.148Z" fill="#231F20"/>
<path d="M582.807 410.625L571.087 411.763C564.24 410.561 557.243 411.688 550.331 411.184L552.306 410.024L582.818 410.625H582.807Z" fill="#231F20"/>
<path d="M244.827 582.26C245.439 586.318 239.772 586.802 236.853 587.961C233.59 584.375 244.033 581.465 244.827 582.26Z" fill="#231F20"/>
<path d="M132.042 480.127C131.612 476.745 133.222 473.084 136.839 475.607C137.891 480.299 136.667 482.511 132.042 480.127Z" fill="#231F20"/>
<path d="M230.467 589.013C230.049 589.733 223.309 592.664 222.6 591.955C221.956 587.403 226.603 587.596 229.737 586.351C230.596 586.49 230.875 588.294 230.467 589.013Z" fill="#231F20"/>
<path d="M500.169 236.704C500.169 237.67 498.28 237.788 497.604 237.853C493.912 238.153 485.594 238.733 482.181 238.443C481.183 238.357 480.314 238.561 479.659 237.552C479.198 236.5 481.13 236.704 481.645 236.704H500.169Z" fill="#231F20"/>
<path d="M179.854 286.889C179.993 287.738 178.791 287.598 178.158 287.738C170.882 289.402 164.367 288.006 157.069 288.017L168.725 286.857L179.865 286.889H179.854Z" fill="#231F20"/>
<path d="M166.17 315.397H142.806V314.828C143.879 315.311 145.436 314.248 145.94 314.248H165.322C165.419 314.248 166.224 315.021 166.181 315.386L166.17 315.397Z" fill="#231F20"/>
<path d="M143.944 416.896C143.987 417.261 143.192 418.034 143.085 418.034H121.717C121.685 417.293 123.123 416.896 123.713 416.896H143.944Z" fill="#231F20"/>
<path d="M489.619 228.726L492.753 230.433C488.32 229.939 483.77 230.841 479.327 230.466C478.039 230.358 476.665 230.541 476.794 228.726H489.619Z" fill="#231F20"/>
<path d="M194.664 598.795C194.976 601.447 191.037 603.315 188.837 603.562C186.948 603.777 186.679 601.705 187.356 600.599C187.742 599.955 194.31 598.441 194.664 598.806V598.795Z" fill="#231F20"/>
<path d="M168.445 613.623C169.615 616.694 163.519 624.006 163.262 618.466C163.122 615.609 165.966 614.171 168.445 613.623Z" fill="#231F20"/>
<path d="M173.017 294.298C173.06 294.663 172.266 295.436 172.159 295.436H153.066V294.298H173.017Z" fill="#231F20"/>
<path d="M146.23 307.988L153.324 306.818C157.488 307.247 162.425 306.324 166.471 306.839C167.512 306.968 167.394 306.646 167.319 307.977H146.23V307.988Z" fill="#231F20"/>
<path d="M274.459 571.426C274.051 574.916 270.187 576.354 267.053 575.978C267 574.089 273.697 570.728 274.459 571.426Z" fill="#231F20"/>
<path d="M184.415 604.507C184.78 604.776 179.425 611.798 177.589 608.78C178.813 605.731 181.088 604.196 184.415 604.507Z" fill="#231F20"/>
<path d="M165.891 280.05C164.968 280.05 163.519 281.489 163.895 279.481C169.132 279.771 174.273 278.386 179.51 278.955C180.068 279.019 181.657 279.202 181.56 280.039C176.344 280.082 171.107 279.985 165.891 280.039V280.05Z" fill="#231F20"/>
<path d="M369.643 563.448C369.471 564.5 366.724 564.06 365.951 564.006C364.975 563.942 364.062 563.502 363.086 563.448C360.467 563.298 356.936 564.189 354.843 562.589C354.843 560.023 368.141 564.221 369.643 563.448Z" fill="#231F20"/>
<path d="M137.676 424.304V424.874C136.603 424.39 135.047 425.453 134.542 425.453H122.855V424.315H137.676V424.304Z" fill="#231F20"/>
<path d="M346.848 615.33L351.688 614.3C357.29 615.277 363.107 614.514 368.795 614.751C369.493 614.783 370.909 614.321 370.781 615.32H346.848V615.33Z" fill="#231F20"/>
<path d="M308.094 439.132L316.057 422.597C314.651 428.331 311.871 434.623 308.094 439.132Z" fill="#231F20"/>
<path d="M169.594 301.138C169.465 302.04 166.932 301.943 166.138 302.007C161.942 302.351 155.985 301.889 151.639 301.707C150.941 301.675 149.524 302.136 149.653 301.138H169.605H169.594Z" fill="#231F20"/>
<path d="M179.274 272.641L173.296 273.532L168.456 273.199L175.572 272.061L179.274 272.641Z" fill="#231F20"/>
<path d="M284.354 173.784C300.882 190.523 328.946 200.047 352.257 197.352C357.644 196.729 365.361 195.537 368.795 191.092C369.214 191.006 369.182 191.683 369.074 191.94C368.677 192.821 360.124 200.143 358.782 201.035C345.893 209.539 323.129 204.342 309.51 199.091C298.907 195.011 286.017 186.11 281.885 175.136C286.608 181.536 292.285 186.067 299.025 190.201C312.494 198.447 336.008 205.48 351.602 201.904C355.412 201.024 361.465 199.864 362.807 195.677C358.524 196.965 352.579 200.347 348.286 200.809C325.512 203.289 295.666 190.995 281.649 172.817C280.748 171.647 278.945 169.252 279.32 167.739C280.92 169.618 282.669 172.087 284.365 173.805L284.354 173.784Z" fill="#231F20"/>
<path d="M363.944 190.523L359.404 192.531C336.234 199.746 301.386 190.136 285.867 171.421C285.33 170.777 284.483 170.498 284.729 169.424C285.459 168.694 291.501 175.48 292.435 176.242C306.398 187.731 332.735 194.023 350.55 192.788C355.069 192.477 359.48 191.081 363.944 190.523Z" fill="#231F20"/>
<path d="M465.396 245.261C467.671 247.935 455.888 255.086 453.956 256.331C450.929 258.275 447.656 260.487 444.318 261.786L465.407 245.261H465.396Z" fill="#231F20"/>
<path d="M417.52 231.582C412.765 235.716 407.131 239.635 400.992 241.267C405.521 237.069 411.842 234.009 417.52 231.582Z" fill="#231F20"/>
<path d="M454.009 241.267C454.782 237.939 458.452 235.544 460.835 233.289C460.341 236.553 456.263 239.002 454.009 241.267Z" fill="#231F20"/>
<path d="M462.552 269.205L469.957 260.089C469.754 263.107 466.781 266.188 464.548 268.067C463.905 268.604 463.625 269.452 462.552 269.205Z" fill="#231F20"/>
<path d="M462.541 512.693C461.479 512.811 462.069 511.491 462.144 510.868C462.563 507.217 463.582 503.781 463.196 499.937L465.965 485.904C465.901 494.719 465.418 504.383 462.541 512.693Z" fill="#231F20"/>
<path d="M507.016 459.093L513.144 446.133L516.696 432.873C516.696 441.72 512.64 452.318 507.016 459.104V459.093Z" fill="#231F20"/>
<path d="M430.055 523.538L423.251 526.126L418.099 526.372L427.189 523.785L430.055 523.538Z" fill="#231F20"/>
<path d="M343.059 516.881C342.469 517.428 341.825 519.705 340.58 518.685C343.596 515.324 345.968 510.277 348.876 507.024C350.411 505.306 352.836 503.835 354.553 501.87C369.847 484.358 380.01 463.646 386.332 441.291L393.018 414.63C392.664 427.032 389.691 440.163 385.473 451.835C376.64 476.262 362.195 499.379 343.07 516.902L343.059 516.881Z" fill="#231F20"/>
<path d="M381.62 469.927C392.921 442.386 400.273 413.095 401.84 383.256L402.72 389.215C401.561 405.697 399.382 423.231 395.121 439.251C392.31 449.795 388.339 461.294 381.609 469.927H381.62Z" fill="#231F20"/>
<path d="M375.342 462.507L375.031 460.768L383.155 434.107L387.308 413.47C386.6 430.392 381.824 446.981 375.342 462.497V462.507Z" fill="#231F20"/>
<path d="M352.557 500.721C355.069 493.978 359.78 488.255 363.944 482.479L361.562 487.783L352.557 500.721Z" fill="#231F20"/>
<path d="M311.957 281.349C319.674 280.415 337.232 286.385 340.677 293.922C345.839 305.207 338.691 322.258 324.9 322.301C318.107 322.322 303.296 315.064 299.991 308.965C294.689 299.194 299.991 282.798 311.946 281.36L311.957 281.349ZM320.64 315.966C331.908 324.105 338.992 311.241 338.294 300.869C338.165 298.915 337.285 294.899 336.04 293.439C333.744 290.744 318.375 285.236 314.629 285.171C307.246 285.053 301.987 292.945 304.08 299.763L330.331 313.12C321.198 310.307 311.485 307.505 303.833 301.728C303.039 303.124 303.929 304.745 305.056 305.637C306.108 306.474 323.269 314.72 322.367 315.397L320.661 315.966H320.64Z" fill="#231F20"/>
<path d="M301.257 319.38L294.592 316.073C285.191 309.126 276.949 299.312 275.049 287.458L278.795 294.824C284.665 304.595 292.822 311.939 301.257 319.38Z" fill="#231F20"/>
<path d="M305.808 318.811C294.249 313.529 285.631 303.135 282.443 290.884L291.008 304.262L305.808 318.811Z" fill="#231F20"/>
<path d="M298.402 308.557C293.906 304.295 290.321 298.131 289.291 292.022L298.402 308.557Z" fill="#231F20"/>
<path d="M283.581 258.382L282.443 259.778L271.035 264.642C273.868 261.088 279.031 258.661 283.57 258.382H283.581Z" fill="#231F20"/>
<path d="M306.248 334.906C310.079 333.919 331.093 341.123 333.432 344.495C336.663 349.165 336.416 358.904 334.162 363.994C328.71 376.255 313.61 371.714 304.488 366.613C295.269 361.46 293.337 352.655 297.136 342.927C298.198 340.211 303.489 335.615 306.237 334.906H306.248ZM330.749 346.9C329.462 345.547 313.696 340.178 311.238 339.91C301.665 338.868 299.744 345.815 301.246 353.901L325.201 364.423C318.386 362.737 310.991 360.246 304.466 357.519C303.489 357.111 302.631 356.091 302.105 355.887C300.409 355.2 301.708 357.68 302.448 358.399C304.509 360.407 316.035 364.627 319.62 366.313C324.031 368.385 325.287 371.123 329.429 365.529C332.059 361.975 333.658 349.96 330.76 346.9H330.749Z" fill="#231F20"/>
<path d="M209.486 346.749C192.518 340.941 190.275 319.488 201.222 306.839L197.659 316.964C195.362 328.346 200.771 339.577 209.486 346.749Z" fill="#231F20"/>
<path d="M302.963 374.129C292.489 371.263 282.315 362.179 275.94 353.557C274.544 351.667 272.527 349.058 272.194 346.76C281.198 357.272 292.07 365.701 302.963 374.129Z" fill="#231F20"/>
<path d="M306.956 372.412C298.209 369.77 289.967 362.49 284.493 355.264C283.163 353.514 281.317 351.163 280.748 349.037C288.282 358.142 298.08 364.745 306.956 372.412Z" fill="#231F20"/>
<path d="M259.069 331.363L257.942 331.084C259.498 327.669 260.904 323.804 264.199 321.667L259.069 331.363Z" fill="#231F20"/>
<path d="M294.41 357.025C294.185 357.272 292.983 355.876 292.725 355.586C291.33 354.008 289.559 351.57 288.722 349.616C290.01 350.056 295.107 356.241 294.41 357.025Z" fill="#231F20"/>
<path d="M313.224 622.739C312.784 620.269 313.975 618.992 315.885 617.703L321.498 614.75C321.487 619.249 317.334 622.17 313.224 622.728V622.739Z" fill="#231F20"/>
<path d="M307.514 623.888C307.997 626.97 304.273 629.085 301.676 629.75C300.828 629.965 300.903 630.373 300.109 629.3C299.518 626.486 305.099 623.813 307.514 623.899V623.888Z" fill="#231F20"/>
<path d="M295.548 629.02C296.481 633.015 291.716 633.916 288.711 634.153C287.767 630.33 292.585 628.977 295.548 629.02Z" fill="#231F20"/>
<path d="M272.183 633.014C272.86 637.406 268.577 637.062 265.347 637.567C265.004 633.036 268.481 632.66 272.183 633.014Z" fill="#231F20"/>
<path d="M284.15 632.445C285.051 636.579 277.217 639.811 277.313 634.979C277.356 632.735 282.443 632.896 284.15 632.445Z" fill="#231F20"/>
<path d="M326.328 609.06C324.514 609.436 325.201 607.879 325.448 606.741L330.889 594.232C330.395 599.396 327.594 604.078 326.328 609.06Z" fill="#231F20"/>
<path d="M269.908 408.338C265.315 404.204 260.485 401.08 257.276 395.615C256.761 394.734 255.452 392.823 255.946 391.814C261.151 398.106 268.116 404.387 275.221 408.456C275.704 408.735 280.952 410.636 280.168 411.194C277.818 411.602 275.736 410.432 273.557 410.121C272.28 409.938 270.896 410.239 269.683 410.002C259.691 408.027 250.225 398.299 248.25 388.399L252.822 395.507C257.738 400.693 262.954 406.019 269.908 408.349V408.338Z" fill="#231F20"/>
<path d="M208.917 355.887C193.409 368.031 194.772 389.269 208.348 402.358C206.781 402.583 203.433 400.189 202.07 398.943C196.907 394.24 194.214 385.887 194.654 378.951C195.126 371.531 201.275 358.346 208.917 355.887Z" fill="#231F20"/>
<path d="M212.909 358.174C198.979 371.595 202.027 391.073 215.184 403.775C211.718 403.549 207.822 399.523 205.826 396.892C198.303 386.96 200.052 374.967 206.169 364.842C207.693 362.329 209.872 358.882 212.898 358.174H212.909Z" fill="#231F20"/>
<path d="M288.711 409.487C288.861 410.443 287.37 410.067 286.715 410.067C277.85 410.013 269.211 402.884 264.317 395.969C263.78 395.206 262.943 394.509 263.072 393.51C270.359 401.391 278.515 406.191 288.711 409.487Z" fill="#231F20"/>
<path d="M247.102 367.859C245.889 370.328 244.677 372.787 243.282 375.171C242.874 375.869 243.614 376.749 241.972 376.406C243.121 373.507 243.41 368.772 247.102 367.859Z" fill="#231F20"/>
<path d="M272.752 244.112C262.997 240.43 254.98 230.97 251.674 221.317L259.927 232.151L272.763 244.112H272.752Z" fill="#231F20"/>
<path d="M268.202 225.87L291.555 237.563C290.664 238.819 290.514 238.282 289.462 237.96C285.041 236.629 272.741 230.745 269.382 227.824C268.728 227.255 267.976 226.944 268.202 225.87Z" fill="#231F20"/>
<path d="M292.124 232.151L290.396 232.452L271.046 223.024C278.655 224.56 284.923 229.553 292.124 232.151Z" fill="#231F20"/>
<path d="M328.045 307.408C322.185 305.433 316.357 302.716 310.938 299.72C310.1 299.259 308.415 298.593 308.104 297.723C309.059 297.551 309.768 298.024 310.594 298.357C314.951 300.118 320.951 303.188 325.211 305.4C326.188 305.905 327.626 306.281 328.045 307.408Z" fill="#231F20"/>
<path d="M318.912 356.456L316.744 356.628L304.101 351.323C309.274 351.85 313.964 354.974 318.912 356.456Z" fill="#231F20"/>
</g>
<defs>
<clipPath id="clip0_8061_309">
<rect width="514" height="515" fill="white" transform="translate(120 143)"/>
</clipPath>
</defs>
</svg>
