<svg width="800" height="800" viewBox="0 0 800 800" fill="none" xmlns="http://www.w3.org/2000/svg">
<g clip-path="url(#clip0_8061_311)">
<path d="M706 619.846C704.099 621.395 702.458 619.314 701.089 619.032C698.351 618.466 694.436 619.088 692.184 616.781L691.54 618.036C689.322 617.132 686.719 617.166 684.502 616.487C671.772 612.563 662.143 593.52 653.544 583.659L616.726 546.896C615.503 548.603 613.829 548.875 611.973 549.497C607.674 550.933 601.575 552.64 597.139 553.749C596.065 554.02 595.125 553.5 594.333 553.941C607.493 565.962 620.063 579.283 634.264 590.071C638.371 593.181 642.919 595.657 647.027 598.767C660.186 608.73 675.438 619.654 682.058 635.18C677.735 634.626 673.311 634.094 669.012 633.303C668.502 633.212 668.582 632.172 668.299 632.195C664.565 632.421 654.868 630.973 651.677 629.062C648.973 627.445 641.573 618.206 639.129 615.232C633.947 608.933 629.545 602.013 624.091 595.929C611.306 581.658 595.216 569.761 582.362 555.479C581.808 556.316 582.068 556.621 580.88 557.028C571.602 560.262 559.529 559.697 550.171 563.745L582.396 592.242C599.368 605.394 619.781 616.103 630.801 635.225C631.616 636.639 634.558 641.829 634.728 642.971C634.897 644.114 634.784 644.317 633.902 644.984C625.359 641.637 615.967 641.106 607.21 638.561C601.405 636.876 596.947 629.82 593.134 625.036C587.318 617.742 582.192 609.872 576.252 602.668L536.707 564.311L533.776 565.758L501.099 571.401C502.966 572.226 505.081 574.024 506.62 575.381C514.609 582.427 522.676 590.467 530.857 597.139C538.913 603.709 548.089 608.865 556.236 615.311C568.207 624.765 580.11 636.367 585.134 651.113C575.833 648.829 564.677 647.597 555.682 644.69C554.358 644.261 553.487 643.989 552.321 643.152C549.809 641.343 541.289 630.295 538.89 627.14C534.794 621.757 531.219 615.017 527.191 610.019C520.323 601.504 506.168 589.144 497.738 581.205C493.97 577.654 489.897 574.296 486.061 570.802C485.767 570.666 485.507 572.645 484.092 573.12C478.944 574.85 462.051 576.071 455.997 576.309C453.836 576.399 450.001 576.648 448.054 576.286C446.21 575.947 445.282 573.934 443.427 573.866C447.183 577.315 450.679 581.194 454.459 584.598C460.965 590.455 468.806 597.252 475.651 602.657C494.887 617.856 515.955 627.637 529.205 649.689C529.793 650.661 532.859 656.485 532.905 657.05C532.973 657.864 532.43 658.486 531.615 658.351L501.393 651.724C489.931 641.965 482.508 628.157 472.891 617.064C461.7 604.161 446.946 591.869 434.522 580.007C428.231 574.002 422.143 566.584 415.524 560.986C413.883 559.595 411.338 558.849 410.002 556.7L410.93 560.986C398.778 561.698 386.592 563.067 374.406 561.811L373.512 562.829C383.605 562.513 393.811 563.27 403.904 562.863C407.106 562.739 411.575 560.975 414.212 562.309C415.32 562.863 422.652 569.004 421.351 570.191L382.1 571.107C384.352 573.719 387.95 571.503 390.971 571.39C401.392 571.028 411.869 572.012 422.211 570.338L429.34 576.625C422.935 578.763 415.977 576.908 409.38 576.897L389.466 578.763C392.532 581.16 392.973 579.961 395.881 579.961C403.711 579.973 410.681 578.028 418.296 579.995C418.455 581.013 416.814 580.651 416.135 580.628C413.386 580.538 410.444 580.47 407.875 579.984L407.558 581.85C405.25 582.313 404.413 580.651 403.281 580.583C402.806 580.549 403.123 581.669 402.229 582.031C400.792 582.619 398.699 582.37 397.137 583.06C396.153 581.895 400.826 581.952 399.276 580.606C399.038 580.402 393.732 581.431 393.777 582.132C406.268 593.701 418.104 606.536 432.361 615.911C443.257 625.274 458.102 633.111 467.369 644.08C470.084 647.302 478.718 659.821 479.996 663.349C480.336 664.288 480.935 666.018 479.374 665.826C476.161 665.407 471.352 663.383 467.912 662.557C463.375 661.472 447.115 658.814 444.366 656.654C441.842 654.676 434.069 643.933 431.557 640.642C424.836 631.799 419.53 623.284 411.881 614.938C391.344 592.502 368.058 572.283 347.126 550.288C341.796 544.679 337.983 537.939 331.398 533.45C314.188 532.862 297.374 528.508 280.277 526.654C280.798 527.615 281.873 528.78 282.778 529.368C286.534 531.844 302.862 533.789 308.281 534.536C315.387 535.508 326.385 535.44 332.665 537.148C338.209 538.652 340.257 543.661 343.414 547.88L341.909 549.361L297.453 545.346L300.248 546.85L344.863 550.695C346.401 551.035 353.575 558.147 354.808 559.753C355.284 560.364 355.996 560.534 355.725 561.597C340.393 560.861 325.016 560.647 309.718 559.154L310.963 560.669L357.139 562.954C361.258 564.989 364.154 568.596 367.39 571.718L321.69 571.401C321.656 573.323 323.953 573.289 325.367 573.301C337.791 573.402 350.882 572.272 363.396 573.255C369.325 573.719 373.761 575.325 374.745 581.827L331.194 582.132C332.145 583.218 333.106 584.01 334.6 584.247C340.778 585.231 350.192 584.846 356.675 584.926C357.92 584.937 359.074 584.349 360.307 584.36C362.853 584.36 366.27 584.722 368.612 585.525C367.266 587.741 364.335 585.141 361.529 585.457C360.353 585.593 360.964 586.611 359.753 586.78C354.888 587.481 346.888 587.809 341.921 588.024C340.404 588.092 339.182 587.21 337.949 587.651C347.985 598.643 359.368 609.736 371.124 618.862C386.23 630.589 402.919 640.223 413.895 656.428C415.807 659.244 421.589 668.087 421.396 671.016C421.34 671.898 421.623 672.136 420.525 671.887L386.875 662.591C377.28 651.554 368.895 639.194 360.341 627.185L313.701 578.763L314.629 582.438L307.274 583.976L317.13 585.785L317.673 588.544C312.174 589.777 306.426 588.985 300.814 589.166C283.909 589.709 262.694 593.113 246.287 590.365C199.047 582.449 167.807 569.139 148.9 522.775C138.026 496.11 138.852 475.257 139.803 447.247C139.905 444.08 139.746 440.903 139.803 437.748H137.97C136.024 464.978 135.198 493.464 144.86 519.462C163.745 570.247 196.015 583.241 246.4 592.106C259.763 594.459 272.357 592.615 285.539 593.463C293.47 593.972 301.56 596.777 309.741 595.951C309.503 597.071 308.53 597.093 307.614 597.195C300.237 598.021 291.4 596.324 283.638 596.539C254.49 597.32 228.5 602.488 199.794 593.938C142.111 576.761 122.751 519.021 124.46 463.779C124.686 456.361 125.32 448.807 126.304 441.445L123.532 442.045C114.774 491.496 127.311 554.246 171.383 583.704C205.542 606.536 250.542 602.454 289.827 602.668C298.754 602.714 307.784 603.618 316.813 603.336C318.804 603.279 322.414 601.3 322.617 604.534C292.327 605.507 261.879 605.088 231.499 605.122C219.448 605.134 212.705 605.597 200.688 602.239C129.597 582.415 111.38 512.303 117.739 446.048C117.897 444.419 119.119 440.529 118.859 439.421C118.768 439.037 115.419 434.332 114.842 434.174C113.088 433.688 111.346 435.362 109.501 435.282C107.114 435.181 103.425 432.987 102.271 430.838C98.0734 422.99 109.649 417.291 114.061 412.948C119.21 407.882 114.537 408.425 113.586 404.818C111.742 397.773 119.017 399.039 122.661 395.794C125.976 392.853 129.506 386.227 132.188 382.631C134.168 379.985 137.087 377.655 138.581 374.613C129.506 376.637 121.461 377.271 112.794 373.098C84.62 359.528 90.0851 318.365 116.686 305.813C143.525 293.148 170.251 304.761 181.442 331.46C185.209 340.451 185.209 349.045 185.515 358.657C198.176 347.88 209.616 335.735 221.7 324.347C243.176 304.094 265.025 284.192 286.636 264.097C288.797 248.435 292.916 231.71 301.741 218.535V217.653C298.121 217.45 288.831 208.618 286.761 208.505C284.86 208.403 282.269 210.19 280.379 210.563C275.864 211.445 271.757 210.755 267.672 210.959C266.518 211.015 265.704 212.372 264.504 212.632C261.359 213.311 256.912 210.687 257.862 207.204C258.722 204.027 260.906 203.427 263.723 202.613C266.541 201.799 271.995 200.374 274.62 200.012C277.245 199.65 280.82 200.34 282.925 199.73C283.977 199.424 284.735 197.818 286.263 197.502C288.028 197.151 289.816 198.101 292.079 197.875C302.07 196.891 313.645 190.129 322.821 186.261C356.257 172.148 389.873 158.16 422.03 141.333C424.78 139.897 431.84 136.369 433.888 134.786C434.691 134.164 435.167 133.35 435.506 132.422C433.04 132.49 431.297 130.115 431.195 127.842C431.41 125.66 436.694 123.613 438.572 122.595C438.991 121.962 434.737 118.015 435.472 114.352L437.35 114.024C437.633 112.983 436.083 113.73 436.083 113.074C436.083 112.621 437.124 109.76 437.407 108.969C438.29 106.492 438.12 106.379 438.663 103.371C439.715 97.4682 440.666 91.5426 441.786 85.6509L444.434 84.0112C445.079 84.0338 445.622 84.3505 445.995 84.8594C447.421 86.7478 448.824 104.31 449.899 108.55C450.668 111.57 452.818 112.893 453.927 115.607L450.883 122.855L456.439 125.479L456.371 131.212C480.664 133.983 504.799 138.687 529.148 141.559C555.32 144.647 578.481 147.417 604.46 144.624C609.846 144.047 614.655 141.752 620.482 141.582C622.055 141.537 623.684 142.351 624.77 142.249C625.981 142.136 627.633 139.92 629.376 139.445C632.374 138.642 637.353 142.351 637.375 145.608C637.409 151.488 631.876 154.236 626.603 153.139C626.264 153.071 626.536 151.986 625.427 151.997C620.165 152.087 613.931 154.451 608.522 154.507C608.375 155.582 609.914 155.084 610.661 155.107C615.164 155.299 618.966 154.44 623.243 153.275C618.083 158.771 611.543 156.611 605.15 156.272C602.457 156.125 602.107 158.239 599.674 155.062C597.094 151.692 599.255 150.787 599.323 147.134C594.922 147.089 594.299 151.058 595.657 154.485L596.562 152.653C603.125 157.685 602.333 165.578 604.822 172.623C609.235 172.069 613.523 170.678 618.004 170.407C623.99 170.034 631.593 169.955 636.515 173.732C639.163 175.767 640.747 179.917 643.802 182.077C651.496 187.517 662.008 180.731 669.736 178.583C674.431 177.282 679.274 176.31 684.174 176.547L685.192 178.108C674.76 180.573 665.017 184.893 655.309 189.315L650.851 190.672C661.793 192.639 671.795 186.386 682.454 185.786C684.083 185.696 686.946 185.21 687.659 186.996C686.47 187.166 685.599 188.048 684.479 188.421C678.561 190.4 670.007 192.673 663.863 194.188C656.882 195.907 651.926 197.129 644.911 194.471C635.927 191.067 635.271 183.74 623.707 185.323C620.267 185.798 607.232 192.266 605.467 190.004C606.135 184.599 603.17 179.488 601.586 174.602C599.832 169.208 599.312 165.363 596.381 160.196C596.076 159.664 596.596 159.155 595.408 159.483C593.915 159.902 586.752 165.669 585.191 167.071C572.496 178.402 563.512 194.437 557.005 210.009L649.278 346.467C650.614 347.473 654.563 345.585 656.746 345.268C662.245 344.465 670.188 343.47 675.62 344.047C701.27 346.738 710.537 389.563 689.684 403.325C682.442 408.097 672.112 407.701 665.266 402.217C659.926 397.931 660.265 381.5 662.325 375.359C663.513 371.82 666.115 369.287 669.442 367.76C675.337 365.069 678.776 365.069 683.053 370.327C685.169 368.495 678.527 364.492 677.464 364.368C675.767 364.175 670.188 365.306 668.491 366.2C655.773 372.906 659.654 395.013 663.863 406.062C664.474 407.656 665.719 408.832 666.296 410.37C674.895 433.111 672.61 460.737 670.471 484.078C672.768 484.7 671.32 486.192 671.094 488.013C674.794 490.422 678.075 489.517 682.126 490.501C682.363 491.598 681.809 491.711 681.107 492.242C679.161 493.724 676.321 494.323 674.137 496.313C669.973 500.079 657.538 521.079 655.411 526.676C655.207 527.219 655.671 527.864 655.547 528.384C655.524 528.474 654.63 528.497 654.529 528.927C653.601 532.93 657.335 542.915 661.103 544.928C661.849 545.324 667.111 546.907 667.71 546.907H679.365C679.489 546.907 680.474 547.936 680.281 548.128C666.251 550.56 650.704 550.526 636.391 550.005C635.644 549.983 631.718 548.592 632.442 550.277C640.577 557.684 647.581 566.21 656.067 573.255C667.993 583.15 682.103 590.173 693.791 600.554C698.77 604.975 703.364 610.019 706.057 616.193V619.868L706 619.846ZM443.427 107.284C443.494 105.271 444.807 85.8206 443.732 85.8206C442.42 92.8883 442.94 100.363 440.971 107.284H443.427ZM440.971 120.153L443.427 112.802C440.281 114.012 437.215 117.687 440.971 120.153ZM453.248 127.503C449.152 122.595 437.826 123.432 434.228 128.724C440.835 126.033 446.391 124.303 453.248 127.503ZM568.581 149.588L461.836 136.097L496.177 144.986C510.976 147.655 525.539 151.816 540.633 152.664C545.159 152.924 550.036 151.997 554.392 153.184C557.243 145.721 560.49 150.663 564.586 150.844C565.356 150.877 568.32 150.617 568.569 149.577L568.581 149.588ZM532.384 155.107L452.637 137.941L505.387 157.255C513.036 159.506 519.949 155.344 527.779 156.328L532.384 155.118V155.107ZM503.554 159.404L449.616 140.021L448.36 140.689C451.879 144.036 449.208 167.003 450.182 167.976C456.699 166.641 464.574 166.698 470.888 165.069C475.583 163.859 478.039 161.179 483.572 163.09L503.543 159.404H503.554ZM440.983 142.238C439.274 141.978 439.84 142.532 439.761 143.753C439.217 151.952 439.964 160.376 439.15 168.598C440.032 168.745 439.976 167.535 440.179 166.89C441.571 162.536 441.175 154.1 441.005 149.26C440.915 146.852 439.534 144.635 440.983 142.238ZM631.774 142.227C626.264 141.458 626.185 151.884 631.095 148.582L631.774 142.227ZM437.237 170.373L437 144.07C427.439 150.719 418.206 158.013 408.667 164.798C402.263 169.344 395.451 172.646 389.636 178.278C389.013 178.877 387.893 178.888 388.233 180.245C389.794 179.714 391.254 178.809 392.883 178.47C394.886 178.051 402.501 178.097 402.885 177.769C403.779 177.011 403.021 174.478 407.355 173.879C409.335 173.607 409.844 174.908 411.383 175.213C413.997 175.733 416.746 174.207 419.405 173.686C425.345 172.522 431.365 171.787 437.249 170.373H437.237ZM623.797 144.681C622.7 144.624 621.602 144.635 620.505 144.748C616.114 145.223 607.685 146.795 603.397 147.881C602.514 148.107 601.36 148.582 601.111 149.566L618.298 146.818L623.809 144.669L623.797 144.681ZM428.095 147.134C423.603 149.034 419.213 151.522 415.026 153.987C403.157 160.965 391.208 169.231 379.339 175.959C375.447 178.165 373.817 178.153 370.264 179.148C367.707 179.861 354.616 184.282 353.247 183.298C358.984 177.712 367.787 178.594 374.519 174.829L418.885 148.356C419.054 147.372 418.093 147.711 417.493 147.881C407.015 150.81 389.851 161.383 378.819 166.257C372.052 169.242 365.173 172.092 358.169 174.433L318.895 191.893C324.892 190.954 333.016 190.57 338.673 188.67C340.767 187.969 342.611 185.922 345.044 185.752C346.232 185.662 345.541 187.053 346.763 187.042C351.64 186.996 363.77 183.536 369.201 182.36C369.823 182.224 370.378 182.518 370.966 182.563L371.045 181.478L371.95 182.699C372.697 180.731 374.881 181.421 375.345 181.127C375.967 180.743 376.25 179.171 376.895 179.024C377.483 178.888 378.886 180.833 381.613 180.11C394.976 169.502 409.923 161.032 423.75 151.092C425.153 150.086 427.009 148.503 428.084 147.157L428.095 147.134ZM592.512 149.588L563.478 153.241L562.459 156.328L592.523 151.42V149.588H592.512ZM590.056 158.171L564.722 162.344C560.264 160.41 559.065 156.52 559.993 152.031C555.648 153.682 556.293 156.249 557.549 160.003L559.37 158.171C559.167 160.625 563.591 164.165 565.797 164.221L584.297 160.693L590.045 158.171H590.056ZM555.082 155.717C548.7 156.317 542.183 156.701 535.847 157.64C533.425 158.002 522.156 159.721 520.99 160.58C520.583 160.885 519.395 162.977 519.497 163.068C530.223 160.297 541.934 159.856 552.751 157.357C553.826 157.108 555.501 157.391 555.082 155.729V155.717ZM518.388 165.431L518.591 158.171C512.651 163.52 519.383 169.627 525.392 170.373C530.348 170.995 547.252 167.388 552.762 165.963C553.487 165.771 556.836 165.16 556.304 164.006C555.75 162.796 554.788 163.237 553.849 163.328C547.06 163.973 529.612 169.638 524.385 168.304C522.586 167.84 520.402 165.85 518.376 165.431H518.388ZM513.364 161.847L482.52 166.268L480.856 168.586C490.112 167.591 499.481 166.166 508.578 164.108C509.698 163.859 510.954 163.611 512.017 163.226C513.002 162.876 513.658 163.554 513.364 161.847ZM479.012 165.533C475.934 164.821 475.063 170.464 476.047 171.572C476.217 171.764 477.496 171.821 478.107 172.239C480.449 173.845 482.553 176.118 485.507 176.513C489.026 176.977 508.589 173.766 512.889 172.714C514.552 172.307 516.736 171.854 515.514 169.819L485.529 174.704C480.336 173.381 477.168 171.334 479.012 165.533ZM579.624 165.533C567.087 167.048 558.227 167.128 548.327 175.631C522.597 197.751 512.119 242.419 515.898 274.885C518.399 296.405 525.041 316.986 532.396 337.194C533.55 337.329 532.871 335.961 532.724 335.328C530.913 327.254 527.134 319.587 525.312 311.467C523.819 304.818 522.235 295.749 521.42 288.986C520.458 280.98 520.832 272.872 520.119 264.843C521.228 265.069 521.262 266.042 521.364 266.969C522.914 281.025 524.136 294.878 528.266 308.504L536.673 332.286C536.016 325.218 532.282 318.354 530.71 311.58C527.711 298.644 525.776 279.103 525.675 265.815C525.675 265.318 525.98 263.497 526.851 263.633C527.53 285.888 532.441 307.532 540.508 328.158L542.805 332.908C541.323 324.947 538.257 317.404 536.48 309.5C533.493 296.212 531.875 279.974 532.384 266.381C532.407 265.646 531.92 264.097 532.995 264.244C533.968 271.628 533.855 279.159 534.919 286.544C536.933 300.453 541.481 313.842 545.872 327.095L549.56 335.362C542.194 311.784 536.888 287.007 538.494 262.072C538.551 261.19 538.562 258.85 539.739 258.725C539.207 280.912 543.326 303.8 550.782 324.642C552.174 328.543 554.188 334.22 556.021 337.804C556.383 338.517 556.587 339.501 557.537 339.659C547.331 309.5 540.825 278.289 544.129 246.241C547.162 216.737 557.051 185.696 579.635 165.544L579.624 165.533ZM473.502 167.976C469.123 168.779 446.742 171.153 444.66 173.178C443.947 173.867 443.97 174.41 444.06 175.337L473.502 170.43V167.976ZM442.827 179.013C441.265 176.276 443.653 173.833 443.132 171.052C435.71 176.095 443.992 180.607 448.733 183.14L476.545 177.486L473.886 175.982L448.677 180.833C447.443 180.743 446.018 179.657 445.237 178.753C444.253 177.61 444.411 176.366 443.438 175.959L442.827 179.013ZM544.661 172.273C535.213 173.562 525.414 173.675 516.204 176.016C483.402 202.353 478.254 247.869 485.348 287.041C489.297 308.844 497.274 328.939 506.632 348.853C507.763 348.988 507.163 347.575 506.96 346.998C504.923 341.434 501.585 335.746 499.424 330.002C495.17 318.693 491.866 305.892 490.146 293.905C488.833 284.712 487.849 273.788 488.222 264.549C488.256 263.803 487.758 262.265 488.833 262.412C490.078 286.86 496.222 310.958 505.907 333.338L509.687 340.281C507.209 332.614 503.644 325.377 501.415 317.596C496.256 299.582 493.721 280.2 494.977 261.496L495.588 259.358C495.396 285.594 502.818 311.818 513.579 335.498L517.675 342.735C516.125 337.103 512.991 331.992 510.92 326.496C503.248 306.13 500.239 282.62 501.11 260.874C501.144 260.127 500.646 258.589 501.721 258.736C502.671 264.696 502.332 270.825 502.954 276.819C505.115 297.637 512.289 317.653 520.753 336.594L521.069 334.751C516.385 323.759 511.961 311.75 509.89 299.944C508.589 292.492 507.028 279.193 507.854 271.899C507.955 270.983 507.978 270.011 509.098 269.773C511.033 296.823 518.953 324.121 533.142 347.213C537.759 354.71 547.908 369.185 555.308 373.494C557.085 374.523 560.423 375.789 562.471 376.445C553.645 370.802 547.456 363.949 541.368 355.536C513.228 316.635 502.219 259.562 518.456 213.82C524.023 198.124 532.622 183.785 544.684 172.284L544.661 172.273ZM437.916 174.116L410.749 178.391L409.708 180.845L437.928 176.559V174.116H437.916ZM408.464 176.57C405.386 177.113 404.39 180.528 404.786 183.31L406.619 181.478C405.714 184.282 411.666 188.376 413.838 188.726C415.592 189.009 429.306 186.702 431.919 186.216C434.533 185.73 437.079 184.746 439.749 184.531V182.71C439.048 182.677 438.335 182.665 437.633 182.71C431.455 183.208 418.907 187.494 413.838 186.883C408.769 186.273 406.585 181.026 408.464 176.57ZM505.873 178.911C506.088 178.538 506.281 177.271 505.715 177.192C497.172 179.646 483.572 178.108 476.557 183.615C459.89 196.688 451.596 224.133 449.027 244.397C446.764 262.276 450.023 278.786 454.051 296.246C457.944 313.084 464.574 330.228 471.963 345.788C473.162 347.089 473.083 346.15 472.619 345.132C471.159 341.864 469.451 338.98 468.116 335.531C458.826 311.479 454.176 285.843 455.081 259.969C456.156 259.822 455.658 261.36 455.692 262.106C455.862 266.166 455.511 270.248 455.76 274.308C459.697 296.778 465.445 318.467 475.335 339.048C476.466 339.184 475.866 337.77 475.663 337.194C474.565 334.174 472.755 330.952 471.623 327.74C464.597 307.747 460.342 285.232 461.214 263.95C461.248 263.203 460.75 261.665 461.825 261.812C462.006 276.05 464.959 291.124 468.749 304.863C471.295 314.08 475.006 323.997 478.899 332.727C479.306 333.643 479.917 335.667 480.834 335.995C476.794 323.081 471.974 310.45 469.881 296.981C468.365 287.177 468.24 278.062 467.98 268.224C467.923 266.143 466.124 263.056 468.557 261.812C468.772 281.059 473.151 300.374 479.759 318.377C481.739 323.782 484.477 331.212 487.045 336.233C487.464 337.047 487.804 338.212 488.799 338.46C486.31 330.985 482.95 323.805 480.664 316.239C475.957 300.611 473.411 282.744 474.079 266.404C474.113 265.657 473.615 264.119 474.69 264.266C477.632 291.237 483.357 318.467 497.082 342.147C499.944 347.089 511.474 363.452 515.989 365.555C517.098 366.075 518.388 366.075 519.474 366.663C520.085 366.041 518.139 364.379 517.652 363.893C512.119 358.374 508.25 355.219 503.644 348.468C474.135 305.18 465.853 225.275 501.099 183.061C502.117 181.84 505.692 179.227 505.851 178.945L505.873 178.911ZM402.897 182.021L402.648 180.245C394.275 181.998 385.619 182.914 377.167 183.92V185.752L402.885 182.021H402.897ZM642.818 187.596C633.121 178.617 618.491 181.727 607.843 187.29C611.996 187.143 615.786 184.848 619.973 184.079C628.719 182.473 634.965 183.672 642.818 187.584V187.596ZM470.424 182.699C461.757 185.617 447.127 184 440.066 189.45C421.77 203.597 414.008 239.58 413.34 261.45C412.661 283.852 419.439 306.74 425.628 328L420.616 319.225C410.693 293.476 405.013 265.092 412.141 237.873C411.7 237.42 408.418 240.134 407.841 240.621C404.13 243.776 400.487 247.813 396.821 251.058C390.643 256.531 383.888 261.439 378.502 267.738C379.622 277.192 380.12 286.838 381.647 296.235C384.657 314.769 393.947 341.921 407.219 355.287C409.391 357.481 411.677 359.437 414.291 361.088C415.32 360.432 414.03 359.743 413.668 359.256C410.421 355.016 406.438 351.25 403.304 346.93C388.73 326.847 384.476 299.424 382.089 275.247C382.994 275.088 382.858 276.4 383.005 277.067C387.35 296.653 390.314 315.866 400.803 333.473C401.991 334.774 401.924 333.835 401.46 332.817C392.758 313.661 389.081 293.792 388.221 272.793L392.917 296.608C396.696 309.262 399.932 322.482 407.547 333.496L403.542 323.398C401.833 317.574 399.672 311.852 398.337 305.915C396.504 297.773 394.591 285.696 394.331 277.418C394.309 276.728 393.947 275.088 394.965 275.258C397.284 293.668 402.546 311.818 410.817 328.396C410.987 328.735 412.786 332.569 412.741 330.171C406.404 315.742 402.071 299.978 401.109 284.146C401.052 283.14 400.577 279.985 401.709 279.555C403.734 298.067 411.19 314.86 418.59 331.675C419.303 331.325 418.67 329.922 418.477 329.334C416.656 323.567 414.064 318.026 412.322 312.191C409.29 302.047 407.819 293.351 406.597 282.959L407.23 277.113C411.349 303.144 420.729 331.698 438.539 351.589C439.727 352.912 446.074 359.946 447.726 358.646C446.334 355.457 443.144 353.58 440.994 350.967C430.358 338.042 425.379 324.879 422.121 308.516C419.835 297.027 418.636 284.508 418.285 272.815L421.532 292.56C424.927 307.792 430.29 322.402 436.694 336.572C437.826 336.708 437.226 335.294 437.022 334.717C436.072 332.116 434.454 329.448 433.458 326.632C431.331 320.593 429.091 313.401 427.789 307.159C426.364 300.362 424.927 291.044 424.429 284.158C424.248 281.692 424.316 278.684 424.429 276.185C424.463 275.439 423.965 273.901 425.04 274.048C426.103 291.61 431.444 308.606 437.645 324.913L441.605 332.897C434.725 313.412 429.521 293.08 429.962 272.205L436.875 304.829L447.127 331.981C447.986 332.964 447.771 331.393 447.613 330.895C445.576 324.585 442.997 318.535 441.299 312.067C438.29 300.577 435.608 286.193 436.095 274.353C436.128 273.607 435.631 272.069 436.706 272.216C439.014 292.254 444.377 311.874 452.558 330.262C452.965 331.178 453.576 333.202 454.493 333.53C452.15 325.716 448.824 318.173 446.832 310.235C440.417 284.746 441.956 254.304 447.443 228.679C451.132 211.422 457.31 194.957 470.458 182.71L470.424 182.699ZM404.786 190.05C404.933 188.557 403.994 188.184 402.727 188.229C394.195 188.557 373.308 200.363 375.345 183.298C369.02 187.799 375.39 193.058 380.572 194.381L404.786 190.038V190.05ZM369.812 186.974L369.518 185.764C368.816 186.487 367.979 186.759 367.006 186.928C360.296 188.105 353.926 188.84 347.182 190.31C346.729 190.411 346.311 190.163 345.904 190.038V193.713C346.843 193.894 346.515 192.662 347.148 192.221C350.633 189.812 360.568 190.875 364.46 189.891C364.754 189.812 369.62 187.2 369.823 186.962L369.812 186.974ZM433.617 188.828L408.452 192.798C404.3 194.166 398.359 202.851 395.938 206.65C386.094 222.131 380.538 242.317 379.633 260.557C386.886 256.203 392.102 249.486 398.359 244.024C402.908 240.055 410.738 236.312 412.775 230.85C413.895 227.842 414.302 224.28 415.388 221.193C419.654 208.98 424.881 198.508 433.617 188.828ZM345.881 195.568C343.109 194.528 344.5 191.565 343.742 189.439C336.297 194.324 351.493 201.166 355.103 199.469C356.449 198.836 360.364 194.392 361.835 193.114C355.872 195.387 351.742 201.369 346.186 194.335L345.881 195.557V195.568ZM339.748 191.893C333.016 193.566 323.975 193.137 317.514 195.104C316.304 195.478 315.093 196.167 314.607 197.4L339.76 193.725V191.893H339.748ZM363.068 197.4L372.256 195.251L369.62 192.56C367.707 193.442 365.897 194.562 364.222 195.806C363.532 196.314 362.695 195.806 363.068 197.389V197.4ZM313.373 194.957C311.846 193.397 311.789 198.022 312.728 199.594C313.373 200.668 319.755 203.948 321.101 204.128C323.851 204.49 331.33 202.839 334.374 202.138C335.709 201.833 340.676 200.849 340.982 200.159C342.396 196.982 335.279 200.159 334.385 200.318C330.108 201.064 321.531 202.738 317.854 201.2C314.697 199.888 313.814 198.293 313.362 194.946L313.373 194.957ZM398.654 194.957L374.281 198.486C369.767 200.453 363.306 211.818 360.918 216.398C350.973 235.43 346.99 256.034 347.714 277.44C347.85 281.421 348.902 285.786 348.359 289.981C356.506 281.003 366.078 273.573 375.028 265.442C375.424 251.341 377.959 236.651 382.541 223.285C386.207 212.564 391.616 203.733 398.654 194.946V194.957ZM310.307 198.633L310.001 196.812C303.722 199.062 297.034 199.56 290.528 200.657C289.883 200.77 288.096 200.815 288.209 201.697C295.745 202.014 302.963 199.797 310.296 198.633H310.307ZM364.913 200.476C363.645 200.498 362.31 200.306 361.054 200.6C357.083 201.528 345.292 217.766 340.699 220.718L322.244 238.449C321.022 249.418 318.216 260.207 317.65 271.266C316.915 285.775 319.2 300.182 320.75 314.521C321.441 314.351 322.278 313.491 322.47 312.858C323.409 309.771 320.151 301.165 320.75 297.366L323.817 311.467L328.139 308.097C326.657 301.776 324.96 295.319 325.05 288.783L329.35 307.781C335.222 304.139 331.545 299.65 330.651 293.905C330.198 290.988 330.063 287.46 329.961 284.486L333.638 302.873C340.156 300.419 335.335 294.878 336.093 290.004L337.779 294.742L337.927 298.587L345.191 292.639C339.465 260.93 346.752 226.994 364.924 200.487L364.913 200.476ZM328.105 226.836L348.359 207.544L353.247 201.087C350.192 203.789 345.87 202.319 342.385 204.027C337.089 206.616 330.006 221.136 328.105 226.847V226.836ZM282.699 202.319C281.42 202.364 266.552 203.348 269.211 205.994C272.741 204.162 277.222 204.208 281.148 203.518C282.235 203.326 282.981 204.196 282.699 202.319ZM292.52 207.227C293.493 209.715 302.432 214.329 304.355 213.876C305.804 212.723 311.733 205.757 311.54 204.479C311.359 203.303 310.409 203.902 309.854 203.993C304.4 204.943 298.471 207.894 292.52 207.227ZM334.238 205.994C327.585 207.939 316.949 206.786 312.174 211.829C308.168 216.059 303.348 225.264 301.006 230.714C297.261 239.433 294.364 249.498 292.531 258.714C297.917 254.281 303.382 249.69 308.485 244.929C310.873 242.701 319.857 234.831 321.033 232.942C322.504 230.579 323.76 224.868 325.129 221.713C327.573 216.104 331.058 211.174 334.249 205.994H334.238ZM556.304 215.81C555.025 214.736 554.188 218.694 554.03 219.349C539.433 277.192 552.559 329.775 591.301 374.285C599.764 383.999 610.842 395.228 621.761 402.092C625.845 404.659 631.209 406.367 634.841 409.556L619.113 407.192C595.148 403.585 569.101 400.385 546.505 391.474C537.25 387.821 526.874 382.936 520.73 374.93C521.726 374.025 523.095 376.208 524.204 376.976C546.188 392.141 589.004 401.617 615.583 404.603C616.25 404.682 617.8 405.146 617.653 404.071C597.988 395.002 578.142 384.508 557.39 378.153C543.846 374.002 529.816 370.565 515.819 368.507C516.034 369.762 518.942 370.7 517.969 372.182L513.387 368.179L494.955 364.831L543.79 474.5C556.847 470.169 570.47 467.319 583.098 461.8C597.671 455.434 625.37 441.197 633.856 427.921C637.409 422.357 641.946 412.982 639.638 406.299C639.31 405.36 637.669 405.191 636.957 403.461C636.006 401.154 634.603 393.622 634.218 390.863C632.114 375.348 634.705 359.709 647.004 349.09L556.293 215.833L556.304 215.81ZM318.284 241.559L312.14 246.139L290.166 267.15C289.057 289.19 292.248 311.433 299.275 332.286C300.418 332.433 299.727 331.053 299.614 330.42C298.732 325.818 296.457 321.147 296.208 316.352L300.497 331.065C301.063 331.653 303.642 329.368 303.461 328.43C298.958 316.341 295.948 303.495 294.975 290.615L304.785 328.011L308.44 325.263C307.919 324.393 307.184 323.579 306.788 322.64C304.118 316.273 302.443 307.464 301.278 300.555C300.768 297.49 300.35 294.346 300.497 291.237L308.938 321.113L309.085 324.336C310.624 324.54 311.291 322.821 311.472 321.588C308.564 311.264 305.837 300.804 305.407 290.004L313.384 320.65C314.935 320.808 315.806 319.089 316.292 317.879C312.321 314.215 313.407 308.561 312.694 303.857C312.027 299.458 310.488 295.127 310.929 290.603L317.062 317.574L318.827 316.556C317.186 308.041 314.392 299.48 313.452 290.83C312.332 280.448 313.226 268.269 314.674 257.877C315.432 252.472 316.53 246.716 318.273 241.559H318.284ZM375.956 270.983C375.288 270.418 368.318 275.959 367.357 276.796C366.202 277.802 365.512 279.238 364.698 279.962C359.447 284.621 353.937 289.032 349.026 294.064C352.919 301.889 353.79 311.105 356.63 319.428C360.364 330.375 366.655 341.242 372.279 351.295C371.068 351.578 370.819 350.673 370.185 350.017C362.005 341.547 354.356 325.06 350.52 313.876C348.642 308.403 346.447 302.522 346.503 296.733C345.157 297.615 343.335 298.949 343.437 300.656C348.325 314.905 353.586 329.832 361.597 342.667C365.625 349.135 372.912 356.701 378.705 361.744C379.803 362.694 385.268 367.523 386.388 366.629C385.653 365.702 384.996 364.481 384.182 363.633C381.025 360.365 375.186 356.067 372.856 352.245C372.346 351.408 372.89 350.504 372.437 349.678C363.86 333.835 354.695 311.987 354.22 293.747C354.209 293.136 354.118 291.723 355.091 291.847C358.87 308.663 362.944 326.293 373.501 340.281C369.563 332.015 366.078 324.246 363.872 315.267C363.034 311.84 358.418 288.296 359.402 286.939C359.742 286.883 360.206 287.29 360.33 287.539C361.258 289.427 361.846 295.556 362.514 298.237C366.644 314.69 372.369 331.585 382.711 345.189C379.803 339.06 376.012 333.372 373.648 326.971C369.608 316.047 365.727 299.447 364.924 287.867C364.856 286.872 364.392 283.705 365.524 283.276C368.556 302.692 374.847 322.142 384.838 339.082C385.234 339.749 385.46 340.767 386.377 340.903C377.585 323.081 372.38 304.004 370.434 284.18L371.034 278.978C372.89 297.377 378.694 316.307 387.893 332.331C389.488 335.102 391.208 338.257 393.732 340.292C391.638 334.683 388.063 329.583 385.641 324.167C379.124 309.534 374.756 289.156 375.322 273.143C375.356 272.318 375.65 271.73 375.945 271.017L375.956 270.983ZM216.801 335.102C207.036 344.363 196.06 353.58 186.669 362.932C185.979 363.621 185.108 364.356 184.632 365.182C183.173 367.715 180.559 383.445 180.253 387.177C179.111 401.448 184.067 415.006 192.813 426.089L296.016 334.446C286.613 315.142 284.792 292.842 285.131 271.594C282.631 273.132 279.938 275.428 277.765 277.407C257.104 296.212 237.043 315.889 216.778 335.102H216.801ZM482.078 360.489C478.028 354.937 473.06 350.832 469.055 344.997C455.115 324.675 450.193 299.616 447.76 275.541C447.692 274.907 447.5 273.46 446.81 273.437C444.547 273.392 445.146 278.65 445.248 280.505C446.391 302.081 456.812 334.027 470.447 350.967C471.725 352.562 480.392 361.891 482.09 360.478L482.078 360.489ZM355.091 343.323C350.577 328.961 344.07 314.894 342.52 299.797C338.187 302.997 339.375 305.135 340.676 309.601L355.08 343.323H355.091ZM348.336 342.102C347.25 333.779 342.837 326.541 340.54 318.32C339.262 313.74 337.621 308.776 338.221 304.094C333.887 306.955 335.754 310.506 336.863 314.645C337.972 318.784 339.941 323.024 341.479 327.197L348.336 342.102ZM163.077 394.222V403.11C163.077 409.454 171.349 426.518 174.856 432.421C198.357 472.001 259.062 505.507 304.491 509.714C305.804 509.838 307.15 509.782 308.463 510.098L309.673 506.106C309.639 505.598 303.19 503.981 301.911 503.46C298.268 501.979 295.156 499.344 291.456 497.964C288.254 496.777 276.317 494.968 275.038 492.898C274.631 492.242 274.914 491.191 274.563 490.637C273.511 488.918 250.79 479.487 246.887 477.53C217.117 462.569 179.19 431.935 176.033 396.291C173.894 372.137 189.102 350.594 174.132 326.462C151.389 289.778 97.1682 303.778 103.029 347.869C105.903 369.49 127.639 380.346 145.234 365.668C154.772 357.718 155.508 338.042 142.552 333.507C131.373 329.595 121.733 343.323 131.169 351.307C129.133 344.861 128.431 336.504 137.053 335.418C148.085 334.039 151.966 346.512 148.99 355.31C146.603 362.377 136.985 369.185 129.665 369.717C98.5712 371.956 95.7086 318.298 129.823 309.172C148.379 304.207 164.447 314.622 173.001 330.658C184.327 351.895 171.315 375.925 173.521 398.202C176.961 433.055 212.648 462.988 241.591 478.537L276.566 494.764C273.409 495.217 271.157 494.448 268.283 493.554C234.067 482.947 187.122 449.723 174.279 415.21C171.632 408.097 169.674 393.419 169.912 385.91C169.957 384.485 171.767 380.12 172.118 377.802C175.23 356.791 179.326 337.013 161.539 321.272C138.898 301.245 107.895 315.798 110.305 346.105C111.052 355.468 117.829 366.505 128.114 366.618L119.945 362.219C91.5899 329.459 138.875 292.481 165.782 328.057C180.91 348.061 169.402 362.694 169.187 383.468C169.086 393.419 169.176 408.267 172.786 417.313C187.472 454.077 231.748 482.529 267.378 496.28C277.369 500.136 288.978 499.333 298.641 504.275C299.343 504.636 300.338 504.84 300.497 505.79C291.954 504.116 283.083 503.234 274.586 501.334C262.897 498.722 244.058 489.189 233.196 483.218C207.047 468.857 176.565 441.14 166.743 412.292L163.077 394.199V394.222ZM343.437 344.556C340.529 332.275 334.69 321.102 333.321 308.391L330.006 311.739L343.437 344.556ZM329.327 312.067C327.754 311.671 327.981 313.22 326.906 314.227C323.183 317.732 319.076 320.763 315.829 324.63C315.647 325.083 316.745 324.698 317.017 325.388C319.178 330.838 320.977 336.278 323.806 341.48C324.926 341.638 324.315 340.202 324.145 339.614C322.697 334.491 316.123 325.637 320.728 321.26C327.89 344.126 342.69 364.594 362.74 377.666C363.317 377.124 364.12 376.705 363.385 375.8C363.125 375.473 357.671 372.385 356.302 371.232C345.79 362.457 332.597 344.906 328.071 332.003C326.385 327.208 324.609 321.396 325.333 316.352C330.063 323.827 331.952 332.84 336.772 340.473C337.168 341.095 338.04 342.362 337.904 340.575C333.276 331.969 329.938 321.78 329.316 312.055L329.327 312.067ZM140.991 396.664C142.077 397.897 146.569 389.416 147.237 388.5C157.737 374.149 170.161 365.272 168.588 344.861C167.015 324.449 142.767 310.834 125.24 321.147C124.448 321.611 118.452 325.625 119.526 326.767C131.882 315.109 150.688 317.076 161.222 330.149C170.398 341.536 167.139 358.714 159.377 369.977C155.745 375.246 150.326 380.154 146.614 385.424C145.539 386.95 140.018 395.545 140.991 396.664ZM150.201 366.629C158.042 358.623 159.615 343.413 152.634 334.457C146.399 326.462 136.714 322.323 127.277 328.091C119.685 332.738 117.433 349.237 126.462 353.252C132.063 355.739 142.201 352.664 139.011 345.291L136.476 345.019C134.111 344.261 136.544 340.937 138.219 340.892C140.946 340.812 143.548 345.415 143.48 347.903C143.265 355.954 133.534 358.306 126.994 356.395C117.162 353.534 117.626 345.189 117.988 336.572C114.389 342.588 116.098 351.849 122.163 355.706C125.58 357.877 132.267 359.788 136.25 359.121C144.702 357.707 149.205 345.879 141.919 340.869C135.288 336.312 132.855 343.142 134.247 348.841L138.23 347.609C139.463 349.395 137.234 350.198 135.899 350.798C125.535 355.479 121.133 345.279 124.132 336.583C127.639 326.428 140.255 326.213 147.746 332.58C155.236 338.947 156.696 348.378 154.195 357.424C153.267 360.783 150.903 363.282 150.201 366.607V366.629ZM320.117 343.945C318.804 337.612 314.754 332.105 314.301 325.557L311.619 328.814L320.128 343.945H320.117ZM310.307 329.233C308.994 328.973 307.931 330.646 308.146 331.732L317.051 349.463C315.478 342.531 310.669 336.447 310.307 329.233ZM559.37 332.908L558.16 333.202C564.145 347.609 572.846 360.941 582.984 372.77C586.605 376.988 592.308 383.4 596.483 386.86C597.173 387.437 597.479 388.341 598.633 388.081C599.708 387.007 593.428 382.642 592.783 381.986C591.21 380.369 589.468 378.209 587.895 376.445C576.693 363.859 565.922 348.412 559.37 332.908ZM303.552 335.362L301.787 336.787C306.822 347.733 313.803 358.126 321.644 367.251C322.289 367.998 327.63 373.821 328.094 373.369L319.257 362.898C313.509 354.269 306.663 345.302 303.552 335.362ZM365.218 488.024H349.264C346.718 488.024 342.136 497.32 340.054 499.061C338.492 494.21 342.95 490.671 344.976 486.814C347.657 481.714 350.282 475.925 352.738 470.666C363.023 448.615 371.679 425.704 381.466 403.427C369.393 401.55 357.637 400.362 346.922 394.109C337.101 388.375 324.417 376.897 317.062 368.156C309.651 359.358 302.058 348.864 297.408 338.438L195.008 430.635C209.865 450.119 230.401 465.046 252.397 475.71C259.345 479.08 266.778 481.692 273.307 485.005C276.713 486.724 281.228 486.43 280.3 491.666C285.052 493.916 288.401 490.037 292.803 489.845C296.921 489.664 302.782 491.926 305.045 495.431C307.127 498.654 306.132 505.077 311.846 501.549C315.229 499.457 315.727 494.764 318.906 492.672C326.453 487.73 338.605 493.226 337.282 502.759C343.346 503.8 342.882 500.565 345.621 497.286C351.369 490.411 358.022 488.047 365.501 494.165C364.969 492.83 366.587 488.375 365.195 488.036L365.218 488.024ZM136.069 393.611C141.274 379.329 158.653 372.272 161.674 356.961C162.874 350.888 162.512 345.652 161.222 339.659C160.124 339.523 160.622 341.039 160.69 341.728C161.493 350.651 160.792 357.006 155.96 364.752C151.706 371.594 134.711 384.451 134.813 391.496C134.824 392.424 135.005 393.396 136.069 393.622V393.611ZM654.472 416.601C654.834 419.417 654.472 423.409 654.472 426.405C654.472 427.039 652.673 430.341 654.472 430.996C655.207 423.793 656.712 417.879 655.547 410.619C654.291 402.748 650.421 394.516 649.641 386.476C648.192 371.402 655.784 350.006 673.798 350.334C696.914 350.752 704.982 393.769 682.725 400.068C666.115 404.772 658.511 378.922 671.625 371.809C674.816 370.078 676.649 369.592 679.648 371.831C684.581 375.518 684.864 381.262 684.23 386.86C685.871 385.062 686.12 381.455 685.814 379.159C685.78 378.922 684.049 375.371 683.845 374.998C679.987 368.314 675.721 365.951 669.068 371.526C656.09 382.393 666.794 409.545 685.792 401.289C705.604 392.684 700.06 356.169 680.247 349.169C660.514 342.192 647.559 364.04 647.129 381.059C646.8 394.12 653.012 404.942 654.495 416.612L654.472 416.601ZM658.76 349.463C638.948 351.736 636.379 373.301 637.907 389.608C638.246 393.193 639.219 396.789 639.751 400.34C640.894 400.464 640.26 399.05 640.181 398.372C639.785 394.798 638.699 390.75 638.518 387.154C638.45 385.854 637.884 379.996 639.74 380.392C642.829 381.059 642.127 390.354 642.965 393.125L644.639 397.886C643.994 392.559 642.671 386.351 643.372 380.991C643.519 379.849 644.526 380.188 644.639 379.691C644.911 378.469 644.447 376.92 644.707 375.574C646.778 365.125 650.568 356.531 658.76 349.463ZM680.847 380.731C680.293 372.702 673.017 373.347 669.193 379.193C666.941 382.631 668.299 389.269 670.72 392.39C676.875 400.34 688.79 397.999 691.132 388.24C694.108 375.823 691.064 355.592 675.574 353.806C670.403 353.206 664.814 355.355 660.933 358.668C660.028 359.437 657.55 361.382 658.466 362.332C664.124 356.079 672.259 353.41 680.394 356.361C690.046 359.867 691.675 377.124 690.612 385.876C689.062 398.666 670.46 399.13 669.215 385.944C668.887 382.393 668.65 380.686 671.376 378.3C674.103 375.914 676.989 374.319 679.025 378.266C676.332 379.645 673.832 379.702 674.126 383.807L675.28 383.287L675.959 384.417C675.857 382.699 676.921 381.771 678.12 380.742L678.731 381.975L679.625 380.448L680.87 380.731H680.847ZM683.302 361.722C675.303 355.208 661.25 358.962 658.161 369.083C664.022 359.969 673.3 357.933 683.302 361.722ZM433.617 361.122C431.976 361.054 426.228 361.258 425.73 362.728C423.931 383.999 421.261 405.202 418.183 426.315C415.784 442.791 413.227 460.195 410.127 476.513C409.007 482.416 405.759 491.677 405.386 496.913C405.363 497.297 405.228 497.931 405.703 497.84C410.647 485.356 428.072 488.183 426.873 502.137L432.745 501.561C432.677 497.727 434.058 493.939 434.262 490.207C434.454 486.837 433.628 484.044 433.594 481.013C433.277 443.831 433.617 406.525 434.262 369.423C434.318 366.494 433.865 363.972 433.617 361.122ZM436.683 361.111V503.359C438.765 503.732 439.183 498.428 439.195 496.913C439.285 479.611 438.516 462.072 438.505 444.827C438.471 417.042 438.584 389.257 438.539 361.473L436.694 361.111H436.683ZM474.724 491.711C474.871 492.028 474.531 492.989 474.758 493.498L482.938 492.887L483.934 495.997L485.088 495.092C480.868 484.383 479.815 472.769 477.598 461.552C475.719 452.03 473.536 442.52 471.85 432.964C467.64 409.115 464.506 385.107 461.225 361.111H451.415L452.071 500.565C452.807 502.092 454.583 501.312 455.375 500.249C456.654 498.53 456.156 494.674 457.649 492.095C461.089 486.159 471.533 485.073 474.735 491.7C474.056 490.727 474.712 490.58 475.64 490.467C477.869 490.207 480.392 490.388 482.701 489.856V492.299C480.064 492.107 477.168 492.876 474.724 491.688V491.711ZM477.79 387.471L472.619 362.909C472.099 362.174 465.276 361.348 464.902 361.722L468.591 388.093L477.79 387.471ZM422.573 362.332C421.238 362.344 419.597 361.914 418.986 363.35L413.363 385.627C414.789 386.068 418.952 386.973 419.846 385.673C421.012 377.938 422.788 370.192 422.573 362.332ZM415.219 362.954C413.295 362.875 411.349 362.581 410.398 364.571L402.953 385.639L410.251 385.582L415.219 362.954ZM482.621 363.644L475.335 362.954L480.981 387.358L490.055 387.471L482.621 363.644ZM406.619 364.187L400.441 365.826L393.143 385.017C394.852 385.537 398.88 386.385 400.204 385.051L406.631 364.187H406.619ZM501.099 386.238L491.934 365.058C490.564 363.497 487.668 364.368 485.767 364.175L493.133 387.471L501.099 386.238ZM396.198 366.019C383.82 370.214 371.939 373.324 362.174 382.585C359.481 385.141 356.721 391.677 359.119 394.798C360.771 396.947 380.708 401.403 382.733 400.057L396.198 366.007V366.019ZM671.659 379.51C671.569 383.841 672.508 392.22 678.109 392.424C680.462 392.514 686.357 389.891 687.466 387.64C688.824 384.858 687.692 374.715 686.493 371.729C686.063 370.666 684.954 369.411 684.23 368.473C684.366 371.594 686.097 374.534 686.719 377.632C687.557 381.816 688.552 386.758 684.23 389.37C683.981 389.517 678.901 390.988 678.607 390.999C676.129 391.112 674.397 388.466 673.628 386.419L671.659 379.51ZM654.461 398.508L652.628 385.322V370.316C651.394 374.805 651.213 379.442 651.406 384.101L654.461 398.519V398.508ZM656.916 396.054V389.009C656.656 385.514 655.581 380.708 655.637 377.361C655.694 374.704 657.584 372.883 657.221 370.305C654.879 373.652 654.823 377.044 655.083 381.036L656.916 396.065V396.054ZM447.738 499.672L448.993 496.947L448.043 372.747C447.636 398.836 446.968 424.833 447.093 450.956C447.16 464.967 447.93 479.147 447.76 493.26C447.738 495.42 446.697 497.275 447.738 499.672ZM161.844 394.222L164.299 380.742C163.417 380.595 163.473 381.805 163.258 382.45C162.5 384.791 161.573 388.522 161.312 390.931C161.233 391.655 160.679 394.222 161.844 394.222ZM680.055 387.889C681.628 386.532 681.605 383.863 681.458 381.952C679.5 383.332 679.591 386.283 676.559 386.249C676.638 388.307 678.426 389.291 680.055 387.889ZM441.582 499.672C441.899 498.553 442.148 497.512 442.238 496.325C444.241 467.308 440.666 436.017 442.238 406.751L440.677 385.616L440.372 498.756L441.594 499.661L441.582 499.672ZM399.265 388.093C396.956 389.472 394.569 387.934 392.838 388.093C390.982 388.251 388.051 394.787 387.316 396.698C386.581 398.609 385.721 400.679 385.766 402.816L394.048 403.472L399.265 388.104V388.093ZM409.686 388.093C407.536 389.314 405.465 388.534 403.247 388.07L402.014 388.692L397.42 403.415L405.986 404.003L409.686 388.093ZM417.64 404.614L419.507 388.093L412.854 388.794L409.086 404.037L417.64 404.614ZM509.076 406.48L502.298 388.703L494.344 389.925L499.888 407.701L509.064 406.48H509.076ZM478.344 389.992L468.591 390.547C469.892 395.398 469.519 403.495 471.159 407.905C471.34 408.38 471.476 408.742 472.042 408.855L482.701 408.323L478.344 389.992ZM490.576 390.026L481.467 390.535L486.14 408.346L496.199 407.69L490.576 390.015V390.026ZM130.819 406.763C133.523 404.953 137.2 399.107 133.161 397.445C127.288 395.025 121.314 400.012 126.621 405.157L131.78 404.648C131.452 406.593 127.775 405.575 127.481 405.869V407.701C129.8 408.267 129.823 407.419 130.819 406.751V406.763ZM660.605 417.528L655.094 396.676C656.169 405.598 658.195 414.317 658.41 423.352C659.032 449.497 645.465 466.697 624.985 480.934C623.458 481.997 621.319 483.252 619.509 483.739C619.939 487.9 624.25 484.971 626.456 483.626C641.867 474.206 653.352 460.579 659.236 443.413C662.143 434.92 661.091 427.276 661.272 418.456L659.394 418.116L660.616 417.506L660.605 417.528ZM126.259 407.102C121.891 405.225 121.982 396.031 116.46 403.11C117.852 403.856 120.703 407.26 121.789 407.588C122.491 407.792 126.112 408.244 126.259 407.113V407.102ZM136.883 406.661C136.148 407.452 135.899 408.278 137.008 408.945C140.595 408.38 142.428 404.999 144.668 402.522C140.527 398.293 136.487 400.679 135.469 405.881C137.268 405.598 138.354 404.083 140.21 403.562C140.787 403.404 142.383 402.963 142.213 404.037C140.764 404.433 137.834 405.654 136.883 406.672V406.661ZM161.233 400.351C159.717 399.921 159.592 401.482 159.479 402.556C159.174 405.688 159.864 409.024 160.17 412.134L165.521 426.089C164.684 417.449 159.276 409.115 161.233 400.34V400.351ZM393.743 406.491C390.473 407.747 387.361 405.835 384.001 405.948L376.556 423.035L387.52 424.189L393.732 406.491H393.743ZM405.397 407.102L396.243 406.537L390.677 424.268L401.132 424.63L405.397 407.102ZM645.884 406.48C642.886 406.582 644.334 410.766 644.04 412.914C642.546 423.42 637.568 430.567 629.941 437.454C616.341 449.757 599.04 457.311 583.313 466.267L544.638 477.971L545.577 480.052C550.545 477.915 555.987 476.354 561.226 474.85C578.164 469.988 594.56 467.059 610.31 458.917C623.062 452.335 633.268 444.092 643.236 433.914C643.576 429.131 642.49 432.263 641.324 433.473C628.131 447.258 609.823 459.414 591.606 465.351C590.317 465.77 588.291 466.64 587.001 466.267C595.295 461.676 604.856 457.775 612.958 452.969C623.571 446.681 645.884 429.492 645.884 415.979V406.48ZM417.674 407.091H407.864L404.798 425.489C407.841 424.155 411.168 425.037 414.257 425.523L417.685 407.091H417.674ZM518.897 427.932L510.332 409.217C509.098 408.368 502.468 410.133 500.499 410.166L506.688 429.119L518.908 427.932H518.897ZM503.554 429.165C501.947 425.885 499.22 412.632 497.116 410.777C495.362 409.217 489.048 411.614 486.378 410.777L491.368 430.307L503.554 429.165ZM144.668 426.722C141.907 429.492 157.16 434.412 158.653 427.502C159.491 423.612 156.933 421.984 154.071 420.084C138.558 409.839 122.491 404.591 109.105 421.531C103.912 428.113 105.813 433.541 114.322 429.809L114.016 428.237L110.316 427.649L122.581 416.307C117.863 417.653 114.073 421.599 110.61 424.879C110.339 422.572 114.129 419.179 115.815 417.822C124.041 411.196 130.717 410.721 140.165 414.961C142.564 416.036 152.226 421.147 153.652 422.64C154.648 423.68 156.017 427.084 154.727 428.011C151.502 430.329 145.539 425.84 144.657 426.722H144.668ZM488.211 431.008L483.006 411.376C481.524 409.59 474.033 411.625 471.646 411.388L475.617 431.019C477.462 432.84 485.394 430.148 488.211 430.996V431.008ZM130.536 415.685L128.725 415.968L130.083 425.648L131.769 430.386C132.041 425.444 131.362 420.536 130.524 415.685H130.536ZM128.103 431.618C128.94 431.788 129.597 431.392 129.846 430.601C130.751 427.796 127.707 419.756 128.092 416.307C126.146 417.46 126.734 421.927 126.949 423.895C127.254 426.688 129.121 429.255 128.103 431.63V431.618ZM134.224 416.296H133.014C133.715 423.081 134.802 429.142 142.824 429.775C137.585 426.417 137.019 421.317 134.224 416.296ZM117.06 429.165C119.345 429.345 121.722 427.231 122.706 425.308C123.249 424.257 125.478 416.884 123.498 416.918C121.099 421.17 121.507 426.089 117.06 429.165ZM152.645 427.943C155.361 422.64 136.906 416.239 136.08 416.918C137.483 420.649 142.02 421.418 145.234 423.397C147.859 425.014 149.534 427.932 152.645 427.943ZM309.074 516.227C308.949 511.942 301.221 511.365 297.645 510.788C288.198 509.284 272.922 508.018 264.289 504.275C261.766 503.178 258.949 500.758 256.244 499.446C222.254 482.902 193.005 467.161 172.39 433.643L165.521 418.139C166.958 430.51 174.585 440.315 182.098 449.7C196.298 467.443 213.135 479.882 232.992 490.806C241.252 495.352 251.82 499.254 259.616 504.06C259.99 504.297 260.861 504.908 260.612 505.202L259.39 505.812L309.074 516.239V516.227ZM647.106 431.618L647.717 420.581L645.895 422.73L647.106 423.024C648.192 425.048 644.526 430.227 647.106 431.618ZM368.59 443.888H380.855L386.988 426.722L376.25 426.043L375.401 426.168C375.085 429.017 367.028 442.305 368.579 443.877L368.59 443.888ZM383.922 444.499H395.881L401.098 427.333L389.511 427.4L383.922 444.487V444.499ZM652.628 437.137C652.322 434.287 651.802 431.336 651.089 428.565C650.908 427.864 651.123 426.575 650.184 426.722C650.127 429.131 650.263 431.992 650.863 434.31C651.055 435.079 651.677 437.001 652.628 437.137ZM399.876 444.499H411.224C413.68 439.512 413.634 432.874 414.596 427.333L404.096 427.683L399.876 444.487V444.499ZM187.257 460.794C181.555 454.518 174.155 445.403 169.561 438.313C167.547 435.203 165.567 431.426 164.288 427.943C163.213 427.808 163.609 430.092 163.722 430.657C164.605 435.056 171.53 444.781 174.472 448.728C191.648 471.729 216.291 489.822 242.406 501.617C245.948 503.223 250.1 505.213 253.857 505.801C254.196 504.388 252.171 503.811 251.198 503.257C244.499 499.389 236.262 496.381 229.383 492.559C215.081 484.621 198.21 472.871 187.246 460.794H187.257ZM531.773 458.589L519.813 430.996L518.58 430.374L507.842 431.618L517.754 459.098L531.762 458.578L531.773 458.589ZM139.146 432.24C134.587 430.148 131.034 433.552 125.931 432.874C123.475 432.546 120.466 428.757 119.504 433.756C125.523 437.307 132.12 435.893 138.241 433.462C138.954 433.179 139.395 433.925 139.146 432.24ZM513.93 459.765L504.482 432.229C502.253 430.273 494.966 433.609 491.9 432.851L500.171 461.077L501.348 461.631L513.93 459.765ZM161.844 433.462C160.656 433.405 160.611 433.179 160.599 434.389C160.566 438.087 166.981 447.416 169.323 450.82C185.255 473.991 210.374 492.672 235.662 504.693C240.867 507.169 246.83 508.628 251.413 511.942L252.646 507.656C243.436 506.095 234.633 501.73 226.463 497.331C201.571 483.897 179.756 464.684 165.035 440.394C163.779 438.313 162.353 435.859 161.844 433.462ZM488.765 433.518L475.946 434.072L481.479 463.508C486.129 462.524 491.356 462.739 496.199 462.275L488.777 433.518H488.765ZM266.756 528.486C265.998 527.344 264.753 525.964 263.689 525.116C258.847 521.248 243.13 517.675 236.092 514.678C206.662 502.137 176.735 479.204 159.253 452.301C155.587 446.659 153.301 440.021 148.357 435.305C149.16 439.602 151.649 444.125 153.765 447.982C176.587 489.585 221.485 517.245 266.756 528.497V528.486ZM251.979 512.575C248.177 513.106 243.787 511.297 240.211 509.963C215.239 500.611 185.345 478.265 169.221 457.062C164.548 450.91 161.086 442.621 156.47 436.707C155.881 435.961 155.757 435.045 154.489 435.316C153.562 436.3 162.761 451.125 164.051 453.036C180.389 477.338 208.473 498.937 235.255 510.63C239.453 512.462 248.143 516.216 252.352 516.849C254.196 517.132 251.764 513.366 251.99 512.575H251.979ZM548.451 482.653C556.824 480.606 565.118 478.107 573.491 476.072C587.047 472.781 596.076 471.944 608.884 465.453C620.754 459.448 637.443 448.898 645.601 438.381C646.506 437.216 647.977 434.344 645.59 435.916C642.026 438.245 637.285 444.747 633.641 447.88C622.021 457.876 598.418 469.343 583.471 472.589C578.187 473.742 572.993 474.805 567.506 476.207C560.536 477.983 553.543 479.758 546.517 481.285L548.055 484.349L548.463 482.653H548.451ZM622.587 489.234C623.254 489.438 623.786 489.178 624.386 488.929C636.787 483.772 650.444 470.61 657.029 459.007C660.718 452.505 664.836 444.08 664.282 436.526L661.861 445.437C658.658 452.946 655.513 460.025 650.161 466.245C642.818 474.794 632.487 483.411 621.953 487.425L622.587 489.234ZM648.95 440.213C648.305 439.613 646.619 441.547 646.178 442.045C643.53 444.985 642.037 448.298 638.835 451.261C630.224 459.222 612.222 468.031 601.213 472.555C600.296 472.928 599.538 472.181 599.866 473.934C612.448 470.123 625.144 463.35 635.633 455.423C641.811 450.763 644.3 446.172 648.939 440.213H648.95ZM134.847 440.823C134.089 439.828 133.738 440.823 133.625 441.728C133.24 444.702 133.794 448.457 133.647 451.578C132.855 469.038 132.595 485.491 136.374 502.759L144.046 527.886C143.22 519.202 139.361 510.833 137.483 502.262C135.82 494.64 134.089 483.173 133.625 475.461C132.957 464.164 135.311 452.188 134.847 440.823ZM129.947 442.045C128.59 441.807 128.725 442.146 128.42 443.243C127.718 445.754 128.273 448.637 128.114 451.238C128.906 451.408 129.099 450.096 129.178 449.565C129.551 447.054 129.02 444.51 129.947 442.056V442.045ZM359.391 464.729H374.112L380.244 446.953C377.167 447.914 368.567 445.075 366.813 447.314C366.033 448.321 358.678 464.096 359.391 464.729ZM394.965 464.729H408.158L408.961 463.7L411.53 446.342L399.344 447.032L394.965 464.729ZM161.233 484.349L144.068 446.953C144.034 450.153 145.754 453.591 147.022 456.565C150.393 464.458 155.361 475.223 159.694 482.529C160.09 483.196 160.317 484.214 161.233 484.349ZM396.198 446.953H383.311L377.789 464.729H390.982C393.777 459.38 393.89 452.641 396.198 446.953ZM652.028 474.545L663.411 453.116L663.682 450.017L660.322 458.001C657.482 463.451 653.069 468.303 652.028 474.545ZM186.997 582.449C181.736 577.881 175.32 574.793 169.878 570.44C142.009 548.117 131.577 506.05 130.491 471.786L131.43 457.684L130.558 451.25C130.219 454.224 130.988 457.922 130.581 460.783C129.902 465.623 129.167 468.178 129.302 473.652C130.151 509.917 144.216 555.207 175.377 576.591C178.783 578.932 183.116 580.979 186.986 582.449H186.997ZM169.821 576.309C165.137 571.378 159.525 567.081 155.078 561.924C137.257 541.185 125.308 496.336 126.847 469.298C127.175 463.553 128.952 457.662 128.409 451.849C126.632 454.009 127.752 457.447 127.481 460.115C123.736 496.472 134.564 546.093 162.749 571.423C164.662 573.142 167.4 575.732 169.821 576.309ZM649.957 487.81C652.367 485.254 656.825 479.147 658.783 476.083C663.139 469.275 667.043 461.303 667.054 453.082C665.493 456.135 665.708 460.251 664.599 463.497C656.554 486.95 626.388 504.116 603.555 509.782L594.367 511.614L597.49 513.48C610.593 510.053 622.745 505.835 634.433 498.937C638.79 496.359 646.642 491.338 649.98 487.798L649.957 487.81ZM653.725 478.017C656.995 474.341 662.415 464.277 663.003 459.448C663.083 458.792 663.535 457.221 662.46 457.379C661.51 462.309 657.233 472.543 653.793 476.004C644.775 485.107 625.676 498.507 613.512 502.578C608.884 504.128 599.538 504.546 596.246 507.396C595.544 508.006 594.729 508.334 594.967 509.488C597.626 508.73 600.398 508.199 603.068 507.475C621.263 502.544 641.177 492.141 653.725 478.028V478.017ZM539.75 476.377L532.995 461.348L519.497 462.287L525.629 479.181L539.75 476.377ZM521.963 480.663C522.62 479.939 516.227 463.056 515.208 462.535L500.488 464.107L505.398 483.727L521.963 480.651V480.663ZM497.342 464.808C492.081 465.521 486.627 464.865 481.467 465.962L485.767 485.571L502.321 483.117L497.342 464.808ZM148.345 481.285L145.132 471.322L142.224 465.34L144.827 474.07L148.345 481.273V481.285ZM372.89 467.183H360.319C359.979 467.183 358.995 466.188 358.191 466.584L349.581 485.582H366.757L372.89 467.183ZM389.443 484.96H404.775C405.952 479.181 407.694 473.312 408.418 467.443C408.656 465.521 404.979 467.127 403.847 467.183C400.713 467.319 397.556 467.014 394.422 467.274L389.432 484.971L389.443 484.96ZM391.288 467.183H377.483C374.021 472.498 372.358 479.509 370.423 485.582H386.377L391.288 467.183ZM599.255 515.006C598.995 516.352 599.866 517.969 601.371 518.037C602.276 518.082 613.682 514.441 615.526 513.796C631.695 508.165 649.075 497.218 659.258 483.309C662.506 478.865 666.138 473.538 665.504 467.794L661.713 475.336C649.131 497.015 626.015 508.594 602.48 514.859C601.428 515.142 600.319 514.995 599.255 515.006ZM645.522 479.702C647.683 477.632 649.233 475.71 651.089 473.312C651.462 472.826 652.741 472.136 651.711 471.48C647.649 476.761 642.772 480.38 637.239 483.999C632.646 487.007 627.203 489.212 623.209 492.661C622.654 493.147 622.236 494.074 621.953 494.764C622.824 495.477 634.886 487.617 636.617 486.441C639.661 484.372 642.852 482.246 645.522 479.702ZM552.027 486.181L572.767 480.199C587.295 479.962 604.913 481.714 619.203 480.063C620.539 479.905 621.67 479.622 622.553 478.514C621.58 477.395 619.962 477.134 618.581 476.987C613.648 476.445 605.931 476.795 600.771 476.965C589.4 477.327 578.21 478.367 567.494 481.104C563.217 482.201 557.153 483.128 553.249 484.677C552.265 485.073 551.755 484.621 552.027 486.181ZM541.583 478.831L526.863 481.285L527.485 484.96C528.707 485.13 527.564 483.603 528.481 483.083C529.227 482.664 538.936 481.16 540.056 481.228C542.647 481.375 542.681 483.659 541.889 483.739C539.467 483.897 530.121 484.349 528.978 486.181C528.028 487.696 533.448 496.393 533.007 499.061C534.036 499.084 534.206 497.094 534.115 496.449C533.912 495.013 529.431 487.516 529.94 486.814C534.591 486.023 540.022 484.044 544.661 485.582L541.595 478.831H541.583ZM525.03 486.803C524.701 486.226 524.803 485.05 524.124 484.338C523.129 483.298 516.826 485.209 514.835 485.503C513.658 485.684 506.96 485.876 506.62 486.192L509.087 498.451C509.958 498.575 510.252 496.087 510.23 495.658C510.162 494.323 508.747 493.238 509.076 491.711L525.663 489.528C527.372 490.693 526.252 493.871 526.365 494.074C526.444 494.21 527.553 494.414 528.017 495.137C528.684 496.166 528.831 498.089 529.929 498.451C528.831 494.425 527.032 490.354 525.03 486.803C525.923 488.499 521.748 488.748 520.753 488.963C516.905 489.789 512.923 489.743 509.121 490.852L507.899 490.128L507.854 488.024L523.027 485.718C523.525 485.661 524.928 486.577 525.041 486.792L525.03 486.803ZM619.328 495.827C622.903 491.349 617.699 481.296 610.717 485.672C603.736 490.049 605.264 495.511 610.74 500.192C612.686 500.678 618.129 497.331 619.328 495.827ZM558.759 503.359C556.406 497.376 553.781 490.354 549.572 485.582C552.208 491.564 554.957 498.123 558.759 503.359ZM631.163 548.106L628.12 544.193C642.116 533.846 652.503 522.187 660.718 506.83C664.339 500.068 667.993 493.396 668.582 485.571C664.259 490.659 662.754 497.919 659.699 503.981C653.669 515.933 644.526 527.638 633.89 535.825C631.061 538.007 626.841 541.863 623.186 540.755C623.922 541.784 630.315 548.852 631.163 548.106ZM294.104 557.559C291.705 555.049 281.827 543.503 279.655 542.96C278.727 542.723 277.55 543.379 276.351 543.164C246.977 537.939 212.15 522.323 189.158 503.336C182.675 497.987 177.119 491.643 170.726 486.192L169.821 486.487C193.005 513.751 224.642 530.68 258.779 540.439C269.517 543.514 278.455 542.949 286.704 551.148C288.786 553.206 290.359 555.637 292.52 557.616C292.769 558.95 291.92 558.555 291.004 558.521C283.875 558.238 270.874 555.626 263.689 553.929C228.874 545.708 191.138 525.048 167.366 498.145C166.336 496.981 165.261 495.725 164.922 494.154C163.609 494.154 164.514 496.494 164.786 497.06C167.388 502.443 181.023 514.531 186.115 518.659C207.873 536.266 234.599 548.75 261.856 555.162C271.553 557.446 285.912 557.774 294.398 560.658C296.152 561.257 305.577 569.546 304.197 570.79C300.927 571.254 297.759 570.406 294.681 570.191C291.298 569.953 287.541 570.225 284.226 568.981C236.206 564.48 191.15 542.338 159.106 506.412C158.631 505.428 157.658 506.276 157.578 506.728C157.363 507.837 170.953 521.531 172.899 523.284C207.59 554.484 244.239 565.611 289.782 571.401C295.043 572.068 301.549 571.378 306.55 573.041C308.202 573.595 308.734 574.974 310.329 575.087C305.385 568.936 299.637 563.315 294.127 557.559H294.104ZM506.62 500.294L502.977 486.464L486.389 488.036L488.234 498.451L489.195 493.475L502.954 491.406L488.222 492.322V489.879C490.881 490.264 501.992 487.391 503.282 489.234C504.504 490.976 504.074 498.575 506.62 500.294ZM401.641 503.279L404.515 488.013C403.462 486.532 391.355 487.742 388.844 488.036C387.791 492.129 391.231 491.372 393.709 493.272C396.866 495.703 397.533 500.373 398.665 503.969L401.641 503.279ZM150.19 498.451C148.832 494.968 147.203 490.75 144.679 488.024C145.449 491.666 147.553 495.839 150.19 498.451ZM385.766 488.024H369.506C364.494 494.538 366.078 499.717 373.184 503.336C376.126 496.958 377.438 491.134 385.721 490.433L385.755 488.024H385.766ZM589.287 490.614C586.141 491.157 581.887 495.533 582.238 498.666C582.475 500.803 588.404 507.769 590.928 507.644C598.045 507.305 602.786 488.296 589.287 490.603V490.614ZM579.251 501.945C577.44 499.514 580.959 496.189 575.551 493.023C567.8 488.477 560.253 495.839 561.848 503.958L563.376 502.126C566.567 506.615 568.75 508.956 574.77 507.373L575.958 502.737C577.927 504.139 578.244 503.63 580.235 502.737C580.484 501.798 579.499 502.296 579.251 501.945ZM549.402 511.161C551.552 508.99 551.359 502.635 549.289 500.271C544.039 494.278 531.468 497.546 534.84 507.034C533.98 507.158 533.663 505.338 533.64 504.817C533.561 503.257 535.19 501.063 533.018 501.527C531.094 506.762 532.271 505.089 534.817 508.142C535.948 509.499 536.503 511.546 538.291 512.484C540.678 513.728 547.467 513.118 549.391 511.173L549.402 511.161ZM647.106 507.034C648.916 506.344 651.191 504.365 652.639 503.065C653.374 502.409 658.183 497.953 657.527 497.229C653.601 499.943 650.184 503.381 647.106 507.034ZM519.904 516.013C521.635 514.441 525.075 509.024 525.052 506.717C525.03 503.325 519.101 498.349 515.548 498.428C507.774 498.598 504.629 505.711 506.632 512.541L507.842 511.32C509.981 516.578 514.903 520.547 519.904 516.001V516.013ZM608.454 500.893C607.877 497.116 597.06 500.599 599.255 502.737L608.454 500.893ZM496.595 514.791C500.737 510.494 496.154 501.855 490.994 500.237C485.235 498.439 479.057 501.764 477.462 507.622C476.534 511.037 479.849 514.486 482.361 516.861C483.368 517.811 488.335 522.096 488.822 518.987C485.597 515.877 477.111 511.557 481.841 506.468C487.645 500.226 498.372 506.728 495 512.27C494.547 513.005 492.364 514.339 491.481 514.882C490.994 515.176 487.034 516.137 488.811 517.143C490.836 518.286 495.136 516.284 496.584 514.78L496.595 514.791ZM370.683 517.234C368.16 513.615 370.638 512.914 370.989 509.103C371.679 501.606 362.955 498.62 356.788 501.063C353.586 502.33 350.758 506.966 351.414 510.381C351.538 511.003 356.528 517.551 357.218 518.082C361.631 521.475 366.836 519.021 371.656 518.67C372.165 517.143 370.932 517.584 370.683 517.223V517.234ZM333.005 509.488C331.624 501.515 317.582 496.902 313.645 504.546C309.322 512.959 313.543 521.214 322.572 522.967L317.051 518.376C314.312 514.723 313.52 510.449 316.157 506.446C323.036 496.042 337.564 514.916 323.477 518.478L320.739 516.227C320.298 516.714 323.76 521.079 324.733 521.181C325.706 521.282 329.633 517.709 330.221 516.827C331.579 514.814 331.85 511.557 331.771 509.182L332.993 509.499L333.005 509.488ZM420.616 523.465C421.012 523.25 425.753 517.189 426.07 516.352C429.758 506.83 416.112 497.06 408.475 504.908C402.704 510.822 405.567 519.541 412.333 523.103C414.064 524.019 419.145 524.29 420.616 523.465ZM453.87 511.331L456.009 513.774C458.43 511.308 455.149 505.609 452.942 503.969C446.934 499.502 439.432 503.121 437.124 509.623C434.929 515.798 438.188 518.433 442.521 522.357C466.034 543.616 488.245 566.64 511.52 588.284C519.734 595.929 531.366 604.252 538.54 612.213C539.139 612.88 538.472 613.66 539.071 614.644C539.818 615.865 551.178 626.258 553.238 628.146C556.27 630.905 559.879 634.241 563.127 636.661C563.975 637.295 565.684 639.183 566.736 638.561L539.139 613.411C539.037 612.959 539.762 613.004 540.044 613.117C542.24 614.011 549.719 620.626 552.027 622.605C559.257 628.836 565.582 636.085 572.869 642.248C573.684 642.937 580.348 648.603 580.846 648.06C581.05 647.031 580.337 646.432 579.862 645.674C566.759 624.539 542.964 612.563 524.396 596.879C498.983 575.404 477.484 549.87 453.542 527.287C451.766 525.602 447.251 521.181 445.271 523.6C445.022 517.539 436.355 515.662 441.311 508.922C446.267 502.183 456.778 506.593 452.354 515.051C451.234 517.2 448.801 518.059 448.948 520.525C452.456 519.982 453.882 517.268 455.692 514.701C454.266 514.169 453.927 512.812 453.859 511.331H453.87ZM394.354 516.838C399.932 502.94 377.913 497.523 374.542 510.211C372.279 518.704 383.197 520.886 387.327 526.654L388.844 525.738C387.384 525.071 387.916 522.911 387.61 522.357C387.576 522.3 386.818 522.775 386.354 522.617C385.053 522.187 378.23 516.216 377.664 514.848C373.976 505.903 389.251 503.189 392.577 510.37L394.377 516.838H394.354ZM705.389 618.625C705.525 617.505 704.755 616.702 704.156 615.877C690.17 596.833 668.299 588.081 651.394 572.961C633.064 556.553 616.386 536.345 598.35 519.292C593.213 514.429 587.443 510.189 582.702 504.885C582.147 504.105 580.948 505.089 580.857 505.518C580.688 506.344 586.832 512.168 587.895 513.186C596.076 521.09 604.947 528.474 613.082 536.447C631.876 554.879 648.045 574.443 669.657 589.653C681.085 597.693 689.684 608.142 700.897 616.069C701.553 616.532 704.993 619.043 705.389 618.625ZM487.6 505.812C484.239 505.937 481.784 508.255 483.934 511.32L487.6 505.812ZM566.125 509.476C565.48 508.436 563.998 506.525 562.799 506.468C561.916 506.423 554.38 507.339 553.679 507.633C552.887 507.972 553.045 509.714 552.638 510.392L553.883 511.082L566.125 509.476ZM492.499 510.698C492.748 509.137 492.318 507.859 490.904 507.068C486.74 509.148 488.313 511.885 492.499 510.698ZM646.495 507.656L628.719 519.009L609.699 526.97C610.638 528.26 610.796 527.807 611.962 527.411C617.631 525.466 626.468 521.328 631.786 518.399C637.104 515.47 642.399 511.885 646.495 507.667V507.656ZM387.61 521.746C395.316 517.415 391.423 505.586 382.043 508.526C380.731 508.934 377.461 511.421 377.789 513.152C378.513 513.909 383.401 508.085 387.938 510.675C393.268 513.706 387.452 517.551 387.599 521.746H387.61ZM448.224 508.402C446.108 507.181 442.352 509.974 443.517 512.733C446.267 519.213 450.951 514.237 450.091 511.173C450.046 511.014 448.36 508.493 448.224 508.402ZM325.639 514.384C326.397 511.715 323.76 507.181 320.717 509.16C318.804 510.404 321.644 511.286 322.267 511.942C323.398 513.129 323.489 514.859 325.639 514.396V514.384ZM417.052 668.279C417.606 667.759 414.2 663.021 413.623 662.207C397.748 639.432 371.803 626.02 351.697 606.988C320.943 577.892 293.335 545.358 263.984 515.006C261.777 512.722 261.234 508.843 256.934 509.488C256.912 512.744 258.473 517.551 262.445 515.617C262.332 516.94 262.343 517.822 263.033 519.021C264.719 521.972 275.219 530.928 278.421 534.298C320.411 578.423 360.545 623.317 407.853 661.834C410.704 664.163 412.763 668.234 417.04 668.279H417.052ZM534.229 513.163C534.059 507.882 522.02 511.591 524.419 513.774L534.229 513.163ZM584.535 516.227C582.69 513.751 580.156 511.014 576.874 510.698L552.638 513.785C552.525 516.295 556.066 515.707 557.877 515.639C561.215 515.526 579.828 511.478 580.857 512.552V514.384L556.315 518.071L559.812 521.011L584.535 516.216V516.227ZM312.762 522.979C311.766 516.872 302.918 518.15 297.917 517.29C287.496 515.504 277.188 513.038 266.756 511.342C267.514 513.242 268.883 514.984 271.033 515.334L312.762 522.979ZM380.867 515.006C382.666 514.396 384.646 514.972 386.094 516.08C391.91 511.15 379.113 512.066 380.867 515.006ZM154.704 517.856C153.358 516.454 152.215 514.407 150.495 513.163C150.133 517.2 154.58 518.794 156.662 521.101C194.352 562.965 228.342 574.104 283.638 580.595C292.294 581.612 301.074 581.748 309.707 583.048C309.458 581.861 308.474 581.974 307.569 581.827C300.146 580.628 292.407 580.843 284.939 579.916C227.38 572.735 194.77 559.663 154.716 517.856H154.704ZM356.936 519.292L349.728 513.921L335.234 513.129C334.77 513.253 334.34 515.413 334.272 515.967C334.102 517.302 334.351 516.668 335.166 516.827C342.328 518.206 349.717 518.421 356.936 519.292ZM506.62 513.174C504.425 513.106 502.06 512.858 500.499 514.701L508.487 522.685L514.597 522.357L510.06 521.079L504.188 517.155C505.274 515.956 506.971 515.097 506.632 513.174H506.62ZM622.722 537.227C623.571 536.368 627.78 534.208 629.274 533.043C635.35 528.316 643.112 522.56 647.717 516.521C648.441 515.572 649.573 514.407 649.561 513.163C640.464 521.972 631.039 531.765 618.264 534.92C617.472 535.587 617.631 535.531 618.264 536.187C619.283 537.216 620.821 537.996 621.647 539.534C622.055 539.715 622.202 537.759 622.711 537.227H622.722ZM479.012 517.449L476.907 513.977C471.476 514.904 465.219 514.339 459.833 515.176C457.921 515.47 456.948 515.9 456.925 518.071C464.178 518.896 471.657 517.788 479.012 517.46V517.449ZM593.519 557.526C579.816 544.453 565.197 528.35 550.794 516.533C547.263 513.638 544.989 513.66 548.632 518.082C555.998 527.027 568.999 536.571 577.723 544.804C596.947 562.965 616.341 584.552 637.341 600.486C645.827 606.92 656.237 613.061 663.988 620.445C664.497 620.931 666.16 622.13 665.199 622.91C659.145 619.02 654.155 613.92 648.611 609.442C647.287 608.379 642.331 604.353 641.256 603.912C640.973 603.799 640.249 603.754 640.351 604.206C649.346 612.337 659.224 619.28 668.865 626.597C671.953 628.949 673.945 632.364 678.38 633.325C678.686 632.986 676.615 629.673 676.197 629.073C665.696 613.83 644.255 602.148 629.624 590.998C616.952 581.341 605.026 568.506 593.507 557.503L593.519 557.526ZM434.839 519.292L433.345 515.786C430.403 517.109 427.371 514.497 426.873 518.399C426.714 519.654 426.907 519.179 427.767 519.303C429.928 519.609 432.598 519.088 434.827 519.303L434.839 519.292ZM540.972 516.849C535.903 515.108 531.298 515.526 526.105 516.386L517.053 520.513L533.222 518.591L540.972 516.849ZM404.175 520.525C405.409 515.153 399.174 516.974 395.881 517.449C392.589 517.924 392.623 519.767 396.051 520.344C398.733 520.796 401.482 520.389 404.175 520.525ZM557.775 575.472C545.498 564.175 533.821 552.199 521.952 540.473L519.847 537.668C515.774 535.881 501.189 518.014 498.87 517.584C497.218 517.279 496.075 518.908 496.946 520.4C497.082 520.626 499.458 521.644 500.182 522.368C534.285 555.716 569.407 592.581 607.164 620.818C612.901 625.104 616.771 630.283 621.953 634.886C624.68 637.306 628.255 639.635 631.152 641.931C627.848 634.648 622.202 628.655 616.443 623.227C605.784 613.163 594.265 606.502 583.018 597.772C574.668 591.292 565.616 582.709 557.775 575.483V575.472ZM591.901 522.357L586.707 518.082C579.443 520.819 571.545 521.35 563.964 522.956C563.353 523.092 561.927 522.583 562.459 523.883C562.697 524.471 564.326 525.953 565.164 525.987C572.269 525.432 581.084 522.017 587.952 521.723C589.513 521.655 590.464 522.176 591.901 522.357ZM328.105 530.329C325.854 525.953 322.391 527.197 318.669 526.575C303.823 524.132 289.024 521.169 274.11 519.303C276.894 524.403 280.334 522.979 284.769 523.668C299.207 525.919 313.509 529.051 328.094 530.329H328.105ZM380.855 526.054C379.056 525.84 377.959 523.94 376.227 523.623C371.916 522.832 365.444 523.397 360.93 522.967C352.919 522.21 343.867 520.004 336.071 519.575C331.341 519.315 334.227 521.859 337.282 522.696C349.694 526.077 365.874 527.117 378.717 526.654C379.452 526.631 381.002 527.117 380.855 526.043V526.054ZM546.494 522.357C545.589 520.864 543.643 519.778 541.911 519.846L509.698 524.189C511.248 524.222 511.327 525.873 512.515 526.586C515.095 528.124 518.84 525.896 521.726 525.5C529.963 524.369 538.313 524.019 546.494 522.357ZM487.6 521.757C482.972 520.638 457.208 519.371 454.832 521.101C453.384 522.153 454.934 523.431 456.586 523.623C464.291 524.516 473.354 522.922 481.15 522.979L487.589 521.757H487.6ZM385.506 579.023C375.99 569.467 366.553 559.708 357.23 549.96C349.502 541.886 340.8 530.216 332.088 523.589C331.59 523.205 327.472 520.445 328.105 522.662C329.406 527.117 339.714 535.282 343.448 539.217C381.828 579.611 421.34 618.919 464.008 654.777L475.946 662.772C469.383 650.571 459.675 641.547 448.903 633.099C440.745 626.687 431.229 621.146 423.184 614.667C410.444 604.41 397.126 590.716 385.517 579.045L385.506 579.023ZM439.138 524.2C438.833 523.239 437.961 522.571 436.977 522.379C435.698 522.13 427.948 521.904 426.533 522.029C425.47 522.119 424.191 523.193 423.807 524.2C429 524.686 433.933 524.369 439.138 524.2ZM409.697 526.654C406.246 521.361 400.158 525.037 394.976 524.211C395.417 525.432 396.447 527.061 397.839 527.117C398.393 527.14 398.801 526.654 398.959 526.654H409.697ZM498.643 527.276C492.748 522.854 484.998 525.851 478.118 526.066C471.046 526.281 463.216 526.348 456.326 525.432C456.495 527.524 459.641 529.492 461.508 529.752C468.251 530.668 479.498 528.768 486.661 528.474C490.542 528.316 494.457 528.644 498.338 528.508L498.643 527.287V527.276ZM555.704 530.329C550.228 522.775 547.252 525.478 539.965 526.563C531.92 527.762 523.83 528.192 515.831 529.73C516.408 531.268 517.369 532.636 519.168 532.704L549.368 528.113L555.704 530.329ZM386.999 532.783C384.148 527.83 380.312 529.99 375.628 529.752C374.179 529.673 372.833 529.153 371.385 529.085C360.726 528.599 348.992 529.922 339.149 525.432C340.438 526.688 342.679 529.119 344.082 530.001C345.983 531.2 365.739 532.658 369.495 532.817C375.311 533.054 381.195 532.602 386.999 532.783ZM400.702 536.255C397.318 532.851 393.879 529.402 390.36 526.054L388.832 526.982C388.572 527.988 392.419 532.364 393.403 533.439C418.93 560.975 449.65 587.628 477.79 612.812C493.495 626.868 508.465 642.259 526.071 654.076C526.919 654.642 527.587 655.58 528.707 655.422C519.078 637.679 501.721 626.325 485.959 614.463C453.474 590.026 429.079 564.797 400.713 536.266L400.702 536.255ZM223.193 588.59C190.935 587.108 165.159 565.396 150.077 538.12L145.29 527.276C145.324 530.024 146.682 532.964 147.825 535.463C160.339 562.829 186.895 585.468 217.446 589.121C219.29 589.336 221.259 588.737 222.899 589.8L223.193 588.59ZM444.32 530.103C443.664 529.345 442.861 527.66 441.933 527.524L405.148 529.73L398.654 529.119C399.796 530.646 401.199 532.715 403.247 532.851C417.187 531.358 431.252 531.2 445.271 530.951C445.509 530.035 444.637 530.476 444.32 530.114V530.103ZM604.777 534.004L597.422 527.264C598.61 530.397 601.315 533.473 604.777 534.004ZM532.045 559.516C521.918 549.723 511.893 539.602 501.246 530.442C488.607 532.104 475.798 532.331 463.069 532.794C466.147 538.301 469.179 535.938 473.784 535.825C477.054 535.746 480.358 536.017 483.617 535.847C490.542 535.486 497.444 533.88 504.47 534.637C505.919 534.909 514.348 543.345 513.375 544.43L476.568 546.896L477.62 548.027C489.999 546.432 502.524 547.439 514.88 545.64C518.49 547.631 521.397 549.994 523.808 553.341L522.767 554.732L487.623 557.322C489.693 561.009 489.897 558.747 491.628 558.566C498.134 557.887 505.24 557.887 511.848 557.311C515.287 557.005 524.204 555.004 526.704 555.954C527.564 556.282 532.758 560.081 531.785 560.997L496.822 565.905L498.44 568.235L529.714 562.286L535.473 562.829C534.613 561.551 533.188 560.601 532.067 559.516H532.045ZM589.445 533.394C588.857 531.629 585.293 532.726 583.777 532.953C581.366 533.326 577.983 534.027 575.596 534.615C574.566 534.875 573.808 534.004 574.102 535.847C575.064 536.062 575.426 536.368 576.478 536.13C579.556 535.452 582.984 534.196 586.221 533.552C587.284 533.337 588.37 533.371 589.434 533.394H589.445ZM453.859 538.912C449.152 530.68 438.697 535.112 430.833 533.993L404.786 535.859C407.14 541.683 413.544 538.448 418.568 538.279C425.311 538.053 432.112 538.46 438.867 538.324C443.789 538.234 448.993 536.39 453.87 538.901L453.859 538.912ZM393.743 539.523C390.993 534.898 389.364 536.447 385.483 536.492C374.938 536.628 365.094 535.09 354.774 534.626C352.636 534.536 350.475 534.671 348.348 534.626C348.415 536.526 350.712 537.962 352.364 538.267C361.597 539.986 375.401 539.839 384.815 539.5C387.78 539.398 390.778 539.636 393.732 539.523H393.743ZM615.209 545.041C613.422 540.473 609.065 537.86 605.693 534.626L605.954 537.284C605.365 539.455 585.949 543.628 582.69 543.22L585.349 544.894C591.957 543.469 600.783 539.783 607.334 539.319C609.654 539.149 611.973 540.009 611.441 542.779L609.495 544.555L590.056 550.571C592.534 553.805 595.227 550.684 598.158 549.779C603.77 548.038 609.541 546.613 615.198 545.041H615.209ZM567.359 540.755L560.615 535.248L561.226 537.08C553.803 538.652 546.336 540.529 538.755 541.298C536.13 541.569 533.391 541.309 530.778 541.456C529.703 541.513 528.911 540.993 528.107 542.293C529.08 543.582 530.676 543.311 532.067 543.209C540.361 542.61 554.675 538.211 562.154 538.618C564.371 538.742 565.401 540.393 567.347 540.755H567.359ZM580.846 552.414C580.778 552.335 579.647 552.143 579.002 551.521C575.437 548.117 571.998 544.611 568.275 541.366C567.132 542.7 571.5 545.041 571.036 545.652C560.23 548.875 549.198 550.91 537.906 551.487C537.929 553.115 539.445 553.059 540.588 552.98C545.781 552.629 554.12 550.797 559.506 549.768C562.584 549.18 568.298 546.907 570.821 546.907C572.846 546.907 575.075 549.508 577.089 550.017C577.542 551.747 576.456 552.425 575.053 553.047C571.353 554.676 560.513 556.248 555.829 557.141C552.185 557.831 548.372 558.475 544.65 558.543C544.842 559.414 545.985 560.059 546.788 560.115C548.938 560.262 555.297 558 558.024 557.492C565.209 556.157 572.858 555.309 579.929 553.624C580.676 553.443 581.796 553.5 580.846 552.425V552.414ZM418.285 550.571H460.919C461.236 550.571 462.209 549.553 463.069 550.198C464.766 550.322 474.905 560.443 474.113 560.997C468.263 561.303 462.447 562.241 456.62 562.84C452.603 563.248 452.128 562.524 448.496 564.017C447.93 564.243 442.827 564.853 445.588 565.317C454.119 564.073 462.707 563.146 471.284 562.173C472.37 562.049 473.717 561.178 474.418 561.246C475.583 561.348 477.858 564.367 479.634 564.073L457.242 542.01C456.212 542.666 457.491 543.356 457.864 543.842C458.917 545.211 460.059 546.568 461.225 547.857L460.218 549.27C456.201 548.863 451.89 549.972 448.077 550.005C439.365 550.107 430.46 548.762 421.645 549.338C420.763 549.395 418.421 549.406 418.296 550.594L418.285 550.571ZM282.699 584.903C239.306 587.402 196.694 572.588 164.922 543.209C164.65 544.363 165.567 544.668 166.144 545.358C168.067 547.642 172.05 551.068 174.449 553.002C202.25 575.438 238.265 585.909 273.805 586.124L282.699 584.914V584.903ZM409.075 556.089L404.786 550.266L398.348 544.442C397.975 546.296 400.95 548.027 401.72 549.655C401.086 550.13 399.683 550.413 398.891 550.503C391.695 551.317 381.285 550.729 373.783 550.605C370.151 550.548 366.35 549.09 362.469 550.582C362.582 551.747 364.946 551.792 365.806 551.826C368.533 551.939 370.683 551.182 373.161 551.159C381.466 551.08 389.873 551.962 398.371 551.826C399.83 551.804 401.211 551.057 402.58 551.193C405.25 551.442 406.857 554.891 409.075 556.089ZM485.767 570.18L481.479 565.894L481.411 568.28C474.667 569.377 467.799 570.361 460.931 570.191L443.438 573.244L479.94 569.58L485.767 570.18ZM227.482 594.108C221.666 594.334 215.85 593.249 210.17 592.095C196.558 589.336 183.127 584.835 171.665 576.942C170.704 577.937 176.44 581.137 177.164 581.556C189.962 588.917 210.589 595.352 225.343 594.73C226.09 594.696 227.629 595.194 227.482 594.119V594.108ZM241.591 592.875C233.999 592.593 226.52 591.179 218.894 591.654L230.944 593.384C233.773 593.192 236.59 593.61 239.453 593.486C240.2 593.452 241.727 593.95 241.591 592.875ZM693.124 613.717L675.948 597.173L677.17 599.321C681.978 603.234 686.323 608.594 690.974 612.507C691.664 613.083 691.97 613.988 693.124 613.728V613.717ZM616.431 632.726C616.703 631.573 615.786 631.267 615.209 630.577C612.596 627.468 609.201 624.855 606.621 621.689C608.081 626.586 612.98 629.22 616.42 632.726H616.431ZM550.794 630.272C551.461 629.594 546.313 624.754 545.589 624.143C544.865 623.532 544.593 622.662 543.439 622.922C545.215 624.754 546.992 627.23 548.712 628.994C549.345 629.639 549.594 630.544 550.794 630.272ZM615.82 637.623C613.161 634.773 610.525 631.561 607.538 629.04C606.848 628.463 606.542 627.558 605.388 627.818C608.047 630.668 610.683 633.879 613.67 636.401C614.361 636.978 614.666 637.883 615.82 637.623ZM453.859 650.503L451.415 647.743L445.271 643.164C445.045 643.378 447.907 646.149 448.326 646.534C448.937 647.088 453.418 650.91 453.859 650.503ZM396.198 656.632L393.143 653.262L385.777 647.45L390.066 652.052L396.21 656.632H396.198Z" fill="black"/>
<path d="M309.074 619.247L298.37 620.491L106.627 620.151C106.197 618.681 107.985 619.337 108.789 619.258C137.992 616.352 171.258 618.579 200.767 618.647C234.271 618.738 271.927 616.374 305.113 618.591C306.471 618.681 307.738 619.077 309.074 619.235V619.247Z" fill="black"/>
<path d="M290.675 627.83L281.205 629.073C234.746 628.146 188.185 630.295 141.941 628.406C139.146 628.293 136.397 628.904 133.625 628.429C132.629 627.637 133.693 627.309 134.541 627.208C137.868 626.778 142.122 627.377 145.619 627.23C166.37 626.382 187.246 626.586 208.19 626.563C230.729 626.54 253.631 626.382 276.238 627.23C281.035 627.411 286.025 626.597 290.675 627.83Z" fill="black"/>
<path d="M267.978 611.885L256.663 613.129C217.989 614.531 178.171 611.138 139.757 612.835C137.076 612.948 137.302 610.946 140.04 610.63C143.48 610.223 148.413 611.342 152.362 611.297C153.811 611.274 155.157 610.652 156.605 610.63C189.339 610.234 226.022 608.866 258.496 610.63C261.494 610.788 264.957 611.546 267.978 611.885Z" fill="black"/>
<path d="M188.219 603.912L181.193 605.156L136.069 605.134V602.68C153.403 603.155 170.998 601.56 188.219 603.912Z" fill="black"/>
<path d="M685.147 553.636C684.819 554.585 682.08 554.732 681.152 554.846C672.395 555.976 664.101 555.581 655.422 555.445C650.523 555.366 645.443 557.39 640.962 554.552C655.377 551.34 670.449 553.975 685.135 553.636H685.147Z" fill="black"/>
<path d="M326.261 611.274L319.845 612.518L271.055 613.106L272.074 611.376C283.92 611.557 295.733 610.562 307.58 610.63C311.45 610.652 315.342 610.63 319.178 610.63C321.203 610.63 323.907 611.862 326.261 611.274Z" fill="black"/>
<path d="M684.536 560.986L673.832 562.852L653.25 562.818C653.499 561.619 654.483 561.744 655.388 561.597C656.045 561.484 658.885 560.986 659.077 560.986H684.536Z" fill="black"/>
<path d="M682.08 568.359L676.864 569.569C670.777 568.981 664.791 571.175 658.772 569.569C658.625 568.506 660.163 568.992 660.91 568.958C667.959 568.687 675.042 568.63 682.08 568.348V568.359Z" fill="black"/>
<path d="M132.403 611.263C132.346 612.134 129.631 612.349 128.952 612.416C124.652 612.812 120.137 612.643 115.838 613.106V611.274H132.403V611.263Z" fill="black"/>
<path d="M373.5 594.708L362.186 595.963L352.647 595.929C352.466 595.307 355.25 594.708 355.408 594.708H373.5Z" fill="black"/>
<path d="M611.532 565.894L623.492 564.627L629.319 565.894H611.532Z" fill="black"/>
<path d="M623.797 558.543L615.503 559.753H607.232L613.682 558.543H623.797Z" fill="black"/>
<path d="M485.767 581.228V581.839H473.196C472.517 581.839 470.56 582.924 470.435 581.228H485.767Z" fill="black"/>
<path d="M580.235 569.569V570.191H565.514V569.58L569.508 569.569H580.235Z" fill="black"/>
<path d="M342.826 293.046C341.196 293.408 341.581 292.322 341.31 291.225C340.619 288.523 340.28 285.424 340.382 282.631L342.826 293.046Z" fill="black"/>
<path d="M449.786 639.251C450.668 640.088 452.218 640.54 452.637 641.908C449.514 640.789 446.165 637.385 444.049 634.863C443.472 634.174 442.567 633.868 442.827 632.715C443.144 632.353 449.242 638.731 449.786 639.24V639.251Z" fill="black"/>
<path d="M515.208 644.374C506.813 635.904 496.584 629.628 488.222 621.079C490.202 621.554 492.081 623.284 493.676 624.505C499.831 629.221 509.11 636.447 513.986 642.225C514.563 642.915 515.469 643.22 515.208 644.374Z" fill="black"/>
<path d="M415.682 505.304C423.535 504.015 428.118 519.496 417.945 521.101C404.877 523.16 408.26 506.525 415.682 505.304ZM419.971 517.313C422.008 515.255 419.507 508.04 416.452 507.034C416.712 508.696 414.856 508.346 414.166 509.035C411.994 511.218 411.145 516.838 414.404 517.958C415.388 518.297 419.371 517.913 419.982 517.302L419.971 517.313Z" fill="black"/>
<path d="M512.334 514.203C507.786 510.347 508.781 503.981 515.05 502.884C521.873 501.696 523.559 507.882 520.119 512.869C517.901 516.092 515.446 516.85 512.334 514.203ZM517.652 511.942C519.406 508.052 519.259 504.071 513.986 504.591C514.167 505.813 516 504.965 516.758 506.412C517.935 508.685 515.016 512.145 517.664 511.942H517.652Z" fill="black"/>
<path d="M360.466 502.85C372.143 500.6 371.011 525.478 357.592 514.656C352.466 510.528 354.186 504.06 360.466 502.85ZM363.679 507.645C362.435 502.42 356.788 506.876 357.558 510.709L361.224 506.706L363.679 507.656V507.645Z" fill="black"/>
<path d="M540.803 501.04C545.623 499.943 548.813 502.307 548.361 507.339C547.987 511.591 545.113 510.178 541.991 511.817C536.141 510.551 534.941 502.375 540.803 501.04ZM544.65 508.255C545.34 502.115 537.453 505.1 541.402 507.52C541.866 507.803 544.401 508.527 544.65 508.255Z" fill="black"/>
<path d="M573.491 499.683C578.357 502.714 572.066 508.244 567.404 504.241C561.452 499.107 568.456 491.96 573.469 495.126C574.747 495.94 578.526 499.525 576.252 500.905L573.797 498.462C573.231 498.44 573.548 499.265 573.491 499.683C571.964 498.734 569.757 498.338 567.97 498.462L568.977 500.814L573.491 500.905C573.537 500.509 573.435 500.079 573.491 499.683Z" fill="black"/>
<path d="M594.175 494.346C599.957 499.016 588.416 511.082 585.428 501.549C583.573 495.646 590.339 491.236 594.175 494.346ZM592.421 496.698C588.201 495.296 584.999 502.069 590.056 502.126C587.352 499.22 590.294 498.315 593.123 499.061L592.421 496.698Z" fill="black"/>
<path d="M614.383 487.538C621.399 489.698 618.649 499.095 611.317 497.738C607.164 494.402 610.333 489.257 614.383 487.538Z" fill="black"/>
<path d="M446.199 509.488C447.828 509.171 449.435 512.722 447.409 513.774C445.011 514.497 444.445 510.619 446.199 509.488Z" fill="black"/>
<path d="M415.49 511.489C418.025 511.987 418.602 512.744 418.319 515.334C417.742 520.604 411.134 514.554 415.49 511.489Z" fill="black"/>
</g>
<defs>
<clipPath id="clip0_8061_311">
<rect width="612" height="588" fill="white" transform="translate(94 84)"/>
</clipPath>
</defs>
</svg>
