<svg width="800" height="800" viewBox="0 0 800 800" fill="none" xmlns="http://www.w3.org/2000/svg">
<g clip-path="url(#clip0_8061_313)">
<path d="M516.94 132.917C517.887 134.471 520.855 139.31 521.74 140.435C523.141 142.216 526.438 143.555 527.713 145.83C529.482 149.001 528.484 154.244 530.909 156.531C533.334 158.818 543.981 163.164 547.845 165.489C558.644 171.97 570.263 182.04 580.177 189.999C587.932 196.228 585.81 199.626 588.21 207.232C589.031 209.835 593.742 212.273 594.133 217.138C594.436 220.903 590.155 220.852 590.016 223.114C589.877 225.375 593.11 231.086 593.944 233.714C594.853 236.582 596.861 247.75 597.834 248.774C600.12 251.238 604.806 252.413 607.559 256.733C610.678 261.623 609.049 264.655 608.847 269.823L612.699 270.846L608.999 272.185L608.594 275.268L608.266 270.202C607.306 268.837 606.359 277.706 606.384 278.414C608.392 278.894 607.268 277.037 608.253 276.203C608.38 276.102 609.958 276.721 610.489 274.636L612.068 276.519C610.022 276.102 609.276 278.603 608.759 278.907C608.026 279.336 606.586 278.869 606.384 279.058C606.132 279.298 606.245 283.468 607.331 283.468L608.898 279.69L609.276 283.506L606.99 284.441C606.953 286.664 608.809 287.346 608.809 287.536C608.809 288.446 608.039 289.785 608.203 291.402C608.329 292.59 609.479 292.274 609.466 292.59C609.403 293.474 607.71 298.199 610.211 297.757L613.318 296.746V299.273C611.322 298.452 607.95 298.262 608.961 301.421C609.681 303.683 612.686 300.612 613.949 302.76L609.605 303.771L609.542 308.13L613.634 306.854L613.962 309.065C613.672 309.873 612.914 308.382 612.295 308.281C609.163 307.763 609.239 310.075 609.542 312.552L613.949 311.288C614.063 312.211 614.164 314.611 612.699 314.106C611.739 312.893 610.817 313.424 609.567 313.866L610.161 323.291L608.228 323.632C608.19 325.072 608.443 326.601 608.266 328.016C607.761 331.882 605.791 334.055 608.91 337.176C603.53 335.205 607.534 340.966 609.542 342.23L605.121 340.979V342.874L606.372 342.23C606.637 343.405 605.98 344.706 606.018 345.742C606.094 347.776 608.759 349.065 603.214 347.915L602.065 356.014C603.606 356.961 605.235 357.707 606.864 358.503C607.71 358.92 608.607 358.098 608.253 359.93C605.879 358.907 600.966 357.302 600.966 361.219L606.359 364.352L599.829 363.152L598.162 365.3L601.939 367.195C600.713 368.989 599.109 367.726 597.531 367.511L597.013 369.634L599.413 372.565L596.306 371.971C595.977 373.714 594.449 375.673 594.348 377.378C594.31 377.985 597.783 380.171 594.159 381.333C593.792 381.295 592.226 379.236 591.847 381.118C591.506 382.811 594.07 384.226 594.373 385.843C588.69 383.493 588.715 390.847 593.704 389.672L594.373 392.16L587.427 389.646C587.086 392.35 587.793 394.245 590.761 394.081L591.216 395.951C590.799 396.38 588.223 395.256 587.591 394.839C586.189 393.917 586.568 392.527 584.914 392.805C583.032 396.368 584.004 397.656 587.111 399.754L587.427 397.859C589.309 398.377 587.818 400.246 588.046 401.649L582.047 397.871C579.698 397.972 582.539 405.275 585.532 404.176L584.269 406.387L580.986 402.71L579.218 401.649V407.966C578.536 408.699 573.042 403.216 575.517 409.457L579.218 413.651C575.921 413.715 577.601 410.67 573.218 411.074C567.636 411.605 575.113 415.559 576.073 417.429C573.319 417.758 573.193 413.5 570.377 415.231L571.008 419.324C569.72 419.514 569.341 415.711 567.838 417.088C565.287 419.425 568.444 422.306 569.493 424.315C569.821 424.946 570.983 425.768 569.43 426.26C569.025 426.387 566.765 420.638 565.009 420.701C563.001 420.777 562.875 425.97 565.969 424.997L564.693 428.143L562.483 424.997L561.22 427.511C561.069 426.513 559.717 425.591 559.023 426.248C558.176 427.056 564.365 432.83 563.43 433.828C562.812 434.498 560.677 431.327 560.273 430.998C559.679 430.518 558.77 430.442 558.189 430.051C558.012 429.937 556.181 426.652 556.471 430.367C556.699 433.247 559.06 434.359 559.641 436.987C558.505 438.124 553.617 429.975 552.708 433.55C552.556 434.144 554.185 438.086 554.552 438.503C555.41 439.476 557.166 437.871 556.484 441.422C553.516 440.474 551.533 434.296 548.249 436.76C547.694 438.44 552.114 441.826 550.182 443.001C548.527 444.012 547.188 440.398 545.989 440.209L544.145 441.409C543.854 442.041 548.691 450.013 550.359 449.659C551.445 449.836 550.712 450.758 550.182 451.213C548.944 452.262 549.171 451.264 548.755 450.733C547.517 449.166 543.299 443.393 541.038 443.948C538.903 445.401 541.796 447.044 541.341 449.002L538.512 446.488C536.605 447.713 539.181 448.661 538.828 450.266C537.325 448.977 537.602 447.802 535.051 448.37L536.946 453.412C534.66 452.805 533.371 450.872 530.631 451.529L533.788 459.729C532.323 459.299 527.701 452.666 526.223 454.043L529.999 461.308L528.421 462.256C527.751 461.308 523.735 455.218 522.434 456.57C521.487 458.604 526.905 465.894 526.21 466.678C522.712 465.553 522.207 459.703 518.014 459.729L521.159 469.204C518.026 467.486 518.115 461.561 513.593 462.256L516.107 472.35L511.067 464.151C511.295 465.806 509.274 465.313 508.541 466.349L509.779 471.087C508.238 470.796 507.455 468.105 506.622 467.612C501.153 464.378 507.064 474.195 507.253 476.141L501.886 469.192L501.305 470.405L499.688 469.823L500.307 476.141L498.4 475.724C497.945 471.618 494.687 470.645 494.611 475.522L490.834 474.258L493.348 484.353L490.822 477.404L488.94 478.048V476.153H487.046L489.571 490.051C487.803 490.316 488.397 489.748 488.309 488.484C488.031 484.353 487.008 480.676 485.467 476.798C483.585 478.933 484.873 482.407 484.507 484.997L483.244 478.048C479.367 478.453 482.903 484.176 480.39 486.248C478.899 486.564 479.455 484.985 479.43 484.037C479.405 482.546 479.341 481.308 480.074 479.944L476.563 480.525L477.548 489.407L473.443 481.207C469.566 481.978 473.456 489.103 473.128 489.407C470.614 491.795 470.033 483.089 469.97 481.826L469.339 485.616C467.81 484.858 467.836 482.445 465.562 483.089C465.348 483.304 465.777 488.813 467.444 488.156C464.426 492.944 464.274 487.183 464.299 484.353H461.142V488.788H459.247V484.997L455.458 485.932C454.195 486.716 455.964 487.6 456.014 488.56C456.052 489.432 454.84 490.026 454.941 490.86C455.054 491.769 457.1 493.601 456.721 495.092C453.4 495.56 453.854 486.21 453.248 486.235L450.495 486.956L450.407 490.657C447.969 491.163 450.078 487.84 448.209 486.88L445.999 488.446L447.249 489.381C445.064 489.356 445.632 494.498 445.355 496.343C444.205 496.065 443.422 492.313 443.46 491.656C443.473 491.415 446.213 490.139 444.42 487.499L443.157 490.645L442.109 488.232L439.684 488.118C440.492 490.999 438.648 491.567 438.408 493.803C436.249 492.729 436.463 490.683 437.145 488.75C434.291 488.194 432.46 491.062 432.725 493.791C431.462 493.702 432.245 491.226 432.131 490.304C432.018 489.381 430.995 488.75 430.515 488.762C429.365 488.762 430.275 492.401 429.567 493.172L428.304 489.381C427.117 489.167 428.027 490.607 427.559 491.138C427.117 491.643 424.579 491.1 425.147 493.803L423.897 493.399L422.949 490.645L421.99 494.435L421.358 491.908C418.39 492.174 418.845 495.85 421.396 496.671L420.423 498.844C417.973 497.253 419.363 493.791 417.266 491.921C415.523 492.628 413.843 494.764 416.344 495.383C416.508 496.153 416.091 497.379 415.372 497.581C411.936 498.541 413.603 492.376 413.161 491.908L409.461 492.616V495.016L411.28 495.067C411.759 496.798 408.69 497.733 408.135 496.532L407.491 491.908H405.609V496.33C402.325 496.204 400.393 495.976 403.083 492.54L400.595 492.565L400.279 495.092L396.768 495.699L398.031 492.553L395.454 492.843L395.252 495.079L392.36 495.699L393.004 493.5L391.741 493.184C391.665 495.648 388.887 494.637 387.624 496.33L387.308 494.435L385.729 495.686L384.163 493.803C383.747 494.738 385.603 499.426 383.848 499.476C381.284 499.539 382.597 495.395 382.269 495.067L379.377 495.673L379.111 502.016C378.152 502.041 378.038 499.817 377.924 499.097C377.71 497.771 377.874 496.406 377.836 495.067C376.573 494.89 377.95 496.671 376.27 496.33C375.6 496.191 376.51 494.473 374.691 495.067L374.047 500.121H372.165V495.699C369.273 495.37 370.751 499.388 370.207 500.045C369.096 499.994 366.305 501.826 366.469 499.792C366.507 499.35 367.77 495.13 365.863 496.962C363.691 499.034 366.444 501.851 368.364 502.963L364.6 502.016C363.387 503.734 370.22 506.754 363.968 506.438L363.034 502.647C360.268 504.719 364.36 510.127 360.811 510.215C361.493 508.181 361.543 506.16 359.864 504.543L358.247 505.579L359.548 510.215L356.757 508.977C354.256 511.226 355.885 514.423 356.403 517.164L358.916 516.532C359.068 519.388 355.847 519.287 355.696 521.889C355.532 524.808 357.451 525.831 358.916 527.891C356.883 528.08 355.039 527.234 354.18 525.376C351.086 528.346 356.163 529.394 355.746 532.325C354.269 533.753 350 527.916 350.202 532.148C350.316 534.385 354.711 535.661 355.128 538.011C352.639 538.883 349.886 535.294 348.169 535.737C343.192 537.013 349.179 539.198 350.088 540.222C350.947 541.182 350.568 541.005 349.747 541.814C345.782 542.799 347.474 537.872 344.392 538.655L344.064 541.814C342.952 541.965 340.679 539.641 339.972 541.51C339.265 543.38 340.704 543.153 341.866 543.38C343.432 544.315 340.426 545.452 339.517 545.478C338.608 545.503 336.928 543.241 336.17 545.301C335.526 547.07 338.128 545.263 338.09 547.196C338.039 549.521 333.935 551.454 337.433 554.119C338.532 554.953 340.325 554.574 340.578 555.699C336.953 557.581 337.193 553.665 334.276 553.816C333.013 557.303 333.581 557.809 336.499 559.451C337.181 559.83 338.103 559.325 337.408 561.081C336.158 564.24 334.301 560.108 333.316 560.096C331.965 560.083 330.727 561.953 331.131 563.254L334.92 564.934L333.897 567.108L329.83 565.187L330.108 569.028L332.356 570.544L328.58 573.412C327.115 575.471 335.589 576.166 334.882 579.085C334.175 579.767 331.371 577.063 330.474 576.798C328.769 576.305 328.163 578.011 327.633 575.914C325.94 575.825 325.309 578.504 324.791 579.717L327.304 578.453L331.737 584.77C330.512 585.907 326.041 579.59 324.841 583.267C323.768 586.577 329.022 586.956 329.211 589.824C328.049 590.835 323.035 587.146 322.277 586.034C322.429 587.512 322.745 589.597 323.402 590.911C323.856 591.82 328.63 596.432 323.881 595.547C323.641 595.497 322 592.212 320.383 592.364C320.32 593.475 319.903 594.41 320.029 595.547C320.269 597.771 321.103 600.917 323.54 598.946L324.803 600.563C323.465 600.399 323.01 600.664 322.568 601.852L321.368 601.801C316.531 595.08 316.051 604.05 321.002 605.945L318.185 607.525L317.213 604.998C315.217 604.606 314.447 606.072 314.056 607.828L316.493 608.877C316.809 609.23 316.67 610.949 316.493 611.542C316.127 612.717 315.18 612.692 314.081 612.591L313.121 610.077C309.458 613.425 313.272 614.183 313.462 614.916C313.714 615.901 313.5 618.466 311.959 618.201C310.81 617.253 310.166 616.343 309.029 617.961C308.789 619.11 310.961 619.704 310.923 621.094C310.923 621.246 309.761 623.836 309.635 623.949C307.943 625.44 308.789 619.843 306.49 620.803L308.044 628.409L310.279 628.384L309.648 630.911C308.233 631.972 306.414 625.92 304.608 625.857L305.227 634.069L302.082 630.911L303.333 636.596L301.438 633.438L300.175 638.479L297.031 635.952L298.912 641.006L295.225 641.107L294.492 643.532C296.828 642.395 297.106 644.316 298.281 646.059L293.229 644.177C292.345 645.086 296.892 649.319 294.176 649.218C293.759 649.205 290.88 645.15 290.072 646.072L291.372 651.113L293.86 650.494V653.021L286.295 650.494L288.809 652.389L287.558 653.956L290.072 656.798C287.798 657.695 285.878 653.968 284.047 655.484L283.125 657.733C284.641 658.896 286.447 658.694 286.27 661.22C286.131 661.359 283.592 660.715 283.289 660.412C282.948 660.071 281.648 655.371 280.081 659.78C279.235 662.168 282.09 661.688 281.218 664.379C279.336 663.709 279.387 662.496 278.894 661.183C277.758 658.087 276.76 661.385 276.495 663.179L274.941 663.128L274.297 666.009L271.758 665.655C271.834 667.386 272.125 669.938 274.284 670.09L273.324 671.34C272.125 671.618 271.632 669.471 270.824 668.776C269.662 667.79 268.134 668.498 267.654 665.655C264.774 667.411 270.18 672.869 269.22 673.867C265.267 674.183 265.229 669.256 261.655 669.445L264.168 677.013C262.046 677.746 258.194 670.911 257.234 671.972L259.747 679.553C256.476 679.464 255.39 674.562 252.498 675.131C251.248 675.383 251.816 676.003 252.157 676.71C252.991 678.454 254.001 680.058 254.064 682.08C252.561 681.612 247.977 675.017 246.499 676.394L248.381 681.448C245.413 681.296 246.852 676.647 244.604 677.961L245.223 679.553C242.571 678.871 242.697 680.816 239.944 678.327C239.009 678.491 238.378 680.867 236.067 680.879C234.538 680.879 234.993 678.454 232.934 678.315C229.221 678.075 232.354 682.471 228.817 683.962L228.173 680.804L230.068 680.488C228.703 679.01 227.238 677.418 225.016 677.645L225.647 680.791H224.068C222.793 680.033 223.475 678.176 222.49 677.317C221.782 676.697 215.707 675.447 213.838 674.6C199.604 668.169 192.33 656.483 189.311 641.65C183.779 614.474 188.175 591.1 205.162 569.041C225.382 542.787 253.42 526.248 280.283 507.701C280.561 504.985 279.703 502.786 280.018 499.88C280.612 494.321 283.82 487.6 288.581 484.441C291.095 482.774 298.23 480.992 299.519 479.59C301.224 477.745 301.047 467.284 300.718 464.504C299.493 454.069 292.421 450.19 286.283 442.938C284.249 440.537 270.799 423.317 270.596 421.977C270.369 420.499 271.708 418.49 271.013 416.835C265.254 414.473 259.811 412.047 259.116 405.06C258.876 402.609 259.747 400.044 259.343 397.934C258.699 394.624 253.243 387.031 251.437 383.051C216.402 305.944 258.396 214.813 325.485 171.376C329.135 169.014 339.643 164.099 341.816 161.812C343.546 159.98 343.041 157.933 345.693 155.583C350.189 151.616 360.962 149.797 363.678 147.043C365.105 145.602 364.309 142.456 366.191 140.081C370.207 135.027 382.307 133.916 387.005 138.78C389.657 134.497 391.729 130.732 396.806 129.013C402.136 127.207 421.32 127.939 428.039 128.685C436.526 129.632 444.736 131.869 453.185 132.993C457.454 127.56 461.698 127.56 467.406 125.716C471.599 124.351 475.893 120.258 480.465 124.869C485.707 114.762 501.317 113.157 509.514 120.46C513.518 124.023 514.465 128.672 517.016 132.854L516.94 132.917ZM508.491 127.459C505.485 117.819 488.447 116.404 485.164 126.55C484.166 129.632 483.875 133.713 483.875 136.948L491.138 125.577C491.63 125.476 491.516 126.145 491.428 126.499C489.685 134.231 484.709 142.722 482.6 150.517C483.623 152.21 484.583 150.492 485.454 149.582C490.291 144.478 493.84 136.771 498.412 131.591C499.12 130.782 503.275 126.739 504.083 127.472C502.732 130.353 501.166 133.132 499.549 135.874C497.402 139.487 490.127 148.887 490.165 152.399C490.178 153.65 490.216 153.423 491.441 153.36C493.398 143 504.033 136.834 506.609 126.828L508.491 127.459ZM477.548 148.938C479.253 150.883 482.347 141.067 482.461 140.245C482.802 137.857 481.185 131.338 479.72 129.392C477.611 126.6 473.911 125.931 471.258 128.445C474.492 134.61 475.742 141.13 471.233 147.03C475.287 147.333 476.462 139.55 476.234 136.695C476.058 134.421 474.479 132.273 474.706 129.986C476.853 130.934 480.289 135.886 480.579 138.022C480.907 140.384 477.017 148.319 477.548 148.938ZM459.866 143.265C458.25 145.021 465.284 146.461 467.722 143.859C471.877 139.437 467.886 128.508 461.925 131.098C458.856 132.437 456.898 136.67 460.258 138.805C468.417 132.526 467.646 142.936 459.866 143.265ZM445.342 138.211L450.697 140.106L451.354 138.843C449.56 136.354 431.765 132.93 427.976 132.538C421.56 131.869 403.436 131.768 397.98 133.473C391.817 135.381 392.095 140.359 397.02 143.694C400.216 144.061 401.542 139.235 402.224 138.843C405.546 136.885 421.055 137.125 425.45 137.605C433.963 138.527 442.955 141.054 450.71 144.554C450.975 141.774 446.656 140.233 445.342 138.236V138.211ZM516.7 138.211C511.181 136.025 506.041 139.083 501.886 142.646C498.4 145.628 494.788 150.479 495.242 155.255C497.036 155.583 496.278 154.813 496.657 153.865C498.993 148.116 502.984 141.761 509.438 140.043C511.636 139.462 513.353 140.258 515.778 139.475C516.65 139.197 516.902 139.866 516.7 138.211ZM382.825 142.621C380.513 138.982 375.916 138.843 372.266 140.599C365.888 143.669 370.599 149.822 370.195 150.201C362.428 152.159 353.385 154.623 347.461 160.309C353.865 159.601 359.775 155.659 365.61 153.511C375.146 150.012 385.047 147.826 394.823 145.147C393.509 143.278 389.102 143.72 387.081 144.048C385.717 144.263 378.493 146.828 377.305 147.485C376.497 147.94 373.074 152.336 373.352 147.422C373.58 143.29 379.932 144.061 382.825 142.621ZM512.911 152.728C515.854 152.084 518.658 154.686 521.714 152.387C526.88 148.495 517.559 143.353 513.833 143.227C506.609 143 498.564 151.54 502.896 158.641C505.99 163.707 511.181 159.475 509.741 157.794C499.865 156.24 508.605 144.516 515.159 147.636C516.789 149.885 512.469 152.349 512.899 152.728H512.911ZM539.838 400.777C593.641 342.028 598.011 256.468 544.801 195.685C524.468 172.45 483.446 150.744 452.591 148.319C442.008 147.485 430.3 147.156 419.729 147.068C402.287 146.916 384.517 151.427 367.959 157.137C327.317 171.161 299.733 191.452 275.194 226.689C259.861 248.711 251.071 274.662 245.766 300.852C246.448 301.724 246.878 299.943 247.004 299.564C248.76 294.182 250.351 288.471 251.942 283.025C252.195 282.154 252.081 281.219 252.094 280.334L253.344 280.979L255.239 275.925C253.748 283.202 250.78 290.252 250.199 297.719C248.28 322.457 251.159 345.868 261.453 368.572C262.715 371.352 264.231 375.18 266.605 376.987C266.441 373.677 263.751 370.985 262.64 368.016C228.362 277.138 281.635 189.064 369.058 158.868C400.052 148.154 441.54 145.716 472.976 155.091C554.968 179.551 597.834 257.302 572.435 340.208C551.584 408.257 475.679 459.678 404.611 455.319C392.423 454.574 380.412 450.48 368.3 449.95C370.965 452.148 374.337 453.108 377.621 453.892C436.135 467.625 499.839 444.454 539.838 400.777ZM514.174 148.95C510.966 148.432 509.552 151.149 509.766 154.004L514.174 148.95ZM466.181 155.899L458.136 153.511C384.896 144.048 315.142 173.802 275.585 236.544C257.045 265.957 248.419 313.702 263.208 345.35C261.528 348.092 263.17 351.112 264.105 353.942C273.754 383.064 303.257 420.12 332.091 431.857C337.648 434.119 348.257 434.776 352.21 437.631C353.536 438.592 354.749 440.967 355.544 441.409C362.668 445.363 382.37 448.876 390.908 450.089C464.615 460.626 545.521 413.146 568.318 341.737C582.059 298.692 579.382 253.588 553.857 215.697C551.925 212.829 540.747 197.201 538.487 196.91L536.643 198.755C535.443 198.376 532.424 197.352 534.432 196L536.289 195.659L535.986 193.752C524.038 183.594 512.318 174.067 498.008 167.308C488.877 163 480.693 160.207 471.018 158.995C469.035 158.742 467.065 157.567 464.931 157.756L466.194 155.874L466.181 155.899ZM533.119 165.362C532.424 165.868 518.746 160.751 516.347 163.442C514.364 166.146 520.54 166.348 522.371 166.967C532.487 170.365 562.079 187.384 568.116 195.748C571.059 199.816 569.897 202.545 571.337 205.792C573.61 210.922 584.282 205.565 580.392 197.997C565.868 184.781 551.066 169.506 532.159 162.861L533.106 165.375L533.119 165.362ZM575.429 214.017C576.262 220.7 579.293 226.778 581.276 233.12C583.524 240.296 586.214 253.954 589.208 259.93C591.279 264.074 593.325 264.365 597.872 263.948C606.927 263.126 601.56 252.413 595.813 254.282C594.752 254.624 593.603 255.558 592.782 256.329C592.264 256.329 590.925 253.461 590.723 252.716C589.056 246.474 588.74 239.235 586.631 232.804C585.899 230.58 578.889 214.889 577.942 214.333C577.146 213.865 576.262 214.017 575.416 214.03L575.429 214.017ZM587.427 291.074C587.326 287.826 587.591 284.542 587.427 281.295C587.099 275.003 586.48 265.994 585.457 259.892C585.027 257.327 584.004 253.929 583.171 251.44C582.918 250.669 582.703 248.774 581.744 248.774C582.35 252.488 583.714 256.102 584.257 259.829C585.179 266.171 585.772 274.232 586.151 280.675C586.328 283.708 585.785 287.271 586.151 290.151C586.265 291.073 586.631 292.11 587.414 291.086L587.427 291.074ZM432.712 479.956C444.976 480.55 456.999 477.96 468.707 474.587C542.692 453.235 603.896 381.598 601.951 302.748C601.762 295.066 601.383 287.928 600.044 280.334C598.945 280.183 599.45 281.775 599.425 282.533C599.248 286.828 599.981 290.568 600.082 294.51C602.317 382.053 538.588 458.023 453.665 475.319C447.514 476.57 440.277 476.709 434.455 478.238C433.281 478.541 432.346 478.377 432.712 479.931V479.956ZM427.029 464.163C459.765 460.424 491.239 448.813 518.165 429.937C553.844 404.934 581.643 359.564 588.513 316.481C589.763 308.635 590.584 300.233 589.321 292.35L585.873 320.802C572.461 385.73 524.089 436.482 460.99 455.509C450.924 458.541 440.277 459.463 430.54 462.319C429.605 462.597 427.319 463.127 427.041 464.176L427.029 464.163ZM261.591 391.516L263.372 390.505C261.604 384.049 257.967 378.313 255.428 372.085C248.734 355.698 244.794 336.999 244.503 319.21C244.415 314.22 245.375 309.595 245.16 304.643C245.122 303.872 245.64 302.293 244.541 302.444C240.323 332.375 246.65 365.313 261.591 391.504V391.516ZM581.731 357.404C584.585 347.359 589.081 337.568 589.94 327.094L581.099 355.205L581.731 357.416V357.404ZM586.151 359.93C589.435 349.785 593.098 339.665 594.361 328.989L585.81 357.378L586.151 359.93ZM331.043 435.736C325.271 430.089 316.96 427.246 310.532 422.458C297.46 412.729 279.879 393.639 272.2 379.311C268.172 371.819 265.406 363.228 261.756 355.647C261.402 354.902 261.415 353.778 260.316 353.613C261.692 362.508 264.976 370.354 268.639 378.452C275.8 394.308 302.411 421.813 318.173 429.975L331.043 435.736ZM276.608 406.564C278.237 403.771 271.127 399.842 268.778 399.754C265.469 399.627 264.004 403.304 264.357 406.058C267.603 410.834 272.642 410 276.621 406.564H276.608ZM284.312 417.416C287.066 416.684 289.137 420.044 291.625 418.073C292.408 408.307 277.795 409.507 277.581 417.833C277.404 424.669 288.998 440.752 295.515 442.533C297.334 443.026 309.42 443.86 310.128 443.241L310.822 439.526C310.14 439.716 309.723 440.07 308.928 439.893C296.184 437.05 283.681 433.108 284.3 417.416H284.312ZM512.911 439.526C515.399 438.768 518.241 437.391 520.439 436.001C526.501 432.173 540.053 420.575 544.208 414.927C544.839 414.068 545.382 413.601 545.117 412.375L512.924 439.539L512.911 439.526ZM514.174 445.844C519.883 442.42 525.68 439.286 530.883 435.092C536.895 430.24 544.675 422.672 550.106 417.05C550.434 416.709 551.407 415.408 551.407 415.205C551.369 413.272 548.237 415.963 547.959 416.178C542.983 420.095 538.524 425.654 533.738 429.748C528.143 434.536 520.653 438.667 515.475 443.696C514.806 444.353 513.871 444.605 514.162 445.844H514.174ZM295.048 443.961C302.562 451.112 321.494 458.516 323.945 442.862C326.155 428.724 306.68 438.415 317.832 443.595C319.057 444.163 320.674 443.607 321.57 444.909C318.4 451.34 314.46 447.031 310.355 446.008C305.594 444.82 299.923 444.858 295.048 443.961ZM343.672 439.539C341.955 439.312 341.083 437.947 339.239 438.516C332.773 440.525 326.433 455.976 331.371 461.636L335.993 449.849L343.672 439.539ZM321.57 456.583C323.174 458.402 328.656 447.713 328.997 446.652C329.805 444.189 330.689 441.965 328.188 440.171C327.279 446.235 323.023 450.859 321.57 456.595V456.583ZM350.53 444.504C351.389 443.026 348.206 439.981 346.552 440.133C344.064 440.36 336.941 451.87 336.372 454.662C335.993 456.532 335.577 461.22 336.713 462.609C339.227 465.642 339.921 458.301 340.666 456.431C342.574 451.63 346.085 447.12 350.53 444.517V444.504ZM354.408 449.002C355.115 448.042 352.614 446.425 351.654 446.589C345.706 450.72 340.919 460.133 345.251 466.703C345.933 459.893 346.666 451.34 354.408 449.015V449.002ZM367.517 461.485C370.877 448.396 350.379 448.143 350.05 460.12C349.848 467.461 364.297 476.381 370.397 478.806C382.294 483.544 396.44 483.797 407.895 477.556C419.35 471.314 402.83 454.283 396.225 466.463C397.26 471.226 400.304 469.381 403.664 468.585C404.043 471.794 401.517 474.17 398.852 475.446C391.059 479.211 374.009 476.911 366.608 472.489C362.453 470.013 359.636 465.578 354.509 464.694C353.448 461.27 355.494 453.5 359.497 458.124C360.52 459.312 360.609 461.763 361.771 462.167L367.53 461.46L367.517 461.485ZM309.572 481.851V465.743C309.572 463.873 311.719 465.427 312.06 467.676C312.704 471.971 312.388 478.339 310.191 482.18C310.128 484.403 313.386 483.469 314.788 483.885C316.417 484.366 318.766 485.945 320.156 486.16C321.886 486.438 323.465 485.477 325.662 486.892C327.165 485.856 326.42 483.923 326.786 482.319C327.254 480.259 328.997 472.515 330.752 471.757C331.396 471.479 332.634 471.441 332.293 472.654C331.194 476.545 327.708 482.913 327.38 486.753C327.203 488.838 329.161 489.533 329.792 488.383C330.765 484.277 331.788 479.198 333.897 475.522C334.958 473.69 334.794 476.368 335.147 476.153L337.054 473.626L337.711 475.547L331.055 489.419C334.478 487.246 335.526 483.026 337.484 479.754C338.999 477.227 340.262 474.056 343.672 474.902C345.087 476.305 337.85 483.14 338.002 485.642C341.247 483.885 342.864 475.597 347.209 477.354C347.865 477.619 348.307 477.025 348.093 478.364L341.79 486.273C344.758 484.479 346.35 480.537 350 479.944C344.998 470.038 334.566 463.974 323.983 461.447C317.466 459.893 312.186 461.068 305.859 462.963C304.949 464.012 306.516 471.933 306.44 473.917C306.326 476.873 304.621 478.617 303.901 481.22L306.377 481.182L308.309 468.598L307.122 480.866L309.585 481.864L309.572 481.851ZM378.404 474.902C376.712 472.3 366.28 462.698 363.88 467.65C368.73 470 372.544 474.915 378.404 474.902ZM417.317 468.004C415.485 468.535 416.091 477.088 417.266 478.655C418.883 480.803 424.124 480.411 425.286 477.909C427.597 472.944 422.166 467.928 417.304 468.004H417.317ZM332.293 507.12C331.75 499.931 326.029 496.128 320.32 492.894C312.401 488.409 302.903 484.277 293.734 486.539C289.705 487.537 284.944 494.321 288.872 495.964C290.791 496.76 296.753 497.101 299.594 497.834C311.719 500.916 329.451 509.874 335.779 521.018C336.701 522.635 338.557 528.143 339.656 528.51C343.344 529.735 345.883 525.718 346.198 522.61C346.615 518.529 343.647 510.291 339.227 509.344C342.094 513.942 345.15 521.27 341.449 526.071C338.532 523.431 337.661 519.742 335.147 516.596C325.006 503.974 308.65 495.724 292.509 494.486C293.178 492.704 295.717 493.159 297.233 493.235C307.779 493.778 316.152 499.653 325.094 503.898C327.557 505.061 330.247 504.795 332.28 507.12H332.293ZM363.248 486.286C358.411 486.741 353.764 489.988 350.29 493.21C349.116 494.309 343.053 501.093 342.763 502.054C342.346 503.443 344.367 506.45 344.923 505.541C347.84 500.866 348.863 497.682 353.435 493.841C356.643 491.15 360.874 489.861 363.236 486.286H363.248ZM325.144 517.455C316.935 509.634 304.47 501.472 292.863 500.79C290.324 500.639 286.485 500.146 284.957 502.407C284.691 503.671 288.341 503.81 289.137 503.898C297.915 504.922 303.396 505.907 311.277 510.177C321.027 515.471 331.131 523.304 332.962 534.928C335.097 534.574 336.41 534.094 335.842 531.769C334.73 527.234 328.542 520.689 325.157 517.467L325.144 517.455ZM207.271 634.095V623.671C207.271 613.829 219.408 590.051 225.306 581.7C226.266 580.336 232.998 571.808 233.743 571.188C234.589 570.494 235.132 570.077 236.307 570.291C228.666 579.186 222.389 587.979 217.88 598.908C214.04 608.22 209.784 622.484 209.127 632.477C209.064 633.476 208.66 636.811 209.771 637.241C211.59 628.498 213.106 619.691 216.415 611.353C217.286 609.154 222.262 598.567 223.652 597.746C224.207 597.417 225.584 597.127 225.571 597.771C221.088 610.026 214.318 623.002 213.535 636.268C213.459 637.493 212.828 641.7 214.823 641.031C215.43 632.136 218.107 623.469 221.656 615.333C224.99 607.689 236.888 587.31 242.925 582.281C243.632 581.688 243.948 580.753 245.135 581.031C237.266 592.768 229.461 604.669 224.182 617.872C221.138 625.491 218.309 634.082 218.915 642.294C221.05 638.251 221.277 633.337 222.73 629.053C225.849 619.881 233.667 606.236 239.174 598.125C239.982 596.924 249.138 584.328 250.161 585.44C245.501 595.686 237.519 604.303 232.808 614.511C230.219 620.134 225.723 631.328 224.548 637.203C224.169 639.11 223.753 642.534 223.626 644.505C223.551 645.756 223.765 645.491 224.889 645.44C225.849 642.736 225.281 640.134 225.963 637.342C226.645 634.549 232.619 623.267 234.715 621.41C235.145 621.031 237.494 620.866 239.363 619.148C268.033 592.629 286.611 548.851 309.029 517.025C309.395 516.128 310.355 513.702 308.574 514.031L307.614 514.347C301.514 521.927 297.687 531.327 290.577 538.049L305.707 513.096C305.568 511.264 289.377 506.438 286.788 508.068C257.537 528.851 226.228 546.122 205.427 576.394C199.592 584.884 191.648 602.623 192.696 612.894C192.784 613.728 193.706 614.36 193.744 614.827C193.807 615.547 192.696 616.407 192.721 616.71C192.734 616.95 195.639 618.542 195.31 620.374L202.156 630.279C200.413 623.646 198.91 617.708 199.642 610.696L200.893 613.223C201.171 611.883 200.425 610.468 200.514 609.23C201.979 586.4 216.225 567.335 231.621 552.047L238.782 547.84C233.389 552.199 229.461 557.847 224.889 563.001C222.768 565.389 219.471 567.929 217.337 570.607C214.76 573.816 206.778 586.425 205.667 589.9C204.467 593.652 203.015 608.005 202.85 612.389C202.8 613.817 202.876 615.232 202.812 616.697C202.762 617.973 202.787 617.683 204.038 617.645C204.871 608.472 207.46 598.137 212.373 590.291C212.777 589.647 215.038 585.731 216.036 586.703C210.239 599.401 204.745 616.495 205.945 630.595C206.008 631.366 206.172 633.981 207.195 634.082L207.271 634.095ZM354.395 521.649L355.519 518.289L352.513 510.291C351.515 512.388 353.271 513.803 353.625 515.812L354.395 521.662V521.649ZM312.729 517.24C311.088 516.861 311.631 517.733 311.1 518.428C295.528 539.375 282.809 565.819 268.033 587.803C259.192 600.955 249.252 612.124 239.136 623.949C238.024 625.238 231.091 633.994 230.952 634.651C230.787 635.446 231.368 636.394 231.267 637.253C234.804 633.438 238.151 628.295 241.649 624.594C246.65 619.3 252.157 615.055 257.133 609.129C273.779 589.255 288.619 563.065 301.464 540.399C304.192 535.585 310.961 524.934 312.426 520.411C312.767 519.363 312.793 518.314 312.717 517.227L312.729 517.24ZM236.319 638.517C243.96 635.244 248.343 627.335 253.673 621.46C277.076 595.661 288.367 575.168 304.406 544.606C307.804 538.137 312.919 530.961 315.394 524.012C315.748 523.001 316.051 522.129 315.874 521.03L276.987 587.929C268.134 601.182 257.133 612.768 247.421 625.314C245.779 627.436 244.39 630.974 242.874 632.768C241.245 634.701 237.759 636.255 236.307 638.517H236.319ZM239.792 662.522C241.763 663.027 247.951 662.522 250.528 662.522C253.104 662.522 260.379 659.287 263.069 658.011C296.5 642.155 313.689 593.842 322.656 560.323C324.993 551.58 327.241 542.559 328.517 533.652C326.155 536.052 325.119 540.74 324.096 544.063C312.262 582.269 302.221 628.131 266.833 652.288C258.08 658.264 249.808 662.117 238.858 661.258C238.833 661.65 239.59 662.459 239.805 662.509L239.792 662.522ZM255.264 627.146C264.698 620.74 272.238 611.062 278.882 601.827C288.985 587.777 297.321 571.403 304.848 555.787C307.69 549.887 310.923 543.709 312.717 537.455L294.934 571.138C286.51 592.149 270.685 608.068 256.514 624.935C255.921 625.642 254.986 625.958 255.264 627.146ZM300.731 601.89C299.165 601.561 299.607 602.231 299.089 603.065C297.713 605.263 296.967 608.03 295.566 610.304C291.6 616.748 283.353 628.662 278.604 634.398C273.564 640.5 266.681 644.543 261.579 650.519L271.986 643.558C277.126 640.854 302.701 604.202 300.731 601.877V601.89ZM192.671 622.812C190.157 621.208 190.852 624.796 191.345 626.337C196.106 641.321 216.326 655.282 231.659 656.761C237.342 657.304 251.765 656.685 256.476 653.956C257.676 653.261 259.545 651.479 260.303 650.203L252.751 652.755C232.189 656.634 209.759 650.304 197.912 632.402C196.978 630.987 193.113 623.115 192.658 622.812H192.671ZM270.66 629.925C271.455 629.268 274.095 629.458 271.998 627.803C271.733 628.776 264.736 631.707 265.999 632.844C268.197 633.198 269.359 631.012 270.66 629.925ZM258.421 644.834C259.331 645.693 268.841 639.073 270.091 637.885C270.697 637.316 274.689 632.717 274.196 632.199C269.965 636.343 264.395 639.262 259.849 642.8C259.078 643.393 258.131 643.532 258.421 644.834ZM265.368 632.844C264.534 632.06 252.915 641.397 252.106 642.939C255.921 641.271 260.846 637.695 263.928 634.865C264.61 634.234 265.683 634.208 265.368 632.844ZM220.532 657.481C218.41 656.874 216.187 656.369 214.255 655.232C211.274 653.463 203.621 647.575 200.956 645.162C198.291 642.749 196.409 639.439 193.391 637.253C193.176 648.523 201.701 663.659 212.348 667.879C220.961 671.303 231.621 672.073 240.752 670.734C243.253 668.839 235.776 670.14 235.41 670.115C225.42 669.597 210.807 667.083 204.113 659.047C203.52 658.34 202.585 658.024 202.863 656.836L213.914 663.153C215.922 658.454 208.433 658.921 208.546 654.309C211.742 655.725 215.164 657.165 218.612 657.822C219.269 657.948 220.684 658.656 220.532 657.481Z" fill="black"/>
<path d="M383.886 542.938C383.721 543.14 381.978 544.252 381.865 544.24C376.75 541.586 380.033 535.345 384.429 539.337C385.01 540.512 384.681 541.965 383.898 542.938H383.886Z" fill="black"/>
<path d="M216.528 516.103C221.252 515.661 219.484 524.34 214.596 520.954C212.411 519.451 214.546 516.28 216.528 516.103Z" fill="black"/>
<path d="M390.188 526.16C394.318 524.783 395.543 530.013 391.83 531.037C388.117 532.06 387.649 527.006 390.188 526.16Z" fill="black"/>
<path d="M556.926 505.326C559.503 504.593 561.245 507.613 559.351 509.672C556.358 512.932 553.238 506.374 556.926 505.326Z" fill="black"/>
<path d="M373.201 606.463C374.969 608.144 371.635 612.54 369.5 609.824C367.593 607.411 371.092 604.454 373.201 606.463Z" fill="black"/>
<path d="M337.13 620.285C341.121 618.959 341.412 623.267 338.911 625.263C336.764 625.023 334.693 621.107 337.13 620.285Z" fill="black"/>
<path d="M350.151 613.715C348.345 611.871 350.151 608.523 352.513 609.748C355.57 611.327 352.614 616.242 350.151 613.715Z" fill="black"/>
<path d="M255.883 407.309L256.464 410.695C255.062 413.184 252.372 410.796 253.142 408.749L255.883 407.309Z" fill="black"/>
<path d="M269.144 438.895C267.376 437.631 264.446 436.557 264.736 433.841C266.871 432.717 269.637 438.301 269.144 438.895Z" fill="black"/>
<path d="M261.579 431.946C258.106 431.453 256.817 426.5 261.288 428.13L261.579 431.946Z" fill="black"/>
<path d="M550.169 467.954C548.603 469.053 546.544 465.73 547.024 464.163L550.548 465.427L550.182 467.954H550.169Z" fill="black"/>
<path d="M233.099 292.4C234.021 294.864 233.313 296.342 230.598 295.218L230.004 292.337L233.099 292.4Z" fill="black"/>
<path d="M316.102 413.424C280.132 384.327 257.411 336.33 264.85 289.608C280.069 193.916 393.282 135.71 482.297 167.876C542.692 189.709 578.397 253.967 566.285 316.974C547.239 416.039 433.761 470.645 342.725 428.156C336.612 425.3 320.876 417.265 316.102 413.411V413.424ZM423.543 162.57C380.551 164.25 334.92 182.76 305.455 214.623C230.017 296.216 270.167 411.63 375.992 435.938C473.582 458.352 578.182 377.568 564.605 274.421C555.145 202.532 493.613 159.828 423.53 162.583L423.543 162.57Z" fill="black"/>
<path d="M455.446 439.539L455.345 441.977C450.154 443.835 444.029 445.439 438.497 445.704C435.718 445.831 434.379 444.593 437.625 443.531C440.871 442.47 447.679 440.474 450.988 439.83C452.478 439.539 453.93 439.425 455.446 439.552V439.539Z" fill="black"/>
<path d="M374.615 163.48C374.931 164.907 373.858 164.87 373.062 165.388C370.763 166.891 367.997 168.129 365.156 167.889C367.05 164.794 371.18 163.353 374.628 163.48H374.615Z" fill="black"/>
<path d="M302.234 209.835C301.64 210.391 301.527 211.705 300.428 211.49C298.319 211.06 299.935 205.249 302.297 205.413C306.313 205.703 303.788 208.382 302.234 209.835Z" fill="black"/>
<path d="M565.944 243.063C566.323 245.855 569.227 249.923 566.259 251.907C564.049 252.412 563.885 243.783 565.944 243.063Z" fill="black"/>
<path d="M454.713 155.722C454.84 155.672 454.713 154.863 455.117 154.749C455.446 154.661 457.795 154.914 457.972 155.571C458.843 159.083 451.164 158.072 451.051 156.19C450.937 154.547 454.524 155.798 454.726 155.71L454.713 155.722Z" fill="black"/>
<path d="M339.252 178.641C339.467 183.859 334.831 184.971 334.857 179.298L339.252 178.641Z" fill="black"/>
<path d="M358.689 168.028C359.737 167.94 360.041 167.902 360.71 168.849C357.009 175.091 351.073 168.622 358.689 168.028Z" fill="black"/>
<path d="M394.823 157.794V159.677C393.421 159.487 392.032 160.321 390.706 160.321C389.152 160.321 386.222 159.247 388.748 158.35C389.721 158.009 394.343 157.036 394.823 157.794Z" fill="black"/>
<path d="M530.593 394.043C529.343 391.061 536.327 389.217 536.264 391.2C534.597 393.083 533.397 394.586 530.593 394.043Z" fill="black"/>
<path d="M564.592 341.712L564.693 345.401L562.268 345.3C561.359 343.796 561.688 342.533 562.18 340.966L564.605 341.699L564.592 341.712Z" fill="black"/>
<path d="M264.736 578.516C265.204 578.933 260.796 585.427 260.202 586.286C254.872 594.031 248.722 601.839 243.177 609.053C240.828 612.111 238.315 616.154 235.991 618.933C235.688 619.3 232.29 622.484 231.911 622.092C232.833 619.995 234.008 617.518 235.195 615.585C238.226 610.645 240.032 609.786 243.581 606.286C245.059 604.821 252.081 594.056 254.279 591.087C256.994 587.423 259.406 582.61 262.665 579.287C263.41 578.529 263.145 578.226 264.749 578.516H264.736Z" fill="black"/>
<path d="M250.843 538.706L278.616 517.24C279.298 517.935 275.181 521.713 274.537 522.306C270.281 526.21 259.356 535.029 254.569 537.708C253.458 538.327 252.119 538.756 250.831 538.706H250.843Z" fill="black"/>
<path d="M289.996 539.35L276.381 561.41L271.051 567.133C271.708 564.972 273.16 562.585 274.322 560.626C277.492 555.295 280.776 551.883 283.63 546.564C284.123 545.642 288.973 538.39 289.996 539.35Z" fill="black"/>
<path d="M198.43 622.724C197.609 622.724 196.952 620.93 196.75 620.31C195.007 615.118 196.498 604.758 198.316 599.552L202.219 591.782C199.781 601.7 196.75 612.452 198.43 622.724Z" fill="black"/>
<path d="M241.687 573.463C241.965 573.437 243.089 574.537 242.003 575.029C238.959 576.621 229.322 594.587 227.794 594.297C226.013 593.955 228.413 589.761 228.842 589.041C229.966 587.146 240.664 573.538 241.674 573.463H241.687Z" fill="black"/>
<path d="M240.108 557.038C240.424 558.402 239.35 558.44 238.668 559.059C233.667 563.633 231.368 567.183 227.112 571.492C226.455 572.161 226.203 573.096 224.965 572.806C225.256 566.324 229.891 565.023 233.806 561.119L231.596 560.803L240.121 557.013L240.108 557.038Z" fill="black"/>
<path d="M277.366 532.401C277.808 535.648 273.35 536.545 271.885 538.276C271.468 538.769 269.611 544.252 267.906 542.496C267.111 541.675 268.323 540.891 268.614 540.487C269.346 539.438 274.108 533.273 274.486 532.982C275.434 532.3 276.267 532.3 277.366 532.401Z" fill="black"/>
<path d="M266.631 531.769C269.359 531.593 270.849 525.945 273.552 528.914C272.403 531.744 267.843 537.126 266.631 531.769Z" fill="black"/>
<path d="M293.153 515.345C291.031 518.668 288.266 521.422 284.944 523.545C284.3 522.761 290.349 513.879 293.153 515.345Z" fill="black"/>
<path d="M282.418 519.122C281.774 518.478 288.038 510.758 289.352 510.278C290.387 512.527 283.327 520.032 282.418 519.122Z" fill="black"/>
<path d="M315.243 481.22C314.295 480.929 314.056 477.96 313.992 477.113C313.891 475.749 313.79 467.878 314.093 467.436L315.874 466.69C316.455 471.946 316.746 476.065 315.243 481.22Z" fill="black"/>
<path d="M324.096 482.496C323.275 483.506 322.947 482.42 322.833 481.561C322.303 477.391 322.265 473.525 325.991 471.125L324.096 482.496Z" fill="black"/>
<path d="M319.663 482.483L318.388 476.456L319.044 470.48C322.631 472.906 319.941 478.819 319.663 482.483Z" fill="black"/>
<path d="M552.064 177.365C548.944 175.988 545.749 174.194 542.882 172.336C542.073 171.818 541.013 171.856 541.328 170.429C541.897 169.898 551.596 175.533 552.064 177.365Z" fill="black"/>
<path d="M417.86 166.36C530.315 159.424 599.855 267.119 539.952 364.542C485.921 452.426 344.215 463.873 288.468 372.514C229.815 276.405 317.339 172.564 417.86 166.36ZM435.238 176.114C427.85 177.024 419.678 175.861 412.53 178.338C409.17 185.299 400.14 191.869 401.795 200.41C402.401 203.568 411.646 206.55 414.614 208.433C418.175 210.707 420.676 214.964 425.096 215.217C426.372 212.741 426.839 209.026 428.393 206.828C429.429 205.362 431.55 204.705 432.018 203.48C432.662 201.8 430.919 202.343 430.616 200.65C429.795 196.165 436.438 177.453 435.251 176.089L435.238 176.114ZM464.287 180.536C456.557 179.07 448.878 176.998 440.922 177.036C439.292 177.832 435.491 191.212 434.91 193.802C432.422 204.806 438.257 199.222 444.104 201.041C447.123 201.976 450.343 208.698 454.309 202.469C456.57 198.906 460.22 190.593 462.203 186.36C462.632 185.451 464.754 181.079 464.274 180.549L464.287 180.536ZM407.453 178.009L399.168 180.182L399.875 187.472C401.113 187.801 401.1 186.954 401.656 186.411C402.54 185.539 408.236 178.717 407.453 178.009ZM381.751 207.889C384.176 205.906 387.106 206.247 389.594 205.312C390.541 204.958 397.172 200.069 397.526 199.323C398.182 197.921 396.932 188.925 396.541 186.702C396.2 184.731 395.947 181.875 394.419 180.574C392.411 179.98 356.959 192.728 356.934 194.737C359.573 199.02 367.467 217.1 371.47 218.767C372.607 219.247 373.466 218.515 374.249 217.744C376.548 215.47 379.036 210.113 381.751 207.889ZM422.823 276.771C436.009 263.329 447.868 246.184 459.879 231.402C468.72 220.524 478.192 210.062 486.995 199.146C488.422 197.378 493.07 192.665 491.428 190.947C490.102 189.557 477.232 184.377 474.706 183.669C472.66 183.101 469.68 181.521 468.038 183.341C463.744 189.911 461.079 197.529 457.454 204.339C446.453 224.996 437.246 246.639 426.296 267.296C424.503 270.682 421.093 274.447 419.729 277.782C419.388 278.603 418.819 279.955 420.386 279.703C421.548 279.02 422.015 277.593 422.823 276.771ZM523.23 213.158C519.012 209.001 515.829 205.969 510.84 202.494C508.529 200.89 497.44 193.309 495.343 194.535L424.503 282.229C425.829 282.608 426.246 281.749 427.041 281.307C450.621 268.155 473.09 253.158 497.326 241.067C505.94 236.771 523.748 230.745 530.542 225.666C531.123 225.236 532.26 224.364 532.386 223.72C532.715 222.002 524.809 214.724 523.23 213.17V213.158ZM405.558 282.229L354.446 197.87L352.804 196.923C350.012 196.657 349.242 200.928 347.777 202.633C347.777 199.576 344.758 200.233 345.049 202.785C345.643 208.028 349.697 211.01 352.488 214.914C350.227 222.697 345.024 226.095 348.421 234.826C351.869 243.695 373.037 257.972 381.221 264.554C389.001 270.795 395.77 279.033 405.546 282.217L405.558 282.229ZM409.36 280.966L410.585 278.843C406.846 259.601 404.649 240.044 401.694 220.713C401.289 218.047 399.534 203.695 396.515 203.96C395.745 204.023 390.415 208.281 388.344 209.089C386.74 209.721 385.262 209.304 383.747 210.176C381.158 211.654 376.977 220.738 374.199 223.177L409.36 280.966ZM445.127 206.007C444.736 205.602 442.665 204.288 442.197 204.149C440.24 203.606 429.618 209.696 429.694 213.196C427.622 229.09 421.838 246.74 420.158 262.406C419.931 264.579 420.158 266.79 420.082 268.963C422.065 268.028 422.836 265.944 423.77 264.137C432.22 247.814 439.065 230.201 447.262 213.714C448.474 211.553 446.668 207.586 445.115 206.019L445.127 206.007ZM343.66 228.534C343.369 223.846 346.779 220.283 348.585 216.316C348.131 213.928 345.605 213.271 344.38 211.705C343.155 210.138 341.854 204.491 340.212 204.503C336.019 207.498 327.62 211.098 332.937 216.847L343.66 228.534ZM415.018 276.544L423.859 221.332C423.606 219.184 417.455 214.75 415.359 213.36C413.78 212.299 404.131 206.575 403.032 207.687C404.687 217.39 405.381 227.258 406.922 236.961C408.741 248.433 410.673 260.17 412.681 271.629C412.795 272.312 413.553 278.01 415.031 276.544H415.018ZM326.42 215.369L324.778 216.266C319.411 223.998 308.7 231.364 304.507 239.589C304.192 240.195 303.459 240.081 304.533 240.865C306.718 242.318 316.683 244.516 319.347 244.377C321.128 244.276 322.656 243.152 324.437 243.038C325.776 242.949 327.355 243.707 328.138 243.556C329.135 243.379 330.07 241.294 331.535 240.713C334.251 239.614 344.746 239.892 344.733 235.811C342.586 233.044 328.656 215.192 326.433 215.369H326.42ZM426.397 286.02C429.946 285.805 433.862 285.716 437.373 285.312C460.005 282.71 484.04 276.241 506.483 271.692C519.517 269.052 536.175 267.46 548.414 263.733C549.613 263.366 552.695 262.836 552.607 261.206C548.136 249.848 544.776 235.874 534.824 228.016C512.482 237.087 491.453 248.774 470.185 260.031L426.41 286.032L426.397 286.02ZM343.672 275.596C344.051 278.856 343.394 282.684 343.672 286.02L403.045 286.336C395.871 283.076 391.009 276.91 385.022 272.135C380.337 268.395 375.234 265.097 370.548 261.345C362.352 254.813 354.61 247.523 345.845 241.787C342.321 242.204 338.469 242.431 335.135 243.657C330.487 245.363 322.593 248.812 317.453 248.66C315.887 248.61 313.917 246.714 312.148 246.474C310.936 246.31 309.875 246.942 308.738 246.79C306.654 246.512 303.055 245.021 301.173 245.666L292.547 259.791C301.704 262.57 311.555 265.476 320.926 267.397C337.345 270.77 352.652 273.234 368.831 278.224C370.776 278.818 372.456 279.981 373.996 281.269C372.973 281.56 372.784 282.899 371.824 282.899C368.97 282.886 358.462 279.677 355.203 278.591C350.972 277.176 347.221 274.939 343.053 274.004C342.814 274.725 343.647 275.318 343.685 275.584L343.672 275.596ZM339.1 274.169L291.676 264.642C289.276 265.464 283.769 283.783 283.681 287.283L336.915 285.906C340.098 284.946 340.755 276.771 339.1 274.169ZM519.959 273.486C518.797 275.344 523.735 283.998 524.758 286.5C526.362 290.492 526.185 294.283 529.343 297.706C537.224 306.235 540.04 296.633 545.269 292.804C547.643 291.061 555.676 289.759 556.37 287.485C556.913 285.716 554.83 269.721 553.87 268.117C553.604 267.675 553.516 267.346 552.935 267.144C551.798 266.752 531.907 269.823 529.204 270.404C526.008 271.086 522.952 272.21 519.971 273.486H519.959ZM427.029 291.073C454.006 299.93 481.88 305.818 509.463 312.577C513.922 312.653 514.97 309.418 518.38 307.624C521.26 306.096 526.918 305.691 527.284 301.408C527.385 300.132 523.697 294.712 522.889 292.792C522.156 291.023 522.118 288.951 521.411 287.321C520.022 284.099 516.069 274.712 512.444 274.143L427.016 291.086L427.029 291.073ZM399.875 291.086C389.354 289.166 378.467 288.888 367.82 288.698C355.772 288.496 343.42 289.241 331.396 289.204C319.373 289.166 306.364 288.193 293.797 288.547C294.833 291.25 297.498 292.4 299.493 294.523C301.034 296.165 303.08 298.502 304.507 300.246C306.276 302.394 310.797 310.429 313.058 310.644L399.875 291.073V291.086ZM280.523 319.513C283.719 319.513 286.51 317.732 289.516 316.822C297.068 314.523 310.885 314.624 303.257 304.036C302.297 302.71 297.283 297.277 296.008 296.127C295.477 295.647 289.794 291.49 289.402 291.364C287.861 290.884 283.656 290.758 282.569 291.857C280.511 300.777 279.829 310.366 280.523 319.501V319.513ZM272.933 312.552L274.827 292.337L272.655 301.724C272.895 304.668 272.188 307.296 272.301 310.341C272.327 311.111 271.822 312.691 272.92 312.539L272.933 312.552ZM556.471 292.337C553.781 293.904 550.283 294.118 547.668 295.837C544.915 297.643 542.175 301.939 539.446 304.036C534.963 307.485 525.44 306.917 519.264 311.642C514.149 315.546 520.401 320.082 524.417 321.573C533.031 324.782 542.617 326.197 551.457 328.724C554.931 317.012 556.939 304.617 556.484 292.337H556.471ZM497.743 340.979C500.345 330.619 525.238 329.204 512.229 316.077C490.342 310.808 467.987 306.917 446.201 301.269C442.26 300.246 437.878 298.945 433.988 297.694C430.452 296.544 427.029 294.055 423.227 294.257L497.73 341.004L497.743 340.979ZM399.243 294.876C381.195 300.675 362.188 303.177 343.647 307.17C332.482 309.57 321.33 312.072 310.241 314.813C307.374 316.797 307.261 320.549 305.417 323.253C303.573 325.957 298.647 328.686 297.409 331.667C296.778 333.171 297.056 334.775 296.45 336.393C295.667 338.49 289.352 346.98 291.259 348.572C298.571 346.715 304.785 342.116 311.454 338.768C335.627 326.601 360.533 316.026 384.732 304.049C389.67 301.61 395.24 298.641 399.243 294.876ZM406.19 300.562L323.78 370.05L323.465 371.946C326.016 371.642 328.289 373.007 330.739 373.209C338.191 373.828 346.464 367.422 353.157 364.693C359.851 361.964 366.835 361.232 373.049 358.06L406.19 300.562ZM423 304.579C421.75 303.24 420.31 301.989 419.135 300.562C419.123 306.184 423.682 311.187 426.069 316.367C430.616 326.26 434.91 338.136 438.876 348.408C443.826 361.232 447.944 374.409 453.236 387.094C454.663 385.666 455.471 384.049 457.037 382.685C458.944 381.042 462.493 379.867 463.92 378.2C465.739 376.09 465.701 372.249 467.419 370.328C468.897 368.686 472.875 367.46 475.022 366.867L474.921 365.401C457.744 345.022 441.162 324.099 423 304.567V304.579ZM398.612 301.825C369.728 313.55 341.803 327.321 313.967 341.269L289.314 355.167L288.846 356.33C290.93 361.093 293.103 365.881 295.578 370.455C296.854 372.805 301.476 381.371 302.967 382.659C303.661 383.266 303.712 383.354 304.697 383.215C309.37 382.533 319.196 370.05 323.149 366.222C333.682 356.039 346.615 345.54 357.906 335.95C371.382 324.504 385.742 313.878 398.612 301.825ZM375.146 426.791C376.851 422.596 378.859 417.063 381.915 413.677C387.232 407.789 392.36 409.065 395.139 399.741C399.685 384.504 400.178 365.489 402.489 349.608C404.775 333.853 408.867 318.3 409.966 302.457L376.169 360.562L348.813 417.227C348.623 419.274 356.151 421.851 357.856 422.495C360.382 423.443 373.529 427.789 375.133 426.804L375.146 426.791ZM425.766 302.457C434.632 312.4 443.675 322.28 452.276 332.476C461.546 343.468 471.549 358.68 481.312 368.496C484.09 371.301 489.294 372.325 492.287 375.268C495.47 376.608 496.189 369.002 496.808 367.524C499.246 361.762 505.877 352.994 500.623 347.283C497.743 344.15 485.909 337.58 481.526 334.801C466.598 325.35 449.56 313.916 434.165 305.742C431.588 304.377 428.709 302.419 425.766 302.457ZM403.032 376.355C408.539 371.086 418.592 361.737 419.413 353.866C419.88 349.355 417.418 337.745 416.925 332.451C416.117 323.708 416.205 314.876 414.386 306.247C413.49 306.096 413.464 307.372 413.313 308.003C410.623 319.071 408.665 333.702 406.91 345.186C405.331 355.521 404.232 365.982 403.032 376.368V376.355ZM454.107 402.811C455.837 400.069 445.266 376.532 443.612 372.085C436.729 353.74 430.186 335.293 422.722 317.176L419.464 311.288C420.045 321.055 420.487 330.909 421.358 340.65C421.712 344.542 423.391 349.621 423.303 353.285C423.202 357.555 418.921 362.596 419.729 365.616C422.356 371.023 426.258 376.658 428.418 382.23C429.82 385.843 430.565 392.678 433.003 395.332C433.596 395.989 440.063 400.335 441.225 401.004C445.039 403.203 449.851 404.517 454.107 402.811ZM303.257 316.355C298.205 317.744 292.673 318.919 287.786 320.764C280.688 323.443 280.22 323.518 281.243 331.112C281.9 335.9 283.504 340.65 284.325 345.414C286.333 343.67 289.049 341.484 290.526 339.311C292.774 336.014 293.292 331.516 295.401 328.395C298.331 324.087 304.747 322.937 303.244 316.355H303.257ZM549.512 332.16C541.114 330.821 532.172 325.654 523.899 324.63C518.254 323.935 519.656 326.967 515.74 330.227C510.916 334.232 501.557 335.331 503.06 343.531C504.677 352.337 529.633 356.683 535.973 361.724C538.6 361.724 550.788 333.613 549.525 332.173L549.512 332.16ZM507.038 356.266C505.182 356.848 504.336 361.51 503.351 363.329C502.744 364.441 501.481 365.148 500.787 366.45C497.49 372.577 497.427 378.477 500.37 384.82C501.166 386.538 506.634 394.713 508.188 394.713C509.021 394.713 518.266 385.97 519.567 384.592C521.462 382.571 534.66 366.538 534.395 365.35C530.883 362.078 526.526 361.282 522.409 359.614C517.155 357.492 518.544 357.201 512.646 356.797C510.79 356.671 509.11 355.622 507.051 356.266H507.038ZM369.563 363.733C368.894 363.051 362.933 366.475 361.531 366.74C358.992 367.208 356.694 366.488 354.054 367.473C352.513 368.054 343.735 373.841 342.725 375.091C337.345 381.712 341.854 386.033 340.224 392.186C339.315 395.635 336.398 396.38 334.503 398.465C332.204 400.979 329.881 404.542 329.426 407.991L343.9 416.077C345.327 415.812 347.764 410.859 348.547 409.368C352.677 401.485 356.782 392.325 360.634 384.188C363.804 377.517 367.151 370.644 369.563 363.746V363.733ZM394.861 430.657C401.024 431.428 407.251 432.06 413.477 431.971C416.837 431.921 433.811 430.607 434.922 428.206C435.175 427.65 433.167 421.017 432.902 419.45C431.298 410.088 429.706 391.845 425.627 383.771C425.008 382.546 423.657 382.47 422.949 381.396C421.964 379.893 421.775 376.696 420.828 374.675C419.805 372.489 417.531 370.025 415.915 368.181C414.639 367.915 410.724 373.917 409.676 375.104C408.21 376.784 405.849 378.44 404.662 380.196C400.393 386.462 402.628 394.536 398.031 400.726L394.873 430.657H394.861ZM465.739 419.147C467.053 420.31 469.717 418.945 471.233 418.364C476.146 416.481 502.353 401.99 503.363 398.023C503.654 396.873 502.416 395.117 501.886 394.043C495.76 381.863 493.12 378.579 480.781 372.83C479.392 372.186 477.939 370.455 476.462 370.151C470.21 368.863 468.682 376.987 465.575 380.474C464.413 381.775 461.925 382.937 460.51 384.251C454.006 390.253 454.776 389.962 457.353 398.174C458.3 401.194 464.312 417.871 465.764 419.147H465.739ZM337.357 375.736C334.933 375.028 333.43 377.656 331.371 377.682C327.986 377.719 325.965 373.613 320.269 375.382C317.339 376.292 311.719 384.454 308.271 386.121C307.614 386.841 307.501 387.625 307.766 388.547C308.094 389.697 323.869 404.871 325.056 404.757C327.266 401.952 329.35 398.97 331.674 396.267C333.051 394.675 334.566 394.776 335.779 392.16C337.736 387.928 335.147 385.3 335.589 381.876C335.804 380.234 337.976 377.922 337.357 375.736ZM455.32 405.553C453.968 404.769 448.941 406.184 446.453 405.894C441.275 405.287 439.671 402.685 435.87 400.676C435.023 400.221 434.897 400.246 434.266 400.979C433.849 401.636 433.912 402.432 433.95 403.178C434.139 407.587 435.63 416.924 436.779 421.245C437.6 424.34 439.747 426.008 440.972 428.762L461.698 422.407C462.316 421.523 456.519 406.248 455.32 405.553ZM392.928 409.217C391.842 408.939 391.665 409.659 391.034 410.152C385.3 414.586 379.857 420.613 379.061 428.143L390.971 429.988L392.928 409.217Z" fill="black"/>
</g>
<defs>
<clipPath id="clip0_8061_313">
<rect width="427" height="568" fill="white" transform="translate(187 116)"/>
</clipPath>
</defs>
</svg>
