<svg width="800" height="800" viewBox="0 0 800 800" fill="none" xmlns="http://www.w3.org/2000/svg">
<g clip-path="url(#clip0_8061_315)">
<path d="M310.602 80.6292C314.612 79.8617 316.286 85.7926 319.703 86.4787C321.947 86.9323 324.016 85.7228 326.119 85.3391C327.724 84.2575 324.678 72.6167 328.165 72.64C332.466 75.3612 333.663 80.7688 339.44 81.8852C341.486 81.6875 340.951 67.5231 345.357 67.9883C348.751 68.3604 351.401 76.8497 352.773 77.2335C358.224 76.2566 363.653 75.9078 369.151 76.7218C373.172 77.3149 379.252 80.4664 381.867 80.5711C385.935 80.7455 390.41 78.6755 396.222 79.4663C405.452 80.7223 411.787 87.5486 419.726 90.4094C432.907 95.1541 440.09 92.5608 452.679 102.504C457.526 106.341 460.548 111.726 464.245 114.784C467.941 117.843 473.73 115.843 476.636 112.854C477.565 111.9 477.647 110.074 478.844 109.772C478.879 118.192 468.313 121.111 461.606 119.401C461.06 119.262 455.225 115.517 456.329 118.052C456.91 119.378 460.688 123.797 461.897 125.739C464.047 129.205 467.162 136.345 469.266 138.915C475.078 146.02 492.397 141.88 490.77 130.995C491.735 129.705 493.176 133.635 493.269 134.124C495.768 148.59 483.122 156.405 470.242 156.498C476.205 163.406 480.75 174.605 481.494 183.687C482.459 195.433 475.485 210.004 486.795 218.819C492.397 223.192 499.697 220.482 500.72 213.83C503.858 215.796 500.813 220.319 499.058 222.448C493.374 229.367 486.353 228.367 478.844 225.099C479.96 232.007 480.471 238.147 486.795 242.31C483.238 243.671 480.274 242.857 477.054 241.124C475.206 240.136 473.59 237.949 471.556 237.345C472.66 252.137 487.806 261.208 496.082 245.625C497.442 245.625 496.64 248.276 496.419 248.951C490.875 266.301 463.35 261.452 458.654 245.625C452.295 255.312 440.579 275.268 449.366 286.06C453.806 291.514 461.885 290.932 466.279 285.722C467.162 284.676 467.151 283.013 468.255 282.734C468.383 292.735 456.771 296.875 448.134 295.909C434.581 294.398 429.885 284.152 425.84 273.151C425.584 272.442 425.561 271.558 424.561 271.465C422.178 280.815 419.168 289.618 424.015 298.852C426.467 303.527 429.455 304.783 434.488 305.597C425.851 311.551 416.204 303.91 409.322 298.642C412.217 315.179 425.968 330.82 438.823 341.031C462.071 359.486 488.701 358.707 505.776 385.373C507.253 387.676 514.111 401.701 515.017 401.98C516.261 402.363 516.61 401.91 517.133 400.887C518.33 398.561 518.702 391.444 519.922 387.769C526.304 368.499 546.727 357.219 566.545 359.033C583.853 360.626 603.753 376.593 619.945 369.22C625.524 366.685 627.663 362.033 627.175 356.033C627.082 354.939 625.106 351.951 626.896 352.334C633.405 358.068 632.522 369.464 627.221 375.837C620.642 383.733 610.379 384.896 600.742 385.129C610.425 391.025 615.981 401.596 624.571 409.004C634.184 417.284 649.004 421.889 653.073 406.015C656.025 407.876 654.27 413.679 652.956 416.179C648.412 424.854 637.543 426.32 629.035 423.098C626.663 422.203 625.013 420.4 622.595 419.935C628.07 435.007 637.415 448.566 639.729 464.743C642.321 482.873 638.473 514.074 617.283 519.33C622.793 514.411 627.303 508.701 629.674 501.584C630.453 499.258 632.522 491.874 632.522 489.85V480.244L630.662 486.001C624.071 502.793 607.054 513.05 611.622 533.297C612.389 536.704 615.179 540.251 618.271 541.891C628.895 547.508 640.903 537.1 630.546 527.959C644.855 529.389 639.217 548.206 628.07 550.322C627.291 550.473 620.817 550.02 622.595 551.799C634.091 556.137 646.703 551.939 652.677 541.147C655.653 535.774 656.362 531.401 655.374 525.296C658.408 527.587 659.814 531.262 660.279 534.971C661.546 545.298 661.663 552.927 656.49 562.184C643.32 585.768 615.179 589.14 591.467 580.965C591.281 581.116 592.71 583.186 593.106 583.628C598.557 589.803 616.853 589.908 624.583 588.245C625.815 589.431 621.282 591.187 620.782 591.396C606.252 597.537 582.4 593.862 570.928 582.616L558.362 569.685C559.827 578.93 567.754 588.478 576.24 592.222L575.902 593.548C559.931 591.955 550.772 576.72 547.413 562.416C546.355 557.916 546.645 552.45 545.634 548.299C545.088 546.066 542.879 543.135 541.961 540.705C539.311 533.692 539.183 524.505 539.822 517.016C541.798 493.769 557.339 473.209 555.735 449.392C554.689 433.832 539.694 416.098 524.2 428.529C527.059 438.123 527.513 451.183 526.385 461.161C523.537 486.35 495.896 497.863 513.181 528.413C519.225 539.088 535.394 544.903 533.79 558.044C533.115 563.521 525.583 578.069 523.235 584.593C518.772 596.99 513.866 612.12 512.1 625.145C511.484 629.703 511.739 639.96 510.321 643.251C508.589 647.263 492.281 645.577 491.444 650.915C490.875 654.52 494.618 660.695 492.118 665.126H616.644L615.888 670.999L503.37 672.417V676.406C519.144 676.72 534.987 675.976 550.76 676.371C556.607 676.522 565.778 676.429 571.218 677.127C574.38 677.534 573.938 678.813 573.299 681.744C572.834 682.418 572.009 682.314 571.299 682.395C557.711 684.058 538.916 681.79 524.932 681.674C452.772 681.058 380.391 681.732 308.323 682.395C296.049 682.511 279.636 683.57 267.849 682.395C266.338 682.244 264.92 682.349 264.386 680.569C262.375 673.929 271.709 677.15 275.87 677.092C277.753 677.069 279.38 676.406 281.112 676.371C285.611 676.29 314.879 677.127 315.844 675.673L315.623 673.034L195.678 670.44C195.073 669.626 194.713 665.382 195.771 665.079L321.888 664.789C327.235 657.544 333.256 650.833 338.045 643.17C338.859 641.867 339.057 639.821 340.138 638.634C342.242 636.343 350.936 633.611 354.144 631.436C359.445 627.842 357.829 623.191 360.654 619.388C362.153 617.365 367.977 613.946 370.278 611.783C377.531 604.933 387.679 592.362 393.712 584.198C399.721 576.058 401.941 573.685 399.768 563.01C397.594 552.334 384.122 528.959 378.322 518.865C369.058 502.747 363.594 502.084 365.629 481.21C366.268 474.627 372.835 446.089 370.604 442.426C323.76 421.947 283.948 385.838 270.093 335.228C254.924 329.099 242.475 318.249 229.631 308.411L227.666 308.015C225.841 308.306 222.459 312.144 221.517 313.842C218.228 319.842 214.578 337.263 215.31 343.973C215.694 347.439 217.24 349.543 216.542 353.928C216.147 356.416 212.288 359.917 215.043 361.475C219.309 363.673 230.642 364.289 232.618 368.406C236.384 376.256 235.047 398.782 230.119 405.945C226.748 410.841 224.4 409.794 220.239 406.631C217.798 404.782 199.723 389.292 199.072 388.048C197.956 385.92 197.665 381.931 196.619 379.233C193.794 371.918 188.401 367.255 184.914 361.126C179.625 351.811 185.507 345.88 188.424 337.065C191.412 328.029 197.363 307.236 197.398 298.328C197.409 293.979 195.492 290.072 197.061 285.397C199.874 277.012 211.3 267.534 219.855 265.79C227.945 264.127 232.839 272.802 240.429 273.442L217.437 240.45C207.197 238.647 187.634 249.986 182.659 258.394C180.927 261.313 179.904 268.057 177.812 270.104C175.138 272.709 168.548 269.93 167.664 273.256C167.013 277.442 170.872 279.024 172.755 281.838C182.008 295.654 166.49 310.074 154.495 315.04C150.833 316.551 142.452 319.691 141.22 314.063C140.337 310.027 140.709 302.166 140.407 297.642C140.174 294.095 138.837 289.13 139.07 285.722C139.407 280.826 143.382 271.732 144.208 265.639C144.882 260.685 143.987 254.288 146.114 249.66C148.38 244.741 159.563 241.043 164.456 238.194C171.361 234.182 184.135 226.309 189.738 221.075C193.969 217.121 195.84 211.098 200.467 207.946C204.756 205.027 213.671 202.294 218.82 202.62C232.595 203.48 234.408 212.121 243.8 219.378C246.694 221.61 271.499 237.682 273.231 237.647C274.615 237.612 278.195 232.484 279.857 231.053C283.425 227.983 288.621 225.401 293.247 224.576C295.63 224.146 300.756 224.599 302.674 223.401C303.604 222.82 305.848 217.61 306.777 216.238C308.672 213.435 311.171 210.179 313.31 207.539C321.493 197.422 333.884 188.828 335.116 174.733C331.955 174.803 327.758 172.616 324.911 172.698C321.505 172.791 310.369 175.838 306.673 177.036C295.502 180.641 300.838 181.699 295.712 187.944C292.678 191.653 282.286 191.967 277.892 191.246C274.231 190.642 274.033 186.537 272.232 185.653C268.756 183.955 265.978 187.665 262.003 183.292C258.62 179.571 259.236 175.082 258.12 170.605C257.005 166.127 254.087 161.731 256.005 156.836C257.679 152.579 264.909 148.649 268.559 145.544C277.16 138.24 287.389 130.333 295.421 122.715C298.513 119.785 301.163 115.494 304.674 112.761C293.875 110.912 282.437 103.888 282.774 91.5491C282.926 86.0368 285.983 78.6406 292.085 77.9778C282.798 86.2694 291.597 97.1195 302.256 96.4682C304.034 96.3636 310.637 95.0611 310.637 92.8864V80.6292H310.602ZM335.116 323.18H348.03C357.178 323.18 375.218 311.865 381.158 304.62C382.158 303.445 378.868 303.957 378.566 304.015C371.94 305.178 365.338 308.783 358.306 306.946C371.22 300.375 394.828 295.212 393.421 276.791C400.163 284.083 392.805 294.781 390.771 302.631C398.559 297.945 402.406 286.106 399.593 277.559C394.27 261.371 363.083 262.406 350.355 268.162C352.18 265.604 356.516 263.976 359.48 263.057C371.905 259.184 386.086 258.684 398.036 264.197C399.942 261.708 389.318 256.928 387.446 256.231L394.909 254.102L397.373 250.939L381.809 254.916H371.545C371.719 253.742 372.882 253.777 373.684 253.416C382.634 249.439 391.968 247.032 398.036 238.356C394.467 239.845 391.689 242.427 388.086 243.973C377.299 248.59 364.536 249.044 352.994 248.625C356.655 245.253 362.2 244.473 366.686 242.438C378.915 236.88 388.841 230.332 398.036 220.459C391.933 223.087 387.074 227.832 381.263 231.17C373.172 235.81 364.373 239.054 355.493 241.834L341.742 245.311C345.438 241.589 350.785 240.578 355.435 238.461C368.302 232.612 380.461 227.646 390.108 216.819C408.52 196.177 407.997 170.919 400.697 145.567C401.72 145.73 401.941 146.8 402.336 147.567C408.206 159.045 410.299 178.152 408.462 190.781C407.346 198.445 404.243 205.62 402.685 213.156L407.311 204.876C422.48 168.628 404.975 129.984 373.742 109.249C371.545 107.795 363.978 103.12 361.921 102.515C359.538 101.818 362.281 107.179 361.328 108.504L358.306 109.132C356.016 98.8871 353.993 88.1533 348.03 79.3151C346.682 82.4434 349.274 85.0483 350.03 87.9208C350.785 90.7932 352.366 100.864 351.564 103.399C350.529 106.69 348.112 101.911 347.507 100.387C344.52 92.8515 345.868 85.6996 347.031 78.001L343.799 89.6651C343.195 95.0495 345.194 99.864 343.718 105.167C341.707 104.678 341.405 102.213 339.591 102.62C336.523 103.318 331.385 108.086 328.072 109.726C323.097 112.191 317.471 112.784 312.601 114.796C306.313 117.389 302.372 123.634 297.362 128.042C291.085 133.577 284.553 139.217 278.148 144.613C272.952 148.986 267.396 152.812 262.096 157.045C259.504 160.545 262.596 163.674 263.386 167.325C263.967 170.011 264.014 177.419 265.827 178.803C267.117 179.792 274.417 179.664 276.195 179.117C279.136 178.198 282.437 172.896 285.111 170.814C290.69 166.476 294.747 167.383 301 165.511C304.86 164.348 308.114 162.104 311.915 160.848C313.74 158.987 307.126 159.557 306.615 159.522C308.01 157.394 311.671 157.603 313.903 157.533C312.892 155.242 311.09 153.149 308.73 152.137C307.661 150.335 310.265 149.439 311.741 149.09C316.344 148.021 322.481 148.997 326.166 145.625C327.782 145.253 326.875 146.625 326.48 147.102C324.411 149.509 319.691 151.44 316.553 151.591C324.236 169.36 343.578 172.465 355.632 156.556C361.839 148.369 363.908 131.356 359.526 122.18C358.991 121.052 355.237 116.238 355.644 115.808C374.742 126.797 371.871 156.208 361.467 172.337C349.658 190.653 331.571 195.642 318.552 210.911C310.218 220.68 305.266 234.926 297.99 243.357C294.968 246.857 289.412 249.206 285.773 252.335C278.113 258.94 275.544 267.534 273.487 277.163C277.346 278.861 278.939 271.697 280.124 268.895C281.275 268.732 280.752 270.407 280.775 271.197C280.845 273.07 280.729 274.965 280.775 276.838C281.38 276.919 281.624 276.919 282.112 276.524C283.309 275.582 286.378 267.313 287.784 264.964C290.469 260.464 294.991 257.079 297.234 253.207C300.78 247.078 303.348 239.17 306.708 232.867C312.171 222.61 318.692 212.633 327.805 205.271C325.259 211.819 320.284 217.087 316.867 223.157C313.729 228.727 310.497 235.461 309.265 241.717L318.924 225.878L326.817 217.214C327.793 217.726 326.677 218.808 326.352 219.401C322.563 226.111 316.658 232.426 315.891 240.415C322.028 234.205 328.398 229.414 336.744 226.495C337.383 226.274 338.638 225.262 339.068 226.169C334.326 232.077 327.317 235.624 321.54 240.438C320.517 241.287 310.451 249.741 311.915 251.021L316.867 250.358L317.204 251.684C301.326 255.23 290.028 264.941 290.051 282.175L298.374 266.988L303.279 262.964C302.872 266.011 299.989 268.371 298.536 271.128C297.339 273.395 294.061 281.292 295.433 283.42C301.372 285.559 306.51 286.525 312.892 286.153C316.786 285.92 321.051 284.536 324.829 284.187C325.585 284.117 328.467 283.641 328.456 284.827C319.064 288.816 309.614 291.653 299.315 290.141C299.373 290.944 300.245 291.235 300.838 291.595C311.09 297.886 332.036 287.106 342.997 284.466C343.66 284.303 345.159 283.594 345.008 284.827C333.175 291.269 321.075 297.096 308.079 300.898C307.173 301.712 307.591 305.829 305.603 305.376C304.894 305.213 296.839 297.003 294.968 295.468C288.505 290.188 282.368 285.257 273.72 284.257C260.248 282.699 246.892 284.024 233.943 278.326C231.142 277.093 224.04 271.93 222.029 271.756C219.216 271.5 211.602 276.047 209.521 278.187C201.164 286.746 204.035 292.037 203.245 302.387C202.547 311.597 198.305 325.378 195.631 334.542C194.062 339.926 188.18 352.474 189.633 357.114C190.203 358.94 193.19 361.405 194.259 363.08C198.293 369.441 201.989 376.233 203.919 383.571C206.674 381.315 212.369 370.639 210.881 367.662C210.416 366.743 208.661 366.266 207.882 365.348C206.43 363.615 205.709 361.429 204.233 359.719L203.245 367.011L201.245 366.697L194.643 357.068L197.944 359.719L201.931 348.462L203.907 353.753C205.337 348.322 204.175 342.531 204.663 336.949C205.197 330.855 209.684 309.109 212.381 304.248C216.089 297.596 230.526 289.432 237.023 295.77L235.698 296.421C237.535 298.142 239.743 299.445 241.394 301.398C249.542 311.039 263.072 318.249 275.463 320.912C279.032 321.68 284.704 326.459 288.819 327.448C298.141 329.704 301.279 325.32 308.87 322.575C317.867 319.319 326.945 318.075 335.279 312.551C345.368 305.864 349.332 297.363 355.865 288.06C356.423 287.269 355.888 286.443 357.573 286.815C356.736 301.747 343.381 312.051 335.058 323.261L335.116 323.18ZM369.22 81.2921C365.036 80.7688 359.945 81.6759 355.644 81.2921L356.655 85.2809C360.107 82.6062 363.583 84.5018 367.209 84.6297C368.046 84.6646 376.729 84.932 375.52 83.2807C373.591 82.862 371.127 81.5247 369.232 81.2805L369.22 81.2921ZM409.962 92.5608C398.524 80.7455 372.928 82.4201 366.907 99.1895C368.802 100.864 381.495 92.6771 384.122 91.5723C388.876 89.5837 393.793 88.7813 398.942 89.3279C399.628 89.3977 402.057 89.5954 401.999 90.5722C392.712 89.2 383.948 94.6424 377.822 101.178C377.717 103.26 380.007 102.376 381.356 102.05C390.515 99.8291 400.14 92.5376 409.962 92.5608ZM368.232 86.6067C366.675 86.5485 366.477 87.9208 364.687 87.9091C363.327 87.9091 357.957 85.6298 357.643 85.9438L360.619 93.8633L368.244 86.6067H368.232ZM338.429 88.5952C320.9 87.6998 307.428 111.865 289.737 97.2125C288.772 98.2243 291.748 100.759 292.759 101.48C300.722 107.121 312.938 104.167 320.982 99.9803C323.83 98.4917 326.503 96.0263 329.362 94.4448C331.06 93.5144 337.29 91.4095 337.592 91.0839C337.941 90.7234 337.918 89.2697 338.417 88.6069L338.429 88.5952ZM336.441 96.5496L316.425 106.004L308.626 107.795C319.343 109.609 329.188 103.946 336.441 96.538V96.5496ZM384.134 108.47H395.06C396.873 108.47 403.987 106.876 406.126 106.295C413.542 104.283 421.213 99.6198 429.164 98.5266L421.469 96.631C409.578 95.7937 396.664 100.794 386.319 106.353C385.459 106.818 384.424 107.481 384.134 108.47ZM390.759 114.435H403.011C414.135 114.435 425.921 104.713 439.463 105.795C447.867 106.469 449.424 109.284 454.806 114.273C455.341 114.773 456.073 115.901 456.991 115.087C457.491 114.645 453.76 110.342 453.283 109.853C438.033 94.2238 420.063 105.179 403.197 111.296L390.759 114.424V114.435ZM458.305 130.995C457.48 128.681 455.678 126.134 454.225 124.146C447.169 114.552 437.998 109.016 425.851 112.447C424.119 114.098 430.373 113.866 431.187 114.063C441.915 116.703 451.028 122.936 458.305 130.995ZM482.157 146.916C461.606 151.195 452.551 129.158 436.696 121.82C422.759 115.377 413.728 118.459 399.361 121.064C397.919 122.285 401.837 122.901 402.418 122.971C412.879 124.204 422.178 123.506 432.477 127.367C446.972 132.798 462.385 155.3 479.204 148.916C479.983 148.625 482.029 147.835 482.168 146.916H482.157ZM422.876 129.007C419.667 128.623 415.89 129.286 412.612 129.007L423.364 130.507L434.802 133.647C435.72 133.007 433.872 132.449 433.5 132.298C431.094 131.286 425.259 129.286 422.876 129.007ZM474.206 186.665C474.067 158.243 445.774 138.392 419.9 134.31C419.54 136.205 420.4 135.38 421.341 135.81C443.612 146.032 460.746 153.265 471.01 177.594L474.206 186.653V186.665ZM474.869 231.728C474.148 220.215 474.811 208.586 472.59 197.235C466.534 166.348 443.229 142.985 411.949 138.299L425.398 145.044C456.073 163.615 468.139 189.863 472.137 224.855L474.869 231.728ZM427.851 228.413C447.82 210.028 447.425 176.535 429.501 156.847L435.057 166.534C443.054 184.467 441.729 202.562 432.837 219.819C431.338 222.715 428.966 225.367 427.862 228.425L427.851 228.413ZM421.888 223.773C437.405 209.597 438.847 181.28 426.188 164.802L430.14 174.768C433.779 186.223 432.581 197.526 429.199 208.888L421.899 223.773H421.888ZM453.016 202.899C453.411 199.015 452.725 194.596 453.016 190.642C455.073 191.467 455.457 194.305 455.655 196.282C457.236 211.83 451.4 222.762 441.09 233.705C448.704 230.379 455.411 221.494 457.84 213.679C462.85 197.584 456.933 183.908 447.995 170.814L442.427 164.79C448.622 183.059 450.901 202.038 441.218 219.575C432.721 234.949 414.937 245.02 410.438 262.336C409.915 264.348 409.787 266.464 409.299 268.488C409.764 269.406 410.601 267.627 410.764 267.302C413.46 261.836 417.436 254.812 421.551 250.265C426.816 244.45 436.185 238.845 440.59 232.856C445.333 226.402 452.226 210.772 453.028 202.887L453.016 202.899ZM315.24 167.453L311.229 167.732L302.663 171.407L305.999 171.116L315.24 167.441V167.453ZM294.038 172.093C293.108 172.093 292.097 171.93 291.202 172.233C290.086 172.605 282.902 181.082 281.763 182.664C281.101 183.571 280.508 183.99 280.798 185.339C282.17 186.792 288.598 178.571 289.749 178.059C290.039 177.931 290.83 177.884 290.725 178.385L284.762 185.339L291.271 183.908L294.038 172.105V172.093ZM265.56 246.962C263.828 243.636 262.444 239.961 259.608 237.345C253.61 231.798 241.359 227.739 236.454 222.738C235.14 221.401 233.896 218.552 232.42 216.842C226.097 209.539 218.123 207.388 208.731 210.33C202.024 212.423 201.083 217.133 197.014 221.796C190.923 228.786 178.463 236.6 170.384 241.543C166.397 243.985 155.169 248.532 152.658 251.637C150.519 254.3 150.845 263.208 150.217 267.081C149.252 273.046 147.602 278.849 146.346 284.734L162.248 280.757C161.283 277 159.981 273.721 161.539 269.779C162.759 266.685 166.653 265.243 168.513 262.836C172.5 257.649 172.755 251.579 177.835 246.985C182.031 243.194 199.409 230.088 204.105 228.867C207.801 227.902 211.323 228.809 214.903 228.402C217.995 228.053 229.665 225.041 231.421 226.355C233.013 236.135 242.428 243.194 247.38 251.602L247.694 250.625L241.405 237.031C248.333 241.973 251.623 250.253 256.644 256.905C256.354 250.218 251.727 244.822 249.031 239.019C254.238 243.217 258.051 248.881 261.945 254.254C261.724 247.648 256.354 241.927 252.332 237.031L265.583 246.962H265.56ZM402.011 246.962C405.975 235.798 411.391 224.332 412.612 212.505L401.674 244.962L402.011 246.962ZM445.74 254.928C451.551 246.718 457.445 236.996 459.642 227.099L447.809 249.381L445.751 254.94L445.74 254.928ZM464.942 229.739V240.008C464.942 241.973 467.929 247.823 469.301 249.555C469.522 249.834 470.591 251.474 470.905 250.602L467.255 241.671L464.942 229.739ZM292.713 232.402C285.541 234.309 278.334 241.578 276.823 248.962L282.763 239.996L292.713 232.402ZM201.315 236.379C197.642 237.31 193.771 239.252 190.517 241.136C187.762 242.729 177.812 249.265 176.126 251.265C173.511 254.37 174.011 260.731 171.5 264.197C175.603 263.15 175.487 257.649 177.835 254.3C183.6 246.113 193.702 242.357 201.303 236.368L201.315 236.379ZM443.078 241.671C424.608 249.648 407.904 272.639 415.064 293.211C415.599 294.747 416.483 296.13 417.575 297.317C417.912 295.2 416.75 293.13 416.587 291.014C414.925 268.313 428.13 256.091 443.066 241.659L443.078 241.671ZM433.151 263.534V275.128C433.151 276.337 435.732 280.954 436.592 282.292C437.173 283.21 441.997 289.746 443.089 288.711L436.801 279.442L433.151 263.545V263.534ZM165.537 286.071C158.284 285.28 152.24 287.304 145.753 290.13L147.613 310.306C156.285 310.202 163.573 302.352 168.071 295.549C168.745 294.526 170.593 292.642 169.85 291.362C164.189 297.107 159.853 305.655 150.973 306.597C150.88 301.654 157.749 300.922 158.935 296.305L157.819 294.77L152.96 294.665C152.414 291.258 155.436 290.025 158.028 288.804L165.549 286.06L165.537 286.071ZM471.568 481.233C472.439 490.141 470.917 500.34 471.568 509.399C473.148 508.724 473.66 506.422 474.032 504.91C476.531 494.955 475.973 483.14 477.856 472.941L479.518 472.29L480.181 504.096C484.249 492.42 484.458 479.802 486.155 467.65H488.131C487.504 471.069 488.782 474.755 488.817 477.895C488.899 484.687 487.469 491.408 487.132 498.13C492.525 486.652 493.606 473.499 495.42 461.021C496.268 461.044 497.396 463.649 497.396 463.998V481.233C497.396 481.826 496.163 483.64 496.745 484.873C501.743 478.465 502.068 468.801 502.789 460.765L504.033 460.009L505.695 461.661C514.75 448.927 510.972 431.867 510.007 417.272L512.321 422.563C515.843 436.518 516.586 450.148 512.82 464.161C510.077 474.372 504.056 483.326 501.394 493.478L511.797 477.058C527.931 447.217 515.238 413.307 498.093 387.106C486.353 369.162 470.986 368.511 453.911 359.068C438.056 350.311 419.423 334.518 409.555 319.284C405.742 313.4 403.22 307.783 402.685 300.643C398.35 304.841 391.027 303.434 386.563 306.039C382.099 308.643 377.345 315.202 373.207 318.517C362.258 327.297 351.796 327.506 339.789 332.123C338.394 332.658 319.61 342.345 320.563 343.043L337.79 339.74L321.226 349.671C326.387 349.764 331.385 347.311 336.302 346.531C337.011 346.415 338.603 345.822 338.441 347.02L311.95 359.614C322.121 359.486 331.339 355.021 341.091 352.997L333.163 358.638C327.886 362.115 320.401 362.836 315.925 366.906C328.467 366.836 339.266 360.219 351.029 356.975C343.578 365.336 331.989 367.673 322.853 372.848C321.946 373.36 320.924 373.407 321.226 374.86C334.14 372.93 346.229 367.58 357.643 361.615C358.341 362.324 355.597 364.731 355.004 365.266C353.459 366.697 350.39 368.964 348.588 370.116C341.939 374.36 333.605 376.267 327.84 381.489C333.338 381.14 339.522 378.838 344.741 376.872C350.657 374.639 356.864 370.651 362.479 368.755C363.734 368.336 363.908 367.871 364.92 369.243L333.803 388.792C342.195 387.118 350.32 383.861 358.085 380.291C362.316 378.349 366.221 374.953 370.883 374.221C363.501 384.454 350.553 387.327 341.079 394.746C354.016 392.711 365.257 385.71 376.846 380.175C377.892 381.094 367.5 389.269 366.454 389.99C360.549 394.06 353.575 396.188 348.356 400.712C354.598 399.654 361.165 397.072 366.896 394.409C372.626 391.746 377.659 387.885 383.471 385.478L376.125 393.7L356.981 405.34C369.22 403.282 379.577 396.119 390.085 390.106C391.433 391.56 382.006 399.351 380.763 400.317C378.787 401.852 375.869 403.98 373.742 405.213C370.883 406.876 367.035 407.352 364.931 409.969C372.394 409.341 379.194 405.515 385.412 401.631C390.062 398.723 394.2 394.269 399.372 392.746C394.188 399.549 387.83 405.434 380.763 410.236C378.24 411.958 374.951 413.039 372.87 415.26C377.624 414.725 381.693 412.085 385.9 410.074L408.637 394.723C403.29 405.189 392.665 410.981 383.471 417.586C385.145 418.133 387.656 416.726 389.213 416.039C400.546 411.085 409.148 402.898 418.563 395.386C416.052 402.596 409.311 409.027 403.278 413.551C400.081 415.946 396.327 417.598 393.165 420.005C392.549 420.47 391.085 421.342 393.049 421.214C401.151 418.342 408.753 413.923 415.262 408.318C416.878 406.922 424.794 398.095 425.514 398.049C427.223 397.956 425.572 400.584 425.293 401.131C419.981 411.318 410.113 418.261 400.686 424.215C402.313 424.215 404.94 423.308 406.44 422.68C409.869 421.261 413.042 419.168 416.134 417.133L431.803 403.329C431.779 406.62 428.908 410.143 426.851 412.609C422.597 417.726 416.796 422.517 411.275 426.192C412.496 426.959 414.518 425.796 415.692 425.308C424.596 421.61 431.384 414.202 438.417 407.957C435.615 416.632 427.165 422.749 420.539 428.494C429.594 426.529 441.869 420.935 446.914 412.806C453.923 401.538 454.295 386.931 452.656 374.163C469.313 406.282 442.415 437.879 438.428 469.929C436.94 481.849 435.139 495.921 443.078 505.689C444.031 506.864 453.272 516.4 454.318 515.318C454.016 512.236 450.819 510.562 449.041 508.341C444.484 502.665 440.892 497.025 440.416 489.466L452.005 505.363C454.248 501.921 451.958 497.188 453.481 493.595C453.888 492.641 453.655 492.595 454.98 492.769C455.864 498.421 455.259 505.77 459.618 510.004L460.955 488.129H462.931L464.256 510.666H466.895L469.545 476.86C471.312 476.721 470.638 476.802 470.835 477.872C471.01 478.849 471.475 480.57 471.533 481.163L471.568 481.233ZM207.941 354.323C211.695 352.486 208.801 347.508 208.568 344.078C207.79 332.6 213.055 318.703 216.531 307.934C215.531 308.085 215.298 309.19 214.868 309.911C210.916 316.563 204.361 337.333 205.337 344.659C205.732 347.601 207.778 351.102 207.941 354.323ZM306.626 334.449C293.573 340.391 276.602 329.809 265.118 323.296C257.469 318.959 250.379 313.214 242.975 309.004C242.138 308.527 241.51 307.713 240.394 307.946C256.4 322.843 277.102 331.96 297.025 340.449C299.571 340.449 305.208 336.763 306.626 334.449ZM321.865 323.854C316.46 324.983 310.172 327.529 306.638 331.797L321.865 323.854ZM282.774 344.392L281.473 344.706C299.71 399.979 355.411 436.391 410.624 447.101L403.789 443.019C366.791 431.111 330.176 413.237 305.708 382.105C296.595 370.511 289.725 357.358 282.774 344.403V344.392ZM573.566 365.603C549.319 360.661 526.037 373.883 523.224 399.386C525.688 401.852 530.209 389.804 531.058 388.339C537.904 376.465 549.621 370.313 562.803 367.743C566.011 367.115 571.241 367.836 573.566 365.592V365.603ZM225.155 372.883C225.946 377.977 226.202 383.966 225.853 389.141C225.609 392.653 224.226 396.665 224.005 399.898C223.923 401.166 223.482 401.782 224.83 402.689C226.469 402.643 228.364 389.839 228.503 387.815C228.701 384.954 228.712 372.686 226.504 371.162C222.761 371.918 220.285 368.615 216.589 368.255L208.824 387.804L222.505 400.712C221.413 394.874 215.484 391.641 213.904 386.129L218.53 390.769C217.193 386.745 212.892 384.373 214.903 379.5L222.505 386.129C223.9 381.966 222.017 376.349 225.155 372.872V372.883ZM617.946 375.535C603.3 380.082 590.595 370.72 575.856 370.86C563.477 370.976 546.355 375.605 538.474 385.815C537.777 386.722 535.033 390.42 535.812 391.432C546.831 381.454 561.733 376.256 576.553 375.535C590.502 374.86 605.729 384.408 617.946 375.535ZM598.743 575.662C579.111 562.614 574.612 542.228 582.168 520.319C593.884 486.385 621.107 476.035 617.969 433.495C617.423 426.122 610.402 403.387 606.008 397.747C591.06 378.593 563.744 377.593 544.204 390.222C537.486 394.56 535.01 400.735 527.443 404.596C525.072 405.806 517.749 407.283 518.086 410.876C519.527 415.318 520.713 411.841 523.084 410.841C526.443 409.422 527.745 411.004 531.5 407.98C537.579 403.084 540.136 399.142 548.064 396.06C553.527 393.932 575.472 388.606 580.505 389.49C581.703 389.699 584.225 390.944 584.841 392.095C581.366 392.327 576.879 392.327 573.543 393.06C569.405 393.967 559.908 397.63 555.177 399.212C547.587 401.747 540.113 405.503 535.161 411.981C541.729 409.213 547.971 405.852 554.689 403.364C566.057 399.154 576.321 394.351 588.142 399.084C608.24 407.12 614.935 426.401 613.319 446.775C610.948 476.686 584.353 493.641 576.426 521.854C569.974 544.845 574.787 566.905 598.755 575.662H598.743ZM559.664 405.352H571.916C580.668 405.352 595.43 422.331 595.43 430.867V446.438L599.603 439.019C604.95 420.517 590.816 401.387 571.265 402.038C568.115 402.142 561.919 403.096 559.652 405.352H559.664ZM624.571 416.609L622.897 414.644L613.97 408.004C616.632 411.969 619.968 415.004 624.571 416.609ZM546.088 414.632C549.261 414.411 552.794 414.632 556.026 414.632C561.361 414.632 569.068 420.831 572.136 425.017C580.366 436.239 576.856 450.404 571.706 462.126L554.375 488.187C567.429 477.907 579.645 467.882 582.656 450.555C586.41 428.925 573.241 408.748 549.575 412.155C547.471 412.458 544.204 413.434 543.112 415.283C544.239 415.749 545.46 414.667 546.088 414.632ZM584.841 464.336C594.163 454.288 596.442 442.705 591.967 429.704C589.107 421.389 583.981 415.063 575.565 411.992C591.095 425.947 592.338 445.706 584.841 464.336ZM602.044 415.295L600.742 415.609C607.298 432.03 601.649 448.101 593.315 462.545C578.646 488.001 556.909 499.991 551.888 531.762C550.528 540.391 551.911 546.857 554.375 555.113V546.182C552.574 500.642 623.676 470.278 605.869 423.075C605.497 422.075 602.37 415.586 602.044 415.295ZM432.477 463.661C434.941 457.823 430.884 452.346 427.2 448.078C422.283 442.38 414.925 438.205 407.311 437.833L422.562 450.067L432.477 463.661ZM434.465 448.427C436.301 445.543 428.037 436.425 426.526 437.833L434.465 448.427ZM621.933 444.461C621.061 454.625 618.876 465.347 614.749 474.72C608.344 489.28 596.349 501.421 590.281 516.516C581.9 537.367 583.365 558.916 603.823 571.58C613.726 577.709 628.64 579.674 638.462 572.697C636.753 570.452 634.254 572.685 632.127 572.976C606.031 576.569 585.852 554.229 591.083 528.61C597.383 497.758 624.013 486.222 623.258 449.415C623.234 448.357 622.967 445.031 621.909 444.473L621.933 444.461ZM620.596 494.153C625.373 485.28 629.36 474.162 629.883 463.987C629.965 462.475 630.244 460.789 628.884 459.696L620.596 494.153ZM393.398 516.679C387.551 510.062 380.17 504.131 377.183 495.467C374.416 487.408 375.148 476.814 374.846 468.313L372.208 481.244C371.417 491.757 371.696 497.014 377.485 505.771C382.75 513.748 384.552 516.958 388.853 525.54C394.537 536.867 402.162 548.729 406.149 560.579C407.463 564.498 407.567 568.592 409.613 572.383C410.113 573.301 409.555 574.022 411.275 573.674C410.334 570.406 410.427 566.952 409.752 563.603C406.277 546.298 394.246 531.797 388.76 515.365L393.386 516.679H393.398ZM547.064 531.925C548.017 520.935 551.074 511.701 557.13 502.561C560.78 497.049 565.569 492.385 569.579 487.175C570.23 486.326 573.543 482.279 572.904 481.558C557.99 491.815 544.274 508.329 545.762 527.61C545.832 528.506 546.088 531.622 547.076 531.925H547.064ZM655.7 547.833C637.125 569.475 603.474 560.533 603.625 530.157C603.672 521.47 607.205 513.667 609.03 505.445C609.135 504.968 609.937 502.828 608.67 503.747C598.534 519.912 591.292 543.054 607.415 558.021C622.374 571.918 647.749 566.045 655.688 547.822L655.7 547.833ZM438.428 510.062C436.894 508.969 432.663 516.597 432.268 518.132C429.094 530.494 432.872 544.821 438.754 555.799C443.857 565.3 450.703 568.347 440.428 578C424.887 592.594 398.245 612.213 392.119 633.041C389.969 640.344 392.689 643.74 383.111 644.577C379.775 644.868 373.754 643.507 371.51 646.228C369.011 649.264 372.498 653.287 372.068 656.683C371.638 660.079 367.616 661.823 367.558 665.137C368.418 665.975 382.588 664.498 385.075 664.451C404.591 664.033 424.236 664.533 443.729 664.847L456.224 648.822C457.247 638.844 463.257 639.925 470.138 636.239C479.1 631.448 474.497 630.308 477.345 623.563C478.17 621.598 482.017 618.853 483.587 615.888C486.911 609.619 494.815 584.117 495.315 577.255C495.745 571.487 491.154 561.94 487.457 557.451C482.482 551.404 474.427 547.229 468.545 541.914C463.501 537.344 459.7 531.773 455.004 526.971C449.552 521.4 442.531 516.655 438.417 510.097L438.428 510.062ZM499.383 523.982L487.132 510.073C486.051 515.051 491.851 519.691 494.362 524.04C495.059 525.238 496.082 526.54 496.07 527.959C492.897 526.122 486.737 518.342 483.668 517.516C479.17 516.318 473.172 520.412 468.266 519.342C474.857 531.413 484.54 538.39 494.92 546.717C495.559 547.229 496.594 547.682 497.407 547.845C497.616 548.95 495.687 548.624 495.129 548.473C483.866 545.496 469.045 526.936 459.99 519.342C459.246 518.714 458.909 517.737 457.666 518.028C464.338 529.389 473.718 538.507 484.877 545.473C487.597 547.171 493.676 550.95 496.431 551.811C496.768 551.915 497.512 551.997 497.407 551.497L494.769 549.834C494.594 548.973 495.024 549.113 495.757 549.159C498.674 549.38 502.638 552.485 506.02 552.497C505.242 554.799 499.709 552.915 499.407 553.16C502.638 559.439 505.904 566.684 506.683 573.697C502.87 570.476 502.464 564.51 498.081 561.765C500.453 567.719 503.475 573.208 502.65 579.942C501.871 586.303 493.874 610.515 490.91 616.562C489.212 620.039 484.993 623.714 483.993 626.214C483.261 628.052 483.621 629.959 483.052 631.901C481.471 637.262 471.126 643.391 465.616 643.949C465.419 644.891 466.36 644.658 467.046 644.821C469.696 645.449 472.149 645.391 474.869 646.286C477.868 647.275 481.982 650.892 484.493 651.24C486.155 651.473 485.353 648.694 485.772 647.217C486.167 645.821 486.818 644.565 487.469 643.286L484.226 643.216C483.238 641.193 484.005 640.332 485.632 639.123C489.712 636.099 496.768 635.564 496.082 628.691C497.698 628.482 497.128 628.691 497.477 629.61C500.023 636.39 494.792 639.774 490.119 643.263C502.115 641.635 498.895 633.739 500.139 625.121C501.999 612.166 507.206 588.303 511.472 576.151C515.401 564.94 524.177 558.416 512.646 547.182C521.352 548.996 523.189 557.253 522.584 565.068C523.596 564.417 524.56 561.544 524.863 560.405C525.56 557.846 526.397 555.834 525.583 553.113C524.281 548.764 514.692 542.24 511.298 538.251C504.73 530.552 502.545 522.412 498.07 513.702L499.383 523.982ZM590.13 584.291C585.306 582.419 581.982 578.558 578.994 574.546C567.929 559.684 565.034 545.542 568.58 527.261L572.578 512.05C562.152 527.633 558.188 543.717 565.302 561.742C568.87 570.79 578.402 582.093 588.107 584.663C588.758 584.838 590.293 585.512 590.13 584.291ZM502.033 639.286C504.788 642.426 505.276 626.714 505.428 625.784C507.776 610.724 512.193 596.153 516.598 581.64L512.321 588.943C505.753 604.898 501.906 621.923 502.033 639.286ZM384.785 637.96C386.54 621.423 397.28 611.12 407.3 599.176C408.416 597.839 410.206 595.885 410.624 594.222C410.066 593.629 399.907 604.514 399.035 605.479C394.397 610.608 389.202 616.376 386.47 622.726C384.564 627.168 384.134 632.599 380.832 636.309L384.796 637.96H384.785ZM379.345 636.483L382.797 624.703L377.485 632.971L372.208 638.297C372.998 639.239 379.077 636.75 379.333 636.483H379.345ZM332.129 665.126H346.705C347.217 665.126 348.611 666.265 349.681 665.777C346.728 662.777 340.986 663.672 337.092 662.463C336.267 661.544 345.659 647.496 347.693 646.228C343.416 644.263 340.823 649.95 338.545 652.985C335.988 656.381 333.408 660.055 331.397 663.754L332.129 665.126ZM484.144 660.486C484.877 659.811 481.134 656.392 480.518 655.834C475.566 651.275 470.254 649.043 463.408 649.333L449.692 668.44L478.832 669.103C474.601 665.568 467.034 665.172 461.618 665.126C461.153 663.498 462.768 663.405 463.989 663.207C468.336 662.498 473.172 662.765 477.531 662.16C478.67 661.521 477.472 660.614 476.88 660.137C474.927 658.579 470.01 658.067 473.265 655.229L484.144 660.486Z" fill="black"/>
<path d="M226.818 682.36C225.539 681.965 225.597 679.5 226.155 678.383C227.596 675.488 234.919 677.767 237.418 677.732C239.766 677.697 253.087 675.732 253.68 678.174C253.982 679.43 253.796 681.616 252.657 682.372H226.829L226.818 682.36Z" fill="black"/>
<path d="M179.916 665.265C180.997 664.951 186.018 664.893 186.774 665.416C191.423 674.487 175.499 672.243 178.439 666.451C178.707 665.916 179.334 665.44 179.916 665.265Z" fill="black"/>
<path d="M632.359 665.952C636.73 670.278 623.351 675.278 623.943 668.161C624.281 664.126 630.697 664.3 632.359 665.952Z" fill="black"/>
<path d="M584.632 677.151C587.085 676.546 590.746 680.442 587.468 682.023C582.191 684.593 581.435 677.93 584.632 677.151Z" fill="black"/>
<path d="M167.955 665.231C170.721 664.719 172.837 670.01 169.745 671.022C165.839 672.301 164.991 665.777 167.955 665.231Z" fill="black"/>
<path d="M342.404 223.773C363.118 205.329 378.856 179.431 380.821 151.207C381.146 146.497 380.321 141.648 381.158 136.973C388.574 156.277 382.111 180.827 370.778 197.48C363.676 207.923 354.144 218.645 342.416 223.773H342.404Z" fill="black"/>
<path d="M292.062 140.276C295.805 134.333 310.927 130.205 311.822 123.216C312.194 120.262 309.846 120.494 313.682 118.506C320.819 114.808 325.527 119.029 331.792 122.064L320.714 128.879C317.704 129.844 316.204 127.181 313.252 127.984C305.72 130.042 299.443 137.659 292.062 140.276Z" fill="black"/>
<path d="M365.594 184.676C372.208 167.197 375.741 148.137 370.545 129.682C369.29 125.193 366.756 121.402 365.257 117.075C376.415 125.646 377.799 142.73 376.09 155.766C374.788 165.697 371.417 176.501 365.582 184.676H365.594Z" fill="black"/>
<path d="M339.091 304.631C334.826 310.667 327.7 313.667 320.889 315.9C315.193 317.773 299.64 321.25 294.747 318.18C293.922 317.656 291.318 315.342 292.399 314.563C292.957 315.191 293.526 315.737 294.398 315.865C299.187 316.586 316.135 313.26 321.354 311.714C327.398 309.923 332.943 306.201 339.091 304.62V304.631Z" fill="black"/>
<path d="M321.877 154.196C329.374 161.232 340.614 162.953 348.391 155.219L356.969 142.276C356.725 151.242 351.017 160.185 342.381 163.127C333.745 166.069 325.445 162.36 321.877 154.196Z" fill="black"/>
<path d="M274.673 153.626C285.285 156.266 274.429 173.652 267.919 166.755C262.165 160.65 269.988 156.277 274.673 153.626Z" fill="black"/>
<path d="M298.687 150.87C301.791 146.067 310.137 146.52 310.613 139.613C319.25 143.799 326.654 135.635 331.792 129.67C331.141 134.17 326.549 139.834 322.737 142.148C320.191 143.695 317.006 144.369 314.333 145.671C309.404 148.079 304.511 152.649 298.676 150.87H298.687Z" fill="black"/>
<path d="M277.486 311.923C277.637 313.167 276.172 312.377 275.486 312.272C262.642 310.283 252.262 300.48 243.056 292.037L277.497 311.923H277.486Z" fill="black"/>
<path d="M231.781 284.746C229.537 287.711 226.806 290.246 223.609 292.142C221.203 293.572 213.776 297.061 211.265 297.724C208.626 298.422 208.58 293.782 208.603 292.025C217.042 293.863 223.598 285.188 231.781 284.746Z" fill="black"/>
<path d="M285.436 160.813C284.437 159.848 288.145 157.661 288.795 157.219C291.574 155.37 294.875 153.986 298.013 152.858C299.873 154.835 286.994 160.662 285.436 160.813Z" fill="black"/>
<path d="M347.705 115.761C349.902 116.866 349.355 119.517 347.67 120.704C346.519 121.506 335.116 125.251 335.128 122.727C338.394 120.076 349.948 121.599 347.705 115.773V115.761Z" fill="black"/>
<path d="M454.353 435.17C462.257 416.167 466.837 399.375 460.49 378.989C458.781 373.523 455.957 368.802 453.69 363.603C462.838 370.802 467.615 383.606 468.278 395.06C469.034 408.178 462.094 424.75 454.353 435.181V435.17Z" fill="black"/>
<path d="M399.698 307.946L410.089 328.692C410.984 329.274 410.008 330.472 409.636 330.448C409.218 330.425 404.359 325.262 403.731 324.436C401.151 321.04 395.595 311.388 399.698 307.934V307.946Z" fill="black"/>
<path d="M231.118 221.785C224.458 222.762 218.39 226.216 211.567 226.425C208.068 226.541 204.849 225.367 201.315 225.762L202.931 221.936C205.883 223.087 209.08 223.378 212.23 223.111C218.053 222.61 226.597 217.005 231.107 221.785H231.118Z" fill="black"/>
<path d="M170.837 254.265C169.466 259.371 165.863 262.185 162.91 265.883C161.167 268.069 159.411 271.128 157.47 273.023C156.889 273.593 156.924 274.477 155.61 274.14V262.22C156.773 262.801 157.307 264.069 158.702 263.057L170.837 254.277V254.265Z" fill="black"/>
</g>
<defs>
<clipPath id="clip0_8061_315">
<rect width="522" height="615" fill="white" transform="translate(139 68)"/>
</clipPath>
</defs>
</svg>
