<svg width="800" height="800" viewBox="0 0 800 800" fill="none" xmlns="http://www.w3.org/2000/svg">
<g clip-path="url(#clip0_8061_339)">
<path d="M112 461.867C114.485 460.384 112.576 456.896 112.629 454.677C112.683 452.341 113.963 446.24 114.624 443.808C118.229 430.528 130.623 417.472 144.041 414.112C136.873 392.085 139.742 365.952 148.265 344.672C164.082 305.184 209.275 278.645 251.48 282.507C263.33 283.595 274.764 286.784 286.124 290.069C286.998 289.077 283.265 281.525 282.551 279.968C274.306 261.792 263.906 244.864 248.867 231.541C230.777 215.509 201.083 203.883 180.839 222.805C190.897 233.387 196.795 246.091 193.862 260.981C193.435 263.136 191.75 266.432 191.772 268.245C191.793 270.357 194.118 273.6 194.129 276.384C194.129 278.624 192.55 282.688 190.598 283.915C188.006 285.536 183.559 284.981 182.599 285.525C182.385 285.643 180.807 288.555 179.879 289.504C169.746 299.893 146.857 303.221 134.772 294.987C122.367 286.528 115.253 270.901 116.693 256.011C117.002 252.853 119.466 248.469 119.584 246.656C119.829 242.859 116.853 241.781 118.986 235.595C121.45 228.448 124.341 231.531 128.874 229.173C130.303 228.437 133.567 224.224 135.711 222.613C144.03 216.395 155.39 213.077 165.554 216.096C171.378 200.544 188.348 189.227 203.579 183.925C254.595 166.187 303.701 195.211 337.982 230.944C341.875 235.008 345.822 240.416 349.725 244.245C350.237 244.747 350.216 245.525 351.357 245.227C354.099 214.283 357.789 181.184 374.183 154.208C385.073 136.288 407.536 129.035 427.673 133.099C452.024 138.005 455.682 174.315 452.141 194.197C454.264 195.733 456.397 195.968 458.69 197.589C467.522 203.797 469.911 215.296 466.092 225.173C465.015 227.968 458.434 236.117 455.757 236.96C452.493 237.984 447.384 237.483 443.939 237.664C443.736 241.227 444.163 244.8 445.4 248.149C448.696 244.043 452.376 240.011 456.749 237.088C458.722 239.712 445.037 253.088 445.667 257.205C447.779 269.685 448.077 282.453 449.848 294.965C450.232 297.707 450.435 301.12 451.81 303.477C456.109 289.92 462.338 276.928 469.473 264.651C487.638 233.387 519.241 199.925 556.221 193.003C566.695 191.04 576.603 190.901 587.195 191.669C587.334 192.683 585.872 192.213 585.168 192.245C577.937 192.544 570.972 191.989 563.687 192.896C515.53 198.912 476.086 247.435 459.394 290.091C455.405 300.288 450.893 312.715 455.885 323.264L455.597 319.189C455.917 318.88 462.573 321.792 461.41 319.488C460.567 318.635 454.072 314.837 455.597 313.365C459.234 312.768 461.399 316 464.642 316.853C465.602 317.216 465.89 315.872 465.826 315.392C465.474 312.629 459.607 310.912 457.954 309.547C457.133 308.875 457.271 308.533 457.335 307.552C462.423 307.253 466.402 311.936 471.308 312.203C471.991 311.605 468.087 308.032 467.511 307.563C465.079 305.547 461.229 304.352 459.437 302.933C458.765 302.4 459.127 301.835 459.074 301.152C464.642 301.504 468.716 304.907 473.036 307.861C473.825 308.405 474.156 309.003 475.382 308.715C477.868 306.219 464.738 298.763 463.351 297.749C462.626 297.227 461.73 297.141 461.997 295.904C465.42 295.008 478.657 306.592 480.044 305.216L479.084 302.987L464.332 293.003C470.615 291.84 480.054 301.131 484.555 301.611C485.579 301.717 485.793 301.76 486.443 300.853C484.321 299.317 482.39 297.493 480.225 296.011C475.681 292.896 470.391 291.019 466.071 287.755C472.46 288.192 478.796 291.627 484.065 295.083C485.974 296.331 487.67 298.805 489.942 298.816C491.691 297.483 486.774 293.952 485.569 293.003C481.014 289.44 475.382 287.008 470.924 283.776C470.199 283.253 469.303 283.168 469.569 281.931C470.124 281.408 482.049 287.275 483.478 288.107C485.206 289.12 494.187 296.821 495.189 295.904C495.445 294.805 494.571 294.528 494.027 293.867C489.59 288.469 480.31 282.336 474.209 278.72C473.463 278.272 472.737 278.827 473.068 277.269L482.955 280.768L481.803 281.92C485.323 282.357 497.792 294.048 500.128 293.579C501.866 293.227 499.957 291.627 499.573 291.232C496.363 288.021 491.734 285.163 488.192 282.229C485.366 279.883 482.817 277.173 480.044 274.944C489.078 279.072 498.709 284.043 504.789 292.395C506.207 292.395 510.581 279.072 511.487 276.971C524.873 246.123 544.211 218.88 578.459 210.005C597.221 205.141 614.297 207.232 626.787 223.104C626.563 221.408 625.358 219.595 624.366 218.251C623.513 217.099 620.153 213.035 619.246 212.256C618.201 211.36 617.401 212.075 616.516 211.605C615.727 211.179 610.938 208.288 610.767 208C610.49 207.531 611.962 203.264 609.615 202.144L609.903 207.968L606.49 206.72L606.714 199.221C611.396 201.045 614.511 202.944 613.412 208.544C614.809 207.904 614.191 201.771 616.633 205.024C618.745 207.84 615.961 208.224 616.313 209.995L617.487 210.603L619.524 207.989L629.123 221.365C627.513 207.691 613.22 197.003 601.391 191.755C560.018 173.376 518.751 189.717 484.769 214.144C479.393 218.005 474.849 223.264 468.418 225.451C469.495 218.069 477.942 212.629 483.617 208.331C509.983 188.363 537.992 176.864 571.772 178.869C595.418 180.277 623.929 192.725 633.198 215.893C648.674 212.405 660.706 217.803 672.268 227.456C672.918 228 673.259 229.248 673.515 229.397C675.926 230.816 680.939 227.381 683.584 234.187C685.931 240.224 682.486 242.24 682.731 246.08C682.816 247.339 684.907 251.147 685.365 253.365C689.621 273.632 674.838 297.973 653.335 299.435C644.578 300.032 628.526 296.885 622.414 290.123C621.369 288.971 620.324 285.952 619.406 285.387C618.489 284.821 615.876 285.675 613.988 285.163C608.228 283.605 606.842 278.453 608.484 273.205C608.922 271.819 610.426 270.197 610.458 268.843C610.5 266.976 607.45 261.067 607.098 257.696C605.765 244.96 610.202 231.819 619.246 222.827C597.797 203.285 564.306 216.459 545.875 233.888C530.291 248.619 520.532 268.107 513.268 288.053C513.354 289.152 517.94 286.645 518.644 286.443C553.117 276.107 590.533 282.229 619.204 303.84C645.24 323.467 662.22 362.656 658.199 395.147C657.42 401.44 655.202 407.509 654.253 413.771C654.498 414.485 659.543 416.416 660.78 417.173C673.793 425.045 683.755 439.68 684.469 455.211C684.565 457.195 683.744 460.992 684 462.037C684.288 463.232 686.603 465.568 687.264 467.563C689.44 474.144 687.083 478.027 681.75 481.579C680.886 482.155 677.814 483.307 677.633 483.573C677.291 484.064 676.566 488.181 675.862 489.664C670.604 500.8 654.978 511.264 642.787 512.491C620.356 514.752 595.344 494.389 593.147 472.011C592.901 469.504 593.563 465.504 592.955 463.467C592.539 462.08 588.816 458.869 588.102 456.085C586.939 451.563 588.07 447.381 591.877 444.683C593.221 443.733 596.73 442.816 597.008 442.539C597.221 442.325 597.893 439.392 598.394 438.389C605.946 423.179 620.43 413.195 637.315 411.2C635.448 394.336 628.121 375.456 616.964 362.581C588.891 330.208 554.29 320.021 522.9 355.307C509.087 370.837 500 392.331 497.579 412.971C511.231 409.28 525.46 407.275 538.547 401.824C541.032 400.469 548.136 397.248 548.178 394.059C548.2 392.352 546.12 389.088 545.917 386.464C544.083 362.763 578.449 361.312 581.286 381.963C583.344 397.003 570.876 405.173 557.053 401.973C553.959 409.013 547.933 415.979 542.728 421.717C535.998 429.131 528.318 435.701 520.895 442.379C522.207 443.893 524.468 443.083 526.345 443.328C551.08 446.603 571.153 457.472 583.078 479.765C592.731 497.803 584.283 516.021 565.137 521.579L565.244 523.221C570.694 529.099 574.993 535.957 580.294 541.952C590.672 553.696 603.887 563.04 619.012 567.691C627.747 557.173 644.045 557.504 651.042 569.611C655.756 577.749 655.543 587.371 648.994 594.389C636.952 607.317 616.836 599.691 614.66 582.688C593.115 581.131 573.254 576.053 554.461 565.44C542.056 558.432 530.249 548.352 518.132 541.781C517.364 541.365 513.78 539.541 513.29 539.925C520.351 554.112 523.7 569.227 519.519 584.885C515.039 601.675 497.195 600.341 482.753 604.021C476.993 605.483 474.348 607.68 467.575 606.901C459.181 605.931 445.816 590.816 440.952 584.021L430.606 567.883L409.818 629.92C423.684 639.285 421.583 661.568 405.296 666.912C385.755 673.323 371.442 650.763 383.772 634.901C384.977 633.355 389.169 630.421 389.233 629.344L368.284 570.208C367.218 569.973 367.143 570.528 366.642 571.179C364.178 574.336 362.087 579.339 359.688 582.859C353.971 591.264 342.323 606.037 331.742 607.328C325.833 608.043 321.514 604.896 316.127 603.445C309.493 601.664 293.579 600.203 289.067 596.149C275.522 583.989 280.087 552.949 287.35 538.176C265.698 546.859 248.739 564.299 227.183 573.216C215.92 577.877 197.809 582.379 185.66 582.976C184.849 583.019 184.391 582.656 183.708 582.432C182.727 597.92 164.349 606.208 151.976 596.395C137.161 584.629 145.641 558.816 165.352 560.309C171.634 560.789 175.442 563.968 180.039 567.776C203.046 560.971 219.877 541.995 232.025 522.187C218.629 515.445 208.923 503.125 212.378 487.36C213.968 480.107 224.591 464.768 230.276 459.84C242.681 449.067 259.885 442.987 276.29 442.667C273.42 439.264 269.154 437.557 265.623 434.997C253.624 426.304 244.035 416.171 238.457 402.155C235.236 402.304 232.388 402.837 229.092 402.229C212.112 399.104 212.656 369.963 230.735 367.712C248.814 365.461 256.227 381.323 247.747 395.488C254.84 399.221 261.016 402.773 268.845 404.971C279.799 408.043 291.947 409.536 303.061 412.384C295.958 369.675 255.917 311.701 206.8 340.875C182.225 355.477 163.528 382.976 161.555 411.808C175.527 411.989 189.201 420.747 196.966 432.011C198.801 434.667 201.211 441.163 202.63 442.656C203.931 444.021 206.459 443.712 208.091 445.344C211.504 448.747 211.109 455.904 208.624 459.765C207.813 461.024 205.659 462.421 205.339 463.477C204.838 465.173 205.403 467.723 205.147 469.685C199.622 511.424 144.958 529.301 121.823 492.021C120.48 489.856 118.645 483.947 117.717 483.019C116.682 481.984 113.248 481.653 112.053 479.947V461.899L112 461.867ZM421.497 137.493C418.447 137.184 414.991 137.717 411.887 137.493C423.289 146.336 432.462 159.648 437.795 173.024C439.832 178.144 441.006 183.616 443.054 188.736C445.571 175.072 443.395 160.352 435.779 148.832C435.673 147.104 436.441 148.384 436.846 148.928C444.387 158.976 446.307 172.011 445.656 184.363C445.549 186.432 442.84 194.539 446.531 193.984C447.416 193.856 448.088 177.952 447.981 176.224C447.011 159.627 440.728 139.445 421.487 137.493H421.497ZM378.705 159.04C383.985 153.536 393.147 152.107 400.368 153.973C411.055 156.736 426.361 174.421 432.516 183.552C434.755 186.88 443.16 204.523 441.582 188.459C440.91 181.6 434.638 168.992 431.204 162.731C425.913 153.067 419.119 142.645 408.72 138.155C402.97 138.656 397.872 140.309 392.944 143.307C388.763 145.856 382.246 152.075 379.59 156.16C379.004 157.067 378.535 157.92 378.694 159.04H378.705ZM412.858 169.152C416.122 172.16 420.463 177.6 423.204 181.227C424.975 183.573 433.785 198.421 435.47 198.059C437.529 196.331 434.233 192.427 433.102 190.539C425.465 177.856 407.973 152.981 391.024 155.936C365.223 160.416 362.183 211.253 358.333 231.552C356.2 264.427 354.088 297.28 349.64 329.92C349.789 333.536 353.48 334.571 355.133 337.237L356.594 322.976C361.053 279.307 361.351 231.616 370.738 189.205C376.135 164.832 389.339 147.467 412.869 169.152H412.858ZM390.353 161.963C389.873 161.536 387.707 163.285 387.163 163.723C378.151 170.923 374.439 183.093 371.975 193.963C362.962 233.856 363.069 277.472 360.061 318.315C359.517 325.696 358.557 332.917 357.16 340.16C358.674 340.533 358.536 339.147 358.898 338.144C361.661 330.464 362.781 317.376 363.549 309.003C366.908 272.565 365.725 235.744 373.041 199.701C375.911 185.547 379.889 172.437 390.342 161.973L390.353 161.963ZM425.871 228.928L402.235 234.709L400.901 233.771L404.357 171.563C404.389 170.165 404.112 169.845 403.674 171.467C403.173 173.323 402.811 176.021 402.597 177.973C398.096 218.997 400.613 260.341 400.869 301.397C401.179 351.189 400.581 401.013 400.848 450.805C402.245 450.901 403.632 450.997 403.76 449.344C403.834 437.813 405.509 426.517 407.258 415.275C406.085 415.147 404.528 415.957 404.922 414.112C408.442 413.792 408.026 411.104 408.986 408.565C407.578 407.861 405.285 410.091 404.922 407.424C409.061 405.696 410.543 405.056 410.735 400.139C409.05 401.216 406.885 401.824 404.922 401.013C406.192 399.083 409.285 398.795 410.714 397.483C411.439 396.821 413.69 392.715 411.674 393.195C409.957 393.611 408.026 395.147 406.085 394.027C410.181 391.755 413.871 390.944 415.386 385.856C415.94 383.989 411.023 386.677 410.031 386.912C409.039 387.147 405.605 388.341 406.074 386.165C411.983 383.755 418.927 381.163 419.183 373.931C415.908 375.627 411.567 377.696 407.994 378.475C406.757 378.741 406.469 378.837 406.661 377.429C412.57 374.443 420.452 372.491 424.121 366.645C421.7 366.603 418.799 367.605 416.431 368.267C413.701 369.035 410.106 370.677 407.674 371.2C406.736 371.403 406.469 371.691 406.074 370.443C410.266 368.053 427.342 363.093 428.206 358.507C428.366 357.653 428.238 357.472 427.385 357.675C420.847 359.243 414.554 361.717 408.048 363.392L406.65 362.283C413.573 359.445 422.703 357.12 429.166 353.643C431.865 352.192 433.102 350.645 434.595 348.011L425.284 351.52L406.65 355.595C414.98 352.096 424.143 350.272 431.833 345.408C432.366 345.067 432.558 344.181 433.209 343.744C435.257 342.368 440.216 341.781 437.219 338.421C428.558 344.608 418.02 346.699 407.813 348.885C407.973 347.904 408.943 347.84 409.69 347.563C413.53 346.112 417.54 345.568 421.604 343.755C426.585 341.525 431.63 337.973 436.355 335.221L436.857 332.384L435.491 331.435C430.286 335.637 422.873 337.536 416.559 339.573L420.058 337.536L416.559 337.248C420.196 334.891 432.942 330.944 435.182 328.213C436.025 327.179 435.801 326.208 435.769 325.024C433.166 326.251 430.628 327.509 427.918 328.523C423.087 330.325 414.351 333.632 409.594 334.656C408.41 334.912 407.269 335.019 406.074 334.912L435.694 320.576L435.129 318.656C433.699 317.611 429.102 321.152 427.609 321.803C420.729 324.757 412.943 327.029 405.488 327.925C403.984 326.656 410.874 324.896 411.301 324.715C419.055 321.323 426.681 317.429 434.585 314.507C434.841 312.469 434.595 312.576 432.697 312.917C426.756 314.005 418.522 318.464 411.877 320.053C409.509 320.619 407.418 321.269 404.901 320.928C404.709 319.765 405.616 319.211 406.49 318.731C412.975 315.179 422.425 313.227 429.166 309.963C430.692 309.227 432.324 308.619 433.433 307.232C433.027 304.501 430.532 307.371 428.942 307.989C421.369 310.901 412.805 313.216 404.912 315.104C404.784 314.261 404.933 313.707 405.445 313.024C406.522 311.573 419.866 307.147 422.767 305.888C424.388 305.184 432.377 301.771 432.846 300.832C433.443 299.637 432.153 300.107 431.63 300.192C427.822 300.821 424.879 303.232 421.369 304.491C419.162 305.291 405.296 309.685 404.325 308.693C404.101 303.819 412.634 302.965 416.548 301.408C421.839 299.296 427.321 297.141 432.281 294.421L404.634 303.467C404.282 303.467 403.141 299.605 404.325 299.083C411.418 296.32 418.746 293.824 425.689 290.752C426.319 290.475 432.185 288.139 431.108 287.157L404.016 296.949C402.938 296.768 402.715 292.96 403.525 292.331L430.532 281.611C430.756 280.128 429.87 281.067 429.092 281.333C422.916 283.445 416.634 286.656 410.181 288.043C408.656 288.373 403.269 289.771 402.672 287.947L402.651 283.712C411.461 281.739 420.282 279.563 428.676 276.235C429.561 275.883 430.254 276.576 429.945 274.923C426.692 276.416 403.301 283.2 402 281.909L401.413 255.701L414.82 253.088L401.424 255.125L400.901 236.245L401.829 235.445C408.901 234.037 416.1 232.597 422.959 230.379C423.769 230.112 425.743 229.877 425.871 228.928ZM347.251 302.88C347.635 293.493 349.085 284.021 349.608 274.667C349.779 271.573 349.459 268.405 349.555 265.301C349.661 261.867 351.027 258.048 349.843 254.581C349.235 252.8 342.27 244.331 340.563 242.315C306.144 201.835 246.574 166.645 193.51 193.685C186.897 197.056 175.58 205.44 172.445 212.224C171.687 213.856 169.703 219.264 171.965 220.192C172.242 216.757 175.111 212.053 177.767 209.963C178.748 209.195 180.039 209.205 180.124 209.109C180.423 208.779 179.634 207.552 179.719 207.051C179.783 206.613 181.436 205.963 181.596 205.035L183.047 205.44L183.911 209.12C185.927 206.667 183.228 202.283 187.697 201.557C188.369 202.304 185.532 207.264 188.284 206.795C188.902 203.936 188.22 200.299 191.59 200.021C192.209 199.968 193.115 200.512 193.425 200.32C193.659 200.181 197.478 194.667 196.795 198.699C196.507 200.363 195.803 202.528 195.281 204.181L196.422 204.459L197.606 199.797L198.758 200.384C198.854 198.635 199.334 196.811 200.806 195.733C202.15 195.52 201.606 196.181 201.531 197.035C201.36 198.955 199.824 203.349 201.67 204.459C201.03 202.731 203.931 193.301 206.331 195.147C204.912 198.261 204.315 201.632 204.582 205.045C193.062 205.163 176.028 210.219 172.551 222.507C173.309 223.232 178.364 217.451 179.26 216.704C206.501 194.261 243.683 215.861 263.106 238.229C277.324 254.603 282.369 267.168 291.425 286.197C292.769 289.013 293.953 292.427 297.163 293.557C297.355 292.363 296.534 291.285 296.886 290.091C298.027 286.155 315.946 275.168 321.044 275.509C318.357 278.944 296.95 289.749 297.75 293.835C298.422 297.259 304.224 290.155 305.045 289.493C309.802 285.685 317.439 282.123 323.37 280.747C323.722 282.336 322.89 281.739 322.218 282.187C319.039 284.288 315.594 285.984 312.48 288.192C310.933 289.28 302.347 295.296 303.584 297.056C306.901 298.144 309.824 293.28 312.352 291.563C315.893 289.152 322.026 286.379 326.292 286.581L312.373 295.072C310.304 295.584 308.149 301.28 311.168 299.691C312.554 298.965 314.837 296.256 316.575 295.2C318.069 294.293 328.479 289.429 329.204 290.08L328.009 292.085L312.917 300.853C313.365 301.355 313.994 301.899 314.634 302.069C316.767 302.635 327.316 295.424 330.367 294.731C330.633 295.872 329.78 296.117 329.151 296.715C326.399 299.339 322.324 301.099 319.466 303.339C318.762 303.883 317.887 304.021 318.143 305.216C323.508 306.197 327.999 301.141 333.278 301.152L323.658 307.541C322.911 308.427 323.914 309.291 324.81 309.301C326.292 309.323 330.548 305.525 332.318 304.555C333.652 303.819 339.209 300.736 338.174 304.085C335.678 304.981 328.639 308.736 328.265 311.349L328.756 312.661L330.068 313.163L340.542 307.563L341.449 309.035C341.449 310.944 330.815 313.355 333.289 316.875C334.708 318.891 339.006 314.219 339.55 314.027C340.873 313.547 343.422 313.579 344.915 313.397C347.304 311.072 335.764 286.827 333.78 282.912C317.375 250.528 291.819 216.992 258.371 201.088C243.139 193.845 226.788 190.432 209.829 192.267L214.202 191.115C263.874 187.936 302.581 226.453 326.761 265.472L347.251 302.923V302.88ZM418.884 197.483L414.085 198.784L407.824 201.547L413.946 199.819L418.884 197.483ZM443.182 198.197C427.449 200.864 425.625 220.512 437.326 229.408C453.24 241.515 470.337 220.843 461.069 206.827C457.517 201.461 449.763 197.077 443.192 198.197H443.182ZM399.664 209.707C399.451 208.544 398.405 208.779 397.637 208.533C390.79 206.325 383.612 204.981 376.945 202.144C379.74 204.512 384.657 205.696 388.294 206.805C391.931 207.915 395.814 209.141 399.664 209.696V209.707ZM422.372 203.307L416.1 204.885L411.898 206.784L414.693 206.379L422.372 203.296V203.307ZM398.501 214.368C391.824 214.357 385.841 210.56 379.292 209.717L393.958 214.56C395.131 214.379 399.024 216.747 398.512 214.379L398.501 214.368ZM423.535 210.293L416.303 211.499L407.824 214.357L410.757 214.101L423.535 210.293ZM398.501 221.365L374.631 214.379C374.791 215.36 375.761 215.424 376.508 215.701C379.996 217.035 384.881 218.229 388.614 219.317C391.195 220.075 394.192 221.109 396.741 221.675C397.339 221.803 398.64 222.453 398.512 221.365H398.501ZM422.959 216.704L418.639 217.323L407.824 220.768L412.143 220.149L422.959 216.704ZM153.8 219.765C145.47 220.704 135.327 226.496 131.338 233.984C129.599 237.248 130.218 238.187 131.69 241.547C138.783 257.792 164.253 270.347 181.052 272.544C185.649 273.141 185.756 272.299 187.398 268.501C193.553 254.283 188.934 237.696 178.087 227.179C175.836 232.917 168.754 231.147 165.874 227.157C164.402 225.12 165.597 221.696 163.794 220.501C161.992 219.307 156.126 219.499 153.79 219.765H153.8ZM666.358 248.139C668.844 242.677 674.571 238.293 669.846 232.149C662.295 222.336 646.253 217.152 634.318 220.459C633.326 221.152 633.912 224.139 633.624 225.589C632.654 230.443 623.705 233.387 621.817 227.179C611.578 237.792 608.772 253.771 614.095 267.509C616.9 274.773 617.807 273.643 625.038 272.331C640.621 269.493 656.908 260.533 665.495 246.976L666.358 248.139ZM399.088 228.341C398.448 227.019 396.315 226.677 395.014 226.304C387.953 224.235 380.604 222.603 373.468 220.779C373.329 221.589 374.449 221.568 375.057 221.792C382.79 224.619 391.142 226.176 399.088 228.331V228.341ZM421.209 223.691C415.439 225.355 409.402 226.325 403.621 227.936C403.024 228.107 401.861 228.075 402 228.917C407.29 227.872 412.677 226.795 417.85 225.269C418.767 224.992 420.943 224.704 421.209 223.691ZM397.915 234.741C397.733 233.675 396.72 233.76 395.952 233.504C388.166 230.869 379.846 229.483 372.295 226.016C372.071 227.296 372.86 227.381 373.756 227.744C381.318 230.795 390.043 232.555 397.904 234.741H397.915ZM441.582 337.824C443.694 330.005 440.803 322.421 439.918 314.752C437.251 291.669 434.617 268.715 432.857 245.525C432.537 241.323 432.921 237.163 432.121 232.864C432.025 232.331 431.876 231.115 431.108 231.275C430.329 233.632 430.425 236.128 430.5 238.571C431.342 267.029 435.609 295.477 439.192 323.627C439.672 327.413 439.096 330.912 440.11 334.944C440.291 335.659 440.718 337.739 441.582 337.835V337.824ZM398.501 241.728L371.719 232.416C371.548 233.803 372.977 234.592 374.044 235.04C378.385 236.875 387.121 239.115 391.974 240.405C394.118 240.971 396.315 241.451 398.501 241.728ZM671.03 255.136C674.582 250.72 682.048 241.408 679.328 235.477C678.71 234.133 677.099 233.461 675.681 233.589C676.555 246.421 663.329 257.568 653.73 264.341C644.13 271.115 628.195 277.835 616.612 276.629C615.012 276.459 612.399 274.325 612.164 276.971C611.695 282.304 620.196 280.597 623.47 280.096C638.765 277.717 658.786 267.413 669.292 256.032C669.836 255.435 670.39 254.827 670.433 253.973L671.009 255.136H671.03ZM188.294 273.771C187.761 276.864 182.972 276.235 180.434 276.085C164.594 275.147 143.102 263.435 132.98 251.328C128.991 246.549 125.258 240.661 125.973 234.165C119.168 237.024 124.138 244.949 126.901 249.259C137.268 265.461 160.872 275.093 178.962 279.019C178.962 280.075 176.455 279.637 175.772 279.584C171.943 279.275 167.762 277.931 163.954 277.419C163.325 277.333 161.949 276.779 162.077 277.835C166.589 278.987 171.207 280.096 175.836 280.672C181.969 281.429 191.036 283.467 189.436 274.059L188.284 273.771H188.294ZM446.253 334.336C447.309 333.76 448.227 331.595 448.536 330.507C450.381 323.968 445.144 304.085 444.003 296.107C442.616 286.443 441.475 276.203 440.43 266.485C439.459 257.44 439.672 246.677 438.062 237.984C437.678 235.925 436.483 234.901 434.606 234.165C436.835 267.701 440.131 301.28 446.253 334.325V334.336ZM415.972 238.827C412.175 239.616 407.685 240.075 404.005 241.12C403.216 241.344 402.203 241.184 402 242.304L409.594 240.875L415.972 238.827ZM397.915 248.715C395.366 246.421 390.459 245.92 386.982 244.8C382.854 243.467 378.545 241.557 374.481 240.416C373.959 240.267 370.492 238.933 370.556 240.277C370.631 241.707 394.928 247.723 397.915 248.715ZM398.501 253.973L369.97 245.813C368.935 246.837 373.169 248.629 373.649 248.832C381.212 252.053 390.427 252.981 398.224 255.712L398.512 253.973H398.501ZM679.755 250.475C678.411 250.144 678.795 250.741 678.432 251.211C674.859 255.755 674.155 259.531 668.972 263.851C664.46 267.616 661.345 268.011 655.895 269.696C656.226 270.795 658.135 269.717 659.394 269.92C666.455 271.04 661.836 276.128 662.561 277.824C662.924 278.656 667.414 283.435 668.396 284.267C669.377 285.099 670.337 285.867 671.436 286.507C673.921 286.88 679.307 274.891 680.032 272.587C682.411 265.12 681.931 257.909 679.755 250.485V250.475ZM145.193 268.533C139.102 268.853 133.673 264.704 129.759 260.384C127.647 258.048 126.186 254.741 124.223 252.533C123.583 251.819 123.029 250.88 121.909 251.061C119.434 260.021 120.661 269.248 124.917 277.451C125.983 279.488 130.271 286.251 132.543 285.931C133.631 285.771 139.849 279.733 140.148 278.859C141.001 276.384 137.513 273.12 139.529 271.008C140.766 269.717 144.18 270.08 145.193 268.533ZM397.925 260.96C393.467 260.224 388.315 259.083 383.953 257.749C380.188 256.608 376.508 254.699 372.881 253.675C370.578 253.024 367.783 252.491 370.78 255.232L397.637 262.699L397.925 260.96ZM420.623 258.048C415.375 259.509 409.178 260.107 404.058 261.568C403.066 261.856 402.384 262.027 402.576 263.285C407.248 261.397 412.303 260.885 417.124 259.499C418.052 259.232 420.292 258.923 420.623 258.048ZM397.915 267.947L368.807 259.787C368.722 260.715 368.658 261.141 369.383 261.824C370.162 262.56 379.036 264.917 380.902 265.44C384.913 266.56 393.254 269.088 397.029 269.12C398.181 269.12 397.968 269.045 397.904 267.947H397.915ZM427.609 262.709L402.576 269.099C406.16 269.419 409.573 268.245 413.061 267.659L427.609 262.709ZM397.915 450.795V275.797L396.944 274.443L368.22 265.611L368.274 268.469L397.36 275.872L397.317 279.595C387.142 278.667 377.511 275.467 368.21 271.445L368.562 275.584L395.771 282.603C397.264 282.965 397.115 286.795 395.899 287.008C385.947 285.707 377.159 280.192 367.634 277.845L367.708 282.421C375.036 285.547 383.046 287.147 390.321 290.379C390.971 290.667 396.827 292.843 395.579 294.144L367.058 284.245L367.132 289.408L390.929 297.632C382.737 296.491 373.692 294.656 366.759 290.069L366.567 296.373L393.84 304.608L379.281 302.581L366.45 297.877C362.973 311.189 363.858 325.173 361.767 338.709L367.42 342.976L392.678 352.939C391.675 353.056 390.726 352.907 389.745 352.683C384.689 351.52 377.02 348.949 372.146 346.987C368.284 345.44 364.434 343.797 361.522 340.715C361.053 342.133 360.967 344.576 361.533 345.941C363.293 350.155 387.387 357.632 392.091 360.811C388.241 361.28 384.54 358.955 380.87 358.048L364.722 350.901C369.49 362.197 383.004 362.976 392.08 368.96C391.707 369.717 390.481 368.981 389.883 368.832C383.9 367.296 376.252 364.224 371.41 360.523C370.972 360.427 371.015 361.12 371.132 361.387C371.538 362.347 375.153 368.405 375.804 368.949C377.276 370.144 385.649 373.888 388.198 375.189C389.574 375.893 391.206 376.331 392.667 376.843C392.71 377.952 390.161 377.429 389.606 377.28C387.302 376.683 383.836 374.443 381.18 373.483C380.006 373.056 378.151 372.064 376.967 372.459C378.844 379.84 387.291 381.312 393.264 384.405C393.371 385.493 391.376 384.96 390.79 384.843C387.75 384.203 384.081 382.389 381.329 380.907C381.254 388.523 389.681 388.405 393.851 392.843C390.8 392.843 387.814 390.891 384.966 390.08C384.166 389.856 383.846 389.024 383.964 390.507C386.374 395.829 389.894 397.355 394.438 400.416C392.251 400.821 389.531 400.203 387.739 398.965C387.099 404.661 390.438 405.792 394.438 408.576C395.334 410.741 389.937 408.075 389.787 408.277C388.177 413.483 394.086 415.307 393.574 419.339L392.123 417.6C392.006 420.203 392.038 422.677 393.051 425.109C393.307 425.739 396.944 430.187 393.872 428.661C393.819 431.232 393.958 434.272 396.198 435.947L394.982 437.067L396.166 450.539L397.947 450.795H397.915ZM418.884 272.021L403.717 275.221L402.587 276.672L411.898 274.635L418.884 272.021ZM177.799 284.256C173.33 283.52 168.584 284.181 164.306 282.901C162.376 282.325 155.155 278.379 153.96 276.949C152.872 275.637 152.979 273.301 151.016 272.619C151.304 274.827 152.179 276.8 150.91 278.923L144.67 279.669C145.406 284 136.351 288.021 136.713 290.731C143.06 296.811 154.462 296.459 162.675 294.464C167.858 293.205 175.634 289.333 177.799 284.256ZM623.865 284.256C626.158 289.013 632.014 291.616 636.803 293.152C646.456 296.256 659.628 297.12 667.521 289.781C666.38 288.16 664.471 287.317 663.159 286.016C661.932 284.8 658.444 280.267 657.634 279.893C655.148 278.784 650.871 281.248 651.255 275.829C651.341 274.549 652.535 273.877 652.397 272.597C650.306 273.525 649.901 276.8 648.301 278.101C647.96 278.379 641.261 281.675 640.515 281.963C635.278 283.979 629.198 283.168 623.876 284.256H623.865ZM645.976 418.763C654.231 403.328 654.178 384.309 651.042 367.413C639.885 307.371 581.254 276.459 523.572 290.816C469.26 304.341 426.724 351.936 414.511 405.952C411.173 420.715 409.285 436.245 408.986 451.381L425.231 450.155C427.673 423.552 430.873 396.501 444.622 373.163C453.208 358.581 465.954 342.048 478.593 330.848C547.165 270.027 654.412 298.976 648.93 399.861C648.599 406.027 647.618 411.211 645.688 417.003C645.496 417.568 644.898 418.88 645.986 418.763H645.976ZM390.353 450.805C388.518 402.059 369.586 355.232 333.289 322.389C306.603 298.24 257.219 281.621 221.69 290.005C196.379 295.968 170.002 314.741 157.693 337.824C148.19 355.648 141.822 386.261 147.358 405.845C148.713 410.635 151.464 417.568 154.803 421.109C155.528 420.277 153.928 419.029 153.47 417.792C146.889 400.352 150.473 373.525 156.104 356.032C166.098 325.024 198.715 301.216 231.065 299.381C279.649 296.629 318.858 322.4 344.83 361.536C362.397 388.011 368.85 419.029 372.956 450.165L375.217 450.24C372.615 430.229 369.607 410.048 362.418 391.115C362.354 389.195 363.506 391.189 363.687 391.595C365.618 395.808 367.836 403.648 369.106 408.309C372.732 421.664 374.833 435.509 376.497 449.248C376.647 449.813 378.108 450.816 378.428 450.816H390.363L390.353 450.805ZM643.65 420.523C645.656 407.083 648.034 394.976 646.562 381.216C640.141 321.259 587.718 290.624 530.686 305.504C501.792 313.045 477.516 332.267 460.002 355.936C451.405 367.541 446.435 375.093 445.155 390.016C445.101 390.667 444.611 392.107 445.656 391.979C448.141 377.653 457.111 364.459 466.06 353.269C491.446 321.525 526.089 302.848 567.687 305.184C619.673 308.107 650.274 357.707 644.173 406.763C643.789 409.877 641.283 417.376 642.339 419.787C642.701 420.619 642.488 420.672 643.661 420.523H643.65ZM369.383 449.643C366.461 407.957 353.021 370.219 323.978 339.851C286.977 301.163 223.194 285.824 180.007 323.861C154.216 346.581 147.433 386.784 155.656 419.104C155.902 420.075 155.07 420.811 156.83 420.523L153.875 393.44C154.814 347.04 185.308 307.573 233.412 305.227C295.126 302.208 343.112 351.403 358.909 407.413C362.823 421.291 364.423 435.488 367.132 449.557L369.383 449.643ZM344.926 315.115C344.616 314.773 339.102 317.685 338.323 318.144C337.747 318.485 336.297 318.421 336.777 319.467C337.971 322.048 346.846 317.291 344.915 315.115H344.926ZM316.394 433.909C313.205 410.677 307.765 388.864 295.904 368.512C283.99 348.064 259.554 324.192 234.009 326.187C231.663 326.368 221.807 328.779 220.709 328.448L216.826 320.939C216.943 324.117 220.186 327.115 218.565 330.251C264.194 317.035 296.822 364.789 306.912 402.923C308.576 409.205 310.378 427.68 312.896 431.296C313.258 431.819 315.85 434.517 316.394 433.909ZM583.099 330.837C582.523 330.325 585.382 325.44 585.744 324.459C585.947 323.915 586.512 322.56 585.435 322.699C584.71 324.469 583.504 327.232 582.449 328.747C581.851 329.611 580.742 329.365 580.774 330.251L588.336 332.587C587.12 329.589 591.515 326.965 591.824 323.861C588.166 326.379 588.965 332.32 583.099 330.848V330.837ZM573.777 327.925L568.177 326.24C515.466 323.797 488.374 384.96 485.27 429.557C485.217 430.251 485.035 433.931 485.558 433.92C486.582 434.005 486.891 432.917 487.371 432.235C490.422 427.925 491.563 410.635 493.003 404.096C498.805 377.707 514.026 349.877 537.864 335.979C543.443 332.725 554.301 327.925 560.679 327.925H573.777ZM598.234 337.835L599.696 339.563L604.058 333.163C601.85 334.368 600.751 337.237 598.245 337.835H598.234ZM524.286 334.336C523.188 334.261 522.281 335.232 521.428 335.84C516.244 339.584 511.626 344.384 507.093 348.875L501.578 356.448C506.101 351.925 509.898 346.784 514.655 342.453C517.737 339.648 521.599 337.589 524.276 334.325L524.286 334.336ZM205.168 336.085C202.192 336.501 200.24 339.115 197.883 340.725L195.857 338.411C197.307 341.589 196.465 340.864 195.27 343.648L205.168 336.085ZM191.782 345.984C188.294 344.939 187.217 340.779 184.22 338.987L190.033 347.445L191.782 345.984ZM347.838 445.557C344.936 430.816 343.176 415.339 338.537 400.992C336.596 394.976 333.662 388.64 331.06 382.848C328.745 377.707 325.919 371.083 323.114 366.336C322.74 365.696 322.527 364.736 321.652 364.597C326.9 377.109 333.428 389.013 337.523 402.005C341.801 415.605 342.878 428 345.779 441.504C346.078 442.88 346.408 444.949 347.848 445.547L347.838 445.557ZM341.438 443.221C338.345 420.768 332.873 399.957 323.487 379.36C321.343 374.656 318.772 369.333 315.818 365.195C323.082 381.024 330.782 396.949 334.846 414.005C337.011 423.104 337.897 432.629 339.859 441.632C340.083 442.667 340.041 443.563 341.438 443.221ZM335.614 442.059C333.342 432.843 332.233 423.339 330.089 414.101C327.177 401.557 321.407 386.464 315.743 374.869C314.613 372.555 312.842 369.483 311.157 367.52C319.69 385.355 326.633 402.72 330.772 422.155C331.977 427.787 332.393 435.435 333.897 440.576C334.185 441.568 334.345 442.261 335.614 442.059ZM353.661 446.72C352.371 436.608 350.931 426.293 348.829 416.331C345.63 401.173 339.358 386.443 332.628 372.555C331.913 371.083 331.209 368.992 329.801 368.107C335.017 380.661 341.491 392.811 345.224 405.963C348.723 418.304 349.789 430.848 352.072 443.371C352.264 444.448 352.445 446.315 353.661 446.731V446.72ZM329.204 439.733C327.135 426.816 324.778 413.856 320.628 401.429C318.058 393.717 313.823 383.029 310.09 375.861C309.066 373.899 307.562 371.349 305.92 369.845C308.725 375.68 311.658 381.525 314.165 387.509C318.751 398.464 322.228 409.493 324.842 421.088C326.025 426.336 326.399 432.907 327.956 437.781C328.201 438.549 328.159 439.552 329.204 439.733ZM456.141 445.557C458.413 427.371 461.175 408.512 466.476 390.955C468.524 384.171 471.297 377.696 473.612 371.019C472.641 371.701 471.895 373.749 471.372 374.88C465.1 388.427 461.282 405.099 458.647 419.808C457.293 427.339 455.618 436.629 455.042 444.16C454.946 445.387 454.616 445.749 456.141 445.547V445.557ZM559.228 395.477C561.138 401.237 570.556 397.643 573.724 394.549C585.168 383.371 568.412 364.256 555.431 373.931C550.29 377.771 547.538 387.605 552.861 392.224C555.826 394.795 557.394 394.784 561.084 394.496C561.714 394.443 562.386 395.147 562.716 393.739C557.021 393.323 551.709 388.736 553.405 382.667L554.642 384.917C560.082 385.227 566.737 382.741 566.204 376.267H568.529L565.617 373.941C581.99 377.248 574.556 399.797 559.218 395.488L559.228 395.477ZM224.004 394.699C226.703 397.589 231.908 398.955 235.769 398.421C236.644 398.304 243.289 394.187 244.121 393.387C249.731 387.936 247.118 377.067 240.409 373.333C225.86 365.237 214.757 384.789 223.994 394.699H224.004ZM468.375 442.059C471.127 419.243 475.585 396.64 483.521 375.093C482.315 375.627 481.974 377.461 481.515 378.613C473.996 397.312 470.881 417.333 467.884 437.184L468.386 442.059H468.375ZM428.206 450.219C429.529 450.411 430.521 449.877 431.001 448.651C432.302 434.997 433.923 420.853 437.017 407.488C439.491 396.779 444.259 386.571 445.677 375.68L439.427 388.928C432.889 408.672 429.145 429.387 428.217 450.219H428.206ZM449.741 446.731C452.312 422.773 456.909 398.987 464.876 376.267C464.002 376.405 463.586 378.251 463.276 379.029C456.056 397.429 451.394 420.992 449.229 440.683C449.027 442.571 449.08 443.989 448.707 445.995C448.493 447.125 448.76 446.699 449.741 446.731ZM461.965 444.395C465.132 422.357 468.812 400.288 475.937 379.179L472.865 385.707C467.991 402.347 464.162 419.371 462.05 436.619C461.826 438.432 461.463 440.597 461.357 442.336C461.314 442.965 460.983 444.544 461.954 444.384L461.965 444.395ZM360.061 447.307C357.736 430.293 355.496 413.131 349.587 396.928L344.926 386.165C348.51 396.352 352.285 406.389 354.547 417.003C356.573 426.528 357.202 436.288 358.92 445.835C359.101 446.869 358.28 447.573 360.061 447.307ZM474.199 439.157C475.809 429.611 477.089 419.989 479.041 410.507C480.641 402.699 482.689 395.029 484.683 387.339L481.814 394.645L473.057 438.88L474.199 439.157ZM443.918 447.883C445.08 444.619 444.216 441.077 444.515 437.707C445.827 422.976 449.464 408.672 452.653 394.315L448.173 409.909C445.656 420.576 444.302 431.413 443.32 442.325L443.918 447.883ZM438.094 434.496C438.371 421.451 443.544 409.024 444.504 396.064L437.529 430.133L438.094 434.496ZM553.981 397.813C552.477 397.536 551.965 398.368 551.058 399.253C547.496 402.699 543.464 409.92 539.731 414.133C528.787 426.453 514.324 438.133 499.349 445.088L499.253 447.317C500.213 447.445 501.024 447.051 501.898 446.763C517.14 441.781 535.603 423.371 545.821 410.912C546.941 409.547 554.973 398.784 553.991 397.824L553.981 397.813ZM301.664 445.728C300.758 444.885 294.944 442.763 293.089 441.781C279.639 434.667 264.61 426.827 254.68 414.965C250.435 409.888 247.406 403.765 243.587 398.389L242.446 399.296C244.825 404.64 247.416 409.963 250.936 414.645C259.213 425.696 274.828 436.512 287.286 442.347C289.27 443.275 301.28 448.16 302.421 447.296C302.219 446.848 301.952 445.984 301.664 445.728ZM304.053 417.728C288.545 412.715 270.295 411.456 255.715 404.053C254.232 403.296 246.254 397.653 245.358 398.4C254.893 413.323 266.967 424.523 282.231 433.44C286.796 436.107 295.691 441.173 300.502 442.539C301.173 442.731 302.059 443.104 301.781 441.845C300.352 435.221 293.953 433.397 288.449 430.997C288.353 429.835 290.123 430.656 290.667 430.816C293.899 431.776 297.344 433.589 300.374 435.083L299.947 431.136L282.615 421.109L300.651 429.259L302.987 424.608L279.703 415.285C286.273 416.373 292.502 419.328 298.784 421.525C300.544 422.144 304.032 421.931 304.16 424.011C305.035 424.16 304.672 423.787 304.704 423.147C304.736 422.336 304.32 418.112 304.043 417.728H304.053ZM499.253 442.645C508.799 437.632 517.865 431.36 526.046 424.309C530.419 420.533 535.848 415.467 539.731 411.211C540.84 409.995 548.882 400.416 548.157 399.552C543.805 402.475 539.187 405.536 534.345 407.563C525.748 411.168 516.863 411.936 507.989 414.4C504.501 415.371 501.024 416.917 497.515 417.909L495.2 423.147L496.565 423.957C502.336 420.619 508.127 416.587 514.975 415.861L496.928 424.597L500.128 429.237C501.696 426.933 505.173 424.971 507.989 424.597L500.48 429.323C500.544 431.669 501.386 433.301 500.416 435.659L513.226 427.509C508.575 432.416 499.445 434.773 499.253 442.645ZM322.794 436.245C320.66 425.909 319.53 413.877 315.658 404.075C315.413 403.456 315.487 402.336 314.655 402.475C315.509 406.773 317.013 410.891 317.962 415.168C319.295 421.195 319.796 428.224 321.322 433.931C321.556 434.795 321.77 436 322.794 436.235V436.245ZM481.185 430.997L483.51 414.699L480.684 427.872L481.185 430.997ZM145.769 418.773C132.81 421.621 121.877 435.381 118.816 448.021C117.728 452.523 116.373 465.707 120.757 468.533C123.306 470.176 140.606 471.531 144.404 471.552C160.147 471.605 180.476 466.293 192.881 456.288C196.859 453.077 199.419 451.147 198.129 445.888C194.577 431.392 176.551 416.715 161.48 416.437C163.165 427.104 146.355 430.453 145.758 418.763L145.769 418.773ZM636.664 416.448C625.934 417.387 616.164 423.2 609.284 431.275C606.565 434.475 600.037 444.661 600.559 448.715C601.317 454.549 620.089 463.776 625.454 465.792C638.051 470.528 660.812 473.707 673.601 469.397C677.046 468.235 678.731 467.157 679.168 463.317C681.28 444.768 669.836 426.421 653.261 418.752L650.551 423.627C645.08 427.403 633.4 425.365 636.664 416.437V416.448ZM307.061 431.584L305.909 431.872C305.685 434.08 306.261 436.405 308.032 437.899C310.805 440.235 318.517 444.363 322.004 446.048C362.962 465.888 447.491 466.005 486.721 442.059C490.24 439.915 495.84 436.576 495.168 431.893C495.2 431.36 493.995 431.467 493.707 431.563C493.312 431.691 489.654 436.512 488.139 437.653C485.739 439.456 481.835 441.216 479.073 442.56C441.678 460.757 363.474 460.192 325.321 443.904C319.284 441.323 310.528 437.024 307.072 431.573L307.061 431.584ZM493.419 438.571C490.262 442.315 487.072 445.035 482.753 447.403C445.731 467.68 352.243 467.733 316.223 445.44L307.072 438.859C308.832 443.776 316.074 447.947 320.66 450.315C359.816 470.496 440.611 469.269 480.236 450.709C485.43 448.277 492.288 444.725 493.419 438.56V438.571ZM491.68 444.981C490.571 449.344 485.313 451.765 481.579 453.813C454.114 468.928 401.701 470.037 370.919 466.443C354.888 464.576 321.108 458.357 309.664 446.752C308.864 445.941 308.544 443.733 307.648 444.107C307.84 447.168 309.077 448.992 311.541 450.699C347.71 475.744 431.385 475.093 471.447 459.979C476.364 458.123 490.571 451.861 492.139 446.891C492.299 446.379 492.683 444.811 491.68 444.981ZM287.574 450.219C283.265 449.76 278.273 450.549 273.89 450.219L279.425 449.056C286.988 448.213 293.857 450.741 301.259 451.371L295.563 448.629C271.927 443.147 247.192 449.675 229.359 465.952C228.676 466.581 224.314 470.485 224.986 471.179C229.369 469.419 233.892 467.989 238.638 467.659C258.168 466.304 278.433 475.979 297.483 479.381L303.595 478.741C303.243 477.931 300.651 477.792 299.744 477.653C298.518 477.472 297.27 477.6 296.032 477.579C295.616 475.232 298.208 476.992 299.296 476.949C300.907 476.885 302.485 476.107 304.181 476.416C303.072 473.077 297.622 472.661 294.39 471.947C289.398 470.837 283.777 470.581 279.02 469.259C278.423 469.088 277.249 469.12 277.388 468.277L301.835 471.765L300.821 468.853L279.713 463.605C279.575 462.571 281.036 463.029 281.676 463.093C287.681 463.723 294.177 466.517 300.352 467.061C301.685 466.325 301.152 465.397 300.534 464.309C289.078 460.949 277.708 459.413 265.73 460.107C265.591 459.093 267.053 459.563 267.757 459.531C271.479 459.381 275.148 459.744 278.828 458.901L300.971 462.421C302.315 461.749 301.291 459.659 300.288 459.051C298.358 457.877 291.595 456.373 289.035 455.744C285.132 454.784 280.823 453.952 276.801 453.707C276.823 452.587 279.212 453.141 279.927 453.205C287.148 453.824 294.134 456.075 301.259 457.205C301.387 456.331 301.259 455.829 300.715 455.125C299.392 453.376 289.942 450.464 287.574 450.219ZM571.441 470.603C572.07 469.984 569.084 467.296 568.54 466.805C558.407 457.632 539.859 449.333 526.313 447.893C517.417 446.944 505.599 446.485 498.656 452.843C507.839 452.064 516.394 449.845 525.737 450.219C526.441 450.251 527.902 449.781 527.764 450.795C520.201 450.901 512.596 451.701 505.493 454.443C504.341 454.891 497.44 457.163 499.232 458.955C507.338 457.963 515.38 454.805 523.689 455.168C520.788 455.477 500.565 461.429 499.914 462.549C499.584 463.115 499.893 464.085 499.808 464.779L512.319 463.029L512.031 464.192C513.322 464.139 514.506 463.701 515.807 463.584C516.415 463.531 518.025 463.221 517.865 464.181C516.33 464.587 513.802 464.405 512.468 464.8C511.231 465.163 509.247 465.931 507.594 466.432C506.133 466.88 501.173 468.32 500.266 468.853C499.552 469.269 499.178 470.379 499.242 471.179C502.73 470.944 506.57 471.509 510.005 471.179C513.951 470.795 518.271 468.757 522.313 468.341C522.953 468.277 524.414 467.819 524.276 468.853C517.503 470.005 511.071 472.64 504.384 474.304C503.669 474.485 495.285 475.243 496.907 477.013C498.805 477.376 500.49 477.685 502.453 477.632C514.335 477.355 520.297 474.688 531.134 471.947C544.157 468.64 558.471 465.803 571.43 470.613L571.441 470.603ZM113.163 468.277C112.8 476.192 120.96 476.779 126.922 477.515C149.449 480.309 174.077 476.757 193.83 465.376C198.833 462.496 211.418 453.088 202.843 447.893C203.11 453.76 197.851 458.411 193.467 461.525C176.69 473.429 139.902 480.139 120.576 472.8L113.163 468.277ZM595.322 447.893C590.192 449.739 592.645 455.168 595.536 458.165C602.703 465.589 624.153 473.92 634.339 476.139C646.36 478.752 666.156 479.243 678.049 476.171C682.475 475.029 684.374 472.981 682.667 468.277C679.2 471.947 674.198 473.515 669.313 474.421C649.986 477.984 622.798 472.747 606.554 461.419C602.021 458.261 596.389 453.589 595.322 447.893ZM308.245 451.381C309.301 455.307 306.645 460.48 308.106 464.043C309.194 466.72 316.469 470.731 319.188 472.171C359.037 493.344 445.112 494.517 483.915 470.688C488.598 467.819 494.987 462.517 493.419 456.331L492.267 449.632C489.238 457.835 476.268 462.432 468.375 465.045C430.425 477.621 356.914 477.6 320.842 459.456L308.256 451.381H308.245ZM198.769 464.203L188.678 470.709L174.866 476.693L155.091 481.077C164.925 481.568 174.759 478.368 183.623 474.389C189.105 471.925 194.982 468.981 198.758 464.203H198.769ZM639 479.925C629.678 478.581 619.982 475.392 611.823 470.699C608.612 468.853 605.743 465.995 602.319 464.779C606.831 468.971 612.697 472.779 618.329 475.264C621.39 476.619 629.465 479.797 632.451 480.363C633.88 480.629 635.523 480.555 636.984 480.491C637.688 480.459 639.149 480.939 639.011 479.915L639 479.925ZM307.082 467.115C307.04 473.067 314.687 476.629 319.295 479.061C359.485 500.224 443.203 501.024 482.742 478.272C485.622 476.619 492.608 472.448 493.675 469.408C493.92 468.704 494.656 466.016 493.419 465.941C492.758 468.629 488.736 471.595 486.369 473.163C463.234 488.427 414.447 492.224 387.11 491.008C365.938 490.059 327.796 483.648 310.954 470.496L307.072 467.104L307.082 467.115ZM678.017 478.176C671.926 479.531 665.953 481.259 659.671 481.653C653.154 482.069 644.472 480.533 638.776 481.109C636.11 481.376 633.966 483.488 632.174 483.883C628.91 484.608 617.369 479.637 613.935 477.899L597.658 467.104C596.816 480.107 605.871 492.981 616.111 500.192C618.543 501.909 624.046 505.184 626.777 505.877C630.787 506.912 634.787 498.891 635.95 495.787C638.456 489.141 635.182 491.904 633.998 488.085C632.195 482.251 647.405 480.373 648.301 487.243C648.877 491.637 645.101 491.029 643.373 493.312C642.083 495.019 641.784 498.389 640.653 500.491C639.811 502.048 634.595 506.763 635.502 507.851C639.789 508.885 644.802 507.776 649.026 506.528C657.463 504.032 665.345 498.24 669.75 490.56C670.764 488.789 672.641 485.984 671.905 483.989C665.228 486.88 658.028 486.613 650.978 487.52L647.736 482.24C655.756 482.656 663.82 482.741 671.734 480.907L678.017 478.165V478.176ZM199.931 468.853C199.355 468.181 192.305 474.592 191.398 475.157C190.353 475.819 189.041 476.32 187.921 476.917C182.759 479.637 167.858 485.621 162.451 484.992C160.701 484.789 159.592 482.229 157.608 481.781C155.891 481.397 149.683 481.408 147.87 481.696C143.732 482.336 143.529 487.445 143.145 487.52C139.71 487.179 136.244 486.891 132.874 486.144C130.111 485.536 126.591 483.765 123.957 483.403C123.157 483.296 122.847 483.403 123.103 484.267C123.541 485.76 125.919 489.493 126.933 490.923C134.1 501.109 146.291 506.592 158.333 508.427L158.952 507.253C157.523 504.64 155.368 502.677 153.864 500.096C152.766 498.208 151.55 493.792 150.878 492.885C149.843 491.488 145.779 491.637 145.758 488.363C145.694 478.603 164.861 482.997 158.632 490.699C157.747 491.797 156.072 491.435 156.51 493.312C156.755 494.336 160.968 501.376 161.864 502.571C162.611 503.563 165.981 507.179 166.941 507.168C184.7 503.019 199.398 487.392 199.952 468.843L199.931 468.853ZM294.848 480.512C292.246 480.736 289.782 480.203 287.276 479.637C269.591 475.691 240.484 464.011 224.431 476.171C210.885 486.443 215.418 509.184 230.404 515.541C232.527 516.437 234.937 517.632 237.188 516.565L237.209 514.869C224.964 510.677 215.066 498.656 221.381 485.344C230.82 465.472 266.082 477.035 281.793 482.208L294.859 480.501L294.848 480.512ZM560.391 515.445C560.764 518.635 563.303 517.493 565.447 516.715C578.267 512.032 585.286 498.933 580.465 485.749C574.321 468.907 555.485 469.824 540.563 472.619C532.777 474.08 520.105 479.349 513.428 479.872C510.314 480.117 506.634 478.731 503.317 479.339L510.911 480.768C520.031 484.469 531.518 477.504 541.149 475.531C553.767 472.939 574.609 473.013 577.595 489.205C579.814 501.237 571.846 512.395 560.391 515.445ZM145.193 481.675C135.295 481.525 125.503 479.979 116.085 477.013L121.461 479.488C124.426 480.213 127.391 481.152 130.42 481.6C133.727 482.091 140.041 482.891 143.188 482.859C144.084 482.859 144.979 482.677 145.203 481.675H145.193ZM522.537 485.749C521.759 486.496 531.401 492.48 532.595 492.853C540.072 495.2 548.914 485.579 548.157 478.165L522.537 485.739V485.749ZM275.052 485.749L249.432 478.752C247.459 480.651 258.072 492.565 260.92 493.195C262.125 493.461 263.309 493.419 264.429 492.864L275.052 485.739V485.749ZM613.956 570.187C597.914 566.027 584.315 554.347 573.798 541.92C566.94 533.813 561.33 524.523 554.279 516.597C540.659 501.291 512.554 481.877 491.883 479.989C491.232 479.925 489.792 479.445 489.931 480.491C515.231 488.448 538.398 502.539 555.442 522.997L571.441 544.555C565.436 539.531 561.65 532.416 556.605 526.496C546.28 514.389 533.203 503.051 519.572 494.816C509.322 488.619 496.608 483.989 484.683 482.837C484.481 482.987 484.993 483.499 485.259 483.701C487.926 485.771 498.4 488.533 502.442 490.4C503.658 490.965 505.557 491.541 506.229 492.725L480.652 485.387L479.446 486.315C501.536 497.131 522.815 508.629 541.757 524.459C550.76 531.979 558.844 541.131 568.583 547.712C573.084 550.752 578.417 552.64 582.513 556.203C562.578 549.088 549.032 532.128 532.702 519.541C516.617 507.147 496.843 494.827 477.398 488.661C477.1 488.565 476.449 488.501 476.534 488.939L480.022 492.139C476.63 492.032 473.452 490.656 470.295 489.931C469.42 489.728 468.738 489.451 468.961 490.677C469.569 492.171 478.529 495.872 480.62 497.099C481.377 497.547 482.091 496.992 481.761 498.549L463.127 492.149L464.599 493.877L477.1 500.875C470.327 500.384 464.706 496.053 458.477 493.899C457.175 495.211 465.164 500.768 464.012 502.624L453.826 495.061C452.738 496.459 459.127 502.336 459.639 503.509C459.938 504.192 459.469 504.661 458.775 504.373C457.933 504.011 448.941 494.453 448.003 495.648C449.869 501.323 455.32 505.803 459.042 510.507C460.045 511.765 461.591 513.333 461.965 514.859C456.493 509.963 451.49 504.565 446.232 499.445C445.496 498.731 443.683 495.403 442.179 496.811C440.91 497.995 448.099 506.827 449.176 508.149C454.242 514.357 460.45 519.659 465.463 525.92C464.375 526.176 464.076 525.312 463.426 524.757C459.682 521.611 456.791 517.344 452.632 514.592C450.445 511.189 447.139 508.811 444.515 505.813C442.072 503.019 440.11 497.248 435.769 497.963L436.025 499.733L447.405 515.424C446.904 515.957 437.635 506.016 436.942 505.216C434.883 502.795 433.369 498.123 429.945 498.539C429.166 499.296 434.094 506.56 434.958 507.787C437.475 511.392 440.376 514.528 443.331 517.749C442.542 518.453 436.814 512.779 436.046 511.936C433.358 509.003 429.433 501.909 427.065 499.947C426.276 499.296 425.828 498.912 424.697 499.115C424.132 499.68 427.31 505.685 427.886 506.688C429.604 509.696 432.196 512.128 433.422 515.413C431.076 513.067 428.804 510.432 426.777 507.797C426.041 506.837 421.807 499.264 420.612 500.288C421.241 504.405 423.001 508.8 423.449 512.875C423.524 513.557 424.047 516 422.948 516C422.223 512.245 421.241 505.024 419.332 501.845C418.66 500.725 418.415 500.725 417.124 500.864L420.058 525.579L419.45 531.136C418.906 520.853 418.074 510.528 414.117 500.939L411.877 500.853C413.978 513.579 415.407 526.347 414.778 539.285C413.765 539.424 414.234 537.963 414.202 537.259C413.69 524.864 413.306 513.067 409.018 501.205L406.629 500.853C406.842 509.632 409.573 518.219 408.954 527.061L403.418 500.864L402.064 501.824C401.68 508.971 402.245 516.16 402 523.307C401.093 549.365 399.6 575.232 399.675 601.344C399.675 602.901 398.907 604.384 399.024 605.973L400.24 626.656C401.573 626.923 401.851 625.685 402.171 624.811C404.016 619.797 404.794 611.445 406.352 605.696C410.586 590.005 416.911 575.371 420.452 559.232C423.14 546.955 424.42 534.944 425.284 522.421C426.82 522.293 426.244 522.357 426.425 523.307C431.62 551.36 412.613 590.197 406.106 617.675C405.392 620.672 403.557 625.835 405.189 628.405C414.426 599.68 427.342 571.733 430.51 541.344C430.948 537.184 430.873 532.715 431.097 528.544C431.204 526.656 432.398 524.971 431.097 523.008H434.585L432.249 524.171C432.249 524.8 432.153 525.472 432.366 526.091C432.579 526.709 440.046 533.557 441.294 534.635C458.85 549.728 480.897 560.181 478.828 587.925C477.59 604.544 466.796 597.195 458.263 591.029C451.469 586.112 446.029 580.501 441.55 573.387L432.835 558.528C438.563 574.933 449.677 591.893 465.367 600.245C473.911 604.789 480.481 601.205 482.262 591.947C485.601 574.507 475.404 556.917 462.807 545.739C455.864 539.573 446.968 534.464 440.398 527.968C439.16 526.752 436.878 524.96 437.785 523.008C442.595 529.12 450.36 532.715 456.642 537.344C475.948 551.552 495.051 573.227 483.489 598.709C487.19 598.4 488.448 595.072 489.163 591.872C491.552 581.163 488.47 568.363 484.075 558.539C491.542 569.131 496.107 586.731 487.563 597.845C488.683 598.987 490.24 596.949 491.03 596.736C491.819 596.523 492.779 597.099 493.973 596.736C499.008 595.221 500.533 580.853 499.712 576.363L493.963 553.291C495.051 553.909 495.499 556.32 495.861 557.504C498.229 565.291 500.96 574.336 500.949 582.411C501.674 583.403 502.624 578.069 502.677 577.451C503.317 570.4 501.29 564.267 500.522 557.493C500.448 556.853 499.85 555.509 500.928 555.627C504.991 568.469 505.909 584.309 496.864 595.221C504.213 595.051 506.997 585.461 508.223 579.509C511.679 562.763 502.346 544.352 492.192 531.477C485.697 523.243 476.844 516.875 470.657 508.469C471.073 508.064 475.318 511.723 475.905 512.245C494.229 528.491 513.791 549.216 512.02 575.755C511.583 582.389 509.439 588.363 506.175 594.069C514.879 592.555 516.521 576.405 516.063 569.333C514.719 548.469 503.04 535.285 489.579 521.259C485.377 516.885 481.334 512.235 477.068 507.893C478.081 507.776 478.998 507.915 479.99 508.171C525.609 520.16 562.61 572.672 611.887 570.784C612.591 570.752 614.052 571.221 613.913 570.208L613.956 570.187ZM397.339 506.123V500.885C395.835 500.672 395.195 501.227 394.555 502.475C391.152 509.067 390.129 517.909 388.678 525.131L388.593 528.843L388.027 525.067C388.027 517.813 391.739 509.024 391.952 502.187C391.984 501.237 392.24 501.003 391.227 500.331C387.814 500.416 383.836 521.216 383.942 524.779C382.929 524.917 383.388 523.445 383.366 522.752C383.142 515.509 386.075 507.435 387.441 500.331C386.651 500.331 385.83 500.181 385.105 500.608C383.142 501.749 378.886 517.568 378.694 520.704C377.596 520.704 378.119 518.261 378.193 517.579C378.865 511.509 381.596 505.813 382.193 499.744C379.921 499.296 378.62 501.173 377.244 502.645C372.945 507.253 370.279 513.771 365.906 518.379L376.38 500.032L373.895 499.691L363.869 513.141L357.16 518.955C362.141 512.491 368.114 506.677 370.546 498.581C368.892 498.283 368.018 499.595 367.047 500.608C363.485 504.299 359.901 510.293 356.296 514.315C355.666 515.019 351.453 519.573 350.76 518.965C353.437 516.064 355.901 513.045 358.226 509.835C359.837 507.616 363.73 502.24 364.775 500.085C365.117 499.381 365.511 498.901 365.309 498.005C364.381 498.027 363.453 497.813 362.546 498.165C361.746 498.485 355.282 506.997 353.96 508.491C351.123 511.691 348.126 514.955 344.936 517.803L359.474 497.707C359.432 496.981 357.074 496.245 356.52 497.216L333.289 523.04C333.033 521.952 333.897 521.653 334.452 521.003C341.203 513.024 348.435 505.419 353.672 496.256C351.027 494.325 344.179 502.827 342.313 504.405C341.331 503.797 342.569 503.136 342.899 502.656C344.584 500.245 346.888 497.931 347.848 495.093C346.664 494.059 339.635 498.901 338.238 499.744C337.203 498.155 343.144 494.933 342.025 493.931L329.215 498.581C330.217 496.715 336.318 494.549 337.097 493.365C337.726 492.416 337.075 492.16 336.5 491.616L334.121 493.312L333.022 492.181L304.192 501.493L317.418 495.808L331.55 491.595L328.639 491.019L328.927 489.845C325.129 490.421 321.791 490.816 318.037 491.765C304.149 495.275 285.473 504.576 273.378 512.32C254.616 524.341 240.676 541.088 222.671 553.909C222.405 552.768 223.258 552.523 223.887 551.925C227.823 548.139 232.591 545.067 236.654 541.397C241.625 536.896 246.115 531.84 251.192 527.403C272.482 508.8 296.896 496.192 323.988 488.096C323.914 487.328 323.156 487.115 322.538 486.891C317.919 485.184 299.52 492.139 293.707 492.757L316.991 484.608C316.543 483.232 313.802 483.392 312.65 483.445C292.886 484.373 269.783 496.971 255.544 510.229C239.641 525.045 229.071 544.811 212.186 558.581C211.93 557.483 212.794 557.195 213.349 556.544C215.45 554.059 218.597 552.075 220.901 549.536C229.956 539.563 237.113 527.765 246.243 517.803C264.002 498.432 285.313 486.827 311.178 481.696C309.92 479.659 305.045 480.864 302.816 481.195C286.636 483.605 266.071 494.272 253.837 505.003C234.809 521.696 222.959 548.907 201.307 562.528C196.113 565.792 190.129 567.787 184.999 571.264C184.252 571.765 183.409 571.925 183.655 573.12C202.566 572.181 220.271 565.515 236.014 555.317C244.281 549.963 251.928 543.541 260.098 538.059C276.236 527.243 296.651 516.843 314.57 509.259C316.106 508.608 317.557 507.691 319.327 507.915C320.756 509.237 311.797 515.733 310.89 516.651C298.87 528.8 286.796 547.221 285.537 564.672C284.801 574.859 285.772 590.208 296.619 594.688L292.854 588.277C280.545 560.235 299.499 530.112 320.5 512.277C322.271 510.773 324.575 508.491 326.911 508.501L312.927 522.165C297.526 539.627 287.094 559.648 294.145 583.488C294.635 585.152 296.758 591.179 297.558 592.299C297.963 592.853 298.56 593.451 298.976 592.629C294.859 580.16 294.966 566.389 298.976 553.909C300.022 553.771 299.51 555.179 299.403 555.797C298.891 559.019 297.515 562.56 297.227 565.856C296.8 570.795 297.675 590.603 300.448 594.059C300.96 594.699 302.283 595.349 303.029 595.84C303.403 595.381 300.246 589.355 300.203 588.011C299.99 580.992 300.448 568.821 302.155 562.059C303.627 556.267 306.816 549.184 310.602 544.597C307.733 550.635 304.683 556.523 303.221 563.125C301.739 569.856 300.64 585.344 302.933 591.584C304.992 597.195 309.045 597.003 314.101 598.752C306.613 577.984 318.794 553.696 335.465 541.205C340.755 537.248 347.55 532.789 353.171 529.205C357.885 526.208 362.823 523.467 367.676 520.715C368.124 521.195 366.109 523.723 365.639 524.203C362.546 527.307 355.229 530.805 351.197 533.632C340.254 541.291 329.908 547.819 323.124 559.723C316.426 571.477 310.581 589.941 323.146 599.904C329.471 604.917 334.217 603.637 340.265 598.997C350.621 591.029 354.781 581.728 360.008 570.411C361.554 567.072 364.743 563.637 364.765 559.744L359.432 569.248C353.011 578.741 347.976 587.957 338.846 595.253C332.628 600.224 328.319 601.92 322.847 594.4C313.749 581.877 325.983 560.309 335.337 550.997C344.958 541.429 358.877 535.179 368.839 525.984C367.143 547.147 372.658 566.709 379.057 586.528C381.926 595.403 385.382 604.864 388.635 613.643C390.022 617.397 391.995 623.936 393.744 627.157C394.118 627.84 393.723 628.139 395.035 627.893C395.75 626.283 395.238 625.259 394.875 623.701C387.761 592.928 370.428 562.731 372.892 529.749C372.999 528.256 373.361 525.12 374.652 524.245C373.553 559.307 388.305 591.776 397.083 624.992L399.12 626.741L397.381 506.197L394.48 520.171C394.48 515.797 395.376 511.371 396.23 507.083C396.422 506.133 395.878 506.069 397.381 506.197L397.339 506.123ZM247.096 505.536C245.529 503.307 242.649 502.613 240.409 500.864C237.582 498.656 235.257 495.339 232.868 492.683L230.212 488.064C232.473 495.392 239.257 503.883 247.096 505.525V505.536ZM252.92 497.963C249.048 495.008 245.742 491.627 242.446 488.064C244.217 492.171 248.611 496.523 252.92 497.963ZM573.201 488.661C574.641 500.192 569.329 506.923 558.919 510.784L559.527 511.957C569.585 509.995 574.918 501.952 574.289 491.936C574.257 491.36 574.001 488.704 573.201 488.661ZM251.171 501.472C245.603 499.168 241.817 494.581 237.785 490.4C239.854 494.997 244.366 499.595 248.995 501.6C249.507 501.824 251.246 502.667 251.16 501.472H251.171ZM241.273 510.197C234.884 508.416 229.732 504.267 226.49 498.485L223.812 491.563C221.285 499.211 228.196 507.104 234.863 509.909C239.374 511.808 245.667 512.224 239.833 506.688C235.374 502.453 231.129 499.051 228.164 493.312C227.332 493.749 228.164 494.827 228.431 495.371C231.556 501.835 236.452 505.227 241.262 510.187L241.273 510.197ZM567.377 503.211C570.513 500.267 572.049 495.712 572.604 491.563L568.999 498.144L567.377 503.211ZM566.044 504.213C566.268 503.851 567.207 500.981 567.089 500.299L555.154 510.197C556.242 509.632 557.351 510.187 558.45 509.771C559.1 509.525 565.799 504.608 566.044 504.213ZM560.38 500.885C558.621 501.088 556.957 502.347 555.538 503.317C554.855 503.787 550.845 506.432 551.656 507.285C554.706 505.461 558.215 503.851 560.38 500.885ZM615.705 574.848C596.165 573.344 577.169 568.203 560.21 558.421C537 545.045 516.65 525.536 491.094 516.032C497.419 523.637 507.306 527.381 515.498 532.672C543.208 550.56 563.836 569.835 598.085 575.285C600.997 575.744 612.623 577.163 614.724 576.491C615.492 576.245 615.855 575.648 615.695 574.848H615.705ZM304.16 518.357C293.675 521.984 283.009 527.072 273.484 532.811C255.576 543.616 239.353 559.136 219.93 567.189C208.443 571.957 195.953 574.197 183.612 575.424V577.163C194.566 577.312 206.491 575.072 216.933 571.755C240.334 564.309 259 546.272 279.756 533.835C286.838 529.589 295.542 526.603 301.525 521.248C302.453 520.416 303.563 519.456 304.16 518.357ZM328.041 587.648C338.014 584.555 343.902 574.816 348.894 566.283C350.419 563.68 352.211 560.843 353.085 557.952C348.424 564.128 345.438 571.637 340.265 577.44C336.713 581.419 332.244 584.437 328.052 587.648H328.041ZM328.041 592.885C331.86 594.443 334.996 592.619 337.939 590.283C347.55 582.656 353.597 569.355 358.888 558.539C355.368 563.392 352.915 568.992 349.587 573.984C345.406 580.267 341.022 585.707 334.622 589.877L328.031 592.885H328.041ZM472.449 592.32C466.242 591.264 460.226 588.053 455.554 583.872C449.027 578.037 445.699 569.461 440.43 562.603C445.251 575.008 453.496 586.581 466.05 592.011C467.66 592.704 471.543 594.549 472.449 592.309V592.32ZM328.628 581.824C332.073 580.64 335.102 576.768 337.342 573.952C339.849 570.805 342.569 567.061 343.763 563.2C341.641 565.888 340.019 568.875 337.929 571.627C335.124 575.317 331.934 578.613 328.628 581.824ZM473.612 582.997C463.511 580.885 458.978 571.179 453.24 563.776C456.61 570.976 463.287 580.853 471.276 583.296C471.852 583.477 473.687 584.171 473.612 583.008V582.997ZM632.451 564.512C613.593 567.04 615.705 597.28 635.182 596.405C656.77 595.435 652.066 561.877 632.451 564.512ZM159.603 565.077C151.102 566.507 146.942 579.264 149.929 586.699C154.963 599.232 173.853 599.232 178.407 586.219C182.769 573.749 172.189 562.965 159.603 565.077ZM473.036 587.659C460.599 586.901 455.021 574.933 448.589 566.101C452.525 575.509 460.173 586.624 471.063 588.171C471.681 588.256 473.185 588.661 473.036 587.659ZM396.603 632.053C374.876 635.36 383.238 672.043 405.626 662.037C420.975 655.179 414.639 629.301 396.603 632.053Z" fill="black"/>
<path d="M213.328 623.755L221.444 620.523C229.231 615.616 232.729 607.339 228.111 598.795C222.223 587.894 202.235 591.488 204.624 606.56C205.627 612.843 213.701 612.224 215.941 606.88L217.391 601.643C217.882 608.982 216.346 610.166 210.021 612.054C209.061 612.342 208.379 611.595 208.667 613.291C215.162 614.539 223.034 610.283 219.269 602.976C217.167 598.902 214.394 601.675 210.992 601.643C211.77 596.395 219.45 596.758 221.967 600.278C229.369 610.635 215.898 621.654 205.349 615.147C203.781 614.176 199.974 610.838 202.843 610.091C201.851 609.27 201.467 608.352 201.126 607.147C200.304 604.267 199.451 598.592 201.094 596.107C208.379 585.067 228.431 586.123 232.996 599.158C237.678 612.534 225.86 623.051 213.328 623.776V623.755Z" fill="black"/>
<path d="M594.533 592.523C596.826 594.752 598.714 599.115 598.106 602.368C597.818 603.904 595.226 611.467 594.426 612.672C591.824 616.608 586.118 617.376 581.787 616.64C570.769 614.752 569.82 597.099 582.843 598.123C583.782 598.198 587.291 598.518 586.032 600.192C583.515 600.48 580.529 600.662 578.779 602.838C574.609 608.011 585.254 618.24 589.52 611.552L586.032 610.39C589.904 611.712 592.72 609.899 593.467 605.888C596.336 590.283 570.641 587.862 568.615 603.158C567.761 609.579 569.201 613.878 573.521 618.539L580.795 622.614C554.503 618.944 562.386 581.334 589.072 589.6C590.907 590.166 593.189 591.211 594.565 592.555L594.533 592.523Z" fill="black"/>
<path d="M477.697 268.533C483.659 269.547 489.974 272.64 495.115 275.861C497.856 277.579 506.005 282.677 505.023 286.251L503.903 286.88L477.686 268.533H477.697Z" fill="black"/>
<path d="M506.805 281.333C505.802 281.589 505.642 280.917 505.056 280.469C502.762 278.699 500.373 275.872 498.027 274.112C492.512 269.973 485.451 267.445 480.609 262.709C488.427 264.352 496.608 269.035 502.933 273.867C505.941 276.171 508.458 277.088 506.815 281.333H506.805Z" fill="black"/>
<path d="M509.141 275.509L483.531 257.749C484.321 256.469 485.44 257.333 486.539 257.643C491.413 258.997 502.89 266.048 506.773 269.44C508.682 271.115 510.41 272.949 509.141 275.509Z" fill="black"/>
<path d="M511.466 270.272C508.255 267.573 505.162 264.715 501.76 262.229C496.821 258.624 491.318 255.893 486.433 252.224C496.117 253.845 505.184 260.341 512.373 266.795L511.466 270.272Z" fill="black"/>
<path d="M514.378 263.861C513.716 264.384 502.261 254.912 500.586 254.08C497.824 252.075 493.995 250.667 491.264 248.843C490.518 248.341 489.675 248.181 489.92 246.987C496 248.256 502.154 251.467 507.231 255.008C508.693 256.021 514.175 260.309 514.698 261.568C514.922 262.112 514.495 263.776 514.378 263.872V263.861Z" fill="black"/>
<path d="M516.703 259.211L493.419 242.325C502.72 243.851 510.783 250.08 517.609 256.288L516.713 259.211H516.703Z" fill="black"/>
<path d="M502.154 233.59C503.253 232.63 510.602 236.587 511.999 237.419C514.463 238.88 521.3 243.712 522.846 245.792C524.254 247.691 523.604 249.43 521.374 248.427C519.145 247.424 514.431 242.699 511.999 240.918C509.354 238.976 505.919 237.376 503.477 235.467C502.773 234.912 501.898 234.795 502.154 233.59Z" fill="black"/>
<path d="M498.08 238.251C503.648 238.741 508.938 242.208 513.407 245.344C515.572 246.869 522.366 250.72 519.913 253.387L498.091 238.251H498.08Z" fill="black"/>
<path d="M579.601 207.371L575.025 207.872C574.481 206.464 573.99 204.96 572.924 203.829C571.857 202.699 571.057 203.243 570.972 203.157C570.076 202.336 568.476 196.971 566.791 195.733C573.606 193.717 577.574 202.112 579.601 207.371Z" fill="black"/>
<path d="M509.141 226.006C509.247 225.323 509.781 224.928 510.474 224.95C513.844 225.056 530.622 236.672 530.099 239.115C529.47 239.936 529.225 240.064 528.18 239.904C526.59 239.648 520.329 233.696 518.388 232.203C515.594 230.038 512.287 227.616 509.13 226.016L509.141 226.006Z" fill="black"/>
<path d="M526.612 244.651C525.214 245.654 517.738 238.112 516.084 236.843C513.62 234.955 510.346 233.44 508.031 231.499C507.231 230.827 506.069 230.166 506.24 228.928C507.509 227.723 519.913 236.256 521.652 237.675C522.911 238.71 528.702 243.147 526.612 244.64V244.651Z" fill="black"/>
<path d="M518.761 216.693C520.073 216.512 529.257 223.211 530.697 224.544C531.689 225.472 535.272 229.365 535.955 230.357C537.096 232.021 535.464 232.373 534.462 233.568C532.531 231.371 530.355 228.331 528.286 226.357C525.705 223.904 520.244 220.907 518.441 218.144C517.94 217.376 517.876 216.8 518.751 216.683L518.761 216.693Z" fill="black"/>
<path d="M535.102 226.261C531.699 222.645 527.806 219.829 524.276 216.416C523.646 215.808 522.921 215.392 523.124 214.368C530.27 216.181 535.496 222.496 540.573 227.467L538.046 229.461C536.702 228.725 536.062 227.285 535.102 226.251V226.261Z" fill="black"/>
<path d="M531.273 207.968C538.494 208.374 543.101 216.598 548.146 221.067L545.267 222.262L531.273 207.968Z" fill="black"/>
<path d="M514.388 221.355C517.972 220.662 533.427 233.088 533.022 235.03C532.393 235.808 532.158 236.064 531.113 235.798C529.406 235.371 522.59 228.31 520.5 226.603C519.828 226.059 513.29 222.358 514.399 221.355H514.388Z" fill="black"/>
<path d="M547.955 206.421C550.141 208.384 553.192 212.448 554.856 214.955C555.261 215.573 556.231 215.648 555.143 216.395L553.192 217.184L540.595 203.584C540.339 202.389 541.171 202.592 542.014 202.741C543.517 203.008 546.728 205.323 547.955 206.421Z" fill="black"/>
<path d="M544.072 223.701C544.648 224.501 542.589 226.133 541.736 225.749L527.198 211.755C527.124 209.536 532.403 213.184 532.958 213.557C536.755 216.128 539.72 219.627 542.675 223.083C543.016 223.488 543.549 223.68 544.061 223.712L544.072 223.701Z" fill="black"/>
<path d="M555.73 198.635L556.018 197.483C561.628 196.726 566.513 205.835 568.273 210.304L565.617 211.776C563.132 206.923 560.284 201.654 555.73 198.646V198.635Z" fill="black"/>
<path d="M570.289 205.046L571.153 203.883L574.353 208.534L569.756 209.664L561.554 196.32C563.954 194.23 570.033 202.934 570.289 205.046Z" fill="black"/>
<path d="M551.645 219.019C551.485 219.232 548.808 219.957 548.413 219.072L536.51 205.632C541.48 206.059 546.291 211.488 549.309 215.253C549.8 215.861 552.029 218.517 551.645 219.019Z" fill="black"/>
<path d="M550.482 199.232C552.936 196.288 560.935 206.933 562.023 208.939C563.175 211.04 564.999 213.984 561.244 213.259C557.97 208.256 554.76 203.445 550.482 199.232Z" fill="black"/>
<path d="M545.832 200.981C550.376 200.277 557.468 209.077 558.78 212.789C559.559 215.008 557.735 215.68 556.285 214.688C555.975 214.475 553.202 209.504 552.221 208.267C550.29 205.824 547.709 203.488 545.832 200.981Z" fill="black"/>
<path d="M577.851 196.31L578.139 194.571C580.315 194.891 583.238 203.883 583.675 206.198L580.198 206.774C579.59 204.694 579.067 200.63 577.873 198.976C577.563 198.539 576.934 199.168 576.422 198.656C573.638 195.894 573.457 192.214 577.841 196.299L577.851 196.31Z" fill="black"/>
<path d="M587.749 205.622C583.11 207.488 584.208 202.656 583.12 199.488C582.48 197.622 581.243 196.363 580.763 194.571C587.344 194.454 587.014 200.694 587.749 205.622Z" fill="black"/>
<path d="M591.163 195.808L592.379 204.224L591.835 205.355L588.389 204.971C588.208 201.718 588.475 197.878 586.576 195.136L591.152 195.798L591.163 195.808Z" fill="black"/>
<path d="M595.173 195.883C596.538 197.397 596.421 202.923 597.061 205.045H593.563L592.987 195.147C593.232 194.88 594.874 195.552 595.162 195.872L595.173 195.883Z" fill="black"/>
<path d="M283.201 612.118C280.076 608.694 275.788 608.288 271.426 609.366C270.039 609.707 268.813 611.243 267.49 610.667C270.668 604.64 280.855 605.739 283.201 612.118Z" fill="black"/>
<path d="M601.146 205.632L599.184 205.557L598.33 204.672L597.669 195.733C602.138 195.904 600.346 202.421 601.157 205.632H601.146Z" fill="black"/>
<path d="M605.221 198.059V206.208L602.565 205.664L601.807 198.325C602.661 196.779 603.877 198.208 605.221 198.059Z" fill="black"/>
<path d="M534.174 611.531C530.217 610.048 526.74 608.48 522.537 610.368V609.216C526.11 606.614 533.321 606.016 534.174 611.531Z" fill="black"/>
<path d="M308.234 595.221C304.587 591.221 304.896 583.776 305.291 578.592C305.365 577.6 305.227 576.672 306.197 576.011C306.411 582.528 306.635 588.875 308.224 595.221H308.234Z" fill="black"/>
<path d="M492.256 595.808C494.016 591.723 494.955 587.189 495.189 582.731C495.808 571.051 490.624 560.128 485.856 549.803C488.118 552.331 490.07 556 491.371 559.125C494.539 566.752 497.824 578.389 496.651 586.517C496.213 589.525 494.827 594.027 492.256 595.808Z" fill="black"/>
<path d="M605.807 568.448C605.925 569.483 603.813 569.067 603.247 568.971C597.744 568.043 590.747 563.616 585.84 560.747C583.579 559.424 580.902 558.016 579.025 556.213C588.24 559.723 595.909 566.507 605.807 568.448Z" fill="black"/>
<path d="M492.246 499.147C492.374 500.245 491.072 499.595 490.475 499.456C489.11 499.147 486.806 498.496 485.526 498.005C484.406 497.579 482.369 496.736 481.771 495.648L492.246 499.147Z" fill="black"/>
<path d="M213.328 204.469C211.056 205.675 207.717 204.8 205.179 205.045C206.213 202.08 206.085 197.792 208.667 195.733L209.253 197.483C208.763 195.765 210.448 193.024 212.154 194.859C211.045 197.696 208.859 200.64 209.552 203.893C212.24 200.768 211.941 193.717 217.413 194.581C216.378 197.547 213.381 201.259 213.338 204.48C216.463 202.816 217.647 193.493 222.65 194.869C220.623 197.632 218.341 201.547 218.287 205.056C221.466 201.653 221.956 195.328 227.311 194.581L221.498 206.229L225.914 199.872C227.673 197.995 228.985 195.701 231.972 196.331C232.409 198.539 228.697 199.349 228.463 199.605C227.076 201.109 224.772 205.856 224.399 207.979C220.826 206.827 217.178 205.355 213.338 205.643C213.338 205.259 213.338 204.864 213.338 204.48L213.328 204.469Z" fill="black"/>
<path d="M235.044 199.403C233.828 200.523 231.492 205.515 231.673 207.382C233.86 205.003 235.396 201.771 238.084 199.819C238.606 199.435 242.51 196.95 242.435 198.944C242.403 199.723 232.537 208.032 232.452 210.774L230.18 210.635C228.452 207.936 230.895 205.184 231.972 202.742C230.735 202.496 229.465 205.078 229.028 205.91C228.516 206.88 228.548 207.99 227.93 208.907L224.986 208.555C224.772 208.278 228.079 202.859 228.506 202.475C229.167 201.867 230.361 201.718 231.119 201.003C232.836 199.382 234.564 194.944 237.796 197.782C237.188 198.784 235.758 198.774 235.065 199.414L235.044 199.403Z" fill="black"/>
<path d="M316.394 264.448C316.725 266.006 315.978 265.451 315.242 265.888C307.253 270.688 299.232 274.539 292.523 281.334C290.23 277.408 295.35 274.379 298.39 272.363C303.413 269.035 310.442 265.451 316.383 264.448H316.394Z" fill="black"/>
<path d="M318.719 269.696C316.97 272 313.663 273.067 311.2 274.688C305.898 278.166 300.757 282.059 296.288 286.571C291.777 284.747 300.128 278.902 302.219 277.355C306.944 273.878 312.874 270.464 318.719 269.696Z" fill="black"/>
<path d="M313.482 259.211C305.941 264.64 297.355 268.63 290.55 274.902C289.451 274.379 288.481 272.672 289.142 271.542C296.704 266.742 304.331 260.512 313.482 259.211Z" fill="black"/>
<path d="M303.584 244.075L293.163 250.24C289.857 253.237 284.961 255.584 282.614 259.211L280.343 255.776C287.627 251.285 294.496 244.245 303.584 244.075Z" fill="black"/>
<path d="M306.496 249.312L285.142 263.808C284.065 263.904 282.892 261.856 283.457 260.96C283.777 260.448 292.257 254.805 293.504 254.091C297.302 251.904 302.016 249.429 306.496 249.323V249.312Z" fill="black"/>
<path d="M309.984 253.974L288.428 268.832L287.606 269.099L286.156 266.262C293.825 261.91 300.907 255.126 309.973 253.963L309.984 253.974Z" fill="black"/>
<path d="M298.923 238.827L278.561 254.549L276.855 251.84C276.567 250.315 287.67 243.627 289.601 242.592C292.555 241.013 295.595 239.381 298.923 238.816V238.827Z" fill="black"/>
<path d="M293.515 234.272C294.262 234.229 294.998 234.741 294.571 235.339C288.022 239.765 280.908 243.563 275.34 249.291C274.636 248.437 272.908 247.669 273.559 246.4C274.722 244.139 291.019 234.4 293.515 234.272Z" fill="black"/>
<path d="M271.308 240.331C274.359 237.099 283.937 231.211 288.172 230.102C288.641 229.984 290.273 229.131 290.177 230.379C290.091 231.52 273.335 241.355 271.81 244.043C268.855 242.422 269.805 241.92 271.308 240.32V240.331Z" fill="black"/>
<path d="M280.865 220.779C281.132 221.995 280.236 222.101 279.543 222.656C276.844 224.8 273.751 226.592 271.021 228.693C269.474 229.888 265.528 234.005 264.557 234.507C263.277 235.168 262.53 233.419 261.656 232.725C267.074 227.52 273.079 221.952 280.855 220.789L280.865 220.779Z" fill="black"/>
<path d="M261.656 206.219L247.086 218.763L243.609 217.856C243.086 217.099 246.393 214.112 247.097 213.493C250.798 210.219 256.621 206.261 261.666 206.229L261.656 206.219Z" fill="black"/>
<path d="M266.317 209.707C267.458 210.72 259.821 215.499 259.053 216.128C257.763 217.184 253.059 221.91 252.323 222.251C250.702 222.987 249.294 221.579 248.281 220.48C250.424 218.518 264.408 208.011 266.317 209.707Z" fill="black"/>
<path d="M285.526 224.854C285.772 225.974 284.961 226.24 284.311 226.838C281.153 229.707 276.46 232.022 273.026 234.763C270.274 236.96 268.002 242.368 265.73 236.512C272.247 232.502 277.879 226.838 285.526 224.854Z" fill="black"/>
<path d="M274.306 216.811C275.127 216.693 276.257 216.715 275.937 217.867C270.082 220.992 264.983 225.632 260.77 230.677L257.592 228.053C261.784 225.003 269.228 217.568 274.306 216.811Z" fill="black"/>
<path d="M271.554 213.792L255.661 226.507C254.477 225.696 252.611 225.387 253.784 223.67C254.168 223.115 260.973 218.059 262.05 217.376C264.375 215.926 268.973 213.28 271.554 213.782V213.792Z" fill="black"/>
<path d="M248.259 202.134C245.539 202.571 242.894 205.899 240.974 207.958C238.692 210.39 237.06 215.531 233.732 211.755C236.004 208.469 241.444 201.088 245.657 200.928C246.638 200.896 247.95 200.918 248.259 202.134Z" fill="black"/>
<path d="M255.245 203.893C251.352 208.267 245.177 210.837 242.382 216.075L238.948 214.944C238.628 214.517 241.06 211.445 241.475 211.072C241.859 210.731 242.777 210.741 243.299 210.304C246.691 207.52 250.606 203.723 255.256 203.893H255.245Z" fill="black"/>
<path d="M369.959 387.307L368.018 387.797C366.194 386.763 365.671 385.152 366.482 383.253C368.754 382.923 370.076 385.323 369.959 387.307Z" fill="black"/>
<path d="M383.356 442.646V446.731C381.436 448.576 376.86 441.568 383.356 442.646Z" fill="black"/>
<path d="M334.441 335.488C331.774 336 329.577 333.526 331.838 331.414C334.249 331.819 334.772 333.174 334.441 335.488Z" fill="black"/>
<path d="M323.956 326.176C323.06 327.115 318.634 323.68 321.354 322.101C323.839 322.005 324.212 324.16 323.956 326.176Z" fill="black"/>
<path d="M381.446 431.157C382.705 432.192 382.012 434.773 380.732 435.648C378.812 434.379 379.239 432.437 379.281 430.421C379.879 430.837 381.062 430.837 381.446 431.157Z" fill="black"/>
<path d="M374.567 401.824H372.37C370.13 395.787 375.889 397.472 374.567 401.824Z" fill="black"/>
<path d="M375.793 412.374L378.449 412.918C380.444 415.723 374.801 417.974 375.793 412.374Z" fill="black"/>
<path d="M344.339 345.973C341.129 346.613 339.198 342.923 343.187 342.741L344.339 345.973Z" fill="black"/>
<path d="M297.174 308.117C295.446 307.936 292.47 307.445 293.099 305.216C295.318 304.928 297.44 305.483 297.174 308.117Z" fill="black"/>
<path d="M362.973 374.507C360.818 374.944 359.986 372.811 360.072 371.019L362.727 371.563L362.983 374.507H362.973Z" fill="black"/>
<path d="M305.333 310.453C306.101 309.621 310.496 312.693 307.936 313.941C305.941 313.579 304.971 312.576 305.333 310.453Z" fill="black"/>
<path d="M420.548 443.318C423.001 444.875 419.151 448.683 417.391 446.187C415.887 444.054 418.906 442.272 420.548 443.318Z" fill="black"/>
<path d="M438.094 370.443C438.222 372.331 437.966 375.979 435.235 374.464C434.809 372.278 435.555 370.155 438.094 370.443Z" fill="black"/>
<path d="M427.609 397.813C427.758 399.115 427.95 402.613 425.583 401.877C423.577 401.259 425.071 397.013 427.609 397.813Z" fill="black"/>
<path d="M432.259 383.851C432.473 390.112 426.969 388.053 430.521 383.52L432.259 383.851Z" fill="black"/>
<path d="M457.613 341.333C458.786 342.059 458.242 342.848 457.741 343.776C455.501 347.904 452.834 342.208 457.613 341.333Z" fill="black"/>
<path d="M423.535 415.861C418.191 414.645 423.865 409.515 424.153 413.237C424.217 414.144 423.599 414.976 423.535 415.861Z" fill="black"/>
<path d="M464.311 334.325C463.607 331.595 465.964 331.435 467.799 330.251C468.14 332.416 466.668 334.496 464.311 334.325Z" fill="black"/>
<path d="M392.091 332C385.094 330.027 377.062 328.224 370.396 325.461C369.756 325.195 363.57 322.667 364.733 321.525L392.091 332Z" fill="black"/>
<path d="M392.678 323.861C392.806 324.928 391.44 324.363 390.811 324.277C384.262 323.435 373.009 319.595 367.068 316.565C366.397 316.224 365.458 316.021 365.309 315.125L392.678 323.861Z" fill="black"/>
<path d="M390.342 337.835L388.571 338.155L367.826 331.52L363.57 329.099L390.342 337.835Z" fill="black"/>
<path d="M390.929 344.821C391.025 345.963 389.179 345.248 388.571 345.141C383.878 344.245 379.143 341.589 374.321 340.757L365.895 336.672C374.364 339.029 382.694 341.771 390.929 344.821Z" fill="black"/>
<path d="M393.254 316.864C393.382 317.909 391.942 317.429 391.291 317.365C385.457 316.811 380.006 314.304 374.471 312.629L369.959 310.453L393.243 316.864H393.254Z" fill="black"/>
<path d="M393.84 311.616L375.793 306.965C380.743 307.467 386.321 308.491 391.057 310.037C392.049 310.357 393.499 310.389 393.84 311.616Z" fill="black"/>
<path d="M121.322 464.779C136.244 466.464 150.078 468.736 165 465.077C177.276 462.059 186.919 456.085 195.27 446.731C194.14 455.499 183.633 460.053 176.21 462.891C162.12 468.256 141.15 472.075 126.453 468.107C124.65 467.616 121.365 467.115 121.333 464.789L121.322 464.779Z" fill="black"/>
<path d="M120.8 461.803L120.736 459.541C126.965 460.192 133.396 462.112 139.636 462.475C153.331 463.264 176.583 459.349 186.844 449.653C189.297 447.339 190.769 444.085 193.521 442.069C190.694 452.683 175.911 458.443 166.162 461.003C151.859 464.747 135.028 466.144 120.8 461.813V461.803Z" fill="black"/>
<path d="M120.159 454.88C121.087 454.091 138.868 458.304 141.982 458.4C149.726 458.635 163.25 455.808 170.685 453.28C178.578 450.592 185.862 445.44 190.62 438.571C190.374 443.488 184.839 447.211 180.903 449.525C168.135 457.024 137.897 462.56 123.925 457.824C123.434 457.653 118.997 455.893 120.17 454.891L120.159 454.88Z" fill="black"/>
<path d="M149.843 453.141L143.721 454.293C140.713 454.677 121.962 454.048 121.375 451.637L122.175 449.067C130.836 452.565 140.5 454.197 149.843 453.141Z" fill="black"/>
<path d="M145.769 448.48C145.908 449.493 144.446 449.024 143.742 449.056C138.473 449.269 129.151 449.397 124.341 447.488C121.386 446.315 122.218 444.651 124.81 445.259C131.636 446.859 138.633 448.789 145.769 448.48Z" fill="black"/>
<path d="M138.783 443.819C138.388 444.853 135.316 444.48 134.399 444.416C133.3 444.341 122.272 442.944 124.821 440.32L138.793 443.819H138.783Z" fill="black"/>
<path d="M180.135 443.808L184.775 438.848L187.697 434.496C188.476 439.189 183.985 442.24 180.135 443.808Z" fill="black"/>
<path d="M138.783 439.744C138.943 440.725 137.364 440.384 136.756 440.32C135.156 440.149 132.02 439.477 130.506 438.997C128.554 438.379 126.271 437.643 128.01 435.669C130.836 438.229 135.188 438.773 138.783 439.744Z" fill="black"/>
<path d="M140.532 435.669C140.649 436.672 138.484 436.32 137.908 436.245C136.585 436.075 135.028 435.616 133.801 435.104C133.001 434.773 130.367 433.429 130.634 432.16C134.207 432.64 136.82 435.797 140.521 435.659L140.532 435.669Z" fill="black"/>
<path d="M142.281 432.171C142.42 433.216 141.001 432.704 140.393 432.597C138.036 432.192 134.74 430.837 133.545 428.672L142.281 432.171Z" fill="black"/>
<path d="M606.98 449.632C623.972 467.531 649.485 468.331 672.47 464.747C672.865 464.683 674.614 463.829 674.518 465.067C674.465 465.749 671.82 467.509 670.924 467.861C655.724 473.856 621.156 465.28 609.604 453.707C608.708 452.811 607.236 450.923 606.991 449.632H606.98Z" fill="black"/>
<path d="M675.606 461.216C674.667 462.837 664.78 464.597 662.572 464.768C650.423 465.696 630.04 461.163 619.598 454.763C618.425 454.048 616.9 453.259 616.281 451.968C619.161 453.088 621.764 454.944 624.622 456.139C640.696 462.912 658.018 463.733 674.827 459.083C675.595 459.2 675.969 460.576 675.606 461.216Z" fill="black"/>
<path d="M675.681 454.304C677.28 455.883 671.009 458.496 669.985 458.795C658.199 462.293 639.768 458.027 628.536 453.408C627.843 453.12 626.201 452.811 626.19 451.979C631.31 453.141 636.152 455.285 641.304 456.363C648.781 457.92 657.847 457.888 665.42 456.565C668.876 455.957 672.054 454.069 675.681 454.315V454.304Z" fill="black"/>
<path d="M675.105 449.643C675.105 450.549 675.371 451.573 674.529 452.267C673.409 453.195 666.145 454.763 664.353 454.901C654.189 455.701 644.642 452.928 634.915 450.517C634.915 449.643 647.928 452.448 649.197 452.544C658.551 453.259 666.135 450.688 675.105 449.643Z" fill="black"/>
<path d="M673.345 444.405L673.942 447.307C663.98 451.189 654.935 450.731 644.824 447.883C644.696 446.837 646.136 447.317 646.786 447.371C656.546 448.256 663.948 446.72 673.345 444.395V444.405Z" fill="black"/>
<path d="M671.542 440.373L672.182 442.613C664.62 445.376 656.002 447.008 648.322 443.808C648.205 442.709 649.538 443.339 650.189 443.392C657.794 444.117 664.097 441.195 671.542 440.373Z" fill="black"/>
<path d="M666.935 435.061C659.159 437.685 652.365 437.749 644.248 436.821L653.591 435.403C656.855 435.445 662.487 431.925 665.025 431.68C666.54 431.541 667.276 433.792 666.935 435.051V435.061Z" fill="black"/>
<path d="M657.922 439.157C660.45 438.859 665.964 436.053 667.799 436.235C669.057 436.363 670.657 437.973 669.27 438.859C666.988 440.928 655.895 441.216 652.727 440.853C651.863 440.757 649.229 440.139 648.898 439.157C651.778 438.912 655.106 439.488 657.922 439.157Z" fill="black"/>
<path d="M642.499 432.16L653.581 430.731L661.441 428.075C666.081 431.157 658.796 432.981 656.108 433.259C651.383 433.728 647.16 432.277 642.499 432.16Z" fill="black"/>
<path d="M649.773 427.509C651.543 427.296 656.013 426.123 656.802 424.565C658.391 424.96 659.746 425.675 659.383 427.499C653.794 429.365 648.728 429.387 642.947 428.512C642.349 428.416 640.632 428.352 640.749 427.509C643.629 427.264 646.957 427.84 649.773 427.509Z" fill="black"/>
<path d="M666.732 243.851C664.588 246.912 660.428 249.621 658.103 252.64C653.41 252.181 650.146 257.291 645.986 258.613C649.858 253.931 656.46 252.245 660.556 247.861C663.265 244.971 665.868 240.107 667.542 236.491C671.276 236.821 667.948 242.101 666.732 243.851Z" fill="black"/>
<path d="M632.014 262.699C631.694 261.152 632.398 261.696 633.155 261.248C643.149 255.392 652.887 250.667 660.524 241.419C662.732 238.741 664.151 235.627 666.358 232.992C666.998 234.731 666.327 236.117 665.527 237.685C661.527 245.44 644.962 256.16 637.059 260.459C635.438 261.344 633.742 262.037 632.014 262.688V262.699Z" fill="black"/>
<path d="M643.074 251.627C648.013 247.552 653.517 244.107 657.623 239.104C658.082 238.539 660.716 235.029 660.802 234.773C661.121 233.845 660.236 230.869 662.007 229.515C665.655 234.464 661.143 238.261 657.655 241.461C653.613 245.163 648.002 249.323 643.085 251.637L643.074 251.627Z" fill="black"/>
<path d="M659.788 230.528C659.745 230.635 659.084 230.709 658.871 231.147C656.588 235.669 654.124 240.576 648.909 242.315C649.751 240.853 651.191 240.405 652.311 239.029C653.975 236.992 657.356 228.597 658.209 228.032C659.596 227.115 660.396 229.109 659.799 230.528H659.788Z" fill="black"/>
<path d="M648.898 236.491C651.565 233.696 652.621 229.931 654.572 226.752C655.586 225.109 657.282 226.123 656.802 227.797C656.46 229.003 650.317 237.813 648.887 236.491H648.898Z" fill="black"/>
<path d="M643.661 263.285C643.235 264.427 641.763 264.864 640.739 265.301C635.363 267.659 627.971 269.333 622.116 269.088L630.755 267.552L643.651 263.275L643.661 263.285Z" fill="black"/>
<path d="M652.887 224.939C653.794 226.453 648.813 233.557 647.736 232.416C648.834 229.451 650.679 227.093 650.061 223.691L652.887 224.949V224.939Z" fill="black"/>
<path d="M646.562 233.003C645.538 233.035 645.901 230.4 645.986 229.803C646.242 227.925 647.266 226.635 647.48 225.451C647.64 224.555 645.293 223.051 647.437 223.104C649.954 225.931 645.858 229.643 646.562 232.992V233.003Z" fill="black"/>
<path d="M614.543 259.211L625.603 257.461C626.147 258.667 623.94 259.211 623.566 259.211H614.543Z" fill="black"/>
<path d="M155.272 261.408C155.155 261.28 155.592 260.608 155.112 260.117C152.904 257.856 147.177 255.851 145.193 252.512C146.217 251.584 147.443 253.813 148.403 254.539C153.832 258.635 160.104 262.347 166.717 264.181C168.936 264.8 182.993 266.624 183.025 268.235C177.479 271.221 168.434 268.011 162.941 265.621C161.576 265.024 156.051 262.197 155.272 261.408Z" fill="black"/>
<path d="M184.785 263.285C185.18 264.64 183.9 264.843 182.865 264.821C174.13 264.661 168.253 262.731 160.733 258.507C155.934 255.808 150.302 251.872 146.355 248.139C151.177 250.187 155.112 254.24 159.56 256.768C167.229 261.12 176.306 261.568 184.785 263.285Z" fill="black"/>
<path d="M185.372 249.888H177.223L182.609 250.613L184.209 251.627C179.378 250.997 173.437 251.947 169.661 248.416C168.37 245.152 182.993 246.571 184.423 246.475C185.767 246.923 185.361 248.757 185.372 249.888Z" fill="black"/>
<path d="M185.948 252.224L185.884 255.072C183.719 256.992 167.261 254.144 167.304 252.512C173.202 250.827 179.698 254.251 185.937 252.224H185.948Z" fill="black"/>
<path d="M185.361 257.483V259.211C182.257 258.379 178.951 258.976 175.836 258.56C173.117 258.197 163.432 256.064 161.523 254.816C160.883 254.389 160.029 253.547 159.752 252.811C167.773 256.373 176.828 256.075 185.361 257.483Z" fill="black"/>
<path d="M184.209 242.315V245.237C179.452 245.184 172.914 245.909 169.65 241.749L184.209 242.325V242.315Z" fill="black"/>
<path d="M180.711 236.491C174.226 237.707 169.202 234.272 165.576 229.515C167.112 229.472 167.602 231.019 168.914 231.701C169.447 231.979 173.863 233.952 174.162 234.027C176.7 234.667 181.159 232.768 180.711 236.491Z" fill="black"/>
<path d="M171.101 240.576C170.45 240.48 169.223 239.851 169.65 238.827L181.607 238.197L182.364 238.325L183.036 240.565C179.324 240.181 174.674 241.088 171.101 240.565V240.576Z" fill="black"/>
<path d="M185.372 259.797C183.281 262.123 177.682 260.8 174.898 260.075C174.236 259.904 173.01 260.117 173.149 259.221L185.372 259.808V259.797Z" fill="black"/>
<path d="M534.174 460.128L528.649 461.28L517.3 461.856L521.662 460.704L534.174 460.128Z" fill="black"/>
<path d="M273.879 412.96C274.018 414.016 272.62 413.483 271.991 413.387C267.842 412.747 261.4 410.293 258.157 407.712L273.879 412.949V412.96Z" fill="black"/>
<path d="M661.708 493.323C658.882 496.811 653.207 497.515 648.898 497.984C648.898 498.997 651.437 498.624 652.13 498.592C653.655 498.528 654.989 498.176 656.471 497.984L651.255 501.781L641.336 504.373L643.096 500.299C645.101 501.056 648.333 501.557 650.061 500L643.661 499.115C644.002 497.269 644.312 495.264 646.008 494.165C651.255 494.912 656.503 493.973 661.719 493.312L661.708 493.323Z" fill="black"/>
<path d="M604.058 479.925C609.306 482.421 614.127 485.333 619.63 487.349C622.073 488.245 633.187 490.827 633.784 491.243C634.819 491.968 634.68 495.104 633.134 494.816C628.824 493.803 625.454 493.173 621.316 491.467C615.3 488.992 608.218 484.928 604.058 479.904V479.925Z" fill="black"/>
<path d="M632.59 489.227C622.723 487.669 613.049 482.784 605.274 476.661C604.133 475.765 601.925 474.411 601.733 472.928C606.82 475.648 611.748 478.88 617.049 481.184C619.886 482.421 630.414 485.355 631.672 486.944C632.099 487.477 632.184 488.555 632.59 489.227Z" fill="black"/>
<path d="M633.176 495.648C633.56 496.725 632.078 498.848 631.15 498.944C630.691 498.987 623.299 496.811 622.233 496.395C617.017 494.4 610.991 490.816 606.97 486.912C615.353 490.603 623.897 494.837 633.176 495.648Z" fill="black"/>
<path d="M665.783 488.075C667.745 489.813 657.367 492.427 656.61 492.587C654.018 493.109 650.882 492.576 648.322 493.899L650.423 488.619L665.783 488.075Z" fill="black"/>
<path d="M630.265 499.723C630.425 500.885 630.371 500.683 629.55 501.035C625.294 502.869 617.412 498.421 614.553 495.072C619.631 496.981 624.644 499.819 630.275 499.723H630.265Z" fill="black"/>
<path d="M195.27 474.688C195.398 474.805 194.353 476.384 194.097 476.715C189.702 482.389 174.514 487.904 167.442 489.653C165.864 490.048 164.338 490.581 162.664 490.411V486.325C174.215 485.451 184.903 479.445 195.27 474.688Z" fill="black"/>
<path d="M192.934 481.664C193.147 482.72 192.422 483.115 191.74 483.659C189.382 485.557 182.919 489.493 180.114 490.667C177.02 491.957 162.728 495.904 160.339 494.763L159.283 493.515C159.528 489.952 162.355 491.861 164.68 491.573C174.663 490.357 183.228 483.819 192.945 481.664H192.934Z" fill="black"/>
<path d="M143.273 489.419C144.617 491.989 147.486 493.013 149.267 495.36C149.715 495.947 152.137 499.435 150.249 499.051C148.233 498.645 146.58 498.827 144.948 498.517C141.022 497.771 136.02 495.339 132.97 492.747L147.529 494.784C144.532 491.531 138.911 492.128 134.591 490.837C133.396 490.485 131.242 489.504 130.068 488.928C129.226 488.523 128.607 489.056 128.906 487.499L143.284 489.419H143.273Z" fill="black"/>
<path d="M189.446 487.499C185.82 492.245 178.578 495.851 172.871 497.408C170.194 498.144 162.259 500.32 160.925 497.088C160.669 495.691 161.565 496.384 162.387 496.245C167.816 495.317 174.119 494.005 179.282 492.171C182.887 490.891 185.916 488.832 189.446 487.499Z" fill="black"/>
<path d="M182.46 495.061C178.503 499.776 169.362 505.408 163.826 500.587C170.439 499.925 176.54 498.005 182.46 495.061Z" fill="black"/>
<path d="M152.755 503.797C149.342 502.4 144.862 502.709 142.281 499.733C145.705 501.589 152.435 499.093 152.755 503.797Z" fill="black"/>
<path d="M491.67 454.293C492.064 455.989 490.198 457.493 490.038 458.784C489.643 462.016 491.627 461.44 488.48 465.365C478.902 477.323 438.936 484.117 423.759 485.664C395.984 488.501 351.101 484.949 325.503 473.429C320.042 470.976 308.885 466.069 309.109 459.541C310.506 460.501 310.89 463.072 312.895 463.029C313.685 459.573 309.578 457.397 309.696 454.304C322.111 462.645 336.627 467.755 351.229 471.008C385.67 478.677 430.052 477.792 463.852 467.531C473.708 464.544 483.521 460.736 491.67 454.304V454.293ZM322.207 468.267C322.559 465.387 322.282 462.517 318.698 463.285C316.65 466.059 320.404 467.189 322.207 468.267ZM482.358 463.029L480.097 463.947L480.651 467.072L483.531 467.104L482.369 463.029H482.358ZM329.855 471.093C331.358 471.381 332.852 473.397 334.185 473.525C339.187 474.005 332.734 465.803 330.42 467.755L329.844 471.093H329.855ZM470.124 471.755C469.676 466.763 461.965 472.587 466.348 472.96C467.682 473.077 468.823 471.84 470.124 471.755ZM453.869 476.96C456.834 477.589 459.405 474.08 457.015 471.765C455.096 472.736 452.418 474.656 453.869 476.96ZM347.848 473.525L343.56 472.395C341.513 473.056 342.547 477.6 345.534 476.779C347.08 476.341 347.336 474.837 347.848 473.525ZM371.719 480.491C369.596 477.653 364.167 477.952 360.637 477.312C357.32 476.715 354.451 475.093 350.76 475.84L356.424 478.603L371.719 480.48V480.491ZM447.416 475.851C444.845 474.891 442.115 477.739 440.59 478.059C438.712 478.453 432.569 475.84 431.705 479.915C432.26 480.384 444.909 478.325 446.093 477.707C446.915 477.28 447.64 476.928 447.427 475.84L447.416 475.851ZM375.239 481.056C377.543 481.92 380.646 483.371 382.769 481.387C380.902 477.365 375.772 475.157 375.239 481.056ZM426.447 481.077C427.236 480.235 423.641 478.197 423.129 477.653L421.796 477.845C420.292 478.859 420.591 480.629 420.633 482.24L426.457 481.067L426.447 481.077ZM396.176 482.24C407.578 485.803 402.555 475.029 397.061 480.512C396.507 481.067 395.952 481.259 396.176 482.24ZM415.972 482.251C415.716 478.955 412.165 477.152 410.234 480.309L411.119 482.165L415.972 482.251Z" fill="black"/>
<path d="M432.867 214.944C435.481 218.805 437.934 217.728 441.966 216.768C446.296 215.744 450.776 214.347 450.914 209.12L453.24 209.696L452.077 207.371L455.565 207.947C455.394 206.368 451.682 206.411 451.49 206.197C451.832 204.267 453.24 204.533 451.49 202.709C463.234 206.624 462.498 216.437 456.397 225.365C448.728 236.587 432.078 226.709 432.867 214.933V214.944ZM443.342 219.616L435.193 218.453C435.001 220.821 439.8 220.256 441.315 220.192C442.019 220.16 443.48 220.64 443.342 219.616ZM449.741 226.016C445.133 226.133 441.155 223.915 436.931 222.517C439.256 225.099 444.333 226.315 447.715 226.581C448.355 226.635 449.88 227.008 449.741 226.016ZM441.592 227.755C447.075 228.512 454.456 230.123 456.141 223.104C452.098 228.171 449.325 227.659 443.619 227.189C442.979 227.136 441.443 226.763 441.592 227.755Z" fill="black"/>
<path d="M622.702 581.248C624.643 582.912 625.635 584.139 628.515 583.573L623.865 580.672C629.432 582.752 637.816 578.411 637.261 571.936L639.587 572.512L637.261 568.448C649.431 569.728 650.178 588.448 639.405 592.427C630.691 595.637 622.158 591.051 622.702 581.259V581.248ZM639.587 589.984H631.139C630.062 589.984 627.683 587.947 626.489 587.648C626.147 588.629 628.217 589.664 628.867 589.931C631.022 590.795 633.411 591.157 635.715 591.093C636.269 591.083 639.395 590.709 639.587 589.984Z" fill="black"/>
<path d="M386.278 648.224L387.462 651.691L393.84 652.299L392.678 650.88L388.027 649.397C391.963 649.707 398.693 647.243 400.837 643.861C402.544 641.184 401.008 637.707 405.488 639.488C405.136 637.835 400.165 636.651 402.277 634.848C412.111 636.917 414.852 649.547 408.4 656.672C400.389 665.504 385.649 660.053 386.278 648.235V648.224Z" fill="black"/>
<path d="M151.603 576.597L154.376 584.587L156.254 585.909L153.342 578.933C154.739 578.859 155.315 580.277 156.67 580.565C160.019 581.291 167.645 578.219 167.912 574.283L172.551 575.435C171.933 574.197 170.354 574.571 169.384 573.077C168.818 572.203 168.093 569.973 168.765 569.045C183.889 574.347 176.263 596.949 160.435 593.099C152.265 591.115 150.857 584.053 151.603 576.608V576.597Z" fill="black"/>
<path d="M652.972 281.931L636.792 287.04L633.176 286.571L649.357 281.461L652.972 281.931Z" fill="black"/>
<path d="M655.884 282.507C651.725 287.008 644.92 288.544 639 289.483L653.229 283.051L655.884 282.507Z" fill="black"/>
<path d="M651.81 289.493C653.954 288.64 656.322 286.464 657.058 284.256C657.623 283.84 659.159 285.205 659.361 285.728C659.756 286.731 658.956 286.517 658.636 286.731C656.556 288.213 654.284 289.365 652.087 290.645C651.618 290.699 651.714 289.781 651.799 289.483C650.167 290.133 647.767 290.528 645.976 290.645L653.26 286.581L654.124 286.859C653.474 287.669 652.098 288.501 651.799 289.483L651.81 289.493Z" fill="black"/>
<path d="M165.576 288.32C163.25 289.408 146.974 284.533 146.953 283.371C147.635 282.389 148.499 282.443 149.566 282.443C151.496 282.453 161.405 285.984 163.688 286.997C164.392 287.307 165.405 287.285 165.565 288.309L165.576 288.32Z" fill="black"/>
<path d="M171.389 286.005C171.495 286.859 169.255 287.061 168.776 287.04C166.333 286.965 155.763 282.912 153.491 281.493C152.648 280.96 152.296 280.096 152.766 279.595C153.086 279.253 160.744 282.251 161.651 282.645C162.941 283.211 163.944 284.757 165.448 285.259C167.048 285.792 169.65 285.813 171.399 286.005H171.389Z" fill="black"/>
<path d="M162.077 291.232C157.374 290.155 151.998 289.227 147.529 287.445C146.825 287.168 145.929 286.848 145.78 286.005C150.217 286.368 156.03 288.181 160.211 289.92C160.936 290.219 161.928 290.24 162.088 291.243L162.077 291.232Z" fill="black"/>
<path d="M152.755 291.243C152.904 292.213 151.358 291.861 150.697 291.84C147.646 291.765 143.721 290.699 141.694 288.331C145.289 289.589 148.766 291.584 152.755 291.243Z" fill="black"/>
<path d="M673.153 267.168C671.414 269.152 667.937 271.147 666.07 273.184L664.62 269.12C670.262 267.2 674.07 261.227 678.006 256.885C678.24 260.021 675.179 264.864 673.153 267.168Z" fill="black"/>
<path d="M670.828 275.317C669.452 276.501 667.009 277.931 665.207 276.981L676.257 266.784C676.065 269.184 672.598 273.781 670.817 275.317H670.828Z" fill="black"/>
<path d="M668.118 280.171L675.681 272.021C675.275 275.755 671.841 279.488 668.118 280.171Z" fill="black"/>
<path d="M239.364 395.307C235.481 398.432 221.733 393.237 223.514 386.752L227.3 389.664C228.164 388.757 221.167 383.84 224.111 383.264C225.167 383.061 225.562 385.077 227.524 385.003C228.186 384.981 236.142 381.717 236.484 381.376C237.316 380.544 237.988 375.488 236.622 374.528C243.907 375.189 246.595 383.637 243.907 389.664C243.587 390.379 239.918 394.859 239.374 395.307H239.364Z" fill="black"/>
</g>
<defs>
<clipPath id="clip0_8061_339">
<rect width="576" height="536" fill="white" transform="translate(112 132)"/>
</clipPath>
</defs>
</svg>
