<svg width="800" height="800" viewBox="0 0 800 800" fill="none" xmlns="http://www.w3.org/2000/svg">
<path d="M255.024 295.7C256.641 295.985 259.221 297.615 257.344 299.406C256.443 300.27 249.988 301.487 247.865 302.339C243.853 303.97 239.199 306.779 236.225 309.904C239.632 310.015 243.199 308.126 246.519 307.743C248.704 307.496 255.369 307.249 256.962 308.36C258.184 309.213 258.628 311.034 257.369 311.911C256.9 312.232 251.012 313.424 249.087 314.227C244.544 316.129 237.755 321.032 234.904 325.034C234.262 325.936 232.941 327.702 233.917 328.74C236.422 324.503 251.123 319.557 254.69 321.175C260.319 323.719 253.308 326.331 251.469 327.813C248.21 330.456 242.791 338.318 242.31 342.48C241.804 346.889 246.075 340.405 246.766 339.701C249.691 336.7 254.715 330.981 258.628 335.687C256.826 338.441 254.518 340.806 252.703 343.561C251.16 345.92 246.272 356.109 244.803 356.838C243.433 357.517 242.014 357.005 240.878 356.066C240.36 355.634 235.842 349.415 235.706 348.81C234.25 342.387 236.805 337.12 238.866 331.364C238.163 330.5 221.215 346.933 225.202 330.592C226.424 325.565 229.707 321.335 232.941 317.469C224.19 318.507 215.969 321.866 207.884 325.189C205.366 326.226 199.787 329.956 197.491 328.894C191.628 326.177 203.268 319.909 205.65 318.859C211.921 316.08 219.067 314.962 225.659 313.146L232.287 304.655C232.497 303.198 232.077 303.914 231.3 303.729C225.893 302.432 217.673 301.462 212.167 301.722C209.205 301.87 197.75 304.964 196.726 301.876C195.948 298.739 199.404 298.362 201.651 297.708C212.13 294.669 223.054 297.028 233.608 298.325L232.337 295.546C235.632 291.446 241.076 290.186 245.408 287.518C239.656 273.376 238.619 257.153 239.57 241.974C239.94 235.959 241.261 230.03 243.223 224.373L238.582 219.124C232.262 231.278 216.833 252.398 202.058 239.195C202.688 236.663 203.379 234.81 203.206 232.093C202.786 225.127 198.034 213.492 196.454 205.847C193.122 189.593 192.492 172.684 198.985 157.06C210.588 129.11 233.67 135.909 258.282 132.512C270.589 130.808 282.401 125.8 295.004 128.653C292.35 124.947 285.179 124.009 287.129 118.154L288.067 118C298.621 119.47 307.545 125.491 314.47 133.284L313.482 121.397C316.432 118.543 323.999 130.234 325.233 132.358C327.331 135.965 329.047 139.972 330.356 143.937C350.5 137.898 370.422 135.693 391.122 140.386C406.885 143.968 423.277 150.533 436.571 159.685C438.57 156.622 442.446 153.54 445.557 151.502C448.84 149.341 456.715 143.857 457.739 150.576L450.778 157.678C456.481 155.38 467.466 150.113 473.465 150.421C477.847 150.644 475.415 154.016 473.206 155.671C476.526 155.312 487.771 152.83 489.771 155.362L490.277 158.295L482.451 161.074C482.253 161.321 482.846 161.828 483.118 162.001C486.586 164.211 493.437 165.644 497.461 168.176C503.459 171.955 508.866 175.741 515.433 179.138C527.43 185.35 550.55 192.971 558.684 202.605C562.078 206.619 568.324 217.451 563.634 221.749L557.684 214.492C565.892 233.402 555.672 254.652 543.798 269.609C536.466 278.848 526.788 285.616 518.062 293.385C514.235 296.794 510.545 301.345 506.879 304.655C501.744 309.287 495.658 308.49 490.129 304.809C485.512 301.734 482.377 295.954 478.143 292.458L471.873 300.023L476.872 301.722C478.81 304.167 469.046 311.831 468.256 313.609C467.515 315.302 467.762 317.58 466.701 319.939C465.528 322.57 459.468 332.185 457.616 334.606C453.74 339.683 446.532 343.715 442.977 349.582C445.297 360.784 450.37 370.906 461.615 375.056C464.331 376.056 471.441 376.001 469.083 380.151C467.454 383.028 457.048 383.356 454.049 381.54C458.209 388.691 467.046 391.094 473.416 395.589C473.551 401.271 466.985 399.647 463.294 400.376C469.959 407.761 475.107 413.313 484.179 417.821C486.697 419.069 500.016 423.416 499.559 426.158C499.497 426.541 498.67 427.363 498.263 427.548L489.042 429.092L514.482 437.737L514.704 439.281L512.989 440.825L503.558 442.369C508.15 444.419 523.16 450.045 525.641 453.639C526.492 454.874 526.554 456.394 527.603 457.653C528.788 459.086 531.751 460.278 532.973 462.131C534.059 462.378 535.565 459.42 536.009 458.58C547.39 437.101 539.873 406.347 526.258 387.561C523.592 383.881 514.062 374.105 513.1 371.042C509.52 359.728 528.208 363.205 533.935 364.712C552.339 369.578 570.842 384.511 579.483 401.456C581.062 400.419 581.803 396.059 584.457 398.06C587.876 400.629 590.801 421.465 592.826 426.776C593.64 428.913 594.887 428.524 595.245 431.562C596.344 440.825 594.616 450.885 594.011 460.124C596.479 458.246 598.035 450.601 599.59 449.008C600.651 447.921 604.601 447.878 605.12 449.471C607.712 457.338 594.381 476.229 590.036 482.973C589.863 483.949 590.036 484.239 591.024 484.054C593.9 483.523 595.714 477.329 599.084 476.798C605.984 475.723 598.541 487.185 597.158 489.457C592.863 496.534 586.864 506.032 581.976 512.616C579.001 516.63 575.693 520.292 571.632 523.268C577.224 534.199 581.001 545.988 582.087 558.314C583.284 571.863 581.285 583.449 577.137 596.294C572.533 610.547 564.275 624.701 552.389 633.964C562.597 634.187 582.926 635.2 582.926 635.2L239.903 633.192C239.903 633.192 237.36 615.481 242.483 608.799C246.334 603.785 253.641 600.79 256.814 595.985C262.961 586.697 264.417 565.478 264.639 554.3C264.701 551.027 264.503 547.939 263.948 544.728C261.59 546.927 259.973 550.607 256.048 549.669C255.332 549.175 254.789 548.563 254.69 547.662C254.505 545.71 259.566 536.404 260.467 533.612C264.701 520.421 261.751 505.477 261.961 491.928C259.628 491.396 259.628 493.515 258.023 494.861C255.567 496.899 252.172 497.615 250.691 494.243C250.568 492.835 254.937 487.648 255.937 485.598C260.751 475.692 261.22 463.082 261.948 452.25C260.689 452.608 260.763 454.529 259.307 455.183C257.85 455.838 254.876 456.196 254.123 454.566C252.481 449.638 262.331 431.574 266.219 427.857C267.639 426.498 280.501 419.458 280.426 423.534C278.464 425.707 275.921 428.147 274.218 430.481C272.366 433.038 266.972 441.498 265.923 444.067C265.762 444.463 265.799 445.129 266.244 444.994L270.527 441.751C270.404 446.692 270.712 451.632 270.564 456.573C270.231 467.627 269.836 474.519 270.527 485.598C271.49 501.135 271.329 516.389 271.823 531.914C272.403 550.07 275.699 568.979 270.046 586.876C268.811 590.804 266.441 594.274 265.923 598.301L268.552 597.22C264.022 606.928 252.58 607.243 248.432 617.445C245.939 623.583 245.63 633.779 254.036 633.964C249.827 628.678 255.579 613.857 262.134 614.82C267.244 615.561 262.442 620.78 261.64 623.312C260.837 625.844 260.134 635.2 264.281 635.2H273.847C269.49 628.048 275.995 615.006 284.413 620.996C284.648 622.033 277.674 627.882 282.13 633.192C283.636 634.983 292.387 635.212 294.325 634.273C296.473 633.236 295.436 629.24 295.646 627.326C300.028 625.35 300.015 636.231 302.941 632.266C305.866 628.301 300.139 620.928 298.83 617.136C298.485 616.148 298.028 616.414 299.287 615.438C301.966 614.87 305.953 622.614 307.212 624.701C307.471 625.133 307.693 627.023 308.841 625.936C308.964 625.825 309.532 623.485 309.545 623.003C309.631 617.124 302.842 611.553 300.818 606.638C300.497 605.847 300.201 605.1 301.274 604.94C306.619 607.249 309.816 613.134 314.124 616.827C314.358 614.925 314.124 613.628 313.371 611.887C312.137 609.009 300.052 595.065 300.275 593.978C300.645 592.187 302.768 593.472 303.533 593.978C307.668 596.695 311.149 603.025 315.79 605.557L315.815 602.161C311.186 595.923 305.619 590.211 301.237 583.788C300.633 582.899 299.929 582.547 300.262 581.164C301.386 581.102 302.472 580.991 303.546 581.473C306.422 582.757 312.556 591.817 315.729 593.669C316.778 594.274 317.531 594.447 318.728 594.287C314.186 583.912 304.866 576.483 298.275 567.578C298.115 566.503 298.238 566.423 299.275 566.497C301.731 566.67 310.211 574.408 312.495 576.532C314.593 578.484 315.901 581.942 319.395 582.399C314.889 571.283 304.41 563.02 296.967 553.683L299.151 552.139L319.074 569.276C319.95 565.793 315.469 561.291 313.136 558.623C307.952 552.707 301.719 547.513 296.609 541.486C295.843 538.719 298.473 539.868 299.929 540.869C305.693 544.821 311.89 551.639 317.716 555.381C318.333 555.776 319.543 556.616 320.049 555.69L318.432 552.602L292.424 527.128C291.943 525.893 292.992 524.559 294.35 525.275C298.633 528.203 303.089 532.538 307.471 535.156C308.347 535.675 308.816 536.583 310.137 536.237C307.582 530.333 301.435 526.918 297.966 521.57C292.955 513.851 292.424 500.302 290.264 491.31C289.462 490.655 285.672 492.52 284.549 489.457C282.599 484.159 286.882 467.195 293.301 466.762C298.991 466.379 294.918 470.999 294.103 473.555C293.597 475.149 291.091 484.535 291.659 485.289C295.214 484.449 294.794 479.113 298.905 479.422C298.67 491.304 299.176 503.68 303.336 514.931C304.064 516.908 304.805 519.359 306.817 520.335C306.397 512.776 303.163 502.809 308.471 496.559C309.125 497.3 310.372 498.066 310.643 499.029C311.655 502.549 311.507 509.614 312.272 513.851C314.692 527.289 320.073 540.035 330.244 549.36L330.565 548.434C324.961 539.775 319.209 525.794 320.012 515.395C320.073 514.666 319.629 513.14 320.987 513.696C323.011 514.524 324.147 521.391 324.986 523.577C330.701 538.522 338.737 554.121 351.018 564.644C347.784 557.283 342.069 550.83 338.823 543.493C336.132 537.416 334.355 529.604 334.194 522.96C336.935 525.862 337.256 530.574 338.836 534.23C344.736 547.952 354.314 561.025 365.226 571.129C366.337 570.425 364.954 569.795 364.559 569.276C355.326 557.234 345.822 543.833 344.439 528.209C345.452 528.369 345.686 529.462 346.069 530.216C351.191 540.245 354.82 548.353 361.708 557.542C365.164 562.149 368.632 567.534 374.125 569.893C374.298 568.819 373.619 568.059 373.088 567.269C370.879 564.008 367.707 560.927 365.275 557.234C359.054 547.748 353.586 535.7 352.352 524.349C353.364 524.51 353.598 525.59 353.981 526.356C360.128 538.472 365.719 552.244 376.754 560.63C377.186 555.69 372.471 552.225 370.04 547.816C365.608 539.8 361.757 529.821 359.597 520.952C361.152 520.557 361.436 522.36 362.09 523.423C366.065 529.882 369.546 538.411 374.236 544.265C374.705 544.846 377.31 548.23 378.075 547.353C379.248 542.943 375.89 538.207 375.409 534.539C375.211 533.019 377.372 534.199 376.754 532.223L373.446 533.304C370.41 531.71 367.657 516.401 366.522 512.461C364.016 503.741 360.078 496.497 360.881 486.987C361.226 482.887 362.436 479.052 367.225 481.275C367.941 488.031 367.694 496.72 372.792 501.808C372.533 496.831 372.977 492.063 374.459 487.296C375.162 485.011 375.557 481.627 378.742 482.047C380.001 483.381 373.274 500.641 373.471 503.815C375.52 502.778 376.199 499.665 377.47 498.257C378.236 497.405 381.605 494.682 382.05 496.868C382.432 498.77 374.347 515.432 376.113 519.717C377.359 519.507 377.186 518.241 377.507 517.402C379.285 512.671 380.865 507.904 382.716 503.198C386.049 504.927 385.457 509.04 385.37 512.152C384.79 533.359 392.85 563.508 379.297 581.936C378.532 582.973 372.015 588.951 372.817 589.655C380.235 589.643 384.259 582.288 388.333 577.15L389.974 578.694C386.962 585.437 384.802 592.829 380.075 598.61C381.963 599.919 387.913 595.645 387.999 599.227C388.135 605.366 365.275 610.071 365.559 618.68L367.546 618.989C361.473 628.363 363.67 638.818 376.125 638.596C373.99 633.088 376.656 619.557 383.728 619.298C390.172 619.063 385.271 624.67 384.358 627.943C380.84 640.443 388.283 642.017 398.936 639.831C397.923 634.347 396.516 629.185 400.935 624.701C402.873 622.737 407.452 621.051 408.156 624.547C408.465 626.066 404.984 631.198 405.12 634.273C405.527 643.462 425.807 638.158 426.239 628.87C426.313 627.19 423.919 619.551 425.943 619.452C428.646 619.316 431.744 629.537 431.88 631.957C435.892 628.487 433.658 621.484 432.065 617.136C431.744 616.272 426.054 606.656 429.239 606.792C431.547 608.163 440.261 620.953 442.767 618.68C442.816 617.396 441.915 616.216 441.31 615.129C439.372 611.658 430.041 598.264 429.745 595.831C429.535 594.089 430.51 592.835 432.226 593.824C433.201 594.379 438.113 600.814 440.113 602.469C441.73 603.803 444.026 605.594 446.063 606.175C447.05 605.174 431.966 585.283 434.188 581.009C435.657 579.503 438.903 585.462 439.792 586.413C442.952 589.785 447.235 593.854 452.012 594.287C452.963 593.41 446.05 586.357 445.137 585.023C443.742 582.961 435.447 566.058 435.534 564.799C435.583 564.132 437.299 563.557 438.064 564.027C440.952 568.498 444.051 573.833 447.778 577.613C448.47 578.304 448.729 579.299 450.025 579.002C450.84 573.938 437.854 552.324 438.15 550.286C438.447 548.248 441.002 550.508 441.471 550.904C445.112 553.93 447.383 559.488 450.679 562.946C451.741 564.07 453.617 566.67 455.308 565.571L440.125 537.163L442.779 536.391C447.211 540.961 450.654 546.748 454.962 551.367C455.53 551.972 456.987 553.948 457.949 552.911C457.974 551.787 457.542 550.811 457.098 549.823C453.061 540.621 446.087 533.612 442.076 525.893C441.52 524.831 441.199 524.232 441.434 522.96C443.977 520.255 455.53 536.706 456.95 538.09C457.443 538.571 462.393 542.616 461.899 539.788L443.619 513.387C443.94 512.955 444.001 511.739 444.075 511.689C445.68 510.331 458.196 524.645 460.245 526.202C461.22 526.955 463.64 528.962 464.528 527.282L445.692 501.808L445.408 499.801C446.272 499.764 447.025 499.622 447.877 499.956C448.729 500.289 457.69 511.3 460.258 513.079C461.406 513.882 463.134 515.03 464.553 514.005C463.134 511.56 460.986 509.725 459.394 507.366C456.061 502.426 453.765 496.621 450.568 491.619C449.074 489.284 441.162 481.88 448.099 483.745C452.728 488.611 456.999 495.133 461.64 499.801C462.405 500.567 464.133 501.957 465.207 502.117L445.408 466.762C454.407 472.617 459.048 483.665 465.541 491.928C466.528 489.754 464.837 486.962 463.998 484.826C458.505 470.82 449.704 458.314 440.78 446.383C442.1 446.037 442.569 446.791 443.446 447.309C454.012 453.621 460.541 466.873 466.368 477.261C467.158 478.669 467.33 478.798 467.17 477.106C465.985 463.952 450.371 443.036 441.446 433.415C440.422 432.315 434.83 428.561 436.151 427.239C449.951 431.871 457.554 446.914 466.503 457.499C466.787 454.992 465.602 452.787 464.639 450.552C461.677 443.721 454.654 434.119 449.679 428.474C447.593 426.103 438.064 417.92 437.472 416.277C436.879 414.635 439.545 415.487 440.125 415.66C449.186 418.488 455.32 429.58 462.541 435.113C460.899 426.714 453.061 419.81 448.149 412.881C446.816 411.004 440.866 402.389 440.78 400.993C440.73 400.178 441.113 398.64 441.755 398.06C446.927 403.408 451.839 409.454 458.246 413.344C459.542 413.616 459.505 412.689 459.147 411.8C458.641 410.54 456.061 408.719 455.012 407.323C452.777 404.334 450.988 400.653 448.667 397.751C442.458 389.97 438.422 387.209 433.25 377.526C430.893 373.129 429.3 367.627 426.239 363.786C426.745 376.557 437.496 387.296 434.151 400.067L418.981 367.8C419.302 381.559 427.239 394.175 426.227 408.095L424.19 407.632L412.884 376.754L410.403 373.049C411.02 387.635 416.809 401.753 415.673 416.586C413.822 414.709 412.81 411.337 411.884 408.867C409.008 401.135 406.058 388.006 402.305 381.386C401.737 380.385 400.935 379.348 399.837 378.916C401.157 391.798 406.527 404.112 403.786 417.204C402.281 417.513 401.96 416.197 401.602 415.197C400.096 411.133 400.59 405.612 399.664 401.302L397.195 394.2L394.529 421.835H391.912C391.369 409.435 391.073 396.917 389.258 384.628C389.085 383.479 389.616 383.436 387.962 383.547L383.877 429.4L381.371 430.481C380.68 417.13 380.186 403.772 378.692 390.495C378.581 389.457 379.421 387.882 377.742 388.179C376.483 390.229 376.347 393.891 376.088 396.361C375.1 405.921 375.125 415.771 373.261 425.232C372.73 427.924 372.175 433.482 368.818 431.716V393.737C368.818 393.317 368.213 390.816 366.843 391.421C363.312 401.537 363.436 412.813 361.337 423.225C361.066 424.584 360.461 429.425 359.19 429.709L356.264 427.393L356.919 394.818C355.857 394.756 355.376 394.521 354.635 395.435C352.574 397.942 350.623 416.487 348.969 421.527C348.476 423.046 348.044 425.683 346.081 425.078L344.316 424.151L345.044 395.435C343.761 395.237 343.032 396.25 342.576 397.288C340.07 403.019 339.798 412.165 336.527 418.13C335.676 419.205 333.195 418.427 332.429 417.513C331.269 416.142 334.305 403.994 334.478 400.993C334.614 398.758 334.7 395.639 331.787 397.133C329.294 401.753 328.924 412.609 322.604 412.572L323.912 396.053C321.616 393.545 317.876 406.131 317.21 406.551L313.346 406.705C312.766 403.111 317.222 398.288 313.988 395.744C309.52 392.224 305.002 396.436 299.435 395.126C295.226 394.138 292.042 388.432 287.339 388.024C284.413 394.756 277.439 401.438 277.032 409.021C276.933 410.837 277.797 412.992 277.575 414.116C277.415 414.919 268.021 425.288 266.701 426.313C263.652 428.684 252.259 433.569 250.741 428.011C249.877 424.824 258.11 420.292 260.554 418.13C261.319 417.451 268.49 410.491 267.799 409.948C262.306 411.59 252.321 412.887 252.617 404.698C264.281 404.958 273.798 396.195 277.587 385.709C275.168 381.695 270.527 379.008 268.589 374.438C267.454 371.758 263.368 356.066 269.342 357.301C270.762 357.598 275.933 369.893 277.415 372.277C279.402 375.476 281.883 378.366 284.623 380.923C285.302 376.439 278.995 369.708 284.623 367.028C286.981 371.511 296.584 385.455 301.126 386.789C301.978 387.036 302.422 386.703 302.101 385.863C301.534 384.43 299.225 381.991 298.473 380.151C297.473 377.693 295.201 371.264 299.694 372.277C300.139 372.376 304.076 378.422 305.064 379.533C308.755 383.72 312.865 387.271 317.617 390.186C318.136 386.147 312.816 382.584 311.643 378.916C308.804 370.085 316.445 378.076 318.296 379.533C324.11 384.152 329.603 388.593 337.083 390.186C338.095 389 333.466 386.32 332.775 385.554C331.997 384.702 327.838 379.138 327.825 378.607C327.702 377.89 328.319 377.248 328.936 377.063C330.676 376.532 341.255 383.325 344.365 384.474C346.599 385.313 348.945 385.764 351.278 386.172C351.957 386.135 351.636 385.313 351.302 384.782C349.303 381.596 342.316 380.62 343.699 374.902C346.735 375.717 349.229 377.643 352.265 378.607C354.314 379.261 366.398 382.226 367.386 381.386C368.916 375.951 367.127 370.585 364.436 365.793C363.226 363.631 355.832 355.659 358.276 353.905C361.263 353.448 365.213 357.233 367.225 359.308C372.076 364.335 374.94 370.585 377.693 376.909C381.47 374.34 379.026 371.598 379.285 368.572C379.68 363.977 387.419 367.324 390.567 367.028C385.827 355.714 373.434 350.039 363.646 343.715C362.177 336.971 369.891 340.998 373.187 342.48C380.001 345.543 392.826 355.103 396.331 361.624C397.047 362.946 396.911 365.663 398.8 365.638L407.724 361.315C406.045 357.771 400.034 359.16 400.466 353.75C407.107 354.195 413.069 356.61 419.882 355.757C421.117 355.597 426.4 354.078 423.314 352.978C420.228 351.879 416.611 351.842 413.316 350.508C411.847 349.915 406.564 347.6 409.674 345.413C410.254 345.006 421.425 347.328 423.869 347.266C427.918 347.167 435.188 345.722 438.089 342.634H424.56C423.721 342.634 416.908 340.424 416.056 339.855C414.945 339.114 413.76 337.441 415.328 336.613C424.388 338.466 437.756 338.725 445.803 333.526C446.976 332.772 448.766 331.617 448.642 329.975C443.865 330.481 439.249 332.525 434.386 332.599C432.793 332.624 427.547 332.124 426.029 331.827C425.19 331.654 422.61 330.357 422.252 329.666L423.561 327.35C419.821 328.425 415.105 326.572 411.513 325.189C400.787 321.051 390.764 314.585 384.296 304.964L382.988 306.199C380.47 305.408 372.508 295.176 371.015 292.458C354.981 263.433 357.437 238.818 375.508 211.559C385.234 196.898 395.035 188.327 411.242 181.299C414.155 180.039 418.105 179.687 420.277 177.439C384.173 180.502 362.979 219.167 357.215 251.391C355.894 258.765 356.807 264.168 358.893 271.307L356.252 265.595C347.266 238.213 370.817 197.201 393.529 182.071C400.404 177.501 411.76 171.776 419.364 168.33C421.647 167.293 428.387 166.879 425.56 163.853C424.955 163.211 417.414 159.759 415.895 159.067C397.319 150.656 377.705 147.031 357.252 148.414C353.685 148.661 347.698 149.001 345.365 151.657C344.982 149.236 339.786 150.761 337.971 151.502C334.268 152.997 332.849 157.98 329.529 160.302L333.158 153.046C324.764 152.75 322.406 157.881 318.963 164.316L321.937 156.288C319.975 154.905 309.125 160.475 306.743 161.846C301.065 165.132 295.424 169.763 290.931 174.506C294.708 178.458 298.929 181.991 302.015 186.548C303.163 188.24 308.162 196.59 307.138 197.973C304.027 202.197 298.423 190.945 296.843 189.018C292.56 183.806 283.685 177.248 277.069 175.741C274.144 175.074 271.045 174.71 271.872 178.674C276.6 180.181 290.82 189.494 292.116 193.804C292.363 194.607 292.375 195.305 292.165 196.12L290.696 197.201C281.587 189.963 269.243 185.443 258.591 192.261L259.64 193.959C267.737 192.119 282.204 193.749 284.327 203.222C280.933 203.136 278.094 200.993 274.687 200.598C266.528 199.659 255.863 202.987 250.012 208.78C249.728 210.139 250.654 210.034 251.617 209.861C255.542 209.157 260.27 205.118 265.182 206.464C265.417 209.527 261.652 210.571 259.566 212.485C248.198 222.86 247.358 255.177 249.531 269.455C249.852 271.591 252.827 284.109 254.394 284.43C257.394 284.344 259.887 282.435 262.874 282.423C263.899 282.423 264.022 282.343 263.862 283.504C260.01 290.705 251.654 291.137 245.038 293.693C244.26 294.002 242.224 294.774 242.088 295.7C245.988 296.17 251.259 295.058 254.962 295.7H255.024ZM311.458 143.783C309.409 139.262 304.039 136.391 299.238 135.909C282.068 134.192 263.442 141.93 246.359 143.783C236.755 144.82 224.178 143.042 216.08 149.032C204.268 157.764 202.824 182.886 204.613 196.275C206.267 208.712 211.847 220.396 212.451 233.019C232.917 221.014 237.965 195.355 253.024 178.211C260.307 169.936 275.699 157.159 287.314 157.678C290.005 157.801 292.177 160.389 294.942 160.302C292.869 149.223 278.958 152.367 271.391 155.516C254.086 162.729 240.891 181.163 232.534 197.355C228.634 204.914 226.153 213.282 221.289 220.359C220.561 221.421 216.327 227.294 215.081 226.38C213.945 220.205 211.501 213.671 210.526 207.545C209.662 202.086 208.65 189.76 209.069 184.387C209.217 182.46 209.575 181.978 210.328 180.373C211.945 176.927 215.55 174.401 217.043 170.955L209.452 176.204C208.378 169.794 217.475 163.081 222.635 160.302C224.153 159.487 232.188 156.832 232.213 155.979C230.51 154.003 227.078 155.3 224.98 155.979C220.721 157.363 216.475 160.481 212.748 162.927C212.192 158.876 217.154 155.152 220.413 153.509C229.041 149.162 243.458 150.483 253.481 148.878C268.108 146.531 286.475 138.145 301.126 139.923C305.089 140.405 307.779 142.758 311.433 143.783H311.458ZM545.773 207.854C545.933 206.89 545.699 206.316 545.155 205.538C542.588 201.771 521.567 193.804 516.062 191.025C500.374 183.096 474.675 162.624 457.665 163.699C449.951 164.193 439.089 168.244 432.312 172.036C431.164 172.678 424.388 176.809 429.288 176.822C433.188 176.822 440.397 173.005 444.791 171.881C468.454 165.879 474.008 173.413 492.77 183.924C509.927 193.533 526.751 202.271 545.773 207.854ZM467.664 190.254C463.109 186.079 450.753 179.304 446.779 187.011C446.927 187.752 453.691 189.037 455.357 189.79C479.414 200.746 475.489 251.496 481.587 273.16C484.179 282.361 489.598 294.904 499.152 298.325C500.843 298.004 507.854 288.352 509.779 286.437C521.703 274.58 533.182 267.744 542.354 252.317C549.192 240.806 551.537 230.296 547.748 217.117L544.267 238.423C539.761 261.754 514.482 271.387 502.583 287.827C498.794 293.064 499.695 297.769 493.943 287.827C479.266 262.421 493.338 213.807 467.651 190.254H467.664ZM412.452 189.327C404.317 190.698 395.603 196.231 390.332 202.605C389.443 203.679 388.098 205.174 388.036 206.619L395.739 199.362L412.452 189.327ZM430.843 197.973C422.845 195.552 406.428 201.308 401.528 207.854C400.577 209.126 399.849 211.658 402.318 210.633C404.416 209.756 406.712 207.631 408.897 206.619C415.797 203.407 423.437 201.931 430.893 200.598L430.843 197.973ZM443.989 214.029C443.878 213.832 440.545 211.911 439.977 211.713C432.139 208.836 420.882 209.892 413.118 212.794C411.896 213.251 403.33 217.271 405.194 219.124C411.575 218.531 417.636 215.765 424.005 215.11C430.744 214.431 437.521 215.351 444.125 216.499C444.063 215.697 444.372 214.746 443.989 214.029ZM444.125 234.254C444.853 229.462 437.706 226.343 433.867 225.145C429.251 223.712 418.043 222.669 413.772 224.682C412.414 225.324 410.958 226.09 412.118 227.77C418.821 228.017 426.079 227.986 432.522 229.777C436.793 230.963 439.891 233.427 444.125 234.254ZM410.464 242.9C392.727 236.897 376.31 256.202 380.532 273.16C384.864 290.55 405.774 298.337 420.043 287.209C432.497 277.489 430.436 255.905 417.08 248.149L421.129 256.332C427.696 273.228 413.254 292.335 395.294 284.121C377.828 276.13 384.333 250.465 401.219 245.833C402.441 245.5 412.303 244.864 410.477 242.9H410.464ZM399.726 253.553C394.825 254.652 394.64 262.587 399.059 263.897C408.563 266.725 410.316 251.169 399.726 253.553ZM404.527 314.845C404.194 316.277 405.329 316.351 406.033 317.006C408.798 319.587 423.906 327.714 427.276 328.122C436.274 329.209 449.975 326.133 455.987 319.167C454.975 317.759 455.061 318.519 454.259 318.704C451.741 319.309 448.889 321.051 446.1 321.792C438.138 323.916 430.189 324.194 422.203 321.946C419.426 321.156 405.49 314.017 404.527 314.845ZM449.408 388.796C447.717 385.832 445.347 383.399 443.594 380.459C441.224 376.47 440.002 371.159 436.213 368.417C436.854 376.828 441.286 385.647 449.408 388.796ZM580.112 470.776C582.655 468.096 583.506 462.649 583.988 459.043C588.481 425.3 574.669 397.702 545.983 380.459C539.515 376.569 532.38 372.703 524.653 372.431C540.329 386.536 549.92 406.187 551.08 427.393C551.463 434.273 551.611 444.543 551.08 451.324C550.833 454.522 547.451 464.564 547.76 465.836C548.291 468.047 550.019 465.391 550.513 464.601C558.746 451.62 555.796 439.164 556.302 425.541C556.339 424.528 555.857 423.595 557.326 423.842C560.832 424.398 562.029 434.946 562.263 438.046C563.103 449.261 561.103 459.895 557.659 470.468C559.782 471.863 560.153 469.053 560.782 467.534C564.646 458.407 566.831 445.92 566.213 436.039C565.954 431.926 564.436 427.548 564.214 423.534C563.843 416.889 566.324 420.353 567.719 423.997C570.867 432.198 572.052 443.826 571.484 452.559C571.015 459.796 568.472 466.818 568.188 474.019C569.41 474.253 569.83 473.413 570.311 472.475C576.977 459.308 575.841 438.577 573.163 424.46C572.657 421.767 570.916 417.902 570.817 415.506C570.756 414.172 571.546 414.172 572.471 414.579C573.879 415.197 577.014 424.052 577.619 426.004C581.976 440.343 582.321 456.042 580.087 470.776H580.112ZM566.892 534.075C557.338 502.494 518.605 491.316 493.943 514.314C474.02 532.89 473.539 565.466 489.993 586.413C490.807 587.45 497.09 594.361 497.609 594.596C499.324 595.374 503.867 595.083 506.842 595.985C510.236 597.01 515.136 599.604 514.667 603.704C513.63 607.471 504.101 603.797 501.225 603.55C491.017 602.661 478.094 604.859 471.219 613.122C464.788 620.841 462.257 634.211 475.823 634.582C475.465 629.518 474.712 626.171 476.822 621.305C478.254 618.007 484.759 612.023 487.611 616.519C485.055 622.2 481.315 628.678 485.512 634.582L495.621 635.817C494.264 629.74 497.312 620.249 504.546 619.915C512.964 619.532 500.114 630.778 504.879 634.273C507.471 636.175 520.247 635.539 523.036 633.192C525.011 631.525 529.788 624.028 531.084 621.459C538.823 606.02 538.181 585.314 531.96 569.43C532.898 568.084 534.355 568.022 535.577 569.122C536.49 569.937 539.774 579.929 540.193 581.781C543.44 596.047 542.156 611.949 533.8 624.238C531.491 627.635 528.418 630.358 526.011 633.656C530.504 635.805 534.355 630.518 536.836 627.171C548.809 611.115 548.451 590.359 543.637 571.746C543.366 570.709 539.342 560.643 540.86 560.63C544.97 561.692 546.945 567.886 548.278 571.592C553.858 587.179 554.339 605.316 546.353 620.224C544.859 623.003 537.453 631.068 537.219 632.266C537.12 632.736 537.108 633.341 537.552 633.192C561.066 620.162 559.795 584.659 551.401 562.637C549.562 557.796 546.427 553.547 545.143 548.742C546.982 546.865 552.759 555.091 553.598 556.462C560.017 567.009 562.893 584.437 563.016 596.603C563.041 599.246 561.634 602.593 562.301 605.557C563.448 606.99 564.473 602.667 564.621 602.161C568.855 587.142 564.683 565.879 558.03 551.984C555.006 545.648 550.315 540.041 547.785 533.458C550.364 531.086 560.251 545.704 561.511 547.816C566.707 556.412 568.151 562.798 570.793 572.209C571.101 573.333 570.299 574.062 572.2 573.753C573.002 560.34 567.411 548.915 561.091 537.626C558.462 532.933 553.845 527.171 551.685 522.651C551.191 521.613 550.883 520.915 551.08 519.717L555.043 521.879L566.917 534.23L566.892 534.075ZM316.087 632.575H327.307C318.605 615.086 332.281 599.659 350.414 599.536C341.218 590.322 336.108 577.391 335.762 564.335L330.281 558.623C329.417 558.598 328.739 563.242 328.64 564.181C327.825 572.135 327.591 580.991 327.665 588.883C333.701 594.528 333.972 601.16 324.011 597.529C325.097 604.594 324.258 614.518 321.493 621.15C320.752 622.941 315.099 631.612 316.099 632.575H316.087ZM380.112 650.33C380.013 649.304 379.112 649.366 378.421 649.094C376.347 648.279 363.794 643.845 362.634 643.845C347.809 643.821 332.565 644.45 317.765 644.463C298.46 644.463 248.408 645.698 248.408 645.698L561.153 645.235C561.153 645.235 521.617 645.204 501.855 645.08C481.266 644.945 460.554 644.401 439.805 644.463C429.683 644.488 427.659 644.747 417.858 646.933C414.352 647.711 410.736 648.18 407.156 648.477C407.082 649.947 406.909 649.601 408.168 649.712C413.501 650.231 419.426 648.52 424.622 648.323C439.965 647.742 456.098 648.323 471.539 648.323C493.745 648.323 517.259 647.266 539.49 649.712C541.638 649.947 544.452 650.225 545.76 652.028C543.218 655.437 540.44 653.763 537.515 653.726C487.339 653.096 436.422 654.041 386.395 651.719C382.778 651.546 379.1 651.88 375.471 651.719L380.087 650.33H380.112Z" fill="black"/>
<path d="M308.31 336.803C303.151 348.735 319.197 360.801 329.627 361.753C333.59 362.111 339.477 359.492 340.416 364.235C341.712 370.769 327.838 369.558 323.986 368.718C317.235 367.249 311.495 363.408 306.422 358.887C305.447 358.023 304.644 355.676 303.077 355.256C301.287 354.774 297.325 357.417 294.881 358.035C293.239 358.455 289.005 359.183 287.413 359.146C283.883 359.072 272.576 354.465 271.885 350.847C270.231 342.3 277.699 348.71 280.97 349.698C285.512 351.069 291.227 350.995 295.436 348.697C300.361 346.017 299.435 339.755 299.485 334.79C283.809 328.38 278.55 302.307 299.929 300.356C332.997 297.342 348.846 333.592 308.31 336.803ZM315.432 314.213C313.285 314.139 310.865 313.275 308.866 312.521C304.669 310.953 299.324 306.667 295.399 309.668C290.585 313.349 298.991 317.622 302.62 318.104C305.977 318.549 315.815 319.043 315.432 314.201V314.213Z" fill="black"/>
<path d="M267.231 236.915C265.121 236.458 265.281 237.558 264.256 238.891L263.923 237.582L261.294 238.891C261.183 232.876 266.108 226.565 271.391 224.243C297.781 212.633 306.508 254.133 287.709 264.347C269.626 274.178 263.22 250.415 267.219 236.915H267.231ZM278.933 234.42C272.082 235.964 275.909 246.067 282.611 244.054C288.178 242.387 287.425 232.518 278.933 234.42Z" fill="black"/>
<path d="M410.464 168.975C405.552 172.94 399.145 174.409 393.517 177.435C380.26 184.587 366.361 201.582 359.98 215.205C357.165 221.207 356.005 228.581 351.722 233.682C352.24 223.196 358.227 211.425 363.979 202.693C372.027 190.503 388.332 174.063 402.676 170.086C405.194 169.395 407.81 168.851 410.452 168.962L410.464 168.975Z" fill="black"/>
<path d="M366.016 326.841C371.62 325.013 385.802 329.583 390.875 332.807C393.381 334.388 403.7 342.181 397.899 344.306C388.258 338.044 377.804 333.128 366.411 330.88C364.67 330.436 364.139 327.459 366.016 326.854V326.841Z" fill="black"/>
<path d="M261.109 345.445C265.466 344.778 261.516 354.783 261.307 357.574C261.097 360.365 262.701 371.827 261.344 372.803C260.171 373.643 258.455 372.778 257.369 372.062C249.877 367.134 253.271 346.631 261.121 345.433L261.109 345.445Z" fill="black"/>
<path d="M324.567 492.551C315.507 496.133 317.802 481.905 319.024 476.767C319.777 473.593 323.085 465.009 326.937 465.552C332.071 466.268 327.467 475.087 326.838 477.977C325.789 482.769 324.999 487.648 324.567 492.539V492.551Z" fill="black"/>
<path d="M319.172 450.401C321.049 450.302 323.098 452.118 322.419 454.218C321.74 456.317 317.901 460.998 316.63 463.666C315.506 466.025 314.149 471.892 313.087 473.325C311.174 475.894 306.977 474.239 306.792 471.052C306.471 465.296 312.384 450.747 319.172 450.401Z" fill="black"/>
<path d="M311.952 437.312C315.297 436.448 320.271 436.991 317.975 441.351C316.358 444.414 302.669 456.073 301.546 448.008C301.04 444.377 308.952 438.078 311.952 437.312Z" fill="black"/>
<path d="M515.42 631.933L521.888 622.892C524.937 617.556 525.69 608.28 526.011 601.92C526.48 592.644 524.789 584.159 524.986 575.143C531.639 584.925 531.38 599.808 528.43 610.948C526.468 618.371 523.258 629.018 515.42 631.933Z" fill="black"/>
<path d="M517.963 658.462V661.599C516.815 661.723 515.544 662.353 514.396 662.353C445.519 662.538 376.717 660.216 307.829 662.316C305.953 662.377 297.288 662.76 296.572 661.71L296.275 657.696L330.899 657.005C389.197 659.055 448.42 654.436 506.471 657.733C508.446 657.845 517.185 657.202 517.951 658.462H517.963Z" fill="black"/>
<path d="M371.533 650.448C371.669 652.19 371.607 651.547 370.533 651.745C364.386 652.894 355.166 652.844 348.685 653.029C330.047 653.561 310.828 652.745 291.967 653.066C286.178 653.165 279.464 654.462 273.477 653.783C270.441 653.437 270.811 650.991 272.662 650.226C273.81 649.744 279.118 649.201 280.735 649.102C308.668 647.459 338.527 648.879 366.534 649.164L371.521 650.448H371.533Z" fill="black"/>
<path d="M440.175 666.861L440.138 670.789C423.425 672.864 406.453 670.32 389.653 670.789C385.938 670.888 382.025 672.049 378.125 671.481V666.849H440.175V666.861Z" fill="black"/>
<path d="M368.892 671.63C356.326 670.457 341.921 673.792 329.59 672.322C325.751 671.865 327.443 668.073 329.615 667.666C334.552 668.357 367.188 665.553 368.595 667.628L368.892 671.643V671.63Z" fill="black"/>
<path d="M413.032 676.884L413.723 680.355C413.451 681.158 412.859 681.294 412.118 681.429C407.341 682.306 398.355 681.281 392.949 681.405C389.246 681.491 385.012 683.146 381.186 681.491L380.853 677.551L413.032 676.884Z" fill="black"/>
<path d="M486.043 666.891C486.969 667.027 488.795 668.497 490.264 668.275L490.314 671.498L471.601 672.079C469.762 671.634 470.379 666.891 471.515 666.891C476.057 667.348 481.649 666.274 486.03 666.891H486.043Z" fill="black"/>
<path d="M424.992 676.884H438.521C440.199 676.884 445.951 679.404 442.137 681.17C439.2 682.529 432.226 680.602 428.609 682.232C424.869 682.195 424.758 680.207 424.992 676.884Z" fill="black"/>
<path d="M463.936 671.623H448.42C446.927 670.548 447.482 668.609 447.433 667.003H462.948C464.442 668.078 463.887 670.017 463.936 671.623Z" fill="black"/>
<path d="M461.961 680.875C458.209 681.394 454.197 681.912 450.408 681.542C449.136 681.418 446.124 680.85 445.47 679.566C447.235 679.924 446.408 677.898 447.223 677.553C448.099 677.182 451.259 676.861 452.358 676.886C453.543 676.91 459.369 677.478 460.184 677.701C461.554 678.096 462.183 679.516 461.973 680.863L461.961 680.875Z" fill="black"/>
<path d="M369.484 680.721C368.953 681.524 360.51 682.685 360.436 679.239C360.338 674.978 372.224 676.596 369.484 680.721Z" fill="black"/>
</svg>
