<svg width="800" height="800" viewBox="0 0 800 800" fill="none" xmlns="http://www.w3.org/2000/svg">
<path d="M399.821 644.608C398.919 640.479 398.185 636.304 397.084 632.236C391.318 610.941 389.345 589.179 388.803 567.218C388.091 538.544 386.891 509.892 381.118 481.692C378.388 468.364 374.603 455.258 371.72 441.961C368.731 428.159 367.064 414.158 372.225 400.51C374.496 394.492 377.669 388.711 381.141 383.274C390.271 368.968 385.889 357.796 378.572 344.675C378.487 344.522 378.128 344.53 377.967 344.484C378.648 364.326 371.636 382.143 362.85 399.294C357.353 410.029 350.715 420.184 344.445 430.522C343.428 432.204 341.815 433.611 340.232 434.835C339.207 435.622 337.686 437.083 336.546 434.582C336.401 434.269 335.002 434.269 334.321 434.506C332.043 435.301 329.856 436.371 327.554 437.106C326.713 437.373 325.666 436.991 324.71 436.899C324.893 435.982 324.771 434.75 325.321 434.2C328.441 431.095 331.37 427.555 335.055 425.307C339.49 422.608 343.214 419.534 345.149 414.778C349.607 403.828 353.629 392.695 358.178 381.783C365.664 363.852 367.905 344.95 368.807 325.819C369.113 319.266 371.866 314.999 377.914 312.713C384.375 310.273 389.85 306.756 391.356 299.408C391.754 297.488 391.762 295.34 391.318 293.443C390.577 290.27 388.673 288.404 384.949 289.123C382.341 289.628 379.642 289.857 376.989 289.811C376.086 289.796 374.588 288.695 374.412 287.862C373.601 284.038 373.165 280.139 372.592 276.254C366.995 273.287 367.247 273.593 372.24 269.441C374.71 267.384 376.637 264.188 377.792 261.122C379.611 256.289 380.583 251.128 382.142 245.225C375.253 247.962 374.427 253.361 374.213 259.126C373.777 259.164 373.334 259.202 372.898 259.241C372.454 256.84 371.499 254.393 371.674 252.038C372.324 243.267 378.755 237.364 388.657 235.682C397.497 234.176 405.854 235.208 413.906 240.102C414.258 235.284 413.982 230.291 418.18 227.439C420.566 225.818 423.716 224.778 426.607 224.533C432.556 224.036 438.054 228.716 439.285 234.566C441.013 242.801 438.688 246.165 428.258 250.501C436.471 256.58 441.212 253.598 444.859 240.071C448.216 244.475 447.841 251.434 443.238 255.846C434.49 264.226 429.191 257.23 424.06 250.287C423.77 250.562 423.479 250.83 423.196 251.105C423.732 253.437 424.083 255.838 424.833 258.101C426.959 264.479 425.766 270.351 422.623 276.086C418.578 283.48 413.73 284.772 406.948 280.139C406.649 282.058 406.519 284.046 406.03 285.935C403.4 296.104 407.636 306.236 416.766 311.39C418.425 312.33 420.161 313.141 421.774 314.15C425.406 316.421 427.624 319.403 428.014 323.999C428.985 335.66 430.078 347.328 431.715 358.913C432.433 364.005 434.337 368.975 436.127 373.854C440.822 386.623 445.7 399.332 450.624 412.017C452.712 417.385 456.283 421.331 461.383 424.412C464.916 426.553 467.454 430.361 470.291 433.565C470.788 434.131 470.865 435.5 470.528 436.219C470.314 436.677 468.984 436.807 468.173 436.754C465.772 436.586 463.195 436.731 461.039 435.874C458.21 434.758 454.746 433.435 453.224 431.111C438.229 408.125 424.076 384.681 419.641 356.909C419.006 352.925 418.876 348.858 418.165 344.751C413.875 352.138 411.436 360.037 411.444 368.67C411.444 374.236 413.7 379.023 416.33 383.741C420.597 391.395 425.23 398.82 427.058 407.651C429.734 420.559 427.624 433.03 424.152 445.348C419.595 461.506 414.265 477.448 409.976 493.674C403.132 519.542 400.884 546.068 400.226 572.731C399.928 584.943 399.5 597.215 400.372 609.373C401.939 631.257 408.286 651.612 423.296 668.366C430.965 676.93 439.766 683.98 451.404 686.442C464.281 689.172 476.301 682.749 479.987 671.294C482.181 664.474 478.351 655.459 471.484 651.284C466.024 647.965 458.523 648.883 454.18 654.22C452.062 656.82 451.228 660.505 449.997 663.77C449.493 665.116 449.477 666.653 449.21 668.259C445.83 667.609 445.616 665.162 445.325 662.998C443.834 651.995 453.622 641.603 464.923 642.1C483.221 642.903 494.179 663.686 484.858 679.904C477.349 692.965 462.324 698.439 446.358 694.043C434.215 690.701 424.665 683.338 416.628 674.116C410.465 667.043 405.197 659.19 399.523 651.681C398.988 650.97 398.598 650.045 397.902 649.586C386.547 642.161 381.462 630.156 375.375 618.893C367.622 604.533 364.066 588.751 359.524 573.244C351.457 545.732 351.541 517.891 355.372 489.943C356.848 479.177 360.166 468.647 362.927 458.088C363.454 456.054 365.305 454.364 366.544 452.521C367.056 452.72 367.576 452.918 368.088 453.117C367.981 455.312 368.096 457.537 367.736 459.686C366.085 469.58 363.997 479.414 362.636 489.346C359.692 510.886 358.66 532.511 363.217 553.936C366.222 568.082 369.755 582.136 373.716 596.045C378.159 611.606 386.998 625.125 395.103 638.942C396.296 640.976 397.634 642.934 398.904 644.929L399.813 644.624L399.821 644.608ZM387.296 243.39C381.944 245.431 381.462 246.165 383.572 250.669C385.071 253.858 386.776 257.084 389.047 259.738C394.17 265.71 399.668 271.353 405.097 277.049C405.617 277.592 406.749 277.554 407.59 277.791C407.728 276.912 408.209 275.887 407.919 275.184C407.399 273.93 406.512 272.775 405.594 271.735C402.566 268.317 399.508 264.914 396.357 261.603C391.548 256.534 387.564 251.074 387.289 243.39H387.296Z" fill="black"/>
<path d="M272.469 208.667C288.022 193.305 304.569 179.763 322.148 167.353C340.026 154.729 360.266 147.847 380.934 141.164C378.793 141.317 376.652 141.416 374.519 141.645C372.37 141.882 370.199 142.12 368.096 142.601C335.828 149.98 305.678 162.192 279.205 182.424C271.735 188.136 264.822 194.597 257.856 200.944C255.303 203.268 253.07 204.048 249.598 201.517C263.438 186.699 279.137 174.579 296.28 164.279C313.492 153.941 331.721 145.973 351.113 140.483C370.504 134.993 390.401 134.809 410.335 134.511C410.304 133.884 410.274 133.25 410.243 132.623C402.421 132.623 394.599 132.462 386.784 132.653C362.17 133.265 338.351 137.853 316.084 148.558C289.872 161.159 265.602 176.812 245.202 197.771C241.386 201.686 238.213 202.955 232.6 200.095C246.448 188.151 259.975 176.483 273.409 164.898C273.394 164.898 272.989 164.73 272.782 164.86C258.56 173.891 244.942 183.663 233.197 195.867C230.956 198.191 227.936 199.751 225.466 201.877C223.302 203.743 221.199 205.754 219.425 207.986C216.978 211.06 215.105 214.601 212.574 217.598C193.351 240.308 179.197 265.71 172.208 294.743C169.211 307.222 167.162 319.923 164.684 332.525C164.485 333.526 164.302 334.528 164.172 335.537C163.927 337.457 163.552 339.116 160.93 338.619C158.643 338.183 157.71 337.151 158.154 334.666C159.553 326.904 160.769 319.113 162.061 311.329C162.451 308.966 162.849 306.603 163.124 304.225C120.227 437.603 200.73 576.44 326.17 614.405C325.291 614.045 324.396 613.724 323.54 613.319C306.289 605.214 288.442 598.141 271.995 588.651C259.898 581.67 249.461 571.73 238.587 562.745C219.372 546.879 205.539 526.615 192.632 505.603C172.583 472.945 162.084 437.151 157.84 399.393C156.51 387.526 156.579 375.506 156.105 363.546C156.021 361.375 155.562 358.607 159.194 358.637C162.673 358.66 162.543 361.26 162.413 363.531C161.411 380.545 162.474 397.489 165.67 414.143C169.455 433.886 174.54 453.263 182.669 471.882C191.653 492.466 203.176 511.215 216.596 529.192C227.508 543.805 240.216 556.475 254.286 567.555C274.602 583.551 297.037 596.175 321.506 605.183C334.184 609.847 346.754 614.588 360.013 617.303C363.974 618.113 365.343 621.409 366.567 624.613C367.369 626.716 367.614 629.032 368.295 632.106C363.118 631.602 358.324 631.449 353.644 630.63C318.21 624.429 286.087 610.474 256.388 590.173C228.754 571.279 205.684 548.033 186.966 520.483C164.095 486.808 150.095 449.707 145.56 409.15C141.92 376.545 143.756 344.277 151.899 312.468C156.984 292.618 165.25 274.029 175.106 256.106C196.593 216.994 226.269 185.513 263.63 161.289C277.233 152.473 292.006 145.92 307.123 140.024C324.19 133.372 341.723 128.776 359.815 126.177C384.712 122.606 409.586 122.919 434.444 126.62C461.635 130.665 487.327 139.359 511.911 151.494C514.075 152.565 516.323 153.635 518.135 155.164C519.328 156.166 519.81 158.001 520.613 159.469C519.106 159.959 517.516 161.022 516.116 160.815C513.134 160.372 510.244 159.294 507.331 158.414C495.157 154.752 483.221 149.758 470.788 147.633C427.509 140.246 385.308 144.329 345.638 164.141C332.846 170.526 320.909 178.853 309.264 187.241C300.103 193.833 291.937 201.831 283.411 209.286C278.907 213.224 278.387 213.316 272.461 208.682L272.469 208.667Z" fill="black"/>
<path d="M412.606 604.824C415.252 604.411 417.89 603.837 420.551 603.615C430.835 602.759 441.135 602.124 451.412 601.199C474.122 599.158 495.616 593.155 515.711 582.068C546.58 565.039 572.54 542.673 592.138 513.211C595.663 507.92 598.959 502.468 602.216 497.008C603.218 495.326 603.753 493.368 604.64 491.197C598.156 499.937 592.046 508.34 585.761 516.606C570.147 537.122 550.587 553.217 529.399 567.662C514.725 577.663 499.31 585.845 482.182 590.517C458.875 596.871 435.11 599.073 411.008 597.422C410.641 597.399 410.289 597.238 409.953 597.146C409.028 592.926 409.356 592.597 413.616 592.559C439.835 592.314 465.719 589.875 490.784 581.425C508.455 575.469 523.496 565.047 538.299 554.189C558.081 539.676 574.589 521.867 589.638 502.621C593.476 497.704 597.108 492.611 601.191 487.909C603.225 485.569 606.078 483.94 608.517 481.937C609.09 481.463 609.61 480.836 609.939 480.178C616.423 467.347 622.93 454.524 629.292 441.632C630.271 439.644 630.585 437.327 631.441 434.383C626.975 442.596 623.076 450.097 618.87 457.422C614.817 464.48 611.422 472.256 606.024 478.152C592.635 492.787 581.265 509.258 566.048 522.257C553.279 533.168 539.163 541.771 524.268 549.478C492.91 565.704 459.632 572.999 424.535 572.831C421.499 572.815 418.44 572.334 415.435 571.791C409.754 570.766 409.341 569.933 410.71 564.978C424.068 564.328 437.174 564.221 450.158 562.936C475.101 560.482 498.66 553.087 521.117 541.878C558.256 523.335 585.34 494.385 606.934 459.732C618.985 440.401 628.688 419.97 633.957 397.65C638.361 379.023 639.332 360.121 638.522 341.073C638.422 338.795 638.307 336.447 638.728 334.23C638.965 332.96 640.311 330.926 641.091 330.949C642.59 331.003 644.639 331.921 645.38 333.144C646.451 334.895 646.864 337.212 647.032 339.322C649.494 370.795 649.77 402.138 642.605 433.198C630.692 484.827 607.064 529.942 567.73 565.88C533.742 596.932 494.584 618.87 449.072 628.199C439.377 630.187 429.39 630.768 419.542 631.984C416.559 632.351 415.114 631.059 414.793 628C414.457 624.804 415.229 623.687 418.792 623.473C434.682 622.502 450.387 620.201 465.665 615.559C449.302 616.446 433.061 622.143 416.605 617.547C416.46 616.913 416.322 616.27 416.177 615.636C417.737 614.94 419.297 613.632 420.849 613.648C442.68 613.831 463.799 608.486 485.225 605.588C494.76 604.296 503.401 600.35 511.567 595.717C533.222 583.436 553.89 569.757 571.187 551.505C588.215 533.535 602.637 513.8 613.265 491.373C614.879 487.97 616.676 484.659 618.381 481.302C618.098 481.149 617.815 480.996 617.54 480.843C616.691 482.396 615.827 483.948 615.001 485.508C607.056 500.464 599.356 515.581 588.819 528.963C567.012 556.643 540.073 577.961 508.386 593.308C492.221 601.138 474.902 604.671 457.208 606.437C445.57 607.599 433.863 608.165 422.172 608.639C418.968 608.769 415.718 607.637 412.484 607.087C412.53 606.338 412.576 605.588 412.614 604.839L412.606 604.824Z" fill="black"/>
<path d="M457.231 341.486C461.161 342.809 464.587 343.734 467.829 345.088C499.929 358.515 518.196 382.555 523.457 416.926C526.218 434.964 525.384 452.375 517.99 469.305C513.937 478.588 508.569 486.762 500.602 493.085C498.354 494.867 495.915 496.197 491.801 492.909C492.932 492.374 494.179 491.992 495.173 491.273C506.734 482.977 511.093 471.667 509.594 457.659C508.027 443.039 502.101 430.277 493.773 418.44C493.269 417.722 492.917 416.888 492.489 416.108C492.259 416.353 492.03 416.59 491.801 416.835C491.801 425.498 492.389 434.207 491.64 442.81C490.875 451.527 488.016 459.823 482.151 467.768C481.715 466.162 481.379 465.42 481.333 464.656C481.05 459.953 480.484 455.235 480.652 450.54C481.241 433.527 473.533 420.046 462.446 408.225C455.128 400.418 450.487 391.334 447.336 381.179C459.135 393.62 468.739 407.865 479.673 421.002C480.071 420.841 480.461 420.681 480.859 420.528C479.406 415.649 478.503 410.526 476.408 405.938C469.289 390.378 458.699 377.478 445.165 366.98C443.077 365.358 441.372 363.248 439.491 361.359C439.82 360.901 440.156 360.442 440.493 359.983C444.37 361.979 448.476 363.623 452.077 366.031C466.307 375.536 478.136 387.64 488.65 401.022C497.872 412.759 506.658 424.825 511.743 439.078C513.303 443.46 514.411 448.002 515.941 453.178C516.422 451.771 516.874 450.938 516.981 450.059C518.196 440.149 518.946 430.124 516.354 420.428C514.908 415.045 512.362 409.632 509.074 405.135C503.615 397.665 497.696 390.355 490.998 384.001C479.727 373.295 466.078 366.024 451.955 359.669C448.361 358.056 444.844 356.267 441.349 354.447C440.179 353.835 439.201 352.856 437.847 351.832C444.897 350.02 463.761 356.618 477.509 365.389C489.499 373.036 500.403 381.898 508.982 393.482C506.704 386.348 502.98 380.154 498.193 374.519C485.599 359.692 469.091 351.817 450.609 347.297C446.082 346.189 441.632 344.744 435.974 343.115C438.153 341.348 439.285 339.873 440.753 339.353C445.295 337.747 449.906 336.187 454.608 335.178C474.757 330.857 492.932 322.92 506.727 306.993C510.343 302.818 513.394 298.146 516.698 293.696C516.384 293.275 516.071 292.854 515.757 292.426C502.521 298.75 489.063 304.661 476.11 311.52C463.172 318.363 451.901 328.166 438.206 333.748C437.893 333.388 437.579 333.029 437.266 332.662C439.782 330.162 442.137 327.478 444.828 325.199C466.131 307.169 491.051 295.615 516.698 285.453C520.009 284.137 521.897 282.325 522.838 278.938C524.772 271.987 527.005 265.121 529.23 257.818C492.726 271.597 464.059 296.081 437.167 323.112C436.731 322.79 436.287 322.469 435.851 322.148C436.494 320.275 436.708 318.065 437.862 316.582C442.221 310.961 446.572 305.272 451.511 300.172C456.826 294.69 460.725 288.565 464.036 281.683C468.54 272.308 474.114 263.438 479.23 254.354C479.826 253.299 480.453 252.275 481.455 250.569C459.67 266.245 444.37 286.569 430.858 308.476C430.415 308.446 429.971 308.415 429.528 308.384C429.222 307.054 428.388 305.586 428.702 304.424C429.535 301.38 430.529 298.283 432.051 295.538C442.641 276.407 457.17 260.602 474.244 247.19C492.152 233.12 511.666 221.666 533.084 213.69C550.526 207.191 568.51 205.784 586.869 208.231C587.871 208.361 588.957 208.506 589.813 208.98C590.8 209.531 591.572 210.456 592.436 211.213C591.503 212.146 590.67 213.224 589.599 213.966C589.072 214.333 588.108 214.142 587.359 214.08C570.751 212.735 549.348 222.989 541.579 244.032C537.228 255.83 533.826 267.973 529.704 279.863C518.005 313.607 494.477 333.771 459.441 340.553C458.875 340.66 458.347 340.997 457.223 341.478L457.231 341.486ZM551.81 218.309C551.512 218.034 551.222 217.758 550.923 217.491C532.847 220.878 516.392 227.867 502.246 239.803C488.994 250.982 470.773 276.132 470.995 282.983C472.142 282.18 473.197 281.499 474.191 280.727C490.707 267.919 508.791 257.864 528.359 250.585C531.501 249.415 533.107 247.74 534.032 244.712C536.364 237.081 540.035 230.107 545.318 224.105C547.222 221.941 549.631 220.228 551.803 218.309H551.81Z" fill="black"/>
<path d="M359.807 323.402C333.748 295.882 306.167 270.465 268.554 257.206C269.135 259.913 269.372 261.741 269.923 263.469C271.46 268.317 273.455 273.05 274.641 277.982C275.726 282.486 278.296 284.696 282.524 286.179C297.198 291.325 311.68 297.083 324.626 305.846C335.04 312.896 345.042 320.573 355.173 328.036C356.488 329.007 357.536 330.345 358.637 331.584C358.943 331.928 358.989 332.494 359.539 334.046C355.387 332.272 351.755 331.232 348.681 329.305C338.649 323.027 328.846 316.383 318.898 309.96C307.689 302.718 295.385 297.962 281.691 293.864C284.115 297.251 285.973 300.011 288.007 302.642C301.755 320.389 320.259 330.223 341.792 335.17C346.969 336.363 352 338.198 357.054 339.895C358.293 340.308 359.325 341.333 361.13 342.534C359.364 343.352 358.316 343.963 357.184 344.338C347.282 347.603 337.151 350.287 327.508 354.179C309.914 361.275 297.152 373.892 288.603 390.79C287.984 392.006 287.54 393.314 286.623 394.01C291.792 389.33 296.838 384.497 302.168 380.017C307.52 375.52 312.911 370.978 318.753 367.178C324.702 363.309 331.072 360.006 337.525 357.031C343.788 354.141 350.333 351.725 357.406 352.069C357.544 352.405 357.689 352.742 357.827 353.07C356.099 353.934 354.378 354.806 352.635 355.647C337.487 363.003 322.768 371.047 309.562 381.638C300.218 389.131 292.755 398.322 285.766 407.896C281.178 414.173 279.955 421.774 279.649 429.298C279.358 436.402 280.008 443.544 280.314 450.662C280.345 451.328 280.811 451.97 281.201 452.911C286.447 424.978 303.498 404.569 322.355 385.583C338.458 369.373 348.406 363.072 356.947 361.566C354.89 364.02 353.667 366.077 351.916 367.476C339.506 377.394 329.252 389.147 322.095 403.338C318.921 409.624 316.711 416.391 314.058 422.936C314.593 423.235 315.129 423.533 315.656 423.839C326.43 410.381 337.196 396.915 347.97 383.458C346.326 391.8 343.857 399.706 338.045 406.29C331.225 414.021 324.626 421.958 318.019 429.879C314.081 434.597 313.355 440.126 314.326 446.633C315.259 445.631 315.84 444.996 317.201 443.536C315.794 452.192 314.54 459.915 313.286 467.638C312.926 467.699 312.567 467.76 312.208 467.821C310.686 464.105 308.782 460.496 307.704 456.65C304.592 445.539 304.133 434.131 306.924 423.005C308.438 416.972 311.963 411.436 314.586 405.678C315.473 403.736 316.383 401.809 316.826 399.584C316.268 400.333 315.679 401.06 315.152 401.832C308.17 411.956 300.333 421.621 294.445 432.349C287.724 444.599 285.132 458.187 288.374 472.256C290.216 480.247 294.338 486.815 301.403 491.319C302.367 491.931 303.231 492.695 304.11 493.429C304.263 493.559 304.263 493.873 304.393 494.27C301.954 496.373 299.438 495.295 297.549 493.75C293.833 490.707 289.865 487.671 287.066 483.856C274.373 466.544 270.488 446.816 273.081 425.865C274.258 416.307 276.147 406.657 279.175 397.542C287.303 373.066 303.69 356.007 327.829 346.601C331.844 345.034 335.973 343.749 340.033 342.304C340.209 342.243 340.286 341.899 340.622 341.318C339.337 340.997 338.19 340.653 337.013 340.431C309.608 335.132 288.695 320.412 275.367 296.012C269.93 286.057 266.015 275.061 262.865 264.119C258.155 247.74 251.441 232.493 240.797 219.249C237.005 214.531 231.637 211.083 227.194 207.237C237.555 205.738 248.161 207.749 258.545 210.884C278.403 216.887 295.959 227.446 312.621 239.482C332.509 253.85 349.897 270.725 363.08 291.608C365.045 294.72 366.666 298.054 368.463 301.281C369.939 303.942 370.78 306.496 367.239 308.308C360.105 298.696 353.009 288.848 345.608 279.236C338.114 269.502 328.976 261.404 318.707 254.201C319.61 256.006 320.504 257.818 321.429 259.607C326.201 268.875 330.842 278.227 335.843 287.372C337.586 290.553 340.186 293.275 342.465 296.158C348.062 303.231 353.797 310.197 359.249 317.384C360.35 318.837 360.442 321.055 361 322.92C360.61 323.073 360.22 323.234 359.83 323.387L359.807 323.402ZM324.794 280.444C320.152 264.448 302.03 242.158 284.451 231.14C273.195 224.082 261.32 218.53 248.138 215.9C249.323 218.087 250.868 219.731 252.29 221.474C258.078 228.524 262.597 236.316 264.815 245.194C265.641 248.505 267.353 249.904 270.343 251.105C279.519 254.782 288.886 258.223 297.534 262.941C307.069 268.141 315.893 274.656 324.794 280.444Z" fill="black"/>
<path d="M249.346 246.54C252.42 249.377 252.344 252.359 250.868 255.708C246.463 265.717 241.646 275.581 237.907 285.835C228.119 312.674 223.348 340.569 224.679 369.067C226.72 412.828 240.95 452.322 267.981 487.228C285.751 510.183 307.482 528.183 332.41 542.635C334.49 543.843 336.707 544.868 338.94 545.762C345.264 548.278 345.906 549.402 344.629 557.515C294.598 535.73 259.531 498.935 236.393 450.785C201.104 377.341 218.875 286.936 249.354 246.555L249.346 246.54Z" fill="black"/>
<path d="M357.039 601.375C354.73 600.947 352.482 600.763 350.379 600.106C335.874 595.548 322.186 589.286 309.065 581.517C301.678 577.151 293.413 574.284 285.575 570.667C283.855 569.872 281.752 569.13 280.727 567.708C275.367 560.298 266.573 557.163 260.326 550.931C254.01 544.638 247.526 538.483 241.646 531.792C226.162 514.167 214.164 494.286 204.071 473.136C191.003 445.762 183.433 416.858 181.445 386.799C177.752 330.911 189.168 278.625 221.918 232.134C224.648 228.257 228.127 224.908 231.254 221.307C231.767 221.505 232.287 221.697 232.799 221.895C232.799 223.264 233.25 224.862 232.707 225.971C231.545 228.357 229.947 230.544 228.395 232.715C205.837 264.249 192.349 299.171 188.442 337.839C185.88 363.21 185.804 388.443 190.743 413.547C197.893 449.837 212.261 483.061 234.344 512.676C243.366 524.78 254.026 535.661 263.943 547.093C264.28 547.475 264.769 547.75 265.014 548.179C270.833 558.111 280.406 562.118 290.752 565.681C298.36 568.304 305.517 572.464 312.506 576.578C325.199 584.048 338.473 590.074 352.589 594.218C356.03 595.227 357.834 597.017 357.031 601.36L357.039 601.375Z" fill="black"/>
<path d="M234.955 534.453C233.671 535.745 232.868 536.548 231.553 537.863C213.308 518.449 200.019 496.236 189.703 472.111C173.783 434.865 166.198 396.105 168.607 355.525C170.924 316.482 179.725 279.198 199.636 245.202C205.715 234.818 213.522 225.443 220.496 215.579C222.354 212.957 223.837 215.182 225.328 215.908C227.11 216.765 227.187 218.126 225.887 219.609C223.539 222.293 221.092 224.9 218.913 227.707C195.033 258.522 182.432 293.895 177.102 332.127C173.279 359.57 173.424 386.983 178.402 414.304C183.609 442.871 193.282 469.894 207.665 495.058C213.706 505.626 221.383 515.253 228.349 525.285C230.429 528.275 232.6 531.203 234.948 534.453H234.955Z" fill="black"/>
<path d="M280.727 543.667C272.392 547.36 267.957 541.809 263.209 536.922C243.32 516.453 227.638 493.269 215.571 467.294C196.761 426.813 190.231 384.589 194.322 340.385C197.166 309.677 205.096 280.551 220.488 253.674C224.09 247.388 227.997 241.279 231.851 235.146C232.585 233.984 233.571 232.86 234.703 232.095C235.804 231.346 237.234 231.078 238.526 230.597C238.411 231.996 238.74 233.648 238.113 234.764C235.116 240.078 231.95 245.301 228.693 250.462C218.041 267.315 210.662 285.598 205.845 304.829C199.613 329.71 197.442 355.143 199.284 380.682C201.441 410.603 207.673 439.69 221.91 466.498C228.295 478.511 234.473 490.738 242.021 502.001C252.664 517.89 265.182 532.35 280.727 543.674V543.667Z" fill="black"/>
<path d="M554.326 343.589C555.97 342.947 557.56 341.983 559.258 341.723C564.282 340.958 569.382 340.683 574.39 339.827C580.217 338.833 582.916 336.126 583.757 330.33C584.728 323.662 585.287 316.933 586.013 310.227C586.112 309.34 585.906 308.316 586.281 307.589C586.976 306.251 588.009 305.089 588.903 303.85C589.515 305.196 590.509 306.496 590.67 307.895C591.511 315.22 592.069 322.576 592.857 329.909C593.476 335.659 597.093 338.703 602.537 339.674C607.668 340.591 612.86 341.173 617.983 342.136C619.283 342.381 620.422 343.489 621.63 344.208C620.46 345.026 619.39 346.311 618.113 346.571C613.51 347.512 608.807 347.94 604.204 348.865C596.58 350.387 594.088 353.078 592.803 360.633C592.077 364.892 591.473 369.182 590.654 373.425C590.318 375.184 589.553 376.859 588.987 378.572C588.521 378.556 588.055 378.541 587.588 378.533C587.099 376.438 586.495 374.366 586.143 372.248C585.539 368.608 585.256 364.915 584.552 361.298C582.985 353.262 578.214 348.98 570.078 348.001C566.293 347.542 562.492 347.144 558.73 346.502C557.232 346.25 555.84 345.416 554.395 344.851L554.326 343.604V343.589Z" fill="black"/>
<path d="M361.015 613.151C343.895 610.818 328.77 603.478 313.202 597.338C284.879 586.166 260.525 569.397 239.926 547.085C242.778 542.398 243.848 542.314 247.304 546.076C261.221 561.239 277.172 574.169 295.714 582.794C315.022 591.771 335.323 598.645 355.303 606.139C358.775 607.446 360.518 609.236 361.023 613.151H361.015Z" fill="black"/>
<path d="M209.087 363.37C205.394 362.697 204.943 360.48 205.134 358.064C205.876 348.681 206.495 339.284 207.535 329.932C210.127 306.733 215.893 284.375 226.59 263.538C230.467 255.983 235.299 248.918 239.734 241.654C240.254 240.797 240.904 239.826 241.738 239.39C242.808 238.832 244.131 238.771 245.347 238.496C245.225 239.612 245.431 240.912 244.926 241.814C241.646 247.694 237.983 253.376 234.856 259.34C221.192 285.407 213.897 313.301 211.381 342.526C210.915 347.978 210.548 353.438 210.051 358.889C209.913 360.35 209.439 361.78 209.087 363.37Z" fill="black"/>
<path d="M543.766 544.332C542.466 545.762 541.388 547.521 539.828 548.561C530.439 554.846 521.01 561.078 511.437 567.08C508.677 568.816 505.404 569.726 502.368 571.041C498.063 572.907 493.881 575.14 489.446 576.585C484.414 578.229 479.207 579.46 473.984 580.362C464.235 582.052 454.41 583.352 444.63 584.874C440.799 585.47 439.002 584.3 439.224 581.165C439.384 578.886 440.439 577.64 442.871 577.816C459.976 579.062 475.988 573.396 492.344 569.917C500.785 563.846 511.544 562.599 519.833 555.626C526.371 550.128 534.866 546.947 542.489 542.734C542.918 543.261 543.338 543.797 543.766 544.324V544.332Z" fill="black"/>
<path d="M267.338 314.945C268.378 316.544 269.28 317.346 269.449 318.279C269.953 321.024 270.121 323.823 270.496 326.599C271.375 333.144 272.989 334.819 279.511 335.958C281.515 336.31 283.602 336.333 285.537 336.891C286.615 337.204 287.464 338.305 288.412 339.055C287.54 339.842 286.791 341.028 285.774 341.341C283.487 342.06 281.071 342.373 278.701 342.809C273.402 343.773 271.941 345.317 271.07 350.723C270.649 353.354 270.244 355.999 269.502 358.546C269.234 359.463 268.019 360.113 267.239 360.878C266.443 359.991 265.197 359.219 264.937 358.194C264.287 355.617 264.127 352.926 263.698 350.288C262.827 345.034 261.381 343.673 256.121 342.802C253.49 342.366 250.852 341.915 248.291 341.203C247.365 340.944 246.662 339.904 245.859 339.223C246.731 338.42 247.488 337.143 248.497 336.906C251.082 336.302 253.789 336.195 256.434 335.813C261.404 335.102 263.025 333.572 263.828 328.587C264.333 325.452 264.478 322.248 265.059 319.128C265.289 317.912 266.268 316.842 267.338 314.93V314.945Z" fill="black"/>
<path d="M352.658 589.034C343.681 585.012 335.216 581.808 327.332 577.549C315.824 571.332 304.691 564.404 293.489 557.637C291.562 556.475 289.788 554.839 288.427 553.049C287.318 551.596 286.928 549.593 286.217 547.834L287.387 547.177C294.024 551.359 300.769 555.397 307.283 559.763C319.602 568.021 332.746 574.605 346.548 579.95C349.545 581.112 352.596 582.289 353.063 586.128C353.132 586.686 352.91 587.275 352.65 589.034H352.658Z" fill="black"/>
<path d="M342.908 192.556C344.132 194.544 345.256 195.66 345.531 196.952C346.105 199.675 346.349 202.488 346.525 205.279C346.709 208.246 348.177 209.569 351.098 209.776C353.109 209.921 355.15 210.318 357.07 210.93C357.873 211.182 358.706 212.215 358.928 213.048C359.05 213.522 358.094 214.578 357.398 214.914C355.816 215.686 354.149 216.428 352.436 216.741C348.1 217.537 346.112 220.022 346.005 224.373C345.959 226.391 345.661 228.456 345.095 230.398C344.835 231.3 343.681 231.95 342.931 232.715C342.205 231.912 341.05 231.209 340.828 230.283C340.278 227.944 340.003 225.512 339.88 223.096C339.682 219.188 337.846 216.971 333.924 216.443C331.913 216.168 329.856 215.885 327.944 215.243C326.965 214.914 326.262 213.782 325.428 213.018C326.4 212.192 327.248 210.953 328.365 210.64C330.292 210.089 332.387 210.081 334.413 209.89C337.923 209.554 339.544 207.535 339.819 204.125C340.033 201.464 340.339 198.803 340.836 196.18C341.02 195.209 341.853 194.36 342.908 192.571V192.556Z" fill="black"/>
<path d="M575.132 401.748C573.029 402.643 571.24 403.767 569.313 404.149C564.664 405.074 562.118 407.46 562.141 412.415C562.148 414.158 561.774 416.001 561.131 417.622C560.795 418.478 559.572 419.258 558.616 419.465C558.195 419.557 557.178 418.226 556.895 417.393C556.245 415.473 555.863 413.455 555.404 411.474C554.517 407.613 552.338 405.281 548.232 404.631C545.487 404.195 542.833 403.17 540.142 402.406C540.142 401.824 540.157 401.243 540.165 400.662C541.946 400.188 543.705 399.431 545.517 399.286C554.28 398.59 554.808 398.192 556.712 389.468C556.872 388.718 556.804 387.839 557.193 387.25C557.614 386.616 558.455 385.897 559.113 385.889C559.778 385.889 561.017 386.707 561.024 387.189C561.231 395.623 566.063 399.362 573.886 400.249C574.146 400.28 574.352 400.792 575.132 401.763V401.748Z" fill="black"/>
<path d="M376.744 564.993C375.949 563.754 374.504 562.538 374.45 561.269C373.747 544.126 373.196 526.967 372.73 509.816C372.684 508.049 373.425 506.26 374.289 504.524C379.795 524.298 375.368 544.546 378.373 564.381C377.83 564.588 377.287 564.794 376.752 564.993H376.744Z" fill="black"/>
<path d="M460.297 215.388C459.158 214.004 458.47 213.453 458.187 212.75C457.82 211.825 457.674 210.777 457.629 209.775C457.445 206.166 456.099 203.758 452.054 203.414C451.045 203.329 450.12 202.183 449.156 201.517C450.059 200.638 450.831 199.231 451.878 198.979C455.151 198.191 456.711 196.18 457.575 193.091C457.927 191.837 459.15 190.835 459.976 189.719C460.886 190.743 461.819 191.745 462.691 192.808C464.373 194.865 465.726 197.327 467.76 198.933C470.069 200.753 469.871 202.458 467.668 203.131C463.501 204.4 462.92 207.504 462.285 210.953C462.048 212.253 461.192 213.446 460.297 215.38V215.388Z" fill="black"/>
<path d="M277.103 523.656C276.093 525.277 275.658 526.676 274.732 527.204C274.166 527.525 272.637 526.722 271.888 526.042C270.58 524.856 269.319 523.503 268.424 521.997C266.161 518.143 263.156 515.253 259.065 513.379C257.23 512.538 255.28 511.445 257.23 508.761C259.011 506.314 260.831 506.857 262.743 508.34C263.637 509.036 264.41 509.915 265.136 510.787C267.254 513.326 268.6 516.315 272.308 517.623C274.335 518.334 275.497 521.523 277.087 523.656H277.103Z" fill="black"/>
<path d="M570.177 466.812C570.261 470.008 567.715 473.189 564.97 473.319C561.69 473.48 558.363 470.551 558.233 467.378C558.073 463.662 560.535 460.664 563.861 460.527C567.134 460.389 570.086 463.325 570.177 466.812Z" fill="black"/>
<path d="M582.649 260.816C582.649 263.974 579.667 267.162 576.746 267.116C573.496 267.063 570.69 264.249 570.682 261.053C570.667 257.749 573.695 254.461 576.776 254.431C579.705 254.4 582.641 257.604 582.649 260.823V260.816Z" fill="black"/>
<path d="M544.294 493.063C544.263 496.144 541.503 498.989 538.551 498.973C535.271 498.958 532.037 495.876 532.052 492.787C532.067 489.606 535.072 486.494 538.024 486.594C541.205 486.701 544.332 489.935 544.301 493.063H544.294Z" fill="black"/>
<path d="M261.496 203.559C269.097 197.052 276.453 190.759 283.816 184.458C284.374 184.84 284.925 185.23 285.483 185.613C284.734 187.195 284.352 189.168 283.159 190.292C280.314 192.991 277.057 195.247 274.044 197.771C271.712 199.728 269.326 201.67 267.277 203.895C265.518 205.807 264.058 206.113 261.489 203.551L261.496 203.559Z" fill="black"/>
<path d="M436.93 526.241C434.33 522.838 431.921 520.682 430.874 517.998C430.048 515.872 434.789 511.674 437.037 511.85C439.422 512.041 444.163 516.453 443.291 518.12C441.915 520.743 439.644 522.884 436.93 526.241Z" fill="black"/>
<path d="M358.239 651.865C358.163 654.686 355.02 657.76 352.214 657.76C349.469 657.76 346.525 654.465 346.655 651.528C346.793 648.309 349.538 645.618 352.573 645.725C355.517 645.832 358.324 648.867 358.239 651.865Z" fill="black"/>
<path d="M336.539 478.121C333.488 478.022 330.559 475.468 330.552 472.898C330.552 470.268 334.551 466.001 336.738 466.98C339.016 468.005 341.234 470.146 342.389 472.371C343.344 474.214 338.902 478.205 336.539 478.129V478.121Z" fill="black"/>
<path d="M211.947 383.282C205.44 384.987 204.935 384.345 205.723 378.678C206.113 375.888 205.149 372.928 205.386 370.091C205.539 368.226 206.748 366.444 208.109 364.77C212.605 370.734 208.896 377.539 211.939 383.282H211.947Z" fill="black"/>
<path d="M434.421 480.882C437.388 483.696 439.652 485.837 442.496 488.536C439.774 490.669 437.641 493.521 435.194 493.827C433.603 494.026 430.009 490.463 430.071 488.673C430.147 486.119 432.747 483.634 434.421 480.874V480.882Z" fill="black"/>
<path d="M551.757 602.002C551.841 604.732 549.279 607.5 546.572 607.607C543.613 607.721 540.991 605.382 540.945 602.598C540.891 599.394 543.567 596.649 546.702 596.68C549.188 596.703 551.673 599.318 551.757 602.002Z" fill="black"/>
<path d="M253.177 403.018C250.248 402.949 247.266 400.104 247.434 397.535C247.61 394.782 250.286 392.29 253.016 392.343C255.731 392.389 258.629 395.134 258.575 397.604C258.514 400.303 255.746 403.086 253.184 403.025L253.177 403.018Z" fill="black"/>
<path d="M275.428 623.817C275.489 620.675 277.424 618.648 280.314 618.709C283.227 618.763 285.781 621.554 285.628 624.513C285.468 627.564 282.998 630.141 280.398 629.98C277.531 629.804 275.367 627.113 275.428 623.817Z" fill="black"/>
<path d="M513.945 625.783C513.585 628.283 512.416 630.416 509.395 630.707C506.887 630.944 503.775 628.314 503.699 626.15C503.607 623.527 506.314 620.499 508.791 620.445C511.291 620.384 513.907 622.976 513.945 625.79V625.783Z" fill="black"/>
<path d="M461.796 467.929C461.857 470.383 459.081 473.449 456.864 473.388C454.593 473.319 451.618 470.383 451.542 468.135C451.458 465.688 454.111 462.882 456.596 462.798C459.081 462.714 461.735 465.321 461.796 467.929Z" fill="black"/>
<path d="M522.104 334.168C523.495 335.774 525.361 337.915 527.349 340.209C526.806 340.89 526.256 341.54 525.743 342.22C522.065 347.037 521.958 346.961 518.242 342.427C517.271 341.241 515.444 340.752 514.006 339.942C516.698 338.022 519.229 336.218 522.096 334.168H522.104Z" fill="black"/>
<path d="M522.524 614.358C522.738 611.866 524.229 610.153 527.28 610.069C530.064 609.992 532.465 612.286 532.518 614.955C532.564 617.364 530.125 620.2 527.976 620.246C525.621 620.292 522.593 617.287 522.517 614.358H522.524Z" fill="black"/>
<path d="M431.156 162.39C433.726 162.413 436.478 165.051 436.211 167.529C435.92 170.205 434.154 172.522 431.6 171.88C429.604 171.383 427.379 169.18 426.591 167.208C425.689 164.921 428.572 162.367 431.156 162.39Z" fill="black"/>
<path d="M338.81 564.565C341.608 565.612 344.484 566.339 346.923 567.784C347.909 568.373 347.955 570.544 348.429 571.989C347.167 572.165 345.722 572.823 344.682 572.425C342.113 571.439 339.636 570.108 337.326 568.602C336.661 568.166 336.493 566.645 336.531 565.635C336.547 565.284 337.862 564.978 338.802 564.557L338.81 564.565Z" fill="black"/>
<path d="M490.975 201.066C491.847 200.355 493.277 198.245 494.982 197.992C497.673 197.602 499.738 200.019 499.401 202.466C499.172 204.178 497.008 206.648 495.387 206.931C492.917 207.367 490.998 205.417 490.967 201.066H490.975Z" fill="black"/>
<path d="M239.589 593.056C243.818 593.423 245.255 595.227 245.255 597.965C245.255 600.457 243.84 602.201 241.195 601.941C238.649 601.688 236.102 600.434 236.561 597.498C236.844 595.709 238.779 594.172 239.589 593.048V593.056Z" fill="black"/>
<path d="M612.562 390.347C613.701 392.175 615.697 394.002 615.689 395.83C615.689 397.16 613.181 399.355 611.552 399.607C609.205 399.959 606.964 398.108 607.5 395.417C607.859 393.589 609.58 392.029 610.696 390.347C611.315 390.347 611.942 390.347 612.562 390.347Z" fill="black"/>
<path d="M254.607 502.276C252.129 501.298 249.4 500.701 247.251 499.241C245.102 497.78 245.186 494.056 247.037 492.887C249.545 491.304 251.151 493.085 252.321 494.936C253.521 496.832 254.332 498.973 255.31 501.007C255.073 501.428 254.836 501.856 254.599 502.276H254.607Z" fill="black"/>
<path d="M612.738 288.924C611.063 290.056 609.343 292.136 607.721 292.059C606.177 291.983 604.739 289.666 603.248 288.336C604.686 286.806 605.963 284.314 607.607 284.046C609.098 283.801 610.994 285.973 612.707 287.074C612.715 287.693 612.722 288.313 612.738 288.932V288.924Z" fill="black"/>
<path d="M587.351 441.77C588.406 438.245 589.745 435.981 592.406 436.968C593.958 437.541 595.739 439.858 595.831 441.487C595.961 443.72 594.195 446.228 591.488 445.478C589.745 444.997 588.468 442.84 587.344 441.778L587.351 441.77Z" fill="black"/>
<path d="M610.306 314.655C612.738 312.728 614.106 310.808 615.781 310.495C618.495 309.983 620.346 312.345 619.902 314.678C619.566 316.49 617.348 317.943 615.964 319.564C614.382 318.195 612.799 316.826 610.298 314.662L610.306 314.655Z" fill="black"/>
<path d="M513.654 188.625C516.774 189.283 519.481 192.059 518.724 194.1C518.173 195.599 515.803 197.885 515.214 197.625C513.417 196.83 511.261 195.178 510.841 193.458C510.519 192.158 512.63 190.254 513.654 188.618V188.625Z" fill="black"/>
<path d="M257.275 612.577C257.895 609.304 258.919 607.76 261.496 607.859C264.05 607.958 266.367 609.342 266.038 611.866C265.824 613.487 263.561 615.926 262.108 616.01C260.563 616.094 258.889 613.823 257.275 612.577Z" fill="black"/>
<path d="M551.833 303.843C550.258 304.73 548.4 306.611 547.184 306.259C545.594 305.8 544.516 303.575 543.223 302.107C544.646 300.945 546.098 298.819 547.475 298.873C549.019 298.934 550.488 300.96 551.986 302.13C551.933 302.703 551.879 303.269 551.833 303.843Z" fill="black"/>
<path d="M221.597 447.788C221.995 447.428 222.752 446.151 223.761 445.914C225.894 445.417 229.526 449.508 229.381 452.498C229.335 453.377 227.592 454.647 226.445 454.907C224.243 455.404 221.742 452.009 221.605 447.788H221.597Z" fill="black"/>
<path d="M241.654 478.229C243.076 480.232 244.697 482.036 245.645 484.147C245.89 484.69 243.848 487.16 243.175 487.037C241.462 486.724 239.612 485.722 238.434 484.437C237.593 483.52 237.295 481.578 237.616 480.316C237.807 479.551 239.65 479.207 241.661 478.229H241.654Z" fill="black"/>
<path d="M228.601 465.199C229.48 464.664 230.574 463.509 231.782 463.371C234.068 463.104 237.632 466.484 236.875 468.296C236.324 469.619 234.252 470.995 232.768 471.11C229.595 471.354 229.236 468.563 228.601 465.199Z" fill="black"/>
<path d="M422.462 582.366C418.846 586.059 415.496 585.684 412.216 584.82C411.643 584.667 410.886 582.748 411.199 582.197C411.887 580.982 413.394 579.124 414.22 579.284C416.858 579.804 419.335 581.127 422.455 582.366H422.462Z" fill="black"/>
<path d="M422.875 582.037C425.1 581.089 427.257 579.751 429.581 579.292C432.181 578.78 433.343 580.875 432.892 583.046C432.678 584.063 430.766 585.401 429.612 585.409C427.494 585.424 425.368 584.576 423.242 584.086C423.12 583.406 422.998 582.725 422.875 582.037Z" fill="black"/>
<path d="M396.105 184.03C394.576 185.077 393.016 186.981 391.525 186.928C390.11 186.882 388.764 184.787 387.388 183.594C388.604 182.248 389.781 179.862 391.051 179.816C392.695 179.755 394.407 181.552 396.097 182.546C396.097 183.036 396.105 183.533 396.113 184.022L396.105 184.03Z" fill="black"/>
<path d="M310.441 636.052C308.071 637.78 306.358 639.875 305.295 639.592C303.667 639.148 302 637.252 301.357 635.585C301.105 634.928 303.69 632.114 304.737 632.244C306.45 632.458 307.964 634.278 310.441 636.052Z" fill="black"/>
<path d="M320.244 560.275C318.394 558.784 316.536 557.293 314.685 555.802C315.687 554.594 316.474 552.842 317.751 552.353C318.799 551.955 321.353 552.781 321.597 553.577C322.179 555.442 321.781 557.622 321.781 559.671C321.269 559.87 320.756 560.068 320.244 560.275Z" fill="black"/>
<path d="M249.43 365.381C248.123 366.276 246.708 368.012 245.53 367.867C244.055 367.683 242.77 365.955 241.401 364.892C242.548 363.615 243.619 361.405 244.865 361.298C246.326 361.176 247.939 362.881 249.484 363.791C249.468 364.319 249.445 364.854 249.43 365.381Z" fill="black"/>
<path d="M332.111 567.042C330.016 565.299 328.426 563.976 326.843 562.661C328.365 561.506 329.894 560.351 331.416 559.197C332.517 560.856 333.771 562.439 334.589 564.228C334.757 564.595 333.327 565.704 332.111 567.05V567.042Z" fill="black"/>
<path d="M210.792 418.617C212.268 418.028 214.019 416.659 215.136 417.057C216.489 417.538 217.307 419.519 218.355 420.857C216.925 421.805 215.487 423.48 214.057 423.48C212.865 423.48 211.679 421.499 210.494 420.398C210.594 419.802 210.685 419.213 210.785 418.617H210.792Z" fill="black"/>
<path d="M507.117 515.337C507.942 516.782 509.502 518.304 509.372 519.665C509.25 520.927 507.323 522.012 506.184 523.167C505.083 521.829 503.347 520.605 503.102 519.13C502.926 518.028 504.685 516.614 505.58 515.337C506.092 515.337 506.604 515.337 507.117 515.337Z" fill="black"/>
<path d="M309.424 553.34C306.725 551.581 303.82 550.289 305.234 547.123C305.67 546.145 309.371 545.365 310.334 546.114C313.324 548.408 310.464 550.641 309.424 553.348V553.34Z" fill="black"/>
<path d="M617.417 377.509C615.85 375.085 614.16 373.624 614.351 372.485C614.588 371.101 616.408 369.985 617.539 368.753C618.671 369.893 620.697 371.017 620.705 372.164C620.72 373.578 619.053 375.016 617.409 377.509H617.417Z" fill="black"/>
<path d="M489.652 182.05C487.274 183.51 485.791 185.154 484.613 184.948C483.351 184.734 482.38 182.791 481.279 181.598C482.48 180.559 483.65 178.746 484.896 178.693C486.127 178.647 487.427 180.375 489.652 182.05Z" fill="black"/>
<path d="M286.623 183.151C288.794 181.377 290.706 179.671 292.793 178.203C293.321 177.836 294.69 177.92 295.11 178.356C295.546 178.807 295.554 180.008 295.309 180.727C294.139 184.183 290.515 185.391 286.623 183.151Z" fill="black"/>
<path d="M219.479 430.476C220.496 431.913 221.964 433.252 222.339 434.842C222.499 435.538 220.45 436.761 219.395 437.74C218.202 436.387 216.718 435.179 215.969 433.611C215.701 433.06 217.192 431.653 217.888 430.637L219.486 430.468L219.479 430.476Z" fill="black"/>
<path d="M290.43 540.891C288.771 539.362 287.12 537.833 285.292 536.143C287.762 534.17 290.14 532.748 292.074 534.835C293.023 535.86 292.235 538.49 292.235 540.386C291.631 540.555 291.027 540.715 290.423 540.883L290.43 540.891Z" fill="black"/>
<path d="M212.78 403.01C213.56 404.333 214.99 405.678 214.929 406.963C214.876 408.011 213.048 408.966 212.008 409.968C211.06 408.867 209.531 407.842 209.347 406.627C209.187 405.548 210.532 404.241 211.213 403.04C211.733 403.033 212.253 403.025 212.773 403.017L212.78 403.01Z" fill="black"/>
<path d="M251.64 305.242C250.256 303.17 248.566 301.64 248.857 300.845C249.346 299.522 251.105 298.673 252.328 297.618C253.253 298.757 254.905 299.904 254.905 301.044C254.905 302.168 253.238 303.3 251.64 305.234V305.242Z" fill="black"/>
<path d="M210.532 389.261C211.679 391.234 212.949 392.435 212.78 393.375C212.597 394.415 210.777 396.135 210.219 395.944C208.843 395.478 207.78 394.086 206.594 393.069C207.634 392.067 208.674 391.058 210.54 389.261H210.532Z" fill="black"/>
<path d="M567.302 587.917C565.658 589.324 564.152 591.022 563.823 590.823C562.5 590.005 561.185 588.743 560.619 587.336C560.397 586.778 562.515 584.469 562.898 584.622C564.328 585.187 565.475 586.457 567.302 587.917Z" fill="black"/>
<path d="M284.581 534.85C281.76 534.101 279.091 533.749 279.343 530.561C279.412 529.697 281.5 528.183 282.44 528.335C286.401 528.978 284.795 531.929 284.581 534.85Z" fill="black"/>
<path d="M300.692 546.817C298.934 544.898 297.305 543.873 297.075 542.596C296.915 541.709 298.681 540.471 299.583 539.393C300.516 540.402 301.9 541.289 302.244 542.474C302.52 543.399 301.51 544.707 300.692 546.817Z" fill="black"/>
<path d="M300.944 175.856C301.235 171.574 303.789 170.358 307.138 169.746C307.536 173.256 305.655 175.114 300.944 175.856Z" fill="black"/>
<path d="M381.653 207.52C379.971 209.301 379.008 210.318 378.044 211.335C377.004 210.28 375.628 209.37 375.085 208.101C374.871 207.604 376.431 205.631 377.302 205.547C378.419 205.432 379.665 206.541 381.661 207.52H381.653Z" fill="black"/>
<path d="M418.448 192.9C416.498 194.375 415.252 195.989 414.334 195.82C413.31 195.629 412.033 193.878 411.918 192.701C411.834 191.883 413.508 190.162 414.418 190.154C415.481 190.139 416.575 191.531 418.448 192.9Z" fill="black"/>
<path d="M543.116 369.128C541.495 370.466 540.494 371.881 539.813 371.736C538.59 371.476 537.565 370.29 536.464 369.488C537.359 368.639 538.177 367.24 539.171 367.094C540.127 366.957 541.274 368.111 543.116 369.121V369.128Z" fill="black"/>
<path d="M251.663 377.853C249.751 379.046 248.719 380.177 247.648 380.2C246.853 380.223 246.02 378.816 245.209 378.044C246.081 377.302 246.884 376.086 247.847 375.949C248.727 375.819 249.774 376.843 251.663 377.853Z" fill="black"/>
<path d="M612.592 415.871C611.568 416.307 610.451 417.217 609.541 417.041C608.578 416.858 607.515 415.78 607.079 414.831C606.888 414.411 608.165 412.675 608.738 412.698C609.732 412.729 610.696 413.669 611.667 414.22C611.973 414.77 612.279 415.321 612.585 415.871H612.592Z" fill="black"/>
</svg>
