<svg width="800" height="800" viewBox="0 0 800 800" fill="none" xmlns="http://www.w3.org/2000/svg">
<path d="M398.678 140.225C411.306 141.684 424.268 143.149 437.23 144.68C449 146.067 460.784 147.383 472.516 149.051C475.29 149.444 478.11 150.785 480.498 152.329C492.04 159.788 504.419 165.219 517.721 168.647C519.481 169.099 521.339 170.211 522.57 171.552C534.615 184.736 546.517 198.064 558.517 211.294C561.278 214.337 561.762 216.437 558.929 219.578C553.825 225.237 548.198 230.426 543.069 236.059C528.02 252.58 513.246 269.344 498.112 285.786C480.838 304.551 463.29 323.061 445.886 341.702C431.753 356.843 417.64 372.003 403.546 387.176C402.14 388.694 400.923 390.382 399.562 391.939C396.689 395.217 395.014 395.283 392.077 392.09C387.575 387.202 383.204 382.184 378.69 377.309C356.084 352.93 333.321 328.695 310.865 304.178C298.427 290.595 286.617 276.43 274.283 262.748C262.316 249.466 250.035 236.472 237.905 223.34C236.576 221.9 235.202 220.481 234.005 218.937C231.748 216.005 232.022 213.499 234.555 210.797C245.135 199.497 255.924 188.387 266.111 176.741C270.122 172.154 274.329 169.406 280.179 167.352C290.379 163.779 300.082 158.637 309.681 153.559C313.685 151.439 317.369 149.673 322.021 149.228C331.103 148.364 340.08 146.454 349.155 145.407C365.473 143.529 381.83 141.972 398.678 140.225ZM394.602 370.504C395.211 370.576 395.826 370.648 396.434 370.72C408.329 334.112 420.067 297.459 431.066 260.085H360.409C371.924 297.269 383.263 333.89 394.602 370.504ZM463.801 158.087C463.716 157.832 463.624 157.577 463.539 157.321C462.629 157.191 461.72 157.001 460.797 156.942C442.451 155.725 424.098 154.567 405.876 151.891C400.406 151.086 395.217 149.542 389.243 151.014C370.112 155.718 350.313 155.025 330.828 156.909C329.938 156.994 329.055 157.086 328.165 157.171C329.329 158.643 330.573 159.539 331.953 160.017C339.15 162.51 346.263 165.402 353.63 167.214C367.776 170.695 382.072 173.561 396.316 176.636C397.128 176.813 398.05 176.682 398.881 176.512C407.498 174.765 416.083 172.881 424.719 171.225C436.49 168.974 448.156 166.41 458.972 161.005C460.647 160.168 462.198 159.068 463.807 158.087H463.801ZM419.904 330.389C420.257 330.56 420.61 330.736 420.964 330.906C445.16 303.269 469.356 275.625 494.095 247.359C492.577 247.464 492.04 247.425 491.536 247.542C479.471 250.349 467.419 253.189 455.354 255.989C452.39 256.676 449.419 257.579 446.409 257.743C443.635 257.893 442.399 259.019 441.587 261.538C434.593 283.162 427.487 304.754 420.467 326.379C420.054 327.641 420.08 329.048 419.904 330.383V330.389ZM300.259 248.485C324.311 276.613 347.892 304.198 371.479 331.783C371.734 331.639 371.99 331.495 372.245 331.351C372.022 330.102 371.937 328.806 371.558 327.602C369.359 320.542 367.233 313.45 364.819 306.462C359.637 291.439 354.284 276.469 349.017 261.472C348.265 259.326 346.904 258.214 344.594 257.723C333.308 255.342 322.067 252.757 310.793 250.33C307.476 249.617 304.1 249.152 300.253 248.491L300.259 248.485ZM534.151 229.464C530.637 231.316 527.254 233.482 523.59 234.947C515.542 238.16 509.961 243.885 504.459 250.454C491.458 265.974 477.626 280.8 464.154 295.934C455.386 305.781 446.828 315.812 437.871 325.476C430.157 333.798 424.667 344.3 414.192 349.946C413.832 350.143 413.459 350.522 413.322 350.902C411.378 356.201 409.474 361.514 407.302 367.554C412.353 364.897 531.978 235.176 534.151 229.471V229.464ZM383.643 365.564C381.784 360.84 379.939 356.11 378.042 351.399C377.852 350.921 377.388 350.542 377.015 350.149C373.514 346.459 369.902 342.88 366.526 339.079C355.887 327.111 345.399 315.02 334.741 303.066C317.565 283.797 300.364 264.541 283.012 245.422C280.368 242.504 277.058 240.077 273.74 237.918C269.193 234.96 264.338 232.48 259.608 229.798C258.914 229.405 258.207 229.032 257.154 228.45C260.569 235.039 376.89 362.018 383.636 365.551L383.643 365.564ZM430.778 248.851C430.019 247.536 429.64 246.567 428.999 245.815C426.8 243.257 424.595 240.692 422.227 238.297C420.709 236.766 419.066 235.215 417.202 234.201C411.967 231.349 406.399 229.065 401.315 225.97C397.795 223.831 394.7 223.844 391.206 225.44C381.693 229.785 373.069 235.333 366.258 243.42C365.041 244.866 363.752 246.26 362.071 248.164C385.292 251.344 407.721 250.277 430.791 248.858L430.778 248.851ZM403.134 193.524C403.73 194.728 403.932 195.329 404.286 195.82C414.741 210.418 425.204 225.015 435.718 239.573C436.294 240.371 437.315 240.842 438.126 241.471C438.708 240.6 439.533 239.802 439.834 238.847C442.68 229.935 445.461 221.004 448.196 212.053C448.536 210.934 448.876 209.547 448.516 208.54C448.039 207.212 447.083 205.406 445.958 205.065C433.579 201.29 421.134 197.731 408.689 194.198C407.099 193.746 405.372 193.785 403.134 193.53V193.524ZM406.641 183.101C406.648 183.513 406.661 183.932 406.667 184.344C420.604 188.06 434.521 191.875 448.51 195.388C450.329 195.846 452.835 195.29 454.51 194.315C459.58 191.358 464.278 187.759 470.599 187.857C471.194 187.864 472.418 186.097 472.32 185.279C471.744 180.536 470.821 175.838 470.095 171.107C469.382 166.475 469.264 166.416 464.782 168.235C451.559 173.594 437.949 177.709 423.928 180.392C418.203 181.485 412.406 182.204 406.641 183.101ZM322.106 165.912C321.249 173.548 320.451 180.699 319.626 188.021C320.451 188.132 321.079 188.211 321.707 188.296C328.44 189.199 335.323 189.029 341.486 192.948C343.534 194.25 346.937 194.492 349.397 193.903C361.606 190.965 373.704 187.589 385.848 184.363C385.828 183.984 385.808 183.598 385.789 183.218C364.06 179.908 342.828 174.752 322.106 165.912ZM354.474 242.046C356.836 239.54 359.152 237.649 360.762 235.281C369.51 222.417 378.088 209.443 386.692 196.481C387.182 195.748 387.385 194.826 387.915 193.524C386.698 193.733 386.07 193.785 385.481 193.955C372.86 197.646 360.245 201.349 347.63 205.052C343.547 206.25 343.364 206.472 344.62 210.771C347.336 220.055 350.13 229.32 352.93 238.585C353.231 239.58 353.774 240.502 354.474 242.053V242.046ZM345.824 247.124C346.119 246.685 346.407 246.247 346.701 245.808C343.763 237.872 340.793 229.948 337.907 221.999C336.926 219.296 335.454 218.616 332.712 219.787C321.013 224.806 309.249 229.667 297.524 234.627C296.798 234.934 296.202 235.556 295.142 236.328C312.403 240.005 329.114 243.564 345.824 247.124ZM495.331 236.053C495.285 235.772 495.24 235.497 495.187 235.215C483.796 230.079 472.359 225.048 461.046 219.741C458.219 218.42 456.813 218.59 455.727 221.658C453.011 229.34 450.087 236.949 447.28 244.605C447.044 245.246 447.07 245.985 446.867 247.457C463.369 243.577 479.347 239.815 495.325 236.053H495.331ZM513.076 183.729C512.663 183.493 512.251 183.264 511.832 183.029C503.961 186.935 496.07 190.795 488.278 194.845C487.787 195.1 487.637 197.083 488.062 197.868C490.705 202.749 493.532 207.532 496.339 212.322C499.087 217.013 501.854 221.691 504.668 226.337C505.165 227.154 505.95 227.789 507.311 229.281C509.32 213.382 511.198 198.555 513.069 183.722L513.076 183.729ZM283.267 228.784C283.718 228.856 284.176 228.928 284.628 229C291.681 217.68 298.735 206.354 305.965 194.754C301.136 192.765 296.981 191.181 292.938 189.343C288.966 187.537 285.112 185.469 280.238 183.029C281.284 198.863 282.272 213.82 283.26 228.784H283.267ZM274.696 224.655C273.354 211.648 272.118 199.667 270.881 187.687C270.495 187.641 270.109 187.596 269.723 187.55C267.669 189.748 265.614 191.94 263.56 194.139C258.646 199.386 253.699 204.614 248.838 209.914C247.856 210.98 245.946 212.367 248.759 213.591C255.126 216.359 261.512 219.08 267.891 221.815C269.854 222.659 271.836 223.464 274.696 224.662V224.655ZM523.433 188.093C522.982 188.126 522.537 188.158 522.085 188.191C520.587 200.296 519.095 212.4 517.492 225.375C526.574 221.227 534.851 217.484 543.095 213.656C544.77 212.878 544.816 211.576 543.618 210.215C541.61 207.925 539.647 205.595 537.586 203.358C532.894 198.248 528.151 193.183 523.433 188.1V188.093ZM298.715 222.856C311.369 220.965 321.707 214.769 332.379 209.456C333.622 208.834 334.348 206.08 334.289 204.352C334.25 203.26 332.483 201.722 331.181 201.277C326.765 199.746 322.23 198.509 317.683 197.404C316.865 197.201 315.373 197.868 314.856 198.601C310.27 205.092 305.808 211.674 301.365 218.263C300.377 219.728 299.592 221.331 298.708 222.869L298.715 222.856ZM490.43 222.273C490.633 222.031 490.843 221.783 491.046 221.541C490.385 220.199 489.861 218.766 489.03 217.536C486.23 213.395 483.587 209.096 480.348 205.321C478.346 202.985 478.47 198.379 474.472 198.339C471.188 198.307 467.825 199.347 464.612 200.296C462.695 200.865 460.994 202.167 459.194 203.142C460.424 205.222 461.406 207.526 462.963 209.318C464.115 210.653 465.947 211.497 467.602 212.276C473.995 215.286 480.426 218.204 486.865 221.102C487.996 221.613 489.24 221.881 490.43 222.267V222.273ZM415.474 229.065C414.879 227.37 414.683 225.918 413.937 224.858C408.807 217.589 403.573 210.398 398.351 203.201C396.794 201.055 395.472 202.442 394.425 203.691C390.173 208.775 385.887 213.846 381.87 219.113C380.437 220.984 379.723 223.412 378.343 226.297C384.035 223.346 388.884 220.984 393.575 218.328C395.898 217.013 397.749 217.17 399.863 218.622C404.842 222.051 409.913 225.355 415.474 229.065ZM478.895 163.747C480.06 170.564 481.153 176.42 482.029 182.316C482.455 185.181 483.77 185.358 486.04 184.324C490.398 182.348 494.821 180.536 499.172 178.54C501.54 177.454 503.804 176.126 505.721 175.105C496.973 171.402 488.383 167.764 478.895 163.747ZM287.134 174.366C287.212 174.49 287.311 174.857 287.54 174.968C294.096 178.154 300.658 181.314 307.221 184.475C308.85 185.26 309.701 184.586 309.988 182.95C310.604 179.41 311.304 175.884 311.775 172.324C312.128 169.629 312.174 166.894 312.383 163.701C303.498 167.456 295.352 170.898 287.14 174.372L287.134 174.366Z" fill="black"/>
<path d="M456.741 345.707C458.69 341.349 459.783 340.754 463.552 342.088C499.368 354.788 529.898 375.431 554.473 404.345C568.436 420.774 577.969 439.742 583.7 460.771C590.152 484.444 590.008 507.782 583.386 531.265C581.888 536.585 580.697 541.983 579.925 547.721C580.638 546.667 581.469 545.666 582.045 544.541C586.92 534.929 589.851 524.729 591.218 514.064C591.925 508.561 593.135 503.039 593.05 497.543C592.919 489.403 591.971 481.27 591.114 473.157C589.406 456.904 584.263 441.685 576.483 427.389C565.131 406.517 549.873 388.975 531.259 374.201C517.001 362.882 501.468 353.682 485.268 345.569C478.784 342.324 471.894 339.877 465.214 337.076C468.125 332.876 468.138 332.83 472.934 334.413C487.126 339.098 499.95 346.544 512.591 354.291C533.588 367.161 552.307 382.7 567.336 402.356C584.996 425.459 596.093 451.31 598.474 480.439C599.207 489.397 598.324 498.491 598.187 507.521C598.167 509.019 598.187 510.517 598.187 512.016C598.448 512.101 598.717 512.186 598.978 512.271C599.456 511.119 600.071 510.014 600.398 508.823C603.63 497.144 603.382 485.327 601.465 473.517C600.13 465.26 598.703 457.002 596.839 448.856C593.999 436.412 588.516 425.007 581.888 414.179C566.394 388.877 545.437 368.888 520.646 352.969C506.363 343.796 491.706 335.087 475.408 329.696C474.812 329.5 474.282 329.107 473.733 328.813C475.467 325.109 476.926 324.259 480.282 325.672C487.107 328.544 494.016 331.299 500.552 334.747C529.197 349.855 554.754 368.967 575.011 394.491C588.686 411.719 599.443 430.575 604.193 452.337C605.488 458.278 606.195 464.357 607.196 470.363C607.327 471.142 607.602 471.901 607.811 472.666C608.106 472.64 608.4 472.614 608.695 472.581C608.695 468.492 609.133 464.344 608.623 460.313C604.278 425.969 587.79 397.874 563.542 373.913C540.949 351.582 514.751 334.59 485.739 321.818C484.777 321.393 483.861 320.876 482.926 320.398C485.046 316.342 485.687 316.001 489.292 317.539C511.577 327.079 532.017 339.602 550.809 354.958C567.068 368.241 581.253 383.361 592.887 400.798C598.887 409.788 604.095 419.243 606.581 429.934C606.738 430.615 607.15 431.243 608.223 431.733C607.922 429.587 607.687 427.428 607.321 425.289C605.443 414.401 600.058 405.169 594.222 395.976C578.675 371.499 557.797 352.4 534.36 335.925C521.424 326.83 507.527 319.26 492.93 313.07C492.06 312.704 491.274 312.148 490.3 311.598C491.674 308.948 493.309 307.738 496.103 309.105C504.897 313.41 514.188 316.931 522.386 322.165C534.759 330.056 547.171 338.234 558.085 347.957C568.92 357.608 580.429 366.873 588.752 379.115C590.649 381.909 592.566 384.69 594.47 387.477C595.039 388.314 595.596 389.165 596.158 390.002C596.512 389.813 596.871 389.616 597.225 389.427C595.877 386.423 594.778 383.276 593.142 380.437C588.765 372.847 583.413 366.009 576.935 360.029C570.215 353.826 564.006 347.054 557.071 341.12C540.275 326.738 522.059 314.47 501.743 305.5C500.579 304.99 499.492 304.296 498.413 303.707C500.022 299.572 500.592 299.33 504.19 300.874C530.558 312.187 552.837 329.258 572.793 349.6C573.088 349.901 573.219 350.372 573.421 350.758C573.722 350.561 574.017 350.365 574.318 350.162C573.814 349.259 573.369 348.311 572.793 347.447C565.033 335.846 554.82 326.595 543.52 318.75C532.809 311.31 521.346 304.957 510.216 298.126C508.764 297.236 507.305 296.353 505.617 295.326C508.123 292.146 510.262 289.136 512.768 286.48C513.324 285.891 515.47 286.087 516.406 286.682C523.322 291.033 530.611 294.985 536.84 300.194C547.937 309.478 558.831 319.103 568.946 329.428C581.136 341.879 590.198 356.79 598.618 371.963C607.909 388.7 612.934 406.949 616.396 425.675C619.032 439.932 618.875 454.339 618.175 468.688C617.521 482.141 613.628 495.063 609.48 507.789C602.904 527.941 592.906 546.36 580.226 563.371C568.174 579.539 554.735 594.385 538.652 606.607C517.394 622.769 494.108 635.148 468.544 643.15C453.011 648.011 437.269 651.963 421.049 653.455C399.274 655.451 377.551 655.058 355.887 651.433C320.509 645.518 288.351 631.818 259.248 611.181C241.994 598.946 227.462 583.642 214.867 566.623C201.571 548.656 190.246 529.538 183.297 508.175C175.982 485.687 172.481 462.597 175.079 438.944C177.938 412.909 184.815 388.105 198.758 365.564C207.264 351.818 215.855 338.136 227.292 326.608C240.901 312.887 255.211 299.945 272.209 290.392C274.565 289.064 277.031 286.466 279.21 286.695C281.369 286.918 283.228 289.974 285.223 291.786C286.264 292.728 287.31 293.664 288.789 294.999C287.245 295.928 286.192 296.562 285.132 297.197C273.937 303.936 262.48 310.283 251.612 317.513C240.764 324.73 231.473 333.844 223.589 344.293C222.424 345.837 221.39 347.473 220.749 349.547C221.259 349.174 221.842 348.86 222.273 348.409C241.169 329.022 262.702 313.293 287.134 301.574C287.723 301.293 288.331 301.051 288.914 300.763C291.694 299.369 293.925 299.487 295.051 303.334C293.206 304.296 291.249 305.389 289.221 306.357C265.267 317.768 244.683 333.91 224.694 351.124C212.361 361.75 202.749 374.038 195.846 388.622C195.14 390.114 194.557 391.671 193.923 393.195C194.204 393.339 194.479 393.49 194.76 393.634C195.827 392.05 197.011 390.539 197.934 388.877C206.433 373.527 218.681 361.521 232.029 350.483C247.169 337.96 262.663 325.94 280.179 316.832C285.492 314.065 290.883 311.448 296.248 308.765C296.634 308.569 297.145 308.215 297.452 308.327C298.715 308.804 299.925 309.426 301.149 310.002C300.593 310.963 300.279 312.35 299.448 312.822C288.92 318.756 278.183 324.324 267.773 330.455C252.58 339.399 239.22 350.79 226.18 362.574C216.974 370.89 209.135 380.391 202.363 390.709C195.853 400.628 189.388 410.665 186.189 422.285C185.05 426.427 184.435 430.706 183.578 434.926C183.905 435.025 184.239 435.123 184.566 435.221C185.057 433.925 185.626 432.656 186.032 431.341C191.62 413.348 201.539 397.821 213.238 383.276C223.078 371.047 234.626 360.71 247.065 351.183C264.443 337.875 282.645 326.051 302.863 317.467C305.893 316.185 308.052 316.158 309.583 319.881C308.608 320.464 307.594 321.216 306.468 321.713C284.425 331.521 264.096 344.169 245.39 359.336C215.22 383.8 193.707 414.002 185.508 452.56C184.141 458.992 184.357 465.757 183.873 472.378C183.84 472.843 184.089 473.327 184.39 474.531C184.952 473.222 185.397 472.601 185.476 471.94C188.885 442.608 200.067 416.593 218.563 393.614C233.056 375.608 250.173 360.553 269.468 347.964C282.711 339.327 296.333 331.332 311.16 325.58C315.144 324.036 315.622 324.121 318.036 328.603C316.917 329.186 315.844 329.899 314.673 330.337C296.765 337.031 280.519 346.773 265.084 357.85C246.273 371.348 229.484 387.006 216.417 406.281C206.57 420.8 198.98 436.412 194.714 453.548C191.574 466.163 189.513 478.928 189.938 491.929C190.16 498.583 191.489 505.198 192.32 511.826C192.837 511.813 193.347 511.793 193.864 511.78C193.864 510.164 193.962 508.535 193.851 506.925C190.978 466.653 203.168 431.171 227.763 399.549C242.583 380.495 261.302 366.009 281.52 353.29C293.232 345.922 305.225 339 318.442 334.551C322.754 333.098 322.741 333.052 326.483 336.815C325.397 337.417 324.468 338.11 323.428 338.483C306.043 344.699 290.399 354.147 275.141 364.328C257.102 376.367 241.431 391.017 228.555 408.395C216.391 424.811 207.833 442.896 203.259 463.12C198.104 485.909 198.699 508.227 204.895 530.493C206.74 537.115 209.914 543.37 212.485 549.788C212.93 549.657 213.368 549.527 213.813 549.396C213.355 547.4 213.113 545.326 212.413 543.429C208.605 533.156 206.557 522.498 205.026 511.689C202.952 497.072 203.587 482.612 206.996 468.25C211.105 450.937 217.412 434.547 227.109 419.55C238.356 402.14 252.482 387.418 269.016 374.993C285.02 362.96 302.098 352.734 320.588 344.961C322.891 343.992 325.292 343.24 327.661 342.435C331.966 340.969 331.979 340.989 334.767 345.471C333.406 346.099 332.11 346.773 330.762 347.31C303.236 358.262 278.255 373.246 256.735 393.778C233.069 416.358 217.595 443.511 211.634 475.728C208.88 490.62 209.704 505.551 212.59 520.508C216.352 539.993 223.804 557.817 235.032 574.01C243.891 586.789 255.551 596.845 268.421 605.449C293.605 622.284 320.935 634.297 350.607 640.52C371.813 644.962 393.3 646.199 414.944 644.387C441.031 642.201 466.045 635.73 489.724 624.758C514.109 613.458 536.656 599.436 554.198 578.342C565.341 564.942 571.851 549.507 576.896 533.136C580.848 520.312 582.902 507.2 582.516 493.892C581.777 468.283 574.233 444.689 560.316 423.058C545.365 399.817 525.272 382.157 502.011 367.724C488.356 359.25 474.309 351.667 458.906 346.819C458.206 346.596 457.585 346.151 456.734 345.713L456.741 345.707Z" fill="black"/>
<path d="M355.226 366.369C349.455 368.633 343.894 370.819 338.332 372.997C307.685 384.997 281.978 403.605 262.094 430.006C257.69 435.849 254.746 441.221 257.259 449.543C261.263 462.8 267.858 474.021 277.201 483.914C288.442 495.815 302.052 504.269 316.531 511.636C330.592 518.788 345.104 524.644 360.52 527.902C376.785 531.337 393.195 532.214 409.886 530.84C426.898 529.44 443.223 525.828 458.893 519.324C476.147 512.16 492.818 503.837 507.115 491.517C518.159 482.003 527.163 470.802 532.96 457.408C535.119 452.416 535.969 446.743 536.689 441.286C536.957 439.264 535.531 436.693 534.229 434.828C521.411 416.495 505.937 400.968 486.825 389.034C472.751 380.247 457.827 373.553 442.169 368.299C440.573 367.763 439.029 367.076 437.452 366.454C439.748 360.984 441.404 360.023 446.331 361.717C475.401 371.721 501.35 386.646 522.949 408.951C537.055 423.516 548.388 439.552 554.826 458.926C565.472 490.98 560.839 521.549 546.654 551.444C535.753 574.416 517.25 589.465 495.73 601.412C476.644 612.012 456.191 619.242 434.841 623.488C424.647 625.517 414.126 626.341 403.716 626.779C388.138 627.44 372.513 626.91 357.222 623.528C324.684 616.324 294.305 604.128 268.467 582.536C258.246 573.997 249.741 564.045 244.853 551.038C240.09 538.364 235.039 525.913 233.076 512.395C230.19 492.557 232.31 473.38 239.619 454.712C249.178 430.301 265.215 410.861 285.38 394.517C299.199 383.309 314.47 374.561 330.723 367.475C335.807 365.257 341.054 363.399 346.289 361.567C351.111 359.879 352.838 360.814 355.22 366.363L355.226 366.369ZM257.782 474.466C258.142 475.434 258.449 476.415 258.862 477.358C271.993 507.351 295.142 527.3 323.905 541.23C338.221 548.166 353.231 553.014 369.196 555.448C385.533 557.941 401.688 559.001 417.901 555.939C428.992 553.838 440.004 551.202 450.898 548.244C461.661 545.326 471.744 540.622 481.087 534.478C488.009 529.93 495.115 525.599 501.606 520.482C507.2 516.072 512.519 511.1 517.054 505.63C521.326 500.467 524.506 494.382 528 488.598C530.14 485.059 532.011 481.355 533.889 477.672C534.406 476.658 534.491 475.427 534.772 474.296C534.484 474.191 534.196 474.086 533.915 473.981C533.234 475.041 532.626 476.147 531.867 477.148C522.818 489.017 515.137 502.018 499.525 507.259C490.829 510.177 482.84 515.222 474.583 519.396C454.882 529.355 434.54 536.944 412.144 538.011C391.474 538.999 371.106 538.495 350.987 532.489C333.334 527.215 316.368 520.731 300.75 510.877C296.575 508.247 292.139 506.029 287.821 503.621C288.756 505.329 290.032 506.598 291.465 507.652C306.357 518.585 321.857 528.569 339.275 534.949C352.668 539.856 366.349 544.201 380.764 544.829C389.348 545.202 397.972 544.829 406.569 544.632C411.574 544.521 416.684 544.678 421.566 543.749C441.437 539.98 460.908 534.988 477.966 523.335C481.741 520.757 485.615 518.271 489.658 516.157C493.905 513.933 498.406 512.206 502.796 510.262C502.927 510.557 503.058 510.851 503.196 511.152C488.435 522.785 473.739 534.635 455.497 540.55C437.543 546.373 419.276 550.75 400.216 551.084C381.209 551.418 362.646 549.042 344.516 543.232C326.339 537.409 310.185 527.725 294.822 516.766C279.236 505.649 269.35 489.338 257.769 474.453L257.782 474.466ZM546.176 529.531C545.915 529.42 545.659 529.315 545.398 529.204C544.253 531.324 542.938 533.372 541.982 535.57C537.697 545.431 533.012 555.01 524.061 561.638C514.521 568.698 505.217 576.13 495.305 582.627C468.21 600.392 438.1 608.956 405.902 610.442C384.859 611.41 364.158 609.159 343.907 603.107C324.9 597.428 306.664 589.949 290.359 578.577C281.271 572.237 272.726 565.06 264.417 557.705C258.835 552.765 255.211 546.281 252.731 539.084C250.454 532.482 247.326 526.168 244.572 519.73C244.277 519.822 243.989 519.92 243.695 520.011C243.695 521.49 243.368 523.067 243.754 524.441C245.357 530.205 246.953 535.989 248.949 541.629C252.325 551.189 257.54 559.701 264.462 567.147C275.297 578.793 288.298 587.397 302.392 594.588C323.395 605.312 345.255 613.301 368.731 616.455C390.807 619.425 412.85 619.51 434.73 615.081C466.274 608.695 494.533 595.478 519.246 574.573C532.992 562.946 540.837 548.054 546.039 531.337C546.216 530.774 546.137 530.14 546.176 529.538V529.531ZM240.947 489.142C240.6 489.24 240.253 489.331 239.907 489.429C240.116 491.608 240.037 493.866 240.594 495.953C243.191 505.656 248.282 514.181 253.621 522.556C259.215 531.337 266.949 537.932 275.239 544.109C290.111 555.199 305.061 565.995 322.106 573.729C344.156 583.733 367.396 588.68 391.291 590.217C401.59 590.878 412.072 588.941 422.462 588.058C436.693 586.848 450.158 582.477 463.342 577.354C484.293 569.214 502.365 556.286 520.057 542.722C533.653 532.306 543.494 519.161 549.978 503.392C551.581 499.499 552.189 495.495 551.875 491.268C550.495 493.061 549.52 494.965 548.689 496.934C543.376 509.529 536.342 521.078 526.377 530.46C514.037 542.081 500.173 551.784 485.53 560.296C464.036 572.793 440.776 579.807 416.076 582.536C399.594 584.361 383.296 583.982 366.984 581.024C353.663 578.61 340.681 575.149 328.099 570.098C309.713 562.717 293.69 551.463 277.614 540.19C261.178 528.668 250.657 512.925 243.401 494.625C242.661 492.766 241.765 490.98 240.947 489.155V489.142ZM549.886 473.353C549.467 473.321 549.055 473.288 548.637 473.255C548.427 473.478 548.1 473.674 548.015 473.936C547.446 475.807 546.896 477.685 546.405 479.582C542.617 494.225 535.904 507.351 525.141 518.022C510.262 532.777 493.231 544.737 474.649 554.342C452.344 565.871 428.357 571.367 403.396 572.434C378.369 573.5 354.251 569.123 330.978 559.688C309.929 551.149 291.158 539.123 274.329 524.003C260.177 511.29 250.873 495.541 245.789 477.246C245.409 475.872 244.768 474.564 244.251 473.229C243.845 473.281 243.433 473.34 243.028 473.393C243.028 475.761 242.635 478.215 243.132 480.472C243.708 483.083 245.082 485.517 246.083 488.042C251.808 502.45 259.241 515.765 270.528 526.672C280.139 535.963 291.014 543.579 302.183 550.816C327 566.898 354.323 575.483 383.642 578.257C396.316 579.454 408.866 578.46 421.415 576.935C440.298 574.639 458.317 569.254 475.028 560.283C485.451 554.689 495.279 547.91 505.1 541.269C527.156 526.358 543.154 506.893 549.487 480.472C550.03 478.195 549.775 475.728 549.886 473.353ZM263.337 540.995C263.095 541.237 262.853 541.479 262.611 541.714C263.016 545.365 265.529 547.93 268.022 550.194C274.388 555.985 280.637 562.024 287.618 566.996C306.049 580.128 326.378 589.399 348.14 595.707C370.772 602.263 393.817 603.683 417.071 601.537C436.045 599.783 454.189 594.444 471.626 586.651C490.522 578.204 506.938 566.002 523.001 553.25C526.063 550.816 528.909 548.074 531.599 545.234C532.377 544.41 532.253 542.735 532.541 541.453C531.357 541.655 529.93 541.511 529.04 542.133C526.547 543.867 524.31 545.967 521.909 547.839C501.089 564.059 479.189 578.126 453.62 586.141C437.36 591.238 420.892 594.339 404.024 595.308C380.993 596.629 358.786 592.062 336.939 585.048C310.067 576.425 286.977 561.625 266.163 542.912C265.326 542.159 264.292 541.629 263.35 540.995H263.337ZM544.017 456.721L542.414 456.787C541.989 460.182 541.57 463.572 541.145 466.967C540.759 470.082 540.85 473.353 539.908 476.291C536.081 488.311 529.518 498.904 521.215 508.24C506.879 524.349 488.827 535.714 469.964 545.568C452.952 554.453 434.416 558.733 415.337 560.957C395.773 563.241 376.471 562.384 357.353 557.692C339.981 553.433 323.591 546.811 308.392 537.324C297.838 530.735 287.389 523.937 278.628 515.039C268.427 504.675 259.025 493.61 254.465 479.419C253.215 475.526 248.897 472.706 251.573 467.17C252.875 464.488 250.565 460.051 249.885 456.414C249.485 456.472 249.086 456.538 248.694 456.597C247.981 463.375 247.758 470.213 250.015 476.769C256.977 496.993 269.127 513.652 285.858 526.842C298.715 536.977 312.383 545.876 327.406 552.641C346.799 561.363 367.004 566.741 388.236 567.611C405.915 568.338 423.456 566.774 440.606 562.011C456.655 557.561 471.848 551.241 485.824 542.048C500.506 532.391 515.006 522.576 526.253 508.738C537.527 494.86 544.096 479.19 544.789 461.229C544.848 459.737 544.285 458.219 544.011 456.715L544.017 456.721Z" fill="black"/>
<path d="M344.817 355.122C339.988 357.222 335.434 359.25 330.847 361.194C305.703 371.833 282.671 385.854 263.644 405.555C242.269 427.683 227.534 453.463 223.693 484.614C222.182 496.862 223.615 508.941 225.748 520.953C227.946 533.359 231.852 545.267 237.989 556.292C244.729 568.396 253.712 578.721 264.39 587.554C267.59 590.204 267.74 590.989 265.032 594.876C264.083 594.3 263.049 593.777 262.126 593.096C245.265 580.723 233.095 564.706 225.08 545.431C217.412 526.993 214.127 507.724 215.92 487.957C217.327 472.437 221.462 457.395 228.234 443.171C242.413 413.387 264.678 391.082 292.218 373.665C306.148 364.858 320.751 357.32 336.285 351.674C340.95 349.979 341.231 350.031 344.817 355.122Z" fill="black"/>
<path d="M446.998 355.161C450.06 349.815 450.034 349.9 454.974 351.595C479.693 360.075 501.952 372.971 522.131 389.433C543.265 406.667 559.112 428.01 568.632 453.567C578.957 481.296 579.467 509.437 570.412 537.821C564.791 555.428 555.441 570.398 541.891 582.837C539.483 585.041 537.167 587.358 534.635 589.406C533.895 590.001 532.554 589.864 531.494 590.06C531.383 588.751 530.944 587.358 531.265 586.173C531.553 585.12 532.632 584.243 533.463 583.386C543.984 572.616 552.994 560.747 558.961 546.844C566.59 529.079 570.444 510.615 569.404 491.13C567.716 459.6 554.591 433.317 533.588 410.377C517.551 392.861 498.733 379.115 477.547 368.62C469.074 364.426 460.189 361.043 451.506 357.274C450.06 356.646 448.647 355.933 447.011 355.161H446.998Z" fill="black"/>
<path d="M263.906 591.055C326.719 642.744 446.782 660.41 534.785 586.147" stroke="black" stroke-width="8.25"/>
<path d="M217.281 239.881C217.589 245.305 217.301 251.017 221.488 255.688C224.805 259.385 228.679 261.558 233.717 261.551C235.778 261.551 237.872 261.597 239.9 261.937C242.589 262.388 244.205 264.109 244.081 266.923C243.957 269.645 242.242 270.966 239.593 271.143C237.525 271.28 235.464 271.464 233.396 271.516C224.158 271.745 217.693 278.307 217.615 287.513C217.595 289.797 217.353 292.074 217.275 294.357C217.176 297.177 216.038 299.395 213.08 299.664C210.103 299.932 208.415 297.819 207.912 295.188C207.355 292.323 207.264 289.352 207.126 286.421C206.832 279.956 201.257 273.191 194.793 272.164C191.162 271.588 187.419 271.712 183.722 271.601C180.346 271.496 178.082 269.828 177.899 267.171C177.722 264.646 180.228 262.081 183.382 261.813C186.85 261.518 190.396 261.767 193.798 261.158C201.532 259.778 206.609 253.843 207.179 245.966C207.434 242.4 207.545 238.827 207.696 235.255C207.826 232.127 209.626 230.151 212.407 230.119C215.259 230.086 217.203 232.186 217.281 235.438C217.314 236.851 217.281 238.271 217.281 239.887V239.881ZM203.331 266.583C203.946 266.118 204.555 265.66 205.17 265.195C207.565 268.532 209.966 271.863 212.25 275.043C215.089 272.373 217.811 269.808 220.651 267.139C217.791 263.887 214.88 260.583 211.962 257.259C209.017 260.439 206.171 263.507 203.331 266.576V266.583Z" fill="black"/>
<path d="M581.502 230.059C584.571 230.04 586.147 231.636 586.285 234.941C586.468 239.396 586.35 243.891 586.88 248.301C587.764 255.642 594.241 261.191 601.667 261.505C604.383 261.616 607.098 261.793 609.807 262.055C612.614 262.329 614.616 264.515 614.485 266.981C614.341 269.599 612.391 271.228 609.355 271.3C607.176 271.352 605.004 271.457 602.832 271.535C593.24 271.876 586.586 278.556 586.331 288.128C586.278 290.085 586.357 292.048 586.331 294.01C586.291 297.387 584.544 299.539 581.757 299.709C578.957 299.879 577.295 298.021 576.974 294.318C576.693 291.073 576.745 287.762 576.13 284.582C574.547 276.423 568.095 271.463 559.76 271.653C558.019 271.692 556.272 271.725 554.532 271.758C551.385 271.81 550.05 269.795 549.572 267.119C549.16 264.803 551.254 262.428 554.021 262.015C557.031 261.564 560.106 261.531 563.083 260.962C571.275 259.385 575.384 255.008 576.313 246.672C576.758 242.681 576.588 238.631 576.791 234.607C576.955 231.407 578.42 230.066 581.495 230.046L581.502 230.059ZM582.542 273.865C584.433 272.098 587.305 269.415 589.203 267.642C586.429 264.449 583.648 261.25 581.417 258.685C578.741 261.387 576.019 264.135 574.377 265.797C576.601 267.989 579.5 270.855 582.542 273.858V273.865Z" fill="black"/>
<path d="M370.687 443.19C370.629 440.363 372.729 438.302 375.804 438.106C379.782 437.851 383.342 436.961 386.692 434.409C392.024 430.346 391.834 424.719 392.07 419.079C392.09 418.647 391.939 418.215 391.926 417.784C391.815 414.035 393.706 411.411 396.486 411.424C399.208 411.437 401.021 413.734 401.145 417.385C401.21 419.347 401.204 421.304 401.224 423.267C401.315 432.185 406.903 437.884 415.801 438.211C417.097 438.257 418.713 438.126 419.596 438.819C421.055 439.971 423.182 441.96 422.94 443.177C422.612 444.839 420.551 446.671 418.804 447.391C416.789 448.222 414.244 447.672 412.052 448.202C410.017 448.693 407.95 449.556 406.229 450.734C402.696 453.148 400.772 456.453 401.282 461.013C401.544 463.368 401.256 465.802 401.08 468.191C400.883 470.736 399.581 472.803 396.958 472.869C394.295 472.934 392.528 471.279 392.299 468.394C392.162 466.653 391.991 464.919 391.841 463.185C390.755 450.453 388.478 448.202 375.817 447.665C373.462 447.567 371.846 446.717 371.015 444.505C370.825 444.001 370.753 443.458 370.687 443.183V443.19ZM395.112 434.776C393.503 436.745 391.278 439.467 389.178 442.038C391.121 444.191 392.862 446.278 394.805 448.156C395.381 448.706 396.938 449.144 397.363 448.797C399.758 446.828 401.95 444.603 403.749 442.896C400.831 440.147 398.004 437.498 395.112 434.776Z" fill="black"/>
<path d="M484.947 440.2C484.771 442.771 483.351 444.244 481.008 444.846C479.961 445.114 478.849 445.114 477.776 445.277C471.724 446.22 470.572 447.522 470.212 453.751C470.023 457.016 468.23 459.299 465.861 459.306C463.565 459.306 461.824 456.917 461.72 453.6C461.53 447.352 459.011 444.761 452.723 444.486C449.988 444.368 446.939 444.793 446.658 440.835C446.455 438.002 448.725 436.386 452.808 436.196C458.573 435.934 461.144 433.042 461.628 426.27C461.896 422.514 463.179 420.996 466.045 421.081C468.773 421.16 470.278 422.567 470.422 425.308C470.487 426.61 470.396 427.925 470.468 429.228C470.67 432.721 472.483 434.874 475.931 435.561C477.632 435.901 479.386 435.96 481.113 436.157C483.547 436.431 484.758 437.851 484.947 440.187V440.2Z" fill="black"/>
<path d="M345.477 439.134C345.491 443.118 343.691 444.734 340.341 444.891C333.425 445.225 331.554 447.057 330.985 453.842C330.887 454.994 330.553 456.23 329.977 457.225C328.472 459.816 325.476 460.189 323.395 458.056C322.773 457.415 322.42 456.394 322.224 455.491C321.969 454.333 322.041 453.109 321.89 451.925C321.21 446.429 319.116 444.643 313.535 444.492C312.193 444.453 310.394 444.335 309.655 443.498C308.732 442.457 308.052 440.442 308.431 439.206C308.811 437.982 310.584 437.125 311.86 436.287C312.331 435.98 313.136 436.196 313.79 436.163C319.528 435.862 321.942 433.317 322.112 427.533C322.152 426.264 322.08 424.569 322.826 423.836C323.846 422.829 325.737 421.88 326.987 422.148C328.348 422.443 329.598 424.026 330.501 425.321C331.057 426.113 330.874 427.422 331.037 428.495C331.914 434.069 333.713 435.699 339.373 436.072C340.348 436.137 341.525 435.908 342.258 436.366C343.658 437.256 344.81 438.538 345.477 439.14V439.134Z" fill="black"/>
</svg>
