<svg width="800" height="800" viewBox="0 0 800 800" fill="none" xmlns="http://www.w3.org/2000/svg">
<g clip-path="url(#clip0_8061_111)">
<path d="M207.083 471.362C206.816 475.427 206.685 478.565 206.346 481.684C206.255 482.512 205.713 483.693 205.054 484C196.012 488.189 186.918 492.26 177.823 496.332C177.347 496.547 176.766 496.521 175.788 496.677C175.899 494.948 175.84 493.356 176.134 491.836C179.728 473.254 183.473 454.698 186.983 436.103C189.286 423.889 191.517 411.655 193.331 399.363C194.485 391.533 194.942 383.593 195.503 375.691C197.265 350.878 198.909 326.052 200.637 301.232C200.99 296.189 201.525 291.158 202.549 285.756C241.934 324.401 288.737 350.128 340.883 367.842C338.945 370.589 337.673 372.892 335.886 374.673C335.116 375.443 333.048 375.678 331.952 375.228C316.914 369.03 301.863 362.864 286.982 356.307C269.733 348.699 253.756 338.736 238.189 328.212C229.31 322.209 221.253 314.993 212.831 308.318C211.904 307.587 211.037 306.791 209.406 305.395C208.44 313.72 207.318 321.354 206.724 329.034C205.583 343.832 204.65 358.642 203.821 373.46C203.436 380.376 203.625 387.318 203.319 394.234C203.175 397.542 202.484 400.824 201.949 404.798C204.578 403.708 206.79 403.095 208.688 401.959C226.629 391.239 245.574 389.634 265.44 395.337C273.673 397.699 281.991 399.8 290.25 402.064C291.607 402.436 293.643 402.423 293.043 404.758C291.02 412.595 290.146 421.018 286.617 428.117C275.761 449.968 257.455 461.242 233.081 462.625C232.546 462.658 232.018 462.73 230.563 462.886C228.136 507.998 225.709 553.161 223.23 599.355C226.218 597.646 228.299 596.582 230.256 595.31C249.326 582.894 267.469 569.212 284.053 553.644C303.736 535.166 320.502 514.385 328.735 488.163C333.243 473.815 335.775 458.913 337.066 443.874C337.588 437.819 337.973 431.751 338.365 425.683C338.521 423.249 339.408 422.851 341.45 424.156C342.788 425.011 344.406 425.422 345.724 426.296C346.454 426.779 347.368 427.849 347.302 428.573C345.998 442.98 345.678 457.595 342.925 471.734C337.132 501.512 322.577 526.978 302.189 549.429C282.937 570.628 260.371 587.624 236.793 603.479C230.034 608.027 223.269 612.561 216.491 617.076C215.616 617.657 214.644 618.081 213.098 618.91C213.424 613.775 213.796 609.201 213.985 604.621C214.664 588.237 215.147 571.848 215.943 555.471C216.81 537.574 217.893 519.683 218.976 501.793C219.785 488.391 220.738 474.996 221.651 461.601C221.788 459.552 221.821 457.451 222.369 455.5C222.617 454.613 223.908 453.569 224.867 453.4C234.999 451.631 245.32 450.607 254.76 446.118C267.195 440.207 276.505 431.066 280.204 417.651C282.657 408.752 284.059 410.161 274.567 407.773C263.248 404.928 251.877 402.351 240.042 403.075C229.408 403.728 219.603 406.703 210.893 412.927C208.453 414.669 206.268 415.903 204.089 412.581C203.71 412.007 202.666 411.877 201.166 411.198C197.023 434.426 192.978 457.125 188.927 479.844C195.725 479.126 199.842 472.438 207.096 471.355L207.083 471.362Z" fill="black"/>
<path d="M546.009 616.437C543.484 615.321 540.79 614.486 538.467 613.051C527.944 606.552 516.86 601.613 504.641 599.219C494.118 597.157 483.764 594.051 473.169 592.55C463.99 591.245 454.589 591.454 445.286 591.154C420.292 590.358 396.271 595.852 372.609 603.055C363.103 605.945 353.95 609.978 344.602 613.397C342.064 614.323 339.448 615.295 336.792 615.595C326.087 616.809 317.077 621.97 308.002 627.209C295.222 634.595 284.614 644.467 274.847 655.363C274.58 655.663 274.41 656.055 274.567 656.909C278.142 654.6 281.769 652.362 285.279 649.961C307.767 634.569 332.826 624.899 358.693 617.076C389.61 607.727 421.186 603.342 453.519 604.38C487.104 605.456 518.922 613.462 549.049 628.286C561.145 634.236 571.152 642.816 579.94 652.91C580.54 653.595 580.997 654.41 581.069 655.709C579.34 654.717 577.578 653.771 575.882 652.72C557.733 641.492 538.989 631.437 518.465 625.232C496.551 618.61 474.174 614.61 451.183 614.76C441.515 614.819 431.827 614.649 422.184 615.243C406.944 616.183 391.926 618.773 377.065 622.368C352.202 628.377 328.057 636.624 305.184 647.899C291.425 654.684 278.84 663.858 265.773 672.033C262.739 673.932 259.705 675.916 257.011 678.251C254.31 680.6 251.961 680.626 249.045 678.108C249.919 676.516 250.637 674.689 251.785 673.195C260.182 662.273 267.391 650.43 277.451 640.793C295.333 623.673 314.82 608.718 335.814 595.584C355.262 583.416 376.314 575.227 398.137 568.749C413.605 564.155 429.543 563.783 445.534 563.738C457.74 563.705 469.816 564.266 481.676 567.463C489.231 569.499 496.199 572.598 502.135 577.753C503.16 578.64 503.877 579.886 504.739 580.969C504.549 581.191 504.36 581.406 504.171 581.628C503.564 581.556 502.918 581.602 502.364 581.393C484.906 574.895 466.704 573.74 448.287 573.179C410.565 572.024 376.301 583.298 343.688 601.039C339.324 603.414 335.944 606.839 332.93 611.909C334.542 611.302 335.435 611.093 336.205 610.656C362.777 595.728 391.444 586.867 421.473 582.985C434.723 581.269 448.378 581.609 461.765 582.437C473.711 583.181 485.571 585.713 497.406 587.794C503.036 588.786 508.503 590.684 514.094 591.95C526.6 594.782 536.367 601.913 544.691 611.283C545.728 612.45 546.107 614.206 546.792 615.693L546.009 616.437Z" fill="black"/>
<path d="M264.761 321.518C281.574 302.896 303.122 291.439 325.943 281.9C325.747 281.483 325.552 281.058 325.356 280.641C319.667 282.735 313.828 284.51 308.309 286.976C292.345 294.114 277.705 303.379 264.664 315.097C264.585 315.169 264.5 315.241 264.416 315.313C261.049 318.153 257.663 318.147 254.258 315.293C253.436 314.602 252.562 313.975 251.335 313.029C252.536 311.809 253.664 310.556 254.904 309.434C274.965 291.256 297.962 278.416 324.084 271.128C353.376 262.959 382.33 264.303 410.748 274.606C434.821 283.329 453.284 299.543 468.067 320.134C477.455 333.21 485.16 347.27 489.016 362.949C494.803 386.49 494.679 410.083 486.889 433.271C483.47 443.45 479.497 453.433 475.805 463.52C474.872 466.064 474.115 468.681 473.195 471.232C472.321 473.665 465.138 475.023 464.062 472.778C463.429 471.467 464.146 469.261 464.753 467.643C467.917 459.22 471.636 450.979 474.435 442.445C480.424 424.189 484.116 405.437 482.485 386.151C479.974 356.49 468.198 331.096 446.701 310.139C428.447 292.34 406.697 281.926 381.769 278.266C367.644 276.191 353.735 278.729 340.113 282.938C323.516 288.066 308.087 295.7 293.506 304.926C285.194 310.191 277.646 316.67 269.824 322.692C266.993 324.871 266.843 324.943 264.761 321.524V321.518Z" fill="black"/>
<path d="M530.208 397.203C530.208 391.801 530.404 386.692 530.175 381.603C528.681 348.523 518.543 318.471 498.469 291.954C488.005 278.129 476.62 265.203 462.496 254.888C443.413 240.958 422.765 230.408 399.39 226.03C379.25 222.258 358.987 220.784 338.502 223.537C309.848 227.393 284.053 238.361 260.071 254.086C256.711 256.291 253.305 258.444 250.109 260.865C248.38 262.17 247.153 262.209 245.653 260.715C244.276 259.344 242.756 258.111 240.825 256.395C244.211 253.929 247.382 251.56 250.611 249.27C269.256 236.045 289.233 225.371 311.199 218.833C324.88 214.762 338.965 212.856 353.259 212.465C375.799 211.839 397.981 214.233 419.451 221.156C437.998 227.139 454.948 236.378 470.227 248.572C495.742 268.936 514.733 294.238 527.324 324.297C535.336 343.427 539.211 363.49 539.635 384.226C539.707 387.912 539.909 391.599 540.027 395.285C540.085 397.229 539.257 398.012 537.202 397.693C535.192 397.379 533.131 397.392 530.208 397.203Z" fill="black"/>
<path d="M273.712 281.006C270.326 277.242 267.221 273.607 263.913 270.175C260.619 266.763 260.547 266.352 264.305 263.494C264.898 263.044 265.551 262.672 266.503 262.059C268.578 264.329 270.783 266.424 272.59 268.818C274.208 270.958 275.663 271.272 277.698 269.543C280.027 267.553 278.331 266.274 277.098 264.708C276.257 263.638 275.056 262.046 275.343 261.087C275.689 259.932 277.313 258.81 278.618 258.359C280.882 257.583 282.252 259.136 283.165 261.054C283.72 262.222 284.242 263.403 285.038 265.145C287.086 264.016 289.141 263.142 290.903 261.857C293.082 260.265 290.909 258.738 290.368 257.322C289.239 254.366 289.683 252.807 292.429 251.554C294.935 250.406 296.898 250.856 297.929 253.59C298.458 254.986 298.81 256.448 299.325 258.157C301.132 257.479 302.835 256.852 304.518 256.193C306.208 255.528 307.885 254.823 309.411 254.197C308.863 251.541 307.565 248.918 308.172 246.85C308.563 245.525 311.688 244.703 313.724 244.24C317.312 243.418 318.532 244.886 319.028 249.93C322.407 249.649 325.786 249.323 329.172 249.094C330.849 248.977 331.528 248.22 331.214 246.569C331.012 245.506 330.777 244.449 330.64 243.379C330.281 240.567 331.638 239.086 334.372 238.727C334.803 238.668 335.24 238.642 335.67 238.57C339.367 237.961 341.574 239.534 342.292 243.287C342.39 243.803 342.546 244.305 342.683 244.814C346.918 244.547 350.969 244.292 355.183 244.025V236.789C357.917 236.789 360.598 236.645 363.247 236.887C363.939 236.946 364.917 238.113 365.067 238.896C365.354 240.449 365.152 242.093 365.152 244.064H377.45C377.515 243.516 377.678 242.589 377.724 241.663C377.939 237.122 377.939 237.043 382.362 237.461C386.055 237.813 388.795 238.335 387.588 242.707C387.027 244.742 387.575 246.178 390.08 246.589C392.833 247.039 395.514 247.926 398.62 248.722C398.9 246.974 399.272 245.428 399.364 243.862C399.494 241.454 400.792 240.939 402.847 241.408C403.904 241.65 404.948 241.969 406.005 242.204C408.98 242.863 410.37 244.475 409.267 247.581C408.23 250.491 409.182 251.998 412.275 252.546C414.917 253.016 417.481 253.942 420.116 254.673C420.299 254.275 420.429 253.988 420.553 253.701C421.402 251.815 422.511 248.246 423.046 248.331C425.609 248.736 428.186 249.864 430.365 251.332C430.998 251.756 430.842 254.458 430.15 255.554C428.447 258.275 429.015 259.579 431.944 260.532C434.599 261.393 437.137 262.587 439.708 263.625C442.918 257.498 443.27 257.159 446.427 259.057C448.221 260.134 450.596 261.693 450.909 263.37C451.216 265.001 449.22 267.063 448.013 269.373C451.529 271.839 455.111 274.345 458.888 276.994C459.664 275.623 459.991 274.638 460.65 274.018C461.25 273.451 462.561 272.766 462.979 273.033C465.034 274.364 467.174 275.761 468.7 277.62C469.34 278.396 469.052 280.837 468.276 281.691C466.717 283.407 467.213 284.556 468.439 285.861C470.886 288.464 473.371 291.028 476.092 293.86C476.757 292.901 477.116 292.287 477.573 291.759C477.984 291.276 478.825 290.447 478.917 290.519C480.763 291.902 482.74 293.207 484.201 294.949C484.756 295.615 484.553 297.82 483.881 298.44C481.944 300.228 482.316 301.768 483.588 303.549C484.09 304.254 484.456 305.128 485.095 305.663C493.72 312.892 497.647 323.214 501.894 332.955C506.285 343.029 508.751 353.945 511.941 364.528C513.037 368.156 514.159 371.855 514.577 375.594C515.307 382.158 515.503 388.787 515.94 395.383C516.058 397.119 515.359 397.908 513.578 398.136C511.452 398.404 509.37 399.011 506.657 399.604C506.657 397.915 506.585 396.564 506.67 395.226C507.981 374.883 502.762 355.824 494.953 337.373C487.535 319.834 476.679 304.515 462.985 291.354C447.178 276.152 428.878 265.047 407.629 258.986C389.754 253.883 371.591 251.156 353.024 252.611C331.377 254.308 310.873 260.199 291.803 270.743C285.729 274.103 279.727 277.607 273.745 281.013L273.712 281.006Z" fill="black"/>
<path d="M289.207 511.24C290.374 509.015 292.045 506.908 292.619 504.54C294.067 498.543 295.496 492.476 296.063 486.355C297.159 474.579 297.623 462.736 298.412 450.927C298.686 446.816 299.09 442.712 299.619 438.634C299.762 437.532 300.284 436.057 301.119 435.555C302.489 434.733 304.257 434.563 305.856 434.126C305.934 435.437 306.156 436.755 306.071 438.054C305.634 444.65 305.229 451.253 304.603 457.836C303.331 471.218 302.144 484.613 300.513 497.956C299.319 507.75 294.295 515.873 287.98 523.252C287.367 523.963 286.812 524.727 285.612 526.254C290.277 525.001 293.349 523.017 295.796 520.075C302.424 512.108 306.365 502.706 308.237 492.75C310.357 481.475 311.127 469.946 312.628 458.554C313.561 451.468 314.781 444.415 315.844 437.349C316.196 435.013 316.47 432.671 316.777 430.329C316.522 430.107 316.268 429.878 316.014 429.656C314.604 431.059 313.189 432.456 311.78 433.858L311.186 433.552C311.564 432.671 312.001 431.81 312.315 430.903C313.619 427.171 315.407 423.504 316.02 419.654C316.699 415.387 317.11 411.505 322.936 410.755C324.847 413.077 325.284 416.203 324.788 419.432C323.575 427.347 322.055 435.209 320.907 443.136C319.667 451.716 318.728 460.335 317.632 468.935C315.772 483.556 314.396 498.289 307.18 511.619C301.413 522.267 293.369 531.062 284.999 539.629C280.008 544.738 275.121 549.957 270.189 555.125C269.87 554.949 269.55 554.773 269.224 554.59C269.4 551.328 269.661 548.065 269.726 544.803C270.281 517.628 270.809 490.459 271.331 463.284C271.422 458.391 271.768 457.889 277.261 455.879C277.437 457.999 277.777 459.963 277.744 461.921C277.529 475.27 277.229 488.62 276.961 501.969C276.759 511.952 276.55 521.941 276.381 531.923C276.361 533.274 276.557 534.625 276.694 536.53C280.817 534.057 282.839 530.703 284.438 527.017C284.601 526.645 284.653 526.097 284.503 525.738C281.508 518.541 283.1 511.032 283.152 503.678C283.263 486.179 283.668 468.687 284.222 451.194C284.294 448.911 285.39 446.183 286.93 444.5C295.633 434.981 298.588 423.073 301.152 411.061C303.024 402.279 304.199 393.353 305.804 384.513C306.149 382.614 306.763 380.657 307.735 379.019C308.289 378.092 309.829 377.753 310.925 377.153C311.218 378.216 312.06 379.528 311.714 380.311C307.989 388.747 310.044 397.992 307.878 406.625C306.012 414.076 304.584 421.664 302.176 428.932C301.198 431.881 298.425 434.465 295.959 436.631C292.593 439.587 291.34 442.751 291.32 447.345C291.281 457.654 290.329 467.949 289.833 478.258C289.409 487.151 289.128 496.051 288.75 504.944C288.665 506.882 288.45 508.807 288.287 510.738C288.587 510.908 288.894 511.077 289.194 511.247L289.207 511.24Z" fill="black"/>
<path d="M377.959 433.343C378.702 436.051 379.642 438.798 380.209 441.623C384.345 462.28 392.403 480.881 408.797 494.864C418.766 503.365 430.059 509.818 442.037 515.201C456.429 521.673 471.349 526.038 486.961 528.054C489.564 528.387 492.252 528.1 496.003 528.1C494.574 526.09 493.954 524.251 492.78 523.755C489.153 522.228 485.356 521.047 481.539 520.042C474.643 518.235 467.539 517.1 460.78 514.888C447.334 510.477 434.404 504.755 422.674 496.756C407.212 486.212 396.108 472.151 390.4 454.202C389.278 450.679 389.428 446.758 389.558 442.967C391.496 448.076 392.911 453.465 395.501 458.215C398.646 463.983 402.391 469.528 406.553 474.624C418.603 489.376 434.26 499.222 451.744 506.249C459.28 509.277 467.03 511.789 474.767 514.274C477.279 515.083 480.058 515.057 483.014 515.449C479.302 510.307 475.818 505.492 472.008 500.214C477.338 499.203 480.88 499.255 483.757 503.567C486.811 508.148 490.869 512.056 494.326 516.375C495.938 518.385 497.034 520.812 498.639 522.835C499.872 524.388 501.555 525.582 503.016 526.958C505.247 529.059 507.883 530.899 509.56 533.385C510.969 535.479 510.101 537.378 506.97 537.77C493.635 539.446 480.619 537.946 467.689 534.559C447.576 529.294 428.591 521.523 411.472 509.59C392.964 496.684 380.235 479.55 374.814 457.491C373.327 451.429 372.772 445.081 372.381 438.824C372.113 434.609 373.183 433.95 377.978 433.336L377.959 433.343Z" fill="black"/>
<path d="M305.699 342.103C310.122 338.977 314.5 336.067 318.682 332.903C339.872 316.865 363.097 309.616 389.858 314.745C417.644 320.069 437.901 335.487 452.358 359.184C462.111 375.176 466.984 392.577 465.569 411.381C465.132 417.162 463.566 422.877 462.235 428.56C461.915 429.944 460.506 431.079 459.599 432.325C459.247 432.136 458.895 431.947 458.542 431.764C458.601 430.622 458.568 429.467 458.745 428.338C460.395 417.508 459.508 406.664 458.053 395.97C455.854 379.776 448.717 365.539 438.383 352.973C425.577 337.405 409.169 327.553 389.473 323.409C366.535 318.581 345.554 323.442 326.452 336.85C323.516 338.912 320.372 340.745 317.749 343.153C313.658 346.905 309.059 345.802 305.712 342.103H305.699Z" fill="black"/>
<path d="M290.322 616.392C291.001 603.14 291.621 590.978 292.273 578.066C297.459 582.972 301.276 579.123 305.425 577.055C311.538 574.014 317.919 571.463 323.862 568.122C328.951 565.265 333.589 561.617 338.404 558.283C340.772 556.639 343.088 554.916 345.424 553.227C345.73 553.501 346.03 553.781 346.337 554.055C345.28 555.536 344.419 557.207 343.14 558.466C337.804 563.725 332.356 568.879 326.915 574.034C325.03 575.815 323.164 576.8 320.202 575.75C318.447 575.13 315.792 575.795 313.998 576.748C308.929 579.443 303.938 582.359 299.28 585.693C297.981 586.62 297.949 589.314 297.075 592.029C306.482 588.557 311.773 579.573 321.5 579.606C321.696 579.899 321.892 580.186 322.087 580.48C319.98 582.013 317.892 583.579 315.759 585.073C310.253 588.936 304.603 592.616 299.299 596.739C298.249 597.555 298.497 600.034 298.536 601.907C305.627 598.553 311.832 594.384 316.914 588.818C320.326 585.08 324.182 582.176 328.461 579.456C337.503 573.701 345.365 566.726 346.754 555.047C346.885 553.931 347.453 552.698 348.196 551.856C353.402 545.958 355.464 538.611 357.95 531.428C362.34 518.764 363.945 505.551 365.87 492.398C366.111 490.766 365.68 488.378 368.668 488.594C372.067 488.835 373.333 489.905 373 493.207C371.572 507.587 369.49 521.843 364.558 535.538C359.502 549.579 353.533 563.177 345.574 575.854C342.181 581.25 337.556 584.851 331.397 586.633C329.59 587.155 327.868 588.205 326.315 589.301C318.793 594.638 311.277 599.995 303.886 605.508C299.397 608.856 295.13 612.496 290.309 616.365L290.322 616.392Z" fill="black"/>
<path d="M579.542 545.925C581.245 542.813 582.843 543.668 585.009 545.286C588.558 547.941 592.388 550.238 596.224 552.483C598.462 553.788 599.408 555.536 599.362 558.172C592.14 556.828 587.371 551.497 581.186 547.276C582.073 552.548 584.461 556.215 588.082 558.355C596.576 563.379 603.511 570.308 611.288 576.187C617.009 580.506 623.213 584.492 630.853 583.931C634.356 583.67 637.801 582.418 641.226 581.459C643.046 580.95 644.775 580.121 646.543 579.436C646.791 579.736 647.039 580.043 647.287 580.343C645.91 581.994 644.749 583.918 643.105 585.249C637.377 589.895 630.586 592.1 623.35 592.798C611.138 593.979 599.577 591.709 588.917 585.484C585.818 583.677 582.7 581.961 583.117 577.355C583.222 576.193 581.532 574.575 580.305 573.629C567.408 563.627 559.579 550.062 553.636 535.303C551.848 530.86 551.359 525.888 550.276 521.164C550.589 521.054 550.902 520.943 551.222 520.832C552.709 524.016 554.112 527.245 555.697 530.384C563.043 544.914 571.837 558.368 583.9 569.538C589.478 574.706 594.502 580.558 601.887 583.246C605.775 584.662 609.82 585.641 613.793 586.815C613.989 586.411 614.184 586.006 614.387 585.602C613.304 584.682 612.351 583.481 611.112 582.881C591.638 573.414 578.042 557.898 566.546 540.099C563.023 534.651 558.887 529.601 555.175 524.27C553.14 521.354 550.935 518.418 549.617 515.162C545.122 504.037 541.586 492.645 542.604 480.379C542.636 480.001 542.714 479.622 543.236 479.205C543.921 482.454 544.411 485.755 545.35 488.933C546.603 493.174 548.064 497.369 549.689 501.486C551.561 506.23 553.401 511.032 555.834 515.495C557.38 518.333 560.094 520.519 562.071 523.154C564.191 525.986 565.998 529.053 568.04 531.943C570.898 535.982 573.801 539.995 576.796 543.935C577.402 544.738 578.485 545.175 579.549 545.912L579.542 545.925Z" fill="black"/>
<path d="M279.121 165.775C277.822 162.774 276.863 159.557 275.167 156.797C268.121 145.333 260.847 134.006 253.664 122.621C253.56 122.458 253.592 122.203 253.481 121.518C256.287 120.305 259.21 119.046 261.93 117.871C276.929 148.563 293.297 178.322 304.218 210.534C303.912 210.71 303.605 210.893 303.305 211.069C299.828 205.412 296.272 199.801 292.906 194.079C289.494 188.278 286.571 182.165 282.852 176.573C280.197 172.574 276.459 169.305 273.432 165.527C267.182 157.737 261.121 149.79 254.897 141.973C253.207 139.853 251.224 137.967 249.371 135.97C248.947 136.244 248.523 136.525 248.099 136.799C248.686 138.156 249.058 139.663 249.893 140.851C256.737 150.644 263.47 160.529 270.633 170.081C276.668 178.119 282.122 186.373 285.879 195.762C287.765 200.479 290.524 204.844 292.801 209.405C293.486 210.775 293.884 212.295 294.413 213.744C294.041 213.959 293.669 214.175 293.297 214.383C289.52 209.686 285.586 205.105 282.024 200.251C280.112 197.648 277.835 195.155 277.907 191.364C277.933 189.753 276.491 187.978 275.408 186.51C268.5 177.173 261.336 168.019 254.597 158.565C248.556 150.09 242.971 141.294 237.159 132.662C235.469 130.157 236.291 128.708 238.946 127.867C239.775 127.606 240.59 127.299 241.386 126.94C247.121 124.35 248.06 124.291 251.981 129.309C256.913 135.618 261.428 142.254 266.007 148.824C270.039 154.598 273.915 160.483 277.855 166.323C278.279 166.14 278.703 165.951 279.127 165.768L279.121 165.775Z" fill="black"/>
<path d="M425.57 455.997C425.923 453.42 426.007 450.953 426.614 448.624C433.647 421.625 428.35 397.445 409.156 377.101C399.266 366.622 386.538 360.568 372.152 358.101C364.995 356.875 358.119 358.101 351.132 359.002C349.997 359.145 348.731 358.317 347.524 357.938C348.066 356.685 348.261 354.839 349.214 354.284C351.608 352.888 354.257 351.531 356.945 351.12C375.323 348.308 391.913 353.025 406.481 364.287C428.226 381.101 437.874 403.885 438.038 430.968C438.083 438.119 436.015 444.905 432.877 451.312C431.572 453.981 429.811 456.33 425.564 456.003L425.57 455.997Z" fill="black"/>
<path d="M386.094 394.704C386.25 408.387 374.09 420.431 359.992 420.548C347.511 420.653 334.026 408.413 333.857 396.825C333.641 382.079 345.123 369.213 358.824 369.239C375.245 369.278 385.748 381.72 386.1 394.704H386.094ZM360.448 378.412C351.328 378.471 343.245 385.759 343.277 394.117C343.31 404.517 349.814 410.781 358.713 411.329C368.153 411.91 377.078 403.474 377.045 394.809C377.013 385.642 369.64 378.347 360.448 378.406V378.412Z" fill="black"/>
<path d="M188.457 626.348C195.516 584.355 197.004 542.676 196.39 500.703H205.289C205.289 502.765 205.322 504.572 205.289 506.386C204.885 525.503 204.865 544.64 203.926 563.731C203.182 578.966 201.446 594.162 199.894 609.345C199.17 616.391 195.484 621.585 188.464 626.354L188.457 626.348Z" fill="black"/>
<path d="M580.638 586.711C579.744 586.404 578.72 586.287 577.976 585.765C566.272 577.603 553.544 570.739 544.117 559.647C531.956 545.332 525.602 528.394 522.458 510.164C519.489 492.913 520.272 475.571 522.458 458.326C523.704 448.533 524.963 438.641 529.999 429.598C529.653 434.466 529.562 439.372 528.903 444.2C527.187 456.806 526.855 469.437 526.939 482.141C527.031 497.226 529.438 511.939 533.731 526.28C537.097 537.548 542.473 548.02 548.997 557.859C551.339 561.396 554.405 563.966 558.437 565.519C560.623 566.361 562.749 567.614 564.57 569.088C569.626 573.186 574.584 577.414 579.412 581.772C580.514 582.764 580.945 584.499 581.688 585.889C581.336 586.163 580.99 586.437 580.638 586.718V586.711Z" fill="black"/>
<path d="M456.089 225.606C456.827 223.113 457.303 220.503 458.347 218.141C462.679 208.302 467.291 198.581 471.597 188.735C477.253 175.81 482.74 162.806 488.265 149.816C490.177 145.327 492.017 140.805 493.83 136.27C494.209 135.324 494.307 134.267 494.613 132.936C491.475 133.099 490.692 135.363 489.857 137.112C487.104 142.899 484.671 148.83 482.009 154.663C472.047 176.495 462.052 198.313 452.051 220.125C451.66 220.973 451.059 221.723 450.564 222.519C450.205 222.408 449.846 222.298 449.487 222.193C449.905 220.471 450.14 218.67 450.772 217.032C454.347 207.819 457.949 198.613 461.68 189.459C468.811 171.96 475.994 154.487 483.249 137.04C484.606 133.778 486.38 130.692 487.822 127.795C491.606 129.511 495.044 130.777 498.117 132.636C499.063 133.21 499.578 135.514 499.324 136.838C498.802 139.585 497.888 142.325 496.688 144.857C484.416 170.642 472.053 196.382 459.684 222.121C459.012 223.511 458.014 224.744 457.166 226.056C456.807 225.906 456.448 225.749 456.083 225.599L456.089 225.606Z" fill="black"/>
<path d="M397.1 411.923C397.335 413.012 397.759 414.108 397.759 415.198C397.759 418.121 397.974 421.135 397.38 423.96C395.841 431.314 397.485 437.995 401.034 444.324C410.696 461.523 424.716 473.176 444.105 477.991C454.706 480.627 465.177 483.726 476.307 483.452C481.207 483.328 482.759 484.927 482.818 488.3C482.864 490.864 481.872 491.954 479.217 492.091C469.568 492.586 460.186 491.099 450.89 488.704C437.522 485.259 425.081 480.046 414.193 471.244C406.52 465.046 401.464 457.171 397.119 448.558C395.384 445.12 392.455 442.262 390.902 438.771C389.969 436.664 390.23 433.76 390.687 431.353C391.731 425.833 393.166 420.392 394.562 414.943C394.849 413.821 395.645 412.829 396.206 411.772C396.5 411.825 396.793 411.877 397.093 411.936L397.1 411.923Z" fill="black"/>
<path d="M242.639 470.729C242.26 482.206 241.83 493.461 241.536 504.722C240.929 527.748 240.251 550.773 239.944 573.805C239.879 578.809 237.498 581.237 233.088 583.318C232.957 581.915 232.748 580.786 232.761 579.664C232.905 569.381 233.035 559.105 233.283 548.822C233.512 539.061 233.701 529.294 234.236 519.553C234.732 510.457 235.736 501.388 236.363 492.293C236.728 486.988 236.611 481.645 237.015 476.347C237.42 471.088 237.589 471.101 242.652 470.729H242.639Z" fill="black"/>
<path d="M613.356 363.399C614.948 363.399 616.559 363.582 618.125 363.367C628.641 361.931 639.145 360.424 649.655 358.923C651.11 358.715 652.819 358.401 652.754 360.47C652.721 361.501 651.612 363.23 650.764 363.386C645.76 364.293 640.711 365.135 635.642 365.435C619.201 366.394 602.741 367.001 586.301 367.953C576.339 368.528 566.396 369.506 556.441 370.263C554.797 370.387 553.14 370.283 551.489 370.283C551.417 369.983 551.346 369.689 551.274 369.389C551.776 368.984 552.233 368.306 552.787 368.208C568.112 365.663 583.515 363.536 598.755 360.561C610.616 358.245 622.235 354.721 634.037 352.072C639.08 350.944 644.305 350.572 649.472 350.102C650.386 350.017 652.297 351.335 652.219 351.694C651.932 353.09 651.312 355.185 650.314 355.517C647.261 356.529 643.999 357.044 640.776 357.397C632.053 358.362 623.292 359.028 615.045 362.434C614.576 362.629 613.956 362.46 613.401 362.46C613.395 362.773 613.382 363.093 613.375 363.406L613.356 363.399Z" fill="black"/>
<path d="M228.671 331.344C232.644 333.242 232.99 334.351 231.92 338.129C228.201 351.244 224.62 364.391 220.999 377.531C219.4 383.345 217.502 388.976 212.087 392.512C210.658 393.445 209.177 394.293 207.533 395.291C205.915 386.64 206.666 378.451 208.212 370.328C210.182 359.974 212.165 349.612 214.56 339.356C215.682 334.554 217.769 329.986 219.413 325.321C224.209 327.474 224.293 328.283 223.015 333.242C219.753 345.906 216.778 358.636 213.764 371.366C212.896 375.039 212.211 378.758 211.585 382.484C211.35 383.873 211.546 385.341 211.957 386.809C218.918 368.697 220.947 349.182 228.651 331.35L228.671 331.344Z" fill="black"/>
<path d="M557.504 172.834C559.396 174.988 561.171 177.004 563.434 179.581C541.684 205.451 518.758 231.302 495.611 256.963C495.155 256.722 494.692 256.48 494.235 256.239C494.679 254.914 494.835 253.374 495.625 252.298C501.816 243.77 507.955 235.197 514.44 226.891C528.29 209.164 542.343 191.593 556.317 173.97C556.63 173.572 557.054 173.265 557.511 172.834H557.504Z" fill="black"/>
<path d="M323.353 205.686C321.924 203.226 320.235 200.877 319.112 198.28C314.852 188.428 310.905 178.446 306.593 168.613C301.537 157.091 296.044 145.764 291.099 134.196C288.254 127.541 286.088 120.598 283.655 113.774C283.009 111.953 283.753 110.844 285.651 110.505C287.556 110.165 289.468 109.82 291.014 109.539C303.657 141.001 315.74 172.482 324.247 205.19C323.947 205.353 323.647 205.516 323.353 205.686Z" fill="black"/>
<path d="M374.84 100.313C377.952 100.548 380.509 100.744 383.458 100.965C382.786 134.946 384.619 168.678 381.664 202.671C378.226 201.758 378.259 199.566 378.206 197.426C378.004 189.172 377.906 180.912 377.587 172.658C376.719 150.409 375.76 128.167 374.847 105.918C374.775 104.215 374.84 102.505 374.84 100.313Z" fill="black"/>
<path d="M419.131 301.409C417.455 301.043 415.667 300.939 414.114 300.273C402.469 295.282 390.276 295.328 377.919 295.693C353.774 296.404 331.612 303.803 310.997 315.756C302.816 320.5 295.691 327.07 288.091 332.818C287.406 333.34 286.845 334.319 286.127 334.436C285.318 334.567 284.105 334.188 283.609 333.582C283.192 333.079 283.185 331.592 283.622 331.128C286.284 328.284 288.985 325.445 291.927 322.901C305.862 310.85 322.068 303.164 339.474 297.403C357.212 291.53 375.29 290.16 393.688 291.406C403.05 292.039 411.387 295.987 419.373 300.6C419.294 300.874 419.209 301.141 419.131 301.415V301.409Z" fill="black"/>
<path d="M488.031 249.231C487.078 248.037 486.543 247.372 485.538 246.119C505.273 218.017 525.074 189.831 545.2 161.175C547.307 163.713 548.821 165.533 550.98 168.13C530.612 194.914 509.638 222.147 488.031 249.238V249.231Z" fill="black"/>
<path d="M637.879 291.87C642.048 299.125 641.996 299.601 634.767 302.127C618.21 307.907 601.593 313.525 584.996 319.175C571.863 323.645 558.718 328.062 545.572 332.492C544.665 332.799 543.719 332.988 542.179 332.629C542.721 332.075 543.158 331.272 543.81 331.004C549.434 328.721 555.143 326.653 560.721 324.265C563.839 322.927 567.747 322.568 569.071 318.464C569.228 317.988 570.363 317.812 571.054 317.525C584.898 311.842 598.67 305.989 612.606 300.548C620.871 297.324 629.385 294.754 637.892 291.863L637.879 291.87Z" fill="black"/>
<path d="M135 215.225C137.172 212.537 138.432 210.423 140.226 208.968C141.276 208.12 143.292 207.846 144.695 208.139C156.542 210.632 168.448 212.948 180.152 216.027C201.016 221.515 220.027 231.184 237.935 243.098C241.001 245.134 241.021 245.277 238.646 248.579C206.985 229.67 173.256 216.804 135 215.225Z" fill="black"/>
<path d="M245.157 573.825C245.157 569.819 245.079 565.812 245.17 561.806C245.79 535.186 246.436 508.565 247.114 481.951C247.186 479.022 247.551 476.105 247.747 473.176C247.964 469.861 249.904 468.013 253.566 467.63C253.566 470.99 253.612 474.318 253.56 477.652C253.403 486.558 253.221 495.457 253.018 504.364C252.575 524.022 252.118 543.687 251.661 563.346C251.616 565.414 252.177 567.842 251.289 569.466C250.2 571.476 247.89 572.82 246.103 574.451C245.79 574.242 245.47 574.033 245.157 573.825Z" fill="black"/>
<path d="M390.087 101.266C393.407 101.775 395.743 102.127 398.966 102.623C397.243 136.192 395.514 169.866 393.792 203.506C390.295 204.152 389.167 203.213 389.245 200.466C389.499 191.801 389.754 183.137 389.826 174.472C389.976 155.779 390.015 137.086 390.087 118.399C390.106 112.879 390.087 107.366 390.087 101.266Z" fill="black"/>
<path d="M358.974 100.417H368.029C368.668 134.163 372.022 167.908 371.996 201.784L370.299 202.221C369.66 200.714 368.603 199.252 368.44 197.693C366.822 182.497 365.406 167.282 363.828 152.079C362.901 143.167 361.642 134.28 360.787 125.361C360.011 117.205 359.581 109.017 358.974 100.417Z" fill="black"/>
<path d="M343.506 101.142C344.04 100.685 344.112 100.561 344.204 100.548C351.961 99.3931 352.039 99.3865 352.933 107.236C354.714 122.869 356.54 138.502 358.087 154.154C359.496 168.371 360.598 182.621 361.74 196.871C361.877 198.6 361.388 200.381 361.192 202.143C360.742 202.215 360.298 202.293 359.848 202.365C359.228 200.349 358.341 198.378 358.028 196.316C355.764 181.212 353.748 166.068 351.406 150.977C349.064 135.905 346.428 120.872 343.956 105.82C343.695 104.228 343.643 102.61 343.506 101.135V101.142Z" fill="black"/>
<path d="M478.121 241.656C478.48 240.162 478.506 238.472 479.249 237.206C484.39 228.515 489.57 219.851 494.939 211.303C506.67 192.643 518.524 174.061 530.332 155.446C530.965 154.448 531.643 153.482 532.302 152.503C532.785 152.667 533.137 152.693 533.372 152.869C538.807 157.005 538.976 157.129 534.977 162.917C518.863 186.242 502.638 209.483 486.445 232.75C484.24 235.921 481.957 239.04 479.706 242.184C479.178 242.008 478.649 241.832 478.114 241.656H478.121Z" fill="black"/>
<path d="M405.94 102.877C408.654 103.53 411.133 104.123 414.179 104.854C410.265 138.586 407.512 172.43 402.9 206.064C402.325 206.142 401.751 206.227 401.184 206.305C400.623 204.994 399.514 203.656 399.579 202.378C400.212 189.524 401.001 176.684 401.81 163.837C403.024 144.465 404.276 125.1 405.522 105.728C405.574 104.887 405.764 104.058 405.946 102.871L405.94 102.877Z" fill="black"/>
<path d="M328.337 101.814C331.593 101.468 334.137 101.194 336.603 100.933C342.586 124.206 353.311 198.163 351.041 202.796C350.388 201.484 349.697 200.584 349.475 199.572C347.276 189.661 345.202 179.724 342.99 169.82C338.808 151.068 334.516 132.343 330.353 113.591C329.518 109.826 329.042 105.983 328.337 101.814Z" fill="black"/>
<path d="M313.73 104.195C316.503 103.706 319.008 103.262 321.585 102.806C325.082 117.277 328.592 131.449 331.912 145.659C334.522 156.83 336.949 168.039 339.337 179.255C340.687 185.597 341.835 191.984 342.964 198.378C343.225 199.846 343.003 201.399 343.003 202.913C342.573 203.004 342.142 203.096 341.718 203.187C341.072 201.96 340.178 200.799 339.819 199.494C337.843 192.324 336.075 185.101 334.085 177.937C327.646 154.768 321.141 131.612 314.676 108.449C314.33 107.21 314.115 105.931 313.737 104.189L313.73 104.195Z" fill="black"/>
<path d="M265.225 462.945C265.316 464.974 265.492 466.671 265.459 468.367C264.938 496.488 264.39 524.603 263.842 552.724C263.842 553.05 263.698 553.435 263.822 553.69C267.136 560.332 260.964 561.722 257.37 565.617C257.213 563.294 257.004 561.826 257.037 560.364C257.644 533.007 258.264 505.655 258.916 478.298C259.007 474.5 259.216 470.703 259.49 466.919C259.738 463.493 262.517 463.624 265.212 462.945H265.225Z" fill="black"/>
<path d="M470.651 234.851C470.957 233.37 470.931 231.713 471.61 230.434C478.271 217.88 484.906 205.307 491.841 192.898C500.309 177.734 509.057 162.734 517.695 147.662C518.334 146.54 519.019 145.444 519.77 144.198C521.779 145.692 523.638 147.069 526.215 148.98C508.333 177.708 490.334 206.625 472.334 235.543C471.773 235.314 471.212 235.086 470.657 234.851H470.651Z" fill="black"/>
<path d="M501.039 261.563C523.828 235.986 546.622 210.416 569.606 184.618C571.759 186.673 573.449 188.291 575.504 190.255C570.598 195.52 565.842 200.825 560.871 205.914C545.689 221.456 530.43 236.926 515.177 252.395C512.28 255.332 509.318 258.215 506.219 260.936C505.091 261.928 503.479 262.378 502.083 263.076C501.731 262.574 501.385 262.071 501.033 261.563H501.039Z" fill="black"/>
<path d="M428.871 213.392C426.007 211.989 426.301 209.914 426.732 207.885C429.465 195.09 432.088 182.276 435.024 169.526C438.964 152.373 443.146 135.279 447.249 118.165C447.673 116.39 448.293 114.667 448.92 112.599C451.294 113.747 453.395 114.752 455.946 115.985C446.949 148.354 437.933 180.788 428.871 213.398V213.392Z" fill="black"/>
<path d="M518.282 285.254C543.36 260.754 570.513 238.668 598.416 217.189C599.988 219.29 601.397 221.176 602.878 223.159C575.406 244.194 548.031 265.158 520.624 286.082C520.252 286.37 519.47 286.115 518.876 286.115C518.674 285.828 518.478 285.541 518.276 285.254H518.282Z" fill="black"/>
<path d="M185.247 163.746C195.549 172.176 205.544 179.842 214.951 188.174C229.069 200.682 244.276 212.054 256.267 226.845C257.383 228.222 258.427 229.651 259.503 231.054C259.327 231.276 259.151 231.504 258.968 231.726C258.264 231.432 257.442 231.276 256.874 230.812C255.106 229.377 253.371 227.896 251.746 226.304C236.937 211.787 219.766 200.329 202.986 188.337C195.138 182.732 187.72 176.534 180.094 170.616C178.482 169.363 179.004 168.039 180.198 167.08C181.862 165.749 183.76 164.705 185.254 163.739L185.247 163.746Z" fill="black"/>
<path d="M276.837 113.415C282.35 133.576 293.663 151.107 301.035 170.329C305.301 181.467 309.196 192.748 313.182 203.99C313.626 205.236 313.58 206.658 313.763 208.002C313.502 208.094 313.247 208.191 312.986 208.283C312.406 207.33 311.74 206.417 311.258 205.412C305.823 194.066 300.506 182.667 294.987 171.366C287.804 156.647 280.432 142.012 273.223 127.306C271.794 124.389 270.724 121.303 269.498 118.289C268.741 116.429 269.035 115.17 271.285 114.759C273.079 114.433 274.834 113.904 276.831 113.408L276.837 113.415Z" fill="black"/>
<path d="M275.806 329.915C272.447 327.873 272.316 327.462 275.2 324.578C286.049 313.721 298.666 305.389 312.236 298.323C325.591 291.367 339.585 286.232 354.335 283.42C365.067 281.378 375.956 281.717 386.779 283.133C387.849 283.27 388.854 283.897 389.884 284.295C389.884 284.667 389.884 285.038 389.884 285.41C388.664 285.684 387.444 286.187 386.218 286.18C381.664 286.161 377.097 285.743 372.55 285.906C359.006 286.396 346.154 290.18 333.465 294.604C318.793 299.719 305.314 307.026 293.03 316.526C287.289 320.963 281.58 325.432 275.806 329.928V329.915Z" fill="black"/>
<path d="M536.588 319.469C537.658 318.601 538.598 317.42 539.818 316.924C548.938 313.179 558.163 309.688 567.264 305.885C580.371 300.41 593.386 294.727 606.447 289.155C614.53 285.71 622.581 282.181 630.742 278.938C633.795 277.724 634.33 281.104 635.524 282.683C636.822 284.399 635.191 285.326 633.665 285.939C621.406 290.898 609.311 296.333 596.85 300.717C580.801 306.367 564.452 311.157 548.253 316.383C545.578 317.244 543.015 318.458 540.379 319.449C539.328 319.847 538.232 320.095 537.149 320.415C536.96 320.095 536.765 319.776 536.575 319.456L536.588 319.469Z" fill="black"/>
<path d="M307.187 105.768C316.405 131.84 334.326 198.541 333.302 204.231C332.206 202.136 331.175 200.649 330.601 198.998C326.772 188.063 323.033 177.095 319.269 166.14C313.215 148.517 307.167 130.894 301.119 113.271C299.628 108.925 301.135 106.431 305.641 105.787C306.156 105.715 306.697 105.781 307.187 105.781V105.768Z" fill="black"/>
<path d="M532.7 308.168C534.188 306.335 535.375 304.084 537.221 302.74C542.206 299.112 547.327 295.615 552.657 292.529C571.263 281.756 589.967 271.154 608.665 260.538C612.716 258.242 616.885 256.16 621.087 253.942C621.152 253.968 621.419 253.994 621.517 254.131C625.412 259.657 625.36 260.303 619.299 263.533C601.482 273.026 583.646 282.481 565.724 291.785C556.891 296.372 547.842 300.541 538.95 305.017C537.045 305.976 535.408 307.47 533.646 308.716C533.326 308.533 533.007 308.351 532.687 308.162L532.7 308.168Z" fill="black"/>
<path d="M614.739 241.245C616.337 243.496 617.518 245.16 619.116 247.411C589.243 266.548 558.339 283.512 527.474 300.541C527.122 300.123 526.77 299.706 526.424 299.288C527.298 298.401 528.042 297.318 529.06 296.652C543.047 287.518 557.067 278.422 571.1 269.353C585.577 259.997 600.08 250.686 614.739 241.245Z" fill="black"/>
<path d="M410.389 207.584C410.102 206.482 409.469 205.346 409.574 204.289C410.989 190.275 412.562 176.279 413.997 162.264C414.812 154.291 415.289 146.272 416.221 138.312C417.415 128.101 418.909 117.916 420.299 107.725C420.384 107.112 420.697 106.524 420.958 105.748C423.137 106.296 425.29 106.603 427.195 107.457C427.788 107.725 428.043 109.519 427.893 110.531C426.529 119.632 425.055 128.721 423.594 137.81C421.101 153.306 418.609 168.802 416.098 184.298C415.028 190.92 413.932 197.536 412.783 204.146C412.588 205.268 412.072 206.332 411.7 207.421C411.263 207.473 410.826 207.526 410.389 207.584Z" fill="black"/>
<path d="M412.34 310.804C391.691 306.067 371.017 303.04 350.199 309.206C329.779 315.26 311.31 324.897 295.391 339.349C293.193 337.999 292.606 336.328 294.334 334.515C296.716 332.009 299.13 329.451 301.902 327.416C317.038 316.33 333.798 308.37 351.928 303.881C367.481 300.025 383.406 300.56 399.129 303.496C403.108 304.24 406.847 306.322 410.657 307.901C411.452 308.233 412.053 309.049 412.738 309.643C412.607 310.028 412.47 310.413 412.34 310.804Z" fill="black"/>
<path d="M589.7 206.541C591.174 208.094 592.57 209.568 594.391 211.48C567.564 234.107 540.757 256.722 513.944 279.336C513.761 279.303 513.572 279.264 513.389 279.232C514.166 277.607 514.603 275.676 515.777 274.416C520.585 269.255 525.393 264.055 530.606 259.305C548.423 243.059 566.403 226.989 584.344 210.88C586.02 209.372 587.854 208.035 589.706 206.534L589.7 206.541Z" fill="black"/>
<path d="M265.329 225.305C261.023 221.208 256.907 216.882 252.372 213.046C238.457 201.282 224.365 189.733 210.371 178.061C204.624 173.265 198.954 168.391 193.292 163.498C192.574 162.878 191.987 162.01 191.576 161.149C190.825 159.57 189.221 157.684 191.628 156.36C193.657 155.244 195.588 153.815 198.237 156.321C208.414 165.931 219.048 175.053 229.206 184.677C238.653 193.622 247.858 202.828 256.867 212.217C260.416 215.916 263.15 220.399 266.255 224.529C265.949 224.79 265.636 225.044 265.329 225.305Z" fill="black"/>
<path d="M468.204 119.972C468.204 127.175 438.873 212.543 434.717 216.601C434.717 215.127 434.482 214.018 434.75 213.059C441.097 190.653 447.51 168.26 453.891 145.861C456.318 137.334 458.705 128.793 461.113 120.259C461.374 119.326 461.693 118.412 462.104 117.107C464.244 118.112 466.228 119.045 468.198 119.972H468.204Z" fill="black"/>
<path d="M579.64 196.114C581.695 197.798 583.195 199.024 585.388 200.819C559.996 224.907 534.298 248.24 508.053 272.178C507.668 268.172 509.768 266.365 511.563 264.492C516.214 259.631 520.892 254.79 525.648 250.034C543.739 231.928 561.869 213.855 579.646 196.114H579.64Z" fill="black"/>
<path d="M442.324 219.988C442.676 217.671 442.709 215.251 443.439 213.058C447.921 199.579 452.469 186.112 457.166 172.704C462.868 156.425 468.733 140.205 474.539 123.958C474.748 123.371 475.028 122.81 475.381 122.007C477.553 123.299 479.556 124.487 481.709 125.766C469.144 157.266 456.559 188.833 443.968 220.405C443.42 220.268 442.872 220.131 442.324 219.994V219.988Z" fill="black"/>
<path d="M275.663 221.586C274.658 221.032 273.451 220.673 272.688 219.89C268.382 215.453 264.357 210.742 259.908 206.456C253.664 200.44 247.075 194.783 240.753 188.852C229.115 177.937 217.502 166.995 206.02 155.916C204.226 154.18 203.182 151.668 201.838 149.6C206.105 145.568 207.983 145.405 211.48 149.182C220.47 158.898 229.232 168.828 238.235 178.537C246.71 187.678 255.471 196.564 263.926 205.725C268.304 210.468 272.297 215.571 276.465 220.51C276.198 220.869 275.93 221.234 275.663 221.593V221.586Z" fill="black"/>
<path d="M416.946 209.151C422.843 175.731 428.741 142.312 434.684 108.671C437.268 109.748 439.238 110.57 441.613 111.562C441.058 114.596 440.569 117.754 439.884 120.866C435.806 139.422 431.722 157.984 427.547 176.521C425.342 186.314 422.993 196.075 420.586 205.823C420.24 207.213 419.222 208.439 418.518 209.744C417.989 209.542 417.468 209.346 416.939 209.144L416.946 209.151Z" fill="black"/>
<path d="M506.356 136.081C508.353 137.334 510.349 138.587 512.893 140.185C511.158 144.087 509.69 148.145 507.635 151.877C495.311 174.322 482.883 196.708 470.416 219.074C468.439 222.617 466.104 225.958 463.938 229.39L462.62 228.672C477.136 197.941 491.645 167.217 506.356 136.081Z" fill="black"/>
<path d="M173.57 173.82C185.424 182.184 197.395 190.242 208.929 198.887C221.162 208.061 233.009 217.75 244.929 227.348C246.684 228.757 247.858 230.884 249.3 232.685C249.058 232.9 248.823 233.116 248.582 233.337C243.448 229.69 238.405 225.906 233.153 222.435C228.09 219.088 222.936 215.838 217.606 212.948C213.177 210.54 209.647 207.285 205.961 203.911C201.055 199.429 195.197 195.873 189.397 192.532C183.114 188.911 176.427 185.988 169.923 182.746C169.244 182.406 168.598 182.002 167.966 181.591C166.132 180.397 165.95 179.209 167.913 177.898C169.714 176.697 171.43 175.379 173.589 173.826L173.57 173.82Z" fill="black"/>
<path d="M242.43 240.769C240.062 239.085 237.609 237.5 235.332 235.705C223.53 226.427 209.993 220.51 195.868 216.066C180.067 211.095 164.045 206.854 148.113 202.299C147.291 202.065 146.476 201.83 145.595 201.575C148.707 196.877 151.095 196.121 156.32 197.38C175.175 201.927 192.998 209.411 210.991 216.406C222.617 220.927 232.311 228.411 241.021 237.213C241.869 238.067 242.502 239.131 243.239 240.097C242.971 240.318 242.704 240.54 242.436 240.762L242.43 240.769Z" fill="black"/>
<path d="M549.401 362.603C549.33 361.735 549.264 360.933 549.245 360.646C550.452 360.143 551.333 359.772 552.213 359.406C552.709 359.204 553.198 358.943 553.72 358.825C564.367 356.372 575.001 353.886 585.662 351.505C601.495 347.975 617.342 344.484 633.202 341.059C637.755 340.074 642.381 339.415 646.948 338.488C649.1 338.051 650.575 338.449 651.09 340.785C651.638 343.277 650.379 344.445 648.122 344.882C639.288 346.592 630.468 348.347 621.628 350.004C605.325 353.064 589.028 356.157 572.698 359.06C567.049 360.065 561.308 360.502 555.619 361.285C553.609 361.566 551.639 362.114 549.408 362.597L549.401 362.603Z" fill="black"/>
<path d="M544.783 307.666C571.811 293.886 599.114 279.969 626.43 266.039C628.146 268.113 629.587 269.855 631.453 272.106C602.676 284.843 575.497 300.952 544.783 307.659V307.666Z" fill="black"/>
<path d="M611.196 234.903C601.717 243.613 549.017 277.411 545.109 277.176C544.456 274.932 546.094 273.868 547.509 272.792C558.548 264.375 569.554 255.906 580.684 247.613C587.984 242.171 595.48 236.984 602.885 231.673C605.542 229.768 607.826 230.164 609.735 232.861C610.224 233.552 610.72 234.238 611.203 234.91L611.196 234.903Z" fill="black"/>
<path d="M283.831 217.137C279.812 212.602 275.898 207.97 271.722 203.579C270.307 202.091 268.187 201.302 266.503 200.036C263.835 198.026 260.932 196.186 258.707 193.753C244.589 178.283 230.615 162.689 216.641 147.082C215.453 145.757 214.657 144.074 213.431 142.162C215.825 141.184 217.776 140.381 219.57 139.65C230.798 153.476 241.921 167.158 253.018 180.853C254.591 182.791 255.895 184.957 257.592 186.771C260.684 190.079 263.62 193.687 267.247 196.297C273.791 201.008 279.166 206.697 283.74 213.235C284.418 214.201 284.614 215.506 285.031 216.654C284.633 216.817 284.235 216.974 283.837 217.137H283.831Z" fill="black"/>
<path d="M652.48 368.208C654.189 372.312 653.667 373.604 649.883 374.674C648.644 375.019 647.313 375.117 646.021 375.176C624.322 376.181 602.624 377.199 580.925 378.125C572.464 378.49 563.989 378.686 555.521 378.843C554.536 378.862 553.544 378.138 552.553 377.753C553.472 377.225 554.36 376.318 555.312 376.233C570.917 374.869 586.523 373.545 602.141 372.344C617.042 371.196 631.962 370.224 646.869 369.121C648.696 368.984 650.497 368.534 652.486 368.201L652.48 368.208Z" fill="black"/>
<path d="M554.862 385.394C557.478 385.087 560.088 384.656 562.717 384.5C577.213 383.625 591.709 382.777 606.212 382.014C614.4 381.583 622.607 381.446 630.794 380.963C637.39 380.572 643.973 379.913 650.549 379.247C652.565 379.039 653.543 379.6 653.902 381.661C654.274 383.782 653.661 385.087 651.521 385.446C649.701 385.752 647.861 386.085 646.021 386.118C622.228 386.555 598.435 386.999 574.636 387.292C568.556 387.364 562.469 386.914 556.389 386.679C555.893 386.659 555.41 386.451 554.921 386.327C554.901 386.02 554.882 385.713 554.862 385.407V385.394Z" fill="black"/>
<path d="M646.843 326.835C647.874 328.114 648.748 329.197 650.112 330.887C647.985 331.833 646.184 332.968 644.227 333.444C628.87 337.203 613.512 340.935 598.103 344.464C587.325 346.931 576.482 349.136 565.64 351.328C559.912 352.483 554.131 353.364 548.155 354.402C547.294 352.457 548.612 352.053 550.217 351.655C560.205 349.182 570.206 346.761 580.155 344.151C600.262 338.886 620.33 333.497 640.424 328.192C642.505 327.644 644.638 327.292 646.843 326.835Z" fill="black"/>
<path d="M652.252 413.984C652.297 414.311 652.408 414.826 652.447 415.355C652.734 419.648 652.362 420.189 648.128 420.007C641.944 419.739 635.739 419.511 629.607 418.754C613.578 416.777 597.535 414.793 581.584 412.255C573.481 410.964 565.561 408.51 557.576 406.501C556.16 406.142 554.849 405.365 553.616 404.171C569.737 408.119 586.131 409.274 602.559 410.318C619.071 411.368 635.563 412.745 652.252 413.991V413.984Z" fill="black"/>
<path d="M644.736 311.398C612.103 323.351 578.022 330.469 544.998 341.124C544.835 340.739 544.672 340.36 544.502 339.975C545.546 339.388 546.531 338.631 547.647 338.233C554.49 335.761 561.334 333.294 568.223 330.965C589.419 323.814 610.629 316.722 631.845 309.629C634.213 308.84 636.646 308.253 639.015 307.47C642.687 306.256 643.346 306.615 644.729 311.391L644.736 311.398Z" fill="black"/>
<path d="M275.33 193.315C271.67 194.777 269.028 193.315 267.019 190.855C255.478 176.73 244.041 162.525 232.585 148.334C230.269 145.464 227.829 142.658 225.794 139.591C223.537 136.179 224.352 134.111 227.692 133.093C229.793 132.453 230.589 133.726 231.574 135.115C238.45 144.746 245.183 154.494 252.346 163.909C259.634 173.493 267.364 182.739 274.887 192.147C275.076 192.382 275.115 192.734 275.33 193.315Z" fill="black"/>
<path d="M553.949 425.696C583.163 439.3 614.85 442.902 646.132 448.82C646.178 448.944 646.36 449.224 646.367 449.518C646.458 454.476 646.126 454.998 641.265 454.111C613.408 449.041 585.707 443.358 559.944 430.942C557.602 429.813 555.495 428.208 553.283 426.825C553.505 426.447 553.733 426.075 553.955 425.696H553.949Z" fill="black"/>
<path d="M587.038 505.329C587.775 505.401 588.656 505.231 589.23 505.577C596.165 509.786 603.054 514.085 609.97 518.326C611.712 519.396 613.525 520.349 615.3 521.354C614.504 527.852 612.971 528.55 606.76 526.671C587.671 520.877 573.873 508.213 562.247 492.743C560.414 490.303 559.357 487.276 558.189 484.353C568.51 495.438 578.179 507.15 591.775 514.405C592.036 514.203 592.296 514.007 592.557 513.805C590.737 510.98 588.917 508.148 587.097 505.323H587.032L587.038 505.329Z" fill="black"/>
<path d="M651.253 425.403C651.899 431.21 651.293 432.162 645.989 431.51C634.506 430.1 623.024 428.587 611.627 426.629C598.285 424.333 585.003 421.664 571.753 418.858C565.424 417.521 559.24 415.498 553.081 413.293C585.72 417.638 618.033 424.411 651.26 425.403H651.253Z" fill="black"/>
<path d="M547.177 346.05C559.481 342.188 571.74 338.168 584.109 334.508C602.422 329.093 620.806 323.932 639.165 318.666C640.208 318.366 641.285 318.17 642.316 317.831C644.397 317.133 645.976 317.916 646.237 319.899C646.347 320.748 644.977 322.359 643.973 322.692C637.716 324.793 631.427 326.848 625.04 328.519C612.782 331.722 600.458 334.671 588.154 337.699C575.204 340.876 562.241 344.021 549.278 347.166C548.69 347.309 548.071 347.277 547.464 347.329L547.183 346.05H547.177Z" fill="black"/>
<path d="M558.776 420.829C561.653 421.664 564.491 422.701 567.414 423.295C580.69 425.977 593.954 428.736 607.295 431.072C619.997 433.291 632.784 435.026 645.538 436.938C647.209 437.186 648.618 437.225 648.611 439.672C648.605 442.549 647.456 443.13 644.84 442.888C624.89 441.029 605.494 436.298 586.125 431.509C578.779 429.689 571.602 427.151 564.4 424.776C562.299 424.084 560.381 422.845 558.378 421.859C558.509 421.514 558.639 421.174 558.776 420.829Z" fill="black"/>
<path d="M552.611 393.373C555.358 393.197 558.104 392.917 560.851 392.871C583.111 392.505 605.37 392.225 627.63 391.814C635.009 391.677 642.387 391.279 649.759 390.907C651.88 390.803 653.569 390.594 653.635 393.634C653.693 396.662 651.834 396.649 649.812 396.681C644.599 396.773 639.38 396.975 634.174 396.87C612.031 396.427 589.896 395.879 567.76 395.402C563.872 395.318 559.977 395.455 556.082 395.363C554.895 395.337 553.72 394.907 552.539 394.665C552.566 394.234 552.592 393.797 552.611 393.367V393.373Z" fill="black"/>
<path d="M546.922 441.969C550.706 444.487 554.634 446.81 558.241 449.557C569.378 458.032 581.969 463.467 595.154 467.734C607.53 471.741 619.919 475.727 632.295 479.727C633.123 479.994 634.33 480.053 634.676 480.621C635.322 481.684 635.707 483.061 635.681 484.301C635.668 484.738 634.082 485.573 633.313 485.475C631.173 485.201 629 484.764 626.991 483.987C609.402 477.156 591.109 472.139 574.225 463.454C564.263 458.326 555.867 451.11 547.366 444.017C546.916 443.639 546.655 443.026 546.303 442.523C546.505 442.341 546.707 442.158 546.909 441.975L546.922 441.969Z" fill="black"/>
<path d="M565.92 399.931C594.802 400.753 623.677 401.581 652.845 402.417C652.865 402.606 652.91 403.441 653.021 404.27C653.38 406.938 652.271 407.982 649.564 407.852C639.712 407.382 629.848 407.14 620.004 406.605C603.328 405.692 586.562 405.744 570.076 402.527C568.51 402.221 567.016 401.529 565.49 401.014C565.633 400.655 565.777 400.296 565.92 399.937V399.931Z" fill="black"/>
<path d="M549.278 452.669C552.787 455.292 556.023 458.424 559.853 460.433C570.78 466.175 581.715 472.021 593.092 476.765C604.979 481.717 617.355 485.501 629.574 489.638C631.812 490.394 632.171 491.693 631.786 493.559C631.31 495.862 629.45 495.255 628.126 494.838C621.628 492.789 615.072 490.858 608.73 488.385C593.856 482.598 579.144 476.34 565.783 467.487C560.479 463.97 555.801 459.507 550.882 455.423C550.106 454.777 549.558 453.85 548.899 453.054C549.023 452.924 549.147 452.793 549.271 452.663L549.278 452.669Z" fill="black"/>
<path d="M560.923 443.215C575.921 453.68 593.197 458.202 610.564 462.515C619.495 464.733 628.38 467.147 637.338 469.255C640.039 469.887 640.541 471.101 640.026 473.6C639.478 476.262 637.697 475.91 636.053 475.446C630.846 473.978 625.693 472.328 620.519 470.768C612.86 468.459 605.07 466.495 597.555 463.774C588.708 460.57 579.921 457.099 571.465 452.995C567.251 450.947 563.852 447.221 560.081 444.252C560.355 443.906 560.636 443.561 560.91 443.215H560.923Z" fill="black"/>
<path d="M554.875 435.809C560.355 437.773 565.809 439.809 571.315 441.688C589.909 448.056 608.874 452.989 628.204 456.584C632.562 457.393 636.796 458.854 641.141 459.768C643.268 460.211 643.679 461.497 642.994 462.991C642.642 463.754 641.017 464.557 640.169 464.381C630.742 462.43 621.25 460.675 611.979 458.117C599.662 454.724 587.39 451.057 575.367 446.751C568.132 444.161 561.406 440.135 554.451 436.755C554.595 436.436 554.738 436.116 554.882 435.803L554.875 435.809Z" fill="black"/>
<path d="M556.336 556.482C555.227 555.256 554.007 554.12 553.035 552.796C546.192 543.433 542.871 532.517 539.544 521.641C535.042 506.921 532.955 491.83 533.607 476.425C533.842 470.918 534.403 465.424 535.44 459.892C535.636 462.214 535.923 464.531 536.014 466.86C536.321 474.885 536.047 482.976 536.967 490.929C537.776 497.884 539.739 504.729 541.475 511.554C544.756 524.472 547.992 537.417 554.888 549.07C556.095 551.112 556.558 553.585 557.367 555.862L556.336 556.482Z" fill="black"/>
<path d="M587.103 505.323C586.908 504.977 586.803 504.501 586.51 504.312C577.794 498.87 571.759 490.623 564.707 483.446C564.517 483.25 564.485 482.904 564.133 482.004C565.672 482.898 566.873 483.368 567.786 484.157C577.605 492.633 589.537 496.991 601.358 501.591C607.321 503.914 613.173 506.537 619.143 508.846C621.361 509.701 621.876 511.162 621.426 513.159C620.897 515.495 618.934 514.986 617.446 514.686C615.672 514.327 613.923 513.642 612.273 512.865C606.486 510.158 600.778 507.254 594.958 504.612C592.323 503.411 589.524 503.078 587.058 505.316C587.038 505.323 587.103 505.316 587.103 505.316V505.323Z" fill="black"/>
<path d="M543.589 468.583C547.784 477.195 551.685 485.964 556.284 494.348C558.705 498.759 561.719 503.261 565.555 506.38C574.206 513.413 583.47 519.703 592.623 526.097C595.174 527.885 598.227 528.942 601.019 530.41C602.356 531.115 603.805 531.793 604.842 532.837C605.54 533.542 606.147 535.095 605.821 535.838C605.507 536.543 603.824 537.169 602.924 536.98C600.934 536.563 598.853 535.93 597.176 534.814C590.509 530.384 583.92 525.823 577.428 521.138C573.566 518.352 570.05 515.084 566.181 512.311C561.014 508.605 558.17 503.346 555.651 497.774C552.266 490.27 548.84 482.787 545.37 475.322C544.411 473.267 543.223 471.323 542.14 469.326C542.623 469.078 543.106 468.83 543.589 468.583Z" fill="black"/>
<path d="M556.669 468.087C578.498 482.513 602.794 491.503 627.121 500.423C626.913 504.481 626.351 505.388 622.509 504.357C616.781 502.817 611.157 500.703 605.723 498.309C599.381 495.51 593.164 492.371 587.116 488.972C580.24 485.109 573.605 480.823 566.879 476.693C564.119 475.003 561.386 473.274 558.665 471.525C557.596 470.84 556.597 470.051 555.567 469.307C555.932 468.896 556.297 468.491 556.656 468.08L556.669 468.087Z" fill="black"/>
<path d="M154.546 190.679C158.76 186.934 162.218 184.925 167.352 187.515C179.735 193.772 192.352 199.553 204.832 205.608C206.307 206.325 207.553 207.513 208.91 208.485C208.753 208.896 208.597 209.307 208.44 209.718C205.204 208.916 201.857 208.426 198.765 207.252C190.049 203.95 181.483 200.244 172.761 196.943C168.311 195.26 163.647 194.157 159.106 192.708C157.723 192.265 156.431 191.528 154.552 190.679H154.546Z" fill="black"/>
<path d="M221.077 388.023C226.381 371.026 231.6 354.291 236.891 337.333C239.931 338.403 241.751 339.173 240.812 342.35C236.95 355.406 233.231 368.508 229.473 381.596C228.253 385.857 226.381 387.357 221.084 388.016L221.077 388.023Z" fill="black"/>
<path d="M245.796 342.84C249.026 344.445 250.174 346.024 249.182 349.267C245.862 360.143 242.828 371.105 239.749 382.046C238.783 385.478 235.939 384.408 232.637 385.237C236.5 370.504 241.627 356.94 245.796 342.833V342.84Z" fill="black"/>
<path d="M350.173 535.323C349.292 541.13 346.135 544.973 342.266 548.137C334.803 554.238 327.424 560.514 317.416 562.328C315.316 562.707 313.404 564.383 311.525 565.649C307.748 568.194 304.12 570.967 300.297 573.427C298.934 574.307 297.166 574.555 295.581 575.097C295.404 574.712 295.228 574.327 295.052 573.942C295.92 573.296 296.781 572.631 297.668 572.011C302.261 568.781 306.789 565.453 311.486 562.38C314.911 560.142 318.369 557.78 322.14 556.306C332.213 552.372 340.563 546.284 347.27 537.848C347.74 537.254 348.281 536.713 348.823 536.184C349.044 535.969 349.351 535.845 350.18 535.329L350.173 535.323Z" fill="black"/>
<path d="M566.462 516.277C568.693 518.652 570.467 520.525 572.229 522.41C579.177 529.868 587.377 535.708 596.074 540.927C598.377 542.311 600.986 543.635 599.812 547.158C589.589 547.256 569.658 529.111 566.468 516.277H566.462Z" fill="black"/>
<path d="M255.843 348.517C258.831 350.2 259.96 351.74 258.988 354.676C255.974 363.83 253.273 373.088 250.206 382.229C249.919 383.091 247.897 383.821 246.69 383.815C244.439 383.815 244.583 381.975 245.072 380.455C247.342 373.33 249.652 366.224 252.02 359.132C253.168 355.687 254.48 352.288 255.843 348.517Z" fill="black"/>
<path d="M265.446 353.906C268.565 355.524 269.72 356.966 268.663 359.967C266.066 367.314 263.802 374.785 261.389 382.203C260.749 384.173 259.751 385.426 257.318 384.624C254.701 383.762 255.921 382.086 256.378 380.702C259.314 371.881 262.328 363.086 265.446 353.912V353.906Z" fill="black"/>
<path d="M276.022 359.85C278.638 360.457 279.753 361.944 279.055 364.182C276.772 371.509 274.378 378.804 271.814 386.033C271.605 386.62 269.511 387.11 268.715 386.738C267.926 386.372 267.084 384.702 267.299 383.867C268.017 381.055 269.217 378.367 270.189 375.613C271.67 371.431 273.086 367.223 274.58 363.047C274.971 361.957 275.532 360.933 276.028 359.843L276.022 359.85Z" fill="black"/>
<path d="M282.206 390.861C277.405 389.595 277.268 389.237 278.723 385.465C280.869 379.9 282.878 374.282 284.999 368.704C285.481 367.431 286.193 366.237 286.832 364.926C288.939 365.741 290.342 366.681 289.618 368.873C287.204 376.168 284.718 383.436 282.206 390.861Z" fill="black"/>
<path d="M350.525 520.251C349.977 527.448 333.08 544.281 325.382 546.193C325.16 545.965 324.938 545.736 324.71 545.508C333.139 537.261 341.574 529.007 350.525 520.251Z" fill="black"/>
<path d="M297.812 370.387C300.049 371.437 300.976 372.67 299.978 375.254C298.262 379.691 296.931 384.271 295.411 388.786C295.065 389.811 294.824 390.965 294.165 391.748C293.649 392.355 292.521 392.799 291.738 392.701C291.151 392.629 290.394 391.65 290.237 390.959C290.035 390.065 290.159 388.975 290.492 388.101C292.593 382.529 294.785 376.996 296.977 371.457C297.12 371.091 297.479 370.811 297.818 370.393L297.812 370.387Z" fill="black"/>
<path d="M214.344 319.41C215.036 320.611 216.465 321.929 216.295 322.986C215.512 327.794 214.279 332.538 212.576 337.209C211.18 331.265 211.898 325.491 213.333 319.749C213.672 319.639 214.005 319.521 214.344 319.41Z" fill="black"/>
<path d="M541.716 324.767C546.844 323.175 551.978 321.583 557.106 319.991C557.237 320.389 557.361 320.78 557.491 321.178C552.376 322.809 547.255 324.447 542.14 326.078C542.003 325.641 541.86 325.204 541.723 324.767H541.716Z" fill="black"/>
<path d="M203.247 445.414C203.11 447.802 202.98 450.183 202.843 452.571C202.425 452.558 202.001 452.538 201.583 452.525C201.734 450.137 201.884 447.749 202.027 445.361C202.432 445.381 202.836 445.4 203.247 445.42V445.414Z" fill="black"/>
<path d="M360.448 378.412C369.64 378.354 377.013 385.648 377.045 394.815C377.071 403.48 368.147 411.916 358.713 411.336C349.814 410.788 343.316 404.517 343.277 394.124C343.251 385.766 351.328 378.471 360.448 378.419V378.412ZM359.626 402.606C364.591 402.651 368.336 399.206 368.362 394.574C368.381 390.49 364.487 386.855 359.985 386.757C355.164 386.653 351.334 390.437 351.334 395.305C351.334 399.383 354.949 402.567 359.633 402.606H359.626Z" fill="black"/>
<path d="M359.626 402.606C354.942 402.567 351.328 399.383 351.328 395.305C351.328 390.437 355.157 386.653 359.978 386.757C364.48 386.855 368.375 390.49 368.355 394.574C368.336 399.206 364.591 402.651 359.62 402.606H359.626Z" fill="black"/>
</g>
<defs>
<clipPath id="clip0_8061_111">
<rect width="519" height="580" fill="white" transform="translate(135 100)"/>
</clipPath>
</defs>
</svg>
