<svg width="800" height="800" viewBox="0 0 800 800" fill="none" xmlns="http://www.w3.org/2000/svg">
<path d="M256.884 590.643C243.045 577.184 230.116 562.748 232.829 542.192C235.411 522.599 247.474 510.136 262.637 498.747C262.428 498.217 262.218 497.679 262.008 497.148C253.555 499.448 245.096 501.748 236.643 504.048C236.531 503.891 236.426 503.734 236.315 503.583C249.427 495.674 263.227 493.774 277.8 490.045C277.695 489.37 277.584 488.702 277.479 488.027L254.898 489.265C266.281 485.026 278.043 485.295 289.962 485.806C279.923 477.647 261.202 481.736 249.643 483.257C258.981 472.759 288.324 480.97 299.293 482.47C296.266 477.189 273.384 473.369 253.352 475.144C271.824 469.509 288.684 474.345 305.741 477.877C292.904 469.896 277.512 469.319 262.952 467.563C273.187 459.732 300.25 471.462 310.623 474.188C307.628 469.024 295.231 466.514 290.067 465.184C278.705 462.268 266.851 461.751 255.239 460.427C275.258 456.312 294.411 464.306 314.102 467.936C295.263 460.958 276.817 452.491 255.272 454.765C274.144 447.459 297.898 459.116 316.494 462.511C300.912 456.102 285.238 450.041 268.45 447.466C287.4 446.915 304.503 455.473 322.831 458.192C304.699 450.775 286.155 444.694 266.995 440.493C287.302 441.732 306.272 448.658 325.465 454.713C323.073 450.558 316.776 449.064 312.635 447.656C303.231 444.451 293.717 441.765 284.451 438.121C298.913 439.629 312.844 443.082 325.937 449.733C326.133 449.32 326.323 448.907 326.52 448.501C315.885 440.801 303.579 437.787 290.919 435.389C281.87 433.672 267.48 434.131 264.275 423.437C260.986 412.474 265.396 396.734 269.917 386.774C276.68 371.867 271.477 367.869 258.332 360.439C250.888 377.024 239.447 392.062 233.727 409.257L233.668 409.342C222.102 426.399 212.43 445.048 208.164 465.348C203.709 486.572 206.493 503.419 223.688 517.128C213.715 518.877 208.721 510.359 203.178 503.688C193.493 540.455 168.357 570.539 147.742 601.678C146.018 600.138 145.179 599.384 144 598.336C162.452 570.539 184.856 542.303 195.419 510.228C200.819 493.839 197.778 476.881 201.782 460.27C205.733 443.888 214.593 429.74 221.886 414.741C228.642 400.836 237.593 388.307 244.833 374.684C248.149 368.453 252.795 360.779 251.766 353.545C250.567 345.151 247.481 338.638 248.483 329.752C250.39 312.813 261.654 298.699 260.711 281.242C259.806 264.454 254.06 251.676 264.406 236.356C273.652 222.654 279.393 209.188 284.137 193.377C287.931 180.736 293.592 168.745 301.521 158.156C318.912 134.913 345.49 120.071 372.959 111.992C434.076 94.0241 509.656 107.241 562.209 142.731C586.146 158.896 605.863 180.678 618.444 206.757C625.429 221.226 630.416 236.88 633.109 252.718C634.787 262.587 635.422 272.619 635.088 282.618C634.793 291.393 630.35 303.515 632.238 311.922C639.557 311.208 646.667 311.503 652.204 317.073C659.176 324.097 654.753 332.989 652.158 341.161C646.09 360.249 642.008 380.274 634.544 398.857C630.98 407.736 626.792 416.366 623.09 425.193C619.126 434.642 616.275 445.388 610.869 454.104C606.197 461.646 598.557 466.246 591.499 471.291C582.077 478.028 572.68 484.803 563.309 491.611C554.522 497.994 545.709 504.337 537 510.824C528.921 516.839 523.757 524.323 516.484 531.033C503.208 543.273 483.032 544.059 466.899 550.999C426.678 568.298 386.72 586.914 347.194 605.747C330.589 613.656 316.022 624.658 305.106 639.585C298.651 648.412 293.966 658.333 288.796 667.926C283.822 677.145 279.34 689.91 270.861 696.142C269.065 686.942 276.201 678.128 280.395 669.99C284.897 661.255 289.064 652.356 294.326 644.035C304.241 628.347 316.501 615.222 332.699 605.917C351.774 594.961 372.802 586.639 392.788 577.478C412.603 568.396 432.347 559.098 452.293 550.317C470.713 542.205 482.521 526.046 496.898 512.403C512.002 498.059 527.905 484.62 543.776 471.134C550.551 465.374 557.36 460.021 561.488 451.935C566.094 442.905 567.726 432.086 570.439 422.382C573.427 411.675 577.162 400.849 579.206 389.913C581.008 380.274 580.137 370.373 579.462 360.661C564.358 353.735 561.435 335.407 574.122 322.236C560.747 323.442 553.389 332.655 549.699 345.132C545.584 359.043 546.279 371.952 552.936 384.468H544.798C535.107 399.506 522.04 416.117 530.395 434.354C525.048 434.648 522.958 430.697 520.009 428.404C509.289 432.034 474.762 487.876 477.908 498.217C496.694 483.434 515.121 468.932 533.54 454.431C516.575 471.265 498.529 486.834 478.615 500.209C478.812 500.602 479.015 500.988 479.212 501.381C502.356 493.557 519.092 469.378 539.595 456.79C539.942 457.177 540.296 457.557 540.644 457.943C523.24 474.404 503.725 488.171 486.007 504.173C507.592 491.244 526.398 474.784 545.027 458.009C544.189 456.777 543.501 455.46 542.963 454.071C545.447 455.145 547.937 456.227 551.233 457.655C534.019 475.577 514.033 490.7 495.698 507.475C486.59 515.811 478.635 525.26 469.671 533.693C460.307 542.5 447.942 546.956 436.422 552.172C411.804 563.331 387.185 574.517 362.639 585.84C350.516 591.436 338.282 596.586 327.155 604.024C318.198 610.013 308.572 615.818 297.878 617.896C297.858 618.236 297.845 618.577 297.825 618.924C300.335 619.534 302.851 620.143 306.305 620.982C286.371 640.535 278.482 666.746 263.469 689.674C242.566 685.933 225.444 673.784 207.719 662.906C226.447 670.888 243.995 681.673 264.38 685.69C243.7 677.014 224.029 666.681 206.526 652.566C222.364 660.167 237.363 669.466 254.224 674.767C254.44 674.472 254.656 674.171 254.872 673.876C241.079 663.778 221.709 658.955 210.458 645.758C225.817 653.621 240.45 662.788 257.415 667.074C242.94 658.319 227.108 651.708 214.933 639.474C230.077 647.101 244.132 656.95 261.097 660.665C246.681 652.239 231.151 645.581 219.193 633.321C233.53 640.83 246.976 650.207 263.227 653.588C249.492 645.476 234.519 639.33 223.36 627.279C237.455 635.162 251.098 643.956 267.152 647.652C253.555 639.67 238.916 633.34 227.796 621.611C241.99 628.976 255.115 638.55 271.307 641.485C257.251 634.487 243.634 626.899 231.964 616.166C245.345 622.987 257.611 632.141 272.945 634.73C260.193 627.685 246.871 621.565 236.78 610.524C249.453 616.611 260.396 626.231 275.074 628.373C269.622 624.691 264.079 621.165 258.535 617.62C253.876 614.645 244.047 610.655 241.839 605.445C253.994 611.841 264.957 620.523 278.986 622.967C268.659 616.867 257.402 612.175 248.896 603.237C260.023 608.61 270.985 613.912 281.948 619.206C282.302 618.603 282.656 617.994 283.01 617.391C272.047 611.54 261.078 605.694 251.943 597.202C263.738 602.89 274.629 610.602 288.127 612.267C277.525 607.221 266.608 602.765 258.961 593.29C267.362 597.255 275.756 601.212 284.156 605.17C284.373 604.738 284.595 604.305 284.812 603.873C278.049 599.967 271.287 596.069 264.524 592.163C264.734 591.809 264.944 591.449 265.147 591.095C266.307 591.855 267.46 592.609 268.62 593.369C268.81 593.179 269 592.989 269.19 592.792C266.72 588.651 264.243 584.509 261.772 580.375C267.893 585.329 272.938 591.527 280.52 594.129C275.448 588.487 270.337 582.793 265.226 577.105C265.665 576.666 266.104 576.22 266.536 575.781C274.295 583.461 281.542 591.809 291.81 596.245C282.033 587.504 273.312 577.891 265.927 567.073C277.401 576.895 286.85 589.077 300.827 595.833C290.08 587.445 281.05 577.531 273.672 566.057C281.208 572.033 287.76 579.097 295.119 585.27C298.029 587.714 301.488 591.187 305.551 591.39C295.486 582.786 287.518 573.946 279.681 563.252C280.015 562.99 280.343 562.735 280.677 562.473C290.087 572.688 299.129 583.343 308.467 588.323C299.562 577.891 290.748 567.387 281.987 556.831C293.166 566.588 304.136 581.305 317.916 587.353C310.774 579.916 302.766 572.918 297.413 564.078L297.511 564.124C304.87 570.198 312.228 576.266 319.581 582.34C319.869 582.026 320.151 581.711 320.439 581.397C313.303 574.864 306.58 567.983 301.567 559.603C309.319 566.457 315.878 574.68 326.035 579.778C317.936 570.382 310.453 561.699 302.969 553.017C303.258 552.775 303.546 552.526 303.841 552.283C313.349 560.952 320.976 571.712 332.417 578.252C324.652 570.624 317.366 562.689 312.156 553.004C320.636 561.627 328.217 571.247 339.619 576.456C332.45 568.835 324.869 561.595 319.816 552.309C327.961 560.022 335.589 568.259 345.51 573.828C338.544 566.214 330.832 559.281 325.53 550.036C333.931 557.289 342.089 564.327 350.241 571.358C350.66 570.919 351.073 570.48 351.492 570.034C344.153 563.691 336.873 557.296 332.293 548.6C340.117 555.16 347.508 561.935 355.634 568.167C355.817 567.885 356.001 567.61 356.184 567.328C350.398 560.9 344.612 554.472 338.832 548.037L339.632 547.336C346.001 552.932 352.364 558.534 358.733 564.13C359.015 563.803 359.297 563.475 359.578 563.148C354.598 557.669 349.612 552.198 344.632 546.72C344.946 546.405 345.261 546.091 345.575 545.776C352.908 551.438 358.288 559.694 367.907 563.39C362.173 556.772 356.866 550.645 351.558 544.518C351.813 544.289 352.069 544.053 352.325 543.824C359.559 549.767 364.545 558.606 375.141 561.411C368.575 555.238 361.983 549.95 358.111 542.277C363.956 549.551 371.793 554.013 379.944 558.154L363.621 540.881C363.91 540.619 364.205 540.357 364.493 540.102C371.38 545.612 378.267 551.13 385.16 556.641C385.468 556.306 385.776 555.966 386.078 555.632C382.408 552.395 378.745 549.157 375.076 545.92C375.469 545.494 375.862 545.062 376.255 544.636C378.011 545.816 379.761 546.989 381.812 548.365C381.766 547.388 381.753 547.061 381.74 546.766C385.37 549.138 388.882 551.431 392.395 553.731C392.65 553.391 392.906 553.05 393.155 552.709C387.336 547.663 381.019 543.044 377.716 535.731C383.778 541.923 390.776 546.49 399.242 550.573C393.115 544.066 387.657 538.26 382.192 532.455C382.611 532.009 383.024 531.57 383.443 531.124C390.285 536.655 395.677 544.348 404.766 546.51C399.268 540.174 393.305 534.427 387.932 527.94C388.266 527.645 388.594 527.357 388.928 527.062C394.708 533.149 400.808 538.778 408.993 541.445C404.189 535.357 398.633 529.978 393.882 523.785C400.795 529.63 407.4 535.423 416.948 536.36C413.475 534.04 410.002 531.714 406.529 529.394C406.804 529.086 407.086 528.778 407.361 528.477C404.628 525.823 401.896 523.169 399.163 520.522C399.426 520.26 399.681 519.998 399.943 519.736C405.369 524.251 412.819 533.031 420.866 531.006C415.264 526.524 408.455 524.434 406.463 516.617C418.435 524.88 431.121 529.467 444.528 521.223C457.371 513.321 464.599 496.421 472.423 484.141C481.335 470.164 494.27 455.44 500.698 440.218C504.197 431.929 503.988 420.724 505.115 411.747C506.281 402.455 507.585 393.176 508.319 383.839C503.915 382.836 500.194 381.984 496.478 381.139C496.603 380.542 496.721 379.946 496.845 379.35C500.305 379.972 503.765 380.588 508.109 381.368C506.707 374.042 505.423 367.313 504.06 360.177C489.493 358.427 480.935 335.204 494.65 326.581C470.005 325.866 469.677 367.345 480.182 381.217C471.597 382.417 469.769 394.1 467.764 400.81C464.573 411.485 463.511 416.799 469.199 426.471C468.944 426.706 468.688 426.936 468.432 427.172C465.608 426.163 462.791 425.154 460.038 424.171C453.289 428.646 447.398 436.326 442.595 442.78C437.91 449.078 435.38 457.845 429.64 462.91C429.254 462.609 428.86 462.301 428.474 462V453.265C416.201 455.099 409.818 463.212 405.611 473.84C405.094 473.545 404.576 473.244 404.058 472.949C405.421 468.067 406.791 463.186 408.2 458.133C391.012 464.902 388.338 478.381 383.64 494.285C383.135 494.206 382.624 494.128 382.12 494.042C378.535 486.893 382.362 479.869 383.791 472.379C367.992 473.631 349.88 477.602 334.763 482.457C318.558 487.653 309.601 497.974 296.987 508.327C298.481 499.992 304.496 494.868 309.443 488.866C299.333 487.85 284.674 494.272 275.566 498.393C264.963 503.19 255.403 510.162 248.162 519.329C239.853 529.847 234.775 543.011 238.281 556.418C241.439 568.488 251.183 578.717 259.636 587.458C258.378 587.255 257.461 587.111 255.953 586.868C256.353 588.454 256.635 589.549 256.91 590.649L256.884 590.643ZM464.96 358.945L464.992 358.984C466.486 353.591 467.987 348.192 469.559 342.51C456.153 338.553 445.183 332.295 444.489 316.837C444.096 308.043 447.326 299.557 445.557 290.718C443.873 282.324 438.67 274.152 434.122 267.003C424.3 251.572 420.643 235.681 430.702 219.063C438.355 206.417 453.459 198.639 457.922 183.934C458.426 184.301 458.938 184.675 459.442 185.042C456.808 198.514 444.168 207.183 436.586 217.812C430.597 226.206 423.513 243.485 432.877 252.201C435.367 245.818 432.602 237.693 434.876 230.852C436.979 224.522 441.075 219.476 445.518 214.64C453.853 205.565 466.303 193.593 468.583 180.887C469.238 181.326 469.894 181.772 470.549 182.211C462.804 200.093 450.792 213.572 440.675 230.026L441.697 230.721C454.947 215.872 469.219 201.817 477.344 182.886C479.638 191.234 467.83 205.486 463.275 211.541C456.873 220.046 449.646 228.067 443.932 237.057C460.7 220.793 477.292 204.49 485.266 181.647C485.876 181.995 486.492 182.348 487.101 182.696C482.246 194.183 477.744 205.106 470.293 215.224C463.354 224.659 455.13 233.04 448.145 242.424C467.377 224.922 485.594 206.718 493.549 180.927C490.587 207.681 468.223 229.259 451.205 248.308C470.981 232.293 488.261 214.286 497.717 190.094C491.662 216.541 472.856 234.587 455.904 253.976C468.813 243.911 479.415 231.966 490.312 219.85C483.084 235.445 469.468 246.107 459.744 259.795C464.37 256.355 468.229 251.912 473.137 248.846C478.078 245.766 483.766 244.213 489.106 241.998C489.729 239.6 490.437 236.88 491.144 234.154C491.59 234.135 492.042 234.122 492.487 234.102C493.28 235.858 494.073 237.614 495.312 240.373C501.629 237.522 513.659 227.549 519.773 233.316C522.296 230.596 524.609 227.582 527.715 225.538C529.143 228.087 530.579 230.629 531.981 233.139C534.582 231.173 536.358 229.83 538.324 228.355C540.467 230.092 542.288 231.573 544.202 233.119C545.466 232.261 546.613 231.481 548.356 230.295C550.145 231.75 551.993 233.25 554.352 235.177C556.455 234.797 559.201 234.292 561.691 233.84C571.094 207.485 570.373 181.68 558.146 156.341C566.972 167.893 571.743 183.679 571.959 198.082C572.077 205.925 570.904 213.749 568.735 221.285C567.307 226.245 560.983 235.268 565.727 239.731C566.868 239.364 567.988 239.003 569.154 238.63C571.002 239.783 572.804 240.91 574.613 242.037C585.51 222.274 582.057 173.083 567.182 157.481C567.182 163.038 572.693 169.669 574.377 175.049C576.435 181.615 577.529 188.456 578.197 195.29C579.593 209.608 578.63 224.791 570.314 236.959C569.947 236.782 569.574 236.599 569.207 236.422C575.465 217.085 577.359 194.438 570.675 174.905C567.405 165.351 557.412 147.082 547.524 142.888C560.492 170.311 573.859 201.627 556.134 230.478C555.734 230.288 555.341 230.092 554.942 229.902C563.827 198.868 565.216 156.793 534.726 135.863C534.392 136.158 534.052 136.447 533.717 136.741C556.023 160.882 566.147 197.669 548.592 227.333C555.092 207.347 557.818 182.565 548.625 162.972C544.267 153.687 533.612 133.052 522.191 130.792C524.38 133.806 526.175 136.283 527.964 138.76C524.059 138.484 520.625 133.151 517.781 130.936C514.328 128.243 510.626 125.929 506.478 124.462C498.922 121.788 486 115.989 478.209 116.821C481.807 121.598 485.653 122.489 489.499 126.355C493.575 130.451 494.021 136.355 499.702 139.297C491.557 143.504 487.776 135.87 487.376 128.976C478.497 128.288 477.22 121.316 471.158 116.867C464.18 111.736 451.526 113.263 443.086 112.627C423.474 111.153 403.77 111.848 384.544 116.225C352.246 123.584 320.727 140.817 302.727 169.42C293.579 183.96 291.161 199.988 284.674 215.532C281.319 223.565 276.313 230.347 271.628 237.621C265.258 247.496 264.334 254.881 265.665 266.374C266.713 275.456 267.211 284.538 265.737 293.614C264.04 304.092 258.529 313.076 256.399 323.363C252.33 343.022 258.168 353.578 275.546 363.191C275.828 362.857 276.103 362.516 276.385 362.182C270.514 356.35 264.642 350.511 258.771 344.679C258.987 344.496 259.197 344.319 259.413 344.135C264.924 348.631 270.442 353.126 275.828 357.516C273.973 348.487 264.741 344.522 260.01 337.157C266.418 340.722 271.411 345.387 276.693 350.38C277.099 350.04 277.505 349.705 277.912 349.365C275.336 346.101 272.761 342.838 270.179 339.568C270.337 339.398 270.487 339.234 270.645 339.064C272.984 341.278 275.33 343.487 278.069 346.075V324.13C272.538 322.872 260.934 321.725 264.911 312.807C266.163 312.912 267.519 313.03 268.364 313.095C275.789 300.363 278.836 291.34 274.943 276.57C274.471 285.181 276.031 293.784 272.257 301.418C271.562 290.423 270.985 279.421 270.029 268.445C269.308 260.149 267.598 251.126 275.277 245.72C290.034 235.34 302.301 246.107 307.602 259.828C314.974 258.707 323.814 256.034 329.128 263.124C333.767 269.316 330.209 277.592 328.689 284.296C326.644 277.828 330.471 270.09 324.049 265.09C317.759 260.195 313.441 264.277 310.708 270.031C307.596 276.583 304.712 281.242 298.894 285.96C292.492 291.15 289.032 293.424 287.341 301.687C283.835 318.829 284.425 335.584 284.55 352.916C284.609 361.363 283.822 369.881 281.195 377.948C278.731 385.496 273.41 392.147 272.624 400.135C275.356 399.749 277.571 399.427 279.963 399.087C281.529 395.24 281.797 390.345 286.863 387.954C285.598 392.102 284.333 396.249 283.062 400.417C286.063 401.02 288.573 401.531 291.253 402.068C292.872 397.835 292.865 392.672 297.819 388.556C296.594 394.021 295.63 398.3 294.66 402.632H304.3C305.512 399.729 304.044 395.424 307.753 393.34C308.29 393.451 308.821 393.569 309.358 393.681C308.683 397.521 308.015 401.361 307.36 405.082C310.236 405.286 313.087 405.489 315.931 405.692C318.676 401.105 316.73 394.854 320.518 390.575C321.009 390.653 321.507 390.739 321.998 390.817C321.435 396.688 320.865 402.56 320.196 409.525C324.475 405.397 327.771 407.776 331.362 409.604C332.463 404.906 333.485 400.548 334.508 396.19C334.973 396.276 335.438 396.361 335.903 396.446V410.836C339.573 411.498 342.803 412.081 346.362 412.716C347.213 409.23 348.229 405.096 349.238 400.961L351.158 401.236C350.857 406.039 350.555 410.842 350.28 415.174C353.923 415.704 357.16 416.176 360.679 416.687C361.315 413.241 362.003 409.499 362.691 405.757C366.19 410.115 363.333 414.866 363.857 418.417C368.202 419.145 371.917 419.774 375.515 420.377C378.306 410.587 381.222 400.378 384.138 390.162C383.797 389.992 383.457 389.815 383.116 389.644C379.984 395.935 376.845 402.219 373.713 408.51L372.605 407.992C375.03 400.869 377.454 393.746 379.879 386.623C379.381 386.381 378.883 386.145 378.385 385.903C375.397 390.745 372.409 395.594 369.421 400.437C368.982 400.207 368.536 399.978 368.097 399.749C371.085 393.641 374.073 387.528 377.14 381.244C372.12 380.516 367.756 389.454 365.312 392.829C364.939 392.593 364.565 392.357 364.198 392.121C368.012 384.756 370.2 376.277 380.036 378.334C390.651 380.549 399.412 387.488 410.611 388.327C431.174 389.86 449.312 373.158 466.873 364.6C466.152 362.496 465.549 360.714 464.94 358.932L464.96 358.945ZM468.079 280.364C468.367 280.725 468.662 281.079 468.95 281.439C478.681 274.388 488.418 267.337 498.149 260.28C491.026 272.239 478.15 278.149 469.016 287.926C469.343 288.319 469.664 288.719 469.992 289.112C480.784 281.301 491.577 273.497 502.362 265.686C494.473 278.556 480.614 285.023 470.058 295.029C470.398 295.475 470.746 295.92 471.086 296.373C482.783 288.064 494.486 279.755 505.881 271.662C497.323 284.447 483.563 292.284 471.63 302.113C485.358 296.477 496.629 287.284 508.004 278.189C499.165 291.628 485.194 299.367 473.432 309.596C486.78 302.309 499.774 294.603 511.124 284.296C502.035 297.303 488.241 306.261 475.817 315.788C476.086 316.129 476.361 316.463 476.63 316.804C490.81 308.056 505.088 299.433 516.68 287.015C513.954 294.315 506.576 298.679 500.783 303.554C494.276 309.026 487.802 314.563 481.151 319.864C496.413 313.587 508.935 303.495 521.123 292.834C514.721 303.974 503.693 310.454 495.154 319.478C506.248 315.094 514.734 306.903 523.803 299.597L524.897 300.842C517.683 307.866 510.468 314.897 503.254 321.922C503.522 322.249 503.791 322.584 504.06 322.911C513.679 318.016 520.953 309.74 529.569 303.397C529.956 303.843 530.343 304.295 530.729 304.74C523.004 312.086 515.284 319.438 507.559 326.784C511.739 328.507 520.999 319.405 523.849 317.04C529.714 312.171 534.536 306.778 538.855 300.507C548.094 287.107 555.839 272.593 565.636 259.605C565.983 259.841 566.33 260.084 566.678 260.319C555.237 290.036 533.016 312.505 509.957 333.422C513.81 335.473 526.077 324.281 529.301 321.561C535.165 316.601 540.467 310.808 545.394 304.937C555.715 292.624 562.294 278.536 571.265 265.431C571.704 265.771 572.136 266.106 572.575 266.446C560.138 296.608 538.632 319.609 513.469 340.007C522.021 339.398 531.457 329.267 537.465 323.776C544.634 317.23 551.2 310.035 557.156 302.368C564.07 293.463 570.164 283.601 575.478 273.661C580.039 265.129 575.733 258.065 570.406 250.687C570.19 250.811 569.967 250.936 569.751 251.06C569.423 248.819 569.096 246.578 568.696 243.846C566.291 244.763 564.62 245.399 562.333 246.27C561.317 244.01 560.335 241.841 559.365 239.685C558.369 239.685 548.382 236.31 546.797 235.295C543.304 239.279 540.172 237.529 537.642 233.86C534.825 235.386 532.289 236.762 529.687 238.171C527.99 235.838 526.87 234.299 525.743 232.746C520.972 236.581 517.06 237.365 514.007 235.098C497.677 249.023 470.962 249.186 460.176 270.581C467.705 263.131 477.161 259.337 485.699 254.062C486.059 254.54 486.413 255.018 486.774 255.503C480.385 261.165 473.996 266.82 467.607 272.481L468.852 273.923C477.22 267.731 485.588 261.538 493.955 255.346C494.172 255.615 494.394 255.877 494.611 256.145C487.101 265.581 476.604 271.957 468.105 280.384L468.079 280.364ZM479.231 536.72C479.507 537.421 479.788 538.123 480.064 538.824C489.631 536.203 500.41 534.63 508.719 528.923C516.058 523.884 521.293 516.256 528.043 510.49C544.497 496.428 563.192 484.521 580.687 471.796C588.747 465.938 599.592 460.283 605.077 451.705C610.771 442.793 614.211 431.516 618.359 421.805C627.022 401.511 634.472 382.017 638.607 360.288C626.419 351.73 630.062 323.049 645.907 320.29C632.998 312.984 619.617 326.404 613.294 336.561C605.103 349.718 602.141 363.558 605.948 378.367C591.801 379.003 585.261 396 580.831 407.913C574.79 424.151 572.188 441.358 568.119 458.133C572.949 455.971 576.867 448.986 581.834 447.675C587.096 446.286 592.548 450.919 597.384 453.488C597.652 454.018 597.928 454.549 598.196 455.08C586.041 460.656 574.908 471.173 564.063 479.037C553.684 486.559 543.317 494.101 532.964 501.657C523.633 508.465 516.281 517.462 506.943 524.041C498.437 530.03 488.313 531.93 479.238 536.72H479.231ZM456.081 413.083C455.74 412.671 455.406 412.258 455.065 411.845C446.448 418.194 437.831 424.551 429.214 430.9C436.278 419.426 448.125 413.077 457.516 404.165C457.188 403.765 456.854 403.359 456.526 402.959C447.942 409.335 439.358 415.711 430.774 422.087C430.459 421.831 430.145 421.569 429.824 421.314C437.307 411.353 448.394 405.069 457.502 396.656C457.28 396.367 457.057 396.086 456.834 395.797C448.676 401.334 440.511 406.878 432.353 412.415C435.865 403.064 445.386 399.893 451.631 393.419C451.356 393.045 451.087 392.665 450.812 392.292C445.596 395.83 440.38 399.375 434.62 403.28C434.561 395.555 442.097 393.504 443.892 387.718C431.927 394.107 430.689 399.991 426.993 412.52C423.566 424.144 419.739 435.736 417.177 447.59C423.776 445.834 429.87 444.772 435.42 440.585C441.219 436.208 446.317 429.629 451.035 424.105C450.734 423.745 450.432 423.384 450.131 423.024C442.634 428.731 435.531 434.386 427.235 438.901L426.882 438.2C436.612 429.826 446.35 421.451 456.081 413.077V413.083ZM578.479 271.027C568.001 301.772 543.887 321.135 522.84 343.153C537.341 334.968 548.795 323.16 559.869 310.861C567.326 302.585 586.251 283.051 578.479 271.027ZM521.483 390.594C521.149 390.267 520.815 389.933 520.481 389.605C526.568 380.982 535.46 372.607 538.966 362.627L537.793 362.129C532.623 368.61 504.309 397.842 521.929 405.03C526.568 398.549 530.945 392.429 535.323 386.309C535.133 386.139 534.943 385.968 534.746 385.798C530.487 389.906 526.221 394.015 521.962 398.123L520.789 396.996C526.496 388.38 535.382 382.181 539.857 372.771C539.464 372.581 539.077 372.384 538.684 372.194C532.951 378.328 527.217 384.461 521.477 390.601L521.483 390.594ZM541.148 349.391H509.256V358.905C519.55 357.942 529.419 357.012 540.008 356.022C540.263 354.522 540.676 352.136 541.148 349.391ZM532.073 343.08C532.361 343.395 532.643 343.71 532.931 344.018C540.421 341.102 543.068 336.312 547.943 330.466C552.471 325.034 558.048 321.168 563.316 316.503C571.979 308.836 588.079 295.069 580.989 282.166C572.745 307.801 550.787 324.943 532.073 343.08ZM578.531 166.799C589.003 190.684 588.714 224.535 575.851 247.319C576.939 248.885 578.204 250.707 580.058 253.374C589.527 223.46 590.896 194.969 578.538 166.799H578.531ZM578.833 353.506C579.835 344.732 580.792 336.351 581.723 328.199C572.968 325.362 572.935 330.938 572.162 338.186C571.415 345.177 570.282 351.861 578.833 353.506ZM377.513 450.152C377.802 456.056 385.973 462.445 390.409 460.401C395.389 458.114 399.675 454.32 404.262 451.174C404.065 450.834 403.868 450.493 403.672 450.146H377.513V450.152ZM386.084 414.04C385.521 413.883 384.964 413.726 384.4 413.568C385.75 407.127 387.1 400.679 388.443 394.238C382.5 402.265 379.558 411.321 378.516 421.025C381.91 421.53 385.075 422.002 388.797 422.559C390.429 413.785 392.08 404.932 393.725 396.072C393.404 395.941 393.083 395.81 392.761 395.673C390.534 401.793 388.312 407.92 386.084 414.04ZM638.548 352.615C639.085 352.543 639.629 352.471 640.166 352.405C644.57 344.457 648.167 336.22 649.478 326.849C642.237 326.319 641.569 327.996 639.452 334.562C637.303 341.239 636.313 346.062 638.548 352.621V352.615ZM301.135 428.646C301.259 424.374 303.664 413.804 301.521 410.095C298.795 405.384 296.181 408.49 294.549 411.458C290.729 418.417 289.988 432.073 301.135 428.646ZM586.683 182.257C587.515 184.825 588.492 187.355 589.16 189.969C594.841 212.249 591.893 233.656 582.391 254.324C580.956 257.449 581.251 259.835 583.61 262.272C594.153 242.752 598.209 198.055 586.683 182.257ZM329.6 423.378C329.6 423.378 329.534 423.378 329.501 423.378C329.501 419.905 329.822 412.238 323.958 413.771C320.151 414.767 319.764 421.746 319.731 425.121C319.698 428.489 320.19 434.681 325.229 434.026C330.032 433.403 329.397 426.759 329.6 423.384V423.378ZM339.953 415.796C336.958 420.069 328.427 434.983 338.465 436.876C344.704 438.049 344.894 431.359 344.73 427.165C344.52 421.857 343.007 419.787 339.953 415.796ZM502.113 331.908C489.578 327.852 491.046 354.056 502.113 352.661V331.908ZM608.844 243.145C608.504 243.092 608.163 243.046 607.829 242.994C602.148 269.388 591.152 293.26 573.931 314.373C583.859 313.895 593 290.639 596.578 282.743C602.331 270.031 606.328 256.846 608.851 243.151L608.844 243.145ZM309.647 409.538C308.113 412.815 301.79 433.96 311.298 431.221C319.168 428.954 314.987 412.435 309.647 409.538ZM373.68 434.55C372.54 426.202 365.011 421.124 363.962 432.656C363.123 441.87 373.582 445.382 373.68 434.55ZM354.087 421.589C350.483 424.072 346.362 439.563 354.677 438.587C362.291 437.695 360.116 423.463 354.087 421.589ZM401.431 422.447C401.896 415.469 402.355 408.595 402.813 401.721C402.427 401.655 402.04 401.583 401.654 401.518C400.5 406.622 399.347 411.72 398.2 416.825C397.689 416.759 397.178 416.694 396.667 416.628C397.053 410.842 397.434 405.05 397.82 399.264C397.447 399.198 397.067 399.133 396.693 399.074C394.976 406.694 393.266 414.315 391.438 422.447H401.437H401.431ZM581.192 318.416C590.687 315.867 614.29 263.452 612.272 251.205C606.807 275.496 595.935 297.356 581.192 318.416ZM287.243 426.621C287.656 422.205 292.511 404.453 282.859 408.09C282.197 412.946 276.686 430.107 287.243 426.621ZM614.27 268.904C608.602 288.988 598.602 306.981 587.758 324.582C601.374 308.279 610.168 289.682 614.27 268.904ZM392.532 429.97C392.322 433.148 392.408 449.982 400.186 440.664C404.642 435.33 398.606 427.807 392.532 429.97ZM585.654 271.675L586.788 271.806C595.182 256.231 602.193 221.442 598.714 211.934C597.43 222.582 597.259 232.922 594.494 243.4C591.938 253.098 587.404 261.84 585.654 271.675ZM379.643 428.135C379.368 431.418 377.041 447.813 385.567 441.227C390.35 437.532 386.772 425.927 379.643 428.135ZM615.672 287.212C606.82 304.754 597.443 321.358 587.109 338.061C596.316 331.286 615.423 295.947 615.672 287.212ZM603.661 228.427C602.403 247.594 593.544 264.651 588.551 282.874C589.022 282.992 589.494 283.116 589.966 283.234C596.859 265.562 603.491 247.823 603.661 228.427ZM591.014 453.822C590.654 453.396 590.3 452.97 589.94 452.551C574.855 464.935 559.771 477.32 544.687 489.698L545.44 490.628C560.629 478.362 575.819 466.088 591.008 453.822H591.014ZM275.998 424.682C276.595 418.516 277.158 412.697 277.728 406.747C271.234 407.54 267.794 424.603 275.998 424.682ZM586.211 449.87L584.829 448.331C578.112 454.628 571.396 460.925 564.679 467.229C564.961 467.55 565.243 467.864 565.524 468.185L586.211 449.877V449.87Z" fill="black"/>
<path d="M221.217 536.235C210.242 555.029 202.038 574.182 189.823 591.075C189.102 586.259 216.513 537.546 221.217 536.235Z" fill="black"/>
<path d="M219.252 559.006C210.975 573.776 204.698 589.699 193.827 602.968C193.434 602.791 193.047 602.614 192.654 602.438C195.367 594.227 200.714 586.364 204.803 578.776C208.715 571.522 212.044 563.665 217.856 557.8C218.321 558.207 218.786 558.606 219.252 559.013V559.006Z" fill="black"/>
<path d="M185.492 572.138C195.793 557.8 201.684 540.816 213.328 527.278C205.321 543.004 198.479 559.419 187.183 573.199C186.619 572.846 186.055 572.492 185.492 572.138Z" fill="black"/>
<path d="M205.629 522.698C199.463 537.251 192.464 550.796 182.53 562.65C183.054 557.519 202.641 523.491 205.629 522.698Z" fill="black"/>
<path d="M233.733 409.25C240.43 406.419 247.088 403.438 254.551 403.877C254.669 404.244 254.781 404.604 254.899 404.971C248.143 407.618 241.393 410.266 234.081 413.129C233.871 411.183 233.773 410.266 233.674 409.342L233.733 409.257V409.25Z" fill="black"/>
<path d="M561.56 435.258L552.956 429.472C553.061 429.131 553.173 428.797 553.277 428.456C556.324 429.255 559.371 430.055 563.231 431.064C562.366 434.419 561.626 437.309 560.675 440.978C556.921 439.294 553.854 437.925 550.781 436.549C550.918 436.09 551.063 435.638 551.2 435.179C554.411 435.703 557.628 436.234 560.839 436.758C561.075 436.26 561.311 435.756 561.547 435.258H561.56Z" fill="black"/>
<path d="M508.208 469.43C500.508 475.688 492.815 481.94 485.116 488.197C484.782 487.778 484.441 487.359 484.107 486.946C491.859 480.76 499.617 474.581 507.369 468.395C507.651 468.742 507.926 469.083 508.208 469.43Z" fill="black"/>
<path d="M591.015 453.822C575.825 466.088 560.636 478.362 545.447 490.628L544.693 489.698C559.778 477.313 574.862 464.928 589.947 452.55C590.307 452.976 590.661 453.402 591.021 453.822H591.015Z" fill="white"/>
<path d="M586.211 449.871L565.524 468.179C565.243 467.858 564.961 467.543 564.679 467.222C571.396 460.925 578.112 454.628 584.829 448.324L586.211 449.864V449.871Z" fill="white"/>
<path d="M467.03 462.996C469.828 464.175 472.626 465.355 476.46 466.973C476.787 466.593 477.364 465.925 478.419 464.706C475.372 462.55 473.033 460.892 470.693 459.241L471.309 458.016C474.468 459.248 477.62 460.479 481.276 461.915C472.895 476.416 463.289 490.124 454.082 504.108C448.447 512.665 435.833 528.313 423.546 521.662C432.936 519.461 440.407 514.559 447.071 507.613C443.866 505.582 440.623 503.524 437.373 501.46C437.484 501.198 437.595 500.943 437.707 500.68C442.025 502.122 446.343 503.557 450.662 504.999C450.943 504.389 451.225 503.773 451.513 503.164C448.29 500.864 445.072 498.571 441.848 496.27C441.979 495.976 442.117 495.681 442.248 495.386C446.37 496.926 450.491 498.472 454.613 500.012C454.96 499.599 455.314 499.193 455.661 498.78C453.007 496.061 449.096 493.748 446.94 490.681C450.845 491.841 454.751 492.994 459.298 494.344C458.558 488.433 452.018 489.154 450.072 484.069C454.331 485.839 457.739 487.254 461.69 488.892C462.194 482.752 455.812 483.545 454.128 478.748C458.341 480.492 461.696 481.881 465.032 483.257C467.247 479.633 460.694 476.855 458.191 475.027C458.427 474.66 458.662 474.293 458.898 473.926C462.542 475.387 466.192 476.855 469.835 478.316C470.169 477.792 470.503 477.261 470.844 476.737C468.026 474.319 465.202 471.901 461.703 468.893C466.716 468.428 469.402 473.152 474.854 471.593C471.427 468.651 468.898 466.469 466.362 464.293C466.591 463.867 466.827 463.441 467.057 463.015L467.03 462.996Z" fill="black"/>
<path d="M341.165 267.927C338.584 281.079 339.042 294.407 336.526 307.427C336.074 307.48 335.622 307.539 335.17 307.591C328.938 294.794 333.826 274.021 340.595 262.168C348.19 248.859 359.133 243.794 374.191 245.222C399.622 247.64 427.989 265.726 428.127 293.942C428.245 318.954 406.955 340.355 381.661 337.753C368.471 336.397 355.188 329.385 347.581 318.357C337.319 303.483 340.143 284.84 342.699 268.196C342.194 268.104 341.683 268.013 341.179 267.921L341.165 267.927ZM381.072 330.788C355.614 320.12 348.649 300.121 352.417 274.454C348.013 285.843 348.544 297.198 351.486 308.79C344.684 296.497 345.772 284.919 347.83 271.486C333.06 296.74 353.34 328.756 381.072 330.788ZM384.964 325.677C364.041 317.728 356.021 298.778 358.216 277.344C349.035 299.223 365.633 325.002 384.964 325.677ZM362.947 283.484C360.955 293.568 362.816 302.585 369.604 310.442C374.906 316.581 383.162 320.729 388.404 319.117C370.64 313.469 362.927 301.196 362.947 283.477V283.484Z" fill="black"/>
<path d="M307.91 348.952C296.567 356.5 298.723 364.613 299.844 377.096L298.69 377.757C288.114 362.169 287.23 341.966 288.992 323.691C289.49 318.527 288.704 299.636 293.533 296.694C300.715 292.316 307.438 304.753 310.335 309.353C318.997 323.101 331.402 343.762 326.612 360.707C324.738 367.345 319.469 372.332 312.025 369.219C302.524 365.248 304.522 356.468 308.755 349.666C308.474 349.423 308.192 349.188 307.91 348.945V348.952Z" fill="black"/>
<path d="M464.96 358.945C448.525 370.871 426.692 385.87 405.343 383.085C395.972 381.866 388.227 375.91 379.066 374.422C368.87 372.771 366.656 379.56 360.562 385.791C363.477 359.05 387.978 376.185 402.237 380.667C421.797 386.814 448.067 366.467 464.992 358.984L464.96 358.945Z" fill="black"/>
<path d="M354.598 334.614C365.233 340.774 374.348 346.186 386.884 347.687C399.517 349.194 408.062 344.011 418.409 337.609C418.789 337.963 419.169 338.317 419.549 338.67C406.869 354.646 362.154 358.414 354.592 334.614H354.598Z" fill="black"/>
<path d="M497.042 143.583C500.095 146.249 502.736 148.556 505.298 150.791C504.813 152.769 504.486 154.126 504.112 155.64C510.364 163.713 509.826 173.116 509.984 182.925C504.171 180.868 502.251 173.869 503.955 167.035C502.336 162.048 501.118 158.307 499.905 154.565C500.305 154.427 500.705 154.296 501.098 154.159C499.407 151.131 494.014 149.762 497.035 143.596L497.042 143.583Z" fill="black"/>
<path d="M532.564 145.201C553.14 167.303 554.961 205.525 541.089 224.535C550.492 196.725 550.735 169.937 532.564 145.201Z" fill="black"/>
<path d="M300.086 210.119C307.72 208.644 315.433 210.178 323.218 210.191C330.589 210.204 338.367 208.546 345.562 210.034C338.066 215.754 307.891 215.964 300.08 210.119H300.086Z" fill="black"/>
<path d="M364.952 238.335C350.143 239.357 343.406 250.582 335.668 260.614C337.764 251.978 343.524 246.297 350.824 241.788C341.932 242.889 336.716 248.931 331.841 256.263C333.027 243.492 354.127 232.077 364.952 238.335Z" fill="black"/>
<path d="M535.9 160.023C544.89 174.813 544.838 208.501 535.441 216.528C541.981 197.689 540.683 178.876 535.9 160.023Z" fill="black"/>
<path d="M513.987 190.114C510.855 194.838 506.779 197.381 505.593 203.304C504.715 207.675 507.061 213.048 500.253 212.649C499.807 206.476 501.989 182.683 513.987 190.107V190.114Z" fill="black"/>
<path d="M402.119 227.195C392.368 224.273 382.618 221.35 372.546 218.336C376.74 213.644 399.721 220.007 402.119 227.195Z" fill="black"/>
<path d="M529.897 208.717C529.733 208.297 529.386 207.871 529.478 207.563C533.213 194.53 532.23 181.267 530.775 167.349C537.354 173.62 536.293 204.044 529.904 208.71L529.897 208.717Z" fill="black"/>
<path d="M289.89 233.872C300.637 230.675 310.19 241.565 311.324 251.244C306.482 248.976 304.909 244.068 300.761 240.648C297.701 238.125 291.581 237.181 289.884 233.872H289.89Z" fill="black"/>
<path d="M452.935 344.961C452.391 352.85 421.652 368.269 411.633 367.981C427.045 363.25 440.066 354.77 452.935 344.961Z" fill="black"/>
<path d="M410.559 374.992C418.52 372.476 427.177 370.87 434.719 367.345C441.376 364.232 447.3 360.353 454.357 357.85C440.38 365.097 427.727 375.693 410.939 376.027C410.808 375.687 410.683 375.339 410.552 374.999L410.559 374.992Z" fill="black"/>
<path d="M329.593 331.541C335.281 336.429 338.02 357.634 333.715 362.68C332.352 352.405 330.963 341.862 329.593 331.541Z" fill="black"/>
<path d="M422.111 355.872C430.676 350.878 439.26 345.872 447.765 340.912C448.04 346.259 428.297 357.765 422.111 355.872Z" fill="black"/>
<path d="M490.987 231.678C493.202 226.37 495.259 221.449 497.304 216.547C505.842 218.598 498.438 233.735 490.987 231.678Z" fill="black"/>
<path d="M344.094 339.975C349.31 345.793 354.434 351.514 359.755 357.451C354.552 358.447 344.507 346.508 344.094 339.975Z" fill="black"/>
<path d="M364.047 353.165C356.938 350.531 352.285 345.289 349.474 338.081C354.598 342.799 359.716 347.517 364.84 352.234C364.578 352.542 364.31 352.857 364.047 353.165Z" fill="black"/>
<path d="M323.971 307.676C320.465 301.949 316.96 296.222 313.46 290.495C313.972 290.187 314.483 289.879 314.994 289.571C318.434 295.318 321.874 301.064 325.308 306.811C324.862 307.099 324.417 307.388 323.971 307.676Z" fill="black"/>
<path d="M558.684 257.705C554.66 267.79 548.94 276.826 541.856 285.004C541.522 284.801 541.188 284.591 540.854 284.388L557.465 256.879C557.871 257.155 558.277 257.43 558.677 257.705H558.684Z" fill="black"/>
<path d="M607.927 432.427C604.33 429.432 600.922 426.877 596.886 424.518C597.036 424.125 597.194 423.731 597.344 423.338C601.381 424.479 605.417 425.619 609.46 426.759C609.696 426.438 609.926 426.11 610.162 425.789C607.134 423.482 604.1 421.169 601.066 418.863C601.152 418.555 601.243 418.253 601.329 417.945C605.273 419.118 609.225 420.291 613.169 421.464C613.431 421.045 613.687 420.632 613.949 420.213C610.686 417.801 607.429 415.383 604.166 412.972C604.33 412.611 604.493 412.251 604.657 411.897C608.189 413.005 611.721 414.106 615.843 415.396C615.509 409.846 609.611 410.364 607.731 405.646C611.505 406.839 614.434 407.762 617.691 408.791C618.103 407.782 618.477 406.858 618.942 405.718C616.203 404.211 613.746 402.861 611.282 401.505C611.439 401.111 611.59 400.718 611.747 400.325C614.873 401.151 617.999 401.976 621.314 402.848C621.832 401.682 622.284 400.672 622.73 399.657C623.051 399.801 623.372 399.945 623.7 400.096C618.621 411.072 613.536 422.041 608.458 433.017C608.281 432.814 608.097 432.617 607.921 432.414L607.927 432.427Z" fill="black"/>
<path d="M602.986 449.28C597.318 451.974 593.092 447.033 588.105 443.822C588.426 443.219 588.747 442.61 589.068 442.007C593.668 443.907 598.262 445.807 602.862 447.714C602.901 448.239 602.947 448.763 602.986 449.28Z" fill="black"/>
<path d="M607.927 432.427C608.104 432.63 608.288 432.827 608.465 433.03C607.586 435.199 606.702 437.375 605.824 439.543L605.863 439.583C602.246 435.422 597.521 432.886 593.911 428.856C598.583 430.049 603.262 431.235 607.934 432.427H607.927Z" fill="black"/>
<path d="M605.824 439.537C605.3 440.939 604.782 442.348 604.245 443.783C599.468 441.201 594.913 438.521 590.353 435.559C590.543 435.179 590.726 434.806 590.916 434.426C595.896 436.143 600.876 437.859 605.857 439.576L605.817 439.537H605.824Z" fill="black"/>
</svg>
