<svg width="800" height="800" viewBox="0 0 800 800" fill="none" xmlns="http://www.w3.org/2000/svg">
<path d="M198.098 678.837C209.548 678.028 224.638 679.124 225.275 663.988C225.557 657.281 225.97 653.739 228.634 647.451C231.27 641.221 231.385 634.571 233.71 628.272C235.801 622.628 239.2 617.058 241.945 611.706C244.707 606.326 247.348 597.603 251.706 593.389C255.519 589.702 259.452 590.363 261.807 584.511C262.926 581.732 262.168 579.763 262.685 577.075C263.426 573.234 265.987 570.225 268.094 566.969C275.461 555.588 282.846 544.219 290.236 532.855C294.301 526.602 298.344 520.337 302.432 514.101C304.276 511.288 306.262 506.912 308.754 504.656C310.598 502.985 313.383 502.542 314.99 500.619C316.569 498.73 316.391 496.123 317.597 494.113C318.734 492.218 320.468 490.978 321.6 489.267C324.138 485.425 323.299 483.542 324.505 479.499C326.297 473.481 331.752 467.521 335.18 462.284C339.859 455.13 344.545 447.981 349.236 440.837C352.768 435.463 356.035 428.228 360.64 423.726C364.763 419.695 367.651 418.391 370.735 412.747C373.061 408.481 374.088 404.019 375.886 399.586C378.797 392.414 384.482 385.736 388.737 379.288C405.084 354.487 421.375 329.578 436.936 304.272C440.812 297.967 443.459 297.933 448.805 293.845C453.847 289.992 455.34 284.094 456.718 278.806C457.355 276.36 456.27 275.062 458.228 272.903C459.864 271.1 462.437 272.007 464.188 270.692C467.105 268.499 467.45 263.733 471.28 263.474C474.736 263.245 481.219 271.083 483.206 273.454C486.68 277.606 489.327 282.378 491.222 287.442C495.822 299.73 496.654 313.799 494.891 326.718C490.809 356.669 471.94 381.877 450.631 402.164C445.136 407.395 439.371 412.023 433.02 416.181C430.344 417.932 427.599 419.557 424.901 421.274C423.327 422.187 421.8 423.175 420.324 424.243C419.692 425.339 419.974 426.298 421.174 427.114C420.261 430.249 421.794 429.468 419.176 433.103C416.833 436.359 414.111 439.477 411.389 442.422C406.836 447.355 399.957 451.644 397.04 457.742C402.587 460.137 411.165 457.277 417.137 456.623C425.974 455.652 434.806 454.619 443.597 453.275C460.576 450.674 477.418 447.091 493.829 441.992C524.452 432.483 554.455 417.53 579.312 397.128C630.153 355.389 665.249 291.243 670.262 225.439C670.928 216.688 670.876 207.879 670.848 199.105C670.83 194.626 670.773 190.147 670.675 185.669C670.612 182.78 671.697 176.016 670.199 173.225C667.867 168.884 663.79 173.403 660.184 175.562C652.938 179.892 645.519 183.952 637.819 187.42C605.858 201.804 570.154 205.955 535.861 198.657C531.48 197.727 517.418 195.981 514.564 192.019C512.06 188.545 514.334 182.068 516.275 178.525C519.525 172.594 521.271 168.947 517.291 162.218C513.341 155.54 505.87 150.119 499.342 146.209C493.215 142.545 485.968 139.14 478.802 138.405C476.149 138.135 471.624 137.756 469.201 139.152C464.797 141.69 466.112 148.069 462.615 150.682C460.645 152.152 458.205 151.193 455.891 152.381C453.485 153.616 453.06 156.717 451.016 158.095C446.543 161.109 439.342 157.274 434.576 155.672C416.747 149.683 398.963 142.069 382.127 133.685C378.073 131.664 374.065 129.545 370.138 127.288C367.313 125.663 363.374 121.787 360.301 121.121C353.979 119.749 349.954 130.378 346.463 135.385C335.593 150.998 323.609 166.082 314.634 182.918C310.104 191.422 306.337 200.328 303.334 209.481C300.859 217.026 296.254 227.333 297.546 235.217C302.639 233.15 306.475 228.666 310.822 225.301C316.139 221.189 321.714 217.394 327.548 214.058C338.568 207.753 350.58 203.136 363.368 202.418C374.496 201.792 386.009 203.86 395.535 209.866C399.256 212.214 406.394 217.451 407.479 222.091C408.042 224.485 407.921 223.142 407.146 225.921C405.871 227.242 404.872 228.74 404.148 230.423C403.563 232.111 403.425 233.834 403.724 235.596C402.133 244.135 391.814 244.841 388.897 253.96C387.393 258.657 389.385 262.975 387.818 267.408C385.343 274.407 378.487 281.746 374.416 287.993C358.78 311.995 341.772 335.297 326.756 359.684C321.594 368.067 313.825 372.506 308.565 381.309C305.803 385.937 305.86 390.238 302.846 394.883C298.717 401.245 294.405 407.493 290.179 413.786C283.753 423.358 277.776 436.921 269.116 444.547C264.649 448.48 261.663 451.374 258.195 456.468C255.094 461.027 254.859 464.943 252.585 469.588C246.624 481.779 236.857 493.234 229.318 504.541C225.941 509.605 222.565 514.664 219.189 519.729C215.485 525.281 211.098 535.675 205.74 539.608C202.806 541.767 199.057 541.474 196.254 544.184C191.827 548.474 194.055 553.366 191.804 558.247C189.037 564.253 181.365 570.432 177.013 575.462C172.815 580.32 168.124 587.675 162.726 591.149C160.814 592.378 158.196 592.499 156.393 593.808C153.958 595.576 152.896 597.936 150.943 600.17C146.355 605.436 142.198 603.948 136.433 606.176C123.49 611.178 130.668 627.813 134.102 637.138C138.649 649.495 146.447 658.7 157.26 666.084C170.49 675.122 182.336 677.873 198.103 678.832L198.098 678.837ZM528.948 278.117C529.924 276.819 531.463 275.872 532.732 274.884C531.664 276.205 530.757 277.629 529.31 278.53C527.042 281.074 524.182 285.834 520.938 286.994C522.167 283.658 526.473 280.638 528.954 278.117H528.948ZM382.374 172.289C381.157 174.236 379.808 177.595 377.58 178.554C377.804 176.102 380.405 173.696 381.829 171.83C385.05 166.651 388.105 159.461 392.681 155.379C391.849 161.064 385.59 167.506 382.374 172.284V172.289ZM415.179 307.953C415.799 307.172 416.425 306.397 417.045 305.616C416.58 306.535 416.121 307.453 415.656 308.372C407.915 322.733 397.884 336.29 388.748 349.802C380.703 361.705 373.187 377.657 362.495 387.223C368.34 373.815 379.084 361.389 387.249 349.239C396.517 335.446 405.837 321.694 415.173 307.953H415.179ZM540.851 273.937C538.302 276.951 534.948 282.596 531.325 284.129C532.353 280.173 537.63 276.371 540.381 273.477C546.875 264.209 553.025 254.689 558.474 244.767C562.769 236.946 565.456 225.128 571.773 219.007C572.479 227.982 564.463 239.357 560.139 247.017C554.667 256.71 548.402 265.771 540.846 273.942L540.851 273.937ZM349.323 397.232C341.387 393.574 333.446 389.939 325.527 386.253C322.937 385.047 312.182 380.786 320.56 378.558C329.409 376.204 345.309 390.502 349.46 397.008C350.758 396.652 352.372 397.8 351.981 399.069C350.976 398.616 350.086 398.007 349.323 397.232ZM254.038 584.908C253.199 591.672 246.848 584.988 244.121 583.076C239.177 579.613 234.038 576.444 228.944 573.205C223.306 569.622 217.638 566.085 212.051 562.427C209.53 560.779 200.079 556.071 199.436 552.981C198.396 548.003 202.358 551.609 204.839 553.297C210.087 556.874 215.341 560.446 220.59 564.018C231.505 571.437 242.077 579.412 254.072 584.931C249.507 574.348 240.044 570.196 230.391 564.592C220.814 559.028 210.38 554.233 201.112 548.301C207.762 542.806 226.338 557.552 232.596 561.457C237.776 564.69 242.749 568.072 247.515 571.884C252.476 575.846 258.603 578.488 254.043 584.902L254.038 584.908ZM512.439 173.22L512.457 173.202C508.896 178.709 505.451 172.002 502.006 168.936C497.561 164.98 496.648 163.251 491.555 165.738C491.946 164.428 492.216 163.102 492.359 161.747C489.511 162.281 486.152 165.715 487.317 160.036C483.729 162.746 482.666 161.816 482.695 157.779C480.163 160.041 477.246 159.329 478.44 155.7C472.91 158.755 475.621 154.426 472.928 153.633C469.913 152.743 469.523 156.9 469.086 151.514C468.966 150.01 471.527 145.129 472.836 144.279C477.234 141.408 485.595 145.439 489.884 147.42C493.226 148.965 522.626 169.901 512.445 173.225L512.439 173.22ZM188.554 609.541C183.329 608.847 176.077 603.162 171.724 599.969C168.48 597.592 167.016 597.822 168.457 594.307C169.192 592.516 173.671 588.99 174.991 587.463C179.947 581.744 184.563 575.691 189.289 569.783C192.281 566.045 195.1 559.585 199.935 559.763C201.606 559.826 215.542 569.369 216.455 570.828C218.924 574.784 213.165 580.01 210.765 583.673C206.889 589.587 203.007 595.496 199.108 601.393C197.294 604.138 191.672 616.535 188.594 609.576L188.554 609.541ZM315.501 425.305C312.395 430.657 309.306 435.882 305.832 441.004C303.919 443.818 298.453 454.888 295.41 456.031C291.252 457.593 293.986 452.534 294.83 450.812C297.632 445.058 302.432 440.746 304.695 434.636C300.451 439.155 297.477 444.501 293.653 449.353C291.356 452.27 288.33 455.773 288.485 450.26C288.582 446.878 295.599 439.235 297.414 436.33C300.256 431.776 304.832 426.54 306.302 421.372C298.424 428.75 295.163 441.096 287.118 448.216C281.623 453.08 282.094 448.113 285.062 443.812C288.513 438.816 292.745 434.079 294.985 428.411C290.299 432.821 286.71 442.807 281.37 446.017C273.331 450.857 278.976 442.095 280.888 439.367C290.058 426.298 298.614 412.776 307.434 399.465C311.746 392.96 312.435 391.225 319.349 394.682C322.145 396.078 325.24 397.49 327.818 399.276C328.444 399.707 333.52 402.957 333.394 402.704C335.139 406.195 328.639 413.315 326.595 416.56C322.914 422.405 317.126 429.227 315.231 435.893C320.066 430.869 323.661 424.162 327.623 418.42C330.603 414.096 333.589 407.545 338.602 405.541C336.248 415.876 324.907 427.493 318.671 435.974C314.204 442.049 305.958 457.604 298.212 459.074C299.205 453.47 305.068 447.458 307.744 442.342C310.644 436.801 313.652 431.248 315.478 425.259L315.507 425.299L315.501 425.305ZM643.561 207.443C643.796 207.46 644.038 207.483 644.273 207.5C641.804 228.763 640.196 249.866 633.667 270.388C627.741 289.004 619.369 307.103 608.281 323.221C585.875 355.773 551.044 380.884 515.575 397.496C497.78 405.828 478.762 411.708 460.174 418.001C457.642 418.857 434.197 428.084 433.204 425.184C431.935 421.469 443.057 420.045 445.785 419.287C481.07 409.468 515.488 396.123 546.639 376.652C576.803 357.8 603.492 330.456 619.335 298.484C627.316 282.372 632.616 265.283 635.792 247.609C637.606 237.526 639.478 227.356 640.156 217.118C640.552 211.141 637.532 197.859 640.782 193.093C642.212 190.997 661.362 180.127 663.653 181.356C666.937 183.113 665.318 202.418 665.243 205.898C664.847 225.243 662.217 244.732 657.577 263.515C648.677 299.524 631.129 331.582 607.282 359.839C583.062 388.538 553.863 410.042 519.743 425.586C502.414 433.482 484.63 438.575 466.049 442.526C456.626 444.53 447.157 446.356 437.614 447.694C429.948 448.767 419.509 451.466 411.958 449.393C421.214 434.194 443.132 439.172 458.394 433.694C453.95 431.667 447.1 434.067 442.38 434.86C435.782 435.968 429.018 438.254 422.322 437.691C426.635 433.269 431.602 434.217 437.395 432.948C444.435 431.409 451.446 428.831 458.348 426.752C471.63 422.755 484.848 418.518 497.762 413.442C523.361 403.376 547.082 390.312 568.833 373.459C588.098 358.53 606.019 341.86 618.525 320.695C624.865 309.963 630.854 298.961 635.401 287.339C637.968 280.781 640.144 274.069 642.062 267.293C643.36 262.716 647.219 253.742 645.163 249.314C641.907 253.38 641.718 261.384 640.294 266.409C638.542 272.576 636.464 278.651 634.127 284.623C629.59 296.228 624.147 307.534 617.727 318.22C605.008 339.385 587.38 357.014 567.799 371.909C547.495 387.349 524.848 399.844 501.294 409.572C489.5 414.441 477.401 418.501 465.222 422.267C454.048 425.724 438.934 432.776 427.255 431.765C431.01 426.896 439.262 426.901 445.027 424.943C452.583 422.376 460.226 420.24 467.88 417.949C482.287 413.631 496.321 408.475 510.033 402.302C538.176 389.635 562.023 372.954 585.163 352.673C605.514 334.838 619.829 311.995 629.86 287.011C635.907 271.961 639.834 256.354 642.332 240.351C644.457 226.731 648.62 207.133 644.468 193.679C643.067 198.158 643.555 202.792 643.555 207.448L643.561 207.443ZM567.759 214.396C550.246 213.415 532.979 211.25 516.66 204.371C514.403 203.417 506.961 201.195 506.433 198.347C505.635 194.052 512.416 197.411 513.743 197.911C522.235 201.132 530.458 204.33 539.422 206.082C558.709 209.86 578.681 209.326 598.014 206.168C607.403 204.635 616.613 202.286 625.548 199.019C632.525 196.469 633.047 196.435 633.076 204.101C633.225 241.413 624.491 278.662 604.239 310.261C594.649 325.225 582.958 338.461 569.855 350.433C563.217 356.497 556.355 362.325 549.091 367.625C542.413 372.495 534.173 376.135 527.978 381.487C536.378 379.138 545.503 371.346 552.697 366.385C560.346 361.114 567.506 355.165 574.276 348.803C588.057 335.854 600.185 321.608 609.516 305.111C619.151 288.068 625.984 269.636 630.222 250.52C632.392 240.718 633.713 230.739 634.425 220.724C634.902 214.017 632.169 199.168 636.975 194.701C639.852 200.236 638.422 209.533 638.123 215.602C637.756 223.147 636.992 230.67 635.855 238.14C633.84 251.427 630.572 264.508 625.938 277.129C617.078 301.252 603.464 323.256 585.778 341.901C566.926 361.774 544.193 377.444 519.732 389.623C506.875 396.02 493.542 401.67 479.962 406.356C472.91 408.791 465.773 410.984 458.681 413.292C453.267 415.055 446.497 418.541 440.76 418.334C443.775 412.552 452.153 410.76 457.906 408.584C465.83 405.587 473.864 402.888 481.811 399.948C496.959 394.349 510.699 386.821 524.561 378.616C551.153 362.865 574.908 342.992 593.622 318.231C612.398 293.385 624.83 262.366 628.172 231.382C628.959 224.095 629.361 216.682 629.43 209.349C629.475 204.497 630.589 203.854 626.403 203.555C624.135 203.395 618.525 206.26 616.36 206.978C600.575 212.232 584.319 213.851 567.765 214.402L567.759 214.396ZM329.053 368.441C333.991 358.599 341.381 349.819 347.554 340.729C355.076 329.658 362.415 318.455 369.615 307.172C376.822 295.889 383.844 284.491 390.907 273.116C393.652 268.7 394.863 264.611 400.313 267.391C404.148 269.349 403.063 268.746 402.96 272.828C407.008 271.41 409.776 269.521 407.243 276.589C410.626 274.143 409.035 274.838 413.089 273.437C412.968 279.351 404.711 284.669 405.636 289.974C410.643 288.614 413.129 279.616 417.459 276.756C417.551 282.142 411.59 288.171 408.65 292.432C405.027 297.686 401.398 302.946 397.769 308.2C390.637 318.536 383.517 328.877 376.397 339.219C368.961 350.014 361.634 360.89 354.083 371.605C352.808 373.419 347.514 381.86 346.377 375.992C345.803 373.029 351.591 367.35 352.693 364.404C348.364 367.407 347.611 373.488 342.478 375.308C341.077 367.281 353.623 361.912 353.348 353.976C348.633 355.463 345.309 364.117 342.558 367.97C340.951 370.226 334.582 376.686 335.099 369.652C335.3 366.919 343.029 359.385 344.752 357.071C347.376 353.534 351.688 349.98 352.039 345.518C346.871 347.884 334.692 375.314 329.053 368.446V368.441ZM376.655 186.191C389.495 186.61 401.84 191.526 411.791 199.576C414.111 201.454 424.407 208.936 418.159 212.036C415.661 213.277 409.351 204.864 407.341 203.199C395.88 193.69 380.428 189.998 365.797 191.669C359.188 192.421 352.636 194.155 346.469 196.647C340.554 199.036 333.853 204.572 327.537 205.358C328.306 201.092 333.83 197.319 335.978 193.317C339.475 186.811 343.776 180.88 347.979 174.799C352.676 168 357.402 161.219 362.093 154.408C365.01 150.171 370.431 144.595 371.579 139.525C365.825 142.62 360.767 153.696 356.937 159.037C351.281 166.92 345.521 174.73 339.923 182.66C337.89 185.536 311.178 224.129 307.072 219.312C304.488 216.274 311.551 203.544 313.141 199.926C316.259 192.835 319.578 185.657 323.351 178.899C330.804 165.554 340.698 153.335 349.46 140.822C351.625 137.733 356.512 127.317 360.296 127.449C362.604 127.529 366.813 131.601 368.846 132.783C371.901 134.558 375.093 136.143 378.234 137.762C391.86 144.785 405.831 151.141 420.135 156.677C427.49 159.525 434.972 161.753 442.46 164.216C447.278 165.801 449.373 168.614 442.977 169.602C437.459 170.452 425.257 163.958 420.123 161.954C413.657 159.433 407.278 156.671 400.99 153.725C396.621 151.675 392.302 149.51 387.996 147.334C385.498 146.071 380.864 142.356 378.309 142.413C372.739 142.539 369.144 151.29 366.044 155.712C361.611 162.034 357.178 168.35 352.751 174.678C348.886 180.196 342.288 187.024 340.818 193.593C346.187 193.064 351.424 190.01 356.672 188.637C363.207 186.926 369.908 186.214 376.655 186.226V186.191ZM260.79 469.784C264.523 471.638 279.699 479.023 280.084 483.082C280.337 485.781 274.956 491.535 273.469 493.791C270.856 497.753 268.473 501.796 266.044 505.867C260.417 515.296 254.135 524.351 248.071 533.498C243.725 540.062 238.488 552.763 231.195 555.852C231.787 549.335 238.396 542.307 241.893 536.817C245.172 531.678 252.303 524.116 253.165 518.012C249.065 519.815 245.005 528.353 242.662 532.028C239.717 536.651 236.8 541.296 233.877 545.936C231.867 549.123 229.812 555.674 225.384 552.935C220.687 550.03 225.872 548.089 225.252 544.517C221.376 546.051 223.283 549.565 218.649 548.996C215.674 548.635 211.569 545.471 211.299 542.6C211.029 539.705 216.852 534.325 218.482 532.114C221.388 528.175 224.311 524.248 227.084 520.211C233.274 511.213 238.884 501.83 244.701 492.591C249.478 485.006 254.078 475.755 260.79 469.772V469.784ZM456.942 162.516C467.237 166.478 477.504 173.254 486.961 178.927C489.7 180.57 497.286 183.441 498.825 186.111C500.415 188.873 497.171 192.031 495.598 194.575C489.258 204.853 482.925 215.137 476.585 225.416C473.416 230.555 470.263 235.705 467.065 240.827C465.354 243.572 462.667 250.526 459.795 251.818C454.811 254.057 439.371 241.407 434.053 238.318C429.425 235.625 422.638 233.012 418.67 229.447C414.335 225.548 416.465 224.026 419.514 219.363C431.63 200.851 441.96 178.83 456.936 162.511L456.942 162.516ZM512.106 308.539C512.893 328.096 505.951 348.395 495.69 364.835C490.464 373.201 484.36 381.137 477.573 388.291C471.98 394.188 464.303 403.72 456.924 407.051C457.033 402.302 463.562 397.209 466.416 393.861C471.13 388.337 475.902 382.848 480.41 377.151C487.478 368.234 493.708 358.662 498.256 348.2C506.818 328.504 509.947 304.697 502.896 284.054C499.675 274.62 494.225 266.11 487.254 259.001C484.889 256.59 475.494 250.968 475.494 247.552C475.489 242.223 483.43 249.268 484.682 250.176C502.999 263.503 512.709 286.144 512.101 308.539H512.106ZM224.293 641.996C222.915 645.567 221.302 655.151 218.741 657.724C215.531 660.951 212.166 657.132 207.951 654.703C196.392 648.048 185.293 640.761 174.222 633.319C170.673 630.936 143.232 615.192 144.443 611.017C146.602 603.564 168.819 624.184 172.161 626.831C182.496 635.019 192.769 643.202 204.081 650.023C207.463 652.062 213.297 657.729 216.421 653.945C216.564 653.767 216.582 648.37 216.605 647.985C216.834 644.419 219.941 647.175 217.035 642.444C214.761 638.746 207.549 635.708 204.058 633.647C198.626 630.437 193.136 627.33 187.745 624.052C177.753 617.971 164.954 611.138 157.553 602.008C168.486 597.018 181.916 610.741 190.673 616.753C201.48 624.172 216.909 630.937 224.293 641.996ZM463.361 256.532C462.333 251.835 468.679 245.22 471.107 241.436C474.731 235.78 478.343 230.118 481.954 224.457C488.816 213.679 496.137 203.044 502.396 191.893C505.532 186.306 506.089 186.696 501.506 183.975C496.959 181.27 492.508 178.405 487.955 175.717C484.32 173.576 458.159 162.855 458.159 159.335C458.153 152.525 482.471 166.49 485.56 168.212C490.223 170.814 494.788 173.645 499.037 176.889C504.584 181.121 509.298 183.584 505.859 190.469C500.071 202.045 492.158 212.926 485.325 223.9C478.676 234.58 472.583 247.85 463.373 256.538L463.361 256.532ZM351.717 380.149C362.047 362.716 374.071 346.064 385.429 329.297C396.23 313.356 407.594 294.178 421.605 280.948C418.55 290.595 410.516 299.661 404.849 308.039C398.602 317.272 392.343 326.494 386.078 335.716C379.469 345.449 372.848 355.182 366.233 364.915C364.287 367.775 355.662 384.622 351.717 380.149ZM437.091 291.967C426.761 311.858 412.888 330.393 400.709 349.21C394.594 358.656 388.478 368.102 382.363 377.548C381.111 379.483 370.023 398.127 368.622 393.172C368.266 391.903 374.077 384.944 374.714 383.956C377.671 379.379 380.623 374.797 383.58 370.221C389.495 361.051 395.409 351.875 401.318 342.704C407.243 333.506 413.164 324.307 419.112 315.119C424.039 307.511 429.178 296.239 436.167 290.394C436.431 290.841 436.689 291.289 437.085 291.967H437.091ZM217.098 669.989C204.782 658.355 186.803 650.741 172.677 641.295C168.445 638.464 133.797 615.858 136.433 613.004C139.809 609.352 172.333 636.254 177.805 640.245C185.31 645.711 192.809 651.206 200.739 656.053C205.109 658.723 222.295 664.218 217.098 669.989ZM254.761 570.34C262.145 555.646 272.418 541.905 281.525 528.233C286.113 521.348 290.695 514.463 295.306 507.59C296.168 506.304 304.339 493.545 304.235 499.993C304.161 504.587 293.98 515.893 291.511 519.665C286.728 526.981 281.939 534.302 277.161 541.623C272.493 548.772 267.681 555.858 263.208 563.128C261.296 566.234 258.384 575.312 254.761 570.334V570.34ZM424.286 285.094C423.597 293.793 413.255 304.02 408.576 311.014C402.96 319.409 397.476 327.895 391.906 336.319C386.089 345.105 380.146 353.798 374.192 362.492C369.529 369.302 364.826 379.925 358.028 384.72C359.371 375.986 368.478 366.844 373.359 359.477C379.325 350.468 385.303 341.464 391.343 332.506C402.104 316.543 413.33 300.919 424.286 285.094ZM455.828 257.813C457.969 261.109 458.503 260.615 462.081 258.938C461.375 268.057 458.567 264.1 454.191 260.064C450.235 256.417 445.699 253.558 441.225 250.583C435.678 246.903 430.086 243.285 424.298 239.995C422.15 238.778 412.239 235.39 411.332 233.403C409.529 229.452 413.439 229.326 416.425 230.319C421.317 231.944 426.824 237.061 431.269 239.765C435.357 242.252 458.75 252.886 455.828 257.807V257.813ZM272.596 449.33C280.009 451.903 325.068 474.262 317.511 484.753C310.115 478.357 303.971 471.34 295.702 465.712C287.273 459.976 275.875 457.243 268.226 451.012C270.822 449.52 270.351 449.594 272.59 449.324L272.596 449.33ZM400.267 248.04C409.179 249.923 417.361 254.235 425.01 259.093C426.991 260.351 440.221 268.407 433.629 269.561C430.947 270.026 423.953 264.428 421.61 263.159C417.648 261.011 413.634 258.967 409.494 257.181C404.935 255.217 390.729 252.846 400.261 248.04H400.267ZM206.579 673.916C193.349 669.024 181.09 659.417 169.324 651.677C158.5 644.557 138.282 635.829 135.29 622.214C159.137 641.491 182.077 659.854 210.415 672.217C209.22 672.745 208.026 673.279 206.579 673.922V673.916ZM369.747 401.797C369.299 402.842 369.007 403.525 368.714 404.214C360.301 399.287 353.675 390.686 345.027 385.443C336.925 380.528 328.272 378.145 319.946 374.056C335.421 367.579 361.53 389.893 369.747 401.802V401.797ZM283.058 484.265C285.074 488.348 276.03 500.05 273.704 503.903C270.179 509.737 266.199 515.21 262.433 520.871C258.149 527.302 254.078 533.883 249.909 540.389C246.268 546.074 242.295 555.508 236.358 558.821C237.598 552.62 243.794 545.729 247.17 540.406C251.109 534.187 255.048 527.969 258.987 521.756C266.768 509.473 273.796 495.468 283.064 484.265H283.058ZM231.092 607.153C231.368 607.233 222.1 627.164 222.014 629.909C227.05 624.505 229.921 615.318 233.32 608.76C236.582 602.473 239.504 592.924 245.126 588.571C245.775 595.307 239.981 602.3 236.84 608.106C233.016 615.174 230.231 622.783 226.498 629.823C225.539 631.637 226.102 633.945 223.484 633.876C218.689 633.744 220.033 628.209 220.659 625.86C222.404 619.343 226.636 612.154 231.086 607.158L231.092 607.153ZM611.089 216.039C608.029 233.368 601.764 249.975 593.874 265.651C590.245 272.857 586.387 279.966 582.183 286.856C579.398 291.421 572.956 305.191 567.426 306.138C567.437 301.074 576.166 292.512 578.761 288.08C583.699 279.639 588.626 271.192 592.91 262.395C596.964 254.057 600.524 245.473 603.36 236.647C604.974 231.623 605.806 217.578 610.429 214.885C610.681 215.321 610.934 215.763 611.089 216.033V216.039ZM615.011 215.292C615.292 215.344 615.574 215.396 615.861 215.447C616.613 224.313 611.968 235.625 609.097 243.888C606.128 252.432 602.671 260.81 598.721 268.947C594.523 277.6 589.769 285.978 584.503 294.028C581.081 299.259 576.326 309.687 570.475 312.162C573.61 304.33 580.547 297.066 584.911 289.727C589.516 281.976 593.828 274.046 597.67 265.886C601.511 257.732 604.899 249.355 607.673 240.776C610.325 232.565 611.233 223.01 615.017 215.292H615.011ZM605.605 217.503C602.195 233.426 595.873 248.809 588.683 263.411C585.273 270.342 581.592 277.146 577.515 283.715C574.19 289.073 569.246 299.604 563.309 302.217C563.533 296.296 572.341 287.781 575.482 282.688C580.242 274.97 584.629 267.029 588.534 258.846C592.674 250.17 596.263 241.224 599.169 232.059C599.892 229.78 603.257 213.719 605.611 217.503H605.605ZM260.061 463.812C260.084 463.513 260.101 463.22 260.124 462.922C268.915 461.394 280.285 471.868 287.239 476.456C290.759 478.776 312.2 491.575 310.529 495.899C309.047 499.729 302.961 491.925 301.646 490.788C297.46 487.182 292.963 483.944 288.358 480.9C279.475 475.02 268.02 470.748 260.061 463.812ZM268.6 455.417C271.614 456.439 302.249 473.131 297.017 476.243C293.986 478.046 279.871 467.676 276.771 465.908C272.062 463.226 262.783 460.849 268.6 455.417ZM600.173 218.944C594.403 245.955 578.968 277.675 559.674 297.68C561.822 290.698 567.202 284.686 571.118 278.542C575.419 271.795 579.318 264.818 582.872 257.652C586.616 250.095 589.964 242.332 592.686 234.345C594.483 229.073 594.931 220.988 599.163 217.348C599.53 217.928 599.903 218.502 600.179 218.938L600.173 218.944ZM354.783 417.082C357.827 423.146 341.881 440.837 338.148 446.442C336.477 448.957 318.82 474.641 318.171 473.671C315.582 469.778 331.476 451.024 334.123 447.056C340.721 437.162 346.687 425.793 354.783 417.082ZM593.088 217.48C593.38 217.497 593.679 217.52 593.972 217.537C596.039 222.217 592.014 228.918 590.285 233.42C587.541 240.558 584.503 247.58 581.087 254.419C577.676 261.241 573.897 267.89 569.694 274.258C566.737 278.731 562.143 288.309 556.958 289.71C558.6 284.508 563.676 279.208 566.645 274.7C570.412 268.981 573.714 262.992 576.866 256.917C580.329 250.245 583.538 243.434 586.254 236.423C588.58 230.411 589.625 222.866 593.088 217.48ZM315.053 384.639C324.672 387.585 333.664 392.609 342.076 398.076C348.565 402.296 361.197 408.636 361.771 416.864C352.877 412.391 345.211 403.789 336.311 398.616C329.426 394.619 318.286 391.536 312.998 385.897C313.675 385.478 314.347 385.064 315.048 384.633L315.053 384.639ZM151.747 607.566C152.086 600.279 168.79 614.112 170.558 615.467C177.173 620.543 189.645 627.072 193.734 634.37C186.901 633.704 178.15 625.579 172.419 621.795C165.534 617.247 158.052 612.883 151.741 607.566H151.747ZM393.089 258.674C400.755 253.787 415.202 263.348 422.035 267.402C428.598 271.301 446.123 280.712 444.717 289.412C440.002 286.983 436.764 281.539 432.543 278.22C428.512 275.051 424.194 272.151 419.779 269.55C411.269 264.537 401.467 263.187 393.089 258.668V258.674ZM619.731 217.13L620.638 217.204C621.718 232.846 612.64 251.783 606.346 265.834C603.056 273.184 599.341 280.282 595.344 287.264C591.595 293.81 587.104 305.076 580.679 309.222C580.748 303.101 589.103 294.448 592.198 289.159C596.516 281.775 600.478 274.184 603.986 266.386C611.181 250.388 613.484 233.248 619.725 217.135L619.731 217.13ZM587.857 217.4C592.134 224.692 580.426 243.486 576.855 250.354C571.279 261.063 564.004 276.928 554.288 284.382C559.14 272.225 568.557 261.356 574.431 249.51C577.664 242.992 580.564 236.308 583.039 229.47C584.526 225.358 585.204 220.891 587.857 217.4ZM427.685 250.738C428.673 251.445 428.673 252.886 429.506 253.885C431.01 255.677 433.571 256.842 435.42 258.272C440.582 262.246 445.113 266.46 447.863 272.432C440.617 265.49 432.784 260.041 424.12 254.965C418.934 251.927 400.864 246.311 410.982 240.075C413.589 245.088 413.37 243.641 417.775 245.628C421.306 247.218 423.666 250.738 427.68 250.738H427.685ZM550.837 278.771C556.568 268.194 563.699 258.473 569.263 247.752C572.163 242.16 574.885 236.463 577.124 230.572C578.669 226.512 578.939 219.478 583.349 218.18C585.347 227.339 574.397 243.561 570.142 251.37C566.8 257.503 563.177 263.48 559.312 269.297C558.353 270.744 551.939 281.413 550.837 278.777V278.771ZM287.91 489.536C289.438 494.469 281.577 503.053 278.901 507.056C274.778 513.217 270.638 519.361 266.504 525.511C262.025 532.172 257.535 538.833 253.067 545.505C250.047 550.007 246.24 558.591 241.577 561.365C242.128 556.002 248.933 548.732 251.844 544.167C255.875 537.857 259.86 531.523 263.948 525.253C271.798 513.234 280.067 501.532 287.91 489.542V489.536ZM547.742 273.506C552.146 264.301 558.738 255.992 563.573 246.96C568.305 238.123 570.963 226.679 577.142 218.967C577.412 229.32 569.608 241.511 564.618 250.377C562.901 253.431 548.23 274.718 547.736 273.5L547.742 273.506ZM565.514 218.99C571.417 220.822 541.368 266.259 536.367 270.342C539.479 261.379 547.323 253.047 552.129 244.767C556.694 236.9 559.772 225.835 565.514 218.984V218.99ZM341.978 408.102C342.713 412.075 336.541 418.753 334.399 421.848C330.804 427.028 327.089 432.127 323.42 437.249C320.514 441.297 308.192 463.312 303.253 461.699C308.295 452.879 315.972 444.604 321.938 436.267C328.605 426.947 334.686 416.927 341.984 408.107L341.978 408.102ZM194.055 613.526C198.861 606.894 203.524 600.319 207.928 593.4C211.356 588.02 216.111 576.197 221.807 573.303C222.812 579.389 212.528 590.621 209.352 595.64C207.693 598.258 197.512 617.511 194.055 613.526ZM542.982 215.35C545.491 223.124 534.592 235.591 530.527 241.964C525.25 250.239 518.882 264.089 510.654 269.682C511.251 265.094 516.528 260.356 519.02 256.515C521.925 252.042 524.446 247.299 527.099 242.676C532.284 233.633 536.861 223.785 542.982 215.35ZM548.833 217.532C550.556 225.157 540.042 236.257 536.085 242.458C530.269 251.571 524.934 262.906 517.349 270.612C520.243 260.667 528.161 251.031 533.507 242.131C538.377 234.017 542.741 224.767 548.839 217.537L548.833 217.532ZM533.496 264.847C537.992 257.02 542.89 249.435 547.484 241.666C550.102 237.239 552.64 232.754 554.908 228.132C556.246 225.404 557.165 220.776 560.013 219.398C562.023 225.938 551.141 240.397 547.794 245.944C544.894 250.756 541.81 255.447 538.555 260.029C538.095 260.678 533.926 266.983 533.496 264.847ZM554.133 218.295C554.357 218.341 554.581 218.387 554.805 218.433C556.229 225.588 544.836 239.07 541.271 245.14C536.183 253.799 530.246 266.656 522.184 272.817C523.826 264.164 533.634 253.586 538.239 246.047C543.74 237.043 548.058 226.874 554.139 218.295H554.133ZM504.044 258.749C508.736 251.048 514.07 243.802 518.618 235.993C522.821 228.786 526.318 220.69 532.095 214.643C534.799 218.094 521.581 234.592 519.324 238.198C517.866 240.535 505.147 260.46 504.044 258.749ZM507.381 264.399C512.302 256.056 518.13 248.229 523.131 239.909C527.013 233.455 531.624 219.363 537.837 215.292C538.744 222.901 528.466 235.281 524.463 241.499C520.099 248.281 514.552 260.437 507.714 264.916C507.622 264.772 507.53 264.629 507.381 264.399ZM308.881 464.834C314.583 456.244 320.514 447.803 326.348 439.299C332.01 431.041 337.551 419.109 345.131 412.569C344.89 420.929 332.785 432.839 328.128 439.609C324.959 444.208 314.135 465.282 308.886 464.834H308.881ZM199.769 617.316C207.699 604.482 215.726 587.555 226.435 576.943C223.868 585.287 217.42 593.015 212.786 600.4C211.282 602.8 202.192 620.337 199.763 617.31L199.769 617.316ZM522.207 209.32C523.516 215.114 515.213 223.928 512.244 228.625C508.173 235.068 502.913 247.356 496.43 251.519C496.528 245.255 505.244 236.033 508.54 230.767C513.025 223.595 517.274 216.199 522.207 209.32ZM486.646 243.268C490.447 236.877 495.058 230.968 499.008 224.652C502.695 218.755 505.979 210.457 511.205 205.927C510.573 213.162 503.958 220.253 500.019 226.242C497.504 230.067 491.239 243.268 486.651 243.268H486.646ZM230.46 580.073C230.707 580.239 230.948 580.406 231.195 580.572C228.416 587.911 222.944 594.767 218.833 601.485C215.531 606.883 211.063 618.206 205.74 621.336C205.947 615.054 213.998 606.383 217.282 601.043C221.577 594.061 226.538 587.239 230.466 580.073H230.46ZM516.407 207.804C517.36 213.794 509.792 221.339 506.726 226.105C503.12 231.703 498.21 244.106 492.141 246.926C493.06 240.414 500.915 232.467 504.441 226.891C508.431 220.592 511.653 213.541 516.407 207.799V207.804ZM500.157 255.028C504.601 247.839 509.471 240.914 513.944 233.736C517.963 227.293 521.477 219.26 527.088 214.121C524.435 221.993 517.923 229.441 513.502 236.475C510.654 241 505.589 253.897 500.346 255.642C500.295 255.47 500.243 255.303 500.157 255.028ZM261.887 539.895C266.71 531.511 272.579 523.605 277.942 515.548C282.208 509.14 286.59 499.097 292.596 494.176C291.786 502.043 281.766 512.224 277.368 518.816C274.043 523.8 267.675 538.35 262.013 540.463C261.973 540.297 261.939 540.13 261.881 539.895H261.887ZM505.095 204.738C505.336 204.813 505.577 204.887 505.824 204.962C504.377 211.204 498.055 218.244 494.576 223.618C491.084 229.01 488.007 235.114 483.327 239.547C485.417 233.529 489.672 228.16 493.106 222.814C496.93 216.854 500.444 210.096 505.101 204.738H505.095ZM625.043 218.542L625.749 218.663C625.749 224.037 623.751 229.538 622.528 234.77C621.471 239.277 620.994 246.644 617.911 250.09C617.572 244.83 619.846 239.185 621.035 234.057C622.171 229.142 622.7 222.998 625.048 218.542H625.043ZM187.854 672.825C183.082 673.296 172.356 670.592 170.191 666.216C172.792 666.233 175.698 667.433 178.373 668.059C182.117 668.938 188.198 669.185 190.954 672.016C190.024 672.728 188.991 672.998 187.854 672.825ZM344.729 422.285C344.729 428.337 336.156 436.887 332.693 442.049C329.007 447.556 324.896 456.829 319.509 460.625C321.628 453.78 327.95 447.004 331.889 441.033C336.029 434.757 339.848 428.015 344.723 422.285H344.729ZM150.679 649.805C150.237 651.143 150.007 651.832 149.783 652.527C145.758 650.041 138.437 640.13 139.855 635.404C144.621 639.142 146.292 645.55 150.685 649.805H150.679ZM416.672 197.268C421.088 189.717 426.818 177.945 433.72 172.691C432.911 177.997 427.927 183.044 425.004 187.443C424.028 188.913 417.648 199.961 416.672 197.268ZM548.173 281.585C548.173 285.697 535.563 301.039 531.618 301.706C531.262 296.75 544.503 284.726 548.173 281.585ZM585.743 311.559C586.771 309.354 595.649 292.88 597.147 294.442C599.272 296.652 587.334 313.339 585.743 311.559ZM533.323 308.137C536.476 302.957 546.232 287.844 552.479 286.466C551.985 289.9 533.369 308.2 533.323 308.137ZM539.927 326.615C543.786 320.999 551.118 310.095 557.314 307.252C556.39 310.83 542.959 327.528 539.927 326.615ZM412.492 163.487C413.973 169.252 403.178 182.418 399.095 186.013C400.939 178.652 407.657 169.349 412.492 163.487ZM388.524 181.471C389.621 177.274 398.297 161.632 402.001 160.495C402.954 164.078 392.182 179.771 388.92 182.045C388.777 181.833 388.627 181.62 388.524 181.471ZM560.357 311.53C560.524 311.611 560.69 311.685 560.851 311.766C559.1 316.049 554.753 319.782 551.744 323.285C549.447 325.96 545.681 332.323 542.155 333.431C542.241 329.52 548.397 325.088 550.969 322.182C554.035 318.714 556.872 314.574 560.357 311.536V311.53ZM406.75 161.529C407.088 161.735 407.427 161.948 407.76 162.16C405.848 168.167 399.222 180.518 393.939 183.986C395.128 176.096 403.672 168.913 406.75 161.534V161.529ZM382.219 179.812C387.117 172.335 391.935 164.595 397.522 157.618C396.414 161.701 386.273 181.035 382.219 179.812ZM423.075 167.736C424.608 172.22 412.624 187.529 409.167 190.348C410.476 183.469 418.383 172.955 423.075 167.736ZM412.716 193.214C415.116 188.453 418.452 184.084 421.369 179.622C423.161 176.883 425.59 170.928 428.805 169.688C429.115 174.282 422.724 180.38 420.249 184.049C419.405 185.301 413.864 195.338 412.716 193.219V193.214ZM211.035 623.684C215.479 614.818 221.336 603.282 228.135 596.105C226.653 601.692 222.255 607.124 219.326 612.045C218.425 613.555 211.592 625.298 211.04 623.684H211.035ZM538.514 319.73C541.472 315.016 548.46 303.893 553.639 301.981C553.168 305.047 539.91 321.413 538.514 319.73ZM421.65 200.409C425.992 192.45 431.688 182.108 438.389 175.999C436.144 181.798 431.803 187.11 428.426 192.329C427.881 193.174 422.581 202.941 421.656 200.409H421.65ZM417.269 166.174C418.389 166.61 406.405 186.392 404.12 188.172C404.614 182.212 413.313 170.561 417.269 166.174ZM553.8 292.386C554.914 292.955 540.501 310.83 537.785 312.334C537.837 306.931 549.907 296.032 553.8 292.386ZM544.32 275.786C545.244 280.798 535.115 290.296 531.187 292.978C533.232 286.437 540.57 281.516 544.32 275.786ZM609.355 268.987C610.555 265.812 612.226 257.164 615.511 255.677C616.073 259.064 612.571 267.896 609.998 270.359C609.82 269.98 609.642 269.607 609.349 268.987H609.355ZM377.333 168.873C379.739 164.107 383.626 155.832 387.938 152.72C387.651 155.517 380.514 168.758 377.361 169.459C377.35 169.28 377.344 169.102 377.327 168.873H377.333ZM276.34 504.053C278.172 499.643 281.301 492.316 285.005 489.295C284.844 491.294 278.913 504.391 276.34 504.053ZM309.736 488.021C312.154 482.032 317.195 486.091 311.327 490.794C310.787 489.858 310.253 488.916 309.736 488.021ZM360.709 407.47C362.082 406.149 363.15 405.121 364.212 404.099C366.566 407.108 365.556 407.332 363.161 410.318C362.484 409.531 361.8 408.739 360.709 407.47ZM446.893 281.229C447.059 281.143 447.22 281.057 447.387 280.971C447.26 279.587 447.68 278.329 448.656 277.198C452.084 280.684 451.142 280.85 448.92 284.772C448.248 283.589 447.57 282.412 446.899 281.229H446.893ZM564.199 315.125C566.082 315.825 555.66 328.137 554.173 328.774C555.867 324.106 560.828 318.8 564.199 315.125ZM453.181 265.226C454.668 267.873 453.496 268.194 451.596 270.56C450.074 268.648 452.032 267.149 453.181 265.226ZM600.036 301.005C601.144 302.383 598.284 305.869 596.757 305.162C595.27 304.479 598.945 300.965 600.036 301.005ZM380.565 154.563C380.749 154.632 380.91 154.69 381.065 154.747C379.951 157.739 376.827 162.976 374.352 164.802C374.536 161.896 378.544 156.453 380.565 154.563ZM606.398 281.264C605.089 282.579 604.084 283.589 603.079 284.605C601.758 282.561 604.084 280 606.398 281.264ZM529.499 327.562C530.958 329.79 529.373 330.141 527.558 331.903C526.215 330.324 528.414 328.952 529.499 327.562ZM517.877 350.875C518.825 349.767 520.501 346.678 522.075 347.476C520.915 349.245 520.272 351.605 517.877 350.875ZM499.416 379.489C501.099 378.61 502.333 377.169 503.907 378.443C500.794 381.039 501.868 381.027 499.416 379.489ZM195.985 636.443C196.065 636.248 196.14 636.053 196.22 635.858C198.436 636.604 199.516 637.5 201.331 638.912C199.189 638.212 197.822 637.804 195.985 636.443ZM546.68 335.837C548.31 334.378 550.05 332.822 551.79 331.266C551.985 332.65 547.788 338.266 546.68 335.837ZM503.763 366.603C505.382 368.355 505.181 367.464 502.477 370.003C501.087 368.257 501.225 369.112 503.763 366.603ZM370.666 178.594C371.344 177.647 373.164 174.219 374.508 173.823C374.818 175.017 371.843 180.88 370.666 178.594ZM368.025 172.576C369.156 171.342 370.126 170.285 371.091 169.229C371.728 170.687 369.868 172.215 368.995 173.363C368.771 173.179 368.547 173.001 368.019 172.571L368.025 172.576ZM511.434 363.347C512.284 362.681 512.945 362.17 513.599 361.653C514.673 363.141 514.535 362.4 512.721 364.697C512.382 364.347 512.049 363.99 511.429 363.342L511.434 363.347ZM565.319 340.402C564.658 338.007 564.538 338.961 566.576 336.199C567.535 337.858 566.278 338.823 565.319 340.402ZM590.693 312.931C591.658 312.139 592.64 311.37 593.645 310.623C593.886 310.824 594.092 311.06 594.259 311.324C592.14 314.034 592.841 313.81 590.693 312.931ZM525.468 322.171C525.807 322.412 526.14 322.653 526.479 322.894C527.266 324.41 526.393 325.392 523.86 325.851C523.671 325.742 523.516 325.604 523.39 325.426C524.067 324.33 524.762 323.244 525.468 322.165V322.171ZM373.491 156.648C373.864 156.154 376.115 152.381 377.092 152.709C376.259 154.299 375.639 157.308 373.491 156.648ZM521.317 355.148C522.35 356.503 522.873 356.428 520.668 357.674C520.335 357.485 520.076 357.226 519.881 356.899C520.358 356.319 520.84 355.733 521.317 355.153V355.148ZM524.819 306.495C525.893 305.398 526.841 305.358 527.662 306.385C525.629 307.844 526.197 307.786 524.819 306.495ZM521.81 335.09C522.89 336.526 523.074 336.049 521.535 337.732C520.478 337.02 520.57 336.141 521.81 335.09ZM526.37 288.407C527.886 289.354 527.673 290.405 525.732 291.559C524.463 290.761 524.676 289.71 526.37 288.407ZM347.474 416.163C348.111 417.335 347.244 419.942 345.831 420.206C346.09 418.753 346.641 417.404 347.474 416.163ZM515.282 335.866C515.018 335.992 514.748 336.118 514.484 336.25C513.95 335.194 514.254 334.292 515.391 333.546C515.666 333.655 515.908 333.816 516.126 334.017C515.844 334.631 515.563 335.251 515.287 335.866H515.282ZM577.463 330.21C576.544 329.136 576.728 328.309 578.02 327.723C578.968 328.642 578.784 329.475 577.463 330.21ZM495.977 374.906C494.719 373.993 494.667 373.189 495.81 372.495C497.079 373.235 497.137 374.039 495.977 374.906ZM604.256 289.36L606.817 288.074C607.018 288.189 607.179 288.349 607.294 288.556C605.548 291.014 606.116 290.75 604.25 289.36H604.256ZM314.192 466.074C315.168 465.333 316.116 464.61 317.063 463.886C317.815 465.138 317.149 466.235 315.065 467.165C314.921 466.987 314.778 466.809 314.192 466.08V466.074ZM527.444 358.759C528.069 357.41 528.787 357.169 529.597 358.03C529.12 359.339 528.408 359.581 527.444 358.759ZM514.047 352.765C514.96 353.856 514.679 354.7 513.215 355.303C512.962 355.142 512.749 354.947 512.566 354.711L514.041 352.765H514.047ZM540.777 341.51C541.523 340.35 542.235 340.166 542.901 340.965C542.402 342.325 541.69 342.503 540.777 341.51ZM511.544 381.05C510.521 380.229 510.556 379.517 511.641 378.914C512.043 379.006 512.336 379.23 512.525 379.586L511.538 381.045L511.544 381.05ZM373.055 381.584C372.676 380.47 373.101 379.592 374.324 378.949C374.904 379.965 374.479 380.844 373.055 381.584ZM520.628 294.568C521.058 294.941 521.311 295.154 521.564 295.372C521.208 295.762 520.88 296.199 520.467 296.509C520.381 296.572 519.703 296.055 519.72 296.015C519.939 295.567 520.237 295.16 520.633 294.574L520.628 294.568ZM364.35 181.063C363.454 180.478 363.465 179.754 364.384 178.893C365.429 179.329 365.418 180.053 364.35 181.063ZM527.696 298.714C526.967 298.214 526.967 297.692 527.708 297.141C528.557 297.583 528.552 298.105 527.696 298.714ZM532.766 366.264C533.456 367.505 533.892 367.459 532.927 368.561C531.991 367.918 531.934 367.154 532.766 366.264ZM376.466 377.266C376.196 376.503 376.443 375.957 377.212 375.636C377.551 376.33 377.304 376.87 376.466 377.266ZM522.465 315.797C522.965 315.022 523.436 315.062 523.889 315.917C523.659 316.141 523.43 316.365 523.206 316.595C522.982 316.354 522.758 316.118 522.465 315.803V315.797Z" fill="black"/>
<path d="M314.904 352.093C313.675 353.838 313.262 353.873 314.715 355.406C316.633 353.563 316.162 353.925 314.904 352.093Z" fill="black"/>
<path d="M321.06 344.754C320.796 344.984 320.606 345.144 320.417 345.311C320.623 345.541 320.836 345.765 321.042 345.994C321.663 345.609 321.668 345.196 321.06 344.754Z" fill="black"/>
<path d="M661 208.895C661 203.486 663.096 191.381 660.213 186.575C657.968 192.002 660.029 203.549 659.909 209.572C659.771 216.452 659.444 223.29 658.559 230.124C656.636 244.973 653.443 259.891 649.05 274.206C640.265 302.848 625.622 329.864 605.755 352.339C601.201 357.49 600.391 361.745 606.587 354.825C611.37 349.485 615.878 343.714 620.156 337.972C628.936 326.201 635.987 313.023 641.867 299.598C654.769 270.14 658.697 240.643 661.539 208.941C661.361 208.929 661.178 208.912 661 208.901V208.895Z" fill="black"/>
<path d="M424.579 446.385C452.997 440.592 481.317 437.301 508.46 426.61C520.8 421.752 532.807 416.033 544.268 409.36C550.016 406.013 555.632 402.435 561.075 398.622C564.865 395.97 576.028 389.866 576.78 384.91C571.618 385.53 564.015 393.816 559.789 396.785C554.466 400.523 548.976 404.031 543.361 407.322C531.199 414.436 518.4 420.46 505.233 425.467C491.124 430.83 475.454 436.618 460.433 438.553C447.318 440.241 432.256 440.615 419.664 444.835C421.191 445.616 422.787 445.938 424.458 445.8C424.498 445.995 424.539 446.196 424.579 446.391V446.385Z" fill="black"/>
<path d="M464.154 434.458C485.279 430.691 506.048 422.779 525.324 413.442C534.81 408.848 543.998 403.652 552.915 398.03C559.157 394.097 570.176 388.377 573.409 381.562C564.474 383.135 554.569 393.787 546.88 398.696C537.773 404.513 528.201 409.606 518.388 414.119C509.195 418.346 499.755 422.026 490.171 425.259C481.719 428.107 468.719 429.118 461.415 433.855C462.287 434.234 463.195 434.383 464.136 434.297L464.165 434.458H464.154Z" fill="black"/>
<path d="M460.657 430.531C481.443 425.363 501.558 418.604 520.938 409.388C530.452 404.863 539.749 399.839 548.735 394.338C554.65 390.715 569.039 384.226 570.946 377.215C562.683 379.236 553.714 388.464 546.375 392.977C537.067 398.702 527.449 403.922 517.533 408.515C507.989 412.931 498.182 416.64 488.19 419.908C479.52 422.744 465.807 424.266 458.624 429.87C459.21 430.06 459.795 430.249 460.651 430.531H460.657Z" fill="black"/>
<path d="M593.432 357.853C601.678 359.386 616.475 334.419 620.587 328.034C624.916 321.315 628.729 314.304 632.186 307.104C634.948 301.356 640.747 293.173 640.552 286.782C635.815 289.653 633.168 300.144 630.681 305.174C627.448 311.715 624.015 318.163 620.19 324.382C612.582 336.745 602.792 346.891 593.432 357.858V357.853Z" fill="black"/>
<path d="M578.411 376.853C581.063 378.57 596.401 366.018 595.091 363.83C594.029 362.062 580.248 374.7 578.411 376.853Z" fill="black"/>
<path d="M575.109 373.149C579.082 372.856 588.379 365.839 588.729 361.757C584.848 361.653 577.142 369.842 575.109 373.149Z" fill="black"/>
<path d="M385.159 305.966C389.586 306.506 396.678 294.074 397.683 290.141C393.336 291.823 387.232 301.837 385.159 305.966Z" fill="black"/>
<path d="M398.538 268.987C396.81 270.44 394.117 274.379 394.209 276.659C396.19 275.596 398.963 271.215 398.538 268.987Z" fill="black"/>
<path d="M380.583 311.669C378.797 313.995 377.769 315.493 376.586 318.284C377.338 317.578 383.299 312.071 380.583 311.669Z" fill="black"/>
<path d="M389.207 293.518C391.085 290.75 391.418 291.531 389.914 290.193C387.933 292.559 387.91 291.784 389.207 293.518Z" fill="black"/>
<path d="M373.612 310.17C372.894 310.974 372.371 311.565 371.843 312.157C373.319 313.322 372.67 313.299 374.795 311.479C374.479 311.129 374.157 310.779 373.612 310.176V310.17Z" fill="black"/>
<path d="M360.502 342.75C360.91 343.135 361.122 343.336 361.335 343.537C362.058 342.331 363.638 340.764 362.788 339.472C362.058 340.517 361.335 341.562 360.502 342.75Z" fill="black"/>
<path d="M394.128 286.857C394.588 286.019 396.454 283.699 395.621 282.774C393.554 283.894 393.06 285.255 394.128 286.857Z" fill="black"/>
<path d="M389.759 281.619C391.223 282.28 392.268 281.545 392.882 279.403C391.642 278.622 390.597 280.678 389.759 281.619Z" fill="black"/>
<path d="M399.089 296.848C400.152 297.359 400.996 297.032 401.628 295.866C401.501 295.584 401.323 295.338 401.093 295.131L399.52 296.044L399.089 296.848Z" fill="black"/>
<path d="M400.066 275.976C399.526 276.854 399.003 277.744 398.504 278.651C398.67 278.812 398.848 278.95 399.044 279.065C400.554 278.215 400.898 277.187 400.06 275.976H400.066Z" fill="black"/>
<path d="M381.53 322.217C382.552 321.608 382.592 320.977 381.645 320.316C380.789 320.856 380.749 321.488 381.53 322.217Z" fill="black"/>
<path d="M402.569 283.503C404.367 282.567 404.866 281.562 404.062 280.494C403.034 281.252 402.426 282.2 402.225 283.348C402.34 283.4 402.454 283.451 402.569 283.503Z" fill="black"/>
<path d="M384.947 297.152C384.832 297.365 384.723 297.571 384.608 297.778C385.004 298.157 385.291 298.042 385.469 297.428C385.326 297.353 385.176 297.273 384.947 297.146V297.152Z" fill="black"/>
<path d="M365.309 324.697C365.555 324.135 365.395 324.054 364.93 324.428C365.056 324.519 365.182 324.606 365.309 324.697Z" fill="black"/>
<path d="M317.419 209.027C317.482 209.309 317.523 209.487 317.563 209.665C321.209 208.557 326.658 197.583 328.783 194.557C333.176 188.281 337.568 181.999 341.944 175.712C346.164 169.642 350.373 163.567 354.565 157.48C358.131 152.289 364.998 145.14 366.009 138.818C362.15 142.723 359.233 148.706 355.926 153.174C351.16 159.611 346.371 166.03 341.662 172.502C333.405 183.854 322.736 195.964 317.425 209.027H317.419Z" fill="black"/>
<path d="M353.227 150.837C345.217 159.284 338.539 169.866 331.752 179.318C325.297 188.299 314.227 199.875 312.085 210.946C320.56 201.971 326.52 188.993 333.589 178.824C339.549 170.251 350.528 161.087 353.227 150.837Z" fill="black"/>
<path d="M341.243 160.644C343.144 160.397 349.294 151.554 349.19 149.613C346.515 151.566 342.53 157.578 341.243 160.644Z" fill="black"/>
<path d="M339.153 162.644C338.435 163.545 337.723 164.452 337.017 165.371C337.505 164.734 339.515 164.596 339.153 162.644Z" fill="black"/>
<path d="M333.434 169.838C332.619 170.337 332.36 170.946 332.647 171.67C333.388 171.193 333.646 170.584 333.434 169.838Z" fill="black"/>
<path d="M228.6 529.266C225.826 531.126 220.383 537.712 219.929 540.899C223.076 538.62 227.56 532.912 228.6 529.266Z" fill="black"/>
<path d="M235.123 519.384C233.073 520.739 230.254 524.58 230.466 527.067C232.286 526.228 235.525 521.371 235.123 519.384Z" fill="black"/>
<path d="M261.181 491.385C261.921 492.029 262.34 492.396 262.765 492.764C265.154 489.485 263.902 488.514 261.181 491.385Z" fill="black"/>
<path d="M233.952 531.529C232.401 533.269 230.018 535.169 229.507 537.518C231.827 536.53 232.752 533.619 233.929 531.5L233.952 531.523V531.529Z" fill="black"/>
<path d="M262.013 480.855C262.57 481.372 262.869 481.653 263.173 481.934C263.834 481.016 265.786 479.155 265.298 477.949C264.264 478.868 263.225 479.781 262.013 480.855Z" fill="black"/>
<path d="M239.849 510.73C239.005 512.597 238.379 513.981 237.753 515.364C239.809 515.554 240.641 512.281 239.849 510.73Z" fill="black"/>
<path d="M259.022 486.108C258.114 487.825 257.305 489.083 257.041 491.012C258.424 489.812 259.986 488.164 259.625 486.252C259.424 486.206 259.223 486.154 259.022 486.108Z" fill="black"/>
<path d="M268.134 487.378C268.921 485.414 269.495 485.069 267.991 483.634C266.291 486.051 266.601 485.483 268.134 487.378Z" fill="black"/>
<path d="M250.408 497.346C252.223 498.403 251.58 498.569 253.394 496.382C252.257 495.417 251.258 495.738 250.408 497.346Z" fill="black"/>
<path d="M256.587 479.644C256.392 480.212 254.773 483.525 255.577 484.013C256.438 482.446 258.155 480.867 256.587 479.644Z" fill="black"/>
<path d="M256.306 498.897C258.109 499.93 257.632 500.24 259.372 498.323C257.873 497.134 258.505 497.151 256.306 498.897Z" fill="black"/>
<path d="M246.67 501.843C247.646 503.037 248.571 502.842 249.449 501.257C248.226 500.005 248.869 500.172 246.67 501.843Z" fill="black"/>
<path d="M233.929 531.505C235.444 530.54 237.012 530.139 237.15 528.267C235.588 528.743 234.526 529.834 233.951 531.528L233.929 531.505Z" fill="black"/>
<path d="M261.686 473.104C260.876 474.24 259.561 475.257 260.153 476.618C262.002 475.785 262.513 474.614 261.686 473.104Z" fill="black"/>
<path d="M215.341 543.483C216.616 543.776 217.408 543.047 217.724 541.307C216.587 540.48 215.795 541.204 215.341 543.483Z" fill="black"/>
<path d="M459.606 182.201C459.87 185.485 458.905 198.664 461.478 200.386C463.229 201.558 471.073 196.126 472.721 195.299C475.19 194.064 485.687 186.812 488.644 187.96C494.673 190.303 484.831 195.333 482.046 196.66C475.27 199.892 462.018 202.287 461.265 210.584C460.312 221.115 467.989 234.85 458.67 243.475C455.701 238.261 456.746 229.792 456.453 223.872C456.189 218.583 458.13 211.359 452.486 211.606C449.465 211.738 424.051 226.387 424.361 228.494C424.82 231.641 436.075 236.309 438.446 237.727C442.615 240.219 451.188 248.069 455.908 247.925C459.841 247.805 462.362 240.834 464.165 237.877C467.943 231.687 471.722 225.497 475.512 219.312C478.98 213.645 482.368 207.914 485.945 202.316C488.052 199.02 495.425 191.71 494.438 187.708C493.599 184.32 481.369 179.456 478.584 177.871C474.38 175.477 465.802 168.311 461.145 168.098C454.271 167.782 444.05 189.304 440.324 195.167C436.574 201.064 432.796 206.938 428.995 212.806C426.393 216.82 420.846 222.781 420.904 227.759C423.677 226.461 424.355 223.642 426.376 221.397C428.966 218.52 432.13 216.843 435.489 215.063C441.001 212.146 452.52 208.574 455.385 202.873C458.635 196.395 452.204 185.658 453.565 179.054C453.944 177.217 454.702 173.341 457.958 174.42C460.347 175.213 459.726 180.461 459.726 182.195C459.68 182.195 459.64 182.195 459.594 182.201H459.606ZM444.165 231.623C444.504 231.417 444.843 231.216 445.182 231.009C445.75 231.451 445.693 231.905 445.015 232.387C444.785 232.18 444.561 231.979 444.165 231.623Z" fill="black"/>
<path d="M313.842 408.664C316.34 408.86 322.185 403.967 321.019 401.739C319.848 399.5 314.531 407.774 313.842 408.664Z" fill="black"/>
<path d="M313.331 403.341C314.628 401.073 315.714 399.178 316.799 397.283C314.479 396.801 312.257 401.521 313.331 403.341Z" fill="black"/>
<path d="M302.289 416.802C301.789 417.784 300.388 419.621 300.836 420.798C302.679 419.644 303.161 418.312 302.289 416.802Z" fill="black"/>
<path d="M298.717 422.245C296.983 423.078 296.598 424.06 297.569 425.191C298.884 424.473 299.268 423.491 298.717 422.245Z" fill="black"/>
<path d="M306.842 409.565C306.199 410.898 305.435 411.564 306.176 412.873C307.646 410.766 307.525 411.443 306.842 409.565Z" fill="black"/>
<path d="M315.467 425.265C316.925 425.277 316.667 423.899 316.862 423.767C316.167 424.088 315.714 424.599 315.496 425.305L315.467 425.265Z" fill="black"/>
<path d="M218.425 639.487C213.4 631.827 203.139 627.801 195.513 623.248C186.969 618.143 179.189 611.993 170.794 606.733L170.776 606.751C180.417 615.766 190.943 623.598 202.324 630.27C207.664 633.4 213.073 636.403 218.453 639.458L218.425 639.487Z" fill="black"/>
<path d="M218.453 639.458C218.608 639.579 221.502 642.088 221.841 641.738C220.704 640.991 219.567 640.239 218.425 639.492L218.453 639.464V639.458Z" fill="black"/>
<path d="M512.439 173.22C512.296 165.583 503.987 158.979 497.705 156.47C491.492 153.984 481.782 148.138 475.15 148.357C479.835 153.392 488.983 155.884 494.776 160.093C500.748 164.429 505.618 170.469 512.456 173.203L512.439 173.22Z" fill="black"/>
<path d="M365.034 477.347C369.576 476.112 373.808 474.521 378.177 473.855C396.053 471.128 413.939 470.456 431.51 475.785C439.681 478.265 447.186 482.107 451.958 489.663C456.695 497.163 456.379 505.15 450.855 512.075C445.182 519.19 437.7 523.525 428.697 525.144C427.594 525.345 426.509 525.649 425.659 525.85V535.158C445.435 540.206 458.567 552.442 465.412 571.075C471.659 588.084 470.023 604.696 460.818 620.441C453.147 633.55 441.944 642.255 427.353 646.171C407.967 651.373 390.5 647.101 374.904 634.543C346.09 611.339 349.243 565.781 376.908 545.557C382.157 541.722 388.381 539.166 394.29 536.307C395.84 535.555 396.535 535.101 396.328 533.286C396.087 531.219 396.42 529.089 396.254 527.01C396.19 526.201 395.605 524.943 394.979 524.736C378.183 519.184 366.923 507.832 360.124 491.748C359.906 491.225 359.67 490.709 359.211 489.646C357.236 491.231 355.289 492.558 353.618 494.171C345.556 501.986 340.704 511.822 336.271 521.929C331.304 533.252 325.958 544.357 317.282 553.441C315.864 554.929 316.254 556.077 317.466 557.38C320.974 561.142 321.175 565.018 317.862 568.848C316.38 570.564 314.595 572.052 312.809 573.47C309.978 575.721 307.009 577.099 303.489 574.578C302.128 573.602 300.658 573.814 299.458 575.296C292.499 583.875 286.085 592.758 283.191 603.662C282.973 604.489 282.892 605.362 282.594 606.154C281.497 609.037 281.79 610.765 285.16 612.252C291.086 614.876 294.537 623.668 292.665 629.582C290.317 637.012 283.834 641.376 276.513 640.469C271.138 639.803 266.188 634.693 265.287 628.899C264.202 621.876 267.584 614.963 273.395 612.39C274.526 611.891 275.703 611.506 276.823 611.081C276.685 595.158 284.236 582.652 294.187 571.253C295.87 569.324 296.656 568.015 295.089 565.408C291.661 559.723 295.594 552.798 302.944 550.995C303.863 550.771 304.913 550.45 305.769 550.674C309.788 551.73 312.103 549.898 314.52 546.809C321.617 537.742 326.613 527.573 330.954 517.048C335.404 506.275 340.388 495.894 349.432 488.102C351.89 485.989 354.652 484.22 357.121 482.118C357.948 481.418 358.711 480.2 358.815 479.155C359.705 470.232 361.41 461.648 366.641 454.016C369.484 449.871 371.465 445.128 374.353 441.01C376.472 437.996 379.67 435.762 381.961 432.839C389.105 423.732 397.121 415.688 407.123 409.635C414.267 405.312 421.817 402.331 429.971 400.758C430.253 400.706 430.603 400.569 430.815 400.678C431.952 401.263 433.635 401.654 434.054 402.596C434.812 404.295 433.474 405.122 431.815 405.8C425.372 408.435 418.728 410.772 412.693 414.172C402.8 419.747 394.221 427.068 387.359 436.285C385.378 438.949 382.966 441.326 380.56 443.635C371.838 451.995 366.084 461.837 365.051 474.091C364.965 475.124 365.039 476.175 365.039 477.352L365.034 477.347ZM461.576 589.944C461.72 564.794 439.48 540.504 412.475 541.044C380.623 541.681 361.439 566.051 362.208 592.913C362.938 618.511 385.211 640.36 413.52 640.36C441.312 640.36 462.265 614.199 461.576 589.944ZM394.611 516.646C397.046 512.54 398.855 508.871 401.238 505.632C404.505 501.188 409.547 500.619 414.445 501.423C419.216 502.21 421.95 505.65 422.937 510.416C423.488 513.08 424.143 515.721 424.803 518.592C430.804 516.841 436.517 515.25 441.117 511.254C448.943 504.449 449.684 495.584 442.403 489.893C438.498 486.844 433.83 484.438 429.139 482.796C420.968 479.936 412.291 479.707 403.684 479.425C391.677 479.029 379.831 479.471 368.513 484.306C365.728 485.495 365.527 486.781 366.584 489.25C369.845 496.876 374.548 503.399 381.025 508.578C385.343 512.029 390.041 514.877 394.617 516.652L394.611 516.646ZM271.821 626.12C271.821 629.766 274.899 632.723 278.701 632.735C282.117 632.746 285.723 628.922 285.689 625.321C285.654 621.256 282.732 618.454 278.528 618.448C275.215 618.448 271.816 622.335 271.821 626.12ZM410.747 533.034C415.691 534.102 416.581 533.66 416.506 528.986C416.414 523.381 415.834 517.783 415.312 512.196C415.203 511.03 414.674 509.594 413.83 508.9C412.929 508.159 411.43 508.142 410.19 507.809C409.983 508.762 409.541 509.738 409.604 510.668C409.903 514.82 410.471 518.96 410.706 523.117C410.896 526.425 410.747 529.749 410.747 533.034ZM302.014 557.558C304.563 559.827 307.027 562.037 309.507 564.219C310.15 564.782 310.788 565.534 311.546 565.735C312.459 565.976 313.871 566.086 314.376 565.575C314.887 565.058 314.979 563.266 314.503 562.795C312.022 560.355 309.461 557.932 306.607 555.968C304.81 554.733 302.967 555.612 302.008 557.558H302.014ZM308.502 570.409C309.989 568.365 308.91 567.131 307.721 565.982C305.281 563.622 302.806 561.308 299.688 558.357C299.499 559.959 298.844 561.423 299.298 562.33C301.238 566.212 304.718 568.457 308.496 570.409H308.502ZM404.407 527.194C403.891 527.206 403.368 527.211 402.851 527.223V533.114C403.23 533.131 403.603 533.149 403.982 533.166C404.126 531.173 404.27 529.187 404.413 527.2L404.407 527.194ZM404.769 519.528C404.488 517.817 404.275 516.525 403.959 514.584C401.525 517.938 401.697 518.834 404.769 519.528Z" fill="black"/>
<path d="M404.482 659.689C404.872 656.772 406.584 654.866 409.294 653.568C412.136 652.207 414.525 652.971 416.638 654.877C418.786 656.818 419.704 659.195 418.407 662.078C416.914 665.397 414.749 669.29 411.309 669.106C407.68 668.917 406.009 664.673 404.729 661.211C404.568 660.775 404.574 660.275 404.482 659.689ZM409.225 659.551C408.967 660.005 408.702 660.453 408.444 660.907C409.369 661.326 410.31 662.061 411.218 662.026C411.717 662.009 412.527 660.7 412.532 659.965C412.538 659.408 411.579 658.57 410.902 658.374C410.488 658.26 409.793 659.127 409.225 659.551Z" fill="black"/>
<path d="M477.671 547.281C477.694 549.394 475.65 551.513 473.52 551.576C471.188 551.645 469.023 549.693 468.92 547.419C468.811 545.053 470.798 542.969 473.175 542.957C475.472 542.946 477.648 545.036 477.671 547.281Z" fill="black"/>
<path d="M363.822 527.746C363.77 529.796 361.663 532.317 360.4 531.691C358.987 530.99 357.442 529.612 356.966 528.188C356.357 526.385 358.895 524.002 360.796 524.186C363.001 524.398 363.764 525.926 363.822 527.74V527.746Z" fill="black"/>
<path d="M309.972 611.139C308.944 609.646 307.325 608.257 307.049 606.638C306.728 604.743 308.336 603.186 310.443 603.37C312.556 603.554 314.078 605.087 313.745 607.212C313.527 608.601 312.171 609.813 311.322 611.111L309.972 611.145V611.139Z" fill="black"/>
<path d="M493.91 485.931C494.295 482.969 495.3 481.631 497.453 481.476C499.227 481.349 501.306 483.296 500.686 484.927C500.169 486.27 498.618 487.878 497.332 488.073C496.23 488.24 494.846 486.569 493.91 485.931Z" fill="black"/>
<path d="M485.813 509.859C484.142 511.375 482.787 513.339 482.024 513.132C480.749 512.787 479.015 511.042 479.026 509.899C479.038 508.831 480.927 507.309 482.259 506.925C482.965 506.718 484.252 508.504 485.813 509.859Z" fill="black"/>
<path d="M347.204 551.978C347.015 554.791 346.245 556.445 344.115 556.06C342.938 555.848 341.169 554.585 341.077 553.649C340.888 551.742 342.243 550.123 344.413 550.376C345.51 550.502 346.504 551.553 347.204 551.978Z" fill="black"/>
<path d="M476.861 479.857C475.168 481.166 473.973 482.647 473.382 482.435C472.17 482.004 471.004 480.804 470.419 479.621C470.229 479.237 471.992 477.158 472.75 477.221C473.927 477.319 475.007 478.582 476.867 479.857H476.861Z" fill="black"/>
<path d="M487.823 473.105C488.38 473.811 489.552 474.856 489.379 475.16C488.673 476.441 487.565 477.497 486.6 478.634C485.974 477.957 484.734 477.147 484.843 476.625C485.107 475.367 486.009 474.242 486.652 473.064C487.042 473.076 487.433 473.093 487.823 473.105Z" fill="black"/>
<path d="M412.297 433.219C411.459 431.881 410.448 430.957 410.609 430.354C410.798 429.653 411.97 428.993 412.819 428.815C413.152 428.746 414.157 430.038 414.146 430.704C414.134 431.365 413.233 432.014 412.291 433.225L412.297 433.219Z" fill="black"/>
<path d="M512.497 437.428C511.682 438.393 511.217 438.95 510.752 439.507C509.879 438.617 509.006 437.733 508.133 436.843C508.771 436.28 509.609 435.131 510.005 435.263C510.872 435.562 511.515 436.509 512.503 437.428H512.497Z" fill="black"/>
<path d="M452.612 444.583C451.883 445.031 451.085 445.927 450.448 445.823C449.644 445.691 448.972 444.75 448.243 444.158C448.857 443.463 449.42 442.275 450.103 442.2C450.878 442.114 451.768 443.021 452.607 443.492C452.607 443.854 452.607 444.221 452.612 444.583Z" fill="black"/>
<path d="M462.822 443.543C461.811 444.531 461.157 445.168 460.497 445.805C459.825 445.03 458.808 444.336 458.613 443.457C458.515 442.998 459.779 441.93 460.588 441.706C461.025 441.585 461.794 442.659 462.816 443.543H462.822Z" fill="black"/>
<path d="M486.79 447.098C487.341 444.204 489.632 444.99 491.395 444.663C491.573 445.013 491.745 445.364 491.923 445.714C490.384 446.489 488.851 447.259 487.312 448.034L486.79 447.098Z" fill="black"/>
<path d="M426.514 587.257C434.347 591.891 436.994 596.841 436.006 603.743C435.024 610.599 430.08 616.215 422.891 617.57C418.343 618.431 413.606 618.431 408.949 618.517C403.408 618.621 397.861 618.397 392.32 618.351C390.752 618.339 389.156 618.454 388.593 616.519C388.077 614.733 388.915 613.499 390.471 612.81C395.105 610.76 396.07 607.159 395.903 602.37C395.593 593.579 395.765 584.765 396.035 575.968C396.133 572.73 394.961 571.082 392.056 569.945C390.948 569.508 390 568.004 389.518 566.769C388.68 564.622 389.707 563.646 392.033 563.611C400.83 563.49 409.627 563.112 418.424 563.117C424.126 563.117 428.857 565.334 431.631 570.662C434.226 575.652 433.439 581.17 429.518 585.201C428.8 585.936 427.795 586.396 426.514 587.257ZM407.382 592.821V610.714C410.838 610.513 414.071 610.536 417.241 610.088C421.559 609.473 424.022 606.2 424.063 601.584C424.103 597.157 421.49 593.453 417.339 592.907C414.18 592.494 410.919 592.827 407.382 592.827V592.821ZM407.387 585.913C411.114 585.069 414.519 584.69 417.603 583.485C420.416 582.388 421.651 578.948 421.111 575.985C420.566 572.982 418.694 570.777 415.983 570.559C413.715 570.375 411.395 570.559 409.133 570.852C408.484 570.938 407.479 571.954 407.462 572.569C407.313 576.743 407.382 580.929 407.382 585.913H407.387Z" fill="black"/>
<path d="M376.403 615.21C370.959 610.014 368.479 603.399 367.669 596.135C366.452 585.196 368.789 575.09 375.352 566.092C377.454 563.215 378.717 559.627 382.662 557.841C382.869 559.678 383.225 561.326 383.213 562.974C383.179 566.265 382.409 567.068 379.159 566.954C377.023 566.879 375.783 567.855 375.392 569.687C373.899 576.641 371.987 583.577 371.361 590.623C370.931 595.44 372.332 600.436 373.021 605.334C373.124 606.08 373.825 606.747 374.313 607.562C375.593 606.787 376.598 606.069 377.695 605.535C379.383 604.72 380.853 604.771 381.548 606.919C382.162 608.842 381.898 610.324 379.687 610.921C379.504 610.973 379.32 611.093 379.142 611.088C375.984 610.996 375.536 612.707 376.351 615.268L376.414 615.21H376.403Z" fill="black"/>
<path d="M450.069 570.56C458.062 582.015 458.619 599.081 448.903 614.033C447.519 612.925 446.09 611.874 444.769 610.703C442.644 608.814 442.346 606.735 444.051 605.305C446.026 603.646 447.749 604.427 449.253 606.161C449.483 606.425 449.73 606.666 450.23 607.2C452.446 596.979 453.457 587.131 450.408 576.876C449.586 577.318 448.765 578.036 447.852 578.185C446.371 578.426 444.643 578.725 443.379 578.174C442.529 577.806 441.645 575.779 441.955 574.912C442.374 573.735 443.787 572.701 445.016 572.087C446.497 571.341 448.237 571.094 450.075 570.565L450.069 570.56Z" fill="black"/>
<path d="M433.485 552.741C439.813 555.785 444.166 560.281 448.03 566.436C446.032 566.436 444.677 566.453 443.322 566.436C440.738 566.396 439.566 565.064 439.05 562.049C438.906 561.222 438.292 559.976 437.654 559.804C433.336 558.65 432.934 558.156 433.485 552.741Z" fill="black"/>
<path d="M427.967 624.725C429.644 626.091 431.154 627.062 432.176 628.4C432.371 628.652 430.649 630.404 429.764 631.426C429.529 631.696 429.139 631.897 428.783 631.994C427.106 632.471 425.418 632.901 423.735 633.349C423.419 631.523 422.346 629.336 422.994 627.975C423.678 626.551 426.015 625.913 427.967 624.725Z" fill="black"/>
<path d="M443.258 622.416C441.289 623.645 439.388 624.834 437.482 626.028C436.644 624.495 435.156 622.956 435.174 621.434C435.191 620.148 436.764 618.058 437.976 617.782C440.749 617.151 441.708 619.746 443.253 622.416H443.258Z" fill="black"/>
<path d="M413.761 547.028C415.535 547.246 416.701 548.423 416.58 550.76C416.454 553.172 414.938 554.705 412.618 554.734C410.93 554.751 409.133 552.896 409.231 551.231C409.391 548.595 410.982 546.941 413.755 547.028H413.761Z" fill="black"/>
<path d="M412.745 627.648C415.271 627.815 416.029 629.411 416.075 631.53C416.121 633.821 414.554 635.423 412.417 635.383C410.557 635.349 409.007 633.454 409.053 631.163C409.104 628.734 410.844 628.062 412.745 627.648Z" fill="black"/>
<path d="M381.668 592.488C381.726 595.141 380.285 596.915 378.309 596.892C376.397 596.869 374.646 594.963 374.772 592.804C374.893 590.691 375.903 588.991 378.206 588.974C380.514 588.957 381.496 590.587 381.663 592.488H381.668Z" fill="black"/>
<path d="M449.85 593.556C449.695 595.038 449.035 596.462 446.744 596.318C444.671 596.186 442.363 594.102 442.455 592.419C442.546 590.731 444.671 588.888 446.434 588.968C448.478 589.066 449.925 590.817 449.856 593.556H449.85Z" fill="black"/>
<path d="M399.435 634.165C397.752 633.792 395.886 633.264 395.731 630.835C395.599 628.751 397.477 626.569 399.406 627.011C400.807 627.332 402.708 628.509 403.064 629.698C403.672 631.737 401.439 634.16 399.435 634.165Z" fill="black"/>
<path d="M424.028 548.097C426.25 548.889 428.524 549.699 430.884 550.543C428.151 555.32 426.532 556.463 424.384 555.412C422.673 554.58 422.42 551.318 424.028 548.097Z" fill="black"/>
<path d="M393.549 555.595C392.969 557.944 391.562 559.362 389.995 558.897C388.318 558.397 387.014 556.646 385.55 555.434C387.301 554.125 389.059 552.81 390.81 551.501C391.723 552.868 392.636 554.228 393.549 555.595Z" fill="black"/>
<path d="M402.84 551.363C402.977 554.154 401.381 555.802 399.659 555.147C398.091 554.55 397.189 552.207 395.995 550.634C397.459 549.796 398.86 548.441 400.411 548.234C402.909 547.901 402.679 550.192 402.84 551.363Z" fill="black"/>
<path d="M380.354 579.115C377.551 579.155 375.834 577.398 375.857 575.21C375.88 573.069 377.144 572.144 379.182 572.161C381.14 572.179 382.725 572.965 382.65 575.09C382.587 576.962 382.111 578.949 380.359 579.115H380.354Z" fill="black"/>
<path d="M376.346 615.267C378.039 618.299 381.318 616.709 383.77 617.714V624.346C379.016 622.87 378.332 618.546 376.403 615.216L376.34 615.273L376.346 615.267Z" fill="black"/>
<path d="M385.734 626.465C387.411 623.881 389.684 622.876 391.487 624.272C392.487 625.047 391.964 627.786 392.125 629.635C391.723 629.819 391.321 630.002 390.913 630.186C389.208 628.957 387.502 627.734 385.734 626.465Z" fill="black"/>
</svg>
