<svg width="800" height="800" viewBox="0 0 800 800" fill="none" xmlns="http://www.w3.org/2000/svg">
<path d="M334.267 538.905C330.48 527.232 324.976 515.678 329.678 503.105C331.505 498.221 334.386 493.727 337.127 489.227C333.974 505.261 336.214 520.785 340.148 536.218C341.438 541.27 342.282 546.489 344.131 551.331C346.384 557.234 350.618 561.818 356.721 566.074C353.652 555.413 352.096 545.798 357.635 536.742C358.06 536.721 358.486 536.7 358.904 536.679C359.239 538.298 359.658 539.909 359.902 541.542C360.976 548.777 361.764 556.061 363.111 563.248C364.764 572.039 369.765 579.107 376.252 584.94C400.596 606.82 427.787 623.873 459.894 631.736C475.442 635.545 491.256 638.357 507.39 638.566C509.231 638.587 511.073 638.992 512.907 639.243C515.872 639.648 517.713 640.96 517.023 644.016C510.41 644.016 503.832 644.371 497.303 643.953C465.049 641.916 434.469 633.703 406.777 616.826C395.435 609.911 385.027 601.343 374.718 592.887C360.885 581.542 347.025 569.974 336.276 555.594C326.162 542.065 315.971 528.167 313.006 510.877C310.293 495.074 311.73 479.585 319.11 465.065C329.189 445.236 345.519 431.735 364.589 421.283C382.335 411.557 399.857 401.496 415.168 388.142C433.653 372.018 448.81 353.479 455.632 329.261C456.574 325.919 457.795 322.654 458.869 319.354C458.89 319.284 458.757 319.159 458.346 318.475C456.455 322.431 454.579 325.989 453.024 329.687C443.739 351.742 430.193 370.79 411.471 385.644C401.322 393.696 390.238 400.666 379.112 407.364C366.075 415.213 352.355 422.044 340.978 432.307C330.696 441.58 321.23 451.641 314.778 464.179C308.507 476.361 306.359 489.206 308.082 502.693C310.921 524.936 320.93 543.879 335.09 560.925C351.483 580.649 370.958 597.038 391.556 611.99C401.636 619.303 413.194 624.577 424.097 630.738C441.193 640.408 460.215 642.99 479.223 645.446C490.502 646.904 501.83 647.944 513.138 649.172C514.505 649.318 515.865 649.493 517.33 649.667C516.765 652.891 514.275 653.539 512.105 653.742C505.409 654.37 498.643 655.298 491.974 654.907C453.233 652.66 417.798 640.506 386.276 617.774C375.757 610.183 366.152 601.329 355.926 593.32C352.71 590.801 349.013 588.582 345.184 587.235C337.323 584.466 329.224 582.386 321.223 580.007C320.7 579.854 320.205 579.581 319.717 579.379C321.021 574.977 322.953 574.704 337.657 576.651C337.818 576.351 337.978 576.058 338.146 575.758C336.06 574.739 334.065 573.239 331.861 572.814C327.438 571.948 322.911 571.648 318.419 571.146C313.097 570.553 307.796 570.148 303.227 572.193C302.815 577.314 302.99 582.135 301.957 586.677C298.149 603.402 283.661 615.87 266.606 617.558C261.521 618.061 256.429 618.619 251.33 618.863C242.666 619.268 235.454 622.777 229.113 628.491C227.962 629.531 226.365 630.068 224.97 630.843C224.482 629.029 223.407 627.152 223.589 625.408C224.663 615.242 226.553 605.139 227.139 594.959C227.662 585.84 230.794 577.809 235.754 570.651C247.996 552.998 262.825 546.077 283.731 551.394C289.897 552.964 295.875 558.741 297.235 563.639C295.282 564.281 293.308 564.908 291.348 565.571C286.325 567.281 281.352 569.123 276.274 570.651C274.823 571.09 272.856 571.153 271.552 570.511C263 566.297 254.322 566.325 245.477 569.255C244.299 569.646 243.21 570.302 242.122 571.23C251.951 569.172 261.633 568.167 271.28 573.065C266.641 576.672 262.497 579.623 256.296 579.351C251.239 579.128 245.924 580.293 241.041 581.849C235.586 583.586 232.747 588.261 231.555 594.129C237.302 583.551 246.461 580.621 257.81 582.142C245.596 592.231 232.622 601.587 230.32 618.926C236.13 609.702 240.853 599.613 250.925 593.18C250.967 601.427 244.982 607.148 243.462 614.335C243.803 614.481 244.145 614.635 244.487 614.781C247.745 608.062 251.414 601.504 254.155 594.582C256.896 587.675 262.358 583.935 268.782 579.449C269.271 592.726 264.199 603.255 258.34 613.909C259.303 612.967 260.447 612.151 261.193 611.062C267.283 602.16 271.21 592.454 271.496 581.542C271.559 579.281 272.165 577.865 274.244 576.909C277.355 575.472 280.375 573.832 284.198 571.9C286.277 585.84 283.724 597.792 276.992 609.395C277.795 608.816 278.883 608.411 279.343 607.637C280.989 604.86 282.998 602.111 283.814 599.069C286.019 590.891 288.111 582.623 286.325 573.986C286.186 573.302 287.19 571.955 287.979 571.565C299.697 565.85 311.751 562.969 324.648 567.497C326.232 568.055 328.003 568.062 330.717 568.488C328.073 563.764 325.144 560.645 321.516 558.155C308.598 549.287 295.652 540.453 282.712 531.606C282.615 531.544 282.524 531.467 282.44 531.39C278.646 528.069 275.493 526.981 270.177 530.176C245.422 545.051 220.792 535.36 205.341 514.596C201.372 509.259 198.289 503.105 195.68 496.951C191.753 487.678 186.473 479.522 179.1 472.705C178.59 472.231 178.137 471.693 177.711 471.142C177.509 470.884 177.432 470.528 177 469.544C179.274 468.917 181.374 468.114 183.55 467.772C193.839 466.154 204.12 464.402 214.465 463.188C227.348 461.674 240.372 461.353 252.641 466.181C267.213 471.917 278.597 481.427 280.689 497.97C281.617 505.296 280.034 512.949 279.441 520.443C279.308 522.124 278.959 523.408 280.773 524.594C292.331 532.151 303.806 539.839 315.308 547.479C316.131 548.024 317.017 548.47 318.531 548.463C317.45 546.642 316.459 544.758 315.28 543C303.297 525.062 298.442 505.456 301.434 484.001C303.604 468.449 310.628 455.269 320.603 443.296C331.31 430.444 343.942 420.188 358.388 411.822C374.348 402.585 390.859 394.177 405.27 382.469C408.507 379.846 411.304 376.685 414.38 373.86C417.721 370.79 419.032 366.973 418.593 362.564C417.874 355.279 417.233 347.981 416.145 340.753C415.656 337.495 414.178 334.383 412.894 330.42C414.889 331.62 416.619 332.415 418.049 333.573C424.299 338.625 427.298 345.323 427.717 353.284C427.814 355.175 428.149 357.052 428.484 359.891C440.719 345.302 447.067 329.059 452.459 311.784C451.252 311.874 450.512 311.895 449.787 311.993C432.523 314.288 417.519 308.651 403.847 298.681C399.836 295.757 399.648 294.473 401.141 290.747C406.993 293.894 412.817 298.136 419.883 295.422C424.034 293.831 427.877 291.438 431.86 289.408C431.86 288.94 431.867 288.48 431.874 288.012C429.823 286.917 427.884 285.368 425.694 284.796C411.68 281.105 404.426 271.065 400.22 258.101C399.85 256.964 400.171 255.597 400.666 254.027C405.744 259.001 411.227 262.623 419.018 263.502C417.665 261.311 416.703 259.56 415.559 257.948C407.921 247.14 406.505 235.83 412.636 223.836C415.433 218.373 418.237 212.917 420.832 207.363C421.411 206.121 421.313 204.461 421.195 203.017C419.681 185.169 425.254 170.224 439.659 159.228C451.712 150.025 465.405 149.083 479.76 152.279C480.918 152.537 482.683 151.881 483.611 151.044C490.865 144.443 499.501 141.017 509.085 140.138C512.817 139.796 516.835 140.075 520.413 141.122C527.528 143.208 534.496 145.846 541.395 148.588C547.875 151.162 553.141 155.495 557.731 160.763C559.133 162.375 561.275 163.658 563.326 164.342C582.55 170.754 600.1 189.216 600.623 211.291C600.644 212.303 601.174 213.636 601.934 214.25C612.049 222.497 617.266 233.214 618.64 246.073C619.171 251.026 620.391 255.903 620.977 260.857C621.717 267.116 619.896 272.732 616.29 277.923C607.166 291.048 594.833 298.534 578.602 299.657C579.474 302.295 580.506 304.744 581.078 307.29C582.382 313.123 580.136 318.028 574.849 320.659C570.092 323.017 564.965 323.743 559.991 321.628C553.602 318.907 547.436 315.649 541.123 312.753C535.968 310.388 530.618 308.421 525.561 305.874C521.159 303.655 516.283 301.597 512.956 298.171C505.032 290.022 485.724 287.391 473.092 296.504C471.02 297.997 469.025 299.615 467.114 301.304C465.042 303.132 464.784 305.183 466.744 307.36C475.561 317.184 495.308 324.733 508.645 318.956C515.6 315.942 522.791 313.465 529.76 310.793C523.447 317.561 514.065 318.872 505.953 322.849C515.732 321.719 525.435 320.352 534.182 314.651C532.906 316.068 531.636 317.477 530.36 318.893C530.52 319.172 530.674 319.445 530.834 319.724C534.154 318.419 537.482 317.107 540.802 315.803L541.325 316.689C536.184 319.556 531.036 322.431 525.896 325.298C526 325.675 526.105 326.052 526.209 326.422C527.625 326.512 529.048 326.68 530.464 326.673C537.084 326.624 543.711 326.512 550.33 326.464C551.488 326.457 552.737 326.38 553.783 326.757C554.955 327.175 555.946 328.082 557.02 328.78C555.925 329.471 554.906 330.552 553.727 330.796C539.888 333.587 526.056 333.259 512.21 330.594C508.806 329.938 505.297 329.708 501.823 329.61C500.91 329.582 499.34 330.615 499.124 331.438C496.515 341.234 494.046 351.079 497.289 361.245C497.324 361.356 497.373 361.475 497.366 361.587C497.241 363.191 497.101 364.796 496.969 366.408C495.664 365.445 494.234 364.615 493.097 363.484C491.702 362.096 490.691 360.331 489.289 358.956C480.5 350.36 475.561 339.797 473.196 327.88C473.064 327.224 472.841 326.589 472.331 324.782C464.428 336.79 457.397 348.309 449.515 359.201C441.598 370.134 432.83 380.453 423.908 391.7C427.473 391.219 430.639 391.058 433.667 390.34C457.467 384.681 481.232 378.897 505.018 373.183C509.859 372.018 514.784 371.159 519.583 369.855C524.996 368.382 529.111 365.152 532.711 360.68C536.903 355.468 541.527 350.374 546.794 346.3C558.122 337.543 571.11 336.169 584.845 339.476C596.521 342.288 606.134 348.149 615.257 356.096C625.295 364.838 630.366 376.923 638.876 386.565C640.878 388.833 640.069 391.128 637.53 391.1C626.725 390.961 617.476 395.817 608.219 400.254C596.654 405.794 584.552 407.399 571.989 407.12C565.021 406.966 558.038 407.015 551.077 406.722C539.484 406.227 529.279 402.082 523.503 391.756C517.065 380.244 507.627 378.471 496.25 380.809C487.384 382.63 478.616 384.904 469.799 386.935C456.142 390.088 442.491 393.277 428.791 396.277C426.831 396.703 424.613 396.417 422.604 396.012C420.1 395.51 418.147 395.942 416.207 397.659C414.038 399.57 411.548 401.119 409.274 402.919C408.374 403.631 407.676 404.601 406.212 406.185C418.063 406.331 428.024 403.268 437.671 398.824C437.95 399.026 438.236 399.236 438.515 399.438C437.05 401.426 435.941 403.882 434.057 405.327C425.861 411.627 416.71 415.123 406.135 413.588C403.721 413.239 401.287 413.022 398.88 412.639C395.197 412.046 392.142 413.371 389.045 415.234C382.098 419.427 374.99 423.356 367.966 427.423C348.232 438.866 331.373 453.19 323.176 475.266C316.634 492.904 317.812 510.396 326.58 527.19C328.715 531.278 330.989 535.304 333.193 539.358C333.535 539.225 333.877 539.1 334.219 538.967L334.267 538.905ZM560.821 284.056L560.738 283.98C561.519 284.419 562.321 285.27 563.074 285.236C570.343 284.866 577.618 284.44 584.873 283.826C587.279 283.624 589.644 282.856 592.029 282.354C592.12 282.828 592.204 283.303 592.294 283.784C583.756 287.517 574.807 289.143 564.707 287.761C572.38 292.394 575.016 292.61 586.33 291.103C599.277 289.38 607.291 281.489 612.802 270.43C613.8 268.421 614.651 265.832 614.281 263.739C612.46 253.252 610.619 242.731 607.912 232.446C606.908 228.63 603.532 225.434 601.307 222.064C598.251 226.885 595.866 231.128 592.992 235C591.395 237.149 590.871 238.865 591.618 241.544C595.684 256.078 589.288 267.597 575.267 273.116C569.352 275.447 564.065 279.382 558.513 282.626C558.185 282.814 558.059 283.345 557.438 284.384C558.966 284.245 559.894 284.154 560.821 284.07V284.056ZM464.561 293.852C464.826 294.124 465.084 294.39 465.349 294.662C466.793 293.748 468.286 292.896 469.681 291.906C484.783 281.161 500.812 281.349 515.732 292.373C518.334 294.299 520.964 296.322 523.866 297.683C535.515 303.146 547.261 308.393 559.015 313.633C560.682 314.379 562.719 315.3 564.33 314.951C567.601 314.247 571.55 313.542 573.628 311.337C575.881 308.951 573.628 305.427 571.919 302.748C568.801 297.864 564.225 294.606 559.008 292.534C546.843 287.698 534.643 282.884 522.261 278.642C505.088 272.753 488.486 273.716 473.155 284.44C469.555 286.959 466.319 289.778 464.554 293.845L464.561 293.852ZM449.285 187.464V217.215C453.289 214.236 457.034 211.375 454.942 205.493C450.652 193.416 458.262 179.552 468.446 174.089C469.346 173.608 470.539 173.036 470.86 172.219C472.61 167.768 474.131 163.226 475.735 158.711C462.677 154.888 443.697 158.328 434.434 173.559C424.669 189.613 426.761 204.44 436.673 216.315C436.29 210.977 435.864 205.04 435.439 199.109C435.62 199.109 435.808 199.123 435.99 199.13L442.442 226.871C442.916 226.788 443.391 226.704 443.865 226.62C441.626 215.213 439.477 203.805 442.421 192.23C442.916 195.384 442.832 198.558 442.937 201.733C443.042 204.865 443.216 208.012 443.593 211.124C443.963 214.194 444.611 217.236 445.141 220.292C445.518 220.25 445.902 220.208 446.278 220.159C446.278 214.613 446.125 209.052 446.32 203.512C446.515 198.049 446.46 192.474 449.271 187.471L449.285 187.464ZM463.926 284.077C466.081 282.18 467.679 280.261 469.716 279.103C472.603 277.463 472.631 275.865 470.867 273.388C466.088 266.676 465.454 258.806 464.589 250.964C467.295 259.455 469.974 267.883 472.827 276.835C481.434 271.246 490.147 269.014 499.759 268.002C486.512 251.326 467.888 239.263 459.036 218.031C456.818 222.064 454.942 224.876 453.637 227.939C444.562 249.233 449.048 269.167 460.18 288.529C461.234 286.868 464.414 285.954 462.217 283.121C456.121 275.279 453.895 266.097 452.87 256.531C451.887 247.336 453.442 238.565 458.269 230.423C451.587 248.989 456.616 266.293 463.933 284.07L463.926 284.077ZM425.303 210.964C423.552 215.115 422.283 219.273 420.169 222.95C412.755 235.872 415.412 249.366 425.199 260.139C428.658 263.948 431.274 268.1 432.432 273.039C435.222 284.887 443.216 292.485 452.947 298.715C454 299.385 455.291 299.692 457.299 300.502C456.476 298.143 456.058 296.727 455.486 295.366C452.982 289.373 450.289 283.449 447.925 277.4C443.663 266.509 440.293 255.45 442.728 243.491C442.93 242.486 442.491 241.168 441.954 240.219C436.464 230.472 430.898 220.773 425.296 210.964H425.303ZM585.214 402.989C585.626 402.452 586.044 401.915 586.456 401.378C576.9 390.807 567.804 379.804 556.127 371.09C556.845 370.497 557.097 370.106 557.369 370.092C564.163 369.659 570.615 370.406 575.707 375.639C579.188 379.225 582.738 382.735 586.128 386.398C589.679 390.235 593.062 394.226 596.542 398.133C597.651 399.382 598.795 400.708 600.958 397.959C592.399 389.244 583.777 380.474 575.163 371.704C583.08 372.345 591.053 371.962 596.835 378.918C600.763 383.642 605.359 387.807 609.761 392.119C610.556 392.893 611.867 393.144 612.942 393.64C613.207 393.207 613.472 392.768 613.737 392.335C608.101 386.628 602.471 380.92 596.619 374.997C609.049 375.381 618.41 383.279 629.543 386.432C628.957 385.03 628.322 383.697 627.276 382.972C620.782 378.471 614.218 374.083 606.364 372.143C603.309 371.39 600.365 370.183 596.668 368.955C603.922 365.592 610.654 364.587 617.831 365.292C616.359 364.315 614.832 363.687 613.241 363.45C607.11 362.529 601.593 364.775 596.033 366.896C590.404 369.038 585.117 367.65 579.32 365.145C588.444 358.231 598.454 357.191 609.161 356.612C600.246 353.186 586.714 356.2 579.222 362.898C575.881 365.885 568.466 366.352 564.253 363.575C571.989 354.575 582.501 350.933 593.341 347.751C592.001 347.486 590.732 347.444 589.469 347.493C577.786 347.898 569.359 354.477 561.512 362.208C560.48 363.226 559.189 364.44 557.878 364.629C553.253 365.285 548.566 365.536 543.906 365.947C552.304 355.998 561.079 347.207 574.716 345.079C573.907 344.416 573.761 344.186 573.586 344.165C562.189 342.727 543.515 353.94 538.974 364.685C538.319 366.227 536.582 367.496 535.061 368.431C533.017 369.687 530.702 370.504 528.079 371.697C532.766 373.148 536.959 373.699 540.356 375.639C548.14 380.083 555.234 385.511 560.807 392.754C563.13 395.768 566.067 398.308 568.787 401.008C569.178 401.391 569.903 401.44 570.475 401.643C570.65 401.405 570.817 401.168 570.992 400.938C562.237 389.858 553.267 379.002 539.33 372.059C541.269 371.438 542.092 370.964 542.929 370.943C548.761 370.797 554.034 371.913 558.757 375.925C567.239 383.132 574.472 391.393 581.183 400.198C582.124 401.433 583.847 402.082 585.207 403.003L585.214 402.989ZM588.744 228.895C591.604 225.65 593.104 221.904 593.731 217.731C595.636 204.956 590.453 194.476 582.599 185.211C572.763 173.608 560.487 167.286 544.743 170.37C542.86 170.74 541.06 171.515 538.444 172.345C549.298 177.571 557.564 184.164 562.956 193.807C565.069 197.581 567.95 200.344 571.305 202.926C579.913 209.554 587.363 217.062 588.744 228.895ZM480.681 178.694C480.5 178.275 480.318 177.857 480.13 177.438C477.207 178.136 474.013 178.303 471.411 179.629C462.677 184.074 458.527 194.309 461.492 204.412C465.893 219.42 473.908 232.195 485.306 243.072C493.432 250.824 500.742 259.427 508.422 267.646C509.12 268.393 509.866 269.104 510.592 269.83C511.017 269.551 511.449 269.265 511.875 268.986C509.455 264.192 507.306 259.239 504.565 254.641C497.122 242.179 489.212 229.997 481.888 217.466C474.557 204.928 471.843 191.958 480.674 178.694H480.681ZM208.592 511.666C208.501 511.966 208.41 512.266 208.313 512.566C209.756 513.263 211.145 514.366 212.658 514.575C215.044 514.903 217.597 515.043 219.92 514.533C226.707 513.04 233.647 511.777 240.079 509.279C245.038 507.354 248.909 507.898 252.941 510.731C253.227 510.933 253.555 511.059 253.855 511.24C257.852 513.703 258.033 515.384 253.743 516.947C247.242 519.313 240.497 521.078 233.752 522.641C229.769 523.569 225.591 523.618 221.496 524.064C221.433 524.399 221.377 524.741 221.315 525.076C222.968 525.543 224.649 526.499 226.26 526.388C230.062 526.122 233.94 525.753 237.581 524.706C244.243 522.794 250.883 520.68 257.245 517.973C259.379 517.066 260.844 516.375 262.825 517.631C264.492 518.685 266.174 519.71 267.876 520.694C270.373 522.138 272.842 523.652 275.451 524.873C276.253 525.25 277.467 524.748 279.427 524.559C277.843 523.122 277.223 522.438 276.49 521.908C272.075 518.727 267.583 515.65 263.251 512.363C262.309 511.652 261.479 510.291 261.326 509.133C260.963 506.391 261.284 503.551 260.893 500.816C259.442 490.643 257.119 480.722 251.128 472.091C250.451 471.121 249.391 470.424 248.512 469.6C248.247 469.81 247.989 470.019 247.724 470.228C254.015 482.424 259.854 494.739 258.584 509.656C255.717 507.996 253.381 506.558 250.974 505.275C248.323 503.858 247.117 501.953 246.775 498.737C245.631 487.874 241.955 477.938 234.219 469.893C233.166 468.798 231.652 468.135 230.355 467.27C233.403 472.991 237.023 477.98 239.848 483.387C242.652 488.753 244.585 494.551 244.048 501.242C238.586 498.402 233.982 496.128 231.799 489.799C229.204 482.285 224.663 475.44 218.504 470.04C217.199 468.896 215.49 468.219 213.963 467.319C213.774 467.598 213.586 467.87 213.398 468.149C219.871 475.468 227.062 482.362 228.73 492.688C214.974 485.697 203.283 474.896 187.324 472.977C194.187 478.615 203.737 479.501 211.047 486.841C205.425 487.315 200.744 487.706 196.064 488.097C199.893 490.957 204.127 489.925 208.257 489.583C209.847 489.45 211.724 488.299 212.944 488.829C217.136 490.643 221.091 492.988 225.137 495.137C225.081 495.66 225.019 496.183 224.963 496.7C217.408 498.276 209.847 499.853 202.293 501.43C203.632 502.295 205.32 503.077 206.813 502.805C213.188 501.639 219.501 500.139 225.849 498.821C227.188 498.542 228.82 497.997 229.901 498.486C234.073 500.37 238.07 502.616 242.136 504.73C242.067 505.107 242.004 505.491 241.934 505.868C231.359 510.521 220.499 513.71 208.585 511.659L208.592 511.666ZM548.824 162.437C549.061 162.068 549.305 161.698 549.542 161.335C546.222 159.221 543.076 156.716 539.532 155.09C534.81 152.92 529.676 151.665 524.898 149.613C511.575 143.899 499.731 147.234 488.668 155.293C484.301 158.474 481.825 163.135 480.235 168.186C479.907 169.226 480.318 171.396 480.981 171.689C483.157 172.645 485.459 173.217 487.698 171.089C494.869 164.272 503.435 161.433 513.207 163.393C516.542 164.063 519.59 166.051 522.903 166.952C525.756 167.726 529.711 169.163 531.587 167.914C536.959 164.335 542.567 162.661 548.824 162.437ZM569.234 209.826C569.171 209.903 569.052 209.987 569.059 210.063C569.059 210.754 569.087 211.445 569.115 212.136C569.68 224.429 564.735 234.225 555.492 242.033C551.844 245.11 547.742 246.456 542.888 245.312C538.27 244.224 533.589 243.331 528.902 242.584C521.536 241.412 514.226 241.621 507.041 243.91C508.227 248.564 508.234 248.41 512.559 248.598C517.518 248.815 522.533 248.968 527.402 249.826C534.231 251.026 540.948 252.882 547.722 254.41C551.167 255.185 554.537 255.317 557.871 253.608C561.686 251.654 565.906 250.385 569.485 248.082C572.714 246.01 576.279 243.47 578.023 240.233C583.938 229.279 579.983 216.622 569.241 209.826H569.234ZM526.44 206.47C526.014 206.659 525.589 206.84 525.163 207.028C525.679 208.535 525.805 210.384 526.774 211.494C531.015 216.322 535.752 220.62 541.939 222.888C548.384 225.253 556.008 222.727 560.8 216.699C563.339 213.51 563.081 205.968 560.068 201.147C558.352 198.398 556.441 195.739 554.404 193.214C549.089 186.62 542.881 181.011 534.998 177.696C527.339 174.473 519.89 175.582 513.145 180.243C507.564 184.094 504.125 192.948 505.018 199.535C507.634 197.274 510.103 194.609 513.054 192.662C525.219 184.66 538.64 189.439 545.999 195.9C549.382 198.872 551.621 203.477 553.511 207.726C555.171 211.452 553.239 214.906 550.4 217.745C547.77 220.383 544.924 219.518 541.96 218.666C537.572 217.403 533.994 214.968 531.036 211.529C529.551 209.798 527.967 208.159 526.433 206.47H526.44ZM515.265 171.989C515.188 171.654 515.119 171.319 515.042 170.991C505.695 168.626 497.436 171.954 489.861 177.061C484.238 180.857 481.225 189.132 482.697 194.393C487.622 187.276 490.635 178.331 501.572 176.224C500.477 177.738 500.045 178.715 499.305 179.294C492.693 184.52 489.882 191.874 487.008 199.486C483.659 208.333 488.2 214.299 493.258 220.466C492.839 218.527 492.414 216.58 491.995 214.64C495.371 221.053 496.138 228.588 501.517 234.979C501.517 233.137 501.635 232.111 501.496 231.128C500.282 222.392 499.019 213.671 497.771 204.942C495.734 190.688 501.551 179.301 514.184 172.812C514.581 172.61 514.902 172.268 515.265 171.989ZM514.107 198.691C509.42 205.745 505.96 212.157 507.753 220.159C508.331 222.762 508.785 225.392 509.203 228.03C509.524 230.032 508.994 232.872 510.124 233.856C511.352 234.923 514.072 234.33 516.144 234.351C520.545 234.393 524.947 234.365 527.298 234.365C523.168 229.097 518.578 223.243 515.544 219.378C520.511 223.313 529.516 225.783 535.438 232.9C536.756 234.484 539.128 235.272 541.116 236.193C544.736 237.874 548.677 237.916 551.767 235.586C555.325 232.907 558.22 229.341 561.4 226.16C558.84 226.99 557.02 228.846 554.823 229.614C551.753 230.688 548.056 232.16 545.231 231.351C530.457 227.123 518.53 219.42 515.063 202.975C514.826 201.865 514.574 200.756 514.114 198.698L514.107 198.691ZM584.719 242.682C583.205 244.719 582.117 246.484 580.743 247.991C576.216 252.959 570.189 255.415 564.03 257.55C560.863 258.646 557.564 259.371 554.411 260.515C553.497 260.843 552.897 262.036 552.151 262.832C552.932 263.425 553.63 264.339 554.509 264.562C557.864 265.441 561.275 266.132 564.672 266.837C571.696 268.281 579.627 265.176 583.498 259.176C586.826 254.02 587.67 248.543 584.712 242.682H584.719ZM513.382 255.206C515.188 259.294 516.814 262.985 518.543 266.9C520.65 265.755 522.401 264.799 524.159 263.844C523.67 264.918 522.903 265.427 522.15 265.958C520.685 266.997 518.969 268.204 520.65 270.053C521.11 270.563 523.217 269.942 524.361 269.397C527.479 267.911 530.485 266.195 533.541 264.569C531.392 268.093 526.767 268.49 525.247 272.712C532.913 271.058 539.777 267.674 546.619 263.732C542.058 259.95 521.069 254.396 513.389 255.206H513.382ZM520.587 377.202C523.538 384.904 535.933 397.205 539.351 397.094C536.582 392.293 533.478 387.102 530.569 381.814C528.63 378.276 524.668 376.253 520.587 377.202ZM434.797 294.431C430.047 297.187 426.231 299.399 422.262 301.702C432.355 306.286 444.653 307.053 447.401 303.062C441.87 302.525 436.506 302.009 430.451 301.423C432.139 298.708 433.206 296.992 434.797 294.431ZM480.869 327.126C480.367 336.239 485.25 342.225 489.003 348.714C490.07 343.272 490.753 337.934 491.291 332.576C491.36 331.899 490.635 331.145 490.279 330.427C489.868 331.124 489.254 331.78 489.072 332.541C488.57 334.662 488.249 336.825 487.859 338.967C487.363 339.043 486.861 339.12 486.366 339.19C484.657 335.443 482.955 331.703 480.869 327.126ZM541.96 279.172C548.866 279.849 553.623 275.97 559.105 272.837C553.127 269.788 543.181 273.416 541.96 279.172ZM287.748 564.978C281.219 558.189 263.697 554.457 259.296 558.999C269.64 558.057 278.485 562.425 287.748 564.978ZM271.021 516.71C276.295 511.101 273.888 489.876 267.59 482.829C271.3 494.083 273.519 504.716 271.021 516.71ZM547.875 267.283C547.526 267.067 547.177 266.844 546.829 266.627C542.288 269.021 537.74 271.414 532.752 274.044C537.021 276.549 542.232 275.112 547.01 270.57C547.708 269.907 547.603 268.407 547.875 267.29V267.283ZM541.248 201.356C537.649 197.909 533.394 195.997 528.511 195.83C524.626 195.697 522.896 198.139 523.74 202.598C529.244 196.444 535.27 200.093 541.248 201.356ZM423.427 276.737C423.838 276.375 424.257 276.012 424.669 275.649C423.831 274.191 423.329 271.951 422.095 271.421C418.44 269.858 414.498 268.972 409.846 267.569C413.675 272.83 418.6 274.714 423.427 276.737ZM546.117 209.966C543.313 205.654 539.219 204.963 534.385 205.542C540.649 212.457 544.366 214.327 546.117 209.966ZM266.111 526.018C259.093 527.755 251.281 529.695 243.476 531.627C252.076 532.793 261.116 530.378 266.111 526.018ZM555.353 401.929L556.594 401.161C554.125 398.119 551.656 395.07 548.698 391.428C549.71 396.424 550.798 400.408 555.346 401.929H555.353Z" fill="black"/>
<path d="M351.007 409.582C350.456 402.342 350.498 395.34 349.298 388.56C346.592 373.286 345.023 357.719 339.185 343.149C337.525 339.01 335.238 335.115 333.236 331.108C332.866 331.24 332.49 331.373 332.12 331.498C332.643 333.373 333.18 335.233 333.682 337.114C336.709 348.41 340.162 359.614 342.617 371.028C344.535 379.947 345.149 389.145 346.502 398.189C346.892 400.802 347.687 403.388 348.58 405.889C350.596 411.561 350.414 412.021 343.475 414C342.163 408.175 340.545 402.433 339.653 396.58C338.955 392.002 337.372 388.33 333.94 385.083C329.539 380.909 325.926 376.024 324.559 369.885C324.294 368.687 324.225 367.439 324.029 365.906C330.355 367.774 331.973 373.843 336.333 377.334C335.789 357.761 329.449 340.459 316.259 324.955C315.946 326.091 315.729 326.558 315.695 327.039C314.99 337.094 310.701 345.741 305.323 354.019C303.384 357.008 301.913 360.304 300.106 363.391C299.583 364.283 298.634 364.924 297.881 365.677C297.079 364.812 295.719 364.025 295.58 363.063C294.743 357.329 294.443 351.503 293.466 345.797C292.65 341.03 291.151 336.376 289.944 331.672C289.4 329.554 288.249 328.76 285.906 329.15C277.229 330.592 268.553 332.516 259.813 332.948C252.134 333.331 244.33 332.244 236.658 331.212C234.251 330.885 232.11 328.62 230.053 326.704C240.968 324.704 251.876 328.397 262.52 325.29C256.549 322.684 250.223 321.172 244.427 316.196C254.82 316.405 262.938 321.778 272.738 323.116C266.244 319.555 260.392 316.343 254.541 313.137C254.694 312.873 254.848 312.601 255.001 312.336C266.112 315.165 275.548 324.077 288.026 321.45C277.264 319.193 266.133 314.127 262.122 309.124C263.936 309.953 265.714 310.873 267.576 311.59C275.032 314.454 282.446 317.444 290.014 319.966C292.301 320.726 295.245 320.788 297.526 320.057C303.224 318.224 308.734 315.778 314.286 313.514C314.872 313.277 315.29 312.636 316.448 311.577C304.661 310.747 294.715 306.476 285.055 301.396C285.145 301.097 285.236 300.797 285.327 300.497C295.573 303.528 305.811 306.553 316.148 309.612C317.069 307.11 315.674 306.608 313.63 305.863C305.037 302.72 296.535 299.313 288.012 295.975C287.622 295.822 287.322 295.438 287.21 294.547C296.417 297.236 305.616 299.933 315.178 302.727C315.004 299.975 312.891 299.661 311.21 298.943C304.709 296.156 298.209 293.383 291.716 290.582C291.095 290.317 290.537 289.899 290.251 288.798C298.244 291.683 306.244 294.574 314.118 297.417C314.446 295.473 313.972 294.428 311.342 293.16C306.676 290.902 301.954 288.756 297.526 285.864C302.247 287.683 306.976 289.495 312.207 291.509C310.394 286.289 305.421 285.579 302.164 282.61C304.995 283.753 307.834 284.903 311.042 286.199C310.701 281.844 310.491 277.809 309.961 273.824C309.878 273.21 308.329 272.36 307.437 272.346C295.691 272.123 285.424 275.984 278.659 285.704C272.514 294.533 264.577 300.246 255.147 305.103C246.778 309.416 239.413 315.709 231.699 321.262C227.172 324.523 222.625 326.056 217.136 323.589C211.151 320.9 208.933 316.796 210.663 310.448C211.144 308.678 211.807 306.95 212.546 304.713C210.74 304.574 209.184 304.483 207.636 304.323C193.45 302.853 181.955 296.735 173.893 284.743C171.221 280.771 169.966 276.353 170.001 271.587C170.084 260.954 171.675 250.543 175.029 240.44C177.317 233.534 181.467 227.918 187.026 223.235C188.121 222.309 189.237 220.678 189.279 219.34C189.648 206.533 195.395 196.172 203.828 187.085C208.403 182.152 213.453 177.664 218.168 172.856C227.653 163.171 239.182 160.662 252.079 163.192C254.666 163.7 256.34 163.401 258.077 161.303C264.689 153.318 273.854 150.614 283.618 148.461C294.485 146.064 304.765 146.406 314.878 151.067C321.079 153.924 325.794 158.328 329.504 164.042C330.809 166.049 332.789 167.93 334.896 169.038C342.589 173.079 348.824 178.633 353.679 185.775C358.937 193.517 359.76 201.913 357.012 210.714C356.148 213.473 355.276 216.337 353.769 218.755C350.889 223.354 351.767 227.751 353.644 232.238C356.81 239.826 358.756 247.659 358.205 255.944C358.003 259.037 357.522 262.11 357.103 265.748C368.193 264.047 377.044 260.138 380.14 248.223C380.517 248.265 380.901 248.314 381.277 248.355C381.703 249.575 382.623 250.864 382.456 251.993C381.933 255.512 381.528 259.205 380.133 262.417C375.14 273.893 366.847 282.116 354.871 286.359C354.453 286.505 354.083 286.798 352.946 287.446C359.077 291.181 364.957 294.045 371.373 296.038C378.536 298.261 383.76 292.7 390.003 291.32L391 292.366C390.017 293.961 389.396 296.059 387.994 297.069C374.17 307.012 359.475 314.573 341.633 312.859C340.029 312.705 338.397 312.838 336.925 312.838C339.973 321.778 343.342 330.732 346.041 339.888C348.713 348.953 350.7 358.228 353.225 368.352C353.978 366.22 354.62 364.826 354.962 363.363C356.901 355.127 359.523 347.19 366.135 341.407C368.821 339.059 372.022 337.31 374.993 335.282C375.147 335.533 375.293 335.79 375.447 336.041C373.312 339.574 370.801 342.933 369.148 346.675C367.056 351.413 365.703 356.472 363.945 361.363C361.762 367.439 359.44 373.467 357.277 379.543C356.796 380.902 356.329 382.456 356.503 383.835C357.277 390.044 358.121 396.252 359.293 402.391C359.774 404.928 359.356 406.356 356.866 407.185C355.039 407.798 353.288 408.642 351.056 409.568L351.007 409.582ZM326.631 298.031C326.226 297.473 325.71 296.895 325.347 296.24C318.129 283.063 317.85 269.273 324.134 256.076C330 243.763 337.553 232.252 344.388 220.399C344.849 219.598 345.428 218.846 346.055 218.17C355.534 208.08 353.218 187.015 335.97 177.386C335.377 182.605 335.44 188.151 334.031 193.287C329.323 210.498 324.176 227.597 319.021 244.69C313.023 264.591 315.004 283.614 324.81 301.877C325.32 302.825 326.108 303.619 327.084 304.915C331.583 294.149 329.735 283.328 331.401 272.862V293.446C335.949 285.335 335.963 276.151 338.251 267.524C337.469 277.747 338.711 288.296 332.503 298.107C351.677 284.666 355.785 244.453 345.518 232.914C341.264 239.659 336.981 246.39 332.762 253.17C329.218 258.863 326.715 264.953 326.645 271.761C326.554 280.429 326.624 289.105 326.624 298.024L326.631 298.031ZM259.904 184.953C270.352 187.127 277.808 193.001 284.86 200.568C284.873 185.002 271.357 175.058 257.805 179.824C250.991 182.221 244.72 185.587 240.243 191.496C245.62 192.318 250.928 192.715 256.019 193.997C264.096 196.032 269.857 200.826 271.754 209.39C273.4 216.818 272.584 224.141 271.064 231.2C265.77 231.277 261.829 233.562 258.265 237.109C255.957 239.415 253.25 241.415 250.467 243.136C248.019 244.648 245.299 245.847 242.551 246.725C237.927 248.209 233.184 249.338 228.49 250.62C228.365 250.258 228.239 249.902 228.114 249.54C228.665 248.599 229.209 247.665 230.018 246.286C217.394 241.373 214.311 231.297 215.357 218.421C209.442 222.803 206.82 228.176 205.592 234.273C203.946 242.419 206.346 248.056 212.574 251.54C215.894 253.4 219.13 255.428 222.562 257.058C224.02 257.748 225.917 257.922 227.563 257.776C240.459 256.605 251.814 251.08 263.092 245.22C267.339 243.011 270.764 240.579 271.461 235.437C271.636 234.127 272.528 232.879 273.219 231.674C275.862 227.054 278.568 222.469 281.24 217.856C283.82 213.397 283.486 210.784 280.012 206.993C273.512 199.899 267.046 192.778 259.911 184.946L259.904 184.953ZM188.595 231.75C184.906 234.057 182.423 238.084 181.446 242.607C179.444 251.881 177.882 261.26 176.522 270.646C175.908 274.89 177.533 278.827 179.954 282.429C188.086 294.519 200.152 297.668 213.704 297.104C215.664 297.02 217.547 295.236 219.472 294.233C219.353 293.885 219.235 293.529 219.116 293.181C212.393 293.487 205.683 293.724 199.057 289.293C206.353 289.927 212.7 290.637 219.061 290.944C221.09 291.042 223.169 290.045 225.226 289.557C225.142 289.216 225.052 288.868 224.968 288.526C220.951 288.206 216.919 287.941 212.909 287.565C208.864 287.188 204.797 286.833 201.456 284.004C209.296 284.729 217.052 285.892 224.836 286.805C226.795 287.035 228.846 286.464 230.855 286.262C230.855 285.774 230.869 285.286 230.876 284.798C220.93 284.373 211.179 283.168 202.468 277.921C209.24 279.3 216.02 280.673 223.678 282.234C222.541 281.279 222.171 280.785 221.683 280.597C217.917 279.161 214.213 277.44 210.328 276.464C201.296 274.207 194.217 267.782 193.422 259.616C193.066 255.923 194.447 252.097 194.649 248.313C194.768 246.035 194.572 243.533 193.735 241.443C192.452 238.217 190.499 235.255 188.595 231.75ZM309.766 265.476C309.808 265.197 309.85 264.925 309.892 264.647C309.103 264.256 308.336 263.804 307.513 263.49C294.903 258.682 282.921 261.1 271.831 267.643C261.46 273.761 251.618 280.778 241.575 287.453C236.372 290.916 231.05 294.247 226.133 298.079C222.088 301.229 218.809 305.229 217.491 310.413C216.487 314.378 218.412 316.719 222.415 315.729C226.056 314.831 229.648 313.298 232.919 311.444C240.48 307.166 247.692 302.26 255.322 298.1C262.471 294.198 268.525 289.46 273.344 282.708C279.538 274.033 288.333 268.66 298.858 266.535C302.422 265.817 306.125 265.803 309.773 265.476H309.766ZM323.206 193.489C323.771 186.235 321.986 179.546 319.266 173.045C324.322 178.41 324.859 185.301 326.366 192.067C327.426 189.378 328.416 186.674 328.535 183.922C328.988 173.079 320.912 160.509 310.791 156.572C295.775 150.726 281.637 154.496 267.869 161.087C267.158 161.429 266.405 161.958 265.979 162.599C264.738 164.481 263.643 166.46 262.708 168.034C268.016 170.174 272.466 172.048 276.992 173.734C277.983 174.104 279.698 174.285 280.27 173.727C283.374 170.71 287.043 170.418 290.969 170.94C303.482 172.606 311.022 183.796 312.263 196.318C312.807 201.795 313.532 204.575 317.424 206.714C316.504 203.885 315.695 201.391 315.102 199.565C315.792 198.443 316.476 197.844 316.399 197.37C315.876 194.325 315.402 191.238 314.481 188.305C313.714 185.845 312.354 183.566 311.259 181.211C311.656 181.03 312.054 180.849 312.444 180.668C314.899 185.922 317.348 191.175 319.803 196.436L320.647 196.185C318.673 189.761 316.699 183.329 315.053 177.985C319.489 181.246 320.681 187.677 323.213 193.503L323.206 193.489ZM198.848 233.987C200.473 223.319 206.109 215.661 215.127 210.282C215.727 209.926 216.306 209.104 216.417 208.421C217.791 200.011 223.036 194.959 230.562 191.726C231.978 191.12 233.526 190.144 234.335 188.897C237.592 183.859 242.154 180.396 247.196 177.414C249.847 175.846 252.462 174.222 255.991 172.083C253.613 171.003 252.176 169.986 250.607 169.7C240.487 167.839 231.196 169.331 223.448 176.772C218.851 181.19 214.067 185.427 209.519 189.893C201.645 197.628 196.804 207.028 195.416 217.954C194.719 223.465 195.688 228.935 198.862 233.98L198.848 233.987ZM272.096 260.375C275.974 258.494 278.359 256.306 279.824 252.432C281.561 247.861 284.148 243.429 287.196 239.589C294.331 230.587 300.315 221.027 304.082 210.156C308.315 197.955 304.668 186.409 294.75 180.145C291.437 178.048 288.124 177.915 284.441 179.49C284.741 180.11 284.887 180.542 285.139 180.898C294.233 193.775 293.989 206.916 286.687 220.511C282.244 228.782 278.136 237.241 274.174 245.756C272.124 250.174 271.161 254.961 272.096 260.382V260.375ZM200.703 250.676C199.357 256.097 199.399 260.361 202.579 264.026C206.89 268.988 212.442 270.221 218.684 268.793C221.962 268.04 225.191 267.072 228.462 266.284C232.11 265.406 235.298 268.702 234.189 272.437C236.49 273.649 238.813 274.918 241.177 276.109C244.386 277.726 247.231 276.708 249.212 273.224C247.699 272.172 246.178 271.113 244.658 270.054C244.79 269.838 244.923 269.622 245.055 269.406C247.154 270.444 249.254 271.482 251.786 272.737C255.412 270.193 259.514 267.594 263.245 264.549C264.507 263.518 265.107 261.406 265.519 259.671C265.881 258.166 265.456 256.487 265.575 254.898C265.686 253.435 266.063 251.986 266.363 250.306C260.504 253.317 255.12 256.543 249.386 258.933C241.268 262.319 233.47 265.636 223.768 262.73C215.392 260.222 207.266 258.306 200.696 250.669L200.703 250.676ZM312.347 244.293C314.509 237.527 316.587 231.423 318.338 225.235C318.694 223.988 318.226 222.121 317.452 221.027C315.492 218.26 313.135 215.773 310.673 212.867C305.358 225.688 298.418 236.802 289.365 246.648C287.517 248.662 286.778 251.7 285.683 253.951C294.171 254.654 301.913 255.296 310.192 255.985C308.455 252.223 306.704 248.439 304.961 244.662C305.093 244.586 305.219 244.509 305.351 244.432C307.018 246.599 308.692 248.759 310.708 251.379C312.786 245.526 308.804 242.021 307.625 237.708C309.076 239.736 310.533 241.764 312.347 244.293ZM242.642 197.168C231.336 196.875 223.65 202.199 221.983 211.083C221.418 214.114 221.453 217.313 221.606 220.413C221.76 223.535 222.834 226.51 226.23 227.458C230.652 228.698 235.144 229.319 239.957 226.113C238.199 225.619 237.216 225.347 236.239 225.068C229.146 223.033 226.977 219.173 229.425 212.275C231.692 205.899 235.472 200.624 242.649 197.168H242.642ZM259.137 204.247C261.494 213.006 258.147 221.131 256.78 229.848C267.311 223.354 268.385 210.205 259.137 204.247ZM302.826 339.456C302.199 339.393 301.578 339.33 300.95 339.268C300.162 336.278 299.374 333.282 298.551 330.174C296.982 332.662 298.216 343.866 300.539 349.378C305.665 345.009 309.926 331.986 307.457 326.641C305.804 331.212 304.312 335.338 302.819 339.456H302.826ZM249.819 228.852C246.457 230.684 243.395 232.921 239.978 234.057C236.504 235.214 232.668 235.283 228.755 235.862C232.375 239.624 237.571 241.192 240.912 239.75C246.297 237.422 250.021 232.754 249.819 228.852ZM365.814 301.292C362.299 299.954 358.833 298.637 355.366 297.32C355.283 297.508 355.192 297.689 355.108 297.877C356.824 298.79 358.54 299.703 361.009 301.02C356.531 302.016 352.87 303.229 349.124 303.542C345.393 303.856 341.584 303.278 336.849 303.041C343.349 308.009 361.044 306.483 365.814 301.299V301.292ZM225.024 273.907C231.985 279.649 239.203 281.307 242.509 277.565C236.762 275.663 232.152 270.388 225.024 273.907ZM250.774 210.686C248.975 210.122 246.994 208.895 246.311 209.404C244.288 210.909 242.321 212.874 241.219 215.097C240.208 217.138 240.863 219.563 243.632 221.466C245.948 217.968 248.131 214.672 250.774 210.686ZM252.518 204.296C248.856 201.746 243.046 202.889 239.008 206.554C235.298 209.919 234.161 214.504 236.56 218.692C236.616 207.885 243.151 204.763 252.518 204.296ZM355.422 276.151C361.713 276.576 368.583 272.569 370.153 268.096C365.417 270.681 360.856 273.183 355.422 276.151ZM319.014 210.588L319.656 210.554V200.659L319.014 200.673V210.588Z" fill="black"/>
<path d="M453.679 524.899C454.316 528.038 454.954 531.178 455.682 534.743C466.772 529.493 478.031 531.157 489.709 532.093C489.17 532.548 488.897 532.786 488.623 533.009C488.378 533.212 488.119 533.394 487.461 533.904C490.578 535.512 493.443 536.974 496.302 538.463C503.28 542.113 510.278 545.734 517.207 549.482C518.377 550.118 519.232 551.342 520.241 552.306C519.918 553.544 519.232 554.781 519.295 555.984C519.89 566.863 520.556 577.742 521.355 588.607C521.502 590.593 522.847 591.837 524.808 591.655C523.898 584.811 522.938 578.196 522.153 571.561C521.397 565.129 520.822 558.669 520.171 552.222C522.728 553.824 525.404 555.278 527.828 557.061C531.583 559.822 533.979 563.15 534.378 568.296C534.967 575.812 536.613 583.251 537.986 590.684C538.225 591.963 539.346 593.082 540.053 594.27C540.361 594.088 540.67 593.907 540.978 593.732C539.535 584.846 538.091 575.966 536.648 567.08C537.034 566.884 537.419 566.681 537.797 566.485C548.061 575.777 556.699 586.523 564.468 598.032C564.819 597.899 565.176 597.766 565.526 597.633C565.022 595.773 564.847 593.746 563.971 592.082C558.142 581.049 550.695 571.289 540.817 563.5C539.535 562.493 538.316 561.409 537.09 560.333C536.943 560.2 536.929 559.92 536.648 559.151C547.837 558.221 556.846 561.612 564.244 570.212C563.726 569.023 563.382 567.702 562.654 566.66C558.857 561.193 553.371 558.27 547.01 556.907C544.285 556.327 541.468 556.138 538.687 555.823C536.515 555.571 533.888 556.103 532.256 555.047C528.508 552.635 525.236 549.468 521.039 546C534.42 543.287 546.302 544.035 557.392 551.034C557.61 550.74 557.827 550.44 558.044 550.146C556.881 549.132 555.837 547.916 554.534 547.147C545.665 541.889 535.948 541.448 526.035 542.455C523.61 542.7 521.222 543.287 518.812 543.672C518.265 543.756 517.592 543.825 517.137 543.588C513.361 541.616 509.627 539.575 505.101 537.134C515.68 531.604 526.182 531.996 536.767 532.96C536.858 532.632 536.957 532.303 537.048 531.982C535.59 531.429 534.112 530.36 532.669 530.408C525.488 530.667 518.3 531.087 511.147 531.737C508.17 532.01 505.416 533.219 505.024 537.491C500.512 535.799 496.554 534.317 491.839 532.548C493.268 531.303 494.032 530.108 495.048 529.835C503.56 527.556 512.016 524.675 520.696 523.459C532.522 521.802 541.973 528.003 550.919 534.89C563.705 544.734 568.63 558.473 570.143 573.764C571.068 583.133 571.397 592.564 571.951 601.968C572.028 603.227 572.056 604.562 571.719 605.751C571.201 607.596 569.73 608.722 568.006 607.47C557.981 600.192 546.036 600.577 534.61 598.619C527.786 597.451 520.948 595.613 514.524 593.061C500.078 587.321 493.962 575.169 491.79 560.738C490.984 555.369 491.181 549.81 491.349 544.343C491.44 541.204 490.606 539.421 487.348 539.344C479.796 539.176 472.237 539.05 464.678 538.98C463.171 538.966 461.672 539.365 460.166 539.463C455.381 539.784 455.5 539.77 455.423 544.427C454.961 572.372 441.222 592.033 417.22 605.282C413.521 607.324 410.32 606.897 406.873 604.366C403.475 601.877 399.601 600.024 395.278 597.514C396.931 596.41 398.277 595.48 399.65 594.599C405.738 590.718 412.148 587.258 417.851 582.881C428.549 574.666 433.747 563.073 436.332 550.153C436.423 549.698 436.416 549.223 436.409 548.762C436.409 548.419 436.311 548.083 436.178 547.223C434.602 547.895 433.13 548.412 431.75 549.118C414.446 557.956 398.816 568.953 386.444 584.153C385.855 584.873 385.197 585.538 384.538 586.195C382.864 587.866 381.673 587.46 380.384 585.545C378.744 583.105 376.958 580.699 374.884 578.623C373.301 577.036 373.154 575.638 374.359 574.064C377.049 570.555 379.76 567.059 382.633 563.703C385.281 560.605 388.216 557.753 390.906 554.69C396.399 548.447 397.905 541.239 396.126 533.177C393.877 522.962 390.801 516.957 382.976 508.413C392.147 509.461 397.744 514.551 401.976 521.599C406.361 528.905 405.871 536.694 403.496 545.357C408.701 542.581 413.031 540.19 417.43 537.946C421.578 535.827 425.795 533.827 430.006 531.835C434.427 529.744 434.525 529.625 432.612 525.06C428.829 516.027 423.582 507.853 416.429 501.218C406.789 492.269 396.798 483.69 386.71 475.237C375.382 465.743 365.188 455.29 356.956 442.964C355.401 440.636 355.73 439.335 358.035 437.986C361.447 435.979 364.754 433.791 368.089 431.658C369.749 430.596 370.961 430.777 372.18 432.511C381.995 446.488 394.977 457.269 407.762 468.386C418.285 477.538 428.325 487.417 437.418 497.974C443.086 504.56 446.582 513.006 451.058 520.613C451.927 522.088 452.838 523.543 453.728 525.004L453.665 524.899H453.679ZM416.821 596.095C416.975 596.326 417.129 596.564 417.283 596.794C418.208 596.466 419.252 596.312 420.044 595.78C436.984 584.391 447.934 569.156 448.249 548.237C448.543 528.863 441.46 511.573 428.682 497.268C420.121 487.682 410.074 479.362 400.294 470.931C390.213 462.24 379.655 454.109 368.502 445.082C369.203 446.481 369.406 446.984 369.693 447.446C370.309 448.431 370.933 449.41 371.613 450.347C379.606 461.352 390.444 469.329 400.96 477.615C415.7 489.228 429.656 501.477 438.077 518.753C443.016 528.898 445.79 539.658 444.284 550.81C442.203 566.178 434.77 579.105 423.533 589.824C421.319 591.935 419.056 594.005 416.814 596.095H416.821ZM380.153 578.539C380.426 578.833 380.699 579.126 380.972 579.42C382.24 578.294 383.536 577.19 384.776 576.036C390.395 570.785 395.649 565.073 401.681 560.361C411.321 552.831 421.487 545.993 432.878 541.197C433.936 540.749 434.56 539.295 435.386 538.309C435.029 537.973 434.665 537.638 434.307 537.302C412.085 545.594 393.352 558.452 380.153 578.546V578.539ZM505.578 544.595C505.22 544.602 504.856 544.609 504.499 544.616C503.392 556.613 503.217 568.604 505.865 580.483C506.18 581.895 507.679 583.042 508.688 584.384C507.623 570.785 506.6 557.69 505.578 544.588V544.595Z" fill="black"/>
<path d="M453.871 525.324C453.871 522.292 455.982 520.975 458.273 519.678C469.878 513.112 476.085 502.218 482.005 490.48C479.372 489.323 477.164 488.389 474.984 487.399C458.434 479.892 450.353 466.606 449.113 448.881C448.375 438.342 451.336 428.402 455.208 418.769C457.821 412.273 459.193 405.714 458.232 398.716C458.016 397.147 458.197 395.516 458.197 393C461.352 394.338 464.02 395.272 466.507 396.555C471.961 399.371 477.234 402.528 482.73 405.254C497.441 412.566 507.646 423.955 513.65 439.143C520.992 457.712 511.735 479.878 493.464 487.943C490.852 489.1 490.183 488.416 490.288 485.747C490.538 479.494 491.897 474.148 497.622 470.168C503.341 466.195 506.977 460.222 509.151 453.544C509.798 451.544 509.91 449.376 510.272 447.285C509.987 447.222 509.708 447.159 509.422 447.097C507.395 451.69 505.542 456.367 503.279 460.842C501.001 465.352 497.964 469.276 491.806 470.921C492.726 465.268 489.11 460.096 493.311 454.604C498.11 448.33 501.99 441.36 502.296 433.079C502.359 431.427 502.087 429.768 501.384 428.026C499.245 437.094 498.117 446.441 490.35 453.976C489.396 448.323 486.046 444.141 488.672 438.467C491.507 432.326 490.754 425.468 490.023 418.888C489.8 416.901 488.316 415.054 486.874 413.367C488.17 421.557 488.776 429.455 485.293 437.965C482.256 431.225 479.623 425.224 476.851 419.285C474.065 413.325 470.603 407.791 465.727 402.556C464.619 406.118 465.727 408.481 467.21 411.074C471.181 417.989 474.866 425.07 478.564 432.138C479.115 433.191 479.101 434.536 479.47 436.376C471.132 433.365 465.768 427.524 460.523 421.509C460.119 421.69 459.722 421.871 459.318 422.052C459.632 423.154 459.583 424.673 460.307 425.293C465.197 429.517 469.948 433.999 475.311 437.533C482.556 442.301 486.101 448.128 485.718 458.193C480.271 454.59 475.165 451.411 470.282 447.933C465.406 444.455 460.739 440.67 456.016 437.038C455.006 439.673 454.951 440.252 457.716 442.238C465.058 447.508 472.49 452.666 480.013 457.67C487.327 462.536 488.135 464.006 487 473.723C476.705 466.76 464.654 463.393 455.801 453.851C455.285 457.601 457.201 459.539 459.402 460.954C463.978 463.895 468.715 466.586 473.438 469.29C477.164 471.423 480.933 473.479 484.736 475.459C486.54 476.393 487.063 477.606 486.909 479.648C486.54 484.45 486.575 489.288 486.268 494.097C486.178 495.547 485.816 497.157 485.056 498.363C482.709 502.078 480.111 505.633 477.61 509.251C476.718 510.54 475.834 511.823 474.942 513.112C475.13 513.405 475.325 513.698 475.513 513.998C477.38 513.335 479.317 512.827 481.1 511.997C493.387 506.281 505.647 500.503 517.914 494.746C518.331 494.55 518.777 494.411 519.202 494.223C525.13 491.623 524.872 491.616 525.116 485.092C525.694 469.799 532.374 457.831 545.17 449.278C560.627 438.941 577.15 439.59 593.874 444.831C600.331 446.853 606.294 450.421 612.549 453.133C618.275 455.621 624.098 457.894 629.866 460.284C631.141 460.814 632.457 461.316 633.6 462.062C635.411 463.24 635.515 465.031 633.62 465.881C619.564 472.176 612.556 485.363 603.313 496.404C589.514 512.896 571.898 518.926 550.861 514.785C542.189 513.077 536.136 507.292 530.584 500.893C526.251 495.91 528.007 496.084 521.849 498.942C506.72 505.975 491.757 513.377 476.698 520.571C474.831 521.463 472.846 522.306 470.832 522.627C467.203 523.198 464.361 524.613 462.098 527.652C460.307 530.064 457.883 528.726 455.877 527.59C455.027 527.102 454.491 526.063 453.801 525.262C453.801 525.248 453.857 525.352 453.857 525.352L453.871 525.324ZM603.473 489.532C603.375 489.211 603.278 488.89 603.18 488.57C590.823 488.779 580.173 483.614 569.195 478.156C576.753 474.601 583.704 472.81 591.534 476.421C595.95 478.456 601.125 478.881 606.001 479.85C607.137 480.073 608.412 479.557 609.624 479.383C602.818 477.208 595.818 476.511 590.015 472.441L590.071 471.214C601.362 469.659 612.654 468.105 623.945 466.551C623.889 465.972 623.834 465.387 623.785 464.808C614.757 463.254 605.73 466.53 596.368 465.101C600.519 462.438 604.664 459.769 608.816 457.106C608.635 456.799 608.453 456.486 608.272 456.179C607.562 456.367 606.796 456.437 606.148 456.757C601.585 459.03 597.594 461.874 593.742 465.414C588.1 470.6 579.936 470.252 572.281 472.894C577.219 461.434 586.895 456.534 595.992 450.756C593.428 450.854 591.102 451.341 589.054 452.373C581.19 456.346 575.227 462.368 570.525 469.792C569.278 471.757 567.558 473.911 565.538 474.803C561.163 476.734 556.455 477.898 551.063 479.648C556.35 465.421 565.566 455.712 577.024 447.598C575.401 447.689 573.848 447.954 572.608 448.721C561.56 455.558 553.835 465.115 549.447 477.376C548.994 478.637 548.437 480.373 547.441 480.833C544.279 482.297 540.886 483.252 536.944 484.632C538.824 469.82 545.651 458.8 555.988 449.508C554.107 450.15 552.38 450.979 550.973 452.185C542.461 459.448 536.533 468.377 535.495 479.683C535.042 484.653 533.259 487.455 528.634 488.96C526.015 489.818 525.074 491.769 527.004 494.641C530.298 493.08 533.572 491.525 536.512 490.131C538.093 491.832 539.026 493.54 540.454 494.272C550.443 499.388 560.502 504.378 570.637 509.188C572.162 509.913 574.231 509.516 576.042 509.634C576.126 509.223 576.209 508.805 576.293 508.393C562.926 503.863 550.172 498.119 537.668 489.845C541.262 488.166 544.091 486.625 547.079 485.552C548.179 485.154 549.949 485.454 550.938 486.123C561.24 493.135 572.65 497.562 584.596 500.698C586.909 501.305 589.395 501.36 591.805 501.402C592.718 501.416 593.644 500.67 594.564 500.273C594.515 499.966 594.473 499.667 594.425 499.36C586.693 499.653 579.581 497.373 572.706 494.313C565.914 491.288 559.206 488.089 551.836 484.673C559.171 480.965 565.447 478.54 572.706 482.778C576.857 485.196 581.649 486.66 586.31 488.033C590.614 489.302 595.093 490.027 599.544 490.682C600.77 490.863 602.156 489.943 603.466 489.532H603.473ZM478.62 482.45C478.773 482.15 478.934 481.843 479.087 481.544C475.263 479.599 471.445 477.654 467.621 475.71C467.44 476.086 467.252 476.455 467.071 476.832C470.923 478.707 474.768 480.582 478.62 482.457V482.45Z" fill="black"/>
<path d="M339 418.095C335.5 422.057 334.628 422.204 330.388 419.329C317.405 410.523 303.09 405.083 287.854 401.745C282.443 400.56 278.733 402.404 275.386 406.471C272.514 409.955 269.48 413.391 266.057 416.3C257.564 423.515 247.314 425.12 236.826 423.326C220.308 420.5 204.43 415.354 189.85 406.814C185.157 404.066 180.764 400.778 176.413 397.489C172.425 394.475 168.15 392.371 163.165 391.747C159.978 391.348 159.19 389.791 160.836 387.022C161.533 385.851 162.586 384.869 163.548 383.874C168.408 378.861 173.408 373.988 178.15 368.863C192.967 352.849 217.546 344.934 239.497 353.508C254.475 359.356 264.711 369.999 273.218 383.103C275.135 386.054 278.155 388.88 281.32 390.324C294.513 396.347 308.013 401.703 321.282 407.572C326.149 409.724 330.716 412.57 335.36 415.214C336.622 415.929 337.668 417.037 338.986 418.102L339 418.095ZM205.037 409.254L205.874 410.663C207.003 410.173 208.286 409.892 209.235 409.163C217.79 402.566 226.193 395.758 234.874 389.328C236.875 387.849 240.048 386.475 242.216 386.994C250.417 388.964 258.442 391.684 266.489 394.271C267.423 394.573 267.967 396.157 268.902 396.431C271.823 397.272 274.822 397.994 277.834 398.303C279.654 398.492 281.564 397.819 283.433 397.539L283.454 396.375C281.969 395.302 280.63 393.872 278.984 393.227C270.917 390.072 262.821 386.959 254.614 384.182C250.633 382.836 247.572 381.49 245.703 376.982C242.495 369.256 237.091 362.875 230.16 358.038C228.856 357.126 227.057 356.93 225.488 356.411C229.135 360.688 233.207 363.934 236.75 367.678C240.362 371.492 243.59 375.734 243.674 381.897C239.413 380.691 234.672 379.912 231.653 377.206C225.377 371.562 220.015 364.895 214.276 358.648C212.498 356.713 210.483 356.565 207.819 357.708C208.914 358.5 209.695 358.984 210.378 359.573C215.657 364.137 221.019 368.61 226.095 373.392C227.225 374.458 227.322 376.645 227.887 378.314C226.151 378.573 224.352 379.26 222.692 379.015C218.279 378.349 214.395 376.652 211.152 373.196C206.982 368.751 201.383 366.57 195.833 364.523C195.596 364.916 195.366 365.308 195.129 365.694L211.501 375.986C211.438 376.316 211.375 376.638 211.306 376.968C207.784 377.388 204.263 378.209 200.749 378.153C190.603 377.991 181.301 381.167 172.153 384.996C171.246 385.374 170.758 386.755 170.082 387.674C171.219 387.961 172.355 388.459 173.499 388.473C174.356 388.48 175.2 387.772 176.093 387.541C181.469 386.131 186.838 384.694 192.249 383.432C193.448 383.152 194.801 383.558 196.976 383.706C193.03 388.487 188.504 390.829 184.216 393.507C183.31 394.075 182.724 395.148 181.985 395.996C183.191 395.919 184.648 396.262 185.548 395.702C190.582 392.568 195.261 388.796 200.491 386.082C204.179 384.168 208.516 383.425 212.637 382.486C213.844 382.212 215.308 383.046 216.647 383.369C216.696 383.72 216.744 384.063 216.793 384.414C209.939 389.546 203.071 394.657 196.244 399.831C194.905 400.848 193.734 402.103 192.486 403.246C194.682 405.146 196.216 403.147 197.597 402.103C204.179 397.125 210.664 392.014 217.121 386.868C222.225 382.794 227.594 383.642 234.149 385.732C224.652 394.657 213.46 400.343 205.016 409.254H205.037ZM252.181 392.112C247.871 391.313 220.998 408.574 219.778 413.194C231.541 407.768 240.201 397.377 252.181 392.112ZM262.877 395.947C262.786 395.744 262.696 395.547 262.612 395.344C260.876 396.108 259 396.648 257.438 397.679C248.931 403.295 240.48 409.002 232.092 414.8C231.436 415.256 231.422 416.637 231.109 417.59C232.12 417.422 233.361 417.583 234.1 417.044C239.999 412.725 245.766 408.224 251.637 403.87C255.318 401.142 259.126 398.583 262.884 395.947H262.877ZM247.279 363.464C246.895 363.878 246.505 364.299 246.121 364.712C251.881 370.202 257.64 375.692 263.4 381.181C263.616 380.957 263.832 380.733 264.055 380.508C260.186 373.091 252.299 369.725 247.286 363.464H247.279ZM256.337 413.91C263.337 412.886 267.242 408.202 270.261 402.474C265.617 406.288 260.973 410.103 256.337 413.91ZM244.015 417.527C244.308 418.144 244.594 418.761 244.887 419.378C247.976 417.885 251.065 416.392 254.161 414.898C253.882 414.309 253.603 413.72 253.331 413.138C250.228 414.604 247.125 416.069 244.022 417.527H244.015ZM196.488 371.149C192.437 369.943 188.4 367.587 184.104 370.202L196.488 371.149Z" fill="black"/>
<path d="M351.377 649.534C352.442 645.221 353.19 640.797 354.636 636.615C357.833 627.365 361.307 618.212 364.885 609.108C365.265 608.131 367.134 607.044 368.179 607.169C370.718 607.474 372.78 608.997 372.905 611.849C372.995 613.767 372.566 615.713 372.434 616.966C374.379 616.966 376.379 616.73 378.296 617.028C380.434 617.367 380.268 618.87 379.382 620.428C377.41 623.882 372.794 624.976 368.241 622.38C365.784 627.704 363.099 632.883 360.989 638.276C358.553 644.487 356.795 650.967 354.366 657.178C353.723 658.825 351.737 660.958 350.311 660.999C348.865 661.041 346.851 659.054 345.958 657.461C343.266 652.684 343.924 647.325 344.588 642.223C346.381 628.466 351.079 615.623 357.792 603.527C358.449 602.336 360.504 600.744 361.307 601.035C363.964 601.976 364.892 605.535 363.688 607.764C357.805 618.648 352.546 629.774 350.968 642.237C350.664 644.618 350.623 647.028 350.456 649.423C350.768 649.458 351.079 649.492 351.391 649.527L351.377 649.534Z" fill="black"/>
<path d="M270 308C281.147 311.283 291.777 314.414 303 317.718C290.505 319.273 280.394 314.168 270 308Z" fill="black"/>
<path d="M306.792 314C297.21 313.379 288.286 310.698 280 306C289 308.374 298 310.755 307 313.13C306.931 313.418 306.861 313.712 306.792 314Z" fill="black"/>
<path d="M491 317.874C500.608 315.516 509.727 313.28 519 311C510.629 316.682 501.335 318.531 491 317.874Z" fill="black"/>
<path d="M484 312.895C491 311.594 498 310.3 505 309C498.561 312.744 491.623 314.358 484.215 313.934C484.145 313.587 484.069 313.241 484 312.888V312.895Z" fill="black"/>
<path d="M498 306.106C490.156 308.069 482.32 310.031 474.476 312C474.32 311.421 474.163 310.841 474 310.262C481.901 308.51 489.801 306.758 497.694 305L497.993 306.106H498Z" fill="black"/>
<path d="M484.993 301.889C481.09 303.593 477.181 305.296 473.278 307L473 306.254C476.93 304.505 480.86 302.756 484.79 301C484.857 301.294 484.932 301.588 485 301.889H484.993Z" fill="black"/>
<path d="M561.083 284C563.843 282.824 566.611 280.661 569.371 280.667C576.752 280.688 583.698 278.998 590.665 277.085C591.066 276.976 591.488 276.936 592 277.186C587.863 279.978 583.214 281.452 578.288 282.019C575.452 282.351 572.539 282.019 569.703 282.33C566.777 282.648 563.899 283.378 561 283.926L561.076 284H561.083Z" fill="black"/>
<path d="M567 278.747C573.669 276.164 580.331 273.582 587 271C581.67 277.025 574.297 277.674 567.552 280C567.366 279.585 567.179 279.169 567 278.747Z" fill="black"/>
<path d="M467 277C459.653 272.609 457.266 251.029 460.256 244C460.352 255.502 462.617 266.491 467 277Z" fill="black"/>
<path d="M343.77 257C345.723 268.136 346.132 279.048 339 289C343.369 278.658 344.103 267.878 343.77 257Z" fill="black"/>
<path d="M345 240C349.31 246.41 349.506 253.74 350 261L345 240Z" fill="black"/>
</svg>
