<svg width="800" height="800" viewBox="0 0 800 800" fill="none" xmlns="http://www.w3.org/2000/svg">
<path d="M544.574 644.493C535.282 645.404 525.728 644.954 516.396 645.065C514.165 645.095 495.057 644.557 495.974 646.975C497.014 649.72 517.337 648.353 520.303 648.423C530.827 648.686 541.905 648.102 552.323 649.626C552.352 649.86 552.381 650.093 552.411 650.327C537.338 652.768 520.817 651.378 505.558 651.577C490.608 651.769 475.652 651.851 460.702 651.921C429.815 652.073 398.928 652.184 368.041 652.178C336.897 652.178 305.747 651.822 274.598 651.658C267.45 651.623 260.296 651.46 253.148 651.314C250.356 651.256 236.609 651.758 244.972 649.101C251.139 647.144 260.494 648.861 267.105 648.762C274.995 648.645 283.41 649.34 291.206 648.102C291.235 647.868 291.259 647.635 291.288 647.401C276.536 644.4 260.319 645.229 245.282 644.867C241.725 644.779 234.612 643.599 241.515 641.071C244.61 639.938 249.562 640.09 252.856 639.769C254.9 639.564 261.551 640.388 263.023 638.858C264.792 637.024 260.249 628.72 260.255 625.525C260.284 616.246 266.988 613.589 270.34 606.154C272.431 601.518 267 598.405 266.696 592.945C266.527 589.949 267.327 586.381 269.032 583.899C270.58 581.645 273.704 580.628 275.053 578.345C276.776 575.419 275.736 569.883 275.795 566.63C275.871 562.35 275.952 558.069 276.034 553.789C276.198 545.227 276.373 536.666 276.554 528.105C276.717 520.536 277.185 514.41 273.675 507.537C270.025 500.395 267.496 494.362 267.625 486.181C267.73 479.43 268.705 472.994 271.754 466.909C275.474 459.493 277.669 458.19 275.754 449.711C274.025 442.055 274.586 435.724 275.783 428.051C277.021 420.079 276.297 411.752 276.215 403.705C276.186 400.878 276.957 396.562 275.952 393.8C274.86 390.804 272.075 389.601 270.224 387.154C266.76 382.57 266.293 375.656 268.921 370.558C272.051 364.484 276.098 364.093 276.058 356.559C276.04 353.132 276.858 351.117 273.833 350.912C270.352 350.679 265.785 354.037 261.656 353.885C249.253 353.429 238.122 344.535 237.293 332.038C237.053 328.406 238.554 324.832 238.256 321.334C238.023 318.612 236.37 316.043 235.903 313.31C234.817 306.944 236.294 300.777 240.137 295.592C244.219 290.079 246.525 288.963 247.693 282.119C248.698 276.215 252.05 270.907 257.066 267.572C259.712 265.814 262.474 265.616 265.248 264.413C267.917 263.256 268.793 261.645 270.737 259.601C274.79 255.337 279.76 252.616 285.676 252.038C290.213 251.594 294.447 252.587 298.582 254.38C303.096 256.33 311.616 256.009 314.922 250.946C316.633 248.324 315.015 246.87 313.754 244.545C312.159 241.614 311.92 240.212 311.85 236.959C311.774 233.707 313.438 233.642 311.371 230.028C309.812 227.306 306.261 222.903 303.551 221.163C301.216 219.662 297.735 220.03 295.65 218.272C293.215 216.222 293.992 214.26 293.022 211.626C292.018 208.905 289.542 207.696 288.52 205.004C287.474 202.242 289.086 199.836 289.086 197.167C289.086 194.101 287.112 191.712 287.574 188.594C288.128 184.851 290.605 184.36 292.491 181.68C294.114 179.373 294.155 176.552 296.205 174.508C298.179 172.54 301.531 171.781 304.083 170.823C309.21 168.902 317.655 167.693 322.765 169.416C326.899 170.812 326.823 172.155 330.228 168.738C332.365 166.595 333.037 164.434 336.214 163.302C337.493 162.846 339.11 163.15 340.407 162.63C342.089 161.964 343.163 160.387 344.944 159.891C347.777 159.103 351.701 160.166 354.568 160.306C361.419 160.639 368.146 161.953 372.964 167.22C373.764 166.379 379.656 161.404 378.039 159.669C376.66 158.192 376.041 159.535 374.313 159.564C371.241 159.611 371.352 161.205 369.291 158.554C368.064 156.977 368.397 150.758 368.432 148.982C368.496 145.49 367.988 144.322 371.773 143.604C372.806 143.405 375.849 144.889 376.345 144.48C378.88 142.389 373.933 138.149 377.443 135.34C380.334 133.034 391.067 133.711 392.522 137.32C394.752 142.856 386.314 143.726 395.453 144.462C401.638 144.964 401.865 153.029 398.951 157.958C396.656 161.842 394.671 158.98 390.629 158.186C390.787 160.615 392.428 166.07 395.658 166.169C398.262 166.251 402.414 161.859 405.264 160.907C409.492 159.494 412.914 160.679 417.078 160.277C422.205 159.786 423.87 158.892 428.174 162.805C432.711 166.922 439.077 171.781 445.016 169.86C450.832 167.979 459.61 166.519 457.49 175.752C457.694 175.857 457.899 175.962 458.103 176.073C461.397 170.706 467.19 169.609 471.243 175.384C472.475 177.142 472.457 179.349 473.795 181.055C475.138 182.766 477.293 183.087 478.478 185.259C480.709 189.347 478.753 195.012 478.834 199.257C478.899 202.545 478.28 204.081 477.065 207.141C476.195 209.349 476.072 211.848 475.155 213.98C472.884 219.282 467.832 218.482 463.528 221.139C460.386 223.078 455.65 228.807 455.066 232.591C454.634 235.394 456.544 237.736 456.059 240.58C455.592 243.331 452.514 245.042 452.251 247.676C451.469 255.606 457.612 254.041 462.243 252.768C472.773 249.866 483.909 253.247 491.034 261.539C494.322 265.364 496.815 270.241 497.516 275.263C497.843 277.611 497.335 279.9 498.322 282.125C499.461 284.689 502.065 286.709 503.344 289.325C507.841 298.541 506.731 310.904 501.008 319.348C497.796 324.084 491.18 327.53 490.105 333.212C488.821 339.986 490.467 348.664 490.584 355.584C490.66 360.081 491.443 366.68 497.09 368.122C501.417 369.226 509.826 363.456 514.113 362.183C527.463 358.206 541.846 358.2 554.723 363.842C577.861 373.98 589.996 396.487 592.139 420.85C594.522 447.982 580.535 476.165 563.822 496.727C554.811 507.806 544.077 517.138 534.073 527.276C530.645 530.75 523.176 537.017 522.084 541.951C520.91 547.26 525.349 552.2 523.457 558.028C521.529 563.967 515.806 567.588 510.171 569.463C506.533 570.672 502.76 571.127 498.935 570.917C496.885 570.806 493.084 569.217 491.857 571.08C488.336 576.459 496.482 581.756 498.602 585.195C501.96 590.65 500.623 595.946 498.123 601.331C496.78 604.216 496.015 604.093 497.242 607.206C498.45 610.283 502.351 612.981 504.057 616.065C505.931 619.463 507.117 623.137 507.169 627.032C507.204 629.66 504.296 634.951 504.933 636.843C506.311 640.925 518.668 639.623 523.042 639.874C529.746 640.265 539.943 638.805 544.579 644.464L544.574 644.493ZM465.765 553.187C464.474 554.302 463.178 555.418 461.473 556.884C462.541 551.371 461.747 545.332 461.583 539.732C461.432 534.424 462.524 526.867 460.135 521.938L459.347 521.956C458.348 528.228 458.617 534.476 458.675 540.824C458.716 545.046 460.474 552.679 457.344 555.926C454.657 552.229 456.223 543.89 456.158 539.469C456.082 534.032 455.849 528.817 455.02 523.451C454.763 523.462 454.5 523.474 454.243 523.486C451.691 526.838 453.373 535.691 453.379 539.604C453.39 544.305 454.979 551.505 452.24 555.418C445.74 548.2 455.241 532.31 448.748 524.519C446.902 528.59 447.977 534.412 447.977 538.844C447.977 543.61 447.977 548.375 447.977 553.14C440.443 549.765 448.561 531.766 443.731 525.623C440.922 529.734 442.324 538.05 442.324 542.833C441.605 539.06 442.108 534.482 440.046 531.2C429.464 549.835 462.851 573.965 472.983 550.658C476.399 542.798 475.99 528.28 472.381 520.49C470.18 515.736 459.668 507.052 454.26 511.934C462.01 513.862 468.591 517.027 470.513 525.471C472.592 534.628 471.634 544.859 466.413 552.51C467.715 544.737 468.539 530.552 465.105 523.456C463.283 527.527 464.463 533.396 464.463 537.817C464.463 542.827 463.359 548.737 465.765 553.187ZM413.224 594.089C403.419 588.839 391.354 590.912 380.31 590.796C367.644 590.661 354.96 590.661 342.299 590.282C334.614 590.048 316.714 585.505 310.962 591.999C307.885 595.468 308.953 600.829 314.443 598.796C318.572 597.266 317.748 592.419 323.092 594.247C317.859 602.738 335.945 599.783 340.839 599.894C350.994 600.128 361.156 600.414 371.311 600.472C380.696 600.525 390.086 600.215 399.471 600.28C402.735 600.303 410.064 601.979 412.85 600.589C416.208 598.925 414.602 597.114 413.177 594.043C415.332 595.643 428.623 606.522 427.952 597.19C427.45 590.253 416.255 589.616 411.951 591.543C412.377 592.39 412.797 593.237 413.218 594.083L413.224 594.089ZM403.874 243.08C407.156 253.369 412.844 240.621 403.839 243.121C405.41 238.875 390.261 240.154 388.194 241.094C389.876 245.258 390.472 253.007 383.312 252.091C376.129 251.168 378.734 244.207 381.28 240.621C368.771 239.132 355.403 240.312 342.859 241.357C337.446 241.807 320.545 240.387 321.725 249.124C322.356 253.796 324.446 252.815 328.505 254.432C333.469 256.406 335.887 260.196 341.359 260.126C346.445 260.056 351.847 258.824 357.039 258.666C363.118 258.485 367.159 258.999 371.837 254.824C360.829 253.702 349.313 256.126 338.24 256.126C338.211 255.857 338.182 255.583 338.153 255.314C350.183 250.975 369.425 251.974 382.004 253.656C387.429 254.38 392.072 257.247 397.386 257.685C403.962 258.228 410.596 257.154 417.119 256.558C424.442 255.886 431.164 256.897 438.37 257.936C442.633 258.549 449.635 261.113 448.397 255.559C448.251 254.905 445.985 254.724 445.536 253.539C444.636 251.168 447.463 246.549 445.833 244.47C441.021 238.326 442.388 252.423 442.575 254.082C426.498 252.809 410.14 251.553 393.76 253.55C396.101 253.025 401.743 253.066 402.782 250.782C404.09 247.909 400.166 245.346 403.88 243.074L403.874 243.08ZM417.89 401.801C417.761 401.795 417.633 401.789 417.504 401.777C417.358 399.804 417.89 390.763 415.875 389.666C412.097 387.61 412.4 393.269 410.905 395.044C409.574 391.242 411.805 390.477 407.582 389.327C404.33 388.439 399.699 389.017 396.3 388.819C385.917 388.223 375.493 388.276 365.092 388.293C344.903 388.328 324.773 389.274 304.608 389.958C300.725 390.086 285.664 388.404 283.69 391.926C282.458 394.116 283.836 401.252 283.86 403.78C283.895 407.863 283.789 411.95 283.731 416.038C283.597 425.201 282.954 434.551 283.474 443.708C283.982 452.672 285.903 457.303 281.296 465.473C277.377 472.428 274.954 478.793 275.234 486.899C275.509 494.859 278.656 498.649 282.417 505.102C286.324 511.818 284.245 521.319 284.152 528.747C284.035 537.922 284.035 547.096 283.965 556.265C283.93 560.668 281.185 576.722 284.426 579.414C286.125 580.827 292.964 580.57 295.037 580.739C299.329 581.096 303.645 581.294 307.943 581.569C325.842 582.725 343.735 583.297 361.67 583.519C379.557 583.735 397.427 583.589 415.314 583.297C417.843 583.256 425.394 584.389 427.543 583.11C429.657 581.855 428.851 581.855 429.155 579.133C429.996 571.583 428.898 564.049 430.919 556.638C431.111 556.691 431.31 556.738 431.502 556.79C432.197 563.512 429.102 577.983 433.506 583.128C436.823 579.612 435.287 570.59 435.339 565.714C435.409 558.782 435.252 551.815 434.942 544.894C434.434 533.559 434.148 524.332 442.026 515.409C449.857 506.538 456.491 497.13 456.047 484.762C455.837 478.968 454.546 472.936 451.562 467.908C448.736 463.143 444.227 460.526 440.724 456.397C428.22 441.652 434.732 401.112 460.678 412.505C471.079 417.072 471.932 428.968 471.289 438.942C470.542 450.575 464.702 454.646 455.458 460.164C462.138 463.598 471.114 455.002 473.403 449.331C476.358 442.008 476.084 429.061 473.135 421.662C469.993 413.778 462.524 409.498 454.307 408.855C450.844 408.581 448.602 409.883 447.258 406.7C445.629 402.84 448.864 397.777 446.435 393.771C444.963 396.189 446.867 413.159 442.213 410.42C438.849 408.447 442.727 395.786 439.871 391.879C435.935 398.928 440.992 408.365 436.326 415.618C434.779 411.542 436.309 392.007 433.348 391.073C431.362 390.448 430.778 413.089 430.521 415.916C430.288 415.916 430.054 415.916 429.821 415.922C429.091 410.969 428.921 406.146 428.764 401.147C428.711 399.395 429.663 392.387 428.209 391.342C424.647 388.772 425.12 394.641 425.055 396.58C424.898 401.094 425.003 405.638 424.039 410.058C423.747 410.023 423.455 409.988 423.169 409.953C422.638 405.795 424.974 393.765 421.808 390.834C417.954 387.271 418.065 400.189 417.901 401.783L417.89 401.801ZM288.491 280.741C288.35 280.542 288.21 280.35 288.064 280.151C289.81 276.659 291.148 272.962 292.97 269.517C294.184 267.222 297.7 264.325 297.046 262.03C295.539 256.71 283.112 259.028 280.04 260.652C274.656 263.496 273.465 268.74 267.759 270.521C262.27 272.232 255.817 274.866 254.573 281.494C253.177 288.905 259.402 283.474 263.63 286.446C268.039 289.547 264.816 291.328 261.773 291.947C252.535 293.828 240.51 298.564 243.045 311.026C243.711 314.297 246.362 316.65 246.438 320.06C246.502 322.823 244.733 325.532 244.68 328.394C244.587 334.029 247.553 339.104 252.126 342.316C260.284 348.045 273.581 346.258 279.445 338.053C282.82 333.329 284.245 326.893 282.645 321.269C281.354 316.738 274.784 309.771 275.252 305.122C276.18 295.831 282.657 308.889 283.959 310.647C287.521 315.459 292.888 319.12 298.64 320.755C303.236 322.064 313.409 322.998 317.293 319.196C321.433 315.137 315.453 314.845 312.241 315.54C306.495 316.79 301.852 318.256 296.287 315.173C292.637 313.146 286.528 307.808 287.726 303.183C292.438 310.612 298.173 313.52 303.709 313.894C302.588 312.638 301.525 311.342 300.515 309.998C304.369 311.079 306.985 315.073 312.34 313.374C308.644 311.301 306.898 308.451 306.051 304.883C308.912 305.525 312.072 310.127 315.027 311.552C317.17 312.585 323.5 315.365 325.836 313.736C328.698 311.739 324.119 310.641 322.624 310.063C317.76 308.176 314.46 306.378 311.324 302.068C314.449 302.926 319.991 308.194 323.319 306.962C326.397 305.823 325.083 299.995 325.585 297.081C326.391 292.385 328.493 287.433 332.091 284.175C333.06 283.299 339.268 278.831 340.559 281.588C341.189 282.942 335.665 287.492 335.005 288.502C332.821 291.837 331.624 295.749 331.291 299.697C330.532 308.585 334.579 315.984 341.563 321.269C352.957 329.889 374.833 332.254 384.287 319.155C386.67 315.856 387.937 297.641 389.841 297.671C393.018 297.723 392.136 305.654 392.562 307.575C393.362 311.155 394.91 314.507 397.252 317.345C419.875 344.804 475.179 311.353 450.044 281.477C447.404 278.335 441.897 276.711 439.883 273.464C438.177 270.714 439.883 268.442 437.05 265.873C431.111 260.482 418.994 261.685 412.523 265.067C406.87 268.022 406.631 269.75 406.841 275.245C406.917 277.161 407.279 281.909 403.448 279.555C402.052 278.697 399.961 270.907 398.513 269.125C396.253 266.34 393.444 264.033 390.127 262.631C383.312 259.741 374.208 260.465 368.07 264.693C365.419 266.521 363.351 269.009 361.886 271.87C360.998 273.61 360.286 278.86 358.44 279.684C354.37 281.506 355.801 274.165 355.947 272.39C356.279 268.302 357.015 267.268 352.192 266.2C342.918 264.15 338.777 271.181 330.876 272.653C330.24 266.982 336.932 265.47 329.883 262.024C324.809 259.542 318.922 258.322 313.368 259.752C308.118 261.101 303.662 264.781 300.608 269.207C299.154 271.315 298.88 275.456 297.414 277.056C295.399 279.252 291.241 279.812 288.473 280.752L288.491 280.741ZM491.752 514.895C512.127 498.468 532.427 478.636 543.207 454.383C550.723 437.471 557.445 398.595 529.034 397.368C517.039 396.849 507.888 404.943 499.84 412.68C494.333 417.977 490.97 419.735 491.851 427.549C492.599 434.189 492.879 440.828 491.694 447.451C490.654 453.267 489.486 457.793 491.892 463.516C494.403 469.485 497.972 474.332 498.783 480.96C499.542 487.162 497.902 493.591 496.167 499.513C494.818 504.109 489.294 510.288 491.746 514.901L491.752 514.895ZM392.37 641.556C392.37 641.556 392.37 641.573 392.37 641.579C424.121 641.579 457.198 642.642 488.64 637.608C493.854 636.773 498.077 635.757 499.128 629.993C500.126 624.509 497.458 619.288 493.995 615.265C492.424 613.437 484.248 604.578 481.743 610.307C481.124 611.726 488.581 616.03 489.755 617.495C492.558 621.011 495.373 626.658 491.945 630.641C488.406 634.758 479.71 634.057 474.852 634.472C461.613 635.599 448.315 636.23 435.047 636.954C406.747 638.501 377.969 638.437 349.64 637.637C335.957 637.252 322.262 636.428 308.603 635.576C301.28 635.12 293.98 634.489 286.68 633.719C280.998 633.123 275.544 633.736 272.659 628.317C280.513 626.681 290.044 629.631 298.021 630.396C307.038 631.266 316.084 631.838 325.124 632.358C342.924 633.38 360.659 634.011 378.488 633.8C387.406 633.695 396.323 633.52 405.241 633.351C409.183 633.275 424.261 635.278 427.204 632.51C429.388 630.454 429.669 615.615 426.906 614.143C425.645 613.472 421.762 614.12 420.179 614.05C416.494 613.881 412.844 613.554 409.142 613.495C375.025 612.964 340.343 613.997 306.355 610.931C301.619 610.505 296.894 609.997 292.17 609.466C288.958 609.104 283.533 607.538 280.35 608.193C276.49 608.987 272.104 615.533 269.955 618.932C266.685 624.1 266.685 630.962 271.917 634.875C277.021 638.688 285.699 637.952 291.755 638.519C325.223 641.637 358.791 641.556 392.364 641.556H392.37ZM491.291 558.887C491.186 559.19 491.075 559.5 490.97 559.804C499.794 567.144 519.281 563.413 516.052 549.666C514.674 543.797 514.376 540.153 517.92 534.628C521.524 529.016 527.031 524.402 531.685 519.684C550.962 500.115 570.018 481.38 579.35 454.838C588.133 429.867 587.152 398.133 565.901 379.452C555.891 370.657 543.008 365.938 529.67 366.738C520.356 367.293 498.398 370.476 498.258 382.833C502.86 381.198 507.204 379.568 511.888 379.055C505.622 382.342 500.891 387.108 497.288 393.088C500.506 392.475 503.759 389.128 506.772 387.715C509.733 386.325 512.846 385.315 516.023 384.562C523.2 382.856 530.213 382.821 536.69 386.57C532.707 388.217 526.885 386.43 522.464 387.219C518.236 387.972 514.113 389.368 510.305 391.347C503.362 394.956 493.697 401.999 490.9 409.55C491.151 409.743 491.402 409.936 491.653 410.128C504.933 398.822 523.089 382.226 542.062 392.93C557.573 401.684 558.344 421.948 555.646 437.383C552.393 456.006 542.541 472.51 530.564 486.852C524.414 494.216 517.646 501.037 510.58 507.519C506.959 510.842 491.448 520.858 493.317 526.306C497.831 524.181 500.816 520.069 505.523 517.914C503.502 522.884 498.772 526.055 498.707 531.539C504.518 529.139 510.34 519.824 514.726 515.339C519.608 510.34 524.607 505.452 529.448 500.407C538.629 490.847 547.353 480.691 553.941 469.14C560.475 457.688 564.826 444.981 566.292 431.858C567.921 417.247 565.422 406.105 560.335 392.621C560.551 392.48 560.767 392.34 560.983 392.2C572.272 403.926 571.589 424.64 568.821 439.509C566.012 454.581 559.512 468.597 550.443 480.919C540.579 494.321 528.076 505.627 516.513 517.511C510.551 523.637 492.541 546.407 507.041 553.018C507.38 549.379 505.336 546.226 505.645 542.377C505.96 538.447 507.45 534.628 509.365 531.223C513.447 523.976 520.274 518.311 526.079 512.489C538.103 500.424 550.116 488.236 558.922 473.532C567.991 458.389 573.072 441.81 572.844 424.126C572.616 406.531 568.178 393.66 557.398 379.931L557.666 379.405C573.86 383.843 579.759 407.641 580.127 422.065C580.64 442.394 573.522 462.599 562.554 479.523C550.945 497.434 534.401 510.79 520.145 526.417C516.934 529.939 514.019 533.653 512.209 538.103C509.943 543.668 511.952 546.343 512.086 551.634C512.349 561.719 497.756 559.646 491.279 558.887H491.291ZM409.13 340.698C409.918 337.475 410.572 337.954 407.921 336.307C404.499 334.175 399.64 335.232 396.16 336.348C388.288 338.871 380.106 342.497 371.702 342.17C363.889 341.866 355.748 338.958 348.705 335.676C345.219 334.047 341.838 332.143 338.795 329.772C336.915 328.306 333.749 323.681 331.343 323.477C328.984 323.272 323.757 327.816 321.404 328.809C317.76 330.344 313.894 331.343 309.934 331.606C307.05 331.799 301.315 329.731 298.763 330.753C295.808 331.939 296.158 335.822 295.603 338.865C295.189 341.148 293.63 359.929 288.765 358.884C285.828 358.253 287.726 347.128 285.138 344.348C283.007 346.532 283.083 347.625 283.048 350.62C283.024 352.653 282.289 360.624 283.62 362.452C285.839 365.494 297.595 363.065 301.151 363.013C318.683 362.744 336.225 362.399 353.757 362.522C372.152 362.656 390.536 362.709 408.937 362.557C413.306 362.522 425.628 364.724 428.413 361.19C429.803 359.427 428.296 351.333 428.22 349.312C428.092 345.884 427.958 342.702 427.152 339.379C426.912 339.402 426.679 339.42 426.439 339.443C425.131 342.643 426.731 351.928 424.687 354.066C421.423 357.471 422.527 348.203 422.562 346.655C422.731 339.42 422.24 344.039 418.03 341.72C414.643 339.852 417.896 337.095 412.324 337.755C412.284 337.965 412.243 338.17 412.208 338.38C413.107 339.011 414 339.641 415.063 340.389C413.031 342.229 411.121 341.347 409.118 340.728L409.13 340.698ZM475.424 267.087C482.887 265.586 481.696 273.365 486.052 276.402C492.523 280.916 488.365 268.857 486.105 266.229C479.488 258.538 467.908 257.206 459.107 261.434C456.625 262.626 454.897 264.29 452.129 265.008C450.301 265.481 446.289 264.781 446.155 267.589C446.02 270.346 455.831 278.405 457.431 280.782C461.502 286.843 462.81 293.682 462.121 300.947C461.385 308.696 459.621 313.018 466.88 318.157C467.079 317.958 467.272 317.765 467.47 317.567C465.747 314.775 464.025 311.99 462.138 308.936C469.029 310.092 471.447 315.593 474.904 320.002C475.909 314.74 471.283 311.359 470.834 306.378C473.952 308.147 483.168 316.084 480.732 320.312C477.871 325.27 464.585 321.649 460.854 319.529C458.681 318.297 458.313 316.434 456.217 317.935C453.343 319.99 455.942 321.988 457.741 323.407C463.008 327.559 470.367 328.873 476.837 327.728C489.171 325.544 498.503 314.606 498.713 302.004C498.976 286.493 484.68 278.872 473.584 271.455C473.69 271.181 473.795 270.901 473.9 270.626C475.973 271.047 478.046 271.467 480.119 271.893C480.207 271.747 480.294 271.596 480.376 271.45C478.846 270.106 477.322 268.763 475.43 267.099L475.424 267.087ZM369.542 379.434C369.542 379.434 369.542 379.446 369.542 379.452C383.201 379.452 397.024 380.333 410.666 379.843C413.195 379.75 415.916 378.786 418.363 378.874C420.477 378.955 422.661 381.139 424.898 380.363C430.784 378.313 425.394 372.496 421.995 371.007C416.798 368.736 409.101 370.108 403.413 370.055C396.685 369.991 389.952 369.921 383.224 369.88C369.618 369.787 356.005 369.781 342.392 369.816C336.144 369.833 329.761 370.686 323.565 370.587C321.083 370.546 318.899 369.629 316.399 369.775C313.73 369.933 311.575 371.27 308.924 371.165C306.571 371.071 304.819 369.968 302.15 370.295C300.1 370.546 298.815 371.124 296.783 371.107C294.395 371.083 292.894 370.523 290.447 371.066C285.933 372.064 288.888 371.352 284.549 370.984C280.689 370.657 275.684 371.673 274.691 376.053C273.628 380.731 281.658 385.548 284.601 381.472C286.955 378.208 282.137 374.873 287.223 377.513C289.326 378.599 289.133 381.35 292.497 381.11C295.434 380.9 295.148 380.316 295.977 377.53C297.969 378.401 302.5 382.179 304.924 380.374C306.787 378.99 304.749 376.041 306.664 374.949C309.391 373.39 309.847 377.84 311.5 379.06C314.758 381.461 315.786 379.206 318.834 378.634C321.637 378.109 324.119 379.206 327.139 379.422C331.717 379.744 336.459 379.434 341.055 379.434C350.551 379.434 360.046 379.434 369.542 379.434ZM466.168 501.551C463.277 499.268 461.654 494.911 461.338 491.326C461.029 487.857 463.143 482.653 460.924 479.681C455.236 484.902 460.807 499.455 464.947 503.945C467.733 506.971 470.6 508.46 474.601 509.044C478.63 509.639 479.705 508.325 479.967 513.184C480.54 523.76 479.506 534.879 479.524 545.525C479.535 551.161 479.553 556.802 479.582 562.437C479.599 565.638 477.947 576.5 479.798 578.497C486.047 585.23 484.476 562.542 484.47 559.926C484.452 550.296 484.411 540.666 484.365 531.037C484.336 525.261 484.99 518.656 483.641 513.015C482.66 508.915 482.56 508.781 485.106 505.312C489.942 498.725 491.665 491.431 491.209 483.278C490.958 478.828 489.913 474.554 487.863 470.588C486.105 467.19 482.496 464.416 481.889 460.567C481.287 456.765 483.419 452.111 484.178 448.525C485.089 444.233 485.299 439.923 485.083 435.549C484.587 425.662 483.927 415.98 483.944 406.052C483.944 404.575 484.54 386.658 479.716 392.153C477.748 394.396 479.448 405.801 479.465 408.487C479.488 412.523 479.512 416.552 479.541 420.588C479.594 428.518 479.722 435.882 479.43 443.871C479.261 448.438 480.201 454.459 478.869 458.792C478.402 460.316 474.822 463.826 475.149 464.883C475.605 466.354 481.69 468.836 482.934 471.003C484.803 474.256 485.346 478.338 485.468 482.011C485.603 486.187 483.933 505.4 476.347 504.232C471.622 503.502 474.116 489.521 474.11 485.153C474.11 484.09 475.074 473.059 473.24 472.755C471.085 472.399 471.651 476.995 471.611 478.618C471.429 486.046 474.116 497.603 471.009 504.389C466.477 502.199 468.393 495.425 468.375 490.888C468.375 490.07 468.556 474.081 467.277 474.355C464.287 474.992 466.185 498.328 466.185 501.539L466.168 501.551ZM447.112 240.288C452.152 240.977 449.618 236.078 446.803 235.05C441.973 233.28 435.398 233.409 430.305 232.708C417.872 230.991 405.398 230.874 392.872 230.477C380.083 230.074 367.293 230.518 354.522 231.213C348.18 231.558 341.82 231.867 335.513 232.626C331.355 233.129 322.683 232.901 319.103 235.225C314.437 238.256 318.899 239.897 322.28 239.745C328.318 239.465 334.596 237.964 340.623 237.298C352.618 235.978 364.537 235.628 376.596 235.599C400.259 235.546 423.706 236.632 447.107 240.288H447.112ZM361.705 227.178C351.047 217.869 340.307 202.347 345.686 187.28C347.677 181.691 352.7 177.72 358.726 177.849C360.42 177.884 366.382 180.628 367.912 179.659C371.486 177.399 365.232 175.746 363.416 175.162C323.968 162.472 340.372 233.222 361.699 227.178H361.705ZM410.391 173.953C407.828 173.685 400.51 174.724 399.208 177.796C397.719 181.306 399.961 180.307 402.058 180.12C408.803 179.519 414.695 176.067 419.823 183.116C425.026 190.27 423.046 201.582 420.027 209.197C418.532 212.969 416.593 216.87 413.989 220.006C411.869 222.558 407.407 224.287 406.888 227.657C419.858 229.087 426.959 206.762 427.648 197.173C428.542 184.792 424.46 173.813 410.391 173.948V173.953ZM439.924 429.943C439.602 429.902 439.287 429.867 438.966 429.826C436.338 440.326 439.234 454.71 452.076 456.415C459.102 457.349 456.374 448.514 456.298 443.316C456.217 437.739 458.366 425.002 454.482 420.897C451.767 424.705 453.338 433.108 453.326 437.663C453.314 442.96 454.687 450.108 452.438 454.914C449.221 451.65 450.698 443.783 450.692 439.357C450.692 436.25 452.193 425.073 450.295 422.842C447.036 419.017 447.93 429.581 447.895 431.239C447.749 438.224 448.269 445.617 447.229 452.52C440.256 445.833 448.432 431.929 443.93 424.068C439.742 429.523 442.879 440.303 441.979 446.838C439.515 441.354 440.776 435.52 439.929 429.949L439.924 429.943ZM328.073 229.374C328.213 229.029 328.347 228.679 328.488 228.334C318.91 222.103 309.794 213.413 307.838 201.576C307.015 196.6 307.809 191.823 311.54 188.179C313.468 186.305 321.649 184.413 321.421 182.007C321.036 178 310.548 182.958 309.222 183.951C304.708 187.327 302.401 192.758 302.74 198.341C303.335 208.222 311.295 226.027 320.616 230.179C320.861 229.467 321.112 228.755 321.322 228.153C323.582 228.562 325.83 228.971 328.073 229.379V229.374ZM446.943 227.341C445.617 229.636 445.127 231.038 447.755 230.238C450.032 229.543 453.051 223.861 454.587 222.015C459.288 216.368 463.312 210.528 464.842 203.194C466.109 197.12 465.327 191.152 461.373 186.211C457.723 181.644 450.943 177.761 445.839 182.374C450.435 185.341 455.125 184.944 458.494 190.305C462.173 196.157 461.093 202.709 458.231 208.642C455.428 214.453 451.142 219.428 446.108 223.429C441.278 227.265 438.738 229.911 446.937 227.347L446.943 227.341ZM442.324 192.594C441.635 187.099 442.008 181.469 437.547 177.615C434.37 174.87 432.758 173.913 430.434 170.379C428.81 171.647 426.585 172.879 426.924 175.361C427.356 178.526 429.388 176.307 430.323 177.948C430.924 179.005 429.838 180.739 430.516 181.545C432.595 184.021 434.306 183.198 436.77 184.705C441.056 187.327 438.65 193.406 438.364 197.64C437.897 204.432 436.624 205.144 432.308 210.248C428.594 214.64 424.179 219.767 420.81 224.41C416.354 230.547 421.867 227.808 425.125 224.818C434.849 215.889 442.335 206.4 442.324 192.6V192.594ZM381.443 213.915C381.245 213.939 381.046 213.968 380.848 213.991C378.71 204.624 378.459 195.374 377.869 185.855C377.747 183.893 377.209 182.082 377.449 180.097C377.554 179.227 378.915 176.926 378.576 175.822C377.087 170.963 374.249 174.841 373.571 177.574C371.002 187.957 374.4 201.208 375.533 211.62C375.761 213.717 375.066 224.573 376.544 225.718C379.966 228.375 381.455 221.519 381.811 219.347C383.47 221.595 381.233 223.972 383.54 225.613C384.147 222.798 385.759 215.2 384.118 212.491C382.565 209.933 381.77 209.781 381.443 213.904V213.915ZM350.177 197.015C351.21 202.212 350.358 207.264 355.841 206.82C357.588 205.944 359.427 205.413 361.366 205.232C363.334 205.091 365.214 205.43 367.007 206.248C369.314 205.232 368.648 206.213 368.607 202.277C368.52 194.066 365.787 193.826 358.3 192.623C353.657 191.876 350.551 191.42 350.171 197.021L350.177 197.015ZM417.189 197.856C417.101 197.844 417.014 197.833 416.926 197.821C416.926 190.177 413.434 191.321 407.302 193.237C402.8 194.638 397.205 197.289 399.01 203.415C400.16 207.311 406.975 205.232 411.332 205.804C417.259 206.581 416.307 203.521 417.183 197.862L417.189 197.856ZM328.219 183.834C330.946 184.097 335.747 185.271 335.928 181.288C336.091 177.679 332.459 177.23 330.158 178.363C324.341 181.23 324.873 189.774 325.503 195C326.444 202.744 330.099 209.974 334.491 216.327C336.646 219.446 343.864 229.841 348.729 227.633C346.451 224.013 342.83 221.11 340.366 217.495C338.147 214.248 336.22 211.177 333.58 208.251C328.026 202.096 326.607 191.928 328.225 183.829L328.219 183.834ZM394.466 188.051C394.332 188.039 394.203 188.033 394.069 188.022C394.069 185.563 395.144 175.764 391.844 174.73C388.06 173.545 390.524 180.185 390.524 181.995C390.536 191.561 389.444 201.442 388.498 210.99C388.253 213.483 386.004 222.103 387.312 224.17C390.098 228.556 391.155 224.24 391.581 221.139C393.082 210.219 393.508 199.036 394.455 188.051H394.466ZM391.424 149.479C385.409 149.782 387.277 147.937 387.009 143.318C386.822 140.141 384.427 136.222 381.315 140.211C379.551 142.471 382.792 146.722 380.783 148.772C378.605 150.997 374.786 147.172 373.396 150.407C370.47 157.234 379.248 152.328 381.21 153.724C382.973 154.98 380.947 163.874 385.753 160.545C387.569 159.29 385.52 155.599 386.851 154.221C388.305 152.72 389.461 154.005 391.278 153.859C393.263 153.701 394.782 155.032 395.389 152.486C396.025 149.823 393.549 149.298 391.418 149.473L391.424 149.479ZM476.16 588.261C476.09 588.518 476.025 588.769 475.955 589.026C478.303 590.562 484.441 593.196 485.299 595.941C485.807 597.57 483.074 598.037 484.341 599.555C485.468 600.91 488.161 599.906 489.375 599.281C493.271 597.284 494.234 591.952 490.853 588.974C487.396 585.931 480.067 586.941 476.154 588.261H476.16ZM479.839 381.122C479.827 381.466 479.815 381.811 479.798 382.15C484.19 382.664 491.641 383.551 490.911 376.695C490.508 372.911 486.082 370.815 482.735 370.254C477.807 369.431 475.552 370.546 479.448 374.132C483.284 377.659 486.082 379.09 479.839 381.116V381.122ZM477.386 362.814C484.692 363.305 482.934 359.462 482.911 353.178C482.899 350.796 484.376 338.158 482.806 336.494C478.081 331.483 478.922 343.922 478.887 346.112C478.794 351.823 479.156 357.371 477.38 362.814H477.386ZM446.885 202.785C446.669 211.544 454.774 204.741 454.763 199.053C454.763 196.746 453.11 190.696 449.32 191.812C446.61 192.612 447.177 200.297 446.885 202.791V202.785ZM431.024 590.165C429.394 590.007 427.882 590.364 426.492 591.234C428.46 594.206 435.637 604.443 440.157 599.766C444.029 595.76 435.094 589.721 431.024 590.165ZM425.727 370.937C427.526 372.87 439.614 387.528 440.274 377.343C440.718 370.476 430.002 368.981 425.727 370.937ZM313.678 199.392C314.577 202.043 315.103 207.229 318.455 207.708C322.613 208.303 321.632 205.109 321.462 202.726C321.322 200.764 320.867 192.606 318.548 192.063C315.319 191.304 313.806 197.453 313.678 199.386V199.392ZM443.194 369.833C441.851 369.816 440.589 370.149 439.41 370.844C441.471 373.822 446.885 384.795 451.311 379.802C455.317 375.282 447.235 369.769 443.194 369.833ZM300.988 599.24C304.369 597.056 307.931 593.453 310.443 590.253C301.192 583.017 293.157 598.364 300.988 599.24ZM289.758 598.609C291.878 597.038 296.479 593.196 296.929 590.474C297.402 587.566 292.917 587.327 290.102 588.314C287.866 589.102 285.536 591.006 285.209 593.902C284.852 597.044 286.832 597.418 289.758 598.604V598.609ZM458.617 456.917C463.668 454.803 461.309 443.696 461.286 439.187C461.256 434.387 462.833 425.627 459.715 421.68C457.262 425.475 458.623 432.898 458.623 437.214C458.623 443.783 458.623 450.347 458.623 456.917H458.617ZM455.119 369.705C449.355 370.12 454.389 372.45 456.047 374.768C457.338 376.578 456.561 380.065 457.718 381.023C461.198 383.913 465.181 378.932 464.182 375.726C463.195 372.561 458.296 369.734 455.119 369.699V369.705ZM468.661 382.179C482.198 382.179 475.669 367.9 465.321 370.797C468.568 374.978 472.329 376.701 468.661 382.179ZM280.782 586.696C272.302 586.696 273.844 599.193 279.252 597.517C281.383 596.857 282.592 592.734 283.871 590.819C286.4 587.029 285.88 587.619 280.782 586.696ZM443.971 589.604C442.662 589.645 441.413 589.966 440.216 590.556C441.874 592.816 444.292 596.916 446.242 598.458C447.65 599.573 452.012 601.091 453.291 598.06C454.973 594.089 446.949 589.447 443.971 589.598V589.604ZM456.439 589.009C451.586 589.517 453.764 590.439 455.224 592.822C456.141 594.311 457.963 598.399 458.985 599.082C461.998 601.097 466.127 598.621 465.362 595.286C464.644 592.145 459.499 589.003 456.439 589.009ZM468.842 587.911C463.406 590.264 465.864 590.072 468.428 593.015C470.285 595.146 470.886 599.012 473.742 599.293C482.391 600.128 473.625 588.489 468.842 587.917V587.911ZM439.217 555.535C438.411 558.98 436.723 581.65 440.046 582.637C440.969 582.912 442.949 558.986 439.217 555.535ZM433.576 337.615C430.247 342.205 429.196 357.815 432.565 362.236C436.934 357.692 434.382 343.642 433.576 337.615ZM478.472 474.851C476.65 482.402 475.95 494.421 478.215 501.837C480.411 498.555 480.61 478.344 478.472 474.851ZM431.613 622.868H431.8C431.8 626.086 431.187 630.729 433.179 633.397C436.204 630.22 436.18 616.748 432.77 614.173C431.012 616.789 431.613 619.75 431.613 622.868ZM448.286 573.06C448.181 573.06 448.082 573.06 447.977 573.06C447.977 569.434 448.677 565.696 446.634 562.624C443.971 566.613 444.426 578.771 447.036 582.632C448.858 579.677 448.28 576.506 448.28 573.054L448.286 573.06ZM383.598 173.913C389.444 174.047 389.31 166.052 383.949 165.994C378.839 165.935 378.541 173.796 383.598 173.913ZM464.673 451.661C468.329 448.934 466.571 441.588 466.565 437.745C466.565 436.495 466.752 424.214 465.374 424.681C462.483 425.662 464.171 448.362 464.673 451.661ZM440.204 337.416C439.906 337.457 439.608 337.498 439.316 337.545C439.036 342.801 438.756 348.057 438.475 353.313C438.44 353.943 437.704 363.059 439.836 361.482C443.071 359.088 440.77 341.253 440.204 337.422V337.416ZM424.495 168.3C424.536 163.669 417.294 162.829 417.207 167.716C417.125 172.231 424.442 173.527 424.495 168.3ZM450.377 171.67C448.683 172.698 445.606 173.492 446.125 175.951C446.464 177.568 449.951 178.263 451.224 178.082C456.269 177.358 454.453 172.669 450.383 171.67H450.377ZM468.188 180.459C468.358 175.828 461.782 174.415 461.391 179.314C461.04 183.753 468.001 185.505 468.188 180.459ZM440.753 633.216C441.109 633.234 441.465 633.251 441.821 633.269C442.271 631.02 442.4 613.688 440.087 614.873C437.418 616.246 440.256 630.349 440.753 633.21V633.216ZM460.129 354.808C459.872 354.808 459.615 354.808 459.359 354.808C458.22 359.374 458.611 360.058 454.33 358.913C453.291 362.837 465.712 362.942 467.003 361.231C468.889 358.726 465.029 359.415 464.521 359.147C463.914 358.82 462.757 359.917 461.735 359.333C460.83 358.814 460.38 355.66 460.124 354.808H460.129ZM384.065 177.703C379.569 177.533 379.213 184.004 383.493 184.465C388.311 184.979 388.761 177.884 384.065 177.703ZM338.007 168.738C333.539 168.674 335.139 175.057 338.322 175.729C343.362 176.786 343.093 168.814 338.007 168.738ZM449.694 633.8C453.174 630.594 451.691 618.185 449.104 614.856C446.155 619.096 448.467 628.994 449.694 633.8ZM292.684 201.109C292.59 206.178 299.376 206.294 299.458 201.599C299.528 197.494 292.771 196.542 292.684 201.109ZM413.691 167.67C413.668 162.817 406.829 162.607 407.197 167.553C407.507 171.682 413.708 171.909 413.691 167.67ZM304.649 181.621C303.154 178.929 297.367 174.222 297.717 180.582C298.027 186.194 302.512 183.887 304.649 181.621ZM474.84 190.539C475.138 185.505 467.931 186.445 468.031 190.597C468.136 194.848 474.571 195.029 474.84 190.539ZM299.084 190.136C298.979 185.738 292.339 185.312 292.321 189.861C292.304 193.996 299.195 194.749 299.084 190.136ZM383.703 194.866C388.632 194.825 388.153 188.027 383.674 188.319C379.575 188.582 379.323 194.907 383.703 194.866ZM434.253 188.179C429.359 188.057 429.932 194.819 434.148 194.726C438.072 194.638 438.802 188.296 434.253 188.179ZM350.475 168.131C350.346 163.967 344.553 163.202 344.308 167.582C344.062 172.015 350.621 172.873 350.475 168.131ZM312.895 176.254C312.965 172.02 306.863 170.887 306.384 175.244C305.917 179.484 312.819 180.786 312.895 176.254ZM435.479 201.482C435.649 197.377 429.383 197.266 429.342 201.482C429.301 205.681 435.304 205.821 435.479 201.482ZM487.401 631.272C480.002 628.936 467.622 629.245 465.858 631.272H487.401ZM471.248 197.973C467.015 197.78 467.552 203.503 471.067 204.122C475.827 204.957 475.132 198.154 471.248 197.973ZM380.918 202.411C381.005 206.604 387.178 206.359 387.143 202.393C387.108 198.539 380.83 198.212 380.918 202.411ZM332.646 188.617C327.927 188.629 329.848 194.819 333.235 194.679C337.481 194.504 336.879 188.606 332.646 188.617ZM471.056 211.258C470.916 206.902 464.568 208.163 465.035 211.971C465.514 215.878 471.173 215.013 471.056 211.258ZM297.63 211.527C297.455 215.364 303.201 215.749 303.721 212.099C304.287 208.099 297.817 207.369 297.63 211.527ZM337.592 201.611C337.51 198.101 332.208 197.961 331.624 201.208C330.859 205.436 337.697 205.962 337.592 201.611ZM397.596 169.702C397.719 174.006 403.173 174.105 403.156 169.871C403.144 165.69 397.485 165.813 397.596 169.702ZM366.143 172.733C370.149 172.756 370.342 167.366 366.739 166.8C363.217 166.245 362.54 172.71 366.143 172.733ZM354.592 166.811C354.621 172.061 361.021 171.267 360.005 166.951C359.258 163.786 354.627 163.033 354.592 166.811ZM459.084 618.476C458.88 618.482 458.681 618.488 458.477 618.494C457.414 620.082 456.929 630.25 458.483 631.739C461.186 634.332 459.166 619.096 459.084 618.471V618.476ZM316.971 174.52C316.726 178.1 321.97 179.069 322.449 175.746C322.835 173.054 317.223 170.835 316.971 174.52ZM386.331 246.367C386.244 242.642 381.14 241.626 381.583 245.416C381.969 248.686 384.579 247.623 386.331 246.367ZM447.469 349.797C447.089 349.826 446.715 349.855 446.336 349.885C446.336 353.254 445.261 358.551 447.428 361.301C449.372 358.475 447.755 353.143 447.469 349.791V349.797ZM428.711 248.195C431.456 248.19 431.38 243.348 428.366 243.646C425.464 243.932 425.99 248.02 428.711 248.195ZM454.149 576.815C453.793 576.815 453.431 576.815 453.075 576.815C453.075 578.771 452.543 580.482 454.038 581.843C455.084 580.208 454.441 578.695 454.149 576.821V576.815ZM471.295 578.83C471.26 579.163 471.219 579.496 471.184 579.828C472.989 581.621 479.226 578.83 471.295 578.83ZM462.062 580.395C461.245 579.536 460.719 578.976 460.188 578.421C458.407 580.78 459.738 582.013 462.062 580.395ZM466.758 581.709C467.377 580.967 467.756 580.512 468.13 580.056C466.104 578.614 466.571 578.76 465.105 579.922C465.578 580.43 466.051 580.944 466.758 581.709ZM474.606 361.634C472.889 360.425 472.872 360.087 471.132 361.185C472.668 362.487 472.749 362.072 474.606 361.634ZM459.586 398.39C459.75 398.419 459.919 398.455 460.083 398.484C460.462 397.795 460.427 397.129 459.972 396.481C459.843 396.516 459.715 396.551 459.586 396.586V398.384V398.39ZM452.783 397.316C453.314 396.743 453.367 396.159 452.946 395.564C452.263 395.955 452.211 396.539 452.783 397.316Z" fill="black"/>
<path d="M527.124 200.624C552.288 200.151 553.736 240.627 528.187 240.423C503.222 240.224 502.375 201.086 527.124 200.624ZM514.422 221.017C514.609 239.634 543.522 237.649 541.087 219.084C538.845 201.991 514.241 203.217 514.422 221.017Z" fill="black"/>
<path d="M285.851 656.325C292.935 655.373 516.904 655.308 520.058 656.547C510.445 659.215 498.842 657.849 488.873 658.012C485.836 658.065 484.493 656.827 482.046 656.821C480.353 656.821 477.649 658.036 475.617 658.071C473.035 658.117 470.437 658.077 467.879 657.685H474.197C474.197 657.51 474.186 657.335 474.18 657.154C466.063 657.417 457.945 657.679 449.822 657.936C449.81 658.012 449.804 658.088 449.793 658.164C450.879 658.228 451.959 658.299 453.046 658.363C453.046 658.427 453.046 658.485 453.046 658.55H430.562C430.562 658.48 430.562 658.404 430.562 658.334H443.083C443.094 658.147 443.106 657.954 443.124 657.767C416.313 657.767 389.502 657.75 362.692 657.668C349.809 657.633 336.926 657.481 324.043 657.335C311.721 657.189 297.817 659.099 285.705 657.06C285.757 656.815 285.81 656.57 285.863 656.325H285.851ZM493.586 657.055C500.354 658.112 504.518 657.878 506.252 656.751C503.192 655.279 496.897 656.868 493.586 657.055Z" fill="black"/>
<path d="M543.797 268.39C543.873 288.636 512.139 285.553 514.995 265.09C517.564 246.706 543.353 250.893 543.797 268.39ZM520.245 267.835C519.964 279.252 537.315 279.532 538.15 268.711C539.072 256.704 521.652 254.929 520.245 267.835Z" fill="black"/>
<path d="M569.533 291.679C569.41 307.639 545.333 306.296 546.46 290.26C547.563 274.574 569.656 276.186 569.533 291.679ZM557.97 298.091C567.361 298.062 564.604 282.96 556.312 284.572C548.895 286.014 550.612 298.114 557.97 298.091Z" fill="black"/>
<path d="M235.255 239.009C235.395 254.111 212.59 250.893 214.354 235.879C216.012 221.735 235.903 225.665 235.255 239.009ZM224.609 243.973C233.801 244.119 230.863 231.949 223.674 232.293C216.608 232.632 218.249 243.868 224.609 243.973Z" fill="black"/>
<path d="M242.513 200.834C247.617 203.234 252.266 205.891 251.857 212.484C251.53 217.711 246.998 221.227 241.859 220.684C230.226 219.457 230.939 201.576 242.513 200.834ZM241.859 214.709C248.096 214.744 246.993 206.323 241.906 205.646C236.224 204.887 235.657 214.68 241.859 214.709Z" fill="black"/>
<path d="M565.685 544.935C562.327 544.935 539.119 546.786 539.797 542.564C540.287 539.51 564.552 541.157 567.355 541.151C569.568 541.151 592.787 540.281 591.806 543.207C590.533 547.02 569.334 544.783 565.685 544.783C565.685 544.836 565.685 544.889 565.685 544.935Z" fill="black"/>
<path d="M561.246 562.472C558.186 562.472 536.678 563.909 537.017 560.434C537.291 557.649 561.211 558.916 564.68 558.881C567.022 558.857 586.398 557.684 585.686 560.837C584.938 564.125 564.16 562.279 561.246 562.279V562.472Z" fill="black"/>
<path d="M230.203 544.281C224.609 544.281 212.1 546.711 208 542.699C211.708 539.212 219.621 540.602 224.591 540.585C231.792 540.556 239.021 540.41 246.222 540.561C249.562 540.631 255.571 541.496 250.018 544.392C245.486 546.757 235.202 544.784 230.209 544.784C230.209 544.614 230.209 544.445 230.209 544.281H230.203Z" fill="black"/>
<path d="M554.817 580.43C552.206 580.43 533.63 582.065 533.244 578.9C532.771 575.075 552.977 576.739 555.436 576.739C558.665 576.739 575.887 574.52 576.482 578.357C577.008 581.733 557.526 580.378 554.817 580.378V580.43Z" fill="black"/>
<path d="M566.508 526.709C560.551 526.709 552.154 528.303 546.378 526.709C539.715 524.864 546.162 523.538 549.719 523.462C556.831 523.31 563.974 523.532 571.087 523.573C576.856 523.608 585.879 521.844 590.72 525.214C585.05 528.84 573.212 526.54 566.514 526.54V526.715L566.508 526.709Z" fill="black"/>
<path d="M231.698 526.668C226.045 526.668 215.901 528.829 211.738 524.648C215.679 522.487 221.157 523.339 225.613 523.24C231.441 523.106 237.269 522.983 243.098 523.001C246.175 523.007 255.291 523.608 248.604 526.674C244.92 528.368 235.658 526.674 231.692 526.674C231.692 526.674 231.692 526.668 231.692 526.662L231.698 526.668Z" fill="black"/>
<path d="M232.218 562.297C227.254 562.297 217.706 564.014 213.77 560.714C216.859 557.888 221.367 558.665 225.379 558.554C231.488 558.39 237.637 558.022 243.746 558.133C246.736 558.186 254.164 558.308 249.124 561.842C246.28 563.833 235.622 562.338 232.224 562.338C232.224 562.326 232.224 562.309 232.224 562.297H232.218Z" fill="black"/>
<path d="M230.77 379.381C230.77 370.487 244.312 371.387 244.003 380.456C243.681 389.835 230.77 388.316 230.77 379.381Z" fill="black"/>
<path d="M232.662 450.838C230.396 450.838 215.51 452.292 215.598 449.203C215.691 445.927 231.908 447.614 234.239 447.603C235.751 447.603 250.152 445.979 249.959 449.115C249.738 452.742 235.255 451.323 232.662 451.323C232.662 451.159 232.662 450.995 232.662 450.832V450.838Z" fill="black"/>
<path d="M232.72 468.352C231.295 468.352 216.596 469.403 217.437 466.6C218.482 463.114 230.997 465.111 233.835 465.093C235.757 465.082 248.394 463.271 248.172 466.851C247.95 470.32 234.834 468.515 232.726 468.515C232.726 468.463 232.726 468.41 232.726 468.358L232.72 468.352Z" fill="black"/>
<path d="M231.003 433.365C226.81 433.365 219.475 434.773 216.117 432.127C218.821 429.172 224.328 430.165 227.996 430.066C232.627 429.937 240.008 428.331 244.429 429.663C246.502 430.288 249.118 431.117 245.819 433.038C242.846 434.767 234.355 433.213 231.003 433.213C231.003 433.266 231.003 433.318 231.003 433.365Z" fill="black"/>
<path d="M234.262 508.132C231.827 508.132 219.166 509.966 218.593 506.509C218.144 503.788 233.514 504.897 234.635 504.897C235.803 504.897 251.116 504.121 250.444 506.451C249.404 510.06 237.205 508.191 234.262 508.191C234.262 508.173 234.262 508.15 234.262 508.132Z" fill="black"/>
<path d="M436.869 665.078C425.978 665.534 415.075 665.814 404.172 665.878C396.341 665.925 383.108 668.313 376.059 664.804C385.934 662.859 397.164 664.155 407.232 663.998C417.09 663.846 427.129 663.507 436.951 664.383C436.928 664.611 436.899 664.845 436.875 665.072L436.869 665.078Z" fill="black"/>
<path d="M533.904 306.465C533.986 312.977 524.823 312.025 525.355 306.091C525.816 300.894 533.846 301.414 533.904 306.465Z" fill="black"/>
<path d="M486.899 228.649C486.888 223.195 494.614 221.262 494.52 227.102C494.462 230.81 486.911 234.769 486.899 228.649Z" fill="black"/>
<path d="M270.054 231.126C268.337 234.659 261.54 225.689 261.674 223.908C261.884 221.163 264.139 221.823 265.733 222.594C268.407 223.884 269.389 228.614 270.054 231.126Z" fill="black"/>
<path d="M500.325 207.918C495.922 207.818 495.63 201.511 499.788 200.624C505.108 199.485 506.177 208.052 500.325 207.918Z" fill="black"/>
<path d="M356.466 658.392H418.036C418.036 658.462 418.036 658.532 418.036 658.608H356.56C356.531 658.538 356.501 658.468 356.466 658.392Z" fill="black"/>
<path d="M551.062 644.832C549.059 644.709 547.891 644.908 546.477 643.506C548.597 641.883 553.596 642.087 555.728 643.635C554.455 644.878 552.901 645.229 551.062 644.68C551.062 644.732 551.062 644.785 551.062 644.832Z" fill="black"/>
<path d="M333.954 658.024H309.047V657.825H333.954V658.024Z" fill="black"/>
<path d="M239.512 649.953C236.884 651.296 234.881 651.395 231.739 650.508C234.238 649.34 236.504 649.433 239.512 649.953Z" fill="black"/>
<path d="M561.421 645.322C560.54 644.692 559.932 644.265 559.325 643.833C561.445 642.799 561.778 642.671 563.892 643.664C563.115 644.183 562.338 644.709 561.416 645.322H561.421Z" fill="black"/>
<path d="M232.673 644.207C230.705 645.328 231.313 645.41 228.737 643.816C230.431 642.671 230.676 642.724 232.609 643.419L232.673 644.207Z" fill="black"/>
<path d="M373.098 665.376H368.526C368.526 665.16 368.514 664.944 368.508 664.728H373.104C373.104 664.944 373.098 665.16 373.092 665.376H373.098Z" fill="black"/>
<path d="M572.342 644.464C570.987 644.546 569.638 644.633 567.67 644.756C569.808 642.986 570.117 642.957 572.342 644.464Z" fill="black"/>
<path d="M528.946 656.733H525.769C525.746 656.523 525.728 656.307 525.705 656.097L528.934 655.781C528.934 656.102 528.94 656.418 528.946 656.739V656.733Z" fill="black"/>
<path d="M220.001 643.628H222.547C222.547 643.844 222.547 644.066 222.547 644.282H220.001C220.001 644.066 220.001 643.844 220.001 643.628Z" fill="black"/>
<path d="M442.592 663.911L445.53 664.168C445.518 664.384 445.512 664.606 445.501 664.822H442.569L442.592 663.911Z" fill="black"/>
<path d="M276.338 656.295H280.07C280.087 656.488 280.099 656.675 280.116 656.868C278.867 656.967 277.617 657.066 276.367 657.166C276.361 656.874 276.35 656.587 276.344 656.295H276.338Z" fill="black"/>
<path d="M265.814 656.219H269.435V656.64H265.715C265.75 656.5 265.779 656.359 265.814 656.219Z" fill="black"/>
<path d="M459.586 398.391V396.592C459.715 396.557 459.843 396.522 459.972 396.487C460.427 397.135 460.462 397.801 460.083 398.49C459.919 398.461 459.75 398.426 459.586 398.396V398.391Z" fill="white"/>
<path d="M452.783 397.316C452.211 396.539 452.263 395.955 452.946 395.564C453.367 396.16 453.314 396.744 452.783 397.316Z" fill="white"/>
<path d="M493.586 657.054C496.897 656.867 503.192 655.279 506.253 656.751C504.518 657.878 500.354 658.111 493.586 657.054Z" fill="white"/>
<path d="M452.45 492.342C450.389 486.928 451.276 480.685 449.08 475.033C448.812 475.079 448.549 475.126 448.28 475.179C447.883 483.705 448.677 492.739 447.585 501.189C446.721 507.899 440.946 510.334 434.709 510.848C420.506 512.016 411.997 500.483 411.431 487.279C410.859 473.894 419.128 459.534 433.961 460.561C452.094 461.823 454.266 476.989 453.11 492.237C452.894 492.272 452.672 492.307 452.456 492.348L452.45 492.342ZM444.134 470.705C443.702 470.705 443.27 470.705 442.832 470.705C442.055 477.03 442.277 483.395 442.283 489.761C442.283 494.012 443.608 499.98 440.426 503.157C436.986 497.901 439.334 486.724 439.415 480.504C439.439 478.741 440.689 467.394 437.687 468.819C435.281 469.958 436.764 484.587 436.717 487.647C436.671 490.742 438.23 503.508 434.825 504.08C431.631 504.617 436.367 469.298 433.19 467.54C429.184 465.327 430.481 478.869 430.486 480.925C430.486 482.946 430.755 503.484 429.879 503.402C424.769 502.947 432.863 469.549 427.368 467.96C423.023 466.705 417.773 475.944 416.628 478.788C414.707 483.565 414.281 488.826 415.945 493.726C419.794 505.026 432.705 509.809 443.194 504.016C449.034 500.792 445.068 497.341 444.917 491.524C444.736 484.546 445.01 477.649 444.134 470.705Z" fill="black"/>
<path d="M388.183 536.415C388.183 523.217 394.723 510.019 410.029 510.521C425.622 511.029 432.203 524.257 430.79 537.963C430.043 545.187 429.768 551.266 424.244 556.382C419.379 560.884 413.201 562.94 406.596 561.924C393.801 559.95 387.92 548.206 388.194 536.415H388.183ZM414.036 554.805C413.679 554.822 413.323 554.84 412.973 554.857C411.717 547.178 412.465 538.967 412.435 531.188C412.412 525.851 414.637 516.91 408.575 515.935C396.779 514.043 390.227 530.19 391.289 539.259C392.598 550.378 403.717 561.678 415.49 557.281C420.827 555.289 425.896 550.664 427.578 545.157C428.536 542.027 430.37 530.096 426.066 528.8C426.066 533.799 428.6 545.782 423.49 548.539C423.093 540.018 424.302 530.248 422.013 522.032L421.102 522.084C420.483 527.095 420.629 532.105 420.623 537.151C420.623 539.3 422.089 550.361 419.969 551.762C417.172 553.619 417.721 550.804 417.481 548.416C416.95 543.131 417.51 537.501 417.504 532.187C417.504 529.495 418.964 519.772 416.167 518.084C413.89 516.711 414.485 520.396 414.368 521.599C413.335 532.578 414.952 543.791 414.036 554.799V554.805Z" fill="black"/>
<path d="M387.546 436.332C388.609 422.62 393.719 409.953 409.831 410.14C424.816 410.31 432.297 423.344 431.181 437.103C430.188 449.314 422.807 460.269 409.603 460.328C395.027 460.386 388.492 449.133 387.552 436.332H387.546ZM414.047 453.168C413.755 453.192 413.463 453.221 413.171 453.244C409.907 447.801 412.266 436.198 412.272 430.072C412.278 424.512 415.075 415.822 408.038 415.793C394.501 415.741 388.352 432.139 391.902 443.287C395.219 453.711 405.825 459.195 416.155 455.148C423.408 452.304 423.414 447.813 423.227 440.688C423.099 435.806 424.944 423.794 420.792 420.272C420.179 426.924 420.167 433.494 420.185 440.18C420.185 441.167 420.494 453.221 418.129 450.908C415.349 448.193 417.493 435.117 417.493 431.415C417.493 426.941 418.906 420.815 415.863 417.247C412.897 421.032 414.246 427.911 414.24 432.6C414.24 439.445 414.491 446.341 414.047 453.168ZM426.393 427.379C425.943 432.834 425.966 438.265 426.743 444.204C429.126 440.215 428.927 430.358 426.393 427.379Z" fill="black"/>
<path d="M382.6 537.565C384.159 550.734 372.269 563.658 358.849 561.818C342.754 559.611 337.621 542.95 339.887 528.864C341.937 516.127 353.967 508.308 366.511 511.21C379.65 514.253 382.6 525.687 382.6 537.559V537.565ZM372.041 550.255C371.066 540.865 376.993 520.834 365.775 516.875C354.054 512.74 343.49 522.913 342.859 534.207C342.159 546.751 352.291 560.638 366.061 556.79C372.672 554.939 377.034 550.144 376.993 543.288C376.952 536.783 377.145 528.905 374.786 522.843C374.529 522.896 374.272 522.954 374.015 523.006C373.735 528.741 377.157 546.681 372.041 550.255Z" fill="black"/>
<path d="M406.432 485.299C406.432 492.856 406.414 499.402 400.592 504.997C395.529 509.873 388.177 511.607 381.344 510.445C366.482 507.916 362.183 493.895 363.019 480.691C363.76 468.912 373.752 460.152 385.438 460.45C400.662 460.836 405.988 471.727 406.794 485.287C406.671 485.287 406.549 485.293 406.426 485.299H406.432ZM398.268 471.388C397.941 471.423 397.62 471.458 397.293 471.493C396.936 476.434 399.886 497.738 395.605 500.325C394.437 493.504 394.852 486.268 394.781 479.354C394.711 472.656 395.552 467.516 387.674 466.103C374.739 463.785 365.886 475.564 366.651 487.401C367.469 500.033 378.617 510.293 391.564 505.289C398.805 502.491 401.059 498.69 400.534 491.384C400.055 484.721 400.306 477.777 398.262 471.382L398.268 471.388ZM402.654 494.146C404.943 490.712 404.762 481.602 402.525 478.583C402 483.792 401.486 488.698 402.654 494.146Z" fill="black"/>
<path d="M382.179 435.38C382.179 447.585 377.356 458.78 363.521 460.41C348.273 462.208 339.373 449.635 338.813 435.853C338.281 422.825 346.422 409.405 360.928 409.527C366.365 409.574 372.07 411.676 376.088 415.355C382.086 420.845 381.946 427.818 382.366 435.369C382.308 435.369 382.249 435.374 382.191 435.38H382.179ZM373.168 449.606H372.012C371.154 442.043 371.703 434.568 371.761 426.965C371.802 421.411 371.592 417.732 365.758 415.828C352.53 411.513 340.979 424.816 342.235 437.331C343.479 449.752 354.13 459.773 366.972 455.3C374.255 452.765 376.76 448.572 376.953 441.238C377.116 434.913 377.175 427.158 374.19 421.493C373.933 421.546 373.676 421.598 373.419 421.657C372.38 430.93 373.881 440.309 373.18 449.612L373.168 449.606Z" fill="black"/>
<path d="M291.849 435.514C290.634 423.145 299.376 410.28 312.405 409.755C327.904 409.13 333.352 422.678 333.849 435.771C334.316 448.181 327.22 460.474 313.339 460.316C299.008 460.153 291.849 448.543 291.849 435.52V435.514ZM295.241 435.999C297.648 447.206 303.131 458.839 317.053 455.481C328.289 452.771 331.192 441.926 329.889 431.642C328.762 422.748 321.959 415.338 312.539 415.729C301.63 416.179 295.674 426.065 295.247 436.005L295.241 435.999Z" fill="black"/>
<path d="M334.117 536.386C335.788 548.883 325.679 561.999 312.65 561.258C297.975 560.417 291.574 546.232 292.152 533.273C292.748 519.836 303.172 508.576 317.24 510.901C330.129 513.032 334.123 524.934 334.123 536.391L334.117 536.386ZM329.895 537.402H329.843C329.843 527.404 326.158 517.143 314.56 516.308C303.779 515.532 297.11 524.262 296.03 534.207C294.938 544.269 301.782 556.451 312.837 556.901C324.137 557.362 329.895 547.353 329.895 537.408V537.402Z" fill="black"/>
<path d="M315.5 485.649C314.595 472.597 323.53 459.791 337.499 460.526C351.701 461.274 357.541 472.224 357.979 485.089C358.411 497.709 352.227 510.533 338.053 510.86C332.056 511 327.057 508.985 322.782 504.845C316.808 499.052 315.95 493.667 315.5 485.644V485.649ZM354.02 489.124C352.717 478.893 350.919 467.19 338.404 465.952C328.167 464.941 320.551 473.193 319.278 482.729C317.947 492.704 323.173 504.343 333.895 506.41C344.53 508.46 354.487 499.846 354.02 489.124Z" fill="black"/>
<path d="M310.921 486.07C310.921 493.294 310.408 499.659 304.936 505.032C300.468 509.423 291.329 513.47 287.031 506.959C291.907 504.629 297.186 506.141 301.747 502.164C306.728 497.831 307.423 491.378 307.05 485.153C306.705 479.389 305.122 473.578 300.439 469.818C295.376 465.747 290.079 467.067 284.222 466.027C287.638 458.64 298.015 460.55 303.265 464.912C309.999 470.512 310.898 477.801 310.898 486.058H310.916L310.921 486.07Z" fill="black"/>
<path d="M424.471 562.379C425.78 566.706 426.539 574.351 424.226 578.292C422.696 575.156 422.41 565.497 424.471 562.379Z" fill="black"/>
<path d="M418.462 576.716C417.312 573.182 417.376 569.649 418.363 566.116C419.081 569.638 419.052 573.177 418.462 576.716Z" fill="black"/>
<path d="M412.938 572.575C413.195 573.942 413.043 575.238 412.476 576.47V572.517C412.628 572.534 412.78 572.557 412.938 572.575Z" fill="black"/>
<path d="M404.814 391.458C405.328 392.294 405.211 392.913 404.446 393.304C403.962 392.58 404.084 391.961 404.814 391.458Z" fill="black"/>
<path d="M398.478 305.14C403.156 315.132 416.226 322.817 427.099 317.713C420.313 316.136 414.894 316.206 409.06 311.978C409.212 311.721 409.364 311.458 409.516 311.201C413.364 312.825 416.926 314.267 421.172 314.501C423.356 314.618 425.926 314.676 428.045 314.191C427.158 314.396 433.681 312.644 431.672 312.749C433.693 312.644 436.443 315.324 437.43 314.834C439.573 313.765 436.256 305.134 435.567 304.246C440.584 307.324 445.588 311.394 439.918 315.856C434.989 319.728 428.664 321.795 422.474 322.192C410.567 322.951 400.657 317.538 398.478 305.14ZM431.012 316.189C429.435 315.102 430.031 315.108 427.742 316.025C429.032 317.754 429.137 317.275 431.012 316.189Z" fill="black"/>
<path d="M384.492 306.156C385.222 319.85 367.235 325.171 356.443 323.202C347.245 321.521 334.234 311.388 337.318 300.667C342.702 311.33 346.965 318.466 359.97 318.963C370.745 319.377 377.262 313.66 383.826 305.928L384.498 306.15L384.492 306.156Z" fill="black"/>
<path d="M251.49 332.681C256.582 337.633 265.371 338.988 271.152 334.549C277.851 329.41 275.52 322.303 276.245 315.155C280.449 322.724 279.205 334.707 271.006 339.25C263.683 343.309 254.882 340.074 251.49 332.681Z" fill="black"/>
<path d="M443.539 283.678C449.98 287.988 451.691 295.481 449.495 302.652C449.151 303.773 447.743 309.011 446.126 309.128C444.549 309.239 440.794 301.192 440.017 299.901C440.204 299.679 440.385 299.452 440.572 299.23C442.277 299.989 443.813 300.661 445.618 301.157C447.06 295.264 446.166 289.063 443.539 283.678Z" fill="black"/>
<path d="M253.673 311.943C255.787 312.632 258.69 313.035 258.888 315.833C259.058 318.18 256.85 319.769 254.783 319.745C249.918 319.687 248.126 312.644 253.673 311.943Z" fill="black"/>
<path d="M432.256 274.842C432.022 279.082 425.674 278.025 425.791 274.387C425.92 270.439 432.495 270.468 432.256 274.842Z" fill="black"/>
<path d="M262.369 332.114C266.48 332.155 270.072 331.034 273.167 327.699C271.099 332.307 266.036 334.38 262.369 332.114Z" fill="black"/>
<path d="M363.036 314.665H360.496C360.49 314.606 360.484 314.548 360.472 314.484C361.308 314.402 362.137 314.32 362.972 314.244C362.989 314.384 363.013 314.524 363.03 314.665H363.036Z" fill="black"/>
<path d="M423.368 626.197C424.711 628.153 424.483 628.229 423.134 630.203C421.499 628.486 421.569 628.416 422.568 626.249C422.836 626.232 423.099 626.214 423.368 626.197Z" fill="black"/>
<path d="M417.212 620.935C427.496 620.34 423.712 623.779 417.212 621.659C417.212 621.42 417.212 621.175 417.212 620.935Z" fill="black"/>
<path d="M411.332 629.888C410.666 629.31 410.158 628.866 409.65 628.428C412.114 627.412 411.706 627.488 413.563 628.504C412.897 628.918 412.237 629.327 411.332 629.888Z" fill="black"/>
<path d="M404.201 629.952C403.576 629.339 403.097 628.872 402.613 628.404C404.429 627.651 404.628 627.616 406.274 628.673C405.673 629.047 405.066 629.42 404.201 629.952Z" fill="black"/>
<path d="M413.709 622.29C408.967 623.113 408.955 621.28 413.545 621.28L413.709 622.29Z" fill="black"/>
<path d="M398.934 629.128H395.068C396.146 628.229 397.421 628.026 398.893 628.521C398.904 628.725 398.916 628.93 398.928 629.128H398.934Z" fill="black"/>
<path d="M405.912 622.483C405.066 622.436 404.219 622.389 403.372 622.348C403.372 622.091 403.378 621.835 403.384 621.572H405.977C405.953 621.875 405.936 622.179 405.912 622.483Z" fill="black"/>
<path d="M397.503 623.008C396.574 622.319 396.242 622.062 395.903 621.811C397.17 620.859 397.947 621.56 397.503 623.008Z" fill="black"/>
<path d="M417.131 627.534C417.715 627.651 418.299 627.762 418.883 627.879C418.807 628.918 418.164 629.099 416.956 628.41C417.014 628.118 417.072 627.826 417.131 627.54V627.534Z" fill="black"/>
<path d="M420.097 346.725C418.129 347.753 417.954 347.747 416.039 346.62C418.561 344.891 417.972 345.014 420.068 345.978C420.08 346.229 420.086 346.474 420.097 346.725Z" fill="black"/>
<path d="M407.051 340.996C405.463 341.504 404.172 341.183 403.173 340.021C405.048 338.561 405.223 339.023 407.261 340.29C407.191 340.523 407.121 340.763 407.051 340.996Z" fill="black"/>
<path d="M411.589 345.108C412.272 345.674 412.786 346.095 413.3 346.515C411.116 347.572 411.425 347.415 409.679 346.463C410.24 346.066 410.8 345.669 411.589 345.108Z" fill="black"/>
<path d="M406.525 347.011H403.051L403.039 346.27H406.479L406.52 347.011H406.525Z" fill="black"/>
<path d="M411.121 351.748C411.665 352.226 412.068 352.571 412.47 352.921C411.472 354.054 411.922 354.054 410.146 352.869C410.432 352.542 410.713 352.215 411.121 351.748Z" fill="black"/>
<path d="M403.629 354.399C403.278 353.026 403.611 351.683 405.165 352.711C404.867 353.038 404.569 353.365 403.629 354.399Z" fill="black"/>
<path d="M399.302 340.337H397.439C397.409 340.226 397.38 340.115 397.345 340.004C398.005 339.647 398.688 339.583 399.401 339.829C399.366 339.998 399.331 340.167 399.302 340.337Z" fill="black"/>
<path d="M398.659 346.743H396.802C396.773 346.632 396.744 346.521 396.715 346.416C397.375 346.077 398.052 346.024 398.753 346.264L398.659 346.749V346.743Z" fill="black"/>
<path d="M479.261 290.05C482.268 291.282 485.276 292.514 488.64 293.898C487.764 289.261 481.766 285.985 478.864 282.732C488.12 284.303 498.229 297.297 492.506 306.559C489.755 304.223 488.803 300.398 486.689 297.496C484.558 294.564 481.79 292.713 479.045 290.447C479.115 290.318 479.191 290.184 479.261 290.056V290.05Z" fill="black"/>
<path d="M480.277 297.11C483.208 298.909 493.948 307.633 489.644 312.358C487.069 315.184 481.089 300.193 479.763 297.671C479.938 297.484 480.107 297.297 480.283 297.116L480.277 297.11Z" fill="black"/>
<path d="M477.246 303.563C480.294 306.086 488.213 312.048 485.655 316.726C482.963 321.643 477.813 306.115 476.872 303.978L477.246 303.563Z" fill="black"/>
<path d="M364.006 246.21C364.146 251.145 356.63 252.464 355.847 247.174C355.047 241.783 363.842 240.341 364.006 246.21Z" fill="black"/>
<path d="M333.936 244.58C340.366 245.153 337.942 254.129 332.78 252.832C328.126 251.664 328.873 244.131 333.936 244.58Z" fill="black"/>
<path d="M517.407 223.201C522.26 225.169 526.739 226.418 530.856 222.091C533.233 219.592 533.058 210.849 536.906 215.288C546.787 226.693 518.546 240.452 517.407 223.201Z" fill="black"/>
<path d="M522.236 269.061C529.115 271.864 529.805 268.156 534.587 264.851C539.212 272.267 525.769 278.247 522.236 269.061Z" fill="black"/>
<path d="M554.32 294.318C556.907 292.677 559.36 291.124 561.708 289.635C563.063 294.312 557.976 297.957 554.32 294.318Z" fill="black"/>
<path d="M221.712 240.621C223.756 239.109 225.712 237.468 227.978 236.306C230.203 240.919 225.152 242.075 221.712 240.621Z" fill="black"/>
<path d="M408.663 554.816C406.923 542.81 407.729 530.785 408.663 518.755V554.816Z" fill="black"/>
<path d="M408.645 418.146V453.425C408.429 453.425 408.213 453.425 407.997 453.431C406.928 441.687 407.921 429.925 408.073 418.17C408.26 418.164 408.453 418.152 408.639 418.146H408.645ZM408.365 432.769L408.073 432.723V438.971C408.172 438.971 408.266 438.971 408.365 438.971V432.769Z" fill="black"/>
<path d="M367.638 539.703V551.902C366.523 550.582 366.131 543.528 367.638 539.703Z" fill="black"/>
<path d="M390.624 477.117C390.992 485.492 391.348 493.767 391.71 502.018C389.865 502.193 390.624 479.675 390.624 477.117Z" fill="black"/>
</svg>
