<svg width="800" height="800" viewBox="0 0 800 800" fill="none" xmlns="http://www.w3.org/2000/svg">
<path d="M212.94 356.012C214.25 350.234 218.717 339.985 217.107 334.302C216.46 332.022 213.186 328.913 211.981 326.615C210.553 323.894 209.46 321.008 208.261 318.187C202.501 304.623 200.385 290.172 204.476 275.738C205.487 272.176 208.708 260.369 212.922 259.082C218.265 257.448 219.323 271.577 220.204 274.997C223.931 289.425 222.973 302.748 223.719 317.382C223.972 317.423 224.219 317.47 224.471 317.511C227.04 311.54 232.583 304.077 233.017 297.559C233.4 291.864 229.567 285.435 228.615 279.805C226.482 267.181 228.027 254.345 233.341 242.68C235.756 237.379 238.889 231.302 242.986 227.053C249.246 220.564 249.598 227.429 249.657 233.147C249.733 240.223 250.509 247.317 249.845 254.387C249.122 262.068 246.154 269.255 245.49 276.913C249.681 273.334 253.954 267.287 256.593 262.35C259.29 257.307 257.427 251.842 257.374 246.335C257.28 236.033 259.655 225.736 264.774 216.756C266.967 212.918 281.96 192.143 286.668 199.002C288.802 202.105 284.053 215.234 283.318 218.472C281.872 224.878 279.333 231.014 278.034 237.426C286.269 226.412 291.999 213.347 302.832 204.45C306.97 201.053 334.877 184.145 335.229 194.1C335.4 198.984 327.518 208.064 324.726 211.725C320.582 217.156 315.78 222.098 310.249 226.124C304.336 230.426 298.529 232.689 291.653 234.61C285.023 236.462 280.82 242.644 276.559 247.634C288.138 243.109 300.704 238.084 313.382 238.795C317.685 239.036 325.708 238.46 323.045 244.46C321.205 248.604 315.251 252.441 311.607 254.833C301.662 261.363 289.401 264.125 277.629 264.642C270.775 264.947 265.315 262.285 260.536 267.927C257.039 272.059 249.404 280.016 249.016 285.141C261.759 277.977 273.244 272.899 288.197 273.187C292.981 273.281 300.869 272.135 298.5 278.629C296.725 283.495 289.066 288.555 285.029 291.112C273.82 298.194 261.189 300.85 248.176 302.025C239.565 302.801 237.661 302.989 234.064 310.859C231.113 317.317 228.227 323.794 225.529 330.358C236.309 320.321 246.912 311.534 261.653 308.185C264.933 307.438 275.119 304.406 276.535 308.478C277.969 312.598 268.889 322.037 266.379 324.622C256.41 334.89 243.386 340.89 229.914 345.121C227.493 345.88 222.89 346.309 221.068 348.177C218.941 350.352 218.711 356.752 218.059 359.79C217.019 364.61 212.246 376.305 214.362 380.683C221.58 370.169 226.681 360.161 237.608 352.744C241.528 350.082 249.375 344.357 254.277 344.41C261.306 344.481 255.623 354.895 253.989 358.827C247.923 373.402 236.679 383.128 225.453 393.765C222.097 396.951 214.274 401.2 213.574 405.69C212.945 409.739 213.604 427.082 216.742 429.627C220.245 417.285 223.278 406.072 232.624 396.686C235.892 393.407 242.404 386.778 247.171 386.055C254.353 384.962 250.045 394.553 249.046 398.72C245.378 413.947 238.401 425.519 230.725 438.924C227.957 443.761 222.256 449.826 222.591 455.092C222.873 459.535 228.274 473.028 232.371 475.056C231.413 463.966 230.855 453.487 235.374 443.014C237.05 439.142 248.305 419.589 253.266 423.338C255.658 425.148 254.383 437.919 254.43 440.576C254.535 446.188 254.065 451.736 252.937 457.237C250.562 468.767 246.16 480.457 240.4 490.677C246.536 502.878 256.369 513.468 265.962 524.205C261.259 511.111 254.829 498.352 255.147 484.083C255.3 477.248 256.869 470.619 258.45 464.001C259.302 460.44 259.96 451.471 265.309 455.55C268.883 458.277 271.492 468.621 272.815 472.693C274.813 478.852 276.189 485.217 276.864 491.658C278.24 504.741 277.1 518.51 273.814 531.181C283.853 543.188 297.001 553.085 311.754 561.166C302.891 550.74 291.788 538.557 288.114 525.116C286.133 517.876 285.81 510.171 285.675 502.707C285.569 496.824 284.135 486.134 292.27 491.905C302.232 498.975 309.003 513.58 312.024 524.987C313.958 532.274 314.199 539.656 315.145 547.09C315.674 551.275 321.099 560.084 315.804 562.506C320.094 566.467 349.142 579.237 355.466 579.513C338.873 567.707 325.261 556.135 321.793 534.966C321.223 531.481 318.954 522.078 320.582 518.839C322.692 514.649 324.115 516.395 327.671 519.251C336.558 526.391 344.216 534.555 349.365 544.786C354.026 554.049 355.772 565.168 361.232 573.93C363.501 577.568 368.356 579.396 370.283 582.91C373.075 588 367.045 591.303 363.601 593.977C348.272 605.878 319.272 619.894 301.321 606.618C313.899 594.982 333.172 586.672 350.106 584.791C350.082 584.521 350.058 584.25 350.041 583.98C346.414 582.952 341.007 580.26 337.245 580.848C334.306 581.306 330.41 584.333 327.665 585.655C319.701 589.499 311.537 593.025 302.744 594.394C289.36 596.48 268.395 595.434 260.225 582.769C268.383 577.603 281.026 575.793 290.53 574.224C299.905 572.679 309.55 572.726 319.019 572.197C313.87 569.728 307.751 565.497 302.174 565.168C295.432 564.774 287.268 568.159 280.526 569.188C266.573 571.321 253.73 569.775 241.569 562.235C237.561 559.749 229.573 555.224 227.675 550.616C224.765 543.57 236.468 546.079 240.652 546.103C248.146 546.144 255.787 546.026 263.228 547.014C269.923 547.907 278.017 551.968 284.752 550.881C280.432 546.984 275.554 540.59 269.9 539.579C264.069 538.539 257.063 540.22 250.991 539.656C237.302 538.38 223.748 533.732 212.863 525.181C209.137 522.254 199.756 515.119 198.41 510.518C196.282 503.236 208.29 507.185 212.534 507.732C219.728 508.661 226.811 509.789 233.74 511.999C240.394 514.12 246.9 519.004 253.701 520.168C249.88 515.537 246.013 508.972 240.57 506.092C234.681 502.977 227.011 504.094 220.622 502.014C206.574 497.43 193.984 489.131 184.786 477.554C181.941 473.974 174.882 466.317 174.664 461.609C174.341 454.539 187.413 461.251 191.251 462.597C198.434 465.112 205.498 467.727 211.952 471.823C217.9 475.602 223.143 482.719 229.473 485.517C227.081 479.781 223.449 470.366 218.8 466.223C216.59 464.254 213.768 464.054 211.006 462.873C207.644 461.433 204.57 459.241 201.519 457.243C188.718 448.85 176.863 436.932 171.414 422.369C169.986 418.549 165.237 406.295 167.694 402.498C170.562 398.067 180.595 408.199 183.499 410.526C189.635 415.457 194.878 420.852 199.539 427.188C202.242 430.867 204.864 434.61 207.503 438.336C208.978 440.423 211.041 445.224 213.78 445.865C211.006 438.783 210.859 430.92 208.267 423.814C205.839 417.15 196.482 412.489 191.621 407.288C181.353 396.287 173.765 382.722 171.826 367.642C171.338 363.869 169.469 349.629 173.301 347.366C176.986 345.192 184.686 358.057 186.861 360.925C191.768 367.401 196.365 374.183 199.926 381.506C201.607 384.962 204.235 398.161 207.832 398.99C207.832 392.519 210.036 381.676 207.509 375.717C205.152 370.157 198.281 364.739 194.96 359.403C187.478 347.372 182.729 333.573 184.098 319.292C184.38 316.354 184.845 302.813 189.012 302.119C192.82 301.485 198.745 314.767 200.256 317.564C207.056 330.164 208.772 342.489 212.111 356.064C212.381 356.041 212.657 356.023 212.928 356L212.94 356.012ZM186.614 468.05C193.026 480.557 218.752 497.001 230.919 496.372C223.231 486.545 197.158 469.878 186.614 468.05ZM211.682 514.479C218.976 524.164 250.486 535.883 260.337 532.292C244.761 524.129 229.608 515.531 211.682 514.479ZM291.758 560.249C274.937 554.724 257.627 553.114 240.341 553.055C247.288 561.465 278.604 565.979 291.758 560.249ZM178.291 363.158C181.676 381.735 189.388 394.576 202.236 408.311C197.058 391.943 190.334 376.346 178.291 363.158ZM308.339 547.443C310.308 537.517 299.552 507.197 292.734 503.042C292.775 518.316 301.304 542.841 308.339 547.443ZM351.751 568.3C348.736 556.082 335.423 533.45 328.687 528.942C327.441 541.084 342.03 566.232 351.751 568.3ZM208.255 453.164C206.315 446.223 185.373 419.066 176.005 414.164C181.594 431.454 193.214 443.784 208.255 453.164ZM191.087 316.783C189.858 334.537 195.559 349.2 205.369 362.553C204.247 346.455 199.621 331.446 191.087 316.783ZM273.732 584.721C291.594 589.957 308.539 586.625 325.061 579.243C307.681 578.391 290.689 581.424 273.732 584.721ZM264.81 315.543C249.387 318.628 237.126 326.709 227.545 339.027C241.963 334.349 255.064 327.608 264.81 315.543ZM287.244 280.633C278.34 278.847 245.76 290.824 245.061 296.107C260.207 294.05 275.066 291.506 287.244 280.633ZM218.811 391.491C229.126 379.996 241.957 370.528 248.346 354.983C233.053 363.275 223.866 375.694 218.811 391.491ZM242.181 398.249C233.088 403.398 218.935 432.871 222.197 440.429C230.043 426.817 238.384 413.741 242.181 398.249ZM264.727 469.461C260.29 478.177 263.91 507.55 270.417 514.696C271.445 499.022 269.418 484.277 264.727 469.461ZM216.983 320.82C217.23 305.158 217.054 289.543 212.293 274.392C208.143 290.454 209.589 305.94 216.983 320.82ZM323.674 199.948C309.027 206.565 296.202 218.984 294.057 227.117C300.686 227.017 320.3 209.192 323.674 199.948ZM243.632 240.123C243.268 240.058 242.904 239.988 242.545 239.923C235.298 249.415 232.383 279.716 238.431 286.734C240.194 270.954 241.916 255.538 243.638 240.123H243.632ZM311.601 245.694C304.577 245.694 297.942 247.228 291.259 249.338C285.387 251.195 276.294 252.782 272.68 257.848C272.921 258.048 273.156 258.248 273.397 258.448C287.068 256.314 300.998 255.703 311.601 245.694ZM247.171 437.032C240.682 443.543 235.463 471.965 239.777 478.588C244.561 464.942 247.694 451.489 247.171 437.032ZM357.341 590.451C350.917 589.269 322.445 598.908 315.763 604.526C325.496 605.619 352.533 596.469 357.341 590.451ZM264.71 250.549C271.757 238.366 273.579 224.502 277.599 211.343C267.995 222.674 264.139 235.886 264.71 250.549Z" fill="black"/>
<path d="M570.008 486.939C582.628 476.948 594.198 468.179 609.49 462.549C613.081 461.229 625.618 454.613 625.955 460.865C626.22 465.825 617.988 475.176 615.009 478.809C606.335 489.404 595.101 496.566 582.209 501.027C578.73 502.23 575.209 503.369 571.636 504.244C567.779 505.183 562.931 504.69 559.281 505.84C553.236 507.742 548.088 517.592 544.149 522.452C558.945 515.174 573.045 510.102 589.475 507.789C592.459 507.372 602.159 503.985 602.584 508.775C602.967 513.113 593.709 520.721 590.748 523.209C580.175 532.097 566.134 537.057 552.641 539.358C545.122 540.643 537.65 538.923 530.32 539.892C524.051 540.725 518.219 547.928 513.849 552.342C528.851 549.072 541.955 546.572 557.406 546.607C560.655 546.613 572.479 544.447 572.945 549.184C573.381 553.586 563.214 560.008 560.13 561.934C548.519 569.154 534.66 572.147 521.103 570.433C513.808 569.512 506.761 567.205 499.507 566.084C494.306 565.279 484.174 567.586 480.966 572.429C495.12 573.051 508.123 572.987 521.899 577.037C524.965 577.941 538.305 579.896 538.947 583.676C539.791 588.63 527.023 592.346 523.745 593.391C510.824 597.5 497.437 596.361 484.888 591.365C478.59 588.859 472.445 585.936 466.212 583.271C459.754 580.512 455.125 581.915 448.88 585.073C463.351 587.333 475.488 591.8 487.96 599.396C491.835 601.755 501.654 606.152 494.294 610.067C489.104 612.826 480.005 612.022 474.426 611.341C461.311 609.738 448.567 604.044 437.952 596.349C434.797 594.066 427.237 589.481 428.063 584.908C428.528 582.308 432.721 580.547 434.467 578.945C436.614 576.972 438.111 574.883 439.468 572.335C445.695 560.607 448.16 547.153 455.803 536.082C459.76 530.347 464.702 525.364 469.986 520.832C474.662 516.817 478.837 514.205 479.156 522.411C479.604 533.84 475.765 546.249 469.638 555.799C462.856 566.371 452.713 572.042 443.566 580.136C476.213 570.069 504.956 554.866 528.356 530.089C523.155 526.591 524.104 519.059 523.674 513.641C523.137 506.938 522.418 500.246 522.713 493.513C522.996 487.033 524.051 480.582 526.003 474.383C527.424 469.887 529.854 459.145 533.445 455.999C539.107 451.044 540.05 460.976 541.094 465.115C542.71 471.531 544.485 478.099 544.762 484.732C545.033 491.283 543.783 497.752 541.931 504.003C540.41 509.139 535.126 517.105 535.728 522.411C541.082 517.122 545.352 510.589 549.922 504.619C554.593 498.521 559.387 494.5 556.509 486.675C551.049 471.842 544.91 457.466 545.222 441.359C545.293 437.784 544.025 423.485 548.011 422.651C552.452 421.724 559.022 433.611 560.797 436.687C564.146 442.492 566.458 448.82 567.567 455.423C568.139 458.822 568.469 462.321 568.357 465.766C568.251 469.147 566.617 473.198 568.115 476.426C571.429 470.955 573.823 464.316 575.887 458.264C578.217 451.449 574.655 447.875 571.034 442.081C563.321 429.748 555.837 417.603 552.352 403.345C551.573 400.164 547.056 389.392 550.506 386.663C554.162 383.769 562.436 392.216 564.966 394.423C575.581 403.692 579.331 415.766 583.63 428.744C586.367 424.366 587.416 413.418 586.868 408.241C586.255 402.441 580.434 399.782 576.371 395.761C566.222 385.724 554.068 375.968 547.858 362.895C546.419 359.861 539.921 347.651 543.028 344.851C545.918 342.245 555.501 347.851 558.09 349.23C571.453 356.38 577.208 368.079 585.488 379.936C585.742 379.854 585.995 379.772 586.255 379.689C584.928 372.123 583.377 364.615 581.791 357.096C579.939 348.344 577.71 348.367 569.554 345.291C556.108 340.226 542.521 334.133 532.921 323.086C530.414 320.198 520.979 310.371 525.903 307.395C529.813 305.03 541.082 308.728 545.122 309.943C551.22 311.774 556.987 314.586 562.153 318.302C566.104 321.143 569.902 327.153 574.201 328.908C571.5 321.325 568.18 313.506 564.052 306.567C559.983 299.735 548.371 302.294 540.876 300.768C526.687 297.886 506.141 290.595 501.164 275.521C509.863 272.762 519.569 272.434 528.498 274.412C532.579 275.316 536.53 276.736 540.316 278.503C543.188 279.848 547.487 283.493 550.742 283.645C546.071 277.23 538.458 259.989 528.368 264.885C510.47 265.595 492.171 261.005 479.067 248.244C477.298 246.524 473.789 243.53 476.048 240.883C477.935 238.67 490.001 239.568 492.672 239.615C497.791 239.703 502.609 240.648 507.498 242.127C512.05 243.501 518.136 247.128 522.984 246.453C518.254 243.601 515.194 238.552 510.163 236.128C504.03 233.17 497.72 232.694 491.817 228.738C481.067 221.53 469.325 210.071 465.032 197.533C462.254 189.433 469.915 192.156 475.128 193.782C481.361 195.725 487.341 198.472 492.743 202.153C505.103 210.57 511.903 224.018 521.061 235.43L521.834 235.066C520.2 229.607 517.759 224.506 516.45 218.917C515.483 214.779 512.215 205.017 513.33 200.932C515.919 191.423 530.402 210.136 532.573 213.335C538.859 222.574 542.586 233.986 542.958 245.156C543.158 251.149 539.985 256.82 543.217 261.956C546.779 267.62 551.054 272.927 554.958 278.362C555.259 271.131 552.865 263.999 551.674 256.878C550.559 250.204 550.087 243.518 549.863 236.756C549.674 231.18 548.666 220.514 556.68 227.505C561.457 231.673 565.102 238.599 567.755 244.24C573.363 256.156 575.127 269.651 572.685 282.601C571.742 287.596 567.46 293.712 567.472 298.49C567.478 301.842 573.599 313.277 576.336 315.097C577.096 300.545 578.364 287.355 581.502 273.079C582.31 269.417 582.41 257.888 588.148 260.189C592.423 261.903 595.171 273.355 596.28 277.306C600.149 291.065 598.674 305.329 593.231 318.46C590.896 324.101 586.609 328.562 584.208 333.845C581.661 339.451 585.748 347.71 587.204 353.216L587.971 353.327C592.14 345.174 592.571 335.043 596.598 326.443C600.349 318.442 605.055 308.176 612.037 302.635C621.685 315.819 616.991 339.334 610.227 352.875C605.91 361.516 598.657 367.122 593.638 374.988C590.743 379.525 590.684 396.419 594.015 401.256C596.976 395.333 598.02 388.512 600.892 382.436C603.693 376.514 607.19 370.937 611.088 365.672C614.608 360.917 618.294 356.08 622.139 351.596C627.405 345.462 628.685 350.117 629.039 356.439C630.607 384.379 614.744 406.908 592.175 421.718C590.07 430.071 587.776 439.187 585.476 448.303L586.025 448.556C594.876 435.624 602.82 423.162 614.998 412.966C617.38 410.976 628.449 399.794 631.852 402.406C635.308 405.059 629.965 419.188 628.874 422.27C623.849 436.487 613.14 448.192 600.874 456.773C594.965 460.906 587.34 462.661 581.779 466.975C576.035 471.431 572.927 480.177 569.412 486.329C569.625 486.528 569.837 486.728 570.043 486.927L570.008 486.939ZM613.859 468.889C595.879 474.213 581.407 485.213 567.785 497.552C586.225 492.856 603.138 485.724 613.859 468.889ZM559.936 553.598C559.759 553.369 559.582 553.146 559.399 552.917C541.601 554.49 524.222 556.698 506.595 559.621C506.584 560.084 506.566 560.548 506.554 561.012C524.894 563.624 544.161 565.749 559.936 553.598ZM538.405 532.731C550.152 535.354 586.037 522.37 589.298 514.909C571.134 516.67 554.852 523.99 538.405 532.731ZM590.247 454.778C602.708 450.164 624.109 423.937 622.823 415.232C609.124 426.215 599.818 440.59 590.247 454.778ZM598.155 410.102C608.416 404.49 623.678 373.79 621.479 363.494C610.923 377.658 603.793 393.249 598.155 410.102ZM524.818 584.703C508.117 580.295 491.304 579.097 473.671 578.146C483.85 585.836 514.692 591.559 524.818 584.703ZM447.576 568.684C460.031 562.221 472.852 540.197 471.401 528.381C460.326 540.068 454.317 554.584 447.576 568.684ZM609.212 318.231C602.678 327.453 593.113 356.515 594.01 364.428C601.405 357.325 612.32 332.055 609.212 318.231ZM580.829 391.464C581.354 381.304 562.336 357.213 552.381 355.282C559.835 369.599 570.674 379.249 580.829 391.464ZM535.02 468.772C530.385 484.362 529.506 499.876 530.456 515.567C538.134 500.716 539.39 485.237 535.02 468.772ZM572.62 339.316C566.912 328.768 548.448 316.529 536.111 316.259C545.853 327.541 558.833 333.434 572.62 339.316ZM555.182 295.379C542.014 286.076 519.9 278.738 513.159 281.25C525.525 291.024 539.991 294.311 555.182 295.379ZM558.249 398.409C561.823 414.064 570.627 426.708 577.651 440.496C580.322 431.034 568.923 406.298 558.249 398.409ZM588.561 275.492C584.303 290.742 583.265 306.356 583.436 322.099C591.303 307.266 592.972 291.728 588.561 275.492ZM505.799 227.822C505.599 220.174 484.617 203.902 475.405 201.513C483.018 213.265 492.708 222.111 505.799 227.822ZM557.63 240.642C557.329 256.52 562.542 271.612 563.58 287.267C568.245 270.849 566.016 255.323 557.63 240.642ZM528.574 257.319C515.111 251.754 502.467 245.99 487.571 246.518C497.649 255.141 519.882 259.532 528.574 257.319ZM552.712 438.271C552.476 451.837 555.471 464.774 560.266 477.365C561.988 463.506 561.829 450.017 552.712 438.271ZM482.718 604.819C470.062 596.684 455.974 592.569 441.296 590.103C453.639 599.026 467.527 603.722 482.718 604.819ZM535.68 250.011C536.477 235.394 531.039 222.856 522.583 210.858C522.317 216.429 531.476 244.064 535.68 250.011Z" fill="black"/>
<path d="M424.072 269.586C431.207 269.586 438.448 269.892 445.577 269.598C450.572 269.392 454.072 266.935 458.716 266.001C467.498 264.237 476.17 270.862 478.409 279.226C481.077 289.19 474.428 299.57 464.133 301.181C459.015 301.98 454.477 299.353 449.429 299.653C443.191 300.023 437.269 301.316 430.943 301.316C430.943 306.706 431.635 312.631 430.873 317.975C430.286 322.077 428.111 324.934 427.672 329.131C426.341 341.875 427.507 355.412 427.443 368.244C427.314 394.148 427.185 420.053 427.056 445.958C426.927 471.862 426.833 497.767 426.669 523.671C426.604 534.34 427.261 545.197 426.616 555.836C425.813 568.979 422.618 582.105 420.39 595.06C418.473 606.223 416.204 617.315 413.401 628.295C411.865 634.308 410.182 640.28 408.324 646.2C406.618 651.654 405.562 659.325 402.772 664.292C397.173 674.261 393.215 653.77 392.183 650.038C388.765 637.653 385.716 625.144 382.726 612.648C376.94 588.453 372.894 564.159 372.877 539.26C372.859 513.879 372.378 488.503 372.337 463.122C372.29 433.525 372.267 403.929 372.243 374.333C372.232 360.784 372.349 347.23 372.243 333.687C372.226 331.353 372.654 328.396 371.921 326.133C371.165 323.794 369.119 322.659 368.409 320.355C366.779 315.065 368.321 306.842 368.321 301.287C362.019 301.287 355.645 299.894 349.343 300.235C344.987 300.47 340.924 302.204 336.509 301.663C327.545 300.558 321.125 292.94 321.001 283.964C320.861 273.513 330.746 264.467 341.275 266.412C346.564 267.388 349.273 269.575 354.866 269.598C361.696 269.622 368.52 269.61 375.351 269.61C376.283 264.179 376.805 259.012 378.804 253.845C381.149 247.785 381.167 242.371 381.636 235.935C382.574 223.05 384.638 210.118 385.107 197.21C385.435 188.216 374.137 184.284 370.965 175.555C367.717 166.626 368.919 155.811 373.815 147.717C384.122 130.664 407.691 127.955 421.68 142.091C428.639 149.121 431.752 159.414 430.046 169.172C429.301 173.439 427.537 177.477 425.021 180.998C422.418 184.637 417.101 187.252 415.119 191.02C412.586 195.834 415.477 204.975 416.016 210.247C416.743 217.377 417.458 224.513 418.027 231.655C418.525 237.921 417.347 246.409 419.522 252.24C420.519 254.915 422.5 256.755 423.21 259.723C423.972 262.885 423.878 266.365 424.083 269.592L424.072 269.586ZM396.258 639.863C396.493 639.816 396.727 639.775 396.967 639.728C396.967 587.137 396.469 534.546 396.534 481.955C396.569 455.627 396.651 429.299 396.621 402.977C396.604 390.328 396.416 377.678 396.44 365.023C396.457 354.025 398.392 344.702 389.011 337.296C388.63 338.213 388.284 339.047 388.232 339.177C386.379 338.436 384.485 336.931 383.031 336.255C380.844 335.244 382.41 333.193 379.033 334.692C380.575 340.299 379.478 346.207 379.601 352.02C379.748 358.804 379.918 365.575 379.924 372.358C379.941 385.308 379.895 398.263 379.889 411.212C379.877 436.894 380.387 462.563 380.158 488.244C379.93 514.125 379.578 540.095 382.457 565.864C385.242 590.781 390.143 615.563 396.264 639.857L396.258 639.863ZM404.859 344.344C404.642 344.408 404.431 344.479 404.214 344.543C402.332 369.848 403.411 395.571 403.393 420.946C403.37 445.869 403.411 470.787 403.452 495.709C403.534 544.556 404.847 593.585 402.01 642.367C407.468 630.705 408.822 616.151 411.191 603.578C413.542 591.093 416.403 578.596 417.869 565.97C420.876 540.03 419.024 513.467 419.434 487.392C420.267 434.707 420.056 382.034 420.056 329.343C417.945 331.788 416.591 333.816 418.514 336.679C416.274 335.932 414.697 335.409 413.12 334.886C413.044 335.127 412.973 335.368 412.897 335.603C414.169 337.278 415.436 338.953 416.878 340.852C413.724 341.181 412.217 336.467 408.84 339.2C410.546 340.552 411.883 341.61 413.126 342.592C410.311 345.178 408.277 339.341 405.275 342.098C408.295 344.132 408.822 345.825 407.034 347.477C406.307 346.43 405.586 345.384 404.859 344.344ZM381.988 305.096C376.693 307.553 372.742 314.06 377.391 319.021C380.364 322.195 385.118 324.411 388.689 326.95C391.609 329.031 396.569 334.498 400.356 334.474C403.874 334.451 408.599 329.055 411.115 327.074C414.328 324.54 420.402 321.325 422.565 317.945C424.06 315.612 425.244 309.21 423.89 306.677C422.471 304.026 420.835 304.367 417.658 303.838C419.657 306.077 421.246 307.858 422.835 309.634C422.629 309.833 422.424 310.039 422.219 310.239C419.78 308.229 417.341 306.218 414.902 304.208C414.709 304.367 414.515 304.526 414.322 304.684C415.395 306.548 416.473 308.417 417.652 310.462C413.577 311.65 415.371 305.883 412.135 306.26V308.734C410.88 307.676 409.795 306.759 408.705 305.842C408.576 305.989 408.453 306.142 408.324 306.289L413.061 313.437C412.868 313.578 412.668 313.725 412.475 313.866C410.646 311.579 408.816 309.293 406.987 307.006L406.231 307.2C406.348 308.352 406.459 309.51 406.6 310.892C404.894 310.263 403.487 307.459 401.453 310.192C400.767 309.328 400.233 308.658 399.588 307.847C399.008 308.587 398.509 309.222 397.864 310.039C395.883 308.593 394.018 307.23 391.626 305.484C392.4 307.482 392.928 308.834 393.45 310.186C393.203 310.315 392.957 310.445 392.705 310.574C391.726 309.063 390.741 307.559 389.463 305.595C388.695 307.118 388.114 308.252 387.276 309.91C386.473 308.576 385.857 307.541 385.236 306.512C383.5 307.988 383.436 307.958 381.982 305.084L381.988 305.096ZM399.313 187.346C428.868 188.969 431.219 142.338 401.277 140.275C388.144 139.37 377.045 150.144 376.312 163.141C375.644 174.973 386.555 188.922 399.313 187.346ZM359.879 293.781C359.82 294.163 359.767 294.539 359.709 294.921C372.408 298.336 388.237 296.096 401.324 296.096C408.752 296.096 416.18 296.091 423.614 296.085C428.862 296.085 434.848 297.09 439.45 294.433C434.514 291.488 427.197 292.752 421.521 292.787C414.544 292.828 407.568 292.869 400.591 292.916C387.006 293.01 373.434 292.916 359.879 293.775V293.781ZM348.411 284.152C348.34 270.039 328.172 269.457 328.084 283.417C328.002 296.819 349.413 297.513 348.411 284.152ZM452.759 283.188C452.577 297.307 472.23 296.978 472.241 283.1C472.253 269.886 452.935 269.428 452.759 283.188ZM417.992 269.522C416.983 261.351 408.47 264.549 401.904 264.702C396.252 264.837 383.823 261.633 383.946 269.522H417.986H417.992ZM412.698 235.758C412.404 235.558 412.111 235.358 411.812 235.159C407.327 236.951 386.737 242.001 388.015 247.714C395.924 244.928 407.568 242.735 412.692 235.758H412.698ZM410.646 224.002C403.745 227.012 391.544 229.698 387.845 236.405C391.603 235.846 414.14 228.04 410.646 224.002ZM409.485 212.493C405.328 214.497 386.907 220.076 388.015 225.883C391.192 224.425 413.202 216.519 409.485 212.493ZM388.642 255.444C388.806 255.761 388.965 256.085 389.129 256.402C396.346 254.827 408.775 254.204 412.487 246.674C404.66 247.203 395.947 252.605 388.642 255.444ZM390.354 276.628C383.002 276.628 384.339 279.179 384.339 285.98H390.354V276.628ZM360.682 276.705C360.682 282.971 359.281 286.545 366.381 286.545V276.393C364.516 276.493 362.81 276.587 360.682 276.705ZM408.816 203.976C408.629 203.705 408.441 203.441 408.254 203.17C402.279 203.799 391.286 208.443 389.205 214.015C396.082 211.129 403.241 209.001 408.811 203.976H408.816ZM432.338 276.834V285.933H438.401C438.248 282.718 438.113 279.755 437.979 276.834H432.344H432.338ZM402.309 286.027C402.133 282.647 401.968 279.42 401.804 276.346H396.463V286.027H402.309ZM425.942 286.309V276.652H420.478V286.039C422.366 286.133 423.902 286.21 425.942 286.309ZM413.935 285.998V276.846H408.177C408.177 282.912 407.028 286.339 413.935 285.998ZM372.566 276.746V285.927H378.171V276.746H372.566ZM390.653 202.5C396 200.225 400.931 198.121 406.43 195.782C401.816 194.424 392.054 198.703 390.653 202.5ZM444.393 276.734C444.393 280.243 443.466 284.54 445.835 287.262C447.57 284.164 447.072 280.22 447.23 276.734H444.393ZM354.016 286.339C354.15 286.321 354.291 286.309 354.426 286.292V277.04C354.092 277.063 353.752 277.087 353.418 277.116C353.617 280.19 353.816 283.265 354.016 286.339ZM382.04 332.058L381.495 332.752C383.412 334.31 385.335 335.867 387.253 337.425C387.505 337.102 387.757 336.784 388.009 336.461C386.021 334.992 384.028 333.528 382.04 332.058Z" fill="black"/>
<path d="M513.997 498.318C514.114 513.086 511.11 527.841 503.95 540.81C499.969 548.023 494.899 553.507 488.664 558.774C487.019 560.16 484.262 563.356 481.85 561.363C479.719 559.605 482.213 554.628 482.664 552.587C485.866 538.074 486.803 523.902 493.705 510.42C496.744 504.487 500.543 498.949 504.946 493.966C506.661 492.026 509.489 487.703 512.106 489.378C514.377 490.829 513.839 496.095 513.997 498.313V498.318ZM507.083 501.922C497.177 516.217 492.692 531.533 491.065 547.869C501.386 534.647 506.585 519.585 507.083 501.922Z" fill="black"/>
<path d="M475.65 411C473.396 408.381 470.098 406.898 473.39 403.396C476.356 400.241 478.23 403.15 481 405.106C479.357 406.911 477.72 408.722 475.65 411Z" fill="black"/>
<path d="M318 405.97C320.409 404.553 323.245 401.45 325.976 403.932C328.636 406.349 325.455 408.715 323.865 411C321.766 409.199 320.164 407.826 318 405.97Z" fill="black"/>
<path d="M358.999 231.526C356.901 234.063 352.616 233.417 354.442 228.869C356.093 224.756 359.056 228.247 358.999 231.526Z" fill="black"/>
<path d="M445.814 227.067C447.679 230.056 447.267 230.167 445.118 233C442.406 230.229 442.406 230.262 444.505 227C444.94 227.022 445.374 227.045 445.814 227.061V227.067Z" fill="black"/>
<path d="M451.005 232.374C452.41 230.878 453.287 229.936 454.165 229C456.776 231.843 456.441 231.826 454.165 235C453.315 234.292 452.459 233.584 451 232.374H451.005Z" fill="black"/>
<path d="M351 232.161C349.177 233.507 348.175 234.257 347.167 235C344.497 232.079 344.255 232.056 346.662 229C347.866 229.878 349.063 230.75 351 232.161Z" fill="black"/>
<path d="M380 164.161C380.052 139.38 418.116 138.249 418.985 163.03C419.894 188.867 380.222 190.044 380 164.161ZM410.053 159.251C409.225 156.405 405.197 149.715 405.197 156.648C407.162 157.703 408.607 158.474 410.047 159.245C410.694 164.885 408.491 169.662 404.882 174.282C411.202 173.227 413.971 164.207 410.047 159.251H410.053ZM397.309 175.783C403.873 177.812 402.02 171.071 401.903 166.938C401.827 164.178 404.112 156.863 402.305 154.561C398.131 149.263 398.032 155.86 398.283 158.544C398.825 164.358 397.956 169.929 397.309 175.778V175.783ZM395.881 156.764C393.537 153.953 393.432 153.443 390.546 155.941C389.369 156.961 387.701 161.21 387.421 162.694C386.541 167.349 389.025 172.972 393.718 174.699C392.528 171.465 389.369 166.422 389.713 162.915C390.068 159.292 392.989 158.497 395.887 156.764H395.881Z" fill="black"/>
<path d="M345 283.455C345.043 291.773 332.251 292.263 331.079 284.348C329.778 275.591 344.951 273.899 345 283.455ZM340.096 284.435C340.331 284.056 340.559 283.676 340.793 283.297C335.138 280.536 337.444 286.058 340.096 284.435Z" fill="black"/>
<path d="M456.001 283.23C456.144 274.961 468.869 274.896 468.999 283.2C469.141 292.312 455.853 292.211 456.001 283.23Z" fill="black"/>
</svg>
