<svg width="800" height="800" viewBox="0 0 800 800" fill="none" xmlns="http://www.w3.org/2000/svg">
<path d="M559.783 593.49C567.52 593.738 575.606 593.903 583.071 591.518C586.283 590.491 589.465 589.003 592.18 586.99C595.522 584.505 597.321 580.744 600.609 578.336C605.708 590.881 578.581 595.875 571.11 596.849C573.37 598.443 573.441 598.933 573.843 601.708C570.111 600.929 568.413 598.626 565.024 597.044C560.8 595.072 555.802 595.515 551.324 594.848C541.925 593.443 534.602 587.185 527.095 581.866C527.095 586.441 528.337 595.226 522.647 596.542C523.173 591.495 524.847 589.216 523.641 583.661C520.127 586.223 516.886 588.59 513.632 590.963C516.412 593.673 519.116 599.831 514.425 602.334C511.071 604.122 507.977 601.247 505.564 599.075C499.702 604.913 491.515 604.973 484.216 607.617C490.693 608.467 497.052 609.471 503.458 612.624C498.744 615.215 494.349 615.333 489.332 613.674C485.464 612.393 479.998 608.278 475.852 608.538C469.102 608.963 467.026 618.846 463.98 623.722C454.291 639.237 436.663 646.716 418.51 644.668C409.619 643.664 399.942 639.969 393.139 634.03C390.608 631.822 389.401 628.026 386.42 626.526C382.445 624.525 374.731 625.416 370.318 625.05C364.581 624.578 358.73 623.74 352.975 623.651C349.615 623.604 346.368 625.281 343.108 624.714C339.323 624.053 335.223 621.39 331.325 620.41C325.771 619.017 320.193 617.736 314.632 616.39C313.491 618.728 312.302 621.16 311.113 623.592C310.699 623.468 310.291 623.344 309.877 623.22C310.22 620.841 310.575 618.462 310.953 616.089C310.616 615.965 310.279 615.835 309.936 615.711C306.688 620.351 304.577 624.761 298.709 625.157C292.728 627.311 285.459 628.563 279.058 627.465C281.75 621.254 285.34 616.673 292.326 615.788C291.557 615.705 290.794 615.628 289.162 615.451C294.976 611.124 300.779 613.019 306.387 612.883C294.633 607.794 282.732 603.089 271.907 596.159C262.17 589.93 253.96 580.697 243.171 576.323C238.971 574.617 234.191 573.902 231.258 570.065C228.117 565.962 229.933 564.285 224.828 562.207C220.515 560.454 215.458 559.84 213.672 554.757C212.826 552.354 213.79 550.141 213.435 547.767C212.974 544.644 211.199 542.36 209.673 539.697C204.982 541.498 200.558 543.198 195.754 545.046C197.754 549.698 199.86 554.096 202.977 558.163C205.503 561.464 210.667 564.197 212.205 567.769C207.904 569.109 204.598 564.699 202.048 561.588C200.037 559.132 198.126 556.593 196.488 553.872C195.346 551.971 194.364 547.738 192.868 546.498C189.975 544.113 167.344 544.373 173.294 534.508C175.625 536.108 175.731 538.564 178.328 540.175C181.783 542.318 187.355 542.23 191.259 542.95C190.91 538.463 190.253 533.983 190.762 529.484C191.223 525.423 194.891 520.198 194.536 516.372C194.211 512.889 188.798 507.464 186.787 504.66C183.705 500.356 180.505 497.416 176.53 493.992C176.861 493.496 177.198 493.006 177.53 492.51C181.049 493.856 184.575 495.202 188.094 496.548L188.828 495.338C183.362 491.011 177.086 486.979 172.058 482.179C166.717 477.079 166.243 471.919 166.243 464.941C168.816 466.157 171.005 467.19 173.188 468.217C163.209 456.859 163.422 443.765 166.935 430.21C163.268 429.927 157.915 443.039 156.572 446.197C153.715 452.915 151.615 460.507 151.627 467.851C151.651 481.246 160.316 488.024 171.999 491.92C171.352 492.778 167.986 492.969 161.902 492.493C164.954 495.12 167.982 497.139 170.313 500.386C171.987 502.718 179.606 513.108 177.985 515.758C175.72 519.454 173.62 513.462 172.892 511.72C170.905 506.986 169.449 504.241 166.06 500.126C165.516 500.392 164.871 500.699 164.989 500.645C159.565 492.209 154.295 484.009 149.19 476.075C148.835 487.061 148.657 498.591 153.827 508.633C155.933 512.73 158.879 516.803 162.659 519.537C164.711 521.018 171.881 521.928 171.922 524.496C171.987 528.705 164.25 524.454 162.765 523.598C158.778 521.302 155.383 517.86 152.857 514.041C147.865 506.496 146.487 497.357 145.901 488.514C144.558 468.341 149.639 448.399 160.381 431.267C164.067 425.393 169.343 414.944 162.298 408.781C159.323 406.177 154.638 407.683 151.165 405.805C146.297 403.172 145.765 399.04 144.434 394.193C144.813 394.093 145.191 393.992 145.735 393.845C141.612 390.374 143.464 385.722 143.15 381.453C143.387 381.258 143.624 381.064 143.86 380.869C144.487 382.055 145.114 383.236 145.741 384.423L146.605 383.762C144.558 379.127 144.576 374.446 145.783 369.381C152.343 375.975 158.512 382.274 158.991 391.908C159.908 373.838 164.102 357.054 170.751 340.182C173.927 332.129 177.275 324.148 180.594 316.16C181.96 312.872 183.847 309.359 183.965 305.717C184.078 302.21 182.593 298.999 183.534 295.451C185.172 289.246 191.85 286.82 195.275 281.778C200.392 274.239 201.575 269.582 201.794 260.685C201.995 252.591 201.894 243.086 204.686 235.43C207.502 227.702 213.323 221.999 218.759 216.06C219.238 217.064 219.504 217.613 219.782 218.203C225.768 216.09 226.46 216.125 228.619 210.41C230.37 205.764 232.494 203.114 237.256 201.597C235.836 203.976 230.358 210.021 230.968 212.713C231.713 216.007 232.813 214.567 236.729 214.354C245.495 213.87 242.981 222.465 236.226 223.239C232.819 223.628 232.458 221.574 229.927 220.34C226.833 218.829 224.828 219.077 221.58 220.624C213.323 224.549 212.199 230.034 215.612 237.803C215.239 238.015 214.872 238.222 214.5 238.435C213.518 237.018 212.536 235.595 211.3 233.818C211.045 235.843 210.832 237.549 210.625 239.255C210.264 239.255 209.898 239.255 209.537 239.255C209.348 237.018 209.164 234.774 208.975 232.537C208.845 232.46 208.709 232.383 208.579 232.313C206.774 238.718 206.443 243.736 205.934 250.342C205.52 255.685 202.504 263.707 203.965 268.661C214.109 257.656 224.272 246.64 234.611 235.825C245.028 224.927 261.029 220.222 274.622 214.561C274.533 214.319 274.439 214.071 274.35 213.829C264.395 217.548 254.563 221.568 244.626 225.329C253.209 218.557 264.004 215.47 273.161 209.608C270.818 206.325 265.01 196.708 274.391 198.037C277.154 198.426 278.609 202.216 280.987 202.5C283.53 202.807 285.565 200.451 287.44 199.034C285.139 195.628 284.222 192.121 286.949 187.847C289.865 195.173 290.285 198.757 298.519 195.179C305.286 192.239 307.972 185.716 313.006 180.751C324.801 169.121 342.588 164.847 358.6 168.005C360.623 161.275 365.486 157.456 372.684 155C370.413 160.715 365.781 163.938 363.054 168.738C370.555 172.64 373.95 168.637 381.439 167.114C387.739 165.839 393.198 167.474 398.924 170.084C404.958 172.835 408.844 173.543 415.209 171.86C421.503 170.196 427.027 168.956 433.558 170.355C440.769 171.902 446.423 176.282 452.972 179.328C458.26 181.79 463.796 184.028 469.256 186.023C474.568 187.965 481.3 186.56 485.783 190.226C488.321 192.304 489.457 195.244 492.231 197.151C494.721 198.863 498.264 199.92 501.074 201.047C507.427 203.598 513.147 203.97 519.855 204.625C524.457 205.074 529.52 205.617 532.928 209.1C536.66 212.914 537.086 218.711 540.783 222.743C545.148 227.513 549.821 232.313 554.305 237C562.397 245.454 573.914 248.766 579.676 259.681C585.981 271.624 591.814 283.071 599.87 293.998C605.525 275.715 593.298 248.4 580.036 235.896C578.214 234.178 576.257 232.513 574.163 231.132C571.631 229.467 571.057 229.898 568.425 229.632C565.627 229.349 559.883 230.471 561.729 224.691C563.137 220.287 567.023 221.84 569.318 223.882C573.181 227.324 576.481 230.347 581.024 233.357C578.487 221.911 572.441 214.13 562.817 210.103C560.143 214.189 555.068 208.982 557.913 206.101C560.747 203.238 565.633 208.763 567.957 210.074C567.774 203.492 563.225 197.045 556.299 197.458C553.548 197.623 550.709 199.796 549.135 196.077C547.846 193.036 551.004 190.474 553.447 189.418C552.738 191.602 552.028 193.745 551.223 195.9C553.998 196.071 553.66 196.549 554.926 195.693C554.589 193.721 554.293 191.997 553.998 190.268C554.264 190.179 554.524 190.096 554.79 190.008C557.689 194.01 559.54 195.705 563.982 197.954C564.26 197.765 564.538 197.576 564.817 197.381C561.983 191.773 559.156 186.171 556.5 180.922C554.376 180.781 549.674 181.33 549.005 178.295C548.567 176.329 550.413 173.744 552.389 173.437C557.085 172.716 559.327 182.9 560.753 186.064C561.137 185.946 561.522 185.828 561.906 185.71C561.658 181.849 561.368 178.16 560.522 174.364C560.031 172.167 559.617 169.871 558.54 167.858C557.683 166.264 555.618 164.924 555.139 163.294C552.933 155.785 567.827 157.149 560.209 166.105C560.723 168.212 561.25 170.361 561.569 171.683C564.124 171.353 567.396 169.759 568.496 172.953C569.543 176.005 566.621 177.191 564.255 178.284C562.598 184.63 563.45 190.817 566.491 196.207C567.869 193.025 570.117 182.487 575.606 184.323C580.989 186.123 576.99 193.255 571.607 190.852C565.402 197.027 568.608 208.356 575.683 215.871C576.079 211.579 576.251 201.443 581.71 200.085C587.572 198.627 587.726 211.196 579.806 205.823C575.074 213.528 579.77 222.507 582.958 229.845C586.306 237.555 590.483 244.497 594.789 251.682C596.658 246.475 597.102 244.645 596.368 239.22C595.812 235.081 596.416 231.091 598.935 227.649C604.052 220.671 616.261 218.923 623.85 215.523C625.365 216.869 623.655 224.839 623.099 226.456C621.928 229.851 619.863 231.02 617.379 233.493C618.716 232.921 620.384 232.212 622.36 231.368C620.834 238.346 615.918 241.422 610.062 243.878C613.12 242.685 616.178 241.493 619.041 240.377C617.503 246.434 608.216 249.675 599.917 246.581C594.333 257.686 601.136 265.272 602.958 276.5C604.46 285.739 599.48 296.236 606.3 303.344C609.837 294.187 612.458 282.723 621.242 277.02C618.053 273.33 607.223 264.475 615.362 261.724C616.657 266.152 617.521 269.263 620.283 273.082C620.774 272.285 621.112 271.736 621.579 270.975C611.695 268.979 633.232 255.903 624.596 270.071C623.543 271.801 619.899 274.883 623.631 275.733C624.649 275.963 631.942 267.976 633.398 266.925C633.25 266.736 633.102 266.553 632.948 266.364C632.25 266.86 631.552 267.356 630.262 268.271C630.682 264.085 634.9 264.333 634.882 268.247C634.859 273.118 625.158 274.777 625.406 278.868C628.967 279.671 633.841 278.927 636.911 276.802C639.496 275.007 640.318 272.752 642.69 270.532C647.884 277.067 640.289 276.76 635.722 280.025C637.313 279.895 638.905 279.765 640.502 279.635C640.561 279.883 640.62 280.131 640.673 280.379C639.561 280.834 638.449 281.288 637.012 281.873C640.235 284.618 640.691 285.893 638.147 288.992C636.817 287.221 636.568 284.069 635.243 282.735C633.09 280.568 629.393 281.359 626.66 281.359C627.802 283.85 630.251 293.095 623.3 290.073C617.752 287.658 624.968 284.34 624.548 281.613C623.691 276.005 617.089 284.683 616.101 286.224C613.392 290.456 610.843 296.997 609.21 301.815C606.016 311.237 612.399 323.292 614.41 332.596C615.64 338.275 616.391 344.06 617.267 349.799C618.337 356.812 620.325 362.037 623.288 368.519C630.836 362.149 623.004 354.386 624.838 347.048C627.003 338.352 636.509 334.656 643.589 330.996C643.199 337.2 643.885 342.939 637.917 346.587C640.052 345.489 641.933 344.385 643.95 343.116C643.737 347.272 643.022 351.452 640.33 354.781C637.686 358.052 635.066 357.444 632.12 359.345C628.133 361.913 624.412 371.577 623.667 376.111C622.318 384.316 628.044 391.997 627.784 400.303C627.654 404.43 625.72 408.946 625.992 413.008C626.228 416.632 628.594 419.041 630.422 422.146C639.573 417.742 644.151 405.032 639.194 396.029C636.911 391.891 627.553 386.66 626.897 382.368C626.069 376.972 636.012 382.038 637.934 383.024C638.627 379.948 639.129 368.265 643.057 367.887C644.962 367.704 647.097 370.803 646.997 372.474C646.819 375.443 644.696 374.664 643.24 376.382C638.928 381.495 641.318 386.223 643.282 391.448C645.867 398.331 645.725 405.368 642.85 412.175C639.082 421.095 620.266 431.828 626.069 441.74C629.754 448.033 632.877 452.898 633.368 460.472C633.835 467.739 632.072 474.936 631.026 482.079C632.8 481.211 634.445 480.408 636.953 479.186C634.084 492.575 628.204 505.026 614.09 508.025C616.03 512.588 620.621 509.684 623.756 508.562C628.695 506.791 631.499 506.708 634.841 511.366C637.029 514.412 639.165 520.469 637.84 524.224C636.805 527.164 634.291 529.03 632.794 524.85C631.771 521.987 634.61 518.728 633.102 515.28C630.629 509.619 626.607 510.144 621.721 511.638C614.232 513.928 609.388 514.111 608.441 505.404C603.597 510.894 595.818 511.638 591.536 517.789C596.93 518.917 597.504 519.672 596.924 524.702C611.89 523.262 627.666 536.929 622.898 553.169C622.46 553.234 622.028 553.299 621.591 553.364C621.254 551.121 620.916 548.871 620.467 545.896C618.976 548.287 617.036 553.482 613.345 551.581C621.047 541.994 616.841 531.037 604.372 528.587C593.529 526.456 581.823 531.474 574.748 539.449C574.949 539.709 575.156 539.975 575.357 540.234C578.209 538.841 584.071 533.912 586.259 536.155C587.714 537.643 583.751 551.557 583.095 553.931C581.953 558.069 580.468 561.263 575.967 562.597C570.27 564.285 568.064 561.399 564.941 557.213C561.545 558.742 556.535 559.923 553.814 562.355C551.46 564.463 550.218 567.668 547.621 569.805C542.776 573.796 536.713 575.78 531.295 578.808C537.648 583.637 557.215 601.023 563.279 586.064C565.166 581.406 560.841 575.839 555.642 576.63C553.548 576.948 551.241 578.377 551.785 580.874C552.442 583.856 555.571 582.982 557.86 583.407C555.263 586.86 550.046 586.683 548.905 581.618C547.662 576.122 554.246 573.052 558.783 573.961C571.235 576.458 567.277 588.407 559.765 593.496L559.783 593.49ZM595.126 463.902C599.213 456.092 634.214 428.138 625.613 420.783C622.667 431.167 612.783 439.314 605.862 447.124C597.942 456.056 591.263 464.197 587.992 475.845C590.376 472.19 592.76 468.53 595.144 464.876C603.443 461.204 611.162 450.247 616.711 443.139C616.427 442.897 616.137 442.655 615.853 442.413C608.944 449.574 602.035 456.735 595.126 463.902ZM245.939 554.787C247.051 555.731 248.163 556.682 249.275 557.626C242.366 548.553 234.777 539.992 228.253 530.629C221.84 521.414 216.511 511.526 210.708 501.927C214.05 520.605 222.32 537.909 234.677 552.148L235.552 551.451C229.471 543.281 224.331 534.608 220.959 524.986C228.886 534.484 233.624 544.786 243.188 552.98C244.105 553.582 245.016 554.179 245.933 554.781L245.939 554.787ZM574.192 261.541C572.808 260.366 571.424 259.197 570.04 258.022C575.594 272.604 579.93 287.392 582.178 302.807C581.882 290.102 579.67 278.431 576.718 266.128C586.626 286.253 587.294 311.904 590.814 333.741C590.926 333.717 591.033 333.694 591.145 333.67C590.145 321.893 589.152 310.115 588.152 298.338C588.43 298.296 588.708 298.261 588.986 298.219C591.074 312.388 592.387 326.084 592.979 340.388C594.884 323.085 596.392 300.162 588.791 283.992C581.45 268.377 574.742 253.843 559.351 244.976C563.462 251.044 569.188 256.204 574.192 261.541ZM533.88 526.774C539.955 523.888 543.983 514.466 545.29 508.291C547.325 498.674 545.196 488.632 549.135 479.452C549.319 479.57 549.502 479.682 549.685 479.8C549.047 490.196 548.408 500.592 547.769 510.988C548.017 511.059 548.272 511.13 548.52 511.195C553.743 502.157 558.186 494.004 559.629 483.448C560.972 473.637 558.907 464.746 557.896 455.1C558.322 454.999 558.753 454.893 559.179 454.793C560.534 459.185 561.894 463.583 563.45 468.613C567.679 457.16 572.565 445.849 574.624 433.735C576.126 424.886 577.582 408.462 568.898 403.096C567.011 401.933 563.988 403.143 564.219 399.506C564.343 397.552 565.55 396.661 567.478 396.49C571.371 396.147 572.613 401.62 573.991 404.3C578.995 414.011 578.061 425.429 578.061 436.09C582.609 422.323 587.176 406.366 577.747 393.544C573.181 387.333 552.075 373.554 548.272 388.183C553.974 391.424 543.634 398.302 545.527 387.168C542.788 389.317 541.28 390.875 539.304 393.538C537.062 396.554 538.18 397.05 533.939 397.08C534.637 392.133 535.702 392.688 539.588 390.214C543.557 387.693 547.148 384.222 550.833 381.282C546.988 380.231 542.741 379.564 538.843 380.786C535.95 381.695 532.833 386.259 530.112 386.099C527.208 385.928 524.853 381.489 527.367 379.263C529.006 377.811 535.246 379.759 537.192 380.007C534.909 378.336 523.28 372.468 528.219 368.601C529.035 367.964 531.118 367.674 531.993 368.448C534.418 370.597 531.756 371.376 531.289 373.271C534.046 376.683 537.76 377.64 542.055 377.433C539.783 374.652 538.145 373.985 537.547 370.431C542.043 371.246 543.599 376.382 547.94 378.206C551.667 379.771 556.127 379.334 560.067 379.251C556.707 374.8 553.613 367.981 547.905 366.824C543.179 365.868 535.944 370.366 535.341 363.542C535.554 363.335 535.767 363.129 535.98 362.922C538.932 366.175 542.368 365.39 546.006 364.947C544.859 362.22 543.35 355.738 539.511 358.123C540.641 359.032 541.185 360.13 541.156 361.417C534.832 360.006 537.719 353.589 542.824 355.549C546.887 357.107 545.557 362.899 550.17 363.961C548.857 355.738 547.053 347.827 537.441 344.143C535.045 346.988 531.632 350.779 530.733 345.318C531.709 345.265 532.685 345.217 534.134 345.141C534.466 344.751 535.164 343.942 536.004 342.962C534.744 342.012 533.59 341.144 532.389 340.235C530.485 341.864 528.509 344.391 525.918 343.027C523.209 341.599 523.463 337.425 525.906 335.86C530.076 333.192 540.328 343.063 544.06 345.471C543.214 342.803 542.694 339.048 541.256 336.646C539.919 334.414 539.008 334.691 537.169 333.162C533.555 330.163 533.129 324.898 539.097 324.106C546.326 323.144 543.291 329.095 543.096 332.909C542.83 338.104 546 344.415 547.692 349.557C549.188 344.48 550.78 338.541 551.348 333.245C551.702 329.945 549.674 326.48 551.519 323.64C553.72 320.251 559.132 320.027 559.806 324.579C560.321 328.05 557.488 328.924 554.991 330.524C554.731 330.276 554.471 330.028 554.211 329.78C553.483 332.838 552.755 335.896 552.028 338.948C556.624 336.043 561.019 328.794 566.212 332.56C562.439 331.864 561.658 335.364 558.724 336.504C560.883 337.72 562.415 338.582 564.142 339.55C564.858 337.431 565.426 335.76 566.236 333.363C569.596 340.105 561.664 342.236 557.458 337.749C544.025 346.87 552.815 365.827 560.214 375.839C560.629 373.312 562.054 366.818 560.753 364.498C559.511 362.296 555.104 361.889 557.304 358.489C558.162 359.097 558.872 359.593 559.635 360.13C561.374 355.56 557.393 351.41 559.493 347.49C560.22 346.132 563.515 343.848 565.195 344.09C567.851 344.474 567.366 345.914 567.922 348.323C565.162 346.477 562.362 347.006 559.522 349.911C560.309 350.897 561.102 351.906 561.9 352.91C562.273 352.449 562.646 351.989 563.012 351.528V360.348C563.367 360.454 563.716 360.561 564.071 360.667C566.094 357.054 571.66 344.432 576.925 352.615C581.113 359.12 572.69 362.615 567.963 358.713C563.965 362.007 562.397 368.206 562.829 373.177C563.314 378.732 565.603 380.479 570.176 383.153C580.663 389.299 585.999 399.034 586.064 411.172C586.147 425.458 579.823 437.909 573.938 450.495C567.898 463.412 564.142 478.619 560.747 492.422L561.439 492.741C565.455 487.923 569.472 483.106 574.026 477.651C574.316 484.352 565.716 491.418 562.06 496.241C557.21 502.641 553.033 509.489 548.071 515.812C543.474 521.674 536.666 527.188 533.359 533.758C529.745 540.943 528.556 549.326 524.972 556.611C531.804 551.723 539.304 545.134 543.717 537.95C545.888 534.419 546.97 530.382 549.129 526.863C551.318 523.291 554.483 521.934 557.227 519.177C559.611 516.78 559.972 514.035 561.362 511.071C563.296 506.933 566.621 503.414 569.501 499.884C575.582 492.428 581.361 486.442 584.236 477.161C586.265 470.62 591.885 462.851 591.991 456.316C592.021 454.651 590.767 453.134 590.932 451.304C591.127 449.125 592.387 448.47 592.819 446.616C593.748 442.661 592.145 440.601 591.181 436.592C588.962 427.377 592.488 418.474 595.15 409.737C597.143 403.184 602.094 395.014 599.911 388.03C598.788 384.423 595.901 382.935 593.925 379.971C591.778 376.742 591.778 373.584 592.026 369.876C592.381 364.575 595.256 358.908 591.719 354.362C587.448 348.866 582.148 348.169 582.249 339.887C582.326 333.546 585.336 325.901 581.403 320.127C579.031 316.644 575.76 315.174 574.695 310.729C573.956 307.63 574.825 304.619 574.547 301.543C573.961 295.026 568.999 288.431 565.467 283.089C560.93 276.229 555.695 269.818 549.78 264.091C544.533 259.008 538.293 254.811 534.057 248.772C529.94 242.903 526.817 237.183 521.913 231.769C516.548 225.842 510.698 220.364 504.606 215.192C492.237 204.702 478.957 193.137 463.796 186.968C483.636 205.865 507.894 219.779 524.836 241.687C528.361 246.245 532.04 250.478 532.963 256.346C533.986 262.863 532.301 265.455 536.175 270.998C543.634 281.666 543.256 293.266 540.02 305.363L538.89 305.121C539.351 301.095 539.813 297.068 540.363 292.298C538.056 295.616 536.287 298.166 534.513 300.717C534.099 300.587 533.679 300.451 533.265 300.321C532.851 297.08 532.466 294.506 533.72 291.371C534.655 289.04 536.991 287.369 537.819 285.125C539.866 279.594 535.767 273.649 531.52 270.048C530.017 272.25 526.788 277.262 523.505 275.45C519.34 273.153 523.605 269.765 526.308 268.908C526.368 269.162 526.427 269.422 526.486 269.676C525.906 270.567 525.327 271.453 524.747 272.344C525.137 272.598 525.522 272.852 525.912 273.106C526.989 271.5 528.065 269.894 529.313 268.023C526.894 266.706 525.398 266.104 524.037 263.767C526.51 263.07 527.486 263.513 529.94 264.434C530.709 259.233 530 252.485 526.113 248.453C522.387 244.592 515.768 245.046 510.68 244.651C498.643 243.712 490.64 241.912 483.11 231.716C480.288 227.903 478.845 221.131 475.296 218.109C472.267 215.523 466.269 215.759 462.507 214.183C457.94 212.27 455.267 208.149 451.114 206.172C445.909 203.692 438.03 203.114 432.393 201.88C421.112 199.412 409.536 199.589 398.114 198.243C385.361 196.738 374.583 203.362 362.38 205.41C357.275 206.266 351.194 204.962 346.9 208.008C342.28 211.29 338.684 215.304 333.567 218.12C328.166 221.096 322.026 225.388 315.975 226.651C309.942 227.909 304.654 225.683 299.016 223.829C296.538 229.355 297.916 236.292 302.27 240.513C306.895 245.005 310.586 240.796 316.153 241.233C320.962 241.611 327.563 244.763 327.439 250.478C327.327 255.773 320.11 255.555 324.777 250.106C323.15 240.944 308.889 242.874 306.889 250.909C305.387 249.144 305.292 247.514 303.861 245.737C302.063 243.5 299.365 242.148 297.662 239.668C294.053 234.414 294.562 228.965 294.876 222.926L293.947 222.666C288.919 231.805 282.099 234.09 272.995 238.582C264.359 242.844 257.982 250.596 249.778 255.62C252.469 256.116 254.7 256.529 257.06 256.966C256.628 258.453 256.368 259.351 256.007 260.59C260.632 257.833 267.429 255.85 272.853 258.347C277.97 260.703 275.935 262.438 272.634 265.071C273.575 266.081 274.409 266.984 275.533 268.194C273.8 268.69 272.475 269.068 270.978 269.499C274.918 275.981 260.573 274.67 257.474 274.293C258.929 276.241 260 277.669 261.703 279.936C249.441 280.869 243.555 278.555 235.179 269.387C228.412 273.206 230.855 274.682 232.05 281.69C233.056 287.587 232.594 293.444 229.814 298.804C226.803 304.619 221.338 308.598 217.298 313.657C213.21 318.776 210.815 324.585 206.431 329.402C206.124 329.195 205.81 328.989 205.503 328.788C209.342 318.203 215.937 309.785 223.585 301.649C229.128 295.752 231.76 284.517 227.07 277.227C221.669 283.844 217.984 292.694 213.707 300.103C209.294 307.748 204.337 315.287 200.629 323.298C197.008 331.12 194.767 339.562 192.897 347.945C191.064 356.174 188.485 363.802 191.702 371.777C195.246 380.568 192.797 388.148 190.407 396.932C189.508 400.226 187.343 404.672 187.361 408.066C187.384 411.455 189.407 414.194 190.59 417.524C193.152 424.732 195.429 431.385 199.126 438.151C202.717 444.71 206.526 451.233 207.881 458.695C209.637 454.073 207.526 452.042 206.964 447.862C206.692 445.831 207.307 442.177 209.856 442.012C217.404 441.528 208.957 460.224 209.691 463.01C210.253 462.284 210.673 461.735 211.305 460.921C210.921 465.555 209.377 468.265 203.29 475.302C208.336 486.813 213.376 498.325 218.421 509.837C221.965 503.125 231.79 489.145 229.477 481.424C228.063 476.707 215.351 470.756 221.018 464.451C222.71 466.293 224.425 468.158 226.141 470.024C226.46 469.894 226.78 469.764 227.099 469.634V461.062C227.466 461.051 227.827 461.045 228.193 461.033C228.891 467.521 229.731 473.832 230.92 480.249L232.05 480.296C234.694 473.743 240.361 465.171 236.664 458.087C233.038 451.144 226.584 450.088 226.584 441.132C226.75 441.132 226.91 441.126 227.075 441.12C228.613 444.302 230.157 447.478 231.695 450.66C229.477 439.29 229.637 432.997 232.754 430.854V444.208C233.801 441.138 234.818 438.168 235.83 435.199C236.244 435.335 236.664 435.471 237.078 435.606C236.191 439.355 234.067 444.414 234.511 448.334C234.966 452.384 238.172 456.505 240.006 460.082C243.064 451.268 247.335 442.082 248.459 432.755C249.589 423.345 245.04 417.624 242.094 409.306C242.343 409.182 242.591 409.058 242.839 408.934C243.816 409.826 244.792 410.717 245.833 411.668C245.655 407.942 245.501 404.613 245.348 401.277L246.826 401.171C247.288 406.697 247.749 412.228 248.211 417.754C252.061 411.172 254.102 404.459 256.178 397.186C257.74 402.216 254.694 407.706 258.87 412.335C259.84 406.962 257.787 401.1 262.2 396.295C261.756 400.167 261.307 404.046 260.863 407.919C261.183 407.978 261.496 408.037 261.816 408.096C269.641 399.878 266.696 389.653 269.523 379.771C269.884 379.824 270.245 379.871 270.606 379.924C270.209 383.732 269.813 387.54 269.417 391.348L270.73 391.501C271.889 385.934 273.049 380.361 274.208 374.794C275.279 381.872 274.166 386.182 271.723 392.829C273.859 391.448 276.107 389.99 278.349 388.538C278.579 388.85 278.804 389.157 279.035 389.47C275.805 392.032 270.564 394.937 269.062 399.105C268.322 401.153 268.967 402.895 267.932 404.884C266.991 406.685 264.684 408.338 263.306 409.778C263.572 410.068 263.839 410.351 264.105 410.64C268.506 407.193 272.907 403.739 277.313 400.291C277.526 400.439 277.745 400.592 277.958 400.74C276 403.456 274.042 406.177 272.179 408.763C273.049 408.68 274.166 408.574 275.284 408.468C275.326 408.834 275.367 409.194 275.409 409.56C269.002 410.434 263.484 410.463 259.668 416.343C255.362 422.985 252.907 431.143 249.985 438.446C254.96 435.648 259.095 432.106 262.188 427.312C264.56 423.64 266.648 419.189 271.061 417.636C271.173 417.825 271.286 418.014 271.392 418.203L262.898 428.864C263.093 429.053 263.282 429.248 263.478 429.437C268.021 426.438 272.569 423.433 277.112 420.434C277.266 420.67 277.426 420.901 277.58 421.137C274.959 425.978 269.647 427.772 265.477 430.854C265.595 431.061 265.714 431.267 265.832 431.474C269.085 431.007 272.333 430.541 276.349 429.968C273.054 434.313 268.328 432.625 263.726 433.534C259.934 434.284 256.291 436.144 253.351 438.629C246.761 444.208 244.147 453.943 242.331 462.066C250.843 458.187 254.552 452.355 259.686 444.963C260.029 445.176 260.366 445.388 260.709 445.601C258.639 449.497 256.563 453.4 254.451 457.373C260.757 456.121 265.081 451.676 270.097 447.98C270.416 448.399 270.736 448.818 271.055 449.243C267.198 452.449 263.348 455.655 259.798 458.606C261.904 459.327 264.531 460.224 267.163 461.121C267.045 461.499 266.926 461.871 266.814 462.249C254.841 459.958 244.052 458.24 238.385 471.47C232.594 484.983 226.182 498.715 221.521 512.659C224.97 509.524 226.78 504.235 229.731 500.563C232.967 496.537 236.729 494.329 240.686 491.206C243.91 488.661 245.631 484.027 249.222 482.085C253.238 479.912 259.846 480.379 264.264 479.865C265.477 490.651 253.534 492.758 246.028 492.971C237.267 493.225 236.765 498.579 232.003 503.19C228.992 506.106 217.398 520.245 228.264 517.724C232.316 516.78 231.258 515.505 233.399 512.895C236.268 509.406 240.828 506.118 245.282 505.173C244.49 507.464 243.792 509.483 242.993 511.803C245.294 510.487 247.495 509.235 249.695 507.978C250.009 508.22 250.316 508.462 250.63 508.71C247.01 515.186 245.596 516.402 238.533 518.71C239.101 518.994 240.113 519.495 241.213 520.044C235.925 524.543 230.95 517.76 224.964 521.509C229.057 526.532 233.168 531.544 237.256 536.568C239.799 539.697 243.792 547.821 248.914 546.321C247.341 540.437 246.951 537.121 247.743 536.374C250.328 545.666 258.29 552.791 264.158 560.106C267.068 563.736 270.221 568.896 273.965 571.7C277.982 574.717 282.797 572.798 287.517 573.896C292.876 575.136 297.325 578.277 301.856 581.223C306.523 584.263 307.931 584.416 313.337 584.387C323.186 584.334 328.758 589.511 334.395 597.003C339.139 593.697 345.64 594.258 349.556 589.015C344.7 585.603 339.181 580.125 333.384 579.121C327.463 578.094 321.53 581.175 315.614 579.215C315.685 578.991 315.75 578.761 315.821 578.537C317.371 578.407 318.921 578.277 320.447 578.147C318.809 576.659 317.336 575.319 315.863 573.979C316.064 573.678 316.265 573.377 316.466 573.076C322.287 576.228 325.522 578.661 332.248 576.588C326.623 571.228 319.773 562.249 311.858 561.074C308.546 560.584 306.546 562.137 304.062 558.754C301.897 555.808 302.423 550.784 302.039 547.354C296.916 543.771 293.521 540.335 287.683 538.735C280.851 536.864 281.342 531.503 281.342 525.287C284.512 525.287 289.812 524.484 292.385 526.987C295.219 529.75 293.125 532.253 293.616 535.547C294.74 543.08 306.375 548.139 312.87 549.597C309.812 540.778 304.506 529.278 298.62 521.999C296.378 519.23 292.604 519.212 290.575 516.361C288.262 513.108 290.096 508.108 290.563 504.536C293.977 504.896 297.739 506.992 299.288 510.15C300.631 512.901 299.229 514.914 299.59 517.612C300.495 524.389 306.582 531.94 309.794 537.737C309.48 531.226 309.143 524.714 308.841 518.197C308.623 513.556 309.321 508.155 306.907 504.182C303.908 499.24 300.548 498.573 302.459 491.979C303.849 487.185 307.238 483.141 308.806 478.401C313.355 484.824 317.2 491.731 313.893 499.589C312.296 503.379 310.859 505.315 310.817 509.601C310.776 513.881 311.338 518.273 311.628 522.542C312.781 539.597 315.715 553.795 326.806 567.243C326.356 561.139 325.351 554.976 325.593 548.842C325.783 544.048 327.747 539.349 327.817 534.608C327.888 530.069 325.605 526.863 327.983 522.5C329.977 518.846 333.94 516.402 337.122 513.887C338.027 521.373 340.92 528.994 333.662 533.599C330.213 535.789 329.882 535.34 328.935 539.78C328.054 543.918 327.741 548.216 327.835 552.443C328.007 560.135 329.178 568.955 334.768 574.746C340.239 580.408 348.337 584.741 354.749 589.346C360.682 586.725 366.609 583.856 372.3 588.23C375.754 590.881 377.967 593.992 381.888 596.164C385.432 598.13 389.04 599.388 392.885 600.604C393.003 600.297 393.121 599.99 393.24 599.683C385.739 593.13 376.269 585.745 367.455 581.14C360.647 577.586 353.07 577.993 346.297 573.442C338.506 568.199 336.489 561.865 335.637 553.11C335.034 546.911 335.856 539.255 343.582 537.649C343.582 544.68 336.507 551.552 337.56 558.01C338.719 565.13 347.704 571.429 353.318 574.445C353.519 574.245 353.714 574.05 353.915 573.849C351.981 568.022 350.047 562.196 348.107 556.369C348.391 556.245 348.669 556.127 348.953 556.003C353.969 561.452 360.629 565.885 364.983 571.86C369.437 577.97 372.933 581.648 379.079 586.258C374.14 577.368 372.98 567.768 369.685 558.352C366.722 549.881 361.262 544.644 367.071 535.459C369.804 536.562 375.252 548.494 375.039 551.611C374.855 554.362 372.288 555.412 372.01 558.069C371.768 560.436 373.572 563.683 374.27 565.844C376.322 572.19 378.073 579.109 381.729 584.771C384.958 589.777 389.726 593.419 394.127 597.345C392.347 592.369 388.945 588.342 389.123 582.882C393.045 584.653 395.103 592.616 397.741 595.952C400.728 599.73 404.491 602.198 409.365 602.446C421.864 603.089 435.871 596.241 447.382 592.174C439.556 585.249 434.084 586.937 424.23 587.811C414.274 588.691 407.88 587.77 400.965 580.13C406.916 578.844 410.909 579.186 416.262 582.203C423.372 586.217 426.998 585.379 435.202 584.298C430.488 580.792 425.785 577.273 421.059 573.778C418.125 571.606 414.073 567.255 410.352 567.09C401.166 566.67 394.517 576.943 385.142 569.941C393.068 567.538 401.497 568.465 408.844 564.752C392.341 553.411 377.133 540.677 365.178 524.478C359.594 516.91 356.163 507.393 348.793 501.797C340.239 495.297 343.806 483.62 347.32 475.225C354.897 482.268 358.494 488.348 356.471 498.756C354.868 507.004 361.315 514.489 366.124 521.095C377.434 536.622 391.838 549.485 407.484 560.513C404.508 554.751 401.456 549.161 398.978 543.157C397.404 539.355 395.517 529.892 392.577 527.046C389.572 524.136 385.893 525.334 383.598 520.818C380.918 515.552 382.35 508.479 383.456 503.019C387.023 504.471 393.411 511.266 394.92 514.956C396.688 519.277 394.376 523.085 395.47 527.406C398.297 538.587 405.259 551.333 411.524 560.95C412.535 557.266 415.469 550.943 415.008 547.012C414.617 543.664 411.577 541.132 410.719 537.761C408.714 529.903 413.245 522.583 419.344 517.919C422.307 524.437 428.749 533.292 424.993 540.654C423.526 543.529 420.976 543.688 419.06 545.772C417.179 547.815 417.049 549.91 416.362 552.555C414.268 560.613 412.713 563.884 419.994 569.244C426.46 573.997 433.037 578.625 439.532 583.348C437.941 568.666 437.279 554.887 437.988 540.116C438.284 533.941 439.148 527.548 438.213 521.426C437.113 514.218 438.278 509.908 440.556 502.818C444.442 505.209 446.435 515.995 444.359 519.962C443.466 521.668 441.691 522.66 441.052 524.519C439.958 527.695 440.579 532.158 440.455 535.488C439.881 550.867 439.864 565.336 441.869 580.597C442.224 580.609 442.573 580.62 442.928 580.638C443.963 578.141 445.773 575.892 446.429 573.247C447.003 570.927 446.388 568.707 446.82 566.411C447.636 562.101 451.321 556.41 455.775 555.123C456.988 559.35 457.544 565.248 454.728 569.061C452.942 571.488 450.18 572.178 448.322 574.605C446.489 577.002 443.608 582.793 444.507 585.278C445.548 588.147 451.936 591.182 454.728 592.026C456.509 587.858 468.458 576.016 472.385 584.009C467.239 584.617 462.513 585.644 459.697 590.78C466.618 589.151 473.231 587.598 480.229 585.957C479.389 584.841 479.004 584.334 478.922 584.222C503.269 581.146 529.455 581.264 549.088 564.651C548.946 564.344 548.798 564.032 548.656 563.725C530.035 574.853 509.202 577.173 488.498 580.024C488.38 579.782 488.262 579.54 488.143 579.298C488.865 578.489 489.587 577.681 490.515 576.642C484.659 576.642 477.141 578.182 481.56 570.726C476.875 573.743 472.515 572.716 467.795 572.054C471.628 563.612 478.153 560.436 486.919 560.501C486.067 559.858 485.44 559.38 484.813 558.907C484.884 558.648 484.961 558.394 485.032 558.134C490.61 557.119 495.952 557.803 501.275 560.572C499.862 559.338 498.448 558.104 496.561 556.463C501.5 556.239 505.369 556.499 510.178 557.52C508.515 553.34 506.954 549.409 505.38 545.447C496.857 548.83 490.303 546.805 484.435 540.016C481.796 536.964 469.12 521.573 470.682 518.043C476.644 520.334 478.744 527.205 484.204 529.992C484.476 529.832 484.748 529.673 485.02 529.514C483.157 523.374 481.294 517.234 479.371 510.906C482.394 512.352 485.322 513.751 488.244 515.15C488.504 514.867 488.759 514.59 489.019 514.306C487.505 511.951 485.996 509.589 484.482 507.234C489.516 511.053 494.786 514.153 500.731 515.965L501.334 515.357C498.288 510.906 495.242 506.455 492.201 502.003C495.502 501.454 502.849 511.396 504.884 513.621C508.054 517.093 510.935 520.523 511.887 525.251C514.046 535.984 506.345 543.765 512.354 554.456C515.336 547.584 520.097 541.834 525.025 536.273C530.254 530.376 530.822 526.249 530.556 518.356C530.076 503.851 526.829 483.531 518.352 471.37C512.922 477.35 512.751 477.403 508.119 474.735C506.209 475.992 502.381 479.688 499.826 479.139C496.638 478.46 496.295 473.342 495.567 470.744C490.64 472.621 484.926 476.116 480.406 471.5C476.792 467.804 478.892 464.752 480.501 460.791C477.401 461.541 471.989 463.713 471.67 458.612C471.433 454.87 476.23 451.558 479.17 450.406C478.797 449.934 478.425 449.462 478.052 448.996C474.361 448.647 464.909 448.665 464.423 443.458C463.897 437.773 474.592 436.008 478.602 435.394C476.159 433.215 475.367 431.202 474.071 428.144C478.987 426.338 481.063 426.379 486.162 427.271C484.287 423.303 482.134 418.728 486.132 415.245C491.574 410.505 496.389 417.24 499.867 420.883C501.719 416.857 503.328 409.094 508.93 409.271C514.874 409.46 514.567 416.597 515.188 420.877C517.075 417.512 519.346 411.691 524.226 412.453C528.006 413.043 527.302 416.981 529.124 418.138C536.607 417.093 540.996 416.833 535.702 424.708C540.032 424.708 547.296 422.713 547.337 428.339C547.373 432.649 541.25 436.94 537.802 438.334C539.996 439.491 547.94 442.171 547.881 445.253C547.822 448.7 540.671 451.138 538.032 452.632C542.558 456.853 543.285 461.092 536.956 463.743C530.893 466.281 526.243 462.491 521.405 459.38C518.435 469.504 526.107 480.922 529.083 490.503C532.845 502.623 533.862 514.159 533.862 526.763L533.88 526.774ZM460.78 622.506C453.25 619.932 447.228 627.205 439.491 624.218C440.739 622.848 441.727 621.437 443.419 620.646C443.584 621.278 443.702 621.727 443.827 622.217C445.323 621.172 446.589 620.286 447.849 619.407C430.068 622.984 412.381 626.42 394.044 626.751C408.838 649.196 448.452 645.37 460.774 622.506H460.78ZM352.827 202.547C352.922 202.824 353.016 203.108 353.111 203.385C368.106 203.25 381.321 195.581 394.588 189.418C406.07 184.087 419.072 174.547 432.316 176.483C445.625 178.431 457.822 191.419 468.351 199.017C480.862 208.043 493.361 217.064 506.114 225.748C506.291 225.512 506.463 225.276 506.64 225.039C494.952 214.885 483.305 204.731 470.83 195.528C460.028 187.558 446.364 175.473 432.783 172.959C418.007 170.225 404.076 181.218 391.595 187.463C385.449 190.539 379.286 193.609 372.88 196.112C366.355 198.662 359.038 199.518 352.827 202.553V202.547ZM601.029 500.096C607.513 496.767 609.648 493.048 613.913 487.563C617.604 482.817 623.466 482.923 627.198 479.168C631.061 475.284 630.363 465.242 629.913 460.141C629.34 453.577 626.684 447.738 622.194 442.903C618.249 463.27 608.5 480.815 601.029 500.096ZM305.588 216.326C324.399 222.548 338.122 213.291 350.632 200.209C361.836 188.491 373.572 171.17 391.063 169.393C374.832 163.194 358.103 185.651 349.325 195.982C343.966 202.293 339.317 209.578 330.497 210.918C326.552 211.514 322.648 210.865 318.684 211.733C314.165 212.719 309.871 214.655 305.582 216.338L305.588 216.326ZM315.827 189.022C324.635 186.454 333.165 183.26 341.925 180.545C349.662 178.142 360.872 178.331 367.39 173.95C349.171 168.861 324.132 167.486 315.827 189.022ZM610.937 328.074C610.594 328.15 610.251 328.227 609.902 328.304C611.144 339.952 612.86 350.796 611.393 362.568C610.097 372.964 606.667 382.77 603.549 392.723C597.871 410.871 588.016 430.724 599.882 448.435C600.178 448.34 600.473 448.246 600.769 448.151C599.61 437.82 597.344 427.229 599.16 416.851C600.775 407.612 605.241 398.485 608.287 389.618C611.677 379.753 614.457 369.623 615.037 359.162C615.628 348.494 613.15 338.422 610.937 328.08V328.074ZM486.807 231.657C492.84 228.629 495.36 228.522 490.835 235.447C492.255 238.458 498.312 241.475 502.328 241.014C500.826 233.287 508.403 235.772 510.432 241.457C514.301 241.782 517.927 242.083 522.393 242.461C510.846 228.9 496.797 221.763 480.324 219.059C480.105 219.283 479.88 219.514 479.661 219.738C482.151 223.894 484.648 228.056 486.807 231.657ZM208.543 304.288C208.306 304.141 208.076 303.993 207.839 303.846C185.61 330.459 143.925 370.485 169.177 408.362C169.467 408.232 169.757 408.096 170.053 407.966C166.308 388.927 163.623 372.049 172.922 354.008C177.441 345.247 184.226 338.169 190.182 330.411C196.665 321.975 202.474 313.02 208.549 304.288H208.543ZM372.063 601.147C372.193 601.489 372.324 601.826 372.454 602.168C367.71 604.471 366.119 608.845 364.699 613.344C364.143 609.058 366.29 605.899 368.887 602.906C368.656 602.717 368.431 602.528 368.201 602.334C366.095 604.441 363.995 606.549 361.889 608.656C361.789 608.603 361.688 608.55 361.593 608.497C362.433 606.761 363.273 605.032 364.113 603.296C359.925 605.398 356.027 608.479 358.322 613.279C359.848 616.467 366.491 620.812 370.135 619.637C374.08 618.368 372.809 613.763 374.181 610.215C376.269 604.831 380.191 604.057 384.059 600.474C378.671 595.745 366.539 589.812 363.894 600.143C366.639 600.48 369.354 600.811 372.063 601.141V601.147ZM365.219 588.596C360.6 588.95 359.369 590.71 357.666 594.712C355.264 600.35 353.655 605.527 350.13 610.658C351.265 606.082 354.643 601.118 354.803 596.412C354.448 596.271 354.093 596.123 353.738 595.981C350.159 602.062 346.586 608.137 342.99 614.247C342.665 608.143 346.953 603.804 349.449 598.786C349.154 598.55 348.858 598.319 348.562 598.083C345.415 601.259 342.274 604.435 339.24 607.499C340.032 602.351 344.191 599.624 349.118 596.536C344.404 597.333 336.886 599.228 335.785 604.695C334.667 610.227 339.636 618.338 343.629 621.662C350.674 610.421 361.457 601.808 365.219 588.59V588.596ZM514.04 573.07C527.338 569.298 539.103 562.066 552.596 558.978C565.467 556.032 576.966 552.726 583.302 540.358C582.964 540.051 582.627 539.739 582.284 539.432C561.143 553.96 536.151 560.46 514.034 573.07H514.04ZM606.826 502.039L606.188 501.649C593.671 506.868 581.154 512.081 568.508 516.986C558.262 520.959 550.661 526.172 548.218 537.507C554.867 535.016 559.936 529.608 559.28 526.143C557.712 527.064 556.168 527.967 554.631 528.87C554.471 528.622 554.317 528.368 554.157 528.12C570.43 517.175 592.441 515.806 606.826 502.033V502.039ZM378.901 607.659C384.994 612.523 411.175 618.828 416.078 617.039C412.109 615.528 408.122 614.011 404.136 612.494C404.189 612.358 404.242 612.216 404.295 612.08C411.867 613.55 419.432 615.02 427.004 616.49C421.266 612.222 412.435 609.967 405.608 608.095C398.528 606.153 388.147 601.649 381.457 605.852C385.627 606.832 389.135 607.653 393.465 608.668C388.206 609.247 384.113 606.106 378.907 607.659H378.901ZM601.071 383.543C598.687 376.382 597.463 370.567 599.19 363.07C600.781 356.168 603.407 349.545 605.004 342.638C607.856 330.311 610.778 314.69 602.585 303.857C601.775 306.697 603.685 311.52 603.957 314.472C604.33 318.539 604.383 322.636 604.099 326.71C603.573 334.296 601.656 341.569 599.586 348.848C596.487 359.752 589.814 375.072 601.071 383.537V383.543ZM571.743 286.702C572.039 286.56 572.335 286.418 572.631 286.277C572.631 274.859 564.278 259.551 558.866 249.822C552.27 237.968 544.675 227.271 531.922 221.633C535.962 226.663 541.274 230.518 545.296 235.63C549.177 240.56 551.998 246.009 554.82 251.582C560.688 263.182 566.207 274.948 571.743 286.708V286.702ZM241.71 260.372C241.556 260.148 241.396 259.923 241.242 259.693C228.477 265.183 217.871 271.081 206.881 279.547C199.138 285.509 181.83 290.74 187.219 303.178C189.733 297.877 190.981 293.768 196.015 290.645C201.303 287.363 206.39 284.334 211.424 280.615C221.261 273.36 231.932 267.61 241.704 260.372H241.71ZM562.326 515.971C562.646 516.219 562.959 516.461 563.279 516.709C567.821 512.506 570.531 507.659 574.381 502.83C578.416 497.77 583.089 493.266 587.602 488.644C597.285 478.726 607.436 468.825 615.303 457.414C609.802 460.661 605.111 467.019 600.509 471.458C595.44 476.352 590.37 481.252 585.366 486.211C576.363 495.132 567.242 504.087 562.326 515.971ZM501.914 450.737C501.571 450.601 501.228 450.465 500.879 450.33C498.117 454.698 495.354 459.067 492.598 463.436C492.432 463.329 492.266 463.229 492.107 463.123C493.775 460.36 495.449 457.603 497.117 454.84C496.839 454.61 496.555 454.385 496.277 454.155C494.378 456.092 492.485 458.028 490.291 460.265C491.397 458.725 492.249 457.538 493.1 456.351C492.899 456.145 492.704 455.938 492.503 455.731C489.782 457.815 481.897 461.971 481.187 465.809C480.442 469.817 484.257 471.771 487.664 471.329C496.797 470.136 502.239 460.631 504.168 452.774C502.926 454.214 501.689 455.655 500.542 456.983C500.997 454.923 501.459 452.827 501.92 450.731L501.914 450.737ZM594.848 521.922C594.641 521.591 594.434 521.261 594.227 520.924C583.887 522.305 573.269 528.947 563.817 533.357C553.4 538.215 544.368 543.889 535.761 551.54C545.965 547.667 555.328 541.38 565.26 536.822C574.937 532.383 586.928 529.053 594.848 521.922ZM503.476 597.144C503.304 596.79 503.133 596.436 502.955 596.082C492.651 598.573 481.554 601.637 470.895 600.12C462.702 598.951 450.523 590.757 442.892 595.704C463.873 602.027 483.228 609.843 503.476 597.144ZM224.36 251.871C225.969 252.337 235.357 245.318 237.829 244.379C243.75 242.148 250.168 241.835 256.344 240.731C267.394 238.759 280.809 233.428 289.073 225.718C284.027 227.082 279.39 230.205 274.403 231.952C268.103 234.16 261.626 235.548 255.09 236.829C242.934 239.214 231.388 240.518 224.36 251.865V251.871ZM512.81 453.488C512.662 453.588 512.508 453.695 512.36 453.795C511.757 452.856 511.154 451.918 510.55 450.973C510.32 451.127 510.089 451.28 509.858 451.434C510.048 453.766 510.237 456.097 510.432 458.429C510.249 458.459 510.071 458.488 509.888 458.512C509.403 456.275 508.912 454.043 508.427 451.823C503.706 459.958 505.238 469.38 512.159 473.773C520.103 467.385 520.222 456.57 512.313 450.141C512.561 451.841 512.686 452.662 512.804 453.488H512.81ZM233.334 566.6C233.073 567.025 232.813 567.45 232.559 567.881C249.938 580.007 271.706 579.912 291.989 579.912C292.048 579.57 292.107 579.227 292.166 578.885C282.294 576.819 272.534 576.895 262.608 575.148C252.546 573.377 243.017 569.734 233.334 566.606V566.6ZM217.794 287.806L217.244 287.221C208.454 294.329 200.889 303.55 193.755 312.264C186.917 320.612 179.73 329.065 174.962 338.759C175.181 338.883 175.394 339.013 175.613 339.137C190.188 322.448 204.592 305.611 217.794 287.8V287.806ZM201.474 279.434C210.726 272.722 220.965 266.647 231.003 261.193C240.651 255.95 251.032 251.977 259.81 245.359C237.764 252.438 217.38 262.178 201.474 279.434ZM178.689 421.833C181.895 413.261 184.788 404.566 187.627 395.864C190.348 387.534 193.14 379.641 188.106 371.553C186.929 380.692 187.16 389.004 183.646 397.812C181.339 403.591 173.034 416.373 178.683 421.833H178.689ZM318.732 222.099C300.193 222.826 288.771 205.859 272.138 201.349C276.958 208.958 287.369 213.681 295.077 218.274C301.371 222.023 311.917 227.796 318.726 222.099H318.732ZM170.035 453.565C170.952 464.026 181.552 474.475 192.105 475.508C187.869 465.13 179.026 459.58 170.035 453.565ZM196.08 480.792C203.823 464.327 184.965 455.082 171.898 452.425C183.019 459.215 192.761 467.137 196.08 480.792ZM525.297 452.502C525.137 452.703 524.978 452.904 524.818 453.104C522.398 451.581 519.979 450.052 517.56 448.529C517.406 448.765 517.252 449.007 517.098 449.249C519.89 453.4 523.327 457.815 527.817 460.248C530.266 461.576 537.234 463.607 538.908 459.893C541.806 453.453 524.77 449.214 520.825 448.452C522.7 450.153 524.002 451.327 525.303 452.508L525.297 452.502ZM493.639 442.567H482.222C482.211 442.336 482.199 442.106 482.187 441.876C485.902 441.646 489.622 441.415 493.509 441.173C487.966 437.649 473.906 437.419 470.037 440.837C471.362 441.132 472.539 441.392 473.722 441.652C467.931 442.673 464.909 444.06 473.101 446.138C480.489 448.01 486.848 445.211 493.639 442.567ZM502.168 434.744C501.784 430.199 495.987 413.852 489.001 415.995C479.123 419.029 497.572 433.227 499.909 435.057C500.092 434.868 500.27 434.679 500.453 434.496C498.915 432.229 497.377 429.963 495.839 427.696C496.005 427.583 496.17 427.471 496.336 427.359C498.128 429.626 499.921 431.899 502.168 434.744ZM327.327 605.114C327.433 604.896 327.534 604.683 327.64 604.465C322.825 601.478 317.809 598.378 313.438 594.742C309.64 591.577 306.724 587.534 302.548 584.794C293.988 579.186 284.636 580.609 274.977 581.175C276.438 583.596 284.672 582.681 287.198 583.059C291.9 583.761 296.491 585.166 300.596 587.604C309.906 593.13 317.182 600.663 327.332 605.108L327.327 605.114ZM596.002 350.182C603.881 335.961 602.875 302.446 594.304 291.791C600.68 311.077 598.989 330.583 596.002 350.182ZM539.352 442.012C532.874 438.676 527.225 442.561 521.488 441.368C521.47 441.64 521.458 441.911 521.44 442.183C522.842 442.767 524.238 443.358 525.64 443.942C525.605 444.096 525.563 444.255 525.528 444.408C524.439 444.314 523.351 444.214 522.262 444.119C526.409 446.793 540.097 454.474 543.924 446.658C546.467 441.463 529.899 442.466 526.782 442.265V442.012H539.357H539.352ZM508.433 431.899V418.38C509.758 422.418 510.391 426.769 511.444 430.889C512.627 426.958 512.195 402.706 505.097 414.466C502.18 419.295 502.736 429.225 508.433 431.905V431.899ZM201.279 498.455C198.363 502.263 201.605 532.247 205.449 538.446C208.667 533.487 205.568 524.324 204.84 518.757C203.941 511.88 202.764 505.215 201.279 498.449V498.455ZM197.257 463.347C196.701 460.023 170.792 413.604 168.065 411.325C172.738 420.039 176.761 429 180.777 438.039C185.142 447.856 190.235 455.271 197.257 463.353V463.347ZM513.437 564.964C520.612 560.354 528.976 544.473 528.521 537.348C521.156 545.908 514.301 553.346 513.437 564.964ZM238.125 236.947C244.59 236.303 265.294 227.631 269.647 223.428L254.28 230.671C254.149 230.418 254.019 230.17 253.889 229.916C260.662 225.854 267.482 222.04 274.468 218.357C266.211 218.711 243.537 230.565 238.125 236.941V236.947ZM198.363 442.956C197.115 447.366 195.648 450.814 197.103 455.295C198.629 460 200.694 464.628 202.356 469.31C206.981 463.867 205.035 451.469 198.363 442.956ZM220.646 537.867C214.813 521.113 208.478 502.907 202.362 485.326C204.775 504.235 210.164 522.784 220.646 537.867ZM603.957 411.107C604.17 411.189 604.377 411.266 604.59 411.349C611.038 396.442 619.574 379.818 618.722 363.329C613.759 379.393 608.861 395.25 603.957 411.107ZM403.869 196.159C418.811 198.603 431.967 191.277 446.051 188.255C440.544 185.244 430.932 189.854 425.247 191.254C418.149 192.995 411.009 194.554 403.875 196.165L403.869 196.159ZM253.493 567.202C253.558 567.036 253.629 566.871 253.694 566.706C247.495 562.975 240.095 560.271 233.263 557.892C227.43 555.861 220.48 555.324 216.079 550.513C216.617 557.384 222.272 558.695 227.992 560.147C236.558 562.325 245.034 564.616 253.487 567.196L253.493 567.202ZM487.008 453.895C486.889 453.689 486.777 453.482 486.659 453.276C489.019 452.13 491.379 450.979 493.745 449.834C493.686 449.704 493.627 449.574 493.562 449.438C492.326 449.657 491.089 449.869 489.853 450.088C489.823 449.975 489.794 449.857 489.764 449.745C491.137 449.066 492.515 448.387 494.567 447.372C483.612 448.452 476.757 452.756 475.39 459.114C482.985 458.937 489.468 456.015 495.313 451.321C492.544 452.177 489.776 453.034 487.008 453.89V453.895ZM194.778 541.852C197.641 540.949 200.114 540.164 201.752 539.65C200.309 532.908 198.972 526.686 197.464 519.643C193.566 527.005 192.868 533.977 194.778 541.858V541.852ZM544.882 427.542C540.771 425.476 531.401 428.847 525.888 434.496C527.971 433.729 529.645 433.109 531.313 432.489C531.354 432.607 531.401 432.719 531.443 432.838C529.68 433.953 527.911 435.069 526.149 436.185C526.232 436.368 526.32 436.545 526.403 436.728C529.739 436.008 533.07 435.282 536.406 434.561C536.459 434.774 536.512 434.992 536.56 435.205C532.916 436.149 529.278 437.094 525.534 438.068C531.892 439.255 542.954 434.703 544.87 427.542H544.882ZM518.027 432.206C518.181 432.218 518.335 432.229 518.483 432.235C520.068 429.319 529.686 416.426 523.599 414.95C517.087 413.374 515.963 429.112 516.259 432.979C517.164 430.813 518.063 428.646 518.968 426.479C519.127 426.538 519.287 426.592 519.441 426.651C518.968 428.498 518.494 430.352 518.027 432.2V432.206ZM313.94 184.37C313.71 184.158 313.479 183.945 313.254 183.738C307.197 192.623 302.175 202.045 297.029 211.479C297.33 211.644 297.638 211.816 297.94 211.981C306.529 204.755 310.995 195.026 313.94 184.37ZM521.411 434.514C521.63 434.668 521.854 434.815 522.073 434.969C526.829 430.122 531.585 425.275 536.678 420.092C529.225 418.138 525.043 424.809 521.535 432.849C521.908 432.66 522.286 432.477 523.179 432.035C522.363 433.186 521.89 433.847 521.417 434.514H521.411ZM169.29 448.098C169.733 447.998 170.177 447.892 170.615 447.791C172.194 440.748 174.004 434.13 174.004 426.899C173.673 426.887 173.348 426.875 173.016 426.863C169.651 432.572 165.894 442.018 169.284 448.098H169.29ZM255.19 409.755C250.032 415.375 249.731 421.975 251.038 429.543C253.457 424.159 260.195 415.05 255.19 409.755ZM221.586 279.83C207.898 289.701 197.535 302.718 187.396 315.942C198.795 303.905 210.188 291.867 221.586 279.83ZM492.941 437.265C492.089 436.049 491.361 435.01 490.604 433.93C491.225 433.753 491.663 433.629 492.385 433.416C487.629 429.844 482.613 428.209 476.804 428.965C480.643 434.585 486.759 435.76 492.935 437.265H492.941ZM424.934 611.573C414.15 606.962 403.373 601.802 390.868 603.609C402.26 606.271 413.653 608.94 424.934 611.573ZM444.726 610.185C448.523 613.657 451.83 616.673 454.498 619.111C460.212 618.173 464.5 619.336 465.589 612.612C462.093 614.023 458.686 615.392 455.32 616.75C453.007 612.547 449.091 611.632 444.726 610.185ZM352.922 564.51C354.82 571.399 356.938 577.58 365.326 577.45C363.77 570.862 357.66 568.595 352.922 564.51ZM294.746 596.714L295.095 596.017C291.025 593.148 286.849 589.375 282.412 587.097C278.656 585.166 274.042 585.066 269.831 584.416C269.754 584.617 269.671 584.818 269.594 585.019C277.976 588.921 286.358 592.817 294.74 596.719L294.746 596.714ZM602.674 436.817C602.993 436.917 603.307 437.017 603.626 437.124C607.051 426.621 610.482 416.119 613.907 405.622C613.528 405.498 613.15 405.38 612.777 405.256C610.168 416.018 603.342 425.435 602.674 436.817ZM186.479 415.977C187.384 424.348 188.295 432.725 189.2 441.097C190.88 432.424 191.779 423.841 186.479 415.977ZM502.784 464.699C500.802 466.452 495.283 472.769 499.666 475.555C506.617 479.977 503.564 466.724 502.784 464.699ZM625.554 487.906C617.817 491.336 613.097 496.726 613.593 501.377C619.361 498.355 622.2 492.894 625.554 487.906ZM625.128 497.729C620.065 499.831 616.859 502.546 615.989 505.386C620.952 505.61 628.837 498.29 628.754 492.587C626.571 494.152 624.809 495.415 622.65 496.968C623.921 497.357 624.442 497.522 625.128 497.729ZM513.691 207.689C519.263 213.215 527.048 209.59 533.022 213.616C531.254 208.828 523.865 206.679 513.691 207.689ZM168.006 472.669C170.964 481.182 177.405 484.588 185.604 486.666C179.588 481.884 174.004 477.439 168.006 472.669ZM321.825 591.849C321.973 591.719 322.127 591.583 322.275 591.453C324.718 592.953 327.161 594.452 330.089 596.253C325.901 589.747 317.495 586.069 310.77 587.858C315.064 589.907 318.915 591.743 322.985 593.679C322.5 592.918 322.163 592.386 321.825 591.855V591.849ZM475.952 213.652C472.35 209.147 462.525 208.598 457.018 207.181C460.851 210.806 468.328 213.634 475.952 213.652ZM318.785 191.549C329.764 190.061 340.263 188.644 351.183 187.162C341.47 186.058 325.57 188.19 318.785 191.549ZM525.853 565.224C535.909 560.613 545.965 556.003 556.021 551.398C555.885 551.109 555.748 550.819 555.612 550.53C545.006 553.996 535.294 559.326 525.853 565.224ZM514.957 437.23C511.213 434.857 505.741 435.158 501.985 437.779C505.528 441.35 509.722 441.215 514.957 437.23ZM591.814 350.259C589.867 344.55 588.016 339.107 586.194 333.765C584.059 341.959 585.881 347.514 591.814 350.259ZM419.716 540.353C423.816 537.838 424.277 529.98 419.137 524.761C419.137 529.797 418.427 535.459 419.716 540.353ZM187.893 498.201C187.621 498.514 187.355 498.827 187.083 499.14C189.171 504.388 192.968 508.314 197.387 511.815C195.068 506.543 192.649 501.507 187.893 498.207V498.201ZM528.355 559.445C538.216 555.017 547.568 550.82 556.92 546.616C556.784 546.327 556.648 546.038 556.512 545.742C547.307 550.259 536.69 551.794 528.355 559.439V559.445ZM309.735 484.582C309.439 484.6 309.149 484.623 308.853 484.641C309.196 489.688 309.545 494.742 309.888 499.789C313.828 494.529 313.55 489.281 309.735 484.582ZM627.074 483.295C626.796 482.935 626.512 482.569 626.234 482.209C620.035 483.998 615.616 487.805 612.866 494.512C617.947 490.497 622.508 486.896 627.074 483.295ZM406.265 176.442C399.693 172.699 388.372 171.99 385.704 175.349C392.347 175.704 398.912 176.052 406.265 176.442ZM260.81 562.963C261.461 560.1 250.872 550.259 248.193 549.963C247.915 550.377 247.637 550.79 247.359 551.203C251.884 555.159 256.409 559.12 260.804 562.963H260.81ZM415.901 539.774C416.351 534.532 416.771 529.649 417.19 524.767C412.801 529.732 412.375 536.208 415.901 539.774ZM312.68 198.167C312.775 198.367 312.87 198.568 312.964 198.775C321.352 196.98 329.74 195.185 338.134 193.391C330.266 193.999 319.524 194.075 312.686 198.167H312.68ZM577.126 355.46C573.21 352.266 573.411 352.089 569.265 355.72C573.453 359.315 573.263 359.103 577.126 355.46ZM578.232 302.96C576.014 308.462 578.516 316.137 582.799 316.278C581.314 311.951 579.841 307.647 578.232 302.96ZM503.387 587.362C493.674 589.983 483.967 592.611 474.255 595.232C484.446 594.364 494.1 591.542 503.387 587.362ZM234.801 252.65C234.617 252.314 234.434 251.983 234.251 251.647C226.738 256.145 219.232 260.644 211.72 265.142C211.915 265.467 212.11 265.786 212.305 266.11C219.8 261.624 227.3 257.137 234.795 252.656L234.801 252.65ZM353.371 495.751C355.584 490.757 353.762 484.989 349.041 481.37C350.496 486.2 351.833 490.651 353.371 495.751ZM173.442 368.129C177.867 359.35 182.262 350.619 186.87 341.469C180.582 349.799 175.992 358.435 173.442 368.129ZM283.365 586.979C287.588 588.874 291.806 590.769 296.029 592.658C292.344 587.734 288.842 586.099 283.365 586.979ZM254.013 483.206C250.577 483.755 248.494 485.42 247.14 488.461C252.103 486.772 256.776 485.178 261.455 483.59C261.372 483.307 261.289 483.023 261.206 482.74C258.663 483.372 256.125 484.009 253.511 484.659C253.599 484.405 253.735 484.009 254.013 483.206ZM540.085 325.281C538.665 326.68 537.642 327.69 536.625 328.699C537.654 329.656 538.677 330.606 539.706 331.563C542.563 328.186 543.38 328.292 540.091 325.281H540.085ZM514.833 596.784C513.283 595.81 509.166 592.079 508.214 595.745C506.747 601.425 513.396 598.124 514.833 596.784ZM347.018 484.535C345.374 491.46 346.563 496.064 350.307 497.038C349.231 492.947 348.201 489.027 347.018 484.535ZM185.935 483.319C186.107 483.082 186.284 482.84 186.456 482.604C180.552 478.501 174.649 474.404 168.024 469.8C173.265 476.276 180.085 479.133 185.935 483.319ZM188.934 341.244C188.656 341.138 188.372 341.038 188.094 340.931L179.422 363.843C179.712 363.949 180.002 364.056 180.298 364.162C183.179 356.523 186.059 348.884 188.94 341.238L188.934 341.244ZM188.408 308.196C188.638 308.397 188.875 308.598 189.106 308.799C194.619 303.043 200.126 297.281 205.639 291.525L205 290.917C199.469 296.679 193.938 302.441 188.408 308.202V308.196ZM232.05 217.937C231.973 218.327 231.902 218.711 231.825 219.1C236.374 220.671 236.729 220.252 240.55 217.518C240.349 217.111 240.142 216.704 239.941 216.296C237.309 216.839 234.682 217.388 232.05 217.932V217.937ZM430.955 196.46C430.937 196.62 430.92 196.773 430.902 196.933C438.775 198.338 446.648 199.743 454.527 201.142C454.575 200.888 454.622 200.628 454.669 200.374C446.968 198.928 438.805 196.46 430.961 196.46H430.955ZM580.137 549.621C576.452 552.602 572.82 555.548 569.188 558.494C573.583 558.264 579.421 553.193 580.137 549.621ZM286.009 204.536C295.893 203.58 299.495 202.329 300.578 199.359C295.396 201.201 290.705 202.866 286.009 204.536ZM516.3 439.219C511.727 442.277 503.357 442.165 499.785 439.001C500.494 445.034 513.993 443.676 516.3 439.219ZM555.417 322.211C554.548 323.404 551.052 327.017 554.648 327.725C559.824 328.741 556.5 323.498 555.417 322.211ZM316.75 594.376C316.543 594.771 316.33 595.167 316.123 595.562C320.601 597.977 325.079 600.391 329.551 602.812C329.728 602.481 329.911 602.151 330.089 601.814C325.641 599.335 321.192 596.855 316.75 594.376ZM614.895 414.135C614.67 414.082 614.451 414.029 614.226 413.97C612.393 421.202 610.553 428.439 608.719 435.671C608.98 435.736 609.24 435.801 609.506 435.866L614.895 414.135ZM487.889 217.542C487.96 217.388 488.037 217.229 488.108 217.076C485.003 215.245 482.879 213.102 479.324 214.147C481.442 216.946 484.488 216.839 487.889 217.542ZM580.249 553.175C577.593 555.613 575.393 557.638 573.05 559.793C577.02 560.791 579.883 558.246 580.249 553.175ZM333.981 520.611C332.278 523.604 330.746 526.597 331.302 530.134C334.301 527.542 333.685 523.917 333.981 520.611ZM542.078 239.432C542.214 239.143 542.356 238.854 542.492 238.564C537.825 236.297 533.158 234.03 528.497 231.758C528.367 232.029 528.237 232.307 528.101 232.578C532.762 234.863 537.417 237.142 542.078 239.426V239.432ZM248.293 489.807C252.665 490.615 256.48 489.612 259.946 485.586C255.569 487.174 251.931 488.49 248.293 489.807ZM350.615 595.308C350.792 595.586 350.97 595.863 351.141 596.141C355.051 596.07 357.121 593.608 358.328 589.983L350.609 595.308H350.615ZM595.641 447.508C593.215 451.127 593.144 452.974 595.25 455.058C597.403 452.012 597.545 450.164 595.641 447.508ZM193.412 434.024V445.719C194.429 441.935 196.6 438.145 193.412 434.024ZM328.137 206.945C332.242 207.152 336.359 206.697 339.263 202.901C335.555 204.247 331.846 205.599 328.137 206.945ZM490.415 528.587C488.966 521.497 487.203 518.315 484.097 517.187C486.345 521.249 488.38 524.915 490.415 528.587ZM356.216 183.803C356.205 183.473 356.199 183.142 356.187 182.812C351.697 183.254 347.048 181.867 342.789 183.803H356.216ZM308.664 500.799C308.126 496.542 307.664 492.871 307.203 489.199C305.618 493.183 306.008 496.873 308.664 500.799ZM285.654 527.855C287.233 529.59 288.966 531.491 290.717 533.41C291.38 529.874 290.084 528.534 285.654 527.855ZM367.858 187.706C372.548 187.033 377.239 186.354 381.93 185.681C377.115 185.834 372.199 185.279 367.858 187.706ZM342.191 596.365C342.014 596.1 341.831 595.828 341.653 595.562C339.033 597.304 334.496 598.762 335.62 602.062C338.027 599.972 340.109 598.172 342.197 596.365H342.191ZM385.195 511.762C385.154 515.227 384.604 518.881 388.632 521.674C387.691 518.746 386.993 514.265 385.195 511.762ZM565.757 222.702C564.03 225.518 563.545 225.577 565.503 228.174C568.135 225.872 567.49 225.783 565.757 222.702ZM534.247 219.732C532.922 215.387 531.023 213.964 526.687 214.443C529.455 216.379 531.603 217.884 534.247 219.732ZM388.904 510.115C388.525 510.274 388.147 510.433 387.768 510.593C389.229 513.432 390.696 516.266 392.157 519.106C392.554 518.905 392.95 518.704 393.346 518.504C391.867 515.711 390.389 512.913 388.904 510.121V510.115ZM174.359 407.405L175.087 407.783C176.477 402.865 177.861 397.948 179.251 393.03C179.038 392.971 178.825 392.906 178.612 392.847C177.192 397.7 175.779 402.552 174.359 407.405ZM425.886 179.039C429.861 179.789 433.842 180.545 437.817 181.294C434.214 178.673 430.151 178.431 425.886 179.039ZM388.17 181.294C380.22 180.486 376.476 180.893 373.495 182.853C378.28 182.345 382.835 181.861 388.17 181.294ZM314.585 552.957C314.301 557.514 314.325 557.969 317.868 560.832C318.04 560.661 318.205 560.489 318.377 560.318C317.188 558.01 315.999 555.702 314.585 552.957ZM478.354 191.72C480.69 192.93 483.021 194.146 485.357 195.356C485.476 195.126 485.594 194.896 485.712 194.66C483.873 192.417 481.785 190.645 478.354 191.72ZM494.881 525.759C494.414 521.491 492.521 519.419 489.049 519.011C490.947 521.213 492.663 523.191 494.881 525.759ZM624.122 404.79C624.17 404.814 624.211 404.831 624.258 404.855V391.979C623.98 391.979 623.697 391.985 623.419 391.991C623.655 396.259 623.886 400.528 624.122 404.79ZM371.229 551.646C371.685 551.534 372.14 551.422 372.596 551.304C371.537 548.375 370.472 545.453 369.413 542.525C369.106 542.631 368.804 542.738 368.496 542.844C369.407 545.778 370.318 548.712 371.229 551.646ZM501.181 204.466C501.009 204.684 500.843 204.902 500.672 205.121C504.404 207.53 508.137 209.932 511.863 212.341C512 212.128 512.142 211.91 512.278 211.697C508.581 209.289 504.878 206.88 501.181 204.466ZM291.918 199.861C292.013 200.097 292.107 200.339 292.196 200.575C295.662 199.507 299.135 198.438 302.601 197.375C302.483 197.004 302.364 196.632 302.246 196.26C298.803 197.458 295.361 198.662 291.918 199.861ZM207.969 518.84L207.254 519.377C209.158 522.89 211.069 526.408 212.974 529.921C213.216 529.797 213.465 529.667 213.707 529.543C211.796 525.977 209.886 522.406 207.969 518.84ZM639.934 391.885C638.248 388.561 637.083 384.724 632.427 383.49C635.083 386.459 637.509 389.175 639.934 391.885ZM311.438 556.032C313.035 553.086 311.728 551.605 307.351 551.445C308.824 553.098 310.096 554.527 311.438 556.032ZM451.688 567.633C452.161 567.727 452.629 567.816 453.102 567.91C453.693 565.454 454.279 562.998 454.87 560.543C454.504 560.454 454.131 560.36 453.764 560.271C453.072 562.727 452.38 565.177 451.694 567.633H451.688ZM540.215 249.964C540.12 250.23 540.026 250.495 539.931 250.761C543.279 252.06 546.627 253.359 549.975 254.651L550.283 253.872C546.929 252.568 543.569 251.269 540.215 249.964ZM320.092 201.484L319.796 200.699L309.847 203.179L310.054 203.982L320.098 201.484H320.092ZM441.413 600.191C441.372 599.907 441.336 599.618 441.295 599.335C437.87 599.807 434.445 600.273 431.026 600.746L431.139 601.566C434.563 601.112 437.988 600.651 441.413 600.197V600.191ZM324.57 611.26C324.736 611.077 324.907 610.888 325.073 610.705L316.549 603.131C316.383 603.325 316.212 603.52 316.046 603.721C318.886 606.236 321.725 608.751 324.57 611.266V611.26ZM349.704 180.946C349.751 181.218 349.804 181.483 349.852 181.755L360.41 179.913C360.357 179.624 360.304 179.34 360.251 179.051C356.737 179.683 353.217 180.314 349.704 180.946ZM530.136 339.857C530.118 339.296 530.094 338.729 530.076 338.169C528.935 338.074 527.793 337.986 526.657 337.891C526.699 338.777 526.746 339.662 526.788 340.554C527.906 340.323 529.024 340.087 530.142 339.857H530.136ZM295.68 205.41C293.403 205.965 291.51 206.42 289.617 206.88C291.776 207.53 294.225 209.519 295.68 205.41ZM627.246 285.297L625.897 284.092C624.56 285.858 622.975 286.631 624.507 288.461C625.418 287.404 626.329 286.353 627.24 285.297H627.246ZM308.788 558.081C309.143 557.857 309.504 557.638 309.859 557.414C308.51 555.253 307.162 553.086 305.813 550.926C305.57 551.067 305.328 551.203 305.085 551.345C306.322 553.588 307.552 555.838 308.788 558.081ZM294.402 507.948C294 508.149 293.598 508.355 293.196 508.556C294.172 510.298 295.154 512.045 296.13 513.787C296.425 513.645 296.715 513.497 297.011 513.356C296.142 511.555 295.272 509.749 294.402 507.948ZM445.193 604.943C445.217 605.203 445.24 605.468 445.264 605.728C448.399 605.415 451.54 605.102 454.675 604.79C454.657 604.565 454.634 604.341 454.616 604.117C451.475 604.388 448.334 604.666 445.193 604.937V604.943ZM561.427 161.553C559.014 160.29 559.073 160.195 557.02 161.984C559.037 163.72 559.173 163.052 561.427 161.553ZM284.187 530.311C283.838 530.517 283.495 530.73 283.146 530.936C284.021 532.495 284.891 534.048 285.766 535.606C286.18 535.364 286.588 535.122 287.003 534.874C286.062 533.351 285.127 531.834 284.187 530.311Z" fill="black"/>
<path d="M197 261C192.589 273.825 185.502 299.503 166.587 295.31C161.918 302.68 169.783 309.362 169.723 316.685C169.676 322.292 164.169 335.24 159.416 338C156.872 332.427 166.82 323.308 166.898 317.037C166.964 311.717 163.361 307.548 162.624 302.421C161.996 298.047 164.115 294.588 164.151 290.401C164.229 282.521 160.709 275.574 168.209 269.556C175.589 263.631 188.063 263.061 197 261.006V261ZM189.626 274.523C184.089 276.273 171.178 288.111 169.274 293.032C176.846 293.185 187.638 283.496 189.626 274.523ZM175.176 269.051C168.323 270.988 165.48 280.918 169.466 287.729C173.764 282.269 171.824 275.14 175.176 269.051ZM175.015 281.317L176.044 281.681C177.978 276.649 179.917 271.611 181.838 266.614C176.074 266.426 174.302 274.2 175.015 281.323V281.317ZM189.662 265.469C183.64 266.015 180.533 269.644 181.192 275.886C184.185 272.204 186.783 269.009 189.662 265.469ZM186.166 272.832C191.409 272.327 191.858 268.07 193.433 264.676C193.193 264.494 192.96 264.318 192.72 264.136C190.536 267.036 188.351 269.931 186.166 272.832ZM166.934 289.18C166.731 284.617 166.527 280.243 166.353 276.385C164.636 279.55 164.707 284.817 166.934 289.18Z" fill="black"/>
<path d="M239.867 596.363C229.016 601.18 223.158 593.562 217 586.675C217.826 583.953 228.565 582.229 230.938 582.071C235.549 581.767 241.056 582.254 243.101 587.302C244.671 591.169 241.765 594.945 243.452 598.775C245.608 603.665 250.676 603.287 255 604.231C247.325 608.683 242.333 604.243 239.867 596.363Z" fill="black"/>
<path d="M509 605C512.514 609.057 516.127 614.51 521.832 615.623C528.566 616.933 531.345 612.806 535.053 608.622C538.778 604.415 540.394 607.961 537.444 611.856C534.259 616.058 528.061 617.083 523.237 618.005C529.606 623.012 537.08 622.972 545 623.684C533.854 628.767 512.948 618.399 509 605Z" fill="black"/>
<path d="M626.238 308.056C623.046 309.07 619.872 311.53 622.468 314.854C624.373 317.284 629.629 316.398 632.143 315.987C631.827 316.88 631.646 317.387 631.131 318.834C634.645 316.88 637.112 315.155 639.509 311.681C642.075 307.966 641.631 305.137 642.677 301C647.862 309.914 636.72 320.831 628.015 319.95C624.11 319.552 617.58 317.465 617.037 312.7C616.464 307.652 622.731 303.419 626.227 308.063L626.238 308.056Z" fill="black"/>
<path d="M645.282 463C647.793 457.824 645 453.279 645 448.067C645.265 448.024 645.53 447.987 645.789 447.944C646.695 450.303 647.594 452.667 648.582 455.239C651.27 450.339 651.938 445.164 654.306 440C654.748 440.214 655.195 440.429 655.637 440.643C654.996 442.885 654.356 445.133 653.622 447.693C654.483 447.565 655.443 447.418 657 447.179C654.72 450.058 652.043 452.893 650.095 456.042C648.599 458.461 647.997 461.793 645.276 463H645.282Z" fill="black"/>
<path d="M255 613.324C258.207 611.984 268.885 607.102 269.948 612.445C270.93 617.392 257.649 613.699 255 613.324Z" fill="black"/>
<path d="M335 636.015C339.716 633.975 345.064 631.13 350 632.254C345.702 636.084 340.433 636.247 335.339 637C335.226 636.67 335.113 636.339 335 636.015Z" fill="black"/>
<path d="M384 629C380.645 631.19 376.987 634.711 373 635C373.375 629.972 380.203 629.253 384 629Z" fill="black"/>
<path d="M195 241.606C191.68 243.377 191.796 243.637 189 241.352C192.068 239.399 191.939 239.63 195 241.606Z" fill="black"/>
<path d="M652 421.827C649.875 424.342 649.904 424.985 648 422.082C649.811 419.095 649.793 419.605 652 421.827Z" fill="black"/>
<path d="M332.733 637.804C331.645 638.422 329.069 637.403 328 637.162C328.967 634.976 330.939 636.452 333 636.958C332.911 637.242 332.822 637.52 332.733 637.804Z" fill="black"/>
<path d="M243.191 553.23C240.461 550.35 237.73 547.471 235 544.586C235.218 544.389 235.436 544.197 235.654 544L246 555C245.062 554.408 244.129 553.822 243.191 553.23Z" fill="black"/>
<path d="M242 311.271C241.067 314.637 239.848 318.043 239.196 321.473C238.909 322.976 239.314 326.489 238.61 327.692C237.625 329.36 236.059 328.44 234.692 329.613C232.399 331.587 231.713 336.143 230.733 338.878C233.367 338.625 237.39 338.094 237.736 341.831C238.182 346.664 234.299 343.128 232.282 342.98C226.141 342.532 224.164 357.026 222.915 361.988C225.12 360.208 228.123 356.737 231.009 356.195C233.05 355.811 238.176 356.861 237.789 359.99C237.109 365.489 227.93 361.546 224.897 362.418C219.56 363.957 217.695 372.65 215.9 377.224C212.768 385.216 210.135 393.403 207.308 401.513C207.531 401.625 207.754 401.743 207.971 401.855C212.088 396.621 217.067 391.464 220.434 385.682C222.346 382.399 224.235 376.033 229.49 378.314C234.757 380.595 230.334 385.593 226.886 386.672C221.613 388.322 220.006 389.177 216.194 393.815C218.698 393.815 223.971 394.363 220.487 397.788C218.246 399.986 214.575 397.935 211.935 400.31C205.337 406.246 205.56 419.866 198.375 425C197.296 419.224 201.543 411.456 203.331 405.862C205.179 400.075 207.742 394.033 207.918 387.91C208.106 381.42 205.39 379.758 202.17 374.919C199.132 370.352 198.358 363.845 198 358.523C201.238 361.499 204.798 364.269 206.587 368.424C208.628 373.163 208.293 378.002 210.628 382.794C212.886 377.642 216 372.409 216.358 366.65C216.716 360.916 214.827 358.682 211.126 355.228C209.144 353.377 206.217 347 211.625 346.923C216.868 346.853 217.771 360.78 218.452 363.951C218.745 364.004 219.032 364.051 219.326 364.104C222.094 356.619 224.862 349.128 227.848 341.071C221.49 340.67 219.326 337.004 219.302 330.939C221.971 333.002 224.229 334.752 226.487 336.503C226.663 336.403 226.845 336.303 227.021 336.202C226.287 333.733 225.554 331.263 224.821 328.794C225.091 328.705 225.367 328.617 225.636 328.528C228.117 330.497 228.205 333.615 228.974 336.591C232.358 332.424 232.305 328.257 229.05 323.896C229.367 323.766 229.689 323.637 230.006 323.507C230.839 323.961 231.672 324.409 233.12 325.198C232.745 322.234 232.399 319.517 232.053 316.806C232.317 316.723 232.581 316.646 232.845 316.57C233.748 318.639 234.651 320.707 235.548 322.776C235.812 322.876 236.07 322.971 236.334 323.071C236.117 318.208 238.422 314.554 240.938 311C241.29 311.094 241.642 311.195 241.994 311.289L242 311.271Z" fill="black"/>
<path d="M227.994 407.792C225.271 413.679 222.873 419.274 217.816 423.482C215.22 425.637 213.73 426.595 211.967 429.601C210.431 432.214 210.041 434.47 207.416 436C206.066 432.619 208.301 430.905 209.872 427.905C211.647 424.518 211.653 421.952 212.648 418.381C214.574 411.446 221.488 409.482 227.366 407C227.575 407.262 227.79 407.524 228 407.792H227.994Z" fill="black"/>
<path d="M274.833 542C280.654 545.465 280.249 548.775 282.21 554.444C284.154 560.072 288.864 565.039 292 570C286.307 566.973 279.948 565.219 274 560.793C277.738 558.949 282.476 562.805 285.728 564.444C285.855 560.919 283.882 561.946 282.534 560.264C280.775 558.078 280.955 558.931 279.942 555.934C278.177 550.721 275.354 547.94 274.827 542H274.833Z" fill="black"/>
<path d="M264 537.522C260.653 539.302 260.707 539.717 258 537.403C261 535.395 260.85 535.639 264 537.522Z" fill="black"/>
<path d="M624.108 464C625.901 466.837 624.716 467.209 622.976 470C620.887 467.735 622.574 466.562 624.108 464Z" fill="black"/>
</svg>
