<svg width="800" height="800" viewBox="0 0 800 800" fill="none" xmlns="http://www.w3.org/2000/svg">
<path d="M273.019 231.168C264.549 236.318 255.082 239.875 246.727 247.044C252.955 247.952 260.27 246.066 266.854 246.384C276.004 246.828 284.944 243.374 293.947 244.25C299.922 244.828 312.329 249.127 315.833 254.322C319.942 260.412 305.052 262.901 300.881 263.651C293.909 264.902 287.598 264.133 282.067 259.669C275.915 254.697 270.638 252.017 262.511 251.979C244.942 251.896 231.831 258.107 219.976 270.439C220.142 270.681 220.307 270.922 220.472 271.163C229.685 266.489 238.199 263.39 248.447 261.707C251.127 261.269 257.882 260.666 255 265.784C253.558 268.344 244.015 267.239 241.304 267.874C232.358 269.963 224.84 275.691 216.776 279.825C209.468 283.572 202.319 291.466 199.989 299.493C207.113 295.632 214.865 292.482 221.723 288.176C227.285 284.683 230.828 278.638 237.317 276.599C243.101 274.783 251.349 275.628 256.301 279.425C263.038 284.594 254.054 290.92 248.835 293.383C241.006 297.073 235.552 294.654 227.64 293.441C219.208 292.145 213.303 297.949 207.252 302.96C200.522 308.542 192.337 314.073 188.661 322.215C186.775 326.393 185.531 330.997 184.077 335.347C182.947 338.738 178.578 347.013 179.918 350.544C185.169 344.892 190.153 340.453 192.782 333.01C195.442 325.479 198.458 320.284 205.589 316.207C209.64 313.895 214.046 312.06 218.313 310.206C221.119 308.987 227.704 304.706 230.605 305.595C236.955 307.532 229.374 321.167 227.367 325.091C223.786 332.096 218.129 337.544 210.744 340.396C203.182 343.317 195.728 341.641 189.601 347.61C183.918 353.141 179.467 360.425 177.054 367.957C174.997 374.371 172.705 385.929 175.816 392.038C185.004 383.045 179.785 368.293 190.991 360.139C205.297 349.737 205.062 365.486 200.592 375.45C198.274 380.626 194.649 384.138 189.906 387.046C183.499 390.964 180.312 396.534 178.712 404.072C176.007 416.83 179.829 433.773 185.442 445.299C185.74 445.261 186.033 445.223 186.331 445.185C188.191 430.083 184.02 412.283 193.588 399.284C195.982 396.038 204.566 384.9 209.405 388.964C212.554 391.612 210.522 407.101 209.836 411.025C208.662 417.732 204.966 423.015 199.804 427.302C193.315 432.693 192.166 436.23 191.899 444.759C191.29 463.988 201.087 478.118 210.313 494.191C210.687 494.026 211.068 493.854 211.443 493.689C210.313 487.847 209.627 481.7 207.951 475.984C206.471 470.961 203.176 466.63 201.887 461.575C199.652 452.818 210.478 437.894 216.687 449.903C219.792 455.904 217.24 461.562 215.03 467.233C212.465 473.812 213.303 479.077 215.106 485.872C218.44 498.439 224.535 509.464 232.345 519.713C232.688 519.504 233.031 519.294 233.374 519.085C231.158 508.352 229.145 497.855 225.723 487.447C221.748 475.375 223.615 465.779 229.609 454.812C230.929 452.392 233.183 445.87 236.606 445.915C241.507 445.978 242.384 456.933 243.082 460.07C245.806 472.345 243.038 478.416 237.018 488.831C227.323 505.603 245.165 529.766 257.654 540.486C265.629 547.331 274.892 552.12 284.34 556.559C294.239 561.207 304.785 567.342 315.516 569.482C315.656 569.196 315.789 568.91 315.929 568.618C303.185 558.775 286.588 555.149 273.286 546.474C261.927 539.069 249.882 521.739 249.622 507.902C249.558 504.517 251.558 489.758 257.825 494.464C262.797 498.198 256.327 505.279 256.574 509.324C257.406 522.857 268.778 540.86 282.239 544.702C279.832 532.681 266.327 528.731 264.632 515.859C264.2 512.595 263.4 498.471 266.302 495.963C269.762 492.972 275.432 500.376 277.547 502.923C281.375 507.508 284.182 513.007 284.886 519.002C285.642 525.505 283.255 531.843 285.35 538.25C289.528 551.034 304.182 555.67 315.072 560.915C314.145 556.609 309.573 552.844 306.887 549.402C303.376 544.906 299.642 540.206 297.122 535.056C290.715 521.968 317.44 529.283 306.049 537.666C312.887 546.176 315.262 555.422 324.685 561.956C334.653 568.878 351.53 573.413 363.53 573.413L364.013 572.098C358.787 568.612 352.628 567.037 347.593 563.201C345.307 561.461 343.479 558.159 341.015 556.882C338.507 555.587 336.133 556.108 333.428 555.504C326.018 553.841 317.351 543.572 318.926 535.475C321.307 523.232 337.225 534.675 340.202 540.644C345.079 550.43 348.012 560.661 360.057 563.436C358.374 558.686 352.07 547.732 354.533 542.778C357.663 536.479 369.213 538.79 374.883 538.739C383.791 538.663 392.712 538.517 401.62 538.676C407.919 538.784 412.351 539.019 411.475 546.366C410.605 553.656 405.906 560.928 405.633 568.199C405.525 571.184 404.401 571.031 406.916 572.454C409.1 573.686 416.783 572.181 419.037 571.876C422.523 571.406 426.262 569.171 429.596 568.929C431.031 568.821 435.044 570.46 436.021 569.926C438.193 568.745 438.523 564.579 439.196 562.338C440.91 556.66 441.202 555.568 437.977 550.761C417.748 520.628 396.446 491.2 374.235 462.496C362.984 447.953 352.05 433.163 341.079 418.405C338.336 414.715 335.593 411.025 332.837 407.349C331.593 405.691 328.291 399.785 326.316 398.807C321.434 396.407 316.887 407.241 311.973 409.317C304.424 412.511 292.163 409.984 284.086 409.927C273.565 409.851 263.038 409.813 252.517 409.774C248.003 409.755 226.815 412.315 226.447 407.056C226.212 403.703 232.948 399.734 235.113 397.874C239.037 394.502 242.536 390.996 246.085 387.237C245.901 386.995 245.723 386.754 245.539 386.513C242.701 386.513 228.205 388.329 229.266 381.839C230.104 376.727 241.895 378.74 245.272 378.74C245.457 378.441 245.634 378.149 245.819 377.851C241.076 372.758 236.421 367.677 231.329 362.934C223.64 355.764 227.158 354.018 236.644 354.03C254.263 354.043 271.883 354.138 289.502 354.208C295.896 354.233 305.389 352.278 311.357 354.761C316.824 357.034 320.062 367.188 325.808 365.461C330.215 364.14 336.075 352.544 338.831 348.874C344.025 341.952 349.225 335.03 354.412 328.101C374.934 300.674 395.03 272.941 415.068 245.165C419.691 238.757 424.307 232.349 428.948 225.954C432.282 221.357 440.663 213.489 441.107 207.754C441.361 204.477 438.352 200.051 438.015 196.615C437.653 192.964 438.167 189.35 439.348 185.89C441.431 179.78 445.457 174.268 451.565 171.766C463.279 166.965 478.334 172.179 482.175 184.651C485.947 196.895 478.289 206.452 465.908 207.614C485.744 226.482 511.141 237.709 529.275 258.78C537.352 268.172 544.145 278.555 549.898 289.516C553.301 295.994 556.311 302.687 559.911 309.063C563.073 314.651 566.883 319.693 568.959 325.828C573.143 338.18 573.943 352.341 567.613 364.146C565.803 367.519 560.33 370.573 560.057 374.218C559.587 380.353 566.673 379.235 570.375 379.203C576.851 379.153 587.086 381.058 593.087 379.064C596.941 377.787 597.741 374.18 602.179 374.987C604.427 375.393 611.443 383.484 613.627 377.419C614.16 375.933 611.57 373.424 610.903 372.523C607.982 368.56 607.195 366.75 606.554 361.79C616.535 360.622 626.624 366.217 635.971 369.614C645.672 373.139 656.67 375.793 665 381.915C655.393 389.859 640.923 392.851 629.164 396.864C624.605 398.42 599.163 408.244 607.944 394.737C609.779 391.911 617.132 388.145 611.303 386.043C605.481 383.941 602.928 392.349 598.071 391.758C595.353 391.428 595.074 388.608 593.061 387.357C590.788 385.935 588.686 386.208 585.969 386.227C579.086 386.278 571.975 385.954 565.118 386.633C558.26 387.307 557.549 390.539 561.702 395.353C565.441 399.69 568.692 403.697 570.457 409.266C574.077 420.691 571.207 434.306 566.838 445.14C557.974 467.1 544.964 490.254 529.535 508.295C521.205 518.037 511.529 526.375 500.461 532.871C488.963 539.616 473.299 546.404 465.165 557.352C473.686 560.61 480.766 561.779 483.039 572.13C485.128 581.637 478.924 590.337 470.588 594.471C463.26 598.103 454.466 597.532 447.806 592.731C444.472 590.324 441.933 587.117 440.123 583.434C439.177 581.51 438.529 576.563 436.193 575.826C434.313 575.235 428.313 577.947 426.612 578.309C421.049 579.509 415.475 580.436 409.963 581.878C404.23 583.377 398.534 584.767 404.249 590.553C408.516 594.871 414.51 598.23 419.335 601.901C422.497 604.308 429.208 607.838 429.875 612.093C430.491 616.024 426.04 621.276 424.059 624.362C422.129 627.366 416.941 631.837 415.379 625.442C414.243 620.787 420.129 614.398 422.91 611.642C417.83 608.766 413.843 604.212 407.582 602.911C407.5 609.451 416.491 614.792 412.16 620.965C407.925 627.004 392.915 628.846 386.217 629.957C378.432 631.253 368.476 632.561 362.463 625.791C356.686 619.282 363.238 608.74 363.003 601.107C354.781 605.991 352.647 616.183 343.942 620.292C338.31 622.953 320.297 624.013 315.357 619.365C310.843 615.11 320.767 604.009 324.024 600.682C330.462 594.102 338.564 590.248 347.238 587.523C347.193 587.174 347.149 586.825 347.104 586.476C331.434 587.879 314.564 589.46 300.76 597.69C289.687 604.289 274.15 607.299 263.883 596.262C255.044 586.761 287.896 581.383 294.233 582.888C298.385 583.872 301.82 586.095 306.151 586.418C310.176 586.723 314.589 585.694 318.557 585.11C326.443 583.948 334.628 582.957 342.031 579.979C323.827 578.607 307.351 573.762 290.455 567.189C282.734 564.185 275.496 563.957 267.864 567.316C259.889 570.828 253.73 576.874 244.745 578.068C237.05 579.09 229.012 576.905 222.37 573.044C212.586 567.361 215.945 564.655 224.853 560.718C232.72 557.238 241.203 552.767 250.015 554.819C253.978 555.746 257.051 558.267 260.803 559.575C265.229 561.125 269.769 560.293 274.194 559.207C265.229 552.043 253.685 543.686 241.742 544.144C229.399 544.613 217.303 551.891 204.827 549.135C199.703 547.998 176.921 535.501 183.944 528.775C186.858 525.981 199.449 527.232 203.163 527.289C209.348 527.385 214.643 528.147 219.57 532.205C224.046 535.894 225.189 539.324 231.431 540.086C233.818 540.378 242.771 540.879 241.139 536.517C240.129 533.818 231.913 532.262 229.488 531.081C224.459 528.636 219.748 525.575 214.719 523.13C209.646 520.66 204.357 518.507 198.687 518.05C196.725 517.891 188.414 518.151 192.198 513.204C196.75 507.266 221.761 521.542 227.018 523.568C227.183 523.314 227.348 523.06 227.52 522.8C217.259 513.547 203.271 504.987 189.137 504.18C173.886 503.31 162.349 500.579 153.174 487.123C148.076 479.642 149.739 477.616 158.311 478.004C164.813 478.296 171.473 478.562 177.524 481.236C184.623 484.373 189.652 490.736 195.176 495.969C201.011 501.494 207.278 506.098 214.148 510.277C214.383 510.092 214.611 509.908 214.846 509.724C209.227 498.725 199.944 489.282 190.471 481.465C185.023 476.975 180.35 475.057 173.74 472.784C168.959 471.139 165.162 469.278 161.981 465.22C159.759 462.388 156.26 457.085 157.689 453.358C159.936 447.477 167.238 450.938 171.238 453.459C180.026 458.997 181.404 471.19 191.239 474.867C188.109 463.385 175.899 445.781 164.622 440.765C158.603 438.085 152.831 438.51 147.365 434.001C142.876 430.299 139.529 425.162 137.288 419.84C135.644 415.941 130.888 405.475 137.117 404.129C142.196 403.03 153.327 411.184 157.2 414.34C162.159 418.373 165.486 423.39 167.397 429.467C169.657 436.669 172.559 440.523 177.708 446.029C177.988 445.896 178.267 445.762 178.547 445.629C175.061 428.457 172.299 409.406 162.73 394.4C155.105 382.436 140.12 380.15 137.002 364.356C136.19 360.254 133.904 344.93 137.301 342.276C141.606 338.916 149.676 349.128 152.355 352.278C157.022 357.764 160.527 364.159 162.076 371.227C163.638 378.365 162.406 386.621 167.905 392.133C170.242 385.313 168.724 376.879 168.769 369.697C168.832 360.304 169.276 351.122 168.476 341.736C167.835 334.255 167.499 328.101 162.61 322.145C157.676 316.131 153.105 311.552 152.946 303.258C152.87 299.207 152.87 283.674 157.194 281.749C162.146 279.546 167.994 291.917 169.956 295.2C174.8 303.316 174.254 310.536 173.226 319.655C172.432 326.679 171.023 337.538 174.464 343.857C178.839 337.252 181.143 328.266 183.956 320.849C186.921 313.019 189.391 305.621 190.363 297.283C191.283 289.376 192.642 281.026 190.414 273.24C187.823 264.171 185.556 257.643 187.683 248.022C188.522 244.244 190.795 230.273 196.331 230.584C200.801 230.838 204.833 244.993 205.513 248.587C206.96 256.303 204.884 264.165 201.252 270.966C197.144 278.663 196.096 284.658 195.106 293.32C200.071 290.602 204.363 282.143 207.062 277.209C210.846 270.293 211.837 262.527 213.97 255.02C215.913 248.187 219.132 240.916 219.272 233.715C219.405 227.015 218.027 221.414 221.754 215.267C223.97 211.615 231.501 203.175 236.015 207.589C239.742 211.234 237.894 222.773 236.072 226.691C233.202 232.851 226.567 235.423 223.348 241.176C220.084 247 217.062 255.459 218.084 262.184C231.126 252.233 239.304 237.881 247.12 223.668C250.974 216.657 252.009 208.434 256.555 201.791C260.778 195.625 266.962 191.916 273.692 188.982C281.267 185.686 286.379 184.772 283.388 194.425C281.058 201.924 277.813 209.373 272.181 215.013C266.86 220.341 259.711 220.252 253.952 224.659C248.873 228.545 243.552 236.033 242.034 242.32C255.597 232.203 271.68 224.83 283.312 212.409C288.76 206.592 291.725 201.404 295.401 194.526C299.065 187.68 304.741 184.6 311.941 182.276C316.221 180.898 327.021 175.754 328.405 182.448C329.415 187.318 322.31 196.647 319.021 199.88C314.506 204.312 308.728 206.655 302.582 207.779C296.519 208.891 289.039 209.748 288.455 217.578C298.004 215.337 307.09 211.317 316.703 209.037C327.059 206.579 337.32 205.957 346.26 199.651C349.962 197.041 361.479 185.331 365.899 192.45C370.642 200.089 350.711 201.429 348.279 207.017C358.889 207.722 370.534 206.725 378.02 215.718C385.893 225.173 370.762 228.215 364.019 224.437C360.057 222.214 358.19 217.864 354.482 215.267C350.66 212.599 346.088 211.609 341.498 211.393C331.186 210.904 317.91 212.688 308.875 217.68C308.913 218.035 308.951 218.391 308.989 218.753C316.64 219.782 323.484 220.328 331.199 220.049C337.796 219.807 344.101 220.804 349.612 224.678C352.273 226.551 362.171 234.712 360.94 238.541C359.638 242.593 349.142 242.262 345.79 242.116C331.586 241.513 325.796 228.431 312.659 225.065C299.985 221.82 282.486 220.112 272.95 231.225L273.038 231.149L273.019 231.168ZM533.142 476.219L533.224 476.302C531.586 473.901 527.319 469.9 530.723 466.617C536.183 461.346 534.291 472.123 534.291 474.441L535.98 474.498C538.298 464.852 541.517 455.301 538.634 445.077C538.05 448.042 538.12 460.445 534.526 461.854C531.186 463.163 533.79 450.836 533.948 449.268C534.571 443.273 536.558 437.481 534.278 431.639C532.12 426.101 527.504 421.923 523.599 417.636C524.786 423.587 528.932 428.121 529.662 434.211C530.437 440.688 530.386 447.756 529.662 454.228C528.386 465.601 524.335 476.511 518.31 486.208C511.789 496.706 502.944 505.241 493.991 513.649C485.642 521.498 477.629 530.985 468.41 537.672C459.165 544.372 449.044 553.714 445.939 565.164C443.183 575.331 447.831 588.343 459.781 589.321C469.153 590.089 480.302 580.855 475.07 570.923C470.2 561.671 456.524 566.338 461 576.582C463.971 574.143 469.476 567.075 471.464 574.956C472.715 579.916 466.968 584.189 462.816 584.685C449.438 586.272 449.393 570.599 452.93 562.261C458.581 548.944 470.924 539.07 481.591 529.906C493.998 519.243 506.29 509.083 517.097 496.725C517.453 496.801 517.814 496.871 518.17 496.947C519.186 500.173 518.411 506.816 512.995 503.939C514.43 507.616 513.046 509.121 508.678 509.038C509.389 516.202 493.141 525.238 488.906 530.617C493.166 530.617 499.547 524.762 502.862 522.406C507.655 518.996 512.271 515.344 516.608 511.363C525.402 503.291 532.697 493.854 538.761 483.592C549.834 464.852 559.809 430.324 543.796 411.622C544.545 417.109 546.647 422.552 547.625 428.057C547.136 428.184 546.653 428.311 546.165 428.438C543.142 422.088 537.231 405.221 528.85 403.964C517.84 402.313 535.377 420.691 537.009 423.06C542.71 431.353 545.974 440.955 545.676 451.071C545.53 456.012 544.78 461.575 542.882 466.166C541.263 470.085 538.164 473.101 536.12 476.848C534.958 476.607 534.043 476.422 533.136 476.232L533.142 476.219ZM443.361 378.721V379.305C470.765 379.305 498.169 379.318 525.573 379.261C526.792 379.261 528.012 378.638 529.231 378.308C528.596 376.746 528.399 374.415 527.243 373.748C522.329 370.916 519.484 366.464 517.491 361.575C514.271 353.681 513.859 345.718 519.395 338.44C522.005 335.004 523.046 331.175 523.142 326.914C523.503 310.009 517.427 295.054 509.135 280.822C500.747 266.419 488.391 255.63 476.15 244.644C466.81 236.261 458.2 227.04 449.444 218.023C446.492 214.981 446.384 214.74 443.653 218.156C443.26 218.651 442.891 219.172 442.517 219.68C432.205 233.759 421.964 247.895 411.57 261.911C387.76 294.031 363.879 326.095 340.006 358.171C337.231 361.898 334.317 365.525 331.51 369.233C330.539 370.516 330.126 371.773 331.694 373.082C334.342 375.298 340.387 375.742 343.244 373.793C348.209 370.408 352.063 370.91 355.39 375.857C356.908 378.111 358.603 378.759 361.156 378.753C388.56 378.689 415.957 378.714 443.361 378.714V378.721ZM446.466 549.668C457.235 531.335 479.096 518.481 494.061 503.678C508.474 489.415 520.373 471.018 522.818 450.455C524.119 439.514 521.408 430.248 517.319 420.259C514.913 414.379 513.808 408.619 516.976 402.719C519.224 398.528 533.491 391.079 528.329 386.786C525.992 384.843 516.64 386.398 513.859 386.443C509.414 386.513 504.97 386.506 500.531 386.5C455.044 386.424 409.551 386.31 364.064 386.271C355.708 386.265 358.381 387.872 352.533 391.784C349.638 393.714 347.803 393.416 344.926 391.574C341.86 389.612 341.612 386.354 337.58 387.224C334.202 387.948 332.748 391.415 333.097 394.368C333.618 398.763 340.183 405.062 342.755 408.492C345.853 412.619 348.958 416.747 352.063 420.869C358.273 429.105 364.502 437.323 370.705 445.553C396.541 479.833 421.684 514.62 446.46 549.675L446.466 549.668ZM532.38 305.214C539.371 303.976 537.758 315.769 538.215 320.284C541.529 315.68 539.06 306.199 538.672 300.718C538.456 297.708 537.891 295.466 537.123 292.793C535.942 288.671 533.37 292.437 535.885 287.281C545.39 292.018 546.425 314.543 544.984 323.732C543.942 330.375 541.364 336.598 537.586 342.155C535.593 345.089 522.392 357.155 526.386 360.254C528.939 357.974 531.377 355.802 533.809 353.63C534.107 353.96 534.405 354.291 534.704 354.614C533.015 356.615 527.554 360.444 529.3 363.397C533.447 359.549 536.939 356.259 539.428 351.128C542.069 345.673 542.958 340.51 547.326 336.16C548.876 344.378 543.51 349.521 540.234 355.491C561.873 343.361 549.834 306.427 541.301 289.637C535.644 278.511 528.316 268.261 519.592 259.332C515.052 254.684 510.1 250.493 505.046 246.422C501.154 243.285 495.572 237.004 490.696 235.779C494.036 240.535 514.944 255.344 509.967 261.085C492.017 244.028 467.108 227.567 455.057 205.487C450.523 197.181 449.171 180.904 463.47 182.581C467.68 183.076 472.708 186.867 470.772 191.694C469.978 193.662 468.403 195.282 466.099 194.856C463.546 194.386 464.448 192.1 462.625 191.218C456.797 194.088 463.324 200.038 467.21 200.197C471.203 200.362 474.27 197.46 475.388 193.84C478.512 183.705 468.797 176.008 459.444 177.012C449.819 178.047 445.438 185.858 446.13 194.952C447.101 207.633 457.806 215.984 466.175 224.335C484.493 242.605 504.684 258.945 517.941 281.565C524.348 292.488 529.332 304.357 530.526 317.064C531.072 322.862 531.275 329.435 529.167 334.953C527.478 339.367 521.211 344.632 523.224 349.807C528.539 345.578 534.17 337.208 535.517 330.483C537.079 322.691 533.688 312.975 532.38 305.214ZM376.762 552.113C380.096 560.045 385.505 565.729 390.363 572.555C396.071 568.275 397.22 556.794 395.995 550.018C394.471 541.603 381.753 544.798 374.807 544.81C362.717 544.836 362.337 545.268 366.483 556.743C369.607 565.379 371.461 572.206 381.143 574.334C381.296 574.01 381.448 573.686 381.601 573.356C379.962 570.492 374.191 564.313 379.156 561.658C377.816 558.68 374.305 556.457 376.762 552.107V552.113ZM381.651 596.052C374.477 591.143 368.457 609.35 367.441 613.713C365.721 621.111 366.711 623.702 374.464 623.708C380.102 623.708 397.43 623.245 400.598 618.164C403.912 612.855 394.439 599.049 392.039 594.496C385.264 601.107 385.163 611.198 378.388 617.682C375.899 613.039 380.604 601.234 381.645 596.046L381.651 596.052ZM368.095 588.743C358.476 585.447 329.548 602.041 324.716 612.639C332.183 617.618 343.999 613.408 349.593 607.502C352.736 604.181 354.095 599.646 357.289 596.382C360.355 593.245 364.641 591.492 368.095 588.743ZM557.898 450.316C560.673 442.587 562.349 435.405 561.949 427.098C561.835 424.749 560.616 421.275 561.39 418.957C562.184 416.569 563.473 417.16 563.835 414.398C564.457 409.692 558.025 402.586 554.819 399.544C550.19 395.149 543.517 392.082 537.523 395.568C539.694 399.245 543.847 401.462 546.761 404.662C550.069 408.301 552.723 412.499 554.558 417.065C558.813 427.638 557.892 439.164 557.892 450.316H557.898ZM559.2 320.106L558.216 320.163C558.216 329.873 558.952 339.812 554.933 348.893C550.812 358.202 543.485 364.191 536.291 371.018C549.212 374.663 566.654 359.688 564.591 347.159C559.886 354.284 557.149 363.505 548.222 365.918C559.841 352.468 566.254 337.64 559.194 320.106H559.2ZM387.988 580.068C387.988 580.024 387.988 579.979 387.988 579.935C384.191 579.935 377.924 579.947 380.229 585.999C381.677 589.791 386.369 589.651 389.741 589.168C393.341 588.654 395.861 587.758 395.214 583.573C394.541 579.198 391.868 579.884 387.982 580.068H387.988ZM200.776 333.201C209.398 334.331 221.653 324.513 220.643 317.433C218.097 319.338 215.799 321.11 213.449 322.805C211.716 324.056 210.148 325.999 207.589 324.342C207.309 324.158 206.42 324.386 206.211 324.691C204.433 327.358 202.744 330.083 200.77 333.201H200.776ZM255.406 564.084C245.971 562.147 239.59 564.49 230.428 566.834C235.996 571.393 251.26 569.806 255.406 564.084ZM195.677 535.342C200.408 540.257 213.418 543.21 218.161 540.702C214.992 535.462 213.291 537.279 208.376 536.745C203.716 536.244 200.636 533.862 195.677 535.335V535.342ZM185.074 496.153C181.061 492.21 168.965 484.246 162.832 486.139C164.94 490.895 178.375 497.353 185.074 496.153ZM267.826 360.882C267.718 361.251 267.616 361.625 267.508 361.994C268.353 364.591 282.924 380.118 284.886 378.041C288.201 374.542 270.867 361.759 267.819 360.882H267.826ZM241.031 362.21C245.914 367.214 253.057 378.225 260.156 378.225L260.352 377.197C256.505 372.726 247.412 358.622 241.031 362.21ZM154.209 376.625C155.028 370.446 149.136 359.142 144.342 357.294C143.212 362.546 147.784 371.646 154.209 376.625ZM317.986 189.116L316.932 188.017C314.075 189.198 299.687 194.939 301.706 199.645C303.77 204.446 316.519 191.11 317.98 189.109L317.986 189.116ZM294.328 360.552C294.017 361.079 293.699 361.613 293.388 362.14C298.62 367.684 303.852 373.228 309.04 378.727C314.646 375.996 297.731 361.803 294.328 360.552ZM255.463 360.641C255.26 361.028 255.057 361.416 254.854 361.797C257.863 366.972 266.86 377.667 272.708 378.225C271.032 371.411 261.806 363.257 255.457 360.635L255.463 360.641ZM261.527 387.846C261.483 387.51 261.438 387.18 261.394 386.843C258.479 386.716 242.752 397.563 243.304 400.865C244.06 405.424 260.06 389.682 261.527 387.846ZM273.254 197.193C271.172 198.521 255.501 211.196 259.94 213.254C264.606 215.413 273.254 200.978 273.254 197.193ZM275.686 594.229C282.963 597.322 290.912 596.141 294.715 591.543C289.033 589.041 279.445 590.324 275.686 594.229ZM298.944 378.181C297.033 373.977 285.585 357.948 280.613 361.479C282.994 366.039 295.052 377.565 298.944 378.181ZM259.146 403.291C263.375 399.353 273.902 392.946 273.045 386.646C266.657 388.888 260.956 396.305 256.054 400.966C257.413 401.989 258.295 402.649 259.146 403.284V403.291ZM145.18 416.842C145.923 419.04 155.136 434.395 159.035 430.782C163.054 427.06 147.739 417.941 145.18 416.842ZM269.153 401.506C269.248 401.817 269.337 402.135 269.432 402.446C275.623 401.995 284.55 392.247 286.315 386.348C279.718 388.742 273.502 396.038 269.153 401.506ZM284.118 402.878C288.582 398.674 297.261 393.257 298.328 387.122C294.671 387.605 280.15 401.239 284.118 402.878ZM294.969 400.89C295.045 401.208 295.128 401.519 295.204 401.836C301.135 401.836 309.776 392.4 310.557 386.589C304.347 389.104 299.268 395.835 294.969 400.89ZM165.753 314.149C168.216 309.736 165.162 298.705 160.806 296.292C159.289 301.22 162.006 311.05 165.753 314.149ZM230.434 482.087C235.183 477.877 237.431 465.906 234.555 461.092C231.513 467.818 230.345 474.492 230.434 482.087ZM196.115 245.444C193.912 252.277 192.877 258.716 194.763 265.867C198.687 261.968 199.392 250.283 196.115 245.444ZM201.627 401.519C197.957 406.733 192.922 416.677 194.731 420.221C199.5 417.516 203.5 406.993 201.627 401.519ZM401.862 545.141C401.468 545.109 401.074 545.077 400.681 545.039C399.519 552.844 398.35 560.648 397.188 568.447C397.512 568.497 397.842 568.542 398.166 568.593C400.865 560.979 404.135 553.447 401.862 545.141ZM272.162 509.375C270.149 513.706 273.68 523.581 277.737 524.94C278.378 519.885 275.381 511.515 272.162 509.375ZM332.717 227.999C335.231 231.803 343.93 235.042 347.142 233.372C343.015 228.266 336.882 225.986 332.717 227.999ZM233.571 287.027C237.875 288.856 243.431 288.849 246.784 284.747C241.933 282.283 237.342 283.026 233.571 287.027ZM301.382 255.789C297.363 251.598 290.106 249.743 285.458 253.09C290.664 255.224 295.56 256.519 301.382 255.789ZM308.367 361.086C307.967 361.429 307.567 361.765 307.173 362.108C309.408 366.312 314.925 373.964 319.808 374.574C316.253 369.455 313.033 364.572 308.373 361.079L308.367 361.086ZM334.882 547.319C334.932 542.149 330.932 537.857 326.977 538.561C327.523 542.823 330.755 546.487 334.882 547.319ZM307.833 401.29C308.208 401.652 308.582 402.014 308.957 402.37C313.668 398.731 317.745 394.514 320.519 389.135C315.249 392.228 311.598 396.807 307.833 401.29ZM188.318 377.978C192.547 376.746 196.217 369.595 194.541 366.172C190.998 369.335 188.306 372.802 188.318 377.978ZM230.116 216.829C226.281 219.553 224.618 224.075 226.224 227.04C229.628 224.462 231.304 220.264 230.116 216.829ZM620.148 372.085C621.754 376.168 626.656 378.791 630.612 377.686C627.348 375.215 624.573 372.466 620.148 372.085ZM165.41 458.114C167.251 463.156 170.286 465.36 174.051 464.477C171.778 461.607 169.765 458.8 165.41 458.114ZM208.878 462.343C211.748 460.521 212.052 456.247 209.449 453.427C207.36 456.361 207.792 459.27 208.878 462.343ZM620.319 390.196C620.649 390.558 620.973 390.926 621.303 391.288C624.281 389.898 626.338 389.409 627.786 386.481C624.243 385.49 623.011 387.802 620.319 390.196Z" fill="black"/>
<path d="M272.715 230.894C282.447 226.983 292.321 230.349 301.937 230.302C314.722 230.249 310.278 244.043 302.53 240.381C298.846 238.641 298.073 235.261 293.474 234.455C290.26 233.891 284.785 233.87 281.707 234.979C278.66 236.074 277.256 240.126 274.274 240.2C267.472 240.368 270.21 233.729 272.805 230.806L272.715 230.887V230.894Z" fill="black"/>
<path d="M268.928 265.006C273.377 266.068 275.052 272.372 269.436 272.992C268.231 273.126 264.322 271.56 264.052 270.013C263.537 267.065 266.976 266.317 268.921 265L268.928 265.006Z" fill="black"/>
<path d="M182.955 275.366C180.534 277.172 174.968 280.731 175 274.364C175.026 268.189 180.693 272.066 183 273.839C182.987 274.35 182.968 274.862 182.955 275.373V275.366Z" fill="black"/>
<path d="M212 430.492C213.966 429.154 220.485 425.386 219.971 430.952C219.389 437.312 213.691 431.979 212 430.492Z" fill="black"/>
<path d="M586.998 314.072C587.084 317.053 583.55 319.851 581.606 316.423C579.118 312.043 584.964 312.601 586.998 314.072Z" fill="black"/>
<path d="M586.493 452.003C587.542 454.228 589.206 455.713 586.643 457.877C585.198 459.098 583.575 459.532 582.137 458.108C578.859 454.872 583.405 451.894 586.493 452.003Z" fill="black"/>
<path d="M603 456.123C601.243 457.27 599.828 459.272 597.888 456.872C596.75 455.462 596.703 454.695 597.764 453.338C600.382 449.997 602.316 453.671 603 456.123Z" fill="black"/>
<path d="M152.562 334C151.258 332.164 147.202 326.215 153.16 327.087C159.075 327.953 154.168 332.313 152.562 334Z" fill="black"/>
<path d="M606 314.58C604.2 316.338 603.29 318.927 600.651 317.666C597.006 315.922 600.343 312.803 601.663 311C602.867 311.991 604.065 312.982 606 314.58Z" fill="black"/>
<path d="M156.55 397C157.691 398.713 161.472 403.744 156.493 403.992C151.383 404.246 155.55 398.425 156.55 397Z" fill="black"/>
<path d="M618 455.019C616.48 456.381 610.937 460.962 611.001 455.06C611.07 448.862 616.613 453.794 618 455.019Z" fill="black"/>
<path d="M143.282 388C149.783 395.257 135.277 396.694 141.666 388.043C142.208 388.03 142.741 388.012 143.282 388Z" fill="black"/>
<path d="M184 290.757C182.289 292.078 179.602 294.833 178.322 291.179C176.6 286.246 182.265 288.226 183.951 289.411C183.97 289.857 183.982 290.31 184 290.757Z" fill="black"/>
<path d="M159.482 347C154.034 338.614 165.734 339.399 160.718 346.988C160.304 346.988 159.896 346.994 159.482 347Z" fill="black"/>
<path d="M335 249.635C333.286 251.13 329.366 255.811 328.213 250.604C326.747 243.998 333.279 248.222 335 249.635Z" fill="black"/>
<path d="M322.366 239C324.706 242.647 324.57 242.692 321.715 246C318.411 242.653 318.099 242.712 320.907 239C321.396 239 321.884 239 322.373 239H322.366Z" fill="black"/>
<path d="M207 352.118C208.465 351.163 215.425 347.355 213.738 353.118C212.507 357.325 208.593 353.339 207 352.118Z" fill="black"/>
<path d="M147.886 451C146.852 449.414 143.982 444.032 148.342 445.152C151.863 446.054 148.826 449.426 147.886 451Z" fill="black"/>
<path d="M202 443C202.339 438.66 203.044 438.203 206 439.959C204.786 440.878 203.695 441.708 202 443Z" fill="black"/>
<path d="M520 275.446C525.705 273.601 529.137 277.611 527.655 285C524.093 282.122 520.882 279.651 520 275.446Z" fill="black"/>
<path d="M517.367 272C515.49 269.438 513.738 267.055 512 264.691C512.909 263.792 513.592 263.115 514.727 262C518.528 266.107 522.933 267.905 517.36 272H517.367Z" fill="black"/>
<path d="M531.527 294C532.954 295.118 538.296 300.418 534.876 302.575C531.044 304.989 530.336 296.433 531.527 294Z" fill="black"/>
<path d="M548 398C552.792 400.759 560.536 408.2 559.971 414C554.813 411.587 551.104 402.662 548 398Z" fill="black"/>
</svg>
