<svg width="800" height="800" viewBox="0 0 800 800" fill="none" xmlns="http://www.w3.org/2000/svg">
<path d="M501.453 621.427C507.374 618.002 514.162 614.131 520.859 610.098C521.494 609.717 521.544 608.354 521.875 607.407C521.177 607.209 520.852 607.026 520.76 607.11C507.755 618.355 491.566 620.813 475.491 623.772C452.225 628.059 428.74 628.179 405.219 627.918C387.711 627.727 370.14 628.271 352.703 627.014C331.998 625.517 311.237 623.228 291.69 615.311C288.034 613.827 284.583 611.708 281.288 609.505C277.59 607.033 278.289 603.996 281.154 601.291C283.2 599.355 285.889 597.964 287.533 595.767C290.786 591.417 294.301 586.974 296.255 582.002C298.344 576.669 295.458 572.156 291.076 568.497C283.603 562.261 275.953 556.137 269.143 549.208C250.048 529.785 238.305 506.52 233.88 479.525C232.744 472.589 230.691 465.787 228.828 458.986C226.64 450.976 220.564 446.061 214.241 441.427C206.401 435.685 200.833 428.474 200.085 418.473C198.9 402.567 210.17 390.842 226.718 390.404C234.014 390.207 240.704 392.099 246.604 396.373C248.862 398.011 250.224 397.651 251.84 395.553C256.759 389.168 256.646 385.722 251.163 379.965C249.462 378.178 247.775 376.363 246.216 374.449C235.242 360.973 236.64 345.004 250.238 334.31C265.248 322.508 282.622 315.869 301.372 312.874C302.783 312.648 304.844 314.096 306.001 315.325C307.624 317.055 308.69 319.308 310.447 322.042C305.549 323.341 300.927 324.147 296.629 325.792C287.576 329.26 278.211 332.325 269.856 337.107C258.812 343.436 258.777 354.927 269.207 362.315C282.636 371.822 297.886 377.317 313.756 381.145C344.333 388.519 375.299 391.089 406.758 389.988C426.27 389.302 445.747 389.14 464.99 385.46C484.869 381.66 504.727 377.642 522.602 367.534C526.836 365.14 530.873 362.018 534.182 358.466C540.018 352.215 539.814 344.46 532.686 339.84C524.515 334.543 515.574 329.726 506.294 326.993C493.091 323.101 479.28 321.265 465.71 318.666C464.447 318.426 463.022 319.033 461.674 319.252L461.653 320.665C466.522 321.533 471.518 321.964 476.239 323.356C491.291 327.784 506.329 332.311 521.17 337.404C524.832 338.661 528.121 341.804 530.844 344.763C534.458 348.683 531.727 356.615 526.596 358.084C526.032 358.247 524.811 357.597 524.522 357.011C520.732 349.39 514.141 344.947 506.435 342.793C495.278 339.685 483.804 337.743 472.555 334.974C469.45 334.211 466.472 332.509 463.741 330.772C460.686 328.829 456.903 326.83 455.57 323.885C454.906 322.416 459.38 318.984 460.841 316.088C462.069 313.651 462.154 310.663 463.05 308.022C463.339 307.153 464.708 305.882 465.343 306.009C490.79 310.925 516.823 314.117 539.545 327.939C545.558 331.598 551.302 336.358 555.748 341.776C564.131 352.01 562.487 366.058 552.932 375.297C551.323 376.85 549.637 378.32 548.021 379.859C542.848 384.789 543.398 392.94 549.383 397.044C550.187 397.594 552.057 397.114 553.179 396.577C560.666 392.989 568.189 389.995 576.812 390.927C587.567 392.092 594.694 397.926 598.286 407.765C601.949 417.809 599.62 427.019 592.457 434.894C590.651 436.879 588.59 438.736 586.353 440.205C576.53 446.647 571.068 455.786 568.619 467.144C565.204 482.979 562.6 499.019 555.529 513.893C545.868 534.214 531.614 550.635 514.176 564.521C512.151 566.131 510.126 567.741 508.058 569.295C504.226 572.184 503.034 576.238 503.993 580.603C505.906 589.34 511.008 595.88 518.911 600.118C519.666 600.521 520.725 600.556 521.614 600.478C526.42 600.055 528.706 602.717 527.521 607.464C527.492 607.577 527.45 607.69 527.415 607.803C525.185 615.431 507.642 623.8 501.453 621.441V621.427ZM499.71 603.544C497.374 598.395 495.038 593.239 492.702 588.09C492.103 588.401 491.51 588.718 490.91 589.029C491.834 595.005 495.377 599.49 499.752 603.515C495.786 604.78 491.82 607.089 487.862 607.082C479.626 607.054 474.545 600.909 469.38 595.386C467.474 593.352 465.491 591.381 463.551 589.382C463.029 594.997 459.19 595.824 455.746 596.926C433.785 603.967 411.189 606.312 388.269 605.253C371.89 604.497 355.808 601.7 340.452 595.676C338.878 595.061 337.601 593.571 336.338 592.335C335.668 591.685 335.315 590.703 334.821 589.877C334.045 590.527 333.205 591.113 332.499 591.833C328.66 595.774 325.273 600.295 320.94 603.579C315.866 607.435 309.663 608.205 303.51 605.931C298.916 604.236 298.387 601.856 300.207 597.462C302.345 592.299 304.081 586.946 305.648 581.578C306.071 580.123 305.26 578.308 304.964 576.288C301.357 583.386 298.217 589.743 294.915 596.015C291.951 601.644 292.861 605.726 298.118 609.328C304.964 614.025 315.697 614.294 322.408 609.356C326.691 606.206 330.396 602.258 334.073 598.924C338.272 600.549 342.541 602.491 346.987 603.869C374.734 612.457 403.053 612.281 431.414 608.339C441.096 606.99 450.715 604.25 459.938 600.959C463.918 599.539 465.731 599.377 468.554 602.541C474.623 609.349 481.913 613.898 491.707 612.945C504.12 611.737 511.975 603.48 502.977 591.861C500.274 588.372 499.202 583.619 497.311 579.48C496.795 578.35 495.998 577.34 495.328 576.274C494.735 577.517 493.415 578.943 493.676 579.967C494.989 585.131 496.831 590.159 498.249 595.294C498.99 597.978 499.237 600.796 499.71 603.551V603.544ZM537.196 391.669C536.659 392.128 536.123 392.587 535.587 393.046C536.871 395.617 538.035 398.251 539.461 400.737C548.945 417.265 556.228 434.675 556.517 453.957C557.082 491.857 543.293 523.732 514.6 548.813C495.716 565.326 473.346 575.136 449.261 580.568C409.715 589.474 370.288 587.949 331.645 575.334C296.277 563.786 269.722 541.538 254.246 507.36C242.426 481.255 238.439 454.169 248.897 426.503C252.249 417.625 256.836 409.22 260.746 400.554C261.741 398.357 262.298 395.963 263.06 393.66C262.531 393.441 262.002 393.222 261.472 393.003C259.934 394.713 258.184 396.274 256.886 398.152C244.155 416.53 237.557 437.239 238.277 459.282C239.716 503.151 259.003 538.084 294.957 563.398C316.339 578.449 340.932 585.342 366.344 588.973C401.338 593.98 435.86 591.791 469.697 580.391C498.32 570.75 522.306 554.47 539.129 529.658C557.865 502.02 566.107 471.268 559.361 437.458C556.468 422.972 550.519 409.99 542.813 397.658C541.394 395.384 539.094 393.653 537.203 391.676L537.196 391.669ZM297.716 320.594C297.54 320.142 297.363 319.69 297.187 319.238C294.992 319.725 292.762 320.107 290.603 320.728C276.002 324.909 262.016 330.362 251.191 341.592C243.689 349.383 242.285 357.816 247.881 366.291C255.086 377.189 264.006 387.007 276.376 391.767C291.351 397.538 306.685 402.722 322.281 406.416C350.931 413.204 380.238 413.55 409.559 413.041C437.956 412.547 466.021 410.202 493.556 402.531C513.584 396.952 532.037 389.091 546.821 373.799C556.933 363.339 557.823 352.836 548.021 342.108C537.478 330.574 523.491 325.051 508.898 320.834C507.832 320.523 506.562 320.912 505.391 320.975C505.278 321.399 505.172 321.816 505.059 322.24C506.611 323.009 508.1 323.942 509.716 324.514C522.595 329.112 535.382 333.675 544.655 344.714C551.937 353.387 552.495 360.281 544.655 368.375C536.97 376.314 528.6 383.419 518.255 388.074C489.096 401.189 458.039 405.244 426.686 407.447C398.388 409.439 370.091 408.662 341.906 404.806C318.809 401.649 296.524 395.758 275.417 385.785C271.705 384.034 268.501 381.201 265.064 378.863C269.807 380.17 273.914 382.543 278.31 384.076C301.188 392.064 324.341 399.297 348.603 401.317C363.867 402.588 379.265 402.334 394.606 402.666C395.439 402.687 396.293 401.818 397.139 401.366C396.342 400.886 395.573 400.059 394.733 399.982C391.226 399.657 387.69 399.332 384.176 399.41C355.674 400.038 328.053 394.847 300.8 387.056C298.323 386.35 295.783 385.375 293.27 385.354C288.881 385.319 290.024 383.454 291.182 380.954C291.725 379.775 291.527 378.249 291.669 376.879C289.933 377.084 287.512 376.639 286.602 377.606C284.224 380.149 281.789 380.82 278.712 379.619C273.13 377.444 267.647 374.993 261.988 373.051C249.123 368.622 245.284 354.313 254.5 344.453C256.342 342.482 258.262 340.554 260.343 338.838C269.799 331.047 281.161 327.155 292.501 323.228C294.322 322.6 295.98 321.477 297.709 320.58L297.716 320.594ZM540.802 418.649C540.329 418.84 539.856 419.038 539.383 419.228C539.785 420.923 539.983 422.703 540.625 424.307C550.738 449.712 549.129 474.92 539.15 499.873C532.129 517.425 521.628 532.518 506.506 544.158C506.012 544.54 505.962 545.493 505.708 546.178C506.52 546.199 507.599 546.567 508.1 546.185C511.466 543.636 515.03 541.248 517.938 538.225C538.402 516.952 549.728 491.624 550.66 461.98C551.076 448.695 548.973 435.727 543.547 423.459C542.806 421.778 541.726 420.245 540.802 418.649ZM264.083 410.513C253.195 419.518 246.272 455.179 250.534 477.025C256.039 505.213 269.27 528.74 292.692 546.263C253.738 507.233 239.822 462.983 264.083 410.513ZM553.511 402.32C554.202 403.146 554.894 403.972 555.586 404.792C557.858 404.001 560.116 403.174 562.402 402.433C572.656 399.106 581.244 402.164 586.396 410.943C590.552 418.028 588.505 425.048 580.39 432.634C576.544 436.229 572.882 440.043 569.473 444.055C568.344 445.383 568.281 447.614 567.342 450.736C574.724 443.793 580.919 438.094 586.946 432.217C588.689 430.515 590.192 428.453 591.363 426.312C597.884 414.404 591.392 399.501 578.365 396.768C571.096 395.242 564.124 396.542 557.717 400.533C556.439 401.331 554.922 401.733 553.511 402.32ZM244.056 403.068C241.382 398.47 237 397.305 232.589 396.683C223.662 395.426 215.046 396.486 209.499 404.474C204.298 411.961 203.691 420.775 209.33 427.951C215.18 435.395 222.766 441.47 229.59 448.144C230.056 447.84 230.514 447.537 230.98 447.233C229.604 444.733 228.672 441.809 226.76 439.817C223.697 436.617 219.95 434.075 216.563 431.179C206.331 422.421 208.314 407.596 220.974 403.181C226.513 401.246 233.069 402.157 239.166 401.988C240.789 401.945 242.426 402.687 244.056 403.068ZM339.14 483.925C333.05 483.968 327.291 490.409 327.383 497.069C327.468 503.016 333.607 508.97 339.648 508.963C344.778 508.963 351.602 501.632 351.447 496.278C351.27 490.006 345.159 483.883 339.133 483.925H339.14ZM447.913 396.33C446.749 396.401 445.394 396.132 444.462 396.641C443.474 397.185 442.889 398.463 442.126 399.417C443.263 400.109 444.448 401.458 445.528 401.38C450.277 401.006 455.054 400.497 459.712 399.53C473.811 396.599 487.897 393.569 501.897 390.199C503.732 389.755 505.045 387.113 506.597 385.488C504.445 385.601 502.081 385.171 500.169 385.912C483.345 392.438 465.675 394.621 447.913 396.337V396.33ZM389.941 579.883C390.061 579.176 390.181 578.477 390.301 577.771C388.657 577.39 387.027 576.853 385.362 576.641C374.311 575.249 363.076 574.748 352.237 572.396C335.675 568.808 319.635 563.391 305.796 552.952C304.872 552.259 303.305 552.422 302.042 552.182C302.487 553.213 302.642 554.788 303.411 555.205C313.121 560.389 322.464 566.88 332.817 570.108C346.62 574.423 361.185 576.33 375.489 578.929C380.21 579.791 385.122 579.593 389.948 579.876L389.941 579.883ZM355.66 433.813C361.524 439.054 439.374 438.764 443.898 433.813H355.66ZM349.605 476.601C349.675 476.318 349.753 476.036 349.824 475.753C322.443 463.139 295.063 450.531 266.666 437.458C267.852 439.005 268.515 440.777 269.729 441.335C294.915 452.799 320.157 464.135 345.406 475.45C346.712 476.036 348.2 476.234 349.605 476.608V476.601ZM500.324 553.135C500.042 552.422 499.759 551.716 499.477 551.002C497.642 551.652 495.695 552.097 493.987 552.987C486.81 556.73 479.916 561.074 472.534 564.337C458.78 570.411 444.173 573.455 429.283 575.278C427.971 575.44 426.799 576.796 425.564 577.601C426.912 577.87 428.316 578.527 429.608 578.35C447.581 575.878 465.273 572.248 481.602 563.927C488.01 560.657 494.093 556.751 500.324 553.142V553.135ZM337.03 454.204C337.213 453.681 337.397 453.152 337.58 452.629C335.611 451.732 333.649 450.835 331.681 449.931C312.154 440.968 292.727 431.758 273.017 423.212C268.148 421.1 269.101 419.144 270.978 416.001C271.105 415.789 270.922 415.386 270.879 415.026C267.57 417.159 266.017 421.22 267.951 422.732C270.244 424.533 272.53 426.489 275.134 427.725C289.34 434.477 303.566 441.222 317.955 447.565C324.094 450.27 330.657 452.022 337.03 454.204ZM504.904 536.862L506.019 537.646C506.343 537.575 506.724 537.59 506.992 537.42C507.486 537.116 507.945 536.735 508.369 536.339C522.764 522.743 533.237 506.746 538.134 487.365C538.826 484.639 539.665 481.926 540.061 479.151C540.195 478.232 539.136 477.145 538.621 476.135C538.035 476.933 537.231 477.66 536.92 478.557C536.356 480.217 536.151 481.99 535.678 483.685C530.576 501.985 522.313 518.484 508.376 531.791C506.922 533.175 506.047 535.16 504.904 536.869V536.862ZM337.397 479.956L337.763 479.009C336.232 478.134 334.736 477.173 333.155 476.403C311.823 466.035 290.483 455.68 269.108 445.411C268.176 444.966 266.85 445.361 265.707 445.361C266.37 446.421 266.779 448.024 267.725 448.469C290.045 458.943 312.423 469.305 334.807 479.638C335.562 479.984 336.529 479.864 337.397 479.963V479.956ZM356.168 426.249C362.942 431.454 440.179 431.461 445.732 426.249H356.168ZM258.614 476.615C258.77 477.696 258.826 478.282 258.939 478.861C263.328 501.674 275.353 520.151 291.541 536.255C291.958 536.664 292.402 537.131 292.925 537.328C293.51 537.547 294.195 537.491 294.837 537.554C294.788 536.82 294.985 535.923 294.632 535.386C294.004 534.418 293.03 533.677 292.219 532.829C277.562 517.616 266.709 500.318 262.877 479.172C262.693 478.141 262.46 477.003 261.875 476.198C261.423 475.577 260.372 475.132 259.581 475.132C259.2 475.132 258.805 476.304 258.614 476.622V476.615ZM342.993 519.621C343.24 519.282 343.487 518.943 343.734 518.597C343.345 518.23 343.021 517.757 342.569 517.524C332.379 512.212 322.196 506.887 311.978 501.646C298.612 494.788 285.233 487.972 271.818 481.22C270.576 480.591 269.044 480.535 267.647 480.21C268.487 481.644 268.981 483.798 270.223 484.405C286.99 492.591 303.877 500.523 320.693 508.596C328.173 512.184 335.569 515.942 343 519.621H342.993ZM343.642 436.511L277.146 411.106C296.954 425.507 320.03 431.737 343.642 436.511ZM263.921 451.704C264.881 453.455 265.234 455.285 266.243 455.786C285.48 465.258 304.787 474.588 324.109 483.89C325.209 484.42 326.564 484.42 327.806 484.667C327.87 484.391 327.933 484.116 328.004 483.84C307.003 473.31 286.009 462.779 263.921 451.704ZM338.173 444.161C315.894 434.781 294.731 425.875 273.434 416.905C275.403 422.852 327.101 444.987 338.173 444.161ZM263.604 459.953C265.064 462.362 265.572 464.453 266.807 465.06C284.591 473.867 302.465 482.484 320.347 491.108C321.356 491.596 322.556 491.68 323.664 491.949C323.812 491.553 323.96 491.165 324.109 490.769C304.406 480.733 284.696 470.696 263.604 459.953ZM472.845 484.935C473.021 485.324 473.198 485.705 473.367 486.093C474.574 485.769 475.844 485.592 476.973 485.091C490.473 479.031 504.015 473.048 517.408 466.762C523.033 464.121 528.375 460.879 533.724 457.7C534.5 457.241 534.592 455.638 535.001 454.557C534.006 454.713 532.877 454.628 532.044 455.08C530.301 456.019 528.805 457.446 527.041 458.315C511.968 465.724 496.852 473.041 481.757 480.408C478.765 481.87 475.816 483.424 472.845 484.928V484.935ZM342.16 428.509L342.717 426.955L286.242 408.118C303.467 418.967 322.478 424.716 342.167 428.509H342.16ZM534.309 446.915C513.449 456.817 493.302 466.381 473.155 475.944C473.325 476.368 473.501 476.792 473.67 477.215C474.856 476.947 476.126 476.876 477.206 476.375C495.582 467.793 513.958 459.191 532.256 450.447C533.223 449.988 533.575 448.236 534.309 446.915ZM264.796 469.269C265.474 471.092 265.572 472.921 266.384 473.324C285.155 482.661 303.284 493.453 323.692 499.181C304.42 489.392 285.155 479.61 264.796 469.269ZM535.855 462.694L535.121 462.27C514.529 472.723 493.937 483.176 473.346 493.637C475.11 493.898 476.641 493.538 478.067 492.916C487.001 489.025 496.033 485.324 504.798 481.079C513.979 476.629 522.948 471.706 531.896 466.797C533.484 465.922 534.549 464.085 535.855 462.694ZM221.418 427.796C220.437 426.383 219.463 424.971 218.475 423.558C214.425 417.759 215.759 413.161 222.392 410.393C224.107 409.679 225.949 408.909 227.762 408.825C232.448 408.606 237.155 408.754 242.384 408.754C241.311 407.829 240.5 406.925 239.512 406.303C234.713 403.294 229.604 403.337 224.269 404.657C217.424 406.353 213.289 409.898 212.47 415.647C211.539 422.223 217.099 424.688 221.418 427.796ZM480.896 497.973C480.96 498.199 481.023 498.418 481.08 498.644C482.047 498.524 483.133 498.644 483.973 498.242C500.14 490.473 516.293 482.689 532.376 474.736C533.484 474.192 533.949 472.356 534.832 470.943C516.399 480.182 498.651 489.074 480.904 497.973H480.896ZM517.437 407.235C499.766 413.211 481.468 419.391 463.106 425.599C470.791 428.318 512.659 413.733 517.437 407.235ZM426.721 623.023C426.806 623.836 426.898 624.641 426.983 625.453C440.913 624.005 454.843 622.592 468.759 621.039C469.683 620.933 470.502 619.831 471.37 619.188C471.193 618.694 471.01 618.199 470.833 617.705C456.219 620.262 441.11 618.503 426.728 623.016L426.721 623.023ZM323.777 618.842C323.777 619.223 323.777 619.598 323.777 619.979C324.61 620.304 325.414 620.841 326.268 620.933C339.196 622.239 352.131 623.525 365.073 624.676C365.864 624.747 366.76 623.666 367.607 623.122C366.562 622.381 365.56 621.074 364.459 620.989C352.082 619.979 339.69 619.139 327.298 618.326C326.141 618.249 324.955 618.658 323.784 618.842H323.777ZM475.173 451.916C475.378 447.579 471.687 443.299 467.679 443.235C464.179 443.179 460.382 447.021 460.185 450.814C459.98 454.896 463.89 459.275 467.884 459.424C471.709 459.565 474.969 456.21 475.173 451.916ZM480.494 506.463C480.755 506.993 481.016 507.523 481.278 508.059C483.719 507.106 486.238 506.301 488.602 505.171C502.229 498.694 515.828 492.168 529.384 485.543C530.068 485.211 530.202 483.763 530.59 482.837C529.581 482.71 528.318 482.131 527.612 482.534C524.458 484.314 521.614 486.708 518.368 488.269C508.968 492.789 499.406 496.956 489.957 501.385C486.718 502.903 483.649 504.768 480.494 506.47V506.463ZM579.296 426.885C583.135 424.377 585.782 421.291 585.408 416.657C584.942 410.823 581.392 407.32 576.234 405.314C570.01 402.892 564.505 404.785 559.361 408.514C560.744 408.881 562.064 408.584 563.369 408.655C567.194 408.874 571.146 408.726 574.808 409.665C581.025 411.268 583.1 416.149 580.792 422.089C580.186 423.65 579.783 425.281 579.289 426.885H579.296ZM312.733 451.654C298.38 444.358 284.033 437.062 269.531 429.689C269.708 434.421 306.121 453.738 312.733 451.654ZM264.74 426.885C259.073 429.286 253.802 462.927 258.643 469.714C260.724 455.108 262.729 441.039 264.74 426.885ZM471.977 431.878C480.805 433.453 519.716 418.021 521.395 412.879C505.193 419.108 489.033 425.317 471.977 431.878ZM485.342 462.129C502.039 458.633 516.985 451.146 531.494 442.67C532.192 442.261 532.411 441.039 532.856 440.191C531.719 440.269 530.428 440.022 529.475 440.474C517.084 446.357 504.734 452.318 492.399 458.308C490 459.473 487.692 460.85 485.342 462.122V462.129ZM534.98 428.919C534.93 430.006 534.796 430.699 534.881 431.37C536.321 442.974 537.746 454.586 539.284 466.176C539.44 467.327 540.265 468.387 541.042 470.032C545.134 460.999 540.83 432.358 534.98 428.919ZM405.085 562.282C412.255 565.672 450.813 558.842 453.029 554.4C437.328 556.985 421.725 559.548 405.085 562.282ZM281.676 378.786C281.853 378.15 282.636 376.73 282.466 375.438C282.332 374.393 281.217 372.959 280.229 372.634C272.234 370.014 264.613 366.835 258.777 360.408C258.375 359.963 257.351 360.083 256.61 359.942C256.667 360.916 256.349 362.159 256.836 362.83C262.46 370.663 270.95 374.159 281.676 378.786ZM377.839 419.61C382.2 423.53 427.342 422.724 430.843 419.61H377.839ZM345.039 565.856C344.404 564.436 344.235 562.96 343.536 562.649C331.137 557.02 318.675 551.539 306.227 546.023C317.002 556.13 330.276 561.364 345.032 565.856H345.039ZM346.225 553.531C346.027 554.117 345.822 554.703 345.625 555.289C348.32 556.342 350.931 557.903 353.719 558.355C365.708 560.318 377.74 561.999 389.772 563.645C390.88 563.8 392.122 562.995 393.308 562.635C392.2 562.049 391.127 561.039 389.977 560.94C376.018 559.711 361.982 558.976 348.723 553.736C347.975 553.439 347.057 553.587 346.225 553.531ZM454.56 563.617C463.254 564.966 493.599 550.098 495.61 544.243C493.987 544.73 492.575 544.85 491.524 545.528C481.228 552.189 470.608 558.1 458.583 561.138C457.129 561.505 455.894 562.769 454.56 563.617ZM377.331 520.723C376.971 516.669 374.946 514.141 370.945 514.112C367.155 514.091 364.226 516.048 364.149 520.13C364.071 524.064 366.513 526.515 370.465 526.663C374.409 526.812 376.653 524.516 377.338 520.723H377.331ZM305.26 535.916C303.849 533.917 303.277 533.006 302.599 532.165C295.112 522.863 287.625 513.554 280.074 504.302C279.164 503.186 277.858 502.388 276.214 501.003C276.214 507.713 296.912 532.66 305.253 535.916H305.26ZM490.649 434.223C496.506 436.179 524.444 423.657 526.653 418.268C514.536 423.636 503.041 428.735 490.649 434.223ZM495.299 442.345C495.476 442.621 495.659 442.889 495.836 443.165C498.411 442.169 501.065 441.328 503.556 440.149C511.177 436.54 518.777 432.874 526.286 429.039C527.337 428.502 527.831 426.885 528.586 425.762C527.401 426.072 526.159 426.256 525.037 426.729C523.858 427.224 522.842 428.078 521.685 428.636C514.706 431.991 507.677 435.24 500.733 438.68C498.793 439.64 497.099 441.109 495.299 442.352V442.345ZM500.818 529.7C501.065 529.969 501.319 530.23 501.566 530.498C502.434 529.99 503.542 529.679 504.12 528.952C510.133 521.345 516.096 513.696 521.932 505.955C522.397 505.333 521.819 503.92 521.72 502.875C520.824 503.44 519.674 503.814 519.081 504.606C513.562 512.008 508.143 519.48 502.709 526.939C502.053 527.843 501.446 528.782 500.818 529.707V529.7ZM388.064 571.69C388.184 571.047 388.311 570.411 388.431 569.769C387.45 569.408 386.491 568.872 385.482 568.723C375.736 567.318 365.984 565.94 356.224 564.662C355.377 564.549 354.446 565.142 353.55 565.411C354.206 566.096 354.756 567.198 355.525 567.388C359.061 568.25 362.625 569.069 366.231 569.5C373.492 570.369 380.782 570.976 388.057 571.69H388.064ZM446.417 564.937C445.358 564.676 444.702 564.323 444.102 564.401C433.778 565.764 423.461 567.148 413.151 568.638C412.304 568.759 411.571 569.663 410.3 570.531C417.964 572.339 443.404 568.455 446.417 564.945V564.937ZM445.874 547.16C434.046 549.187 422.741 551.129 410.159 553.291C417.456 556.13 443.044 551.504 445.874 547.16ZM311.491 518.258C311.096 518.809 310.701 519.353 310.306 519.904C314.935 524.919 319.493 529.997 324.292 534.849C324.885 535.442 326.762 534.764 328.039 534.673C327.665 533.408 327.658 531.798 326.854 530.943C323.608 527.504 320.213 524.184 316.664 521.069C315.224 519.805 313.234 519.176 311.498 518.258H311.491ZM530.964 431.807C519.928 437.521 510.323 442.494 499.809 447.946C501.523 448.639 501.799 448.85 501.94 448.787C511.057 444.514 520.182 440.262 529.236 435.847C529.92 435.516 530.054 434.039 530.971 431.815L530.964 431.807ZM386.124 552.881C374.162 550.96 363.111 549.187 351.679 547.351C355.13 551.97 379.603 556.066 386.124 552.881ZM314.652 451.711C314.293 452.643 313.926 453.576 313.566 454.508C323.953 458.329 334.341 462.157 344.729 465.978C344.954 465.392 345.18 464.806 345.406 464.227C335.152 460.052 324.899 455.878 314.652 451.711ZM509.187 507.141C502.61 514.713 496.323 521.959 489.195 530.166C496.774 528.507 508.707 514.006 509.187 507.141ZM342.604 418.126C332.026 415.337 321.448 412.547 310.87 409.764C310.743 410.23 310.623 410.703 310.496 411.169C320.637 415.626 331.13 418.797 342.604 418.126ZM293.348 509.62C293.56 516.153 307.102 530.654 312.359 531.092C305.761 523.64 299.551 516.627 293.348 509.62ZM490.931 411.332C490.748 410.739 490.557 410.145 490.374 409.545C482.237 411.706 474.101 413.86 465.964 416.022C466.105 416.537 466.239 417.046 466.381 417.561C474.856 416.587 483.19 415.068 490.931 411.332ZM313.234 539.906C312.768 540.711 312.303 541.524 311.837 542.329C318.04 545.867 324.25 549.413 330.453 552.952C330.883 552.203 331.321 551.447 331.751 550.699C325.576 547.103 319.402 543.501 313.227 539.906H313.234ZM346.514 594.03C353.31 595.577 360.112 597.123 367.882 598.889C365.56 594.482 350.762 590.95 346.514 594.03ZM467.75 550.974C473.155 552.146 488.574 542.852 488.786 538.649C481.849 542.71 475.23 546.595 467.75 550.974ZM315.746 514.635C316.043 514.028 316.332 513.42 316.628 512.82C308.019 508.582 299.41 504.337 290.801 500.099L289.968 501.766C298.563 506.053 307.158 510.348 315.753 514.635H315.746ZM490.169 518.675C489.689 518.159 489.336 517.453 488.955 517.446C488.207 517.425 487.219 517.545 486.732 518.018C483.889 520.78 481.101 523.612 478.441 526.55C477.996 527.038 478.25 528.168 478.187 529.001C478.928 528.945 479.916 529.171 480.374 528.775C483.133 526.423 485.808 523.965 488.412 521.444C489.132 520.744 489.527 519.713 490.169 518.675ZM405.304 444.252C405.29 443.864 405.276 443.475 405.269 443.08H383.809V444.252H405.304ZM300.235 601.757C305.704 601.185 310.821 590.76 308.259 586.162C305.57 591.395 303.016 596.361 300.235 601.757ZM406.497 577.983C412.036 581.218 422.883 579.798 424.153 575.97C418.013 576.669 412.255 577.326 406.497 577.983ZM436.156 598.261C440.285 597.293 444.025 596.488 447.701 595.471C448.4 595.28 448.859 594.206 449.43 593.542C448.562 593.175 447.61 592.377 446.833 592.518C443.044 593.211 439.29 594.079 435.571 595.082C434.893 595.266 434.456 596.339 433.905 597.003C434.724 597.462 435.542 597.922 436.156 598.268V598.261ZM337.157 525.067C337.404 524.573 337.658 524.078 337.905 523.584L320.735 514.804C320.439 515.398 320.136 515.991 319.839 516.591C325.612 519.417 331.384 522.249 337.157 525.074V525.067ZM361.94 508.497C360.077 507.042 358.863 505.361 357.748 505.425C356.584 505.488 355.511 507.233 354.403 508.236C355.504 509.415 356.45 511.202 357.77 511.548C358.645 511.782 360.063 509.945 361.94 508.49V508.497ZM353.86 448.985C352.039 447.501 350.868 445.806 349.704 445.813C348.673 445.82 346.803 447.77 346.86 448.78C346.93 449.995 348.525 451.88 349.668 452.05C350.699 452.198 352.011 450.425 353.853 448.985H353.86ZM485.385 588.281C485.166 594.545 490.063 602.456 494.015 602.781C491.235 598.105 488.497 593.507 485.385 588.281ZM435.373 544.518C437.547 542.724 439.127 541.411 440.715 540.104C439.967 539.581 439.028 538.465 438.506 538.635C436.58 539.264 434.794 540.323 432.953 541.213C433.595 542.089 434.237 542.957 435.373 544.511V544.518ZM306.848 603.847C307.49 604.165 308.139 604.483 308.781 604.801C310.983 599.744 313.185 594.687 315.386 589.623C314.949 589.432 314.511 589.241 314.074 589.05C311.667 593.98 309.254 598.91 306.848 603.84V603.847ZM389.532 601.672C391.494 600.944 392.863 600.436 394.232 599.927C392.284 599.158 390.386 598.105 388.368 597.717C387.274 597.505 385.961 598.409 384.748 598.811C386.335 599.758 387.923 600.711 389.532 601.672ZM518.544 497.451C521.254 497.281 523.103 497.543 524.642 496.956C525.834 496.504 526.773 495.099 527.528 493.926C527.803 493.503 527.217 492.528 527.02 491.8C525.919 492.274 524.698 492.577 523.738 493.248C522.08 494.4 520.577 495.784 518.544 497.444V497.451ZM225.624 424.872C226.033 424.688 226.435 424.504 226.845 424.321C225.44 421.785 224.107 419.193 222.575 416.735C222.074 415.937 221.058 415.457 220.275 414.835C220.028 415.965 219.188 417.533 219.647 418.155C221.418 420.563 223.599 422.661 225.624 424.879V424.872ZM544.33 361.948C542.615 361.326 541.521 360.599 541.176 360.86C538.875 362.612 536.723 364.561 534.606 366.531C534.542 366.588 535.417 367.654 535.855 368.248C538.169 366.524 540.484 364.801 544.33 361.941V361.948ZM461.455 510.319C461.667 511.005 461.878 511.683 462.09 512.368C466.352 510.941 470.615 509.507 474.884 508.081C474.708 507.53 474.531 506.979 474.362 506.428L461.462 510.319H461.455ZM360.924 443.073C362.723 444.634 363.789 445.559 364.855 446.477C365.737 445.418 367.113 444.443 367.31 443.264C367.43 442.557 365.786 440.975 364.777 440.827C363.852 440.693 362.723 441.95 360.924 443.066V443.073ZM286.82 498.072C283.92 496.54 281.02 495.014 278.119 493.481C279.002 498.842 282.833 498.694 286.82 498.072ZM273.257 490.148C272.185 491.596 270.865 492.627 271.013 493.347C271.267 494.583 272.446 495.629 273.236 496.759C274.309 495.678 275.678 494.739 276.285 493.439C276.482 493.015 274.69 491.659 273.257 490.148ZM402.961 580.236C402.989 579.494 403.018 578.753 403.046 578.011C399.863 577.856 396.681 577.7 393.505 577.545C393.47 578.23 393.435 578.915 393.406 579.607C396.589 579.819 399.779 580.031 402.961 580.243V580.236ZM366.979 543.614C367.113 542.936 367.247 542.251 367.381 541.573C364.558 540.881 361.728 540.182 358.906 539.49L358.383 541.721C361.249 542.35 364.114 542.986 366.979 543.614ZM477.043 531.982C476.549 531.254 476.056 530.52 475.562 529.792C474.044 530.929 472.492 532.024 471.08 533.281C470.932 533.415 471.645 534.524 471.963 535.188C473.656 534.122 475.35 533.055 477.043 531.989V531.982ZM486.888 439.591C484.848 438.475 483.649 437.288 482.675 437.451C481.821 437.592 480.854 439.195 480.664 440.283C480.558 440.905 482.131 442.536 482.534 442.409C483.797 442.006 484.862 440.982 486.888 439.598V439.591ZM526.441 375.056C527.655 373.298 528.742 372.351 528.897 371.271C529.003 370.55 527.782 369.632 527.161 368.806C526.222 369.738 525.001 370.529 524.479 371.652C524.239 372.161 525.39 373.312 526.448 375.056H526.441ZM474.623 520.476L473.826 518.265C471.335 519.085 468.843 519.911 466.345 520.73C466.571 521.415 466.79 522.093 467.016 522.779C469.549 522.009 472.083 521.246 474.616 520.476H474.623ZM492.166 509.43C492.42 510.016 492.667 510.602 492.921 511.181C495.398 510.157 497.875 509.133 500.352 508.109C500.105 507.53 499.851 506.958 499.604 506.378C497.127 507.395 494.65 508.412 492.166 509.422V509.43ZM407.569 601.531C408.804 600.697 409.736 600.069 410.674 599.44C409.785 598.762 408.84 597.484 408.014 597.561C406.913 597.66 405.904 598.811 404.859 599.511C405.657 600.104 406.454 600.697 407.569 601.531ZM421.027 595.859C419.799 596.94 418.853 597.773 417.9 598.607C418.747 599.136 419.749 600.238 420.413 600.062C421.549 599.758 422.473 598.656 423.489 597.886C422.798 597.314 422.099 596.742 421.027 595.859ZM399.814 596.897C398.572 597.893 397.669 598.621 396.758 599.341C397.732 599.984 398.699 601.1 399.694 601.135C400.59 601.163 401.529 600.005 402.446 599.377C401.691 598.663 400.929 597.957 399.807 596.897H399.814ZM333.896 528.478L332.951 530.11C335.407 531.593 337.862 533.069 340.318 534.553C340.629 534.03 340.946 533.514 341.257 532.992C338.801 531.487 336.352 529.983 333.896 528.478ZM372.913 599.942C373.252 599.313 373.584 598.684 373.923 598.056C372.652 597.307 371.431 596.424 370.069 595.916C369.815 595.824 369.004 597.236 368.453 597.957C369.942 598.621 371.431 599.285 372.913 599.949V599.942ZM492.371 535.351C492.752 535.845 493.133 536.332 493.507 536.827C495.398 535.365 497.282 533.903 499.174 532.441C498.821 531.982 498.468 531.53 498.115 531.07C496.196 532.497 494.283 533.924 492.364 535.358L492.371 535.351ZM574.59 419.257C575.232 419.617 575.881 419.977 576.523 420.337C577.596 418.43 578.668 416.523 579.748 414.623L578.104 413.67C576.932 415.534 575.761 417.399 574.59 419.264V419.257ZM462.944 501.83C462.746 501.406 462.542 500.982 462.344 500.558C460.185 501.477 458.032 502.402 455.873 503.32L456.529 504.754C458.668 503.779 460.806 502.804 462.944 501.83ZM463.283 418.021C463.219 417.597 463.156 417.166 463.085 416.742C461.032 417.003 458.971 417.258 456.917 417.519C457.009 418.098 457.094 418.677 457.186 419.257C459.218 418.847 461.25 418.437 463.283 418.028V418.021ZM378.411 596.191C377.578 597.145 377.056 597.738 376.534 598.338C377.521 598.946 378.446 599.751 379.519 600.055C379.907 600.168 380.634 599.066 381.205 598.522C380.394 597.844 379.582 597.166 378.404 596.184L378.411 596.191ZM431.534 597.703C431.372 597.138 431.217 596.58 431.054 596.015C429.721 596.382 428.387 596.749 427.053 597.123C427.237 597.703 427.533 598.804 427.589 598.79C428.916 598.501 430.222 598.091 431.534 597.703Z" fill="black"/>
<path d="M428.681 354.887C421.261 356.011 413.854 357.2 406.412 358.139C405.71 358.224 404.809 356.751 404 355.997C404.802 355.271 405.511 354.097 406.426 353.904C409.307 353.307 412.336 353.378 415.145 352.588C416.351 352.246 418.118 350.282 417.969 349.307C416.394 338.987 424.701 331.557 434.449 328.903C444.381 326.198 453.185 329.622 458.378 338.482C460.039 341.315 461.592 344.389 462.309 347.549C463.274 351.805 465.785 352.552 469.495 352.453C474.788 352.317 480.101 352.296 485.38 352.602C492.921 353.036 499.093 356.431 504.279 361.925C505.712 363.448 507.819 364.957 509.749 365.163C511.068 365.299 513.403 363.391 513.842 361.961C514.247 360.63 513.197 357.84 511.991 357.2C505.698 353.855 499.37 350.303 492.63 348.168C486.642 346.268 480.087 346.175 473.809 345.115C472.589 344.909 471.496 343.927 470.347 343.3C471.524 342.816 472.716 341.87 473.873 341.905C486.586 342.339 499.263 343.549 510.217 350.688C513.8 353.022 516.105 357.335 519 360.737C515.758 362.822 512.615 365.106 509.238 366.943C505.932 368.743 503.385 368.359 500.555 364.9C495.659 358.915 488.388 356.965 480.889 356.552C477.015 356.338 473.099 356.687 469.219 356.958C461.472 357.498 458.833 355.577 455.832 348.467C453.271 342.404 450.617 336.126 442.317 335.87C434.18 335.621 427.773 338.461 423.467 345.492C420.353 350.581 420.97 351.791 426.78 352.588C427.333 352.666 427.873 352.823 428.412 352.937C428.504 353.584 428.603 354.232 428.696 354.879L428.681 354.887Z" fill="black"/>
<path d="M459 134.017C456.22 134.728 453.425 135.425 450.652 136.15C446.62 137.209 442.212 137.593 438.647 139.534C434.048 142.037 434.303 145.969 438.463 149.168C439.121 149.673 439.786 150.164 440.5 150.583C456.17 159.798 452.01 182.173 438.102 188.231C431.813 190.975 424.561 191.551 417.713 192.937C410.908 194.317 404.024 195.341 397.24 196.805C394.636 197.367 392.104 198.547 389.706 199.777C385.334 202.024 382.277 205.487 382.61 210.698C382.949 216.024 386.388 219.095 391.156 220.965C392.153 221.356 392.882 222.437 393.738 223.198C392.557 223.816 391.403 224.876 390.18 224.975C384.407 225.452 377.941 218.981 377.134 212.298C376.413 206.333 378.627 201.733 383.133 197.95C390.045 192.155 398.513 191.181 406.911 189.93C413.78 188.906 420.734 188.28 427.497 186.802C438.59 184.377 445.594 175.234 444.335 165.742C443.641 160.566 440.995 156.747 436.666 153.989C432.471 151.323 428.389 148.486 429.712 142.52C430.787 137.664 435.484 134.28 441.767 133.754C444.575 133.519 447.419 133.718 450.242 133.597C453.015 133.476 455.788 133.206 458.554 133C458.703 133.334 458.851 133.668 459 134.01V134.017Z" fill="black"/>
<path d="M400.709 345.833C401.694 344.335 402.572 342.744 403.684 341.344C410.023 333.404 410.845 324.998 406.057 316.019C403.287 310.823 400.454 305.661 397.94 300.338C394.412 292.865 395.645 285.434 402.055 280.259C406.942 276.307 412.361 272.659 418.119 270.212C426.944 266.465 434.835 261.693 441.727 255.068C450.212 246.909 450.332 237.188 441.712 229.376C440.537 228.308 438.964 227.672 437.98 226.442C444.9 224.137 452.549 231.235 452.96 238.864C453.52 249.094 448.165 257.366 438.815 262.159C435.671 263.771 433.362 266.995 430.592 269.378C429.395 270.41 428.056 271.329 426.647 272.043C420.91 274.985 414.804 277.339 409.428 280.824C402.827 285.109 400.893 291.924 403.571 299.164C405.71 304.947 408.947 310.356 412.021 315.75C417.467 325.309 415.378 337.922 406.864 344.434C405.349 345.593 403.387 346.159 401.63 347C401.318 346.611 401.007 346.222 400.695 345.833H400.709Z" fill="black"/>
<path d="M452.324 377.156C451.927 371.872 445.573 366.914 438.518 366.198C429.273 365.255 421.644 368.609 415.523 375.482C414.694 376.411 414.234 377.702 413.766 378.893C413.157 380.432 412.888 383.298 412.158 383.404C408.836 383.879 405.4 383.596 402 383.581C402.12 382.503 401.844 381.049 402.439 380.418C404.564 378.17 407.398 376.503 409.211 374.063C417.719 362.638 429.337 357.935 442.279 360.836C448.888 362.319 453.783 366.148 457.602 371.475C459.84 374.603 462.475 375.376 466.173 374.525C475.701 372.333 485.286 370.361 494.877 368.453C496.159 368.198 497.619 368.822 499 369.042C497.902 370.092 496.953 371.815 495.685 372.092C481.545 375.184 467.42 378.404 453.16 380.851C443.668 382.482 433.97 382.922 424.364 383.879C423.542 383.957 422.664 384.099 421.899 383.893C420.213 383.454 418.583 382.808 416.933 382.248C418.548 381.305 420.099 379.695 421.792 379.525C429.408 378.759 437.065 378.418 444.709 377.879C447.252 377.702 449.788 377.404 452.31 377.163L452.324 377.156Z" fill="black"/>
<path d="M451.993 128.954C445.126 128.547 437.778 127.547 430.486 127.833C422.534 128.14 414.682 129.875 409.092 136.458C402.559 144.148 404.162 152.395 413.426 156.372C418.583 158.585 421.541 161.762 421.25 167.246C420.952 172.822 416.81 175.878 412.043 176.763C402.8 178.47 393.394 179.312 384.052 180.483C382.066 180.733 380.016 181.176 378.072 180.926C376.306 180.698 373.433 179.969 373.157 178.898C372.305 175.65 375.086 175.057 377.562 174.978C384.279 174.764 391.018 174.907 397.714 174.471C401.8 174.207 406.035 173.672 409.801 172.201C412.043 171.33 414.369 168.638 414.958 166.325C415.277 165.068 412.355 162.226 410.347 161.248C396.92 154.751 395.997 138.607 408.666 129.125C419.619 120.929 441.346 121.043 452 128.961L451.993 128.954Z" fill="black"/>
<path d="M508.837 280C500.331 279.936 493.93 273.023 494.001 263.978C494.071 255.419 499.792 249.848 508.348 250.003C516.869 250.159 524.021 257.043 524 265.072C523.979 273.376 517.188 280.056 508.837 280ZM498.084 259.19C500.302 261.132 501.493 262.17 502.677 263.208C504.038 261.626 505.683 260.186 506.569 258.378C506.824 257.855 504.485 255.186 503.996 255.363C502.188 256.005 500.664 257.418 498.084 259.197V259.19Z" fill="black"/>
<path d="M275.351 359C266.092 355.425 264.116 346.822 271.526 341.85C278.343 337.274 286.113 333.988 293.748 330.808C298.681 328.756 304.129 327.931 309.344 326.563C309.682 326.471 310.021 326.351 310.367 326.309C314.05 325.836 317.953 325.35 319.915 329.404C320.825 331.287 314.213 337.683 311.573 338.381C303.557 340.511 295.42 342.386 287.665 345.263C281.582 347.52 275.972 351.088 275.337 359H275.351ZM288.342 338.727C288.787 339.037 289.232 339.347 289.683 339.664C290.939 338.438 292.203 337.203 293.459 335.976C292.203 335.835 290.749 335.243 289.761 335.687C288.985 336.04 288.794 337.669 288.342 338.734V338.727Z" fill="black"/>
<path d="M441.852 266.783C443.421 265.736 444.948 264.625 446.561 263.648C461.17 254.824 464.359 238.294 454.039 224.793C447.164 215.799 428.251 212.82 416.568 218.488C412.569 220.427 408.081 221.389 403.741 222.528C403.017 222.719 401.923 221.509 401 220.943C401.859 220.285 402.634 219.464 403.585 218.99C407.385 217.094 411.263 215.353 415.069 213.457C429.913 206.062 442.74 211.702 455.374 219.401C466.227 226.017 467.207 236.214 465.104 246.977C462.952 258.008 455.516 264.787 444.75 267.901C444.039 268.106 443.215 267.929 442.448 267.929C442.25 267.547 442.051 267.165 441.859 266.776L441.852 266.783Z" fill="black"/>
<path d="M340.007 310.749C341.051 307.743 342.019 305.955 342.256 304.075C342.959 298.419 344.108 292.998 348.739 289.258C349.951 288.275 351.741 288.047 354.505 287C353.516 288.852 353.398 289.344 353.091 289.6C346.33 295.334 344.401 302.201 347.172 310.778C349.707 318.621 357.666 325.295 365.083 325.637C369.323 325.837 373.021 324.576 374.706 320.195C376.336 315.949 375.138 312.281 371.705 309.396C367.861 306.162 363.76 303.199 360.208 299.658C358.008 297.464 356.629 294.408 354.874 291.744C355.187 291.367 355.501 290.989 355.814 290.612C357.256 291.067 359.031 291.124 360.083 292.05C365.438 296.759 370.758 301.532 375.793 306.589C381.231 312.046 382.338 317.98 379.448 323.258C375.96 329.641 369.713 332.283 362.193 330.41C350.891 327.596 343.907 319.874 340 310.757L340.007 310.749Z" fill="black"/>
<path d="M301.038 355C302.378 365.613 304.246 368.204 314.188 370.703C339.372 377.021 364.959 379.846 390.919 379.292C393.246 379.243 395.6 379.626 397.906 380.038C398.667 380.173 399.302 381.046 400 381.585C399.323 382.295 398.766 383.282 397.941 383.637C397.025 384.035 395.868 383.893 394.811 383.914C366.834 384.56 339.245 381.592 312.185 374.337C307.828 373.166 303.548 371.235 299.678 368.914C297.838 367.814 295.652 364.64 296.047 362.986C296.731 360.09 299.283 357.641 301.053 355H301.038Z" fill="black"/>
<path d="M329.007 213.429C330.077 198.542 338.173 186.808 351.562 181.459C354.99 180.091 358.221 178.171 361.713 177.059C362.86 176.697 364.557 178.1 366 178.695C364.944 179.857 364.078 181.693 362.797 182.068C353.892 184.69 346.17 188.976 340.566 196.65C330.584 210.332 335.061 228.025 350.365 235.266C352.378 236.216 354.49 236.995 356.37 238.164C357.165 238.653 357.475 239.935 358.003 240.857C356.982 241.26 355.891 242.132 354.962 241.983C345.451 240.474 338.13 235.443 333.674 226.919C331.492 222.753 330.521 217.942 329 213.429H329.007Z" fill="black"/>
<path d="M330.59 327.986C328.909 327.456 327.542 327.294 326.474 326.644C314.553 319.368 306.649 309.549 307.012 294.92C307.361 280.778 312.951 269.709 326.445 263.451C329.102 262.222 331.445 260.286 334.143 259.213C335.511 258.669 337.362 259.326 339 259.446C338.331 261.092 338.124 263.472 336.892 264.249C333.332 266.488 329.059 267.661 325.591 270.006C306.927 282.657 307.973 309.175 327.435 320.583C328.867 321.417 330.419 322.137 331.623 323.232C332.541 324.065 332.997 325.401 333.659 326.51C332.57 327.032 331.48 327.562 330.583 328L330.59 327.986Z" fill="black"/>
<path d="M399.466 369.669C394.197 369.91 391.622 367.034 389.195 362.992C379.643 347.107 359.537 345.817 349.16 360.343C347.664 362.433 347.192 365.206 345.957 367.51C345.252 368.827 343.968 369.848 342.945 371C342.268 369.517 340.631 367.634 341.075 366.613C343.1 361.95 344.984 356.936 348.243 353.135C359.763 339.706 381.886 341.375 391.474 356.219C394.556 360.992 397.505 365.275 404.115 364.951C404.764 364.916 406.041 365.744 405.999 366.041C405.893 366.834 405.399 367.951 404.75 368.22C403.078 368.91 401.237 369.214 399.466 369.676V369.669Z" fill="black"/>
<path d="M294.993 199.533C295.077 206.82 289.407 212.825 282.269 212.997C275.391 213.161 269.152 207.485 269.004 200.915C268.822 192.956 274.239 187.087 281.855 187.001C288.979 186.922 294.916 192.576 295 199.533H294.993ZM276.599 201.223C278.328 198.603 279.719 197.014 280.379 195.153C280.569 194.623 278.623 193.306 277.66 192.355C276.22 193.872 274.562 195.246 273.494 197C273.241 197.408 274.976 199.075 276.599 201.23V201.223Z" fill="black"/>
<path d="M357.464 258.33C361.726 257.098 366.315 256.518 370.168 254.486C376.388 251.208 376.25 244.199 370.279 240.496C367.225 238.606 363.851 237.232 360.858 235.257C352.923 230.011 347.404 222.988 347.002 212.942C346.939 211.335 348.744 209.65 349.688 208C350.48 209.536 351.813 211.016 351.965 212.623C352.736 220.574 356.103 226.776 362.983 230.74C365.385 232.128 367.974 233.204 370.508 234.337C381.998 239.456 383.296 251.045 373.091 258.649C366.593 263.491 358.963 263.244 351.424 262.748C350.66 262.698 349.258 261.056 349.411 260.532C349.744 259.378 350.723 257.87 351.729 257.587C353.437 257.105 355.374 257.452 357.221 257.452C357.304 257.75 357.387 258.04 357.471 258.337L357.464 258.33Z" fill="black"/>
<path d="M333.926 359.477C330.08 362.777 321.501 360.326 318.809 355.843C315.083 349.626 317.258 341.529 323.988 337.414C329.917 333.794 336.426 333.119 343.043 335.075C344.927 335.632 347.038 337.038 347.987 338.654C348.986 340.345 348.717 342.761 349 344.857C347.392 344.147 345.55 343.715 344.204 342.671C338.778 338.459 331.39 338.535 326.382 343.074C320.878 348.059 322.266 355.07 329.272 357.708C330.667 358.231 332.056 358.767 333.912 359.477H333.926Z" fill="black"/>
<path d="M507.562 224C505.965 214.892 501.024 209.633 492 207.363C502.477 205.954 505.364 198.845 507.326 190C508.586 199.03 513.471 204.445 522 207.278C512.719 209.192 508.765 215.027 507.562 224Z" fill="black"/>
<path d="M456 308.737C456.014 313.988 450.855 319.007 445.444 319C439.26 319 433.95 314.661 434 309.677C434.065 303.949 439.376 299.028 445.538 299C452.19 298.965 455.986 302.498 456 308.737ZM439.231 308.66C441.006 310.034 442.392 311.681 442.962 311.443C444.463 310.826 446.353 309.55 446.649 308.226C446.873 307.251 444.845 305.786 443.82 304.545C442.536 305.695 441.245 306.852 439.231 308.66Z" fill="black"/>
<path d="M388.799 302.993C387.541 301.021 385.797 299.205 385.115 297.042C381.932 287.019 385.664 275.904 395.013 269.478C399.308 266.527 404.598 265.052 409.498 263.066C410.151 262.796 411.159 263.428 412 263.64C411.639 264.541 411.507 265.712 410.86 266.293C409.852 267.201 408.539 267.818 407.281 268.371C392.552 274.819 387.583 283.849 389.925 299.943C390.036 300.716 390.009 301.51 390.043 302.298C389.633 302.532 389.223 302.766 388.813 303L388.799 302.993Z" fill="black"/>
<path d="M434 322.186C430.568 323.298 427.836 324.388 424.982 324.985C424.223 325.143 422.735 324.004 422.222 323.119C418.956 317.487 415.979 311.704 412.677 306.092C411.39 303.911 411.94 303.197 414.31 303.115C415.748 303.06 417.2 302.95 418.631 303.026C421.615 303.17 425.134 302.6 427.352 303.945C428.537 304.665 427.143 308.781 427.526 311.278C427.858 313.412 428.877 315.518 429.968 317.446C430.842 318.983 432.28 320.224 433.986 322.193L434 322.186Z" fill="black"/>
<path d="M304.993 251.5C304.971 256.104 301.998 259.036 297.394 259C293.221 258.963 290 255.699 290 251.515C290 247.227 293.382 243.963 297.789 244C302.189 244.03 305.022 246.984 305 251.507L304.993 251.5ZM297.079 249.047C296.083 248.236 295.505 247.765 294.927 247.293C294.312 248.067 293.485 248.767 293.192 249.651C293.067 250.027 294.07 250.785 294.568 251.367C295.285 250.704 296.003 250.041 297.079 249.047Z" fill="black"/>
<path d="M354.613 305C361.259 305.349 368.263 310.604 368.992 315.371C369.156 316.467 366.722 319.021 365.531 319C359.622 318.895 353.824 313.689 353.012 308.036C352.856 306.947 354.233 305.67 354.613 305Z" fill="black"/>
<path d="M540.017 304.999C536.192 305.073 532.956 301.952 533 298.032C533.045 293.846 535.108 291.265 539.42 291.013C543.54 290.769 546.856 293.89 546.996 297.914C547.122 301.619 543.872 304.925 540.024 304.999H540.017Z" fill="black"/>
<path d="M396.479 313.007C397.367 313.818 398.398 314.518 399.129 315.462C404.723 322.681 401.738 336.768 393.679 340.672C392.381 341.301 390.571 340.826 389 340.86C389.751 339.601 390.229 337.986 391.295 337.139C397.961 331.858 399.73 326.423 397.182 318.127C396.718 316.609 396.171 315.112 395.666 313.609C395.939 313.406 396.212 313.203 396.486 313L396.479 313.007Z" fill="black"/>
<path d="M286.235 364C281.848 363.078 281.012 360.895 283.069 357.314C286.608 351.168 292.392 348.437 298.704 346.636C301.505 345.836 304.412 345.339 307.297 345.008C308.14 344.907 309.094 345.836 310 346.297C309.193 347.097 308.519 348.279 307.55 348.639C301.99 350.714 296.261 352.321 290.806 354.633C287.12 356.197 284.761 359.194 286.235 364Z" fill="black"/>
<path d="M256.1 289.001C259.81 288.941 262.978 291.727 263 295.2C263.021 298.858 260.614 300.611 257.039 300.975C253.678 301.319 250.153 298.064 250.004 294.776C249.876 291.978 252.966 289.054 256.1 289.001Z" fill="black"/>
<path d="M469.401 295C467.812 292.726 464.878 290.372 465.004 288.213C465.136 285.982 467.972 282.638 470.139 282.129C473.484 281.347 476.418 284.224 475.951 287.89C475.63 290.394 473.24 292.611 471.784 294.957C470.99 294.971 470.195 294.986 469.401 295Z" fill="black"/>
<path d="M299.993 621C290.839 618.406 280.51 619.1 273.397 610.84C269.295 606.071 270.576 600.254 276.338 598C274.122 605.103 276.838 611.317 283.677 614.627C286.322 615.906 289.003 617.112 291.733 618.175C294.449 619.23 297.242 620.068 300 621H299.993Z" fill="black"/>
<path d="M212.264 473C218.668 478.04 219.38 480.207 216.03 484.018C213.95 486.386 211.975 486.774 209.528 484.407C205.67 480.679 205.959 479.248 212.271 473H212.264Z" fill="black"/>
<path d="M310.506 357C315.004 363.482 321.546 365.599 329.042 365.814C329.709 365.835 330.347 366.821 331 367.355C330.362 367.931 329.723 369 329.078 369C322.428 369 315.779 368.493 310.93 363.399C309.667 362.073 309.61 359.679 309 357.777C309.502 357.521 310.004 357.257 310.514 357H310.506Z" fill="black"/>
<path d="M585.714 472C588.223 475.714 590.914 477.994 590.999 480.375C591.063 482.185 587.82 484.118 586.047 486C584.259 483.915 581.412 482.011 581.023 479.68C580.72 477.849 583.447 475.489 585.714 472Z" fill="black"/>
<path d="M217.284 345C214.745 341.621 212.326 339.799 212.042 337.68C211.638 334.666 214.223 332.384 217.158 333.149C219.134 333.664 221.904 336.027 221.997 337.7C222.103 339.582 219.61 341.628 217.284 345Z" fill="black"/>
<path d="M336.649 297C334.186 288.734 338.966 280.358 347 279C343.539 285.015 340.077 291.029 336.649 297Z" fill="black"/>
<path d="M482 366.356C476.905 366.94 471.816 367.546 466.707 368C466.528 368.014 465.789 366.133 466.058 365.801C467.86 363.603 479.694 363.012 482 366.356Z" fill="black"/>
<path d="M259.483 564.007C261.204 566.59 263.294 568.846 262.966 569.389C261.805 571.325 260.016 573.327 258.083 573.975C257.155 574.287 255.393 571.622 254 570.305C255.557 568.511 257.114 566.724 259.476 564L259.483 564.007Z" fill="black"/>
<path d="M579.404 334C581.207 336.785 583.356 338.742 582.95 339.789C582.289 341.505 579.982 342.633 578.367 344C577.157 342.531 574.948 341.018 575.001 339.593C575.054 338.058 577.232 336.596 579.404 334Z" fill="black"/>
<path d="M534 568.617C536.495 566.796 538.135 564.703 539.188 565.035C540.683 565.511 541.749 567.778 543 569.274C541.723 570.612 540.459 572.992 539.168 573C537.799 573.015 536.41 570.793 534 568.617Z" fill="black"/>
<path d="M258.603 618C256.88 617.048 254.774 616.43 253.522 615.049C251.976 613.343 251.142 610.997 250 608.931C250.766 608.604 252.086 607.85 252.223 608.026C254.568 610.977 256.771 614.036 259 617.075C258.863 617.381 258.733 617.694 258.597 618H258.603Z" fill="black"/>
<path d="M318.548 190C316.726 187.717 314.763 186.234 315.023 185.349C315.44 183.951 317.209 182.314 318.689 182.012C319.604 181.823 321.939 183.888 321.998 185.019C322.065 186.284 320.288 187.647 318.548 190Z" fill="black"/>
<path d="M581 498.953C578.978 500.45 577.679 502.125 576.642 501.993C575.323 501.828 574.205 500.191 573 499.193C574.064 498.055 575.035 496.14 576.227 496.008C577.418 495.875 578.838 497.524 581 498.953Z" fill="black"/>
<path d="M223.012 496C224.552 498.29 226.211 499.763 225.978 500.649C225.618 502.046 224.104 503.713 222.848 503.99C222.047 504.163 220.072 502.087 220.003 500.918C219.927 499.687 221.492 498.338 223.006 496.007L223.012 496Z" fill="black"/>
<path d="M540 618.286C542.084 614.875 544.094 611.406 546.334 608.089C546.774 607.433 548.121 607.346 549.044 607C549.364 608.053 550.294 609.668 549.907 610.058C546.848 613.173 543.536 616.05 540.305 619C540.208 618.762 540.104 618.517 540.007 618.279L540 618.286Z" fill="black"/>
<path d="M313.149 225C315.078 227.581 316.948 229.005 317 230.491C317.037 231.711 314.774 234.12 313.75 233.995C312.325 233.815 310.44 231.969 310.032 230.46C309.736 229.373 311.539 227.659 313.149 225Z" fill="black"/>
<path d="M533 612.125C533.874 608.877 534.755 605.629 535.629 602.381C535.944 602.254 536.251 602.127 536.566 602C537.083 603.991 538.335 606.13 537.915 607.921C537.482 609.792 535.447 611.323 534.112 613C533.741 612.706 533.371 612.412 533 612.111V612.125Z" fill="black"/>
<path d="M576.894 372C575.487 369.716 573.876 368.259 574.008 367.004C574.131 365.812 576.005 364.144 577.244 364.003C578.119 363.902 580.036 366.038 579.999 367.113C579.956 368.477 578.403 369.787 576.901 372H576.894Z" fill="black"/>
<path d="M263.757 600.442C264.139 604.29 264.521 608.138 265 613C263.797 611.493 262.019 610.283 262.001 609.036C261.962 606.036 262.748 603.014 263.199 600C263.387 600.145 263.569 600.297 263.757 600.442Z" fill="black"/>
<path d="M225.993 367.745C224.067 369.311 222.669 371.206 221.829 370.982C220.372 370.594 219.257 368.893 218 367.745C219.041 366.768 220.097 364.985 221.115 365C222.483 365.022 223.829 366.44 226 367.745H225.993Z" fill="black"/>
<path d="M428 287.585C426.066 288.763 424.934 289.967 423.759 290C422.869 290.026 421.927 288.565 421 287.769C422.088 286.802 423.029 285.499 424.343 285.019C424.912 284.815 426.241 286.302 427.993 287.585H428Z" fill="black"/>
<path d="M243 607.214C242.036 608.376 241.36 609.191 240.684 610C239.719 608.998 238.072 608.037 238.002 606.979C237.938 606.046 239.642 604.995 240.564 604C241.275 604.94 241.986 605.88 243 607.214Z" fill="black"/>
<path d="M557 610.214C557.76 608.145 558.514 606.069 559.274 604C560.185 604.638 561.089 605.283 562 605.921C560.781 607.614 559.556 609.307 558.337 611C557.891 610.738 557.452 610.476 557.007 610.214H557Z" fill="black"/>
<path d="M534.193 232C533.116 230.202 531.95 229.107 532.002 228.067C532.038 227.295 533.944 225.827 534.501 226.017C535.586 226.396 536.824 227.646 536.993 228.685C537.117 229.43 535.6 230.42 534.193 232Z" fill="black"/>
<path d="M282 591.098C279.127 591.732 276.254 592.366 273.381 593C273.254 592.648 273.127 592.296 273 591.943C275.866 591.297 278.739 590.646 281.604 590C281.739 590.364 281.866 590.734 282 591.098Z" fill="black"/>
<path d="M517.753 589.006C519.836 589.599 521.918 590.192 524 590.779C523.789 591.186 523.579 591.593 523.368 592C521.245 591.512 519.123 591.029 517 590.541C517.251 590.029 517.502 589.512 517.753 589V589.006Z" fill="black"/>
<path d="M263.862 263C264.945 264.011 266.092 264.625 265.994 265.084C265.847 265.778 264.822 266.367 264.174 267C263.403 266.535 262.034 266.088 262.001 265.598C261.96 264.922 262.928 264.216 263.862 263Z" fill="black"/>
<path d="M545.922 599C546.95 599.865 547.972 600.73 549 601.594C548.63 602.09 548.066 603.088 547.915 602.994C546.893 602.388 545.959 601.555 545 600.8C545.307 600.203 545.614 599.597 545.928 599H545.922Z" fill="black"/>
<path d="M254.712 267.993C253.85 266.872 253.006 266.25 253 265.622C253 265.047 253.894 264 254.399 264C254.961 264 255.868 264.865 255.989 265.493C256.098 266.061 255.357 266.818 254.712 268V267.993Z" fill="black"/>
<path d="M250.008 602.113C251.467 601.078 252.918 600.035 254.376 599C254.918 599.45 255.459 599.892 256 600.342L252.267 604C251.514 603.373 250.761 602.74 250 602.113H250.008Z" fill="black"/>
<path d="M532.369 592C533.915 592.465 535.454 592.937 537 593.402C536.885 593.932 536.771 594.462 536.657 595C535.104 594.586 533.552 594.165 532 593.751C532.121 593.17 532.248 592.588 532.369 592.007V592Z" fill="black"/>
<path d="M338.561 503C334.992 502.963 331.9 499.722 332.002 496.132C332.105 492.731 336.288 487.985 339.168 488C342.696 488.022 346.047 491.757 345.999 495.631C345.952 499.577 342.451 503.043 338.554 503H338.561Z" fill="black"/>
<path d="M467.771 456C465.863 453.774 464 452.543 464 451.313C464 450.206 466.05 449.106 467.202 448C468.534 449.08 470.532 449.997 470.966 451.306C471.273 452.223 469.44 453.682 467.771 456Z" fill="black"/>
<path d="M371.098 523C370.06 521.62 368.91 520.753 369.006 520.036C369.109 519.282 370.403 518.671 371.178 518C371.825 518.784 372.815 519.516 372.991 520.383C373.111 520.956 372.048 521.748 371.09 522.992L371.098 523Z" fill="black"/>
</svg>
