<svg width="800" height="800" viewBox="0 0 800 800" fill="none" xmlns="http://www.w3.org/2000/svg">
<path d="M602.192 569.773C597.137 563.098 594.15 554.488 585.044 551.599L585.431 550.906C585.983 550.625 586.51 550.283 587.087 550.077C590.23 548.957 590.807 548.244 590.345 544.914C589.838 541.272 589.115 537.655 588.398 534.048C588.212 533.114 587.675 532.25 587.298 531.351C587.032 531.326 586.761 531.301 586.495 531.281C586.229 532.366 585.712 533.456 585.737 534.531C585.792 536.952 585.958 539.393 586.375 541.774C586.796 544.165 586.189 545.662 583.955 546.843C580.637 548.601 577.46 550.64 574.302 552.685C573.098 553.463 572.109 554.578 571.019 555.543C571.125 555.804 571.235 556.07 571.341 556.331C572.229 556.246 573.163 556.306 573.991 556.05C582.243 553.463 587.077 554.895 592.052 562.003C594.381 565.333 596.073 569.115 598.136 572.642C598.844 573.852 599.757 574.957 600.656 576.037C601.494 577.047 602.443 577.971 602.95 579.343C600.224 576.856 597.609 574.239 594.748 571.918C591.53 569.306 588.101 566.95 584.758 564.494C584.02 563.952 582.996 563.615 582.54 562.907C581.009 560.541 578.971 560.842 576.787 561.505C568.203 564.112 560.89 568.874 554.399 574.957C553.701 575.61 553.541 576.836 552.853 578.449C559.278 576.424 563.54 571.577 569.805 570.989C570.181 573.355 569.453 574.877 567.37 575.46C562.792 576.746 558.189 577.946 553.581 579.117C551.056 579.76 549.384 581.181 548.24 584.446C550.695 583.803 552.482 583.326 554.274 582.869C559.364 581.563 564.413 580.026 569.564 579.031C576.034 577.78 580.978 581.231 585.607 585.139C586.079 585.536 586.199 586.34 586.761 587.556C584.989 587.124 583.85 586.968 582.801 586.566C577.199 584.411 571.381 584.195 565.503 584.562C564.684 584.612 563.726 584.702 563.103 585.15C559.213 587.937 554.665 588.018 550.198 588.55C548.682 588.731 547.216 589.344 545.73 589.761C545.73 590.072 545.73 590.384 545.73 590.695C547.015 590.836 548.31 591.152 549.585 591.087C558.124 590.665 565.995 593.202 573.434 596.934C580.893 600.676 585.933 607.141 590.401 613.993C592.132 616.65 593.593 619.493 594.978 622.351C595.315 623.05 594.878 624.125 594.793 625.024C594.035 624.627 593.217 624.305 592.539 623.798C592.097 623.467 591.826 622.879 591.545 622.366C584.613 609.758 573.469 601.932 560.925 595.919C557.501 594.277 553.435 593.97 549.535 593.433C550.775 596.11 552.356 597.934 555.303 598.381C557.235 598.677 559.268 599.31 560.915 600.335C567.947 604.715 573.976 610.21 578.519 617.218C578.88 617.775 579.332 618.353 579.452 618.976C579.578 619.619 579.347 620.327 579.272 621.01C578.69 620.824 577.932 620.809 577.55 620.422C576.084 618.936 574.854 617.198 573.323 615.796C569.077 611.913 564.77 608.096 560.378 604.378C559.454 603.595 558.074 603.349 556.899 602.851C556.728 603.047 556.553 603.243 556.382 603.439C556.783 604.187 557.145 604.956 557.592 605.674C562.692 613.927 566.497 622.718 568.515 632.232C568.821 633.689 569.795 635.914 567.807 636.376C565.754 636.848 565.809 634.372 565.447 632.97C562.631 621.995 557.818 611.898 551.754 602.409C548.38 597.13 543.662 593.719 537.442 591.715C533.07 590.308 528.537 587.983 526.64 582.789C525.224 578.916 522.835 575.756 518.352 574.767C517.564 574.591 516.801 573.35 516.415 572.441C514.472 567.85 511.691 564.389 506.295 563.846C505.502 563.766 504.578 563.062 504.081 562.379C502.706 560.496 501.607 558.416 500.236 556.527C499.232 555.141 497.982 553.94 496.838 552.654L496.155 553.111C496.11 553.654 495.959 554.217 496.035 554.744C497.661 566.463 495.97 577.745 491.537 588.656C487.275 599.149 481.006 608.382 473.767 617.032C468.165 623.723 462.192 630.012 455.24 635.326C450.375 639.038 445.07 641.736 438.855 642.399C440.12 645.182 441.335 645.85 443.88 645.086C447.715 643.936 451.56 642.806 455.315 641.425C456.404 641.023 457.187 639.782 458.106 638.928C458.382 639.104 458.658 639.275 458.934 639.45C458.542 640.113 458.307 641.088 457.724 641.379C454.527 642.992 451.259 644.469 447.986 645.93C444.186 647.628 440.697 647.493 437.721 644.152C437.128 643.489 436.305 642.916 435.477 642.59C425.613 638.712 422.802 630.399 424.293 620.935C425.457 613.536 427.636 606.297 429.378 598.988C429.589 598.094 429.94 597.23 430.111 596.331C430.668 593.433 430.066 592.172 427.315 591.353C422.039 589.776 416.798 587.852 411.141 588.364C409.199 588.54 408.576 587.616 408.2 585.843C407.457 582.362 405.73 581.653 402.728 583.537C406.051 585.752 404.58 589.043 404.56 591.951C404.525 597.075 404.41 597.07 409.565 596.587C411.563 596.401 413.571 596.065 415.559 596.135C416.337 596.16 417.085 597.11 417.828 597.667C417.928 597.743 417.903 597.984 417.933 598.15C419.213 604.976 418.601 605.735 411.799 605.715C410.127 605.71 408.441 605.82 406.784 605.679C404.711 605.504 404.224 606.438 404.264 608.337C404.46 617.71 404.565 627.083 404.676 636.457C404.711 639.496 404.44 639.742 401.413 639.817C400.66 639.837 399.907 639.812 399.154 639.857C397.272 639.973 396.358 639.159 396.378 637.22C396.474 627.761 396.479 618.303 396.634 608.844C396.684 605.614 396.84 605.569 393.638 605.659C391.133 605.73 388.633 605.931 386.133 606.106C384.296 606.232 383.372 605.569 383.272 603.575C382.92 596.487 382.87 596.592 389.863 596.758C397.201 596.934 396.634 598.305 396.398 590.349C396.328 587.902 395.605 585.22 399.019 584.065C396.564 582.553 394.892 582.693 393.602 584.883C392.122 587.395 389.963 587.912 387.383 588.374C382.971 589.158 378.613 590.263 374.271 591.383C372.103 591.941 371.084 593.393 371.832 595.754C373.137 599.893 374.387 604.052 375.677 608.196C377.745 614.837 378.423 621.623 377.569 628.52C376.636 636.05 371.275 641.701 363.765 642.128C360.517 642.314 356.722 641.45 353.952 639.782C347.973 636.18 341.904 632.363 336.935 627.535C326.077 616.992 317.067 604.906 310.963 590.921C306.545 580.799 303.488 570.311 304.046 559.079C304.136 557.291 304.367 555.513 304.527 553.729C304.266 553.569 304.01 553.408 303.749 553.252C302.52 554.493 301.224 555.673 300.09 556.989C299.392 557.803 298.83 558.778 298.393 559.767C297.204 562.47 295.678 564.077 292.269 564.263C288.354 564.474 285.99 567.423 284.76 571.105C284.418 572.134 284.373 573.29 283.896 574.239C283.54 574.947 282.742 575.892 282.094 575.922C277.717 576.148 275.217 578.745 273.711 582.457C272.662 585.054 271.367 587.099 268.481 588.008C267.11 588.44 265.881 589.525 264.751 590.504C262.743 592.237 260.55 593.282 257.924 593.915C253.643 594.95 251.248 598.541 249.054 601.987C243.001 611.501 238.292 621.633 235.471 632.609C235.185 633.724 234.076 634.623 233.348 635.623C233.092 634.342 232.389 632.965 232.65 631.8C234.693 622.588 238.112 613.897 243.051 605.825C243.553 605.001 243.975 604.122 244.431 603.273C244.271 603.037 244.105 602.806 243.944 602.57C242.333 603.248 240.375 603.55 239.171 604.665C234.151 609.311 229.372 614.214 224.473 618.991C223.559 619.88 222.922 622.075 221.27 620.764C219.709 619.523 221.381 618.192 222.194 617.162C226.983 611.13 231.706 604.996 238.548 601.088C240.33 600.073 242.358 599.22 244.366 598.938C247.403 598.511 249.321 596.803 251.494 594.091C247.303 594.036 243.478 594.191 240.255 595.874C234.432 598.913 228.835 602.424 223.333 606.036C217.134 610.105 212.747 615.937 208.781 622.1C208.42 622.663 208.109 623.291 207.627 623.733C207.331 624.004 206.643 624.2 206.342 624.034C206.025 623.863 205.795 623.215 205.825 622.793C205.865 622.236 206.136 621.668 206.412 621.156C210.814 612.988 216.025 605.433 223.454 599.702C225.281 598.295 227.435 597.25 229.558 596.301C236.636 593.146 243.904 590.715 251.83 591.202C252.277 591.228 252.739 591.047 253.191 590.966C253.246 590.735 253.301 590.499 253.361 590.268C252.122 589.876 250.897 589.394 249.632 589.103C242.313 587.415 235.366 589.384 228.433 591.348C221.717 593.257 215.347 595.924 209.559 599.918C208.555 600.611 207.245 600.862 205.815 600.847C209.554 595.392 215.202 592.453 220.979 590.354C226.752 588.259 233.011 587.5 239.321 586.099C238.548 585.762 237.77 585.225 236.927 585.079C231.079 584.075 225.296 584.15 219.589 586.094C217.375 586.847 215.046 587.264 212.767 587.832C212.586 587.495 212.401 587.159 212.22 586.822C213.008 585.998 213.696 585.049 214.594 584.376C222.716 578.233 231.48 577.901 240.682 581.563C243.237 582.583 245.827 583.527 248.447 584.376C249.009 584.557 249.762 584.17 250.425 584.049C250.179 583.381 250.119 582.342 249.652 582.1C246.861 580.674 244.04 579.257 241.098 578.182C238.443 577.213 235.582 576.816 232.891 575.932C230.175 575.038 228.855 572.823 228.996 569.733C234.854 570.447 238.754 575.214 243.939 577.148C244.175 576.942 244.411 576.736 244.647 576.53C243.784 575.244 243.111 573.762 242.032 572.702C237.539 568.312 232.133 565.288 226.36 562.967C223.66 561.882 220.778 561.239 217.962 560.465C217.224 560.265 216.411 560.32 215.653 560.26C215.598 560.767 215.503 560.983 215.573 561.078C217.576 563.791 217.385 563.459 214.544 565.132C210.684 567.403 207.14 570.21 203.501 572.853C202.371 573.677 201.387 574.701 199.891 576.027C200.047 575.123 200.002 574.726 200.172 574.46C203.44 569.422 206.583 564.298 210.056 559.401C213.349 554.754 218.003 553.965 223.248 555.603C224.553 556.01 225.909 556.261 227.239 556.583L227.796 555.759C226.707 554.634 225.763 553.297 224.498 552.433C221.737 550.555 218.881 548.787 215.929 547.229C213.751 546.079 212.978 544.718 213.44 542.201C213.962 539.343 214.032 536.384 214.067 533.466C214.077 532.767 213.174 532.059 212.692 531.356C212.2 531.823 211.376 532.225 211.271 532.762C210.237 538.007 209.323 543.271 208.39 548.535C208.35 548.761 208.475 549.018 208.55 549.394C210.513 549.711 212.511 550.032 214.504 550.354C214.649 550.64 214.8 550.921 214.946 551.208C206.201 554.634 202.778 562.882 197.773 569.703C197.517 569.598 197.261 569.492 197 569.387C197.422 566.408 197.728 563.404 198.285 560.45C202.768 536.701 207.16 512.931 211.894 489.226C213.51 481.129 215.959 473.192 218.143 465.215C219.132 461.594 221.11 458.499 223.891 455.943C232.013 448.468 240.024 440.863 248.271 433.529C255.871 426.773 262.613 419.273 268.948 411.346C292.646 381.684 307.745 348.049 315.536 310.988C320.023 289.629 324.672 268.301 329.129 246.937C330.233 241.627 330.75 236.197 331.815 230.883C332.035 229.773 333.285 228.472 334.385 227.999C341.909 224.759 349.529 221.761 357.094 218.606C369.663 213.367 382.88 210.453 396.117 207.59C399.596 206.837 403.988 206.837 407 207.409C422.832 210.433 438.067 215.346 452.8 221.876C456.771 223.639 460.816 225.242 464.837 226.889C467.729 228.07 469.234 229.813 469.792 233.264C471.508 243.903 473.812 254.447 475.971 265.015C479.62 282.878 482.918 300.826 487.125 318.558C493.038 343.488 503.323 366.665 516.38 388.717C527.212 407.011 541.207 422.508 556.693 436.819C562.225 441.928 567.455 447.403 573.298 452.125C579.181 456.882 582.093 462.915 584.005 470.008C588.026 484.901 590.616 500.056 593.322 515.206C596.198 531.341 599.265 547.445 602.222 563.57C602.573 565.489 602.744 567.443 603 569.382C602.734 569.522 602.468 569.663 602.202 569.804L602.192 569.773ZM368.634 539.393L368.674 539.433C367.911 538.825 367.158 538.203 366.38 537.615C364.066 535.862 361.737 534.119 359.413 532.376C359.544 532.205 359.669 532.034 359.8 531.863C361.998 533.104 364.197 534.35 366.395 535.591C366.576 535.405 366.757 535.219 366.938 535.033C364.091 531.888 365.467 528.603 366.772 524.956C363.514 524.871 360.788 524.288 359.283 521.36C357.762 518.396 358.595 515.729 360.553 513.021C359.428 512.65 358.745 512.393 358.043 512.192C353.58 510.932 351.758 507.104 353.475 502.829C353.761 502.116 353.465 501.171 353.44 500.333C352.737 500.875 351.673 501.277 351.392 501.985C349.027 507.938 345.087 512.74 340.895 517.472C338.802 519.838 337.402 522.867 335.931 525.72C334.52 528.458 333.782 531.592 332.111 534.139C326.89 542.106 321.303 549.831 316.033 557.768C315.094 559.185 314.607 561.149 314.572 562.872C314.386 572.807 317.062 582.085 321.77 590.75C324.451 595.683 327.528 600.4 330.685 605.644C340.067 591.208 347.757 576.655 355.267 561.987C352.732 567.995 349.991 573.893 346.934 579.619C342.446 588.028 337.763 596.331 333.1 604.64C331.98 606.629 332.297 608.065 334.42 609.452C334.937 608.628 335.444 607.91 335.871 607.141C344.339 591.75 352.822 576.374 361.245 560.958C365.01 554.066 368.684 547.129 372.294 540.152C372.65 539.458 372.243 538.373 372.188 537.464C371.38 537.776 370.552 538.037 369.779 538.419C369.347 538.635 369.016 539.057 368.644 539.383L368.634 539.393ZM431.446 540.91C430.271 540.935 429.102 540.96 427.927 540.98C428.208 542.065 428.304 543.246 428.811 544.215C429.584 545.682 430.668 546.983 431.572 548.39C434.106 552.323 436.923 556.115 439.086 560.244C447.313 575.947 455.31 591.77 463.482 607.508C463.999 608.502 465.239 609.12 466.147 609.914C466.172 608.683 466.198 607.458 466.218 606.227C466.218 606.147 466.167 606.066 466.132 605.991C463.186 600.089 460.244 594.181 457.293 588.279C456.695 587.083 456.028 585.918 455.455 584.713C454.933 583.617 454.492 582.482 454.02 581.367C454.12 581.332 454.221 581.302 454.321 581.267C459.205 589.474 464.089 597.682 468.973 605.885C469.28 605.805 469.581 605.725 469.887 605.639C470.163 604.83 470.434 604.022 470.715 603.213C470.841 602.861 470.901 602.429 471.147 602.188C472.071 601.269 473.285 600.561 473.983 599.506C475.685 596.924 477.241 594.242 478.707 591.519C483.596 582.457 486.447 572.843 486.281 562.465C486.266 561.415 486.156 560.184 485.614 559.355C480.549 551.675 475.62 543.884 470.133 536.515C467.613 533.134 465.681 529.708 464.707 525.68C463.899 522.339 462.167 519.632 459.858 517.065C456.419 513.242 453.372 509.058 450.18 505.014C449.708 504.416 449.341 503.728 448.849 502.97C448.016 504.336 447.359 505.376 446.736 506.441C446.259 507.26 445.541 508.068 445.436 508.942C444.738 514.659 444.041 515.573 438.594 517.105C438.7 517.567 438.79 518.039 438.91 518.502C440.547 524.555 439.493 526.594 433.765 528.804C433.293 528.985 432.786 529.939 432.852 530.467C433.067 532.346 433.524 534.194 433.961 536.409C436.616 535.008 439.016 533.747 441.415 532.481C438.745 534.867 435.858 536.866 433.047 538.961C432.385 539.453 431.958 540.272 431.421 540.94L431.461 540.9L431.446 540.91ZM463.065 272.234C464.456 272.445 466.519 272.189 467.066 272.982C467.764 273.992 467.227 275.85 467.227 277.337C467.227 277.84 467.232 278.342 467.242 278.844C467.538 295.401 465.796 311.731 461.906 327.831C458.884 340.328 454.632 352.369 448.644 363.762C444.452 371.738 438.534 378.279 431.682 384.045C430.919 384.683 430.402 385.613 429.769 386.406C429.97 386.592 430.176 386.783 430.377 386.969C430.879 386.773 431.431 386.652 431.873 386.371C446.957 376.706 456.264 362.797 461.293 345.859C464.385 335.446 467.131 324.932 470.118 314.489C470.52 313.093 471.438 311.847 472.116 310.531C472.392 310.646 472.668 310.762 472.939 310.877C471.85 315.062 470.891 319.286 469.646 323.425C467.548 330.392 465.224 337.294 463.095 344.251C462.704 345.537 462.779 346.969 462.639 348.33C462.92 348.391 463.196 348.456 463.477 348.516C463.904 347.843 464.471 347.215 464.742 346.482C467.553 338.977 470.68 331.563 472.979 323.902C474.882 317.558 477.015 311.058 475.369 304.186C475.243 303.664 475.594 303.046 475.61 302.468C475.75 297.139 475.906 291.809 475.946 286.48C475.951 285.646 475.374 284.802 475.062 283.963C474.912 284.013 474.761 284.063 474.606 284.114C473.235 292.467 471.865 300.826 470.494 309.179C470.264 309.154 470.033 309.134 469.797 309.109C469.797 308.486 469.807 307.863 469.797 307.24C469.636 296.159 473.401 285.364 472.015 274.153C471.604 270.827 470.108 268.687 466.519 268.748C466.152 268.753 465.776 268.461 465.414 268.285C462.127 266.663 458.844 265.03 455.551 263.418C453.98 262.649 452.393 261.921 450.817 261.173C450.973 260.831 451.123 260.484 451.279 260.143C457.749 262.238 463.904 265.166 470.078 268.095C470.906 265.432 470.57 264.382 468.005 263.081C462.94 260.51 457.784 258.108 452.669 255.627C452.213 255.406 451.796 255.09 451.364 254.818L451.62 254.145C452.745 254.487 453.914 254.718 454.979 255.19C459.1 257.023 463.176 258.967 467.312 260.766C467.939 261.037 468.808 260.751 469.566 260.721C469.45 259.952 469.611 258.922 469.169 258.46C468.215 257.45 467.056 256.531 465.811 255.918C461.69 253.889 457.483 252.02 453.322 250.066C452.614 249.735 451.967 249.278 451.289 248.881L451.751 247.957C457.378 250.167 463.005 252.377 468.768 254.642C469.119 252.136 467.949 251.031 466.403 250.197C460.375 246.957 454.552 243.27 447.805 241.567C447.343 241.451 446.932 241.135 446.495 240.909L446.826 240.07C454.11 240.834 460.074 245.505 466.951 247.761C467.668 245.576 466.484 244.48 465.113 243.637C460.269 240.663 455.626 237.177 450.441 234.987C442.545 231.656 434.267 229.24 426.145 226.452C425.081 226.085 423.987 225.819 422.902 225.508C422.973 225.307 423.038 225.111 423.108 224.91C438.142 226.784 451.304 234.087 465.153 239.829C464.812 238.628 464.27 237.699 463.462 237.277C457.107 233.932 450.887 230.215 444.256 227.532C436.305 224.317 427.982 222.017 419.825 219.299C419.283 219.118 418.786 218.807 418.269 218.556C433.173 219.902 446.51 226.161 460.365 231.033C459.526 229.999 458.542 229.21 457.433 228.682C444.035 222.308 430.342 216.637 415.739 213.764C409.65 212.568 403.18 211.538 397.126 212.307C378.523 214.678 360.668 219.957 344.058 228.954C343.154 229.441 342.321 230.064 341.458 230.621C354.689 226.096 367.359 220.178 381.254 218.174C373.278 221.158 365.131 223.725 357.315 227.055C350.804 229.828 344.655 233.47 338.39 236.805C337.326 237.373 336.493 238.357 335.549 239.151C335.755 239.472 335.961 239.799 336.167 240.12C342.738 237.167 349.258 234.103 355.889 231.29C362.555 228.461 369.422 226.226 376.681 225.437C375.762 225.97 374.748 226.181 373.739 226.397C359.508 229.451 347.019 236.323 334.997 244.184C334.139 244.747 333.737 246.003 333.12 246.932C333.3 247.093 333.481 247.248 333.662 247.409C334.274 247.243 334.907 247.123 335.499 246.897C340.664 244.963 345.81 242.979 350.99 241.09C351.863 240.768 352.887 240.849 353.836 240.738C353.871 240.984 353.901 241.225 353.937 241.472C352.938 241.808 351.878 242.034 350.945 242.496C345.283 245.314 339.61 248.117 334.043 251.111C333.155 251.588 332.758 252.99 332.136 253.964C332.372 254.165 332.613 254.366 332.849 254.562L348.756 247.941L349.188 248.901C348.134 249.428 347.07 249.951 346.02 250.493C341.643 252.754 337.231 254.949 332.934 257.35C332.111 257.812 331.749 259.093 331.172 259.997C332.286 260.068 333.536 260.505 334.485 260.138C337.286 259.068 339.937 257.596 342.712 256.446C345.042 255.481 347.466 254.753 349.85 253.919C349.931 254.15 350.011 254.381 350.096 254.607C349.68 254.798 349.263 254.989 348.852 255.185C343.581 257.722 338.275 260.183 333.07 262.84C331.729 263.523 329.395 264.006 330.248 266.181C330.429 266.643 333.371 266.437 334.816 265.92C338.667 264.543 342.376 262.78 346.186 261.273C347.255 260.851 348.46 260.781 349.605 260.55C349.67 260.796 349.74 261.047 349.805 261.293C348.766 261.73 347.712 262.127 346.693 262.604C342.005 264.804 337.281 266.934 332.668 269.285C330.555 270.36 327.322 271.003 329.044 274.765C329.089 274.861 328.868 275.057 328.848 275.212C328.582 277.654 327.864 280.155 328.16 282.531C328.933 288.83 330.248 295.064 331.142 301.348C331.629 304.794 331.694 308.305 331.945 311.786C331.518 311.822 331.097 311.852 330.67 311.887C329.485 302.036 328.306 292.191 327.101 282.165C321.243 292.01 329.214 340.801 338.175 350.053C336.629 337.179 330.996 325.414 329.987 312.575C330.986 313.504 331.779 314.539 332.086 315.705C334.254 323.958 336.423 332.211 338.395 340.509C341.934 355.368 348.686 368.413 359.895 378.932C361.817 380.74 364.177 382.091 366.38 383.583C366.747 383.834 367.349 383.744 368.338 383.88C367.701 383.156 367.435 382.86 367.179 382.553C363.409 378.098 359.042 374.019 355.975 369.121C346.041 353.253 340.062 335.782 337.171 317.347C335.399 306.035 334.43 294.597 333.07 283.219C332.693 280.07 332.201 276.94 331.82 274.243C333.024 274.323 333.903 274.66 334.475 274.379C336.875 273.203 339.133 271.736 341.543 270.581C343.496 269.647 345.589 268.999 347.617 268.225C344.735 270.697 341.613 272.59 338.672 274.735C337.356 275.69 336.197 277.021 335.369 278.417C334.917 279.171 335.067 280.527 335.439 281.411C335.584 281.763 337.125 281.793 337.914 281.562C341.121 280.622 344.274 279.502 347.466 278.508C348.39 278.221 349.374 278.131 350.332 277.955C350.383 278.186 350.428 278.412 350.478 278.643C349.66 278.995 348.862 279.392 348.023 279.698C344.886 280.854 341.724 281.939 338.601 283.124C336.066 284.083 335.78 284.988 336.995 287.263C343.209 285.832 349.374 284.415 355.543 282.993C355.598 283.214 355.653 283.43 355.708 283.651C350.689 285.158 345.664 286.66 340.644 288.172C339.846 288.413 338.918 288.509 338.305 288.996C337.838 289.368 337.587 290.257 337.622 290.895C337.637 291.176 338.606 291.633 339.128 291.613C340.459 291.563 341.799 291.392 343.099 291.096C348.631 289.815 354.132 288.398 359.674 287.193C361.898 286.706 364.212 286.625 366.486 286.359C366.511 286.59 366.531 286.826 366.556 287.057C361.28 288.273 356.025 289.584 350.724 290.674C346.798 291.483 342.803 291.94 338.867 292.723C338.24 292.849 337.783 293.854 337.251 294.456C337.873 294.944 338.431 295.667 339.133 295.848C339.891 296.044 340.78 295.767 341.603 295.642C360.186 292.819 378.659 289.227 397.588 289.112C410.413 289.036 423.158 289.614 435.803 291.739C443.955 293.11 452.067 294.743 460.194 296.25C461.389 296.471 462.603 296.652 462.94 294.984C463.276 293.326 462.317 292.693 460.902 292.477C459.662 292.286 458.402 292.226 457.177 291.975C447.685 290.036 438.198 288.077 428.715 286.093C427.962 285.937 427.265 285.54 426.537 285.254C426.572 285.028 426.602 284.807 426.637 284.581C427.656 284.581 428.7 284.445 429.694 284.606C432.656 285.083 435.617 285.6 438.554 286.228C445.817 287.791 453.061 289.453 460.335 290.975C461.113 291.136 462.031 290.639 462.885 290.448C462.252 289.745 461.745 288.624 460.972 288.398C456.329 287.027 451.62 285.862 446.937 284.626C446.073 284.4 445.205 284.179 444.337 283.958C444.422 283.651 444.507 283.35 444.593 283.044C450.948 284.556 457.303 286.068 463.728 287.595C464.933 285.194 464.777 284.586 462.262 283.446C458.683 281.818 455.074 280.246 451.48 278.648L451.766 277.91C456.008 279.462 460.244 281.014 465.078 282.782C465.078 280.537 465.013 278.493 465.098 276.458C465.174 274.635 464.722 273.153 463.075 272.194L463.045 272.229L463.065 272.234ZM464.506 364.179C464.205 364.078 463.909 363.978 463.607 363.877C463.171 364.54 462.689 365.173 462.302 365.866C460.666 368.785 459.23 371.829 457.403 374.622C451.786 383.217 446.525 392.143 437.219 397.523C435.311 398.628 432.701 399.783 432.079 401.511C431.391 403.42 432.621 406.017 433.017 408.317C433.057 408.564 433.042 408.88 433.188 409.041C433.549 409.428 434.071 410.106 434.383 410.03C437.369 409.337 438.976 411.598 440.933 413.024C443.453 414.858 444.106 418.057 442.665 420.84C442.223 421.694 441.772 422.548 441.295 423.467C447.795 424.954 450.355 427.426 447.338 434.765C449.356 436.94 451.525 438.658 452.875 440.873C454.622 443.751 451.6 446.062 450.953 448.644C456.444 451.572 457.433 455.37 453.939 460.323C452.85 461.87 453.889 462.327 454.753 463.101C458.743 466.672 458.151 471.615 453.452 474.202C453.121 474.388 452.84 474.669 452.544 474.9C457.845 482.5 457.579 484.911 450.907 488.699C451.334 489.558 451.806 490.422 452.208 491.316C453.181 493.516 453.352 495.756 451.851 497.746C450.822 499.112 450.797 500.318 451.741 501.614C454.542 505.441 457.127 509.455 460.244 513.006C462.895 516.03 466.107 518.657 467.297 522.616C469.44 529.754 474.365 535.289 477.808 541.664C478.491 542.929 479.435 543.442 480.91 542.99C483.792 542.111 486.618 542.638 489.153 544.025C490.779 544.914 492.104 544.878 493.585 544.045C494.674 543.427 495.789 542.844 496.853 542.181C509.146 534.506 519.964 524.992 529.833 514.498C545.113 498.248 558.345 480.355 570.462 461.634C572.676 458.218 572.656 458.203 569.744 455.3C569.458 455.013 569.147 454.752 569.197 454.797C567.676 454.797 566.492 455.109 565.568 454.747C558.796 452.115 552.07 449.352 545.338 446.614C544.977 446.469 544.666 446.198 544.33 445.982C544.42 445.801 544.51 445.62 544.601 445.439C550.865 447.73 557.125 450.04 563.404 452.291C564.519 452.693 565.734 452.828 567.425 453.2C566.923 452.235 566.863 451.949 566.687 451.818C566.085 451.366 565.473 450.929 564.82 450.563C556.678 445.966 547.878 443.033 538.953 440.456C534.225 439.09 529.838 437.07 525.716 434.438L557.622 444.57C557.787 444.193 557.953 443.811 558.114 443.435C556.136 442.35 554.259 441.014 552.17 440.215C541.724 436.201 531.223 432.333 520.747 428.395C519.863 428.064 519.04 427.581 518.192 427.17C528.653 431.037 539.229 434.353 550.218 436.508C548.802 435.177 547.261 434.092 545.559 433.418C534.049 428.888 522.449 424.578 510.994 419.911C505.216 417.56 499.132 415.36 494.183 411.733C488.661 407.69 484.269 402.094 479.369 397.191C478.566 396.392 477.678 395.679 476.829 394.926C476.578 395.116 476.322 395.307 476.071 395.493C480.684 404.605 484.334 414.014 485.529 424.216C484.615 423.287 484.098 422.202 483.661 421.091C480.71 413.622 477.843 406.122 474.786 398.698C474.094 397.015 472.788 395.584 471.764 394.036C473.762 411.964 475.695 429.53 474.706 447.308C474.063 446.665 473.787 445.976 473.702 445.268C473.316 442.028 472.894 438.788 472.653 435.538C472.106 428.034 471.699 420.514 471.127 413.009C471.006 411.422 470.409 409.875 470.033 408.307C469.711 408.338 469.395 408.368 469.074 408.398C468.692 409.287 468.321 410.186 467.929 411.07C465.018 417.626 462.147 424.206 459.135 430.716C458.653 431.756 457.544 432.504 456.72 433.388C456.439 433.197 456.163 433.012 455.882 432.821C456.264 431.696 456.575 430.535 457.042 429.445C459.562 423.528 462.373 417.716 464.576 411.683C466.117 407.469 466.971 402.983 467.884 398.567C468.396 396.096 468.291 393.544 466.554 390.696C464.34 396.242 463.773 401.983 459.024 405.409C458.969 404.555 459.321 403.912 459.551 403.224C461.534 397.297 463.562 391.374 465.414 385.407C465.776 384.241 465.465 382.87 465.465 381.594C465.098 381.549 464.727 381.504 464.36 381.458C463.678 383.297 463.005 385.14 462.307 386.974C461.594 388.848 460.937 390.751 460.099 392.57C459.321 394.263 458.342 395.865 457.448 397.503C457.182 397.372 456.921 397.241 456.655 397.111C460.33 386.351 463.271 375.436 464.491 364.163L464.506 364.179ZM257.708 445.595C257.759 445.781 257.804 445.966 257.854 446.152C250.224 449.051 242.599 451.964 234.954 454.832C234.286 455.084 233.438 454.888 232.791 455.169C231.475 455.742 230.105 456.349 229.061 457.279C228.74 457.565 229.186 459.117 229.663 459.83C234.578 467.109 239.542 474.358 244.552 481.576C257.879 500.79 273.049 518.331 291.561 532.762C296.431 536.56 301.576 540.021 306.736 543.422C307.81 544.13 309.763 544.492 310.857 543.999C313.864 542.653 316.75 542.397 319.873 543.291C320.505 543.472 321.7 543.311 321.976 542.879C325.545 537.334 329.616 531.989 332.286 526.021C334.49 521.104 336.859 516.613 340.745 512.901C344.233 509.565 346.869 505.637 348.696 501.136C349.348 499.529 349.484 498.158 348.621 496.625C347.29 494.265 347.712 491.959 349.047 489.729C349.414 489.116 349.735 488.478 350.237 487.569C347.11 486.654 344.851 485.057 344.284 481.887C343.701 478.637 345.629 476.382 347.828 474.016C345.262 472.318 342.572 470.429 343.32 467.27C343.917 464.733 345.754 462.488 347.1 460.011C344.981 458.545 342.813 456.244 343.822 453.21C344.645 450.728 346.773 448.679 348.46 446.243C344.766 440.034 345.162 438.08 350.88 434.735C350.493 432.273 349.419 429.767 349.971 427.692C350.483 425.773 352.727 424.311 354.449 422.382C354.619 422.699 354.469 422.413 354.313 422.126C351.914 417.691 352.907 414.787 357.45 412.592C358.053 412.301 358.615 411.492 358.796 410.814C360.066 406.027 360.839 405.414 365.743 405.525C366.345 405.54 367.204 405.525 367.525 405.158C369.181 403.244 368.067 399.813 365.899 398.397C362.144 395.945 358.028 393.695 355.076 390.44C347.802 382.408 341.774 373.451 338.345 362.993C338.139 362.375 338.054 361.712 337.899 361.014C343.711 369.639 349.283 378.183 355.166 386.507C357.892 390.36 360.834 394.253 365.592 395.945C366.581 396.297 367.701 396.272 368.76 396.423C368.308 395.408 368.042 394.237 367.359 393.414C366.195 392.002 364.749 390.832 363.454 389.521C353.148 379.072 344.595 367.383 338.19 354.142C337.542 352.796 336.493 351.641 335.635 350.4C335.303 350.541 334.977 350.681 334.646 350.817C338.089 366.469 337.371 382.935 344.63 397.894C339.881 393.268 339.098 386.642 335.881 381.283C335.082 390.38 339.957 397.874 342.527 406.062C338.16 401.988 336.598 396.352 333.782 391.239C333.416 393.986 333.225 396.709 333.717 399.301C335.7 409.784 338.677 419.951 343.907 429.35C344.484 430.384 344.63 431.655 344.976 432.816C344.66 432.966 344.339 433.117 344.023 433.268C343.159 432.122 342.185 431.042 341.452 429.822C338.305 424.552 335.74 419.042 334.4 412.999C334.094 411.628 333.346 410.357 332.804 409.041C332.497 409.091 332.196 409.136 331.89 409.186C328.748 421.604 329.631 434.569 327.126 447.097C325.58 428.988 329.009 411.125 329.746 393.032C327.824 395.965 326.188 398.959 324.933 402.104C323.08 406.76 321.564 411.557 319.757 416.234C319.175 417.741 318.121 419.067 317.283 420.479C316.986 420.333 316.69 420.192 316.399 420.047C317.614 415.827 318.703 411.562 320.079 407.393C321.424 403.319 323.06 399.346 324.571 395.332C324.295 395.167 324.014 395.001 323.738 394.84C322.769 395.905 321.745 396.925 320.836 398.035C318.191 401.26 315.957 404.922 312.9 407.68C307.148 412.869 300.251 416.415 293.093 419.303C280.312 424.467 267.457 429.435 254.641 434.514C253.562 434.94 252.573 435.588 251.544 436.131C251.695 436.498 251.845 436.864 251.996 437.236C264.806 434.147 277.13 429.425 289.579 425.035C288.198 426.2 286.697 427.034 285.106 427.637C283.55 428.229 281.878 428.511 280.312 429.078C272.306 431.977 264.309 434.905 256.318 437.854C252.869 439.13 249.431 440.446 246.028 441.837C245.069 442.229 244.251 442.958 243.372 443.53C243.548 443.912 243.719 444.294 243.894 444.67C255.274 441.335 266.654 438 277.858 434.714C277.843 434.73 277.637 434.966 277.376 435.066C272.316 437.01 267.361 439.331 262.161 440.788C253.281 443.279 244.597 446.203 236.254 450.126C235.195 450.623 234.332 451.532 233.373 452.25C233.544 452.557 233.714 452.868 233.885 453.18C241.831 450.643 249.772 448.106 257.719 445.57L257.708 445.595ZM429.438 321.863C425.794 319.788 422.31 317.784 418.796 315.84C418.39 315.614 417.812 315.644 417.316 315.659C415.478 315.715 413.636 315.77 411.804 315.911C408.672 316.147 408.185 315.549 409.299 312.51C410.996 307.899 414.294 304.824 418.826 303.137C423.45 301.419 428.138 299.886 432.791 298.254C433.589 297.973 434.342 297.581 435.301 297.159C431.376 294.039 369.643 294.09 364.051 297.214C365.909 297.857 367.435 298.405 368.971 298.922C373.564 300.469 378.217 301.846 382.735 303.589C387.047 305.251 389.737 308.607 391.188 312.967C392.122 315.775 391.73 316.257 388.854 315.991C386.705 315.79 384.261 314.921 382.469 315.644C378.699 317.161 375.275 319.532 371.526 321.657C369.593 319.487 368.233 321.687 367.098 322.546C365.768 322.084 364.769 321.406 363.855 321.506C362.862 321.622 361.948 322.461 360.763 323.114C360.909 321.642 361.009 320.678 361.14 319.356C359.212 319.954 357.762 320.406 356.13 320.914C356.466 319.527 356.722 318.482 356.978 317.438C355.824 317.307 354.669 317.181 353.174 317.011C355.166 315.976 355.262 314.946 353.465 313.866C353.113 313.655 352.968 313.103 352.727 312.711C352.109 311.706 351.683 310.485 350.834 309.752C349.258 308.396 347.371 307.411 345.734 306.12C343.992 304.739 342.266 305.251 340.92 306.361C340.087 307.055 339.364 308.657 339.545 309.677C340.845 316.905 342.276 324.113 343.912 331.266C344.56 334.09 346.141 336.707 346.778 339.53C348.124 345.467 350.679 350.736 354.705 355.242C357.375 358.236 360.302 361.004 363.113 363.877C362.992 363.998 362.872 364.123 362.751 364.244C359.468 361.114 356.19 357.985 352.907 354.855C352.697 355.046 352.486 355.237 352.28 355.433C354.459 361.592 360.793 364.58 364.112 369.875C363.866 370.111 363.62 370.347 363.374 370.588C361.993 368.9 360.613 367.208 359.237 365.52C361.873 371.839 366.049 376.742 371.977 380.705C373.333 376.922 374.778 373.466 375.812 369.895C379.537 357.056 383.096 344.171 386.786 331.322C388.291 326.083 394.315 324.555 398.366 328.293C400.217 330.001 402.235 330.128 404.42 328.675C408.335 326.072 412.381 327.484 413.701 331.935C414.133 333.376 414.605 334.818 414.896 336.29C417.366 348.722 421.351 360.692 425.779 372.532C426.421 374.245 426.908 376.033 427.31 377.822C428.023 380.996 428.891 381.509 431.336 379.283C434.538 376.37 437.414 373.085 440.331 369.865C441.741 368.303 442.916 366.524 444.201 364.847C444.035 364.701 443.865 364.555 443.699 364.41C440.923 366.871 438.147 369.332 435.371 371.794C435.211 371.623 435.055 371.457 434.895 371.286C439.217 365.52 446.877 362.461 449.12 354.147C445.08 358.015 441.516 361.426 437.957 364.832C437.756 364.661 437.555 364.49 437.349 364.324C444.748 357.568 452.127 350.802 453.909 340.243C451.535 343.001 449.161 345.758 446.791 348.516C447.901 346.185 449.542 344.302 450.958 342.252C453.031 339.248 455.787 336.37 456.735 333.01C458.929 325.234 460.294 317.212 461.775 309.25C461.981 308.145 461.228 306.547 460.41 305.638C459.21 304.312 457.734 305.045 456.314 305.829C453.919 307.15 451.399 308.255 448.955 309.486C448.468 309.732 447.76 310.089 447.675 310.501C447.288 312.369 447.092 314.278 446.831 316.157C445.973 316.368 445.125 316.579 444.151 316.82C444.417 317.769 444.603 318.442 444.819 319.216H441.345C441.47 319.919 441.581 320.507 441.837 321.933C439.141 318.447 439.242 322.124 438.007 322.546C436.385 321.446 434.629 318.985 433.484 322.923C432.174 321.908 431.436 319.683 429.428 321.873L429.438 321.863ZM370.838 432.971C370.497 432.886 370.155 432.796 369.814 432.71C370.075 431.439 370.316 430.168 370.602 428.908C371.149 426.461 371.812 424.04 372.264 421.579C373.624 414.099 374.598 406.534 376.304 399.135C378.026 391.666 380.707 384.417 382.494 376.958C384.537 368.433 386.133 359.803 387.734 351.183C388.015 349.672 387.373 347.989 387.152 346.381C386.856 346.381 386.56 346.381 386.259 346.381C385.762 347.411 385.114 348.401 384.793 349.486C383.523 353.811 382.504 358.206 381.123 362.496C378.634 370.231 377.589 378.399 374.161 385.854C373.82 386.597 373.694 387.456 373.574 388.28C373.032 391.992 372.525 395.709 372.008 399.421C370.853 407.75 368.323 415.671 365.105 423.422C363.906 426.316 362.912 429.39 362.455 432.474C361.782 437.01 361.592 441.621 361.356 446.208C360.768 457.555 356.853 468.611 358.53 480.19C358.796 482.018 357.47 484.078 357.094 485.308C358.776 487.388 360.869 488.985 361.511 491.04C362.159 493.114 361.371 495.636 361.195 498.117C366.541 500.599 366.958 501.629 365.723 510.068C372.279 512.72 373.112 514.312 371.812 521.234C371.716 521.757 372.439 522.806 373.006 523.017C375.732 524.022 378.352 524.992 379.171 528.267C379.512 529.633 380.436 529.558 381.485 528.869C385.666 526.117 389.275 522.867 391.544 518.265C394.17 512.946 396.017 507.33 396.253 501.458C396.7 490.186 396.654 478.894 396.755 467.606C396.765 466.697 396.313 465.783 396.057 464.803C394.511 465.487 393.286 466.029 392.056 466.572C391.876 466.386 391.7 466.195 391.519 466.009C394.23 463.909 396.85 461.764 396.815 457.525C395.349 458.555 394.31 459.283 393.276 460.016C393.492 458.806 394.079 457.947 394.742 457.153C397.769 453.531 398.642 449.186 397.548 444.876C396.639 441.295 396.454 437.929 396.84 434.308C397.337 429.616 397.352 424.869 397.528 420.142C397.719 414.978 397.854 409.814 398.01 404.651C398.055 403.053 397.774 401.737 395.374 402.244C400.038 398.572 399.194 393.549 399.35 388.928C399.606 381.338 398.266 377.796 395.023 376.34C395.023 377.862 395.028 379.349 395.023 380.835C395.008 383.754 394.355 386.286 391.338 387.647C390.766 387.908 390.264 388.842 390.159 389.536C389.451 393.981 389.019 398.472 388.206 402.897C386.65 411.362 384.983 419.806 383.181 428.219C382.383 431.957 381.239 435.629 380.054 439.265C379.723 440.28 378.699 441.064 377.991 441.958L377.153 441.531C377.293 440.526 377.328 439.497 377.589 438.527C378.257 436.026 379.226 433.584 379.718 431.053C382.303 417.766 384.828 404.47 387.262 391.158C388.271 385.658 389.054 380.112 389.838 374.572C390.179 372.175 391.454 371.467 393.668 371.939C394.767 372.175 395.876 372.376 397.498 372.693C398.125 363.485 398.788 354.675 399.27 345.849C399.355 344.322 398.813 342.704 398.306 341.217C397.734 339.55 396.494 338.59 394.662 338.666C395.435 343.639 395.158 348.094 391.549 351.907C390.435 353.082 389.486 354.72 389.175 356.287C388.367 360.406 388.352 364.701 387.303 368.745C384.888 378.022 383.593 387.647 379.301 396.382C378.237 398.547 378.423 400.376 380.616 401.787C381.073 402.084 381.279 402.767 381.6 403.269C381.44 403.395 381.284 403.52 381.123 403.651C380.255 403.093 379.387 402.541 378.935 402.249C375.898 412.411 375.737 423.317 370.838 432.981V432.971ZM421.994 377.143C422.139 376.234 422.857 374.677 422.501 373.431C420.081 365.012 417.451 356.649 414.826 348.29C414.61 347.607 413.917 347.075 413.45 346.472C413.049 347.205 412.567 347.913 412.281 348.687C412.12 349.124 412.226 349.687 412.301 350.179C413.255 356.031 414.023 361.923 415.247 367.72C417.185 376.867 418.796 386.125 423.148 394.584C423.851 395.945 423.992 397.638 424.218 399.2C424.8 403.254 425.116 407.353 425.854 411.372C426.908 417.118 427.465 423.131 429.639 428.451C433.198 437.161 434.368 446.162 435.146 455.33C435.216 456.179 434.864 457.068 434.704 457.942C434.458 457.922 434.212 457.897 433.971 457.876C433.313 452.763 432.54 447.659 432.043 442.526C431.687 438.849 431.346 435.332 429.222 432.047C425.939 426.974 424.639 421.162 423.916 415.199C423.54 412.11 422.928 409.046 422.4 405.841C421.231 406.343 420.568 406.63 419.805 406.956C420.483 405.831 421.467 404.942 421.482 404.038C421.542 400.627 421.507 397.216 419.85 394.016C418.666 391.726 417.582 389.305 416.964 386.813C415.152 379.519 413.641 372.15 411.894 364.842C411.598 363.611 410.725 362.521 409.982 361.099C411.985 358.713 411.412 355.373 408.797 352.655C407.226 351.023 406.197 348.662 405.509 346.447C404.902 344.498 405.108 342.297 404.952 340.203C401.95 340.821 401.057 345.065 401.197 348.436C401.513 356.116 401.845 363.802 402.186 371.482C402.211 372.03 402.382 372.567 402.537 373.391C403.707 372.894 404.671 372.467 405.645 372.07C409.058 370.684 410.208 371.296 410.785 374.888C411.543 379.59 412.115 384.327 412.989 389.003C414.73 398.356 416.568 407.695 418.46 417.023C419.936 424.291 421.602 431.525 423.053 438.798C423.249 439.778 422.667 440.908 422.451 441.973C422.054 441.988 421.663 441.998 421.266 442.013C420.202 438.894 418.816 435.84 418.134 432.64C416.086 423.091 414.218 413.501 412.477 403.892C411.719 399.708 411.498 395.433 410.88 391.218C410.715 390.078 410.253 388.4 409.45 388.039C406.639 386.778 405.931 384.417 405.434 381.83C405.113 380.157 404.887 378.47 404.621 376.787C404.38 376.706 404.139 376.631 403.898 376.551C403.366 377.475 402.527 378.349 402.367 379.329C402.02 381.453 401.91 383.633 401.905 385.793C401.895 389.053 402.086 392.314 402.141 395.574C402.196 398.628 403.777 401.275 402.834 404.791C401.348 410.317 401.759 416.249 403.918 421.815C404.094 422.262 404.199 422.835 404.089 423.282C402.758 428.611 403.456 433.886 404.39 439.17C404.495 439.778 404.39 440.516 404.129 441.084C401.448 446.906 402.181 452.441 405.454 457.902C403.155 458.263 403.336 459.655 404.435 461.011C405.966 462.905 407.718 464.623 409.756 466.823C408.441 466.577 407.627 466.496 406.864 466.265C404.796 465.632 404.084 466.572 404.089 468.501C404.124 478.868 403.707 489.256 404.284 499.594C404.952 511.499 408.646 522.239 419.203 528.96C421.422 528.076 423.525 527.352 425.503 526.383C425.995 526.142 426.391 525.067 426.326 524.424C425.698 518.502 426.416 517.271 432.048 515.046C432.345 514.93 432.616 514.744 432.957 514.558C432.887 514.091 432.872 513.674 432.761 513.287C431.295 508.224 431.878 506.672 436.225 503.979C436.621 503.733 437.274 503.221 437.209 503.01C436.541 500.78 437.851 499.423 439.131 497.942C439.528 497.484 439.628 496.46 439.427 495.842C438.278 492.326 439.457 489.794 442.499 487.976C443.684 487.267 443.649 486.529 443.162 485.273C442.525 483.635 442.259 481.817 442.073 480.054C441.902 478.421 442.223 476.734 442.018 475.106C440.682 464.321 438.91 453.577 437.982 442.762C437.234 433.991 435.778 425.612 431.853 417.62C430.231 414.32 429.554 410.452 429.001 406.76C427.656 397.754 426.818 388.662 424.047 379.931C423.726 378.922 422.742 378.118 421.994 377.123V377.143ZM585.175 507.847C584.407 509.113 583.79 509.882 583.438 510.761C582.504 513.087 581.616 515.442 580.833 517.823C576.31 531.527 569.027 543.834 561.567 556.05C560.96 557.045 560.137 557.909 559.414 558.838C559.093 558.587 558.771 558.336 558.455 558.09C559.63 555.362 560.829 552.644 561.979 549.907C568.444 534.526 573.243 518.577 577.6 502.508C579.217 496.55 580.251 490.422 581.295 484.324C581.882 480.898 580.712 479.069 577.665 477.778C572.45 487.448 566.938 497.017 562.039 506.883C553.48 524.118 545.283 541.533 536.961 558.888C534.32 564.394 531.75 569.934 529.18 575.47C528.367 577.223 528.412 578.815 530.626 580.192C532.016 577.469 533.356 574.907 534.646 572.32C542.051 557.502 549.52 542.713 556.819 527.845C562.235 516.809 567.42 505.657 572.756 494.581C573.258 493.541 574.086 492.662 574.759 491.713C574.995 491.833 575.236 491.954 575.472 492.074C575.216 493.526 575.105 495.023 574.684 496.425C570.778 509.4 567.019 522.42 562.817 535.299C558.967 547.104 553.887 558.386 546.839 568.704C543.491 573.606 540.269 578.599 537.131 583.643C536.644 584.431 536.94 585.707 536.875 586.757C537.959 586.375 539.079 586.059 540.113 585.571C540.515 585.381 540.755 584.818 541.047 584.411C544.656 579.388 548.235 574.335 551.889 569.347C553.681 566.895 555.619 564.584 559.042 564.374C559.64 564.338 560.352 563.906 560.759 563.434C562.822 561.038 565.196 558.793 566.738 556.08C571.115 548.37 575.336 540.559 579.232 532.597C581.937 527.066 584.116 521.259 586.274 515.488C587.158 513.127 586.706 510.63 585.17 507.857L585.175 507.847ZM269.339 580.302C269.761 580.161 270.188 580.016 270.609 579.875C270.408 578.413 270.494 576.836 269.957 575.515C267.813 570.251 265.594 565.011 263.185 559.868C254.496 541.312 245.872 522.721 236.907 504.296C232.961 496.188 228.278 488.443 223.871 480.561C223.349 479.632 222.45 478.914 221.727 478.1C221.054 479.094 220.266 480.039 219.759 481.114C219.463 481.747 219.513 482.601 219.584 483.339C219.935 486.916 220.01 490.563 220.793 494.044C225.251 513.81 230.492 533.34 238.719 551.946C239.758 554.297 240.511 556.773 241.399 559.19C241.169 559.305 240.938 559.426 240.702 559.541C239.397 557.939 237.85 556.477 236.826 554.714C233.559 549.073 230.175 543.462 227.404 537.575C223.429 529.116 219.955 520.41 216.251 511.821C215.724 510.605 215.101 509.43 214.519 508.234C214.233 508.284 213.952 508.34 213.665 508.39C213.389 509.47 212.988 510.535 212.852 511.63C212.275 516.321 213.811 520.481 215.949 524.58C221.481 535.179 226.837 545.863 232.299 556.502C234.081 559.978 236.847 562.364 240.421 563.997C242.253 564.831 244.226 565.926 245.43 567.458C249.817 573.034 253.909 578.85 258.12 584.567C258.662 585.305 259.129 586.199 259.857 586.682C260.59 587.164 261.604 587.219 262.492 587.46C262.502 586.556 262.849 585.466 262.467 584.788C260.69 581.668 258.838 578.574 256.78 575.631C249.652 565.433 243.377 554.714 239.517 542.884C234.462 527.388 230.095 511.67 225.477 496.028C225.055 494.596 224.985 493.064 224.749 491.577C224.975 491.502 225.206 491.426 225.432 491.346C225.959 492.155 226.581 492.923 227.003 493.782C232.645 505.356 238.292 516.929 243.874 528.533C251.705 544.813 259.47 561.118 267.306 577.394C267.813 578.444 268.651 579.333 269.334 580.302H269.339ZM369.347 619.312C369.613 619.292 369.874 619.272 370.14 619.247C369.954 622.683 370.055 626.169 369.503 629.55C368.91 633.197 366.672 634.734 362.922 634.794C358.525 634.864 354.815 632.95 351.371 630.489C344.459 625.536 338.481 619.614 333.23 612.918C325.565 603.138 318.512 593.021 314.221 581.211C311.334 573.265 310.38 565.137 311.575 556.778C312.027 553.599 313.473 551.162 316.74 549.982C317.734 549.62 318.437 548.455 319.275 547.656C318.066 547.259 316.871 546.772 315.631 546.506C315.124 546.395 314.487 546.697 313.959 546.928C310.36 548.525 308.071 551.188 307.238 555.096C305.19 564.68 306.711 573.913 310.114 582.899C316.605 600.048 327.141 614.465 340.283 627.083C344.846 631.464 349.871 635.236 355.688 637.727C364.744 641.605 373.016 637.019 374.121 627.41C374.563 623.542 374.532 619.508 373.995 615.655C372.168 602.61 366.506 591.112 359.102 580.377C358.68 579.765 358.509 578.981 358.218 578.273C357.711 578.574 357.204 578.876 356.692 579.177C356.823 580.458 356.722 581.814 357.129 583C357.967 585.441 359.363 587.716 360.015 590.198C361.622 596.341 363.113 602.525 364.312 608.754C365.146 613.094 366.109 617.519 364.885 622.477C363.83 617.504 363.032 612.973 361.893 608.533C360.046 601.349 358.068 597.597 355.724 596.356C355.879 597.11 355.939 597.768 356.155 598.366C359.915 608.693 362.375 619.202 360.783 630.303C360.573 631.78 361.426 632.192 362.726 632.212C365.909 632.257 368.092 630.188 368.679 626.29C369.026 623.979 369.136 621.638 369.347 619.307V619.312ZM443.539 579.463C442.951 580.101 442.459 580.533 442.088 581.056C437.033 588.219 433.233 596.005 430.598 604.363C428.294 611.677 426.883 619.137 427.31 626.837C427.777 635.296 433.399 639.782 441.782 638.622C447.655 637.808 452.674 635.075 456.761 631.067C462.363 625.576 467.533 619.644 472.788 613.807C480.89 604.81 486.919 594.588 490.95 583.145C494.057 574.325 495.427 565.363 494.208 556.035C493.475 550.454 489.133 546.23 484.078 546.551C483.27 546.601 482.512 547.385 481.729 547.832C482.421 548.565 482.994 549.721 483.827 549.967C488.028 551.208 489.042 552.298 489.499 556.919C490.518 567.232 488.711 577.057 484.53 586.511C480.775 594.995 475.655 602.645 469.887 609.819C465.389 615.409 460.651 620.854 455.541 625.888C451.314 630.047 446.38 633.458 440.266 634.563C437.409 635.08 434.94 634.533 433.012 632.257C431.115 630.017 430.663 623.773 432.159 621.05C433.057 627.606 434.272 630.479 436.621 631.192C436.406 629.731 436.27 628.329 435.989 626.963C432.917 612.059 436.782 598.431 443.865 585.506C445.105 583.241 445.496 581.653 443.539 579.458V579.463ZM413.927 547.189C413.927 545.858 413.977 544.949 413.917 544.05C413.711 541.066 415.177 538.936 417.732 537.876C420.081 536.902 419.589 535.701 418.57 534.254C418.053 533.516 417.371 532.858 416.648 532.315C409.179 526.704 404.114 519.416 401.262 510.545C401.001 509.731 400.62 508.957 400.294 508.164C400.083 508.129 399.872 508.093 399.661 508.058C396.715 520.009 390.796 529.688 379.025 535.068C386.048 536.65 386.535 541.126 384.662 546.938C390.375 545.778 393.256 548.586 394.762 553.348C398.155 549.962 399.877 549.892 405.223 552.78C406.724 549.013 409.234 546.627 413.932 547.199L413.927 547.189ZM372.946 547.832C372.871 547.943 372.489 548.385 372.213 548.887C368.644 555.407 365.105 561.942 361.521 568.452C360.583 570.155 361.792 570.512 362.942 570.858C372.786 573.842 382.689 576.58 393.025 577.263C396.9 577.519 397.131 577.308 398.05 573.018C397.166 572.747 396.273 572.476 395.379 572.2C395.997 571.527 396.73 571.512 397.282 571.185C397.975 570.778 398.938 570.18 399.039 569.547C399.255 568.136 399.325 565.499 398.903 565.383C395.585 564.479 394.104 561.988 392.895 558.898C389.597 561.234 386.404 561.847 383.181 559.511C379.678 556.969 380.892 553.267 381.028 550.103C378.373 549.354 375.883 548.656 372.951 547.832H372.946ZM419.027 552.735C419.825 555.583 418.997 558.341 416.101 560.355C413.124 562.419 410.268 561.334 407.883 559.868C406.618 561.44 405.881 563.078 404.621 563.771C402.181 565.107 402.261 566.825 403.27 568.774C403.933 570.05 405.012 571.11 405.62 571.893C405.082 572.993 404.164 574.028 404.164 575.058C404.174 577.158 405.655 577.911 407.632 577.529C416.146 575.882 424.659 574.249 433.148 572.511C435.402 572.049 437.58 571.21 440.105 570.452C438.84 568.02 437.826 565.775 436.561 563.685C433.795 559.129 430.949 554.618 427.992 550.188C427.626 549.64 426.22 549.259 425.578 549.515C423.475 550.339 421.502 551.489 419.022 552.745L419.027 552.735ZM230.743 470.771C230.341 470.917 229.939 471.062 229.543 471.208C229.879 472.61 230.03 474.091 230.587 475.397C233.574 482.4 236.53 489.417 239.753 496.309C244.743 506.988 250.068 517.512 254.983 528.227C257.628 533.998 259.681 540.036 262.101 545.913C262.397 546.637 263.29 547.114 263.903 547.707C264.209 546.858 264.877 545.948 264.746 545.175C264.39 543.04 263.727 540.955 263.13 538.866C260.429 529.382 257.729 519.893 254.998 510.419C254.049 507.134 253.055 503.859 251.966 500.619C251.69 499.795 250.972 499.127 250.455 498.384C250.264 498.479 250.073 498.569 249.878 498.665C250.33 502.442 250.781 506.22 251.238 509.992C250.952 510.053 250.666 510.118 250.375 510.178C243.357 497.289 238.864 483.078 230.743 470.771ZM570.332 473.147C569.98 473.016 569.629 472.881 569.278 472.75C568.58 473.725 567.731 474.629 567.209 475.694C562.511 485.208 557.888 494.757 553.194 504.271C552.12 506.451 550.86 508.536 549.681 510.665C549.42 510.555 549.158 510.444 548.897 510.334C549.379 506.682 549.861 503.035 550.343 499.383C549.947 499.293 549.55 499.207 549.153 499.117C548.21 501.568 547.1 503.969 546.352 506.476C543.697 515.367 541.132 524.283 538.612 533.21C537.683 536.505 536.875 539.84 536.198 543.196C535.957 544.386 536.278 545.687 536.343 546.938C536.689 547.013 537.036 547.089 537.382 547.164C538.065 545.737 538.838 544.351 539.41 542.884C542.051 536.108 544.264 529.136 547.321 522.555C551.965 512.559 557.265 502.869 562.119 492.969C564.805 487.493 567.179 481.857 569.624 476.266C570.046 475.307 570.106 474.187 570.332 473.142V473.147ZM261.785 511.379C261.564 511.449 261.338 511.519 261.117 511.595C261.363 512.835 261.559 514.091 261.855 515.317C265.133 528.96 268.406 542.603 271.724 556.236C272.888 561.023 274.103 565.8 275.458 570.532C275.689 571.336 276.768 571.898 277.451 572.571C277.782 571.657 278.129 570.748 278.44 569.829C278.485 569.688 278.405 569.502 278.37 569.336C277.521 565.172 276.778 560.983 275.8 556.854C273.029 545.15 270.172 533.466 267.326 521.782C266.362 517.823 264.104 514.578 261.779 511.384L261.785 511.379ZM522.679 572.27C522.976 572.18 523.277 572.089 523.573 571.999C525.847 568.327 538.738 516.392 538.11 512.378C536.649 514.95 535.058 516.959 534.295 519.245C532.362 525.022 530.596 530.869 529.145 536.781C526.499 547.566 524.09 558.411 521.716 569.256C521.52 570.145 522.338 571.26 522.684 572.27H522.679ZM453.608 303.704C453.513 303.393 453.417 303.076 453.322 302.765C452.549 302.669 451.736 302.378 451.003 302.504C445.908 303.398 440.778 304.176 435.758 305.397C431.451 306.442 427.325 308.094 424.112 311.42C422.988 312.585 423.088 313.278 424.534 314.062C431.597 317.9 439.864 316.267 444.879 310.224C446.259 308.562 448.242 307.376 450.009 306.055C451.153 305.196 452.408 304.483 453.608 303.704ZM347.145 303.347C348.259 304.272 348.952 305.166 349.866 305.548C352.501 306.653 354.182 308.667 356.07 310.737C361.401 316.594 369.719 318.563 376.641 313.158C372.705 307.029 353.866 300.464 347.15 303.353L347.145 303.347ZM431.085 396.9C431.341 397.156 431.592 397.407 431.848 397.663C435.005 396.739 437.987 395.473 440.381 393.002C450.431 382.614 458.186 370.679 463.949 357.473C465.138 354.745 465.299 351.565 465.937 348.592C462.955 353.032 460.33 357.463 458.01 362.049C451.655 374.587 443.237 385.482 432.631 394.7C431.973 395.272 431.597 396.166 431.09 396.905L431.085 396.9ZM261.343 427.968C261.508 428.38 261.669 428.787 261.835 429.199C263.923 428.682 266.086 428.355 268.094 427.612C274.198 425.361 280.212 422.87 286.316 420.619C294.583 417.57 302.384 413.622 309.643 408.649C311.334 407.494 312.584 405.69 314.035 404.188C313.819 403.882 313.608 403.581 313.392 403.274C312.258 403.766 311.078 404.188 309.994 404.771C305.366 407.263 300.898 410.086 296.129 412.266C286.035 416.872 275.779 421.132 265.615 425.582C264.129 426.235 262.763 427.165 261.343 427.968ZM540.213 429.119C540.414 428.747 540.61 428.375 540.811 428.008C539.41 427.144 538.085 426.105 536.594 425.447C520.943 418.545 504.563 413.24 489.941 404.068C489.263 403.641 488.37 403.555 487.577 403.309L487.225 403.867C487.772 404.555 488.219 405.359 488.882 405.906C491.201 407.815 493.344 410.196 496.005 411.382C507.816 416.641 519.758 421.604 531.705 426.542C534.431 427.667 537.367 428.275 540.208 429.124L540.213 429.119ZM348.44 603.796C348.229 603.866 348.018 603.936 347.807 604.012C347.787 604.248 347.702 604.499 347.762 604.715C349.504 611.115 350.92 617.549 349.961 624.26C349.896 624.702 350.066 625.335 350.368 625.647C352.732 628.118 355.488 629.952 358.821 630.906C361.075 623.492 356.04 602.188 351.105 599.315C354.238 608.744 356.833 617.901 355.377 627.611C352.933 619.674 353.093 611.009 348.435 603.796H348.44ZM440.391 631.388C440.321 630.675 440.231 630.042 440.205 629.409C440.065 625.993 439.402 622.492 439.924 619.182C441.014 612.27 442.74 605.463 444.191 598.607C444.402 597.597 444.522 596.572 444.788 594.885C443.9 595.618 443.659 595.738 443.539 595.934C443.278 596.361 443.062 596.818 442.851 597.271C439.362 604.785 437.384 612.742 436.436 620.91C436.099 623.793 436.742 626.822 437.194 629.741C437.425 631.217 438.604 631.896 440.391 631.388ZM449.156 599.385C448.92 599.3 448.684 599.209 448.443 599.124C447.81 600.234 446.932 601.269 446.591 602.465C445.085 607.669 443.478 612.868 442.419 618.172C441.721 621.653 441.817 625.305 441.757 628.882C441.746 629.56 442.65 630.253 443.132 630.941C443.744 630.233 444.417 629.565 444.939 628.796C445.14 628.505 445.039 627.977 445.019 627.566C444.593 618.855 445.948 610.396 448.629 602.123C448.915 601.244 448.99 600.3 449.161 599.385H449.156ZM446.636 628.289C450.656 626.596 451.078 625.792 450.375 622.286C450.215 621.482 450.099 620.603 450.24 619.81C451.008 615.384 451.866 610.969 452.684 606.548C452.835 605.725 452.951 604.896 453.081 604.067C452.82 604.017 452.564 603.966 452.303 603.916C447.83 611.275 447.369 619.594 446.631 628.284L446.636 628.289ZM505.778 397.698C506.897 395.709 501.085 376.762 498.695 374.406C500.673 382.272 502.043 390.319 505.778 397.698ZM512.966 545.647C512.68 545.617 512.394 545.587 512.113 545.552C511.847 545.943 511.41 546.31 511.34 546.737C510.677 550.766 509.965 554.799 509.563 558.858C509.488 559.622 510.712 560.516 511.34 561.35C511.706 561.204 512.073 561.058 512.439 560.908C512.786 555.824 514.969 550.811 512.971 545.642L512.966 545.647ZM294.468 396.488C294.93 396.618 295.387 396.754 295.848 396.885C298.594 390.033 300.612 382.98 301.285 375.536C298.569 382.393 295.949 389.269 294.468 396.488ZM285.297 546.566C283.379 548.822 284.328 560.144 286.502 562.746C288.304 560.953 287.536 549.656 285.297 546.566ZM401.84 336.41C403.06 336.154 404.048 336.059 404.942 335.712C405.625 335.446 406.664 334.918 406.719 334.411C406.93 332.512 406.804 330.578 406.804 328.664C404.35 328.845 402.292 331.799 401.84 336.405V336.41ZM354.795 479.105C354.835 477.181 353.681 476.01 352.124 476.091C350.639 476.171 349.002 476.914 347.833 477.864C347.3 478.296 347.742 479.923 347.742 480.948C350.408 480.25 352.481 479.707 354.795 479.1V479.105ZM354.484 452.818C354.554 450.502 352.777 449.342 350.885 449.548C349.469 449.704 347.958 451.125 346.969 452.361C346.367 453.114 346.693 454.626 348.445 454.25C350.347 453.838 352.235 453.356 354.484 452.813V452.818ZM345.935 610.713C345.503 610.818 345.077 610.919 344.645 611.024C346.146 614.957 343.029 619.975 347.321 623.251C347.722 623.16 348.129 623.07 348.53 622.979C347.667 618.89 346.798 614.802 345.935 610.713ZM353.62 466.185C353.018 464.376 352.104 462.392 350.117 462.674C348.716 462.87 347.22 464.417 346.347 465.743C345.604 466.868 346.297 468.074 348.013 467.672C349.84 467.245 351.648 466.712 353.615 466.185H353.62ZM452.7 454.129C451.545 451.05 448.618 449.95 446.169 451.969C445.486 452.532 445.295 453.697 444.879 454.581C445.978 454.812 447.103 455.3 448.177 455.214C449.653 455.094 451.093 454.536 452.7 454.129ZM356.497 506.054C358.871 505.21 360.899 504.487 363.569 503.532C362.816 502.658 362.164 501.202 361.285 501.046C360.01 500.82 358.289 501.166 357.275 501.94C355.944 502.955 355.362 504.653 356.502 506.054H356.497ZM445.888 481.43C447.765 481.159 449.427 480.873 451.103 480.697C452.715 480.526 452.925 479.737 452.127 478.537C450.907 476.703 449.08 476.518 447.298 477.321C445.391 478.18 445.205 479.828 445.888 481.425V481.43ZM452.373 623.557C452.674 623.688 452.981 623.818 453.282 623.954C454.215 622.768 455.802 621.648 455.937 620.377C456.213 617.826 455.701 615.188 455.516 612.591C455.219 612.546 454.918 612.506 454.622 612.461C453.874 616.163 453.121 619.86 452.373 623.562V623.557ZM358.891 491.12C357.962 490.206 357.184 488.804 356.381 488.789C354.865 488.764 353.063 489.201 351.919 490.115C351.236 490.663 351.572 492.486 351.447 493.727C354.142 492.783 356.215 492.054 358.891 491.12ZM396.353 558.471L397.447 559.074C398.823 556.542 400.871 556.186 403.205 557.2C403.797 555.231 403.044 553.96 401.659 553.805C400.153 553.634 398.261 553.835 397.101 554.669C396.338 555.216 396.564 557.155 396.353 558.476V558.471ZM399.059 336.265C399.43 332.778 397.764 330.342 393.979 328.795C393.507 332.583 394.511 335.541 399.059 336.265ZM442.494 493.471C444.929 493.27 447.143 493.084 449.381 492.898C448.734 490.256 447.238 488.799 445.386 489.196C443.413 489.618 442.108 490.763 442.494 493.471ZM391.439 551.996C390.35 550.921 389.536 549.445 388.553 549.324C387.323 549.173 385.691 549.836 384.712 550.695C383.794 551.504 383.086 553.001 384 553.95C386.484 553.297 388.578 552.75 391.439 552.001V551.996ZM423.384 543.839C423.62 541.593 422.16 540.528 420.613 540.167C419.695 539.951 418.189 540.689 417.506 541.483C416.924 542.156 417.14 543.522 417.009 544.502C419.504 544.24 421.356 544.05 423.384 543.839ZM368.72 530.502C370.567 529.944 372.279 529.497 373.93 528.88C374.457 528.684 375.18 528.016 375.165 527.589C375.14 526.981 374.568 525.936 374.141 525.886C372.831 525.74 371.245 525.569 370.2 526.172C368.639 527.071 368.067 528.779 368.72 530.507V530.502ZM446.405 467.848C449.025 467.546 451.49 467.265 454.125 466.958C453.247 464.592 451.686 463.327 449.507 463.673C447.665 463.965 446.214 465.175 446.405 467.848ZM411.944 342.674C412.356 342.554 412.773 342.433 413.184 342.313C412.461 338.867 411.734 335.421 411.006 331.93C408.812 332.236 408.23 332.904 409.023 334.677C409.761 336.33 410.122 338.148 410.725 339.871C411.061 340.831 411.538 341.74 411.949 342.674H411.944ZM415.694 553.041C415.795 551.097 414.309 550.339 412.492 550.017C410.624 549.686 409.184 550.469 408.436 552.197C407.964 553.287 408.22 554.327 409.691 554.151C411.638 553.91 413.556 553.448 415.689 553.041H415.694ZM356.371 440.602C355.322 439.25 354.73 437.779 353.721 437.387C352.712 436.995 351.035 437.332 350.117 437.995C349.303 438.582 349.133 440.059 348.616 441.285C351.306 441.049 353.309 440.873 356.366 440.602H356.371ZM450.074 441.37C449.532 439.632 448.327 438.12 446.34 438.512C445.095 438.758 443.784 440.109 443.102 441.31C442.444 442.465 443.127 443.369 444.738 442.862C446.42 442.335 448.132 441.908 450.079 441.37H450.074ZM382.775 540.548C382.569 540.342 382.368 540.137 382.162 539.931C382.102 539.78 382.072 539.519 381.977 539.494C380.606 539.127 379.095 538.288 377.886 538.599C376.821 538.876 376.073 540.433 375.27 541.483C375.235 541.528 376.119 542.598 376.445 542.533C378.051 542.211 379.622 541.689 381.194 541.201C381.736 541.031 382.253 540.764 382.78 540.538L382.775 540.548ZM362.139 517.989C363.866 517.477 365.487 517.075 367.038 516.487C367.691 516.241 368.188 515.598 368.76 515.136C368.167 514.513 367.675 513.559 366.958 513.333C364.011 512.403 361.697 514.87 362.144 517.989H362.139ZM429.338 532.401C429.162 529.583 428.153 528.523 426 528.819C423.846 529.116 422.727 530.829 423.194 532.908C425.267 532.737 427.305 532.567 429.338 532.396V532.401ZM362.555 418.705C361.913 417.44 361.647 416.058 360.849 415.576C360.005 415.069 358.565 415.164 357.546 415.496C356.968 415.682 356.251 417.389 356.401 417.525C357.164 418.218 358.143 418.851 359.142 419.067C360.046 419.263 361.07 418.891 362.555 418.705ZM435.567 520.868C435.587 518.431 434.875 517.698 432.586 517.713C430.101 517.728 428.961 519.104 429.107 521.556C431.26 521.325 433.419 521.099 435.567 520.868ZM443.769 503.628C445.125 503.774 445.757 503.226 445.07 501.754C444.758 501.086 444.377 500.277 443.795 499.951C443.102 499.564 441.977 499.273 441.36 499.584C440.587 499.976 440.14 501.016 439.553 501.779C440.256 502.251 440.918 502.814 441.676 503.171C442.264 503.447 442.971 503.467 443.764 503.628H443.769ZM392.789 338.415C390.289 339.982 389.185 345.291 390.836 347.627C393.125 344.844 392.804 341.73 392.789 338.415ZM446.776 429.415C444.904 428.079 443.559 426.853 441.982 426.12C441.38 425.838 440.155 426.527 439.422 427.064C439.051 427.335 438.875 428.646 439.086 428.787C439.769 429.249 440.657 429.571 441.48 429.611C442.936 429.686 444.407 429.52 446.776 429.415ZM435.276 509.626C437.46 509.736 439.447 509.837 441.506 509.942C441.827 507.661 440.582 506.551 438.981 506.381C437.219 506.195 435.914 507.31 435.276 509.626ZM355.593 425.165C354.423 426.075 353.455 426.577 352.882 427.371C352.576 427.797 352.822 429.264 353.053 429.325C353.886 429.536 354.82 429.35 355.714 429.299C355.874 429.289 356.06 429.254 356.19 429.164C356.943 428.661 357.676 428.139 358.419 427.622C357.551 426.868 356.682 426.115 355.588 425.165H355.593ZM408.2 339.565C407.969 339.56 407.738 339.555 407.502 339.545C405.926 342.192 406.834 347.421 409.776 349.024C409.199 345.552 408.697 342.559 408.2 339.565ZM387.554 340.77C387.815 340.856 388.081 340.936 388.342 341.022C388.558 340.494 388.733 339.942 388.994 339.434C389.697 338.043 390.329 336.596 391.193 335.31C392.383 333.532 392.167 332.683 389.481 331.437C388.824 334.627 388.191 337.701 387.559 340.77H387.554ZM367.184 409.709C365.698 408.785 364.714 407.725 364.137 407.916C363.143 408.237 362.395 409.337 361.546 410.106C362.375 410.734 363.193 411.829 364.036 411.854C364.849 411.874 365.693 410.789 367.184 409.709ZM439.382 417.304C438.83 414.883 437.093 413.3 435.663 413.903C435.065 414.154 434.312 415.471 434.508 415.903C435.482 418.057 437.414 417.515 439.387 417.304H439.382ZM409.47 383.412C410.328 379.926 409.244 375.837 407.206 374.823C407.437 377.812 407.221 380.735 409.47 383.412ZM398.215 579.423C399.37 580.367 400.198 581.498 400.715 581.372C401.534 581.171 402.141 580.121 402.844 579.433C402.071 578.71 401.388 577.806 400.479 577.379C400.193 577.243 399.305 578.413 398.215 579.423ZM443.468 465.22C444.859 463.759 445.777 462.789 446.857 461.659C445.446 460.589 444.322 459.735 442.635 458.454C442.941 460.946 443.167 462.774 443.473 465.22H443.468ZM393.607 375.491C391.092 377.636 390.616 380.881 392.403 383.412C392.869 380.333 393.241 377.912 393.607 375.491ZM354.72 448.126C355.744 449.292 356.567 450.226 357.385 451.16C357.621 451.095 357.857 451.03 358.093 450.97C358.158 449.443 358.228 447.915 358.324 445.786C356.833 446.755 355.909 447.353 354.72 448.126ZM444.03 471.369C443.85 471.434 443.674 471.499 443.493 471.56C443.674 473.162 443.86 474.77 444.086 476.784C445.275 475.9 446.023 475.342 446.887 474.699C446.033 473.639 445.376 472.81 444.703 471.997C444.507 471.761 444.251 471.575 444.025 471.364L444.03 471.369ZM357.255 457.861C353.254 461.066 353.229 461.353 356.532 463.623C356.758 461.8 356.978 460.057 357.255 457.861ZM324.842 361.134C324.646 361.119 324.456 361.104 324.26 361.089C323.934 364.143 323.612 367.197 323.286 370.247C323.557 370.272 323.828 370.302 324.099 370.327C324.345 367.263 324.591 364.199 324.837 361.134H324.842ZM476.488 366.223C476.679 366.188 476.87 366.153 477.065 366.118C476.834 363.842 476.608 361.566 476.378 359.291C476.096 359.336 475.82 359.381 475.539 359.432C475.856 361.697 476.172 363.963 476.483 366.228L476.488 366.223ZM441.184 447.986C441.541 449.729 441.772 450.869 442.108 452.512C443.172 451.256 443.79 450.528 444.668 449.488C443.463 448.97 442.625 448.609 441.179 447.986H441.184Z" fill="black"/>
<path d="M608.771 558C605.236 552.334 603.895 546.026 602.68 539.742C599.079 521.113 595.8 502.429 592.18 483.805C590.904 477.251 589.136 470.787 587.389 464.333C585.31 456.655 580.032 451.245 574.302 446.056C561.286 434.267 547.907 422.749 536.975 408.948C521.086 388.894 508.818 366.727 499.829 342.713C492.929 324.29 489.278 305.084 485.241 285.958C481.515 268.293 477.793 250.627 474.203 232.937C473.239 228.179 471.104 224.485 466.57 222.483C449.656 215.03 432.859 207.247 414.584 203.523C410.657 202.725 406.725 201.927 402.778 201.224C401.814 201.054 400.744 201.094 399.795 201.32C388.983 203.889 377.94 205.796 367.445 209.314C355.749 213.239 344.525 218.574 333.166 223.457C330.027 224.807 328.054 227.015 327.235 230.854C320.2 263.791 314.545 297.039 305.516 329.529C299.304 351.872 288.954 372.348 276.415 391.78C268.169 404.557 258.688 416.346 247.781 426.905C240.158 434.287 232.012 441.127 224.108 448.224C218.433 453.318 214.195 459.355 212.453 466.868C208.681 483.148 204.935 499.433 201.369 515.759C199.014 526.534 197.011 537.379 194.811 548.189C194.505 549.684 193.982 551.14 193.556 552.61C193.239 552.6 192.928 552.585 192.611 552.575C192.38 551.18 191.883 549.77 191.974 548.394C192.265 544.144 192.737 539.903 193.229 535.672C193.505 533.319 192.968 531.597 191.256 529.655C187.394 525.279 184.004 520.481 180.564 515.754C178.611 513.069 178.566 510.324 179.992 507.071C188.835 486.842 198.346 466.943 208.234 447.205C217.178 429.344 225.615 411.227 234.192 393.185C240.615 379.67 247.168 366.21 253.194 352.514C260.837 335.15 267.702 317.445 275.451 300.125C284.028 280.954 291.154 261.231 298.857 241.724C304.778 226.734 310.056 211.467 318.277 197.445C324.534 186.781 332.659 178.013 342.713 170.907C358.38 159.831 375.967 154.18 394.969 153.171C420.475 151.816 443.736 158.446 463.627 174.791C475.719 184.733 484.432 197.501 490.373 211.904C498.277 231.07 505.524 250.502 513.202 269.763C518.028 281.873 522.979 293.943 528.132 305.922C539.596 332.565 550.735 359.36 562.913 385.677C576.25 414.504 590.673 442.834 604.488 471.445C610.188 483.253 615.496 495.253 621.065 507.127C622.461 510.108 622.406 512.773 620.136 515.227C616.169 519.518 612.282 523.894 608.134 528.009C606.19 529.936 605.487 531.984 605.904 534.533C606.838 540.219 607.903 545.89 608.721 551.591C609.023 553.684 608.771 555.857 608.771 557.99V558ZM194.188 525.866C194.726 522.539 195.077 519.648 195.675 516.813C197.473 508.306 199.17 499.774 201.279 491.348C203.71 481.632 206.035 471.836 209.369 462.416C211.458 456.514 215.22 451.18 218.408 445.694C227.347 430.322 234.026 413.882 241.222 397.697C247.841 382.806 253.887 367.66 260.25 352.65C261.365 350.015 262.786 347.506 264.061 344.941L264.79 345.242C264.574 346.101 264.413 346.979 264.137 347.817C262.68 352.178 261.254 356.544 259.713 360.875C252.195 381.983 244.647 403.077 237.089 424.17C236.411 426.057 235.543 427.878 234.895 429.775C234.719 430.287 235.041 430.97 235.136 431.577C235.728 431.391 236.612 431.396 236.873 430.995C238.054 429.183 239.284 427.351 240.087 425.359C242.242 420.009 244.255 414.599 246.204 409.169C251.135 395.398 256.092 381.632 260.857 367.806C263.469 360.228 265.789 352.549 268.094 344.871C269.867 338.959 271.222 332.917 273.101 327.035C275.923 318.202 279.071 309.475 281.984 300.672C282.526 299.036 282.607 297.25 282.898 295.533L281.879 295.207C280.402 298.329 278.715 301.365 277.49 304.582C268.626 327.883 258.236 350.522 247.806 373.146C242.869 383.85 238.089 394.625 233.062 405.285C226.75 418.659 220.216 431.933 213.844 445.283C210.424 452.439 206.798 459.53 203.921 466.903C201.992 471.841 201.169 477.221 199.943 482.425C197.392 493.25 194.911 504.085 192.375 514.916C192.139 515.924 191.718 516.893 191.386 517.881C191.13 517.962 190.869 518.042 190.613 518.122C189.317 516.351 187.936 514.634 186.786 512.778C186.43 512.205 186.49 511.157 186.741 510.464C190.894 498.992 195.102 487.539 199.316 476.092C199.853 474.641 200.501 473.231 201.098 471.801C200.857 471.67 200.621 471.535 200.38 471.404C199.12 473.492 197.603 475.464 196.634 477.678C192.129 488.021 187.7 498.404 183.462 508.858C182.884 510.278 182.879 512.597 183.678 513.781C186.284 517.646 189.367 521.189 192.315 524.817C192.637 525.214 193.264 525.364 194.188 525.866ZM602.876 475.424C602.63 475.535 602.384 475.645 602.138 475.756C602.203 476.323 602.168 476.92 602.344 477.447C605.578 487.098 608.726 496.778 612.151 506.364C613.683 510.65 612.216 515.071 608.294 516.968C605.789 506.058 603.107 495.107 600.787 484.086C598.452 473 595.403 462.2 590.196 452.063C584.893 441.735 579.52 431.426 574.638 420.892C564.936 399.965 555.38 378.967 546.09 357.854C537.101 337.434 528.523 316.837 519.75 296.326C519.313 295.298 518.701 294.344 518.174 293.355C517.912 293.446 517.651 293.536 517.39 293.626C518.053 296.326 518.585 299.066 519.409 301.721C523.627 315.287 527.926 328.822 532.179 342.377C535.052 351.541 537.678 360.79 540.802 369.869C545.472 383.464 550.423 396.969 555.375 410.464C557.559 416.426 560.005 422.288 562.39 428.174C562.988 429.65 563.806 431.015 566.357 430.724C563.42 422.875 560.582 415.277 557.74 407.684C554.868 400.01 551.93 392.367 549.148 384.663C546.366 376.96 543.744 369.201 541.053 361.467C538.401 353.839 535.75 346.206 533.093 338.578C533.334 338.492 533.58 338.402 533.821 338.317C534.64 339.958 535.539 341.564 536.272 343.245C539.305 350.221 542.258 357.227 545.301 364.198C553.798 383.655 562.114 403.192 570.937 422.503C575.477 432.435 581.046 441.895 585.952 451.666C588.725 457.177 591.893 462.667 593.51 468.544C598.412 486.35 602.921 504.276 604.659 522.75C604.724 523.432 605.025 524.095 605.311 525.078C606.497 524.245 607.501 523.753 608.219 522.995C610.966 520.08 613.633 517.084 616.314 514.103C618.172 512.035 618.072 509.962 616.897 507.438C613.828 500.853 611.081 494.124 608.184 487.459C606.436 483.439 604.654 479.434 602.891 475.424H602.876ZM328.883 193.882C327.808 194.178 326.969 194.158 326.573 194.57C325.483 195.704 324.348 196.903 323.635 198.283C318.934 207.417 313.601 216.325 309.865 225.845C303 243.34 296.482 261.021 290.958 278.977C285.605 296.361 281.482 314.137 277.188 331.833C271.629 354.738 266.617 377.773 258.904 400.1C258.583 401.039 258.337 402.063 258.367 403.041C258.387 403.764 258.914 404.477 259.21 405.189C259.868 404.788 260.837 404.547 261.134 403.965C262.304 401.661 263.559 399.333 264.252 396.864C269.033 379.81 274.015 362.807 278.288 345.624C284.736 319.693 289.743 293.401 298.41 268.047C303.407 253.438 306.842 238.281 313.888 224.4C318.723 214.875 323.489 205.314 328.275 195.764C328.481 195.353 328.566 194.876 328.888 193.887L328.883 193.882ZM480.068 205.932C479.817 206.158 479.566 206.383 479.315 206.609C479.501 207.141 479.631 207.698 479.877 208.205C493.195 235.807 502.46 264.86 510.224 294.399C515.236 313.475 519.539 332.731 524.391 351.847C528.664 368.689 532.526 385.667 539.139 401.822C539.511 402.73 539.958 403.719 540.656 404.361C541.736 405.36 542.73 404.964 542.981 403.513C543.102 402.821 542.856 402.028 542.65 401.315C538.386 386.545 533.761 371.866 529.904 356.991C523.944 334.021 519.118 310.74 512.66 287.92C506.402 265.818 498.9 244.048 489.59 222.98C487.43 218.092 484.924 213.354 482.459 208.607C481.926 207.578 480.882 206.815 480.073 205.927L480.068 205.932ZM395.627 175.8C395.597 175.519 395.567 175.238 395.537 174.957C394.844 174.902 394.12 174.686 393.468 174.827C387.426 176.121 381.189 176.884 375.409 178.942C361.464 183.9 348.653 191.137 336.852 200.095C328.104 206.735 321.41 214.92 318.533 225.74C316.323 234.061 313.988 242.362 312.265 250.788C308.765 267.886 305.607 285.055 302.373 302.203C301.132 308.767 300.047 315.367 298.953 321.956C298.732 323.291 298.687 324.832 300.514 325.113C302.347 325.394 302.398 323.833 302.619 322.634C304.919 310.233 307.108 297.807 309.514 285.426C313.099 266.983 316.755 248.549 320.541 230.141C322.871 218.814 329.053 209.751 338.484 203.257C345.967 198.103 353.871 193.516 361.81 189.079C371.753 183.529 382.023 178.631 393.392 176.598C394.161 176.463 394.879 176.071 395.622 175.8H395.627ZM502.41 324.31C502.244 323.116 502.189 322.533 502.084 321.961C500.07 310.87 498.086 299.774 496.032 288.693C493.793 276.628 491.784 264.509 489.117 252.539C486.903 242.607 484.231 232.741 481.138 223.045C476.533 208.612 465.274 199.628 453.558 191.202C453.051 190.841 452.077 191.132 451.319 191.122C451.469 191.84 451.379 192.823 451.821 193.235C454.02 195.282 456.25 197.325 458.67 199.101C470.808 208.004 478.481 219.728 481.535 234.492C483.463 243.822 485.738 253.081 487.516 262.436C490.358 277.376 492.904 292.367 495.596 307.332C496.585 312.842 497.559 318.363 498.744 323.838C498.925 324.671 500.196 325.274 500.964 325.981C501.536 325.329 502.104 324.681 502.425 324.315L502.41 324.31ZM466.294 217.53C466.514 217.183 466.735 216.837 466.956 216.491C465.455 215.286 464.074 213.881 462.432 212.928C459.76 211.382 456.913 210.132 454.141 208.752C440.522 201.987 426.536 196.281 411.305 194.349C407.031 193.807 402.582 192.979 398.404 193.586C381.697 196.01 365.516 200.557 350.15 207.628C344.706 210.132 339.519 213.209 334.286 216.145C333.513 216.581 333.111 217.675 332.533 218.468C332.734 218.634 332.935 218.804 333.136 218.97C333.518 218.86 333.919 218.789 334.276 218.624C340.197 215.909 346.102 213.153 352.038 210.464C365.657 204.296 379.798 199.779 394.567 197.32C397.761 196.788 401.046 195.689 404.169 196.01C413.931 197.009 423.508 199.277 432.602 202.956C442.36 206.905 451.856 211.502 461.483 215.773C463.039 216.466 464.692 216.942 466.299 217.52L466.294 217.53ZM339.634 184.723L340.066 185.11C339.127 186.354 338.258 187.659 337.234 188.828C335.145 191.222 332.9 193.481 330.886 195.93C330.208 196.753 330.027 197.987 329.621 199.036C338.76 193.355 347.262 187.534 355.865 181.863C364.582 176.116 374.45 172.829 384.142 169.025C381.149 168.94 378.222 169.04 375.485 169.813C365.602 172.588 356.276 176.633 347.795 182.525C345.796 183.91 343.551 184.939 341.417 186.133C341.261 185.933 341.101 185.737 340.945 185.536C341.432 184.809 341.824 183.996 342.416 183.373C344.375 181.321 346.434 179.368 348.382 177.311C348.824 176.844 348.985 176.106 349.276 175.494C348.533 175.494 347.543 175.183 347.086 175.539C344.465 177.602 341.919 179.765 339.473 182.028C338.69 182.756 338.293 183.895 337.359 185.451C338.615 185.049 339.127 184.884 339.639 184.723H339.634ZM295.684 304.507C295.222 304.472 294.765 304.431 294.303 304.396C293.775 306.103 293.122 307.784 292.751 309.525C291.31 316.3 289.974 323.1 288.568 329.886C287.091 336.997 285.499 344.083 284.174 351.22C283.983 352.233 284.997 353.473 285.454 354.607C286.092 353.754 287.101 352.986 287.307 352.038C288.377 347.235 289.236 342.387 290.17 337.549C292.033 327.878 293.921 318.212 295.714 308.532C295.955 307.232 295.704 305.847 295.679 304.497L295.684 304.507ZM517.496 355.194C517.38 354.135 517.365 353.714 517.285 353.302C514.252 338.332 511.243 323.356 508.12 308.401C507.839 307.061 508.155 304.818 505.825 305.019C505.514 305.044 505.052 307.668 505.283 308.978C506.859 317.936 508.522 326.884 510.324 335.802C511.615 342.186 513.127 348.525 514.678 354.848C514.869 355.626 515.899 356.198 516.536 356.86C516.943 356.153 517.35 355.445 517.496 355.189V355.194ZM386.086 191.368C380.883 186.946 345.781 200.597 340.93 208.245C355.061 200.748 370.267 196.04 386.086 191.368ZM445.503 199.508C445.8 199.172 446.096 198.835 446.392 198.499C445.694 198.108 445.016 197.666 444.293 197.325C439.397 195.006 434.511 192.658 429.554 190.48C428.936 190.209 427.907 190.871 427.068 191.102C427.571 191.724 427.952 192.643 428.6 192.914C433.662 195.051 438.779 197.074 443.886 199.111C444.394 199.312 444.961 199.382 445.498 199.513L445.503 199.508ZM300.615 277.587C297.978 280.377 296.492 288.081 298.029 290.359C300.289 288.778 301.986 280.779 300.615 277.587ZM502.149 289.998C503.846 287.609 502.018 279.258 499.648 277.858C498.614 280.638 500.115 288.256 502.149 289.998Z" fill="black"/>
<path d="M577.467 568C581.878 568.525 585.2 569.449 587.488 572.091C594.593 580.297 601.518 588.662 608.507 596.976C608.723 597.231 609.019 597.562 608.999 597.843C608.934 598.899 608.758 599.949 608.628 601C607.79 600.536 606.716 600.266 606.149 599.572C603.123 595.864 600.444 591.845 597.237 588.31C591.477 581.955 584.828 576.747 576.835 573.452C575.726 572.993 574.938 571.728 574 570.836C575.34 569.739 576.674 568.643 577.462 568H577.467Z" fill="black"/>
<path d="M221.048 568.005C221.649 568.307 222.952 568.688 223.897 569.497C225.573 570.935 225.32 572.422 223.266 573.291C210.951 578.513 201.825 587.518 194.086 598.196C193.843 598.533 193.664 598.99 193.335 599.176C192.714 599.533 192.008 599.734 191.336 600C191.232 599.236 190.829 598.342 191.082 597.729C191.62 596.437 192.366 595.176 193.261 594.106C199.348 586.844 205.436 579.583 211.658 572.442C213.896 569.879 216.84 568.322 221.048 568V568.005Z" fill="black"/>
<path d="M291.332 571.299C291.141 573.51 291.015 575.736 290.743 577.937C289.238 590.351 291.212 602.328 295.199 614.042C298.536 623.854 301.617 633.793 307.774 642.353C308.207 642.951 307.88 644.108 307.905 645C306.974 644.493 305.705 644.219 305.166 643.438C300.59 636.8 297.227 629.529 295.033 621.78C292.787 613.844 290.451 605.883 288.991 597.78C287.617 590.148 287.693 582.318 289.087 574.605C289.309 573.368 289.877 572.197 290.29 571C290.638 571.096 290.985 571.198 291.327 571.294L291.332 571.299Z" fill="black"/>
<path d="M511.188 571.005C511.793 573.886 512.824 576.752 512.925 579.649C513.449 594.19 511.229 608.375 506.033 621.991C503.656 628.226 500.568 634.199 497.739 640.263C497.139 641.546 496.403 642.823 495.463 643.869C494.915 644.482 493.838 644.638 493 645C493.076 644.135 492.858 643.089 493.269 642.426C500.776 630.328 506.058 617.365 508.882 603.437C510.873 593.637 512.458 583.817 510.167 573.826C509.974 572.986 510.03 572.086 509.974 571.211C510.376 571.141 510.782 571.07 511.183 571L511.188 571.005Z" fill="black"/>
<path d="M283.741 584C284.693 591.466 285.041 598.818 286.675 605.841C288.899 615.394 292.109 624.699 294.91 634.103C295.239 635.208 295.834 636.259 295.982 637.385C296.091 638.217 295.682 639.123 295.501 640C294.915 639.437 294.067 638.989 293.795 638.297C292.652 635.388 291.595 632.429 290.661 629.441C287.518 619.354 284.365 609.263 283.398 598.619C282.96 593.772 282.66 588.916 283.746 584H283.741Z" fill="black"/>
<path d="M298.587 584.005C298.788 584.512 299.024 585.008 299.19 585.525C301.612 593.041 304.009 600.562 306.472 608.069C306.778 609.011 307.316 609.923 307.924 610.708C313.809 618.265 319.769 625.766 325.608 633.358C326.367 634.341 326.553 635.774 327 637C325.985 636.291 324.784 635.754 323.98 634.852C318.035 628.192 312.678 621.111 308.602 613.083C307.788 611.483 306.045 610.384 305.11 608.818C300.994 601.93 298.486 594.49 298.009 586.411C297.964 585.626 298.1 584.836 298.15 584.046C298.296 584.03 298.441 584.015 298.582 584L298.587 584.005Z" fill="black"/>
<path d="M505 640C505.374 638.027 505.394 636.579 505.923 635.372C512.692 619.9 515.37 603.451 516.954 586.731C516.978 586.496 517.1 586.27 517.192 586C520.885 593.779 511.064 636.208 505 640Z" fill="black"/>
<path d="M271.76 600.01C271.978 602.055 272.301 604.095 272.4 606.144C272.972 617.904 274.662 629.493 277.961 640.844C278.143 641.469 277.643 642.28 277.461 643C276.827 642.652 276.01 642.441 275.609 641.922C275.058 641.207 274.694 640.296 274.46 639.414C271.364 627.574 269.32 615.618 270.209 603.339C270.256 602.674 270.339 602.004 270.48 601.35C270.579 600.886 270.802 600.448 270.969 600C271.229 600 271.489 600 271.754 600.005L271.76 600.01Z" fill="black"/>
<path d="M519 628.819C519.094 627.168 519.131 625.511 519.291 623.87C520.125 615.326 521.349 606.802 521.714 598.238C521.934 593.133 520.833 587.958 520.327 582.812C520.28 582.34 520.233 581.863 520.186 581.392C520.402 581.261 520.613 581.131 520.828 581C521.395 581.989 522.272 582.913 522.469 583.982C523.106 587.41 523.786 590.884 523.917 594.358C524.311 604.754 523.28 615.045 521.213 625.21C520.95 626.505 520.42 627.735 520.017 629C519.68 628.94 519.338 628.88 519 628.819Z" fill="black"/>
<path d="M306 595.005C311.09 602.43 315.554 609.58 320.685 616.239C325.775 622.847 331.533 628.956 337 635.279C336.811 635.519 336.618 635.76 336.429 636C335.247 635.249 333.81 634.713 332.919 633.712C327.62 627.779 322.076 622.001 317.337 615.648C313.505 610.511 310.657 604.653 307.452 599.07C306.825 597.979 306.581 596.672 306 595V595.005Z" fill="black"/>
<path d="M495 595.65C487.774 611.548 478.869 626.2 464.765 637C464.512 636.834 464.253 636.672 464 636.506C464.527 635.724 464.979 634.872 465.59 634.166C470.282 628.741 475.395 623.639 479.614 617.86C484.325 611.412 488.231 604.353 492.49 597.566C493.027 596.709 493.579 595.857 494.12 595C494.414 595.217 494.707 595.434 495 595.65Z" fill="black"/>
<path d="M528.991 601C531.273 607.743 531.451 614.482 530.326 621.23C529.346 627.097 528.221 632.944 526.854 638.74C526.553 640.02 524.357 642.13 524.077 641.994C521.897 640.926 523.662 639.33 523.894 637.909C525.202 629.907 526.644 621.92 527.807 613.897C528.297 610.508 528.178 607.043 528.41 603.619C528.469 602.737 528.792 601.876 528.991 601.005V601Z" fill="black"/>
<path d="M280.169 582C279.091 590.048 278.652 598.022 279.456 606.035C280.251 613.963 281.146 621.877 282 629.801C281.767 629.865 281.53 629.935 281.297 630C280.776 628.354 280.082 626.754 279.762 625.063C277.46 613.001 276.236 600.839 277.52 588.522C277.766 586.149 278.173 583.695 280.169 582Z" fill="black"/>
<path d="M560.101 587C563.733 587.185 567.406 587.095 570.989 587.617C578.143 588.654 584.503 591.858 590.576 595.613C592.136 596.581 593.58 597.824 592.765 600C587.376 597.533 582.179 594.786 576.72 592.756C571.286 590.74 565.585 589.447 560 587.837L560.101 587.005V587Z" fill="black"/>
<path d="M541.819 599.005C542.985 599.987 544.496 600.776 545.251 601.976C549.614 608.955 551.354 616.668 551.997 624.624C552.056 625.383 551.141 626.206 550.678 627C550.05 626.043 548.97 625.125 548.869 624.118C548.103 616.48 546.097 609.203 542.24 602.393C541.756 601.54 541.41 600.612 541 599.724L541.814 599L541.819 599.005Z" fill="black"/>
<path d="M251.486 628C249.375 626.153 249.446 621.168 252.13 611.79C253.41 607.321 254.301 602.401 259 599C256.396 609.039 253.969 618.403 251.486 628Z" fill="black"/>
<path d="M531.883 595C532.656 596.229 533.561 597.41 534.18 598.703C537.398 605.443 538.242 612.541 537.944 619.771C537.911 620.53 536.962 621.26 536.437 622C535.979 621.202 535.173 620.423 535.118 619.605C534.594 612.188 533.937 604.802 531.21 597.694C530.934 596.969 531.061 596.122 531 595.328C531.293 595.22 531.591 595.113 531.883 595.005V595Z" fill="black"/>
<path d="M269.995 594.26C269.373 596.574 268.518 598.857 268.183 601.21C267.317 607.224 266.722 613.278 265.915 619.301C265.787 620.237 265.107 621.104 264.688 622C264.125 621.114 263.115 620.242 263.073 619.331C262.701 611.665 263.7 604.19 267.259 597.17C267.817 596.068 268.555 595.052 269.214 594C269.474 594.09 269.734 594.175 270 594.265L269.995 594.26Z" fill="black"/>
<path d="M502.677 584C504.431 588.671 498.676 606.597 494.08 610C494.08 608.98 493.88 608.187 494.113 607.521C496.76 599.85 499.472 592.205 502.185 584.555C502.255 584.353 502.493 584.207 502.683 584H502.677Z" fill="black"/>
<path d="M298.316 608C296.038 606.077 293.326 594.259 294.151 588C295.769 594.595 297.382 601.189 299 607.784L298.316 608Z" fill="black"/>
<path d="M502 608.76L507 587C506.936 594.645 506.337 602.154 502.985 609C502.658 608.922 502.327 608.838 502 608.76Z" fill="black"/>
<path d="M456 385C453.55 393.641 446.572 398.328 439.588 403C439.391 402.832 439.198 402.658 439 402.49C444.665 396.658 450.335 390.832 456 385Z" fill="black"/>
<path d="M522 438C527.228 440.916 532.967 442.779 538 446.912C535.982 447.857 523.833 440.916 522 438Z" fill="black"/>
<path d="M458 412C457.259 416.617 450.726 423.196 447 422.996C450.9 419.438 453.133 414.804 458 412Z" fill="black"/>
<path d="M543 491C539.07 495.596 535.145 500.187 531.023 505C530.515 502.361 538.536 492.88 543 491Z" fill="black"/>
<path d="M455.995 401.617C453.01 406.013 449.283 409.596 444.482 412C444.321 411.829 444.161 411.654 444 411.483C447.808 407.99 451.61 404.498 455.418 401C455.614 401.206 455.804 401.411 456 401.617H455.995Z" fill="black"/>
<path d="M565 460C559.026 457.575 553.704 455.409 548 453.089C551.227 452.325 561.906 456.621 565 460Z" fill="black"/>
<path d="M524 500C526.873 496.473 529.747 492.946 532.962 489C533.52 492.291 527.86 499.356 524 500Z" fill="black"/>
<path d="M498 535.839C494.853 537.583 492.067 539.886 488.518 541L488 540.213L497.456 535C497.639 535.28 497.817 535.559 498 535.839Z" fill="black"/>
<path d="M520.96 515.005C519.585 517.353 518.399 519.912 515 521C516.469 517.708 518.466 516.069 521 515.043L520.96 515V515.005Z" fill="black"/>
<path d="M552.377 460.004C555.584 461.051 558.792 462.098 562 463.144C561.864 463.431 561.723 463.718 561.587 464C558.389 462.962 555.192 461.92 552 460.882C552.126 460.586 552.251 460.295 552.377 460V460.004Z" fill="black"/>
<path d="M506 528.753C504.769 530.061 503.538 531.369 502 533C502.035 529.697 503.131 528.418 505.584 528L506 528.753Z" fill="black"/>
<path d="M509 526.973C509.083 524.245 510.299 522.877 513 523.009C511.816 524.877 510.827 526.442 509.837 528C509.56 527.654 509.282 527.313 509.005 526.967L509 526.973Z" fill="black"/>
<path d="M521.043 514.995C521.276 512.659 523.005 511.709 525 511C524.514 513.112 523.016 514.275 521 514.952L521.049 515L521.043 514.995Z" fill="black"/>
<path d="M550 483.55C549.228 484.701 548.457 485.848 547.68 487C547.452 486.838 547.228 486.68 547 486.517L549.224 483C549.484 483.182 549.74 483.363 550 483.55Z" fill="black"/>
<path d="M363 404C353.63 399.337 347.189 391.769 343 382C348.186 390.792 356.163 396.817 363 404Z" fill="black"/>
<path d="M269.294 506L259 491.982C259.234 491.653 259.467 491.329 259.701 491C260.36 491.428 261.193 491.7 261.641 492.321C263.062 494.269 264.334 496.353 265.68 498.375C266.83 500.103 268.032 501.801 269.154 503.55C269.518 504.12 269.724 504.825 270 505.467C269.762 505.645 269.528 505.817 269.289 505.995L269.294 506Z" fill="black"/>
<path d="M280 439.701C275.783 442.121 271.576 444.56 267.333 446.935C267.012 447.115 266.453 446.87 266 446.82C266.163 446.254 266.137 445.427 266.514 445.172C267.903 444.235 269.368 443.373 270.899 442.687C273.794 441.384 276.754 440.222 279.69 439C279.791 439.23 279.893 439.466 279.995 439.696L280 439.701Z" fill="black"/>
<path d="M277 500C272.67 499.348 267.81 493.844 268.006 490C271.066 493.4 273.822 496.463 277 500Z" fill="black"/>
<path d="M351 423C347.803 420.245 345.157 417.136 344 413C348.129 415.068 349.958 418.77 351 423Z" fill="black"/>
<path d="M235.005 457.821C240.906 455.882 246.806 453.939 252.707 452C252.803 452.258 252.904 452.52 253 452.778L235.445 459C235.298 458.608 235.152 458.217 235 457.821H235.005Z" fill="black"/>
<path d="M354.515 411C350.648 408.235 347.42 404.996 346 400.411C346.179 400.272 346.352 400.138 346.531 400C349.356 403.536 352.175 407.068 355 410.604C354.837 410.738 354.678 410.866 354.515 411Z" fill="black"/>
<path d="M239 462.975L247.664 460C247.778 460.267 247.886 460.539 248 460.806C245.109 461.871 242.222 462.935 239.331 464C239.222 463.658 239.109 463.317 239 462.975Z" fill="black"/>
<path d="M284.976 522C282.907 520.269 281.165 518.808 279 517.001C283.099 516.965 285.252 518.752 284.976 522Z" fill="black"/>
<path d="M294 528C296.79 528.179 298.442 529.051 298.996 531.153C299.057 531.38 298.375 532.041 298.183 531.998C296.031 531.516 294.621 530.329 294 528Z" fill="black"/>
<path d="M250.924 482C253.29 483.057 253.62 485.534 255 487.284C254.669 487.521 254.344 487.763 254.014 488C252.674 486.255 251.34 484.505 250 482.76C250.308 482.506 250.616 482.253 250.924 482Z" fill="black"/>
<path d="M292.091 527C290.726 526.284 289.366 525.567 288 524.851C288.096 524.602 288.193 524.353 288.295 524.104C289.221 524.104 290.455 523.833 291.002 524.165C291.905 524.707 292.356 525.637 293 526.406C292.699 526.603 292.392 526.803 292.091 527Z" fill="black"/>
<path d="M276.75 511C277.5 512.07 278.25 513.141 279 514.216C278.774 514.476 278.548 514.741 278.322 515C277.547 513.951 276.776 512.903 276 511.854C276.251 511.568 276.503 511.286 276.75 511Z" fill="black"/>
<path d="M306.337 539C305.225 537.999 304.112 537.003 303 536.001C303.237 535.668 303.475 535.334 303.712 535L307 538.077C306.778 538.382 306.56 538.688 306.337 539Z" fill="black"/>
<path d="M463 271.965L452 268.996C452.111 268.666 452.222 268.33 452.333 268C455.879 269.332 459.424 270.668 462.97 272L463 271.965Z" fill="black"/>
<path d="M370 285.72C371.636 285.482 373.268 285.238 374.904 285C374.937 285.277 374.966 285.559 375 285.836C373.383 286.222 371.761 286.614 370.144 287C370.096 286.576 370.048 286.151 370 285.72Z" fill="black"/>
<path d="M352.496 346.995C351.332 345.129 350.164 343.263 349 341.401L349.531 341C350.686 342.857 351.845 344.718 353 346.575L352.496 347V346.995Z" fill="black"/>
<path d="M365 458C365.158 450.856 364.763 443.646 368 437C367.916 444.139 366.75 451.122 365 458Z" fill="black"/>
<path d="M389.995 510C389.024 515.529 383.417 525.378 380 524.989C380.212 524.589 380.306 524.123 380.572 523.962C383.491 522.183 385.158 519.444 386.351 516.208C386.953 514.569 388.9 513.615 388.526 511.369C388.466 511.017 389.482 510.462 390 510H389.995Z" fill="black"/>
<path d="M371.593 474C370.071 470.681 371.696 462.865 374 462C373.592 466.262 373.141 470.243 371.593 474Z" fill="black"/>
<path d="M375.24 457C373.121 455.73 372.384 452.677 373.556 451.47C373.895 451.122 374.729 450.89 375.149 451.053C375.568 451.217 376.031 451.965 375.998 452.424C375.891 453.842 375.552 455.245 375.24 457Z" fill="black"/>
<path d="M428.909 475C428.535 473.365 428.099 471.744 427.802 470.084C427.464 468.206 427.203 466.305 427.004 464.398C426.959 463.963 427.301 463.469 427.464 463C427.794 463.198 428.376 463.339 428.417 463.6C428.986 467.302 429.487 471.018 430 474.729C429.634 474.821 429.271 474.908 428.905 475H428.909Z" fill="black"/>
<path d="M417 523C412.399 520.382 412.478 515.046 410 511.396C410.193 511.264 410.387 511.132 410.58 511C412.671 514.909 414.762 518.812 417 523Z" fill="black"/>
<path d="M424.654 457C424.398 455.082 424.129 453.452 424.001 451.817C423.977 451.545 424.584 451 424.9 451C425.407 451 426.044 451.236 426.394 451.571C427.625 452.745 426.948 455.522 424.654 457Z" fill="black"/>
<path d="M435.143 547C435.143 545.711 434.788 544.367 435.196 544.126C438.907 541.971 442.747 540.013 446.554 538C446.705 538.197 446.85 538.399 447 538.595C443.284 541.228 439.568 543.865 435.143 547Z" fill="black"/>
<path d="M431.005 541.159C432.248 540.976 433.652 541.072 434.706 540.557C437.773 539.059 440.692 537.315 444 536C442.684 537.016 441.437 538.119 440.037 539.025C438.113 540.268 436.095 541.39 434.077 542.508C432.337 543.471 431.267 543.028 431.042 541.116L431 541.154L431.005 541.159Z" fill="black"/>
<path d="M466.172 596C463.116 590.771 460.061 585.541 457 580.312C457.176 580.206 457.351 580.106 457.527 580C460.683 585.169 463.844 590.338 467 595.507C466.724 595.673 466.448 595.834 466.167 596H466.172Z" fill="black"/>
<path d="M450 541.88C447.82 543.254 445.645 544.627 443.466 546C443.312 545.754 443.159 545.507 443 545.256C445.135 543.837 447.27 542.419 449.41 541C449.609 541.292 449.802 541.589 450 541.88Z" fill="black"/>
<path d="M354.383 538C355.551 538.814 356.674 539.701 357.891 540.416C359.678 541.465 361.572 542.31 363.324 543.411C363.765 543.688 364.07 544.664 363.986 545.243C363.937 545.577 362.764 546.151 362.485 545.963C359.373 543.871 356.267 541.731 354 538.584C354.128 538.391 354.26 538.193 354.388 538H354.383Z" fill="black"/>
<path d="M368.96 539.413C368.222 540.666 367.478 541.913 366.839 543C363.332 540.373 360.168 537.996 357 535.619C357.145 535.411 357.289 535.208 357.429 535C359.689 536.266 361.92 537.58 364.215 538.79C365.692 539.569 367.189 540.675 369 539.451L368.96 539.413Z" fill="black"/>
<path d="M356.497 547C354.663 545.653 352.829 544.306 351 542.959C351.236 542.641 351.472 542.323 351.709 542C353.884 542.883 355.452 544.603 357 546.354C356.834 546.571 356.668 546.783 356.503 547H356.497Z" fill="black"/>
<path d="M335 591.603C336.185 589.734 337.366 587.869 338.551 586C338.702 586.071 338.849 586.142 339 586.212C337.9 588.143 336.801 590.069 335.701 592L335 591.603Z" fill="black"/>
<path d="M366.266 566.004C369.512 566.802 372.754 567.604 376 568.402C375.927 568.601 375.855 568.801 375.782 569C372.444 568.46 368.874 568.558 366 566.743C366.092 566.497 366.179 566.25 366.271 566L366.266 566.004Z" fill="black"/>
<path d="M382.754 571C381.17 570.614 379.585 570.233 378 569.847C378.073 569.566 378.151 569.286 378.223 569C379.814 569.366 381.41 569.732 383 570.098C382.916 570.399 382.833 570.694 382.749 570.995L382.754 571Z" fill="black"/>
<path d="M435 567.306C431.091 568.204 427.187 569.102 423.278 570C423.184 569.675 423.094 569.349 423 569.024L434.573 566C434.717 566.435 434.856 566.866 435 567.301V567.306Z" fill="black"/>
</svg>
