<svg width="800" height="800" viewBox="0 0 800 800" fill="none" xmlns="http://www.w3.org/2000/svg">
<g clip-path="url(#clip0_8061_317)">
<path d="M400.387 330.398C408.653 312.448 431.815 301.341 451.076 301.91C471.384 302.501 492.181 315.188 502.642 332.445C524.973 369.266 510.408 409.327 484.824 439.646C476.364 449.684 465.778 457.858 458.001 468.419C463.186 472.648 467.939 477.525 472.589 482.322C493.932 504.342 515.49 526.454 536.787 548.565C565.225 578.099 585.942 596.152 603.589 634.701C605.693 639.294 618.621 669.692 616.916 672.011C612.561 669.942 607.603 668.794 603.225 666.839C569.455 651.731 545.543 635.383 519.277 609.759C487.303 578.554 454.885 547.416 423.253 515.756C419.841 512.346 415.384 510.004 414.611 504.502C412.189 504.217 402.661 512.596 399.397 513.562L386.492 504.513C386.435 505.684 385.866 506.605 385.161 507.503C372.551 523.373 352.494 539.641 337.792 554.158C315.71 575.962 293.765 600.358 270.944 621.059C249.215 640.76 219.129 656.573 192.249 668.158C190.793 668.783 183.38 672.193 182.538 671.352C182.664 668.328 183.96 665.134 185.063 662.292C190.702 647.843 199.412 628.835 206.917 615.296C224.678 583.26 252.626 561.638 276.539 534.627L341.226 470.897C343.034 470.727 356.826 484.266 358.668 482.675C359.509 481.947 356.019 479.799 356.053 479.026C323.795 449.252 284.407 415.409 285.806 367.129C286.42 345.689 301.019 320.815 319.815 310.436C349.788 293.895 381.614 302.455 400.375 330.41L400.387 330.398ZM399.079 356.215C398.056 341.437 389.846 326.613 376.997 319.03C344.546 299.863 307.694 318.234 297.29 352.771C283.952 397.027 321.93 436.929 352.05 463.815C361.681 472.409 373.768 483.152 383.899 490.894C385.935 492.451 398.635 501.159 400.068 501.159C402.047 501.159 414.133 491.838 416.601 489.928C450.44 463.622 501.516 422.139 504.393 376.451C508.316 314.142 431.655 286.301 404.264 339.243C401.512 344.563 401.353 349.235 399.954 354.806C399.784 355.488 400.045 356.431 399.09 356.238L399.079 356.215ZM601.69 655.448C601.884 653.959 601.338 652.663 600.883 651.299C586.852 609.578 561.177 586.352 531.909 556.079C508.577 531.956 485.017 508.071 461.651 483.993C458.683 488.507 453.441 491.428 448.745 493.941L450.076 496.237C494.023 542.176 541.768 584.886 584.498 631.95C586.431 634.076 601.622 651.992 600.371 653.481L594.197 649.4C537.458 621.491 496.604 569.38 451.076 526.363C442.742 518.485 433.941 511.05 425.572 503.206C425.288 504.445 426.266 504.786 426.891 505.525C428.801 507.787 431.439 510.618 433.497 512.823C451.349 531.922 471.805 550.054 490.487 568.391C517.594 594.981 538.379 619.65 571.297 639.862C574.174 641.624 600.542 656.744 601.702 655.471L601.69 655.448ZM339.907 507.582C343.545 503.888 346.774 499.659 350.72 496.226L337.155 485.972L235.491 588.887C221.721 604.632 211.34 623.288 202.949 642.409C202.016 644.546 196.922 655.584 197.775 656.755C210.726 650.06 223.961 643.796 236.378 636.099C266.999 617.115 292.958 585.602 318.598 560.081C334.381 544.37 356.041 526.726 369.538 509.72C370.039 509.083 371.79 507.275 370.925 506.48C352.63 523.702 334.29 540.868 316.358 558.512C296.846 577.724 277.903 599.392 257.709 617.717C246.657 627.744 229.385 637.873 216.093 644.955C214.046 646.047 203.21 651.89 201.743 650.798C202.903 647.979 203.938 645.717 205.734 643.205C209.919 637.35 218.31 629.483 223.575 623.97C261.518 584.272 301.349 546.621 339.907 507.571V507.582ZM556.004 612.408L448.075 506.502C450.064 508.571 451.713 511.061 453.68 513.141C471.634 532.217 491.237 550.361 510.01 568.709C523.211 581.623 536.969 596.766 550.705 608.793C552.092 610.009 554.253 611.897 556.015 612.42L556.004 612.408ZM476.956 542.505C465.073 530.887 453.032 519.405 441.104 507.833L440.127 508.151C457.285 526.044 475.08 543.381 492.749 560.808C510.192 578.008 528.748 597.755 546.725 614.091C555.435 622.003 564.941 629.017 575.868 633.61C570.808 629.313 564.623 626.698 559.369 622.64C546.555 612.727 534.149 599.312 522.552 587.955C507.235 572.961 492.295 557.511 476.967 542.517L476.956 542.505ZM356.03 512.459C354.45 512.766 352.596 514.381 351.391 515.426C339.634 525.476 326.808 538.845 315.619 549.838C293.39 571.665 271.99 596.174 248.783 616.739C241.574 623.128 233.126 627.619 225.599 633.61C234.991 629.972 243.178 623.89 250.773 617.41L356.053 512.471L356.03 512.459ZM343.443 515.768L341.123 517.086C330.753 527.022 320.986 537.503 310.684 547.553C299.268 558.694 287.841 569.709 276.584 580.987C265.327 592.264 252.888 604.314 241.472 616.376L243.792 615.057L343.443 515.756V515.768Z" fill="black"/>
<path d="M668.424 135.582C668.879 135.321 668.333 133.4 671.71 134.946C672.779 135.434 675.565 138.174 676.008 139.243C677.6 143.085 674.951 144.461 675.281 146.541C675.462 147.712 677.35 149.701 677.964 151.202C685.787 170.346 678.351 193.094 656.792 197.823C653.813 198.482 648.355 198.153 646.49 198.778C645.171 199.221 645.035 201.461 644.114 202.359C640.998 205.371 635.438 202.086 634.813 202.654C632.004 212.533 625.989 223.504 620.133 232.007C607.91 249.753 593.151 260.018 579.222 275.206C578.722 275.752 577.949 276.081 577.21 276.161L603.987 309.97L605.295 310.515C623.192 307.946 630.708 330.012 622.499 343.608C614.334 357.148 589.774 357.716 583.964 341.869C582.304 337.344 583.247 330.194 582.145 327.795C581.496 326.397 573.264 317.041 571.57 315.199C570.16 313.664 560.563 303.854 559.733 304.001L517.298 343.71L514.933 344.04L511.192 337.378C511.17 336.89 512.614 334.696 513.069 334.173C516.252 330.478 522.415 325.021 526.201 321.486C533.888 314.301 542.655 308.162 549.386 299.989L537.151 308.606C528.078 316.495 518.504 324.169 510.635 333.093C508.986 333.115 507.702 330.148 507.235 328.784L507.713 327.568L523.575 313.585L533.479 302.637C532.421 302.49 531.682 303.126 530.886 303.672C526.759 306.491 523.552 311.152 519.948 314.574C518.185 316.234 507.27 326.635 506.371 326.863C505.234 327.147 502.892 324.396 503.995 323.168C511.784 316.063 520.164 309.413 526.201 300.648L503.665 321.52C501.732 323.35 496.365 316.12 496.456 315.631L531.5 282.777L517.56 284.482C516.116 279.856 516.048 274.956 516.605 270.204L481.186 304.991L473.238 300.33L511.556 261.371C507.053 255.982 502.403 249.957 497.07 245.376C489.929 239.237 490.839 241.272 482.243 240.34C461.992 238.134 461.458 207.463 478.366 199.551C488.326 194.89 502.187 196.504 507.349 207.293C509.896 212.613 507.804 216.569 510.59 221.264L537.777 241.067C538.936 240.203 539.357 238.714 540.517 237.862C542.541 236.384 545.372 236.85 546.748 235.486C548.226 234.019 549.056 230.199 550.136 228.278C559.847 211.044 578.733 194.253 595.107 183.203C599.212 180.43 604.499 177.781 608.956 175.519C606.512 170.005 606.83 165.321 613.311 163.65C610.469 141.585 632.959 124.453 654.018 130.148C656.576 130.842 666.923 136.458 668.413 135.628L668.424 135.582ZM632.38 175.257C609.081 154.317 645.91 126.408 665.536 151.702C671.153 158.932 671.46 170.357 667.162 178.383C662.864 186.409 646.9 191.127 638.599 189.217C627.718 186.716 623.465 177.508 617.245 169.539C614.312 172.21 619.167 177.906 621.214 180.123C624.341 183.51 634.733 190.945 639.179 191.343C640.76 191.479 646.468 190.888 648.287 190.627C663.91 188.444 673.177 180.486 672.563 163.866C671.562 137.162 634.995 126.033 622.987 150.77C614.118 169.039 636.973 187.683 654.165 181.271C654.859 181.009 656.133 181.043 655.973 180.123C647.787 181.566 638.827 181.055 632.368 175.257H632.38ZM655.985 150.986C644.648 139.493 624.977 149.167 632.561 165.469C636.075 173.006 641.863 175.03 650.015 174.814L643.42 173.143C637.462 171.165 632.448 164.196 636.45 158.262C636.996 167.129 645.092 163.423 649.674 159.58C654.586 155.454 652.096 155.397 650.686 150.327L655.973 150.975L655.985 150.986ZM622.885 195.333C621.987 193.139 610.855 180.884 608.979 182.76L609.923 185.454L622.885 195.333ZM619.565 203.28C618.394 198.994 613.686 193.89 610.309 191.025C608.501 189.501 603.862 185.238 601.702 187.728L614.278 197.652L619.565 203.28ZM615.597 208.577C616.336 207.827 608.092 198.664 607 197.652C605.431 196.197 597.563 189.797 595.744 191.377L597.051 193.696L615.597 208.577ZM610.287 213.875C610.446 212.658 609.616 211.794 608.956 210.908C607.069 208.361 602.771 203.734 600.371 201.62C598.939 200.358 591.366 194.617 589.774 196.004C589.604 197.334 590.888 198.198 591.753 198.982C597.347 204.178 604.635 208.589 610.298 213.875H610.287ZM598.143 210.135C595.346 207.338 588.876 201.802 585.146 200.938C583.975 200.665 583.964 200.585 583.145 201.643L605.329 220.502C606.057 219.343 604.226 217.194 603.555 216.319C602.259 214.602 599.655 211.669 598.143 210.146V210.135ZM484.972 204.769C476.558 206.19 470.702 220.093 476.228 227.096C477.479 228.687 482.118 231.529 484.131 231.768C506.815 234.542 507.497 200.961 484.972 204.769ZM601.02 226.459C602.316 225.016 591.036 213.909 589.422 212.579C587.42 210.93 584.248 208.554 581.963 207.452C580.928 206.952 576.994 204.86 576.527 206.94C576.186 208.463 598.882 223.015 601.02 226.459ZM594.402 231.097C595.675 229.688 584.919 219.07 583.464 217.876C582.577 217.149 570.524 208.452 570.581 212.897L594.402 231.097ZM588.444 237.043C587.682 232.655 583.68 228.983 580.519 226.118C578.779 224.538 567.01 215.387 565.282 217.194C565.134 218.206 565.282 218.74 565.896 219.547C567.977 222.287 578.847 228.699 582.417 231.495L588.444 237.054V237.043ZM582.486 242.341C583.543 241.113 573.355 230.631 571.9 229.426C568.716 226.778 565.146 224.709 561.302 223.14C561.075 224.868 561.541 226.107 562.928 227.141L582.486 242.341ZM595.061 313.176C595.334 311.959 594.686 311.345 594.175 310.424C592.537 307.48 588.091 302.535 585.783 299.625C564.577 272.955 545.691 254.163 517.139 235.179C515.718 234.235 505.678 227.744 505.018 228.437C504.131 233.098 510.999 235.258 514.501 237.816C532.683 251.094 552.854 267.68 568.261 284.039C576.141 292.406 584.43 304.831 592.412 312.198C593.31 313.028 593.708 313.414 595.073 313.176H595.061ZM577.187 248.309C577.21 246.933 575.959 245.762 575.186 244.694C571.922 240.215 563.565 232.098 558.426 230.313C556.117 229.506 556.208 232.007 557.63 233.11C564.793 237.305 571.161 242.648 577.187 248.309ZM588.444 321.122C589.604 318.087 588.046 316.768 586.136 314.494C564.372 288.677 536.537 261.723 509.589 241.408C507.827 240.078 502.187 235.588 500.72 234.985C499.64 234.531 499.435 234.917 498.389 235.065C498.105 236.338 499.037 236.645 499.776 237.316C519.97 255.653 542.416 272.785 561.643 291.974C570.365 300.682 577.767 310.788 586.329 319.599C586.977 320.269 586.977 321.474 588.444 321.122ZM571.888 254.266C572.718 253.311 565.157 245.069 563.952 244C561.018 241.386 556.64 238.328 552.683 237.725L571.877 254.266H571.888ZM567.909 262.212C569.057 260.928 559.108 250.833 557.641 249.65C556.174 248.468 549.659 244.171 548.249 243.796C546.032 243.216 545.384 245.285 547.044 247.013C548.567 248.604 555.083 251.935 557.539 253.731C561.154 256.369 564.543 259.291 567.92 262.212H567.909ZM614.698 321.361C606.091 311.755 591.957 319.724 590.49 331.444C589.058 342.858 604.272 349.201 612.629 342.324C618.132 337.788 619.542 326.761 614.71 321.361H614.698Z" fill="black"/>
<path d="M191.203 175.416C205.518 183.817 219.527 193.423 231.557 204.928C236.708 209.85 242.757 216.33 246.657 222.276C248.351 224.868 252.57 234.644 253.559 235.565C255.06 236.963 261.075 236.611 261.359 241.681L290.331 221.025C288.398 203.973 301.27 193.662 317.655 197.63C337.883 202.529 339.907 233.667 320.258 239.351C310.548 242.159 310.775 238.043 301.724 245.978C299.007 248.366 288.842 258.29 288.591 261.337L326.228 300.591C323.726 300.443 320.645 305.82 318.951 304.945L283.19 269.488L281.189 285.38L269.944 283.061L303.692 316.177L298.086 322.441L273.923 299.943C274.776 302.057 277.005 304.547 278.54 306.252C282.895 311.095 288.501 314.699 292.787 319.144C293.288 319.667 295.948 322.759 296.13 323.1C296.903 324.532 294.936 325.726 293.731 325.464C292.344 325.158 286.056 319.542 284.509 318.155C279.768 313.903 275.64 308.89 270.944 304.581L270.626 305.559L292.366 327.954L289.501 331.762L251.421 298.624C250.955 299.124 255.401 304.229 256.038 304.934C260.938 310.368 267.033 314.744 272.298 319.792C277.562 324.839 282.36 330.069 287.523 335.059C288.921 338.083 284.873 340.755 284.498 343.619C283.52 343.892 282.952 343.528 282.178 343.017C277.494 339.959 268.829 329.307 264.008 324.771C256.64 317.814 248.419 311.425 241.768 303.876C240.938 303.74 240.437 304.138 239.801 304.558C236.492 306.741 223.211 320.929 220.687 324.51C216.684 330.194 218.913 329.921 218.242 335.969C215.297 362.4 173.169 358.296 175.25 328.727C175.841 320.326 181.981 311.459 190.828 310.549C192.681 310.356 197.4 311.3 198.275 310.39C199.003 308.651 199.958 307.082 201.107 305.593C208.384 296.18 215.866 286.767 223.597 277.775C219.618 274.853 217.23 270.556 213.682 267.169C209.282 262.974 203.176 259.211 198.764 254.948C184.017 240.726 173.908 222.355 164.698 204.269C159.013 204.007 155.738 203.382 152.998 198.062C127.903 203.189 113.292 175.621 121.115 154.124C121.911 151.941 124.537 148.258 124.822 146.518C125.413 142.949 122.013 139.834 126.584 136.423C130.166 133.752 134.18 134.843 138.318 133.593C141.161 132.74 143.469 130.796 146.642 130C164.323 125.544 183.698 137.856 186.439 156.022C186.757 158.102 185.995 161.206 186.837 162.911C187.485 164.23 191.328 165.446 192.192 168.175C193.113 171.085 191.18 172.665 191.203 175.428V175.416ZM178.559 165.549C182.357 139.97 151.486 127.067 134.885 146.041C120.33 162.684 125.674 190.718 150.758 189.376L141.229 186.659C118.011 173.131 130.575 137.981 157.535 141.891C166.347 143.165 175.057 151.236 174.636 160.581C174.42 165.367 164.266 179.725 158.694 181.1L150.769 182.76C164.164 185.17 171.27 174.575 177.251 164.548L178.57 165.549H178.559ZM150.758 175.473C162.39 177.371 173.863 162.547 166.938 152.35C165.426 150.133 161.389 147.212 158.751 146.643C155.352 145.916 149.052 146.189 148.12 150.315L150.098 150.634L146.858 155.181C148.723 157.818 159.24 166.651 162.06 164.594C164.118 163.104 161.514 158.819 161.685 156.932C163.152 158.125 164.027 159.626 164.016 161.558L165.324 159.58C165.824 164.912 162.504 171.858 157.262 173.688L150.769 175.462L150.758 175.473ZM159.365 191.377C159.684 192.48 160.411 192.866 161.526 192.582C162.913 192.23 171.759 186.364 173.272 185.09C176.478 182.385 187.166 170.767 179.23 168.868C176.307 178.554 169.11 187.887 159.354 191.388L159.365 191.377ZM191.715 184.67L190.816 182.112C189.372 182.067 181.231 190.081 179.889 191.695C179.264 192.434 178.286 192.764 178.57 194.014L191.715 184.67ZM199.753 186.75C195.08 184.874 191.453 190.058 187.837 192.377L181.879 200.653L199.753 186.762V186.75ZM185.199 207.918L205.712 192.366C205.154 191.877 204.688 191.002 203.926 190.797C199.935 189.74 188.895 201.677 186.53 204.951C185.881 205.849 185.029 206.69 185.199 207.918ZM211.01 196.004C208.281 193.219 193.454 207.474 191.476 209.896C190.987 210.498 188.644 213.329 189.168 213.875L210.567 198.016L211.01 196.004ZM217.56 202.552C218.356 198.107 212.898 201.552 210.817 202.757C209.032 203.791 207.031 205.326 205.405 206.61C203.551 208.077 192.943 217.888 194.466 219.832L217.56 202.552ZM308.183 204.769C305.181 205.28 300.997 208.759 299.61 211.43C292.662 224.834 311.31 238.339 321.27 229.779C332.209 220.377 323.999 202.086 308.183 204.769ZM199.105 226.459C203.54 222.855 207.895 219.115 212.409 215.603C215.161 213.465 220.425 210.532 222.517 208.498C224.223 206.838 223.95 205.11 221.585 205.53C215.001 206.713 201.266 219.661 199.105 226.448V226.459ZM229.465 213.806L229.544 212.238L228.032 211.328C221.983 211.658 206.564 225.004 205.723 231.757C210.646 227.767 215.263 223.378 220.346 219.57C221.869 218.433 229.215 214.284 229.476 213.806H229.465ZM235.514 219.832C234.729 213.818 225.508 220.889 222.995 222.878C221.05 224.413 209.373 235.69 211.022 237.714C218.924 231.518 226.326 224.026 235.514 219.832ZM237.322 223.935C234.923 224.367 227.668 229.608 225.576 231.416C224.143 232.655 217.048 240.203 216.991 241.351C216.98 241.658 218.128 242.818 218.629 241.681L239.835 225.811C240.915 224.163 238.777 223.674 237.322 223.935ZM241.699 267.737C228.282 281.06 217.594 298.624 205.052 312.857L206.701 314.506C217.889 302.433 227.566 287.665 239.13 276.093C248.999 266.214 263.679 255.005 274.924 246.342C281.439 241.317 288.375 236.838 295.084 232.075C296.687 227.323 293.344 228.847 290.684 230.324C276.778 238.055 253.047 256.471 241.699 267.737ZM244.121 229.767C242.745 228.324 232.853 235.702 231.227 237.066C229.851 238.225 221.562 246.058 222.938 247.638L243.974 232.28C244.235 231.814 244.212 229.881 244.11 229.767H244.121ZM301.065 235.076C297.949 233.792 299.064 234.769 297.915 235.702C271.615 256.926 248.544 276.57 225.906 301.921C222.381 305.877 215.161 313.676 212.739 317.882C212.307 318.621 211.226 319.564 212.011 320.474H214.024C219.254 314.29 224.405 307.912 229.885 301.921C248.647 281.436 269.955 264.565 290.49 246.001C292.946 243.784 298.359 239.305 300.087 237.054C300.587 236.395 301.372 236.213 301.076 235.065L301.065 235.076ZM228.237 252.936L246.054 240.635L248.09 238.055C247.294 237.032 247.26 237.043 246.077 237.339C243.246 238.032 233.388 245.842 231.204 248.297C230.693 248.877 227.759 252.458 228.237 252.936ZM228.896 265.52C232.83 262.121 236.696 258.449 240.858 255.312C244.292 252.731 251.103 249.355 253.627 246.899C255.958 244.637 254.355 243.159 251.58 244.182C245.747 246.319 237.504 253.811 233.535 258.586C232.887 259.359 228.453 265.043 228.885 265.52H228.896ZM186.746 340.755C194.83 348.837 209.703 345.12 209.725 332.717C209.725 327.329 207.622 321.702 202.562 319.326C187.405 312.232 176.353 330.376 186.757 340.755H186.746Z" fill="black"/>
<path d="M396.418 577.997C394.201 579.963 393.939 583.851 392.768 586.591C388.118 597.448 377.077 616.762 363.637 616.432C355.155 616.228 358.873 610.919 358.679 605.132C372.551 607.577 382.205 593.003 387.936 582.408C393.132 572.801 397.032 561.945 396.418 550.85L391.245 561.888C384.161 577.144 352.71 600.415 336.894 588.194C333.471 585.557 331.811 582.419 332.197 577.985C342.556 579.179 352.278 581.839 362.648 578.304C386.947 570.039 393.644 543.506 396.361 520.769L402.695 519.712C406.606 540.811 413.429 568.175 435.51 576.985C446.551 581.396 456.295 580.429 467.518 577.269C470.963 585.693 460.798 592.105 453.078 591.9C435.374 591.422 416.783 575.086 408.482 560.319L403.729 550.19C404.4 561.843 408.744 575.803 414.702 585.875C420.547 595.777 428.87 606.201 441.491 606.087C444.413 611.283 443.936 616.239 437.17 617.058C422.252 618.865 412.178 595.492 406.709 584.59L403.718 575.337C401.922 596.356 400.659 626.937 424.89 635.247C420.512 637.793 420.08 642.306 414.315 639.874C407.311 636.906 406.163 629.642 401.08 624.981L405.765 656.426C405.23 659.552 404.992 662.758 403.741 665.713C401.194 671.716 398.238 672.296 395.236 666.236C389.403 654.482 396.771 638.634 396.43 626.311L390.164 634.94C384.058 641.204 378.43 640.999 373.268 633.928C383.069 633.917 390.085 624.708 393.451 616.376C394.144 614.648 396.441 608.179 396.441 606.792V577.997H396.418Z" fill="black"/>
<path d="M519.584 376.735C519.629 375.007 517.685 368.754 519.971 368.209C528.908 368.879 536.969 369.436 545.202 373.302C569 384.499 579.734 410.294 568.705 434.781C568.147 436.008 566.237 437.873 566.101 438.748C565.953 439.703 567.499 443.182 567.749 444.773C570.422 462.257 564.6 478.594 550.273 489.166C528.203 505.457 499.776 495.634 481.186 479.026C479.105 477.173 468.985 466.85 468.701 464.986C468.496 463.633 471.657 461.064 473.431 461.564C474.443 461.848 486.257 474.001 488.827 476.013C505.212 488.882 529.135 496.385 547.066 481.981C552.035 477.991 560.654 466.157 560.654 459.813V448.229C551.421 456.448 541.575 464.201 529.385 467.612C522.301 469.59 509.669 473.353 502.801 472.637C497.843 472.125 490.635 469.135 486.291 466.634C480.697 463.406 473.795 459.165 478.946 452.14C480.754 451.833 489.259 459.393 492.01 460.916C500.959 465.873 514.74 469.283 518.936 456.835C517.833 457.369 517.549 458.222 516.048 458.154C515.172 458.12 503.995 454.664 502.801 454.107C492.01 449.127 496.536 434.576 505.462 430.427C524.485 421.582 536.401 442.431 528.226 458.142C535.639 457.881 542.939 453.584 548.442 448.9C550.205 447.399 557.061 440.635 557.675 438.919C559.415 434.053 551.637 424.618 548.101 421.4C541.415 415.33 534.047 411.828 524.939 414.807C521.312 415.989 518.197 420.184 515.081 415.307C514.979 408.884 522.449 406.281 527.884 405.826C545.247 404.371 554.526 415.33 563.326 428.358C569.785 409.623 561.871 391.729 544.997 382.146C541.495 380.157 533.069 376.723 529.238 376.723H519.641L519.584 376.735ZM512.159 436.463C508.384 436.85 504.109 441.124 505.28 444.944C506.189 447.911 517.901 456.198 520.471 455.459C521.949 455.039 523.336 449.173 523.382 447.729C523.575 441.613 518.504 435.815 512.159 436.463Z" fill="black"/>
<path d="M279.222 376.746C254.537 376.189 233.081 392.594 234.866 418.774C234.923 419.65 236.162 429.29 237.492 428.381C244.599 414.659 259.608 402.472 275.947 406.167C279.541 406.974 287 411.271 284.191 415.819C281.883 419.57 277.414 415.489 274.731 414.671C262.519 410.93 249.829 421.31 244.019 431.257C243.269 432.553 240.608 437.293 241.12 438.305C249.215 447.968 259.79 456.676 272.605 458.836C269.046 451.208 268.932 443.227 273.162 435.895C283.088 418.661 309.024 433.348 302.304 449.139C300.087 454.357 290.934 456.005 291.241 452.674C293.049 448.207 297.813 444.978 294.459 439.976C291.4 435.395 285.021 435.997 281.189 439.294C273.31 446.103 279.143 457.915 286.17 462.815C296.619 470.102 311.333 459.848 319.281 452.856L324.898 457.847C315.824 467.157 302.27 474.456 288.876 472.682C286.352 472.353 283.907 470.738 281.496 470.136C265.009 466.02 258.073 464.679 244.781 453.22L239.835 448.252C237.947 449.116 239.289 457.744 239.664 459.666C242.12 472.262 253.479 484.994 265.976 488.302C290.263 494.748 311.06 477.968 326.887 461.792C329.378 462.724 332.891 463.997 330.901 467.146C329.594 469.226 321.293 476.957 318.962 479.037C303.078 493.168 282.94 501.705 261.496 495.43C242.564 489.894 230.954 469.67 231.523 450.526C231.614 447.422 233.592 441.386 233.479 439.271C233.456 438.794 230.34 432.496 229.749 430.506C220.903 400.472 238.8 374.143 269.125 368.959C271.058 368.629 278.54 367.436 279.131 369.221L279.222 376.746Z" fill="black"/>
<path d="M404.378 303.251C406.652 300.75 408.039 297.51 410.074 294.714C420.092 280.924 439.683 265.839 457.705 272.114C463.743 274.217 471.748 283.459 465.449 288.689C460.139 293.099 458.081 286.222 454.658 283.766C443.867 276.036 428.915 284.198 420.899 292.304C412.883 300.409 409.449 312.63 400.068 319.167C396.759 319.167 388.027 303.558 385.707 300.398C377.975 289.825 364.785 276.661 350.254 281.913C345.569 283.607 342.545 292.201 336.461 288.723C328.263 284.028 338.031 273.717 344.091 271.784C355.53 268.146 371.733 275.013 380.215 282.709C386.628 288.541 390.187 295.509 394.94 302.387C395.338 302.967 394.826 303.615 396.418 303.251C397.385 299.989 396.475 297.158 396.418 294.304C396.259 285.949 395.941 277.491 395.088 269.158C394.576 264.111 389.289 245.922 400.58 248.423C410.415 250.605 404.105 271.58 403.684 278.389C403.195 286.301 403.616 295.396 404.378 303.24V303.251Z" fill="black"/>
<path d="M366.457 544.37C368.742 543.927 372.949 544.768 372.608 547.826C372.449 549.247 370.437 550.043 371.562 552.18C372.563 554.09 376.531 553.328 377.862 555.147C367.878 572.017 352.198 547.155 366.446 544.37H366.457Z" fill="black"/>
<path d="M423.56 554.169C433.6 554.306 426.289 548.144 426.925 545.995C428.062 542.164 437.057 543.46 438.489 548.178C442.185 560.285 426.073 566.742 423.548 554.169H423.56Z" fill="black"/>
<path d="M473.67 257.108C480.458 256.767 482.345 267.214 476.376 269.647C467.211 273.398 464.187 257.574 473.67 257.108Z" fill="black"/>
<path d="M324.056 257.71C333.948 255.482 334.642 270.704 325.989 270.136C318.939 269.67 318.212 259.029 324.056 257.71Z" fill="black"/>
<path d="M532.478 509.401C536.947 510.459 541.313 514.005 538.118 518.746C532.205 527.522 521.506 513.551 532.478 509.401Z" fill="black"/>
<path d="M265.725 509.31C270.046 508.833 273.673 515.051 270.501 519.303C266.032 525.305 258.096 517.859 261.996 512.118C262.621 511.197 264.634 509.435 265.725 509.31Z" fill="black"/>
<path d="M547.237 337.788C551.217 337.128 553.957 341.3 551.66 344.927C546.475 353.112 537.39 339.425 547.237 337.788Z" fill="black"/>
<path d="M532.637 351.725C540.096 349.531 542.768 358.785 536.981 360.058C530.272 361.536 527.918 353.112 532.637 351.725Z" fill="black"/>
<path d="M557.8 505.297C561.325 504.252 565.566 507.401 564.134 510.925C561.473 517.473 553.093 512.823 555.185 507.992C555.549 507.139 556.913 505.559 557.812 505.297H557.8Z" fill="black"/>
<path d="M557.129 357.011C561.109 355.818 565.089 360.228 562.894 364.105C558.914 371.153 549.557 359.285 557.129 357.011Z" fill="black"/>
<path d="M316.722 609.214C322.624 610.533 324.909 617.126 317.893 619.047C312.106 617.172 311.253 612.522 316.722 609.214Z" fill="black"/>
<path d="M251.228 338.458C261.643 336.298 254.923 355.09 246.873 343.21C246.555 341.607 249.681 338.777 251.228 338.458Z" fill="black"/>
<path d="M480.083 611.328C484.835 606.508 492.476 616.557 483.619 619.218C480.571 620.127 476.626 614.841 480.083 611.328Z" fill="black"/>
<path d="M239.3 505.286C242.734 504.286 247.066 509.379 244.417 512.425C241.506 515.768 238.243 513.835 236.276 510.663C235.9 509.072 237.686 505.764 239.3 505.286Z" fill="black"/>
<path d="M237.697 364.628C234.513 360.683 239.687 354.476 243.803 358.182C248.351 362.286 241.563 369.414 237.697 364.628Z" fill="black"/>
<path d="M263.804 351.691C267.465 350.622 270.853 354.135 268.545 357.796C264.122 364.798 256.504 353.828 263.804 351.691Z" fill="black"/>
<path d="M204.722 396.163C206.212 396.163 209.214 399.289 209.066 400.87C208.907 402.541 205.734 404.496 204.722 405.86L200.424 400.926C200.379 399.369 203.21 396.163 204.722 396.163Z" fill="black"/>
<path d="M593.515 396.038C598.984 397.721 599.53 402.893 594.084 405.224C589.046 402.643 588.717 399.164 593.515 396.038Z" fill="black"/>
<path d="M205.382 421.321C214.365 424.902 206.178 434.61 201.175 425.97C200.902 424.561 203.995 421.321 205.382 421.321Z" fill="black"/>
<path d="M265.123 205.405C271.399 203.984 272.104 211.055 267.476 212.442C263.099 213.75 259.585 206.667 265.123 205.405Z" fill="black"/>
<path d="M592.89 421.196C595.187 420.548 597.449 423.708 597.609 425.527C597.699 426.493 594.459 429.733 593.413 429.733C588.887 428.54 588.683 422.378 592.89 421.196Z" fill="black"/>
<path d="M531.318 204.712C534.479 203.859 537.606 207.656 535.184 210.623C530.34 216.58 525.087 206.394 531.318 204.712Z" fill="black"/>
<path d="M244.246 527.568C244.815 517.666 257.891 524.964 248.976 530.194L244.246 527.568Z" fill="black"/>
<path d="M196.263 278.196C201.016 276.9 202.062 285.653 197.4 286.074C193.329 286.449 192.317 279.264 196.263 278.196Z" fill="black"/>
<path d="M549.795 522.554C554.571 522.054 555.503 529.034 550.989 529.682C545.929 530.41 545.452 523.009 549.795 522.554Z" fill="black"/>
<path d="M602.793 278.867C608.467 276.9 609.172 284.619 605.022 285.778C601.236 286.836 599.587 279.981 602.793 278.867Z" fill="black"/>
<path d="M264.736 183.51C267.704 182.158 271.672 182.146 271.274 186.341C270.706 192.287 263.122 188.592 264.736 183.51Z" fill="black"/>
<path d="M529.976 182.192C534.172 180.975 534.843 187.58 531.728 188.626C527.077 190.195 526.611 183.169 529.976 182.192Z" fill="black"/>
<path d="M311.662 382.032C307.694 376.871 303.817 371.153 299.428 366.128C298.734 364.901 298.609 359.671 300.735 360.183C307.637 369.164 314.846 378.383 322.987 386.261C335.995 398.846 351.277 406.701 367.298 414.784L381.193 419.752C373.848 421.116 365.684 417.501 358.896 414.579C341.84 407.224 324.841 395.038 311.662 382.021C329.878 405.678 347.843 409.236 371.699 422.958C374.951 424.822 376.838 427.596 380.067 429.153C394.69 436.156 431.098 429.517 446.255 423.572C462.652 417.137 475.489 405.849 487.815 393.628L499.39 380.043C500.106 380.964 499.754 382.976 499.413 384.045C497.764 389.172 477.365 408.509 472.226 412.465C450.849 428.915 422.821 434.121 396.418 434.985C396.248 436.668 396.384 436.065 397.419 436.349C399.147 436.827 406.811 437.498 408.676 437.498C433.054 437.498 458.217 427.755 476.865 412.454C485.063 405.724 491.442 397.288 499.06 389.967C496.252 400.847 486.2 409.725 477.524 416.421C451.27 436.656 418.648 445.478 386.537 434.621C385.707 434.337 374.826 430.506 375.917 429.688L377.896 429.028C359.862 422.003 341.089 414.761 325.659 402.802C321.293 399.414 315.187 393.901 311.424 389.888C309.058 387.364 300.133 376.939 299.052 374.45C298.177 372.426 298.382 370.869 298.45 368.777C299.712 368.55 300.246 368.982 301.145 369.721C304.09 372.165 308.228 378.588 311.696 382.01L311.662 382.032Z" fill="black"/>
<path d="M375.747 431.882C378.248 435.247 382.216 435.702 386.64 437.157C404.992 443.205 417.022 444.512 436.158 439.965C455.295 435.417 469.167 427.289 483.835 414.148C487.246 411.09 490.089 407.327 493.75 404.541C490.452 413.113 482.755 420.275 475.523 425.709C447.745 446.57 410.847 451.537 378.748 438.43C357.053 429.563 324.932 413.841 309.331 396.606C304.431 391.195 298.234 384.443 298.416 376.735C299.689 376.451 299.996 377.383 300.667 378.122C312.595 391.161 318.598 400.517 334.233 410.771C340.555 414.921 374.359 430.006 375.747 431.882Z" fill="black"/>
<path d="M302.645 391.013C307.978 395.651 312.561 401.813 317.973 406.508C334.881 421.173 380.954 444.489 402.899 448.047C425.47 451.696 454.544 443.727 473.169 430.643C474.636 429.608 478.718 425.425 479.525 425.084C480.333 424.743 480.844 425.277 480.503 426.061C480.355 426.402 476.182 431.143 475.568 431.734C461.264 445.546 423.571 456.039 404.321 452.595C381.784 448.559 362.67 439.146 342.522 428.983L325.557 419.138C324.818 419.786 331.708 424.129 332.391 424.538C349.685 435.122 374.121 446.808 393.61 452.038C407.243 455.698 412.758 456.971 427.107 454.789C441.457 452.606 453.919 448.309 465.926 441.636L461.969 445.944C449.052 456.141 422.786 460.655 406.64 459.529C381 457.744 335.131 435.019 315.608 418.138C311.992 415.011 307.501 410.203 307.33 405.223L316.336 412.772L322.237 416.137C314.243 408.85 301.611 402.313 301.724 389.99C302.714 389.74 302.236 390.684 302.634 391.025L302.645 391.013Z" fill="black"/>
<path d="M433.498 470.09C431.599 472.944 428.187 474.274 425.538 476.354C424.412 477.241 423.98 478.605 423.059 479.367C416.51 484.767 402.342 485.335 394.292 483.789C383.99 481.811 369.55 476.104 362.648 468.101C368.288 469.999 373.677 472.387 379.362 474.228C392.404 478.446 401.308 480.731 415.236 479.287C415.873 479.219 417.727 478.992 417.613 478.025C413.701 477.741 409.176 478.912 405.355 478.73C390.199 478.025 356.542 467.066 346.763 455.175C346.149 454.425 345.16 454.107 345.444 452.856C359.146 459.268 372.551 466.134 387.163 470.397C399.136 473.887 409.437 474.842 421.854 473.308C425.982 472.796 429.745 471.716 433.509 470.068L433.498 470.09Z" fill="black"/>
<path d="M453.362 454.198C448.529 459.984 440.718 461.894 433.623 463.247C422.445 465.384 406.8 467.385 395.736 465.134C376.088 461.132 334.119 441.17 320.258 426.732C318.814 425.232 317.711 423.299 316.302 421.753L341.681 437.089C367.469 450.458 395.236 464.27 425.22 461.462C435.374 460.518 443.833 457.358 453.373 454.198H453.362Z" fill="black"/>
<path d="M441.446 463.463C442.605 464.52 438.444 466.009 437.932 466.225C413.099 476.923 391.506 472.728 367.514 462.246C353.108 455.96 337.587 447.957 328.229 434.997L346.32 446.354C371.267 458.256 394.599 470.488 423.241 467.419C429.575 466.737 435.294 464.906 441.457 463.451L441.446 463.463Z" fill="black"/>
<path d="M501.038 370.119C502.426 371.46 495.058 381.43 493.739 383.01C472.146 408.748 442.674 425.788 408.664 427.71C398.419 428.289 386.151 428.176 376.565 424.731C376.349 423.083 377.02 423.947 377.918 424.038C405.856 426.823 425.402 426.334 451.167 413.931C465.221 407.167 481.265 392.548 491.453 380.725C493.25 378.645 497.445 371.676 498.685 370.744C499.492 370.141 500.027 369.971 501.038 370.13V370.119Z" fill="black"/>
<path d="M375.883 411.84C376.02 413.079 374.53 412.397 373.893 412.181C357.338 406.679 341.487 399.028 327.899 387.978C322.362 383.476 302.68 363.4 300.769 357.511C300.246 355.908 300.326 354.544 300.406 352.919C301.668 352.691 302.202 353.123 303.1 353.862C305.613 355.954 310.548 363.65 313.311 366.822C325.83 381.157 336.871 391.798 353.597 401.347C360.556 405.326 368.458 408.873 375.883 411.84Z" fill="black"/>
<path d="M383.842 419.763C383.888 418.74 386.833 418.433 387.481 418.445C394.383 418.57 400.045 421.105 407.925 420.343C444.174 416.865 468.735 397.141 491.749 371.085C492.511 370.221 500.072 358.478 501.038 363.173C491.328 378.429 476.694 392.332 461.912 402.825C440.115 418.297 410.131 424.208 383.842 419.752V419.763Z" fill="black"/>
<path d="M353.381 395.936L336.223 386.284C329.616 380.145 303.077 356.659 303.021 348.61C303.021 347.564 303.635 346.643 303.726 345.62C309.923 352.373 315.176 359.956 321.259 366.811C331.026 377.826 341.339 387.432 353.381 395.924V395.936Z" fill="black"/>
<path d="M328.445 365.912C328.934 366.469 329.946 366.731 330.56 367.424C334.085 371.437 337.394 375.609 340.794 379.713C340.896 380.202 340.123 380.157 339.816 380.032C338.895 379.657 330.901 372.995 329.537 371.767C324.511 367.288 309.331 350.838 307.103 345.211C306.375 343.381 305.534 341.164 307.364 339.663C313.823 348.792 321.088 357.477 328.457 365.901L328.445 365.912Z" fill="black"/>
<path d="M498.389 352.907C498.401 354.067 498.548 355.249 498.23 356.386C495.785 364.957 469.201 389.058 461.253 394.89C457.296 397.8 452.122 401.381 447.404 402.552C452.555 398.266 458.57 395.083 463.641 390.661C475.796 380.077 487.144 367.072 496.684 354.158C497.229 353.407 496.684 352.509 498.389 352.907Z" fill="black"/>
<path d="M463.3 375.405C469.838 364.742 482.505 357.5 488.576 346.723C489.452 345.166 492.943 339.595 489.441 339.629C487.94 339.652 484.506 346.268 483.153 347.917C479.821 351.964 473.147 358.853 469.292 362.525C467.132 364.582 464.369 365.935 462.31 368.118L461.992 367.14L488.133 338.936C496.433 338.129 488.997 348.769 486.768 352.18C481.311 360.524 473.238 367.663 465.642 374.086C464.903 374.711 464.562 375.689 463.322 375.405H463.3Z" fill="black"/>
<path d="M416.942 484.653C412.644 490.064 402.627 490.701 396.191 489.837C387.367 488.654 380.443 485.403 374.564 478.685C388.209 484.084 402.183 487.779 416.942 484.641V484.653Z" fill="black"/>
<path d="M338.804 369.459C338.474 369.857 331.197 363.855 330.48 363.207C326.66 359.762 310.571 342.358 310.036 338.436C309.911 337.526 310.411 336.605 310.355 335.696L337.769 366.867L338.815 369.459H338.804Z" fill="black"/>
<path d="M462.64 384.681C462.356 383.442 463.345 383.112 463.959 382.362C471.145 373.745 480.117 366.629 487.121 357.852C490.009 354.237 493.386 349.929 494.751 345.632C495.228 346.2 496.115 346.666 496.32 347.416C496.82 349.258 488.224 360.342 486.462 362.491C481.277 368.789 474.397 375.291 468.257 380.702C467.621 381.271 463.095 385.147 462.652 384.693L462.64 384.681Z" fill="black"/>
<path d="M322.532 340.05C328.4 347.587 335.404 354.317 340.794 362.172C340.066 362.82 332.811 356.5 331.834 355.579C329.048 352.941 315.335 337.504 314.721 334.877C314.357 333.331 315.528 332.649 316.29 331.387L322.532 340.05Z" fill="black"/>
<path d="M409.665 489.95C406.947 493.088 403.172 495.373 399.397 496.999L387.811 489.291C393.348 490.235 398.783 492.77 404.537 491.769C406.424 491.44 407.812 490.121 409.665 489.95Z" fill="black"/>
<path d="M487.132 335.685C482.834 336.992 479.98 342.483 476.899 345.654C474.534 348.076 471.089 350.702 468.576 353.214C466.063 355.727 463.868 360.49 459.991 360.854L485.143 333.365L487.132 335.696V335.685Z" fill="black"/>
<path d="M327.797 338.799C328.059 339.072 329.036 338.924 329.298 339.209C330.913 340.891 342.033 352.725 340.794 354.237C334.585 349.588 325.944 340.743 322.635 333.672C322.407 333.195 321.634 331.171 322.919 332.058C324.238 334.343 325.989 336.912 327.797 338.811V338.799Z" fill="black"/>
<path d="M431.508 320.474L426.834 324.066L423.196 325.067C418.602 329.773 413.838 334.207 409.267 338.947C408.585 339.652 408.312 340.63 407.016 340.323C412.428 331.058 421.013 323.305 431.508 320.474Z" fill="black"/>
<path d="M347.002 324.862C349.64 328.147 352.983 330.933 354.711 335.025C353.529 335.275 353.085 334.423 352.38 333.718C348.878 330.239 343.864 324.669 340.816 320.781C340.293 320.121 338.679 318.143 338.804 317.507L340.452 316.506C342.226 318.655 344.33 320.69 346.104 322.804C346.57 323.361 346.558 324.339 346.991 324.873L347.002 324.862Z" fill="black"/>
<path d="M467.655 338.06C464.789 341.027 461.765 343.858 458.99 346.939C458.399 344.006 462.981 341.255 464.96 339.004C468.246 335.264 471.714 329.932 475 326.567C476.49 325.044 478.093 325.658 477.229 327.42C475.853 330.205 470.099 335.525 467.655 338.049V338.06Z" fill="black"/>
<path d="M389.789 338.345C383.695 332.524 377.282 326.954 371.915 320.474C372.472 319.985 374.541 321.736 375.155 322.191C380.693 326.181 387.72 331.626 389.778 338.345H389.789Z" fill="black"/>
<path d="M471.907 322.452C472.203 323.805 471.6 324.214 470.941 325.123C469.986 326.442 456.102 341.812 455.363 340.982C455.363 339.663 456.568 338.356 457.364 337.356C461.128 332.57 465.847 328.511 469.224 323.395L471.919 322.452H471.907Z" fill="black"/>
<path d="M444.754 315.836C442.526 319.962 438.478 322.6 435.499 326.113C433.475 328.511 432.338 330.774 430.689 333.218C429.87 334.434 429.802 334.57 428.199 334.354C429.927 330.83 432.008 327.488 434.487 324.419C435.772 322.827 443.106 314.54 444.754 315.824V315.836Z" fill="black"/>
<path d="M473.658 340.755C470.872 343.574 466.597 347.757 463.629 350.258C462.89 350.884 462.549 351.861 461.31 351.577C460.844 351.145 468.655 342.699 469.474 341.869C469.883 341.46 471.179 341.448 471.93 340.698C475.443 337.174 478.502 333.502 480.844 329.08L482.209 331.706C479.264 334.616 476.569 337.81 473.658 340.755Z" fill="black"/>
<path d="M364.456 318.007C365.183 318.757 365.786 321.042 366.946 322.475C369.834 326.067 373.916 327.886 377.236 330.728C378.089 331.456 383.877 336.912 383.183 337.685C377.85 333.002 370.118 328.477 365.627 323.134C365.161 322.588 362.125 318.428 362.011 318.144C361.283 316.45 363.864 317.382 364.467 318.007H364.456Z" fill="black"/>
<path d="M459.98 316.495L459.024 319.167L444.106 335.025C445.471 331.058 448.871 327.158 451.611 323.998C452.088 323.452 453.089 323.168 453.726 322.486C454.624 321.497 458.376 314.881 459.991 316.495H459.98Z" fill="black"/>
<path d="M346.092 315.836L348.753 316.802C352.107 322.463 357.122 326.601 360.385 332.32C360.988 333.365 361.886 333.149 360.328 334.354L346.092 315.836Z" fill="black"/>
<path d="M449.394 337.674L464.96 319.155C465.926 319.928 466.017 319.974 465.676 321.167C464.914 323.862 454.408 334.093 451.713 336.355C450.974 336.981 450.633 337.958 449.394 337.674Z" fill="black"/>
<path d="M453.362 315.836L438.842 332.763L436.147 333.695L449.576 316.688L453.362 315.836Z" fill="black"/>
<path d="M414.964 337.674L427.539 326.431C426.061 331.808 420.183 336.128 414.964 337.674Z" fill="black"/>
<path d="M363.967 327.749C362.375 326.192 352.574 316.859 354.04 315.176L358.668 318.814L363.955 327.749H363.967Z" fill="black"/>
<path d="M336.461 338.731C338.429 340.721 341.464 342.358 341.453 345.632C340.578 346.712 332.379 336.992 332.857 335.037C334.551 335.73 335.279 337.549 336.461 338.731Z" fill="black"/>
<path d="M339.463 327.09C335.904 325.385 333.755 322.986 331.527 319.815L334.551 320.429L339.463 327.09Z" fill="black"/>
<path d="M495.535 212.101C502.164 219.843 492.863 233.678 482.311 228.301C469.997 222.026 486.2 201.211 495.535 212.101ZM486.95 213.318C483.858 214.17 481.993 220.343 486.155 221.15C494.989 222.867 492.465 211.806 486.95 213.318Z" fill="black"/>
<path d="M603.521 321.963C618.132 320.144 617.803 342.54 603.987 343.017C599.894 343.153 593.231 338.151 593.038 334.036C592.765 328.091 597.745 322.679 603.521 321.963ZM604.158 325.862C596.346 327.09 602.873 337.344 607.66 332.058C610.309 329.148 607.057 325.408 604.158 325.862Z" fill="black"/>
<path d="M320.042 226.891C315.278 231.802 304.453 229.54 303.203 222.651C301.895 215.421 304.351 208.759 312.663 209.191C320.975 209.623 325.364 221.412 320.031 226.891H320.042ZM310.116 213.329C306.762 214.5 306.887 221.332 312.765 221.628C320.088 222.003 316.836 210.964 310.116 213.329Z" fill="black"/>
<path d="M193.625 321.952C210.51 318.86 212.807 347.144 193.124 342.005C183.767 339.561 185.085 323.521 193.625 321.952ZM196.104 326.022C191.362 326.249 190.987 334.798 197.411 333.706C202.323 332.865 200.413 325.817 196.104 326.022Z" fill="black"/>
<path d="M404.275 246.717C406.493 244.751 406.754 240.863 407.925 238.123C412.576 227.266 423.617 207.952 437.057 208.282C445.539 208.486 441.821 213.795 442.014 219.581C428.142 217.137 418.488 231.711 412.758 242.306C407.561 251.912 403.661 262.769 404.275 273.864L409.449 262.826C416.533 247.57 447.984 224.299 463.8 236.52C467.223 239.157 468.883 242.295 468.496 246.729C458.137 245.535 448.416 242.875 438.046 246.41C413.747 254.675 407.05 281.208 404.332 303.945L397.999 305.002C394.087 283.903 387.265 256.539 365.183 247.729C354.143 243.318 344.398 244.284 333.175 247.445C329.73 239.021 339.895 232.609 347.616 232.814C365.32 233.291 383.911 249.627 392.211 264.395L396.964 274.524C396.293 262.871 391.95 248.911 385.991 238.839C380.147 228.937 371.824 218.513 359.202 218.627C356.28 213.431 356.758 208.475 363.523 207.656C378.441 205.849 388.516 229.222 393.985 240.124L396.975 249.377C398.772 228.358 400.034 197.777 375.803 189.467C380.181 186.921 380.613 182.408 386.378 184.84C393.382 187.807 394.531 195.072 399.613 199.733L394.929 168.288C395.463 165.162 395.702 161.956 396.953 159.001C399.5 152.998 402.456 152.418 405.458 158.478C411.291 170.232 403.923 186.08 404.264 198.403L410.529 189.774C416.635 183.51 422.263 183.715 427.426 190.786C417.624 190.797 410.609 200.005 407.243 208.338C406.549 210.066 404.253 216.535 404.253 217.922V246.717H404.275Z" fill="black"/>
</g>
<defs>
<clipPath id="clip0_8061_317">
<rect width="562" height="543" fill="white" transform="translate(119 129)"/>
</clipPath>
</defs>
</svg>
