<svg width="800" height="800" viewBox="0 0 800 800" fill="none" xmlns="http://www.w3.org/2000/svg">
<g clip-path="url(#clip0_8061_325)">
<path d="M291.45 330.45C281.84 332.05 260.5 341.87 252.41 347.65C251.64 348.2 251.24 350.4 250.33 348.96C249.96 347.65 248.34 342.64 249.56 341.8C275.12 330.07 302.2 321.35 330.07 316.85C347.58 314.02 365.88 311.99 383.64 312.74C391.42 313.07 399.87 314.72 407.59 315.04C409.61 315.13 412.26 315.46 412.43 312.77C404.77 311.79 397.02 310.48 389.31 309.92C365.94 308.21 342.55 310.54 319.87 315.23C315.6 316.11 297.56 319.94 295.11 321.88C294.49 322.37 294.38 323.46 294.23 323.57C294.13 323.65 292.62 322.96 291.73 322.99C287.67 323.14 276.81 327.26 272.44 328.88C264.56 331.8 256.6 335.18 249.42 339.55C247.45 339.86 247.91 332.72 247.73 331.01C277.28 318.53 308.31 309.23 340.29 305.42C366.59 302.29 393.85 301.73 419.69 308.1L421.37 307.77C444.97 289.47 467.49 269.84 490.02 250.27C495.1 245.86 500.75 241.99 505.74 237.45C510.36 233.25 528 215.98 527.65 210.31C527.6 209.52 526.73 208.88 526.58 208.02C525.57 202.09 530.01 198.8 535.59 200.15C536.36 200.34 537.43 201.36 537.69 201.35C537.95 201.34 541.66 198.47 540.24 197.21C536.86 194.2 528.61 196.89 525.18 190.01C519.59 178.77 530.81 168.19 542.08 173.68C549.95 177.52 547.88 185.64 548.82 192.92C552.13 191.09 551.29 187.14 552.41 184.25C553.69 180.95 558.49 178.35 561.91 179.54C564.16 180.32 565.23 184.05 568.62 180.2C572.01 176.35 561.87 176.66 560.08 176.23C549.81 173.77 548.81 158.02 558.69 154.01C567.18 150.57 575.79 156.44 576.05 165.41C576.1 167.28 574.2 174.7 575.94 175.23C578.27 175.93 578.31 172.6 578.52 172.39C578.61 172.3 580.14 173.46 580.77 172.08C580.71 170.6 579.57 171.87 579.58 169.84C579.59 164.67 583.5 165.23 586.44 163.49C587.6 162.8 588.64 160.81 589.75 160.49C593.3 159.46 596.56 163.93 598.61 163.73C603.91 161.82 613.33 155.91 618.76 155.81C621.22 155.76 624.67 156.86 627.27 157C632.93 157.29 638.65 155.67 644.16 156.66C653.45 158.34 663.56 166.55 663.59 176.66C663.6 180.16 661.98 184.03 661.81 187.48C661.4 195.87 664.93 198.78 660.79 208.15C658.77 212.73 657.43 212.68 654.67 215.73C651.42 219.32 648.28 222.98 644.82 226.39L646.99 231.49C652.52 230.3 658.2 230.54 661.17 236.11C667.07 247.18 656.6 259.95 644.69 254.31C638.17 251.22 637.9 243.63 639.58 237.45L632.56 236.28L619.61 249.13L621.35 253.41C643.74 245.59 644.33 282.12 622.99 277.71C616.56 276.38 613.46 270.78 613.32 264.55C613.29 263 614.42 261.34 613.8 259.51C613.49 258.6 609.28 256.42 608.2 257.11C605.66 259.98 601.85 261.56 599.04 263.97C596.51 266.14 594.77 267.29 596.29 270.74C598.55 275.87 601.68 273.66 606.04 275.25C614.33 278.28 615.19 290.95 609.26 297.01C599.78 306.72 585.58 297.86 587.77 285.22C588.01 283.85 589.08 282.55 589.25 281.51C589.52 279.84 586.21 276.04 584.95 275.75C584.11 275.56 583.16 276.28 582.27 276.18C569.32 274.74 560.28 275.81 549.96 284.5C537.8 294.74 524.54 308 513.07 319.23C504.87 327.26 495.6 336.31 487.8 344.6C483.04 349.66 478.39 355.21 476.39 362.04C480.7 388.3 486.06 414.63 484.9 441.44C484.02 461.89 480.07 492.3 472.52 511.24C470.61 516.05 465.48 514.27 461.38 515.51C459.03 516.22 456.93 517.87 454.66 518.77C453.69 513.25 448.86 505.05 442.67 505.07C441.23 503.68 451.52 481.22 452.8 477.82C461.35 455.08 468.45 427.89 471.13 403.7C471.73 398.27 473.83 368.61 470.64 366.1C468.78 364.64 468.43 371.23 468.35 372.39C467.54 384.15 468.7 395 467.13 407.12C463.4 435.89 452.34 472.95 439.91 499.18C438.71 501.72 438.13 503.99 434.68 503.36C433.72 502.43 443.32 481.41 444.39 478.55C446.9 471.85 449.24 464.42 451.38 457.57C460.27 429.1 466.64 400.56 464.08 370.38L417.85 410.88L409.86 401.78L392.14 418.32C391.28 420.04 393.87 425.83 394.35 428.12C396.3 437.39 396.52 445.64 394.56 454.95C393.83 458.4 392.5 461.63 391.86 465.09C390.31 465.09 388.39 465.63 387.33 464.27C388.78 461.21 389.84 457.11 390.48 453.73C392.35 443.78 392.02 435.27 388.9 425.6C388.61 424.7 388.29 422.6 387.33 422.33C385.94 426.11 388.55 428.76 389.35 432.57C390.84 439.64 390.34 450.87 388.3 457.84C387.41 460.89 385.17 466.64 381.29 464.03L380.76 459.43C377.55 460.41 381.45 466.5 376.25 465.07C374.73 464.65 376.53 459.61 376.75 458.27C377.88 456.78 386.23 459.6 386.21 453.43C386.21 451.98 383.8 448.3 382.75 447.16C381.99 446.33 377.94 443.67 377.74 443.33C377.06 442.12 376.9 434.52 375.36 433.42L373.01 434.1C374.74 442.76 374.51 451.34 369.34 458.85C366.89 456.88 367.24 451.99 365.65 450C364.06 448.01 360.83 448.94 358.79 447.74C361.99 443.92 366.44 441.26 369.63 437.47C370.17 436.83 371.01 436.54 370.76 435.47C368.84 437.27 366.44 438.59 364.48 440.31C363.02 441.6 358.39 446.99 357.24 447.33C355.13 447.96 349.53 447.23 347.07 446.89C346.22 446.77 345.65 446.91 345.09 446.02C345.13 444.16 367.18 427.72 368.48 423.48C367.63 422.81 364.41 425.73 363.64 426.34C357.49 431.2 349.6 438.35 344.19 444.01C343.57 444.66 343.11 446.88 342.23 445.34C342.08 442.73 336.95 439.21 338.76 436.86L363.63 414.92L368.76 421.76L371.25 419.98C372.31 418.14 366.75 415.86 366.25 413.94L367.33 411.49L360.21 416.07C353.53 421.39 347.39 427.87 340.77 433.16C340.21 433.61 337.51 435.85 337.08 435.46C337.08 432.67 334.38 429.68 335.66 426.91C339.89 421.31 348.19 416.87 352.21 411.5C353.01 410.43 353.84 409.55 353.62 408.06L333.98 424.6C332.95 424.37 330.73 418.14 331.11 417.16C333.97 413.01 338.97 410.29 341.89 406.29C342.49 405.47 344.43 401.25 343.93 400.64C343.1 399.64 342.89 401.71 341.98 401.83C338.09 402.32 332.23 398.8 330.81 403.49C333.65 403.63 337.49 403.85 340.17 404.69C340.81 404.89 341.55 404.89 341.65 405.77L330.52 414.9C328.99 411.69 327 410.57 323.38 410.34L323.95 407.49L321.39 409.84C319.25 409.94 317.85 408.73 316.55 407.21C320.01 405.14 324.57 405.36 327.1 401.79L327.67 402.93L328.53 400.65C326.67 401.1 324.65 401.04 322.8 401.47C319.96 402.14 313.72 405.45 311.71 405.54C306.95 405.74 308.39 398 311.19 396.13C313.88 396.49 318.8 402.22 321.41 399.51C322.4 398.48 321.72 398.63 320.9 398.31C318.59 397.41 316.11 396.66 313.7 396.08C313.82 394.47 314.78 393.57 315.1 395.52L320.8 392.11L323.11 397.23C325.16 396.25 322 391.09 321.12 390.66C317.72 388.99 315.51 393.68 312.83 394.94C311.13 395.46 312.77 391.88 311.14 392.67C310.09 393.17 307.59 400.16 307.36 401.74L301.71 401.22C303.41 399.35 306.37 398.76 306.27 395.52C303.61 396.54 301.65 398.26 300.21 400.7L296.01 398.93C295.67 398.45 301.16 394.64 301.9 394.27C310.34 390.09 319.97 387.34 329.4 386.96C332.51 386.84 337.62 386.13 339.11 389.26C339.71 389.26 341.91 387.6 342.68 387.1C343.28 386.7 344.19 386.57 342.82 386.09C341.45 385.61 337.85 385.3 336.27 385.22C325.31 384.62 313.05 387.48 303.13 392.09C301.18 393 295.11 397.34 294.37 397.51C293.36 397.74 289.73 396.84 289.74 395.81C301.71 385.67 321.7 379.51 337.38 380.69C341.21 380.98 346.96 383.44 350.17 382.06C351.41 381.52 353.77 379.83 355.09 378.99C358.07 377.1 378.42 360.97 378.72 359.21C378.17 357.98 377.08 356.61 376.2 355.57C375.14 354.33 370.91 351.19 371.59 349.88L407.29 317.92C405.84 317.94 404.48 317.43 403.04 317.32C370.75 314.95 340.95 317.7 309.59 325.49C304.13 326.85 296.23 328.68 291.45 330.46C292.42 330.3 295.66 329.41 296.01 330.46C288.33 331.68 282.84 337.21 276.44 340.85C268.78 345.2 260.26 348.66 252.44 352.63L250.94 351.3C257.16 345.88 265.29 343.43 272.55 339.82C278.89 336.66 284.96 332.91 291.45 330.47V330.45ZM571.65 165.52C571.9 161.02 565.69 154.82 561.39 157.82L568.18 161.87L571.66 165.52H571.65ZM569.37 167.23C569.62 166.07 569.11 165.71 568.54 164.93C568.13 164.37 562.77 159.5 562.27 159.22C561.16 158.59 560.34 158.56 559.1 158.68L561.68 162.09L569.37 167.24V167.23ZM639 160.39C630.72 162.28 621.37 160.42 613.32 162.38C596.25 166.53 558.82 189.66 544.83 201.18C536.1 208.37 529.8 217.75 522.27 226.03C521.62 227.25 524.28 230.66 525.46 229.74C525.82 229.45 527.69 224.73 528.41 223.55C537.95 208.03 557 195.91 572.29 186.39C587.58 176.87 605.04 166.55 622.82 163.87C625.83 163.42 628.9 163.58 632.18 162.96C633.57 162.7 635.37 162.24 636.7 161.78C637.34 161.56 639 161.17 639 160.38V160.39ZM614.47 180.36C618.06 178.51 643.43 163.77 643.56 161.81C642.69 160.65 642.56 160.96 641.46 161.4C638.85 162.43 632.91 167.77 629.83 169.75C625.9 172.29 621.6 174.13 617.71 177.04C616.61 177.86 614.52 178.85 614.47 180.36ZM565.95 169.51C567.37 167.72 558.97 162.07 557.4 161.52C555.66 163.86 564.26 168.48 565.95 169.51ZM648.7 162.67L646.22 163.32L620.17 183.2C624.87 181.56 629.23 178.91 633.25 176.02C637.27 173.13 642.56 169.1 646.13 166.07C646.6 165.67 649.36 163.23 648.71 162.66L648.7 162.67ZM580.79 228.87C577.02 230.09 573.43 232.27 570.25 234.59C565.21 238.26 562.6 242.32 558.55 246.29C555.05 249.72 549.73 252.22 546.04 255.47C544.79 256.57 542.27 261.29 540.26 260L536.32 254.92C550.38 242.9 564.87 231.22 579.71 220.09C595.33 208.38 611.53 197.38 627.54 186.31C634.8 181.29 643.69 174.9 650.14 168.96C650.55 168.58 655.05 164.49 652.41 164.39C650.88 164.33 637.12 176.72 634.7 178.63C606.24 201.07 575.22 217.8 547.69 241.71C543.36 245.47 538.38 248.33 534.8 252.81C533.76 253.04 531.27 247.84 529.15 248.26C526.25 248.84 530.51 253.98 532.27 254.25L513.64 270.99C512.08 271.3 509.26 267.09 507.74 266.23C512.68 262.19 517.22 257.23 521.99 253.1C529.01 247.02 535.67 241.89 543.87 237.32C548.02 235 552.48 233.1 556.81 231.13C556.35 229.35 553.05 230.78 551.54 231.19C548.17 232.1 534.6 238.78 531.17 241.16C529.86 242.07 529.35 244.25 527.42 244.84C526.44 243.26 522.06 238.99 520.29 240.28C521.57 242.62 522.49 245.67 525.42 246.26L508.02 261.96C504.67 264.34 505.5 262.84 503.77 261.09C502.51 259.81 501.22 258.72 499.76 257.68C500.94 256.59 501.96 255.3 503.17 254.25C507.3 250.63 524.18 237.7 525.43 233.7C525.52 233.41 525.59 232.77 525.16 232.86C521.53 236.28 519.72 238.15 517.36 232.39L514.85 232.82L514.11 234.17L517.44 238.31L498.33 255.11L494.93 251.09C494.16 249.92 492.33 251.3 492.57 252.3C493.34 255.43 498.26 254.62 493.51 259.43C489.51 263.48 484.16 267.04 480.08 271.1C478.79 269.28 477.23 267.11 474.66 267.12C473.9 269.24 478.28 271.08 478.04 272.46C476.66 273.87 467.31 283.28 466.16 282.48C465.75 281.04 464.6 280.04 463.53 279.1C463.05 278.68 462.38 277.41 461.81 278.53C461.21 279.72 463.93 283.14 465.52 283.11V283.94L456.11 292.78L453.15 288.76L450.12 288.81C450.53 291.44 452.94 292.62 454.67 294.23L442.99 304.22C441.01 302.34 439.62 298.62 436.42 299.09C435.58 299.9 439.83 304.74 440.96 304.83V305.63L427.57 318.52C425.85 318.52 423.99 314.42 422.44 313.35C421.74 312.87 421.42 312.29 420.71 313.35C419.21 315.6 423.89 319.44 425.56 320.49L417.02 328.5C414.43 329.07 411.62 322.24 410.47 322.5L409.08 324.94L414.15 330.19C410.37 333.59 407.07 337.64 402.45 340.04C399.01 338.18 399.27 333.31 394.75 334.47C393.77 337.09 400.09 340.69 399.84 342.09L391.52 349.25C390.22 349.48 387.77 345.02 385.87 344.72C383.97 344.42 382.44 345.5 383.86 347.34L389.03 351.86C387 353.76 384.52 356.04 382.75 358.14C382.21 358.78 381.37 359.07 381.62 360.14L391.69 352.82C395 353.54 395.46 357.55 398.73 358.14C395.87 361.2 392.6 363.79 389.59 366.69C388.39 367.85 387.59 369.41 386.19 370.71C379.35 377.05 371.57 382.33 364.51 388.39L371.34 392.42L391.63 375.56C392.69 373.94 387.17 371.78 388.54 369.33L401.02 360.7C401.33 363.65 404.33 365.51 406.73 366.69L373.33 394.38L377.42 398.31L396.52 382.13C397.4 380.93 395.96 380.02 396.97 378.66C397.55 377.87 399.75 376.95 400.72 376.11C403.44 373.75 406.05 371.13 408.73 368.71L413.52 375.76C412.14 378.07 402.13 384.92 402.74 387.25L404.46 387.84L416.15 377.28C417.41 378.5 421.89 383.36 421.51 384.85C420.93 387.11 411.21 392.16 410.73 396.09C416.12 394.73 420.16 390.06 424.14 386.41C425.12 386.41 430.59 396.09 429.7 388.83L425.85 384.68L433.85 377.27C434.74 377.27 437.56 383.89 439.84 383.53C440.5 380.12 438.24 378.27 435.85 376.39L446.98 366.41C447.59 367.51 450.2 371.83 451.53 371.54C453.84 369.33 451.01 366.03 448.4 365.83C448.2 364.83 448.92 364.43 449.53 363.83C452.39 361.06 455.95 358.25 458.96 355.57C460.91 357.41 462.62 363.2 465.44 359.27L461 353.64C461.17 352.68 471.99 343.02 473.21 342.99C474.28 344.39 475.41 348.28 477.82 346.46C478.38 346.03 478.91 345.42 478.39 344.72L474.66 341.57L485.86 331.08L489.19 335.04C489.96 336.21 491.79 334.83 491.55 333.83L487.8 329.54L488.05 328.71C490.55 327.77 497.44 318.75 499.4 319.08C500.23 319.22 500.74 321.09 502.05 320.73C502.36 319.68 501.19 319.36 500.99 318.6C500.51 316.8 508.17 310.91 509.48 309L514.61 311.6C515.14 309.09 511 308.49 512.87 306.16L527.75 291.9C530.22 290.76 531.09 295.22 532.88 294.21C534.22 293.46 530.76 290.79 530.64 290.13L530.84 289.36C536.84 285.33 541.89 277.38 547.43 273.38C548 272.97 548.66 272.23 549.43 272.49C550.48 272.95 552.18 277.06 553.4 276.22L554.49 272.87L551.12 271.36L553.41 265.96L548.91 268.2C547.9 265.73 545.55 263.88 543.15 262.82C547.92 257.79 553.4 253.02 559.18 249.17C562.75 246.79 577.83 239.29 578.84 236.31C579.21 235.22 579.04 233.96 579.36 232.83C579.76 231.4 580.67 230.29 580.81 228.87H580.79ZM564.81 171.23C561.37 170.07 558.61 168.3 556.26 165.52C556.4 168.75 558.57 171.13 561.71 171.76C562.25 171.87 564.85 172.26 564.81 171.23ZM621.88 169.5L621.6 168.37C620.74 169.24 609.59 174.77 611.04 176.36L621.87 169.5H621.88ZM630.45 190.63C633.78 188.71 656.59 170.92 656.68 169.23C656.77 167.54 653.4 169.77 652.98 170.09C646.49 175.07 640.74 182.2 633.85 186.92L630.44 190.64L630.45 190.63ZM658.4 172.94L633.86 195.19C636.02 194.54 638.1 192.61 639.84 191.19C644.27 187.55 649.68 182.86 653.85 178.94C655.48 177.41 658.36 175.22 658.4 172.94ZM560.44 267.9C567.35 262.95 575.43 259.97 582.68 255.58C591.47 250.25 600.85 242.66 609.03 236.27C625.19 223.65 642.84 210.35 655.66 194.44L658.98 175.22C657.81 175.42 658.1 176.48 657.84 177.21C655.79 182.98 655.18 189.82 652.23 195C648.82 201 637.46 210.42 631.86 215.15C619.92 225.24 605.68 236.91 592.97 245.89C581.94 253.68 570.42 259.37 558.56 265.7L558.23 267.12L559.97 268.82C560.42 269.02 560.11 268.15 560.45 267.91L560.44 267.9ZM544.27 183.2C542.49 178.43 538.79 175.05 533.43 176.36L539.9 179.87L544.27 183.2ZM541.98 186.06C543.47 184.42 534.69 178.15 532.92 177.81C532.17 177.66 531.36 178.13 530.58 178.08L531.88 179.91L541.99 186.06H541.98ZM539.13 188.34L536.23 185.26L528.86 180.93C527.44 182.49 535.43 187.1 536.66 187.68C537.47 188.06 538.16 188.54 539.13 188.34ZM555.68 187.2C557.93 187.07 559.29 184.87 560.8 183.49C558 180.92 555.28 184.13 555.68 187.2ZM583.07 184.36L564.62 195.29C559.16 200.12 552.02 202.8 547.69 208.88L560.64 199.29L583.08 184.35L583.07 184.36ZM528.86 186.07C529 188.85 532.69 190.6 535.11 190.95C536.2 191.11 536.62 191.52 537.41 190.34L528.86 186.06V186.07ZM601.73 190.8C601.18 190.2 596.72 187.34 595.87 187.22C588.55 186.18 583.72 191.47 584.79 198.61C585.82 199.68 594.55 192.21 596.02 191.3C596.51 191 597.49 190.08 597.91 190.9C595.2 194.58 590.61 197.39 587.92 200.89C587.48 201.46 586.82 201.61 587.07 202.6C593.05 207.12 607.49 197.06 601.73 190.8ZM560.82 269.95C578.03 266.88 591.2 257.07 604.7 246.78C616.72 237.62 630.93 226.34 641.86 216.03C646.75 211.41 651.73 206.02 654.4 199.76C650.85 203.18 648.27 207.47 644.71 210.9C632.99 222.2 615.01 236.23 601.85 246.22C588.69 256.21 577.86 263.51 562.16 268.76C561.27 269.06 560.53 268.26 560.82 269.96V269.95ZM579.65 200.91C576.33 199.89 564.15 202.44 566.79 207.75C568.93 212.05 577.67 202.51 579.65 200.91ZM575.09 215.18C575.5 216.31 575.63 216.27 576.62 215.86C577.29 215.58 584.3 209.42 584.52 208.88C584.86 208.05 584.12 204.85 583.42 204.27C581.74 201.84 571.93 209.7 571.35 210.61C570.42 212.07 572.5 213.68 572.88 215.09L577.36 214.03L575.08 215.17L575.09 215.18ZM615.72 219.03C618.03 220.48 623.05 215.48 623.74 213.28C626.7 203.97 603.49 205.08 610.76 215.77L613.31 215.74L612.74 217.44C615.07 216.71 615.22 218.72 615.71 219.02L615.72 219.03ZM564.24 212.32C554.45 209.27 545.81 215.77 543.13 224.87C543.99 225.73 561.68 215.08 563.52 213.62C563.98 213.26 564.57 213.64 564.24 212.32ZM597.91 224.3C599.28 225.62 610.62 218.23 610.38 216.71C610.34 216.46 608.75 214.19 608.48 213.98C605.58 211.78 597.02 220.45 597.91 224.31V224.3ZM565.81 214.11L542.57 228.58C543.12 229.29 543.99 229.58 544.82 229.77C548.8 230.65 563.72 224.33 566.55 221.19C568.74 218.76 569.1 213.31 565.81 214.12V214.11ZM613.89 220.88L609.9 220.54L602.48 225.43C606.93 224.99 612.03 226.26 613.89 220.87V220.88ZM594.48 223.16C588.64 223.27 580.89 229.39 581.36 235.71C583.56 233.25 591.06 230.89 592.75 229.13C593.43 228.42 594.77 223.43 594.47 223.15L594.48 223.16ZM605.33 227.73C598.75 224.9 595.6 227.92 597.92 234.57C601.05 233.11 603.66 230.77 605.33 227.73ZM541.26 230.44C541.52 230.19 541.55 229.77 541.71 229.46C541.98 227.31 538.13 229.43 537.03 229.91C533.11 231.64 531 234.07 527.71 236.57L529.41 238C529.4 237.26 529.78 236.79 530.34 236.36C533.01 234.33 539.29 232.35 541.25 230.44H541.26ZM642.42 234C642.72 230.41 638.85 228.31 635.58 228.87C634.84 231.8 638.19 231.1 638.35 231.25C639.33 232.19 638.68 234.94 642.42 234ZM593.91 230.58C588.86 233.85 579.36 234.95 582.94 242.98C585.22 248.08 593.16 239.25 594.78 236.82L593.91 230.58ZM658.4 242.56C659.34 237.01 652.74 233.14 648.14 236C650.28 239.39 654.1 240.99 656.98 243.7L656.7 240.85L658.4 242.56ZM625.87 236.86L621.38 238.65L621.31 241.42C621.89 242.1 626.54 237.49 625.87 236.86ZM656.12 246.55C654.04 243.86 651.06 240.75 648.42 238.57C647.78 238.04 647.5 237.19 646.42 237.43C645.43 238.45 652.89 248.22 656.12 246.55ZM651.16 248.09L644.72 238.57C644.23 241.53 650.01 250.14 652.48 250.5L653.84 248.84L651.16 248.09ZM578.5 239.71L563.13 249.16C560.87 251.04 560.75 252.87 563.99 253.37C570.19 254.32 577.22 252.31 581.26 247.42C579.42 245.3 578.92 242.41 578.5 239.71ZM651.55 251.13L646.99 249.13L643 240.29C642.75 244.88 644.15 250.22 649.12 251.57C649.65 251.71 651.67 252.19 651.55 251.14V251.13ZM612.47 249.41C609.88 250.1 614.68 256.78 616.76 255.43C619.5 253.66 613.66 249.09 612.47 249.41ZM561.39 253.41C559.87 253.08 560.14 253.52 559.5 254.11C557.49 255.98 555.37 258.79 553.4 260.81C557.38 260.4 559.22 256.16 561.39 253.4V253.41ZM604.19 255.12C602.38 255.53 594.49 259.08 596.21 261.39C598.99 259.55 602.26 257.9 604.19 255.12ZM634.43 265.39C634.92 260.12 630.04 254.43 624.74 257.69L629.59 260.26L634.44 265.39H634.43ZM632.72 265.39C633.8 264.28 625.98 259.01 624.94 258.6C624.44 258.4 623.98 257.95 623.39 258.07C620.95 259.27 622.49 260.43 624.33 261.51C626.82 262.98 630.23 263.69 632.72 265.38V265.39ZM629.3 270.52C627.77 268.51 625.63 267.23 623.87 265.4C622.53 264 621.61 261.19 619.6 260.83C617.87 262.84 626.65 270.97 629.3 270.52ZM632.72 268.81L630.97 266.28L623.02 261.97C625.52 265.09 628.9 267.62 632.72 268.81ZM620.94 268.62C619.79 267.28 618.87 265.51 619.02 263.68C616.96 264.99 619.27 269.28 620.43 270.55C621.82 272.08 625.73 274.76 627.58 272.51C627.73 271.09 625.56 271.78 624.3 271.23C623.97 271.09 621.19 268.91 620.93 268.61L620.94 268.62ZM583.64 268.25L579.49 268.38L573.94 270.52C577.21 270.06 581.32 271.43 583.64 268.25ZM590.83 271.33C589.29 269.95 589.07 268.74 586.79 268.79C585.91 268.81 585.8 268.62 585.94 269.65C587.3 271.52 591.23 276.81 593.62 276.22C596.01 275.63 591.34 271.78 590.83 271.33ZM608.75 289.93C609.55 283.4 605.44 277.8 598.48 279.09C601.19 283.22 605.9 285.7 608.75 289.93ZM607.04 292.21C607.69 291.7 598.33 279.78 595.63 280.8C594.69 281.69 603.67 290.6 604.73 291.38C605.51 291.95 605.92 292.44 607.04 292.2V292.21ZM603.62 295.63L593.93 282.51C593.99 285.35 595.98 288.77 597.68 291.02C598.36 291.93 602.53 296.6 603.62 295.63ZM600.76 295.64C597.52 295.31 595.33 292.37 593.81 289.74L592.2 285.36C591.66 289.91 593.35 294.2 597.74 296.08C598.72 296.5 601.24 297.68 600.76 295.64ZM381.61 361.27C380.77 361.04 380.66 361.5 380.18 361.82C377.38 363.73 373.16 368.76 370.21 371.26C364.95 375.73 359.34 380.27 353.08 383.23L361.62 387.26L386.17 367.53L381.6 361.27H381.61ZM399.3 383.53L380.51 399.87C379.98 401.62 384.52 404.76 385.33 406.35L402.47 389.8L402.67 388.5L399.3 383.53ZM357.64 390.93C358.42 389.68 354.99 388.68 354.2 388.4C351.97 387.6 349.2 386.99 346.81 386.95C346.49 388.69 347.34 387.82 348.16 388.14C350.78 389.16 354.22 390.23 355.66 392.64L357.65 390.92L357.64 390.93ZM335.39 390.95L325.69 389.24C328.62 391.63 325.69 394.51 326.26 397.8L329.39 398.2L330.82 396.94C328.94 396.68 326.91 392.31 328.51 391.2C330.99 390.31 335.88 392.09 331.4 393.81L332.81 394.93L335.39 390.96V390.95ZM350.18 396.01C347.63 388.9 343.92 390.75 339.1 394.36C338.45 394.84 334.16 398.34 334.82 398.92C337.61 398.82 339.23 397.73 341.52 399.96L342.71 399.94L344.53 397.78L339.41 395.78C340.92 393.35 346.23 390.77 347.3 394.77C347.9 397 345.76 397.03 345.68 398.92L350.19 396L350.18 396.01ZM367.35 395.5C365.51 393.66 362.44 392.09 359.93 391.52C361.81 393.5 364.46 397.06 367.35 395.5ZM405.01 392.09L386.77 408.92L390.19 416.05C391.15 416.3 391.1 415.83 391.54 415.42C394.93 412.21 408.69 400.81 409.59 397.5C407.47 396.43 405.91 394.29 405.02 392.09H405.01ZM361.07 399.5C361.51 397.78 361.98 397.58 360.48 396.39C359.89 395.92 358.05 394.94 357.35 394.95C353.48 395.46 356.64 400.8 358.22 399.5L357.94 396.07L361.07 399.5ZM368.5 399.5C371.04 398.12 370.96 401.27 372.28 401.72C373.08 401.99 374.6 401.73 374.77 400.92C374.98 399.9 368.65 394.49 368.5 399.5ZM315.99 402.35C315.47 401.56 311.39 398.97 310.86 399.51C310.7 400.98 311.5 402.29 312.54 403.23L315.99 402.35ZM353.65 402.35L351.67 400.13L349.09 401.21C348.49 401.99 355 404.92 355.93 402.63C352.68 400.18 354.09 401.98 353.64 402.35H353.65ZM345.47 402.98C341.06 404.29 350.19 407.86 351.76 407.91C352.77 407.94 353.58 407.35 354.22 406.63C354.22 405.57 346.82 402.58 345.47 402.98ZM365.06 409.77C365.95 408.19 361.2 403.28 360.5 404.07C360.44 406.53 363.41 408.28 365.06 409.77ZM378.08 404.2C374.48 402.7 379.17 409.02 379.73 409.64C381.37 411.46 382.46 409.58 381.67 408.34C380.84 407.04 378.55 406.04 378.08 404.2ZM375.35 408.06L374.49 405.21C373.42 406.5 371.76 407.61 370.77 408.91C369.5 410.57 370.33 412.37 367.36 412.91L371.35 414.33C369.94 411.74 372.17 407.5 375.35 408.05V408.06ZM357.5 407.02C356.74 407.14 355.9 407.76 355.39 408.35C355.29 409.77 362.29 414.58 363.92 411.78C362.24 410.42 359.9 406.66 357.5 407.02ZM387.32 420.05C388.34 418.4 384.35 411.79 383.05 412.06C382.64 412.15 381.74 413.26 382.46 413.78L387.32 420.05ZM379.98 417.64C379.75 417.27 380.93 415.72 379.34 415.48C379.23 417.13 377.09 417.39 375.91 418.62C372.58 422.11 374.84 424.24 377.89 426.73L384.45 422.87C384.79 420.52 380.37 418.27 379.97 417.63L379.98 417.64ZM372.49 433.17C377.21 430.43 372.99 426 372.2 422.33L369.08 424.89C370.9 427.3 372.12 430.14 372.48 433.17H372.49ZM379.34 442.3C382 441.87 383.02 444.23 384.76 445.72C385.36 444.53 388.06 443.41 388.38 442.5C389.61 438.99 385.35 428.23 380.84 429.83C380.17 430.07 380.1 431.02 379.72 431.27C378.48 432.08 376.64 431.83 377.07 434.31L379.34 434.89C381.31 428.35 387.18 434.35 384.48 439.45L387.33 437.74L387.83 441.32C386.79 443.88 383.01 443.11 382.33 440.75C381.84 439.07 382.76 436.42 380.5 435.45C380.79 438.43 381.42 439.8 379.35 442.29L379.34 442.3ZM470.64 466.27L476.35 430.32C475.47 430.23 475.54 431.83 475.4 432.5C474.17 438.11 473.71 444.6 472.75 450.4C471.98 455.07 470.57 459.61 470.15 464.35C470.09 464.99 469.62 466.4 470.64 466.27ZM479.78 430.32C479.07 429.39 478.75 430.33 478.64 431.16C478.26 434.14 478.87 437.76 478.64 440.87C477.46 456.17 475.11 474.5 471.06 489.22C470.21 492.32 464.25 508.68 465.52 510.21C466.67 510.43 466.89 509.69 467.27 508.83C474.09 493.4 477.3 468.59 478.64 451.71C479.21 444.59 479.25 437.42 479.78 430.32ZM452.95 503.94C454.48 496.2 457.95 488.92 460.38 481.41C464.75 467.95 469.03 454.11 470.64 440.03L463.95 465.57C461.54 477 454.64 489.54 452.07 500.48C451.82 501.54 451.03 504.46 452.96 503.94H452.95ZM455.81 506.79C457.02 507.02 457.14 506.22 457.55 505.4C460.31 499.93 463.99 487.41 465.81 481.13C467.45 475.5 469.04 469.87 469.49 463.99L465.47 478.5C463.17 486.79 458.19 495.84 456.08 503.92C455.83 504.89 455.68 505.78 455.8 506.78L455.81 506.79ZM471.79 476.83C472.24 473.84 471.46 469.95 471.79 466.84L469.92 477.81C468.98 487.06 460.98 499.65 460.37 508.21C460.34 508.57 460.21 509.15 460.66 509.07C465.86 500.17 468.79 488.85 470.78 478.67C470.94 477.85 471.75 477.08 471.79 476.83Z" fill="black"/>
<path d="M209.84 357.83C212.45 359.63 219.48 352.51 220.39 352.7C221.7 352.98 221.16 355.98 220.68 356.84C220 358.09 216.84 357.83 216.68 359.83L220.4 357.85C221.78 358.88 221.47 361.28 220.62 362.63C209.9 370.82 198.49 378.08 189.86 388.65L220.96 364.13C222.14 365.23 222.7 366.31 221.76 367.75C221.07 368.8 212.61 374.56 210.7 376.12C201.61 383.58 186.18 395.26 179.01 403.78C178.47 404.42 177.63 404.71 177.88 405.78L222.39 369.51C224.07 369.82 225.3 370.76 224.55 372.57C220.88 374.76 217.41 377.4 214.13 380.11C202.37 389.82 190.93 399.94 179.29 409.76C178.18 410.69 170.78 415.16 172.18 416.62C174.84 415.73 177.58 413.26 179.87 411.47C194.14 400.28 209.05 385.48 223.94 375.64C225.43 374.65 229.01 371.79 229.82 374.67C223.7 380.01 216.99 384.66 210.72 389.82C198.52 399.85 183.83 411.19 172.46 421.78C171.6 422.58 166.95 427.28 167.62 428.04C184.56 415.15 200.52 400.92 217.32 387.87C221.52 384.61 229.02 378.18 233.3 375.89C234.11 375.46 235.81 374.56 236.66 375.26L163.62 437.18C165.89 436.34 168.1 434.51 170.08 433.08C191.54 417.59 210.96 399.12 232.15 383.3C233.15 382.56 239.05 378.18 239.48 378.06C240.51 377.77 240.55 377.85 241.22 378.68C232.19 386.82 222.37 394.06 213 401.81C203.98 409.27 195.18 417.13 186.15 424.61C179.7 429.95 168.57 437.2 163.33 442.88C162.61 443.66 162.28 444 162.49 445.17C163.45 445.36 164 444.69 164.71 444.26C168.54 441.94 173.53 437.46 177.27 434.56C197.04 419.19 216.41 401.7 236.73 387.3C243.85 382.26 239.43 387.7 236.38 390.37C229.49 396.38 220.88 402.58 213.56 408.64C197.71 421.72 178.94 435.54 164.2 449.45C163.5 450.11 159.2 453.74 161.63 453.73L212.74 413.53L214.99 413.5L158.5 461.45C158.32 462.23 158.54 462.52 159.34 462.29C160.64 461.9 168.09 455.88 169.85 454.53C183.52 444.06 197.02 431.23 211.04 421.53C211.93 420.91 213.24 420.05 214.15 419.5C215.84 418.49 215.76 420.49 214.81 421.6C195.47 437.04 176.14 452.76 157.8 469.3L157.64 471.42L215.56 425.77L214.45 428.36C195.17 444.21 175.51 459.7 157.36 476.85C157.48 479.31 160.79 474.99 161.65 474.29C165.32 471.3 169.33 468.67 173.03 465.7C183.65 457.16 193.66 447.83 205.28 440.6C205.89 441.28 201.96 444.84 201.3 445.46C188.36 457.59 171.36 468.64 159.05 480.83C158.38 481.5 156.86 482.87 158.77 482.83L208.71 444.03C203.26 450.28 196.74 455.94 190.46 461.44C181.23 469.5 170.1 477.15 161.34 485.39C160.92 485.79 156.7 489.88 159.34 489.1L218.97 440.89L220.69 441.47L159.23 493.81L159.9 495.38L222.97 445.74C223.17 446.83 222.79 447.29 222.16 448.06C220.26 450.35 213.26 454.94 210.41 457.43C195.76 470.22 180.99 482.77 166.17 495.37C165.16 496.23 160.29 499.31 160.18 499.66C160.1 499.93 160 501.09 160.48 501.09L161.9 500.8C175.66 489.59 189.95 479.02 203.83 467.97C210.35 462.78 216.34 455.85 224.1 452.58L202.42 472.27C190.51 483.02 173.44 493.43 162.72 505.05C162.29 505.52 160.56 508.25 161.6 507.92C172.52 499.96 183.07 489.88 194.23 482.34C195.02 481.81 199.52 478.76 200.12 479.39C200.29 479.57 200.34 481.2 199.41 481.27L163.32 511.93V513.63C174.52 505.75 185.05 494.81 196.51 487.49C198.12 486.46 199.79 485.02 201.82 485.1C201.32 486.66 199.1 488.28 197.84 489.39C188.23 497.84 176.03 506.41 167.01 515.05C166.03 515.99 163.78 517.81 164.45 519.33C176.2 511.34 187.14 499.76 199.03 492.27C199.4 492.03 203.69 489.33 203.53 491.08L166.74 522.76V525.03C177.5 516.44 187.99 507.37 199.04 499.13C200.09 498.35 206.2 493.48 206.97 494.22C207.21 495.28 206.38 495.57 205.83 496.22C196.46 507.23 179.91 517.15 169.59 527.89C169.06 528.44 167.65 529.92 168.44 530.74C179.95 521.96 190.86 512.35 202.46 503.7C203.59 502.86 209.51 497.98 210.39 498.79C209.79 500.76 207.38 502.81 205.84 504.22C195.14 513.96 183.43 523.02 172.43 532.44C171.69 532.86 169.83 535.37 171.87 535.31C184.03 525.96 195.45 515.14 208.17 506.54C209.89 505.38 211.64 503.67 213.83 503.93L172.75 540.45C181.96 533.83 191.03 526.98 200.08 520.13C204.22 517 210.11 510.91 214.69 509.05C215.29 508.81 216.77 508.31 216.68 509.34C216.63 509.83 214.22 510.79 213.55 511.33C208.8 515.19 204.32 520.1 199.58 524.18C192.22 530.52 184.5 536.51 176.99 542.68L176.46 545L217.84 514.19L177.89 549.56C179.92 548.85 182.03 547.29 183.79 546.04C195.54 537.69 206.9 528.37 217.56 518.75C218.48 517.92 219.73 517.27 220.69 516.46C220.94 517.53 220.09 517.82 219.56 518.46C208.7 531.39 195.43 539.82 183.6 550.98C183.09 551.46 180.74 553.51 181.33 554.13C192.96 546.47 203.42 537.28 214.15 528.46C217.82 525.45 221.85 523.42 224.69 519.31C224.83 522.59 221.48 525.17 219.29 527.31C212.37 534.08 204.67 540.69 197.31 546.99C192.96 550.71 187.89 553.74 184.18 558.1C186.38 557.99 188.42 555.98 190.16 554.67C202.55 545.27 214.31 535.04 226.43 525.31C227.3 524.55 229.31 525.31 228.14 526.45L187.61 562.1C189.43 561.84 191.24 560.54 192.7 559.49C204.14 551.16 216.45 538.67 227.95 531.4C229.76 530.26 231.51 528.73 233.84 529.02L191.03 566.96L237.26 532.44C237.29 533.98 235.99 535.17 234.99 536.16C231.93 539.22 227 542.28 223.56 545.27C218.08 550.03 212.84 555.12 207.29 559.82C204.95 561.81 195.65 568.35 195.04 570.4C194.8 571.2 195.1 571.41 195.88 571.24L240.39 537L240.65 538.39L204.73 568.1L237.82 545.84L204.72 574.09C206.53 574.27 207.85 572.94 209.22 572.03C220.82 564.35 231.58 553.95 242.96 545.84C244 545.24 245.42 545.4 245.8 546.69C244.98 546.75 244.19 547.09 243.54 547.58C235.87 553.34 228.06 561.53 220.39 567.8C216.69 570.83 208.91 575.59 206.13 578.65C205.43 579.42 205.09 579.82 205.29 580.94C210.31 577.28 215.61 573.99 220.63 570.32C228.91 564.26 238.58 554.91 246.99 549.89C247.64 549.5 251.01 547.15 250.93 549.26C241.17 556.94 232.23 565.6 222.67 573.51C219.21 576.37 213.58 579.52 210.69 582.65C209.97 583.43 209.64 583.77 209.85 584.94L255.79 551.29L256.37 553L215.69 586.49L214.98 588.37C216.17 588.65 216.5 588.06 217.28 587.53C230.12 578.71 242.33 566.82 255.09 558.57C255.59 558.25 262.46 554.1 260.37 557L219.55 592.36C220.49 592.53 221.09 591.93 221.78 591.46C235.23 582.49 247.92 571.09 261.37 562L263.2 561.55C263.77 561.59 263.55 562.3 263.22 562.71C262.45 563.65 259.52 565.36 258.35 566.4C249.02 574.65 238.04 582.73 229.24 590.94C228.75 591.4 225.75 594.08 226.4 594.65C227.58 594.96 227.95 594.26 228.7 593.82C242.21 585.85 256.58 570.26 270.02 563.23C270.7 562.87 272.25 561.9 272.05 563.55C262.12 571.65 252.53 580.21 242.65 588.37C240.7 589.98 232.84 595.14 232.2 596.75C231.93 597.43 231.94 598.51 232.96 598.08L298.31 549.01L297.61 550.9L238.01 599.42C237.58 599.97 236.39 601.74 238.1 601.52L311.44 547.31C311.71 548.41 310.77 548.66 310.05 549.33C307.73 551.51 304.99 552.83 302.61 554.74C282.72 570.64 263 586.97 243.53 603.23C243.81 603.23 244.11 603.28 244.39 603.24C246.2 602.99 255.71 595.64 257.98 594C274.25 582.24 290.04 569.63 306.04 557.6C313.9 551.69 322.71 544.12 330.67 538.86C332.28 537.8 333.86 536.18 335.98 536.48L251.22 603.81C250.41 605.46 251.02 606.05 252.66 605.25C269.12 593.34 284.7 580.01 301.22 568.21C303.65 566.47 306.42 564.52 309.16 563.31L300.87 571.28C290.25 579 280.73 588.07 270.62 596.39C269.66 597.18 256.66 606.37 257.8 607.24C258.45 607.35 258.91 607.22 259.49 606.94C262.1 605.69 267.16 601.09 269.94 599.13C282.49 590.29 294.28 579.02 306.7 570.83C308.67 569.53 310.61 567.62 313.16 567.88L280.9 595.82C277.84 598.37 265.49 606.56 264.65 609.25L265.49 609.53L315.46 571.04L318.29 570.73C318.53 571.83 317.73 572.09 317.1 572.67C313.58 575.87 308.7 579.01 304.9 582.16C293.75 591.38 283.1 601.11 272.07 610.4C271.98 610.83 272.62 610.77 272.91 610.67C277.22 609.28 286.62 599.54 290.95 596.17C301.31 588.11 313.24 579.41 324.38 572.53C340.02 562.86 354.78 551.46 369.36 539.9C373.39 536.7 386.28 524.41 389.95 523.4C390.24 523.32 392.49 523 391.64 523.94C382.02 531.59 372.75 539.72 363.08 547.32C339.74 565.65 314.25 580.46 291.77 599.85C289.31 601.97 286.74 604.2 284.62 606.68L292.56 601.78C314.23 584.14 338.34 571.51 360.23 554.17C368.47 547.64 376.57 540.81 384.77 534.19C386.76 532.59 396.44 522.72 398.77 524.51C399.13 525.98 398.3 525.51 397.7 525.99C382.54 538.29 367.65 550.76 352.27 562.76C349.16 565.19 346.52 568.63 342.84 570.45C328.73 577.41 318.01 585.74 305.48 595.29C299.03 600.2 293.37 606.52 285.78 609.83C284.57 610.94 285.44 610.87 286.39 610.44C289.37 609.1 293.58 606.75 296.34 604.98C300.76 602.16 304.75 598.25 308.98 595.36C317.65 589.42 327.6 583.9 335.97 577.83C336.78 577.24 337.06 576.06 337.22 575.96C337.36 575.87 338.19 576.34 338.85 576.18C339.63 575.98 340.14 575.02 341.13 575.29C336.28 579.37 331.36 583.75 326.26 587.52C317.67 593.87 308.9 600.36 300.23 606.58C297.59 608.47 294.44 609.87 292.05 611.81C294.62 613.66 307.1 602.75 309.9 600.85C321.53 592.94 333.15 586.76 343.99 577.3C348.16 573.66 351.39 568.9 355.39 565.3C358.52 562.49 362.78 560.26 365.94 557.59C376.55 548.6 386.6 538.5 397.68 529.98C398.72 529.18 404.18 524.89 405.04 525.64C404.93 527.13 403.22 528.39 402.2 529.35C387.94 542.9 369.98 554.89 355.39 568.14C351.7 571.49 349.56 575.33 345.97 578.69C332.39 591.4 315.65 599.87 301.76 612.09C301.68 612.52 302.3 612.45 302.62 612.38C304.19 612.06 313.69 604.58 316.07 603C334.85 590.53 353.4 577.63 371.57 564.34C382.59 556.27 394.38 548.05 405.01 539.57C408.86 536.5 412.66 532.1 416.44 529.32C417.22 528.74 417.59 528.25 418.75 528.49L417.62 531.63C399.02 548.18 378.3 561.98 358.32 576.76C346.42 585.56 334.97 594.93 322.83 603.47C320.21 605.31 314.74 607.72 313.07 610.26C312.65 610.9 312.23 611.62 313.45 611.21C315.92 610.39 327.06 602.54 330.14 600.5C344.27 591.16 357.58 580.79 371.21 570.8C387.68 558.73 403.87 547.71 419.13 533.97C420.81 532.46 421.94 528.98 425.03 529.61C426 530.54 420.75 535.91 419.9 536.75C406.4 549.99 389.72 560.66 374.63 571.95C362.01 581.38 349.71 591.29 336.75 600.27C332.83 602.99 328.48 606.27 324.02 607.8C323.93 608.92 325.78 608.28 326.32 608.1C334.13 605.45 349.94 593.52 357.3 588.29C377.32 574.05 406.89 554.07 423.04 536.47C423.77 535.68 427.39 529.79 428.45 530.76C430.04 537.95 433.88 544.15 436.45 551.01C438.3 555.96 439.4 562.15 441.18 566.83C442.06 569.15 444.8 570.39 444.34 573.13C444.16 574.22 439.9 581.3 438.96 582.64C434.09 589.63 424.04 599.4 417.62 605.24C374.08 644.88 309.26 658.05 253.83 637.18C198.69 616.44 156.17 562.4 146.09 504.63C135.04 441.29 169.01 379.04 218.12 341.31C219.73 343.15 220.94 347.87 219.3 349.91C218.8 350.53 208.95 356.84 209.84 357.85V357.83ZM208.54 359.09C206.09 359.46 200.1 363.94 203.55 366.15C205.78 367.58 209.24 361.24 210.4 359.84C209.77 359 209.56 358.94 208.53 359.09H208.54ZM199.3 366.41C197.09 368.99 192.53 370.94 197.08 373.78C200.05 372.28 203.35 368.66 199.3 366.41ZM191.02 374.39L187.63 379.87L188.52 381.16C191.4 382.06 192.21 379.14 193.77 377.43C193.97 376.41 191.9 373.78 191.02 374.38V374.39ZM186.73 381.25C185.83 382.81 181.32 386.45 182.13 388.08C184.56 392.92 189.77 381.21 186.73 381.25ZM180.72 390.38C179.56 389.55 174.55 397.26 175.26 398.37C177.25 401.47 181.62 393.94 181.78 392.84C181.89 392.05 180.63 391.28 180.72 390.38ZM172.75 400.64L168.76 408.35C172.5 412.76 177.84 401.54 172.75 400.64ZM169.32 409.77C167.77 409.43 168.35 410.25 167.91 410.91C167.01 412.25 163.02 418.83 164.19 420.04C167.67 420.63 170.98 411.61 169.32 409.77ZM164.76 422.9L163.03 422.59C161.98 423.06 158.41 430.86 159.05 431.46L162.42 431.4L164.76 422.9ZM160.19 433.18C159.04 432.32 156.99 437.12 156.67 437.93C155.89 439.92 155.45 441.94 155.06 444.02C159.03 444.53 159.56 440.57 160.12 437.38C160.37 435.97 160.62 434.59 160.19 433.19V433.18ZM157.25 445.81L155.06 445.15L153.35 455.42L156.26 454.51L157.25 445.81ZM154.91 456.73C154.65 456.42 153.02 455.76 152.77 456L151.05 472.55H153.9C154.8 469.92 153.9 466.51 154.09 464.34C154.24 462.63 156.27 458.39 154.91 456.72V456.73ZM153.91 474.26H151.06L151.63 495.95L155.03 495.35L153.91 485.68H151.63C151.07 484.13 153.92 484.03 153.92 483.11V474.26H153.91ZM154.99 497.73L152.77 497.66C152.73 499.25 152.47 506.87 154.24 507.3L156.81 506.45L154.99 497.73ZM157.34 508.5L154.48 508.8L157.08 519.34C162.86 517.96 156.88 512.28 157.34 508.5ZM163.1 531.84C163.01 531.72 163.74 530.07 163.6 528.83C163.36 526.58 161.07 519.32 157.91 520.49C157.61 520.78 158.65 525.23 158.89 526.07C160.36 531.33 165.03 541.4 167.67 546.39C168.49 547.94 169.48 549.5 170.75 550.72C173.95 548.29 172.22 545.83 170.21 543.28C169.66 542.58 168.44 542.29 168.3 542.08C168.1 541.78 167.92 537.75 166.36 535.15C165.16 533.16 163.49 532.38 163.1 531.84ZM430.13 539.89C428.41 538.19 421.52 547.51 420.53 548.83C413.68 557.99 407.38 566.55 399.04 574.71C395.49 578.19 389.54 581.02 388.46 586.1L387.61 583.82C385.42 586.53 380.99 588.08 378.74 590.36C377.79 591.32 376.95 593.57 376.49 593.85C375.85 594.24 374.84 593.51 374.04 593.63C372.13 593.92 370.67 596.22 370.77 598.09C368.38 596.85 365.63 597.91 363.34 598.92C362.09 600.15 363.05 602.32 363.36 603.79C383.51 593.07 401.85 578.86 416.09 560.94C418.1 558.4 419.94 555.16 421.89 552.48C423.05 550.89 431.66 541.4 430.11 539.88L430.13 539.89ZM342.24 603.23C348.06 600.43 354.25 596.6 359.66 592.98C375.48 582.41 395.7 567.81 409.85 555.28C411.87 553.49 414.72 550.77 416.43 548.73C416.97 548.09 417.81 547.8 417.56 546.73L342.23 603.22L342.24 603.23ZM171.6 551.88C170.94 552.52 174.66 559.89 176.73 559.04C180.68 557.04 175.47 549.83 171.6 551.88ZM422.14 572.99C423.24 573.97 428 567.1 428.97 566.42L435.83 556.45C435.11 555.65 423.56 572.07 422.14 572.99ZM428.99 574.13C430.22 574.42 430.26 573.45 430.82 572.83C433.81 569.55 437.45 564.32 438.11 559.87L428.99 574.13ZM184.59 567.15C185.3 565.1 181.44 560.4 179.32 560.38C174.6 560.35 181.03 566.69 182.44 568.16L183.3 568.45C183.43 567.8 184.56 567.24 184.59 567.15ZM363.36 595.24C366.25 594.28 369.03 592.28 371.53 590.58C379.36 585.23 388.89 577.93 395.9 571.57C396.58 570.95 401.06 566.82 400.45 566.14L363.36 595.24ZM187.48 568.55L184.16 569.85L192.43 579.26C195.65 574.97 189.35 571.89 187.47 568.55H187.48ZM439.26 569C438.32 568.08 433.82 573.91 434.13 575.27C436.44 573.77 438.05 571.42 439.26 569ZM432.41 575.28C431.34 575.03 431.06 575.89 430.41 576.42C424.85 581.02 419.53 588.42 413.88 593.56C397.47 608.47 377.39 621.45 356.66 629.36L341.11 634.06C350.79 632.3 360.6 629.1 369.62 625.2C392.11 615.49 415.68 596.09 431.27 577.28C431.8 576.64 432.65 576.36 432.41 575.28ZM432.21 582.56L433.84 577.56C413.73 603.3 386.61 623.58 354.92 632.75C318.88 643.18 282.27 642.5 247.69 627.3C239.4 623.66 231.6 619.13 223.7 614.77C223.2 614.49 222.27 613.51 221.83 614.36C234.64 623.04 249.17 630.29 263.94 635.03C321.73 653.57 395 631.81 431.29 583.1L432.21 582.56ZM201.85 587.26C202.98 583.07 197.38 575.38 193.88 580.7L201.85 587.26ZM414.92 586.89C416.11 585.75 419.41 584.16 419 582.13C394.42 605.04 366.46 626.92 331.97 631.21L333.11 632.06L331.97 632.91C348.36 628.92 364.65 624.12 379.15 615.32C392.23 607.38 404.01 597.41 414.92 586.89ZM210.98 594.11C213.15 590.06 207.67 587.82 204.7 586.37C201.16 590.22 208.3 592.31 210.98 594.11ZM220.68 600.38C221.65 596.4 217.73 594.18 214.48 593.61L213.33 596.89L220.68 600.38ZM397.03 595.83C396.52 595.39 394.8 596.94 394.25 597.32C390.46 599.93 387.08 603.17 383.28 605.76C375.7 610.93 367.18 615.24 358.77 618.92L342.81 624.35C363.08 620.38 381.89 609.61 397.02 595.83H397.03ZM230.95 606.09C231.02 605.24 231.63 604.42 231.54 603.54C231.3 601.04 221.62 596.16 223 603.21L230.95 606.09ZM354.23 607.24C356.02 607.66 360.45 606.07 360.49 604.12L359.66 602.1C355.16 600.13 353.64 603.01 354.23 607.25V607.24ZM236.52 606.23C236.35 605.94 234.84 605.38 234.67 604.38C233.64 605.39 232.37 606.15 232.67 607.79L236.66 608.94C236.58 608.09 236.94 606.95 236.52 606.23ZM342.89 607.3C342.68 608.33 342.54 611.58 343.69 611.8C344.55 611.97 351.6 608.97 351.42 606.96C351.12 603.67 344.72 607.07 342.89 607.3ZM245.22 612.37C245.09 611.18 245.71 608.87 244.67 608.08C244.15 607.69 239.01 606.61 238.65 607.22C237.2 611.39 242.33 611.47 245.22 612.37ZM339.38 608.94L332.02 610.7L332.54 615.22L339.92 612.91L339.37 608.94H339.38ZM255.4 611.89L249 609.48C245.71 614.46 251.25 614.48 254.61 615.77C255.75 615.49 255.69 612.86 255.41 611.9L255.4 611.89ZM328.47 612.45C324.25 612.68 318.58 612.23 319.99 618.08L329.07 615.75L328.47 612.46V612.45ZM265.2 617.5C265.88 613.01 261.96 612.56 258.38 612.97L258.32 616.66L265.2 617.5ZM268.42 614.7C263.78 619.62 277.93 622.26 273.52 615.74L268.42 614.7ZM317.13 615.22C314.46 615.18 311.78 615.06 309.2 615.85L309.14 619.79L317.07 618.59L317.13 615.22ZM284.03 620.36L283.49 616.61L276.68 615.87L276.03 619.79L284.03 620.36ZM295.45 616.93L286.94 616.99L286.88 620.93L294.91 620.68L295.45 616.93ZM306.22 616.43L297.72 616.93L298.36 620.86C301.98 620.63 308.78 621.77 306.22 616.43ZM327.4 635.77C325.33 635.39 323.39 636.28 321.43 636.36C306.51 636.93 288.34 634.49 273.64 631.6C260.38 628.99 249.34 624.37 237.23 618.65C239.43 620.46 242.64 622.22 245.19 623.52C255.55 628.79 265.62 631.82 277.07 633.87C291.25 636.41 307.06 637.5 321.34 637.41L327.4 635.77ZM319.41 627.78C315.15 627.88 310.84 627.63 306.58 627.78C296.74 628.14 289.45 629.6 279.25 628.27C271.05 627.2 263.06 624.61 254.93 623.21L260.06 625.21C264.28 625.87 268.33 627.35 272.51 628.17C278.21 629.28 286.03 630.62 291.74 630.68C294.1 630.7 296.49 629.19 299.17 628.93C305.29 628.34 312.45 629.15 318.68 628.78L319.42 627.78H319.41ZM303.43 633.48H316.56C316.79 631.94 316.29 632.35 315.11 632.32C312.83 632.26 310.15 632.62 307.83 632.6L303.44 633.48H303.43Z" fill="black"/>
<path d="M192.15 278.51C200.83 280.85 207.8 286.76 215.43 291.19C216.23 295.95 214.54 300.49 213.92 305.14C213.64 307.23 212.35 315.06 212.79 316.38C213.49 318.5 234.58 323.65 237.5 325.92L243.2 356.75C250.25 358.44 257.22 360.46 263.8 363.54L268.04 396.97C277.12 400.41 286.48 403.17 295.59 406.51C304.7 409.85 313.33 414.32 322.84 416.35L335.54 452.44C343.34 454.67 351.73 453.38 359.58 455.39L366.65 470.28C374.25 472.18 381.98 471.66 389.65 472.82L398.98 501.15L445.4 513.22C448.72 528.44 456.69 542.28 459.86 557.54C468.5 557.93 477.12 557.34 485.64 555.97C498.92 569.35 514.64 579.8 530.39 590.02L548.82 600.4C527.18 593.01 506.89 581.24 484.32 576.74L483.75 575.59C484.55 572.94 484.52 570.58 483.71 567.94L452.37 568.17L434.13 521.93L388.47 514.52L378.12 482.93C376.92 481.96 361.69 481.94 358.25 480.26C355.15 478.74 352.17 466.42 350.43 465.83C347.01 465.52 328.69 465.83 327.12 464.03C324.23 454.65 322.47 444.89 319.71 435.49C318.97 432.98 317 425.3 315.09 424.13C307.84 422.28 300.3 421.76 293.05 419.91C287.82 418.57 282.81 416.32 277.63 414.78C269.31 412.32 260.43 410.99 252.77 406.83L250.65 372.13C249.6 369.96 235.34 366.41 232.62 364.34C231.67 357.02 231 349.62 229.64 342.35C229.23 340.16 228.63 334.59 227.28 333.3L200.97 321.92C199.22 319.13 207.98 300.07 206.77 295.65C206.45 294.47 204.74 293.09 203.76 292.34L183.86 279.68C183 278.31 185.74 273.83 185.87 271.91C186.2 267 173.5 250.12 170.51 245.11L170.6 244.4C170.65 244.31 171.51 244.36 171.62 243.93C172.4 241 165.82 222.07 165.03 216.93C164.94 216.33 164.26 215.07 165.33 215.2L177.79 245.26C181.71 250.8 185.47 256.59 189.64 261.94C190.98 263.67 196.05 268.37 196.49 269.96C197.41 273.31 191.65 275.13 192.16 278.54L192.15 278.51Z" stroke="#231F20" stroke-width="6" stroke-miterlimit="10"/>
<path d="M271.48 448.58C274.27 448.6 272.61 444.75 272.59 443.18C272.51 436.14 272.87 429.08 274.93 422.35C280.02 422.23 277.41 426.48 277.76 429.75C279.9 429.04 277.99 425.19 279.82 424.66C281.06 424.3 285.51 426.61 287.45 425.76C287.12 428.77 285.81 431.51 285.71 434.59C285.65 436.3 286.23 437.89 286.2 439.17C286.08 443.82 284.6 449.35 287.18 453.73L310.84 431.47L312.32 440.33C312.11 443.42 295.8 455.17 293.36 458.82C290.92 458.34 291.53 454.54 288.59 454.87C288.13 455.34 290.78 461.22 291.32 462.13C291.6 462.59 291.15 463.09 292.29 462.86L313.69 441.75C313.27 445.15 317.14 450.01 315.44 452.91L299.64 467.96L293.73 463.44L297.16 472C298.76 471.96 297.67 468.54 299.14 469.15C300.16 469.58 304.22 475.79 306.88 476.87C308.33 477.46 310.76 475.73 309.13 474C308.34 473.16 300.61 469.95 300.58 468.86L317.11 454.31C317.41 457.39 320.34 461.58 319.75 464.6C318.98 468.53 312.12 470.81 310.84 474.85L319.67 468.14L328.52 471.72C325.94 472.11 322.27 478.32 321.56 478.72C319.47 479.92 315.5 477.77 313.44 477.11L311.49 478.65L311.97 480.29C321.43 482.5 329.08 485.27 339.01 483.91C341.37 483.59 348.41 481.42 349.89 481.66C350.39 481.74 350.17 483.04 350.78 483.69C351.26 484.21 357.71 487.34 358.54 487.37C359.93 487.42 361.44 486.39 362.97 486.92L363.91 488.26C360.2 492.93 354.49 493.7 348.88 494.3C347.53 494.01 347.99 488.06 347.94 486.84C350.53 489.33 355.19 493.09 358.21 489.13C356.21 489.95 349.5 487.66 348.63 486.16C348.01 485.1 349.45 482.96 347.38 483.42L346.8 494.84L351.94 495.4C346.76 496.6 342.1 496.95 336.83 497.12C331.56 497.29 323.57 497.49 318.14 496.4C313.76 495.52 308.41 492.71 304.29 490.84C303.7 490.97 303.94 491.61 304.28 491.99C306.43 494.41 317.58 497.52 321.03 498.07C338.17 500.8 354.23 497.85 368.92 488.65C374.79 489.19 369.12 493.38 366.61 494.93C347.44 506.82 319.73 506.69 300.29 495.53L297.17 498.81L298.87 495.14L295.66 492.58L262.37 522.49C264.32 523.67 264.95 527.43 267.52 526.55L287.48 509.66C288.02 510.21 279.59 517.97 278.64 518.81C275.1 521.97 271.27 524.77 267.53 527.71C267.24 528.69 271.45 535.17 272.4 536.43C273.66 538.11 280.55 544.8 280.66 545.92C280.8 547.41 278.35 549.41 277.21 550.46C276.43 551.18 271.41 555.38 270.9 555.61C268.07 556.91 262.64 548.5 260.66 546.44C258.24 543.92 254.79 541.36 252.66 539.03C250.8 536.99 244.3 527.27 242.03 526.89C241.45 526.79 240.34 527.55 240.1 527.33C241.81 524.75 238.63 521.67 236.69 520.19C233.8 517.98 234.5 519.6 231.54 520.48L233.55 517.02C233.21 515.43 227.97 509.72 226.95 509.88L222.41 512.5L225.79 507.16C225.6 506.06 217.64 499.6 216.43 497.65C215.7 496.47 215.74 495.14 215.21 494.3C212.39 489.78 208.68 486.19 205.36 482.07C205.42 481.36 213.62 471.49 214.43 471.12C217.61 469.66 220.41 475.37 222.46 477.35C224.51 479.33 227.33 481.33 229.53 483.38C241.26 472.23 254.25 462.39 266.95 452.34C268.32 450.46 266.93 448.06 266.89 446.04C266.8 442 266.64 422.97 269.74 420.88C270.83 420.14 273.45 420.74 273.58 422.04C273.66 422.84 271.78 428.87 271.55 430.68C270.79 436.68 270.79 442.59 271.49 448.59L271.48 448.58ZM284.03 430.32L282.88 427.73L279.47 428.05C279.57 430.55 282.1 430.49 284.03 430.33V430.32ZM283.87 436.49C284.09 436.02 284.07 435.82 283.81 435.41C281.45 432.14 276.51 431.11 275.17 436.01C274.52 438.39 276.13 442.57 278.48 442.23C279.38 442.1 282.97 439.2 283.21 438.33C283.36 437.77 282.96 437.11 283.01 436.87C283.08 436.51 283.81 436.62 283.87 436.49ZM284.03 442.88C283.21 442.04 276.98 449.02 277.76 449.72C278.62 450.5 279.25 449.31 279.63 449C281.63 447.36 283.03 445.27 284.03 442.88ZM277.18 449.73C274.53 450.17 272.01 452.55 272.62 455.43L276.35 452.04L277.18 449.73ZM267.77 454.99L231.52 485.39L234.41 487.15L268.65 458.02L269.13 456.4L267.77 454.99ZM276.04 456.57C272.79 456.59 275 462.73 275.91 464.4C276.27 465.06 275.89 465.36 277.18 465.12C278.84 461.95 275.02 459.66 276.05 456.57H276.04ZM272.58 467.93L270.06 460.57L235.55 490.49C236.72 491.38 239.26 495.28 240.66 494.55L272.58 467.92V467.93ZM290.21 465.03L288.31 461.15C286.62 462.21 288.7 462.59 288.51 463.6C288.35 464.42 286.74 465.77 287.46 467.42L290.21 465.03ZM284.04 471.41C287.66 469.49 285.24 467.41 285.74 464.56C283.26 465.86 283.44 469.09 284.04 471.41ZM280.04 466.28C275.69 465.54 279.36 471.77 280.57 473.35C281.4 474.44 283.24 473.37 282.92 471.74C282.86 471.41 278.23 468.48 280.04 466.28ZM295.87 472.11C295.71 471.83 293.15 469.86 292.87 468.57L290.88 470.56C290.76 472.48 292.59 469.99 293.77 471.64C294.34 472.43 294.35 473.34 294.3 474.26C296.02 474.8 296.68 473.56 295.87 472.1V472.11ZM245.8 503.37C250.21 501.96 252.76 497.93 256.06 495.09C263.31 488.82 270.94 482.97 278.07 476.55L274.32 470.27L242.05 497.09L245.81 503.37H245.8ZM290.24 472.06C288.57 471.61 287.76 472.61 288.03 474.27C290.96 472.21 291.91 478.28 292.31 478.25L294.31 474.84C292.17 475.1 290.87 474.03 290.25 472.06H290.24ZM288.67 478.77C287.14 476.23 285.05 471.95 282.89 476.27L287.76 481.68L290.88 479.1L288.68 478.76L288.67 478.77ZM280.81 480.33C280.43 480.01 280.1 478.85 279.75 478.84L249.47 505.08C248.51 506.83 252.86 510.06 253.78 511.68L284.9 484.55C285.47 483.95 285.4 483.86 284.8 483.36C283.64 482.38 282.01 481.35 280.8 480.33H280.81ZM310.16 481.27C309.68 480.96 309.1 481.14 308.57 481.11L309.71 484.23L307.52 485.18L307.43 487.38C309.4 486.07 311.13 483.96 313.7 483.95C313.34 482.64 311.84 483.04 310.86 482.48C310.43 482.24 310.33 481.38 310.15 481.26L310.16 481.27ZM296.02 485.11C293.66 485.85 292.09 481.49 290.31 483.69C291.82 485.57 295.88 489.88 296.02 485.11ZM319.98 495.37C318.28 492.66 317.57 490.81 317.34 487.57C317.23 486.06 318.81 483.48 315.99 483.39L315.34 486.74L312.56 487.95L315.93 488.01C316.4 490.49 317.03 494.54 319.98 495.37ZM220.12 495.38C221.42 496.29 223.69 492.97 224.71 492.28C226.34 491.19 228.37 490.78 229.81 489.38L225.45 484.59C222.93 485.1 223.02 487.91 222.06 489.64C221.35 490.92 219.7 491.43 219.6 493.38C219.59 493.65 220.03 495.32 220.11 495.38H220.12ZM330.1 489.55C331.77 486.12 322.13 484.29 319.98 484.54L321.13 485.39C319.39 485.55 319.7 489.61 320.1 490.98C320.65 492.87 325.69 495.16 327.31 494.14C327.5 494.02 328.81 490.8 329.18 490.13C329.42 489.68 330.06 489.63 330.1 489.54V489.55ZM342.38 491.8C342.98 492.44 343.99 492.66 344.53 491.65C344.75 489.9 338.6 485.55 337.97 485.67C337.17 485.83 336.91 487.46 337.12 488.22C337.48 489.55 339.32 488.16 340.53 488.77C341.74 489.38 341.76 491.12 342.38 491.79V491.8ZM292.59 490.25L287.17 486.25L256.09 514.44L260.07 519.91L292.58 490.25H292.59ZM334.76 489.63C334.96 482.7 332.34 489.11 331.43 491.69C331.09 492.67 330.89 493.76 330.84 494.8L332.81 492.09L339.96 494.8C338.29 492.86 335.67 491.2 333.11 490.8L333.54 489.67L334.76 489.62V489.63ZM315.41 489.1C312.84 490.69 310.1 488.64 307.43 489.38C309.68 490.88 314.87 493.11 315.41 489.1ZM235.73 496.32C233.83 494.15 231.36 490.69 228.71 494.03L233.25 501.08L237.22 497.92C237.44 496.89 236.17 496.82 235.73 496.32ZM240 501.17C239 500.59 235.93 502.39 236.14 503.58L241.44 509.04L243.52 506.52L240 501.17ZM246.84 509.18C245.75 508.54 243.47 509.6 243.6 510.97L248.36 517.63L252.07 514.5L246.85 509.19L246.84 509.18ZM253.89 524.36C255.45 525.1 256.77 522.77 257.77 521.92L253.5 517.13L249.79 520.76C250.92 521.06 253.64 524.25 253.89 524.37V524.36ZM254.36 536.47C255.52 537.34 263 530.72 264.05 529.34C262.54 528.44 258.51 521.84 257.92 526.07C257.74 527.37 258.24 529.1 258.04 529.66C257.47 531.28 252.27 532.78 254.36 536.48V536.47Z" fill="black"/>
<path d="M616.17 425.19L581.07 437.16C570.42 441.12 559.84 445.66 548.96 448.99C533.59 453.7 517.58 455.4 502.04 459.42C506.57 454.43 513.16 451.63 518.29 447.43C520.37 445.72 524.19 440.64 526.41 440.14C529.07 439.54 532.63 440.35 535.41 440.01L616.17 425.19Z" fill="black"/>
<path d="M516.16 482.68L486.06 497.08C488.07 493.2 490.3 489.44 492.78 485.83C493.91 484.18 501.9 473.22 502.62 472.84C503.06 472.61 511.49 470.42 512.17 470.35C516.22 469.91 518.18 479.78 516.15 482.68H516.16Z" fill="black"/>
<path d="M511.98 427.71C508.7 431.06 505.48 434.91 502.05 438.04C501.1 438.9 495.4 444.07 494.62 443.45C496.32 438.38 502.33 414.48 505.7 412.03C508.25 410.18 513.44 413.73 515.44 415.51C521.72 421.09 515.73 423.91 511.98 427.72V427.71Z" fill="black"/>
<path d="M375.91 319.04C375.78 320.01 373.73 320.18 372.93 320.38C359.35 323.74 344.73 322.26 331.68 327.03L331.07 325.89C320.57 324.24 287.02 340.1 276.81 345.76C271.25 348.84 265.63 354.41 258.93 353.84C258.62 352.32 259.32 352.86 260.05 352.42C266.72 348.5 273.72 344.61 280.44 340.82C299.23 330.24 318.92 324.53 340.32 321.95C352.1 320.53 364.09 319.83 375.91 319.03V319.04Z" fill="black"/>
<path d="M493.47 513.64C493.44 518.24 492.85 522.96 491.05 527.2C489.96 528.14 478.98 528.78 476.69 529.11C472.47 529.72 465.37 533.22 462.67 529.34C472.09 522.81 481.68 515.15 493.47 513.64Z" fill="black"/>
<path d="M429.56 501.08C432.91 491.29 437.39 481.88 440.84 472.13C444.27 462.45 446.79 452.41 450.26 442.74L462.66 393.8C460.31 420.73 451.74 446.77 443.28 472.28L431.3 501.4L429.57 501.09L429.56 501.08Z" fill="black"/>
<path d="M406.16 282.51L392.47 253.65C392.52 251.48 401.15 249.87 403.3 250.85C406.42 252.27 405.39 258.4 405.57 261.13C405.62 261.87 406.16 262.62 406.16 262.82V282.51Z" fill="black"/>
<path d="M379.9 288.22L357.07 269.52C354 265.73 360.76 264.77 359.1 259.66C353.87 252.88 348.77 245.77 345.09 238.01L367.24 267.51L379.9 288.23V288.22Z" fill="black"/>
<path d="M500.9 393.22C503.9 385.46 506.09 373.89 510.17 366.83C513.22 361.56 519.03 366.95 518.47 371.1C517.66 377.15 505.61 389.02 500.9 393.22Z" fill="black"/>
<path d="M449.54 579.27C451.8 581.82 462.25 591.1 463 593.52C464.29 597.71 457.07 602.34 453.69 601.11C448.54 599.23 449.66 583.84 449.54 579.28V579.27Z" fill="black"/>
<path d="M345.59 472.62L347.38 478.24C339.66 481.64 330.07 482.55 322.27 479.1C321.98 477.86 329.37 472.39 330.66 472.09C335.13 471.07 340.93 473.17 345.59 472.62Z" fill="black"/>
<path d="M459.23 385.24C458.16 400.62 453.98 415.63 449.94 430.44C448.57 435.47 447.2 440.62 445.7 445.6C443.7 452.26 440.42 464.81 437.58 470.58C437.09 471.57 436.65 472.71 435.27 472.55C437.65 459.9 442.87 447.92 446.52 435.58C450.58 421.84 454.85 406.28 457.38 392.23C457.72 390.34 457.46 388.61 458.02 386.56C458.29 385.58 457.61 384.97 459.24 385.24H459.23Z" fill="black"/>
<path d="M308.57 430.32L290.61 448.6C289.1 450.3 287.68 446.65 287.49 445.41C287.27 443.97 287.16 438.28 288.02 437.45C289.13 436.38 289.05 437.7 289.45 438.31L300.41 429.27L308.57 430.33V430.32Z" fill="black"/>
<path d="M293.16 294.49C287.56 292.84 270.99 291.66 268.34 285.92C267.3 283.67 268.7 281.11 271.16 280.77C279.81 279.57 287.42 289.17 293.16 294.49Z" fill="black"/>
<path d="M327.97 328.74C324.44 332.18 319.07 332.82 314.69 334.57C302.18 339.58 290.4 344.53 278.51 350.89C276.47 351.98 267.18 359.08 265.77 355.84L295.63 339.48C306.7 336.65 316.49 330.15 327.98 328.75L327.97 328.74Z" fill="black"/>
<path d="M385.04 521.63C385.23 522.75 384.29 523.26 383.6 523.89C379.27 527.87 373.25 531.39 368.54 535.08C355.29 545.47 341.53 557.92 327.57 567.16C326.78 567.68 326.16 568.56 325.12 568.42L326.05 566.22C339.73 556.24 352.6 545.14 365.94 534.77C370.12 531.52 378.32 524.34 382.46 522.18C383.38 521.7 383.95 521.43 385.04 521.63Z" fill="black"/>
<path d="M376.48 323.03C376.05 323.88 373.95 324.68 373.05 325.02C370.56 325.94 351.67 329.39 349.34 329.24C348.21 329.17 347.8 328.06 345.47 328.2C344.14 328.28 331.13 332.18 330.05 332.81C320.4 338.42 309.34 341.63 299.14 346.41C292.8 349.39 286.97 354.14 280.03 355.54C293.49 345.99 309.64 340.59 324.93 334.53C339.65 328.7 341.47 328.77 357.28 326.93C363.85 326.17 370.02 324.32 376.48 323.02V323.03Z" fill="black"/>
<path d="M485.37 540.06C487.89 539.74 497.92 539.43 499.92 540.01C503.57 541.07 503.6 547.55 499.78 548.77C495.39 550.17 486.73 542.83 482.05 541.9C480.28 540.73 484.57 540.16 485.36 540.06H485.37Z" fill="black"/>
<path d="M521.44 517.07C528.56 517.9 536.91 517.55 543.85 518.91C545.46 519.23 550.25 520.69 551.16 521.87C552.61 523.77 550.29 525.4 548.5 525.61C544.57 526.07 527.65 520.22 523.29 518.35C522.59 518.05 521.61 518.05 521.45 517.06L521.44 517.07Z" fill="black"/>
<path d="M412.43 526.77C413.09 527.38 408.26 531.87 407.6 532.49C398.89 540.66 385.9 550.42 376.09 557.48C373.22 559.55 370.08 562.13 366.78 563.29C367.81 561.83 369.17 560.49 370.5 559.32C379.26 551.59 389.83 544.39 399 537.03C400.56 535.78 410.95 525.42 412.43 526.78V526.77Z" fill="black"/>
<path d="M353.08 283.08C346.78 283.48 339.77 282.13 333.95 279.67C333.27 279.38 331.23 278.68 331.46 277.76C331.89 276.85 332.78 275.23 333.69 274.82C338.38 272.7 349.88 279.24 353.09 283.08H353.08Z" fill="black"/>
<path d="M320.56 348.15C309.54 356.11 298.09 363.7 286.6 370.97C285.48 371.68 285.55 371.82 284.61 370.68L290.37 365.61C300.07 359.48 309.74 352.02 320.55 348.15H320.56Z" fill="black"/>
<path d="M222.68 273.67C229.41 273.69 228.51 284.53 225.43 285.31C222.16 286.13 212.23 273.64 222.68 273.67Z" fill="black"/>
<path d="M315.99 345.29C309.76 349.65 302.79 353.17 296.29 357.25C294.35 358.47 283.97 366.73 282.33 365.25C282.13 364.24 282.83 363.82 283.5 363.29C289.05 358.9 306.94 347.5 313.25 345.67C314.16 345.41 315.04 345.17 316 345.28L315.99 345.29Z" fill="black"/>
<path d="M438.11 604.38C439.11 608.08 440.77 618.65 433.97 617.42C427.17 616.19 433.62 608.33 435.85 605.82C436.47 605.12 437.02 604.2 438.12 604.38H438.11Z" fill="black"/>
<path d="M244.36 291.92C252.98 291.69 248.17 306.61 242.06 300.23C239.06 297.1 239.41 292.05 244.36 291.92Z" fill="black"/>
<path d="M441.55 432.04C443.39 432.94 442.2 436.19 441.83 437.75C440.09 445.14 436.19 455.19 433.56 462.58C433.22 463.53 431.46 468.53 430.98 468.55C429.43 467.49 430.63 465.43 430.98 464C432.09 459.48 434.57 453.32 436.11 448.59C437.91 443.07 439.6 437.51 441.53 432.04H441.55Z" fill="black"/>
<path d="M318.84 355.56L318.15 357.44C310.59 361.68 303.99 367.36 296.54 371.77C295.16 372.59 293.68 373.84 292.03 373.81C290.85 372.65 296.35 369.06 297.21 368.44C302.3 364.83 309.84 359.66 315.25 356.8C316.4 356.2 317.43 355.37 318.84 355.55V355.56Z" fill="black"/>
<path d="M414.66 497.02L412.44 497.08L412.55 495.77L423.57 467.99C424.83 467.91 423.6 471.86 423.45 472.42C421.23 480.69 417.02 488.77 414.66 497.02Z" fill="black"/>
<path d="M423.85 499.94L434.68 474.26C434.1 480.33 431.64 486.35 429.25 491.93C428.71 493.19 425.7 501.67 423.85 499.93V499.94Z" fill="black"/>
<path d="M377.54 457.03C377.45 457.12 376.72 456.71 376.48 456.89C375.17 457.87 374.51 462.25 374.2 463.99L371.33 463.08C374.06 456.88 376.28 450.6 377.9 444.02C378.72 445.15 379.93 447.46 379.88 448.81C379.86 449.41 377.84 456.74 377.53 457.03H377.54Z" fill="black"/>
<path d="M419.78 498.72L418.15 498.79C417.78 498.45 419.03 495.24 419.28 494.51C421.09 489.26 423.83 482.42 426.03 477.29C426.68 475.78 427.62 473.52 428.99 472.55C427.33 481.59 423.43 490.35 419.79 498.72H419.78Z" fill="black"/>
<path d="M379.9 517.07C381.2 518.42 374.06 523.88 373.01 524.72C369.71 527.35 365.14 530.95 361.08 531.9C360.92 530.72 362.8 529.75 363.66 529.07C367.66 525.9 371.57 522.39 375.64 519.37C376.33 518.85 379.21 516.35 379.9 517.08V517.07Z" fill="black"/>
<path d="M313.13 365.83C313.66 366.29 311.13 368.57 310.78 368.9C307.82 371.66 301.04 377.02 297.68 379.2C295.12 380.86 293.86 379.26 295.71 377.23L313.12 365.83H313.13Z" fill="black"/>
<path d="M334.25 544.46L329.12 549.89C323.12 554.4 317.63 560.57 310.28 562.72C313.83 558.72 318.91 556.28 323.11 553.01C326.73 550.19 329.85 545.62 334.25 544.46Z" fill="black"/>
<path d="M241.23 401.22C241.36 402.27 240.69 403.03 240.04 403.73C237.66 406.27 231.85 409.51 228.74 411.83C227.3 412.9 223.93 416.43 222.98 416.92C222.09 417.38 221.26 416.71 221.27 416.34C221.3 415.55 231.76 407.28 233.3 406.13C234.41 405.3 240.36 400.41 241.23 401.22Z" fill="black"/>
<path d="M222.97 406.35L225.87 403.26C230.28 400.55 234.2 397.04 238.53 394.24C239.51 393.61 240.94 392.03 241.8 393.52C242.16 395.35 226.87 404.11 224.96 406.4L222.98 406.35H222.97Z" fill="black"/>
<path d="M297.73 428.61C298.17 429.03 289.97 436.52 288.6 436.59C289.71 429.32 288.95 425.4 297.73 428.61Z" fill="black"/>
<path d="M407.3 494.8C406.62 494 412.43 476.94 414.71 475.4C414.03 480.41 411.93 486.18 410 490.95C409.86 491.29 408.32 496.01 407.3 494.8Z" fill="black"/>
<path d="M321.13 562.14L335.39 550.44C335.91 549.67 337.11 550.75 337.1 551.02C337.06 552.01 323.96 563.15 321.13 562.14Z" fill="black"/>
<path d="M447.82 413.77C448.62 414.54 444.54 427.38 443.55 429.2C443.12 429.99 443.6 430.61 442.12 430.31L446.12 413.76H447.83L447.82 413.77Z" fill="black"/>
<path d="M378.77 455.42L380.49 449.15C383.03 446.75 388.73 457.41 378.77 455.42Z" fill="black"/>
<path d="M286.88 550.74C285.65 552.38 284.12 553.93 282.58 555.28C281.61 556.14 275.67 561.12 274.89 560.43L276.9 557.59L286.87 550.73L286.88 550.74Z" fill="black"/>
<path d="M274.9 384.66C274.64 383.47 275.51 383.36 276.2 382.82C278.81 380.75 281.65 379.31 284.6 377.81C284.83 378.88 284.08 379.19 283.42 379.76C282.32 380.72 275.9 385.5 274.91 384.65L274.9 384.66Z" fill="black"/>
<path d="M342.81 343.01C342.22 344.3 335.48 348.85 334.82 348.14L334.92 345.95C337.56 345.04 339.9 343.08 342.81 343.01Z" fill="black"/>
<path d="M288.02 382.38C289.25 383.61 280.27 389.31 278.89 389.22L288.02 382.38Z" fill="black"/>
<path d="M278.32 356.14C276.87 358.56 274.15 359.76 271.48 360.13C271.16 358.83 273.06 358.25 273.95 357.76C275.29 357.02 276.73 356.08 278.32 356.14Z" fill="black"/>
<path d="M218.97 433.18C218.29 435.75 214.41 436.96 212.13 437.17L215.95 434.44L218.97 433.19V433.18Z" fill="black"/>
<path d="M386.18 320.18C385.88 323.41 382.17 322.34 379.91 322.45C379.91 321.65 381.57 321.28 382.22 321.06C382.92 320.81 385.88 319.9 386.19 320.18H386.18Z" fill="black"/>
<path d="M547.12 269.97L528 288.21L522.59 282.23L541.7 263.69C542.26 263.69 545.08 270.29 547.12 269.97Z" fill="black"/>
<path d="M520.31 279.66C520.36 277.54 515.1 275.1 515.99 273.39L534.28 256.27C534.96 258.12 539.6 261.12 539.1 262.76L520.31 279.67V279.66Z" fill="black"/>
<path d="M511.07 304.64L509.55 304.66C508.93 303.6 508.02 301.88 507.18 301.07C506.34 300.26 503.96 299.71 504.33 298.79L521.16 283.1L526.58 289.63L511.07 304.64Z" fill="black"/>
<path d="M502.85 264.03C503 264.22 503.43 264.24 503.69 264.3V265.03C499.46 270.5 493.43 274.76 487.97 279.03H487.24L482.67 273.59L498.9 258.59C500.28 260.36 501.45 262.28 502.84 264.05L502.85 264.03Z" fill="black"/>
<path d="M511.06 272.33C511.35 272.85 511.24 273.5 510.89 273.97L495.47 288.21L490.06 282.23L506 267.9L506.61 267.94C507.19 269.04 510.79 271.85 511.06 272.33Z" fill="black"/>
<path d="M518.47 280.32V281.85C515.56 283 504.74 296.35 502.59 295.37L498.16 291.52V289.46L513.19 275.67L518.46 280.31L518.47 280.32Z" fill="black"/>
<path d="M448.36 313.93C448.88 314.69 444.96 318.25 444.12 319.05C443.1 320.02 435.98 326.25 435.43 326.39C433.81 326.81 430.88 322.67 429.59 321.52L443.53 308.19C444.42 310.42 446.2 312.84 448.35 313.93H448.36Z" fill="black"/>
<path d="M458.65 325.89C459.32 328 461.01 330.5 463.22 331.03V331.86C458.92 336.17 454.85 340.68 449.81 344.14L444.39 336.74C445.11 336.78 445.81 336.61 446.4 336.19C450.22 333.45 453.72 329.11 457.5 326.16L458.64 325.89H458.65Z" fill="black"/>
<path d="M441.61 334.94L436.98 329.6C438.7 328.09 449.6 317.11 450.67 317.58L455.81 323.88L442.86 334.94H441.62H441.61Z" fill="black"/>
<path d="M452.96 345.3L465.23 334.46L470.61 339.95C470.75 340.76 459.64 351.3 458.84 351.51C456.82 352.04 454.71 347.1 452.97 346.13V345.3H452.96Z" fill="black"/>
<path d="M447.49 310.24L444.41 307.36L456.37 296.78C456.37 299 462.15 301.88 461.27 303.63L450.93 313.32L447.49 310.25V310.24Z" fill="black"/>
<path d="M478.93 322.6L483.67 328.46L472.72 338.97L467.22 332.46L478.93 322.6Z" fill="black"/>
<path d="M480.91 274.52C480.68 276.95 485.82 280 485.42 281.55C485.1 282.78 475.43 290.6 474.44 290.43L468.94 285.08C469.21 284.41 478.42 275.81 479.49 275.08C479.97 274.75 480.05 274.28 480.92 274.52H480.91Z" fill="black"/>
<path d="M469.5 311.62V312.18C466.8 312.7 465.33 315.69 463.23 317.62C462.54 318.26 458.21 321.82 457.79 321.78L452.34 316.43C452.16 314.01 461.96 307.85 463.51 305.34C464.96 307.79 466.69 310.64 469.5 311.62Z" fill="black"/>
<path d="M475.44 319.4C475.62 319.6 476.05 319.62 476.34 319.62V320.74L465.21 330.44L460.6 325.33C459.82 322.85 465.53 319.18 467.22 317.61C467.97 316.92 469.53 314.93 470.11 313.94C471.3 313.25 474.58 318.4 475.44 319.4Z" fill="black"/>
<path d="M456.95 352.72C457.16 353.59 456.82 353.63 456.35 354.1C453.25 357.21 449.52 359.9 446.29 362.9C444.18 363.64 442.77 357.21 439.83 357.84C443 353.91 446.87 350.61 450.96 347.68L456.94 352.72H456.95Z" fill="black"/>
<path d="M421.57 338.45L410.44 348.71C410.07 348.88 406.73 342.62 405.02 342.99L416.19 332.18C418.01 331.77 418.9 338.75 421.58 338.45H421.57Z" fill="black"/>
<path d="M496.9 316.19C494.06 320.45 489.74 323.23 486.33 327.01H485.5C484.72 324.78 482.19 322.32 479.78 321.88L491.01 311.7L496.9 316.19Z" fill="black"/>
<path d="M438.4 358.42L443.75 364.3C443.59 365.35 434.59 373.9 433.92 373.78L427.86 367.26L438.41 358.42H438.4Z" fill="black"/>
<path d="M502.89 299.64L508.25 306.68C506.87 308.33 499.37 315.37 497.87 314.98C497.24 314.82 492.83 310.34 492.95 309.7L502.9 299.65L502.89 299.64Z" fill="black"/>
<path d="M500.87 296.81C501.06 297.36 500.84 297.54 500.63 297.93C500.11 298.87 491.24 307.29 490.33 307.61L486.64 303.3L484.92 302.47V301.64L495.73 291.86L500.87 296.81Z" fill="black"/>
<path d="M494.05 288.8C492.32 290.19 484.52 298.69 483.39 299C481.12 299.61 480.24 293.86 477.51 293.92V293.09L488.64 283.09C489.47 285.52 491.66 287.9 494.06 288.8H494.05Z" fill="black"/>
<path d="M484.33 303.06L488.9 308.46L478.43 318.42L472.37 313.04C474.05 311.82 483.18 302.24 484.33 303.06Z" fill="black"/>
<path d="M472.03 291.42C472.18 291.61 472.61 291.63 472.87 291.69V292.42L463.51 301.9L457.52 295.34L468.08 285.93C469.3 287.81 470.64 289.65 472.03 291.42Z" fill="black"/>
<path d="M435.83 330.45C435.24 332.53 440.55 336.44 440.36 337.51L430.5 345.8L425.04 339.95L435.84 330.46L435.83 330.45Z" fill="black"/>
<path d="M433.09 347.67L442.39 339.56L448.37 345L438.31 354.37C437.25 354.56 432.37 348.93 433.08 347.66L433.09 347.67Z" fill="black"/>
<path d="M428.41 348.13L417.87 356.72L412.44 350.7L423.03 341.31L428.41 348.13Z" fill="black"/>
<path d="M476.34 294.5L480.7 300.8L471.01 309.86L465.55 303.99L476.34 294.5Z" fill="black"/>
<path d="M431.26 349.86L435.73 356.43L425.84 365.24L421.04 358.79C422.14 357.49 430.19 349.11 431.26 349.87V349.86Z" fill="black"/>
<path d="M428.34 323.11L432.37 328.94L423.01 337.29L418.15 331.32C418.27 330.77 425.46 324.18 426.38 323.56C426.96 323.17 427.63 322.7 428.33 323.1L428.34 323.11Z" fill="black"/>
<path d="M403.83 343.6L408.34 350.14C407.39 351.46 400.53 358.2 399.32 357.27C398.71 354.28 395.93 352.01 393.04 351.28C394.7 350.42 402.58 342.73 403.83 343.6Z" fill="black"/>
<path d="M426.69 368.69L431.79 375.74C430.39 376.98 424.99 382.68 423.66 382.33C422.72 382.08 419.56 376.84 417.58 376.39L426.69 368.69Z" fill="black"/>
<path d="M402.16 358.99C404.22 358.69 408.79 352.68 410.43 352.68L416.98 358.12L407.56 365.72L402.15 358.99H402.16Z" fill="black"/>
<path d="M424.42 365.84C424.63 366.71 424.29 366.75 423.82 367.22C421.71 369.33 417.92 370.84 417 373.82C415.72 374.71 411.54 368.04 410.16 367.26L418.47 360.72L424.42 365.85V365.84Z" fill="black"/>
<path d="M382.15 421.81C381.21 428.38 372.84 423.53 376.17 420.02C379.09 416.94 379.82 420.89 382.15 421.81Z" fill="black"/>
<path d="M322.65 486.34C329.04 484.14 329.43 493.67 323.25 491.83C320.74 491.08 320.47 487.09 322.65 486.34Z" fill="black"/>
<path d="M282.31 436.02C280.37 435.83 282.14 439.22 280.04 440.34C275.58 442.73 274.81 428.57 282.31 436.02Z" fill="black"/>
</g>
<defs>
<clipPath id="clip0_8061_325">
<rect width="519.59" height="494.01" fill="white" transform="translate(144 153)"/>
</clipPath>
</defs>
</svg>
