<svg width="800" height="800" viewBox="0 0 800 800" fill="none" xmlns="http://www.w3.org/2000/svg">
<g clip-path="url(#clip0_8061_327)">
<path d="M387.921 154.52C387.213 153.703 383.332 159.47 382.187 160.276C371.242 167.929 356.373 161.519 350.944 150.313C340.991 129.796 356.765 108.419 378.644 109.313C377.522 98.9675 381.566 89.3634 391.65 85.4717C403.358 80.9585 418.369 87.0524 420.985 99.9377C421.399 101.998 421.018 108.386 421.944 109.04C442.951 109.138 458.278 127.78 450.157 148.318C445.731 159.524 433.838 166.239 422.01 162.239C417.933 160.865 416.494 158.499 413.823 155.556C413.278 154.956 413.278 154.226 412.079 154.52L412.689 166.283C425.847 166.937 440.793 173.173 442.417 187.955C442.973 188.543 446.963 183.769 447.857 183.038C465.735 168.496 495.768 170.796 508.446 190.974C525.866 218.685 503.224 251.542 479.569 266.618C480.473 269.202 482.414 270.216 483.035 273.203C484.997 282.611 470.738 287.407 465.539 292.836C462.017 296.51 462.737 298.843 462.868 303.737C469.376 303.552 471.981 311.325 467.806 315.838C480.55 321.234 493.021 327.458 498.155 341.216C506.08 362.462 485.117 365.994 469.343 367.542C465.462 367.924 452.522 366.997 450.179 370.05C449.535 370.889 449.165 372.96 449.176 374.05C449.208 383.164 449.917 394.545 450.473 403.767C452.217 432.797 460.786 490.204 477.083 514.023C484.267 524.51 492.508 524.063 500.303 531.062C505.961 536.142 508.348 544.525 503.737 551.175C502.527 552.919 498.417 555.393 498.155 556.734C496.793 563.602 505.012 573.522 510.256 577.468C520.743 585.372 543.036 589.972 532.865 608.145C548.694 614.903 549.653 634.45 532.843 640.663C536.986 644.413 536.844 648.414 536.55 653.668L583 654.911C582.749 656.078 581.779 656.034 580.852 656.154C566.561 658.094 551.844 657.767 537.454 658.585C434.906 664.472 332.826 664.995 230.3 656.764C225.95 656.416 221.371 656.525 217 656.132L217.916 654.889L263.45 653.658C263.385 648.501 262.524 643.988 267.168 640.652C251.143 635.779 251.077 614.435 266.514 608.385C262.338 599.642 264.584 592.708 272.291 587.236C282.43 580.041 299.25 575.506 301.703 560.288C302.488 555.415 300.264 556.178 297.626 552.897C291.271 545.004 293.309 535.291 301.267 529.514C310.544 522.766 315.679 523.867 323.408 512.639C342.136 485.473 349.516 419.487 350.181 386.445C350.236 383.578 350.639 372.415 349.832 370.638C349.331 369.516 347.314 368.404 346.093 368.186C334.004 366.049 307.132 369.592 301.354 355.322C294.094 337.389 317.139 320.264 332.194 316.121C329.185 310.278 330.286 304.097 337.743 303.715C338.789 297.098 336.816 295.027 332.205 291.037C324.868 284.693 309.606 279.438 320.421 267.512C308.92 258.824 298.618 248.391 291.619 235.626C272.902 201.494 299.01 165.204 337.154 175.233C347.14 177.86 349.44 182.373 356.646 187.322C357.169 187.682 357.256 188.184 358.194 187.933C358.837 173.02 374.436 167.46 387.213 166.163C387.169 165.498 387.921 164.408 387.921 164.092V154.488V154.52ZM404.153 113.782C404.295 113.542 407.435 111.493 408.35 110.25C414.858 101.377 405.047 89.7341 394.92 94.9558C389.393 97.801 388.052 105.356 391.639 110.25C395.029 114.862 397.329 112.213 396.588 120.16C396.185 124.487 393.71 130.45 389.317 132.075C381.653 134.909 382.732 129.24 380.705 128.586C375.2 126.82 373.51 139.16 378.077 143.052C380.574 145.178 383.931 141.101 386.417 140.937C391.246 140.61 397.046 145.211 398.768 149.593C398.212 139.902 386.897 136.479 379.571 142.137L378.644 140.305C386.831 135.999 394.811 137.46 400.011 145.243C404.273 139.128 411.359 135.934 418.619 139.03C419.775 139.52 422.696 141.145 421.988 142.78C414.521 136.228 403.009 138.932 400.948 148.972C404.971 143.946 409.55 139.389 416.548 141.733C418.194 142.289 420.571 144.796 422.326 143.467C426.272 140.49 425.825 130.963 420.974 128.586C419.404 128.314 417.497 134.342 410.945 132.456C406.846 131.279 404.709 126.417 404.186 122.492C403.99 121.053 403.706 114.589 404.164 113.804L404.153 113.782ZM376.159 148.939C369.182 143.074 368.114 127.736 377.87 124.346C383.67 122.329 384.378 126.395 385.741 126.504C388.597 126.733 388.761 121.675 386.09 119.505C379.844 114.447 369.836 117.14 364.091 121.718C356.002 128.161 353.898 141.995 361.606 149.571L358.88 141.145L359.436 133.47L361.911 145.233C362.968 145.396 362.576 143.75 362.521 143.085C362.391 141.635 361.66 140.262 361.911 138.757L363.143 133.481C362.979 137.983 363.186 143.892 365.944 147.707C366.588 148.601 367.013 148.71 366.86 147.413C366.522 144.502 364.702 140.349 364.985 137.504C365.105 136.326 364.876 136.479 366.239 136.566C366.141 141.69 367.71 148.775 373.052 150.803C368.975 146.813 367.841 143.172 368.103 137.482C368.136 136.73 367.623 135.182 368.713 135.323C368.463 139.586 370.152 143.695 373.041 146.791C373.543 147.326 375.494 149.56 376.148 148.939H376.159ZM436.236 152.667C452.381 140.327 439.441 115.341 421.029 116.726C416.799 117.042 409.353 121.152 413.289 125.752C415.709 128.575 416.232 123.888 419.295 123.746C424.07 123.528 428.605 129.578 429.248 133.939C430.316 141.09 428.322 144.993 423.22 149.56C429.357 147.685 432.028 140.589 432.519 134.702C433.598 134.549 433.107 136.108 433.129 136.86C433.303 141.908 431.439 146.083 428.18 149.876C429.128 150.868 430.404 148.884 430.905 148.274C434.056 144.426 436.083 138.441 435.615 133.47L436.181 138.681L433.761 146.475L435.451 144.775L438.394 135.945C439.452 136.272 438.056 142.256 437.773 143.379C437.675 143.783 434.884 148.198 437.173 146.497C438.144 144.84 439.474 142.3 439.79 140.447C440.258 137.678 438.7 134.299 440.553 132.849C441.152 137.907 442.253 142.126 439.953 146.802C438.863 149.015 436.999 150.476 436.236 152.667ZM407.119 191.988C407.522 188.391 406.824 184.205 407.119 180.531H407.729C407.391 181.883 408.972 184.368 408.972 185.175V196.937C408.972 197.406 407.206 200.611 408.972 200.96C409.986 197.384 411.795 193.144 412.024 189.415C412.547 180.683 405.287 168.627 401.079 160.876C400.687 160.156 401.101 159.829 399.706 160.091C392.653 173.5 383.321 185.229 391.039 200.96C392.151 201.102 391.639 199.565 391.573 198.878C391.235 195.193 390.232 191.367 391.006 187.671C391.192 186.777 391.061 185.72 392.26 185.48L393.056 194.288L400.316 222.632C400.948 218.762 401.592 214.663 402.464 210.847C403.772 205.19 406.53 197.428 407.129 191.977L407.119 191.988ZM394.724 222.021C393.993 215.895 391.442 208.395 387.551 203.5C384.498 199.652 372.976 193.253 372.093 190.473C370.294 184.848 376.769 180.793 381.424 184.172C390.004 174.557 378.208 174.786 372.289 179.91C370.239 181.676 367.656 186.93 367.689 189.633C367.765 196.806 384.346 207.697 389.142 213.682C391.257 216.32 392.445 219.612 394.724 222.032V222.021ZM426.719 198.9C430.295 195.008 432.955 192.032 431.581 186.385C430.251 180.923 421.007 172.671 415.72 177.74C414.869 178.863 417.933 184.085 418.619 184.237C423.067 180.923 429.27 184.521 428.049 189.993C427.199 193.798 418.205 198.147 415.044 201.003C409.277 206.225 406.65 213.3 405.265 220.778C406.007 221.727 411.872 212.722 412.678 211.785C416.766 207.01 422.62 203.347 426.719 198.889V198.9ZM359.425 207.784C351.675 190.636 330.384 177.206 311.939 186.614C300.776 192.304 294.584 206.748 296.263 218.936C297.43 218.685 297.386 217.715 297.506 216.789C298.487 209.506 298.465 205.756 303.371 199.739C303.971 198.998 308.56 194.157 309.258 194.801C303.011 202.246 299.686 209.245 300.569 219.274C301.725 232.475 315.853 249.078 325.675 257.341C326.373 257.93 326.678 258.846 327.844 258.573C317.586 246.658 299.752 229.423 302.728 212.101C303.175 209.517 304.668 205.713 306.783 204.089C302.946 213.747 304.581 220.942 309.345 229.728C309.705 230.404 310.708 232.377 310.806 232.53C312.31 234.906 314.686 237.13 316.387 239.387C317.27 238.929 316.387 237.774 316.104 237.196C310.784 226.327 306.205 215.611 313.335 204.143C320.017 193.394 332.979 190.189 344.371 195.302C350.552 198.071 354.345 203.587 359.414 207.806L359.425 207.784ZM494.841 191.901C479.569 177.064 455.575 184.128 444.63 200.393C443.572 201.963 441.643 204.884 442.101 206.541C448.14 199.477 456.033 193.678 465.648 192.937C480.114 191.825 491.713 204.263 490.644 218.555L484.212 238.755C490.884 229.641 497.534 219.012 494.002 207.294C493.119 204.361 491.298 202.399 490.11 199.739C509.405 218.358 486.36 242.734 473.388 257.33C474.554 257.603 474.859 256.687 475.557 256.099C490.186 243.791 506.985 220.582 495.801 201.167C495.212 200.153 490.862 195.302 491.353 194.779C496.618 198.442 499.899 203.478 501.469 209.746C502.069 212.156 502.102 214.859 502.679 217.214C502.832 217.835 502.854 219.078 503.737 218.936C505.426 209.714 501.567 198.431 494.852 191.912L494.841 191.901ZM397.209 256.088V242.777C397.209 234.361 388.783 217.432 382.983 211.174C378.045 205.855 370.73 201.886 367.471 195.4C365.977 195.76 366.816 198.093 368.114 198.202L368.092 199.717L366.86 199.401C368.234 201.788 368.114 204.121 369.684 206.498C375.603 215.437 390.004 222.523 392.729 235.473L397.198 256.077L397.209 256.088ZM333.426 196.022C320.366 196.501 311.634 206.738 313.051 219.797C314.359 231.854 327.452 248.282 336.118 256.491C336.642 256.982 339.781 259.587 340.239 259.184C331.246 249.089 316.016 232.366 316.147 218.075C316.147 217.039 318.415 206.247 320.41 208.416C318.404 213.431 318.24 216.189 319.483 221.422C322.775 235.31 334.123 247.868 345.243 255.728C348.557 258.072 352.797 260.928 356.951 261.037C342.812 251.411 326.078 235.506 324.759 217.377C324.072 207.926 326.1 202.05 333.426 196.022ZM403.401 256.088C404.273 242.232 408.078 229.968 417.05 219.263C422.925 212.243 432.769 207.054 432.508 196.643C425.858 203.5 417.725 209.07 412.438 217.126C405.353 227.951 402.267 241.033 402.791 253.929C402.823 254.681 402.322 256.229 403.401 256.088ZM473.747 245.917C481.596 235.833 491.822 219.165 485.041 206.345C481.705 200.033 473.693 195.673 466.574 196.643C471.24 200.448 474.652 204.317 475.23 210.586C477.236 232.356 459.903 248.915 444.281 261.037C448.554 260.197 452.272 257.352 455.716 254.823C467.643 246.069 482.643 229.532 481.465 213.638C481.335 211.905 481.018 210.553 480.201 209.027C481.607 208.972 481.553 208.591 482.218 209.801C490.132 224.06 471.142 247.781 461.625 257.636C462.246 258.639 462.999 257.429 463.489 257.014C467.185 253.918 470.804 249.7 473.747 245.906V245.917ZM374.295 261.037C375.047 258.203 374.905 255.259 374.6 252.37C372.681 233.642 360.417 208.623 340.479 204.099C330.875 201.919 330.134 211.85 334.985 212.722C340.751 213.758 342.594 212.919 348.48 215.949C366.588 225.259 368.495 242.101 373.248 259.304C373.423 259.936 373.401 261.179 374.295 261.037ZM426.937 261.048C428.245 243.115 437.806 220.07 456.174 213.791C460.622 212.275 469.049 214.325 468.427 208.144C467.773 201.625 457.897 204.383 453.972 206.007C435.887 213.518 424.31 242.417 425.084 261.037H426.937V261.048ZM379.658 219.765C376.039 215.84 370.828 212.504 367.798 207.784C368.866 222.555 381.533 233.217 384.215 247.41C385.381 247.083 385.349 246.571 385.207 245.546C385.011 244.151 383.419 239.496 382.83 237.959C381.054 233.282 378.165 228.453 375.537 224.191C376.268 223.144 376.857 224.387 377.293 224.91C379.953 228.104 381.381 232.922 383.899 236.269L381.032 228.606C380.498 226.752 377.696 224.888 378.317 223.264C385.556 230.797 389.142 240.968 390.701 251.128C391.998 249.678 391.192 246.571 390.908 244.729C389.535 235.724 385.861 226.502 379.647 219.765H379.658ZM432.508 209.027L430.938 208.569C425.324 215.415 418.423 220.713 414.215 228.813C410.585 235.8 408.22 244.478 408.983 252.37L410.52 244.325C412.362 237.468 414.619 230.491 419.492 225.128C418.685 228.671 416.036 231.68 414.826 235.016C414.619 235.593 414.008 237.032 415.153 236.891L418.031 230.786L426.305 219.557C424.266 225.728 420.146 231.189 417.791 237.348C416.483 240.76 415.109 244.914 414.728 248.533C414.651 249.209 414.008 250.648 415.164 250.517C416.363 245.47 418.325 239.888 420.636 235.234C422.696 231.091 425.858 227.417 427.864 223.264C429.662 219.536 432.072 213.693 431.287 209.648L432.519 209.038L432.508 209.027ZM366.86 261.037C370.523 249.819 361.442 225.084 349.876 221.367C345.221 219.874 340.272 221.182 338.135 225.804C333.557 235.746 345.603 247.29 355.098 248.032L349.592 243.944C344.807 239.649 341.907 227.919 351.696 228.813C353.005 228.933 354.651 229.369 355.098 230.688C352.961 231.015 350.345 230.568 349.527 232.868L353.855 234.405C352.503 234.623 348.502 232.345 348.906 235.026C358.564 234.296 362.968 248.293 365.061 255.782C365.203 256.306 365.159 262.792 366.86 261.048V261.037ZM445.513 248.032C455.913 248.064 470.575 228.42 458.333 221.901C447.279 216.015 436.301 234.994 434.034 243.682C432.638 249.056 431.461 255.946 434.045 261.037C435.702 257.33 435.887 253.242 437.173 249.296C439.277 242.843 443.747 234.013 451.083 233.162C449.873 230.568 446.636 233.119 444.902 233.784C443.453 232.366 449.764 231.276 449.852 230.372C448.958 229.489 445.982 231.941 445.524 230.077C448.064 229.14 451.825 227.505 453.874 230.077C459.03 236.563 449.808 243.965 445.524 248.021L445.513 248.032ZM326.187 275.71C326.405 276.004 327.833 276.866 328.171 276.887C335.246 275.35 343.182 274.882 350.432 274.642C383.234 273.595 418.63 274.108 451.378 275.318C458.202 275.568 465.081 275.252 471.84 276.549C475.306 275.383 473.976 270.968 470.946 269.998C465.68 268.308 455.324 268.777 449.525 268.504C428.736 267.545 407.882 266.967 386.973 267.218C376.813 267.338 366.228 267.49 356.013 267.839C349.385 268.068 336.042 268.384 330.09 269.78C327.365 270.423 324.116 272.876 326.198 275.721L326.187 275.71ZM343.335 283.341H457.908L439.67 280.899C413.169 280.681 385.588 279.046 359.142 280.877C355.545 281.128 351.511 282.24 347.87 282.665C346.671 282.807 343.869 281.771 343.346 283.352L343.335 283.341ZM375.537 291.386V300.674H371.199V292.007L369.324 293.555L369.967 300.685H365.628L365.323 292.64C363.404 293.784 364.931 300.151 364.396 300.696H360.058C360.014 298.952 360.134 297.175 360.058 295.42C360.025 294.667 360.526 293.119 359.447 293.261L358.826 301.317L355.196 301.23L353.877 293.882L353.255 301.928C381.348 303.116 409.637 302.309 437.827 302.571L447.388 301.317L435.625 300.696V292.029H434.383V300.696H430.044V292.029H428.801V300.696H425.084L424.517 291.768L422.609 291.408V300.696L419.197 300.107L418.892 291.408H417.039C416.079 292.324 419.35 302.745 413.899 300.434L413.321 291.408H410.847V300.696L407.402 300.118L407.598 292.313L404.655 291.408V300.696L401.646 299.682L401.559 291.397H398.463V300.685H395.367V291.397H392.903L392.271 300.685H389.175V291.397H386.7V300.685L383.256 300.107L382.983 291.397H381.13V300.685H377.413C376.606 299.9 379.157 291.299 375.559 291.397L375.537 291.386ZM452.948 306.877H347.052L365.628 309.34L341.482 310.888C342.18 311.913 343.172 311.782 344.229 311.848C379.898 314.366 418.641 309.842 454.506 311.859L460.382 310.583L434.993 309.951L437.163 308.719L452.948 306.866V306.877ZM335.279 322.967H372.125C372.616 322.967 373.662 324.057 374.905 322.967V324.82L325.37 326.063C325.599 327.186 326.591 327.219 327.517 327.317C339.977 328.712 355.73 327.153 369.008 327.949C370.294 328.025 372.234 326.194 371.82 328.538C354.28 329.541 336.707 328.985 319.189 330.402L326.896 331.655L361.3 331.634V333.487L316.093 334.73L322.699 335.722C328.945 335.395 335.366 336.779 341.471 335.961V337.815C332.161 338.327 322.732 338.981 313.422 339.417C312.659 339.45 312.19 338.163 312.375 340.289H487.625L486.709 339.057L459.14 337.815V335.961C461.047 337.28 462.595 336.038 464.416 335.961C469.986 335.722 475.568 335.547 481.138 335.34C481.891 335.307 483.438 335.809 483.297 334.73C474.739 334.719 466.138 333.748 457.624 333.465C452.806 333.301 445.164 334.261 440.88 333.487C439.812 333.291 439.147 332.822 439.332 331.634H475.557L479.579 330.402L428.801 328.527L430.796 327.393L473.388 327.295C473.529 325.671 473.475 326.27 472.461 326.085C466.182 324.918 457.929 324.951 451.443 324.788C442.7 324.58 433.859 325.049 425.095 324.82L426.01 323.588L464.11 322.967C463.871 321.713 462.802 321.964 461.941 321.735C454.169 319.729 441.654 320.231 433.434 319.904C404.731 318.737 370.229 317.495 341.885 321.201C340.414 321.397 338.604 321.713 337.154 322.04C336.456 322.204 335.159 322.04 335.301 322.967H335.279ZM478.958 349.61C475.012 350.209 471.251 348.672 467.49 348.378C422.032 344.726 370.545 345.62 325.174 349.228C324.258 349.305 321.336 349.337 321.042 350.22L387.3 350.853L385.752 352.706L336.184 353.305L318.567 355.18H482.054L416.417 352.084L417.333 350.853L474.271 350.493L478.958 349.632V349.61ZM387.921 369.428L377.718 376.253C372.605 380.646 368.779 386.478 366.871 392.953C373.237 384.963 382.623 380.613 389.775 373.44C389.306 372.524 388.281 373.571 387.736 373.876C386.602 374.519 379.865 379.305 379.255 378.705C378.982 377.495 379.887 377.245 380.552 376.601C382.896 374.312 386.079 372.328 387.921 369.428ZM391.017 384.276C394.964 380.733 399.662 377.855 403.096 373.756C403.51 373.266 404.72 372.513 403.717 371.892C387.344 385.268 361.475 394.381 360.058 418.953L363.11 411.965C366.489 410.831 365.105 409.85 366.315 407.572C367.71 404.956 371.221 402.808 372.91 400.366L381.424 394.807C381.849 394.676 381.871 395.45 381.729 395.722C381.25 396.627 371.548 403.342 369.629 405.294C368.8 406.144 366.609 408.379 367.176 409.654C376.202 399.625 389.938 396.082 400.262 387.623C401.461 386.641 408.634 379.763 408.983 379C409.103 378.727 409.135 377.986 408.677 378.084C407.097 378.356 405.254 381.093 404.666 381.42C404.197 381.681 403.368 381.245 402.845 381.529C399.4 383.404 395.847 385.224 392.554 387.361C391.203 387.503 391.453 387.176 392.249 386.434C395.454 383.426 401.014 381.79 403.401 377.473L391.017 384.276ZM402.78 393.564C409.299 388.713 415.371 384.647 420.723 378.378C421.388 377.593 423.427 375.468 422.915 374.378C418.663 379.087 413.692 382.946 408.558 386.641C393.394 397.532 379.08 402.361 367.601 418.146C351.467 440.33 348.197 466.602 356.351 492.656C357.986 492.002 356.068 489.015 355.882 487.86C352.274 466.025 354.967 442.914 367.852 424.578C368.964 422.997 377.522 412.51 378.35 412.15C381.631 410.755 375.777 416.685 375.581 416.958C370.229 424.218 364.625 433.081 362.194 441.835C362.031 442.423 361.344 444.462 362.532 444.342C366.446 432.503 374.229 422.31 382.667 413.382L382.961 414.298C368.463 432.024 360.341 450.447 361.29 473.765C361.322 474.517 360.821 476.065 361.9 475.923C362.968 457.674 368.157 440.276 379.604 425.81C392.195 409.894 415 402.448 427.798 386.085L434.35 375.893C434.437 373.996 433.696 375.468 433.227 376.013C430.077 379.686 427.406 383.742 423.841 387.067C419.448 391.155 413.594 395.112 408.645 398.502C406.759 398.6 408.209 397.826 408.765 397.379C413.43 393.509 418.172 389.727 421.977 384.897C419.284 385.312 417.333 388.473 415.131 390.119C412.438 392.114 408.863 393.858 406.181 396.038C404.84 396.191 405.069 395.842 405.876 395.112C410.04 391.296 415.447 388.822 418.892 384.287L402.791 393.564H402.78ZM369.346 376.852C368.016 376.547 367.939 377.528 367.383 378.291C362.892 384.439 360.548 390.74 361.3 398.524L364.538 386.598L369.346 376.863V376.852ZM429.412 422.681C423.874 427.728 419.284 433.855 413.605 438.761C412.111 440.047 407.337 444.037 405.887 444.669C404.949 445.072 404.023 444.516 404.044 444.037C404.077 443.056 415.654 432.209 417.638 429.778C424.223 421.7 432.159 409.621 435.189 399.647C435.375 399.025 436.301 396.66 435.004 396.671C430.349 408.738 422.86 419.814 413.005 428.252L412.7 427.336L422.598 414.93C422.086 412.183 421.094 415.236 420.473 415.879C418.707 417.732 416.461 420.141 414.564 421.754C413.823 422.387 411.904 424.262 410.847 423.608C418.162 416.925 424.473 408.041 429.292 399.32C429.597 398.775 430.665 397.772 429.739 397.281C416.788 416.925 396.01 428.164 382.46 447.231C368.037 467.54 360.799 489.757 364.396 514.939L365.617 509.673C365.007 496.287 367.874 482.976 373.139 470.756C376.246 463.561 382.558 451.504 388.532 446.511C389.022 446.097 389.775 444.887 390.396 445.89C386.809 449.945 383.648 454.785 381.206 459.604C380.923 460.16 379.909 461.239 380.803 461.675L391.955 449.291C392.424 449.193 392.347 449.891 392.249 450.207C391.824 451.58 385.828 458.579 384.335 460.879C381.217 465.698 377.805 471.715 376.159 477.155L384.204 467.562C387.06 465.654 395.683 455.843 398.703 456.748C401.875 457.696 396.741 460.563 395.977 461.37C384.4 473.536 372.354 488.034 371.831 505.64L377.696 490.771C382.22 481.657 389.099 475.858 396.915 469.731C397.798 470.276 396.631 471.617 396.239 472.151C395.498 473.176 388.172 479.15 389.175 480.251L401.875 469.731C404.622 470.211 401.722 471.137 401.308 471.617C393.35 480.861 382.754 488.569 378.906 500.647C378.721 501.214 378.143 502.718 379.255 502.544C386.45 485.56 404.47 475.847 416.439 462.623C428.343 449.466 435.952 432.361 438.71 414.908L437.49 414.614C432.933 434.04 422.511 452.823 406.824 465.392C406.355 465.48 406.443 464.804 406.508 464.455C406.846 462.754 416.036 453.51 417.911 451.09C421.323 446.708 423.95 441.856 426.948 437.202C427.035 435.305 426.283 436.776 425.825 437.322C424.223 439.207 417.725 446.773 416.112 447.427C415.829 447.547 415.098 447.591 415.196 447.133C418.914 442.456 424.234 438.303 426.338 432.579C421.585 436.744 417.66 441.813 412.111 444.963C411.653 443.328 413.005 443.808 413.975 442.838C418.63 438.161 424.125 431.729 427.733 426.213C428.431 425.145 429.499 424.022 429.444 422.67L429.412 422.681ZM421.367 505.04C420.974 503.634 420.462 501.966 420.756 500.505C420.843 500.069 421.704 500.037 421.737 499.928C422.01 499.056 421.803 496.625 423.22 496.374C422.282 500.734 421.977 502.74 423.841 506.894C423.743 507.013 421.661 505.324 421.367 505.04C422.042 507.493 423.569 508.845 423.841 511.232L418.576 505.662C418.249 507.646 421.17 509.946 422.108 512.039C422.729 513.434 423.111 515.266 423.22 516.803C421.399 515.32 420.527 512.639 418.881 510.927C418.423 510.447 417.649 509.303 417.039 510.295C418.489 512.104 421.933 515.778 422.457 517.882C423.503 522.025 421.279 529.808 419.23 533.547C411.73 547.261 390.025 548.973 381.424 535.39L378.121 538.878C388.27 559.874 419.361 556.124 427.678 535.193C430.927 527.028 428.441 518.678 430.316 512.442C431.33 509.063 437.217 502.925 439.637 500.091C440.062 503.362 436.639 505.542 435.091 507.929C433.936 509.717 432.824 512.355 431.897 514.328L442.188 502.337C450.44 484.044 447.268 463.147 446.123 443.731C445.044 443.59 445.535 445.138 445.513 445.89C445.099 456.889 445.458 468.292 442.58 478.877C441.588 482.54 439.888 487.293 438.383 490.781C438.285 491.01 436.421 495.469 436.236 492.973C442.046 478.136 443.06 462.94 442.417 447.122C442.384 446.37 442.886 444.822 441.806 444.963C441.567 455.189 441.152 466.701 437.533 476.315C437.184 477.231 438.1 478.125 436.236 477.787C438.002 467.867 440.378 456.65 440.564 446.555C440.586 445.628 441.109 442.729 439.953 442.489C439.474 445.16 439.768 448.964 439.299 451.439C437.184 462.525 432.595 476.446 427.046 486.257C423.863 491.893 415.447 499.066 421.367 505.04ZM304.407 540.884C315.166 546.836 329.283 545.789 340.97 543.249C368.364 537.308 404.524 510.447 419.775 487.042C427.885 474.593 433.62 459.255 434.361 444.353L426.021 463.561C410.291 495.491 370.545 530.528 334.821 536.469C327.79 537.635 315.58 538.104 310.838 532.294L306.205 535.727C305.911 536.48 308.723 538.398 309.334 538.703C313.923 540.993 319.908 541.396 325.043 541.603C327.321 541.701 328.662 541.254 330.7 540.993C331.921 540.84 331.594 541.134 331.573 542.181C322.59 543.162 312.583 543.882 304.625 539.096L304.407 540.862V540.884ZM433.14 517.424C437.272 514.503 442.613 511.483 445.851 507.537C455.455 495.807 453.613 477.504 451.094 463.55C450.015 463.408 450.517 464.956 450.484 465.708C450.081 476.185 450.647 484.622 447.562 494.989C445.001 503.612 440.891 506.883 435.636 513.413C435.146 514.012 432.715 516.955 433.151 517.424H433.14ZM355.098 508.136C352.449 500.538 349.603 491.643 348.982 483.597C348.6 478.528 349.08 473.405 349.124 468.347C349.124 467.529 349.669 466.984 348.295 466.646C347.674 472.958 346.682 478.299 347.434 484.688C348.317 492.155 350.693 502.075 355.098 508.136ZM334.407 515.309C338.996 510.164 342.877 501.901 343.946 495.142L338.484 506.087L331.573 516.519L332.488 517.435C332.935 516.498 333.818 515.974 334.396 515.32L334.407 515.309ZM467.806 516.814L457.286 499.47C458.889 506.185 462.464 512.388 467.806 516.814ZM346.431 504.43C344.774 504.081 345.363 504.855 344.894 505.651C340.424 513.129 336.053 520.062 329.708 526.091C330.929 526.091 332.172 524.957 333.099 524.227C339.378 519.201 343.477 511.777 346.431 504.43ZM455.411 506.283L454.19 506.588C457.286 513.173 460.611 518.907 466.258 523.627C466.956 524.205 467.261 525.131 468.427 524.859L458.627 512.061C457.472 511.319 455.749 506.599 455.411 506.283ZM334.047 529.187C336.816 528.783 340.261 524.848 342.081 522.679C344.85 519.354 346.9 515.996 348.284 511.854L334.047 529.187ZM394.735 532.294C402.758 542.595 417.191 533.155 415.731 521.501C414.771 513.87 404.208 509.793 399.411 516.225C393.339 524.379 406.726 531.498 407.424 520.52C410.574 522.417 408.427 528.184 405.723 529.339C403.39 530.331 401.81 529.514 399.629 529.383C398.757 529.328 397.569 528.544 397.831 530.113C400.545 531.923 403.968 531.934 407.108 531.977C403.183 535.422 399.008 534.092 394.724 532.294H394.735ZM466.574 529.808C464.47 526.908 461.472 524.761 459.161 522.057C458.169 520.902 453.743 513.543 453.264 513.718C451.868 514.241 452.708 514.993 453.078 515.745C456.044 521.621 460.262 527.268 466.574 529.808ZM452.588 523.365C451.465 522.046 450.68 520.248 449.241 519.288C449.884 523.703 454.463 528.206 458.529 529.808C456.785 527.464 454.474 525.567 452.599 523.354L452.588 523.365ZM340.86 529.187C345.112 528.075 348.84 523.932 350.148 519.899L340.86 529.187ZM484.845 542.824C479.743 543.184 473.943 542.824 468.744 542.824C467.904 542.824 467.73 541.036 468.744 540.982C468.907 540.982 469.79 541.592 470.597 541.592C476.473 541.647 484.725 541.124 490.11 538.769C491.538 538.148 492.868 537.995 493.119 536.185C491.473 530.244 487.941 534.114 484.714 535.248C477.563 537.777 464.209 537.145 456.97 534.79C449.732 532.435 444.118 528.38 438.732 523.006C436.236 525.862 448.402 534.605 447.399 535.39C444.107 535.324 441.676 532.086 439.354 530.124C438.863 529.71 438.111 528.511 437.49 529.503C438.558 531.28 439.953 532.795 441.523 534.136C453.34 544.252 476.669 548.057 491.233 542.999C492.051 542.715 497.196 540.753 495.692 539.107C495.299 538.682 491.168 541.669 490.132 541.93C489.347 542.137 485.673 542.759 484.856 542.813L484.845 542.824ZM493.206 545.92C479.013 549.409 464.59 548.624 450.931 543.293C447.824 542.083 445.066 539.968 441.806 539.107C447.192 543.598 454.07 546.64 460.884 548.22C471.305 550.64 480.953 550.161 491.091 547.25C491.941 547.01 493.01 547.043 493.217 545.92H493.206ZM361.29 539.728C354.771 541.745 348.164 544.765 341.482 546.225C333.469 547.981 322.121 548.798 314.011 547.523C311.144 547.076 307.862 545.582 304.941 545.593C318.066 552.385 335.824 550.15 349.385 545.451C353.43 544.045 358.008 542.508 361.29 539.717V539.728ZM352.002 568.213H362.532L363.154 570.067L349.276 570.622L348.906 573.162L388.543 573.784C388.663 574.482 388.543 574.939 387.932 575.332C386.82 576.04 364.963 575.713 361.584 575.659C359.12 575.626 356.547 575.452 354.073 575.397C350.65 575.321 344.97 573.25 343.967 578.101L383.801 578.962L387.311 579.965L339.007 580.597V583.072L384.542 583.693L385.458 584.925C382.002 584.391 378.514 585.437 375.265 585.568C363.23 586.08 349.843 584.5 338.059 585.525C328.117 586.386 316.518 597.429 317.335 607.839L319.919 602.073C327.125 588.555 336.773 587.901 351.01 589.34C352.154 589.46 353.288 590.038 354.487 589.885C353.768 593.384 350.083 591.193 347.39 591.095C342.398 590.899 336.903 590.637 332.216 592.403L332.706 593.526L331.573 594.213H347.052L346.333 596.6L328.891 596.677L327.855 599.173C330.286 598.922 333.24 599.544 335.573 599.162C336.598 598.988 337.176 597.941 338.059 597.919C338.43 597.908 338.277 599.053 338.778 599.184C340.991 599.762 344.393 598.039 346.115 600.427C347.467 597.233 353.55 600.001 349.222 602.629L326.896 602.258L324.748 603.512L363.274 604.809L364.985 605.997L364.92 607.174C362.957 606.684 364.604 611.317 365.912 611.579C366.37 611.666 366.958 611.513 367.471 611.557L366.228 604.743H369.945C369.989 606.837 370.719 611.731 372.747 612.167C375.058 612.669 372.442 608.461 372.365 607.545C372.136 605.027 373.761 601.43 373.041 598.552H376.148L375.886 602.934L373.673 603.806C377.478 604.929 376.791 608.112 377.423 611.513L379.854 611.546L379.244 604.111L382.95 604.743L383.888 611.546L386.046 612.167L385.403 605.147C385.665 604.111 388.663 603.98 389.153 605.201L389.775 612.178H392.249C392.881 611.557 389.121 600.656 395.247 605.147L395.977 612.156H398.43C398.703 609.442 396.86 606.422 399.335 604.22L402.071 605.746L402.158 612.167L404.044 611.895L404.622 604.733L408.318 604.765L407.729 612.167C412.09 613.159 410.574 607.72 410.825 604.743C412.057 604.798 414.64 604.253 415.109 605.768L413.616 612.189C417.66 612.712 417.093 607.502 417.66 604.776L420.331 604.842C422.587 605.583 420.494 609.9 419.513 611.252L421.05 612.2C424.288 612.2 422.795 605.114 424.212 604.711L427.896 605.354L426.305 611.557L429.128 610.979C429.75 607.033 429.183 603.828 434.361 604.754L433.118 611.241C436.89 613.061 435.004 605.594 437.239 604.82L474.26 604.1L474.946 602.89C474.009 601.571 460.121 602.705 456.937 602.312C455.869 602.182 455.161 601.92 454.496 601.048C453.547 603.359 451.705 603.555 449.503 602.312L449.23 599.173C453.362 599.62 456.927 600.459 461.156 599.129C461.734 598.944 461.69 597.985 461.93 597.919C463.729 597.451 463.304 599.02 463.882 599.162C466.105 599.674 469.703 598.824 472.134 599.162C472.581 598.126 470.368 596.687 469.964 596.687H454.169C453.961 593.537 454.06 594.213 456.338 594.213H467.795C467.174 591.597 464.841 591.455 462.454 591.193C456.894 590.583 451.083 591.673 445.502 591.106V589.253C451.716 590.103 458.246 588.61 464.427 589.22C470.608 589.831 477.53 596.949 480.005 602.127L482.654 609.071C483.34 600.797 478.446 593.679 471.709 589.362C470.88 588.828 464.797 585.535 464.383 585.535H417.311C416.406 585.535 414.597 585.317 414.521 584.304C415.513 584.707 416.842 583.682 417.311 583.682H460.666L461.592 582.145C460.807 581.022 460.186 580.739 458.834 580.554C447.421 579.038 431.854 581.24 419.764 580.608C417.442 580.488 415.131 579.54 412.667 579.954L416.799 578.951L456.011 578.711C456.218 576.618 455.215 575.833 453.253 575.593C443.856 574.405 430.894 575.79 420.996 575.648C419.731 575.626 418.609 575.07 417.366 575.059C415.731 575.059 413.387 576.16 411.414 575.615V573.762L451.672 573.141C452.065 572.759 450.604 570.045 450.429 570.045H436.181V568.191H447.333V564.474H442.373V562C442.559 561.803 443.899 562.512 444.543 562.501C455.804 562.13 466.814 561.106 477.999 560.146C479.819 559.994 481.847 560.364 483.58 560.146C484.507 560.026 485.161 559.928 484.496 558.904C478.653 559.078 472.712 558.762 466.825 558.882C420.276 559.787 372.823 560.659 326.296 558.882C322.372 558.729 318.295 559.47 314.512 558.282C313.673 558.947 315.351 559.405 315.788 559.481C328.847 562 343.64 561.204 356.929 562.621V564.474L352.656 564.55L351.969 568.191L352.002 568.213ZM348.284 565.117C336.064 565.575 323.865 564.376 311.743 564.801C323.364 566.273 335.388 567.254 347.052 567.276L348.284 565.117ZM487.014 564.507C476.167 565.891 464.666 564.245 453.896 565.139C452.926 565.215 451.432 564.485 451.716 566.033C452.86 567.145 454.844 567.439 456.36 567.581C461.124 568.039 465.484 567.036 469.245 566.742C474.281 566.349 479.972 566.284 484.856 565.75C485.782 565.651 486.763 565.619 487.003 564.496L487.014 564.507ZM494.438 569.456C491.44 570.012 487.396 568.878 484.703 568.998C483.722 569.042 483.046 570.067 481.771 570.11C473.725 570.339 465.637 569.859 457.592 570.077C455.019 570.862 455.749 572.312 458.18 572.585C465.092 573.359 474.499 572.203 481.226 570.928L494.438 569.467V569.456ZM344.567 570.077C331.943 570.59 319.33 569.282 306.783 569.761C318.938 571.091 331.267 572.476 343.542 572.454L344.294 571.963L344.567 570.077ZM495.67 574.416L461.309 575.027C459.914 579.409 468.962 576.869 471.829 577.501L495.67 574.416ZM339.618 575.027L306.173 574.71C316.899 576.04 327.746 577.741 338.593 577.403L339.345 576.913L339.618 575.027ZM500.63 578.123L465.964 580.902C467.544 583.399 469.049 581.829 471.185 581.796C473.671 581.774 476.156 581.905 478.631 581.818C485.128 580.39 491.952 580.401 498.46 579.344C499.376 579.191 500.368 579.311 500.619 578.112L500.63 578.123ZM334.036 579.976L301.223 578.744C301.332 579.649 303.916 579.79 304.701 579.899C314.131 581.229 323.865 581.665 333.317 582.352L334.036 579.976ZM511.782 586.778C511.466 585.492 510.866 585.797 509.94 585.808C505.906 585.862 501.262 587.16 497.229 587.4C490.699 587.781 484.136 586.909 477.726 588.326C479.176 590.463 481.4 589.896 483.657 589.874C492.748 589.82 502.679 587.672 511.782 586.767V586.778ZM321.652 588.032C310.588 587.072 299.327 587.083 288.218 586.179C288.196 587.138 290.355 587.203 291.085 587.323C300.537 588.904 311.067 589.427 320.617 589.776L321.652 588.032ZM318.556 592.371C314.719 592.948 310.697 591.815 307.11 591.695C304.646 591.618 301.561 592.229 299.163 592.12C294.835 591.934 290.311 590.408 285.744 591.128L290.453 592.283C294.519 592.698 298.705 592.621 302.76 592.981C305.813 593.254 314.948 595.445 317.03 594.256C317.477 594.006 318.36 592.926 318.556 592.36V592.371ZM504.969 591.749C498.035 591.564 491.135 592.076 484.223 592.36C483.275 592.403 481.771 591.782 482.065 593.275C486.229 595.772 491.822 593.482 496.106 593.036C497.959 592.839 499.878 593.243 502.091 592.872C502.832 592.752 504.99 592.719 504.969 591.738V591.749ZM504.347 596.709C499.409 596.273 494.351 596.786 489.412 597.069C488.584 597.113 485.433 596.862 485.782 598.235C486.611 599.576 487.232 598.933 488.235 598.9C492.661 598.737 497.632 598.421 502.014 597.767C502.636 597.669 504.478 597.592 504.347 596.709ZM314.218 597.32C306.75 597.788 299.381 595.848 291.925 597.004C298.967 597.603 306.205 599.435 313.313 598.552C314.229 598.443 315.221 598.072 314.229 597.309L314.218 597.32ZM442.417 607.229L440.019 607.305C440.302 608.025 437.926 611.328 439.648 611.557C441.207 611.764 442.417 608.494 442.428 607.229H442.417ZM533.454 619.613C530.51 611.491 521.702 616.386 515.183 617.138C490.906 619.907 466.487 619.231 442.09 619.591C390.832 620.365 335.748 622.371 284.817 617.138C281.994 616.844 273.578 614.631 271.888 614.827C270.667 614.969 266.797 617.76 266.546 619.297C266.525 620.605 287.793 624.115 290.475 624.486C308.778 627.026 327.136 626.884 345.504 628.29C346.322 628.356 353.168 629.293 352.013 630.133C346.562 629.936 341.024 630.405 335.573 630.165C323.298 629.62 310.664 628.628 298.487 627.669C294.595 627.364 290.562 626.72 286.67 626.437C285.929 626.383 283.28 625.925 283.269 627.048L307.11 629.522C373.194 632.269 440.03 633.207 505.895 628.29L518.595 626.437C508.511 626.274 498.482 627.985 488.442 628.65C480.539 629.173 472.341 629.882 464.438 630.176C461.058 630.307 453.743 630.689 450.789 630.143C449.732 629.947 449.045 629.479 449.241 628.29C454.899 628.061 460.644 628.585 466.291 628.312C481.749 627.571 503.028 625.968 518.225 623.265C523.392 622.349 528.297 620.452 533.454 619.613ZM503.726 635.725L479.231 637.6H319.461L296.896 635.725C296.623 637.36 297.125 636.848 298.258 637.109C301.943 637.96 308.113 638.45 312.07 638.821C325.348 640.053 340.196 640.849 353.528 641.317C358.586 641.492 363.688 641.165 368.735 641.317L368.364 643.181L320.737 641.928C315.886 640.979 310.817 641.568 305.835 641.285C304.243 641.197 289.45 639.137 289.45 640.391C297.637 640.958 305.78 642.397 313.923 643.171C374.164 648.905 438.896 647.389 499.006 641.862C499.834 641.786 502.799 641.524 503.104 640.707C499.354 640.849 495.452 640.587 491.734 640.783C476.483 641.601 461.189 642.92 445.862 643.192C442.384 643.258 435.887 643.705 432.813 643.171C432.093 643.051 431.712 642.833 431.287 642.233C431.712 641.633 432.093 641.426 432.813 641.295C436.574 640.652 442.907 641.448 447.104 641.295C462.519 640.761 485.553 640.358 500.248 637.513C501.426 637.284 503.257 637.066 503.715 635.725H503.726Z" fill="black"/>
<path d="M433.75 603.512L430.305 602.934L430.033 598.552L433.478 599.14L433.75 603.512Z" fill="black"/>
<path d="M426.948 598.552H423.841V603.512H426.948V598.552Z" fill="black"/>
<path d="M420.756 598.552H417.649V603.512H420.756V598.552Z" fill="black"/>
<path d="M440.564 599.173L440.52 602.857L437.435 603.25L436.225 599.184L440.564 599.173Z" fill="black"/>
<path d="M382.351 598.552L382.253 602.476C379.309 605.648 378.884 600.928 379.255 598.552H382.362H382.351Z" fill="black"/>
<path d="M369.923 599.206L369.673 602.923C365.203 605.027 366.696 601.31 366.86 598.562L369.912 599.217L369.923 599.206Z" fill="black"/>
<path d="M401.548 598.552L401.493 602.825H398.506L398.452 598.552H401.548Z" fill="black"/>
<path d="M414.564 598.552H411.457V602.89H414.564V598.552Z" fill="black"/>
<path d="M395.356 602.89H392.249L392.26 598.552L395.084 599.14L395.356 602.89Z" fill="black"/>
<path d="M388.543 598.552V602.89H385.447L385.719 599.14L388.543 598.552Z" fill="black"/>
<path d="M408.361 602.89H405.254L405.265 598.552L408.089 599.14L408.361 602.89Z" fill="black"/>
<path d="M363.764 599.184L363.143 602.89H359.436L360.123 599.249L363.764 599.184Z" fill="black"/>
<path d="M446.679 599.249C447.312 599.642 447.257 602.105 446.679 602.803L443.714 602.847L443.322 599.773C443.812 599.064 446.08 598.868 446.69 599.249H446.679Z" fill="black"/>
<path d="M356.962 599.184L356.34 602.901L352.623 602.258L353.31 599.249L356.962 599.184Z" fill="black"/>
<path d="M424.713 593.341C429.216 598.246 421.487 599.565 423.231 591.738C424.005 591.847 424.212 592.785 424.713 593.341Z" fill="black"/>
<path d="M377.391 592.992L376.769 597.309H373.684L375.003 593.068L377.391 592.992Z" fill="black"/>
<path d="M382.972 592.981H380.498V597.32H382.972V592.981Z" fill="black"/>
<path d="M401.45 593.068L401.254 596.709L399.073 597.32V592.36L401.45 593.068Z" fill="black"/>
<path d="M417.846 592.785C418.369 593.144 419.383 592.741 419.546 593.33L419.503 597.32L417.595 596.949L417.039 591.738C418.009 591.487 417.409 592.479 417.846 592.774V592.785Z" fill="black"/>
<path d="M452.326 594.224V596.698C450.222 596.884 446.985 596.982 448.304 594.224H452.326Z" fill="black"/>
<path d="M364.386 593.602L363.677 597.232L360.668 597.309L361.998 593.689L364.386 593.602Z" fill="black"/>
<path d="M392.881 597.32V593.297C396.228 591.793 396.511 598.072 392.881 597.32Z" fill="black"/>
<path d="M370.577 593.602L369.869 597.222L367.492 597.32L368.179 593.679L370.577 593.602Z" fill="black"/>
<path d="M432.508 596.698H429.412V592.992C431.788 592.469 432.257 594.921 432.508 596.698Z" fill="black"/>
<path d="M389.153 592.981L388.87 596.709L386.689 597.32L387.245 593.352L389.153 592.981Z" fill="black"/>
<path d="M343.335 622.709C343.989 626.034 340.991 624.115 339.214 624.05C319.352 623.287 294.301 624.606 275.071 620.071C274.319 619.896 267.745 618.643 269.021 617.149C269.708 616.342 283.116 619.34 285.438 619.613C294.29 620.659 304.417 621.564 313.302 622.087C323.211 622.676 333.393 622.371 343.335 622.72V622.709Z" fill="black"/>
<path d="M530.979 617.138C529.191 620.038 523.926 620.332 520.71 620.834C516.709 621.466 512.447 621.673 508.413 622.055C491.211 623.668 473.987 624.061 456.676 623.941C455.651 623.167 456.741 622.818 457.592 622.709C459.99 622.404 463.729 622.436 466.378 622.316C485.455 621.477 503.388 620.67 522.552 618.294C525.474 617.934 528.21 616.539 530.99 617.138H530.979Z" fill="black"/>
<path d="M394.113 453.652C391.998 456.355 389.807 459.037 387.431 461.511C386.82 462.144 386.809 463.266 385.447 462.929C384.531 462.024 390.974 455.701 391.944 454.883C392.642 454.295 392.947 453.379 394.113 453.652Z" fill="black"/>
<path d="M404.644 547.784C411.861 547.392 416.843 542.225 421.356 537.254C420.026 543.184 412.166 548.177 406.366 548.635C405.473 548.711 404.982 549.082 404.644 547.784Z" fill="black"/>
<path d="M435.604 499.47L430.044 509.989C430.055 508.943 429.368 507.994 429.728 506.926C429.957 506.25 434.623 498.467 435.604 499.47Z" fill="black"/>
<path d="M398.234 138.648C398.681 139.019 398.812 139.902 399.379 140.261C399.945 140.283 404.121 135.203 405.887 135.945L400.305 142.126H399.095C398.419 139.836 395.934 137.558 393.514 137.165C394.113 134.778 397.296 137.852 398.245 138.637L398.234 138.648Z" fill="black"/>
<path d="M404.033 111.177C405.451 108.114 406.879 106.129 406.813 102.51C409.299 105.595 407.01 109.465 404.033 111.177Z" fill="black"/>
<path d="M362.532 271.567C362.173 272.952 360.864 272.756 359.774 272.843C354.149 273.29 348.088 272.254 342.387 272.81L341.471 271.567H362.532Z" fill="black"/>
<path d="M460.382 271.567L459.39 273.323L439.332 272.178C440.051 270.248 443.147 271.567 443.976 271.567H460.382Z" fill="black"/>
<path d="M433.129 271.567C430.905 274.227 426.632 272.091 423.394 272.636C422.173 272.843 422.653 272.734 422.598 271.567H433.129Z" fill="black"/>
<path d="M378.634 272.81H369.967C371.035 270.881 377.478 270.837 378.634 272.81Z" fill="black"/>
<path d="M347.052 225.749L343.259 230.164L340.871 232.552C340.719 228.922 343.281 225.738 347.063 225.749H347.052Z" fill="black"/>
<path d="M459.761 210.248L447.998 215.197C450.953 211.567 455.324 210.597 459.466 209.016L459.772 210.237L459.761 210.248Z" fill="black"/>
</g>
<defs>
<clipPath id="clip0_8061_327">
<rect width="366" height="579" fill="white" transform="translate(217 84)"/>
</clipPath>
</defs>
</svg>
