<svg width="800" height="800" viewBox="0 0 800 800" fill="none" xmlns="http://www.w3.org/2000/svg">
<g clip-path="url(#clip0_8061_321)">
<path d="M273.5 663.162C276.567 663.027 277.631 663.366 278.412 659.888C264.853 658.585 251.124 659.503 237.475 659.254C235.279 659.209 231.239 658.155 229.654 658.144C228.07 658.132 223.927 661.61 224.097 656.603L279.091 656.954L279.725 654.971L278.095 653.986L235.868 653.011V651.686L280.279 651.267L281.026 648.095C278.242 648.106 275.413 648.095 272.651 647.913C271.802 647.857 270.965 648.74 271.225 647.109C272.357 644.254 279.114 645.897 281.66 645.421C282.758 636.833 284.739 628.37 287.545 620.191C288.587 619.443 300.844 621.403 304.149 620.429C307.454 619.454 308.551 613.416 309.151 612.985C310.113 612.294 314.686 612.838 316.564 612.543C329.139 610.538 346.523 600.693 354.264 590.587L354.287 589.579C345.301 578.624 355.781 574.16 364.79 570.399L379.798 557.88C380.318 556.362 378.258 551.536 377.285 550.289C375.791 548.397 371.513 547.298 369.759 544.534C361.632 531.675 383.917 532.208 384.472 521.898C384.585 519.757 382.322 518.873 381.201 517.355C379.798 515.463 378.7 513.333 377.251 511.487C374.331 507.771 370.257 506.185 370.415 500.327C370.562 494.504 375.984 493.892 378.858 490.788C379.277 490.335 383.804 483.877 383.974 483.458C385.434 479.81 383.702 476.853 383.759 473.477C383.782 471.778 384.472 470.158 384.506 468.266C385.355 415.37 384.076 362.19 384.144 309.362C378.1 306.575 382.095 304.083 382.242 300.525C382.446 295.291 367.993 293.127 372.192 284.29C375.237 277.878 385.423 278.626 386.362 270.31C387.245 262.516 382.797 265.065 381.043 260.714C380.341 258.958 380.805 257.338 380.228 255.65C377.568 257.927 376.006 260.862 373.301 263.127C364.79 270.242 353.823 270.865 343.909 266.447C333.994 262.028 335.126 255.084 333.473 245.442C327.905 243.879 325.426 250.767 322.325 254.019C309.083 267.874 286.04 266.22 271.587 255.197C263.585 261.065 253.275 262.266 243.768 264.17C251.622 281.05 259.771 297.851 267.445 314.823C290.477 365.782 313.803 416.559 335.567 468.073C337.808 471.744 343.365 473.443 345.776 477.51C355.792 494.368 329.388 525.376 316.723 535.38C296.271 551.536 268.192 559.613 242.455 560.95C242.783 563.692 245.499 565.448 246.099 568.11C247.457 574.137 243.722 575.406 240.135 578.601C238.494 580.063 238.98 582.192 235.585 581.966C233.231 581.819 232.914 580.097 231.273 579.009C226.259 575.701 222.377 574.568 223.52 567.204C223.871 564.938 225.885 563.25 226.089 560.939C201.405 557.268 177.467 550.017 158.374 533.397C146.988 523.496 125.077 496.419 131.075 480.547C131.935 478.281 133.622 476.434 134.595 474.248C145.958 448.712 156.722 422.881 168.617 397.583C187.687 352.742 207.12 308.104 227.402 263.807C222.75 262.889 218.223 261.632 213.877 259.672C207.256 256.681 195.519 245.896 188.751 248.06C185.65 249.057 185.073 254.857 180.252 253.396C175.43 251.934 175.928 245.975 177.773 242.316C182.006 233.955 196.64 232.527 204.778 234.702C211.263 236.436 217.952 242.316 224.776 243.177C220.713 240.038 216.831 237.761 214.285 233.048C207.879 221.198 213.9 207.422 226.383 203.196C252.052 194.518 264.706 232.459 240.486 242.202C241.595 242.644 243.428 243.143 244.583 243.041C247.186 242.814 255.934 239.449 258.798 238.26C280.63 229.174 295.864 210.231 316.813 200.024C328.018 194.563 341.249 190.382 353.755 190.439C357.207 179.019 368.774 169.707 380.918 173.706C383.408 174.522 385.332 176.244 387.754 177.014C386.487 172.256 386.871 168.902 389.723 164.914C372.181 157.698 371.592 134.643 385.479 123.313C402.196 109.673 426.801 124.14 425.058 145.247C424.481 152.18 419.308 163.702 411.318 163.929C410.854 164.359 413.808 170.069 413.921 171.542C414.091 173.808 412.552 174.918 412.631 177.025C424.379 167.894 441.695 175.36 444.785 189.385C457.801 189.295 471.212 192.999 482.791 198.834C508.98 212.033 527.949 238.69 558.564 242.214C556.459 239.721 553.392 238.237 551.366 235.654C543.534 225.616 547.438 209.37 559.062 204.057C579.751 194.586 598.414 219.159 584.357 237.24L578.857 243.188C592.031 237.274 605.816 228.856 619.884 237.818C624.615 240.831 628.067 247.629 623.721 252.387C617.61 259.083 617.055 245.873 610.106 247.232C606.303 247.98 596.581 255.333 592.189 257.508C586.497 260.34 580.77 262.04 574.59 263.501C573.741 263.705 573.458 262.991 573.628 264.442C582.558 285.797 592.653 306.677 601.878 327.897C616.772 362.202 630.965 396.801 646.153 430.993C653.204 446.865 661.432 462.465 668.189 478.371C674.912 494.21 661.772 510.354 652.14 521.921C631.689 546.471 601.912 556.656 571.002 560.927C573.696 564.111 576.027 567.657 574.635 572.098C574.432 572.733 568.331 579.779 567.437 580.606C562.887 584.81 562.548 580.788 559.186 578.329C557.093 576.8 553.686 576.086 552.52 573.208C550.698 568.665 552.871 565.867 554.105 562.004C554.308 561.369 555.067 561.381 554.014 560.576C517.933 556.781 483.685 543.073 463.143 511.985C457.065 502.786 450.116 491.287 454.394 479.89C456.714 473.704 462.022 472.605 464.829 468.051C470.364 459.066 474.8 444.089 479.271 434.029C502.982 380.623 527.508 327.375 552.158 274.4C552.735 273.165 557.07 263.864 556.629 263.479C546.782 262.957 537.716 259.287 528.696 255.752C513.598 266.436 494.007 267.478 479.395 255.288C476.905 253.214 471.065 244.887 468.643 245.091C464.84 246.213 466.617 251.855 466.244 255.208C465.689 260.17 463.799 262.482 459.578 264.917C428.295 282.908 401.641 241.659 425.522 223.622C434.497 216.848 445.43 218.57 452.198 227.486C453.115 228.687 456.182 234.906 456.624 235.167C458.299 236.141 463.72 234.952 464.897 232.912C467.228 226.239 453.319 212.792 446.992 212.338C440.665 211.885 436.104 217.051 431.113 219.408C426.541 221.572 423.19 221.039 419.501 225.48C415.211 230.647 414.872 241.681 412.665 248.184C412.642 252.217 418.652 250.042 419.195 257.27C419.705 264.045 413.683 263.535 413.887 269.71C414.181 278.875 427.763 279.713 428.385 285.401C429.223 293.071 419.931 295.824 419.274 298.656C418.992 299.913 420.214 301.964 419.693 304.275C419.048 307.153 416.332 307.697 415.879 313.565C412.982 350.895 418.165 392.031 415.879 429.576C416.422 439.059 416.683 448.813 416.615 458.364C416.558 466.057 415.076 475.165 415.902 482.631C416.049 483.934 419.727 489.723 420.78 490.845C424.005 494.278 429.506 494.119 429.71 500.962C429.913 507.601 424.843 509.289 421.504 513.129C420.429 514.376 416.479 521.23 416.57 522.544C417.045 529.783 430.4 531.585 431.973 536.649C435.561 548.205 411.873 550.187 425.714 562.57C431.43 567.691 436.568 571.09 443.189 574.557C446.007 576.029 448.248 577.117 449.018 580.55C450.15 585.614 445.374 587.902 446.109 590.587C446.37 591.562 449.912 595.391 450.908 596.32C462.181 606.822 481.704 612.34 496.689 613.914L497.062 621.199L514.741 620.542C515.59 621.38 514.028 630.806 514.028 632.664C514.028 634.058 514.684 635.315 514.73 636.607C514.798 638.442 514.232 645.036 515.352 645.817L546.148 646.112C547.235 646.939 546.08 647.302 545.186 647.415C542.968 647.698 540.32 647.245 537.977 647.415C534.072 647.709 528.832 648.129 525.063 648.922C523.942 649.16 522.132 648.956 522.596 650.678C524.407 650.927 527.293 649.284 528.764 649.363C529.194 649.386 528.82 650.576 530.077 650.734C534.842 651.369 543.805 651.165 549.114 651.301C552.645 651.391 560.115 649.114 561.212 653.295C553.301 653.861 545.356 653.85 537.456 654.224C536.188 654.28 534.966 654.869 533.766 654.937C533.031 654.983 528.187 653.023 528.504 655.923C532.103 655.946 535.668 656.501 539.267 656.614C551.298 656.965 566.464 655.221 577.929 656.569C579.321 656.727 581.007 657.09 581.517 658.54L523.92 660.511C523.603 662.471 524.407 661.588 525.55 661.86C531.073 663.14 542.775 663.015 549.08 663.151C558.021 663.344 570.923 661.712 579.23 663.128C580 663.253 580.396 663.491 580.849 664.114C579.989 665.338 578.653 665.292 577.295 665.077C564.744 663.049 541.666 666.233 527.519 666.697C522.913 666.844 518.035 666.561 513.451 666.414C513.621 667.139 514.379 667.875 515.092 668.068C518.193 668.884 524.022 668.147 527.519 668.385C540.999 669.292 554.557 668.782 567.46 669.62C568.875 669.711 569.848 670.98 570.595 670.878C571.478 670.753 573.198 668.895 574.601 669.065L575.62 671.648L504.94 672.316C508.607 675.557 514.979 673.982 519.664 674.276C524.293 674.582 529.432 675.364 534.038 675.602C536.019 675.704 545.435 675.194 546.058 675.738C546.273 675.919 546.193 676.542 546.182 676.871L547.246 675.557C550.008 675.84 553.935 674.39 555.338 677.539H497.413C496.078 677.539 493.022 675.761 492.513 679.499L521.962 680.813C522.188 682.501 520.932 682.66 519.71 682.807C515.024 683.362 509.263 682.32 504.611 682.128C486.82 681.38 470.884 682.637 452.945 681.448C449.799 681.244 445.69 682.694 443.744 680.825L442.488 682.196L391.693 681.822L391.059 679.522C396.593 679.737 402.128 680.077 407.662 680.077C410.005 680.077 421.866 678.91 422.987 679.692C423.338 679.941 422.625 681.142 424.096 680.825C424.696 680.881 424.254 679.873 424.56 679.692C425.409 679.159 435.685 679.964 437.926 679.941C442.374 679.907 446.709 679.76 451.259 679.499C449.912 677.256 446.743 677.029 444.412 676.86C410.843 674.367 374.195 678.853 340.287 676.86L326.898 678.208C327.022 679.159 327.803 679.295 328.584 679.454C336.224 681.108 349.115 678.831 357.366 680.19L362.572 679.465C371.819 681.074 381.065 679.08 390.391 679.511L390.006 681.527C389.169 681.788 388.343 682.06 387.449 682.128C363.387 684.008 338.589 680.496 314.799 680.757C302.032 680.893 286.663 686.988 275.888 677.165L267.343 677.539L268.441 675.557C270.399 675.285 271.746 675.681 273.217 676.894L274.281 674.956L277.156 675.579V671.648L273.568 672.328L273.228 670.334C271.723 672.747 268.678 673.642 267.988 670.334C266.336 674.039 262.137 671.036 259.828 671.263C259.296 671.32 258.628 672.26 257.813 672.237C251.86 672.147 245.862 671.218 239.852 671.637C239.648 670.379 240.361 669.881 241.493 669.677C246.529 668.759 255.04 670.039 260.473 669.96C262.103 669.937 275.911 669.552 276.443 668.952L276.51 665.088L260.609 665.791L259.5 663.117C264.174 662.959 268.905 663.332 273.568 663.117L273.5 663.162ZM406.033 136.081C406.349 139.084 405.806 142.516 406.033 145.587H406.689V132.807C406.689 131.81 402.988 124.356 403.418 123.97C406.474 123.064 407.9 126.746 409.96 126.259C404.063 120.017 391.5 122.736 386.068 128.536C374.331 141.055 381.835 162.014 399.174 162.479C414.702 162.898 425.352 150.696 419.059 135.492C418.516 134.178 415.845 129.114 414.555 130.179C421.244 138.472 421.131 152.599 411.295 158.377C399.966 165.039 385.321 159.556 382.469 146.572C383.102 145.507 383.94 146.708 384.427 147.229C386.815 149.733 388.286 154.129 392.281 155.409L388.739 151.433L386.407 146.232L387.709 146.912L388.377 145.258C390.187 148.158 391.048 151.331 393.945 153.449L391.659 146.244L395.258 149.518L396.231 147.558L398.201 151.478L397.521 145.235L398.846 139.695C398.981 142.607 399.151 145.655 399.513 148.544C399.627 149.45 399.83 150.447 400.804 149.518C404.109 141.565 402.784 132.841 401.471 124.628C402.399 124.945 403.384 127.041 403.758 127.902C404.618 129.907 405.829 134.008 406.055 136.093L406.033 136.081ZM397.386 168.676C393.356 164.892 389.067 172.969 393.277 175.711L394.251 171.134C394.307 173.479 394.205 179.586 397.533 178.011C397.001 176.13 398.427 169.65 397.386 168.676ZM399.491 178.339C401.256 176.742 402.286 170.975 400.453 169.174C398.438 169.061 400.159 172.743 400.159 174.046C400.159 175.439 399.208 176.867 399.491 178.339ZM378.055 188.332C375.78 191.935 378.994 196.274 383.114 194.382C383.668 194.121 388.048 189.601 388.218 189.023C389.633 184.299 386.634 181.557 382.899 179.552C370.042 172.652 357.094 183.63 359.075 197.509C360.399 206.855 373.607 219.759 383.397 218.286C386.634 217.799 386.532 215.477 387.109 215.114C387.29 215.001 390.504 216.848 390.312 213.743C387.007 214.344 383.544 214.729 380.182 214.389C365.322 212.871 353.891 188.74 370.879 181.512C377.319 178.77 387.188 182.894 385.728 190.813C383.623 188.354 381.36 186.598 378.043 188.354L378.055 188.332ZM413.321 218.23C414.453 219.295 422.047 217.516 423.892 216.848C437.383 212.01 447.207 191.345 434.203 181.274C423.621 173.083 408.907 179.597 406.757 192.49C406.644 193.147 406.236 194.891 407.345 194.722L408.67 188.83L413.242 190.79C413.163 178.759 431.147 177.988 435.425 187.913C441.356 201.689 426.597 215.488 413.208 215.329C412.438 215.715 413.219 218.116 413.321 218.218V218.23ZM399.479 186.202C394.783 186.145 396.028 192.671 395.496 195.639C394.352 201.95 392.689 206.47 394.907 213.064C400.623 213.766 397.272 205.971 396.797 202.312C396.661 201.236 395.722 200.941 397.193 199.967C400.498 203.06 399.253 208.305 399.491 212.406H401.449C402.105 209.903 400.77 206.98 400.77 204.839C400.77 202.323 401.573 200.024 401.437 197.01C401.279 193.532 399.955 189.657 399.479 186.191V186.202ZM416.694 188.377C411.182 192.886 418.245 196.478 422.726 194.087L423.711 191.153C423.032 188.49 418.958 186.542 416.694 188.388V188.377ZM411.273 196.681C412.461 199.684 410.741 206.832 411.737 208.962C413.321 212.372 421.504 209.574 424.152 207.943C430.389 204.091 437.1 190.904 426.971 188.173C431.407 198.404 418.652 202.289 411.273 196.681ZM389.667 196.693C387.29 197.078 385.977 198.936 383.385 199.265C377.002 200.058 371.694 196.206 372.645 189.487C361.587 195.877 373.482 210.118 383.521 210.379C392.01 210.605 388.954 207.863 388.976 202.233C388.976 200.273 389.689 198.607 389.667 196.693ZM443.336 207.829H456.103C478.829 207.829 506.875 240.084 527.542 250.325C548.208 260.567 570.21 263.388 591.046 253.158C600.463 248.535 609.789 236.832 620.054 247.142C620.088 243.811 616.67 241.579 613.875 240.56C598.245 234.85 588.998 246.451 574.556 247.788C525.187 252.353 505.257 206.119 462.973 196.364C457.97 195.209 453.092 194.314 447.92 194.733C447.705 195.832 448.158 196.104 449.052 196.534C452.391 198.166 461.603 199.095 466.085 200.443C505.755 212.463 532.499 260.431 580.136 249.442C585.772 248.139 599.625 240.186 603.926 241.307C604.741 241.523 605.228 242.1 604.322 242.859C601.414 245.307 590.413 251.152 586.655 252.693C562.718 262.436 536.211 253.509 516.054 239.529C498.941 227.667 470.047 198.777 447.264 205.541C446.381 205.802 443.755 206.912 443.336 207.829ZM197.908 241.896C205.366 241.432 211.546 246.485 218.336 248.626C244.605 256.908 268.486 243.505 289.085 228.664C311.29 212.667 320.277 202.459 349.42 198.653C350.733 198.483 355.453 199.333 354.977 197.021C353.54 194.823 351.118 195.288 348.764 195.379C300.742 197.361 273.319 257.293 223.294 247.584C211.036 245.205 206.826 237.07 192.407 238.679C188.084 239.155 181.293 241.239 181.542 246.473C183.217 246.27 183.828 244.978 185.594 244.31C196.244 240.31 205.592 250.677 214.681 254.902C235.992 264.804 261.831 257.678 281.219 246.349C303.175 233.513 319.428 209.619 347.53 207.909C351.933 207.637 355.328 208.656 359.55 208.804C358.418 207.988 357.071 205.688 355.826 205.326C347.825 203.037 334.639 206.481 327.045 209.665C299.203 221.345 284.354 247.187 252.358 254.789C228.851 260.374 218.846 255.084 199.186 243.505C198.338 243.007 197.534 243.618 197.896 241.874L197.908 241.896ZM233.898 230.103V214.049C233.898 213.675 232.167 211.194 233.898 211.104C235.449 215.93 238.052 221.005 236.536 226.16C237.498 226.273 237.701 224.449 237.781 223.815C238.403 218.196 236.954 214.061 234.578 209.132C250.898 211.511 252.72 234.034 235.89 237.965C235.913 239.404 238.312 238.35 238.98 238.101C257.61 230.975 248.08 201.757 228.16 207.614C209.678 213.052 215.19 238.668 230.967 239.302C231.691 239.336 233.457 239.71 233.276 238.622C227.911 237.897 222.615 234.476 220.702 229.253C220.317 228.188 219.049 222.399 221.155 224.869C223.35 227.452 223.678 232.357 228.692 232.708L224.471 227.44L224.12 224.2H226.078C225.84 226.625 227.311 229.74 230.005 230.091C227.108 227.848 229.202 225.82 227.391 223.554L230.333 222.252L231.839 228.596L233.932 230.103H233.898ZM565.728 238.622C565.434 238.566 561.178 236.085 560.545 235.62C557.036 233.026 555.395 229.785 554.603 225.526C556.21 223.804 560.115 237.784 563.759 232.085C560.59 232.459 559.707 227.406 559.843 224.88L562.163 228.766L565.717 232.085C565.694 229.332 563.872 222.444 567.675 221.606C567.686 223.09 566.996 224.291 566.996 225.832C566.996 226.455 567.335 229.423 568.32 229.468V226.194L569.633 227.497C570.086 224.313 570.595 221.334 570.221 218.071C569.927 215.499 568.218 213.098 568.66 210.458L572.621 217.629L573.56 226.183C574.703 222.161 574.205 218.468 573.107 214.525C572.225 211.364 568.094 206.968 574.805 210.209C591.986 218.502 581.177 241.704 565.717 238.634C567.992 239.03 569.701 239.631 572.53 239.234C579.095 238.305 584.878 230.714 585.195 224.347C585.546 217.516 578.506 208.362 571.761 207.354C549.17 204 543.602 234.816 565.717 238.634L565.728 238.622ZM387.573 248.309C388.988 245.918 381.688 227.554 379.481 224.903C377.228 222.206 371.445 220.212 368.276 218.434C365.797 217.04 363.138 214.14 360.24 213.369C357.626 212.678 351.65 212.327 349.137 213.437C345.663 214.99 335.794 225.718 335.126 229.593C334.096 235.495 342.245 233.467 345.742 235.427C346.127 241.477 345.086 249.918 350.394 254.03C361.485 262.64 377.817 249.226 369.713 237.319C358.916 256.511 336.575 231.927 354.638 221.56C369.77 212.882 383.94 229.604 383.148 244.208C382.955 247.652 381.541 250.926 381.167 254.336L387.573 248.309ZM341.894 213.732C320.571 218.116 305.428 234.906 287.998 246.587L286.923 248.116C291.359 252.693 301.727 253.124 306.774 249.657C313.158 245.273 303.662 243.041 307.488 238.577C310.464 235.099 314.754 239.506 317.096 238.973C318.443 238.668 322.45 235.654 324.702 234.85C326.954 234.045 329.173 233.751 331.436 233.388C329.173 225.866 337.174 218.672 341.905 213.743L341.894 213.732ZM492.626 248.241C497.119 253.18 509.637 253.169 514.673 248.751L514.051 247.425C496.553 235.359 481.523 217.652 459.702 213.721C464.116 220.054 470.341 224.54 468.926 233.309C472.412 233.796 475.706 234.861 479.022 235.983C480.685 236.538 483.175 238.328 484.398 238.509C486.458 238.815 492.332 234.147 493.101 239.642C493.509 242.542 489.061 244.332 492.626 248.241ZM404.539 219.147C400.136 214.706 387.969 220.303 386.679 225.48C385.807 228.981 392.247 243.063 392.734 247.618C393.187 248.626 395.688 250.201 395.575 248.116C395.326 243.618 386.69 227.78 388.365 225.514C395.19 229.321 396.91 240.242 398.201 247.459C398.393 248.547 397.793 248.581 399.491 248.445C399.887 243.517 398.959 237.886 399.491 233.048C399.819 230.091 401.777 227.735 402.071 225.118C402.264 223.452 400.928 220.042 402.762 220.609L406.033 223.554C406.066 222.365 405.32 219.94 404.55 219.147H404.539ZM318.33 249.09C321.126 243.539 331.266 238.464 336.631 242.905C339.472 245.25 338.295 248.955 339.427 252.557C340.287 255.276 342.03 257.757 344.203 259.57C361.146 273.732 385.649 254.597 377.059 234.544C373.958 227.293 365.786 221.085 357.818 224.755C349.171 228.732 352.725 242.112 361.678 239.109C368.638 236.776 366.205 230.012 360.161 231.689C358.429 232.176 358.826 234.464 356.619 234.034C352.363 226.013 364.371 225.254 369.34 228.505C377.534 233.853 378.213 248.037 371.683 255.038C363.556 263.751 348.232 263.818 342.856 252.399C339.891 246.122 343.297 238.94 334.356 237.977C324.396 236.9 321.635 242.78 313.09 245.193L315.048 246.168C307.488 259.196 294.076 257.27 281.671 253.056C279.702 254.823 290.013 258.437 290.805 258.641C300.572 261.145 311.087 257.361 318.636 251.073C319.349 250.473 323.593 246.621 322.903 245.85L318.33 249.124V249.09ZM487.182 248.445C487.646 247.935 485.02 244.717 484.511 244.253C480.233 240.378 469.877 237.059 464.252 238.26C457.02 239.801 459.827 244.989 458.061 250.405C455.673 257.735 446.743 262.742 439.262 261.36C425.047 258.743 418.38 240.956 428.906 230.397C433.445 225.843 444.208 224.438 443.925 232.969L442.646 233.751C440.631 232.776 438.266 230.816 435.934 231.508C433.535 233.071 432.913 234.838 434.52 237.274C439.036 244.094 453.002 237.376 445.939 227.814C439.567 219.193 427.344 225.197 423.564 233.581C418.414 245.023 423.236 257.01 434.237 262.459C443.959 267.274 457.914 263.286 461.32 252.376C462.667 248.06 460.924 242.202 466.595 241.285C475.457 239.835 477.924 249.034 483.945 253.328C493.305 259.989 505.947 261.405 516.608 257.282C518.849 256.409 523.965 254.257 520.807 251.753C519.393 251.368 514.198 254.868 512.183 255.469C504.827 257.689 497.991 256.828 491.302 253.158L474.744 242.542L475.06 241.251C479.452 243.097 483.673 245.159 487.171 248.445H487.182ZM402.75 239.925C403.497 235.11 404.539 230.454 404.063 225.514L402.117 237.648L402.762 239.925H402.75ZM406.689 248.445C407.821 248.263 407.821 247.142 408.172 246.326C409.62 242.95 411.046 238.316 411.261 234.68L407.153 245.295L406.7 248.433L406.689 248.445ZM453.805 235.348C451.995 234.952 452.289 237.036 451.191 238.294C446.675 243.505 441.808 246.394 434.791 243.573L428.94 237.965C424.741 250.246 438.255 262.368 449.437 254.891C457.404 249.566 453.998 243.29 453.794 235.348H453.805ZM401.449 254.993L400.464 253.033H388.354C388.32 253.815 390.889 254.993 391.297 254.993H401.437H401.449ZM402.105 258.278C396.639 257.984 391.217 257.927 386.113 255.684C381.461 263.093 396.288 261.451 400.385 261.462L402.105 258.278ZM390.652 285.129C394.601 285.616 399.366 284.778 403.418 285.129L400.804 282.829L403.101 283.146L403.418 281.843L400.815 281.821L398.823 268.078H396.865C397.148 270.242 396.978 270.752 394.907 271.352L395.292 268.713L391.308 267.41C390.685 270.593 389.825 276.926 387.743 279.419C386.871 280.472 384.087 279.997 383.125 281.515C382.661 282.455 385.921 283.713 386.577 283.939C387.494 284.256 389.848 285.015 390.64 285.106L390.652 285.129ZM232.586 274.003L146.852 468.572C149.32 467.189 151.878 465.807 154.526 464.799C157.491 463.666 166.783 461.593 168.413 460.358C169.42 459.588 171.367 454.421 172.499 452.654C178.622 443.092 191.92 437.088 203.136 437.779C191.739 414.78 206.238 386.956 231.884 384.656L232.586 273.992V274.003ZM563.114 274.003C561.959 272.712 559.379 278.796 559.073 279.453C547.167 305.136 536.924 331.817 525.267 357.647C510.825 389.641 493.61 421.952 480.538 454.387C479.259 457.56 478.105 460.641 477.381 463.995C486.82 461.151 496.225 458.409 506.105 457.378C506.705 445.981 509.614 434.935 515.465 425.147C522.935 412.651 535.068 403.519 544.688 392.79C543.047 388.542 545.571 386.865 546.68 383.229C543.217 378.946 531.186 367.492 531.695 362.19C532.205 356.888 539.335 357.919 542.843 356.911C545.639 356.106 548.853 352.957 551.309 352.288C554.784 351.325 558.632 353.455 562.423 351.949L563.102 274.015L563.114 274.003ZM322.903 463.995L238.482 275.318L238.788 384.09C243.79 385.132 248.736 386.174 253.32 388.542C266.551 395.373 274.654 410 273.081 424.943C272.64 429.18 270.512 432.964 269.889 437.144C285.791 435.728 299.022 446.14 305.892 459.746L322.891 464.017L322.903 463.995ZM653.431 467.915L569.01 277.278L568.411 352.198C569.305 354.939 578.37 351.189 582.094 354.917C582.999 355.823 583.724 358.1 584.505 358.565C587.028 360.049 593.514 359.041 595.336 363.278C599.523 372.964 580.283 377.745 577.137 384.101C576.525 385.347 578.506 387.5 578.597 389.074C578.676 390.445 577.77 391.703 578.268 393.436C578.551 394.422 591.454 404.788 593.536 406.997C606.348 420.547 616.116 438.243 616.195 457.367C629.108 459.282 641.66 462.114 653.419 467.937L653.431 467.915ZM409.96 289.071C402.354 289.989 394.624 289.955 387.2 287.938C384.596 287.236 376.063 282.376 375.95 286.76C375.802 292.334 388.739 293.422 392.632 293.648C396.163 293.852 402.241 294.645 404.414 291.688L405.014 292.969C407.085 291.904 410.48 292.323 409.971 289.071H409.96ZM525.142 348.686C533.053 327.307 543.953 307.073 551.977 285.797L524.135 346.703C523.693 348.04 523.297 349.026 525.142 348.697V348.686ZM402.105 299.551L385.751 297.58C385.423 299.245 386.079 298.735 387.018 299.222C389.825 300.684 398.393 301.998 401.2 300.922C402.083 300.582 402.332 301.148 402.105 299.54V299.551ZM260.077 311.333L259.352 308.467L254.859 299.551L256.704 305.227L260.088 311.333H260.077ZM400.792 308.059L399.061 305.544L385.751 304.139C385.185 308.24 400.136 308.558 400.804 308.059H400.792ZM391.636 311.99L389.01 312.376C388.082 367.798 390.278 423.357 389.056 478.768C389.01 480.966 387.132 486.528 389.995 486.97C390.595 487.061 392.225 487.174 392.315 486.551L391.647 312.002L391.636 311.99ZM398.178 312.647H395.563L394.873 320.804L394.896 487.197L398.178 487.571V312.647ZM402.773 486.925L404.109 484.013C404.176 429.429 403.882 374.618 404.131 320.193C404.131 318.21 402.999 316.103 403.418 313.973C401.958 314.358 402.173 315.74 402.083 316.885C400.159 341.084 404.935 368.308 402.083 392.938C402.784 410.985 402.06 429.644 402.083 447.918C402.105 460.947 401.924 473.942 402.773 486.925ZM205.094 327.058L209.678 314.619L205.072 324.079L205.094 327.058ZM310.475 421.397L298.162 392.79C287.172 371.39 277.654 349.332 268.056 327.273L262.714 317.236L284.195 366.812C294.019 383.07 299.508 403.417 308.495 419.799C308.993 420.717 309.061 421.68 310.487 421.408L310.475 421.397ZM184.564 375.321C187.914 363.346 195.203 352.866 198.541 340.823L187.959 362.655C185.978 371.763 176.143 385.823 174.977 394.218C174.785 395.634 175.498 395.43 175.973 394.558C178.939 389.154 181.021 381.801 183.568 376.08L184.564 375.321ZM409.303 340.823V484.954C410.458 485.101 409.926 483.47 409.96 482.665C410.186 477.216 409.813 471.71 409.926 466.249C409.96 464.844 410.594 463.598 410.616 462.341C411.171 424.286 409.903 385.268 410.662 347.043L409.292 340.812L409.303 340.823ZM523.841 349.343L522.369 350.782L514.028 370.302L516.02 368.693L523.841 349.343ZM559.186 355.245C560.669 357.783 564.698 358.078 566.373 355.563C564.517 353.591 561.416 354.736 559.186 355.245ZM571.614 359.165C568.75 358.825 566.984 362.145 564.223 362.235C559.933 362.371 556.221 359.743 552.633 357.851L559.832 382.753L561.71 382.685C562.378 382.277 565.841 370.381 566.702 368.353C568.094 365.102 570.187 362.371 571.591 359.177L571.614 359.165ZM555.248 382.753C555.01 374.573 549.544 367.254 549.363 359.165C546.001 361.669 541.802 363.051 537.581 363.097C536.279 364.365 546.624 377.371 548.389 378.81C548.717 375.819 544.632 372.33 545.107 368.988L555.248 382.741V382.753ZM580.781 363.754C578.212 363.516 576.571 362.009 574.59 364.433C571.885 367.73 569.022 377.745 568.354 382.096L580.781 363.754ZM575.552 378.153L586.338 370.936C587.436 369.203 594.374 365.578 589.292 365.374L575.552 378.153ZM497.017 406.329L499.111 404.822L510.757 377.496C509.693 377.757 509.331 379.003 508.89 379.875C506.479 384.588 504.498 390.491 502.167 395.419C501.397 397.039 496.293 405.479 497.029 406.318L497.017 406.329ZM570.957 389.312L548.706 387.998V389.958C555.191 391.306 560.703 391.544 567.267 390.525C568.128 390.389 570.821 390.287 570.957 389.312ZM232.552 389.324C197.161 393.266 194.535 443.273 228.998 450.887L234.544 450.252C227.21 447.771 216.107 446.434 213.605 437.801C214.194 437.178 218.461 440.917 219.457 441.438C222.49 443.024 226.825 443.987 230.231 444.429C231.307 444.565 231.601 445.505 232.574 444.033C228.953 441.393 224.086 441.393 219.944 439.002C218.291 438.051 214.352 434.924 212.949 433.553C212.112 432.737 210.833 431.933 211.002 430.596C218.031 433.961 224.425 439.512 232.597 439.761C232.665 438.708 232.823 438.232 231.929 437.496C230.82 436.578 223.486 435.116 221.121 433.904C218.212 432.42 214.364 429.225 212.315 426.676C219.061 429.837 225.557 433.95 233.253 434.527C236.241 431.502 221.619 429.305 220.826 426.993L233.253 429.282L232.563 389.335L232.552 389.324ZM254.191 396.506C250.219 391.895 243.847 389.335 237.826 389.301L238.482 424.682C238.969 425.226 250.853 420.286 250.921 417.817L248.951 418.134C247.887 416.831 253.241 412.492 254.803 412.843L254.848 410.929H248.951C250.275 409.274 252.788 407.122 254.837 408.311V405.037C252.641 406.318 251.09 405.037 249.608 403.395L254.18 402.749L247.638 394.875L254.18 396.506H254.191ZM548.061 395.861L529.715 413.851C523.829 420.944 518.25 427.684 515.013 436.487C509.161 452.427 511.357 468.47 517.944 483.639C515.431 484.285 516.586 481.816 514.617 482.597C510.712 484.149 500.39 492.726 507.271 496.623L525.991 496.215C528.628 497.484 531.243 499.059 534.31 498.707C532.216 496.804 530.756 494.119 527.768 493.462C527.598 492.59 528.006 492.771 528.73 492.816C533.563 493.122 535.939 496.951 539.754 498.832C545.831 501.823 555.18 501.664 561.801 500.679V498.719C557.67 500.259 553.709 500.09 549.702 498.028L549.091 499.342L540.206 495.456C547.167 496.815 554.207 498.175 561.359 497.348C565.887 496.827 579.117 490.777 582.694 487.854C583.418 487.265 584.086 486.63 584.708 485.939C582.332 485.985 579.649 487.865 576.876 488.59C575.122 489.044 572.779 489.451 570.968 489.225C573.888 487.559 588.115 481.068 589.292 478.734C590.333 476.661 585.138 479.096 584.573 479.255C583.905 479.448 582.49 480.241 582.083 479.391C584.471 475.72 591.737 475.358 591.25 469.897L587.334 471.54C588.251 469.115 591.318 468.957 592.495 466.884C592.959 466.057 594.34 460.811 594.476 459.69C596.513 442.378 588.624 423.051 578.167 409.626C580.883 417.749 587.277 425.951 589.258 434.233C589.688 436.045 587.13 434.822 586.825 434.369C586.349 433.666 586.315 430.857 585.625 429.35C583.758 425.226 580.351 419.437 578.042 415.324C576.99 413.444 570.074 401.491 569.327 401.117C568.06 400.483 568.399 401.899 568.49 402.602C568.92 406.102 570.799 410.396 571.455 414.055C571.523 414.407 572.213 417.465 570.968 416.514C567.301 413.274 564.37 397.333 560.816 395.872C559.334 395.577 559.99 396.506 559.752 397.401C558.224 403.338 557.896 409.546 556.561 415.517L555.089 414.701L555.259 396.189C555.214 395.566 554.161 395.804 553.72 395.963C550.664 397.107 542.923 415.472 539.176 419.403C538.237 420.388 537.92 421.057 536.279 420.751L548.061 395.861ZM158.623 433.19L172.374 401.095C167.078 408.651 163.999 418.225 160.423 426.801C159.891 428.07 158.782 429.169 158.284 430.551C158.069 431.151 157.355 433.304 158.623 433.19ZM237.181 451.532C263.314 453.515 278.231 420.105 261.061 401.095L264.321 408.311C269.867 422.745 265.328 436.601 252.698 445.131C247.491 448.655 244.537 448.678 238.992 450.422C238.301 450.637 237.011 450.592 237.169 451.532H237.181ZM497.662 406.997C496.078 406.759 495.704 408.3 495.127 409.365C493.452 412.503 489.038 421.578 488.155 424.66C487.838 425.758 487.759 426.823 487.85 427.956C489.842 427.141 489.57 424.546 490.328 422.904C492.739 417.613 495.568 412.424 497.662 406.997ZM238.482 429.259C245.782 427.684 252.845 423.096 254.837 415.506C251.962 416.061 252.007 418.553 250.615 420.117C247.491 423.64 243.711 425.022 239.105 425.623L238.482 429.248V429.259ZM647.534 445.641L643.731 435.377L635.763 418.791C638.321 426.427 641.705 433.927 645.01 441.302C645.576 442.56 646.448 444.882 647.534 445.653V445.641ZM603.7 481.68C607.14 480.762 607.729 478.009 608.951 474.814C613.501 462.884 612.471 451.498 607.944 439.761L597.814 421.408C600.123 428.591 604.662 434.845 606.993 442.027C609.495 449.708 610.932 461.004 608.861 468.844C607.627 473.522 603.53 476.944 603.7 481.691V481.68ZM311.777 422.722L310.532 423.64L326.83 460.063C323.05 447.171 315.885 435.524 311.777 422.722ZM250.921 427.968L240.135 431.899L238.494 433.848C239.535 434.731 250.468 430.585 250.921 427.956V427.968ZM487.193 429.271C485.043 428.885 485.439 432.216 484.726 433.666C484.013 435.116 480.867 437.394 482.949 439.082L487.205 429.271H487.193ZM218.189 456.778C219.253 455.645 209.339 444.214 207.086 443.33C196.481 439.195 179.561 448.281 174.876 458.285C162.618 484.501 186.895 509.527 213.639 502.978C222.66 500.769 232.936 491.491 233.242 481.668L228.545 489.078C218.246 504.655 196.946 506.343 183.194 494.096C182.391 493.383 181.327 492.748 181.542 491.491C188.05 494.459 194.184 497.008 201.484 497.405C202.197 497.45 203.963 497.824 203.793 496.725C196.595 496.034 188.4 493.881 182.527 489.508C180.953 488.33 177.264 484.806 177.943 482.96C186.182 488.704 196.085 493.79 206.419 491.468C207.437 490.641 206.407 490.278 205.445 490.154C202.265 489.769 199.22 490.052 195.791 489.315C189.114 487.888 181.712 483.787 178.271 477.714C178.656 477.363 184.971 482.019 186.114 482.631C194.705 487.288 207.958 489.927 215.575 482.303C213.266 482.507 211.591 484.512 209.316 484.874C204.359 485.667 193.777 483.787 189.261 481.453C188.174 480.887 186.635 480.218 186.126 479.029C196.255 482.065 204.223 484.421 214.262 479.334C215.473 478.723 222.513 473.262 218.54 474.44C215.292 475.403 211.183 478.847 207.245 479.516C204.71 479.946 201.744 479.81 199.22 479.346C206.532 476.559 218.812 475.641 220.804 466.566C218.585 468.651 216.05 469.693 212.96 469.841C211.84 468.832 219.728 464.878 220.17 462.318C220.43 460.811 219.638 461.4 218.699 461.491C216.808 461.672 213.787 463.247 213.628 460.029C214.273 460.335 220.566 459.474 218.868 458.069C213.153 458.387 211.546 453.685 218.201 456.755L218.189 456.778ZM269.731 443.183C264.378 444.18 260.077 450.026 255.719 452.733C249.268 456.744 243.258 455.804 240.768 464.629C229.315 505.199 286.832 520.233 300.98 483.628C308.993 462.884 291.541 439.104 269.731 443.171V443.183ZM662.372 498.492C664.092 496.589 665.133 491.74 665.224 489.191C665.462 482.937 657.89 465.184 654.845 458.976C654.461 458.194 653.657 456.313 652.786 456.132C655.955 467.541 665.428 480.263 663.945 492.533C663.832 493.428 663.877 493.7 663.243 494.459C662.145 495.762 649.017 503.59 646.685 504.746C628.939 513.549 604.039 517.129 584.38 519.021C578.914 519.553 573.198 519.587 567.698 519.678V523.609C584.482 521.876 601.787 521.536 618.243 517.525C628.78 514.965 655.343 506.241 662.383 498.481L662.372 498.492ZM340.592 489.542C339.495 482.903 334.741 477.091 331.968 470.985C330.429 467.609 329.942 463.19 327.509 460.72C329.557 473.228 340.457 482.79 340.592 495.445C342.177 495.66 341.634 495.445 341.973 494.538C343.524 490.38 342.267 484.58 341.238 480.388C340.151 480.207 340.536 481.974 340.558 482.699C340.615 484.399 341.113 485.758 341.238 487.276C341.294 488.001 341.713 489.723 340.592 489.553V489.542ZM657.358 477.091C645.938 467.971 630.523 464.04 616.127 462.692C616.002 464.119 615.923 464.47 617.247 465.162C620.065 466.646 632.3 467.575 637.065 468.911C640.913 469.999 646.459 471.948 650.148 473.511C652.695 474.587 654.744 476.434 657.358 477.091ZM506.173 463.338C497.481 464.165 488.28 465.445 479.995 468.254C477.799 469.002 473.589 469.421 474.11 472.503C477.879 470.939 481.659 469.682 485.609 468.628C491.8 466.986 498.998 466.555 504.759 464.833C505.89 464.493 506.468 465.071 506.173 463.338ZM326.626 472.061C324.544 470.146 308.608 463.406 307.216 464.652C307.023 465.717 307.737 466.43 308.563 466.895C313.033 469.467 322.269 469.829 326.536 473.806C328.301 474.225 326.864 472.276 326.637 472.061H326.626ZM167.134 465.955C166.206 465.15 151.776 470.611 149.682 471.733C149.059 472.061 143.231 475.471 144.238 476.434C146.954 475.97 148.946 473.93 151.448 472.843C155.545 471.053 162.098 469.874 165.652 468.062C166.58 467.586 167.383 467.178 167.145 465.955H167.134ZM641.649 477.737C638.027 474.531 631.915 472.82 627.252 471.517C625.362 470.996 615.312 467.779 614.825 470.214C614.622 471.2 615.652 471.687 616.466 471.834L641.66 477.726L641.649 477.737ZM324.872 480.365C320.899 475.131 314.324 473.455 308.517 471.2L308.608 473.726C312.071 474.916 315.591 475.992 318.964 477.442C321.046 478.337 322.789 479.72 324.872 480.365ZM648.19 484.965C642.905 482.79 637.608 480.717 632.108 479.108C629.64 478.394 615.176 474.633 614.124 475.403L613.501 478.394L648.19 484.954V484.965ZM136.372 490.845L138.33 477.091L135.093 485.985C134.923 487.208 134.867 490.392 136.372 490.845ZM321.601 482.982C320.662 480.841 307.737 476.513 307.205 477.091L307.272 479.64L321.601 482.982ZM459.034 493.462C462.203 488.284 459.43 483.47 461.004 477.748C460.098 478.19 458.989 480.796 458.717 481.68C458.242 483.288 458.084 484.999 457.71 486.63L459.034 493.462ZM508.788 479.063C505.042 479.21 500.65 480.263 497.017 481.351C494.98 481.963 491.72 482.586 490.464 484.285C495.331 482.439 500.571 481.963 505.54 480.717C506.343 480.513 508.675 480.037 508.788 479.063ZM640.992 487.582L614.158 479.72C615.878 482.858 618.832 483.673 622.012 484.625C627.071 486.143 633.636 486.959 638.989 487.945C639.668 488.069 641.128 488.806 640.981 487.582H640.992ZM606.993 485.577C611.475 485.905 615.753 486.914 615.787 492.17C616.489 493.303 617.791 492.714 618.062 491.774C619.103 488.183 609.97 484.874 607.944 482.337C606.269 481.838 607.095 484.648 607.005 485.577H606.993ZM503.559 484.965C502.529 484.138 480.674 492.454 478.727 493.847C478.003 494.368 475.445 496.328 476.396 497.405C483.028 491.547 491.845 491.026 499.632 487.582C499.903 488.896 499.032 489.157 498.138 489.678C492.241 493.122 484.081 494.493 478.048 498.073C477.845 499.727 479.52 500.35 480.64 501.03C497.232 511.045 538.486 514.478 558.213 515.101C559.56 515.146 561.891 516.528 562.842 515.135C563.419 514.274 563.702 508.564 562.061 507.986C542.515 507.805 523.512 503.568 504.261 500.962C498.658 497.801 498.896 488.942 503.582 484.976L503.559 484.965ZM170.416 490.199C166.964 490.063 162.833 491.423 159.698 492.895C158.872 493.281 152.195 496.883 153.406 498.05L170.416 490.199ZM603.032 490.199L589.077 497.518L579.468 500.667C584.131 501.313 587.56 499.92 591.691 498.164C592.755 497.71 604.639 491.638 603.032 490.199ZM410.616 493.485C405.218 491.139 399.083 492.476 393.277 492.159C389.927 491.978 380.918 488.33 383.714 494.527C384.664 495.66 393.198 496.691 395.201 496.781C399.536 496.974 407.968 497.269 410.605 493.485H410.616ZM231.873 508.609C213.617 507.442 195.135 513.651 179.64 500.951C176.471 498.356 174.728 494.765 171.412 492.805C167.564 495.32 162.664 496.102 158.838 498.583C154.107 501.653 158.046 501.064 160.807 502.763C183.771 510.909 208.297 514.455 232.597 515.747L231.873 508.609ZM232.586 523.598L232.303 521.604C218.914 518.964 204.8 518.432 191.23 516.2C178.611 514.126 162.63 509.651 151.289 503.76C146.366 501.2 142.235 497.484 137.04 495.433C137.345 499.342 141.386 502.14 144.43 504.077C164.837 517.083 203.6 523.473 227.674 524.3C229.428 524.357 230.945 524.096 232.586 523.586V523.598ZM394.285 505.935C398.665 507.759 401.336 505.199 405.602 506.389C408.081 504.27 411.295 505.924 413.219 502.978L411.454 501.483C401.935 501.12 392.168 501.834 383.125 498.39C380.386 497.348 378.756 494.357 376.232 496.747C374.705 498.186 373.992 500.645 374.942 502.65C375.021 502.831 377.149 505.709 377.319 505.811C377.557 505.958 378.473 505.04 379.537 505.856C380.477 506.581 381.45 509.312 382.797 509.867C385.276 510.875 381.518 504.882 384.098 505.278C387.335 505.777 385.853 511.204 389.656 510.524L388.671 504.633C389.701 505.709 390.776 506.717 392.27 505.935L393.572 511.181L394.262 505.958L394.285 505.935ZM237.826 523.609C264.378 524.651 292.491 521.049 317.187 511.011C321.261 509.357 335.477 502.457 337.593 499.33C338.657 497.767 339.166 495.648 336.609 496.362C335.013 496.804 331.538 500.078 329.648 501.2C311.641 511.883 287.738 517.593 266.981 519.644C257.711 520.561 248.25 520.199 238.912 520.301L237.826 523.598V523.609ZM462.984 496.102C462.611 497.744 461.773 498.866 462.916 500.407C463.38 501.03 471.224 505.698 472.593 506.445C494.788 518.511 528.436 522.782 553.595 523.643C555.418 523.7 561.869 524.187 562.401 522.567L562.174 520.29C561.326 519.089 551.411 519.836 549.046 519.678C526.365 518.114 493.758 514.421 474.087 502.99C471.235 501.336 467.115 497.461 464.92 496.442C464.252 496.136 463.72 495.954 462.984 496.102ZM641.649 501.347C639.329 500.713 636.465 500.327 634.088 500.656C632.153 500.928 630.919 502.276 628.826 502.593C617.191 504.349 602.817 505.346 590.888 506.491C583.531 507.193 576.107 507 568.761 507.975C567.166 508.507 565.943 514.614 569.95 515.135C573.266 515.565 581.935 514.738 585.693 514.444C599.818 513.299 616.421 510.365 630.014 506.4C633.862 505.278 638.514 503.907 641.649 501.347ZM413.887 509.187C417.928 509.425 424.662 508.292 425.001 503.296L419.795 506.921L413.887 509.187ZM298.694 507.884C290.929 509.221 283.279 509.028 275.435 509.164C264.197 509.357 253.897 507.148 243.462 507.295C242.636 507.306 238.437 508.043 238.12 508.507C238.856 511.487 235.958 514.602 240.089 515.123C252.584 516.676 285.621 514.013 297.256 509.357C298.252 508.96 299.022 509.742 298.694 507.884ZM236.513 528.854C208.478 527.178 180.795 526.045 154.707 514.75C150.893 513.096 147.543 510.512 143.57 509.198C154.243 526.759 172.759 540.784 192.147 547.378C205.955 552.079 220.589 555.229 235.211 555.048L235.166 553.133C228.658 551.932 221.958 552 215.428 550.935C210.176 550.085 203.6 548.409 198.417 546.993C190.177 544.738 180.444 541.917 173.687 536.706C184.439 540.229 195.089 543.684 206.271 545.678C209.667 546.279 232.812 549.734 233.887 548.851C234.77 548.137 234.6 547.536 234.555 546.528C222.626 545.248 209.972 543.968 198.281 541.237C190.63 539.447 175.215 535.131 168.447 531.789C167.112 531.132 165.821 530.237 165.176 528.843C187.189 536.162 209.905 541.974 233.242 542.597L233.197 540.682C215.982 537.986 198.722 535.822 182.04 530.622C176.019 528.741 170.348 526.192 164.486 523.949C161.056 522.646 156.699 522.895 154.696 519.021C170.145 524.481 185.594 529.874 201.699 533.228C206.86 534.304 230.707 538.734 233.876 536.366C234.804 535.675 234.578 535.097 234.544 534.089L200.511 529.829L195.282 527.54C207.109 528.039 221.132 532.31 232.857 530.746C234.046 530.588 236.072 530.18 236.513 528.843V528.854ZM578.167 528.854L545.775 527.529C534.661 525.705 522.822 526.147 511.776 524.277C496.134 521.626 481.274 515.531 466.9 509.198C471.71 516.608 476.373 522.895 483.255 528.526C523.909 561.811 595.63 564.927 637.02 531.086C637.721 530.509 641.739 527.042 640.992 526.226C634.903 530.169 628.746 535.187 621.786 537.465C607.933 541.996 583.803 546.573 569.327 546.823C551.049 547.14 509.252 539.9 492.931 531.947C492.399 531.687 488.823 529.772 489.819 528.854C516.869 537.635 545.797 544.421 574.488 541.872L603.7 535.414C596.649 535.369 589.949 538.326 583.011 539.255C552.283 543.413 510.486 533.885 482.179 521.762C479.259 520.516 475.785 518.613 473.465 516.415C505.958 530.01 541.508 540.014 577.125 535.335L582.105 534.111C576.186 532.321 569.916 534.145 564.11 534.145C551.671 534.145 538.712 531.03 526.308 530.021L521.905 528.22L560.182 530.826L578.189 528.877L578.167 528.854ZM333.383 509.855C332.659 509.153 329.705 512.495 329.116 513.118C321.318 521.377 317.21 528.333 306.99 534.202C302.983 536.502 297.041 537.952 295.027 541.294C293.408 543.99 267.931 550.629 263.382 551.479C254.882 553.054 246.258 553.292 237.622 553.065L236.524 555.048C246.111 556.271 256.614 554.742 266.098 552.884C287.262 548.726 309.842 537.51 324.566 521.649C325.46 520.686 333.926 510.365 333.394 509.855H333.383ZM655.4 510.512C654.178 510.229 653.838 511.192 653.102 511.815C649.696 514.693 647.127 518.534 643.607 521.287L642.305 524.912C643.561 525.184 643.867 524.266 644.535 523.541C648.202 519.508 651.371 514.376 655.4 510.512ZM415.845 515.101C405.602 518.024 395.371 517.525 385.083 515.101C388.705 518.907 397.352 519.304 402.456 519.055C406.361 518.862 413.367 518.33 415.834 515.101H415.845ZM394.794 523.722C394.443 523.496 388.682 522.793 388.422 523.02C387.743 527.438 384.766 530.905 381.133 533.228C380.963 534.496 381.28 535.187 382.129 536.105C386.022 540.331 404.901 538.768 410.628 537.374C410.299 536.105 408.115 537.023 406.712 536.388C403.769 535.063 403.192 527.869 402.773 524.935C401.505 525.127 402.128 528.209 402.207 529.104C402.49 532.027 403.169 534.893 404.742 537.374C398.653 537.907 400.238 528.311 398.529 524.277L396.243 523.62L396.888 525.92C395.088 527.461 395.563 524.209 394.816 523.722H394.794ZM247.65 528.854H237.837C237.305 531.256 240.746 529.795 242.127 530.191L247.661 528.854H247.65ZM260.733 533.443L237.169 534.089V536.049L249.28 535.391L260.733 533.443ZM416.502 541.962C402.864 542.28 387.301 545.486 375.565 536.683C374.082 536.524 372.837 537.601 372.633 539.051C371.626 546.449 386.917 547.752 391.863 547.185L392.293 548.499L394.579 546.494C396.084 546.551 398.257 546.573 398.189 548.499H399.479C399.049 546.279 400.475 546.041 402.399 545.848L404.063 548.511L404.822 545.984C406.474 545.237 408.398 546.392 409.677 546.449C409.971 546.46 409.892 545.474 410.458 545.282C412.235 544.681 413.355 544.681 415.211 543.582C416.049 543.084 416.864 543.707 416.502 541.962ZM275.786 538.031C268.893 538.292 262.035 539.47 255.165 539.98C249.517 540.41 243.145 539.957 237.486 540.637C236.513 540.75 235.483 541.158 236.524 541.951H249.936L275.797 538.031H275.786ZM292.152 539.991C278.333 542.71 264.762 546.256 250.581 547.185C246.62 547.446 241.923 546.709 238.143 547.185C237.192 547.31 236.117 547.684 237.181 548.488C255.018 549.451 272.21 545.259 289.435 541.509L292.152 539.98V539.991ZM428.284 541.305L415.2 546.528C420.078 546.97 425.454 545.542 428.284 541.305ZM417.814 553.099C406.564 556.09 395.065 555.546 383.782 553.099C383.951 554.085 384.981 554.357 385.751 554.73C392.247 557.903 408.59 558.095 415.359 555.546C416.468 555.127 418.063 554.753 417.826 553.099H417.814ZM399.332 563.08L384.2 559.591C380.59 564.417 375.384 568.631 370.63 572.359C368.717 573.854 364.054 575.089 365.231 577.797C365.786 579.1 371.581 581.819 373.143 582.408C382.129 585.773 396.786 586.407 406.282 585.104C409.054 584.73 411.805 583.858 414.51 583.167L414.544 581.252L400.136 580.584V577.967L400.838 579.915L402.75 579.938C403.826 578.08 399.627 566.003 399.332 563.057V563.08ZM231.94 573.401L229.982 568.439L230.299 562.944C224.731 567.045 228.953 574.659 235.2 575.372L233.231 565.55C230.82 566.66 232.223 569.526 232.405 571.316C232.472 572.041 233.174 573.548 231.94 573.412V573.401ZM564.427 574.704C563.159 572.291 563.578 568.212 562.344 565.992C557.93 558.107 552.599 573.276 561.812 574.047C562.265 573.696 557.07 566.377 560.171 564.893C561.575 564.893 561.054 574.851 564.427 574.704ZM410.605 578.646L405.512 567.045L403.418 564.881C403.316 566.003 403.441 567.091 403.701 568.19C403.95 569.22 406.248 575.35 406.7 576.165C407.244 577.14 409.598 577.944 410.605 578.635V578.646ZM382.48 594.371C395.428 593.952 408.624 593.941 421.232 590.905L425.001 588.797C424.085 587.393 423.575 587.993 422.376 588.106C418.946 588.424 415.279 589.59 411.635 589.817C394.545 590.871 372.113 590.304 358.678 578.703C353.823 581.649 357.015 587.359 360.387 590.01C367.348 595.47 390.81 598.076 399.819 598.291C404.788 598.416 409.62 598.065 414.544 597.634C414.725 597.51 414.204 596.796 413.898 596.649C410.956 595.198 394.5 596.649 390.006 595.674L382.48 594.383V594.371ZM443.336 587.823L422.398 596.331C424.356 597.396 445.645 589.806 443.336 587.823ZM321.273 623.193C326.309 622.491 332.76 623.714 337.967 623.193L339.268 608.782C331.323 612.521 322.891 616.033 314.154 617.222C313.531 617.664 312.06 627.804 311.868 629.503C311.415 633.378 311.743 639.224 311.109 642.509C310.86 643.801 306.277 648.616 307.205 649.397C310.147 648.956 328.448 648.14 328.799 646.441C328.89 645.342 328.154 645.047 327.215 644.888C323.276 644.209 317.832 645.058 313.599 643.959C312.377 643.642 311.426 643.801 311.788 642.192H326.185L326.558 640.833C331.448 643.314 339.325 639.122 344.09 636.856C358.407 630.047 373.765 618.525 376.425 601.86C370.279 599.209 363.568 598.257 357.92 594.439C355.826 599.266 346.568 602.54 344.373 606.335C343.761 607.389 340.706 620.089 340.615 621.596C340.592 621.913 340.57 622.23 340.581 622.536L342.55 623.182C335.035 624.824 327.305 624.518 319.654 624.496C319.417 623.839 321.024 623.227 321.284 623.193H321.273ZM421.742 607.457C421.493 606.267 420.452 606.244 419.478 606.131C413.016 605.406 404.686 605.961 397.861 605.497C392.847 605.145 387.709 604.364 382.74 603.571C381.326 603.582 379.198 607.139 381.473 607.468C386.498 608.182 393.787 607.287 399.185 607.434C400.736 607.479 402.162 608.114 403.712 608.148C409.722 608.261 415.823 608.363 421.742 607.457ZM425.013 634.987H443.336L439.069 631.067L419.127 630.398C419.003 628.767 418.969 629.277 420.112 629.107C425.692 628.28 431.407 628.982 436.795 627.453C430.4 622.139 418.561 627.736 412.586 621.89C418.426 621.471 424.107 622.842 429.936 622.536C430.672 622.502 431.735 622.966 431.554 621.89C429.427 621.55 428.6 619.205 426.518 618.741C423.745 618.129 419.388 618.355 416.275 617.857C413.163 617.358 410.413 616.203 407.345 615.976C407.176 614.22 407.345 614.923 408.33 614.685C413.774 613.371 419.523 614.084 425.013 614.673L424.266 611.501C409.36 610.708 394.5 609.621 379.503 610.051L378.655 610.21C375.384 618.978 368.808 625.776 361.485 631.35C357.479 634.398 348.526 640.81 344.316 642.996C340.615 644.922 335.273 645.999 331.425 648.117C332.093 649.692 336.575 647.959 335.997 650.723L313.746 652.037L313.429 650.723C312.241 653.533 306.774 652.082 304.398 652.694C304.002 652.796 300.029 657.826 297.392 656.625C296.736 656.014 304.126 643.506 304.783 641.433C306.605 635.632 306.616 628.461 308.517 622.57C306.616 622.4 305.846 624.349 305.892 625.833H305.247C305.892 623.68 301.217 625.595 299.135 625.583C296.554 625.561 293.465 624.813 290.873 624.541L282.339 659.243H478.682C479.384 655.651 475.128 656.75 473.623 655.798C472.887 655.334 471.756 652.116 469.854 651.981C448.339 650.055 426.722 651.346 405.014 651.369C385.083 651.391 362.685 652.456 342.867 651.437C340.751 651.323 338.736 650.961 336.654 650.734C336.563 648.412 339.823 648.231 341.532 648.095C364.767 646.169 392.428 648.536 416.173 648.412C432.867 648.321 449.561 646.543 466.244 648.117C465.485 646.837 462.498 645.251 461.185 644.99C453.375 643.438 440.156 644.231 431.849 644.163C406.666 643.937 378.213 645.931 353.359 644.22C351.684 644.107 350.111 643.529 348.436 643.529C348.605 642.396 351.163 642.407 352.08 642.249C356.698 641.478 363.851 642.339 367.438 641.263C368.389 640.98 379.232 633.797 380.511 632.721C383.102 630.546 391.817 619.953 392.293 616.996C392.474 615.886 392.372 615.942 391.432 616.135C388.014 616.803 381.495 617.846 378.236 617.29C377.466 617.154 376.685 616.905 376.572 616.022C381.167 613.892 385.853 615.093 390.629 614.696C394.092 614.401 403.429 611.875 406.293 613.971C406.972 614.469 406.553 617.007 407.164 618.469C407.594 619.488 413.072 626.524 414.193 627.815C418.799 633.129 424.798 636.89 430.264 641.24L452.164 640.912L454.451 640.266C450.953 641.535 447.411 637.434 444.887 637.173C439.794 636.652 431.362 638.725 426.314 636.618C425.284 636.188 424.707 636.72 425.001 635.021L425.013 634.987ZM423.055 641.535C420.621 638.68 417.237 637.309 414.532 634.669C412.223 632.415 406.282 625.606 404.448 623.136C403.362 621.663 402.705 617.574 399.796 617.268C396.061 616.883 396.084 620.644 394.794 622.74C391.625 627.906 387.958 630.591 384.132 634.998L373.992 641.886C372.249 644.424 374.716 642.181 374.942 642.181H397.193C397.635 642.181 400.611 641.116 400.724 640.504C399.264 638.227 402.965 631.214 398.517 631.667C394.805 632.041 398.721 637.774 398.178 638.249C389.95 639.518 391.93 629.469 397.374 627.294C404.301 624.518 408.975 630.693 405.693 636.935C404.923 638.408 401.245 639.133 401.449 641.535H423.043H423.055ZM442.68 629.741L432.211 619.262C431.928 620.485 432.89 620.825 433.512 621.562C435.221 623.589 438.356 626.728 440.382 628.438C441.118 629.061 441.446 630.024 442.68 629.741ZM489.151 661.191C489.853 649.25 495.048 637.796 495.037 625.821L487.884 654.416L489.14 661.191H489.151ZM473.442 646.769C474.54 647.868 482.044 638.657 481.942 636.947C480.776 637.581 472.978 646.305 473.442 646.769ZM281.683 667.739H483.266V663.808C442.363 664.012 401.426 663.57 360.512 663.786C358.497 663.786 356.698 664.488 354.683 664.499C330.361 664.635 305.926 664.805 281.671 663.808V667.739H281.683ZM476.068 676.259H466.255C465.757 674.005 470.635 675.058 472.389 674.866C473.148 674.786 475.989 674.571 476.068 673.642C470.352 672.928 464.444 672.52 458.616 672.577C457.801 672.577 453.341 672.622 453.828 673.959C454.598 676.1 458.05 677.721 460.189 678.072C462.724 678.491 470.488 678.989 473.102 678.91C473.985 678.887 474.845 678.502 475.683 678.276L476.068 676.248V676.259ZM295.423 675.602C294.97 672.554 281.694 673.155 281.671 673.971C282.588 679.057 292.525 680.757 295.423 676.905H285.927C285.814 676.905 284.897 676.021 284.942 675.591H295.411L295.423 675.602Z" fill="black"/>
<path d="M250.74 664.001C250.909 664.148 251.656 665.723 251.577 665.78L244.096 665.802L243.451 664.533L239.897 665.032L239.139 663.174C241.674 663.604 248.974 662.551 250.74 664.001Z" fill="black"/>
<path d="M238.482 663.163V665.123H226.044C225.716 663.163 226.542 664.058 227.674 663.786C230.695 663.061 235.291 663.616 238.482 663.163Z" fill="black"/>
<path d="M582.094 665.122V663.162C585.161 662.959 588.194 663.672 591.25 663.162V665.122H582.094Z" fill="black"/>
<path d="M258.764 665.78H252.55C250.672 662.086 259.805 661.837 258.764 665.78Z" fill="black"/>
<path d="M222.773 657.26C223.078 659.152 222.365 658.393 221.154 658.608C218.766 659.039 216.65 658.438 214.262 658.563V656.603L222.773 657.26Z" fill="black"/>
<path d="M252.075 675.795C252.211 675.874 253.444 678.933 253.207 675.602L256.149 677.562L249.608 678.219C249.166 676.033 249.777 674.571 252.075 675.795Z" fill="black"/>
<path d="M586.021 671.014L578.834 671.671C576.288 668.102 588.636 668.839 586.021 671.014Z" fill="black"/>
<path d="M237.826 669.711V672.328C236.75 671.761 234.962 671.954 235.189 670.368L234.17 671.705L231.284 670.674C230.978 669.088 232.551 669.745 233.559 669.7C234.973 669.632 236.411 669.734 237.826 669.7V669.711Z" fill="black"/>
<path d="M582.094 658.563C582.218 655.187 587.594 656.592 589.281 658.234L582.094 658.563Z" fill="black"/>
<path d="M561.699 676.78L562.129 675.579C564.608 675.092 565.604 678.23 562.163 678.264C557.511 678.31 556.164 674.141 561.71 676.792L561.699 676.78Z" fill="black"/>
<path d="M263.936 675.67C265.634 679.533 261.65 677.89 259.42 677.573C259.296 675.092 262.17 675.466 263.936 675.67Z" fill="black"/>
<path d="M372.656 623.193C372.543 621.55 372.486 622.071 373.641 621.901C377.636 621.312 381.699 621.108 385.739 621.233C386.022 621.845 385.162 623.193 384.766 623.193H372.656Z" fill="black"/>
<path d="M453.805 655.3C454.518 656.376 453.828 656.478 452.843 656.614C447.909 657.249 442.34 656.025 437.451 657.26C439.217 653.669 441.559 655.651 443.642 655.629C447.015 655.606 450.455 655.413 453.805 655.3Z" fill="black"/>
<path d="M381.812 628.438C381.563 629.651 380.533 629.651 379.549 629.775C376.221 630.183 372.43 629.855 369.057 630.421C366.25 630.161 371.445 628.438 371.671 628.438H381.812Z" fill="black"/>
<path d="M302.61 639.564C301.478 639.722 301.987 638.068 301.964 637.287C301.84 633.593 302.542 629.911 305.224 627.124L302.61 639.564Z" fill="black"/>
<path d="M244.379 483.64C250.264 490.471 256.896 492.726 265.634 494.131C266.539 493.53 263.291 492.091 263.132 492.035C256.07 489.429 250.92 489.044 246.337 481.68C249.336 482.677 251.724 484.897 254.61 486.166C259.511 488.319 265.973 490.199 271.202 488.885L269.901 490.188C272.142 489.927 278.072 488.693 279.408 486.936C279.758 486.483 280.087 485.77 279.385 485.611L271.542 488.602C264.015 486.755 254.927 485.679 250.241 478.734L259.545 483.187C267.739 484.807 276.838 487.061 283.629 480.694L273.488 482.983L262.035 480.366C262.035 479.233 264.898 479.64 265.656 479.686C272.402 480.06 275.435 481.51 281.875 477.647C284.003 476.366 289.13 472.356 288.53 469.897C285.531 471.903 282.826 474.701 279.034 475.131C281.954 470.872 287.262 469.104 290.148 464.969C290.703 462.919 285.565 465.196 284.591 465.32C283.923 465.4 282.124 465.762 282.305 464.675C284.863 463.508 292.582 462.171 289.062 458.749L283.618 458.772C284.467 456.155 287.308 457.503 288.835 455.838C286.866 453.765 285.383 450.116 283.629 448.145C282.441 446.808 280.041 445.868 279.034 444.373C298.852 449.357 307.159 469.931 296.464 487.696C288.1 501.597 266.856 507.17 253.558 497.042C249.698 494.097 244.401 488.772 244.345 483.674L244.379 483.64Z" fill="black"/>
<path d="M321.273 630.398C320.628 630.41 319.134 632.109 318.33 629.753C325.596 628.404 333.224 629.503 340.581 628.438V630.398C334.153 630.512 327.701 630.251 321.273 630.398Z" fill="black"/>
<path d="M329.32 636.097C329.489 636.006 329.365 635.225 329.772 635.123C332.342 634.522 337.095 635.327 339.925 634.987C339.71 636.176 338.578 636.131 337.684 636.392C333.541 637.581 328.494 636.879 324.215 636.947L325.223 634.987L327.95 636.188C328.482 636.437 328.788 636.346 329.308 636.086L329.32 636.097Z" fill="black"/>
<path d="M620.054 539.334C617.598 542.155 612.12 543.741 608.43 545.055C584.154 553.756 563.634 554.968 538.226 550.142C525.968 547.808 512.443 544.353 501.578 538.337C501.612 537.567 503.604 538.144 504.215 538.326C530.518 546.064 556.051 550.788 583.644 547.094C595.709 545.486 607.887 540.92 620.054 539.323V539.334Z" fill="black"/>
</g>
<defs>
<clipPath id="clip0_8061_321">
<rect width="540" height="565" fill="white" transform="translate(130 118)"/>
</clipPath>
</defs>
</svg>
