<svg width="800" height="800" viewBox="0 0 800 800" fill="none" xmlns="http://www.w3.org/2000/svg">
<g clip-path="url(#clip0_8061_331)">
<path d="M296.125 154.033L340.866 162.332L337.675 163.61C337.445 163.795 338.025 164.309 338.32 164.549C341.871 167.421 351.161 171.396 355.904 174.442C368.187 182.338 379.607 192.22 388.438 203.894C390.208 206.231 399.552 221.727 400.634 221.716C409.825 205.117 421.431 191.139 436.807 179.946C456.424 165.663 480.412 154.852 505.143 155.288C503.591 152.995 494.258 150.833 493.308 149.555C491.308 146.891 499.908 146.945 500.99 147C508.061 147.339 513.361 150.243 519.842 151.783C526.323 153.323 532.803 153.596 539.142 154.852C555.414 158.084 569.119 164.188 583.074 172.903C583.861 173.394 590.735 179.324 589.38 175.545C588.44 172.892 579.129 161.469 576.714 158.816C573.818 155.638 570.43 151.991 566.507 150.167C566.365 148.977 567.807 149.665 568.452 149.817C585.992 154.022 593.544 173.35 602.746 186.422C605.882 190.877 611.882 195.704 615.707 200.334C621.75 207.651 626.635 215.841 632.023 223.627C633.072 220.755 631.466 217.763 631.138 214.934C629.706 202.66 628.974 188.955 630.417 176.681C630.526 175.742 630.886 174.748 631.695 175.731C634.22 192.897 636.832 210.075 639.269 227.252C639.935 231.926 639.662 237.244 640.613 241.82C642.383 250.337 645.815 258.484 647.487 267.591C648.973 275.705 649.76 283.141 650.252 291.342C651.465 290.676 652.088 288.154 652.492 286.887C654.131 281.7 654.809 276.207 656 270.911C658.372 268.716 658 278.642 657.934 279.56C657.301 289.268 652.11 298.615 650.033 308.072C648.612 314.537 648.186 321.176 646.733 327.772C633.247 389.001 591.15 434.363 538.967 465.999C523.547 475.347 506.203 482.903 491.253 492.415C469.91 506 441.058 525.197 422.382 541.752C421.234 542.768 415.617 547.736 415.628 548.446L422.371 557.062C444.774 536.641 471.571 520.687 500.007 510.105C519.339 466.283 573.403 463.553 607.434 492.884C611.947 496.772 617.663 504.58 621.477 509.516C630.559 521.299 640.066 534.239 641.946 549.418C637.848 548.621 634.788 545.159 630.876 543.554C624.581 540.977 615.772 540.638 609.008 541.086C605.707 541.304 594.604 542.702 591.894 543.652C591.161 543.903 591.391 545.279 590.877 545.934C589.577 547.572 576.572 550.543 573.698 551.143C549.524 556.156 527.918 554.845 511.941 534.032C510.148 531.706 502.378 518.612 501.526 518.077C499.417 516.778 493.231 519.147 490.783 520.01C482.499 522.937 472.609 528.124 464.893 532.47C451.102 540.234 438.654 549.953 426.196 559.639L426.556 562.184C427.409 562.795 435.561 556.898 437.223 555.915C447.594 549.8 458.686 545.552 469.352 540.125C495.165 526.988 521.591 545.552 526.104 572.241C527.7 581.665 526.432 591.078 525.623 600.502C524.126 600.83 524.596 600.306 524.192 599.683C521.121 594.911 521.197 592.127 515.984 588.108C504.728 579.427 492.007 583.391 480.456 576.98C475.09 573.999 470.15 568.79 467.178 563.418C465.757 560.851 463.823 552.65 461.265 552.061C459.91 551.755 452.009 554.157 450.217 554.834C443.266 557.488 436.436 562.708 429.758 566.017C438.643 580.868 447.364 595.195 452.588 611.859C456.271 623.609 457.724 635.753 457.244 648.092C457.211 648.868 457.724 650.473 456.61 650.32C451.878 627.715 446.545 605.296 435.496 584.865C431.441 577.374 420.152 558.962 413.803 554.168C411.814 552.672 409.89 553.153 411.06 555.621C434.851 582.593 450.074 616.544 455.233 652.144C451.899 653.083 448.326 653.443 446.239 650.134C443.419 645.668 440.938 632.804 438.873 626.831C433.398 610.964 425.901 596.517 416.622 582.582C414.896 582.288 410.295 588.49 410.666 590.434C415.857 600.109 421.573 609.577 425.278 619.973C427.791 627.016 431.124 638.406 432.13 645.69C432.37 647.448 432.327 649.195 432.294 650.964H430.381C429.988 646.88 427.452 642.862 426.054 638.996C421.005 625.029 417.77 610.123 409.3 597.619C408.535 596.484 407.748 594.605 406.087 594.758C405.126 595.818 412.699 608.398 413.661 610.494C419.66 623.456 424.338 638.002 425.89 652.242L424.294 650.331L423.245 652.777H420.873C415.945 639.334 411.726 625.608 404.667 613.082C403.672 612.252 401.093 606.487 400.011 606.891C398.273 607.546 388.099 628.786 386.788 632.007C384.044 638.712 382.143 645.657 379.815 652.504C379.072 653.487 376.701 654.688 375.695 653.541C372.504 648.343 382.154 621.633 384.875 615.397C387.356 609.708 392.361 602.599 394.284 597.336C394.514 596.702 394.995 595.119 394.252 594.747C391.826 595.938 390.022 599.618 388.711 601.987C380.515 616.828 374.733 635.119 370.919 651.598H369.007C369.422 629.255 379.739 607.906 391.224 589.309L384.733 583.27C373.16 598.155 364.603 615.791 359.248 633.852C358.056 637.86 356.887 647.656 354.975 650.495C353.488 652.701 348.374 654.12 346.975 650.932C345.445 647.459 349.532 630.5 350.789 626.034C361.171 589.211 387.596 554.485 416.655 530.253C443.944 507.485 477.265 491.225 500.673 464.11C525.864 434.942 544.355 398.032 541.59 358.414C540.388 358.665 540.431 359.681 540.3 360.631C534.727 401.352 526.071 429.307 498.455 460.615C471.647 491.006 433.999 507.703 404.47 535.32C372.078 565.602 350.013 603.735 344.713 648.387C343.554 648.147 343.522 647.131 343.423 646.181C342.363 636.648 345.314 621.141 348.101 611.848C353.018 595.446 361.335 580.256 371.564 566.65C361.532 559.912 350.647 553.852 338.352 552.607C336.112 562.391 330.134 571.804 321.26 576.729C306.474 584.952 282.3 579.601 276.956 599.847C275.153 598.286 274.617 593.634 274.421 591.22C271.951 561.124 288.682 529.871 323.009 536.914C331.588 538.673 333.303 542.451 339.806 545.672C344.593 548.042 351.193 549.647 356.45 552.039C362.581 554.813 369.171 558.482 374.755 562.173C374.996 560.928 375.553 559.814 374.285 558.951C360.483 549.385 347.434 539.186 332.582 531.181C325.402 527.316 310.277 519.333 302.693 518.252C297.578 517.52 298.999 519.955 297.13 523.242C277.393 557.947 246.509 558.645 211.779 546.513C209.822 545.825 208.183 544.351 206.303 543.685C192.227 538.662 171.562 539.972 159.376 549.134L158.076 548.435C161.792 534.654 168.458 522.587 177.561 511.711C185.725 501.959 194.588 491.421 205.429 484.629C233.264 467.211 271.634 469.559 292.934 496.084C296.496 500.518 296.868 504.143 299.207 508.336C301.097 511.722 311.534 514.463 315.545 516.275C338.473 526.606 359.488 540.584 378.952 556.396L385.607 548.435C379.039 542.615 372.395 536.914 365.379 531.629C347.467 518.121 323.435 500.419 304.398 489.084C277.896 473.316 248.848 461.489 225.177 441.134C191.146 411.868 163.748 372.697 153.901 328.394C152.426 321.777 151.847 315.05 150.207 308.443C147.497 297.534 142.667 288.001 142.055 276.349C142.022 275.628 141.705 270.518 143.355 272.167L148.175 286.199L151.027 291.332C150.666 279.025 152.557 266.663 155.693 254.793C156.83 250.49 159.322 246.078 159.912 241.765C160.742 235.781 160.491 228.825 161.267 222.677C163.223 207.214 166.578 191.936 167.649 176.353C169.19 176.168 168.677 176.332 168.993 177.238C173.354 189.49 167.977 210.293 167.015 223.299C166.961 224.053 166.48 226.794 167.638 226.804C172.993 215.284 180.447 204.254 189.047 194.863C191.441 192.253 194.501 190.331 196.675 187.787C202.489 180.984 206.675 170.904 212.401 163.904C217.254 157.975 226.281 150.08 234.116 149.839C225.352 156.249 217.603 166.165 211.494 175.141C211.287 175.447 210.106 176.812 210.795 176.998C219.133 172.837 226.936 167.268 235.603 163.468C251.372 156.555 263.886 156.501 279.634 152.537C287.502 150.56 297.152 144.03 305.064 148.573L296.136 154.011L296.125 154.033ZM644.492 293.909C644.645 270.234 640.045 247.815 628.624 227.056C608.264 190.047 571.097 163.904 529.022 157.953C509.766 155.234 484.598 160.77 466.631 168.24C439.222 179.629 411.562 203.162 402.863 232.275C402.896 234.186 403.596 232.898 403.989 232.123C414.721 211.2 427.31 195.671 447.277 182.753C528.421 130.27 622.625 180.82 640.995 270.889L644.482 293.898L644.492 293.909ZM396.47 231.314C396.623 223.332 390.744 215.054 386.132 208.764C364.734 179.52 329.752 161.578 293.873 157.877C254.564 153.814 207.276 177.205 183.998 208.404C165.015 233.837 154.622 261.651 156.131 293.92L157.497 282.202C164.83 227.558 199.681 180.842 253.799 165.706C306.736 150.899 367.236 177.489 393.388 225.134L396.47 231.304V231.314ZM226.445 333.516H216.532C211.724 333.516 199.123 326.178 195.419 322.672C191.058 318.544 184.25 307.897 184.25 301.902V289.442C188.282 293.013 189.561 298.517 192.938 302.798C198.752 310.18 207.91 315.148 217.494 314.34L209.713 300.723C198.85 286.57 189.55 271.872 189.364 253.319C189.244 241.951 194.96 231.686 206.347 228.781C206.784 225.625 205.615 222.895 206.052 219.543C208.5 200.978 227.264 191.39 244.542 192.22C258.607 175.043 287.491 174.912 302.911 190.288C323.861 187.59 347.15 199.242 351.401 221.115C377.498 225.996 381.334 254.629 365.805 273.182C364.952 274.198 363.411 273.663 363.881 275.388C383.585 279.8 392.241 305.091 373.411 317.179C370.832 318.839 366.362 319.964 364.482 321.668C362.767 323.24 361.116 327.215 359.39 329.355C351.051 339.708 338.997 347.068 326.659 351.578C322.965 352.932 317.293 353.784 314.266 355.171C312.976 355.76 312.878 356.896 312.419 357.027C311.173 357.387 304.627 356.623 303.021 356.328C299.305 355.662 295.884 354.352 292.289 353.325C292.791 358.709 294.78 364.89 294.879 370.229C294.944 373.8 294.54 380.047 294.201 383.65C293.502 390.967 292.343 399.07 286.846 404.41C285.458 404.966 285.83 403.001 285.95 402.236C286.442 399.113 288.595 396.274 288.409 392.681C288.081 386.107 279.196 379.009 275.044 374.052C272.399 370.907 270.235 367.379 267.667 364.169C266.224 363.907 266.782 364.802 266.716 365.752C264.192 400.478 295.884 453.605 322.965 474.353C323.61 474.844 323.774 475.587 324.889 475.303L322.506 456.924C288.202 427.855 300.802 387.571 337.249 367.882C355.423 358.064 377.531 355.061 394.558 343.082C395.137 353.707 392.776 364.147 392.011 374.707C390.055 401.701 392.798 422.657 372.209 443.7C360.723 455.428 344.221 459.775 328.08 457.416C328.79 464.459 329.697 473.829 333.172 480.119C336.757 486.605 346.046 490.831 351.412 495.745C352.341 492.295 350.647 488.713 350.428 485.229C349.948 477.727 351.62 469.057 358.122 464.448C355.882 472.999 355.292 479.911 358.1 488.429C358.821 490.613 365.553 505.322 366.756 505.312C368.898 502.156 369.52 497.809 370.897 494.14C375.171 482.729 380.219 470.596 388.165 461.26C386.962 468.958 383.815 476.133 382.219 483.733C380.176 493.452 379.389 502.702 380.58 512.606C380.766 514.19 381.148 515.533 382.066 516.865C385.87 522.369 395.858 527.403 400 533.409L418.874 517.16C419.573 516.428 419.945 515.555 420.098 514.55C420.983 508.861 420.098 498.257 419.409 492.317C418.076 480.829 414.207 469.952 411.825 458.704C420.054 470.378 425.791 483.526 430.829 496.87C431.518 498.705 432.49 504.722 434.501 504.7C435.255 504.7 440.894 492.841 441.528 491.268C444.938 482.871 446.938 473.763 443.135 465.093C444.315 463.968 448.151 469.93 448.566 470.837C450.053 474.091 450.807 479.693 450.829 483.318C450.85 487.534 448.654 491.618 449.2 495.745C455.593 491.552 463.101 487.73 467.046 481.003C471.309 473.752 471.757 465.508 473.166 457.427C460.304 458.835 448.424 457.853 437.43 450.656C405.268 429.602 412.01 401.166 409.235 368.329C408.546 360.128 406.568 351.971 406.044 343.737L414.557 348.313C444.435 360.336 482.292 367.019 494.728 401.057C502.739 422.985 496.772 442.073 478.609 456.16L475.079 476.581C495.756 459.327 513.296 437.268 523.328 412.065C528.454 399.168 534.257 380.92 533.24 367.03C533.175 366.08 533.732 365.184 532.29 365.446C525.667 373.68 516.968 381.444 512.432 390.956C510.815 395.586 514.553 399.474 514.389 403.765C508.924 399.616 507.198 391.447 506.4 384.917C505.078 374.15 505.777 363.197 508.312 352.67C505.438 353.62 503.143 355.411 500.138 356.317C493.734 358.239 474.74 358.862 468.871 355.99C468.27 355.695 467.473 355.345 467.407 354.592C471.582 354.505 476.434 355.826 480.499 355.891C481.822 355.913 482.368 356.252 482.117 354.592C468.664 351.785 453.899 343.792 444.381 333.844C441.31 330.633 438.173 323.742 435.485 321.657C433.551 320.161 430.163 319.298 427.835 317.802C411.235 307.122 416.928 279.985 435.474 275.039C433.376 270.485 429.857 266.739 428.097 261.967C421.409 243.785 429.026 224.129 449.397 221.639C451.976 203.206 470.948 191.598 488.248 189.883C491.297 189.578 496.455 190.408 498.903 189.676C499.887 189.381 504.619 185.035 506.597 183.954C520.979 176.059 546.038 177.948 556.026 192.264C563.698 192.963 571.424 193.203 578.408 196.719C589.511 202.321 596.44 216.419 594.047 228.672C613.51 235.016 613.641 257.818 607.674 274.089C602.582 287.935 590.735 298.768 584.331 312.08C583.959 312.855 583.511 313.39 583.741 314.351C597.926 315.126 611.292 302.284 613.783 288.809C615.106 287.378 615.554 292.424 615.619 293.046C617.947 317.933 598.44 334.018 574.79 334.171C586.44 343.759 592.09 359.102 590.79 374.106C590.626 375.984 589.282 382.34 588.254 383.585C587.653 384.316 587.052 383.923 586.298 383.989C586.353 372.435 583.511 361.821 572.222 356.852C570.528 356.11 557.469 351.491 556.89 352.047C557.37 363.208 556.562 373.779 554.78 384.753C554.365 387.341 552.015 395.28 552.398 396.973C552.507 397.453 553.666 397.442 553.709 397.715L553.644 398.949C552.431 400.173 551.305 400.391 550.354 402.051C548.158 405.927 546.267 413.626 544.213 418.267C540.781 425.988 536.53 433.381 533.24 441.167L534.191 442.106L552.737 428.063C553.174 427.931 553.174 428.587 553.043 429.002C551.076 435.051 538.934 447.577 533.885 452.021C529.328 456.029 523.984 459.13 519.481 463.171C517.809 464.667 512.181 470.138 511.514 471.82C511.176 472.66 511.591 472.922 512.422 472.737C516.094 471.885 523.984 468.019 527.492 466.076C550.223 453.496 571.359 417.721 568.944 391.415C568.419 385.681 566.048 381.084 564.55 375.69C567.119 375.493 568.78 377.48 570.19 379.315C577.075 388.248 575.818 402.979 573.031 413.222C572.211 416.247 570.474 419.337 569.687 422.013C569.414 422.93 569.752 423.127 570.638 422.963C573.315 422.471 584.561 409.52 586.91 406.648C616.319 370.83 644.547 316.797 619.641 271.784C617.499 267.919 611.772 263.07 616.013 258.833C621.586 262.371 624.92 268.323 628.81 273.488C628.264 265.167 625.531 256.223 622.57 248.426C610.341 216.212 587.905 190.997 555.786 177.839C492.881 152.067 417.628 193.389 404.317 259.314C402.568 267.995 402.382 276.972 400.612 285.642C397.541 273.04 396.722 260.515 392.94 247.957C377.629 197.156 323.916 164.789 271.579 170.751C224.98 176.059 186.02 214.246 174.195 258.68C173.835 260.034 170.327 274.744 171.78 274.788C173.955 269.873 180.589 259.052 185.867 257.556C186.938 257.25 186.829 257.643 186.818 258.506C186.807 263.016 183.244 266.543 181.354 270.299C169.398 293.996 167.606 306.238 174.195 332.402C182.829 366.67 202.566 396.427 227.395 421.041C228.04 416.214 225.559 411.519 225.166 406.659C224.685 400.828 224.849 392.07 226.772 386.566C227.33 384.972 233.559 373.287 236.018 375.7C226.794 394.112 230.346 413.288 240.389 430.421C245.471 439.081 258.574 455.144 266.399 461.271C269.415 463.629 282.639 471.153 286.06 472.289C287.316 472.704 288.376 472.966 289.721 472.78C277.972 458.071 260.705 449.783 250.203 434.036C249.755 433.359 245.154 425.715 246.575 426.162C252.749 429.526 257.077 435.488 263.306 438.819C264.246 439.321 266.323 440.511 267.339 439.889C263.503 432.267 259.274 424.765 255.722 417C252.924 410.896 251.897 403.492 246.892 398.993L248.793 398.032C245.591 382.799 243.045 367.74 243.395 352.058C242.619 350.977 242.586 351.796 242.007 351.949C235.876 353.565 225.155 357.518 220.663 361.93C214.412 368.089 214.128 377 214.292 385.267C212.085 383.596 211.123 379.73 210.62 377.12C207.593 361.122 214.653 344.229 226.434 333.527L226.445 333.516ZM300.594 196.818C302.835 194.677 290.584 188.169 289.076 187.568C278.661 183.408 266.508 183.288 256.684 189.032C232.51 203.151 246.859 234.143 251.536 255.099C252.017 256.147 258.389 261.552 259.372 261.967C260.837 262.59 260.356 259.838 260.312 259.106C260.093 255.776 258.935 251.167 258.203 247.793C256.214 238.653 250.87 224.73 250.105 216.288C249.383 208.371 254.542 198.412 262.367 195.977C270.191 193.542 277.83 194.415 285.579 194.885C290.934 195.212 295.371 194.546 300.594 196.807V196.818ZM540.945 260.701C543.458 259.303 547.568 258.975 549.163 256.464C554.015 237.561 567.184 206.569 548.278 191.729C537.207 183.047 520.17 182.807 507.908 189.043C506.455 189.785 497.712 195.671 499.395 197.451C502.411 196.567 505.493 195.223 508.662 194.907C516.88 194.077 532.617 193.28 540.092 196.064C542.846 197.091 545.163 199.045 546.956 201.35C555.764 212.674 548.551 220.416 545.721 231.948C543.426 241.306 542.387 251.178 540.945 260.701ZM331.926 249.835C344.56 244.724 349.161 235.584 346.461 222.218C342.91 204.637 324.725 194.47 307.632 195.551C315.949 201.95 331.795 213.187 332.56 224.62C332.79 228.148 331.446 231.085 331.293 234.503L334.473 226.848C336.691 233.105 332.79 238.161 331.926 244.091C334.298 242.519 336.331 239.865 337.041 237.069C338.035 236.884 337.762 237.987 337.642 238.62C336.899 242.387 333.227 246.253 331.926 249.835ZM491.723 195.551C472.587 195.409 455.637 207.203 454.02 227.176C453.102 238.62 457.298 244.069 467.123 249.202L462.959 239.308C462.883 238.587 462.85 237.91 463.604 238.664C465.342 240.4 466.598 244.801 469.352 246.013C468.249 240.345 464.598 235.42 464.893 229.414L470.631 237.714C465.844 226.313 468.096 219.433 475.735 210.555L491.723 195.562V195.551ZM501.952 303.486C503.919 305.364 513.099 295.459 515.066 293.92C537.284 276.622 573.239 277.812 582.659 249.049C587.642 233.848 593.708 215.153 578.605 203.588C573.151 199.417 567.326 198.991 560.769 198.106C561.764 201.917 563.141 205.543 563.785 209.463C564.179 211.877 563.578 214.399 564.255 216.66C565.37 220.394 571.796 226.029 571.643 231.314C572.856 230.91 572.321 227.58 572.19 226.608C571.687 222.546 569.61 219.324 569.075 215.349L576.091 226.837C577.566 223.572 575.687 220.569 575.468 217.26C576.211 217.522 576.9 218.571 576.725 216.965C576.441 214.268 574.812 211.56 574.189 208.961C579.217 212.084 578.309 221.279 585.052 221.737C585.282 222.709 584.823 223.234 584.462 224.009C582.976 227.132 573.949 238.729 571.261 242.114C552.354 265.942 524.039 270.725 507.187 293.057C506.16 294.411 500.772 302.35 501.963 303.486H501.952ZM228.368 219.816V232.592C229.362 232.69 229.275 230.899 229.439 230.157C230.248 226.455 230.171 221.759 231.067 218.363C231.297 217.49 232.543 215.12 233.483 214.716L232.182 229.698L232.838 235.792C233.876 225.625 237.351 215.906 238.138 205.63L241.154 198.751C232.007 197.91 218.904 202.321 215.024 211.265C212.664 216.725 215.013 218.571 219.745 221.082L225.166 210.883C224.226 215.327 222.707 219.641 223.264 224.293L224.532 223.026V226.848L228.379 219.826L228.368 219.816ZM286.54 238.98C283.633 241.416 297.906 242.846 298.999 242.846C309.807 242.835 331.293 233.957 324.998 220.023C316.943 202.19 290.693 195.9 273.076 199.668C255.46 203.435 257.208 217.883 269.262 227.809C277.404 234.514 285.819 235.868 296.114 233.859C296.114 232.963 294.267 232.559 293.535 232.297C291.338 231.5 288.671 231.172 286.54 230.343C278.442 227.176 267.164 221.082 268.093 210.97C279 203.643 288.562 201.273 301.021 206.919C308.026 210.097 324.386 221.77 316.266 230.059C312.856 233.542 299.982 236.96 294.846 238.041C292.136 238.62 289.305 239.057 286.519 238.98H286.54ZM507.067 233.236C506.323 234.307 510.684 234.481 511.176 234.503C517.558 234.831 520.039 234.634 525.547 231.577C533.448 227.198 543.338 219.16 540.639 208.939C536.858 194.645 506.411 198.729 496.062 202.114C483.975 206.067 464.566 222.633 479.275 234.492C487.712 241.285 498.051 242.999 508.586 241.459C509.7 241.295 515.361 240.291 515.361 239.297C509.001 235.748 500.859 236.818 493.778 234.689C486.062 232.363 478.489 227.678 484.412 219.226C489.92 211.352 504.291 203.96 513.875 203.894C518.279 203.861 533.153 207.552 533.317 213.089C533.59 222.054 514.083 230.419 507.067 233.247V233.236ZM303.796 230.67C307.359 230.408 307.982 224.129 307.6 221.454C306.048 210.861 289.207 206.253 280.541 210.304C277.12 211.909 275.634 215.174 277.874 218.571C279.732 221.388 294.846 228.781 296.769 226.837C297.349 218.887 286.573 218.418 280.77 217.599C279.59 215.491 282.683 213.908 284.453 213.58C294.606 211.735 306.387 219.226 303.796 230.67ZM520.487 217.894C516.225 217.129 503.373 219.401 503.843 225.232C504.094 228.421 509.831 226.138 511.711 225.407C513.591 224.675 522.257 219.641 523.099 218.265C525.394 214.465 521.951 209.878 518.115 209.103C508.684 207.181 492.958 211.636 492.969 223.332C492.969 224.533 493.581 227.602 494.138 228.595C494.696 229.589 497.1 231.282 497.821 230.037C497.526 226.422 496.783 223.659 499.132 220.493C502.761 215.589 518.432 208.524 520.509 217.894H520.487ZM567.785 230.67L566.966 226.062L564.605 220.449L564.878 224.315L567.785 230.659V230.67ZM295.567 303.398C301.742 303.748 293.469 292.664 291.633 290.414C277 272.462 251.613 267.034 234.739 249.54C227.297 241.82 222.488 230.954 215.265 223.649C214.216 222.589 213.505 221.421 211.746 221.737C211.407 225.276 212.063 228.442 212.817 231.839C214.445 239.21 219.385 255.426 223.909 260.995C234.051 273.466 247.099 274.569 261.121 280.018C274.224 285.107 287.327 291.714 295.556 303.398H295.567ZM340.232 288.798C340.789 289.311 345.478 285.588 346.286 284.954C360.133 274.001 377.17 256.212 366.548 237.277C364.482 233.597 358.166 227.449 353.969 226.837C352.669 226.652 353.128 226.935 353.018 227.787C352.778 229.556 353.226 231.62 352.964 233.498C352.636 235.901 350.45 240.979 349.073 243.032C348.549 243.818 344.593 247.302 345.347 247.924C348.669 248.623 350.516 245.598 353.008 244.091C353.794 244.954 344.56 255.874 345.98 257.501L354.614 250.479C355.095 250.381 355.04 251.134 354.92 251.418C354.275 252.969 344.024 265.822 344.702 266.434C345.893 266.707 346.221 265.767 346.942 265.167C350.101 262.502 353.128 259.117 356.199 256.54C356.701 256.114 357.477 254.869 358.122 255.907C355.991 257.523 355.018 260.045 353.335 261.989C352.297 263.19 346.516 268.061 347.259 269.011L350.133 267.1C351.554 269.557 341.544 277.201 342.789 278.599C348.669 274.733 353.04 269.011 357.805 263.911L358.111 264.861L340.221 288.82L340.232 288.798ZM448.894 227.481C440.752 227.46 433.758 234.438 431.922 242.136C427.026 262.688 445.43 277.157 459.757 288.154C460.522 287.291 452.577 278.872 451.561 277.507C449.79 275.126 445.211 268.596 444.435 266.106C444.337 265.778 444.26 265.069 444.741 265.167C448.796 270.703 452.981 276.185 458.478 280.488L448.905 267.384L449.211 266.445C450.621 267.307 452.085 270.616 454.009 269.961C450.107 266.259 446.118 261.913 444.435 256.868L455.932 269C456.14 267.919 455.637 267.143 455.189 266.226C452.719 261.203 448.468 255.797 445.714 250.785L446.02 249.846L454.009 258.145L447.004 243.742C446.851 241.219 449.67 246.308 449.921 246.581C450.566 247.291 450.861 248.186 452.096 247.913C451.757 240.815 446.566 234.896 448.905 227.481H448.894ZM201.517 269.961C201.101 266.477 201.823 262.349 201.517 258.779L203.877 268.235L205.986 272.189L203.44 255.59L207.91 260.701L205.364 247.935L209.199 254.312C211.287 253.57 208.303 248.754 208.544 248.579L210.511 248.23L208.544 234.514C191.397 237.037 193.298 260.919 198.642 272.844C200.151 276.207 203.101 279.429 204.402 283.054C205.823 284.452 205.298 283.382 205.112 282.344C204.391 278.282 201.954 273.717 201.517 269.972V269.961ZM597.391 279.407C597.718 278.959 598.735 278.806 599.095 278.271C607.259 266.259 611.029 238.784 592.473 234.459C591.14 234.678 590.44 244.637 590.812 246.199C590.932 246.723 592.09 246.406 592.145 247.564C592.243 249.42 591.161 251.003 590.834 252.751L592.09 252.707L590.812 262.59L592.56 257.643C593.26 255.142 591.73 251.866 593.686 249.824C596.527 256.278 595.893 262.906 594.648 269.622L597.292 264.293L598.483 253.668C599.401 253.515 599.347 254.782 599.565 255.448C602.483 264.61 596.593 274.143 595.292 283.043C596.986 282.672 596.647 280.411 597.402 279.407H597.391ZM344.702 248.568C343.795 247.738 336.527 253.067 334.921 253.799C328.757 256.584 319.774 257.435 313.075 256.857C294.704 255.295 279.546 237.899 260.323 238.98C260.279 239.854 260.235 240.706 260.64 241.536C261.285 242.846 275.448 248.688 278.235 250.141C287.087 254.771 294.671 260.777 304.791 263.201C319.665 266.772 337.675 263.485 344.691 248.557L344.702 248.568ZM539.022 238.98C520.618 238.413 506.684 253.799 489.406 256.78C482.248 258.014 474.642 256.496 467.735 254.312C464.839 253.395 461.058 251.036 458.763 250.501C456.468 249.966 459.309 254.05 459.757 254.618C463.407 259.27 474.729 263.693 480.532 264.512C503.187 267.7 517.722 249.802 537.699 243.086L539.022 238.969V238.98ZM318.331 250.949C319.075 250.239 322.047 241.372 321.686 240.891C318.976 242.442 316.124 244.419 313.184 245.478C309.949 246.657 306.124 246.264 303.796 248.874C305.949 250.305 308.244 250.25 310.179 248.557L309.873 251.113L314.659 249.191L314.026 251.735C315.282 251.746 317.381 251.844 318.342 250.938L318.331 250.949ZM498.116 247.935C491.526 246.297 484.816 245.194 478.948 241.536C479.472 244.233 481.975 251.386 484.685 252.161L492.368 251.113L491.1 248.568C493.461 250.359 494.597 251.145 497.307 249.365C497.919 248.961 498.455 249.431 498.127 247.946L498.116 247.935ZM232.204 436.34C230.532 429.034 223.253 424.481 218.456 419.108C177.474 373.167 152.885 320.051 168.972 257.239C169.955 253.395 171.802 249.223 172.611 245.543C172.753 244.899 173.256 243.305 172.13 243.469C170.032 249.704 167.496 255.273 165.78 261.716C153.606 307.33 167.256 356.066 193.965 393.773C204.795 409.072 217.56 421.292 230.029 435.019C230.674 435.728 230.98 436.624 232.204 436.351V436.34ZM564.605 440.817C593.533 413.724 618.8 383.29 631.531 345.146C640.689 317.704 642.241 286.254 633.64 258.451C632.187 253.755 629.958 249.409 628.504 244.735C627.313 244.593 628.001 246.035 628.154 246.679C628.788 249.311 630.165 252.095 630.886 254.815C648.153 320.03 623.783 371.9 581.533 419.752C575.621 426.457 567.698 431.983 564.594 440.817H564.605ZM537.109 250.479C535.557 248.918 533.273 256.944 533.098 257.643C532.41 260.307 531.798 263.016 532.005 265.811C536.377 262.808 535.229 255.153 537.109 250.49V250.479ZM268.64 265.8C267.306 261.061 268.836 253.974 264.17 251.113C264.88 254.498 264.891 258.757 265.722 262.011C266.071 263.365 266.793 265.997 268.629 265.8H268.64ZM528.978 252.587C527.481 254.203 525.459 263.758 525.547 266.128C525.59 267.296 525.448 268.235 526.563 268.989C528.268 268.945 530.486 254.094 530.716 251.757C530.661 251.681 529.186 252.368 528.989 252.587H528.978ZM272.464 253.668C271.546 252.751 271.306 253.723 271.197 254.618C270.913 256.9 271.601 267.537 272.814 268.978C273.546 269.852 273.984 269.71 275.022 269.633C274.847 264.228 274.147 258.8 272.464 253.668ZM519.208 274.11C520.093 273.728 521.35 272.636 521.623 271.741C522.519 268.88 523.383 259.98 523.689 256.551C523.722 256.158 523.864 255.503 523.361 255.59C522.64 256.332 521.733 256.999 521.219 257.916C520.574 259.073 519.208 263.747 519.208 264.85V274.11ZM214.303 256.223C213.265 255 212.052 258.768 211.921 259.27C207.855 274.067 211.888 295.82 220.434 308.553C229.035 321.373 243.001 332.49 258.41 335.427C259.613 334.313 253.995 331.081 253.34 330.568C252.094 329.607 253.591 328.678 250.192 329.618C249.613 327.455 247.471 326.516 246.269 324.889C239.952 316.371 238.586 306.39 237.329 296.136L237.952 290.72C240.892 301.586 242.837 314.624 248.706 324.376C249.165 325.14 250.291 327.084 251.394 326.8C245.067 313.729 245.93 298.812 242.87 284.856C242.16 281.613 242.138 278.446 237.963 277.943C237.92 279.723 238.083 281.514 237.887 283.294C237.81 283.96 237.635 286.297 236.696 286.243C235.515 281.995 236.269 275.465 230.302 275.388C229.614 290.119 235.275 303.704 240.859 316.885C241.329 317.988 240.99 319.407 241.504 320.707C241.69 321.165 245.996 326.593 246.575 327.139C247.558 328.067 249.23 327.914 249.471 329.028C240.652 327.488 235.319 320.073 229.658 314.024C217.188 300.723 213.8 292.86 213.658 273.816C213.615 267.919 215.254 262.022 214.325 256.212L214.303 256.223ZM281.426 274.11V263.573C281.426 262.262 279.339 256.726 277.601 256.223C278.235 260.613 277.743 267.689 279.011 271.741C279.295 272.636 280.552 273.728 281.426 274.11ZM542.224 336.705C560.846 331.015 579.971 315.356 586.003 296.464C589.763 284.681 591.456 270.529 586.954 258.779C585.795 259.019 585.763 260.034 585.664 260.984C584.714 269.469 587.041 278.631 585.621 287.127C584.2 295.623 579.85 306.172 574.495 312.418C574.015 312.517 574.08 311.807 574.189 311.479C579.064 296.082 587.817 279.833 583.752 262.917C583.522 261.956 584.2 261.793 582.495 261.967C579.413 267.405 580.604 274.209 579.916 280.16C578.779 289.977 575.949 303.278 571.73 312.222C568.791 318.446 561.348 324.332 555.578 328.023C554.759 328.547 549.578 331.9 549.24 331.583C557.534 317.933 560.135 302.918 563.316 287.52C564.452 287.411 563.993 289.683 563.938 290.381C563.042 301.88 561.611 315.913 554.999 325.533C554.835 327.357 555.764 326.058 556.256 325.501C560.889 320.215 563.097 311.61 565.042 304.894C566.802 298.834 569.37 289.912 570.157 283.818C570.594 280.499 569.752 277.157 570.976 274.1C565.042 274.525 565.84 280.007 564.616 283.993C564.201 285.336 563.949 284.823 562.977 285.588L562.66 277.922C559.906 277.834 558.857 279.068 558.343 281.591C555.196 297.076 556.365 313.401 548.945 327.772L542.213 336.683L542.224 336.705ZM287.819 276.982C288.278 273.87 287.819 268.869 287.819 265.484C287.819 264.501 285.262 258.637 283.983 260.056C285.021 263.518 283.469 277.255 286.223 278.577C287.098 278.992 287.753 277.397 287.819 276.982ZM516.651 260.056C515.394 259.805 515.132 260.646 514.607 261.52C513.307 263.736 511.919 277.168 513.46 278.566C514.498 278.773 514.793 278.293 515.296 277.528C517.033 274.897 515.503 263.977 516.651 260.045V260.056ZM218.128 262.612C217.101 262.426 216.751 262.83 216.369 263.714C212.62 272.418 220.685 301.727 226.565 309.448C227.221 310.311 227.953 311.403 229.002 311.796C226.838 306.554 224.182 300.723 222.926 295.197C220.816 285.893 222.008 276.36 219.647 267.176C219.243 265.593 218.543 264.173 218.128 262.612ZM509.624 263.889C507.493 263.802 507.023 266.051 506.717 267.689C505.777 272.582 506.509 278.762 507.077 283.687C507.591 284.244 509.635 282.355 509.635 282.093V263.889H509.624ZM293.567 283.698C293.666 279.833 295.513 267.908 293.229 265.189C292.496 264.315 292.059 264.457 291.021 264.533C292.103 268.618 288.726 280.717 291.633 283.262C292.343 283.884 292.693 283.731 293.578 283.698H293.567ZM315.938 300.93C320.725 301.99 323.315 298.823 326.145 295.481C333.446 286.876 335.937 275.65 335.751 264.523C330.243 270.769 319.599 268.05 315.02 274.143C312.19 277.922 305.567 292.817 304.474 297.458C303.873 299.969 306.922 296.912 307.523 296.027C311.392 290.425 316.474 278.162 321.031 273.87C321.413 273.51 322.932 273.619 323.599 272.822L308.277 299.98C307.611 301.99 310.539 299.62 310.824 299.325C315.501 294.433 318.736 286.843 324.244 282.399L315.938 300.919V300.93ZM495.559 299.653C491.942 290.043 490.871 276.12 480.467 270.987C478.172 269.852 475.418 269.83 473.385 269.131C472.205 268.727 465.363 265.265 464.883 265.811C464.238 275.792 467.757 287.433 474.139 295.197C476.379 297.916 480.237 302.241 484.051 301.575C484.565 301.192 476.696 292.38 477.975 290.731L482.456 295.197C482.849 290.873 479.57 286.658 477.265 283.141C476.904 282.595 475.691 281.722 476.696 281.154C478.882 283.458 481.789 286.559 483.122 289.42C485.089 293.658 484.947 298.724 489.8 301.586C490.488 298.342 487.439 295.612 486.466 293.09C485.581 290.796 485.133 286.865 483.723 284.354L476.696 271.577C484.062 277.987 486.302 287.608 491.319 295.285C491.745 295.94 494.706 300.515 495.559 299.664V299.653ZM299.862 267.82L297.403 267.078L296.048 285.293L297.403 289.42C299.578 289.584 299.294 286.887 300.026 285.347C302.529 280.117 306.66 275.115 306.343 268.978C301.13 268.41 302.266 275.88 299.316 278.555L299.851 267.799L299.862 267.82ZM502.597 289.442L504.553 285.915L502.586 267.722C498.794 268.814 499.209 273.685 499.373 277.015C499.581 281.449 501.089 285.369 502.608 289.442H502.597ZM579.293 267.722C573.905 269.688 572.714 277.878 571.807 282.912C569.938 293.363 569.774 303.682 565.239 313.707C570.255 308.356 572.922 299.565 574.987 292.478C576.004 289.006 580.921 269.622 579.293 267.722ZM236.029 313.707C232.39 305.582 230.149 296.682 229.013 287.826C228.729 285.598 229.22 283.087 228.991 280.815C228.565 276.611 226.051 271.511 222.609 268.989C221.713 277.911 224.084 288.361 226.893 296.955C228.74 302.579 231.625 309.776 236.018 313.696L236.029 313.707ZM498.75 280.499C499.165 278.686 496.236 269.666 494.597 269.655C491.548 269.633 497.056 279.931 498.75 280.499ZM313.381 270.277C312.452 270.376 311.097 269.972 310.321 270.419C309.949 270.627 305.818 276.426 305.359 277.266C304.004 279.745 299.141 293.625 301.25 295.186C302.42 295.427 302.507 294.881 303.01 294.083C305.458 290.163 310.255 280.051 312.015 275.617C312.703 273.881 313.61 272.254 313.392 270.288L313.381 270.277ZM493.395 275.628C492.302 274.242 487.209 268.476 485.341 270.277L485.472 271.741L499.395 295.82C499.526 288.503 497.985 281.405 493.395 275.617V275.628ZM342.472 299.664H355.576C353.401 302.918 347.849 303.3 344.188 303.933C321.938 307.799 284.333 303.114 269.295 322.356C265.612 327.062 261.776 337.469 266.082 342.46C266.76 333.844 269.361 327.575 276.486 322.509C292.3 311.272 308.135 318.566 325.216 319.451C333.522 319.888 361.597 317.038 368.57 313.598C378.864 308.52 381.159 298.965 375.28 289.235C372.165 284.081 363.685 278.337 357.925 281.886L337.697 298.069L342.483 299.653L342.472 299.664ZM445.703 299.664H462.959C462.741 298.943 462.369 298.266 461.834 297.731C458.555 294.422 451.397 290.108 447.31 286.865C442.468 283.021 441.845 279.003 434.84 281.471C424.513 285.096 419.879 299.238 426.524 308.28C432.436 316.339 438.151 314.952 446.577 316.339C453.55 317.485 461.473 319.626 468.402 320.084C487.035 321.307 511.252 310.606 526.891 324.878C533.12 330.568 534.071 336.868 534.563 345.004C536.967 342.809 536.737 337.436 536.497 334.444C533.951 303.366 479.035 307.821 457.692 304.61L445.703 299.664ZM245.624 281.132V297.425C245.624 301.214 252.345 321.1 254.476 324.987C254.695 325.381 255.853 328.242 256.509 327.433C255.044 321.078 252.717 314.242 252.629 307.657C252.575 303.77 255.984 286.134 253.952 284.637C253.154 284.048 252.913 284.299 252.323 284.943L250.75 294.542C250.072 293.505 248.52 277.954 245.624 281.132ZM555.644 281.132L552.759 281.765L550.212 293.909C549.087 291.135 549.852 284.965 546.07 284.332C545.054 285.107 547.863 301.05 547.983 303.813C548.354 312.44 546.191 320.75 544.158 329.028C545.131 328.678 545.896 326.778 546.398 325.85C553.174 313.412 556.168 295.175 555.655 281.132H555.644ZM260.913 286.942L259.372 286.254C253.493 298.157 252.345 312.145 260.651 323.295L258.476 307.067L260.913 286.942ZM541.59 321.373C542.89 320.303 544.147 317.332 544.606 315.771C545.382 313.074 546.639 306.762 546.518 303.999C546.387 301.04 543.622 291.048 542.092 288.623C541.327 287.411 541.163 287.357 539.677 287.531C539.907 292.926 542.125 298.386 542.256 303.791C542.398 309.415 540.879 315.574 541.601 321.384L541.59 321.373ZM267.995 290.087C265.066 287.477 261.58 300.581 261.263 302.197C260.312 306.991 259.219 313.15 261.929 317.551L267.995 290.098V290.087ZM533.284 290.076C533.765 296.486 536.136 302.547 537.033 309C537.426 311.807 536.082 315.05 538.716 316.885C542.562 316.95 538.41 291.605 533.284 290.076ZM273.743 293.275C272.53 291.845 269.055 299.5 268.782 300.133C266.727 305.014 265.23 310.988 264.804 316.273C266.913 314.111 268.596 310.343 269.754 307.504C270.552 305.56 274.574 294.28 273.743 293.286V293.275ZM535.83 316.906C534.399 310.289 533.382 301.935 529.066 296.529C528.049 295.263 525.416 292.358 526.071 295.678C526.366 297.152 532.989 314.755 533.623 315.607C534.18 316.36 534.738 317.125 535.83 316.906ZM270.563 313.074C272.213 313.27 272.77 311.621 273.459 310.54C274.934 308.225 277.59 302.852 278.53 300.275C278.956 299.107 280.027 298.036 278.552 297.119C276.257 298.451 269.612 312.047 270.563 313.074ZM528.792 311.796C527.7 307.646 525.678 302.83 522.662 299.729C521.995 299.052 521.744 298.113 520.487 298.397C519.995 298.899 525.918 310.18 526.683 311.021C527.448 311.861 527.219 312.036 528.792 311.796ZM581.85 327.117C590.145 326.898 598.101 322.006 603.565 315.924C605.565 313.707 608.45 310.322 608.691 307.319C602.057 315.258 592.691 319.44 582.495 320.739L587.916 321.362L596.549 319.768L590.407 323.841L581.861 327.106L581.85 327.117ZM219.418 320.739C208.642 319.407 199.32 316.164 191.943 307.963C192.359 310.758 195.659 314.591 197.659 316.612C203.014 322.006 210.85 326.844 218.543 327.685C219.243 327.761 221.439 328.318 221.33 327.139C215.002 325.73 208.107 324.354 203.44 319.473C208.117 320.532 212.325 321.58 217.188 321.384C217.964 321.351 219.56 321.875 219.418 320.75V320.739ZM285.907 344.36C308.091 351.96 329.566 349.58 347.565 334.128C351.62 330.644 356.69 326.309 357.488 320.729C353.379 323.065 348.396 321.504 344.494 323.393C340.145 325.501 334.604 332.904 329.937 336.312C325.271 339.719 316.561 345.353 311.162 345.659C310.463 345.703 308.747 346.074 308.911 345.004C316.506 342.94 322.768 337.731 329.566 334.029L339.893 323.917C331.926 325.053 326.746 332.031 320.342 336.322C314.747 340.068 307.37 343.967 300.911 345.648C299.633 344.665 300.704 344.622 301.403 344.207C305.676 341.662 329.544 329.77 329.325 325.512C329.282 324.583 326.921 324.245 326.102 324.835C314.845 332.085 304.747 342.875 290.988 344.993C300.54 337.677 313.873 333.887 321.031 323.928C316.747 323.884 311.873 327.586 308.31 330.043C302.736 333.876 296.616 340.308 290.475 342.885C289.054 343.486 286.617 343.18 285.885 344.349L285.907 344.36ZM292.923 321.384C291.502 320.062 279.557 331.55 278.246 333.21C277.481 334.171 276.322 335.438 276.311 336.705C277.12 337.513 282.453 331.408 283.327 330.633C284.202 329.858 294.147 322.53 292.923 321.384ZM457.648 324.136C456.052 322.956 446.151 321.143 444.118 321.362C443.364 321.438 442.807 321.176 443.157 322.334C444.665 327.27 456.205 336.956 460.708 339.926C476.882 350.584 496.072 350.89 514.105 345.015L503.034 339.151C499.242 336.552 489.024 325.85 486.27 325.249C485.472 325.075 484.226 324.998 484.707 326.167L488.532 330.961C485.57 328.657 483.144 325.042 478.948 325.217C480.456 330.841 486.729 332.053 491.013 334.553C496.903 337.993 502.498 342.23 508.99 344.382C509.154 345.463 507.46 345.07 506.771 345.004C495.253 343.967 480.991 330.851 471.614 324.561C469.921 324.245 470.707 326.079 471.134 326.964C474.281 333.396 494.138 343.53 501.318 345.659C501.471 346.849 500.04 346.129 499.373 346.009C491.657 344.589 482.718 339.719 476.445 335.056C471.462 331.354 466.391 324.125 459.768 324.889C469.615 334.324 480.893 343.628 494.914 345.659C494.914 346.817 492.16 346.336 491.417 346.282C481.188 345.474 468.631 336.039 461.342 329.072C460.238 328.012 458.642 324.867 457.648 324.136ZM278.235 340.538C279.688 341.946 300.092 324.78 302.507 322.978C300.627 320.674 298.343 322.934 296.573 324.059C292.955 326.341 283.382 334.521 280.147 337.666C279.328 338.463 278.071 339.238 278.246 340.549L278.235 340.538ZM311.457 322.661C309.436 320.608 294.343 333.713 292.234 335.7L282.06 342.449C283.295 342.765 283.83 343.213 285.196 342.776C287.688 341.979 295.83 336.148 298.496 334.291C301.523 332.184 308.277 327.641 310.507 325.217C311.304 324.343 311.687 323.961 311.446 322.65L311.457 322.661ZM522.399 341.171L516.017 334.455C512.443 332.02 509.449 328.493 506.083 325.861C504.64 324.736 501.46 321.46 500.04 323.611C506.771 330.24 514.072 336.595 522.388 341.171H522.399ZM524.323 336.06C523.372 334.029 510.356 321.427 508.979 322.661C511.635 326.298 515.099 329.672 518.629 332.49C519.405 333.112 523.754 336.563 524.312 336.06H524.323ZM491.089 323.939C489.942 324.802 501.1 333.723 502.007 334.411C503.821 335.798 514.061 343.104 515.328 343.464C516.159 343.704 517.296 343.464 517.274 342.776C517.252 341.979 509.351 337.098 508.028 336.06C504.455 333.221 501.111 329.443 497.417 326.866C496.302 326.09 492.313 323.011 491.078 323.939H491.089ZM235.395 340.549C231.625 341.226 225.538 343.836 222.838 346.522C219.702 349.645 218.795 355.105 216.86 359.069L223.166 354.199L251.372 341.815C251.493 340.625 249.296 341.204 248.651 341.335C244.138 342.263 235.788 345.277 231.395 347.079C227.417 348.717 223.592 350.868 220.062 353.314L225.505 346.303L235.395 340.549ZM583.774 359.058C581.435 349.973 576.561 343.366 567.195 340.822C566.572 340.658 564.496 339.937 564.605 341.171C570.157 342.569 575.545 346.282 578.659 351.086C577.949 352.124 576.845 350.409 575.916 350.005C567.982 346.522 559.545 344.065 551.185 341.837C557.982 347.013 567.272 348.378 574.769 352.441L583.785 359.069L583.774 359.058ZM514.105 353.958C512.378 362.706 508.072 372.763 511.864 381.412C513.187 379.981 514.749 378.747 516.006 377.262C521.678 370.502 533.907 355.695 534.552 347.243C534.606 346.555 534.934 345.495 533.929 345.659C531.426 353.587 527.099 360.358 520.509 365.457C520.694 363.819 522.115 362.574 522.793 361.046C523.263 360.008 523.35 358.971 522.126 360.38L513.788 375.679C513.667 369.836 514.411 363.929 514.771 358.141C514.826 357.289 515.241 354.155 514.115 353.969L514.105 353.958ZM286.54 374.39C279.481 366.429 271.24 358.359 267.995 347.898C267.142 346.839 267.306 348.662 267.339 349.186C267.885 360.631 282.06 372.774 288.781 381.423C290.387 373.899 290.027 365.643 287.633 358.294C287.415 357.617 287.48 356.372 286.54 356.514V374.401V374.39ZM325.533 421.019V403.459C325.533 399.747 328.604 388.805 330.757 385.681C331.599 384.458 333.435 382.449 332.965 385.321C331.631 393.315 329.664 400.031 331.435 408.428C331.62 409.313 332.232 410.568 333.205 410.809C333.675 400.041 334.943 389.678 340.254 380.156C341.401 380.003 340.833 381.543 340.724 382.22C339.981 386.839 337.926 391.72 337.664 396.405C337.598 397.595 337.205 402.357 339.27 401.854C340.647 401.527 341.369 394.56 341.839 392.911C343.183 388.182 347.412 377.131 351.095 374.062C351.904 373.385 352.702 373.582 352.374 374.707C351.543 377.601 348.702 382.067 347.598 385.267C346.975 387.068 346.21 389.733 346.308 391.633C348.931 389.613 364.952 366.997 367.728 369.29C363.313 373.604 360.843 379.195 357.379 384.175C343.412 404.246 325.632 422.744 324.309 448.909C324.134 452.393 326.921 454.675 327.468 450.733C328.298 444.792 328.713 438.972 330.331 433.162C333.096 423.269 338.735 413.932 344.724 405.698L345.674 406.965L375.4 390.039C374.897 389.078 373.859 390.224 373.269 390.465C364.384 394.221 354.527 399.102 346.942 405.043L346.002 404.104C350.254 398.556 354.516 392.987 358.668 387.374C361.215 383.923 363.105 379.97 365.838 376.651C372.613 368.417 383.17 363.23 387.553 353.008L358.352 364.071C355.292 364.726 349.948 369.301 347.587 369.924C345.718 370.415 347.576 367.565 345.685 368.024C335.948 374.881 325.992 379.73 318.178 389.089C306.933 402.564 302.507 426.697 315.173 440.653C315.796 441.341 315.862 442.444 317.228 442.106C312.834 434.058 310.987 424.404 311.796 415.286C314.506 421.827 315.086 430.028 320.419 435.084C318.561 428.03 314.463 416.869 316.495 409.76C316.747 408.898 316.747 407.817 317.861 407.62C318.167 412.927 319.26 418.802 321.227 423.749C321.501 424.426 321.413 425.649 322.331 425.507C320.943 415.155 317.927 404.562 321.064 394.221L324.233 419.49L325.522 421.041L325.533 421.019ZM452.73 370.557C452.107 371.267 446.217 366.134 445.266 365.567C438.676 361.592 423.365 356.252 415.693 354.242C415.038 354.068 412.448 353.347 413.103 354.909C413.475 355.793 418.688 361.679 419.803 362.913C430.196 374.423 440.982 384.917 450.435 397.453C453.856 401.985 458.282 408.581 461.298 413.419C468.664 425.223 472.248 439.277 474.128 452.96C476.347 450.962 475.833 447.795 475.549 445.153C472.838 420.091 457.091 402.979 442.501 384.284C437.692 378.125 433.343 371.54 428.425 365.468L435.157 370.557L453.036 389.089C453.878 388.674 453.08 387.352 452.839 386.73C451.135 382.362 449.003 377.928 446.326 374.073L447.583 373.134C451.145 378.474 455.211 382.842 457.67 388.925C459.407 393.216 459.713 398.207 462.62 401.865C464.063 394.45 460.708 387.309 459.746 380.156C466.358 388.586 466.893 399.747 467.418 410.175C468.937 410.274 468.544 410.383 468.686 409.225C469.735 400.882 470.128 391.709 467.418 383.661C468.981 382.613 470.401 386.566 470.915 387.833C474.412 396.634 473.997 406.779 475.09 415.919L478.193 401.472C478.554 399.43 478.019 397.148 478.27 395.16C478.379 394.276 478.609 393.315 479.538 394.221C482.128 404.803 478.969 415.155 476.991 425.518C478.663 425.824 478.117 425.191 478.565 424.251C480.641 419.829 481.297 413.855 483.221 409.051C483.614 408.079 482.849 407.325 484.663 407.653C485.177 416.826 483.537 425.769 480.838 434.473L483.024 432.518L489.767 415.952C490.728 425.158 486.86 433.479 484.663 442.139C499.089 427.844 493.45 402.16 481.472 388.149C479.822 386.217 471.166 377.284 469.538 376.421C467.79 375.493 466.861 376.323 465.287 375.646C463.101 374.707 453.32 365.676 452.052 366.779L452.686 370.601L452.73 370.557ZM393.301 539.175C397.038 537.854 397.334 536.423 394.58 533.737C367.149 507.048 330.32 490.93 304.113 462.537C278.421 434.691 264.858 402.761 260.979 365.119C260.738 362.804 261.951 359.091 259.7 357.781C258.979 368.919 259.558 380.036 261.809 391.109C268.487 423.957 291.316 457.885 316.277 479.758C339.358 499.972 367.433 514.266 390.099 535.014C391.345 536.161 393.006 537.482 393.301 539.175ZM282.923 446.976C272.41 434.123 263.033 409.771 258.585 393.686L253.296 371.835C255.536 398.076 264.847 425.169 280.77 446.245L267.995 444.323C270.333 448.833 276.005 448.516 280.125 450.088C286.693 452.6 289.13 458.53 293.884 463.16C294.955 462.483 293.622 461.762 293.24 461.249C291.578 459.108 289.775 456.946 288.322 454.664C285.863 450.809 285.896 450.591 282.923 446.965V446.976ZM511.547 456.149C514.421 452.971 519.35 448.898 521.667 445.502C526.454 438.48 533.131 424.939 536.584 416.979C542.344 403.689 546.059 388.826 547.338 374.401L539.218 403.645C533.087 420.801 525.35 437.694 514.126 452.021C513.219 453.179 511.766 454.708 511.558 456.16L511.547 456.149ZM384.973 375.668C379.859 377.579 373.892 379.839 369.204 382.58C368.482 383.006 362.286 386.828 363.248 387.8C370.198 383.312 378.602 380.953 384.973 375.668ZM438.665 385.9C431.245 384.011 425.136 378.376 417.573 376.956C420.721 379.621 425.453 381.816 429.288 383.443C431.485 384.382 434.469 385.714 436.72 386.238C437.365 386.391 438.807 387.079 438.665 385.889V385.9ZM462.959 422.286C462.708 421.248 461.484 420.888 460.642 420.462C447.539 413.746 431.922 410.383 420.196 400.205L414.393 394.833C414.48 398.567 419.005 401.581 421.846 403.667C433.835 412.469 448.894 417.885 462.97 422.297L462.959 422.286ZM454.009 406.954C449.091 401.33 441.692 398.753 435.474 394.822L436.927 396.886L454.009 406.954ZM386.886 395.466L371.979 406.43C367.138 408.887 362.253 411.267 357.281 413.462C349.904 416.706 341.456 418.42 335.118 423.563C351.226 416.323 373.892 411.748 385.618 397.705C386.219 396.984 387.17 396.667 386.897 395.466H386.886ZM385.618 404.42L368.362 415.264C370.963 416.378 387.17 405.906 385.618 404.42ZM429.715 413.364C424.589 411.715 420.884 406.604 415.661 405.054C413.683 406.954 426.644 413.288 427.78 413.703C428.381 413.921 429.857 414.543 429.715 413.364ZM453.047 437.618C455.976 437.934 459.331 437.388 462.314 437.618L446.84 434.877C436.294 432.245 425.474 427.069 420.13 417.175L438.042 426.425C440.709 427.112 443.528 428.587 446.173 429.165C446.818 429.307 448.413 429.81 448.249 428.685C436.971 425.18 426.174 419.556 417.573 411.431C419.486 417.885 421.595 425.278 425.125 431.022C429.955 438.873 435.19 440.708 443.769 443.045C448.359 444.301 454.052 445.666 458.763 445.95C459.462 445.993 461.779 446.397 461.659 445.294C454.009 444.585 445.998 442.783 439.059 439.452C433.332 436.711 427.89 432.736 425.234 426.763C432.644 431.841 444.031 436.657 453.036 437.618H453.047ZM382.919 415.144C383.203 414.642 383.334 412.534 382.733 412.086C378.526 416.411 373.192 419.228 368.143 422.417L350.45 429.963C359.095 428.598 368.777 424.339 376.209 419.621C377.16 419.021 382.711 415.493 382.908 415.144H382.919ZM340.232 445.284C347.806 445.513 356.264 443.187 363.411 440.675C369.422 438.557 373.203 436.46 376.537 430.793L381.771 417.83C371.925 430.552 355.663 435.281 340.232 436.995C340.429 438.24 343.412 437.618 344.298 437.541C352.286 436.864 362.614 433.905 369.859 430.509C372.242 429.384 375.345 426.818 376.996 426.141C377.378 425.988 378.077 426.02 377.935 426.446C373.083 434.516 363.772 438.317 355.259 441.472L340.232 445.284ZM335.751 452.316H346.942C349.948 452.316 361.357 447.053 363.903 444.989C364.472 444.519 367.739 441.483 367.072 440.817L348.243 449.783L335.762 452.316H335.751ZM466.795 451.038C457.812 451.388 447.189 448.898 439.507 444.126C437.758 443.034 436.829 441.101 434.84 440.817C440.741 449.248 454.61 453.343 464.511 452.251C465.134 452.185 466.915 451.978 466.806 451.038H466.795ZM505.788 468.292C500.313 470.596 493.81 473.392 489.81 477.858C495.471 475.5 501.46 472.671 505.788 468.292ZM292.923 505.956C290.956 500.943 287.251 497.056 283.338 493.496C269.918 481.276 255.788 477.203 237.635 478.503C218.248 479.889 203.615 490.264 189.67 502.767L191.222 505.126L191.003 506.6C187.78 508.959 184.752 511.318 182.009 514.244C179.266 517.171 164.513 536.434 167.004 539.164C169.573 539.044 170.545 536.412 173.103 536.008C178.6 535.145 193.714 534.599 199.101 535.451C202.216 535.953 205.123 538.192 207.746 539C208.959 539.371 221.549 541.73 220.685 542.986L218.773 544.264L247.788 549.309C258.104 546.448 265.864 546.939 275.218 540.944C280.77 537.395 291.71 525.841 293.436 519.54C293.666 518.711 293.808 517.586 292.606 518.077C291.065 518.711 286.005 526.398 284.3 528.298C278.3 534.949 271.35 541.184 262.563 543.63L262.235 542.353C271.077 537.395 279.054 530.592 284.071 521.692C284.879 520.25 286.475 517.815 286.202 516.155C277.022 531.771 260.793 544.373 242.411 546.164C246.695 541.719 253.187 539.644 258.334 536.216C266.039 531.083 273.328 523.461 276.3 514.561L275.022 514.233C268.814 529.762 246.619 544.264 229.909 543.008C228.75 542.921 225.417 542.342 227.876 540.911C231.133 539.022 235.548 538.006 239.001 536.052C244.979 532.666 257.908 521.047 260.694 514.932C261.11 514.015 261.121 513.13 260.006 513.6C259.143 513.96 255.962 518.82 254.891 519.988C243.865 532.066 229.614 541.807 212.38 538.498C215.057 535.124 219.767 534.425 223.275 532.459C231.056 528.102 239.548 521.779 242.422 512.956C232.302 525.59 217.68 537.952 200.238 533.715C206.063 530.013 211.932 527.141 217.057 522.423C217.549 521.976 218.926 521.419 217.811 520.622C210.467 526.213 202.096 531.225 192.796 532.677C188.086 533.409 183.157 533.005 178.49 534.032C180.698 531.585 184.468 529.598 187.43 527.96C212.664 513.949 249.307 507.736 277.885 510.422C283.612 510.957 289.458 513.775 295.469 512.967C297.677 511.012 286.868 508.861 286.016 508.686C257.514 502.865 211.888 510.138 187.015 525.634C182.031 528.735 178.982 532.666 174.032 535.32C173.747 534.119 174.698 533.802 175.299 533.081C183.113 523.767 193.572 516.854 205.342 513.6C204.915 512.464 201.528 512.868 200.522 512.945C198.052 513.119 195.626 513.851 193.2 514.244C194.424 511.907 198.238 511.154 200.73 510.597C207.374 509.101 214.554 509.166 221.319 508.5C221.199 507.463 218.882 507.19 218.03 507.004C211.735 505.617 204.642 505.519 198.315 506.589V504.7C210.412 501.631 222.587 504.536 234.75 505.312L232.838 503.717L207.91 498.301C220.368 496.16 232.936 499.109 244.979 502.123C243.111 499.939 239.493 498.825 236.805 497.842C229.013 495.014 222.74 494.151 214.609 493.19C213.658 493.081 212.653 492.688 213.669 491.913C229.876 490.537 244.695 495.21 259.044 502.123C257.296 499.174 254.181 497.788 251.405 496.029L227.723 486.802C242.826 487.108 257.012 493.136 269.262 501.489C269.547 500.288 268.596 499.972 267.995 499.251C265.131 495.822 257.121 491.607 252.881 489.445C249.099 487.512 244.542 485.623 240.51 484.236C240.346 483.144 242.029 483.559 242.728 483.613C254.17 484.552 263.875 491.519 272.902 497.536C274.749 498.759 277.426 501.085 279.492 500.529L263.514 486.78C263.328 485.764 264.356 486.103 264.968 486.278C268.53 487.315 278.814 494.184 281.994 496.739C283.688 498.104 291.425 507.113 292.912 505.945L292.923 505.956ZM598.156 534.709C595.587 535.102 591.391 534.709 588.571 534.709C584.987 534.709 574.736 529.063 571.687 526.671C566.933 522.937 563.294 517.695 558.857 513.633C564.244 525.437 576.299 533.147 588.254 537.275C589.161 538.225 588.189 538.421 587.304 538.542C573.851 540.223 562.835 536.663 552.802 527.676C548.212 523.559 544.901 518.372 540.322 514.277C546.661 527.818 559.272 535.724 572.277 542.069C561.086 545.367 547.961 539.273 539.382 532.142C533.656 527.392 529.721 520.905 524.661 515.555C524.181 515.456 524.257 516.166 524.355 516.494C525.995 521.856 537.601 533.344 542.3 536.893C552.474 544.58 560.955 547.19 573.872 546.197C575.446 546.076 583.632 544.799 583.796 543.958C583.697 542.746 581.566 541.861 583.162 540.791C584.517 539.874 591.019 539.437 593.391 538.869C596.44 538.148 600.625 536.401 603.347 536.041C607.281 535.517 623.925 535.156 627.597 535.637C628.701 535.779 631.214 538.236 633.007 537.897C634.067 536.762 624.493 522.063 623.051 520.076C620.384 516.406 617.16 512.563 613.849 509.472C610.538 506.382 606.133 506.305 610.647 500.867C604.778 498.978 600.024 493.409 594.877 490.111C575.774 477.891 554.212 474.32 532.88 483.504C522.596 487.927 510.64 495.778 507.744 507.244C512.236 505.497 514.214 501.391 517.623 498.29C522.716 493.66 529.273 487.512 536.497 487.763C531.656 491.399 526.006 494.173 522.181 499.011C521.689 499.622 520.006 501.358 520.836 502.134C530.366 495.909 540.53 488.101 551.709 485.077C552.912 484.749 556.911 483.526 557.589 484.88C549.24 488.877 540.42 492.48 533.492 498.803C532.803 499.437 531.71 499.48 532.038 500.856C535.962 499.142 539.426 496.368 543.316 494.566C548.704 492.065 557.556 488.899 563.337 487.741C566.966 487.02 570.649 487.053 574.222 486.169C574.55 488.036 573.785 487.206 572.736 487.523C561.928 490.821 550.311 493.9 541.622 501.489C547.087 500.561 552.278 497.165 557.633 495.451C566.692 492.557 578.299 490.537 587.642 491.923L571.818 494.937C565.938 497.515 558.387 498.028 553.764 502.767C565.753 499.851 577.654 496.466 590.2 497.034C590.287 497.995 588.637 498.05 587.916 498.257C582.648 499.764 577.042 500.277 571.818 501.97C570.069 502.538 567.447 502.964 566.55 504.689C578.539 503.717 590.637 501.075 602.287 505.399L602.341 507.255C594.615 504.121 585.992 506.72 578.058 507.572C580.113 509.319 583.227 508.282 585.883 508.697C592.374 509.701 614.505 521.047 619.619 525.448C620.187 525.929 623.488 528.932 622.799 529.609C616.843 527.785 611.969 523.963 606.418 521.397C579.457 508.937 539.568 502.374 510.542 509.723C508.924 510.138 506.094 510.826 504.728 511.569C503.985 511.973 503.646 511.558 503.919 512.999C510.771 513.753 517.427 511.187 524.06 510.455C546.344 507.998 577.042 512.202 598.035 520.185C605.751 523.122 612.483 528.058 620.242 530.887C619.63 531.989 618.647 532.732 617.444 532.841C602.352 534.25 590.429 526.693 579.981 516.821C579.282 517.608 585.205 523.09 586.069 523.832C590.495 527.676 595.959 529.893 599.795 534.064C599.117 533.879 598.527 534.665 598.199 534.709H598.156ZM426.534 511.077L427.835 508.872L425.256 499.578L426.534 511.066V511.077ZM374.1 511.077L374.744 502.134L372.843 508.85C372.81 510.204 372.242 511.449 374.1 511.066V511.077ZM516.64 516.188L515.372 516.494C519.722 526.846 527.219 534.534 535.819 541.414C534.322 541.916 531.612 540.605 530.279 539.928C521.252 535.331 515.558 525.667 509.285 518.099C506.903 516.898 510.356 522.685 510.618 523.155C515.022 530.843 521.492 538.454 529.23 542.877C534.781 546.055 534.552 544.93 539.907 545.585C544.508 546.153 550.136 549.32 555.349 549.407C556.54 549.429 557.414 549.571 558.179 548.435C558.299 545.672 548.311 544.755 545.622 543.75C533.634 539.273 521.601 527.982 516.64 516.177V516.188ZM328.08 545.563C320.823 537.69 306.856 539.786 298.671 545.246L306.343 545.563C305.917 543.794 301.84 546.349 302.518 543.652C305.84 544.264 309.326 542.931 312.419 542.953C317.435 542.986 323.02 545.421 328.08 545.552V545.563ZM494.914 541.741C487.745 540.769 478.62 539.797 473.188 545.563L490.444 543.019L488.532 544.286L500.673 544.919C500.826 543.991 499.548 544.034 498.881 543.849C496.816 543.259 494.521 542.942 492.368 543.008L494.914 541.741ZM335.118 546.852C325.118 545.159 312.485 549.079 303.851 554.245C294.048 560.109 282.967 569.729 280.792 581.338L288.464 570.166C297.851 561.31 307.796 555.086 320.277 551.504C323.774 550.499 332.375 550.248 334.167 548.774C334.844 548.217 335.314 547.813 335.118 546.852ZM520.487 581.338C518.465 572.634 510.411 564.422 503.537 558.995C492.892 550.597 479.243 544.744 465.516 546.852L465.538 548.719C468.358 549.767 471.254 549.101 474.128 550.04C477.964 551.296 477.319 550.772 481.024 551.449C488.04 552.738 486.444 557.27 489.275 562.369C491.013 565.514 494.302 568.233 496.521 571.105C497.592 570.439 496.236 569.708 495.876 569.194C492.63 564.564 488.543 559.836 488.532 553.862C489.647 552.334 509.504 567.447 511.219 569.194C514.738 572.787 517.132 577.592 520.487 581.327V581.338ZM511.536 553.229C508.083 550.237 499.723 548.217 495.559 550.368C500.608 552.126 506.4 551.001 511.536 553.229ZM305.709 550.04C300.638 549.964 294.923 549.756 290.344 552.268C289.458 552.749 288.759 552.203 289.098 553.862C293.021 551.569 297.764 551.897 302.103 551.22C302.944 551.089 305.578 550.99 305.709 550.04ZM309.556 576.86C310.813 577.155 311.064 576.194 311.731 575.528C317.348 569.86 321.446 560.95 322.976 553.24C322.069 553.262 321.719 555.053 321.413 555.817C319.413 560.72 318.856 563.942 315.577 568.517C314.659 569.795 308.507 575.714 309.567 576.871L309.556 576.86ZM316.583 573.661C325.26 571.335 330.877 562.468 331.916 553.873L326.156 565.034L316.583 573.661ZM302.518 574.949C308.004 569.675 311.654 562.369 314.015 555.151C311.162 558.209 309.807 562.762 307.742 566.442C306.124 569.304 303.611 571.837 302.529 574.96L302.518 574.949ZM475.735 567.283L470.631 555.795C471.363 559.803 472.707 564.411 475.735 567.283ZM400.306 577.505L405.912 568.878L399.989 563.418C399.038 563.418 394.427 569.74 394.525 570.767C395.192 571.935 399.213 578.269 400.306 577.505ZM400.951 592.836C401.552 585.957 407.475 581.665 410.546 575.921L408.623 575.255C407.617 575.768 404.481 580.65 403.803 581.938C402.557 584.319 403.541 586.83 399.989 586.503C398.689 586.383 394.077 577.581 392.197 576.369C392.132 575.321 390.285 575.397 390.099 575.583C388.678 576.98 395.782 583.664 396.765 585.203C398.273 587.573 398.59 589.648 399.618 591.93C399.956 592.684 399.322 593.077 400.951 592.826V592.836Z" fill="black"/>
<path d="M528.792 557.706C539.317 559.792 550.322 561.572 560.616 564.542C562.507 565.088 566.048 567.207 567.523 567.294C569.49 567.403 570.146 565.307 572.069 564.859C578.681 563.33 584.419 566.65 584.757 573.65C585.205 582.975 571.228 584.439 568.266 577.341C567.468 575.441 568.124 573.77 567.665 572.197C567.206 570.625 563.021 569.413 561.403 568.878C552.835 566.06 542.431 565.481 534.213 562.194C531.743 561.201 529.689 560.513 528.792 557.717V557.706Z" fill="black"/>
<path d="M272.475 558.351C271.962 560.404 270.301 560.982 268.497 561.725C262.388 564.226 254.607 564.673 248.181 566.333C245.307 567.076 236.477 569.587 234.499 571.182C232.204 573.038 234.095 578.815 227.242 581.174C217.046 584.679 211.177 572.165 220.095 566.366C224.062 563.789 227.264 564.477 231.1 566.672C231.734 567.032 231.22 568.299 233.1 567.938C238.772 564.804 245.253 563.472 251.493 561.987C254.214 561.343 271.404 557.575 272.464 558.362L272.475 558.351Z" fill="black"/>
<path d="M552.453 467.637L552.824 465.671C557.786 463.99 562.813 462.275 567.578 460.091C569.272 459.316 580.725 453.506 581.107 452.84C581.61 451.956 580.67 450.525 580.79 449.531C581.413 444.399 586.2 440.086 591.456 441.068C606.505 443.875 595.489 467.462 582.921 455.592C573.676 462.035 563.829 466.545 552.453 467.637Z" fill="black"/>
<path d="M245.624 465.093C245.799 466.37 245.733 466.13 244.837 466.523C238.98 469.068 222.893 460.08 218.379 455.549C213.789 459.676 206.992 460.244 203.604 454.38C198.271 445.131 208.555 436.384 216.237 443.034C219.789 446.103 218.74 447.675 219.418 451.355C219.866 453.79 233.494 460.463 236.444 461.806C239.395 463.149 242.499 464.252 245.624 465.104V465.093Z" fill="black"/>
<path d="M405.246 171.45C408.043 174.792 404.656 181.147 400.743 181.988C396.011 180.842 392.973 174.584 396.711 170.861C399.006 168.578 403.279 169.103 405.246 171.45Z" fill="black"/>
<path d="M623.859 431.044C619.521 434.538 611.39 428.816 617.313 423.552C622.165 419.239 628.504 427.298 623.859 431.044Z" fill="black"/>
<path d="M183.397 423.793C188.512 428.892 179.824 435.062 175.933 430.29C172.436 426.01 178.72 419.13 183.397 423.793Z" fill="black"/>
<path d="M184.086 466.501C194.238 464.208 191.419 478.71 183.135 474.833C179.518 473.141 180.25 467.364 184.086 466.501Z" fill="black"/>
<path d="M615.51 466.556C625.859 465.999 615.576 482.827 610.625 470.498C610.669 468.849 613.936 466.633 615.51 466.556Z" fill="black"/>
<path d="M606.144 512.988L590.812 508.533C595.762 509.013 602.308 509.822 606.144 512.988Z" fill="black"/>
<path d="M347.259 327.772C340.877 335.602 332.145 341.684 322.331 344.371L347.259 327.772Z" fill="black"/>
<path d="M478.303 344.36C470.642 342.318 463.495 338.244 457.714 332.839C457.134 332.304 454.009 329.694 454.654 329.039C458.216 331.78 461.735 334.575 465.571 336.967C469.757 339.577 474.511 341.335 478.303 344.36Z" fill="black"/>
</g>
<defs>
<clipPath id="clip0_8061_331">
<rect width="516" height="507" fill="white" transform="translate(142 147)"/>
</clipPath>
</defs>
</svg>
