<svg width="800" height="800" viewBox="0 0 800 800" fill="none" xmlns="http://www.w3.org/2000/svg">
<g clip-path="url(#clip0_8061_335)">
<path d="M560.38 518.84C560.66 518.86 561.38 519.4 562.17 519.47C564.55 519.68 568.85 518.27 569.14 521.26C571.02 519.07 576.07 517.97 575.76 521.86C571.99 521.37 568.25 522.36 564.63 522.5C551.41 523.01 536.42 521.23 523.55 522.15C522.73 522.21 520.7 523.27 522.05 523.99C522.53 524.25 526.82 524.81 527.8 524.88C536.76 525.55 547.04 524.81 556.18 524.86C581.57 525 607.32 525.28 632.76 526.12C636.74 526.25 641.7 525.61 645.47 526.09C646.35 526.2 647.34 526.55 646.36 527.29L531.12 529.7C544.85 530.83 558.68 530.1 572.48 530.29C592.79 530.56 613.52 530.93 633.98 532.15C636.91 532.33 641 531.64 643.66 532.13C644.69 532.32 645.35 532.77 645.17 533.93L571.85 535.74L570.96 536.94C579.7 537.09 588.48 536.76 597.23 536.92C607.56 537.11 618.23 537.96 628.56 538.18C634.03 538.3 667.07 537.34 669.02 539.35C670.48 540.86 666.02 541.11 665.38 541.16C644.09 542.95 619.71 541.34 597.83 542.4C594.94 542.54 591.5 542.02 588.74 542.37C587.86 542.48 586.87 542.83 587.85 543.57C595.06 543.34 602.08 544.23 609.29 544.2C613.29 544.19 617.28 544.16 621.31 544.2C637.14 544.35 652.96 543.86 668.71 544.78V546.58L593.89 548.4L594.9 550.1L664.49 550.81C667.2 553.24 654.2 552.56 653.34 552.62C637.23 553.86 621.24 554.38 605.03 555.06C598.07 555.35 591.28 556.63 584.24 555.64C584 555.82 583.53 556.8 584.9 556.58C586.47 556.33 586.89 556.75 588.16 556.83C597.51 557.43 608.01 556.81 617.07 558.1C618.01 558.23 620.66 558.83 621.04 559.85L583.03 561.67C584.59 563.88 588.59 562.6 591.14 562.9C592.32 563.04 593.28 563.92 594.78 564.09C599.82 564.68 605.98 563.45 611.04 564.13C611.67 564.21 613.72 564.5 613.2 565.57C612.51 566.64 611.57 566.42 610.52 566.52C601.67 567.33 592.68 566.57 583.41 567.77C581.75 567.99 576.21 568.61 575.18 569.19C574.21 569.74 574.84 570.28 575.57 570.63C587.04 570.61 598.43 571.31 609.91 571.29C615.8 571.28 621.3 570.62 627.39 571.32C628.55 571.45 629.16 570.77 628.89 572.52L591.76 573.1L559.51 575.54L568.26 577.34C573.68 578.42 582.01 577 586.94 577.97C587.91 578.16 588.76 578.81 589.07 579.76L562.83 580.38L557.7 580.98C557.53 581.88 557.9 582.35 558.72 582.67C560.29 583.27 567.33 583.9 569.43 584.02C575.56 584.37 582.62 584.52 588.79 584.63C591.07 584.67 595.6 582.61 595.09 586.41C594.38 586.12 593.81 585.85 593 585.79C587.67 585.4 579.75 585.31 574.38 585.43C570.9 585.51 560.15 585.93 557.39 587.02C556.46 587.39 555.64 587.52 555.88 588.82C560.99 589.78 566.11 590.15 571.3 590.6C572.35 590.69 573.28 590.52 573.98 591.54C568.23 592.14 560.49 591.22 555.88 595.16C559.72 596.62 563.8 597.56 567.94 597.27C566.85 599.34 563.71 598.24 561.67 598.53C559.92 598.78 558.27 599.64 556.48 599.68C554.91 601.24 561.63 601.89 562.24 602.07C563.12 602.33 563.29 601.74 563.12 603.29C550.2 606.48 536.87 606.72 523.61 606.93C475.6 607.67 427.25 606.04 379.42 605.09C368.61 604.87 356.8 605.89 346.18 605.14C344.49 605.02 340.79 604.81 339.87 603.31L370.64 602.09C370.9 600.52 370.4 601.01 369.34 600.71C366.45 599.91 363.64 600.45 360.7 600.28C334.33 598.77 308.72 598.48 282.27 599.1C279.87 599.16 272.61 599.52 270.88 598.97C270.08 598.72 269.71 598.09 269.87 597.27L302.78 597.29C311.48 595.63 320.61 596.76 329.31 596.06C330.01 596 332.02 595.87 332.02 594.86C329.88 594.65 327.81 593.92 325.68 593.65C312.39 592 298.53 592.41 285.28 592.46C272.03 592.51 258.51 592.37 245.13 592.43L246.69 589.52L264.67 590.57C278.66 588.53 292.91 589.88 306.96 588.81C307.77 588.75 310.61 588.52 310.89 587.62L291.91 585.78C272.32 586.45 252.84 584.64 233.33 585.83C231.71 584.94 223.42 585.76 223.41 584.3C223.83 583.72 224.2 583.51 224.9 583.39C228.97 582.69 239.34 582.88 244.19 582.77C256.82 582.47 270.31 583.7 282.76 582.12C283.41 582.04 285.58 581.88 285.54 580.99C284.63 580.8 283.78 580.45 282.83 580.38C270.33 579.39 257.84 579.68 245.44 579.8C239.48 579.86 233.54 579.44 227.61 579.77V577.36L264.42 575.54L263.67 574.18L199.03 573.05L198.06 572.23C200.83 568.84 205.43 570.88 208.61 570.77C210.05 570.72 211.37 570.14 212.81 570.09C221.16 569.83 229.53 569.82 237.88 569.51C237.63 568.31 236.64 568.49 235.76 568.32C232.97 567.78 227.23 568.2 225.58 567.62C224.72 567.32 224.72 566 224.29 565.88H223.09C222.28 568.7 220.37 566.13 219 566.06C218.36 566.03 217.39 566.54 216.48 566.53C200.45 566.36 184.51 565.58 168.49 565.9C168.01 564.32 170.08 564.19 171.2 564.09C181.82 563.18 193.66 564.75 204.42 564.12L211.33 562.89L175.13 560.47V558.66H182.67L189.61 557.47C179.87 553.96 169.15 553.69 158.84 553.84V552.04C161.7 551.53 164.77 551.5 167.59 550.82C168.5 550.6 168.65 551.25 168.5 549.63C158.73 548.4 149.22 545.27 139.24 546.61L138.62 545.4L145.56 544.5C138.99 537.75 125.9 533.55 129.7 521.99C132.02 514.94 140.65 513.87 146.58 511.12C154.51 507.43 161.93 502.55 168.76 497.1C170.57 491.82 172.1 486.4 173.9 481.12C176.67 473.02 177.69 469.36 179.64 460.91C182.52 448.37 186.15 435.32 193.34 424.53C194.54 422.73 197 420.64 197.98 418.91C200.89 413.75 201.61 407.67 205.42 401.61C208.35 396.95 214.91 390.99 217.03 387.27C220.11 381.86 220.57 375.42 225.08 368.77C252.19 328.77 316.93 311.67 362.05 304.21C371.86 302.59 382.95 302.31 392.49 300.25C393.19 300.1 395.93 299.69 395.97 298.92C391.22 292.11 391.63 280.18 402.02 279.91C400.91 276.68 400.36 274.97 402 271.72C403.39 268.97 407.61 268.47 409.28 266.35C410.63 264.64 412.36 259.72 413.81 257.57C412.69 256.05 410.91 255.54 409.23 254.89C401.94 252.06 393.92 251.09 386.72 247.84C370.45 240.5 349.2 215.4 340.59 199.84C334.76 189.29 337.6 182.82 348.6 178.52C358.43 174.68 380.2 167.65 390.26 167.08C405.58 166.2 417.17 174.36 433.02 172.43C443.1 171.2 450.73 168.15 461.45 168.89C487.25 170.69 510.13 190.93 532.74 200.78C542.17 204.89 554.63 207.64 562.81 214.15C565.75 216.49 568.43 219.89 571.62 222.23C581.74 229.65 594.71 230.14 605.68 237.05C615.81 243.42 639.18 267.43 646.98 277.21C653.56 285.46 660.61 298.26 648.99 305.73C639.05 312.13 603.07 326.91 591.83 327.58C568.19 328.97 550.2 320.24 528.73 312.5C531.01 319.57 531.04 329.97 521.51 330.62C521.51 333.3 521.24 337.35 520.12 339.79C519.33 341.53 516.58 342.9 516.17 344.29C515.47 346.66 516.19 349.81 514.77 352.54C513.61 354.75 510.24 357.13 507.6 356.54C519.93 377.94 534.63 396.67 541.22 420.97C546.86 441.75 547.97 477.21 532.94 494.41C531.79 495.73 530.14 496.38 529 497.71C525.81 501.45 524.72 508.63 524.5 513.42C525.15 513.65 525.82 512.82 526 512.82H575.48C575.6 512.82 576.97 514.18 576.99 514.62L525.4 515.23C523.44 515.41 523.87 517.35 523.89 518.85C535.88 519.39 548.48 518.12 560.4 518.85L560.38 518.84ZM527.49 202.07C502.65 189.81 477.59 169.27 448.22 173.17C433.14 175.18 429 178.17 412.72 174.73C396.2 171.24 391.45 169.11 374.23 174C368.26 175.7 350.62 181.03 346.27 184.06C341.92 187.09 340.32 194.22 345.05 197.75C349.47 201.05 357.61 202.91 362.68 205.46C371.79 210.03 375.67 216.27 387.36 217.59C408.24 219.94 417.4 211.43 435.01 205.23C454.97 198.2 457.3 216.29 473.21 221.65C488.5 226.81 498.53 218.49 513.81 229.32C524.95 237.22 533.35 248.07 547.09 252.76C550.88 254.06 555.25 254.51 558.86 256.08C567.67 259.92 574.81 277.12 581.82 285.02C598.67 304.01 608.18 297.42 629.77 298.62C635.66 298.95 641.69 301.09 647.52 301.58C649.05 296.26 651.46 294.9 649.29 289.35C645.06 278.51 620.9 254.59 611.37 246.41C599.14 235.92 587.54 235.75 575.24 228.84C569.04 225.36 563.94 219.24 557.85 215.45C552.14 211.9 531.5 202.44 525.49 203.89C525 204.01 525.33 204.98 524.21 205.13C522.1 205.4 519.43 204.83 517.23 205.09C517.09 206.14 518.6 205.66 519.33 205.69C520.96 205.76 525.19 204.72 524.47 207.2L518.44 208.72L522.91 209.92L523.26 211.42L517.23 214.74C520.45 214.17 522.11 216.72 525.04 217.49C529.16 218.58 533.04 218.54 537.46 220.16C539.9 221.05 544.18 224.05 545.89 224.41C546.23 224.48 546.89 224.56 546.8 224.1L540.18 219.26L523.88 212.94C532.48 213.3 541.46 215.91 548.92 220.17C549.94 219.46 548.72 218.88 548.22 218.46C542.44 213.61 535.86 212.85 529.33 210.19C528.61 209.9 526.91 209.57 526.9 208.71C535.13 208.9 544.08 211.54 551.44 215.23C559.49 219.27 565.09 226.17 572.95 230.53C578.59 233.65 584.1 234.68 589.86 237.15C606.24 244.16 622.43 261.47 634.54 274.53C640 280.43 648.25 288 644.15 296.83C639.93 297.06 636.29 294.72 632.2 294.36C616.69 293 606.14 299.15 592.1 288.6C581.91 280.94 579.43 271.1 572.63 261.61C564.3 249.99 551.85 250.83 540.36 244.4C526.29 236.53 517.54 220.22 500.06 218.93C487.9 218.04 482.36 221.72 470.37 214.83C460.4 209.1 456.87 198.49 443.29 198.41C429.31 198.33 412.04 213.38 393.85 213.56C380.42 213.69 376.82 207.54 366.81 201.94C361.54 198.99 336.83 192.83 351.29 186.05C356.94 183.4 380.31 175.56 386.08 174.98C398.41 173.74 406.78 177.84 418.15 179.57C434.13 182 445.86 174.96 461.45 176.09C485.22 177.81 505.01 197.4 525.66 202.4C526.27 202.55 527.63 203.19 527.5 202.07H527.49ZM386.9 177.32C380.87 179.36 373.35 182.32 368.13 186.01C367.41 186.52 366.65 186.03 367 187.57L386.9 177.31V177.32ZM497.93 193C489.29 186.96 478.23 182.03 467.76 180.34L497.93 193ZM395.35 180.94L382.48 182.72C380.62 186.75 374.38 188.19 370.58 190.25C369.91 190.62 368.94 190.92 368.8 191.78L397.76 185.14C397.58 183.97 394.74 184.54 393.92 184.62C387.8 185.22 382.04 187.61 376.05 188.76L385.55 184.09L395.36 180.93L395.35 180.94ZM495.52 196.62C486.82 190.5 475.91 186.19 465.35 184.56L495.52 196.62ZM417.07 189.39C413.74 189.17 410.43 187.84 407.11 187.58C399.18 186.96 392.58 189.84 384.97 191.36L372.43 195.4C377.39 194.71 382.8 194.04 387.64 192.82C393.34 191.37 398.57 188.39 404.61 188.4C408.06 188.4 411.72 189.6 415.05 189.9C415.73 189.96 417.21 190.46 417.08 189.38L417.07 189.39ZM493.1 199.65C484.35 195.31 475.22 190.23 465.35 189.39L491.27 199.97L493.1 199.65ZM418.28 194.82L401.72 191.78L374.84 199.03C378.59 199.08 382.64 198.36 386.32 197.55C393.06 196.07 398.26 192.62 405.23 193.08C408.92 193.32 412.76 194.67 416.46 195.13C417.1 195.21 418.41 195.98 418.27 194.82H418.28ZM488.27 202.67C480.05 199.36 472.04 193.94 462.93 193.62L473.18 196.94C477.6 198.55 482.11 201.41 486.44 202.99C487.01 203.2 488.41 203.78 488.27 202.67ZM414.66 199.05C409.12 198.28 404.1 196.56 398.37 197.24C397.86 199.39 400.68 197.69 402.28 197.79C405.62 198 409.29 199.27 412.62 199.58C413.3 199.64 414.78 200.14 414.65 199.06L414.66 199.05ZM395.35 199.05C391.04 200.09 386.6 200.91 382.3 201.98C381.57 202.16 379.67 202.32 379.67 203.26L386.82 202.27L395.36 199.05H395.35ZM482.24 205.08C477.3 203.3 472.47 200.13 467.16 199.65L480.41 205.4L482.24 205.08ZM404.4 220.77C392.21 222.5 380.85 220.36 370.19 214.24C368.51 213.27 366.99 211.54 365.37 210.61C360.02 207.54 353.69 205.27 347.68 203.87C355.24 213.08 362.17 222.81 371.2 230.72C376.38 235.26 383.67 240.5 389.93 243.36C401.21 248.53 413.84 249.5 424.62 255.74C426.42 255.85 425.07 255.06 424.52 254.63C420.14 251.31 414.27 248.88 409.82 245.19C406.45 242.39 392.71 228.64 391.73 225.26C391.51 224.48 391.88 224.05 392.62 224.37C394.15 225.03 396.99 229.35 398.34 230.72C404.29 236.72 411.02 241.75 417.38 247.28L427.92 254.53C422.18 248.1 414.29 243.83 408 237.95C406.02 236.1 396.15 225.49 396.55 223.48C396.79 222.24 400.47 222.36 401.55 222.68C403.03 223.12 403.72 225.7 405.59 225.56C404.66 223.72 403.32 222.92 404.38 220.74L404.4 220.77ZM459.92 261.19V250.03C459.92 247.75 461 241.43 461.65 239.06C461.93 238.02 461.22 237.38 462.94 237.67L463.55 257.27L464.74 263.61C465.35 254.94 466.07 246.67 467.95 238.16C468.53 235.52 469.38 230.88 470.47 228.61C470.93 227.66 471.25 226.58 472.58 226.81C472.46 233.65 469.54 240.2 468.97 247.03C468.73 249.97 469.11 253.12 468.99 256.1C468.93 257.68 468.42 259.17 468.33 260.87C468.29 261.68 467.89 264.64 468.96 264.82C469.92 252.48 471.65 240.14 475.54 228.37C476.26 227.83 478.77 227.33 478.65 228.94C478.55 230.3 476.96 233.88 476.5 235.85C475.55 239.98 474.27 245.38 473.87 249.51C473.78 250.48 473.22 253.56 474.39 253.96C474.36 252.08 474.76 250.22 475.18 248.41C475.83 245.57 479.42 230.29 480.39 229.02C480.84 228.43 484.09 227.15 484.08 228.93C484.06 232.63 480.68 240.3 479.98 244.76C479.88 245.41 479.34 246.86 480.43 246.71C481.76 242.08 483.06 236.62 484.97 232.24C485.78 230.37 486.35 228.58 488.28 227.7C478.89 227.37 471.15 225.38 463.59 219.8C458.23 215.85 454.29 209.82 447.85 207.49L449.66 237.95C450.89 245.63 451.07 253.63 452.97 261.19C453.37 262.8 453.56 265.32 455.08 266.01C456 265.25 454.07 252.81 453.89 250.62C453.26 243.33 452.04 236.07 451.48 228.9C451.38 227.65 451.07 214.74 451.77 214.72C453.69 221 453.1 227.89 453.83 234.42C453.91 235.14 453.25 236.2 453.37 236.37C453.49 236.54 454.49 236.51 454.97 237.46C457.1 241.71 457.88 253 458.91 258.27C459.07 259.07 458.97 261.19 459.92 261.19ZM432.16 227.4C431.79 222.95 437.4 222.12 439.4 218.96C437.66 219.28 431.07 224.56 429.75 223.17C427.61 220.94 436.98 217 437.59 214.73L428.85 218.35C427.8 212.83 434.88 213.88 436.99 209.9C434.16 209.09 433.85 212.5 431.26 212.92L433.36 210.2C433.45 209.74 432.78 209.81 432.47 209.91C428.54 211.16 423.65 214.27 419.65 215.79C414.84 217.61 409.85 218.8 405.01 220.45C411 223.61 414.18 230.13 418.58 235.24C421.44 238.57 424.82 242.18 428.25 244.88L412.86 222.86C415.95 222.25 418.03 228 419.85 230.35C425.4 237.52 429.38 242.79 434.34 250.26C436.28 253.18 438.67 256.35 441.22 258.76C435.46 245.23 427.52 232.72 419.51 220.44H420.72L439.43 246.98L445.45 258.15C442.84 248.46 437 239.98 432.08 231.41C430.96 229.47 430.2 227.31 429.07 225.37C428.9 225.08 425.82 221.34 428.26 222.56C429.22 223.04 429.93 225.72 430.71 226.77C431.12 227.32 432.13 227.3 432.19 227.38C432.68 228.04 432.78 230.68 434.6 231C434.23 228.55 436.08 226.98 437.02 224.97L432.19 227.38L432.16 227.4ZM544.39 228C537.3 221.98 526.93 219.08 517.84 217.75C517.87 218.55 519.46 219.08 520.12 219.38C525.97 222.04 531.67 222.88 537.47 224.96C539.86 225.82 541.92 227.47 544.38 228H544.39ZM538.36 229.22C533.9 227.56 529.43 225.2 524.49 225.6C524.75 226.72 525.99 226.83 526.89 227.11C529.6 227.96 533.62 228.85 536.52 229.55C537.13 229.7 538.5 230.34 538.36 229.22ZM521.38 241.2C521.75 240.37 521.32 239.79 520.89 239.13C520.29 238.23 513.42 232.58 512.1 231.63C504.49 226.17 498.12 225.33 488.89 226.8C488.63 227.79 489.93 227.08 490.11 227.78C491.17 232.02 486.48 237.59 486.48 241.87L495.52 228L496.44 231.05C492.95 238.13 489.21 245.1 485.5 252.07C481.2 260.16 474.85 268.04 473.8 277.48C475.36 277.84 474.85 277.02 475.35 276.34C479.33 270.95 483.47 266.03 487.66 260.87C493.88 253.2 499.92 245.38 506.08 237.66C506.45 239.02 504.61 240.98 503.85 242.07C498.46 249.86 492.23 257.12 486.82 264.86C483.79 269.19 479.92 274.17 478.63 279.29L511.19 237.94L512.42 238.57L485.26 275.06C485.93 275.72 489.24 272.06 489.79 271.45C498.36 262.07 506.24 249.6 515.64 240.88C516.06 240.49 518.06 239.04 518.44 239.46C518.52 240.13 518.47 240.66 518.14 241.27C516.01 245.25 509.27 251.14 506.14 255.21C504.26 257.65 501.97 260.74 500.95 263.59C505 257.86 510.13 253.16 514.79 248.03C516.85 245.76 518.67 242.49 521.38 241.19V241.2ZM605.34 250.93C598.66 243.65 587.49 241.68 578.19 239.48C578.41 240.69 579.49 240.44 580.29 240.7C585.17 242.28 590.36 243.1 595.08 245.22C598.59 246.79 601.69 249.6 605.35 250.94L605.34 250.93ZM551.64 256.97C548 257.29 545.06 254.92 541.77 253.87L525.7 244.3C526 245.72 526.46 246.3 525.86 247.74C525.35 248.97 517.2 256.32 517.85 256.97C521.55 254.44 525.28 251.72 527.8 247.93C530.93 251.5 523.7 254.62 521.46 256.66C515.33 262.23 513.68 263.97 506.79 268.54C501.14 272.29 495.47 276.07 490.09 280.2C491.42 280.93 493.51 279.45 494.71 278.79C500.04 275.89 507.52 269.99 512.72 267.83C512.99 267.72 513.71 267.67 513.61 268.12L511.81 271.76C509.02 272.29 507.88 273.11 505.58 274.57C500.23 277.94 495.55 282.52 490.69 286.52C496.01 284.04 500.92 280.84 506.16 278.16C514.24 274.03 519.72 271.72 527.35 266.6C532.25 263.32 536.52 259.3 542.29 257.57C544.12 257.61 542.81 258.22 542.13 258.62C535.87 262.26 530.56 267.05 524.67 270.72C515.68 276.33 504.8 279.16 497.33 287.42C498 288.4 499.05 286.78 499.92 286.39C506.03 283.67 512.29 281.27 518.44 278.66L516.64 277.47L524.48 273.62C526.39 274.21 526.05 273.06 526.77 272.71C531.48 270.46 537.14 268.99 540.76 265.1C539.44 264.64 537.5 266.69 535.95 267.53C533.96 268.61 531.57 269.86 529.5 270.74C528.95 270.97 527.96 272.05 527.49 271.15C533.55 267.87 539.51 260.84 546.06 258.94C547.45 258.54 549.26 258.64 550.74 258.19C551.61 257.93 551.8 258.54 551.62 256.97H551.64ZM609.56 258.77C600.77 250.33 588.83 246.27 576.98 244.3C576.84 245.18 578.03 245.1 578.66 245.32C582.81 246.73 587.16 247.37 591.26 249.02C597.65 251.58 603.18 256.21 609.55 258.78L609.56 258.77ZM603.53 260.58C598.36 256.34 591.45 252.59 584.83 251.54L603.53 260.58ZM524.3 324.37C526.5 321.58 525.2 315.46 522.37 313.08C515.67 307.43 504.54 302.68 497.13 297.89C476.65 284.62 458.69 268.7 433.86 263.41C430.55 262.7 416.92 260.45 415.27 264.52C415.14 266.47 418.72 263.96 419.93 263.75C434.9 261.24 470.5 281.88 482.78 291.12C489.41 296.11 495.3 302.34 501.86 307.04C502.78 307.7 506.63 310.39 507.29 310.66C507.57 310.77 508.28 310.82 508.18 310.37C505.29 306.37 500.2 303.73 497 300.43C496.56 299.97 495.47 299.15 496.41 298.6C502.94 302.69 510.37 306.33 516.31 311.29C519.18 313.69 522.8 317.07 523.26 320.92L515.42 314.9C516.66 316.76 519.26 318.91 519.65 321.23C519.91 322.82 519.19 321.78 518.64 321.78C517.47 321.79 514.85 320.79 515.42 322.73C517.75 323.22 519.55 324.23 520.59 326.4C521.39 326.52 523.86 324.91 524.29 324.37H524.3ZM610.76 303.44C598.15 304.07 583.47 293.75 576.12 284.07C571.52 278.01 569.1 268.95 562.78 263.61C561.64 263.14 561.02 266.97 560.09 268.15C556.82 272.28 547.11 276.8 542.18 279.21C532.02 284.18 521.36 288.22 511.2 293.19C511.06 294.3 512.46 293.71 513.03 293.51C517.52 291.89 522.35 288.74 527.32 287.87C528.49 287.66 528.07 287.93 528.1 288.96C522.63 289.8 517.54 292.69 512.25 294.6C511.28 294.95 510.36 294.43 509.43 294.72C507.97 295.19 505.39 297.4 503.96 298.32C512.04 298.19 520.16 296.46 527.99 294.59C541.79 291.3 556.91 284.67 570.3 282C571.77 281.71 573.49 281.17 574.54 282.63L572.88 283.98L535.94 294.41C535.8 295.51 537.23 294.93 537.88 294.85C541.91 294.32 546.69 293 550.67 291.95C556.8 290.33 567.96 285.37 573.1 284.77C574.53 284.6 575.64 285.04 576.96 285.37L575.74 288.06L568.52 291.39L577.19 289.63L578.17 291.99C573.75 293.28 568.75 294.05 564.41 295.43C563.41 295.75 561.11 296.41 560.67 297.42C566.59 297.42 574.01 294.32 579.7 294.37C581.1 294.38 582.14 294.92 581.2 296.53L553.43 301.95C554.14 303.09 554.71 302.42 555.6 302.37C566.21 301.81 576.67 299.56 587.22 298.64V301.03C577.38 302.28 567.29 304.55 557.36 304.64C556.01 304.65 553 303.09 552.22 304.66L563.93 306.23L585.7 304.06C585.1 308.17 575.68 306.24 572.13 307.09L576.73 308.22L580.58 308.3C579.48 310.55 576.45 308.92 574.27 308.87C569.67 308.77 564.97 308.83 560.38 308.87C559.67 308.87 558.11 308.46 558.26 309.49C560.01 309.33 561.64 310.02 563.36 310.12C572.44 310.68 580.9 309.25 589.79 308.74L610.75 303.46L610.76 303.44ZM477.63 291.75C463.31 279.18 445.28 269.83 426.25 266.19C422.95 265.56 420.41 265.21 417.08 266.02L426.09 270.58C429.94 275.07 435.07 278.08 439.41 282C455.43 296.42 468.96 313.77 486.17 326.96L446.04 284.73C449.34 284.89 450.32 287.75 452.36 289.57C463.11 299.17 473.26 309.32 484.37 318.51L485.26 318.22C482.54 314.88 478.52 312.81 475.59 309.79C472.16 306.25 468.88 301.38 465.35 297.71C464.05 296.36 460.42 294.89 460.83 292.58C464.07 295.81 468.37 298.26 471.78 301.24C473 302.31 474.35 304.54 475.9 305.87C480.17 309.54 484.78 312.64 489.2 316.11L490.09 315.82C483.39 310.57 477.77 305.13 472.29 298.63C471.89 298.15 470.71 297.42 471.69 296.82C480.82 305.25 491.87 311.12 501.5 318.9C504.6 321.4 507.21 323.21 509.65 326.43C510.41 327.43 514.38 333.46 513.62 334.22C512.08 335.77 508.12 327.46 505.78 329.09C507.32 330.7 509.08 332.28 510.44 334.05C510.87 334.61 511.63 334.41 511.2 336.03L498.53 330.3L513 339.41C518.76 339.32 516.9 331.05 514.47 327.64C506.76 316.8 483.92 308.37 475.7 296.41C474.87 295.2 473.32 292.32 473.49 290.78C474.94 293.41 476.5 294.59 478.69 296.45C483.26 300.33 489.75 304.85 494.86 308.04C495.37 308.36 496.17 309.55 496.73 308.59C490.47 302.88 484 297.37 477.64 291.78L477.63 291.75ZM631.89 278.68C633 277.61 617.14 265.32 613.79 267.23L621.35 271.43L631.89 278.68ZM630.67 285.33C632.03 283.85 622.19 276.3 620.97 275.43C617.41 272.88 612.67 269.52 608.35 269.05L630.67 285.34V285.33ZM423.11 272.66C420.67 272.07 417.41 270.86 414.94 270.82C414.12 270.81 405.5 271.6 407.43 273.25C409.47 273.25 411.93 273.7 413.83 274.4C414.66 274.71 414.86 274.18 414.67 275.66H405.01L405.06 277.42L421.3 283.21L430.96 287.72C427.11 287.01 422.97 286.03 419.34 284.57C415.17 282.89 411.35 279.39 406.83 279.58C412.25 284.21 420.96 288.8 427.93 290.46C429.94 290.94 433.43 290.7 434.55 291.06C436.3 291.61 439.86 294.3 441.81 295.29C444.96 296.88 448.13 298.66 451.48 299.8C451.32 299 450.47 298.55 449.86 298.1C446.11 295.39 440.67 292.22 436.59 289.65C435.28 288.83 433.68 288.09 432.18 287.72L434.58 286.53L431.57 284.11C434.04 284.37 436.24 285.99 437.91 287.72C438.36 287.82 438.32 287.09 438.2 286.83C437.29 284.79 427.9 277.1 425.53 275.96C423.29 274.89 420.08 275.26 419.5 272.64H423.12L423.11 272.66ZM624.65 285.92C618.97 279.7 610.76 273.51 602.33 272.05L624.65 285.92ZM619.22 288.34C617.89 286.29 615.6 284.76 613.63 283.38C611.16 281.66 608.1 279.93 605.35 278.7L609.74 282.45L619.23 288.34H619.22ZM402.43 286.09C402.23 285.84 401.22 285.54 400.79 285.33C400.37 285.88 402.73 297.65 405.05 298.26C419.09 302.57 431.66 309.97 444.62 316.62C458.31 323.65 468.62 332.26 481.69 339.89C490.1 344.79 499.13 348.43 507.56 353.28C513.87 349.99 512.89 340.66 505.18 340.25C506.27 342.15 508.83 343.04 508.19 345.67C506.56 347.34 500.98 338.88 499.75 337.83C500.45 342.34 503.74 346.01 506.81 349.13C507.15 349.47 508.63 349.49 507.3 350.5L500.84 348.03C484.11 342.83 470.03 329 455.42 320.32C446.92 315.27 429.96 309.22 424.06 301.6C423.49 300.86 421.83 298.42 422.21 297.42C425.59 300.05 428.77 302.95 432.18 305.55C432.66 305.91 433.34 307.18 433.98 306.16C427.28 298.11 419.2 290.12 408.64 287.76C407.73 288.69 413.79 299.22 415.87 300.13C414.5 300.72 411.66 298.67 410.77 297.39C408.47 294.07 409.27 286.86 404.41 286.56C403.42 287.52 408.32 296.2 407.73 298.02C402.48 296.41 404.74 288.9 402.44 286.12L402.43 286.09ZM398.97 285.93C397.12 285.44 397.05 288.64 397.13 289.83C397.26 291.7 398.53 295.71 400.17 296.79L398.97 285.93ZM451.47 307.65C448.34 307.96 444.96 305.47 442.47 303.68C440.82 302.5 434.06 295.37 432.16 296.8C436.17 303.56 443.95 307.05 448.43 313.41L463.84 324.55C464.48 323.52 462.65 321.65 462.04 320.92C459.62 318.07 457.57 317.43 454.88 315.41C454.32 314.99 452.98 314.19 454.78 314.3C460.87 316.64 464.49 320.5 469.27 324.55C469.95 325.12 470.26 326.01 471.38 325.75L461.72 313.39L471.08 320.32C471.53 320.42 471.49 319.69 471.37 319.43C471.06 318.73 461.8 309.61 460.52 308.55C454.37 303.46 445.43 301.47 438.47 297.41C436.68 297.29 438.02 298.09 438.58 298.51C442.74 301.67 447.76 303.84 451.46 307.65H451.47ZM643.35 303.44C638.44 304.44 633.5 302.48 628.56 302.23C624.4 302.02 613.45 302.57 610.21 304.98C605.93 308.15 603.76 312.04 597.82 314.31C589.8 317.39 580.04 317.34 571.55 317.31L578.49 318.5C584.66 318.56 590.98 318.8 596.88 316.7C597.12 318.18 595.98 318.29 594.96 318.69C584.1 322.92 566.81 319.08 556 315.65C553.98 315.01 523.28 302.96 523.27 306.14C537.76 309.21 550.39 317.37 564.91 320.62C589.94 326.24 602.69 321.57 625.41 312.33C629.67 310.6 637.25 307.66 640.97 305.57C641.88 305.06 643 304.49 643.35 303.43V303.44ZM214.33 458.5V435.27C214.33 435.17 215.14 434.32 215.53 434.36C216.45 443.92 217.52 453.48 218.55 463.03C220.39 480.14 220.05 494.15 228.5 509.8C238.87 529.03 257.41 547.97 277.06 557.78C284.75 561.62 292.76 562.4 301.22 562.88L283.92 553.94C269.33 545.57 248.63 529.32 240.97 514.23C240.69 513.69 239.71 512.64 240.58 512.21C254.37 529.34 271.69 543.71 291.27 553.84L291.56 552.65C263.49 538.03 237.31 510.85 228.05 480.09C223.25 464.15 223.69 452.16 221.53 436.53C221.06 433.12 219.47 429.35 219.17 425.61C217.14 399.95 228.71 378.9 245.69 361.04C247.86 358.75 250.23 356.74 252.65 354.72C253.1 354.62 253.06 355.35 252.94 355.61C252.31 357.01 245.6 362.74 243.91 364.69C238.53 370.91 229.87 382.43 226.88 389.9C226.32 391.31 225.47 393.64 225.48 395.14C235.83 378.6 247.01 363.93 262.6 352.01C263.08 351.65 263.76 350.38 264.4 351.4C253.13 361.47 242.64 372.6 234.35 385.31C231.33 389.94 226.46 397.57 225.32 402.84C225.19 403.45 224.71 404.96 225.78 404.8C230.46 392.12 240.25 381.65 249.03 371.62C250.32 370.15 251.33 368.19 252.64 366.78C257.08 361.99 261.9 357.42 267.14 353.52C268.29 353.15 268.28 354.43 268.05 355.02C267.97 355.21 265.4 356.15 264.47 356.88C254.2 364.92 235.28 389.47 230.77 401.62C230.56 402.2 229.28 404.72 230.62 404.8C230.91 403.38 231.62 402.03 232.34 400.78C240.7 386.25 257.07 367.44 270.51 357.49C272.17 356.26 274.48 354.29 276.49 354.13C261.68 368.88 247.24 382.89 235.81 400.64C229.17 410.95 222.88 422.26 223.4 434.98L229.72 419.27L231.23 418.1C228.75 425.14 225.96 433.72 226.48 441.25C226.53 441.99 226.82 444.97 227.6 445.24C227.67 441.59 228.27 437.83 229 434.27C230.9 425.02 235.63 412.56 239.76 404C240.79 401.87 242.16 399.21 243.89 397.58C240.18 410.2 233.97 422.63 231.5 435.56C230.36 441.5 229.16 450.48 229.42 456.41C229.45 457.14 228.96 458.65 230.02 458.51L234.26 430.16L235.45 433.77C238.5 414.39 247.55 395.92 259.59 380.67C256.39 388.12 251.48 394.67 248.02 401.98C246.33 405.56 244.67 409.81 243.29 413.54C236.01 433.28 231.65 454.96 233.05 476C235.28 474.12 234.03 469.53 234.26 466.65C235.47 451.36 239.1 435.91 243.89 421.37C248.62 406.99 255.36 391.94 266.23 381.27L257.68 394.74C243.65 420.95 235.17 451.65 238.03 481.57L240.27 489.88C238.63 475.72 239.18 461.48 242.26 447.52C243.65 441.24 245.8 433.79 247.68 427.6C252.23 412.67 258.13 396.78 269.23 385.49L259.06 403.38C251.23 419.54 245.77 436.79 243.37 454.67C241.2 470.8 242.13 483.36 246.61 498.93C246.89 499.89 247.2 502.22 248.11 502.55C247.63 496.94 245.76 491.54 245.11 485.95C243.1 468.55 247.07 451.71 251.14 434.97L252.22 435.93C248.56 453.5 245.93 470.28 248.89 488.21C250.53 498.16 253.63 508.88 259.58 517.03C258.17 512.9 255.8 509.14 254.45 504.97C249.59 489.89 249.9 472.65 251.82 457.08L255.96 441.01C255.54 449.81 253.29 458.42 252.92 467.23C252.34 481.16 254.37 496.86 260.08 509.6C262.33 514.63 265.39 520.32 269.23 524.28C268.36 521.62 266.15 519.34 264.9 516.85C257.33 501.75 256.18 489.31 256.59 472.72C256.75 466.27 256.66 460.64 258.38 454.3C259.43 454.16 258.95 455.67 258.98 456.4C259.25 463.09 258.08 469.64 258.35 476.34C258.87 489.09 261.4 503.33 267.93 514.43C268.57 515.52 269.29 517.06 270.44 517.65C261.85 499.34 260.39 479.62 263.21 459.73C264.09 459.63 264.14 461.94 264.18 462.54C264.9 476.17 263.09 490.32 268.63 503.48L272.86 512.22C269.65 499.12 266.63 485.72 267.41 472.07C267.54 469.88 267.76 465.1 269.24 463.95C269.27 468.86 269.46 473.85 269.84 478.74C269.89 479.44 270.03 481.44 271.05 481.45C270.98 476.77 271.71 472.06 272.41 467.42C275.11 449.6 278.51 432.14 286.03 415.27C289.09 408.4 294.01 398.76 298.82 393.06C299.67 392.05 300.98 390.36 302.42 390.33C303.28 391.26 293.8 405.88 292.67 408.03C269.75 451.36 266.63 500.88 293.12 543.55C313.28 576.02 350.69 590.46 388.25 583.86C406.04 580.73 429.92 563.46 443.91 552.03C445.68 550.58 447.71 547.18 449.65 547.51C444.11 554.57 437.11 560.32 430.95 566.82C430.85 567.27 431.56 567.22 431.84 567.11C432.66 566.78 437.36 563.15 438.48 562.28C444.97 557.2 450.71 551.1 457.21 546L458.1 546.89L436.68 570.13C440.64 567.48 445.15 564.74 448.76 561.67C453.17 557.91 456.55 552.9 460.8 549C462.29 547.63 465.43 544.7 467.15 545.09C462.18 548.74 458.87 554.27 454.79 558.68C449.67 564.21 444.04 569.26 438.79 574.66L439.68 574.95C447.72 568.51 455.63 562.05 462.63 554.45C466.93 549.78 469.98 543.85 475.59 540.26L459.3 544.79C458.28 543.75 462.41 540.05 463.23 539.38C465.85 537.25 470.31 534.91 473.37 533.23C484.24 527.23 496.79 521.93 509.38 521.88C508.1 526.3 504.19 525.52 501.54 527.9C502.91 527.79 508.75 528.59 506.22 530.79C504.65 532.16 493.35 533.46 490.2 534.38C488.07 535 478.5 538.47 477.18 539.46C472.78 542.76 467.4 551.77 463.77 556.22C457.97 563.32 452.32 570.46 444.82 575.89C445.41 576.89 446.17 575.6 446.68 575.34C451.62 572.78 458.34 567.2 462.34 563.24C468.94 556.71 473.25 547.67 480.12 541.2C481 541.94 479.6 543.24 479.21 543.91C475.64 550.11 469.29 558.83 464.71 564.41C460.25 569.84 454.97 574.36 449.64 578.91C450.27 579.92 450.96 578.64 451.45 578.3C454.6 576.11 457.88 573.85 460.79 571.35C464.37 568.26 471.43 561.84 474.38 558.39C478.48 553.6 481.21 547.27 485.24 542.4C481.95 550.81 475.48 557.51 471.01 565.28C466.42 571.6 460.58 576.5 454.88 581.73C454.42 582.15 453.11 582.68 454.17 583.43C469.45 572 484.43 558.18 490.08 539.39L491.88 540.6C491.89 537.38 492.55 535.27 496.14 535.45L497.32 539.99L498.91 535.25C501.62 535.25 508.73 534.22 509.98 537.29C510.84 539.4 507.69 536.97 507.35 537.03C504.71 538.93 505.45 539.63 508.39 540L508.75 541.48L494.9 555.08L511.13 548.69C516.98 546.26 517.51 536.25 513.3 532.17C511.88 530.79 506.92 529.15 506.93 527.64C506.93 526.38 512.62 523.31 513.93 521.93C518.82 516.78 519.02 509.27 518.74 502.61L500.33 509.25C500.21 510.44 501.5 509.6 502.13 509.55C505.78 509.22 509.36 508.44 512.99 508.04C514.14 510.92 508.76 510.75 508.76 511.36L513.34 512.85L512.82 515.13C493.29 520.93 472.83 525.98 456.56 538.81C455.88 538.04 457.8 535.91 458.28 535.4C459.18 534.46 461.17 532.83 462.28 531.86C466.84 527.91 472.6 523.34 477.97 520.7C478.09 519.57 476.75 520.2 476.16 520.39C471.35 521.95 463.89 527.24 459.75 530.39C457.95 531.76 454.74 535.56 452.93 536.39C452.67 536.51 451.94 536.54 452.04 536.1L460.48 527.65C460.57 527.2 459.89 527.26 459.59 527.36C457.78 527.95 451.68 532.54 449.94 534.01C422.3 557.34 394.09 587.38 354.08 580.96C332.03 577.42 311.23 556.4 299.49 538.4C289.49 523.07 281.18 506.03 279.47 487.53C281 487.26 280.56 487.76 280.95 488.73C281.95 491.24 282.35 494.62 283.27 497.3C285.46 503.77 288.08 511.05 292.14 516.48C289.09 506.93 284.73 495.95 283.77 485.94C280.2 448.67 295.53 402.81 325.38 379.26C342.19 366 361.3 359.16 379.44 348.84C384.48 345.97 388.68 342.18 393.51 339.07C393.65 337.96 392.25 338.55 391.68 338.75C388.87 339.78 385.09 343.06 381.85 344.61C374.34 348.22 366.46 349.65 358.95 352.48C343.36 358.37 325.08 370.6 312.37 381.32C309.62 383.64 307.22 386.74 304.51 389.15C304.06 389.25 304.1 388.52 304.22 388.26C304.83 386.92 308.92 382.81 310.24 381.61C320.79 372.01 335.75 360.27 348.65 354.25C352.55 352.43 356.79 351.29 360.64 349.34L361.23 351.14L376.62 343.91L375.41 345.71C375.7 345.71 376.02 345.79 376.3 345.71C378.26 345.15 391.73 335.25 394.06 333.3C400.67 327.78 405.68 320.3 412.21 314.64L411.32 313.75L408.6 315.55C407.56 314.23 414.85 310.15 414.02 307.71C413.61 307.26 410.69 309.69 410.12 310.14C388.34 327.08 370.84 336.61 344.37 344.55C337.24 346.69 321.35 350.33 316.27 354.47C314.07 356.26 312.7 358.71 310.86 360.53C309.97 361.41 305.1 365.98 304.5 366.24C304.24 366.36 303.51 366.39 303.61 365.95C308.52 362.57 315.99 350.76 321.13 349.05C322.07 348.74 323.84 349.41 325.46 349.22C329.72 348.72 344.77 343.89 349.17 342.13C354.83 339.87 359.85 335.53 365.75 333.66C365.87 332.52 364.53 333.16 363.93 333.35C358.59 335.09 353.93 338.65 348.83 340.58C344.43 342.25 339.6 342.97 335.12 344.37C330.64 345.77 326.68 347.88 322.3 348.75C325.13 345.12 330.68 344.41 334.97 343.32C335.11 342.22 333.68 342.8 333.03 342.88C327.55 343.6 321.68 346.24 317.03 349.21C310.42 353.43 304.3 359.86 297.86 364.44C296.51 363.43 298.11 363.35 298.25 363.16C301.6 359.02 312.04 350.18 316.57 346.94C318.46 345.59 321.2 344.22 323.5 343.92C323.65 342.85 322.15 343.33 321.54 343.46C310.11 345.92 297.62 358.97 288.81 366.25C287.83 365.65 289.01 364.92 289.41 364.44C293.11 360.02 299.62 354.56 304.19 350.86C327.73 331.78 358.05 330.58 385.81 319.64C391.56 317.37 398.2 314.61 401.95 309.54C399.91 309.19 398.14 311.33 396.53 311.67C376.24 316.08 353.9 326.53 332.84 327.62C332.35 327.65 331.41 327.91 331.35 327.34C332.04 326.4 332.82 326.04 333.88 325.65C347.65 320.52 362.48 318.94 377.2 312.85C381.63 311.02 386.02 308.63 390.48 306.83C389.76 305.7 389.24 306.3 388.32 306.42C385.03 306.83 379.21 310.16 377.56 307.8C334.19 314.14 286.63 323.03 251.17 350.33C233.43 363.98 228.06 371.94 221.84 393.41C220.55 397.87 219.3 402.03 217.95 406.42C217.03 409.41 216.74 413.21 216.1 416.34C215.05 416.48 215.53 414.97 215.5 414.24C215.25 408.05 215.59 401.9 216.7 395.83C213.27 398.38 212.66 403.89 211.87 407.89C209.94 406.73 213.34 402.45 211.28 401.26C210.33 404.06 208.37 406.09 207.13 408.88C201.13 422.49 201.98 443 204.91 457.39C206.49 465.14 210.01 472.45 211.26 480.29C210.4 480.28 210.07 478.58 209.78 477.86C203.34 462.11 197.79 446.35 197.99 429.01C196.6 428.66 197 429.27 196.61 429.77C189.95 438.32 190.64 450.61 191.97 460.68C192.61 465.52 193.8 470.16 194.98 474.86C193.41 475.15 193.92 474.56 193.5 473.66C190.42 467.06 190.05 458.74 189.53 451.66C189.47 450.91 189.99 449.99 190.16 449.23L188.95 448.61C181.53 472.53 186.53 494.53 202.85 513.17C208.9 520.08 216.35 526.67 225.16 529.77C221.53 527.12 217.63 525.3 214.01 522.52C203.26 514.24 196.18 502.41 191.99 489.62C191.95 488.05 192.06 488.2 192.72 489.5C193.67 491.38 194.53 493.83 195.61 495.54C199.46 501.67 204.72 508.75 210.07 513.8C210.62 514.32 215.08 518.1 215.51 517.71C210.56 512.29 205.32 506.89 201.75 500.4C200.07 497.35 195.84 488.52 195.57 485.45C195.52 484.83 195.16 482.59 196.19 482.72C196.06 484.32 196.34 485.62 196.96 487.08C198.34 490.37 202.77 497.14 204.98 500.17C208.12 504.47 212.05 508.27 216.1 511.67L207.17 499.79C205.22 495.31 200.62 489.56 199.8 484.83C199.72 484.38 199.63 482.62 200.41 483.63C200.14 486.14 215.77 507.3 216.7 506.25C213.67 499.56 208.45 493.73 205.41 487.08C205.04 486.27 203.31 482.57 204.63 482.12L219.72 504.44C218.32 496.64 211.67 491.22 209.64 483.62L211.27 482.12C211.25 482.9 211.45 483.64 211.76 484.35C211.94 484.77 212.99 487.87 213.7 487.24C211.17 469.46 203.93 453.67 204.64 435.35C204.67 434.62 204.19 433.11 205.24 433.25L211.27 461.6C211 454.88 209.8 448.84 210.07 441.99C210.1 441.26 209.61 439.75 210.67 439.89L214.3 458.59L214.33 458.5ZM607.75 305.85C600.41 308.85 593.48 309.23 585.8 310.14C582.7 310.51 578.26 311.86 575.44 311.89C574.14 311.91 573.06 311.37 571.84 311.27C571.18 311.22 569.59 310.83 569.74 311.86C575.45 312.75 581.07 313.57 586.84 313.08C587.79 315.44 588.16 313.63 589.53 313.25C595.55 311.58 603.46 310.61 607.75 305.84V305.85ZM425.52 315.5C424.96 314.88 421.16 317.96 420.41 318.53C414.48 323.11 407.8 329.57 402.27 334.79C373.3 362.13 337.08 402.64 320.61 438.98C319.17 442.16 318.09 445.4 317.5 448.85C316.47 449 316.86 447.42 316.91 446.76C317.83 435.57 326.42 418.17 332.34 408.48C334.88 404.33 337.9 400.38 341.04 396.66C340.44 395.68 339.71 396.86 339.23 397.26C332.58 402.84 326.9 411.41 321.85 418.5C320.65 420.19 319.18 422.07 318.71 424.12C317.38 424.09 318.35 421.89 318.58 421.27C323.42 408.43 335.6 395.19 345.58 386.09C346.07 385.65 348.88 384.82 346.18 384.3C340.79 389.35 334.71 393.75 329.87 399.37C322.81 407.58 318.04 417.57 311.17 425.92L319.22 409.23C325.93 398.3 334.23 388.61 344.06 380.37C343.42 379.35 342.74 380.62 342.26 380.98C335.89 385.86 329.24 392.27 324.17 398.49C312.75 412.48 302.95 433.31 298.73 450.89C296.94 458.37 296.35 466.02 295.18 473.59C294.13 473.73 294.61 472.22 294.58 471.49C293.81 452.44 301.79 429.93 310.56 413.24C314.61 405.54 319.37 398.11 325.05 391.52C325.81 390.63 331.53 385.71 330.78 384.89C329.89 385.23 329.06 385.73 328.37 386.4C311.83 402.54 296.78 431.6 292.45 454.26C291.12 461.24 290.89 468.4 289.75 475.4C288.7 475.54 289.18 474.03 289.15 473.3C288.43 454.88 293.12 437.47 300.7 420.88C305.88 409.53 312.29 398.81 320.52 389.41L320.23 388.52C316.28 393.54 311.55 398.09 307.97 403.42C293.23 425.34 281.1 463.7 285.81 489.91C287.56 499.63 295.02 519.42 301.23 526.98C301.46 527.26 302.65 528.89 303.03 528.2C297.72 516.88 292.96 505.01 291.74 492.42C291.68 491.75 291.02 490.37 292.16 490.49C297.12 519.18 316.3 549.69 346.95 554.87C367.07 558.27 379.86 555.44 398.83 549.17C399.57 548.93 401.37 548.72 401.38 547.81C396.41 548.05 391.89 550.62 387.02 551.85C361.94 558.17 336.51 556.39 316.9 537.86C306.02 527.58 299.29 509.41 298.21 494.71L303.17 510.55C313.94 534.19 331.15 552.72 359.36 548.93C371.21 547.34 389.52 543.66 400.17 538.42C401.03 538 401.69 538.56 401.38 536.95L399.63 537.26L399.87 536.34C394.96 536.46 390.71 539.19 386.31 540.28C358.86 547.13 329.86 552.05 313.03 524.23C307.32 514.79 303.58 503.31 303.03 492.3L306.03 502.87C322.74 552.92 361.01 547.75 403.67 534.12C419.31 529.12 455.44 500.96 463.63 486.68C471.82 472.4 475.95 449.83 475.02 433.45C474.9 431.39 474.26 429.22 474.09 427.14C472.82 427.94 473.54 428.53 473.57 429.41C474.07 444.59 473.19 463.97 466.05 477.63C461.42 486.49 446.25 496.81 437.77 502.45C414.37 518.01 372.84 540.32 344.46 539.32C321.77 538.52 309.85 512.18 308.46 492.6C308.41 491.88 307.96 489.3 309.05 489.29C311.17 507 319.74 528.05 338.02 533.93L331.1 529.09C324.28 522.48 318.36 514.32 316.09 504.88C314.82 499.57 314.81 494.04 313.89 488.69C315.08 488.93 314.92 489.93 315.09 490.81C316.98 500.82 318.41 510.51 325.65 518.27C326.17 518.83 328.94 521.93 329.58 521.28C328.56 518.72 326.17 516.73 324.86 514.24C321.65 508.14 320.57 498.89 320.5 492.04C320.5 491.61 320.9 485.77 321.73 486.89C322.14 492.64 322.36 499.76 324.29 505.15C324.56 505.91 325.08 507.88 325.95 508C326.7 503.35 326.13 498.62 326.57 493.83C328.65 470.96 334.71 450.02 345.04 429.64C346.38 427 347.95 423.73 350.09 421.72C345.99 431.57 340.84 440.83 337.41 450.97C330.46 471.53 327.05 494.23 330.19 515.85C331.04 516.74 331.29 515.79 331.39 514.95C331.92 510.75 331.12 505.47 331.39 501.07C331.95 492.03 333.9 479.94 336.65 471.34C337.05 470.1 337.48 467.63 338.61 466.98C336.15 482.25 333.76 497.61 334.37 513.16L335.6 522.48C336.3 510.98 336.69 499.93 338.8 488.57C339.84 482.97 341.56 474.91 343.37 469.61C343.64 468.82 343.54 467.77 344.65 467.58C344.26 476.99 341.17 486.22 340.44 495.64C339.81 503.84 339.28 515.92 339.8 524.02C339.86 524.88 339.87 527.19 341.03 527.31C341.26 514.1 342.27 501.52 344.84 488.58C347.6 474.72 352.98 457.19 358.24 444.05C360.36 438.77 362.89 432.83 366.37 428.35L353.41 460.94C351.64 469.35 349.22 477.66 347.85 486.15C345.6 500.1 344.97 513.81 345.87 527.91C346.92 528.05 346.44 526.54 346.47 525.81C346.58 523.2 346.32 520.57 346.47 517.97C347.44 501.3 351.64 480.75 357.65 465.19C357.77 464.88 358.49 462.13 359.14 463.06C354.55 480.85 351.21 498.97 350.65 517.38L351.89 527.91C352.28 496.13 362.39 465.07 374.83 436.2C375.96 436.08 375.33 437.43 375.14 438.02C372.35 446.49 368.62 454.71 365.95 463.22C359.55 483.64 355.63 505.21 356.73 526.7C357.71 526.82 357.42 524.92 357.5 524.17C358.19 517.74 358.3 511.26 359.3 504.84C362.57 483.97 370.22 464.04 376.64 444.04C377.71 443.89 377.23 445.4 377.1 446C374.51 457.93 369.44 469.99 366.68 482.04C364.54 491.36 362.52 502.96 362.13 512.49C362.04 514.73 361.88 518.26 362.15 520.37C362.26 521.2 362.61 522.27 363.36 521.27C364.19 498.94 371.22 477.61 378.46 456.71C379.58 456.57 378.91 457.92 378.79 458.55C377.71 464.36 375.21 469.64 373.8 475.29C370.66 487.85 367.66 503.87 368.19 516.75C368.22 517.48 367.73 518.99 368.79 518.85C370.75 495.21 378.92 472.86 386.59 450.66L387.51 450.97C383.61 464.29 378.66 477.88 376.2 491.56C375.24 496.87 374 504.23 374.23 509.51C374.26 510.24 373.77 511.75 374.82 511.61C378.64 488.54 386.59 466.42 394.75 444.64L395.3 446.09C391.41 459.41 386.68 472.64 383.45 486.14C381.74 493.28 379.68 501.32 379.95 508.59L392.31 467.85C395.49 458.87 398.92 449.98 402.43 441.13C402.79 440.21 402.08 439.5 403.79 439.81C398.8 456.52 392.5 472.9 388.4 489.88C386.87 496.23 384.64 505.05 383.95 511.38C383.86 512.18 383.32 515.06 384.47 515.23C384.42 514.2 384.45 513.21 384.77 512.2C390.18 495.22 394.82 478.02 400.75 461.2C403.15 454.4 406.28 447.85 408 440.81L409.82 440.41C403.03 462.12 395.2 483.69 390.7 506.06C389.95 509.77 388.97 513.87 389 517.63C391.57 512.43 392.19 506.32 393.83 500.74C398.93 483.38 406.62 457.47 414.38 441.61C414.8 440.74 414.25 440.1 415.85 440.4C412.22 453.78 407.14 466.77 403.35 480.09C400.8 489.04 397.69 499.97 396.09 509.04C395.84 510.45 395.64 512.42 395.51 513.89C395.45 514.55 394.79 515.94 395.93 515.82C396.85 511.93 397.22 507.89 398.33 504.04C404.56 482.46 414.21 460.88 421.45 439.67C430.09 414.35 437.62 386.56 445.11 360.75C446.98 354.31 449.85 345.64 450.68 339.16C450.76 338.5 451.35 337.08 450.25 337.22C441.35 370.6 429.49 403.18 417.65 435.57C416.62 435.73 417 434.12 417.1 433.52C418.47 425.36 423.04 413.53 425.67 405.28C433.9 379.46 443.79 354.1 449.63 327.57C448.7 326.42 447.22 330.27 447.04 330.71C442.38 342.6 439.37 357.1 435.16 369.52C429.37 386.6 422.91 405.81 416.3 422.46C415.03 425.65 413.31 428.69 412.21 431.95C410.94 431.7 412.3 428.54 412.53 427.74C422 393.62 437.35 361.36 446.01 326.97C444.31 325.07 440.39 335.18 440.13 335.87C433.7 352.89 428.1 370.45 421.86 387.6C417.06 400.79 413.16 414.33 407.38 427.13C406.31 427.28 406.79 425.77 406.92 425.17C412.19 401.04 426.21 374.59 433.61 350.48C434.79 346.62 436.14 342.46 436.34 338.44C433.11 341.21 432.33 346.56 430.6 350.5C430.01 351.85 428.98 352.91 428.39 354.32C419.05 376.27 412.3 399.35 402.55 421.1L425.48 352.92C422.64 355.91 420.69 360.41 418.93 364.17C416.84 368.64 414.63 373.88 412.71 378.46C406.98 392.1 402.26 406.25 396.52 419.89C395.4 420.03 396.07 418.68 396.19 418.05C397.14 413.11 399.88 406.09 401.53 401.06C405.71 388.31 410.3 375.63 415.23 363.17C412.69 365.82 410.33 370.38 408.69 373.82C402.05 387.67 396.97 402.88 390.49 416.87C389.36 417 390.02 415.65 390.16 415.04C393.49 400.4 400.41 386.62 404.37 372.23L385.07 412.95C384.2 413.92 384.48 412.38 384.6 411.89C387.11 402 391.67 390.31 396.02 381.06C398.6 375.58 401.94 370.52 404.38 364.98C392.42 377.1 387.28 394 379.98 409.06C379.85 409.33 378.45 412.11 378.46 409.95C384.81 389.95 393.05 371.66 407.1 355.92C410.68 351.91 415 348.48 418.58 344.47C419.87 343.03 421.81 340.82 422.49 339.03C418.33 343.02 413.82 346.65 409.8 350.79C402.83 357.95 394.35 367.52 389.21 376.04C383.62 385.31 379.93 395.86 373.92 404.8C373.46 404.89 373.53 404.22 373.63 403.91C378.61 388.21 389.45 368.12 400.46 355.92C410.4 344.91 422.04 335.35 430.94 323.35L428.83 324.55C414.3 340.06 396.74 354.01 385.2 372.03C380.23 379.79 374.92 393.55 369.69 399.97C369.45 400.27 369.2 400.65 368.8 400.58C367.55 398.92 382.69 370.17 385.19 366.59C396.4 350.54 413.47 337.55 426.1 322.42C427.07 321.26 429.34 318.82 428.84 317.31L421.3 323.34C422.53 320.11 426.71 319.74 425.52 315.5ZM508.79 327.56C507.81 325.35 505.18 325.3 503.33 324.27C500.07 322.45 497.13 320.01 493.7 318.52C497.84 322.44 503.24 325.93 508.78 327.56H508.79ZM458.71 333.6C456.42 333.67 456.19 338.27 455.87 340.11C450.56 370.43 457.28 400.82 455.08 430.44C453.71 448.93 444.52 469.13 439.41 486.87C440.75 486.2 441.3 484.33 441.92 483.05C445.18 476.35 448.01 469.12 450.54 462.1C453.62 453.54 456.88 443.9 458.12 434.98C459.94 436.14 458.89 440.52 458.56 442.36C457.35 449.03 454.91 457.34 452.99 463.94C450.78 471.49 448.06 478.86 445.45 486.26C447.02 486.55 446.51 485.97 446.93 485.06C453.31 471.24 459.37 456.88 461.14 441.61C462.22 442.03 461.82 445.18 461.76 446.16C461.08 457.92 457.64 468.88 453.88 479.92C454.51 480.89 454.59 479.47 454.8 479.04C460.41 467.87 465.55 453.86 466.55 441.3C467.25 432.45 466.04 422.79 466.57 413.86L468.97 426.23C469.44 441.64 467.11 457.05 462.95 471.78C463.46 472.46 464.99 468.81 465.19 468.29C470.38 454.36 471.11 437.41 471.32 422.68L466.57 395.15C468.1 394.88 467.66 395.38 468.05 396.35C471.62 405.3 475.08 424.19 476.73 434.16C484.45 480.82 449.77 508.47 416.43 532.97C416.11 533.2 414.23 533.61 415.29 534.52C416.45 535.52 434.06 521.64 436.08 520.02C451.72 507.44 466.96 493.82 474.71 474.78C487.08 444.4 469.5 399.01 464.34 367.51L461.14 334.8C458.46 334.27 460.68 339.57 460.27 340.24L458.13 340.83L458.73 333.6H458.71ZM341.04 338.43L335.76 339.47L327.17 342.64L330.22 342.38L341.04 338.43ZM350.1 338.43C347.47 338.72 344.7 339.17 342.13 339.81C341.07 340.07 338.57 340.51 338.03 341.44C341.45 340.98 344.94 340.18 348.28 339.32C348.96 339.15 350.24 339.35 350.09 338.43H350.1ZM508.79 493.49C513.85 484.62 514.77 474.9 514.25 464.81C513.13 443.28 505.77 423.66 499.37 403.72C494.2 387.61 484.6 374.64 479.21 358.66C478.36 356.13 475.17 342.43 474.03 342.09C472.24 342.51 468.82 342.78 468.36 344.75L468.38 346.26L471.72 343.84C475.67 345.72 471.31 349.44 468.38 347.47C468.62 364.76 476.19 380.55 482.75 396.15C488.48 409.77 496 422.8 499.15 437.37C500.22 437.2 499.82 434.23 499.77 433.43C499.63 431.38 499.06 429.27 498.72 427.24L482.26 387.29C483.71 388.31 484.7 390.71 485.38 392.31C494.97 415.05 505.31 432.78 504 458.82C503.75 463.72 502.37 468.34 500.96 472.97C502.35 472.19 503.18 469.63 503.66 468.13C506.33 459.71 505.41 450.24 507 441.6C507.88 441.49 508.09 443.19 508.14 443.76C510.03 462.09 509.81 477.69 500.69 494.13C500.33 494.78 497.08 499.39 496.74 498.92C496.74 495.47 500.09 493.03 500.95 489.56L499.76 489.27C498.25 491.89 492.83 500.83 490.39 501.93C490.07 502.07 489.37 502.05 489.5 501.64L493.11 496.2L491.92 495.92C491.32 498.12 482.93 506.46 481.05 504.96L484.66 500.43C484.76 499.98 484.03 500.02 483.77 500.14C482.56 500.68 479 504.83 477.4 505.84C474.11 507.91 468.45 508.72 465.96 512.2C471.06 511.27 476.29 508.84 481.36 507.99C483.12 507.7 480.75 509.83 482.54 509.18C490.74 506.22 499.1 503.68 507.31 500.76C525.71 494.23 533 491.59 537.46 471.18C543.35 444.22 536.76 417.38 523.98 393.53L502.16 360.15C502.33 362.5 503.8 364.74 504.86 366.8C517.84 392.21 538.89 422.45 535.87 452.7C535.78 453.59 535.69 456.67 534.14 456.09C533.03 441.48 529.95 426 524.48 412.35C522.97 408.58 520.81 403.74 518.45 400.58C525.16 416.14 531.2 432.6 532.32 449.76C533.1 461.73 533.13 479.4 523.88 488.07C531.97 468.98 529.09 445.34 523.7 425.79C522.22 420.4 520.6 414.04 517.24 409.63C519.14 415.64 521.46 421.49 523.1 427.6C527.46 443.87 530.88 468.42 522.96 483.83C522.53 484.67 518.26 491.57 517.24 490.48C517.95 486.01 520.61 482.2 521.77 477.82C525.71 462.83 522.12 437.29 517.41 422.43L514.83 416.87C520.14 436.36 528.01 464.24 518.15 483.25C517.46 484.59 510.58 495.2 508.79 493.49ZM505.77 381.27L485.87 351.71C488.28 363.85 497.86 372.53 505.77 381.27ZM505.77 387.9L493.35 370.45L490.09 366.78C491.74 370.6 494.77 376.52 497.42 379.66C499.81 382.51 503.48 384.84 505.77 387.9ZM485.25 436.78C484.17 420.19 480.91 401.38 475.01 385.78C474.15 383.51 473.3 380.32 471.38 378.85L478.44 403.46L485.25 436.77V436.78ZM404.4 503.75C417.86 463.9 435.07 424.89 441.81 383.08L430.97 417.18C422.38 439.86 414.36 462.88 407.72 486.25C406.45 490.74 404.66 496.7 403.96 501.2C403.86 501.85 403.26 503.85 404.4 503.76V503.75ZM429.75 453.07C432.65 435.73 441.8 417.8 443.03 400.28C443.12 398.97 442.48 399.16 442.11 399.97C440.27 403.94 438.84 412.07 437.26 416.84C433.17 429.25 428.21 441.39 424.15 453.82C418.65 470.67 413.81 487.86 409.23 504.96L427.63 458.5C428.27 457.44 429.22 458.46 429.03 459.28L415.85 503.15C421.55 489.55 427.07 475.86 432.45 462.12C437.54 449.14 441.63 433.76 444.54 419.9C445.62 414.76 446.7 409.46 446.62 404.19L432.66 448.45L429.73 453.06L429.75 453.07ZM423.72 496.52C425.06 495.85 425.61 493.98 426.23 492.7C429.51 485.92 432.73 477.64 435.47 470.56C442.5 452.35 448.5 433.46 449.65 413.85L423.72 496.51V496.52ZM430.34 496.51C436.06 481.63 443.65 467.29 448.15 451.86C450.86 442.56 453.41 432.57 451.46 422.9L448.16 439.19C444.3 452.97 440.29 466.82 435.61 480.35C434.05 484.86 431.03 490.33 430.01 494.67C429.87 495.28 429.21 496.64 430.34 496.51ZM484.66 479.02C498.13 465.55 495.68 446.09 492.49 428.94C491.41 428.8 491.9 430.3 491.97 430.97C493.16 443.86 494.45 457.21 489.34 469.52C487.99 472.77 485.49 475.51 484.66 479.02ZM479.23 488.67C481.27 488.11 483.29 486.34 484.95 485.04C499.52 473.63 502.05 458.05 499.14 440.41C498.24 440.69 498.01 443.53 497.95 444.34C497.61 448.86 498.3 453.61 497.87 458.14C496.6 471.4 488.49 480.12 479.24 488.68L479.23 488.67ZM246.92 544.18C241.66 539.89 234.12 538.66 227.81 535.84C202.6 524.59 188.56 504.49 181.43 478.43C181.29 477.91 181.27 476.72 180.55 477.5C179.83 478.31 179.48 479.33 179.17 480.34C177.38 486 173.41 499.25 173.92 504.66C174.55 511.34 181.15 525.27 185.96 530.03C186.78 530.84 188.97 532.98 190.21 532.42C184.05 525.8 179.82 516.65 178.82 507.6C178.73 506.8 178.19 503.92 179.34 503.75C181.62 515.26 188.68 526.08 195.75 535.31C198.59 539.02 200.2 540.31 204.64 542.11C205.52 542.47 206.4 542.47 205.89 541.46C205.73 541.14 201.49 537.74 200.48 536.61C192.69 527.85 183.75 514.15 181.43 502.56C181.28 501.82 180.55 495.16 182.36 497.1C183.33 503.8 187.08 510.44 191.17 515.76C191.93 516.75 197.88 523.43 198.37 523.65C198.63 523.77 199.36 523.8 199.26 523.36C194.19 517.11 189.4 510.28 186.88 502.55C186.69 501.96 186.05 500.61 187.19 500.73C190.41 509.43 198.87 517.94 205.9 523.96C217.74 534.12 232.59 538.75 246.94 544.16L246.92 544.18ZM153.99 528.5V518.54C153.99 518.43 154.96 517.47 155.19 517.64C155.91 520.03 155.91 522.61 156.58 525.01C156.78 525.75 157.31 527.8 158.22 527.9V518.25C159.94 517.98 159.23 518.6 159.51 519.64C160.03 521.55 160.02 523.59 160.64 525.48L161.83 524.28C161.62 526.65 162.08 529.48 164.24 530.91C163.77 527.81 162.6 524.73 162.41 521.58C162.34 520.41 161.76 517.02 163.64 517.64L164.25 523.67L165.44 522.47C165.22 525.81 166.55 529.81 169.06 532.12L167.27 522.15L167.86 517.03C168.88 521.93 170.1 527.31 173.9 530.9L170.3 517.31L171.49 507.97L173.01 518.22L176.92 526.67C175.16 519.1 173.07 511.58 172.7 503.74C171.31 503.46 171.73 503.89 171.34 504.51C170.5 505.86 168.05 513.07 166.97 513.41C166.68 513.5 165.45 513.61 165.45 513.09L166.36 503.75C163 506.42 159.09 509.35 155.38 511.47C149.88 514.62 141.82 516.77 137.15 519.79C132.48 522.81 134.08 528.57 136.5 532.7H137.7C135.89 529.72 135.77 526.96 136.5 523.65L138.34 523.92L139.5 526.67L140.1 523.06C140.43 525.4 139.18 529.27 141.31 530.9C141.5 529.63 140.7 522.44 142.22 522.47L146.14 530.9L144.94 520.39L146.46 519.44L147.37 524.86L149.17 522.45C149.21 523.93 149.06 525.42 149.25 526.9C149.35 527.65 149.5 530.19 150.38 530.29C151.23 526.33 148.33 521.68 150.69 518.23L154.01 528.48L153.99 528.5ZM476.81 511.61C471.9 512.68 467.14 513.34 462.73 515.93C461.8 516.47 460.73 518.34 459.92 517.34L461.12 515.83C440.67 521.89 425.18 539.01 408.57 551.67L388.11 564.69C390.35 564.72 392.89 563.71 394.89 562.73C412.25 554.18 427.33 538.46 443.54 527.51C446.84 525.28 455.2 519.31 458.41 518.24C458.71 518.14 459.4 518.08 459.3 518.53C452.83 522.77 447 527.96 440.79 532.6C437.74 534.88 434.19 536.69 431.01 539.11C421.28 546.51 412.96 556.28 401.39 561.08C401.27 562.23 402.6 561.56 403.21 561.39C410.51 559.25 416.97 553.65 422.79 548.99C438.06 536.78 453.39 523.71 471.32 515.45L476.81 511.6V511.61ZM254.76 549.62C242.37 546.64 229.27 541.88 217.94 536.05C214.89 534.48 212.08 532.23 208.9 530.91C207.45 532.19 224.59 540.9 225.81 541.44C232.48 544.4 245.67 549.64 252.66 550.2C253.32 550.25 254.91 550.65 254.75 549.61L254.76 549.62ZM161.69 539.5L139.51 533.93C140.91 537.47 161.47 541.89 162.44 541.16C162.22 540.76 161.85 539.61 161.69 539.5ZM569.13 535.74H554.04C553.69 536.2 555.26 536.95 555.55 536.95H567.62C567.9 536.95 568.55 536.2 569.12 536.34V535.74H569.13ZM257.78 555.05C241.27 552.64 226.33 544.91 211.32 538.15C220.5 546.12 232.85 550.29 244.5 553.24C244.66 554.25 243.03 553.9 242.37 553.86C240.12 553.73 237.82 553.03 235.57 552.8C234.91 552.73 233.52 552.09 233.64 553.22C240.22 554.7 247.08 555.3 253.82 555.67C254.63 555.71 257.59 556.1 257.77 555.04L257.78 555.05ZM288.55 546.6C288.85 545.33 287.87 545.23 287.18 544.65C285.11 542.91 282.04 540.98 279.5 539.97C281.65 543.08 285.29 544.87 288.54 546.6H288.55ZM195.63 549.01C188.33 547.34 180.89 546.2 175.41 540.57C174.56 542.63 178.17 543.27 178.73 544.79L168.47 541.18C169.95 542.83 173.02 544.26 175.11 545.09C187.99 550.19 206.86 553.15 220.67 552.64C221.4 552.61 222.92 553.09 222.77 552.04C215.09 550.06 207.48 545.93 199.88 543.85C199.3 543.69 197.32 543.02 197.43 544.18L213.11 550.82C205.64 552.09 198.9 547.36 192.24 546.04C191.76 545.95 190.11 545.78 191.1 546.6L195.62 549.01H195.63ZM458.11 587.03C469.36 579.41 479.54 568.9 486.58 557.28C489.47 552.52 493.37 546.05 493.7 540.57L491.31 543.42C483.91 556.75 476.02 570.24 464.76 580.7C463.94 581.46 457.25 586.06 458.12 587.03H458.11ZM570.94 542.98H583.31C584.03 542.98 587.67 545.05 587.23 542.38C582.48 542.32 577.8 542.19 573.05 542.38C572.31 542.41 570.81 541.93 570.95 542.98H570.94ZM400.78 542.38C389.98 545.44 379.19 549.18 367.92 550.25C363.14 550.7 358.2 550.2 353.43 550.2C352.73 550.2 351.16 549.8 351.31 550.82C364.46 553.36 377.24 550.43 389.92 546.9C392.74 546.11 397.06 545.04 399.58 543.86C400.48 543.44 401.08 543.96 400.78 542.38ZM391.13 571.34C380.67 575.23 368.42 578.68 357.2 576.6C335.44 572.57 321.13 558.43 306.05 543.58C305.79 544.71 306.68 545.02 307.25 545.69C312.07 551.4 319.21 558.22 325.07 562.87C338.74 573.71 351.82 579.1 369.7 577.97C376.53 577.54 385.77 575.64 391.13 571.34ZM377.85 559.28C363.76 560.51 347.56 560.69 334.41 554.75C331.6 553.48 329.1 550.84 325.96 550.23C338.37 561.28 358 562.77 373.85 560.4C374.81 560.26 377.48 560.14 377.85 559.28ZM475.01 594.87C478.09 595.71 482.29 594.89 484.97 595.18C486.17 595.31 488.63 596.66 490.62 596.91C503.37 598.53 519.87 599.25 532.59 597.24C540.63 595.97 544.95 587.21 539.9 580.38C535.74 574.75 527.49 569.65 522.35 564.7C522.52 561.86 523.65 559.58 523.3 556.55C522.26 547.47 505.95 550.01 505.81 552.33C505.65 555.02 508.77 553.82 509.64 553.91C510.27 553.97 512.46 554.15 512.42 555.05C502.8 556.08 503.54 565.16 500.97 572.26L496.74 581C502.49 577.37 502.55 569.56 505 564.25C505.36 563.46 506.27 563.5 506.31 563.4C506.54 562.86 505.74 562.16 505.88 561.77C505.91 561.7 506.72 561.68 506.98 561.26C508.78 558.3 513.35 553.48 516.64 556.85C508.4 558.4 508.14 568.89 505.28 575.37C500.49 586.21 493.48 589.27 482.99 593.51L475 594.87H475.01ZM493.1 556.26H491.03C484.48 564.96 478.99 574.58 470.79 581.91C464.87 587.2 456.81 593.66 448.46 592.45L452.08 590.05C446.28 592.1 441.12 590.44 435.19 590.64L436.39 589.74L426.14 588.22L427.94 587.03L420.1 587.62L436.07 577.95L438.2 575.56C437.57 574.98 432.95 579.3 431.98 579.9C423.12 585.34 412.88 584.56 402.89 585.82C401.8 585.96 401.9 585.59 401.99 587.02C426.28 588.28 448.41 600.93 472.91 593.68C488.76 588.99 494.47 580.25 500.37 565.62C500.97 564.14 501 562.3 501.69 560.91C502.58 559.12 504.98 558.36 505.17 556.25L494.72 561.79C484.74 569.71 482.35 579.32 471.32 587.26C467.04 590.34 464 592.61 458.42 593.06L458.11 591.85C465.46 588.63 471.37 582.28 477.43 577.07L493.1 556.24V556.26ZM350.7 568.93C346.23 567.84 341.09 566.32 337.02 564.2C334.02 562.64 331.53 559.98 328.38 558.67C332.6 564.17 340.82 568.01 347.53 569.38C348.17 569.51 350.72 570.09 350.7 568.93Z" fill="black"/>
<path d="M509.4 608.76C507.54 610.98 502.87 609.77 500.02 609.94C452.91 612.76 404.15 611.32 357.14 610.8C353.81 610.76 349.57 611.66 346.15 611.22C344.96 611.07 345.16 610.25 344.67 609.37L509.4 608.77V608.76Z" fill="black"/>
<path d="M496.12 617.19L403.85 617.43L404.79 615.34C410.38 617.47 416.01 615.48 421.58 615.36C442.73 614.89 463.85 616.45 484.99 616.02C488.02 615.96 495.25 613.57 496.12 617.19Z" fill="black"/>
<path d="M394.15 615.99C394.28 617.91 392.83 617.72 391.47 617.83C380.98 618.7 364.68 618.38 354 617.83C351.37 617.69 348.68 616.73 345.88 617.2V615.4C346.73 615.04 347.69 616 347.99 616H394.15V615.99Z" fill="black"/>
<path d="M223.99 579.78C218.06 579.66 212.1 579.95 206.17 579.81C204.58 579.77 203.09 579.19 201.37 579.13C198.75 579.03 194.38 580.96 192.01 577.98L222.48 577.37C223.97 577.64 224.16 578.33 223.99 579.78Z" fill="black"/>
<path d="M457.81 622.63C458.06 622.66 459.54 623.22 459.32 623.83C445.86 623.6 432.58 625.26 419.18 623.83C418.39 623.74 417.6 624.44 417.38 624.43C416.48 624.4 416.48 622.69 417.38 622.66C417.6 622.66 418.31 623.32 419.14 623.23C419.73 623.16 420.24 622.64 420.4 622.64C431.15 622.64 447.87 621.25 457.81 622.64V622.63Z" fill="black"/>
<path d="M222.78 585.21C216.18 586.65 209.19 585.6 202.56 585.22C200.04 585.08 197.1 585.52 194.71 585.22C193.88 585.11 192.85 584.8 193.81 584.02C196.97 582.85 199.72 584.14 202.55 584.06C208.46 583.91 214.73 582.67 220.69 583.38C221.9 583.52 222.94 583.65 222.77 585.21H222.78Z" fill="black"/>
<path d="M393.85 629.87C394.32 629.93 395.14 630.68 395.92 630.52L395.96 632.28H371.82V629.87C378.7 630.53 387.17 628.98 393.84 629.87H393.85Z" fill="black"/>
<path d="M195.93 570.74C196.03 570.77 197.42 572.14 197.43 572.25C195.88 573.94 192.46 573.47 191.71 571.34C191.35 572.85 188.96 573.11 187.48 573.16C184.83 573.24 181.18 572.65 178.46 572.53C175.74 572.41 169.02 573.85 168.48 570.75H195.93V570.74Z" fill="black"/>
<path d="M300.62 604.53L301.51 603.32C307.59 603.36 313.54 602.48 319.64 602.7C323.63 602.84 324.12 602.89 328.03 602.68C330.53 602.54 333.11 602.87 335.62 602.73V604.54H300.62V604.53Z" fill="black"/>
<path d="M402.59 632.89L402.63 630.52C404.9 629.82 418.13 629.35 418.88 630.48C419.22 630.99 418.59 632.89 417.98 632.89H402.59Z" fill="black"/>
<path d="M593.26 521.25C593.35 521.19 592.94 520.14 594.42 519.71C597.11 518.93 600.25 519.6 602.93 520.06C603.1 521.63 602.06 521.75 600.85 521.9C594.57 522.64 586.48 521.62 580 521.87V520.06C581.56 520.3 584.53 519.12 584.24 521.26H584.83C585.59 516.89 592.87 521.52 593.27 521.26L593.26 521.25Z" fill="black"/>
<path d="M392.23 622.73L392.94 624.43C387.29 623.67 381.5 624.9 375.71 624.47C374.68 624.39 373.71 624.54 373.03 623.53C378.92 621.63 386.01 622.98 392.23 622.73Z" fill="black"/>
<path d="M670.5 532.12L669.59 533.93H654.2V532.73C654.78 532.88 655.48 532.12 655.71 532.12H670.49H670.5Z" fill="black"/>
<path d="M639.73 559.87C636.88 560.94 633.17 559.4 630.96 559.55C628.6 559.71 625.1 561.87 622.23 559.58C624.45 557.18 626.77 558.69 629.14 558.7C632.25 558.71 637.58 557.74 639.72 559.87H639.73Z" fill="black"/>
<path d="M272.87 603.32C275.73 603.49 278.75 603.45 281.64 603.35C282.88 603.31 284.35 602.61 285.25 602.7C287.2 602.89 287.47 605.1 284.82 605C283.46 604.95 279.02 604.14 278.26 604.2C276.75 604.32 273.24 606.91 272.88 603.33L272.87 603.32Z" fill="black"/>
<path d="M528.1 508.59C529.29 506.13 532.59 507.92 534.36 507.8C538.14 507.53 539.38 506.79 543.94 507.54C544.49 507.63 545.75 507.8 545.6 508.59H528.1Z" fill="black"/>
<path d="M327.77 610.56H310.27L315.99 608.86C319.59 610.38 325.03 607.82 327.76 610.56H327.77Z" fill="black"/>
<path d="M368.8 623.23L367.9 624.44L351.92 623.53C352.65 622.41 353.53 622.7 354.6 622.6C359.3 622.17 364.06 623.81 368.8 623.23Z" fill="black"/>
<path d="M245.11 599.1C244.13 598.36 245.12 598.01 246 597.89C248.02 597.63 250.43 598.01 252.6 597.84C254.47 597.69 258.17 595.11 257.78 599.09H245.11V599.1Z" fill="black"/>
<path d="M627.36 577.98C627.59 578.04 628.45 579.04 628.26 579.18C624.55 580 620.85 579.65 617.09 579.18C615.99 579.04 616.11 579.41 616.19 577.98C619.27 578.49 624.61 577.28 627.35 577.98H627.36Z" fill="black"/>
<path d="M590.85 513.42C591.69 514.29 590.79 514.52 589.95 514.63C587.29 514.97 583.52 513.92 580.59 514.62C579.86 511.73 590.46 513.02 590.84 513.43L590.85 513.42Z" fill="black"/>
<path d="M219.16 599.09C220.1 596.67 222.76 598.55 224.19 598.31C225.39 598.11 227.13 595.89 228.81 598.2C229.41 601.08 220.64 598.59 219.16 599.09Z" fill="black"/>
<path d="M410.44 623.23V624.44H398.37V622.63C398.59 622.33 399.15 623.23 399.28 623.23H410.44Z" fill="black"/>
<path d="M509.4 616.59C506.41 617.12 500.82 618.36 498.54 616C501.68 615.43 504.55 615.67 507.72 615.79C508.43 615.82 509.06 615.16 509.4 616.59Z" fill="black"/>
<path d="M563.7 497.12L557.47 497.02L556.46 495.32C558.9 495.13 563.05 493.48 563.69 497.12H563.7Z" fill="black"/>
<path d="M629.47 521.25L622.84 521.85C622.44 517.93 631.18 519.37 629.47 521.25Z" fill="black"/>
<path d="M269.24 597.89C269.43 599.36 269.23 598.84 268.4 599.15C266.35 599.93 264.64 599.78 262.6 599.08C262.91 595.79 267.2 597.75 269.24 597.89Z" fill="black"/>
<path d="M610.77 521.85L605.75 521.75L604.74 520.05C607.46 519.23 609.82 518.54 610.77 521.85Z" fill="black"/>
<path d="M653 533.92C651.51 533.85 649.96 534.03 648.47 533.92C647.57 533.86 646.72 534.39 646.98 533.02C647.97 530.98 652.91 531.17 653.01 533.91L653 533.92Z" fill="black"/>
<path d="M563.1 502.55L557.47 502.45L556.46 500.74L562.09 500.85L563.1 502.55Z" fill="black"/>
<path d="M620.42 564.71C620.89 567.51 615.27 566.54 614.98 565.61L615.33 564.09L620.42 564.71Z" fill="black"/>
<path d="M568.53 508.59H559.48C560.31 506.36 562.39 508.01 563.87 507.87C565.45 507.71 568.22 505.17 568.53 508.59Z" fill="black"/>
<path d="M552.24 501.35C553.09 502.23 552.19 502.44 551.35 502.55C549.56 502.78 547.45 502.39 545.61 502.55C545.05 499.95 551.59 500.68 552.24 501.36V501.35Z" fill="black"/>
<path d="M297 605.13H292.48C291.49 605.01 292.67 602.42 293.67 602.27C294.72 603.27 297.18 603.28 297 605.13Z" fill="black"/>
<path d="M601.11 514.62C599.65 514.11 598.46 514.49 597.13 514.51C596.24 514.53 594.83 515.28 595.08 513.72C596.36 512.28 601.18 511.96 601.1 514.61L601.11 514.62Z" fill="black"/>
<path d="M395.96 616C397.18 616.14 403.11 615.42 403.19 616.9C403.25 617.96 398.88 617.57 398.3 617.45C397.39 617.26 396.21 617.09 395.96 616Z" fill="black"/>
<path d="M662.66 519.45V521.26C660.88 521.08 658.56 521.96 657.24 520.36C658.56 518.76 660.88 519.63 662.66 519.46V519.45Z" fill="black"/>
<path d="M648.78 559.87C646.57 559.68 643.98 560.15 641.83 559.87C640.95 559.76 639.96 559.41 640.94 558.67C643.29 559.09 647.3 557.54 648.78 559.87Z" fill="black"/>
<path d="M295.8 537.54L296.69 536.34C300.85 540.45 303.01 546.07 306.4 550.77C313.4 560.47 323.52 566.8 332.59 574.35C324.8 571.53 318.26 566.73 312.07 561.39C299.94 550.93 290.01 536.69 285.25 521.23C285.01 520.46 283.62 517.29 284.91 517.04L295.79 537.55L295.8 537.54Z" fill="black"/>
<path d="M444.23 545.4C438.4 552.89 431.3 559.35 423.55 564.84C415.8 570.33 405.75 576.24 396.42 579.34C391.01 581.14 385.41 582.66 379.67 582.8L383.57 580.97C399.17 575.75 416.96 566.85 430.3 557.11C434.54 554.02 438.12 549.97 442.12 546.6C442.8 546.03 443.1 545.14 444.23 545.4Z" fill="black"/>
<path d="M289.76 559.87C283.51 558.77 277.08 555.07 271.71 551.68C261.51 545.25 248.95 534.43 242.22 524.45C241.66 523.62 240.74 522.95 240.89 521.86C249.15 530.76 258.49 538.89 268.45 545.88C275.41 550.77 283.34 554.37 289.76 559.86V559.87Z" fill="black"/>
<path d="M252.95 430.14C254.84 421.94 257.8 413.95 261.48 406.4C264.45 400.31 268.33 393.42 272.85 388.51C270.03 395.18 265.98 401.28 262.91 407.83C259.84 414.38 257.69 422.89 254.79 428.67C254.35 429.55 254.25 430.39 252.94 430.14H252.95Z" fill="black"/>
<path d="M257.18 434.36C260.43 422.81 264.81 410.02 271.18 399.79C272.1 398.31 273.07 396.58 274.67 395.75C271.86 403.23 267.87 410.15 264.74 417.49C262.69 422.29 261.29 428.42 259.03 432.89C258.59 433.77 258.49 434.61 257.18 434.36Z" fill="black"/>
<path d="M315.1 341.45C313.32 343.61 310.04 344.31 307.66 345.77C297.44 352.08 288.58 360.17 280.1 368.59L287.02 359.53C295 352.11 304.73 344.93 315.09 341.44L315.1 341.45Z" fill="black"/>
<path d="M263.21 436.18C265.48 426.65 267.97 415.61 274.06 407.82L263.21 436.18Z" fill="black"/>
<path d="M233.64 504.96C227.37 496.07 223.84 485.04 222.79 474.19C223.66 474.05 223.63 475.25 223.81 475.87C225.03 480.1 225.89 484.47 227.34 488.64C229.25 494.16 232.16 499.29 233.65 504.95L233.64 504.96Z" fill="black"/>
<path d="M355.53 345.67L351.31 348.09L352.51 349.28C349.79 349.21 347.36 351.92 344.97 352.31C343.44 352.56 344.46 351.72 344.67 351.1L341.65 351.69C341.95 350.81 343.84 349.96 344.67 349.59C347.93 348.11 352.05 346.66 355.53 345.67Z" fill="black"/>
<path d="M338.63 355.33L336.16 357.38L320.53 366.78C325.47 361.99 332.14 357.82 338.63 355.33Z" fill="black"/>
<path d="M328.37 351.71L325.36 352.92L326.56 354.11L315.7 358.94C318.52 355.13 323.76 352.52 328.37 351.71Z" fill="black"/>
<path d="M208.29 481.43C207.34 480.95 206.42 479.01 205.96 478.04C204.74 475.51 203.83 472.62 202.88 469.97C205.39 472.92 207.17 477.66 208.3 481.43H208.29Z" fill="black"/>
<path d="M329.58 355.33C326.6 358.03 322.49 360.01 318.72 361.35C321.7 358.65 325.81 356.67 329.58 355.33Z" fill="black"/>
<path d="M190.79 480.22L188.47 469.59L188.39 465.75L190.73 476.98L190.79 480.22Z" fill="black"/>
<path d="M319.93 462.73C323.3 443.88 330.95 424.59 342.85 409.63L319.93 462.73Z" fill="black"/>
<path d="M324.75 474.19C323.52 473.88 324.2 470.77 324.32 469.83C325.87 457.6 331.56 442.83 336.91 431.73C338.94 427.52 341.11 422.91 344.06 419.28C336.6 437.38 328.56 454.78 324.75 474.19Z" fill="black"/>
<path d="M403.8 342.66C398.66 347.86 393.77 353.36 388.71 358.64C383.04 364.56 374.68 371.66 369.7 377.64C365.64 382.52 363.1 388.9 358.55 393.34C359.19 391.37 360.55 388.84 361.67 387.11C370.79 372.92 385.38 360.44 396.85 348.07L403.8 342.66Z" fill="black"/>
<path d="M300.61 475.4C299.57 475.17 299.39 474.24 299.38 473.31C299.3 463 304.12 450.4 306.22 440.27L309.66 432.55L300.61 475.39V475.4Z" fill="black"/>
<path d="M340.45 460.31C342.39 449.49 347.28 438.62 351.99 428.72C353.08 426.42 354.28 423.37 356.12 421.7L340.44 460.32L340.45 460.31Z" fill="black"/>
<path d="M347.07 463.33C346.74 463.66 345.77 463.73 345.99 462.55C347.56 454.12 351.24 446.15 354.22 438.18L360.35 426.52L347.07 463.32V463.33Z" fill="black"/>
<path d="M374.23 426.53L359.15 462.12C361.8 450.7 366.64 438.24 372.39 428.01C372.86 427.18 372.87 426.25 374.22 426.53H374.23Z" fill="black"/>
<path d="M409.23 527.3C423.02 520.06 434.72 509.02 447.53 500.12L456.89 491.09C457.15 492.22 456.26 492.53 455.69 493.2C450.45 499.42 442.2 505.59 435.71 510.63C427.62 516.92 419.22 522.97 410.42 528.2L409.23 527.29V527.3Z" fill="black"/>
<path d="M362.78 398.77C366.33 388.98 371.88 379.69 378.46 371.62L372.54 382.89L362.79 398.78L362.78 398.77Z" fill="black"/>
<path d="M502.76 494.7C504.39 489.18 507.31 484.19 508.61 478.53C509.91 472.87 510.01 466.65 510.67 460.68C510.75 459.98 510.94 457.37 511.8 457.29C513.64 467.23 513.75 478.73 508.9 487.87C508.49 488.64 503.87 495.92 502.76 494.69V494.7Z" fill="black"/>
<path d="M506.37 432.55L496.73 407.81C498.06 408.48 498.62 410.35 499.24 411.63C502.23 417.82 505.59 425.83 506.37 432.55Z" fill="black"/>
<path d="M474.94 355.97L475.34 358.33C474.55 359.04 472.95 359.99 471.95 359.28L471.44 356.58L474.94 355.97Z" fill="black"/>
<path d="M470.18 353.51L470.27 350.59C475.19 348.24 474.81 354.1 470.18 353.51Z" fill="black"/>
<path d="M478.62 367.39C478.92 369.52 477.97 371.28 475.61 371.01L475.26 367.97L478.62 367.39Z" fill="black"/>
<path d="M459.91 348.08L460.51 360.14L458.93 359.24C459.47 357.58 458.77 356.05 458.71 354.44C458.68 353.52 459.32 352.64 459.31 352.04C459.31 351.64 458.11 351.97 458.02 350.82C457.91 349.49 458.19 347.88 459.89 348.08H459.91Z" fill="black"/>
<path d="M461.72 369.2H459.92V360.76C462.05 362.39 460.88 366.69 461.72 369.2Z" fill="black"/>
<path d="M459.91 346.27L457.56 345.6L458.11 341.44L460.23 342.62L459.91 346.27Z" fill="black"/>
<path d="M442.42 276.87L438.59 275.58L426.14 269.04C432.04 270.36 438.02 272.61 442.43 276.87H442.42Z" fill="black"/>
<path d="M401.99 244.3C401.66 244.19 399.53 240.96 398.97 240.38C397.67 239.05 384.36 226.34 385.7 224.99C386.95 225.21 388.81 226.76 389.71 227.61C395.29 232.87 400.22 239.07 405.9 244.31C406.96 245.29 408.27 245.92 409.23 247.01C407.3 247.8 405.1 244.55 403.81 244.03C403.11 243.75 402.23 244.37 401.99 244.29C402.18 244.43 404.96 246.38 402.91 246.09C393.77 241.14 384.85 234.17 379.67 224.99C380.86 224.71 381.1 225.6 381.73 226.25C387.91 232.66 393.61 238 400.49 243.72C401.02 244.16 401.78 244.14 402 244.3H401.99Z" fill="black"/>
<path d="M376.04 232.83C368.37 226.43 360.61 219.65 356.13 210.51C356.76 209.91 358.42 211.83 358.85 212.31C362.09 215.92 364.13 221.66 368.51 223.72L376.03 232.83H376.04Z" fill="black"/>
<path d="M391.73 241.27C387.38 239.88 382.91 236.26 380.01 232.78C378.87 231.41 377.32 229.07 376.65 227.4L391.73 241.27Z" fill="black"/>
<path d="M519.05 558.67C519.93 559.51 513.59 567.45 512.79 568.99C511.21 572 507.35 580.64 506.4 583.72C506.3 584.03 506.23 584.7 506.69 584.61C509.98 583.17 513.05 568.44 515.74 568.93C517.13 569.18 516.14 570.43 516.02 571C514.31 579.34 512.9 585.17 505.37 589.92C498.66 594.16 493.22 595.78 485.28 594.26L495.35 589.56C499.98 586.46 503.41 582.05 505.7 576.98C508.74 570.28 509.34 557.42 519.06 558.67H519.05Z" fill="black"/>
<path d="M520.86 576.16L519.67 574.96C519.94 577.49 519.05 579.88 518.14 582.19C516.96 585.18 514.91 587.24 513.63 590.04C514.84 590.22 515.96 588.19 516.62 587.31C520.1 582.7 521.77 576.78 522.68 571.12C523.19 569.97 525.32 571.3 525.49 572.24C523.35 578.99 523.04 586.49 517.85 591.86C518.48 592.46 520.4 590.29 520.88 589.77C524.64 585.64 526.11 578.63 526.3 573.16C528.78 574.17 528.27 577.77 528.09 580.09C527.5 587.74 522.58 595.31 514.51 596.08L515.12 593.67C513.01 594.57 511.33 596.48 508.79 596.08C509.01 594.85 511.86 593.92 510.9 592.47C507.5 596.06 503.37 596.81 498.53 596.69C498.19 595.07 498.96 595.65 499.72 595.19C506.4 591.18 512.52 588.16 515.55 580.23C516.63 577.41 516.78 570.16 518.7 568.9C523.05 566.06 520.69 574.16 520.84 576.17L520.86 576.16Z" fill="black"/>
<path d="M531.12 588.23C534.25 588.46 533.21 581.97 533.53 581.6C536.95 582.05 534.94 588.11 534.74 590.64C536.54 589.27 537.35 586.68 536.55 584.61C539.31 586.02 539.5 588.12 538.21 590.81C535.66 596.14 525.79 594.96 520.85 595.47C526.17 590.08 530.55 584.21 529.91 576.17C533.87 577.36 530.57 587.59 531.11 588.23H531.12Z" fill="black"/>
<path d="M537.75 255.16C538.04 256.43 537.06 256.52 536.38 257.1C531.76 261.02 525.34 265.34 519.65 267.22L537.75 255.16Z" fill="black"/>
<path d="M516.03 265.41C521.01 260.12 527.29 256.61 532.92 252.14C533.93 253.25 527.53 257.59 526.84 258.42L516.03 265.41Z" fill="black"/>
<path d="M497.33 563.5C496.61 575.36 489.78 584.49 479.52 590.04C477.95 590.89 479.89 587.85 478.33 588.84C477.52 589.35 477.22 590.15 475.94 590.68C474.76 591.16 466.85 593.45 466.56 593.06C465.72 591.93 467.3 591.83 467.69 591.49C472.86 587 477.79 584.12 482.56 578.59C486.61 573.88 488.97 568.32 493.42 564.1L488.75 575.74C486.89 577.31 485.75 579.6 484.55 581.78C484.3 582.24 483.35 583.74 484.67 583.11C486.01 581.78 486.84 579.49 487.87 578.16C492.28 572.45 492.29 570.76 495.5 564.98C495.97 564.14 496.01 563.24 497.33 563.5Z" fill="black"/>
<path d="M625.25 304.04C623.08 307.84 618.09 308.47 615.6 311.87C622.05 310.8 625.97 305.15 632.78 304.61C633.46 304.56 636.13 304.18 636.12 305.23C627.21 308.23 618.49 313.83 608.97 314.29C608.59 312.63 609.52 313.26 610.18 312.81C614.97 309.48 619.28 305.3 625.26 304.04H625.25Z" fill="black"/>
<path d="M617.41 305.25C617.25 306.05 616.39 306.48 615.8 306.95C614.51 307.97 607.52 312.97 606.53 313.37C604.97 314 603.34 313.64 601.73 313.69L610.35 307.54L617.41 305.26V305.25Z" fill="black"/>
<path d="M423.11 303.42C419.64 302.37 417.46 299.9 417.08 296.19C418.34 295.92 418.45 296.84 419.02 297.56C420.48 299.4 421.72 301.53 423.11 303.42Z" fill="black"/>
<path d="M592.36 304.64C590.66 304.88 588.25 306.33 586.63 307.05C589.03 300.81 598.3 302.95 603.52 303.44C603.76 304.08 601.53 304.64 601.41 304.64C598.69 304.64 594.87 304.28 592.36 304.64Z" fill="black"/>
</g>
<defs>
<clipPath id="clip0_8061_335">
<rect width="541.5" height="465.89" fill="white" transform="translate(129 167)"/>
</clipPath>
</defs>
</svg>
