<svg width="800" height="800" viewBox="0 0 800 800" fill="none" xmlns="http://www.w3.org/2000/svg">
<g clip-path="url(#clip0_8061_341)">
<path d="M304.53 601.328C303.276 600.286 303.175 598.879 300.643 598.477C298.298 598.101 300.768 600.914 300.279 601.316L295.377 600.55L295.327 598.477L296.731 598.138L294.273 596.343C292.079 596.029 293.784 600.688 291.089 599.909L288.606 594.245L287.49 597.033L284.03 597.083C284.657 594.484 282.337 592.776 280.105 592.123C277.623 591.395 280.13 594.974 280.306 595.476C281.647 599.105 277.196 595.087 276.344 594.823L276.218 589.988C275.215 589.963 274.388 589.712 273.736 590.691C273.147 591.558 273.962 594.271 272.344 593.53C270.288 592.588 272.47 590.378 271.354 588.896C270.915 588.318 268.169 586.66 267.73 587.15V589.988H265.611C265.887 587.715 264.596 585.907 263.129 584.325C261.436 585.731 260.282 587.866 261.361 589.976H259.242C260.709 588.444 259.041 580.519 257.123 582.177L254.991 585.015L255.693 581.474L253.587 582.893L253.512 580.13L251.807 579.352C250.904 579.389 250.34 584.299 247.92 583.584C248.359 582.19 250.152 578.498 248.672 577.531C245.312 575.346 245.889 579.703 243.682 580.758C243.607 578.108 244.447 575.32 241.889 573.675L240.196 576.086L238.015 576.501L237.877 572.746C235.933 568.866 234.742 575.295 234.115 575.082C231.896 574.316 235.181 571.842 235.168 570.837L231.557 570.498C231.106 570.247 231.57 566.768 228.461 567.258L227.683 568.753L225.263 567.974C226.969 564.834 223.809 563.265 221.025 563.039L220.323 566.58L219.96 561.582C218.568 560.251 216.499 559.824 215.007 558.769C187.122 539.128 166.585 516.775 155.676 483.433C153.608 477.104 151.777 465.262 149.182 460.151C147.364 456.572 142.562 452.252 140.004 448.773C105.198 401.542 99.33 356.384 129.509 304.406C140.756 285.041 164.353 260.691 183.938 249.703C186.696 248.158 192.351 246.476 194.119 245.006C196.162 243.299 197.228 239.707 198.733 237.572C202.807 231.82 208.174 228.505 214.618 225.818C219.12 223.947 227.457 222.741 230.843 220.782C233.3 219.363 234.893 215.369 236.924 213.398C246.791 203.803 257.361 206.805 268.307 203.69C271.83 202.686 275.943 197.688 279.529 195.779C283.114 193.87 290.249 191.785 294.286 191.409C297.859 191.082 305.445 192.476 307.539 191.974C309.833 191.409 316.504 185.67 320.34 184.175C326.848 181.639 332.69 181.262 339.524 182.254C342.545 182.693 346.532 184.678 349.454 184.301C351.422 184.05 357.215 180.333 360.124 179.34C366.807 177.055 372.925 176.414 379.884 178.009C382.392 178.587 386.617 181.073 388.56 181.274C390.855 181.5 397.249 178.298 400.146 177.57C406.54 175.962 413.398 175.284 419.831 177.03C423.416 177.997 429.297 181.94 431.729 182.179C434.488 182.455 439.114 179.805 442.362 179.428C450.612 178.461 456.868 179.592 464.354 182.769C466.284 183.598 471.024 186.838 472.165 187.013C475.312 187.491 483.788 185.23 489.53 185.921C499.699 187.139 503.799 194.159 509.015 195.478C520.587 198.429 526.305 194.335 539.169 202.158C547.093 206.968 548.61 207.558 557.136 211.112C566.051 214.842 569.386 221.284 575.968 224.863C584.67 229.61 597.998 227.438 604.104 238.526C605.107 240.347 605.458 243.261 606.574 244.554C607.853 246.024 614.674 249.377 617.043 251.085C680.838 297.185 714.289 363.642 666.256 436.278C661.83 442.984 650.608 455.316 648.853 462.135C647.687 466.631 651.925 464.182 652.225 464.433C651.285 465.89 650.533 466.204 651.523 467.962L649.755 466.53C647.474 466.568 645.906 470.737 648.69 471.152L645.856 475.045C647.047 476.263 649.292 469.958 650.809 472.91L645.856 475.76C645.856 477.594 649.179 476.288 649.392 476.464L647.26 482.127L645.154 480.005C645.33 483.22 647.185 486.07 645.844 489.223L643.022 487.816C643.963 489.876 647.022 490.729 646.558 493.48C644.377 493.656 643.963 491.081 642.659 489.938L641.593 493.065C642.797 493.58 647.386 499.269 646.558 499.859L639.487 497.021L638.747 500.876L640.226 501.668L639.437 503.714L640.891 504.455C639.086 508.06 637.719 506.553 634.522 505.535C634.045 507.306 635.963 507.118 636.44 507.846C636.967 508.637 636.979 510.822 637.343 511.902L632.39 510.496C632.027 510.885 633.819 514.427 633.97 514.59C634.371 514.979 635.111 514.665 635.374 514.791C637.493 515.77 633.544 517.026 632.754 518.119L628.842 515.469L629.544 518.294L626.723 518.659L632.378 519.713L630.472 522.476L626.723 521.132C626.159 524.372 628.867 523.443 627.438 526.809C629.732 524.9 634.02 524.41 633.794 528.228C631.425 529.27 631.625 526.093 629.908 526.093C629.042 526.093 630.534 529.132 627.776 528.228C626.673 525.98 625.206 523.782 622.472 523.267C622.096 525.063 623.952 524.825 624.579 525.942C625.67 527.889 625.482 530.25 623.2 531.053L620.341 526.809C619.275 526.583 619.476 527.939 619.651 528.567C620.291 530.827 623.551 533.176 623.889 536.026C622.635 536.554 621.745 534.607 621.407 534.632C620.604 534.67 620.742 537.609 618.937 536.755C619.075 534.846 617.307 532.46 615.376 532.146C616.467 534.168 617.282 538.01 618.235 539.743C618.811 540.786 621.62 542.293 621.758 544.541C620.579 545.746 617.094 539.593 616.793 539.229C612.291 533.741 611.953 536.905 614.285 541.74L618.912 549.514C617.921 550.581 613.896 543.385 612.893 543.134C611.953 545.935 610.511 544.754 611.827 542.431L609.771 543.084L607.59 540.296L611.113 551.649L607.577 549.514L608.994 547.404C606.737 548.848 605.032 545.671 603.69 543.85C602.01 545.081 603.063 545.043 603.465 546.186C604.455 548.986 605.22 551.962 607.577 553.771C602.938 555.918 602.662 549.011 598.374 548.107L598.713 550.104L600.493 550.933L598.374 552.716C601.647 553.959 599.227 554.838 600.869 556.622L602.976 555.906L603.327 557.325L600.18 558.781C599.791 556.295 596.769 557.136 596.368 556.521C595.779 555.604 596.506 552.075 593.421 552.377L594.45 558.781L598.374 560.163C597.572 560.288 596.355 560.276 595.691 560.653C594.525 561.306 595.24 562.411 594.136 562.298L592.381 558.066L589.948 559.937L590.224 563.729L587.403 560.188C585.886 561.142 586.425 563.679 585.711 564.734C585.234 565.425 581.799 564.558 583.867 567.974C584.557 569.104 588.093 569.255 585.272 571.528C583.052 571.955 581.385 567.585 580.971 565.889C580.595 564.345 582.538 562.574 579.981 563.014C580.62 565.575 578.99 565.801 577.862 567.635L580.695 566.567L578.551 570.498L580.67 572.62C579.241 578.837 575.843 570.347 575.73 567.283L573.962 571.528L572.909 568.702L574.313 580.042C570.778 577.518 571.442 571.842 568.659 569.406L569.348 576.488L568.295 574.366L567.229 579.326L569.348 577.92L568.634 582.165C564.521 582.052 566.301 575.006 562.264 575.773L563.668 574.002L562.264 572.947C561.838 575.119 560.296 577.518 563.004 578.284L561.549 582.88L563.681 583.245L561.901 586.409C561.123 586.409 558.064 579.917 558.703 578.623L556.597 580.745V577.204C553.487 579.05 556.471 582.629 556.584 584.726C556.81 589.172 552.146 586.447 553.011 582.705L550.227 579.339C550.641 582.077 549.626 586.321 550.227 588.795C550.353 589.298 553.362 589.524 549.864 592.801L546.679 590.327L548.058 588.28C547.544 585.166 543.72 587.778 545.927 583.898L544.711 583.508C544.322 582.843 546.591 581.022 543.858 581.474V594.22C545.262 594.296 546.378 593.655 545.977 595.639L542.441 596.368C543.72 593.354 540.573 591.571 540.46 591.294C540.347 591.018 541.037 589.737 540.761 588.519C540.46 587.188 537.652 586.723 538.893 583.609L537.489 589.637L539.608 597.799L536.423 593.542L534.668 597.083C536.009 593.191 534.304 594.836 533.389 593.052C532.26 590.867 534.191 587.451 531.821 587.866V599.57C531.821 599.884 533.765 600.788 533.238 602.044L529.74 601.29L530.292 599.997L528.988 599.218H530.392V597.799C528.01 598.013 530.279 592.877 526.167 594.961V590.001L524.925 596.041L526.167 604.179L522.18 598.967L520.851 595.677C517.804 597.51 518.343 600.675 520.487 603.111L517.704 604.154C517.44 602.961 516.086 598.879 514.494 599.218L513.077 605.598L509.88 604.179L510.607 602.056L508.475 602.031C509.002 600.6 508.626 597.121 507.059 596.38V608.084C507.059 608.599 505.253 608.649 507.761 609.503L505.642 610.571L504.864 607.444L506.344 606.326L503.811 605.648C504.501 604.995 502.934 601.115 501.755 601.353C499.297 601.868 501.968 607.695 501.379 608.436L497.805 608.109L495.373 602.056L493.58 604.53L495.022 606.301H493.618V607.72L495.009 607.745C493.48 607.783 494.533 615.167 492.188 613.384C492.113 613.321 492.665 612.329 492.364 611.5C491.173 608.235 490.408 605.523 489.706 602.044L488.628 609.842L486.521 607.004L487.925 613.384H485.104C486.157 610.671 484.753 608.926 484.39 606.289C480.891 605.761 485.631 610.445 482.283 609.842L480.866 604.166L481.556 614.087C481.406 614.288 478.409 612.367 478.033 611.601C477.193 609.868 480.177 611.437 480.139 610.194L477.318 609.114L478.033 607.72H475.901L476.603 614.803L473.143 613.308L473.77 609.842L471.663 613.384C470.873 611.663 472.742 608.386 469.532 608.423C469.03 610.169 472.102 615.795 468.83 615.506C468.403 614.376 468.065 611.764 467.463 610.96C466.911 610.219 465.595 610.722 465.369 610.483C464.742 609.83 466.159 606.979 464.579 606.992L463.802 615.205C463.526 616.423 466.372 616.096 465.269 617.628C465.169 617.767 462.009 616.913 461.896 616.787C460.467 615.217 460.855 609.051 458.197 607.695C457.207 611.048 459.226 615.644 457.119 618.332C455.74 618.621 453.859 612.053 453.307 610.784C452.881 609.805 453.972 608.712 451.815 609.127L452.518 622.589H448.982L450.286 619.5C445.245 616.373 450.198 612.693 446.863 609.83C448.518 613.484 446.261 611.312 445.434 611.965C446.9 615.067 442.638 620.052 446.186 621.609L445.082 624.033C441.672 623.367 443.014 620.215 442.562 618.018C442.211 616.335 441.747 613.258 440.456 612.944L441.196 609.855L439.114 609.88L438.324 613.007L439.716 613.698L438.362 624.749C437.121 625.98 436.067 622.526 436.18 621.66C436.293 620.793 438.939 620.931 438.362 619.073L435.165 619.098C433.923 617.829 436.544 613.961 434.463 613.396C431.805 612.668 431.215 616.888 433.409 617.289C428.983 619.412 434.613 624.761 429.874 624.033C430.513 621.735 429.159 620.115 428.808 618.294C428.607 617.252 429.121 615.644 429.009 615.155C428.958 614.928 426.852 613.723 427.379 611.262C425.184 610.96 427.216 612.63 426.877 613.271C425.899 615.092 425.247 615.217 425.184 618.595C425.172 619.261 426.739 625.615 424.57 624.736C420.495 623.079 426.476 619.173 422.79 617.654L421.373 619.073L422.113 615.933L420.62 615.129L421.385 613.057L419.254 613.396L421.373 611.287H418.539V624.046C412.37 624.159 417.172 621.886 417.122 621.584C416.621 618.495 412.922 615.795 414.289 611.977H412.17V619.788L408.697 619.713L407.919 611.99H405.8L405.036 619.751L401.55 619.788V612.706H398.002C398.654 613.66 400.71 619.248 398.353 619.098C393.237 618.771 396.033 617.126 395.456 614.79C395.018 613.02 392.66 610.86 391.632 613.384L393.751 614.803H390.918L391.532 616.599L390.153 618.281L388.774 617.955C387.457 616.071 389.752 612.593 387.72 611.99C384.222 610.948 385.589 615.996 385.952 617.654L383.131 616.247L382.78 617.654C380.824 616.699 382.053 611.801 380.649 611.274C377.752 610.194 379.295 614.2 378.781 615.782C378.668 617.076 375.445 617.44 375.333 616.586V611.613L371.797 611.99L373.226 613.748L371.421 616.988C370.154 617.214 368.788 616.247 368.361 615.079C367.609 613.032 369.427 613.547 369.565 613.334C370.681 611.55 366.757 610.86 365.427 611.287L367.546 613.396C365.101 613.283 366.105 616.41 364.362 617.641C360.776 615.355 364.587 609.604 359.058 610.571V616.247L356.237 615.506L356.939 612.002L354.795 611.638L356.224 609.868L353.729 609.164L353.98 613.622C353.165 615.657 351.773 615.406 349.993 614.665C349.065 612.668 349.592 610.998 350.545 609.164C347.673 608.361 346.721 608.449 344.89 610.935L347.711 613.409L342.044 614.125C341.668 611.638 343.711 610.269 344.865 608.461L339.925 607.758L339.097 611.902L336.377 612.002C335.612 609.328 337.279 609.842 337.781 608.122L333.543 607.055L334.96 609.88L331.775 611.299C329.681 610.32 331.574 607.695 331.123 607.017C330.797 606.527 327.525 605.058 326.81 606.351L328.59 608.109L327.826 609.855C327.512 610.006 327.199 609.918 326.86 609.893C322.309 609.441 325.418 605.924 323.914 604.857L319.375 604.229C318.685 606.778 320.616 606.15 321.494 607.77L319.124 608.361C317.319 608.084 316.779 601.843 314.059 602.119C313.77 602.144 312.441 605.749 309.47 604.229C311.538 599.583 307.677 600.914 304.517 601.403C305.746 602.421 306.686 603.074 308.053 603.89L306.962 605.648C305.558 606.012 300.116 603.45 302.047 601.391C302.849 601.316 303.74 601.516 304.517 601.391L304.53 601.328ZM162.56 349.565H173.18C174.484 349.565 178.371 351.197 179.9 351.687C180.214 350.268 179.198 350.042 178.308 349.389C174.496 346.551 165.619 345.885 160.892 345.898L160.09 343.173C166.472 342.319 172.59 341.841 178.847 343.888C179.7 343.826 178.847 343.122 178.508 342.808C175.311 339.694 161.632 337.032 156.73 334.834C155.752 334.395 155.614 334.746 155.839 333.252L159.287 333.402L159.388 334.658L160.378 333.315C167.751 334.03 174.471 335.336 181.33 338.212C180.377 334.043 162.234 330.426 162.221 329.359C167.688 325.717 175.361 329.133 180.841 331.268C181.355 331.468 183.11 332.775 182.395 331.129C177.042 326.056 170.446 325.441 163.851 323.419C162.698 323.067 161.858 323.996 162.209 321.912C164.165 321.171 173.957 321.987 174.96 321.573C175.249 321.447 175.85 320.681 175.662 320.493L169.769 319.074L169.293 316.939L179.913 319.764C177.43 316.926 172.804 315.218 170.045 312.996C169.218 312.33 168.328 311.84 168.591 310.559L185.58 316.587L177.581 310.421L165.77 304.896C173.443 303.175 179.562 307.056 186.295 309.844C182.471 304.858 175.976 303.452 171.437 299.571C171.5 296.557 179.662 299.634 181.33 300.287C184.878 301.693 187.774 304.142 191.26 305.586C187.172 300.551 181.342 297.725 176.026 294.246C175.412 293.393 176.803 292.903 177.455 292.802C184.289 291.81 190.896 299.119 196.927 301.329L180.653 288.219C180.527 286.046 186.307 288.394 187.197 288.746C190.934 290.203 193.918 292.84 197.629 294.246L183.474 281.123C191.185 280.935 197.855 287.34 203.999 291.408C204.312 290.077 203.259 289.726 202.594 288.922C198.244 283.723 190.508 278.549 184.176 276.502C184.226 275.221 183.699 275.033 185.078 275.271C187.197 275.648 188.903 275.372 190.821 275.811C195.836 276.967 199.359 280.445 203.999 282.166C202.569 280.307 200.826 278.373 199.046 276.841C197.842 275.799 188.765 270.662 193.379 269.721C198.432 268.703 204.325 275.774 208.951 277.193C210.293 275.849 199.121 267.611 198.344 266.192L199.46 264.459C203.096 263.504 215.057 273.94 218.154 276.489C218.656 275.937 215.584 272.207 214.982 271.516C211.684 267.661 207.221 263.781 203.296 260.528C202.996 258.996 204.011 259.448 205.077 259.448C210.631 259.436 218.091 267.573 222.392 270.826C219.935 264.258 213.352 260.089 208.588 255.229C207.923 254.802 209.026 253.948 209.365 253.86C214.33 252.504 223.734 262.789 227.357 265.865C226.241 262.55 223.044 258.557 220.649 255.932C218.254 253.307 213.528 251.047 213.214 247.43C215.647 245.082 230.116 257.966 232.322 260.189C232.774 259.687 228.034 253.571 227.357 252.767C224.298 249.163 220.298 246.287 217.465 242.47C226.329 245.22 232.749 250.494 238.704 257.351C238.566 254.689 236.084 251.989 234.441 249.929C232.799 247.87 223.521 240.222 225.263 238.213L236.222 245.32L245.086 253.81C242.466 246.438 235.419 242.043 231.633 235.387C238.529 236.542 243.456 242.52 248.622 246.727C249.976 245.145 239.281 234.784 238.729 232.888C238.416 231.808 238.792 231.733 239.757 231.846C244.234 232.373 248.609 238.162 251.819 241.051L252.271 239.782L253.574 240.347L245.086 224.738L263.48 241.754L254.289 225.441C255.781 225.052 256.195 225.893 257.135 226.483C261.862 229.485 266.903 234.47 269.159 239.619C270.288 239.82 269.912 238.69 269.711 237.999C268.871 235.073 257.775 219.903 258.527 219.049C265.16 224.009 270.651 228.995 275.165 236.065C275.767 234.96 274.4 232.75 273.899 231.67C271.416 226.383 267.216 221.925 265.611 216.211C271.128 221.033 277.497 225.504 280.481 232.511C281.484 232.574 282.187 232.85 281.823 231.532C281.133 229.007 272.796 216.851 273.397 216.211C280.582 218.672 284.23 225.717 288.957 231.105C288.243 228.92 287.252 226.295 286.261 224.235C285.095 221.812 282.024 217.969 281.184 215.834C280.795 214.842 281.334 214.641 282.249 214.767C287.365 215.482 291.013 225.755 294.624 228.957C293.157 221.372 289.847 214.289 285.434 208.036C285.284 207.558 286.098 207.521 286.487 207.696C287.766 208.274 294.574 216.048 295.653 217.668L301.709 228.254C301.307 220.242 296.192 213.486 293.22 206.277C294.549 205.976 294.9 207.031 295.69 207.696C300.781 211.916 305.031 219.288 307.388 225.428L308.793 224.386L299.941 203.452C306.887 208.689 310.548 214.767 314.272 222.452C314.736 223.419 313.82 224.411 315.864 224.009C313.908 216.286 310.485 208.965 306.661 202.033L312.341 206.114L322.233 221.171L317.996 204.871C324.127 206.24 324.553 214.566 328.603 218.346L325.08 199.911C329.568 203.917 331.374 210.246 333.957 215.508C334.458 216.525 333.794 217.291 335.687 216.927L331.449 197.072C336.79 201.078 338.057 208.123 340.815 213.574C341.216 214.352 341.868 215.307 342.771 215.508L337.831 194.234C342.846 199.559 346.746 207.018 348.451 214.089C350.444 214.503 349.98 213.172 349.792 211.677C349.115 206.554 346.558 200.827 345.617 195.641C346.771 194.423 350.708 201.053 351.147 201.807C353.316 205.537 354.419 209.668 356.601 213.373L355.535 199.195C359.234 199.747 359.597 203.766 360.538 206.466C360.713 206.956 361.679 207.018 361.716 207.131C361.942 207.659 360.462 212.845 364.023 212.669L362.619 194.95C367.571 198.579 366.255 207.094 370.393 211.263C370.856 209.191 368.186 193.531 370.756 193.544C372.436 196.018 373.214 199.358 374.129 202.209C375.044 205.059 375.145 209.203 377.477 210.56C377.84 204.243 377.151 197.989 376.749 191.785C376.699 191.019 376.298 189.098 377.477 189.286C378.329 191.848 379.357 194.322 380.11 196.934C381.188 200.601 381.552 205.461 382.58 208.651C382.893 209.618 383.545 210.045 384.561 209.856V195.678C389.313 197.223 387.871 204.645 389.864 208.437C394.29 206.629 389.1 196.57 394.466 194.975L396.948 210.572L400.045 194.511L401.199 192.137C403.957 195.339 402.691 199.835 403.067 203.741C403.23 205.423 403.468 209.103 405.086 209.856C406.189 204.293 406.44 197.864 407.832 192.438C408.183 191.07 408.145 188.759 410.051 189.286V205.248L412.17 209.153L416.069 187.88C418.439 189.801 416.358 192.539 416.42 194.611C416.571 199.421 417.762 204.796 417.135 209.856H419.254C420.157 208.965 419.191 193.117 424.094 198.215L424.557 211.263C425.648 210.447 428.294 193.795 431.278 197.085C432.243 201.279 430.112 207.182 430.551 210.911C430.664 211.891 431.002 213.021 431.98 211.979C432.833 206.993 434.412 202.096 436.143 197.349C436.469 196.444 436.318 195.176 437.635 194.95C439.164 197.474 436.08 212.569 436.933 213.398H439.052L442.086 199.76L446.838 189.99C445.684 197.914 443.804 206.114 444.368 214.101C447.214 209.907 447.954 203.904 449.671 198.843C450.925 195.138 452.63 191.409 454.336 187.892L453.47 186.549C448.43 186.197 443.089 185.883 438.174 187.34C435.052 188.269 432.895 191.132 429.498 191.446C417.875 180.37 401.838 181.789 389.25 190.58C380.411 183.196 368.951 182.04 359.02 188.194C356.463 189.776 354.018 193.456 351.61 193.606C348.213 193.82 342.997 189.852 339.524 189.324C329.606 187.817 318.146 191.045 313.419 200.438C302.411 197.776 287.591 196.922 279.34 206.265C278.362 207.383 278.475 209.015 277.121 209.718C271.968 212.381 263.429 211.1 257.511 212.067C255.355 212.418 248.66 213.95 246.992 214.829C244.397 216.186 239.306 225.177 236.347 227.036C232.849 229.246 226.254 228.844 221.828 230.213C217.063 231.695 207.685 237.572 205.064 241.792C203.723 243.939 203.836 246.476 202.707 248.648C199.548 254.664 183.511 254.211 182.746 263.04L184.514 261.621C186.006 264.095 181.305 262.801 182.032 265.149C184.652 264.923 185.68 267.008 185.567 269.407C173.506 266.857 167.788 272.684 166.459 284.3C166.71 284.527 172.227 282.731 172.829 285.004C167.513 284.84 165.732 285.795 162.924 290.341L164.328 292.099C161.845 291.521 157.357 295.352 156.554 297.436C155.689 299.672 159.965 297.21 161.043 297.273C161.707 297.311 165.431 298.303 165.757 299.194C162.598 298.642 160.867 299.91 158.335 301.342L159.388 299.219C157.67 298.792 157.557 300.777 156.491 301.631C153.67 303.866 148.843 304.707 149.483 309.14C151.84 308.45 155.075 308.311 157.507 308.738C158.798 308.964 159.764 308.851 159.388 310.559C154.41 309.492 147.74 309.266 148.768 316.236C150.548 317.064 151.978 314.302 152.642 314.289C152.83 314.289 155.839 315.595 155.852 316.236C153.206 315.369 153.194 317.24 152.504 317.642C149.533 319.325 148.668 318.308 148.066 322.628L153.332 321.912L153.733 323.695C148.053 325.855 144.38 329.71 141.772 335.123C140.606 337.559 139.239 341.502 139.201 343.901C141.32 340.159 146.173 339.794 150.172 338.941C150.448 340.485 149.483 340.611 148.392 341.05C144.655 342.545 140.731 342.331 139.565 347.442C141.057 346.978 148.705 342.972 148.053 346.362L138.173 349.59L138.148 353.106C141.182 351.712 141.095 352.993 143.439 354.249L149.132 351.687L149.508 353.056L150.874 353.106L151.953 350.984L154.423 352.767C152.617 352.704 141.145 357.74 140.944 358.456C140.819 358.883 141.057 359.649 140.982 360.201C145.032 359.222 149.997 360.39 154.423 360.201L145.934 362.336L147.339 363.743L144.166 362.336L143.101 365.877H147.339L142.399 368.025L142.762 369.444L155.852 366.606C155.3 368.176 152.366 367.485 151.113 368.238C150.072 368.866 143.602 375.736 143.126 376.903C142.95 377.33 143 378.096 143.464 377.946C147.125 375.849 153.232 372.056 157.269 374.756C157.231 375.635 142.812 382.052 145.596 386.46C148.492 383.007 153.595 381.186 157.996 380.796C156.78 382.354 148.492 386.247 148.066 387.528C147.828 388.231 147.715 389.675 149.119 389.273C150.925 388.758 153.445 387.214 155.664 386.586C156.742 386.284 156.78 385.091 157.996 386.812C154.673 389.223 151.338 391.069 150.937 395.678L160.128 390.014L153.47 397.888L151.639 401.354C156.191 398.805 160.027 393.832 165.795 394.271L158.711 401.002L156.228 406.314C160.027 402.61 164.29 398.34 170.045 398.528C165.669 402.873 159.45 407.62 158.723 414.125C162.284 410.27 165.895 405.586 171.098 404.192C172.603 405.674 170.384 405.636 169.707 406.314C166.484 409.542 163.036 414.54 162.259 419.098C164.93 416.951 166.02 413.987 168.691 411.714C169.782 410.785 175.437 406.327 176.415 408.826C171.788 412.016 165.293 419.701 167.224 425.478L170.873 418.872C177.129 412.003 186.37 408.386 194.821 404.908C193.742 401.392 189.266 399.194 185.618 399.947L187.737 398.541C184.088 398.014 179.938 398.127 177.129 395.339C177.054 393.53 185.793 394.547 187.022 395.69C187.335 390.943 174.785 391.948 174.283 391.433V389.323C177.668 388.118 181.317 389.009 184.564 388.595C185.542 388.469 186.658 388.181 185.618 387.188C181.417 386.485 177.292 386.196 173.192 385.054C172.064 384.74 171.098 385.82 171.462 383.635H184.915C183.474 379.051 169.744 381.299 168.641 379.013C168.002 377.695 171.174 377.418 171.901 377.33C175.086 376.966 177.756 377.594 180.678 377.657C181.743 377.682 182.42 378.009 182.784 376.539C179.148 374.869 170.647 375.083 167.663 373.714C166.698 373.274 168.177 370.524 164.378 371.554L167.212 370.85L160.842 366.945C159.914 364.647 164.428 366.882 164.98 366.932C166.911 367.121 169.255 366.392 171.45 367.309L163.663 365.187L167.199 363.077C164.566 363.19 163.425 362.324 162.961 359.523L179.236 362.349C178.897 361.118 176.264 360.766 175.148 360.427C171.149 359.234 166.923 358.217 162.735 357.979L161.544 355.982C168.089 354.751 174.17 356.647 180.653 357.049C175.236 353.219 168.491 353.068 162.221 352.101L162.598 349.602L162.56 349.565ZM458.197 196.369L460.266 189.713C455.464 184.037 453.521 193.858 452.743 197.65C451.665 202.887 451.276 208.751 451.126 214.101C454.637 210.648 454.148 203.716 456.643 199.421C457.207 198.441 457.52 197.524 458.912 197.801L458.21 213.398C460.379 213.071 463.087 199.082 465.984 202.058L464.918 216.236C467.726 211.715 468.052 205.65 472.353 202.058C472.754 206.265 470.986 210.309 470.911 214.44C470.886 215.909 470.247 218.233 472.353 217.655C474.321 210.309 477.895 201.681 482.672 195.716C483.336 194.887 483.825 193.996 485.104 194.259C481.343 199.308 477.556 210.371 477.318 216.613C477.28 217.68 476.829 218.66 478.359 218.358C480.841 213.8 482.459 209.04 485.205 204.62C487.211 201.392 486.646 201.97 488.076 198.303C488.853 196.294 490.496 195.515 490.759 193.556C482.108 191.949 474.748 193.405 466.422 195.628L465.169 191.547L462.874 190.768C461.044 191.145 461.545 197.688 458.21 196.382L458.197 196.369ZM492.89 204.871C493.003 200.501 501.065 196.532 493.668 194.988C489.229 200.94 486.897 206.579 485.142 213.787C484.966 214.49 482.86 222.854 485.079 221.184L490.408 209.819L493.568 209.882C494.307 210.861 490.395 220.242 490.094 222.301C489.881 223.771 489.731 224.298 491.449 224.022C492.351 221.121 498.207 209.266 500.451 208.563C501.416 208.262 502.507 208.437 503.498 208.425C504.137 209.003 497.542 221.824 497.241 224.562C497.078 226.044 497.542 226.998 499.235 226.86C500.514 222.917 502.821 218.848 505.328 215.57C506.093 214.566 509.842 209.203 511.284 210.547C508.438 216.575 504.814 222.502 504.2 229.334L505.617 229.686L523.333 203.452C517.804 202.184 515.911 206.73 512.362 209.831C512.049 206.943 516.65 205.26 517.678 202.749L503.987 204.092C502.043 203.477 501.993 198.542 500.338 199.207C499.072 199.71 494.583 206.428 492.89 204.871ZM530.417 206.315C527.571 203.263 521.089 210.71 519.509 212.745C517.816 214.905 509.967 229.874 511.309 231.117C513.115 232.8 514.318 228.354 514.983 227.35C517.44 223.67 520.048 220.079 522.343 216.286L530.417 206.303V206.315ZM535.37 209.141C533.652 207.558 525.979 216.525 524.875 218.12C521.427 223.105 518.92 229.334 518.393 235.374L527.947 224.034L528.649 226.157L532.549 223.331L525.465 237.509L527.596 237.911C530.016 234.646 533.339 230.854 536.448 228.292C537.25 227.626 537.589 226.571 538.918 226.873C539.507 227.488 531.633 239.594 533.263 242.47C535.094 242.897 534.492 241.93 535.081 241.126C540.974 233.139 546.767 224.273 555.907 219.765C555.581 218.233 552.647 218.27 551.494 218.484C549.713 218.823 541.727 224.788 541.05 224.022L541.764 220.845L548.823 216.223C544.272 214.654 541.589 215.909 537.501 217.63C536.661 216.299 542.441 214.013 539.257 213.373C537 212.921 531.583 217.73 529.013 218.333L535.37 209.116V209.141ZM389.501 219.426V231.481C389.501 232.436 390.241 233.955 389.501 235.387C387.946 237.107 385.363 220.594 384.899 219.74L382.178 219.25L381.037 220.782L383.119 237.522C381.439 237.811 381.765 237.346 381.376 236.115C380.335 232.863 378.517 222.427 376.398 220.493C375.057 219.275 372.9 218.861 373.264 221.498C373.916 226.182 375.972 231.193 376.035 236.103C372.85 234.257 370.067 222.276 367.785 221.322C367.296 221.108 365.39 220.933 365.402 221.573L368.951 235.387C366.092 234.219 362.707 223.733 361.027 222.766C360.174 222.276 358.657 222.728 357.629 222.628C359.058 227.312 361.954 231.758 361.867 236.806C358.807 234.947 354.983 223.846 352.313 223.331C351.335 223.143 350.156 223.407 349.128 223.331C351.711 229.208 355.723 234.659 356.914 241.051C351.472 236.115 349.303 226.144 341.68 224.034C341.517 229.761 348.162 234.131 349.115 239.632C348.263 237.836 345.893 237.409 344.84 236.291C342.144 233.44 338.546 225.466 333.555 226.508C336.301 232.147 341.655 236.831 342.746 243.173L333.907 231.82C332.051 230.087 330.835 227.701 327.876 228.292L334.947 241.754C328.264 239.28 325.406 230.464 317.945 230.062L329.28 244.592L315.388 235.462C312.416 234.257 309.833 232.9 306.623 233.955C306.297 235.425 307.401 235.563 308.228 236.241C312.541 239.694 318.986 242.344 320.767 248.146C316.667 245.911 302.586 235.638 298.574 236.881L297.734 238.953C299.865 239.406 318.848 252.315 317.231 253.822C313.57 252.164 310.56 249.314 307.087 247.33C302.962 244.969 293.346 239.971 288.907 240.661C288.33 240.749 287.29 240.95 287.503 241.766C295.327 245.521 303.627 249.339 309.445 255.957L284.13 244.027C283.039 243.248 279.177 245.345 279.704 246.036C288.192 250.18 298.574 253.219 304.479 260.93L289.384 253.018C283.215 251.072 276.344 246.765 269.786 248.899L287.252 257.276C290.587 259.511 294.587 260.779 296.693 264.484C293.157 263.316 290.086 260.729 286.776 259.184C282.839 257.351 270.363 252.215 266.614 252.391C264.909 252.466 263.63 253.584 262.013 253.86L283.967 263.416L290.324 268.741C283.328 265.401 261.862 254.651 254.941 257.765C254.465 257.979 253.612 258.921 253.512 259.511C264.52 262.073 276.344 265.702 284.669 273.702C275.479 270.298 261.624 262.01 251.744 262.299C249.901 262.349 247.055 262.839 247.142 265.2C257.449 267.284 269.536 270.047 276.883 277.959L268.044 273.702C259.593 271.818 246.766 263.906 239.356 270.863C246.729 271.24 255.631 274.128 262.364 277.255C263.292 277.682 265.373 278.298 265.548 279.378C259.643 278.599 237.212 269.984 233.313 275.121C232.912 275.648 232.874 275.899 232.974 276.552C241.839 276.979 252.597 279.88 259.881 285.054C250.114 283.082 239.268 278.197 229.087 280.106C227.959 280.32 226.943 281.111 226.592 282.216C234.178 282.241 242.892 284.69 249.951 287.553C251.117 288.03 253.637 288.909 254.201 290.014C244.923 288.394 233.614 284.037 224.11 285.77C222.894 285.996 222.116 286.523 222.342 287.892L232.398 288.809L245.701 294.272C236.234 292.262 226.179 287.842 216.675 292.513L227.608 292.953L235.783 294.272C230.416 295.427 218.543 294.586 214.154 297.085C213.603 297.399 212.65 298.566 212.412 299.232C218.305 298.504 225.063 298.026 230.855 299.571C231.896 299.847 233.376 300.111 233.651 301.367C226.442 301.643 217.74 300.601 210.832 302.987C209.791 303.351 208.462 303.678 208.161 304.908C215.145 304.431 221.953 304.494 228.874 305.8C229.526 305.925 230.993 306.089 230.818 307.031C225.251 307.897 219.095 307.244 213.565 307.834C212.851 307.91 204.651 309.467 206.757 311.288C213.289 310.245 220.649 310.183 227.069 311.903C228.285 312.23 229.037 311.401 228.699 313.423C220.348 312.443 206.845 311.966 201.09 319.099C204.249 318.27 207.346 317.203 210.656 316.926C213.026 316.725 218.769 316.826 221.264 316.989C222.091 317.039 225.063 317.253 225.163 318.383C215.86 319.626 204.111 319.501 196.839 326.182C203.785 326.596 210.782 326.621 217.74 326.897C218.593 326.935 220.373 326.357 220.21 327.601C213.189 329.233 202.544 328.229 195.949 330.451C195.297 330.665 195.071 331.921 194.72 332.574C199.046 331.933 203.811 333.189 207.86 333.264C211.659 333.327 214.217 331.845 218.681 333.088C219.935 333.44 220.524 332.862 220.21 334.708L194.783 336.906L194.733 338.966C200.952 338.426 207.233 337.27 213.503 337.547C214.368 337.584 216.136 337.007 215.973 338.25C210.117 338.451 203.986 339.744 198.432 341.603C196.162 342.356 193.266 342.934 192.601 345.697L208.512 343.198C210.92 343.512 215.107 342.294 216.687 344.642C208.675 345.571 198.294 345.998 191.912 351.386C198.106 351.586 204.425 349.339 210.681 348.912C211.822 348.836 215.496 348.309 215.985 349.602C210.305 350.883 204.312 352.114 198.808 354.035C195.598 355.153 191.36 356.258 190.482 359.887C197.391 357.627 204.726 355.542 212.086 355.68C212.813 355.693 215.408 355.592 215.27 356.685C208.036 357.715 198.432 359.586 192.388 363.906C191.573 364.496 190.407 365.049 190.482 366.254L208.738 361.846L215.27 361.658L197.316 368.138C195.071 369.469 191.962 370.21 191.197 372.998C197.993 371.541 206.569 367.008 213.515 367.271C214.731 367.322 215.885 367.271 216.675 368.389C212.512 368.942 208.387 370.21 204.45 371.742C202.356 372.558 194.432 376.112 193.04 377.18C192.15 377.87 192.702 379.114 192.601 380.081C201.942 376.112 212.086 372.596 222.329 372.295C222.492 373.312 221.101 373.249 220.361 373.5C211.133 376.489 200.112 378.272 193.304 385.757L225.163 377.255C224.962 378.473 223.759 378.498 222.881 378.863C216.963 381.349 199.986 385.908 196.125 390.353C195.585 390.968 195.197 391.132 195.435 392.136C196.714 393.304 218.292 383.471 222.329 384.35L201.566 394.397C200.25 395.238 198.093 396.921 199.322 398.541C202.532 398.918 211.735 392.438 216.085 391.22C219.922 390.14 225.89 390.617 228.899 389.16C232.41 387.452 235.971 380.395 240.71 379.001C242.729 378.41 244.798 378.837 246.992 378.209C249.449 377.506 251.142 375.108 254.001 374.593C259.543 373.588 264.445 376.326 269.084 371.968C273.172 368.138 273.096 366.204 279.491 363.944C285.522 361.821 287.415 363.529 291.891 362.951C294.825 362.575 298.8 358.757 301.759 357.878C307.551 356.158 312.215 356.007 317.469 351.624C319.224 350.155 320.478 347.58 322.534 346.061C329.982 340.586 333.468 347.241 337.956 345.935C339.473 345.496 340.803 342.62 343.022 341.741C346.658 340.309 349.993 342.08 353.591 339.556C355.698 338.087 358.669 332.674 360.926 332.008C363.697 331.18 368.06 332.36 371.245 331.707C373.427 331.255 376.975 328.354 379.558 327.274C382.454 326.069 387.269 324.562 390.316 323.871C395.168 322.766 400.697 321.648 398.34 329.082C398.077 329.911 389.814 343.097 389.062 343.901C386.141 347.028 377.978 351.046 374.906 355.253C373.001 357.865 373.301 362.286 370.731 363.831C369.314 364.684 367.923 364.32 366.782 364.835C364.136 366.041 353.09 376.175 351.798 378.9C350.645 381.349 350.444 385.229 348.702 387.138C346.344 389.725 341.379 389.11 338.445 391.76C337.518 392.601 332.013 399.395 331.085 400.701C329.029 403.627 328.691 408.864 325.218 409.718C321.544 410.634 321.067 409.542 317.582 412.719C313.382 416.549 309.959 425.679 306.849 427.5C304.718 428.756 302.686 428.504 300.542 430.401C298.549 432.171 297.533 435.374 295.628 437.534C294.035 439.355 280.155 450.494 283.954 453.106C288.054 453.847 288.844 449.125 291.039 446.4C292.343 444.767 294.286 443.022 295.966 441.778L291.728 454.537C292.493 454.6 293.157 454.6 293.872 454.211C294.875 453.646 303.865 437.295 306.009 434.457C306.937 433.239 308.028 431.845 309.419 431.142L298.21 455.743C297.634 457.237 300.48 457.25 301.157 456.735C304.555 449.828 308.279 442.544 312.805 436.303C313.457 435.399 318.798 427.814 320.039 429.019C313.657 438.639 307.225 449.2 305.884 460.929C307.326 461.18 307.902 460.013 308.592 459.046C313.407 452.302 317.156 441.828 322.509 433.98C323.074 433.163 323.224 431.707 324.628 431.857L313.657 462.7C314.422 463.303 315.989 461.758 316.403 461.193C318.798 457.953 321.619 449.589 323.914 445.32C324.841 443.587 329.33 435.21 330.308 434.696C330.622 434.532 331.512 434.557 331.361 435.047C329.719 438.162 321.694 461.231 322.873 462.361L325.255 462.386C329.769 451.511 333.593 440.07 340.564 430.438C339.436 437.207 336 443.172 334.245 449.991C333.593 452.515 330.785 462.725 332.74 464.169L334.897 464.483L339.85 447.806L346.232 433.289C344.815 444.893 340.828 456.22 341.292 468.037H343.398L352.074 437.345L354.732 431.87C353.943 440.811 351.435 449.552 350.495 458.468C350.281 460.54 348.839 470.159 351.548 470.147L361.465 434.005C363.02 435.009 362.293 435.575 362.205 436.843C361.867 441.439 356.876 467.673 359.008 469.456H361.114C363.923 459.171 364.136 446.023 368.023 436.265C368.449 435.185 367.609 434.344 369.615 434.708C369.816 446.324 366.205 457.802 367.822 469.481L369.628 469.82C371.659 462.424 371.997 454.274 373.364 446.613C373.627 445.106 373.828 441.728 375.27 441.088C376.737 447.63 375.721 454.613 375.96 461.319C376.022 463.014 376.624 464.559 376.749 466.254C376.938 468.791 374.681 471.177 378.818 472.282C379.922 464.006 379.821 455.441 381.037 447.191C381.389 444.792 381.878 440.447 383.783 438.953L385.213 473.713H387.332C388.347 462.662 388.172 450.996 389.463 440.008C389.614 438.702 389.25 438.865 390.88 438.953L394.428 472.294H396.547V444.981C396.547 444.767 397.299 441.037 397.951 441.088L402.917 471.578C404.283 471.792 404.81 471.026 405.036 469.808C405.75 465.852 405.224 455.868 405.073 451.347C405.023 449.941 402.716 442.494 406.101 443.926L412.057 471.177L414.239 471.591C414.978 462.424 412.696 453.382 412.095 444.315C412.044 443.562 411.606 440.962 412.822 441.1L421.849 472.834L423.442 473.713C424.495 472.47 422.326 455.818 421.837 452.98C421.21 449.301 419.48 445.156 418.965 441.665C418.865 441.012 418.188 438.902 419.555 438.978C422.213 439.116 430.275 467.271 431.253 471.591H433.359C433.134 460.151 429.623 449.062 426.288 438.262C427.128 438.312 427.805 437.873 428.457 438.702C429.635 440.196 431.855 445.596 432.783 447.706C435.478 453.821 437.635 463.114 441.271 468.288C441.747 468.954 442.512 470.285 443.289 469.105C441.02 458.179 438.387 447.228 433.372 437.195C436.318 436.529 437.66 441.816 439.403 443.926L451.414 468.753C452.668 467.886 452.53 467.083 452.355 465.752C451.891 462.298 448.731 453.784 447.364 450.129C445.747 445.809 442.274 441.665 442.224 436.843L461.696 469.456C461.119 457.539 453.809 447.053 449.671 436.127C453.734 440.095 457.32 445.043 460.442 449.79C463.764 454.839 466.134 460.954 470.184 465.199C469.833 459.36 466.548 452.993 463.94 447.693C461.545 442.833 458.323 438.199 456.028 433.276C456.918 432.31 466.059 444.24 466.924 445.408C470.397 450.117 474.108 455.718 476.566 460.929C478.296 461.206 478.133 460.691 477.92 459.209C476.741 450.946 468.215 440.761 464.517 433.276C465.846 432.963 466.197 434.017 466.999 434.683C474.321 440.824 479.086 449.765 484.703 457.375C486.609 458.317 485.418 454.638 485.205 454.035C482.358 446.161 476.302 439.493 473.017 431.845C475.701 431.933 489.681 451.599 490.709 450.28C489.455 440.987 482.747 433.816 477.97 426.169C479.299 425.855 479.663 426.91 480.453 427.575C486.947 433.076 493.793 437.835 500.25 443.197C503.874 446.211 506.695 450.305 510.532 453.106C505.617 442.293 495.448 434.758 487.875 425.804C487.198 425.001 486.17 424.649 486.471 423.318L518.33 448.133C519.409 446.889 514.732 441.489 513.741 440.322C508.099 433.653 500.125 427.512 493.768 421.321C493.053 420.631 491.762 420.631 492.138 419.061L514.732 433.653L526.48 443.875C527.408 442.029 524.487 439.216 523.308 437.835C516.475 429.81 506.871 424.159 499.924 416.235C504.313 417.428 509.065 420.781 513.039 423.305C517.34 426.043 521.415 429.107 525.64 431.958L536.034 440.334C536.962 439.329 529.101 430.84 527.91 429.685C522.129 424.109 514.105 419.299 508.413 413.749C507.51 412.87 506.118 412.003 506.306 410.546C506.858 410.006 518.255 417.177 519.697 418.044C528.474 423.368 537.351 428.668 544.535 436.064C544.184 430.978 538.053 426.57 534.254 423.318C528.624 418.508 520.148 413.887 515.183 409.09C514.343 408.273 513.14 407.696 513.39 406.277L553.036 428.969C553.813 428.228 549.814 424.611 549.162 423.984C540.21 415.469 529.201 409.718 519.76 402.02L541.012 411.576L560.108 423.293C560.885 422.502 556.986 418.383 556.196 417.642C547.632 409.692 533.79 404.066 524.7 396.356C537.175 401.191 549.601 406.415 560.91 413.636C562.527 414.665 565.762 417.868 566.841 418.332C569.699 419.576 565.023 412.857 563.982 412.681L536.034 394.234L554.929 401.191L577.097 413.372C578.288 412.192 571.379 407.47 570.527 406.842C563.016 401.304 554.603 397.122 546.441 392.676C541.062 389.763 540.297 388.507 547.193 390.504C559.731 394.146 571.078 400.676 582.764 406.289C582.802 404.493 580.419 403.439 579.153 402.472C576.056 400.123 571.48 396.971 568.119 395.088C561.386 391.295 553.4 389.198 547.369 384.313C558.967 386.674 570.163 390.918 580.921 395.741C583.04 396.695 586.3 399.194 588.093 399.897C589.209 400.337 589.585 399.407 588.807 398.466C588.206 397.75 584.808 395.766 583.692 395.075C575.003 389.688 564.095 384.802 554.591 380.935C553.525 380.508 552.672 381.362 553.036 379.34L593.396 391.747L577.598 382.756L555.168 373.676C570.038 375.459 584.394 380.52 598.362 385.719C598.061 384.664 596.92 383.986 596.029 383.446C588.845 379.151 581.824 377.481 574.301 374.718C569.423 372.923 564.483 369.381 558.716 369.406C559.105 367.824 559.744 368.452 560.659 368.452C563.882 368.464 567.041 369.03 570.188 369.62C580.808 371.604 591.39 374.819 601.195 379.34C601.509 377.87 600.493 377.695 599.565 377.079C589.146 370.059 571.505 366.43 559.431 363.027L566.891 362.298C578.614 363.893 589.999 367.184 601.208 370.825C600.292 368.929 597.86 367.987 596.017 367.158C585.071 362.261 572.545 359.712 560.847 357.351C559.832 356.333 560.91 356.07 561.888 355.944C565.085 355.53 571.881 356.258 575.279 356.735C584.068 357.966 592.544 361.269 601.208 363.027C601.007 362.123 600.054 361.47 599.277 361.068C593.309 358.041 583.14 354.688 576.57 353.307C572.759 352.503 568.295 352.202 564.396 351.674C564.27 350.632 566.251 350.406 566.928 350.331C578.652 349.05 590.951 355.052 602.624 355.932C602.624 354.864 600.48 354.6 599.628 354.337C597.07 353.52 591.528 352.767 589.635 351.712C589.083 351.398 589.071 348.334 585.623 348.836L586.337 347.43L569.336 345.295C569.21 344.152 568.684 343.976 570.1 344.152C576.244 344.918 581.937 344.102 588.005 344.642L588.807 343.173L589.51 344.592C593.371 341.779 599.44 343.7 604.029 343.876C604.28 342.055 602.913 341.992 601.634 341.615C595.39 339.769 582.614 340.56 575.367 339.606C572.633 339.242 570 338.25 567.217 338.2C567.48 336.919 568.608 336.881 569.662 336.755C580.256 335.588 591.34 335.801 601.91 336.781C601.358 335.186 599.264 335.073 597.898 334.734C590.199 332.837 580.031 333.779 572.658 331.808C572.044 331.644 572.182 330.476 571.868 330.489C570.941 330.539 570.025 331.393 568.395 331.129C567.894 331.042 567.931 329.936 567.58 329.861C566.001 329.522 563.292 329.899 561.549 329.685L571.078 328.304C580.219 328.655 589.434 327.274 598.374 328.969C598.173 328.128 597.283 327.375 596.493 327.073C589.823 324.624 573.498 323.896 565.374 322.665C563.104 322.326 559.719 323.519 558.716 321.183C563.104 320.92 566.502 319.35 571.041 319.827C574.301 320.179 577.122 322.289 580.67 320.455C580.244 319.463 577.084 319.3 575.981 319.136C574.489 318.91 572.972 319.074 571.467 319.049C570.878 317.064 571.756 318.132 572.169 317.893C573.649 317.002 576.533 315.507 578.2 315.507H593.421L587.428 314.05L565.424 314.704L564.747 313.372C564.182 315.746 562.227 314.641 560.145 314.791C559.606 311.991 562.038 314.364 563.016 313.737C563.43 313.473 563.38 312.355 564.045 312.066C564.421 311.903 566.79 312.644 567.593 312.544C570.1 312.217 570.527 311.815 573.862 311.702C577.197 311.589 575.83 307.571 572.596 308.374L571.116 309.831L570.752 308.399H553.763C554.001 306.704 556.597 307.533 557.638 307.709L558.026 305.574L559.769 307.056C563.844 305.436 568.295 305.348 572.483 304.105C573.699 303.74 574.526 303.59 574.288 302.02L562.264 302.723L572.169 300.601C572.37 299.684 570.828 299.445 570.226 299.358C564.233 298.491 556.597 302.912 550.227 302.723C552.321 300.463 556.472 299.295 559.431 298.127C561.399 297.348 563.016 298.428 564.095 295.615L567.931 296.344L566.515 294.234L571.467 292.815L565.486 292.049L564.722 294.272C560.634 293.556 556.609 295.377 552.698 295.628C549.049 295.866 547.946 295.289 551.494 293.003L572.884 286.435C562.891 285.468 553.538 289.01 543.858 290.68C550.077 283.899 560.032 283.283 568.646 281.462C568.22 279.868 566.74 280.119 565.499 280.018C554.541 279.114 545.087 285.154 534.655 286.423L544.573 280.408L562.264 274.38C552.397 274.041 542.178 277.168 532.687 279.842C529.188 280.834 525.816 283.334 521.916 282.869C522.092 281.776 523.233 281.525 524.048 281.111C534.216 275.937 544.987 272.019 555.895 268.678C555.769 267.762 554.904 267.36 554.077 267.259C552.284 267.033 539.294 270.261 536.624 271.014C528.173 273.4 520.349 277.419 511.986 280.018C521.766 271.868 534.655 267.033 546.679 263.002C546.679 261.721 543.632 262.249 542.805 262.311C529.615 263.391 518.518 271.052 506.331 275.058C514.945 266.43 527.019 261.872 538.191 257.326C537.915 256.108 536.899 255.882 535.796 255.932C534.367 255.995 525.164 258.958 523.183 259.674C515.547 262.45 509.717 267.335 502.093 269.394C510.356 261.181 521.026 256.698 531.119 251.311C519.145 251.248 508.638 259.398 497.843 263.718C496.727 262.638 504.162 257.853 505.115 257.188C510.419 253.458 516.161 250.369 521.904 247.405L521.553 245.998L515.058 248.008L492.176 260.189C491.674 259.687 494.809 255.781 495.36 255.229C499.598 251.097 507.021 247.845 511.798 244.027C512.638 243.361 513.741 243.223 513.403 241.741C512.174 241.49 511.347 242.131 510.306 242.545C505.316 244.554 495.473 249.954 490.947 252.943C489.969 253.584 483.299 259.863 482.96 259.473C482.647 258.142 483.7 257.79 484.364 256.987C490.207 250.017 497.141 245.948 503.999 240.473C504.839 239.807 505.943 239.669 505.604 238.187L499.46 240.184L477.995 254.5C477.694 253.169 478.747 252.818 479.412 252.026C483.938 246.576 489.756 241.879 494.784 236.919C495.486 236.228 496.79 236.228 496.414 234.659C492.803 233.767 492.188 236.291 489.982 237.786C486.183 240.36 482.409 242.959 478.647 245.584L468.792 250.959C471.663 245.823 485.781 237.02 487.186 232.16C487.474 231.142 487.098 230.916 486.132 231.105C485.568 231.167 485.154 231.532 484.678 231.77C478.635 234.897 471.024 242.872 465.294 247.104C464.329 247.819 463.802 248.41 462.423 248.121C466.31 240.222 473.569 234.96 479.412 228.618C479.211 227.953 477.531 228.179 476.98 228.304C473.206 229.158 461.67 241.352 457.821 244.579C457.031 245.245 456.668 246.3 455.339 245.986C458.874 237.798 465.708 231.783 470.911 224.725C468.692 222.854 451.928 241.39 450.01 243.864C447.565 244.893 450.725 239.493 450.95 239.117C454.122 233.805 458.887 228.982 461.708 223.306L457.433 225.039C454.273 227.387 445.998 240.774 443.653 241.729C441.797 242.495 442.888 239.795 443.164 239.104C445.622 232.85 450.424 227.915 453.22 221.887C451.815 221.837 450.524 221.648 449.283 222.54C445.22 225.479 442.149 236.216 436.945 238.903C437.359 232.951 442.487 226.534 444.004 221.51C444.619 219.488 441.183 221.033 440.519 221.573C438.926 222.867 433.196 234.897 431.29 237.861C430.701 238.778 430.751 239.946 429.146 239.606C427.943 238.2 434.099 224.775 434.964 222.377C436.055 219.325 433.735 219.124 431.955 220.983C428.494 224.6 426.576 232.85 423.83 237.497C423.291 238.413 423.956 239.293 422.075 238.891L426.313 219.752C425.335 219.715 424.394 219.589 423.492 220.116C421.711 221.159 418.727 231.28 417.423 233.93C416.922 234.947 417.586 235.713 415.693 235.349L417.812 218.333L414.339 218.408C413.16 222.892 412.22 227.802 410.74 232.172C410.289 233.491 410.114 235.538 408.609 236.065L409.311 218.333L406.879 218.295L403.644 233.943H401.525V218.333H397.977L396.56 234.646C394.855 234.86 395.431 234.659 395.068 233.654C393.563 229.51 394.203 223.394 392.673 219.036L390.554 218.333L389.488 219.388L389.501 219.426ZM555.193 230.414L561.562 221.912C550.014 223.758 540.962 235.487 539.62 246.727C544.886 241.39 548.409 234.219 555.193 230.414C552.372 237.497 546.604 243.311 545.287 250.971C546.541 251.223 547.03 250.331 547.77 249.565C552.284 244.931 556.534 237.886 561.186 233.214C562.628 231.77 565.298 229.774 567.229 228.97C567.229 224.461 557.462 229.133 555.193 230.401V230.414ZM574.313 231.833C570.865 230.627 568.746 231.795 565.863 233.641C559.242 237.886 553.6 246.802 552.372 254.513L574.326 231.833H574.313ZM587.052 236.806C573.06 232.951 560.76 247.078 558.026 259.486C560.935 258.456 561.6 254.751 564.045 252.403C568.082 248.535 575.316 245.421 579.329 240.762L587.052 236.806ZM594.136 241.038C592.055 236.881 583.679 241.616 580.432 243.273C571.58 247.807 565.85 254.387 564.408 264.446L581.071 248.158C585.046 245.408 589.234 241.854 594.149 241.038H594.136ZM633.443 377.933C636.528 377.481 641.418 377.933 644.778 377.933C645.154 377.933 646.245 379.076 647.248 378.636C648.138 374.706 633.117 374.455 635.211 371.554C639.825 370.022 644.665 371.516 649.379 371.905C650.119 371.968 651.636 372.96 651.498 371.554C647.21 369.155 642.182 368.364 637.706 366.568C636.615 366.129 635.65 366.016 635.926 364.458C639.938 364.76 645.104 365.865 649.003 365.903C650.069 365.903 651.085 366.355 650.784 364.823L638.747 360.189L639.462 358.066H650.796C649.417 352.88 639.474 356.019 638.045 350.971H648.314C648.74 350.971 649.68 349.514 649.367 348.849L639.462 346.714C640.089 345.508 642.847 346.036 644.427 345.672C644.978 345.546 647.323 344.755 647.248 343.901C643.888 342.859 639.474 344.089 636.628 342.118C639.261 341.138 643.248 344.253 645.116 341.063L636.615 340.347V338.225H647.248C645.442 334.859 640.402 336.014 636.992 335.361C635.863 335.148 635.763 335.851 635.926 333.98L649.367 331.845C645.129 330.363 640.615 329.987 636.264 328.995C635.161 328.743 635.036 329.459 635.199 327.588L648.652 326.521C645.593 322.791 639.173 325.076 635.5 323.394C634.12 322.766 633.544 322.603 633.782 320.857L647.235 319.438C642.809 317.454 637.017 317.115 632.378 318.37V315.545L647.235 314.113C647.398 312.23 647.311 312.945 646.17 312.732C645.367 312.581 642.822 311.991 642.646 311.991H631.312L630.597 310.572C631.851 307.809 644.138 307.269 647.248 307.734C647.035 306.491 645.831 306.491 644.878 306.214C638.897 304.506 632.779 306.541 626.723 306.315C631.312 301.819 638.985 301.141 645.129 301.354C642.985 296.105 626.673 301.806 625.306 300.651C626.171 297.009 632.127 296.557 635.211 296.394C635.261 295.942 634.271 294.987 634.145 294.987H622.811C622.121 294.987 620.692 295.892 620.679 293.568C621.494 292.375 625.707 291.546 627.275 290.919C627.726 290.73 630.133 290.667 628.829 289.324C626.898 287.365 620.379 291.12 618.222 288.244C621.444 285.368 624.554 284.652 628.516 283.647C629.694 283.346 630.585 284.363 630.234 282.216L613.595 284.338L613.244 282.932C617.081 280.32 622.171 279.579 626.021 277.607C627.061 277.08 627.738 277.607 627.387 275.824C622.096 274.957 616.956 277.846 612.116 278.612C611.075 278.775 610.11 279.089 610.411 277.607L612.254 275.196L623.852 270.16C619.564 268.703 609.734 274.455 606.536 273.689C605.809 273.513 605.207 272.772 606.173 271.943C607.978 270.399 618.836 266.795 618.886 265.539C617.959 264.183 617.282 264.421 615.877 264.622C612.994 265.024 600.982 269.834 599.076 267.297C601.697 263.329 606.674 262.851 610.398 260.566C608.618 259.812 606.286 261.093 604.367 260.754C604.129 260.717 603.276 259.097 600.167 259.498C597.058 259.9 593.095 263.329 592.318 259.498L601.195 250.997C594.876 250.494 589.999 256.032 584.206 256.66C587.792 252.139 592.494 247.706 598.374 246.727C598.474 244.617 597.12 244.504 595.377 244.743C592.669 245.094 580.821 250.783 578.789 252.654C577.034 254.274 569.085 268.389 570.05 269.419C571.58 269.771 571.618 268.565 572.32 267.799C575.805 263.994 578.25 260.076 583.14 257.376L584.231 259.134C581.234 263.73 575.881 267.661 575.718 273.664L582.852 266.996C584.896 265.966 586.638 264.044 589.159 264.446L580.67 277.205C582.2 278.587 591.215 267.649 594.826 269.419L584.908 282.881C586.839 284.388 594.55 273.287 598.362 274.38C599.954 276.012 588.757 286.209 589.171 289.273L599.126 280.809L601.91 282.542C598.224 285.067 594.888 288.784 592.268 292.363C591.817 292.966 590.864 294.02 592.005 294.598C592.845 295.025 603.665 284.652 604.743 285.732C604.543 288.357 595.102 297.725 596.255 299.207C599.816 296.896 602.925 293.619 606.662 291.546C607.452 291.107 610.085 289.173 610.423 291.069C610.724 292.739 604.794 297.273 603.352 298.868C602.186 300.174 600.242 302.459 599.791 304.167C600.28 304.657 607.652 298.617 608.781 297.926C609.646 297.399 613.32 294.975 613.946 295.666L613.834 298.391C609.282 299.923 604.593 305.913 603.339 310.559C605.182 308.738 616.078 298.466 618.197 303.125L608.267 311.602L606.16 315.52C608.405 315.218 609.345 313.008 611.326 311.84C613.959 310.271 618.673 308.877 621.733 308.45C617.344 312.883 610.774 315.319 608.994 321.912C609.445 322.414 617.946 313.9 620.316 315.532C621.306 316.273 609.709 324.511 611.113 327.575C611.489 328.053 619.626 320.857 621.745 322.176C624.24 319.626 624.892 319.639 624.591 323.557C622.146 325.051 618.836 327.073 617.031 329.283C616.667 329.723 616.905 330.828 616.692 331.016C616.028 331.619 612.843 330.137 613.946 332.888C615.05 335.638 616.905 332.448 617.934 331.933C621.194 330.313 624.391 329.233 628.102 329.71C628.466 331.594 627.701 330.941 626.685 331.443C625.131 332.209 615.564 337.195 615.351 337.873C614.486 340.636 620.203 337.094 620.817 336.956C622.51 336.592 624.265 336.843 625.971 336.806C625.168 341.892 619.112 341.126 616.768 345.307L629.519 343.901L616.78 350.996C616.592 352.202 618.473 351.762 619.238 351.687C622.121 351.436 625.018 350.469 628.102 350.996L616.755 356.308L617.144 358.092C621.143 358.092 623.877 355.052 628.102 355.957L623.852 356.66L624.554 358.782L616.742 361.369L616.768 363.743L625.971 363.039C628.152 365.312 620.115 366.794 618.937 367.698C618.498 368.037 617.319 370.009 617.47 370.122L627.362 370.486C623.124 373.739 616.968 373.89 613.219 378.297L621.382 376.828C622.084 376.803 623.664 375.874 623.137 377.569C622.886 378.373 608.342 380.897 609.683 385.732C612.542 384.363 615.752 383.647 618.886 384.325C619.275 386.787 617.858 384.853 616.053 385.292C613.37 385.958 608.028 387.641 608.618 390.692L616.053 387.867L613.934 389.286L615.338 390.692C612.605 390.881 606.938 392.425 606.148 395.326C605.671 397.122 606.712 395.979 607.376 395.854C609.558 395.427 611.602 394.61 613.921 394.962C614.047 395.075 613.32 398.064 613.044 398.34C612.655 398.717 605.007 400.927 603.364 401.768C595.302 405.913 586.563 412.681 586.237 422.313C586.187 423.946 588.331 422.64 587.704 424.75C584.231 424.147 578.1 425.641 574.501 426.771C567.004 429.12 554.867 437.22 554.24 445.583L553.312 446.663C546.917 449.288 540.247 448.911 533.577 451.034C528.524 452.641 521.126 456.597 516.951 459.912C514.82 461.607 511.422 466.367 510.03 467.158C506.432 469.218 500.112 466.781 496.038 466.555C487.813 466.091 482.76 467.635 475.889 471.968C473.669 473.362 467.701 479.051 466.259 479.339C461.044 480.369 452.58 477.104 447.189 477.204C437.798 477.38 430.651 485.217 420.997 482.856C410.628 480.319 408.897 477.33 397.086 480.269C393.939 481.047 387.169 484.425 384.811 484.363C383.069 484.312 375.232 479.528 372.123 478.611C367.484 477.255 362.845 476.853 358.017 477.318C354.62 477.644 345.705 480.67 343.222 479.955C342.106 479.641 339.285 476.112 337.543 474.969C330.998 470.699 322.422 469.557 314.761 470.159C311.614 470.411 308.065 472.169 304.856 471.553C302.361 471.076 301.884 468.502 300.405 467.296C288.581 457.74 280.469 460.477 267.366 458.744C262.514 458.104 257.386 454.663 251.844 454.814C243.958 455.04 228.636 463.579 225.89 471.566C226.943 471.076 231.043 464.684 232.247 465.902C231.332 469.582 227.382 472.093 227.997 476.175L229.401 476.526L234.379 469.092L242.152 463.064C240.184 467.397 236.372 470.486 234.73 475.132C234.216 476.589 232.51 480.457 234.353 481.499C237.062 473.738 243.231 468.803 249.938 464.483L240.886 476.325L239.331 481.499L252.434 468.74L256.32 467.321L251.493 473.475L248.534 479.729L255.618 472.294L254.214 478.686L255.618 477.971C256.12 478.674 253.775 484.024 255.969 482.931C259.618 475.811 263.166 469.833 270.488 465.915C271.441 467.07 265.762 472.872 264.947 474.191C261.774 479.289 259.555 485.417 259.179 491.445L266.664 478.749C267.467 477.996 273.585 469.619 274.739 470.888C273.184 477.167 267.229 483.609 266.928 490.365C266.89 491.144 266.539 492.349 267.655 492.149C268.207 489.989 278.538 471.867 281.108 474.429C278.889 481.01 274.35 487.188 274.037 494.283C276.081 494.685 275.165 493.681 275.629 492.726C278.714 486.372 281.635 479.766 287.841 475.848C288.782 479.214 285.296 482.303 284.03 485.505C283.566 486.686 281.447 491.684 283.591 492.149C284.845 492.425 288.556 484.664 289.948 482.918C290.85 481.788 296.844 475.358 298.098 476.551C296.931 480.181 289.76 495.075 292.443 497.825C294.048 498.114 293.571 497.737 294.023 496.921C297.069 491.37 298.261 482.466 305.182 479.39C302.448 486.686 298.75 494.057 298.825 502.082C300.254 503.878 301.709 496.443 302.009 495.715C304.254 490.416 307.551 484.978 311.551 480.809C308.717 489.135 306.486 497.611 305.194 506.339H307.313C308.68 497.837 312.491 488.67 318.297 482.228L313.695 505.623C315.4 507.52 317.043 498.616 317.406 497.636C318.648 494.321 320.127 490.981 321.82 487.879C322.233 487.125 326.685 478.837 327.851 480.093C325.418 488.369 321.042 496.782 322.196 505.623C323.387 505.435 323.45 504.217 323.801 503.338C326.17 497.599 327.098 490.566 331.737 485.782C335.035 488.293 328.277 499.683 331.737 501.366C333.016 501.981 332.979 500.11 333.28 499.407C334.834 495.841 336.389 492.262 337.781 488.632L339.9 488.921C341.943 490.441 337.48 504.33 339.875 507.746L345.943 490.755L347.661 489.323C347.987 495.225 345.517 502.408 346.219 508.147C346.395 509.567 346.532 510.785 348.376 510.584C348.639 503.363 351.059 495.276 355.109 489.323L354.055 512.003C357.278 512.267 355.547 511.764 355.911 510.546C358.343 502.572 358.243 493.392 363.609 486.46L361.842 512.693L363.434 511.814C365.327 503.614 366.405 494.472 370.693 487.176L370.342 510.571C371.96 510.847 371.734 510.433 372.098 509.177C373.753 503.576 373.978 496.845 375.997 491.169C380.022 489.637 378.154 492.99 378.267 494.61C378.555 498.591 378.204 504.104 380.599 507.017C381.514 503.2 381.539 497.599 383.244 494.07C383.708 493.103 384.009 492.613 385.2 492.839L387.344 511.274C389.187 511.488 388.46 511.249 388.774 510.245C390.153 505.774 389.4 499.533 391.03 494.773C391.369 493.781 391.896 493.153 392.66 494.258C394.253 499.696 393.826 506.98 395.344 512.141C395.732 513.447 395.469 514.527 397.249 514.125L399.017 492.852C403.318 499.093 401.989 507.708 403.631 514.828C405.01 515.042 405.512 514.276 405.738 513.045C406.465 509.039 406.991 502.283 407.192 498.126C407.305 495.916 405.775 493.894 407.167 491.42C409.988 494.12 410.577 500.035 411.317 503.915C411.794 506.414 410.69 510.32 413.524 511.99C414.828 508.888 413.574 491.018 416.019 490.014L420.972 509.14C422.689 509.127 421.95 496.707 422.125 494.698C422.2 493.907 422.401 489.662 423.793 490.001C427.266 494.108 425.598 502.019 430.175 504.882L430.526 491.408C435.917 494.371 435.09 503.765 437.61 509.14C438.625 510.157 438.926 509.052 439.014 508.06C439.378 504.33 437.986 499.081 438.299 494.597C438.337 494.007 437.936 492.161 439.352 492.839C440.381 493.329 443.227 500.977 443.766 502.609C444.029 503.413 445.007 511.915 446.8 509.843C446.75 508.085 446.926 506.301 446.8 504.531C446.524 500.763 444.43 493.417 444.681 490.353C444.744 489.536 445.659 488.243 446.085 488.57C449.634 494.673 450.75 501.228 452.994 507.582C453.395 508.725 452.618 509.479 454.586 509.14L451.051 485.744C452.505 485.443 452.693 486.46 453.307 487.376C454.423 489.047 458.523 500.11 459.188 499.922C459.702 499.771 461.319 499.081 461.006 498.189L457.42 485.041C460.279 482.893 465.231 496.054 465.946 498.126C466.661 500.198 467.262 502.572 467.35 504.882C468.554 504.594 468.83 501.19 468.817 500.274C468.742 496.845 467.338 492.337 466.673 488.871C466.473 487.803 465.281 487.603 466.987 486.46C470.924 488.821 471.3 493.969 474.773 497.096C477.08 493.279 473.632 489.775 472.992 486.096C476.027 486.836 478.835 492.676 480.465 495.64C481.28 497.109 482.296 502.974 484.314 500.248L480.076 483.622C481.907 483.195 481.318 484.162 481.894 484.965C483.449 487.075 485.48 489.938 486.734 492.186C488.464 495.276 489.254 498.729 491.386 501.354C491.787 493.668 487.549 486.975 485.029 480.08L488.164 481.537L498.47 499.922C498.658 491.835 493.969 484.639 491.398 477.23C492.765 476.928 493.091 477.92 493.806 478.711C498.771 484.187 502.946 491.458 505.203 498.503C506.682 497.486 506.018 497.071 505.78 495.853C504.388 488.683 500.1 481.688 497.066 475.107C498.382 473.864 504.701 482.818 505.855 483.672L512.638 495.665C514.419 492.111 504.075 475.22 504.864 474.391C511.886 476.865 514.544 484.89 517.967 490.717C518.506 491.634 517.841 492.5 519.722 492.111C521.001 488.946 511.096 473.111 511.936 472.257C514.933 472.746 517.779 476.074 519.697 478.297C520.449 479.176 525.678 487.703 526.794 486.435C526.681 479.892 519.559 475.584 518.305 469.418C519.76 467.824 532.461 482.303 533.878 483.597C535.984 479.791 523.12 467.447 524.687 465.865C531.019 467.598 535.533 474.052 539.909 478.624C542.291 474.705 530.066 464.458 531.771 462.311C539.181 464.672 543.457 471.491 549.463 475.785L538.855 458.769C541.915 458.581 555.067 473.764 555.832 472.947L545.225 455.931C545.626 455.529 551.205 459.623 551.933 460.201C555.368 462.926 558.666 466.731 562.214 469.406C561.462 463.918 554.779 459.347 552.886 454.989C552.497 454.11 552.397 453.143 553.375 453.118C556.158 453.043 561.499 464.081 565.06 460.553C563.53 458.405 561.512 455.454 560.471 453.093C560.183 452.427 558.841 449.489 560.459 449.577C561.7 449.64 566.126 456.735 567.555 457.363C567.969 457.539 568.759 457.488 568.608 457.024L565.787 452.754L567.192 451.712C565.825 452.051 565.098 449.954 565.436 448.861L580.658 457.375C578.438 452.314 572.119 450.594 570.038 445.332C576.608 445.621 581.147 451.172 587.027 453.131C588.644 451.423 574.689 442.507 575.003 439.656C575.918 438.764 587.754 446.462 589.397 447.58C589.961 447.957 594.061 452.553 594.099 449.941C594.136 447.718 581.698 437.998 579.956 435.399C582.94 436.353 586.212 437.973 588.933 439.53C591.654 441.088 596.18 445.194 598.023 446.035C598.399 446.211 599.227 446.174 599.076 445.696C596.443 440.811 591.679 437.559 587.077 434.62L587.704 432.611L586.35 431.87C588.406 431.857 590.237 432.762 592.042 433.603C596.443 435.663 600.355 439.041 604.756 441.075C602.963 439.304 601.584 436.742 599.829 435.022C598.575 433.791 590.362 428.617 592.017 426.897C599.114 427.223 604.468 432.536 611.138 433.98C607.339 429.999 602.11 427.6 597.885 424.21C597.045 423.544 595.942 423.406 596.28 421.924C598.299 420.191 611.89 427.65 614.874 428.479C615.852 428.756 616.241 429.773 616.103 427.964C612.091 423.845 605.671 421.886 601.433 418.546C600.581 417.88 599.503 417.73 599.829 416.26C603.966 417.215 608.054 418.508 612.041 419.978C614.837 421.007 618.46 423.331 620.73 424.046C621.093 424.159 621.883 424.247 621.77 423.707C617.545 419.463 611.176 417.617 607.615 412.719C614.611 413.008 620.855 417.089 627.438 419.086C624.153 413.95 616.354 413.623 613.984 407.759L631.688 413.422C630.497 410.32 620.078 406.302 619.1 404.782C618.498 403.853 618.51 402.698 620.002 402.773C625.03 403.049 630.898 407.583 635.926 408.462L621.77 398.177C621.507 396.532 622.309 397.197 623.35 397.298C628.741 397.775 633.468 400.513 638.759 401.367C635.675 396.808 628.265 396.469 626.008 391.446L642.997 396.394C640.101 392.588 635.387 391.019 631.487 388.582C630.509 387.967 629.995 385.933 627.412 386.473C627.262 384.614 627.325 385.292 628.491 385.091C634.634 383.974 640.327 383.396 646.533 384.35C643.123 379.892 636.603 381.035 631.663 380.093C631.161 378.85 632.641 378.084 633.431 377.971L633.443 377.933ZM159.375 279.353C157.946 279.039 157.482 279.667 156.517 280.382C148.78 286.059 136.142 306.139 131.641 315.043C76.2472 424.348 201.002 507.821 292.493 530.074C387.382 553.143 502.959 545.683 588.256 495.79C650.47 459.397 708.058 391.144 667.911 316.474L662.845 309.153C665.278 317.416 670.255 324.461 672.939 332.724C703.619 427.274 598.462 496.582 521.929 520.14C487.875 530.626 429.397 539.668 394.315 536.617C384.072 535.725 373.615 535.235 363.296 534.356C342.132 532.56 319.274 527.499 298.185 524.385C286.788 516.436 272.482 517.39 259.944 512.329C255.192 510.421 251.606 506.967 247.456 504.983C239.645 501.241 223.245 498.038 217.853 490.667C216.411 488.708 215.872 485.468 213.904 483.986C212.55 482.969 210.456 482.768 208.926 481.876C188.464 469.896 170.722 458.116 155.877 439.267C137.208 415.57 119.679 372.219 129.158 342.331C131.189 335.901 135.515 331.042 137.659 325.315C140.342 318.157 139.69 310.07 143.101 303.1C144.63 299.973 148.618 295.364 150.937 292.501C154.172 288.52 160.052 285.318 159.413 279.365L159.375 279.353ZM583.516 298.491C583.566 298.026 582.576 297.072 582.451 297.072H571.831C571.705 297.072 570.715 298.026 570.765 298.491H583.516ZM575.028 304.167H587.065C587.19 303.125 585.222 302.886 584.532 302.811C581.397 302.459 578.087 303.062 575.041 302.045V304.167H575.028ZM659.987 341.754C660.175 339.82 659.009 338.401 658.169 336.843C657.792 336.153 654.645 330.803 653.63 331.833C654.244 335.901 656.764 339.217 659.999 341.754H659.987ZM388.084 332.548C382.003 331.067 374.743 338.325 369.966 338.903C367.246 339.229 364.663 337.233 363.095 337.609C360.224 338.287 358.118 346.651 350.206 346.789C348.576 346.814 346.445 345.885 345.391 346.124C344.075 346.425 340.502 351.436 337.844 352.089C333.192 353.232 329.468 346.262 324.691 350.959C319.463 356.095 319.575 358.405 311.401 361.746C307.564 363.316 305.658 362.185 303.326 362.851C300.53 363.655 297.508 367.824 294.11 368.54C289.948 369.419 286.45 367.334 282.563 368.326C275.215 370.21 272.244 379.227 264.533 380.043C261.16 380.395 257.198 379.176 254.114 380.219C251.995 380.935 250.666 382.567 248.76 383.409C246.102 384.576 242.716 384.664 240.535 385.807C238.541 386.862 236.447 390.228 234.379 391.709C226.831 397.084 221.138 394.171 213.854 397.398C206.995 400.437 203.108 405.661 197.115 409.002C189.204 413.422 175.437 416.386 174.22 427.211C173.92 429.911 173.869 447.266 174.584 448.836C177.606 451.498 180.678 454.123 183.912 456.509C187.649 459.272 197.14 466.229 200.889 467.874C201.855 468.301 202.419 468.74 203.61 468.74C204.663 468.74 214.368 465.274 215.772 464.571C224.047 460.427 231.583 454.173 241.011 450.142C246.19 447.932 252.245 446.651 257.098 444.265C259.066 443.298 265.11 440.058 263.806 437.509C257.762 441.929 249.976 443.549 243.143 446.601C234.629 450.393 226.492 455.215 217.891 458.907C212.123 461.381 206.017 463.014 200.438 465.865C199.372 463.227 195.159 461.658 192.702 459.786C187.712 455.981 183.486 452.905 181.681 446.714C180.126 441.364 179.023 431.418 180.953 426.156C183.599 418.935 194.758 417.001 200.651 413.259C205.804 409.981 211.246 403.313 217.402 401.668C220.461 400.852 223.734 401.203 227.131 400.073C236.234 397.021 246.591 387.741 255.794 385.518C264.069 383.509 269.235 387.302 276.482 379.289C277.61 378.046 279.29 374.191 280.293 373.714C283.729 372.056 289.722 374.43 294.085 373.525C297.558 372.797 300.693 368.439 303.777 367.636C313.03 365.237 314.008 367.334 322.559 360.201C324.24 358.795 324.566 356.61 326.973 356.082C331.512 355.09 334.258 358.682 340.401 356.082C343.21 354.902 344.94 351.938 346.946 351.298C349.905 350.356 353.667 350.971 356.851 349.163C358.97 347.957 360.738 344.089 361.854 343.537C364.274 342.344 368.725 344.064 371.458 342.52L388.059 332.561L388.084 332.548ZM603.352 350.268C599.54 346.814 591.992 348.083 587.065 347.442L593.973 349.376L603.352 350.268ZM659.272 380.759C660.476 373.877 663.221 365.262 663.535 358.393C663.635 356.12 663.623 353.985 661.754 352.39C660.952 360.176 657.253 367.02 657.629 374.97C657.692 376.351 657.955 379.955 659.272 380.746V380.759ZM140.255 381.475C140.944 380.796 138.951 377.908 138.838 376.803C138.637 374.693 139.828 372.872 139.377 369.946C138.549 364.496 134.863 358.732 134.236 353.106C131.641 357.916 135.415 364.81 136.506 369.984C137.183 373.211 137.12 376.439 137.622 379.541C137.847 380.972 139.114 382.58 140.255 381.475ZM332.139 370.838C331.499 370.248 321.168 374.078 319.538 374.869C316.052 376.564 316.83 378.122 320.365 377.883C322.158 377.757 334.283 372.81 332.139 370.838ZM339.223 375.798C335.674 380.043 330.948 380.947 326.496 383.258C323.186 384.966 323.976 386.749 327.374 386.309C331.625 385.757 338.007 380.03 339.235 375.811L339.223 375.798ZM286.838 383.609C287.352 387.427 293.095 386.699 295.916 385.958C297.583 385.518 308.316 378.85 306.661 377.217C300.568 380.771 293.86 382.843 286.838 383.609ZM642.997 389.273C640.615 386.284 636.026 385.455 632.378 385.744L642.997 389.273ZM314.447 386.448C309.758 387.603 306.109 390.077 301.295 391.345C296.48 392.614 291.791 393.154 286.838 393.543L286.876 396.318C297.032 399.872 308.592 395.037 314.447 386.448ZM655.736 387.151L653.605 387.615C653.542 393.141 647.9 401.166 647.925 405.975C647.925 408.562 649.918 409.492 651.423 407.281C652.2 406.139 656.476 387.854 655.736 387.138V387.151ZM143.076 389.989C140.493 387.389 142.612 396.532 142.725 397.084C143.464 400.814 144.179 407.055 147.326 409.14C147.577 402.446 144.869 396.243 143.076 389.989ZM277.623 389.989C274.664 390.504 272.231 392.438 269.272 393.317C267.128 393.957 260.358 393.606 261.348 396.707C266.714 399.998 274.513 394.522 277.623 389.989ZM208.939 426.872C210.581 432.234 221 425.227 224.06 423.217C228.924 420.003 231.658 419.262 236.498 416.524C242.541 413.108 246.942 407.934 249.299 401.329C245.487 403.049 243.243 406.867 240.046 409.429C235.896 412.757 227.32 418.307 222.63 421.07C218.455 423.519 213.59 425.49 208.951 426.884L208.939 426.872ZM279.04 401.329L254.277 405.938C259.981 411.312 268.971 409.366 275.015 405.448C276.319 404.606 279.014 403.087 279.04 401.329ZM304.53 402.045C301.859 404.72 281.196 408.688 281.184 410.911C284.268 414.113 289.672 412.455 293.396 411.099C295.214 410.446 306.498 404.531 304.53 402.045ZM224.511 411.953L224.172 410.559L204.713 417.993C210.619 422.502 219.044 414.64 224.524 411.953H224.511ZM271.742 417.491C272.006 416.951 272.332 415.67 271.617 415.532C266.689 418.985 257.762 419.299 253.048 421.748C252.321 422.125 251.23 422.602 251.43 423.67C255.267 427.5 270.125 420.844 271.742 417.491ZM640.878 417.654L635.199 425.792C631.111 432.397 619.062 435.788 614.674 440.698C612.254 443.411 610.611 450.255 608.267 452.729C605.333 455.818 594.211 460.866 589.923 462.009C587.027 462.788 583.629 462.75 580.695 463.767C580.444 469.795 591.24 465.94 594.851 464.822C600.167 463.177 608.217 459.849 611.276 455.027C613.269 451.887 614.674 444.428 617.131 442.456C618.811 441.1 625.356 439.38 628.152 437.885C636.076 433.641 640.878 426.96 640.878 417.667V417.654ZM167.864 438.928C167.287 436.856 167.124 431.983 166.071 430.438C165.431 429.497 163.576 429.195 162.547 428.291C159.012 425.139 156.078 421.233 152.291 418.358C152.743 420.241 154.36 422.439 155.526 423.971C159.388 429.044 164.315 433.503 167.851 438.928H167.864ZM289.659 419.061C285.459 420.982 280.77 421.61 276.457 423.217C272.858 424.561 273.335 426.169 276.933 425.855C280.97 425.503 288.268 423.343 289.659 419.061ZM221.765 436.014C226.893 436.479 232.435 434.344 236.773 431.694C238.516 430.627 245.375 425.779 243.632 423.318L221.013 434.306L221.765 436.014ZM204.688 426.169C200.714 427.701 190.432 427.06 191.235 432.536C196.3 432.523 201.867 430.501 204.688 426.169ZM254.252 432.548L231.62 441.439L230.893 443.888C238.441 441.602 248.873 438.45 254.252 432.548ZM196.2 441.753C198.369 444.755 216.186 439.631 214.606 433.251C210.431 436.994 201.679 437.245 197.416 439.794C196.513 440.334 195.949 440.51 196.2 441.766V441.753ZM286.826 435.386C277.184 436.717 268.407 443.21 259.217 446.375C269.711 452.352 279.905 442.456 286.826 435.386ZM499.962 452.402C499.21 449.966 497.028 447.216 495.373 445.307C494.646 444.466 489.455 438.902 488.64 439.643C492.088 444.227 495.235 448.974 499.962 452.402ZM220.975 444.604C217.239 444.755 202.268 448.673 200.187 450.921C198.381 452.867 200.588 453.696 202.582 453.507C207.434 453.055 217.665 448.384 220.975 444.604ZM221.69 476.514C219.145 488.507 238.93 493.203 247.857 491.734C254.038 498.603 259.768 503.928 269.473 504.87C273.987 505.309 283.453 503.752 286.663 504.619C290.249 505.586 293.697 510.433 297.069 512.693C308.529 520.392 321.757 517.679 333.806 512.781C348.024 527.022 364.073 525.804 381.251 517.78C386.078 521.421 392.573 524.774 398.516 525.98C409.988 528.316 421.586 523.117 431.077 517.039C444.33 522.464 454.273 525.402 467.4 518.006C469.808 516.649 475.4 511.802 477.13 511.387C478.998 510.935 490.822 513.447 494.646 513.422C502.119 513.384 511.547 510.044 517.879 506.151C522.944 503.036 534.291 491.332 538.178 490.315C542.93 489.072 551.105 490.089 556.785 489.097C563.618 487.891 572.345 484.865 576.319 478.875C577.385 477.255 580.708 469.167 580.658 467.61C580.633 466.769 579.68 465.576 579.278 465.877C576.382 473.387 572.157 480.005 563.882 482.027C560.358 482.881 553.801 484.526 550.541 485.003C547.657 485.417 545.187 483.71 542.266 484.488C538.943 485.367 533.94 491.684 531.069 493.856C524.951 498.478 509.315 506.477 502.131 508.147C495.398 509.705 482.509 506.703 477.055 508.009C473.281 508.914 469.369 512.719 465.783 514.276C456.793 518.181 441.008 518.119 432.156 513.623C431.14 513.108 431.328 511.827 430.939 511.99C428.921 513.736 426.175 515.067 423.755 516.147C412.12 521.283 404.797 523.054 392.322 519.462C389.049 518.52 381.777 514.301 379.909 514.125C378.041 513.949 374.944 516.31 372.9 516.988C360.237 521.195 355.723 520.103 343.711 514.954C339.875 513.309 335.474 511.475 332.515 508.637C317.356 516.9 302.962 512.618 289.722 503.061C288.456 502.145 286.713 499.621 285.61 499.319C283.227 498.666 281.271 501.291 278.676 501.391C271.266 501.693 261.85 498.742 255.719 494.56C253.675 493.166 250.503 488.996 249.123 488.394C246.39 487.201 242.328 488.168 239.206 487.69C235.683 487.15 227.846 482.893 225.301 480.344C223.909 478.95 223.696 476.413 221.69 476.526V476.514ZM160.792 472.257C167.538 498.478 181.768 520.078 202.231 537.483C288.318 610.696 437.183 618.068 537.965 573.801C574.752 557.639 617.319 529.195 632.39 490.365C634.797 484.162 637.907 475.861 637.681 469.431C636.804 470.247 635.926 470.976 635.362 472.068C628.303 485.656 627.262 497.624 617.068 511.199C558.992 588.557 419.379 607.595 330.571 590.491C314.535 587.401 280.519 579.176 266.965 571.214C265.925 570.599 264.909 570.059 264.157 569.067C267.141 568.74 270.814 571.088 273.911 572.068C299.201 580.042 325.092 586.836 351.635 589.046L352.664 587.878C321.331 583.822 290.713 575.057 262.038 561.984L309.47 575.471C322.986 578.347 336.715 581.009 350.545 581.486L349.843 580.419C322.936 576.3 294.838 569.996 269.836 559.133C268.62 558.606 266.15 557.827 265.574 556.684C284.795 561.934 303.752 568.074 323.5 571.352C330.872 572.57 341.542 574.504 348.802 574.441C349.88 574.441 350.984 574.228 351.247 572.997C319.864 570.234 289.058 561.481 260.621 548.157C260.445 546.864 262.1 547.567 262.778 547.768C265.574 548.559 268.407 550.229 271.404 551.196C290.01 557.212 313.733 564.094 333.167 565.224C333.944 565.274 335.85 565.676 335.662 564.495C315.977 561.293 297.245 556.395 278.475 549.79C268.244 546.186 254.841 541.59 245.237 536.981C243.042 535.926 241.764 532.648 243.958 533.289C244.973 533.59 246.503 535.21 247.857 535.763C270.112 544.83 295.54 552.302 319.224 556.471C320.679 556.722 323.813 557.89 324.327 555.981C301.633 551.649 279.34 545.005 258 536.24C247.443 531.907 236.322 527.022 226.128 522.074C213.678 516.034 203.485 507.884 192.275 499.96L193.705 507.042L184.84 492.161C183.511 492.01 184.289 493.593 184.464 494.321C184.903 496.23 185.881 498.327 186.257 500.336L193.015 513.434C184.226 506.59 178.985 495.991 174.948 485.782C173.706 485.593 174.22 487.414 174.409 488.092C175.424 491.872 177.731 496.104 178.86 499.947L186.646 514.138C179.123 506.477 173.681 496.644 169.168 486.962C166.861 482.014 166.384 474.291 160.792 472.307V472.257ZM213.891 475.798L214.593 470.122L209.653 473.324C209.152 474.63 213.039 476.037 213.891 475.798ZM311.614 546.726C277.372 538.827 244.284 526.733 213.427 509.956L191.949 495.652C192.714 497.825 194.256 499.093 195.962 500.487C209.917 511.865 230.065 521.836 246.804 528.278C267.166 536.127 288.054 542.217 309.307 547.241L311.601 546.713L311.614 546.726Z" fill="black"/>
<path d="M143.59 509.353C148.317 513.171 139.364 520.166 136.995 512.706C135.904 509.265 140.744 507.055 143.59 509.353Z" fill="black"/>
<path d="M136.117 496.468C137.584 494.133 143.878 496.87 141.621 500.148C138.6 504.518 134.186 499.533 136.117 496.468Z" fill="black"/>
<path d="M646.533 502.747V504.87L643.712 504.167L645.129 508.424H643.725L642.295 502.044L646.533 502.747Z" fill="black"/>
<path d="M390.918 400.626C390.842 399.119 391.958 397.649 393.062 396.758C397.45 393.204 406.791 391.282 411.092 387.151C415.693 382.73 418.477 373.149 424.169 367.623C438.713 353.483 474.723 357.326 493.981 357.401C495.975 357.401 502.909 355.706 500.012 360.591C498.646 362.889 488.941 367.636 485.807 370.474C482.007 373.915 479.588 378.637 476.177 382.115C463.112 395.452 449.672 395.439 432.269 396.996C418.414 398.24 404.584 398.076 390.93 400.626H390.918ZM487.211 362.336C470.874 362.123 450.888 359.423 435.328 365.325C423.567 369.796 421.097 383.622 412.157 391.396L422.439 389.123L422.777 387.879H424.169C423.73 390.416 430.927 388.821 429.485 385.77C430.714 383.66 432.181 384.514 434.087 385.029L433.033 387.867C438.839 385.217 447.954 385.744 453.395 383.446C454.386 383.032 454.825 382.605 454.612 381.487C451.113 381.123 447.038 381.173 443.628 380.784C442.625 380.671 441.559 380.344 442.575 379.365L455.326 376.878L456.003 376.087L455.326 373.701C457.696 373.701 455.916 375.736 458.912 376.816C462.072 377.958 465.419 378.36 467.363 375.12L461.696 375.472C464.579 371.34 468.93 368.992 473.018 366.242L470.899 365.187L479.487 364.76L487.186 362.349L487.211 362.336ZM475.174 375.811C473.431 374.141 460.141 387.565 456.768 387.503C457.608 389.826 465.57 385.82 466.911 384.903C468.767 383.647 472.29 380.068 473.757 378.285C474.409 377.481 475.475 377.142 475.174 375.798V375.811Z" fill="black"/>
<path d="M414.991 268.716C416.22 270.474 402.34 282.153 400.472 284.3C397.864 287.289 395.394 292.112 392.798 294.699C391.056 296.419 380.536 304.431 378.455 305.498C371.559 309.065 360.763 307.847 353.052 308.424C349.968 308.651 330.208 311.062 329.368 309.793C328.703 302.635 336.051 299.282 339.937 295.289C349.905 285.041 346.884 276.665 364.725 271.893C376.298 268.791 384.498 270.725 395.532 270.122C398.704 269.947 413.549 266.631 415.016 268.716H414.991ZM400.835 273.676C397.638 272.973 394.165 274.43 391.281 274.43C388.723 274.43 385.915 272.986 383.482 272.961C377.188 272.898 366.706 274.694 360.926 277.306C351.874 281.412 349.93 289.525 343.837 296.356C340.364 300.249 335.85 302.698 332.139 306.264C336.051 306.202 339.085 303.301 342.721 302.334C351.886 299.885 358.757 299.86 367.659 298.792C373.552 298.077 378.066 294.334 383.834 294.221C383.884 292.953 384.197 292.727 382.78 292.802C378.731 293.016 373.803 294.724 369.327 294.899C367.333 294.975 356.225 295.527 356.225 293.87C357.867 291.057 362.757 292.35 364.349 291.785C365.628 291.32 366.217 289.55 367.898 289.964C369.565 292.375 366.067 292.237 365.428 294.221C369.176 291.81 377.502 295.402 376.762 289.261H380.636L381.351 291.396C383.859 290.065 380.047 286.661 383.119 287.151L383.533 289.349L386.655 289.286L385.238 293.531C389.15 293.531 392.021 291.27 391.595 287.151C386.216 289.386 383.984 284.162 379.571 283.961L384.887 280.056L385.94 282.178C385.94 279.704 388.122 280.37 389.426 279.629C390.918 278.775 392.159 277.594 393.751 276.866C395.895 275.887 399.544 276.213 400.823 273.676H400.835ZM382.204 300.425C383.044 299.533 383.345 298.566 382.078 297.8C379.433 299.169 376.938 300.839 375.345 303.451C377.151 303.489 381.063 301.643 382.204 300.425Z" fill="black"/>
<path d="M233.789 344.529C229.74 342.118 244.209 330.589 245.738 328.618C250.465 322.565 251.644 315.407 261.035 314.151C274.137 312.405 290.963 311.715 304.128 311.941C306.924 311.991 311.626 313.385 309.846 316.939C309.018 318.584 296.618 325.441 293.947 327.977C289.271 332.41 288.08 336.115 281.146 339.267C272.332 343.286 266.94 340.724 258.138 341.05L233.764 344.516L233.789 344.529ZM299.577 316.236C295.678 316.16 291.766 316.298 287.866 316.261C283.967 316.223 282.801 316.298 279.152 316.55C273.585 316.926 264.495 317.303 259.192 318.684C253.888 320.066 251.731 326.659 248.885 330.351C246.791 333.076 243.519 334.897 242.215 338.212C242.616 338.526 248.108 336.567 248.798 336.127C249.487 335.688 249.801 334.055 250.34 334.005C250.565 333.98 252.396 335.462 254.565 335.412C256.521 335.361 271.868 333.377 272.645 332.888C273.422 332.398 273.51 331.983 273.372 331.142C270.777 329.032 266.138 330.652 264.52 330.288C264.094 330.188 264.245 329.183 263.718 329.045C262.878 328.819 260.27 329.698 259.217 329.71C258.728 326.897 263.267 329.17 264.583 327.651L265.574 329.007L265.975 326.835C267.542 326.872 269.874 327.412 270.539 325.478C265.16 325.353 259.994 326.646 254.966 328.304C258.452 324.461 265.436 324.285 270.438 323.783C272.47 323.582 277.986 324.675 277.635 322.64L279.742 324.047L280.08 321.937C282.5 324.172 284.531 320.041 284.807 319.94C285.472 319.689 290.023 320.304 291.753 317.994L299.565 316.248L299.577 316.236ZM285.409 330.414C284.907 329.961 273.748 334.156 274.087 336.781C277.635 336.919 281.146 334.821 283.804 332.687C284.644 332.021 285.747 331.883 285.409 330.401V330.414Z" fill="black"/>
<path d="M489.192 279.491C489.543 280.094 489.48 281.086 489.342 281.789C488.54 285.682 475.425 289.964 479.537 282.656C481.406 279.328 484.427 280.546 486.521 277.946C482.409 276.427 478.885 277.193 475.901 280.42C474.234 282.229 469.933 290.128 469.043 290.755C468.479 291.145 457.683 295.841 456.806 296.067C455.865 296.306 454.85 296.268 454.649 295.301C454.11 292.702 465.156 288.156 467.413 286.109C472.366 281.626 474.246 273.237 483.173 275.246C483.876 275.41 489.004 279.177 489.192 279.491Z" fill="black"/>
<path d="M446.148 319.074C445.571 320.267 443.352 321.158 442.149 321.799C437.02 324.587 431.353 326.571 426.075 328.882L424.52 327.588C426.802 319.651 439.127 318.81 446.148 319.074Z" fill="black"/>
<path d="M440.418 282.957C440.794 283.497 440.481 285.067 440.13 285.732C439.716 286.523 427.429 294.36 426.363 290.24C425.686 287.967 434.3 281.563 436.469 281.651C436.883 281.663 440.293 282.781 440.418 282.957Z" fill="black"/>
<path d="M470.786 401.479C475.024 401.115 476.729 404.054 473.431 407.03C471.902 408.411 464.015 410.948 462.736 409.177C460.078 405.473 467.701 401.743 470.786 401.479Z" fill="black"/>
<path d="M489.367 405.574C489.743 397.449 501.416 398.089 507.046 394.949C508.689 396.544 498.345 402.786 497.354 403.313C494.909 404.607 492.163 406.628 489.367 405.574Z" fill="black"/>
<path d="M525.452 328.994C528.035 331.494 514.82 338.225 512.738 338.626C510.118 339.141 509.015 337.773 510.218 335.361C511.284 333.214 524.111 327.701 525.452 328.994Z" fill="black"/>
<path d="M325.067 285.732C325.343 287 324.704 287.139 323.901 287.741C322.359 288.909 306.636 295.64 305.959 294.937C304.943 289.148 323.45 283.484 325.067 285.732Z" fill="black"/>
<path d="M533.201 347.493C534.818 352.214 524.085 359.373 521.515 355.254C519.835 352.566 530.016 344.868 533.201 347.493Z" fill="black"/>
<path d="M489.856 305.725C491.486 305.36 495.16 305.687 495.674 307.458C496.451 310.183 488.051 315.934 485.067 313.774C482.772 312.267 487.186 306.315 489.856 305.725Z" fill="black"/>
<path d="M303.865 276.489C300.166 269.419 314.573 265.714 315.827 271.253C316.316 273.413 305.783 276.364 303.865 276.489Z" fill="black"/>
<path d="M416.22 345.445C418.665 344.905 423.366 345.885 421.749 348.874C420.345 350.732 410.603 356.333 410.226 352.064C411.117 349.615 413.549 346.036 416.22 345.458V345.445Z" fill="black"/>
<path d="M435.315 418.144C433.083 420.668 428.62 421.861 426.275 418.759C422.84 414.201 433.171 409.793 435.917 415.532C436.368 416.436 435.917 417.441 435.315 418.144Z" fill="black"/>
<path d="M534.455 303.677C535.733 303.677 536.711 304.293 537.501 305.26C538.041 307.633 527.233 312.744 525.778 310.584C522.97 306.403 531.42 303.652 534.455 303.677Z" fill="black"/>
<path d="M521.214 382.906C520.211 385.531 506.871 391.948 505.642 390.692C505.14 388.168 510.908 385.041 512.952 384.187C515.785 382.994 518.105 382.58 521.214 382.906Z" fill="black"/>
<path d="M414.765 334.055C421.636 337.597 404.446 344.453 403.669 340.686C403.255 338.664 413.11 335.299 414.765 334.055Z" fill="black"/>
<path d="M406.879 302.397C408.96 302.51 411.618 304.029 410.427 306.302C408.621 308.211 404.145 310.17 401.838 308.475L400.948 306.779C401.989 303.577 403.318 302.196 406.866 302.397H406.879Z" fill="black"/>
<path d="M357.466 254.651C360.914 254.224 362.368 257.351 359.81 259.875C358.394 261.269 354.143 261.282 351.962 261.307C349.228 258.23 354.921 254.965 357.466 254.651Z" fill="black"/>
<path d="M428.444 251.7L428.131 253.86C425.097 255.216 416.094 258.431 417.95 252.19C419.041 248.523 425.836 250.821 428.444 251.7Z" fill="black"/>
<path d="M385.79 373.852C389.664 377.732 381.025 383.408 378.48 378.636C377.013 375.874 382.918 370.963 385.79 373.852Z" fill="black"/>
<path d="M359.058 328.291C359.259 330.137 359.058 329.422 358.017 329.723C356.036 330.313 345.091 332.712 344.188 331.833C344.765 324.964 354.344 328.203 359.058 328.291Z" fill="black"/>
<path d="M380.085 246.137C386.015 244.303 388.849 251.248 381.89 252.24C376.148 253.069 377.025 247.078 380.085 246.137Z" fill="black"/>
<path d="M432.657 313.435C435.441 316.826 423.667 320.028 422.84 317.202C421.486 312.594 431.516 312.029 432.657 313.435Z" fill="black"/>
<path d="M404.17 422.025C406.866 421.246 410.339 423.356 410.414 426.169C408.421 429.082 405.813 428.555 402.954 427.224C401.412 425.905 402.164 422.602 404.17 422.012V422.025Z" fill="black"/>
<path d="M398.002 358.079C400.07 360.766 385.338 364.345 388.46 358.079C390.654 353.709 394.692 357.589 398.002 358.079Z" fill="black"/>
<path d="M297.257 348.673C296.819 349.1 292.769 350.921 292.142 350.921C284.882 350.984 292.568 339.983 297.834 346.701C298.098 347.254 297.646 348.296 297.257 348.673Z" fill="black"/>
<path d="M478.497 339.418C476.842 341.301 470.196 342.884 470.497 339.28C470.949 333.804 482.747 334.608 478.497 339.418Z" fill="black"/>
<path d="M513.955 322.778C518.004 326.257 508.551 329.698 505.642 328.291C505.241 325.014 511.397 320.581 513.955 322.778Z" fill="black"/>
<path d="M457.295 334.759C459.088 334.495 461.194 336.567 460.931 338.4C456.68 346.387 449.421 338.853 457.295 334.759Z" fill="black"/>
<path d="M540.322 369.431C542.266 372.307 532.047 376.564 530.43 371.905C532.875 368.691 536.573 368 540.322 369.431Z" fill="black"/>
<path d="M353.291 402.836C355.259 410.433 342.42 408.688 346.683 403.476C348.539 401.191 350.795 401.869 353.291 402.836Z" fill="black"/>
<path d="M550.942 335.387C550.278 337.835 540.661 343.336 539.62 339.983C539.369 338.501 539.708 338.338 540.824 337.66C543.632 335.927 547.657 334.972 550.942 335.387Z" fill="black"/>
<path d="M267.705 357.363C264.332 355.467 260.608 357.288 256.834 355.931C255.079 347.907 269.285 355.705 267.705 357.363Z" fill="black"/>
<path d="M542.98 313.561C543.332 313.887 543.407 314.766 543.821 315.181L535.37 318.358C534.003 313.824 539.896 310.723 542.98 313.561Z" fill="black"/>
<path d="M365.967 381.65L366.506 383.672C358.569 392.576 355.322 378.599 365.967 381.65Z" fill="black"/>
<path d="M448.117 268.176C450.812 270.675 444.255 275.585 442.236 272.27C440.218 268.955 444.995 265.288 448.117 268.176Z" fill="black"/>
<path d="M318.572 335.487C320.955 339.305 311.401 341.101 310.899 338.551C310.648 337.245 313.118 334.583 314.422 334.244C315.2 333.842 318.422 335.261 318.572 335.487Z" fill="black"/>
<path d="M245.049 359.498C246.24 361.168 238.629 364.911 237.262 361.959C237.338 357.966 242.303 358.481 245.049 359.498Z" fill="black"/>
<path d="M221.677 322.615L216.374 324.021L201.152 324.725L211.434 322.628L221.677 322.615Z" fill="black"/>
<path d="M373.214 326.144C370.455 327.362 367.158 326.91 366.142 323.682C366.606 321.51 374.455 322.452 373.214 326.144Z" fill="black"/>
<path d="M372.7 428.09C372.499 427.914 371.734 426.256 371.797 426.169C374.58 425.164 377.953 425.026 380.285 427.223C378.542 428.994 374.656 429.71 372.7 428.09Z" fill="black"/>
<path d="M228.686 360.126C227.646 361.821 221.64 360.792 224.11 357.313C225.614 355.191 230.417 357.313 228.686 360.126Z" fill="black"/>
<path d="M329.33 422.59C328.252 420.279 329.631 417.981 332.201 417.968L334.258 419.438C333.693 421.648 331.537 423.042 329.318 422.577L329.33 422.59Z" fill="black"/>
<path d="M331.437 249.565C332.114 253.395 330.095 254.739 326.484 254.525C325.343 253.395 329.568 248.623 331.437 249.565Z" fill="black"/>
<path d="M435.528 263.027L431.24 263.442L430.576 260.202L434.839 260.541L435.528 263.027Z" fill="black"/>
<path d="M293.91 282.178C290.863 283.296 287.816 283.484 289.735 279.416C291.076 278.574 294.286 280.194 293.91 282.178Z" fill="black"/>
<path d="M223.809 526.859C222.605 527.085 221.753 526.532 220.737 526.043C218.606 525 209.704 519.462 208.224 518.018C207.459 517.277 206.569 516.775 206.82 515.532C208.312 515.142 208.726 515.971 209.666 516.574C214.518 519.663 219.496 523.129 223.809 526.872V526.859Z" fill="black"/>
<path d="M458.185 365.174L444.719 372.596C443.252 373.011 439.227 374.693 438.375 372.609C445.321 371.064 451.189 366.028 458.197 365.174H458.185Z" fill="black"/>
</g>
<defs>
<clipPath id="clip0_8061_341">
<rect width="579" height="449" fill="white" transform="translate(110 176)"/>
</clipPath>
</defs>
</svg>
