<svg width="800" height="800" viewBox="0 0 800 800" fill="none" xmlns="http://www.w3.org/2000/svg">
<g clip-path="url(#clip0_8061_337)">
<path d="M624.694 392.524C627.316 400.796 640.128 399.021 639.293 409.323C638.457 419.661 624.276 422.074 621.978 427.736C621.015 430.103 621.792 432.446 621.421 434.825C620.411 441.322 616.512 452.355 610.872 456.138C602.342 461.858 590.922 459.305 581.337 460.384C574.815 472.531 564.602 480.398 552.242 486.106C543.782 490.016 534.637 493.821 525.435 490.143C522.522 488.983 517.636 484.145 514.816 484.435C512.855 484.644 512.448 486.79 511.241 487.8C502.654 495.051 478.584 494.134 468.349 490.48C461.78 488.125 453.482 482.173 447.483 480.757C446.218 480.456 444.883 480.026 443.653 480.757C439.742 487.196 435.286 493.299 431.433 499.761C419.491 519.81 408.06 541.668 400.493 563.782C394.47 581.359 391.151 600.467 383.41 617.441C375.02 635.842 361.987 632.164 354.746 615.527C335.934 572.309 360.815 531.83 371.62 490.642C370.03 488.937 362.022 499.657 361.163 500.899C358.355 504.948 355.57 510.111 353.028 514.427C343.941 529.846 331.477 550.753 324.549 566.879C319.733 578.087 317.133 590.559 312.654 602.15C304.693 622.743 287.587 668.421 269.842 680.429C261.405 686.137 250.206 688.144 246.017 676.449C242.895 667.725 247.537 651.656 249.673 642.432C255.893 615.596 263.541 585.907 271.223 559.466C273.382 552.04 276.747 545.114 279.196 537.805C269.343 546.947 266.604 559.907 261.835 571.741C252.214 595.548 229.7 648.384 209.67 662.979C203.124 667.748 195.488 671.124 187.713 666.553C180.065 662.051 181.539 652.932 183.407 645.646C191.241 615.167 207.766 583.714 215.646 552.969C215.902 551.948 216.261 550.985 216.087 549.917C215.426 550.172 214.602 550.451 214.161 551.019C200.293 568.376 185.856 609.946 158.41 609.819C151.911 609.784 145.864 603.333 146.038 596.859C146.375 584.004 167.578 550.938 174.367 537.828C183.57 520.042 191.542 500.458 201.209 483.089C206.989 472.705 214.869 464.572 222.482 455.616C221.275 455.418 220.613 455.697 219.592 456.231C194.026 469.608 176.328 512.06 145.493 515.331C136.557 516.283 128.213 511.48 130.337 501.455C132.193 492.649 157.493 465.071 164.781 456.88C174.819 445.591 188.85 428.873 199.828 419.278C208.045 412.096 218.698 405.982 227.507 399.16C248.361 382.998 266.779 363.53 286.206 345.698C280.972 339.978 273.324 335.685 268.38 329.756C256.821 315.88 252.91 285.587 247.526 267.767C246.934 265.817 245.332 264.379 244.938 262.07C243.417 253.206 247.375 238.367 255.649 233.575C260.372 230.837 267.614 232.322 267.788 225.895C268.02 217.367 265.827 213.898 271.931 205.87C280.484 194.616 288.422 198.769 297.509 193.838C303.787 190.427 301.269 183.222 303.149 177.166C306.99 164.798 318.955 161.051 330.537 159.937C335.261 159.485 338.487 160.83 343.164 158.545C351.218 154.589 348.537 144.123 358.053 138.38C370.355 130.955 379.72 137.348 390.652 134.645C398.497 132.707 398.323 123.124 409.116 119.968C427.591 114.573 435.088 127.799 449.061 127.451C456.291 127.277 458.89 120.536 465.157 118.007C472.028 115.234 480.708 115.35 487.451 118.39C495.911 122.207 499.311 130.363 510.22 129.273C517.415 128.553 519.469 126.291 527.814 128.379C542.483 132.046 546.51 143.567 554.32 154.136C562.85 165.68 577.588 160.738 589.646 170.437C602.238 180.566 599.197 186.9 604.814 199.245C608.609 207.575 618.021 205.997 625.506 208.503C634.442 211.485 641.8 218.702 642.565 228.412C642.809 231.464 641.869 238.158 642.647 240.444C642.995 241.465 645.966 242.811 646.941 243.808C648.032 244.922 659.08 265.319 660.31 268.045C665.056 278.615 670.58 302.434 669.954 313.827C669.327 325.22 660.53 341.347 663.548 352.102C664.29 354.724 666.344 357.172 667.11 360.003C669.838 370.074 665.149 384.333 655.737 389.472C646.326 394.612 634.72 389.809 624.694 392.535V392.524ZM465.343 210.893C467.583 209.223 469.138 206.125 470.542 203.677C482.855 182.329 490.074 157.396 499.601 134.737C493.323 130.735 486.627 123.321 478.967 122.393C464.902 120.687 462.07 126.245 458.635 138.241C455.606 148.834 454.26 160.041 451.637 170.762C446.02 193.711 437.154 214.826 430.748 237.172C429.634 241.047 424.853 252.58 430.91 252.951C432.64 247.846 434.183 242.486 436.168 237.485C436.655 236.267 437.467 233.9 438.558 233.192C437.839 240.038 435.007 246.477 434.113 253.287C433.858 255.26 436.063 253.113 436.562 252.545L447.494 219.815C448.806 219.815 447.97 222.31 447.842 223.029C446.577 229.712 443.56 237.068 441.761 243.727C441.761 246.013 443.235 243.066 443.374 242.787C445.498 238.448 446.775 233.459 448.655 228.946C462.337 196.008 477.621 163.673 487.66 129.331C488.53 129.157 489.192 129.563 489.47 130.398C490.155 132.521 485.559 144.472 484.48 147.5C479.443 161.724 473.223 175.321 467.594 189.244C461.966 203.166 456.593 216.787 451.324 230.64C455.142 226.37 457.637 220.697 460.155 215.569C465.111 205.487 470.02 194.279 474.383 183.907C481.451 167.084 487.497 149.785 493.451 132.545L495.308 132.498C495.331 133.832 495.424 135.167 495.157 136.501C493.799 143.288 487.578 157.211 484.77 164.346C478.619 179.985 471.238 195.149 465.355 210.882L465.343 210.893ZM443.015 133.183C432.059 129.923 424.377 122.764 412.168 124.922C406.458 125.931 401.538 131.408 401.549 137.301C401.549 142.534 402.768 149.17 402.896 154.472C403.592 181.958 402.072 212.738 408.269 239.597C408.988 242.729 409.545 246.256 412.11 248.484C413.213 247.73 413.108 246.802 413.12 245.63C413.143 240.896 411.541 234.596 411.158 229.689C410.915 226.591 410.59 223.493 411.158 220.453L415.951 247.834L418.156 248.496V234.167L420.721 207.076C421.545 206.902 421.742 208.26 421.824 208.817C423.309 218.516 419.874 230.153 420.791 239.806C420.86 240.513 421.081 243.321 421.974 243.391C422.021 240.571 422.311 237.671 422.706 234.886C426.454 208.41 434.171 182.584 439.011 156.236C440.427 148.567 440.74 140.643 442.991 133.171L443.015 133.183ZM453.865 132.521L451.417 132.614C447.599 160.83 439.684 188.258 433.487 215.998L437.618 205.162C444.396 181.296 450.488 157.164 453.877 132.521H453.865ZM448.133 133.148L445.336 133.252C443.966 133.635 444.43 138.276 444.222 139.761C439.614 172.34 428.589 203.677 424.551 236.383C425.41 236.476 425.665 234.944 425.932 234.271C430.864 221.776 434.636 202.841 437.746 189.36C442.017 170.831 446.055 152.024 448.133 133.148ZM550.119 231.916C554.482 227.832 559.554 224.619 564.149 220.778C570.207 215.72 575.72 209.223 582.59 205.44C584.911 202.795 593.87 195.648 595.066 193.026C596.783 189.279 589.367 179.359 586.455 176.783C577.333 168.731 571.53 169.834 560.912 167.27C549.121 164.427 544.246 146.2 534.138 138.601C528.278 134.192 515.686 130.421 510.708 137.394C506.75 142.917 502.955 153.44 499.462 159.925C491.884 173.999 483.726 189.337 475.66 203.039C468.337 215.488 458.67 226.858 451.858 239.782C448.817 245.537 445.208 252.011 445.591 258.694C446.717 258.879 446.984 258.717 447.796 258.033C450.72 255.526 454.132 247.73 456.929 244.214C457.533 243.449 457.649 242.474 458.983 242.764L450.709 259.657L453.761 259.831L477.145 224.897L479.71 222.994C480.499 223.25 479.931 224.329 479.687 224.885C475.579 234.109 467.339 242.01 462.314 250.851C462.001 251.408 460.921 252.464 461.861 252.951C467.71 246.001 474.743 240.189 479.71 232.554C504.545 207.946 519.028 175.449 539.001 147.186C540.231 148.022 540.231 149.112 539.616 150.342C524.054 173.836 510.081 198.549 493.033 221.034C485.292 231.243 476.055 240.305 468.569 250.735C469.973 252.754 470.449 249.992 471.389 249.111C485.281 236 498.499 221.915 509.245 206.02C519.992 190.126 528.951 172.316 539.674 156.143C540.602 154.739 541.484 153.335 542.819 152.28C545.094 151.363 542.68 156.967 542.378 157.57C541.484 159.334 539.906 160.471 539.036 161.875C527.442 180.508 516.058 199.454 503.501 217.472C493.346 232.032 481.625 243.924 469.196 256.466C469.869 257.371 471.354 255.828 471.935 255.387C480.395 249.006 492.151 236.754 499.474 228.749C504.394 223.377 508.526 217.147 513.806 212.17C513.969 212.912 513.725 213.388 513.446 214.037C505.392 233.378 486 243.658 472.991 258.357C472.318 259.112 468.999 262.94 469.823 263.787C477.331 266.108 482.797 258.798 489.586 257.429C488.298 260.33 483.18 261.571 481.602 263.776C481.022 264.588 481.022 265.342 482.217 265.029C494.576 260.132 507.539 256.571 519.469 250.642C532.398 244.214 545.5 236.917 558.242 230.141C567.677 225.117 583.518 211.752 591.584 204.211C593.58 202.343 597.746 199.152 596.992 196.24C589.866 203.538 581.987 209.675 574.06 216.01C566.598 221.962 559.542 228.911 550.142 231.916H550.119ZM489.563 167.56C496.549 158.974 499.184 147.5 503.977 137.626L503.942 136.327L501.98 135.074L489.563 167.56ZM395.851 138.891L392.753 139.61L397.313 172.166L399.031 179.034C399.484 165.564 396.014 152.303 395.851 138.891ZM378.618 140.202C366.629 138.09 353.933 144.785 354.572 158.174C365.933 187.399 371.353 220.836 392.683 244.98C393.844 246.291 395.155 248.159 397.128 247.858C393.635 239.411 388.784 232.16 385.65 223.331C385.244 222.194 384.176 220.279 384.699 219.189C389.538 227.322 393.565 236.081 398.776 243.982C399.774 245.502 400.609 247.637 402.861 247.219C404.184 245.85 395.898 230.872 395.886 227.74C395.782 226.069 396.014 226.312 396.652 227.624C397.905 230.234 398.741 233.065 400.157 235.606C400.795 236.754 401.097 237.323 400.888 235.513C400.122 228.877 396.478 221.776 396.049 214.85L384.281 141.223C384.107 139.773 379.894 139.877 379.906 140.504C380.033 141.687 380.869 142.662 381.043 143.822C382.61 154.298 385.569 167.316 386.277 177.456C386.323 178.164 386.66 183.315 385.024 181.587L378.606 140.202H378.618ZM400.319 218.539C400.261 216.752 400.447 214.931 400.319 213.133C399.089 196.565 395.886 176.888 393.228 160.32C392.207 153.962 390.873 147.639 389.991 141.246C389.724 140.237 388.818 139.865 387.902 140.156C385.964 140.77 387.461 147.476 387.681 149.286C390.2 169.428 394.052 195.033 398.845 214.594C399.101 215.627 399.298 218.179 400.319 218.527V218.539ZM349.315 161.828C347.527 161.469 347.933 162.582 348.2 163.905C348.978 167.826 351.45 171.377 352.506 175.205L346.158 163.371L342.317 164.996L344.15 166.028L364.622 203.236L349.326 161.817L349.315 161.828ZM341.655 165.042C338.29 165.332 334.506 165.332 331.199 165.68C327.694 166.051 321.857 167.026 318.572 168.349C314.615 169.95 311.458 172.746 309.567 176.551C307.884 179.939 306.399 182.909 310.356 185.172L321.276 201.333L307.571 185.404C306.143 188.861 309.892 192.423 312.027 194.964C319.791 204.234 329.005 211.949 337.547 220.43C348.433 231.22 358.471 244.992 372.908 251.025L347.411 225.86C348.699 225.442 350.974 227.612 351.879 228.401C357.276 233.1 361.825 238.912 367.5 243.368C370.088 245.398 373.732 247.904 376.726 249.111C371.852 243.495 366.119 238.645 361.442 232.844C360.131 231.22 355.523 225.396 355.082 223.899C354.746 222.739 355.929 222.646 356.312 222.983C356.394 223.052 356.475 224.05 356.939 224.561C363.194 231.359 369.693 239.713 376.714 245.607C377.225 246.024 377.991 247.277 378.629 246.245C367.825 232.589 356.788 218.76 347.771 203.816C340.878 192.4 335.4 180.136 328.924 168.499C329.365 167.664 330.63 168.337 331.187 168.778C333.23 170.402 341.191 187.063 343.466 190.915C351.519 204.57 362.765 222.878 372.629 235.037C373.21 235.757 373.894 236.708 374.799 236.998L335.423 168.36C334.669 166.573 336.235 166.272 337.512 167.548C348.108 187.573 359.62 207.157 372.896 225.524C370.03 218.388 366.455 211.485 362.811 204.698C356.382 192.736 346.877 179.846 341.968 167.525C341.655 166.724 341.713 165.843 341.632 165.019L341.655 165.042ZM323.191 212.808L306.306 193.061L304.762 194.732C310.112 201.171 316.518 207.482 323.191 212.808ZM346.135 238.297C338.057 229.283 328.274 221.927 319.35 213.782C315.416 210.186 311.865 205.8 307.896 202.296C305.981 200.602 299.331 194.117 300.178 199.755C310.356 209.826 321.021 219.386 332.174 228.366L346.135 238.309V238.297ZM315.126 217.681L296.082 200.069C286.461 200.962 275.471 206.148 273.022 216.486C272.488 218.748 272.279 226.069 273.44 227.832C274.345 229.213 282.19 234.898 284.117 236.267C295.699 244.551 309.869 252.73 322.773 258.798C331.826 263.056 341.261 267.5 351.253 268.88C351.078 267.778 349.988 267.767 349.198 267.442C340.553 263.776 333.195 261.211 325.536 255.41C324.944 254.958 323.528 254.123 325.431 254.239C335.853 259.552 346.61 265.261 358.274 266.966C358.123 266.061 357.102 265.736 356.394 265.353C347.527 260.515 336.085 257.975 328.959 250.085L329.899 249.772C339.311 255.619 349.523 260.063 359.98 263.683L360.815 262.523C347.655 255.944 334.17 248.995 323.853 238.297L346.146 252.011C348.595 252.812 361.419 260.527 362.73 259.32C362.811 258.74 362.8 258.508 362.428 258.033C361.616 257 350.197 251.094 347.875 249.644C329.597 238.158 310.867 221.231 295.037 206.392C293.668 205.104 292.24 203.665 291.335 201.971C293.586 201.867 295.675 203.793 297.37 205.174C305.041 211.404 311.992 219.432 319.373 225.872C330.305 235.432 343.315 243.948 355.929 251.141C358.088 252.371 361.013 254.517 363.368 254.54C346.657 243.101 330.363 231.035 315.149 217.669L315.126 217.681ZM591.305 211.288C593.313 209.478 596.597 207.007 597.92 204.837C598.675 203.596 598.907 203.688 597.607 202.621L578.807 220.442C583.344 218.377 587.615 214.606 591.317 211.276L591.305 211.288ZM529.728 250.398C542.181 246.686 553.705 239.527 564.985 233.076C574.223 227.798 586.443 221.37 594.683 214.966C596.412 213.62 600.033 210.951 601.158 209.315C601.541 208.747 602.063 208.457 601.472 207.703L599.858 206.427C599.824 207.366 599.255 208.074 598.605 208.689C585.573 220.964 569.627 227.032 555.016 237.126L529.728 250.398ZM607.483 210.905C603.92 209.292 604.489 211.218 602.609 212.715C595.263 218.516 586.408 224.7 578.366 228.61C564.915 235.153 551.755 246.094 538.351 251.071C535.403 252.162 531.806 252.58 528.904 253.728C527.895 254.123 525.736 255.12 525.272 256.141C533.755 254.529 542.297 252.916 550.095 249.087L549.527 247.916C557.964 244.829 566.331 237.334 573.875 233.668C576.091 232.589 578.9 233.018 580.408 230.663C581.337 230.779 579.074 233.192 581.035 232.566C582.033 232.241 586.884 229.178 587.708 228.401C592.454 223.899 597.108 221.486 602.075 217.274C602.98 216.509 608.11 211.763 607.506 210.917L607.483 210.905ZM639.49 258.555C637.274 257.267 635.219 248.182 634.976 245.549C634.419 239.4 636.31 226.046 633.513 221.521C628.953 214.165 617.487 213.666 609.711 212.796C608.794 212.982 604.234 218.469 602.679 219.792C592.292 228.679 583.959 231.649 572.389 237.3C565.6 240.618 558.149 247.359 551.198 251.164C534.87 260.086 514.688 259.935 499.764 271.421C504.139 269.948 508.236 267.511 512.657 266.154C520.932 263.613 530.065 262.755 538.351 259.97C554.088 254.691 563.906 245.201 578.18 237.973C588.102 232.949 596.621 228.505 605.533 221.347C607.355 219.885 611.916 214.339 613.553 214.061C616.64 213.539 611.858 218.992 611.348 219.502C606.694 224.154 587.905 238.019 582.149 240.026C575.511 242.347 576.567 242.242 570.741 245.816C565.368 249.111 559.623 252.081 553.96 254.854C553.809 256.025 555.283 255.376 555.91 255.213C561.004 253.867 568.559 250.271 573.271 247.718C577.983 245.166 581.638 241.001 587.093 241.152C577.994 246.79 568.664 252.011 559.484 257.522C543.887 266.896 536.274 270.586 517.764 273.8C514.027 274.449 506.982 274.252 504.035 275.378C503.164 275.714 502.781 276.201 502.944 277.153C508.363 278.789 512.75 280.865 518.518 281.005C560.32 281.968 591.909 267.465 624.694 243.077L629.777 237.659C630.183 242.114 625.355 245.7 622.071 248.113C604.57 261.014 570.254 278.487 548.981 282.107C539.407 283.731 528.591 282.524 518.866 284.184C518.947 285.054 521.222 285.785 521.883 285.935C529.496 287.664 541.299 288.233 548.842 286.434C552.15 285.645 555.295 283.696 558.521 282.733C576.149 277.408 591.375 272.419 607.251 262.627L630.403 247.231C630.566 248.298 630.194 249.111 629.684 250.004C627.026 254.691 595.344 272.152 588.764 275.366C576.578 281.306 562.235 284.81 548.993 287.861C547.891 288.117 546.753 288.012 545.639 288.012C546.556 289.915 550.548 287.769 551.593 287.954C552.277 288.07 552.173 289.613 552.904 289.753C554.262 289.996 562.617 288.117 564.764 287.699C579.561 284.822 584.725 281.318 597.665 275.343C608.899 270.157 620.458 266.502 630.102 258.067C633.119 260.341 626.109 264.367 624.241 265.574C613.355 272.605 586.745 285.541 574.455 288.442C559.681 291.922 545.256 291.864 530.344 290.553L530.773 292.467C533.477 292.665 536.436 294.034 539.013 294.301C551.72 295.646 569.604 294.498 581.824 290.716C602.864 284.207 623.371 273.753 642.206 262.499C643.552 261.397 644.62 259.877 644.434 258.044C644.213 257.789 640.918 259.378 639.467 258.531L639.49 258.555ZM319.362 262.523C302.755 254.703 287.552 244.33 272.523 233.865C268.229 236.325 262.461 235.548 258.492 238.297C250.821 243.6 249.232 255.817 251.112 264.17C275.088 271.677 298.542 282.513 323.319 287.571C329.005 288.732 334.576 289.613 340.413 289.277V287.374C309.741 284.45 282.155 270.424 253.723 259.958C253.212 257.847 255.719 258.705 256.937 258.984C275.053 263.079 295.501 275.204 314.905 280.042C321.625 281.712 336.897 284.996 343.291 284.184C344.173 284.068 345.183 283.812 344.231 282.919C328.936 280.541 313.93 276.677 299.447 271.294C287.737 266.943 273.335 261.153 262.206 255.631C260.222 254.645 257.912 253.496 256.276 251.999C256.705 251.118 257.889 252.115 258.504 252.313C285.95 261.502 310.855 277.013 340.808 279.636C341.516 279.694 347.98 280.262 346.146 278.452C326.626 274.113 307.745 267.836 289.42 259.958C289.327 258.705 291.347 259.471 291.997 259.61C298.368 261.072 306.631 265.91 313.501 268.068C321.857 270.69 334.692 273.951 343.291 274.612C343.999 274.67 345.659 275.088 345.508 273.997C337.651 271.328 329.528 269.124 321.764 266.189C318.05 264.785 311.342 262.395 308.093 260.736C307.257 260.307 306.607 259.703 305.992 259.007C305.888 258.52 306.584 258.613 306.932 258.705C309.95 259.46 314.232 261.792 317.458 262.847C318.085 263.056 319.512 263.718 319.373 262.523H319.362ZM472.341 292.467C467.142 280.935 461.571 273.289 450.628 266.711C432.28 255.677 401.816 246.744 381.6 256.861C374.486 260.423 375.461 262.813 371.933 268.219C370.459 270.482 367.001 272.686 365.272 274.937L375.333 271.619C389.294 268.44 400.633 269.6 414.35 273.011C439.881 279.38 466.097 297.213 476.82 321.763C478.016 321.89 477.354 320.475 477.145 319.848C474.058 310.346 465.912 299.73 460.237 291.493C460.689 290.576 461.792 291.62 462.372 291.911C463.022 292.235 468.848 296.551 467.873 294.057L458.322 281.933C459.007 280.865 459.714 282.2 460.225 282.582C464.391 285.773 467.641 289.996 472.341 292.456V292.467ZM559.681 255.515L510.603 270.795C520.224 269.797 529.844 267.929 539.129 265.226C546.08 263.207 554.61 260.817 559.681 255.503V255.515ZM642.542 273.997L642.856 275.888L652.72 268.567L651.142 267.105C646.72 270.957 640.743 271.688 635.707 273.858C618.728 281.167 602.516 291.795 584.54 296.621C577.484 298.512 569.72 298.408 562.536 299.487C561.619 299.626 560.842 299.626 561.585 300.751C564.207 300.136 567.619 300.879 570.149 300.728C596.087 299.255 615.816 286.028 638.469 275.343C639.235 274.983 642.008 273.718 642.531 273.997H642.542ZM525.887 382.325L523.38 381.328C507.47 349.863 499.59 306.703 476.786 279.427C473.687 275.726 468.755 270.737 464.055 269.542C488.693 293.976 488.124 331.787 492.824 364.087C493.985 372.069 495.888 390.435 498.801 396.99C504.348 409.521 528.011 404.126 537.794 399.647C552.776 392.802 554.273 375.237 572.041 377.302C574.339 377.569 576.567 379.019 578.795 378.833C576.114 375.318 572.331 373.102 569.221 369.923C556.908 357.335 547.357 343.621 536.355 330.128C530.738 323.236 525.005 316.449 518.553 310.323L518.239 311.263C522.963 317.203 527.315 323.422 531.933 329.443C532.316 329.942 533.651 330.661 532.583 331.346C519.33 317.307 508.944 300.705 495.621 286.736C493.903 284.938 481.01 271.99 479.362 273.37C481.938 276.399 484.596 279.473 486.905 282.71C502.352 304.336 510.116 330.081 520.885 353.889C525.4 363.855 533.036 374.169 537.016 383.636C537.272 384.263 537.794 385.76 537.051 386.154C534.394 383.81 532.49 381.548 530.657 378.52C523.508 366.663 518.088 351.336 512.611 338.562C510.557 333.771 507.992 329.2 506.112 324.338L505.787 326.253C507.899 332.75 527.802 379.866 525.876 382.325H525.887ZM268.368 273.997L253.711 270.168C253.723 271.41 253.282 273.417 254.756 273.904C258.423 273.591 261.974 274.426 265.479 274.658C266.163 274.705 268.485 275.099 268.368 273.997ZM593.464 360.015C595.507 354.921 599.464 353.297 603.456 349.932L612.276 345.988C590.76 332.483 567.805 321.403 545.871 308.501C530.007 299.173 514.502 288.279 498.278 279.601C493.404 276.99 487.903 273.904 482.553 272.709L493.973 280.088C505.613 289.068 515.118 302.538 526.398 311.576C531.864 315.95 538.757 318.456 543.736 323.375C543.84 323.851 543.086 323.805 542.796 323.689C539.86 322.482 534.881 317.273 531.933 316.054C531.562 315.904 530.854 315.938 530.993 316.356C539.094 325.139 546.892 334.467 555.515 342.82C557.825 345.048 561.236 347.252 563.511 349.492C571.345 357.184 578.795 365.236 586.141 373.392C587.104 373.763 588.149 370.236 588.23 369.726C588.474 368.206 587.824 366.465 588.079 365.723C588.625 364.122 592.153 361.291 593.452 360.015C590.841 366.512 589.739 374.088 586.756 380.399C586.188 381.594 579.306 390.992 578.795 390.598C577.96 387.047 574.339 383.625 570.497 384.228L577.495 392.187C576.393 393.197 576.126 394.461 574.664 393.115C572.923 391.503 569.29 385.899 566.993 385.481C566.122 385.319 565.762 385.528 566.041 386.433C566.737 388.695 570.23 392.35 571.252 395.262C571.495 395.969 571.96 396.724 570.811 396.956C568.989 397.304 564.846 389.043 562.525 388.045C561.747 387.709 561.329 388.184 561.585 388.985L567.318 398.87C562.316 399.926 560.343 394.774 557.755 391.537L556.478 392.199C558.776 401.132 560.25 404.311 569.998 401.887C593.603 396.004 588.845 365.862 606.624 355.014C611.255 352.183 620.759 349.19 623.962 355.304C626.307 359.783 623.452 360.073 622.187 362.428C618.694 368.96 614.005 376.153 613.286 383.985C612.996 387.175 613.239 389.461 614.179 392.489C614.4 393.22 617.672 400.935 618.937 399.508C616.93 392.535 615.038 387.976 617.754 380.806C621.003 372.243 632.098 360.78 624.833 351.87C616.315 341.428 600.346 353.204 593.441 359.991L593.464 360.015ZM649.343 277.594C650.26 276.77 651.409 275.575 652.418 274.612C652.917 274.136 654.078 273.336 653.068 272.709C649.378 275.03 646.268 278.336 641.962 279.438L634.906 284.16C635.788 284.126 636.612 284.578 637.506 284.439C641.219 283.882 646.534 280.134 649.354 277.57L649.343 277.594ZM183.593 577.321C185.02 575.175 191.577 563.213 192.842 562.668C193.747 564.814 194.885 567.97 197.612 568.399C198.413 567.599 192.9 563.352 194.699 561.38L209.577 537.979L217.387 520.61L221.832 525.704C221.112 521.179 216.702 520.715 219.94 515.505C221.46 515.157 220.961 515.772 221.356 516.329C222.238 517.617 222.853 520.042 225.035 519.949C223.839 517.988 221.588 516.55 221.843 513.962C221.913 513.208 226.636 504.402 227.46 502.94C230.686 497.221 234.307 492.278 238.764 487.452L242.884 490.642L240.412 485.955L243.208 483.008L246.075 485.537L244.183 481.453C248.489 478.541 252.527 473.286 254.906 468.552C255.197 467.972 256.241 466.881 255.324 466.417C249.603 476.847 238.207 482.741 231.522 492.336C222.041 505.945 214.358 524.149 206.026 538.86C201.674 546.541 195.836 553.456 193.109 561.972L191.948 561.415L179.461 580.489C177.953 578.447 182.293 574.722 182.305 574.363C182.513 568.423 197.507 547.713 201.558 540.763C210.76 525.019 218.733 504.263 229.224 490.039C238.346 477.671 262.438 462.983 262.694 446.334C262.74 443.712 260.895 438.769 261.405 436.832C262.461 432.794 264.376 441.426 264.55 441.89C264.84 442.703 264.109 443.062 265.827 442.83C266.303 439.257 266.094 435.161 266.477 431.692C266.57 430.892 267.44 425.508 269.018 426.912C270.748 434.036 269.1 441.229 268.461 448.341C268.392 449.049 267.869 450.627 269.018 450.488L273.8 430.091L276.666 423.733C273.637 448.55 263.483 470.315 251.286 491.71C244.009 504.46 234.609 516.538 229.201 530.171C223.863 543.629 220.253 558.723 215.495 572.553C207.824 594.84 196.985 619.193 190.614 641.353C189.488 645.263 186.471 655.925 188.757 659.162C191.182 662.596 197.531 658.304 199.875 656.355C210.888 647.247 219.905 621.641 226.393 608.299C228.435 604.099 231.499 599.992 233.565 595.722C243.51 575.221 248.849 553.433 259.99 533.558C264.411 525.669 270.365 520.019 275.657 512.895C280.948 505.783 285.208 496.965 291.068 490.062C292.484 488.391 299.064 482.869 299.319 482.37C300.921 479.179 295.617 469.759 296.441 465.802C300.341 468.274 300.492 473.576 301.536 477.59C301.768 478.472 301.524 479.574 302.801 479.818C303.671 473.216 301.385 467.171 300.898 460.697L302.859 461.08C303.776 463.331 304.112 465.733 304.704 468.065C304.971 469.12 304.054 469.933 305.992 469.619C306.642 466.556 305.946 459.792 306.735 457.298C306.886 456.811 307.234 456.555 307.594 456.242L309.172 457.194V478.855C309.172 482.486 304.426 497.093 302.905 501.27C295.966 520.355 284.384 538.454 278.407 557.702C269.575 586.104 260.547 620.377 254.152 649.44C252.876 655.229 246.237 678.062 257.146 677.343C263.761 676.902 272.697 662.712 275.912 657.167C291.358 630.505 299.598 596.859 309.799 568.051C315.288 552.528 327.566 535.484 336.061 521.028C342.618 509.879 348.177 496.641 356.649 486.814C359.074 483.994 360.699 483.797 363.055 479.829C370.065 468.007 372.119 452.228 375.484 439.036C377.051 437.458 376.807 441.821 376.772 442.563C376.401 449.583 368.37 477.915 364.332 483.02C359.028 489.703 354.815 493.346 350.104 501.293C337.825 522.014 318.364 552.365 311.087 574.444C300.561 606.35 290.604 638.87 273.475 667.98L266.488 676.426C267.324 677.006 270.782 674.117 271.583 673.236C283.548 660.148 298.809 620.052 305.215 602.347C310.077 588.923 312.375 573.609 318.642 560.962C322.077 554.036 327.16 547.504 330.967 540.786C342.224 520.958 352.61 496.443 369.403 481.082C372.664 478.1 377.202 475.444 380.277 472.195C384.339 467.902 389.341 455.442 391.43 449.571C395.248 438.874 397.615 427.573 400.981 416.726C401.851 415.855 402.176 416.795 402.269 417.689C402.501 419.928 400.134 429.256 399.391 432.029C396.339 443.341 391.488 454.142 387.6 465.153C389.051 463.981 390.35 461.881 391.325 460.268C393.275 457.043 392.88 458.447 393.89 457.147C396.397 453.887 401.781 436.878 403.221 432.005C404.079 429.082 407.851 411.435 408.629 410.646C409.081 410.182 409.835 410.078 409.917 410.658C409.998 416.679 407.77 422.469 406.54 428.316L395.898 458.458C395.805 460.407 396.571 458.899 397.058 458.331C400.215 454.641 400.377 452.437 402.327 448.446C402.559 447.97 403.255 447.889 403.476 447.413C409.87 433.514 413.479 418.315 416.288 403.325L418.133 404.393C416.624 413.326 414.698 422.527 411.994 431.217C409.952 437.76 406.505 447.216 403.441 453.26C401.816 456.463 400.134 458.04 397.801 460.674C399.658 460.953 401.213 459.108 402.257 457.808C414.872 442.204 417.24 422.967 422.972 404.601C423.75 402.13 424.655 398.545 426.466 396.956C427.58 398.487 418.412 429.488 416.938 433.63C415.65 437.238 412.772 441.229 412.76 444.756C415.185 441.647 418.098 438.213 419.909 434.697C427.22 420.519 431.038 405.205 436.017 390.261C438.013 384.251 440.705 378.311 442.991 372.394L437.316 368.6C439.649 365.189 443.177 372.301 444.303 371.466L445.951 367.011C442.632 365.41 439.579 361.419 436.62 359.736C434.067 358.286 430.644 358.738 429.657 354.91C431.688 354.829 434.496 355.084 435.692 356.859C436.063 357.404 435.935 358.576 436.052 358.727C436.121 358.796 437.084 358.147 437.932 358.379C442.051 359.493 445.092 364.864 447.181 365.734C448.411 366.245 449.212 362.242 449.943 361.477C443.305 351.893 431.769 348.215 423.274 340.883C427.661 342.426 432.802 343.934 436.899 346.057C441.796 348.587 447.111 354.376 451.533 356.29C452.322 356.627 453.088 356.824 453.239 355.838C452.136 351.499 447.343 349.932 444.349 347.531C438.024 342.438 432.048 337.066 424.539 333.562C422.752 332.727 412.029 328.654 410.857 328.77C408.164 329.049 406.482 334.919 405.066 337.019C402.327 341.08 397.754 345.002 394.934 349.19C393.333 351.568 393.786 355.223 389.492 354.898C388.9 351.998 391.499 351.069 392.938 349.109C398.091 342.124 402.617 334.664 407.967 327.807C403.592 326.032 398.915 324.617 394.598 322.714C393.832 322.378 392.845 322.088 392.683 321.136C397.197 319.291 405.147 325.29 408.28 324.965C411.414 324.64 413.213 316.611 416.88 320.811L413.085 326.868C415.603 327.169 418.052 327.923 420.419 328.77C432.025 332.935 444.164 341.776 453.529 349.828C455.827 351.8 456.221 355.351 458.229 350.605L457.73 348.181C449.305 340.477 440.833 330.499 431.259 324.303C429.158 322.946 424.899 321.507 423.669 320.556C422.752 319.848 423.274 317.598 424.249 317.307C426.442 316.669 427.58 320.208 428.566 320.927C431.409 323.004 436.527 324.791 440.148 327.506C445.185 331.3 450.047 336.869 454.84 340.86C457.347 342.948 464.403 348.795 464.113 341.857C463.962 338.029 454.562 325.464 451.568 322.47C449.316 320.22 445.614 318.746 444.291 315.718L452.891 321.786C458.461 327.134 464.322 332.785 466.933 340.245C469.579 336.938 466.086 332.344 464.333 329.466C460.48 323.143 454.864 317.493 450.047 311.889C449.374 311.112 447.866 310.694 447.517 309.952C446.926 308.722 447.819 307.817 449.073 308.397C449.815 308.745 450.43 310.509 451.301 311.274C459.157 318.178 466.782 324.338 470.763 334.502C473.873 333.191 467.931 324.095 466.886 322.447C463.95 317.841 459.773 313.073 456.117 309C453.842 306.471 449.154 304.011 449.734 300.728C459.668 308.501 469.869 317.888 474.291 330.035C477.041 330.453 474.871 325.731 474.395 324.512C458.96 285.089 399.333 261.293 361.036 280.227C357.856 281.794 353.887 283.928 353.817 287.977C358.088 287.432 361.662 285.007 366.038 283.952C372.432 282.397 379.151 282.791 385.325 280.366L386.37 281.933C386.799 283.975 379.79 288.5 380.556 284.195C371.817 284.311 363.426 287.27 355.082 289.59C354.409 289.776 353.434 289.265 353.272 289.37C353.098 289.474 352.622 290.901 351.949 291.516C347.017 295.971 343.848 302.144 338.87 307.121C328.402 317.563 315.184 327.25 304.089 337.356C279.045 360.165 255.208 384.901 228.191 405.495C220.149 411.621 210.575 417.062 203.055 423.698C193.91 431.75 182.815 444.431 174.378 453.655C163.806 465.222 148.916 480.908 140.398 493.612C136.661 499.193 131.288 508.115 143.45 504.31C155.996 500.388 175.666 475.42 185.786 465.396C194.583 456.671 205.051 446.798 214.903 439.373C222.18 433.885 230.478 429.441 237.754 423.977C239.599 422.585 247.398 416.47 248.442 415.229C250.984 412.224 250.427 406.052 251.761 402.293C252.899 399.079 253.746 403.952 253.781 405.53C253.85 408.72 252.783 411.586 253.108 414.788L255.023 407.792C256.113 407.63 255.696 409.3 255.638 409.996C255.359 413.558 253.56 416.83 253.305 420.415C241.189 445.707 218.466 464.282 204.958 488.705C195.755 505.354 187.794 523.407 178.846 540.346C170.676 555.823 157.365 574.56 153.199 591.174C151.969 596.082 150.205 601.036 157.493 599.284C164.781 597.532 168.332 589.26 173.415 584.944C171.593 592.682 164.607 598.414 158.131 602.475C158.537 603.136 160.185 602.811 160.847 602.649C167.543 600.955 179.693 583.238 183.628 577.31C182.061 578.888 187.411 584.41 188.084 583.679L187.156 581.104L183.628 577.31L183.593 577.321ZM281.761 279.09C273.277 276.781 264.759 275.494 255.928 275.25L254.964 276.225C257.901 285.309 259.607 294.799 262.322 303.93C265.142 313.456 267.428 320.266 274.101 327.842C275.633 329.582 282.805 336.857 284.639 336.857C293.981 330.093 306.074 327.32 314.278 319.233C303.126 323.097 292.832 329.582 281.459 332.622L281.134 331.358L319.373 312.875C316.077 313.467 312.805 314.488 309.648 315.567C301.49 318.352 286.705 326.392 279.475 327.471C278.987 327.54 277.989 327.819 277.943 327.204C286.206 321.728 296.476 318.793 305.586 314.697L310.437 311.599C298.194 313.27 286.542 318.015 275.053 322.412C273.544 321.554 274.705 320.533 275.691 319.872C277.212 318.851 286.612 315.59 289.06 314.767C292.681 313.548 297.172 312.005 300.863 311.274C307.664 309.94 312.642 310.81 319.338 308.084C320.394 307.655 322.657 306.866 323.168 305.868C318.932 306.715 314.859 307.759 310.507 308.026C303.045 308.49 295.2 308.397 287.83 309.024C282.608 309.464 276.945 310.578 271.85 310.95C271.142 311.008 269.471 311.425 269.633 310.323C283.223 308.188 296.871 305.311 310.658 305.137L324.445 301.401C319.652 301.25 314.894 302.48 310.147 302.677C304.472 302.909 298.53 302.318 292.902 302.677C284.546 303.211 275.552 305.485 267.08 305.845C267.336 304.754 268.705 304.429 269.633 304.209C275.471 302.816 283.757 301.54 289.78 300.833C300.886 299.521 312.178 300.194 323.156 298.199C323.307 297.097 321.706 297.596 320.94 297.572C302.557 296.888 288.492 298.396 270.573 299.475C268.775 299.58 266.953 299.429 265.165 299.475C265.456 298.199 266.837 298.28 267.823 297.99C271.734 296.841 277.896 296.134 282.063 295.658C293.61 294.335 305.25 294.73 316.797 293.732C316.855 292.792 314.511 292.607 313.861 292.537C310.193 292.154 304.971 291.934 301.211 291.795C288.271 291.342 275.494 292.734 262.624 293.094C261.614 292.328 262.624 291.934 263.564 291.818C276.968 290.24 290.558 289.196 304.054 289.265C304.205 288.349 302.952 288.395 302.279 288.186C294.492 285.738 282.167 286.585 273.742 286.701C269.343 286.759 262.554 289.184 259.432 285.448L290.662 284.16C291.196 282.49 288.469 282.246 287.378 282.037C278.14 280.262 268.125 281.109 258.783 281.318L258.156 279.717L281.738 279.079L281.761 279.09ZM576.567 312.226C573.48 312.539 569.581 312.226 566.366 312.226C566.227 312.226 565.194 313.328 565.414 313.49C575.522 315.741 585.538 313.189 595.367 310.625C606.09 307.829 624.299 302.526 633.606 297.236C635.463 296.18 632.771 296.331 632.968 295.971C637.61 293.152 643.807 290.913 648.217 287.629C649.041 287.014 655.343 281.411 655.598 280.993C656.248 279.914 655.853 278.371 655.911 277.176C652.79 280.923 648.426 279.647 645.084 282.594L647.625 283.534C647.115 283.685 643.482 284.833 644.446 286.086L649.227 284.184C650.12 286.284 644.48 287.305 643.065 287.583C640.337 288.105 635.834 288.244 632.968 289.068C629.382 290.112 626.469 294.927 622.129 295.02L621.502 293.106C621.247 296.168 617.603 293.222 617.034 296.923C618.74 297.294 620.353 296.505 621.897 296.366C622.605 296.296 624.183 295.786 624.044 296.923C614.226 299.696 604.965 304.313 595.228 307.306C590.447 308.78 581.163 311.762 576.567 312.226ZM637.448 279.728L616.396 289.59C607.367 295.588 594.648 300.844 584.029 303.118C580.606 303.849 571.124 304.244 569.07 305.241C568.525 305.508 568.525 305.972 568.594 306.483L567.561 305.195L560.32 305.218C557.929 307.736 566.424 308.084 567.944 308.177C588.984 309.534 613.437 297.166 630.392 285.727C632.956 283.998 635.776 282.432 637.448 279.728ZM659.114 289.915C658.639 289.045 658.964 284.88 656.573 284.184C659.033 288.209 644.921 290.518 647.01 292.467C651.525 293.883 654.925 291.238 659.114 289.927C659.347 291.075 658.499 291.47 657.849 292.166C655.227 294.997 646.65 297.758 642.693 299.324C626.411 305.752 609.317 309.894 592.814 315.741C593.232 316.507 594.683 315.892 595.39 315.764C615.491 312.203 634.361 304.974 653.881 300.31C654.461 300.171 660.519 298.698 658.465 300.751C634.651 307.364 611.498 316.089 587.232 320.985C584.876 321.461 581.963 320.695 580.072 322.737C580.072 323.526 583.971 324.187 584.841 324.199C602.029 324.501 632.307 313.676 649.401 308.583C652.72 307.597 656.283 306.842 659.73 306.494L588.996 327.831C589.089 331.485 608.934 327.053 611.301 326.566C627.664 323.178 643.366 317.656 659.091 312.226C659.428 313.873 658.743 313.34 657.849 313.827C648.658 318.804 628.57 323.735 617.8 326.705C611.243 328.515 604.512 329.78 597.909 331.346C598.083 335.001 605.557 334.096 608.446 333.922C615.212 333.504 623.046 330.859 629.626 328.968C639.537 326.102 649.238 322.25 659.103 319.245C658.766 320.15 658.569 320.834 657.664 321.345C655.25 322.714 645.792 325.324 642.38 326.415C630.949 330.058 619.216 333.376 607.471 335.813C605.661 337.75 614.562 339.108 615.119 339.317C617.092 340.059 620.725 343.377 622.442 343.4L656.55 334.537L651.745 337.681C642.728 339.955 634.001 343.134 624.694 344.085C623.661 345.245 627.966 347.67 629.336 347.705C635.672 347.891 647.15 342.786 654.008 342.171C655.215 343.296 651.432 344.363 650.968 344.537C644.48 346.928 637.424 348.123 630.728 349.805C630.612 351.429 631.529 353.169 633.27 353.332C639.409 353.912 647.591 348.888 654.008 349.178C654.484 350.884 651.977 351.011 650.828 351.406C645.072 353.378 639.026 354.713 633.014 355.571L632.98 359.365L656.561 355.536C656.851 357.161 656.306 356.685 655.285 357.091C649.03 359.62 640.604 360.015 634.036 361.999L632.341 365.711C633.293 366.581 654.124 361.442 657.525 361.244C658.964 361.163 658.778 362.579 658.43 363.112C657.687 364.249 635.185 367.312 631.691 368.577C630.183 369.122 629.51 369.702 629.788 371.454C639.339 371.408 648.774 369.087 658.151 367.626C659.439 369.621 657.095 370.329 655.447 370.665C649.621 371.849 630.635 372.371 626.933 375.933C626.283 376.559 623.997 381.2 626.26 381.014L652.732 380.678C651.594 382.128 650.422 382.72 648.612 382.929C641.44 383.776 630.415 381.571 623.881 383.056C620.759 383.764 621.224 386.734 622.465 386.734H649.238C652.569 386.734 659.544 377.719 660.704 374.61C662.526 369.691 662.526 366.465 661.041 361.546C658.581 353.355 655.911 351.51 657.374 341.962C660.066 324.385 667.563 316.136 662.41 295.82C661.517 292.293 659.962 291.4 659.126 289.869L659.114 289.915ZM304.066 329.432L285.579 338.029C285.962 338.899 290.291 340.28 291.277 339.943C293.969 339.027 301.397 331.532 304.066 329.432ZM416.044 449.014C425.154 440.603 435.785 417.213 439.521 405.263C442.875 394.554 445.44 375.144 452.879 366.999C459.9 359.319 464.008 353.796 470.182 345.431C473.049 341.544 477.331 337.832 478.712 333.249C477.656 333.817 476.646 334.896 475.846 335.79C469.138 343.203 463.254 352.729 457.034 360.316C455.038 362.753 452.368 364.11 450.349 366.384C441.947 375.782 438.28 395.494 434.113 407.502C429.123 421.854 421.104 441.009 410.207 451.126C409.104 452.158 406.203 454.386 407.004 455.604C409.197 452.611 413.549 451.311 416.033 449.014H416.044ZM584.458 378.416C584.725 378.253 586.513 374.285 585.224 373.705L563.511 352.38C563.708 353.9 565.043 355.397 565.913 356.662C567.991 359.678 580.397 377.383 582.01 378.172C582.683 378.497 583.843 378.798 584.47 378.416H584.458ZM613.228 375.944C612.763 374.726 604.756 367.185 604.315 367.672C604.036 368.867 604.976 369.192 605.58 369.9C607.286 371.942 610.593 375.701 613.228 375.944ZM609.386 382.314C610.883 378.485 605.522 375.144 602.702 372.754C601.982 372.15 601.657 371.211 600.474 371.489C602.272 373.415 603.827 375.585 605.545 377.58C606.288 378.439 607.785 378.961 608.168 379.576C608.725 380.492 608.261 382.314 609.398 382.325L609.386 382.314ZM422.346 448.968C425.328 445.951 429.657 440.266 432.071 436.681C443.839 419.232 448.434 397.791 451.312 377.221C450.349 377.221 450.129 379.135 449.873 379.912C444.326 396.724 442.133 410.6 433.58 426.715C425.967 441.055 420.396 447.123 408.002 457.217C402.687 461.544 397.232 465.686 391.406 469.294C392.567 469.759 394.714 468.482 395.782 467.937C405.263 463.192 414.942 456.451 422.346 448.956V448.968ZM600.462 377.232C600.079 376.884 598.768 377.104 599.209 378.172L607.483 386.781C607.216 383.706 603.491 381.339 601.39 379.146C600.752 378.474 600.543 377.302 600.462 377.232ZM455.142 377.859C453.227 377.545 454.121 378.323 453.854 379.402C451.73 388.115 450.767 397.06 448.307 405.738C440.218 434.291 425.119 450.546 403.209 468.993C400.865 470.965 398.277 472.822 399.693 475.989C400.841 475.455 400.772 473.959 401.909 472.798C403.557 471.128 406.981 469.979 409.07 468.482C427.789 455.047 442.284 434.268 449.084 412.259C452.566 400.982 453.9 389.565 455.142 377.847V377.859ZM401.596 545.775C402.072 542.399 401.248 538.118 401.596 534.626C403.499 534.15 403.267 536.563 403.511 537.816C407.039 534.568 408.083 529.324 410.276 525.147C419.572 507.372 430.957 490.735 440.589 473.239C451.417 453.574 464.299 402.385 463.428 380.086C463.393 379.32 463.904 377.719 462.801 377.87C460.353 394.682 458.113 412.154 451.231 427.806C443.618 445.093 428.415 463.969 413.282 475.258C408.756 478.634 403.603 481.14 399.368 484.934C398.88 485.027 398.973 484.331 399.043 483.971C400.006 479.319 412.423 474.283 416.566 470.896C439.44 452.17 456.337 419.15 458.333 389.658C458.403 388.625 458.879 385.33 457.707 384.889C455.235 406.933 447.483 428.142 434.38 446.009C428.322 454.27 421.22 460.071 414.373 467.427L399.135 478.959C381.345 519.903 352.506 565.487 363.032 611.756C363.902 615.562 364.842 622.012 369.09 623.219C361.616 602.451 364.366 579.317 368.66 558.108C371.283 545.137 378.826 529.428 384.49 517.211C388.099 509.414 393.24 497.29 397.894 490.468C399.878 487.556 403.801 485.317 407.34 485.584C405.298 490.723 396.931 488.856 396.513 495.782C397.998 494.61 398.486 494.367 400.308 495.179V497.012C397.348 497.418 396.385 498.52 394.992 500.945C389.41 510.702 383.039 526.121 378.548 536.76C370.796 555.127 362.66 596.163 369.438 614.924C371.573 620.841 374.242 623.648 377.736 616.873C381.902 608.786 391.882 576.37 393.17 567.309C394.052 561.148 392.811 556.043 390.141 550.579C393.379 552.667 395.387 555.567 395.55 559.501C401.549 554.941 394.528 548.664 395.248 545.845C396.211 542.063 400.064 549.685 398.416 551.855C399.901 551.031 401.375 547.353 401.596 545.799V545.775ZM619.599 413.547C619.32 415.368 616.512 418.048 615.525 419.997C613.146 424.719 611.232 434.976 610.965 440.301C610.883 442.041 611.568 445.232 613.262 443.109C615.433 440.394 615.119 433.595 615.943 429.975C617.73 422.074 626.144 411.389 634.802 410.913C635.637 409.451 635.196 408.233 633.954 407.154C630.368 404.068 628.581 407.896 625.912 407.467C623.823 407.131 615.572 403.279 613.645 401.956C611.835 400.715 598.431 383.752 596.655 385.493L601.425 391.874C605.545 395.795 608.864 400.61 613.216 404.3C615.792 406.493 620.736 410.855 624.055 409.718C623.069 411.157 621.073 412.642 619.599 413.535C619.668 413.048 619.75 412.096 619.494 411.748L593.464 390.598C593.185 391.793 594.137 392.106 594.729 392.825C599.371 398.383 607.75 407.339 613.204 411.945C614.365 412.932 615.688 413.744 616.86 414.73C618.055 415.032 618.74 414.045 619.587 413.523L619.599 413.547ZM501.04 436.484L488.275 388.695C487.137 388.556 487.66 390.122 487.718 390.841C487.88 392.698 488.124 394.716 488.356 396.573C489.772 407.78 493.497 419.661 494.565 430.509C494.634 431.228 495.203 433.386 494.019 433.282L483.18 389.96C482.936 407.363 488.542 424.186 487.625 441.566L484.886 422.967L479.362 396.329C479.606 414.034 484.364 431.46 481.904 449.211C480.65 448.666 480.383 445.568 480.174 444.257C478.851 436.136 478.724 427.782 478.085 419.591L476.182 410.344C476.101 425.868 478.178 441.287 477.459 456.857C481.114 455.848 484.294 453.307 488.031 452.46C490.039 452.007 496.979 450.998 498.801 451.079C499.787 451.126 502.549 451.903 502.944 453.028C493.265 453.388 478.434 455.349 474.871 466.069C473.42 470.42 474.174 477.381 480 476.615C479.35 474.388 478.016 473.17 478.039 470.559C478.109 461.51 494.251 458.342 501.284 458.864C507.609 459.328 512.228 462.751 518.251 463.238C514.154 451.671 512.112 439.431 509.013 427.55C508.131 424.162 505.253 411.748 503.919 409.706C503.721 409.405 503.106 408.883 502.967 409.08L512.518 455.604C509.524 454.954 510.94 453.226 510.533 450.894C509.187 443.178 506.135 432.702 503.907 425.009C501.992 418.385 500.054 411.133 496.572 405.263C495.563 405.089 495.888 406.156 495.946 406.841C496.607 414.904 500.669 424.116 501.598 432.423C501.69 433.27 502.259 436.31 501.04 436.484ZM590.273 393.8C588.462 395.761 610.686 416.969 612.879 419.301C614.469 421.076 616.419 417.665 615.189 416.389L590.261 393.8H590.273ZM611.301 426.924L612.938 421.842L588.369 398.882C589.437 401.689 591.619 404.485 593.476 406.829C596.365 410.472 600.021 413.535 603.003 417.062C604.976 419.394 607.854 424.696 609.7 426.297C610.257 426.773 610.408 427.121 611.301 426.912V426.924ZM609.398 439.036C608.191 436.217 609.351 434.082 609.444 431.669C609.56 428.49 603.282 422.909 601.135 420.218C596.563 414.498 592.245 408.616 587.104 403.348C587.627 406.272 589.82 408.592 591.05 411.18C596.389 422.353 601.007 426.17 607.39 435.59C608.121 436.669 608.237 438.642 609.398 439.025V439.036ZM536.088 482.37C533.303 483.936 532.084 483.623 529.137 483.925C526.189 484.226 528.417 486.419 530.715 486.779C539.709 488.206 561.132 477.648 566.679 470.559C569.256 467.264 569.755 463.598 572.412 460.361C579.004 452.321 592.396 447.169 602.667 448.631C607.924 449.385 603.897 451.114 602.388 453.04C616.825 451.59 605.998 445.29 599.476 442.215C601.936 438.329 598.895 438.491 596.969 436.472C594.439 433.804 592.269 430.497 589.298 428.212C588.021 427.225 583.739 425.299 583.565 425.021C583.054 424.255 583.344 422.77 582.961 421.796C582.114 419.638 569.592 408.999 567.352 408.094C566.842 407.885 565.612 407.397 565.414 408.117L574.327 421.819L561.898 408.442L561.573 409.393L572.412 428.188C565.797 422.875 561.666 415.322 556.165 409.08C555.678 408.987 555.782 409.671 555.84 410.031C556.316 412.885 561.817 422.237 563.627 425.195L572.412 437.748C562.85 430.335 558.486 417.805 549.48 409.706C552.66 420.357 560.807 428.931 565.403 439.025L544.363 409.08L543.156 409.962C547.159 419.081 552.289 427.724 556.618 436.658C556.85 437.122 557.871 438.769 556.478 438.073C551.163 429.871 545.303 421.03 542.448 411.621L542.134 416.714L536.715 407.804C539.361 417.329 544.641 426.402 549.155 435.196L548.819 439.663C545.477 430.022 540.254 421.506 535.09 412.885C534.603 412.073 535.218 411.273 533.512 411.632C533.895 415.937 536.854 419.058 538.293 422.457C541.45 429.964 544.026 437.76 547.426 445.185C551.21 453.446 555.817 461.185 559.554 469.445L557.743 472.149C556.78 464.63 551.5 458.911 548.25 452.634C545.326 446.972 541.612 438.143 539.384 432.191C538.189 429.012 537.411 425.149 536.692 421.807L535.705 427.562C539.871 440.011 543.666 451.961 550.548 463.691C551.024 464.503 551.848 464.712 552.417 465.651C552.985 466.591 556.85 473.054 556.455 473.413C554.877 474.852 553.6 471.302 553.902 470.234L552.95 471.499C546.243 459.943 539.059 448.156 535.415 435.173L534.15 435.811L531.55 426.912L530.344 427.515L529.055 424.336C529.253 430.3 533.222 435.579 532.885 441.531L534.15 437.076C535.276 446.392 540.336 456.091 544.885 464.271C546.602 467.357 549.62 470.617 551.059 473.402C551.523 474.307 551.186 475.003 550.409 475.316C548.68 476 549.155 475.119 548.761 474.399C545.79 468.946 542.239 464.004 539.338 458.354C533.442 446.891 529.636 434.395 524.274 423.072C523.845 422.167 523.021 420.206 522.057 419.881C524.796 434.349 531.086 447.158 536.401 460.651C538.258 465.373 539.732 470.257 541.415 475.328C541.624 475.966 541.218 476.604 541.171 477.23C541.833 476.813 545.79 478.82 545.001 476.929C543.794 474.063 540.394 470.536 539.918 467.044C543.272 469.573 544.026 475.49 547.554 477.242L538.641 481.047C541.09 478.309 539.105 473.193 538.026 469.875C534.73 459.792 528.846 450.058 524.936 440.266C522.835 434.999 521.64 429.012 519.527 424C519.191 423.199 518.541 421.297 517.613 421.146C519.435 430.37 522.092 439.396 525.249 448.237C529.253 459.456 535.473 469.596 537.411 481.395L537.307 482.266C536.947 482.498 536.297 482.208 536.1 482.312C534.777 470.977 526.792 461.602 524.622 450.441L523.357 451.079L519.527 440.243C522.696 454.687 527.779 468.598 534.138 481.906L536.1 482.3L536.088 482.37ZM585.816 419.916L583.611 416.702L576.254 411.006C575.917 411.331 581.128 416.772 581.65 417.398C583.101 419.139 581.778 420.635 585.816 419.905V419.916ZM472.979 462.612C475.393 455.372 473.803 447.517 474.291 439.964L472.666 417.364C471.668 431.704 471.784 446.032 472.352 460.396C472.387 461.173 471.877 462.763 472.979 462.612ZM232.044 435.846L230.768 433.641C233.715 431.147 240.121 427.643 242.129 424.58C242.477 424.046 243.464 422.898 242.559 422.469C234.992 430.718 224.466 435.904 215.519 442.598C201 453.446 188.014 467.218 175.295 480.131C164.305 491.28 155.021 505.04 138.982 509.461C143.741 513.092 149.613 504.263 153.64 507.871C153.837 507.059 153.025 506.259 153.048 505.597C153.094 504.124 161.172 498.636 162.912 497.058C170.398 490.248 177.024 481.546 183.941 474.109C185.043 473.529 185.067 476.116 186.111 477.033C186.923 477.752 187.596 478.112 188.711 477.926C187.26 475.293 183.871 473.054 187.121 470.292C188.664 471.975 190.776 473.471 193.179 473.46C192.505 471.696 188.896 470.141 189.419 468.181L190.939 466.545L196.358 469.643C197.078 468.935 193.712 465.617 192.54 465.814V464.874L196.985 461.37C197.426 463.296 199.341 465.431 201.465 465.187L197.67 460.465L200.397 458.273L205.294 460.732L201.488 457.228C204.447 451.915 205.526 455.708 209.762 456.265L206.571 453.388L209.112 450.197C210.47 449.583 212.756 453.284 213.58 452.448C215.147 450.87 210.691 450.453 211.991 448.005C213.998 444.222 215.635 448.596 218.687 447.993C218.559 446.241 214.486 445.707 215.797 444.164C216.238 443.642 218.907 442.25 219.546 442.378C220.729 442.598 222.992 447.053 222.841 442.9C222.25 442.018 220.01 442.204 221.217 440.672C221.553 440.255 225.128 437.818 225.383 437.841C226.091 437.899 226.567 440.881 228.238 440.359L226.601 437.18L229.48 434.894L232.056 435.904L232.044 435.846ZM473.049 482.312C472.968 482.196 473.664 481.291 473.327 480.502C472.828 479.342 471.076 477.776 470.333 475.803C468.012 469.666 468.801 445.336 468.511 436.844C468.384 433.026 468.697 429.163 468.534 425.334C468.5 424.557 469.01 422.967 467.908 423.118L467.931 434.929C466.132 445.475 466.237 456.138 466.016 466.788C465.9 472.195 463.173 476.731 469.173 480.456L462.79 478.541L464.066 438.41C463.161 438.259 463.138 439.535 462.987 440.173C461.815 444.884 458.914 470.954 459.633 475.026C459.819 476.07 460.585 476.418 460.898 477.265L449.084 473.471C446.218 474.167 449.746 476.291 450.778 476.882C458.705 481.349 473.42 488.682 482.263 489.378C488.228 489.842 500.019 488.716 505.102 485.456C510.185 482.196 507.377 476.917 503.594 478.855C502.491 479.423 502.816 481.082 501.702 481.094L501.632 478.611C498.035 478.402 491.072 474.805 487.985 474.805C486.035 474.805 482.948 476.859 480.662 476.639C479.118 478.135 490.99 479.562 492.128 479.191L490.224 480.456C493.648 480.525 497.942 479.887 500.402 482.695C500.356 485.526 482.948 485.131 480.348 484.76C479.13 484.586 473.478 482.927 473.06 482.324L473.049 482.312ZM457.057 474.724L459.598 446.682C458.682 446.589 458.566 448.19 458.322 448.898C455.595 456.892 454.945 466.371 453.865 474.724H457.057ZM450.047 473.448C452.415 471.348 451.962 466.835 452.589 463.888C450.221 465.988 450.674 470.501 450.047 473.448ZM530.993 482.37L525.899 468.355C525.852 469.689 525.806 471.012 526.05 472.346C526.189 473.1 529.125 484.447 530.993 482.37ZM520.131 475.397C516.011 475.942 512.553 474.388 508.688 473.46C509.431 475.687 519.864 481.361 520.792 480.456L520.131 475.397ZM395.225 481.743C391.929 482.846 388.668 484.934 386.3 487.463C389.55 486.512 393.263 484.586 395.225 481.743ZM198.262 662.074C199.364 662.237 200.258 661.958 201.267 661.587C212.757 657.399 226.01 621.583 231.476 610.225C235.503 601.86 240.795 593.889 244.613 585.129C248.721 575.697 251.437 565.8 255.324 556.322C264.353 534.254 278.639 518.8 291.207 499.158C293.25 495.968 295.71 492.185 297.045 488.751C289.002 496.606 283.351 506.978 276.91 516.097C272.836 521.875 266.976 527.978 263.367 533.779C253.456 549.732 248.825 570.209 241.062 587.311C237.998 594.063 234.029 600.386 230.849 607.046C223.874 621.641 214.346 647.56 202.718 657.944C202.126 658.466 197.24 661.204 198.25 662.074H198.262ZM385.662 498.938L377.376 505.296C378.826 505.447 386.811 500.11 385.662 498.938ZM374.184 512.315C377.341 511.642 382.122 510.772 381.832 506.584L374.184 512.315ZM379.929 514.879C376.621 515.355 372.919 517.814 370.366 519.961C373.581 518.65 378.084 518 379.929 514.879ZM376.738 521.887L368.451 525.692C371.608 525.866 375.136 524.776 376.738 521.887ZM373.546 528.256C372.629 527.525 366.107 532.131 365.26 533.338C368.579 532.711 372.351 531.83 373.546 528.256ZM362.707 560.115L355.059 564.571C356.37 564.756 364.482 562.099 362.707 560.115ZM355.709 570.314C356.428 570.871 365.04 567.193 363.983 564.582C362.881 565.522 362.463 566.218 361.013 566.995C359.713 567.703 358.25 568.016 356.951 568.713C356.568 568.921 354.525 569.385 355.709 570.314ZM356.974 581.138C357.937 579.595 357.519 576.88 358.088 575.616C358.796 574.038 360.815 573.423 360.804 571.59C358.877 572.472 355.384 576.37 355.071 578.296C355.013 578.632 356.196 578.47 356.347 579.038C356.579 579.885 355.79 581.301 356.974 581.15V581.138ZM188.687 572.866L187.422 573.191C186.668 574.444 189.929 579.839 190.614 579.236C191.774 576.602 189.244 575.245 188.699 572.866H188.687Z" fill="black"/>
<path d="M493.857 544.36C497.93 548.235 490.712 554.396 489.052 548.838C487.892 544.94 491.014 541.657 493.857 544.36Z" fill="black"/>
<path d="M332.441 442.239C335.342 444.814 330.421 446.125 328.588 447.935C321.52 454.885 322.46 466.789 319.048 475.351C317.922 474.597 318.108 473.657 318.05 472.508C317.946 470.49 318.468 465.129 318.746 462.948C319.895 453.725 322.75 445.232 332.452 442.25L332.441 442.239Z" fill="black"/>
<path d="M377.376 472.81L392.985 423.118C394.424 424.046 393.611 424.464 393.519 425.531C392.567 436.321 386.23 457.193 381.507 467.055C380.59 468.958 378.989 471.406 377.376 472.798V472.81Z" fill="black"/>
<path d="M385.024 433.305C386.544 434.767 377.155 465.245 375.484 469.318C375.043 470.385 372.246 477.822 370.378 475.989C371.654 470.257 374.776 465.094 376.563 459.56C379.291 451.149 380.938 441.89 383.132 433.293H385.035L385.024 433.305Z" fill="black"/>
<path d="M278.569 432.98C279.184 426.634 282.353 417.897 287.54 413.906C288.306 413.314 290.929 411.528 291.962 411.957C290.047 414.916 287.633 416.737 286.101 420.113C283.362 426.146 283.165 434.071 280.809 439.674C280.38 440.695 279.683 441.844 278.569 442.215C278.778 439.222 278.291 435.927 278.569 432.98Z" fill="black"/>
<path d="M380.556 289.288C382.203 290.878 374.857 295.727 374.254 296.679C373.488 297.874 373.581 299.614 372.826 300.995C371.991 302.538 369.577 304.232 368.3 306.03C364.157 311.843 360.641 320.115 356.243 325.835C355.419 326.902 355.256 327.088 353.794 326.879C353.585 325.614 354.223 324.721 354.722 323.677C357.02 318.816 363.519 308.246 366.769 303.861C368.242 301.877 373.372 297.375 373.848 296.284C374.486 294.823 373.929 293.117 374.881 291.574C375.774 290.124 378.873 289.079 380.556 289.288Z" fill="black"/>
<path d="M357.624 480.456L368.451 446.044C367.778 457.263 365.573 472.207 357.624 480.456Z" fill="black"/>
<path d="M418.806 286.747C419.201 288.511 417.959 288.151 416.636 287.954C411.367 287.188 404.799 284.381 399.193 283.719C395.828 283.325 391.615 284.021 388.215 283.232L390.513 281.155C400.122 282.13 409.812 282.838 418.806 286.747Z" fill="black"/>
<path d="M356.336 403.348C357.496 404.52 349.175 414.382 348.154 415.879C346.1 418.872 345.508 423.107 341.678 425.009C341.144 420.508 344.788 418.106 346.668 415.032C349.117 411.029 351.241 404.59 356.336 403.348Z" fill="black"/>
<path d="M312.99 381.049C313.199 382.14 312.735 382.906 312.259 383.822C311.435 385.423 300.805 399.357 299.552 400.425C298.855 401.016 298.043 401.573 297.056 401.434C296.163 400.541 303.079 392.686 303.961 391.456C304.843 390.226 310.936 378.996 312.99 381.049Z" fill="black"/>
<path d="M357.612 399.52C357.194 395.691 361.094 393.788 362.997 391.213C363.751 390.203 366.374 383.857 368.115 384.228C371.921 385.04 364.366 391.247 364.065 391.642C362.161 394.183 362.359 399.183 357.601 399.52H357.612Z" fill="black"/>
<path d="M395.224 306.483C388.807 305.009 382.308 304.789 375.832 303.884C372.153 303.362 373.024 301.32 376.32 301.436C380.289 301.587 389.492 303.489 393.17 305.044C393.96 305.381 395.05 305.392 395.224 306.483Z" fill="black"/>
<path d="M372.908 291.841C372.003 295.403 367.662 293.952 365.005 294.451C361.256 295.136 357.601 296.505 353.782 296.934C358.552 292.572 366.711 292.688 372.908 291.852V291.841Z" fill="black"/>
<path d="M366.536 301.401C366.316 302.619 365.213 302.457 364.331 302.7C359.098 304.162 353.295 304.301 348.049 305.856C346.367 304.383 354.92 302.341 355.558 302.213C359.19 301.494 362.834 301.204 366.536 301.401Z" fill="black"/>
<path d="M341.04 426.297C341.945 427.272 337.28 437.307 334.03 436.484C333.183 435.567 338.034 425.729 341.04 426.297Z" fill="black"/>
<path d="M404.137 293.744C404.265 294.95 402.803 294.254 402.095 294.196C395.573 293.628 388.958 292.908 382.47 292.154C383.19 291.087 384.211 291.249 385.302 291.168C391.546 290.704 398.079 292.525 404.137 293.755V293.744Z" fill="black"/>
<path d="M461.513 342.171C457.718 338.667 453.366 334.316 450.21 330.244C449.746 329.652 448.945 329.861 449.409 328.144C450.604 327.865 450.918 328.817 451.637 329.408C455.606 332.68 459.389 337.448 461.513 342.159V342.171Z" fill="black"/>
<path d="M329.945 359.759C329.296 360.734 326.928 364.052 326.29 364.713C325.733 365.294 324.595 366.512 323.83 365.758C322.727 364.655 330.665 355.142 332.116 353.97C333.311 353.077 332.615 355.153 332.452 355.583C331.849 357.114 330.839 358.425 329.945 359.771V359.759Z" fill="black"/>
<path d="M322.553 368.31C323.226 369.006 316.82 378.172 315.242 377.858C314.093 376.93 314.395 377.174 314.801 376.176C315.277 375.028 321.079 366.79 322.553 368.31Z" fill="black"/>
<path d="M222.992 607.382C223.549 608.345 223.155 609.807 222.168 610.445C219.429 609.714 218.919 606.849 217.805 605.572C216.853 604.482 214.045 603.67 214.195 601.535C214.787 600.966 222.725 606.918 222.992 607.371V607.382Z" fill="black"/>
<path d="M297.056 481.094C294.851 480.989 290.465 472.694 291.335 471.534C295.025 473.054 297.37 477.114 297.056 481.094Z" fill="black"/>
<path d="M266.465 403.986C266.593 399.729 270.573 395.262 274.101 393.15C274.948 394.241 268.415 403.302 266.465 403.986Z" fill="black"/>
<path d="M359.527 462.623L355.767 475.629C350.742 476.789 355.001 473.355 355.256 472.671C355.477 472.079 357.543 460.361 359.527 462.623Z" fill="black"/>
<path d="M212.919 609.192C215.344 608.763 221.774 613.903 220.253 616.2C219.337 617.314 219.186 616.849 218.315 616.2C216.621 614.97 214.381 610.944 212.919 609.18V609.192Z" fill="black"/>
<path d="M339.137 345.999C338.127 344.944 344.533 337.472 345.821 337.716C347.017 337.948 346.541 338.586 346.181 339.317C345.659 340.361 340.007 346.881 339.148 345.988L339.137 345.999Z" fill="black"/>
<path d="M211.642 616.838C212.281 616.211 217.909 619.773 218.048 620.98C218.698 626.932 210.517 617.952 211.642 616.838Z" fill="black"/>
<path d="M226.265 600.955C226.265 601.43 226.056 605.387 224.721 604.714L218.025 596.441L226.276 600.955H226.265Z" fill="black"/>
<path d="M421.348 312.226L417.843 318.584L414.988 315.729C416.891 314.279 418.806 312.376 421.348 312.226Z" fill="black"/>
<path d="M266.465 405.274C265.421 408.128 264.098 411.214 261.37 412.92C260.767 409.579 262.763 405.425 266.465 405.274Z" fill="black"/>
<path d="M380.556 367.672C380.985 368.113 378.374 374.598 375.786 374.042C374.022 373.659 376.227 370.456 376.714 369.888C377.236 369.285 379.906 367.022 380.544 367.672H380.556Z" fill="black"/>
<path d="M288.132 477.915C288.979 476.963 295.2 483.379 290.999 484.911C289.281 483.008 287.946 480.572 288.132 477.915Z" fill="black"/>
<path d="M382.482 364.481C382.285 362.498 384.234 357.648 386.602 358.112C389.619 358.692 384.13 364.551 382.482 364.481Z" fill="black"/>
<path d="M214.822 629.577C212.675 629.275 212.873 627.628 211.944 626.433C211.608 626.003 207.662 622.627 210.052 622.581C210.865 622.569 217.561 627.454 214.834 629.577H214.822Z" fill="black"/>
<path d="M349.964 491.292C349.013 492.371 344.916 486.268 344.231 485.561C347.933 486.199 350.939 486.802 349.964 491.292Z" fill="black"/>
<path d="M373.546 377.232C373.709 379.912 373.21 383.474 369.786 381.629C369.241 379.274 371.155 377 373.546 377.232Z" fill="black"/>
<path d="M276.016 650.612L273.788 653.779L270.295 650.287L271.873 648.883L276.016 650.612Z" fill="black"/>
<path d="M211.642 635.32L209.681 634.926L207.824 629.589C211.167 629.96 212.141 632.222 211.642 635.32Z" fill="black"/>
<path d="M353.144 328.793C353.666 329.316 350.614 335.047 348.688 334.525C348.224 330.928 349.674 329.304 353.144 328.793Z" fill="black"/>
<path d="M331.234 514.287C336.537 512.651 334.611 523.082 330.178 515.83C330.073 515.158 330.653 514.461 331.234 514.287Z" fill="black"/>
<path d="M184.08 558.978L184.869 564.571C182.595 563.503 182.026 561.218 181.086 559.129L184.092 558.967L184.08 558.978Z" fill="black"/>
<path d="M188.699 554.396C187.074 560.289 184.231 556.507 184.243 552.47L188.699 554.396Z" fill="black"/>
<path d="M427.731 354.272L423.042 354.179C421.58 353.726 421.974 352.09 422.798 351.255C424.528 349.468 426.663 352.926 427.731 354.272Z" fill="black"/>
<path d="M290.024 614.309L289.002 617.511C287.029 617.395 285.788 616.687 285.59 614.645C286.716 612.847 288.457 613.903 290.024 614.309Z" fill="black"/>
<path d="M354.339 482.451C354.595 487.44 350.672 482.938 349.326 480.792C351.16 478.298 352.239 482.196 354.339 482.451Z" fill="black"/>
<path d="M287.981 489.227C287.749 489.47 286.589 490.085 286.206 489.749L284.314 484.934C286.287 484.586 287.273 486.326 288.469 487.463C288.689 487.985 288.353 488.867 287.993 489.227H287.981Z" fill="black"/>
<path d="M333.392 353.007C332.824 352.473 335.516 347.867 336.897 347.925C339.392 348.03 335.562 354.237 333.392 353.007Z" fill="black"/>
<path d="M194.977 544.29C195.244 544.894 194.699 547.98 193.48 547.365L190.602 542.271L194.977 544.29Z" fill="black"/>
<path d="M346.727 493.926L345.821 496.385C340.228 492.545 339.856 488.705 346.727 493.926Z" fill="black"/>
<path d="M287.494 620.666L285.915 623.811C284.372 622.917 282.654 622.175 283.037 620.028L287.494 620.666Z" fill="black"/>
<path d="M281.122 638.511L279.428 640.982L275.39 640.413C275.401 637.501 279.126 638.696 281.122 638.511Z" fill="black"/>
<path d="M301.42 581.881L301.513 584.967C296.569 585.176 296.209 579.549 301.42 581.881Z" fill="black"/>
<path d="M197.612 542.272C196.358 542.109 196.648 540.531 196.138 539.928C195.279 538.907 192.297 538.524 194.745 536.552C197.275 538.06 199.086 539.081 197.612 542.272Z" fill="black"/>
<path d="M247.398 544.244C248.837 541.923 252.597 545.624 249.556 548.003C248.117 548.258 246.69 545.381 247.398 544.244Z" fill="black"/>
<path d="M247.328 550.567C248.477 552.133 244.555 555.602 243.603 552.04C242.849 549.233 246.876 549.94 247.328 550.567Z" fill="black"/>
<path d="M267.103 516.793C267.382 518.789 265.966 520.251 263.924 519.972V516.457L267.103 516.793Z" fill="black"/>
<path d="M279.823 498.972C280.322 500.04 278.523 503.625 277.304 502.755L276.666 498.3L279.823 498.972Z" fill="black"/>
<path d="M299.517 588.888L299.609 591.336L296.058 590.745L295.791 588.157L299.517 588.888Z" fill="black"/>
<path d="M191.24 551.832C189.941 553.166 186.32 548.258 188.061 546.738C189.418 547.133 192.343 550.695 191.24 551.832Z" fill="black"/>
<path d="M430.91 366.396L427.765 365.711C427.057 360.583 432.79 362.3 430.91 366.396Z" fill="black"/>
<path d="M312.201 554.245C311.412 555.01 310.135 554.72 309.23 554.314L309.172 551.193L312.422 552.122C313.095 552.655 312.63 553.804 312.201 554.233V554.245Z" fill="black"/>
<path d="M200.803 535.902C198.598 535.751 197.252 533.489 197.623 531.447L201.163 533.361L200.803 535.89V535.902Z" fill="black"/>
<path d="M181.678 570.313C179.624 570.789 177.755 566.079 178.498 565.22C180.552 564.744 182.421 569.455 181.678 570.313Z" fill="black"/>
<path d="M239.622 574.073C237.731 575.244 235.746 572.889 236.501 570.952L240.04 571.567C240.539 572.019 239.727 573.991 239.611 574.073H239.622Z" fill="black"/>
<path d="M291.799 610.317C291.01 611.083 289.733 610.793 288.828 610.387L288.77 607.266L292.02 608.194C292.693 608.728 292.229 609.877 291.799 610.306V610.317Z" fill="black"/>
<path d="M282.399 635.308C281.064 635.343 277.699 635.25 278.581 633.092L281.807 632.408L282.399 635.32V635.308Z" fill="black"/>
<path d="M436.643 364.481C438.001 365.375 437.224 369.586 434.113 368.298L434.415 365.096C434.74 364.388 436.284 364.238 436.643 364.481Z" fill="black"/>
<path d="M268.368 655.716L271.188 655.136C273.324 656.006 271.56 659.081 270.051 658.849L268.368 655.716Z" fill="black"/>
<path d="M267.742 510.412L270.655 511.004C271.804 516.051 267.138 514.45 267.742 510.412Z" fill="black"/>
<path d="M272.198 504.681L275.378 505.644L273.788 508.498L272.198 504.681Z" fill="black"/>
<path d="M283.664 495.759C280.763 496.234 279.312 492.789 282.179 492.023C285.045 491.257 283.687 494.192 283.664 495.759Z" fill="black"/>
<path d="M219.29 432.029C219.197 435.95 212.257 436.136 215.472 432.98C216.354 432.11 218.095 431.947 219.29 432.029Z" fill="black"/>
<path d="M438.558 377.858C437.398 378.114 436.794 377.499 435.912 377.012C434.868 376.431 432.965 375.004 432.187 374.053C433.603 373.136 439.846 376.71 438.558 377.87V377.858Z" fill="black"/>
<path d="M590.911 184.139C591.073 185.241 590.795 186.134 590.423 187.144C589.669 189.209 578.899 201.414 576.578 203.897C561.097 220.523 538.653 237.126 518.669 247.973C510.893 252.197 502.77 256.292 494.019 258.056C493.741 256.745 494.669 256.582 495.481 256.025C498.615 253.902 502.584 253.322 505.915 251.802C534.231 238.901 562.861 216.729 582.938 193.072C583.646 192.237 589.727 182.805 590.899 184.15L590.911 184.139Z" fill="black"/>
<path d="M587.081 180.31C587.951 181.18 583.948 186.053 583.24 186.981C574.269 198.781 560.122 212.61 548.146 221.358C545.535 223.261 542.424 225.361 539.279 226.185C543.364 221.207 549.434 218.319 554.273 214.095C561.805 207.529 570.892 197.76 577.507 190.16C578.563 188.942 585.236 178.454 587.081 180.31Z" fill="black"/>
<path d="M534.811 142.719C536.506 144.727 529.206 153.753 527.93 155.911C520.746 168.07 513.678 180.589 504.22 191.158C507.098 183.721 512.704 177.665 516.835 170.959C522.208 162.257 526.757 152.57 532.781 144.205C533.349 143.416 533.454 142.441 534.8 142.731L534.811 142.719Z" fill="black"/>
<path d="M570.88 191.518C569.43 193.154 551.152 212.019 550.119 210.905C550.409 209.385 551.975 207.61 552.974 206.438C561.213 196.797 571.983 188.71 578.342 177.329C579.735 176.273 581.754 175.971 581.975 178.083C577.971 182.306 574.733 187.179 570.88 191.529V191.518Z" fill="black"/>
<path d="M547.565 158.011C547.786 159.183 547.426 159.914 546.974 160.923C544.478 166.48 536.03 178.721 532.281 184.475C531.458 185.74 522.034 200.115 520.804 198.804L544.107 160.61L547.565 158.023V158.011Z" fill="black"/>
<path d="M550.513 172.421C548.447 174.834 545.813 176.934 543.771 179.37C538.85 185.229 534.777 191.193 529.357 196.82C528.695 197.504 528.44 198.444 527.187 198.143C531.956 192.504 535.693 185.357 540.289 179.695C541.02 178.79 542.111 178.454 542.738 177.688C544.095 176.052 552.347 165.947 553.113 165.738C554.238 165.436 554.563 165.773 555.225 166.596C553.438 168.348 552.138 170.53 550.525 172.409L550.513 172.421Z" fill="black"/>
<path d="M548.854 204.524C548.297 201.589 550.943 201.124 552.034 199.744C558.765 191.239 566.389 183.385 572.424 174.242C573.573 172.653 575.987 173.036 575.36 175.252C575.116 176.122 565.333 187.596 563.836 189.232C559.066 194.5 553.426 199.048 548.854 204.512V204.524Z" fill="black"/>
<path d="M568.594 170.75C568.849 172.212 567.909 173.059 567.213 174.138C564.068 178.999 555.515 188.687 551.07 192.411C550.351 193.015 550.037 193.954 548.842 193.676C549.91 190.126 553.008 188.351 555.202 185.694C558.207 182.051 562.049 175.565 565.078 172.63C566.006 171.736 567.213 170.669 568.606 170.75H568.594Z" fill="black"/>
<path d="M513.156 166.933L516.626 159.264C521.117 154.194 523.647 146.421 527.28 141.234C528.986 138.786 530.947 139.181 529.856 141.896C528.324 145.713 522.022 154.96 519.411 158.87C517.705 161.434 515.199 164.613 513.145 166.933H513.156Z" fill="black"/>
<path d="M560.946 169.486C561.376 171.238 560.679 170.947 560.146 171.574C555.828 176.69 550.943 181.331 546.509 186.251C545.001 187.921 543.713 191.994 540.556 192.411C539.546 191.402 557.36 173.013 558.045 170.077L560.958 169.486H560.946Z" fill="black"/>
<path d="M508.05 232.566L498.499 242.439L482.553 254.215C489.934 247.127 497.965 240.467 505.822 233.831C506.541 233.227 506.855 232.288 508.05 232.566Z" fill="black"/>
<path d="M523.972 136.976C524.506 137.406 524.228 138.995 523.937 139.738C522.951 142.313 516.127 153.625 514.305 156.306C513.864 156.955 513.319 157.825 512.506 158.011C514.735 151.166 518.39 144.727 522.046 138.554C522.359 138.032 522.974 136.199 523.972 136.988V136.976Z" fill="black"/>
<path d="M533.547 228.737L534.788 229.027L516.974 240.85L534.498 225.558L533.547 228.737Z" fill="black"/>
<path d="M592.826 191.147C593.29 191.576 590.737 194.697 590.261 195.265C588.938 196.878 586.93 199.21 585.503 200.707C584.795 201.449 580.837 205.835 580.072 205.15C583.6 202.099 587 194.708 590.226 192.052C591.085 191.344 591.595 190.915 592.814 191.147H592.826Z" fill="black"/>
<path d="M540.185 220.743C538.92 221.892 537.956 223.389 536.413 224.282C535.937 224.386 535.983 223.621 536.1 223.342C536.993 221.335 546.208 212.715 548.842 211.543C549.121 212.738 548.181 213.063 547.577 213.771C545.407 216.346 542.656 218.481 540.185 220.743Z" fill="black"/>
<path d="M506.135 245.955C501.423 249.377 496.317 253.612 490.839 255.503C494.994 251.338 500.507 247.742 506.135 245.955Z" fill="black"/>
<path d="M550.757 163.104C551.035 164.392 550.478 164.81 549.828 165.68C547.89 168.302 544.896 171.702 542.471 173.929L548.146 163.51L550.745 163.093L550.757 163.104Z" fill="black"/>
<path d="M529.078 221.741C528.487 222.89 522.487 229.143 521.431 228.099C521.802 224.642 526.073 222.577 529.078 221.741Z" fill="black"/>
<path d="M490.201 212.808C489.609 212.193 495.226 204.872 496.561 204.524C497.489 206.345 491.211 213.852 490.201 212.808Z" fill="black"/>
<path d="M516.336 136.977C515.802 139.738 514.595 143.091 511.241 142.708C510.522 142.047 514.375 136.362 516.336 136.977Z" fill="black"/>
<path d="M520.63 398.046C521.524 397.512 525.609 396.573 527.744 396.109C531.713 395.238 533.883 395.807 537.376 392.86C537.898 392.419 541.171 388.765 541.229 388.382C541.635 385.655 538.664 384.947 538.641 382.337L544.049 387.419L552.649 379.785C552.451 381.212 550.989 382.789 550.084 383.915C542.1 393.811 530.715 399.137 517.903 400.169C514.201 400.471 505.578 400.912 503.733 397.153C502.282 394.206 499.984 384.344 499.172 380.678C496.433 368.264 495.017 354.875 494.008 342.194L495.609 347.276C497.861 359.028 499.938 370.816 501.737 382.569C502.085 384.866 503.118 393.777 503.907 395.064C505.265 397.28 518.68 399.23 520.63 398.058V398.046Z" fill="black"/>
<path d="M537.376 350.454C544.397 358.135 550.78 366.767 557.024 375.109L556.177 377.197L547.055 365.305L537.376 350.443V350.454Z" fill="black"/>
<path d="M509.315 379.773C505.856 376.884 504.708 371.744 503.419 367.521C501.481 361.152 500.1 354.515 499.137 347.914L501.853 354.434L509.326 379.773H509.315Z" fill="black"/>
<path d="M563.499 372.754C562.049 372.916 561.086 372.383 560.041 371.431C557.604 369.204 552.347 361.964 550.211 358.947C548.993 357.219 547.31 355.107 546.927 353.007L563.499 372.754Z" fill="black"/>
<path d="M544.386 382.314C543.19 382.592 542.865 381.652 542.157 381.049C535.554 375.503 530.854 366.454 527.187 358.738C533.059 366.512 537.573 375.271 544.386 382.314Z" fill="black"/>
<path d="M518.251 381.038C516.591 381.27 516.359 379.773 515.849 378.671C513.319 373.206 511.833 364.702 510.615 358.75L518.262 381.049L518.251 381.038Z" fill="black"/>
<path d="M550.757 377.22C550.003 377.951 547.159 374.587 546.672 373.983C544.386 371.176 542.123 367.138 540.568 363.843L550.757 377.22Z" fill="black"/>
<path d="M520.792 394.426L516.974 384.24C518.82 382.267 521.326 393.44 520.792 394.426Z" fill="black"/>
<path d="M430.632 467.45C427.789 470.606 423.912 474.91 420.721 477.59C420.21 478.008 419.444 479.261 418.806 478.228C427.44 468.807 435.552 459.317 442.91 448.805L450.024 435.857C450.245 439.675 448.492 443.039 446.717 446.241C442.69 453.539 436.202 461.243 430.62 467.45H430.632Z" fill="black"/>
<path d="M374.184 615.55C372.977 615.434 372.919 612.974 372.885 612.081C372.362 599.597 379.198 587.601 380.115 575.279L382.47 569.037C381.623 584.932 374.532 599.609 374.184 615.55Z" fill="black"/>
<path d="M377.364 614.274C376.18 614.413 376.842 612.928 376.911 612.232C377.248 609.215 378.014 604.157 378.699 601.268C381.217 590.768 384.072 581.498 386.207 570.523C386.347 569.78 385.871 567.808 387.24 568.388C388.61 568.968 387.844 569.908 387.797 570.789C387.147 584.457 379.813 600.618 377.352 614.262L377.364 614.274Z" fill="black"/>
<path d="M414.988 492.568L446.844 451.787C441.599 464.317 431.317 473.831 422.636 483.983C420.234 486.79 418.458 490.526 414.976 492.568H414.988Z" fill="black"/>
<path d="M415.626 500.214C415.104 499.634 418.829 495.016 419.468 494.181C425.967 485.595 433.15 477.427 439.846 468.993C440.067 470.072 439.324 470.687 438.825 471.476C432.407 481.685 423.924 491.547 415.626 500.214Z" fill="black"/>
<path d="M377.376 567.773C375.937 574.85 375.31 582.136 373.569 589.155C373.302 590.234 374.196 591.012 372.281 590.698C373.384 583.528 374.15 576.324 376.099 569.327C376.378 568.318 375.403 567.436 377.376 567.773Z" fill="black"/>
<path d="M622.152 238.309C610.407 248.368 596.551 255.886 582.636 262.511C582.265 260.643 583.228 261.501 584.04 261.084C589.019 258.485 593.534 255.016 598.756 252.835L622.152 238.309Z" fill="black"/>
<path d="M620.864 215.998C621.131 217.46 620.492 217.959 619.61 218.887C616.605 222.055 607.529 228.679 603.595 231.557C602.168 232.601 600.276 234.074 598.547 234.469L618.276 216.926L620.852 215.998H620.864Z" fill="black"/>
<path d="M438.57 133.148C439.521 134.076 435.193 156.166 434.554 159.403C433.382 165.309 432.094 173.268 430.365 178.825C430.04 179.858 430.887 180.624 429.019 180.31C432.094 164.903 433.58 149.031 436.608 133.531L438.57 133.16V133.148Z" fill="black"/>
<path d="M427.092 166.283C425.978 166.434 426.5 164.845 426.466 164.067C426.408 162.64 426.349 161.016 426.466 159.612C427.173 151.723 428.891 141.385 430.284 133.473C430.469 132.429 429.959 131.396 431.235 130.619C432.558 130.619 432.245 135.642 432.175 136.652C431.502 146.339 428.021 156.561 427.081 166.295L427.092 166.283Z" fill="black"/>
<path d="M426.454 128.693C426.849 133.275 425.584 137.684 424.98 142.186L421.998 152.895L424.667 129.772L426.442 128.693H426.454Z" fill="black"/>
<path d="M658.476 326.241L658.047 328.155C644.132 332.367 630.461 337.982 615.769 338.969C615.618 338.052 616.895 338.075 617.545 337.89C623.22 336.288 629.196 335.708 634.883 334.189C642.855 332.054 650.585 328.643 658.464 326.229L658.476 326.241Z" fill="black"/>
<path d="M655.923 373.403C657.722 374.935 650.318 376.327 649.714 376.431C644.689 377.302 639.954 377.07 634.894 377.22C634.744 375.55 634.813 376.165 635.846 375.967C642.31 374.761 649.378 374.436 655.923 373.403Z" fill="black"/>
<path d="M461.525 185.404L482.867 126.152C485.489 128.716 482.6 131.628 481.88 134.076C478.387 146.084 473.443 159.577 468.627 171.168C467.084 174.881 464.89 179.951 463.091 183.478C462.72 184.209 462.5 185.241 461.513 185.404H461.525Z" fill="black"/>
<path d="M478.085 124.876C478.364 125.154 477.946 126.825 477.772 127.428C475.091 137.255 468.476 156.294 463.741 165.054C463.254 165.947 463.788 166.62 462.14 166.295C466.805 154.345 469.811 141.664 474.232 129.633C474.615 128.6 476.356 123.135 478.074 124.876H478.085Z" fill="black"/>
<path d="M461.513 150.354C463.3 144.007 464.96 136.35 467.223 130.259C467.873 128.519 468.65 126.349 470.426 125.502C469.73 131.953 467.118 139.483 464.705 145.585C464.496 146.119 462.685 151.723 461.513 150.354Z" fill="black"/>
<path d="M376.726 161.828L374.44 152.918L375.136 150.365C376.598 153.915 376.749 158.057 376.714 161.828H376.726Z" fill="black"/>
<path d="M586.454 363.194C584.331 362.602 582.126 360.734 580.42 359.353C575.441 355.351 570.973 350.385 566.064 346.301C558.219 339.781 549.434 334.397 542.471 326.879L569.546 347.287L586.454 363.194Z" fill="black"/>
<path d="M568.606 341.533C564.938 339.978 561.933 336.567 559.043 333.898C562.652 335.384 566.192 338.551 568.606 341.533Z" fill="black"/>
<path d="M557.128 332.611C553.322 331.102 549.063 328.654 546.289 325.615L557.128 332.611Z" fill="black"/>
<path d="M585.804 445.417L577.309 450.615C574.489 453.608 567.979 456.95 566.192 460.523C564.753 463.401 565.31 468.784 560.958 469.619C559.612 461.451 553.519 454.316 552.033 446.044L557.418 455.639C558.451 457.24 559.96 454.711 560.308 454.954C563.372 462.832 567.979 455.035 571.843 452.146C573.712 450.754 578.412 448.828 579.433 447.61C580.188 446.705 580.013 445.475 580.083 445.394C580.28 445.174 584.238 446.659 585.804 445.406V445.417Z" fill="black"/>
<path d="M597.282 444.13C595.483 444.083 593.65 444.222 591.851 444.13C591.131 444.095 590.098 444.547 590.272 443.503L592.547 441.542L597.282 444.13Z" fill="black"/>
<path d="M283.664 256.153C283.664 257.452 281.111 256.687 280.461 256.478C277.78 255.619 269.633 251.628 267.08 250.097C266.384 249.679 265.328 249.459 265.177 248.496L283.652 256.141L283.664 256.153Z" fill="black"/>
<path d="M280.484 242.114C277.455 241.383 273.614 240.084 270.887 238.622C269.993 238.135 269.32 238.669 269.645 237.021C270.109 236.638 279.765 240.328 280.473 242.114H280.484Z" fill="black"/>
<path d="M301.513 256.153C301.431 257.568 298.774 256.223 298.159 256.002C296.198 255.283 293.285 253.995 291.962 252.336L301.513 256.165V256.153Z" fill="black"/>
<path d="M389.48 264.425C388.656 266.653 386.625 264.959 384.873 265.168C382.61 265.435 379.233 267.848 376.424 267.616C374.788 265.899 378.409 264.425 379.604 264.425H389.48Z" fill="black"/>
<path d="M283.664 312.864C283.815 313.78 282.585 313.699 281.912 313.966C278.546 315.3 274.902 315.904 271.56 317.319C271.235 315.613 271.943 316.217 272.836 315.764C276.109 314.128 280.09 313.583 283.664 312.864Z" fill="black"/>
</g>
<defs>
<clipPath id="clip0_8061_337">
<rect width="540" height="569" fill="white" transform="translate(130 116)"/>
</clipPath>
</defs>
</svg>
