<svg width="24" height="24" viewBox="0 0 24 24" fill="none" xmlns="http://www.w3.org/2000/svg">
<g clip-path="url(#clip0_129_333)">
<path d="M12.1807 0L12.6103 0.24541L23.668 8.14688C23.8412 8.2781 23.9314 8.43649 24.0005 8.63954V15.3591L23.8637 15.657C20.073 18.473 16.1856 21.184 12.3382 23.9305C12.1287 24.0244 11.8962 24.0276 11.6853 23.9392C7.82872 21.2043 3.95235 18.4794 0.151482 15.674C0.0612374 15.5423 0.00138129 15.3876 0 15.2256V8.7436C0.023482 8.47332 0.133986 8.31678 0.333813 8.14734C3.98181 5.61128 7.52622 2.92052 11.1811 0.395511C11.3883 0.252317 11.5849 0.0934676 11.8207 0H12.1807ZM11.1908 6.80978V2.36984L2.19165 8.80483L5.29036 11.0048L11.1903 6.80978H11.1908ZM12.8106 6.80978L18.7106 11.0048L21.8093 8.80483L12.8106 2.36984V6.80978ZM11.991 8.1943L6.69099 12.014L12.0104 15.8043L17.3104 11.9846L11.991 8.1943ZM1.59125 13.6196L3.87131 11.985L1.59125 10.38V13.62V13.6196ZM22.4101 10.3795L20.1301 12.014L22.4101 13.6191V10.3791V10.3795ZM11.1908 17.1893L5.29082 12.9943L2.19212 15.1942L11.1913 21.6288V17.1888L11.1908 17.1893ZM12.8106 21.6292L21.8097 15.1947L18.711 12.9948L12.811 17.1898V21.6297L12.8106 21.6292Z" fill="black"/>
</g>
<defs>
<clipPath id="clip0_129_333">
<rect width="24" height="24.0037" fill="white"/>
</clipPath>
</defs>
</svg>
