<svg width="24" height="24" viewBox="0 0 24 24" fill="none" xmlns="http://www.w3.org/2000/svg">
<path fill-rule="evenodd" clip-rule="evenodd" d="M12 24.0037C18.6274 24.0037 24 18.6311 24 12.0037C24 5.37625 18.6274 0.00366211 12 0.00366211C5.37258 0.00366211 0 5.37625 0 12.0037C0 18.6311 5.37258 24.0037 12 24.0037ZM22 12.0037C22 17.5265 17.5228 22.0037 12 22.0037C6.47715 22.0037 2 17.5265 2 12.0037C2 6.48081 6.47715 2.00366 12 2.00366C17.5228 2.00366 22 6.48081 22 12.0037ZM12 20.4412C12.7498 20.4412 13.4768 20.3434 14.1689 20.1598C15.4281 17.9409 15.8119 15.263 15.2966 12.7658C12.3257 13.87 9.73236 16.3493 8.79454 19.811C9.78284 20.2172 10.8653 20.4412 12 20.4412ZM16.8603 12.3194C17.3541 14.5988 17.1954 17.0162 16.3896 19.2108C18.7445 17.7735 20.3399 15.2144 20.4332 12.2762C19.2686 12.0566 18.0525 12.0787 16.8603 12.3194ZM16.4104 10.7567C17.7067 10.4798 19.0343 10.4245 20.3235 10.6136C20.0602 9.02472 19.3528 7.58577 18.3333 6.42849C17.5015 7.33597 16.53 8.1132 15.4644 8.72859C15.8422 9.37318 16.1592 10.052 16.4104 10.7567ZM14.5485 7.38363C15.5166 6.83919 16.3992 6.14066 17.1495 5.31927C15.7247 4.22003 13.9387 3.56616 12 3.56616C11.3416 3.56616 10.7007 3.64158 10.0857 3.78425L10.155 3.81729L10.1567 3.81809C10.2282 3.85215 10.2916 3.88237 10.3334 3.9021L10.3527 3.91124L10.3716 3.92139L10.3878 3.93011C10.4319 3.9537 10.5131 3.99718 10.591 4.04479L10.6125 4.05794L10.6186 4.06221C10.6275 4.06736 10.6396 4.07424 10.6546 4.08258L10.6929 4.10374L10.7017 4.10862L10.7222 4.11994L10.7229 4.12034L10.7229 4.12035C10.7267 4.12244 10.7357 4.12747 10.7461 4.13352L10.7894 4.15829C10.8458 4.1905 10.9367 4.24234 11.021 4.29174C11.1082 4.34279 11.2413 4.42143 11.3397 4.49045C11.4451 4.55517 11.5612 4.63557 11.6384 4.68905L11.6761 4.7151C11.7354 4.75125 11.7936 4.79224 11.834 4.82123C11.8919 4.8627 11.9549 4.90968 12.0123 4.95287L12.086 5.00843L12.0918 5.01277L12.1727 5.07365C12.1958 5.09097 12.2151 5.10524 12.2307 5.11654L12.2488 5.1296L12.2546 5.1336L12.2757 5.14769L12.2961 5.16319C13.139 5.80527 13.895 6.55306 14.5485 7.38363ZM4.8076 7.58995C5.55866 6.36866 6.61206 5.35324 7.86353 4.64797L7.95138 4.67566L7.95171 4.67577L7.95171 4.67577C8.08931 4.71907 8.22067 4.76041 8.34716 4.80581L8.48416 4.85788L8.48487 4.85815C8.68996 4.93591 8.87309 5.00534 9.02607 5.07627L9.06972 5.09809L9.08013 5.10293C9.17672 5.14785 9.31591 5.21419 9.44135 5.27401C9.508 5.30582 9.57082 5.33576 9.62128 5.35963L9.62316 5.36066L9.62318 5.36067C9.66536 5.38333 9.70079 5.40235 9.73382 5.42204C9.76069 5.43948 9.78469 5.4536 9.79757 5.46113C9.8211 5.47491 9.84528 5.48854 9.86522 5.49963L9.9115 5.52519L9.91782 5.52866L9.93116 5.53604L9.93285 5.53701L9.99319 5.57156L9.99972 5.57529C10.0549 5.60676 10.1246 5.64654 10.2012 5.69135C10.2551 5.72298 10.3056 5.75313 10.3468 5.77866C10.3775 5.79771 10.3941 5.80875 10.4004 5.81293L10.4008 5.81316C10.4034 5.8149 10.404 5.8153 10.4029 5.8145L10.4385 5.84144L10.478 5.86491C10.5383 5.90067 10.5977 5.94177 10.6717 5.99303L10.6721 5.99326C10.7059 6.01666 10.7428 6.04219 10.7842 6.07032L10.8124 6.08941L10.8363 6.10291L10.8398 6.10532C10.8462 6.10966 10.8619 6.12019 10.8891 6.13969C10.931 6.16969 10.9816 6.20735 11.0373 6.24923L11.1023 6.29824L11.1032 6.29891C11.1371 6.32451 11.1715 6.35044 11.2008 6.37232C11.2394 6.40123 11.2866 6.43632 11.3293 6.46588C11.9518 6.94196 12.5208 7.48556 13.0273 8.08474C12.4884 8.28194 11.9329 8.43376 11.3673 8.53588C10.1343 8.75816 8.875 8.76416 7.65341 8.53998L7.65128 8.53957L7.64916 8.53919C6.66062 8.3632 5.70102 8.04306 4.8076 7.58995ZM7.36253 10.1357C6.2276 9.9334 5.12454 9.56679 4.09497 9.04723C3.75072 9.96728 3.5625 10.9635 3.5625 12.0037C3.5625 14.9367 5.05911 17.5203 7.33035 19.0322C8.50008 15.1826 11.4577 12.4244 14.8469 11.2037C14.6222 10.5927 14.3396 10.0042 14.0036 9.44569C13.2489 9.75466 12.4617 9.98653 11.6554 10.1321C10.2388 10.3875 8.78322 10.3962 7.36253 10.1357Z" fill="black"/>
</svg>
