<svg width="24" height="24" viewBox="0 0 24 24" fill="none" xmlns="http://www.w3.org/2000/svg">
<path d="M24 12.0037C24 5.37626 18.6274 0.00367737 12 0.00367737C5.37259 0.00367737 0 5.37626 0 12.0037C0 17.6314 3.87432 22.3535 9.10108 23.6503V15.6707H6.62659V12.0037H9.10108V10.4236C9.10108 6.33914 10.9495 4.44603 14.9594 4.44603C15.7196 4.44603 17.0314 4.59507 17.568 4.74415V8.06834C17.2848 8.03854 16.7929 8.02361 16.1817 8.02361C14.214 8.02361 13.4538 8.76895 13.4538 10.7068V12.0037H17.3734L16.7001 15.6707H13.4538V23.9158C19.3955 23.1981 24 18.1389 24 12.0037Z" fill="black"/>
<path d="M16.7 15.6707L17.3734 12.0037H13.4538V10.7068C13.4538 8.7689 14.214 8.02361 16.1817 8.02361C16.7929 8.02361 17.2848 8.03849 17.568 8.0683V4.74416C17.0314 4.59507 15.7196 4.44598 14.9594 4.44598C10.9495 4.44598 9.10105 6.33915 9.10105 10.4236V12.0037H6.62656V15.6707H9.10105V23.6503C10.0295 23.8806 11.0003 24.0037 12 24.0037C12.4922 24.0037 12.9771 23.9733 13.4538 23.9158V15.6707H16.7Z" fill="white"/>
</svg>
