<svg width="24" height="24" viewBox="0 0 24 24" fill="none" xmlns="http://www.w3.org/2000/svg">
<path d="M8.00006 24.0037C10.2081 24.0037 12.0001 22.2116 12.0001 20.0036V16.0036H8.00006C5.79205 16.0036 4 17.7956 4 20.0036C4 22.2116 5.79205 24.0037 8.00006 24.0037Z" fill="black"/>
<path d="M4 12.0036C4 9.79563 5.79205 8.0036 8.00006 8.0036H12.0001V16.0036H8.00006C5.79205 16.0037 4 14.2116 4 12.0036Z" fill="black"/>
<path d="M4 4.00369C4 1.79569 5.79205 0.00366211 8.00006 0.00366211H12.0001V8.00363H8.00006C5.79205 8.00363 4 6.21169 4 4.00369Z" fill="black"/>
<path d="M11.9999 0.00366211H15.9999C18.208 0.00366211 20 1.79569 20 4.00369C20 6.21169 18.208 8.00363 15.9999 8.00363H11.9999V0.00366211Z" fill="black"/>
<path d="M20 12.0036C20 14.2116 18.208 16.0037 15.9999 16.0037C13.7919 16.0037 11.9999 14.2116 11.9999 12.0036C11.9999 9.79563 13.7919 8.0036 15.9999 8.0036C18.208 8.0036 20 9.79563 20 12.0036Z" fill="black"/>
</svg>
