<svg width="24" height="24" viewBox="0 0 24 24" fill="none" xmlns="http://www.w3.org/2000/svg">
<path fill-rule="evenodd" clip-rule="evenodd" d="M12.01 0.00366211C5.36881 0.00366211 6.10352e-05 5.50364 6.10352e-05 12.3079C6.10352e-05 17.7468 3.44 22.3508 8.21212 23.9803C8.80875 24.1028 9.0273 23.7156 9.0273 23.3898C9.0273 23.1046 9.00763 22.1268 9.00763 21.1081C5.66676 21.8416 4.97105 19.6413 4.97105 19.6413C4.43415 18.2153 3.63864 17.8488 3.63864 17.8488C2.54517 17.0951 3.71829 17.0951 3.71829 17.0951C4.93123 17.1766 5.56769 18.3581 5.56769 18.3581C6.64124 20.2321 8.37117 19.7026 9.06712 19.3766C9.16644 18.5821 9.48479 18.0321 9.82281 17.7266C7.15823 17.4413 4.35475 16.3821 4.35475 11.6559C4.35475 10.3114 4.83166 9.21137 5.58736 8.35588C5.46813 8.05038 5.05046 6.78713 5.70683 5.09639C5.70683 5.09639 6.72089 4.77039 9.00739 6.35939C9.98631 6.09005 10.9959 5.95304 12.01 5.95189C13.0241 5.95189 14.0578 6.09464 15.0124 6.35939C17.2991 4.77039 18.3132 5.09639 18.3132 5.09639C18.9695 6.78713 18.5516 8.05038 18.4324 8.35588C19.208 9.21137 19.6652 10.3114 19.6652 11.6559C19.6652 16.3821 16.8618 17.4208 14.1773 17.7266C14.6148 18.1136 14.9924 18.8468 14.9924 20.0081C14.9924 21.6581 14.9728 22.9823 14.9728 23.3896C14.9728 23.7156 15.1916 24.1028 15.788 23.9806C20.5601 22.3506 24 17.7468 24 12.3079C24.0197 5.50364 18.6313 0.00366211 12.01 0.00366211Z" fill="black"/>
</svg>
