<svg width="24" height="24" viewBox="0 0 24 24" fill="none" xmlns="http://www.w3.org/2000/svg">
<rect width="24" height="24" transform="translate(0 0.00366211)" fill="white"/>
<path d="M18.3952 7.02578C17.6005 7.02734 16.9543 6.38387 16.9528 5.58914C16.9512 4.79442 17.5947 4.14823 18.3898 4.14668C19.1848 4.14512 19.831 4.78898 19.8326 5.5837C19.8338 6.37842 19.1903 7.02423 18.3952 7.02578Z" fill="black"/>
<path fill-rule="evenodd" clip-rule="evenodd" d="M12.0115 18.1647C8.60909 18.1713 5.8451 15.4185 5.8385 12.0153C5.83188 8.61289 8.58536 5.84847 11.9878 5.84186C15.3909 5.83525 18.1553 8.58956 18.1619 11.9916C18.1685 15.3948 15.4143 18.1581 12.0115 18.1647ZM11.992 8.00401C9.78365 8.00791 7.99594 9.80224 7.99983 12.011C8.0041 14.2202 9.79882 16.0076 12.0072 16.0033C14.2164 15.999 16.0041 14.2051 15.9998 11.9959C15.9955 9.78669 14.2008 7.99974 11.992 8.00401Z" fill="black"/>
<path fill-rule="evenodd" clip-rule="evenodd" d="M4.1192 0.650141C4.88126 0.351538 5.75333 0.147024 7.03015 0.0867603C8.31011 0.0253347 8.71872 0.0113331 11.9769 0.00511473C15.2358 -0.00110367 15.6444 0.0113307 16.9244 0.0680955C18.2016 0.123305 19.0741 0.324711 19.8377 0.620206C20.6277 0.924636 21.298 1.33444 21.966 1.99969C22.6339 2.66571 23.0453 3.33368 23.3536 4.12257C23.6518 4.88541 23.8563 5.75672 23.917 7.03434C23.9776 8.31389 23.9924 8.72213 23.9986 11.9807C24.0048 15.2389 23.9916 15.6479 23.9356 16.9287C23.88 18.2051 23.679 19.078 23.3835 19.8412C23.0783 20.6313 22.6693 21.3016 22.004 21.9695C21.3388 22.6379 20.6701 23.0489 19.8812 23.3576C19.1184 23.6554 18.2471 23.8599 16.9702 23.9209C15.6903 23.9816 15.2817 23.996 12.0224 24.0022C8.76459 24.0084 8.35598 23.996 7.07605 23.9396C5.79882 23.8836 4.92597 23.6826 4.16275 23.3875C3.37271 23.0819 2.70242 22.6733 2.03446 22.0076C1.36611 21.342 0.954386 20.6736 0.646458 19.8848C0.347858 19.1223 0.144107 18.2506 0.0830727 16.9741C0.0220359 15.6938 0.00765506 15.2848 0.00143906 12.0266C-0.00480094 8.76802 0.00803667 8.35978 0.0640167 7.07982C0.1204 5.80221 0.320637 4.92972 0.61613 4.16572C0.921328 3.37605 1.33035 2.70614 1.99637 2.03779C2.6616 1.36983 3.33033 0.95768 4.1192 0.650141ZM4.94154 21.3715C5.36494 21.5345 6.00023 21.7289 7.17014 21.7798C8.43607 21.8346 8.81514 21.8467 12.0185 21.8404C15.223 21.8346 15.6021 21.821 16.8676 21.7615C18.0363 21.7059 18.6716 21.5092 19.0939 21.3443C19.6541 21.1254 20.0531 20.8638 20.4722 20.4442C20.8913 20.0232 21.1506 19.6231 21.3676 19.0628C21.5309 18.639 21.7249 18.0033 21.7758 16.8334C21.8314 15.5682 21.8431 15.1888 21.8368 11.9846C21.831 8.78123 21.8174 8.40176 21.7572 7.1362C21.7019 5.96705 21.5056 5.33174 21.3404 4.90989C21.1215 4.34885 20.8606 3.95072 20.4399 3.53119C20.0192 3.11167 19.6191 2.85311 19.0581 2.63616C18.6355 2.47248 17.9994 2.27884 16.8303 2.22792C15.5643 2.17232 15.1849 2.16103 11.9808 2.16726C8.77743 2.17348 8.39836 2.18631 7.13281 2.24619C5.9633 2.30178 5.32877 2.49813 4.90575 2.66338C4.34587 2.88227 3.94696 3.14239 3.52746 3.56347C3.10871 3.98453 2.84938 4.38384 2.63244 4.94527C2.46993 5.3683 2.27434 6.00438 2.2242 7.17353C2.16898 8.43947 2.15733 8.81895 2.16355 12.0223C2.16939 15.2265 2.18298 15.6059 2.24248 16.8707C2.29729 18.0406 2.49518 18.6752 2.65966 19.0986C2.87855 19.6581 3.13944 20.057 3.55973 20.4765C3.98081 20.8945 4.38088 21.1546 4.94154 21.3715Z" fill="black"/>
</svg>
