<svg width="24" height="24" viewBox="0 0 24 24" fill="none" xmlns="http://www.w3.org/2000/svg">
<rect y="0.00366211" width="24" height="24" rx="2" fill="white"/>
<path d="M22.2283 0.00366211H1.77167C1.30179 0.00366211 0.851161 0.19032 0.518909 0.522572C0.186657 0.854824 0 1.30545 0 1.77533V22.232C0 22.7019 0.186657 23.1525 0.518909 23.4848C0.851161 23.817 1.30179 24.0037 1.77167 24.0037H22.2283C22.6982 24.0037 23.1488 23.817 23.4811 23.4848C23.8133 23.1525 24 22.7019 24 22.232V1.77533C24 1.30545 23.8133 0.854824 23.4811 0.522572C23.1488 0.19032 22.6982 0.00366211 22.2283 0.00366211ZM7.15333 20.4487H3.545V8.987H7.15333V20.4487ZM5.34667 7.39866C4.93736 7.39636 4.53792 7.27286 4.19873 7.04375C3.85955 6.81464 3.59584 6.49019 3.44088 6.11135C3.28591 5.73251 3.24665 5.31625 3.32803 4.91512C3.40941 4.51398 3.6078 4.14594 3.89816 3.85744C4.18851 3.56895 4.55782 3.37293 4.95947 3.29412C5.36112 3.21532 5.77711 3.25726 6.15495 3.41465C6.53279 3.57204 6.85554 3.83783 7.08247 4.17847C7.30939 4.51912 7.43032 4.91935 7.43 5.32866C7.43386 5.6027 7.38251 5.8747 7.27901 6.12847C7.17551 6.38223 7.02198 6.61256 6.82757 6.80573C6.63316 6.9989 6.40185 7.15094 6.14742 7.25281C5.893 7.35468 5.62067 7.40428 5.34667 7.39866ZM20.4533 20.4587H16.8467V14.197C16.8467 12.3503 16.0617 11.7803 15.0483 11.7803C13.9783 11.7803 12.9283 12.587 12.9283 14.2437V20.4587H9.32V8.99533H12.79V10.5837H12.8367C13.185 9.87866 14.405 8.67366 16.2667 8.67366C18.28 8.67366 20.455 9.86866 20.455 13.3687L20.4533 20.4587Z" fill="black"/>
</svg>
