<svg width="24" height="24" viewBox="0 0 24 24" fill="none" xmlns="http://www.w3.org/2000/svg">
<path d="M6.76884 18.6637C10.5069 18.6637 13.5374 15.6058 13.5374 11.8338C13.5374 8.06173 10.5072 5.00366 6.76884 5.00366C3.0305 5.00366 0 8.06242 0 11.8338C0 15.6051 3.03073 18.6637 6.76884 18.6637Z" fill="black"/>
<path d="M20.9628 11.8338C20.9628 15.3844 19.4476 18.2638 17.5784 18.2638C15.7092 18.2638 14.194 15.3844 14.194 11.8338C14.194 8.28322 15.709 5.40377 17.5782 5.40377C19.4473 5.40377 20.9628 8.2823 20.9628 11.8338Z" fill="black"/>
<path d="M24 11.8338C24 15.0142 23.4671 17.5941 22.8097 17.5941C22.1522 17.5941 21.6196 15.0149 21.6196 11.8338C21.6196 8.65265 22.1524 6.0735 22.8097 6.0735C23.4669 6.0735 24 8.65242 24 11.8338Z" fill="black"/>
</svg>
