<svg width="24" height="24" viewBox="0 0 24 24" fill="none" xmlns="http://www.w3.org/2000/svg">
<g clip-path="url(#clip0_129_407)">
<path d="M4.46222 4.21172C5.20822 4.81772 5.48822 4.77172 6.89022 4.67772L20.1052 3.88472C20.3852 3.88472 20.1522 3.60472 20.0592 3.55872L17.8632 1.97172C17.4432 1.64572 16.8822 1.27172 15.8082 1.36472L3.01322 2.29872C2.54722 2.34472 2.45322 2.57872 2.63922 2.76472L4.46222 4.21172ZM5.25522 7.29172V21.1957C5.25522 21.9427 5.62822 22.2227 6.46922 22.1757L20.9922 21.3357C21.8332 21.2897 21.9272 20.7757 21.9272 20.1687V6.35772C21.9272 5.75172 21.6942 5.42472 21.1792 5.47072L6.00222 6.35772C5.44222 6.40472 5.25522 6.68472 5.25522 7.29072V7.29172ZM19.5922 8.03672C19.6852 8.45672 19.5922 8.87672 19.1722 8.92472L18.4722 9.06472V19.3287C17.8642 19.6557 17.3042 19.8427 16.8372 19.8427C16.0892 19.8427 15.9022 19.6087 15.3422 18.9097L10.7652 11.7237V18.6757L12.2132 19.0037C12.2132 19.0037 12.2132 19.8437 11.0452 19.8437L7.82322 20.0297C7.73022 19.8437 7.82322 19.3767 8.15022 19.2837L8.99022 19.0507V9.85772L7.82522 9.76372C7.73122 9.34372 7.96522 8.73772 8.61822 8.69072L12.0742 8.45772L16.8382 15.7367V9.29672L15.6232 9.15772C15.5302 8.64372 15.9032 8.27072 16.3702 8.22472L19.5922 8.03672ZM1.93922 1.03872L15.2492 0.0587192C16.8832 -0.0812808 17.3042 0.0117192 18.3312 0.758719L22.5802 3.74472C23.2802 4.25772 23.5142 4.39772 23.5142 4.95772V21.3357C23.5142 22.3617 23.1412 22.9697 21.8342 23.0617L6.37622 23.9957C5.39622 24.0427 4.92822 23.9027 4.41422 23.2487L1.28522 19.1887C0.725218 18.4417 0.492218 17.8827 0.492218 17.2287V2.67072C0.492218 1.83172 0.866218 1.13072 1.93922 1.03872Z" fill="black"/>
<path d="M4.46222 4.21172C5.20822 4.81772 5.48822 4.77172 6.89022 4.67772L20.1052 3.88472C20.3852 3.88472 20.1522 3.60472 20.0592 3.55872L17.8632 1.97172C17.4432 1.64572 16.8822 1.27172 15.8082 1.36472L3.01322 2.29872C2.54722 2.34472 2.45322 2.57872 2.63922 2.76472L4.46222 4.21172Z" fill="white"/>
<path fill-rule="evenodd" clip-rule="evenodd" d="M5.25522 7.29172V21.1957C5.25522 21.9427 5.62822 22.2227 6.46922 22.1757L20.9922 21.3357C21.8332 21.2897 21.9272 20.7757 21.9272 20.1687V6.35772C21.9272 5.75172 21.6942 5.42472 21.1792 5.47072L6.00222 6.35772C5.44222 6.40472 5.25522 6.68472 5.25522 7.29072V7.29172ZM19.1722 8.92472C19.5922 8.87672 19.6852 8.45672 19.5922 8.03672L16.3702 8.22472C15.9032 8.27072 15.5302 8.64372 15.6232 9.15772L16.8382 9.29672V15.7367L12.0742 8.45772L8.61822 8.69072C7.96522 8.73772 7.73122 9.34372 7.82522 9.76372L8.99022 9.85772V19.0507L8.15022 19.2837C7.82322 19.3767 7.73022 19.8437 7.82322 20.0297L11.0452 19.8437C12.2132 19.8437 12.2132 19.0037 12.2132 19.0037L10.7652 18.6757V11.7237L15.3422 18.9097L15.3433 18.911C15.9025 19.609 16.0897 19.8427 16.8372 19.8427C17.3042 19.8427 17.8642 19.6557 18.4722 19.3287V9.06472L19.1722 8.92472Z" fill="white"/>
</g>
<defs>
<clipPath id="clip0_129_407">
<rect width="24" height="24" fill="white" transform="translate(0.00320435 0.00372314)"/>
</clipPath>
</defs>
</svg>
