<svg width="24" height="24" viewBox="0 0 24 24" fill="none" xmlns="http://www.w3.org/2000/svg">
<path d="M17.2343 5.7994L18.9738 2.7806C19.4853 1.8939 19.1957 0.768376 18.326 0.256387C17.4393 -0.255132 16.3137 0.0344782 15.8018 0.904248C15.8018 0.921173 15.7848 0.921173 15.7848 0.938568L14.0453 3.95737C9.59395 2.54176 4.81868 4.99781 3.40307 9.46607C2.84031 11.2225 2.87416 13.0989 3.48817 14.8384L6.71149 9.27848C8.22912 6.61793 11.6062 5.69691 14.2667 7.21501C16.9273 8.73264 17.8483 12.1097 16.3302 14.7703C14.8126 17.4308 11.4355 18.3518 8.77496 16.8337C8.75803 16.8337 8.75803 16.8168 8.74064 16.8168L10.5827 13.6278C11.4694 14.1393 12.5949 13.8323 13.1069 12.9456C13.6184 12.0589 13.3114 10.9334 12.4247 10.4214C11.538 9.90942 10.4125 10.2169 9.90049 11.1036L4.01708 21.2677C3.52249 22.1544 3.84642 23.2799 4.75051 23.7745C5.62028 24.2522 6.71196 23.9621 7.22348 23.1092L8.96302 20.0904C13.4313 21.506 18.1896 19.0331 19.5878 14.5648C20.5601 11.444 19.656 8.01567 17.2343 5.79893V5.7994Z" fill="black"/>
</svg>
