<svg width="24" height="24" viewBox="0 0 24 24" fill="none" xmlns="http://www.w3.org/2000/svg">
<path d="M12.0032 23.984C18.6306 23.984 24.0032 18.6158 24.0032 11.9939C24.0032 5.37189 18.6306 0.00372314 12.0032 0.00372314C5.37579 0.00372314 0.00320435 5.37189 0.00320435 11.9939C0.00320435 18.6158 5.37579 23.984 12.0032 23.984Z" fill="white"/>
<path d="M12.0032 0.00372314C5.37604 0.00372314 0.00320435 5.37214 0.00320435 11.9939C0.00320435 17.0761 3.1637 21.4182 7.6279 23.1649C7.51925 22.2175 7.43036 20.757 7.6674 19.7208C7.88469 18.7833 9.06987 13.7603 9.06987 13.7603C9.06987 13.7603 8.71432 13.0399 8.71432 11.984C8.71432 10.3162 9.68222 9.0728 10.8872 9.0728C11.9143 9.0728 12.4081 9.84254 12.4081 10.7603C12.4081 11.7866 11.7563 13.3261 11.4106 14.757C11.1242 15.9511 12.0131 16.9281 13.1884 16.9281C15.3217 16.9281 16.9612 14.6781 16.9612 11.4412C16.9612 8.56951 14.897 6.56622 11.9439 6.56622C8.52666 6.56622 6.52172 9.12214 6.52172 11.7669C6.52172 12.7932 6.91678 13.8985 7.41061 14.5004C7.50938 14.6189 7.51925 14.7274 7.48962 14.8458C7.40074 15.2208 7.19333 16.0399 7.15382 16.2077C7.10444 16.4248 6.97604 16.4741 6.74888 16.3656C5.24765 15.6649 4.30938 13.484 4.30938 11.7175C4.30938 7.93793 7.05506 4.46425 12.2402 4.46425C16.3983 4.46425 19.6378 7.42478 19.6378 11.3919C19.6378 15.5268 17.0304 18.8524 13.4156 18.8524C12.2007 18.8524 11.0551 18.2208 10.6699 17.4708C10.6699 17.4708 10.0674 19.7603 9.91925 20.3228C9.65259 21.3689 8.92172 22.6715 8.4279 23.4708C9.55382 23.8162 10.739 24.0037 11.9835 24.0037C18.6106 24.0037 23.9835 18.6353 23.9835 12.0136C24.0032 5.37214 18.6304 0.00372314 12.0032 0.00372314Z" fill="black"/>
</svg>
