<svg width="24" height="24" viewBox="0 0 24 24" fill="none" xmlns="http://www.w3.org/2000/svg">
<path d="M17.0066 11.7371C16.9165 11.6937 16.8249 11.652 16.7322 11.612C16.5707 8.62533 14.9448 6.91545 12.2147 6.89795C12.2023 6.89787 12.19 6.89788 12.1776 6.89788C10.5446 6.89788 9.18653 7.5975 8.35062 8.87061L9.8521 9.90443C10.4766 8.95347 11.4566 8.75074 12.1783 8.75074C12.1867 8.75074 12.195 8.75074 12.2033 8.75082C13.1022 8.75657 13.7806 9.01891 14.2196 9.5305C14.5391 9.90295 14.7528 10.4176 14.8586 11.0672C14.0616 10.9312 13.1996 10.8894 12.2782 10.9425C9.68251 11.0925 8.0138 12.612 8.12588 14.7234C8.18275 15.7944 8.71432 16.7158 9.62261 17.3177C10.3906 17.8265 11.3796 18.0753 12.4076 18.019C13.7651 17.9443 14.83 17.4244 15.573 16.4738C16.1372 15.752 16.4941 14.8165 16.6517 13.6377C17.2986 14.0296 17.7781 14.5453 18.0429 15.1653C18.4932 16.2191 18.5194 17.9508 17.1116 19.3627C15.8782 20.5995 14.3956 21.1345 12.1549 21.151C9.66938 21.1326 7.78962 20.3325 6.56745 18.773C5.42299 17.3127 4.83152 15.2036 4.80946 12.504C4.83152 9.80435 5.42299 7.69514 6.56745 6.23489C7.78962 4.67544 9.66935 3.87537 12.1549 3.85683C14.6584 3.87552 16.5709 4.67943 17.8399 6.2464C18.4621 7.01483 18.9312 7.98118 19.2405 9.10791L21 8.63671C20.6251 7.24983 20.0353 6.05475 19.2326 5.06362C17.6058 3.0547 15.2266 2.02531 12.161 2.00397H12.1487C9.08938 2.02524 6.73679 3.05854 5.15632 5.07514C3.74992 6.86967 3.02445 9.36662 3.00008 12.4966L3 12.504L3.00008 12.5113C3.02445 15.6413 3.74992 18.1383 5.15632 19.9328C6.73679 21.9494 9.08938 22.9827 12.1487 23.004H12.161C14.8809 22.985 16.7981 22.2703 18.3775 20.6864C20.4439 18.6143 20.3817 16.017 19.7006 14.4225C19.212 13.2791 18.2805 12.3504 17.0066 11.7371ZM12.3104 16.1688C11.1728 16.2331 9.99087 15.7206 9.93259 14.6228C9.88939 13.8088 10.5097 12.9006 12.3802 12.7924C12.5944 12.78 12.8046 12.7739 13.0111 12.7739C13.6906 12.7739 14.3262 12.8402 14.904 12.967C14.6885 15.6687 13.4242 16.1074 12.3104 16.1688Z" fill="black"/>
</svg>
