<svg width="24" height="24" viewBox="0 0 24 24" fill="none" xmlns="http://www.w3.org/2000/svg">
<path d="M24 4.31284C23.117 4.70446 22.168 4.96914 21.172 5.08818C22.1886 4.47876 22.9693 3.51381 23.3369 2.36407C22.3856 2.92827 21.3318 3.33806 20.2102 3.55893C19.312 2.60197 18.0323 2.00397 16.6162 2.00397C13.8968 2.00397 11.6921 4.20855 11.6921 6.92775C11.6921 7.31366 11.7358 7.68947 11.8197 8.04984C7.72742 7.8445 4.09929 5.88423 1.67076 2.90527C1.24692 3.6325 1.0041 4.47832 1.0041 5.38068C1.0041 7.08892 1.87346 8.59605 3.19464 9.479C2.38745 9.45346 1.62827 9.23197 0.964337 8.86318C0.963986 8.88372 0.963986 8.90435 0.963986 8.92507C0.963986 11.3108 2.66125 13.3009 4.91377 13.7532C4.50056 13.8657 4.06558 13.9258 3.61646 13.9258C3.2992 13.9258 2.99072 13.895 2.69014 13.8375C3.31667 15.7938 5.13508 17.2173 7.28972 17.2571C5.60456 18.5777 3.48144 19.3648 1.17459 19.3648C0.777175 19.3648 0.385208 19.3416 0 19.2961C2.17904 20.6931 4.76726 21.5082 7.5479 21.5082C16.6047 21.5082 21.5572 14.0054 21.5572 7.49871C21.5572 7.28521 21.5525 7.07286 21.543 6.86173C22.505 6.16751 23.3398 5.30027 24 4.31284Z" fill="black"/>
</svg>
