<svg width="24" height="22" viewBox="0 0 24 22" fill="none" xmlns="http://www.w3.org/2000/svg">
<path d="M3.27338 0.252626C4.76824 0.90419 6.05031 1.97276 7.21301 3.09514C7.26008 3.14046 7.30715 3.18578 7.35564 3.23248C7.8961 3.75559 8.41184 4.28456 8.87863 4.87577C9.05618 5.1 9.2412 5.31645 9.42718 5.53372C10.158 6.41157 10.8087 7.34851 11.4219 8.31141C11.4629 8.37545 11.5039 8.43948 11.5461 8.50545C11.5837 8.56546 11.6213 8.62547 11.6601 8.6873C11.6931 8.74 11.7262 8.7927 11.7603 8.847C11.8429 9.00359 11.8853 9.14585 11.9206 9.31876C11.9733 9.31876 12.0259 9.31876 12.0802 9.31876C12.101 9.24862 12.1219 9.17848 12.1433 9.10622C12.2388 8.84264 12.3512 8.6432 12.5066 8.41084C12.5596 8.33125 12.6126 8.25166 12.6672 8.16966C12.7236 8.08643 12.7801 8.0032 12.8382 7.91745C12.8959 7.8317 12.9536 7.74595 13.0131 7.65761C13.4256 7.04884 13.8507 6.45856 14.3143 5.88779C14.4006 5.7801 14.4006 5.7801 14.4885 5.67024C14.6678 5.44845 14.8497 5.22907 15.0324 5.0101C15.0663 4.96892 15.1002 4.92774 15.135 4.88531C16.0553 3.76787 17.0614 2.68713 18.224 1.8185C18.2669 1.78638 18.3097 1.75425 18.3538 1.72114C19.4705 0.888711 20.6389 0.0370231 22.0789 0.0182429C22.1675 0.0164783 22.1675 0.0164783 22.258 0.0146781C22.6957 0.0228611 23.0472 0.134144 23.4104 0.382285C24.0416 1.05158 24.0008 1.89525 23.9988 2.76102C23.9989 2.85356 23.9989 2.85356 23.9989 2.94797C23.9971 4.01636 23.9272 5.07404 23.8243 6.13714C23.8177 6.20612 23.8111 6.2751 23.8043 6.34617C23.7339 7.06785 23.6477 7.78647 23.5347 8.50278C23.5261 8.56017 23.5174 8.61755 23.5085 8.67667C23.3169 9.82751 22.616 10.7181 21.7099 11.4182C20.7135 12.1075 19.5649 12.3507 18.3836 12.5104C18.4979 12.5452 18.4979 12.5452 18.6146 12.5808C19.8474 12.9669 20.9624 13.5176 21.655 14.6647C21.9768 15.4859 21.8643 16.3055 21.5431 17.1089C20.7051 18.8751 19.0394 20.4281 17.2267 21.1626C16.4685 21.4098 15.6868 21.4726 14.9526 21.1277C13.3508 20.2009 12.7959 18.1784 12.2896 16.5198C12.2582 16.4171 12.2582 16.4171 12.226 16.3123C12.2069 16.2479 12.1878 16.1835 12.1681 16.1171C12.1511 16.0601 12.1341 16.003 12.1165 15.9442C12.0802 15.7817 12.0802 15.7817 12.0802 15.4626C12.0275 15.4626 11.9749 15.4626 11.9206 15.4626C11.9132 15.5371 11.9058 15.6115 11.8982 15.6882C11.6473 17.4249 10.6273 19.833 9.20433 20.9416C9.1528 20.9767 9.10127 21.0118 9.04818 21.0479C8.97459 21.0993 8.97459 21.0993 8.89951 21.1517C8.24429 21.5219 7.33364 21.4718 6.62175 21.3022C4.76341 20.5971 3.14307 18.6246 2.29533 16.8683C1.97701 16.0988 1.82853 15.4025 2.11144 14.6017C2.49943 13.6867 3.30249 13.2513 4.18048 12.8905C4.59679 12.732 5.02563 12.6175 5.45763 12.5104C5.31153 12.4827 5.31153 12.4827 5.16247 12.4546C3.60911 12.1512 2.19734 11.6864 1.21848 10.3663C0.492163 9.2735 0.372668 8.07337 0.256321 6.7954C0.243164 6.65971 0.229918 6.52403 0.216582 6.38835C0.185149 6.06538 0.155378 5.7423 0.126753 5.41907C0.113472 5.26941 0.0997177 5.1198 0.0858912 4.97019C0.0298553 4.31988 0.0118805 3.67114 0.00836091 3.01872C0.00743547 2.89968 0.00579387 2.78064 0.00345196 2.66162C-0.0124876 1.84585 0.00528984 1.12912 0.540573 0.467061C1.32437 -0.148781 2.37313 -0.0850891 3.27338 0.252626Z" fill="black"/>
</svg>
