<svg width="24" height="24" viewBox="0 0 24 24" fill="none" xmlns="http://www.w3.org/2000/svg">
<path fill-rule="evenodd" clip-rule="evenodd" d="M21.2114 5.86176C21.5305 6.18299 21.7597 6.58241 21.876 7.02006C22.3062 8.63538 22.3062 12.004 22.3062 12.004C22.3062 12.004 22.3062 15.3725 21.876 16.9879C21.7597 17.4255 21.5305 17.8249 21.2114 18.1461C20.8922 18.4674 20.4942 18.6991 20.0573 18.8182C18.449 19.2507 12.0205 19.2507 12.0205 19.2507C12.0205 19.2507 5.59188 19.2507 3.98357 18.8182C3.54668 18.6991 3.14873 18.4674 2.82956 18.1461C2.51038 17.8249 2.28117 17.4255 2.16487 16.9879C1.73474 15.3725 1.73474 12.004 1.73474 12.004C1.73474 12.004 1.73474 8.63538 2.16487 7.02006C2.28117 6.58241 2.51038 6.18299 2.82956 5.86176C3.14873 5.54054 3.54668 5.30877 3.98357 5.18967C5.59188 4.7572 12.0205 4.7572 12.0205 4.7572C12.0205 4.7572 18.449 4.7572 20.0573 5.18967C20.4942 5.30877 20.8922 5.54054 21.2114 5.86176ZM15.2932 12.004L9.91663 8.94515V15.0628L15.2932 12.004Z" fill="black"/>
</svg>
