<svg width="38" height="38" viewBox="0 0 38 38" fill="none" xmlns="http://www.w3.org/2000/svg">
<g clip-path="url(#clip0_10464_17462)">
<path d="M18.7485 37.4969C29.1029 37.4969 37.4969 29.1029 37.4969 18.7485C37.4969 8.39397 29.1029 0 18.7485 0C8.39397 0 0 8.39397 0 18.7485C0 29.1029 8.39397 37.4969 18.7485 37.4969Z" fill="#F5F7FB"/>
<path d="M19.2416 36.1538C28.9182 36.1538 36.7804 28.4276 36.7804 18.9183C36.7804 9.40909 28.9182 1.6828 19.2416 1.6828C9.56495 1.6828 1.70274 9.40909 1.70274 18.9183C1.70274 28.4276 9.56495 36.1538 19.2416 36.1538ZM19.2416 37.3424C8.89302 37.3424 0.493164 29.0879 0.493164 18.9183C0.493164 8.74871 8.89302 0.494141 19.2416 0.494141C29.5902 0.494141 37.99 8.74871 37.99 18.9183C37.99 29.0879 29.5902 37.3424 19.2416 37.3424Z" fill="black"/>
<path d="M21.9318 12.0618L19.479 11.9793C19.7646 12.7057 19.899 13.4321 19.899 14.1749C19.899 15.9909 19.227 17.5097 17.8662 18.7149C16.5054 19.9201 14.8591 20.531 12.8935 20.531H12.1208C11.096 20.531 10.2728 20.663 9.66798 20.9271C9.06326 21.1913 8.76082 21.505 8.76082 21.8517C8.76082 22.2975 9.01281 22.6606 9.5168 22.9413C10.0208 23.2219 10.7264 23.3705 11.6168 23.387L16.0855 23.4366C18.0175 23.4696 19.5126 23.8658 20.5878 24.6252C21.6629 25.3846 22.2005 26.4412 22.2005 27.7785C22.2005 29.8255 21.075 31.6086 18.8071 33.1274C16.539 34.6463 13.8511 35.4221 10.76 35.4221C8.72722 35.4221 7.01366 34.9434 5.61929 33.9693C4.22492 32.9953 3.53613 31.8232 3.53613 30.4364C3.53613 29.5119 3.97292 28.5874 4.8633 27.7124C5.75369 26.8209 6.79527 26.177 7.988 25.7643C7.18166 25.4176 6.54327 24.9059 6.03928 24.262C5.53529 23.6181 5.28329 22.9578 5.28329 22.3139C5.28329 21.8517 5.75369 21.3729 6.71126 20.8611C7.65204 20.3493 8.64324 20.0026 9.66798 19.821C8.5592 19.2928 7.70248 18.5828 7.08085 17.7079C6.45927 16.8329 6.15687 15.8424 6.15687 14.7527C6.15687 13.0193 6.84566 11.5005 8.20647 10.1962C9.584 8.89202 11.2136 8.24818 13.0951 8.24818C14.1031 8.24818 15.0943 8.4133 16.0519 8.75999C17.0263 9.10668 17.8326 9.56894 18.4542 10.1467L21.9485 10.0311C22.2846 10.0311 22.4525 10.3778 22.4525 11.0547C22.4525 11.7316 22.2846 12.0783 21.9485 12.0783L21.9318 12.0618ZM6.76166 29.5944C6.76166 30.8326 7.29925 31.8562 8.37441 32.6156C9.44959 33.3915 10.8104 33.7712 12.4567 33.7712C14.4391 33.7712 16.1695 33.3255 17.6142 32.4505C19.0758 31.5756 19.7982 30.4859 19.7982 29.1983C19.7982 28.3232 19.5126 27.7124 18.9246 27.3327C18.3366 26.953 17.3622 26.7549 15.9847 26.7218L11.4992 26.6228C10.6088 26.6228 9.81923 26.4907 9.14723 26.2431C7.56807 27.0851 6.79527 28.1912 6.79527 29.5614L6.76166 29.5944ZM15.5311 10.5925C15.0271 9.83308 14.2039 9.45338 13.0951 9.45338C10.9616 9.45338 9.9032 11.2198 9.9032 14.7527C9.9032 16.3542 10.1552 17.5263 10.6424 18.2362C11.1296 18.9626 11.9527 19.3258 13.0951 19.3258C15.2287 19.3258 16.2871 17.5923 16.2871 14.1419C16.2871 12.524 16.0351 11.3353 15.5311 10.5925ZM35.1531 11.4179C34.8339 11.7646 34.4475 11.9463 34.0107 11.9463C33.4395 11.9463 32.8852 11.7646 32.3307 11.4014C31.894 11.1042 31.5075 10.9722 31.1883 10.9722C30.3484 10.9722 29.4916 11.4509 28.6012 12.4084V20.9271C28.6012 22.0168 28.786 22.7927 29.1892 23.2219C29.5756 23.6511 30.3988 23.9484 31.6588 24.1134C31.8603 24.1464 31.9612 24.3115 31.9612 24.6252C31.9612 24.9719 31.8603 25.1535 31.6588 25.1535C31.138 25.1535 30.382 25.1205 29.4244 25.0379C28.3492 24.9554 27.5093 24.9224 26.8876 24.9224C26.2661 24.9224 25.4765 24.9554 24.5525 25.0379C23.7293 25.1205 23.0573 25.1535 22.5197 25.1535C22.3182 25.1535 22.2174 24.9719 22.2174 24.6252C22.2174 24.3115 22.3182 24.1464 22.5197 24.1134C23.6453 23.9814 24.3677 23.7172 24.6701 23.3375C24.9893 22.9578 25.1405 22.1488 25.1405 20.9271V13.9438C25.1405 12.9368 25.0061 12.2764 24.7373 11.9627C24.4685 11.649 23.8805 11.4344 22.9733 11.3353C22.7717 11.3353 22.671 11.1703 22.671 10.8401C22.671 10.5265 22.7717 10.3778 22.9733 10.3778C24.2501 10.0642 25.3085 9.71751 26.1317 9.32127C26.9548 8.94157 27.5093 8.61134 27.7613 8.33074C27.9124 8.18217 28.0636 8.09961 28.2148 8.09961C28.5676 8.09961 28.7524 8.19863 28.7524 8.39675L28.6012 10.7741C29.626 9.83308 30.5164 9.18917 31.2556 8.80946C31.9948 8.42976 32.734 8.24818 33.4731 8.24818C34.0611 8.24818 34.5819 8.42976 35.0019 8.80946C35.4219 9.18917 35.6403 9.63496 35.6403 10.1302C35.6403 10.6255 35.4891 11.0712 35.1699 11.4179H35.1531Z" fill="black"/>
</g>
<defs>
<clipPath id="clip0_10464_17462">
<rect width="38" height="38" fill="white"/>
</clipPath>
</defs>
</svg>
