<svg width="60" height="59" viewBox="0 0 60 59" fill="none" xmlns="http://www.w3.org/2000/svg">
<path d="M30 57.0603C45.4839 57.0603 58.0645 44.6972 58.0645 29.4811C58.0645 14.2651 45.4839 1.90201 30 1.90201C14.5161 1.90201 1.93548 14.2651 1.93548 29.4811C1.93548 44.6972 14.5161 57.0603 30 57.0603ZM30 58.9623C13.4409 58.9623 0 45.7539 0 29.4811C0 13.2084 13.4409 0 30 0C46.5591 0 60 13.2084 60 29.4811C60 45.7539 46.5591 58.9623 30 58.9623Z" fill="black"/>
<path d="M34.3046 18.5129L30.3799 18.3808C30.8369 19.5431 31.0519 20.7055 31.0519 21.8942C31.0519 24.8001 29.9767 27.2304 27.7993 29.1588C25.6218 31.0873 22.9874 32.0647 19.8423 32.0647H18.6057C16.9659 32.0647 15.6487 32.276 14.681 32.6987C13.7132 33.1214 13.2294 33.6233 13.2294 34.178C13.2294 34.8913 13.6326 35.4725 14.439 35.9215C15.2455 36.3706 16.3745 36.6084 17.7992 36.6348L24.9498 36.714C28.0412 36.7669 30.4337 37.4009 32.1541 38.6161C33.8745 39.8312 34.7347 41.5219 34.7347 43.6617C34.7347 46.9373 32.9337 49.7904 29.3046 52.2207C25.6756 54.651 21.3745 55.8926 16.4283 55.8926C13.1756 55.8926 10.4337 55.1265 8.20247 53.568C5.97129 52.0094 4.86914 50.1338 4.86914 47.9148C4.86914 46.4354 5.56807 44.9561 6.9928 43.556C8.41753 42.1295 10.0842 41.0992 11.9928 40.4388C10.7025 39.8841 9.68097 39.0651 8.87452 38.0349C8.06807 37.0046 7.66484 35.948 7.66484 34.9177C7.66484 34.178 8.41753 33.4119 9.94979 32.593C11.4552 31.7741 13.0412 31.2194 14.681 30.9288C12.9068 30.0834 11.5358 28.9475 10.5412 27.5474C9.54656 26.1473 9.06269 24.5623 9.06269 22.8188C9.06269 20.0451 10.1648 17.6147 12.3423 15.5278C14.5466 13.4409 17.1541 12.4106 20.1648 12.4106C21.7777 12.4106 23.3638 12.6748 24.896 13.2295C26.4552 13.7843 27.7455 14.5239 28.7401 15.4485L34.3315 15.2636C34.8691 15.2636 35.138 15.8184 35.138 16.9015C35.138 17.9845 34.8691 18.5393 34.3315 18.5393L34.3046 18.5129ZM10.0304 46.5675C10.0304 48.5488 10.8906 50.1866 12.6111 51.4018C14.3315 52.6434 16.5089 53.251 19.1433 53.251C22.3154 53.251 25.0842 52.5377 27.396 51.1376C29.7347 49.7375 30.8906 47.994 30.8906 45.9335C30.8906 44.5334 30.4337 43.556 29.4928 42.9484C28.5519 42.3408 26.9928 42.0238 24.7885 41.971L17.6111 41.8125C16.1863 41.8125 14.9229 41.6012 13.8476 41.2049C11.3208 42.5522 10.0842 44.3221 10.0842 46.5147L10.0304 46.5675ZM24.0627 16.1618C23.2562 14.9466 21.939 14.339 20.1648 14.339C16.7509 14.339 15.0573 17.1656 15.0573 22.8188C15.0573 25.3812 15.4605 27.2568 16.2401 28.3928C17.0197 29.5551 18.3369 30.1363 20.1648 30.1363C23.5788 30.1363 25.2724 27.3625 25.2724 21.8414C25.2724 19.2526 24.8691 17.3505 24.0627 16.1618ZM55.4605 17.4826C54.9498 18.0374 54.3315 18.328 53.6326 18.328C52.7186 18.328 51.8315 18.0374 50.9444 17.4562C50.2455 16.9807 49.6272 16.7694 49.1165 16.7694C47.7724 16.7694 46.4014 17.5355 44.9767 19.0676V32.6987C44.9767 34.4422 45.2724 35.6838 45.9175 36.3706C46.5358 37.0575 47.853 37.533 49.8691 37.7971C50.1917 37.85 50.353 38.1141 50.353 38.6161C50.353 39.1708 50.1917 39.4614 49.8691 39.4614C49.0358 39.4614 47.8261 39.4086 46.2939 39.2765C44.5734 39.1444 43.2294 39.0916 42.2347 39.0916C41.2401 39.0916 39.9767 39.1444 38.4982 39.2765C37.181 39.4086 36.1057 39.4614 35.2455 39.4614C34.9229 39.4614 34.7616 39.1708 34.7616 38.6161C34.7616 38.1141 34.9229 37.85 35.2455 37.7971C37.0466 37.5858 38.2025 37.1631 38.6864 36.5555C39.1971 35.948 39.439 34.6535 39.439 32.6987V21.5244C39.439 19.913 39.224 18.8563 38.7939 18.3544C38.3638 17.8525 37.4229 17.509 35.9713 17.3505C35.6487 17.3505 35.4874 17.0864 35.4874 16.558C35.4874 16.0561 35.6487 15.8184 35.9713 15.8184C38.0143 15.3164 39.7079 14.7617 41.0251 14.1277C42.3423 13.5201 43.2294 12.9918 43.6326 12.5427C43.8745 12.3049 44.1165 12.1729 44.3584 12.1729C44.9229 12.1729 45.2186 12.3314 45.2186 12.6484L44.9767 16.4524C46.6165 14.9466 48.0412 13.9164 49.224 13.3088C50.4068 12.7012 51.5896 12.4106 52.7724 12.4106C53.7132 12.4106 54.5466 12.7012 55.2186 13.3088C55.8907 13.9164 56.2401 14.6296 56.2401 15.4221C56.2401 16.2146 55.9982 16.9279 55.4874 17.4826H55.4605Z" fill="black"/>
</svg>
