<svg width="63" height="63" viewBox="0 0 63 63" fill="none" xmlns="http://www.w3.org/2000/svg">
<path d="M31.5 60.9677C47.7581 60.9677 60.9677 47.7581 60.9677 31.5C60.9677 15.2419 47.7581 2.03226 31.5 2.03226C15.2419 2.03226 2.03226 15.2419 2.03226 31.5C2.03226 47.7581 15.2419 60.9677 31.5 60.9677ZM31.5 63C14.1129 63 0 48.8871 0 31.5C0 14.1129 14.1129 0 31.5 0C48.8871 0 63 14.1129 63 31.5C63 48.8871 48.8871 63 31.5 63Z" fill="#D9DFEA"/>
<path d="M35.9419 18.8157L31.8163 18.6737C32.2967 19.9233 32.5228 21.1728 32.5228 22.4508C32.5228 25.5746 31.3925 28.1873 29.1036 30.2604C26.8148 32.3335 24.0455 33.3843 20.7394 33.3843H19.4396C17.7159 33.3843 16.3312 33.6115 15.314 34.0659C14.2967 34.5202 13.7881 35.0598 13.7881 35.6562C13.7881 36.423 14.2119 37.0477 15.0597 37.5305C15.9074 38.0133 17.0942 38.2689 18.5918 38.2973L26.1083 38.3825C29.3579 38.4393 31.8728 39.1208 33.6813 40.4272C35.4898 41.7335 36.394 43.5511 36.394 45.8514C36.394 49.3728 34.5008 52.4399 30.686 55.0526C26.8713 57.6653 22.3501 59 17.1507 59C13.7316 59 10.8493 58.1764 8.50392 56.5009C6.15856 54.8254 5 52.8091 5 50.4236C5 48.8332 5.73469 47.2429 7.23234 45.7378C8.72998 44.2042 10.4819 43.0967 12.4882 42.3867C11.1319 41.7903 10.0581 40.91 9.21036 39.8024C8.36264 38.6949 7.93878 37.5589 7.93878 36.4514C7.93878 35.6562 8.72998 34.8326 10.3407 33.9523C11.9231 33.0719 13.5903 32.4755 15.314 32.1631C13.449 31.2544 12.0078 30.0332 10.9623 28.5281C9.9168 27.023 9.40816 25.319 9.40816 23.4447C9.40816 20.4628 10.5667 17.8502 12.8556 15.6066C15.1727 13.3631 17.9137 12.2556 21.0785 12.2556C22.7739 12.2556 24.4411 12.5396 26.0518 13.136C27.6907 13.7323 29.0471 14.5275 30.0926 15.5215L35.9702 15.3227C36.5353 15.3227 36.8179 15.919 36.8179 17.0834C36.8179 18.2477 36.5353 18.8441 35.9702 18.8441L35.9419 18.8157ZM10.4254 48.9752C10.4254 51.1051 11.3297 52.8659 13.1381 54.1722C14.9466 55.507 17.2355 56.1601 20.0047 56.1601C23.3391 56.1601 26.2496 55.3934 28.6797 53.8882C31.1381 52.3831 32.3532 50.5088 32.3532 48.2937C32.3532 46.7885 31.8728 45.7378 30.8838 45.0846C29.8948 44.4314 28.2559 44.0906 25.9388 44.0338L18.394 43.8634C16.8964 43.8634 15.5683 43.6363 14.438 43.2103C11.7818 44.6586 10.4819 46.5613 10.4819 48.9184L10.4254 48.9752ZM25.1758 16.2882C24.3281 14.9819 22.9435 14.3287 21.0785 14.3287C17.4898 14.3287 15.7096 17.3674 15.7096 23.4447C15.7096 26.1994 16.1334 28.2157 16.9529 29.4369C17.7724 30.6864 19.157 31.3112 21.0785 31.3112C24.6672 31.3112 26.4474 28.3293 26.4474 22.394C26.4474 19.6109 26.0235 17.5662 25.1758 16.2882ZM58.1805 17.7082C57.6436 18.3045 56.9937 18.6169 56.259 18.6169C55.2983 18.6169 54.3658 18.3045 53.4333 17.6798C52.6986 17.1686 52.0487 16.9414 51.5118 16.9414C50.0989 16.9414 48.6578 17.765 47.1601 19.4121V34.0659C47.1601 35.9402 47.471 37.2749 48.1491 38.0133C48.7991 38.7517 50.1837 39.2628 52.303 39.5468C52.6421 39.6036 52.8116 39.8876 52.8116 40.4272C52.8116 41.0236 52.6421 41.336 52.303 41.336C51.427 41.336 50.1554 41.2792 48.5447 41.1372C46.7363 40.9952 45.3234 40.9384 44.2779 40.9384C43.2323 40.9384 41.9042 40.9952 40.3501 41.1372C38.9655 41.2792 37.8352 41.336 36.9309 41.336C36.5918 41.336 36.4223 41.0236 36.4223 40.4272C36.4223 39.8876 36.5918 39.6036 36.9309 39.5468C38.8242 39.3196 40.0392 38.8653 40.5479 38.2121C41.0848 37.5589 41.3391 36.1674 41.3391 34.0659V22.0532C41.3391 20.3208 41.113 19.1849 40.6609 18.6453C40.2088 18.1057 39.2198 17.7366 37.6939 17.5662C37.3548 17.5662 37.1852 17.2822 37.1852 16.7142C37.1852 16.1746 37.3548 15.919 37.6939 15.919C39.8414 15.3795 41.6217 14.7831 43.0063 14.1015C44.3909 13.4483 45.3234 12.8804 45.7473 12.3976C46.0016 12.142 46.2559 12 46.5102 12C47.1036 12 47.4144 12.1704 47.4144 12.5112L47.1601 16.6006C48.8838 14.9819 50.3815 13.8743 51.6248 13.2211C52.8681 12.568 54.1115 12.2556 55.3548 12.2556C56.3438 12.2556 57.2198 12.568 57.9262 13.2211C58.6326 13.8743 59 14.6411 59 15.4931C59 16.345 58.7457 17.1118 58.2088 17.7082H58.1805Z" fill="#D9DFEA"/>
</svg>
