<svg width="51" height="51" viewBox="0 0 51 51" fill="none" xmlns="http://www.w3.org/2000/svg">
<circle cx="25.1624" cy="25.1624" r="25.1624" fill="#F5F7FB"/>
<path d="M25.8245 48.5216C38.8115 48.5216 49.3634 38.1522 49.3634 25.3898C49.3634 12.6274 38.8115 2.2579 25.8245 2.2579C12.8374 2.2579 2.28549 12.6274 2.28549 25.3898C2.28549 38.1522 12.8374 48.5216 25.8245 48.5216ZM25.8245 50.1169C11.9356 50.1169 0.662109 39.0384 0.662109 25.3898C0.662109 11.7411 11.9356 0.662598 25.8245 0.662598C39.7134 0.662598 50.9868 11.7411 50.9868 25.3898C50.9868 39.0384 39.7134 50.1169 25.8245 50.1169Z" fill="black"/>
<path d="M29.4351 16.1893L26.1432 16.0785C26.5265 17.0534 26.7069 18.0283 26.7069 19.0253C26.7069 21.4626 25.805 23.501 23.9787 25.1185C22.1524 26.736 19.9428 27.5558 17.3048 27.5558H16.2677C14.8923 27.5558 13.7875 27.733 12.9758 28.0875C12.1642 28.442 11.7583 28.863 11.7583 29.3283C11.7583 29.9266 12.0965 30.414 12.7729 30.7907C13.4493 31.1673 14.3963 31.3668 15.5913 31.3889L21.5888 31.4554C24.1817 31.4997 26.1883 32.0315 27.6313 33.0507C29.0743 34.0699 29.7958 35.488 29.7958 37.2827C29.7958 40.0301 28.2852 42.4231 25.2414 44.4615C22.1975 46.5 18.59 47.5413 14.4414 47.5413C11.7132 47.5413 9.41343 46.8988 7.54203 45.5915C5.67064 44.2843 4.74622 42.7111 4.74622 40.8499C4.74622 39.6091 5.33244 38.3684 6.52742 37.194C7.72241 35.9976 9.12032 35.1334 10.7211 34.5795C9.6389 34.1142 8.78211 33.4274 8.10571 32.5632C7.4293 31.6991 7.09109 30.8128 7.09109 29.9487C7.09109 29.3283 7.72241 28.6858 9.00758 27.9989C10.2702 27.312 11.6005 26.8467 12.9758 26.603C11.4877 25.894 10.3379 24.9412 9.50361 23.7669C8.66938 22.5926 8.26353 21.2632 8.26353 19.8008C8.26353 17.4744 9.18796 15.4359 11.0143 13.6855C12.8631 11.9351 15.0502 11.071 17.5754 11.071C18.9282 11.071 20.2585 11.2926 21.5437 11.7579C22.8514 12.2232 23.9336 12.8436 24.7679 13.619L29.4576 13.4639C29.9086 13.4639 30.134 13.9292 30.134 14.8377C30.134 15.7461 29.9086 16.2114 29.4576 16.2114L29.4351 16.1893ZM9.07522 39.7199C9.07522 41.3817 9.79672 42.7554 11.2397 43.7747C12.6827 44.816 14.509 45.3256 16.7186 45.3256C19.3792 45.3256 21.7015 44.7274 23.6405 43.5531C25.6021 42.3788 26.5716 40.9164 26.5716 39.1882C26.5716 38.0138 26.1883 37.194 25.3992 36.6844C24.61 36.1748 23.3023 35.9089 21.4535 35.8646L15.4335 35.7317C14.2385 35.7317 13.1788 35.5544 12.2769 35.2221C10.1575 36.3521 9.12032 37.8366 9.12032 39.6756L9.07522 39.7199ZM20.8447 14.2173C20.1683 13.1981 19.0635 12.6885 17.5754 12.6885C14.712 12.6885 13.2915 15.0592 13.2915 19.8008C13.2915 21.9501 13.6297 23.5232 14.2836 24.476C14.9374 25.4509 16.0422 25.9383 17.5754 25.9383C20.4389 25.9383 21.8593 23.6118 21.8593 18.981C21.8593 16.8096 21.5211 15.2143 20.8447 14.2173ZM47.1795 15.3251C46.7511 15.7904 46.2325 16.0342 45.6463 16.0342C44.8797 16.0342 44.1357 15.7904 43.3916 15.303C42.8054 14.9041 42.2868 14.7269 41.8584 14.7269C40.7311 14.7269 39.5812 15.3694 38.3862 16.6545V28.0875C38.3862 29.5499 38.6342 30.5913 39.1754 31.1673C39.6939 31.7434 40.7987 32.1423 42.4898 32.3638C42.7603 32.4081 42.8956 32.6297 42.8956 33.0507C42.8956 33.516 42.7603 33.7597 42.4898 33.7597C41.7908 33.7597 40.7762 33.7154 39.491 33.6046C38.048 33.4938 36.9207 33.4495 36.0864 33.4495C35.2522 33.4495 34.1925 33.4938 32.9524 33.6046C31.8476 33.7154 30.9457 33.7597 30.2242 33.7597C29.9537 33.7597 29.8184 33.516 29.8184 33.0507C29.8184 32.6297 29.9537 32.4081 30.2242 32.3638C31.7349 32.1866 32.7044 31.8321 33.1102 31.3224C33.5386 30.8128 33.7415 29.7271 33.7415 28.0875V18.7151C33.7415 17.3636 33.5612 16.4773 33.2004 16.0563C32.8397 15.6353 32.0505 15.3473 30.833 15.2143C30.5624 15.2143 30.4272 14.9928 30.4272 14.5496C30.4272 14.1287 30.5624 13.9292 30.833 13.9292C32.5466 13.5083 33.967 13.043 35.0718 12.5112C36.1766 12.0016 36.9207 11.5584 37.2589 11.1818C37.4618 10.9824 37.6647 10.8716 37.8676 10.8716C38.3411 10.8716 38.5891 11.0045 38.5891 11.2704L38.3862 14.461C39.7616 13.1981 40.9566 12.3339 41.9486 11.8243C42.9407 11.3147 43.9328 11.071 44.9248 11.071C45.714 11.071 46.4129 11.3147 46.9766 11.8243C47.5403 12.3339 47.8334 12.9322 47.8334 13.5969C47.8334 14.2616 47.6305 14.8598 47.2021 15.3251H47.1795Z" fill="black"/>
</svg>
