<svg width="355" height="360" viewBox="0 0 355 360" fill="none" xmlns="http://www.w3.org/2000/svg">
<g filter="url(#filter0_d_517_2882)">
<path d="M12 -0.000244141L350 -0.000244141V264C350 308.183 314.183 344 270 344H12L12 -0.000244141Z" fill="url(#paint0_linear_517_2882)"/>
<path fill-rule="evenodd" clip-rule="evenodd" d="M350.064 64.9997H289.045L291.045 62.9997H350.064V64.9997ZM350.064 54.9997H299.045L301.045 52.9997H350.064V54.9997ZM350.064 44.9997H309.045L311.045 42.9997H350.064V44.9997ZM350.064 34.9997H319.045L321.045 32.9997H350.064V34.9997ZM350.064 24.9997H329.045L331.045 22.9997H350.064V24.9997ZM350.064 14.9997H339.045L341.045 12.9997H350.064V14.9997ZM350.064 4.99971H349.045L350.064 3.98071V4.99971ZM350.064 74.9997H283.064V72.9997H350.064V74.9997ZM350.064 84.9997H283.064V82.9997H350.064V84.9997ZM350.064 94.9997H283.064V92.9997H350.064V94.9997ZM350.064 105H283.064V103H350.064V105ZM350.064 115H283.064V113H350.064V115ZM350.064 125H283.064V123H350.064V125ZM350.064 135H283.064V133H350.064V135ZM350.064 145H283.064V143H350.064V145ZM350.064 155H283.064V153H350.064V155ZM350.064 165H283.064V163H350.064V165ZM350.064 175H283.064V173H350.064V175ZM350.064 185H283.064V183H350.064V185ZM350.064 195H283.064V193H350.064V195ZM350.064 205H283.064V203H350.064V205ZM350.064 215H283.064V213H350.064V215ZM350.064 225H283.064V223H350.064V225ZM350.064 235H283.064V233H350.064V235ZM350.064 245H283.064V243H350.064V245ZM350.064 255H283.064V253H350.064V255ZM350.064 265H283.064V263H350.064V265ZM350.064 275H283.064V273H350.064V275ZM346.492 285H283.064V283H348.459L346.492 285ZM338.621 293H283.064V295H336.653L338.621 293ZM328.783 303H283.064V305H326.815L328.783 303ZM318.944 313H283.064V315H316.977L318.944 313ZM309.106 323H283.064V325H307.138L309.106 323ZM299.268 333H283.064V335H297.3L299.268 333Z" fill="#E6E6E6" fill-opacity="0.3"/>
<path fill-rule="evenodd" clip-rule="evenodd" d="M287 64.0188L287 2.99976L289 2.99976L289 62.0188L287 64.0188ZM297 54.0188L297 2.99976L299 2.99976L299 52.0188L297 54.0188ZM307 44.0188L307 2.99976L309 2.99976L309 42.0188L307 44.0188ZM317 34.0188L317 2.99976L319 2.99976L319 32.0188L317 34.0188ZM327 24.0188L327 2.99976L329 2.99976L329 22.0188L327 24.0188ZM337 14.0188L337 2.99976L339 2.99976L339 12.0188L337 14.0188ZM347 4.01875L347 2.99976L348.019 2.99976L347 4.01875ZM277 69.9998L277 2.99976L279 2.99976L279 69.9998L277 69.9998ZM267 69.9998L267 2.99976L269 2.99976L269 69.9998L267 69.9998ZM257 69.9998L257 2.99976L259 2.99976L259 69.9998L257 69.9998ZM247 69.9998L247 2.99976L249 2.99976L249 69.9998L247 69.9998ZM237 69.9998L237 2.99976L239 2.99976L239 69.9998L237 69.9998ZM227 69.9998L227 2.99976L229 2.99976L229 69.9998L227 69.9998ZM217 69.9998L217 2.99976L219 2.99976L219 69.9998L217 69.9998ZM207 69.9998L207 2.99976L209 2.99976L209 69.9998L207 69.9998ZM197 69.9998L197 2.99976L199 2.99976L199 69.9998L197 69.9998ZM187 69.9998L187 2.99976L189 2.99976L189 69.9998L187 69.9998ZM177 69.9998L177 2.99976L179 2.99976L179 69.9998L177 69.9998ZM167 69.9998L167 2.99976L169 2.99976L169 69.9998L167 69.9998ZM157 69.9998L157 2.99976L159 2.99976L159 69.9998L157 69.9998ZM147 69.9998L147 2.99976L149 2.99976L149 69.9998L147 69.9998ZM137 69.9998L137 2.99977L139 2.99976L139 69.9998L137 69.9998ZM127 69.9998L127 2.99977L129 2.99977L129 69.9998L127 69.9998ZM117 69.9998L117 2.99977L119 2.99977L119 69.9998L117 69.9998ZM107 69.9998L107 2.99977L109 2.99977L109 69.9998L107 69.9998ZM96.9996 69.9998L96.9996 2.99977L98.9996 2.99977L98.9996 69.9998L96.9996 69.9998ZM86.9996 69.9998L86.9996 2.99977L88.9996 2.99977L88.9996 69.9998L86.9996 69.9998ZM76.9996 69.9998L76.9996 2.99977L78.9996 2.99977L78.9996 69.9998L76.9996 69.9998ZM66.9996 69.9998L66.9996 2.99977L68.9996 2.99977L68.9996 69.9998L66.9996 69.9998ZM56.9996 69.9998L56.9996 2.99977L58.9996 2.99977L58.9996 69.9998L56.9996 69.9998ZM46.9996 69.9998L46.9996 2.99977L48.9996 2.99977L48.9996 69.9998L46.9996 69.9998ZM36.9996 69.9998L36.9996 2.99977L38.9996 2.99977L38.9996 69.9998L36.9996 69.9998ZM26.9996 69.9998L26.9996 2.99977L28.9996 2.99977L28.9996 69.9998L26.9996 69.9998ZM16.9996 69.9998L16.9996 2.99977L18.9996 2.99977L18.9996 69.9998L16.9996 69.9998Z" fill="#E6E6E6" fill-opacity="0.3"/>
<path d="M288 343.5C295.5 334 299 318.5 299 295C325 298 330.5 295 348 285C333.5 329 288 343.5 288 343.5Z" fill="#E9E9E9"/>
</g>
<path d="M138.846 231.486C138.435 233.044 138.089 237.39 135.188 238.922C134.852 239.123 134.764 239.239 134.663 239.252C134.51 239.273 134.344 239.192 133.814 239.108C130.455 238.785 130.03 232.573 129.804 229.754C129.132 223.628 129.789 217.374 129.16 211.19C129.153 211.139 129.133 210.986 129.133 210.986C127.784 211.739 123.363 226.946 122.765 230.188C122.432 231.942 121.703 234.217 121.082 235.752C120.413 237.707 119.227 240.043 118.088 240.819C117.634 241.295 117.167 241.669 116.556 241.751C112.587 242.288 111.667 238.164 111.26 234.385C111.05 232.444 110.951 230.178 111.097 228.19C111.146 227.406 111.328 226.449 111.275 225.679L111.262 225.577C111.563 223.205 113.684 208.619 113.643 208.313C114.181 205.391 113.386 204.877 114.196 204.353C114.437 204.217 114.735 204.125 115.04 204.083C115.244 204.056 115.396 204.035 115.556 204.065C115.875 204.126 115.865 204.438 116.443 204.878C116.593 205.221 116.692 205.57 116.754 206.028C116.992 208.172 116.407 211.515 116.079 213.683C115.505 217.491 114.254 229.317 114.613 232.74L114.722 232.777C114.546 233.008 114.689 233.3 114.709 233.452C114.669 233.924 114.627 234.759 114.689 235.217C114.727 235.885 115.378 239.165 116.141 239.062C118.866 237.761 122.026 215.522 127.389 209.201C127.565 208.97 128.202 208.315 128.514 208.324C128.761 208.239 129.046 208.045 129.351 208.004C131.895 207.66 132.102 211.103 132.347 213.298C132.657 216.365 132.575 219.588 132.631 222.689C132.646 225.485 132.956 229.691 133.226 232.452C133.275 233.585 133.825 235.739 134.471 236.688C136.57 235.731 138.108 209.929 140.375 205.996L140.425 205.989L140.372 206.359L140.443 206.505C140.606 206.172 140.673 205.904 140.835 205.571C140.907 205.717 140.927 205.869 140.897 206.029L141.131 205.842L141.304 205.974C141.339 206.228 141.102 206.778 141.187 207.026L141.354 207.107C141.361 207.158 141.381 207.31 141.351 207.47L141.429 207.667C141.454 208.233 141.262 208.726 141.185 209.306L141.361 209.075L141.388 209.278C141.422 209.533 141.256 211.369 141.124 211.542C140.786 217.856 139.873 225.285 138.846 231.486ZM146.452 233.1C146.204 234.325 146.216 235.567 145.641 236.681C145.516 236.905 145.266 237.353 144.916 237.452L144.808 237.415L144.611 237.493C144.611 237.493 144.54 237.348 144.336 237.375C142.767 236.499 142.645 236.36 142.397 234.529C141.868 230.611 143.295 224.304 144.058 220.367L144.414 218.402C144.553 218.28 144.648 218.215 144.801 218.195C144.852 218.188 144.96 218.225 145.062 218.211C145.941 218.196 146.62 218.622 146.675 219.029C146.902 220.708 145.774 225.783 145.504 227.995C146.608 225.048 149.038 219.643 152.294 219.203C152.446 219.182 152.657 219.205 152.918 219.222L153.223 219.181L153.556 219.343C153.679 219.482 153.944 219.912 153.907 220.021C154.043 220.261 153.874 220.543 154.047 220.675L154.075 220.879C154.082 220.93 154.039 221.764 154.039 221.764L154.053 221.866C153.866 221.632 153.226 220.734 153.124 220.748C152.819 220.789 152.25 221.177 151.928 221.48C148.639 224.359 147.246 229.003 146.452 233.1ZM156.637 218.149L156.631 218.098L156.298 217.936L156.145 217.957C156.043 217.97 155.85 217.686 155.836 217.584C155.828 216.756 156.145 216.04 156.884 215.37C157.182 215.278 157.379 215.2 157.633 215.165C158.091 215.103 158.308 215.178 158.546 215.404L158.615 215.913L158.825 215.937C158.883 215.981 158.89 216.031 158.89 216.031C158.972 216.642 157.644 217.547 157.234 217.965L157.2 217.711L157.031 217.992L156.827 218.02L156.637 218.149ZM164.949 221.378C164.96 221.843 165.066 222.243 165.121 222.65C165.141 222.803 165.111 222.962 165.081 223.122L165.139 223.166C164.99 223.6 164.934 224.333 164.836 224.761C164.843 224.812 164.748 224.876 164.85 224.863C163.153 228.408 161.695 231.04 159.535 233.456C158.82 233.915 158.366 234.391 157.45 234.515C155.818 234.321 154.032 233.371 153.762 230.609C153.484 227.02 155.465 220.587 155.778 219.457L155.91 219.284C155.961 219.277 155.961 219.277 156.012 219.27C156.368 219.222 156.548 219.405 156.853 219.363C157.267 219.359 157.491 219.484 157.722 219.66C157.815 219.959 157.985 220.454 157.976 220.766C157.603 224.909 156.221 230.018 157.06 232.392C157.08 232.544 157.138 232.588 157.342 232.561C158.984 232.442 161.803 226.466 164.722 221.616L164.868 221.544L164.949 221.378ZM157.604 213.874C157.553 213.881 157.502 213.888 157.451 213.894C156.179 214.066 152 214.579 152.521 211.918L152.508 211.817C152.552 211.759 152.596 211.701 152.596 211.701C152.697 211.687 152.674 211.898 152.674 211.898C152.983 212.27 152.963 212.118 153.289 212.229C153.984 212.394 155.118 212.345 156.44 212.166C158.781 211.85 161.64 211.152 163.793 210.602C164.295 210.483 165.14 210.213 166.093 209.981C166.318 208.966 166.53 207.849 166.704 206.841C166.755 206.834 166.806 206.827 166.857 206.821C167.112 206.786 167.525 206.782 167.627 206.768C167.678 206.761 167.729 206.755 167.78 206.748C167.932 206.727 168.041 206.764 168.252 206.788L168.663 207.147C168.806 207.438 168.905 207.787 168.946 208.093C168.994 208.449 169.056 208.907 169.067 209.371C169.372 209.33 169.678 209.289 169.983 209.248C172.832 208.863 175.489 208.97 175.038 211L174.987 211.006C175.004 210.745 173.683 210.561 171.801 210.815C170.885 210.939 169.918 211.07 168.857 211.265C168.429 215.001 167.227 220.293 166.617 222.292C165.858 224.726 165.821 228.669 165.888 230.318C165.943 230.725 165.954 231.19 166.002 231.546C166.043 231.851 166.149 232.251 166.292 232.543L166.408 232.631L166.91 232.511C168.558 230.527 171.555 225.096 173.363 221.225L173.536 221.357L173.679 221.649L173.591 221.764C173.612 221.917 174.014 222.588 174.078 222.683L174.282 222.655C173.998 223.626 173.652 223.362 173.47 224.319L173.227 224.818C173.187 225.29 172.761 225.969 172.633 226.557L172.927 226.051C172.897 226.21 172.714 226.39 172.64 226.608L172.948 226.203C172.918 226.363 172.836 226.529 172.857 226.682L172.969 226.356L172.996 226.559C172.5 227.87 170.405 231.158 169.393 232.486C169.275 232.761 169.187 232.877 168.99 232.955L168.916 233.172C168.136 233.537 167.463 234.302 166.445 234.439C165.376 234.583 164.737 233.685 163.979 233.063C163.686 232.429 163.264 231.605 163.277 230.93C163.321 230.872 163.146 229.963 163.118 229.759C162.893 225.023 164.381 218.398 165.692 212.004C163.044 212.724 160.351 213.503 157.604 213.874ZM185.211 218.899C185.225 219 185.246 219.153 185.158 219.268L185.338 219.451C185.379 219.757 185.173 220.147 185.207 220.402C185.214 220.452 185.323 220.49 185.323 220.49L185.496 220.622C185.535 221.29 185.101 221.918 184.967 222.455C184.148 225.985 179.861 232.211 176.961 232.603C176.808 232.624 176.699 232.587 176.598 232.601C173.279 232.583 171.797 230.814 171.516 227.588C171.245 224.05 173.253 217.821 175.624 215.428L175.705 215.261C175.742 215.153 176.404 215.063 176.607 215.036C176.963 214.988 178.29 215.223 178.616 215.334C179.675 215.502 180.232 215.789 180.39 216.96C181.016 221.59 175.396 222.557 175.046 222.656C174.557 224.017 173.24 231.138 176.089 230.752C178.48 230.429 182.361 224.258 183.503 221.979C183.828 221.313 184.693 219.279 185.211 218.899ZM177.682 216.859C177.31 217.169 176.16 219.396 175.694 220.547C177.769 219.801 178.895 217.783 177.682 216.859ZM202.249 225.196C202.4 226.316 202.575 227.225 203.031 228.303C203.031 228.303 203.411 228.044 203.749 227.48C205.526 224.909 207.903 218.733 209.526 215.405L209.831 215.364L209.859 215.567L210.039 215.75C210.141 215.737 210.192 215.73 210.229 215.621C210.243 215.723 210.243 215.723 210.256 215.825L210.291 216.079C210.348 216.123 210.515 216.204 210.529 216.306C210.535 216.357 210.441 216.421 210.441 216.421L210.475 216.676C210.438 216.784 210.408 216.944 210.465 216.988C210.354 217.314 209.959 218.611 209.915 218.668C209.797 218.943 209.547 219.392 209.588 219.697L209.514 219.914C209.585 220.06 209.257 220.312 209.298 220.617L209.108 220.746L209.085 220.957L209.092 221.008C208.434 223.428 205.3 229.758 203.164 230.046C203.011 230.067 202.902 230.03 202.743 230C202.162 229.923 201.647 229.941 201.286 229.575C197.824 226.572 199.584 216.593 200.154 213.149C198.98 216.727 196.68 228.073 193.067 228.561C192.915 228.582 192.813 228.596 192.653 228.566C191.028 228.423 190.128 226.368 189.811 225.168C189.141 222.512 191.733 212.94 195.244 212.465C196.465 212.3 197.096 212.37 197.806 212.637C197.887 212.471 201.571 200.627 201.964 200.47C202.418 199.994 202.235 200.174 202.825 199.939C203.093 200.006 203.398 199.965 203.66 199.982L203.84 200.165L204.101 200.181L204.298 200.103L204.471 200.235L204.547 200.794C204.718 202.066 203.814 206.489 203.629 207.809C203.056 211.617 201.568 220.159 202.249 225.196ZM193.012 226.237C193.792 225.873 196.453 216.809 197.077 214.912C196.955 214.773 196.418 214.638 196.113 214.679C194.01 215.223 191.757 224.231 193.012 226.237ZM219.117 212.14C217.299 212.49 215.834 213.154 214.298 213.672C214.534 214.262 214.776 214.903 214.909 215.507C215.194 217.23 214.711 220.559 214.314 222.219C213.896 223.726 212.428 226.67 210.654 226.962C208.823 227.209 207.675 226.38 207.223 224.576C206.394 219.973 210.082 212.377 210.348 210.89L210.429 210.724L211.171 210.468C211.324 210.448 211.426 210.434 211.578 210.413C212.342 210.31 212.769 210.408 213.279 211.116C213.179 211.907 212.948 211.731 212.711 212.281C212.871 212.311 212.929 212.355 212.987 212.399C214.197 211.769 215.872 211.128 217.181 210.848C217.486 210.806 218.141 210.666 218.751 210.584C219.616 210.467 220.495 210.452 220.76 210.882L220.306 211.358L220.364 211.402L220.218 211.473L220.297 211.67C220.246 211.677 220.253 211.728 220.26 211.779C220.26 211.779 220.389 211.968 220.44 211.962L220.345 212.026C219.931 212.03 219.524 212.085 219.117 212.14ZM209.864 224.944C209.935 225.09 209.956 225.243 209.983 225.446C210.136 225.426 210.268 225.252 210.298 225.093C211.825 222.97 212.731 217.407 212.248 214.986C212.214 214.731 212.04 214.599 211.955 214.352C211.07 216.233 210.572 218.683 210.403 218.965C209.965 221.097 209.631 223.991 209.864 224.944ZM226.935 208.493C227.212 208.248 227.823 208.166 228.179 208.118C228.79 208.035 229.085 208.306 229.466 208.825C229.501 209.079 229.803 209.401 229.844 209.706C230.174 212.148 229.443 212.869 229.593 217.045C229.631 219.631 229.747 221.635 229.997 223.104C230.296 223.012 231.937 217.143 232.302 214.089C232.318 213.827 232.131 213.594 232.104 213.39C231.803 211.928 231.932 210.201 233.244 209.558C233.339 209.493 233.44 209.479 233.542 209.465C234.051 209.397 234.432 209.915 234.589 210.308C234.678 210.97 234.818 211.624 234.677 212.11C236.143 212.223 237.472 212.095 239.07 212.034C239.172 212.02 239.223 212.013 239.325 212C239.376 211.993 239.03 212.506 239.081 212.499L238.665 212.866L238.736 213.012L238.22 213.03C238.197 213.24 238.421 213.365 238.574 213.345L238.493 213.511C237.706 213.825 237.357 213.924 236.848 213.992C236.39 214.054 235.773 214.086 234.531 214.098C234.117 216.019 232.918 224.782 230.781 225.071C230.527 225.105 230.221 225.146 229.967 225.181C228.593 225.366 227.518 223.543 227.265 222.437C226.526 219.273 226.856 215.964 227.068 212.931C226.555 214.503 226.042 216.074 225.472 217.602C224.318 221.333 223.43 225.494 222.107 225.673C219.512 226.024 218.617 224.383 218.009 222.186C217.745 220.615 218.005 217.938 218.148 216.312C218.34 213.903 219.298 209.111 219.076 207.846C219.025 207.853 219.025 207.853 219.018 207.802C219.011 207.751 219.055 207.693 219.106 207.686C219.441 207.485 219.791 207.386 220.198 207.331C220.961 207.228 221.594 208.075 221.734 208.73C221.98 209.785 221.774 212.092 221.053 215.194C220.698 217.936 220.584 220.542 220.956 223.29L221.004 223.646L221.075 223.792C221.986 220.56 222.838 217.285 224.03 214.222C224.638 212.586 225.32 210.732 226.108 209.278C226.182 209.061 226.433 208.613 226.935 208.493ZM252.892 210.062C253.052 210.093 253.086 210.347 253.07 210.608C253.338 210.676 253.315 210.886 253.349 211.141C253.214 211.677 253.537 212.151 253.46 212.732C252.414 215.723 250.828 220.859 247.465 222.039C245.531 222.3 244.277 221.071 243.951 219.042C243.506 216.512 244.505 212.025 244.269 210.658C244.235 210.404 244.116 210.679 244.116 210.679C242.107 214.214 240.177 217.946 239.42 221.934C239.343 222.515 239.253 222.993 239.171 223.16C239.019 223.18 238.924 223.245 238.887 223.353C238.778 223.316 238.727 223.323 238.727 223.323C238.676 223.33 238.683 223.381 238.531 223.402C238.313 223.327 238.408 223.263 238.249 223.232L238.212 223.341C237.937 223.223 237.763 223.091 237.56 223.118C237.336 222.993 237.308 222.79 237.091 222.715L236.982 222.678C236.839 222.387 236.717 222.248 236.669 221.892C236.048 218.452 238.297 210.17 237.89 208.308C237.883 208.257 237.855 208.054 237.848 208.003L237.858 207.691C238.17 207.7 238.73 207.625 239.266 207.759C240.854 208.011 240.443 211.486 240.245 212.704L240.222 212.915C240.604 212.293 242.813 208.316 244.129 208.086C245.058 208.064 246.202 208.48 246.539 209.056C246.604 209.151 246.638 209.405 246.717 209.602C247.616 211.656 245.886 217.641 247.136 220.373L247.187 220.366C248.367 219.896 250.344 215.743 251.757 212.392C251.942 211.849 252.716 210.293 252.892 210.062ZM109.489 250.169C112.762 251.384 111.448 261.976 111.391 264.625C112.765 264.44 114.767 264.687 115.808 266.256L115.707 266.27L115.517 266.399L115.565 266.755C115.5 266.661 115.436 266.566 115.371 266.471C115.412 266.776 115.535 266.915 115.555 267.068L115.576 267.22L115.403 267.088C114.608 266.574 113.44 266.369 112.874 266.394L112.881 266.445L113.156 266.563C112.633 266.53 112.168 266.541 111.761 266.596C111.558 266.623 111.361 266.702 111.158 266.729C111.152 267.455 110.566 271.938 110.55 272.2C110.3 274.565 109.982 279.115 110.291 281.405L110.725 284.61C110.752 284.814 111.059 285.55 110.964 285.614C111.202 285.841 111.236 286.096 111.308 286.241C111.206 286.255 111.074 286.428 110.972 286.442C110.921 286.449 110.82 286.463 110.769 286.47C110.565 286.497 110.362 286.525 110.124 286.298C110.052 286.152 109.542 285.444 109.542 285.444L109.614 285.59L109.424 285.719C108.379 285.653 107.521 281.987 107.376 280.918C106.822 276.434 107.218 272.08 107.801 267.96C106.651 268.271 102.725 269.89 101.357 271.266C100.832 273.513 98.7142 284.679 97.5522 285.665C97.2675 285.859 97.0035 286.206 96.7491 286.24C96.6982 286.247 96.3861 286.237 96.3861 286.237L96.2128 286.105C96.0602 286.126 95.9281 286.299 95.7246 286.327C94.8088 286.451 93.6 284.023 93.4968 283.26C92.9013 278.471 95.5732 273.706 98.1488 270.145C99.3657 265.733 104.346 250.449 107.399 250.037C107.959 249.961 108.953 250.034 109.489 250.169ZM108.512 251.751C106.13 253.679 103.142 263.772 102.097 267.539L102.148 267.533C103.568 266.926 105.609 265.925 108.105 265.225C108.256 264.427 109.495 253.276 108.604 252.05C108.597 251.999 108.525 251.853 108.512 251.751ZM115.096 266.353C115.045 266.359 115.256 266.383 115.364 266.42C115.306 266.376 115.249 266.332 115.191 266.288L115.147 266.346L115.14 266.295L115.096 266.353ZM135.265 247.928C138.091 247.754 141.402 247.721 143.527 250.024C143.938 250.383 144.261 250.857 144.343 251.468C144.486 253.676 143.146 253.34 142.618 254.033L142.217 254.139C142.359 253.653 142.927 252.488 142.923 252.074C142.712 250.134 137.061 250.483 135.833 250.598C132.729 251.017 129.904 251.969 127.07 253.233L126.938 253.406C127.176 255.55 125.257 263.581 125.38 264.496C127.157 263.842 128.642 263.33 130.677 263.055C131.084 263 131.542 262.938 132.058 262.92C133.33 262.748 135.071 262.979 135.589 264.515L135.376 264.855C135.115 264.839 134.979 264.598 134.724 264.632L134.521 264.66C131.926 265.011 127.094 266.441 125.081 267.645C124.555 267.975 123.897 277.287 123.96 278.521C124.022 278.979 124.191 280.614 124.45 280.994C124.26 281.123 123.721 281.352 123.857 281.592C123.762 281.657 123.769 281.708 123.776 281.759C123.803 281.962 124.014 281.985 124.041 282.189C121.842 282.02 121.141 278.747 120.979 277.163C120.829 274.904 121.395 271.045 121.513 268.853C121.419 268.917 121.317 268.931 121.215 268.945C121.113 268.959 121.012 268.973 120.91 268.986C120.191 269.032 119.729 268.68 119.632 267.967C119.642 267.655 119.298 267.028 119.532 266.841C120.284 266.273 121.281 265.983 122.017 265.676L122.098 265.51C122.759 261.587 123.676 258.406 124.019 254.422L123.917 254.436C122.466 255.202 120.178 256.288 118.601 256.501C118.282 256.441 117.199 256.483 117.131 255.975C117.085 255.255 116.48 254.612 117.022 254.021C117.008 253.919 117.95 253.222 118.059 253.259C118.364 253.218 117.822 253.809 118.128 253.768C118.44 253.777 125.406 250.504 126.637 250.027C129.519 249.119 132.263 248.334 135.265 247.928ZM147.981 266.312C147.995 266.414 148.015 266.566 147.927 266.682L148.107 266.865C148.149 267.17 147.942 267.561 147.977 267.815C147.984 267.866 148.092 267.903 148.092 267.903L148.265 268.035C148.304 268.703 147.871 269.332 147.736 269.868C146.918 273.398 142.63 279.625 139.73 280.017C139.577 280.037 139.469 280 139.367 280.014C136.049 279.996 134.566 278.228 134.286 275.002C134.015 271.464 136.022 265.234 138.393 262.841L138.474 262.675C138.511 262.566 139.173 262.477 139.376 262.449C139.733 262.401 141.06 262.636 141.386 262.748C142.444 262.916 143.001 263.203 143.159 264.373C143.785 269.003 138.165 269.97 137.816 270.069C137.326 271.43 136.009 278.551 138.858 278.166C141.25 277.843 145.13 271.671 146.273 269.392C146.597 268.727 147.462 266.693 147.981 266.312ZM140.452 264.273C140.079 264.582 138.93 266.81 138.463 267.961C140.538 267.214 141.665 265.197 140.452 264.273ZM155.767 260.493C156.045 260.248 156.656 260.166 157.012 260.118C157.622 260.035 157.918 260.306 158.299 260.825C158.333 261.079 158.636 261.401 158.677 261.706C159.007 264.148 158.276 264.869 158.425 269.045C158.464 271.631 158.58 273.635 158.83 275.104C159.128 275.012 160.77 269.143 161.134 266.089C161.151 265.827 160.964 265.594 160.936 265.39C160.635 263.928 160.765 262.201 162.076 261.558C162.171 261.493 162.273 261.479 162.375 261.465C162.884 261.397 163.265 261.915 163.421 262.308C163.511 262.97 163.651 263.624 163.509 264.11C164.975 264.223 166.305 264.095 167.903 264.034C168.005 264.02 168.056 264.013 168.157 264C168.208 263.993 167.863 264.506 167.914 264.499L167.497 264.866L167.569 265.012L167.053 265.03C167.03 265.24 167.254 265.365 167.407 265.345L167.325 265.511C166.539 265.825 166.19 265.924 165.681 265.992C165.223 266.054 164.605 266.086 163.364 266.098C162.95 268.019 161.751 276.782 159.614 277.071C159.359 277.105 159.054 277.146 158.8 277.181C157.426 277.366 156.35 275.543 156.097 274.437C155.359 271.273 155.689 267.964 155.901 264.931C155.388 266.503 154.875 268.074 154.304 269.602C153.15 273.333 152.262 277.494 150.939 277.673C148.344 278.024 147.449 276.383 146.841 274.186C146.577 272.615 146.837 269.938 146.98 268.312C147.173 265.903 148.131 261.111 147.908 259.846C147.857 259.853 147.857 259.853 147.851 259.802C147.844 259.751 147.888 259.693 147.939 259.686C148.274 259.485 148.623 259.386 149.03 259.331C149.794 259.228 150.426 260.075 150.566 260.73C150.813 261.785 150.606 264.092 149.886 267.194C149.531 269.936 149.417 272.542 149.788 275.29L149.836 275.646L149.908 275.792C150.818 272.56 151.671 269.285 152.863 266.222C153.471 264.586 154.153 262.732 154.941 261.278C155.015 261.061 155.265 260.613 155.767 260.493ZM175.374 271.055C175.504 272.022 175.724 273.65 177.17 273.61C177.271 273.596 177.373 273.582 177.475 273.569C179.866 273.245 185.262 270.237 189.286 268.19C189.242 268.248 189.212 268.408 189.32 268.445C189.029 268.588 188.124 269.176 188.202 269.373C188.114 269.488 188.077 269.597 188.105 269.801L188.169 269.895C188.125 269.953 187.929 270.032 187.892 270.14C187.651 270.276 186.919 270.997 186.845 271.214C186.255 271.449 185.133 271.964 184.628 272.446L184.547 272.613C184.219 272.864 184.05 273.146 183.714 273.347C181.203 275.085 180.861 275.235 177.859 275.641C174.45 276.102 172.721 273.279 172.309 270.226C171.511 264.324 175.922 247.511 178.78 242.203L179.287 241.357L180.344 240.748C180.802 240.686 181.179 240.791 181.255 241.35L181.432 241.896C181.589 242.29 181.066 244.173 181.003 244.856C180.72 245.826 180.439 246.434 180.191 247.659C180.166 247.093 180.554 245.745 180.353 245.41C178.754 250.444 174.61 265.407 175.374 271.055ZM192.299 255.711L192.292 255.661L191.959 255.498L191.807 255.519C191.705 255.533 191.511 255.248 191.497 255.146C191.489 254.318 191.807 253.602 192.545 252.932C192.843 252.84 193.04 252.762 193.294 252.727C193.752 252.666 193.97 252.74 194.208 252.967L194.276 253.475L194.487 253.499C194.544 253.543 194.551 253.594 194.551 253.594C194.634 254.204 193.305 255.109 192.896 255.527L192.861 255.273L192.692 255.555L192.489 255.582L192.299 255.711ZM200.61 258.94C200.621 259.405 200.727 259.805 200.782 260.212C200.803 260.365 200.773 260.524 200.742 260.684L200.8 260.728C200.652 261.162 200.595 261.895 200.498 262.323C200.504 262.374 200.41 262.439 200.511 262.425C198.814 265.97 197.357 268.602 195.196 271.018C194.481 271.477 194.028 271.953 193.112 272.077C191.479 271.883 189.693 270.933 189.424 268.172C189.146 264.583 191.126 258.15 191.439 257.019L191.571 256.846C191.622 256.839 191.622 256.839 191.673 256.832C192.029 256.784 192.209 256.967 192.515 256.926C192.929 256.922 193.153 257.047 193.384 257.223C193.476 257.521 193.647 258.016 193.637 258.328C193.264 262.472 191.882 267.58 192.721 269.954C192.742 270.106 192.8 270.151 193.003 270.123C194.645 270.005 197.464 264.028 200.383 259.178L200.529 259.107L200.61 258.94ZM203.175 258.438C203.399 258.563 203.528 258.753 203.701 258.885C206.225 258.389 210.1 256.777 211.775 256.136C212.473 255.938 213.11 255.282 213.991 254.904L214.121 255.094L213.887 255.281L214.141 255.246L214.233 255.545L213.664 255.933L213.919 255.898L213.99 256.044L213.638 256.506C213.411 256.744 213.004 256.799 212.777 257.037C211.365 258.471 207.642 260.062 204.936 260.739L205.079 261.03C206.263 262.891 207.222 265.766 208.026 267.885C208.998 270.863 209.617 277.359 208.497 280.567L208.453 280.625L208.483 280.465C208.295 281.371 207.622 282.913 207.057 283.715C206.892 284.411 205.723 285.346 204.987 285.652L204.964 285.863C204.862 285.876 204.811 285.883 204.666 285.955C200.85 286.471 199.472 282.408 198.805 279.39C197.632 274.16 197.999 266.909 199.046 260.861C199.056 260.549 199.338 258.801 199.375 258.693C199.317 258.649 198.723 258.47 198.703 258.317L198.696 258.266C198.936 258.13 199.198 258.147 199.374 257.916C199.557 257.736 199.65 256.894 199.768 256.619C200.728 250.687 202.604 242.713 205.166 237.134C205.439 236.476 206.092 235.559 206.213 234.92C206.345 234.747 207.03 234.447 207.386 234.399L207.641 234.365C207.983 234.215 209.294 234.711 209.515 235.2C209.543 235.403 209.577 235.657 209.669 235.956C210.497 239.782 207.523 249.976 205.234 252.979C205.089 253.05 204.936 253.071 204.834 253.085C205.078 252.586 205.215 251.686 205.394 251.092C205.892 248.642 208.319 239.765 207.755 237.51C206.889 238.767 202.418 256.675 202.743 257.927C202.777 258.181 203.045 258.248 203.175 258.438ZM206.053 270.535C205.294 267.219 204.179 263.95 202.487 261.018C202.372 260.93 202.263 260.893 202.154 260.856C201.663 263.357 201.003 269.974 201.35 275.989C201.364 276.091 201.435 276.237 201.442 276.288C201.617 277.197 201.5 278.249 201.783 279.195C202.022 280.199 202.874 283.814 204.553 283.587C204.604 283.58 204.655 283.573 204.705 283.566C205.411 283.419 205.711 282.187 205.889 281.593C206.895 278.297 206.812 273.852 206.053 270.535ZM223.904 256.051C223.917 256.153 223.938 256.306 223.85 256.421L224.03 256.604C224.071 256.909 223.865 257.3 223.9 257.554C223.906 257.605 224.015 257.642 224.015 257.642L224.188 257.774C224.227 258.443 223.794 259.071 223.659 259.607C222.841 263.137 218.553 269.364 215.653 269.756C215.5 269.777 215.392 269.74 215.29 269.753C211.972 269.735 210.489 267.967 210.209 264.741C209.938 261.203 211.945 254.973 214.316 252.58L214.397 252.414C214.434 252.305 215.096 252.216 215.299 252.189C215.656 252.14 216.983 252.376 217.308 252.487C218.367 252.655 218.924 252.942 219.082 254.112C219.708 258.742 214.088 259.709 213.739 259.808C213.249 261.17 211.932 268.29 214.781 267.905C217.172 267.582 221.053 261.41 222.196 259.132C222.52 258.466 223.385 256.432 223.904 256.051ZM216.375 254.012C216.002 254.321 214.852 256.549 214.386 257.7C216.461 256.953 217.588 254.936 216.375 254.012ZM242.713 266.254C242.686 266.828 242.772 267.075 242.579 267.568L242.464 267.48C242.484 267.632 242.512 267.836 242.526 267.938C242.461 267.843 242.345 267.755 242.274 267.609L242.23 267.667C242.301 267.812 242.271 267.972 242.248 268.182C242.234 268.081 242.271 267.972 242.206 267.877C242.19 268.138 242.058 268.312 242.143 268.559L241.879 268.906C241.907 269.109 242.029 269.248 242.057 269.452L241.853 269.479C239.788 267.997 240.089 263.708 240.305 261.088C240.751 254.81 242.192 248.606 242.626 242.226C242.771 240.238 242.927 237.937 242.368 236.873C242.361 236.822 242.311 236.829 242.311 236.829C241.795 236.847 240.722 238.494 240.421 238.95C236.578 245.013 232.939 255.659 232.037 263.552C231.876 264.662 231.933 265.846 231.751 266.803L231.555 266.882C231.446 266.844 231.236 266.821 231.025 266.798C230.873 266.818 230.9 267.022 230.921 267.175L230.768 267.195C230.666 267.209 230.564 267.223 230.405 267.192L230.283 267.054L230.137 267.125C230.137 267.125 230.056 267.291 230.005 267.298C229.343 267.388 229.59 266.525 228.667 266.598C228.463 266.626 228.276 266.392 228.293 266.131C228.316 265.92 228.536 265.632 228.604 265.363C229.037 258.984 229.379 255 229.717 248.686C229.842 246.545 229.981 238.754 228.471 236.782C228.277 236.498 227.982 236.227 227.625 236.275C227.422 236.303 227.232 236.432 227.079 236.452C227.029 236.459 226.92 236.422 226.862 236.378L226.777 236.131C226.942 235.435 227.581 234.416 228.402 234.357C233.277 234.009 233.09 245.277 232.646 249.274C233.37 245.809 237.951 235.242 241.767 234.726C241.927 234.757 242.13 234.729 242.334 234.702C245.516 234.479 245.834 239.513 245.632 242.235C245.045 249.775 243.382 257.408 242.904 264.985C242.938 265.24 242.884 265.609 242.824 265.928L242.644 265.746L242.664 265.898C242.729 265.993 242.685 266.051 242.713 266.254ZM252.199 249.326C252.698 249.569 252.959 249.586 253.218 249.965C253.887 250.704 254.171 251.65 254.396 252.552C254.681 254.275 254.198 257.604 253.801 259.264C253.39 260.822 251.916 263.715 250.142 264.007C248.31 264.254 247.162 263.425 246.711 261.621C245.881 257.018 249.57 249.422 249.835 247.936L250.055 247.647L250.659 247.513C250.811 247.493 250.913 247.479 251.066 247.458C251.829 247.355 252.257 247.453 252.767 248.161C252.666 248.952 252.435 248.776 252.199 249.326ZM249.471 262.492C249.623 262.471 249.755 262.298 249.786 262.138C251.312 260.015 252.218 254.452 251.735 252.031C251.701 251.776 251.528 251.644 251.392 251.404C250.557 253.278 250.059 255.729 249.897 256.061C249.46 258.193 249.119 261.037 249.351 261.99C249.423 262.135 249.443 262.288 249.471 262.492ZM251.35 243.586C251.299 243.593 251.248 243.6 251.198 243.607C249.926 243.779 245.747 244.292 246.268 241.631L246.254 241.529C246.298 241.471 246.342 241.413 246.342 241.413C246.444 241.4 246.42 241.61 246.42 241.61C246.73 241.983 246.709 241.83 247.035 241.941C247.731 242.106 248.864 242.057 250.187 241.878C252.527 241.562 255.386 240.865 257.54 240.314C258.042 240.195 258.886 239.925 259.839 239.693C260.064 238.678 260.276 237.561 260.451 236.553C260.502 236.547 260.553 236.54 260.603 236.533C260.858 236.498 261.272 236.494 261.374 236.481C261.424 236.474 261.475 236.467 261.526 236.46C261.679 236.439 261.787 236.476 261.998 236.5L262.409 236.859C262.552 237.15 262.651 237.499 262.692 237.805C262.74 238.161 262.802 238.619 262.813 239.084C263.119 239.042 263.424 239.001 263.729 238.96C266.579 238.575 269.235 238.682 268.784 240.712L268.733 240.719C268.75 240.457 267.43 240.273 265.547 240.528C264.631 240.651 263.665 240.782 262.603 240.977C262.175 244.714 260.974 250.005 260.363 252.005C259.604 254.439 259.567 258.381 259.634 260.03C259.689 260.437 259.7 260.902 259.748 261.258C259.79 261.563 259.896 261.963 260.039 262.255L260.154 262.343L260.656 262.223C262.305 260.239 265.301 254.808 267.109 250.937L267.283 251.069L267.426 251.361L267.338 251.476C267.358 251.629 267.76 252.3 267.825 252.395L268.028 252.367C267.745 253.338 267.398 253.074 267.217 254.031L266.973 254.531C266.934 255.002 266.507 255.682 266.379 256.269L266.674 255.763C266.643 255.922 266.46 256.102 266.386 256.32L266.694 255.915C266.664 256.075 266.583 256.241 266.603 256.394L266.715 256.068L266.742 256.272C266.246 257.582 264.152 260.87 263.14 262.198C263.021 262.473 262.933 262.589 262.737 262.667L262.662 262.885C261.883 263.249 261.209 264.014 260.191 264.151C259.123 264.296 258.483 263.398 257.726 262.775C257.433 262.141 257.011 261.317 257.023 260.642C257.067 260.584 256.892 259.675 256.865 259.472C256.639 254.736 258.127 248.11 259.439 241.716C256.79 242.436 254.098 243.215 251.35 243.586ZM278.958 248.611C278.972 248.713 278.992 248.865 278.904 248.981L279.084 249.164C279.126 249.469 278.919 249.859 278.954 250.114C278.961 250.165 279.069 250.202 279.069 250.202L279.242 250.334C279.281 251.002 278.848 251.631 278.713 252.167C277.895 255.697 273.607 261.924 270.707 262.316C270.554 262.336 270.446 262.299 270.344 262.313C267.026 262.295 265.543 260.527 265.263 257.3C264.992 253.762 266.999 247.533 269.37 245.14L269.451 244.974C269.488 244.865 270.15 244.776 270.353 244.748C270.71 244.7 272.037 244.935 272.363 245.046C273.421 245.214 273.978 245.502 274.136 246.672C274.762 251.302 269.142 252.269 268.793 252.368C268.303 253.729 266.986 260.85 269.835 260.465C272.227 260.141 276.107 253.97 277.25 251.691C277.574 251.026 278.439 248.992 278.958 248.611ZM271.429 246.572C271.056 246.881 269.907 249.109 269.44 250.26C271.515 249.513 272.642 247.496 271.429 246.572ZM277.908 259.063C277.784 258.147 279.275 256.909 279.471 256.831L279.682 256.854L279.431 257.303L279.438 257.353L280.017 256.653C280.089 256.799 280.038 256.806 280.197 256.836L280.316 256.561L280.489 256.693C280.343 256.765 280.283 257.084 280.245 257.193L280.509 256.846L280.639 257.036L279.841 258.801L279.92 258.998C280.886 258.867 282.536 257.66 282.392 256.592C282.172 254.963 278.282 251.862 277.848 248.657C277.45 245.706 280.28 242.111 283.231 241.712C283.841 241.63 286.592 242.813 286.674 243.423L286.688 243.525C286.458 244.126 286.069 246.613 285.357 246.71C284.899 246.772 284.82 246.575 284.501 246.514C284.416 246.267 284.466 245.483 284.526 245.164C284.525 244.387 284.738 244.047 284.035 243.832C282.509 244.038 280.39 246.759 280.596 248.286C280.926 250.728 284.581 253.239 284.98 256.19C285.296 258.53 282.732 260.639 280.595 260.927C279.73 261.044 278.032 259.979 277.908 259.063Z" fill="#393939"/>
<path d="M238.953 149.907C239.204 155.424 234.934 160.099 229.417 160.349L84.5652 166.914C80.7032 167.089 77.4305 164.1 77.2554 160.238L73.5428 78.3224C73.2428 71.7018 78.3666 66.0915 84.9872 65.7914L228.84 59.2717C232.15 59.1217 234.955 61.6836 235.105 64.9939L238.953 149.907Z" fill="#FAFAFA"/>
<path d="M237.955 149.952C238.18 154.917 234.337 159.125 229.371 159.35L84.5199 165.915C81.2096 166.065 78.4044 163.503 78.2544 160.193L74.5418 78.2771C74.2668 72.2082 78.9636 67.0654 85.0325 66.7904L228.885 60.2707C231.643 60.1457 233.981 62.2806 234.106 65.0392L237.955 149.952Z" stroke="black" stroke-opacity="0.6" stroke-width="2"/>
<path d="M41.4108 90.7595C40.0793 85.3995 43.3451 79.9751 48.7051 78.6437L189.428 43.6875C193.18 42.7555 196.978 45.0416 197.91 48.7935L217.678 128.375C219.276 134.807 215.357 141.316 208.925 142.914L69.1718 177.629C65.9558 178.428 62.7012 176.468 61.9023 173.253L41.4108 90.7595Z" fill="#FAFAFA"/>
<path d="M42.3813 90.5184C41.183 85.6945 44.1222 80.8125 48.9461 79.6142L189.67 44.658C192.885 43.8592 196.14 45.8186 196.939 49.0346L216.707 128.616C218.172 134.512 214.58 140.479 208.684 141.944L68.9307 176.659C66.2507 177.324 63.5385 175.691 62.8728 173.011L42.3813 90.5184Z" stroke="black" stroke-opacity="0.6" stroke-width="2"/>
<path d="M82.8775 114.458L82.5747 115.242L82.5747 115.242L82.8775 114.458ZM81.1135 110.674L80.2739 110.699L80.2743 110.708L81.1135 110.674ZM81.0971 110.12L80.2573 110.136L80.2576 110.145L81.0971 110.12ZM81.9278 105.139L81.1266 104.887L81.1246 104.894L81.9278 105.139ZM84.1133 98.1947L84.1781 97.3574L83.5126 97.3059L83.3122 97.9426L84.1133 98.1947ZM87.8716 98.4856L88.7073 98.5695L88.793 97.7146L87.9364 97.6483L87.8716 98.4856ZM87.1751 105.43L86.3394 105.346L86.2366 106.37L87.2609 106.265L87.1751 105.43ZM72.6162 117.349L72.3133 118.132L72.3133 118.132L72.6162 117.349ZM70.8521 113.564L71.6916 113.539L70.8521 113.564ZM70.8357 113.01L69.996 113.027L69.9962 113.035L70.8357 113.01ZM71.6664 108.03L70.8653 107.778L70.8633 107.784L71.6664 108.03ZM73.852 101.085L73.9134 100.248L73.2504 100.199L73.0508 100.833L73.852 101.085ZM77.6534 101.364L78.4885 101.453L78.5803 100.59L77.7148 100.526L77.6534 101.364ZM76.9137 108.32L76.0786 108.231L75.9675 109.276L77.0108 109.154L76.9137 108.32ZM78.6171 108.585L78.1418 109.277L78.1581 109.289L78.175 109.299L78.6171 108.585ZM88.9693 107.297C89.4716 109.081 89.3831 110.387 88.8892 111.327C88.4008 112.257 87.4241 113.003 85.7638 113.471L86.2192 115.087C88.1519 114.543 89.6026 113.581 90.3763 112.108C91.1445 110.645 91.1526 108.853 90.5862 106.842L88.9693 107.297ZM85.7638 113.471C84.4217 113.849 83.6103 113.841 83.1804 113.675L82.5747 115.242C83.5374 115.614 84.802 115.487 86.2192 115.087L85.7638 113.471ZM83.1804 113.675C82.7627 113.513 82.4663 113.205 82.3014 112.619L80.6846 113.075C80.9731 114.099 81.5997 114.865 82.5747 115.242L83.1804 113.675ZM82.3014 112.619C82.0875 111.86 81.9756 111.202 81.9526 110.639L80.2743 110.708C80.3039 111.434 80.4451 112.225 80.6846 113.075L82.3014 112.619ZM81.953 110.649L81.9366 110.095L80.2576 110.145L80.274 110.699L81.953 110.649ZM81.9368 110.104C81.9115 108.801 82.166 107.232 82.731 105.385L81.1246 104.894C80.5269 106.848 80.2276 108.601 80.2574 110.136L81.9368 110.104ZM82.7289 105.391L84.9144 98.4469L83.3122 97.9426L81.1267 104.887L82.7289 105.391ZM84.0485 99.0321L87.8068 99.323L87.9364 97.6483L84.1781 97.3574L84.0485 99.0321ZM87.0359 98.4018L86.3394 105.346L88.0107 105.513L88.7073 98.5695L87.0359 98.4018ZM87.2609 106.265C87.8342 106.206 88.1919 106.301 88.4182 106.443C88.635 106.58 88.8368 106.827 88.9693 107.297L90.5862 106.842C90.3705 106.076 89.9645 105.432 89.3137 105.022C88.6724 104.618 87.9029 104.51 87.0892 104.594L87.2609 106.265ZM78.6958 110.145C79.203 111.945 79.1201 113.263 78.6326 114.21C78.1519 115.142 77.1879 115.886 75.5456 116.349L76.001 117.966C77.9228 117.424 79.3627 116.46 80.1257 114.979C80.8818 113.512 80.8824 111.712 80.3127 109.689L78.6958 110.145ZM75.5456 116.349C74.1702 116.736 73.3467 116.731 72.919 116.565L72.3133 118.132C73.2783 118.505 74.5595 118.372 76.001 117.966L75.5456 116.349ZM72.919 116.565C72.5014 116.404 72.2049 116.095 72.04 115.51L70.4232 115.965C70.7117 116.99 71.3383 117.755 72.3133 118.132L72.919 116.565ZM72.04 115.51C71.817 114.718 71.7072 114.065 71.6916 113.539L70.0126 113.589C70.0335 114.295 70.1767 115.09 70.4232 115.965L72.04 115.51ZM71.6916 113.539L71.6752 112.986L69.9962 113.035L70.0126 113.589L71.6916 113.539ZM71.6754 112.994C71.6501 111.691 71.9046 110.123 72.4696 108.275L70.8633 107.784C70.2656 109.739 69.9662 111.491 69.996 113.027L71.6754 112.994ZM72.4676 108.282L74.6531 101.337L73.0508 100.833L70.8653 107.778L72.4676 108.282ZM73.7905 101.923L77.5919 102.202L77.7148 100.526L73.9134 100.248L73.7905 101.923ZM76.8182 101.275L76.0786 108.231L77.7489 108.409L78.4885 101.453L76.8182 101.275ZM77.0108 109.154C77.6777 109.077 78.0015 109.181 78.1418 109.277L79.0923 107.892C78.4634 107.461 77.6517 107.389 76.8166 107.486L77.0108 109.154ZM78.175 109.299C78.3548 109.41 78.5544 109.643 78.6958 110.145L80.3127 109.689C80.0979 108.927 79.706 108.271 79.0591 107.871L78.175 109.299Z" fill="url(#paint1_linear_517_2882)" fill-opacity="0.66"/>
<path d="M172.367 76.5527L172.68 75.7732L172.68 75.7732L172.367 76.5527ZM174.083 80.3593L174.922 80.3452L174.922 80.3357L174.083 80.3593ZM174.092 80.9133L174.932 80.9077L174.932 80.8991L174.092 80.9133ZM173.198 85.8829L173.996 86.1453L173.998 86.1388L173.198 85.8829ZM170.924 92.799L170.848 93.6355L171.513 93.6955L171.721 93.0613L170.924 92.799ZM167.169 92.4601L166.335 92.3656L166.238 93.2194L167.094 93.2966L167.169 92.4601ZM167.955 85.5257L168.789 85.6201L168.905 84.597L167.879 84.6892L167.955 85.5257ZM182.664 73.7935L182.977 73.014L182.977 73.014L182.664 73.7935ZM184.38 77.6001L183.54 77.6142L184.38 77.6001ZM184.389 78.1541L185.229 78.1485L185.229 78.1399L184.389 78.1541ZM183.495 83.1237L184.293 83.3861L184.295 83.3796L183.495 83.1237ZM181.221 90.0398L181.149 90.8766L181.811 90.9336L182.019 90.3021L181.221 90.0398ZM177.424 89.7125L176.59 89.6131L176.487 90.4748L177.351 90.5493L177.424 89.7125ZM178.252 82.7665L179.086 82.8659L179.21 81.8229L178.166 81.9311L178.252 82.7665ZM176.552 82.48L177.036 81.7936L177.02 81.7822L177.003 81.7715L176.552 82.48ZM166.184 83.635C165.705 81.8456 165.81 80.5406 166.316 79.6066C166.816 78.683 167.802 77.9497 169.468 77.5033L169.034 75.8808C167.094 76.4004 165.631 77.3435 164.839 78.8067C164.052 80.2595 164.021 82.0516 164.562 84.0697L166.184 83.635ZM169.468 77.5033C170.815 77.1424 171.626 77.1604 172.054 77.3321L172.68 75.7732C171.722 75.3888 170.456 75.4997 169.034 75.8808L169.468 77.5033ZM172.054 77.3321C172.47 77.4989 172.762 77.8112 172.92 78.3986L174.542 77.9639C174.267 76.9361 173.65 76.1626 172.68 75.7732L172.054 77.3321ZM172.92 78.3986C173.124 79.1606 173.227 79.82 173.243 80.3829L174.922 80.3357C174.902 79.6099 174.771 78.8172 174.542 77.9639L172.92 78.3986ZM173.243 80.3734L173.252 80.9274L174.932 80.8991L174.922 80.3452L173.243 80.3734ZM173.252 80.9188C173.261 82.2221 172.986 83.787 172.398 85.6271L173.998 86.1388C174.62 84.1919 174.942 82.4436 174.932 80.9077L173.252 80.9188ZM172.4 85.6206L170.126 92.5367L171.721 93.0613L173.996 86.1453L172.4 85.6206ZM170.999 91.9625L167.245 91.6237L167.094 93.2966L170.848 93.6355L170.999 91.9625ZM168.004 92.5546L168.789 85.6201L167.12 85.4312L166.335 92.3656L168.004 92.5546ZM167.879 84.6892C167.305 84.7407 166.949 84.6416 166.724 84.4961C166.509 84.3568 166.311 84.107 166.184 83.635L164.562 84.0697C164.768 84.838 165.165 85.4873 165.811 85.9057C166.447 86.318 167.215 86.4354 168.03 86.3622L167.879 84.6892ZM176.493 80.9191C176.009 79.1124 176.109 77.7953 176.608 76.8554C177.101 75.9289 178.074 75.1973 179.723 74.7557L179.288 73.1332C177.359 73.6499 175.907 74.5961 175.125 76.067C174.351 77.5244 174.327 79.3242 174.871 81.3538L176.493 80.9191ZM179.723 74.7557C181.103 74.3858 181.926 74.4021 182.352 74.5729L182.977 73.014C182.017 72.6286 180.734 72.7456 179.288 73.1332L179.723 74.7557ZM182.352 74.5729C182.767 74.7397 183.06 75.052 183.217 75.6394L184.84 75.2047C184.564 74.1769 183.947 73.4034 182.977 73.014L182.352 74.5729ZM183.217 75.6394C183.43 76.4342 183.531 77.0888 183.54 77.6142L185.22 77.586C185.208 76.8803 185.075 76.0829 184.84 75.2047L183.217 75.6394ZM183.54 77.6142L183.55 78.1682L185.229 78.1399L185.22 77.586L183.54 77.6142ZM183.55 78.1596C183.558 79.4629 183.284 81.0278 182.695 82.8679L184.295 83.3796C184.918 81.4327 185.239 79.6844 185.229 78.1485L183.55 78.1596ZM182.697 82.8614L180.423 89.7775L182.019 90.3021L184.293 83.3861L182.697 82.8614ZM181.293 89.203L177.496 88.8758L177.351 90.5493L181.149 90.8766L181.293 89.203ZM178.257 89.812L179.086 82.8659L177.418 82.667L176.59 89.6131L178.257 89.812ZM178.166 81.9311C177.498 82.0002 177.175 81.8917 177.036 81.7936L176.068 83.1663C176.691 83.6059 177.502 83.6884 178.338 83.6019L178.166 81.9311ZM177.003 81.7715C176.825 81.658 176.628 81.4231 176.493 80.9191L174.871 81.3538C175.076 82.119 175.459 82.7797 176.101 83.1884L177.003 81.7715Z" fill="url(#paint2_linear_517_2882)" fill-opacity="0.8"/>
<defs>
<filter id="filter0_d_517_2882" x="0" y="-0.000244141" width="354.064" height="360" filterUnits="userSpaceOnUse" color-interpolation-filters="sRGB">
<feFlood flood-opacity="0" result="BackgroundImageFix"/>
<feColorMatrix in="SourceAlpha" type="matrix" values="0 0 0 0 0 0 0 0 0 0 0 0 0 0 0 0 0 0 127 0" result="hardAlpha"/>
<feOffset dx="-4" dy="8"/>
<feGaussianBlur stdDeviation="4"/>
<feComposite in2="hardAlpha" operator="out"/>
<feColorMatrix type="matrix" values="0 0 0 0 0 0 0 0 0 0 0 0 0 0 0 0 0 0 0.15 0"/>
<feBlend mode="normal" in2="BackgroundImageFix" result="effect1_dropShadow_517_2882"/>
<feBlend mode="normal" in="SourceGraphic" in2="effect1_dropShadow_517_2882" result="shape"/>
</filter>
<linearGradient id="paint0_linear_517_2882" x1="246" y1="65.9998" x2="48" y2="450" gradientUnits="userSpaceOnUse">
<stop stop-color="white"/>
<stop offset="1" stop-color="#E8E6E6"/>
</linearGradient>
<linearGradient id="paint1_linear_517_2882" x1="74.0985" y1="90.6383" x2="87.1131" y2="136.84" gradientUnits="userSpaceOnUse">
<stop stop-color="#585858" stop-opacity="0.88"/>
<stop offset="0.729167" stop-color="#3E3E3E"/>
</linearGradient>
<linearGradient id="paint2_linear_517_2882" x1="180.841" y1="100.483" x2="168.418" y2="54.1183" gradientUnits="userSpaceOnUse">
<stop stop-color="#585858" stop-opacity="0.88"/>
<stop offset="0.729167" stop-color="#3E3E3E"/>
</linearGradient>
</defs>
</svg>
