<svg width="341" height="292" viewBox="0 0 341 292" fill="none" xmlns="http://www.w3.org/2000/svg">
<g filter="url(#filter0_f_514_2838)">
<g filter="url(#filter1_f_514_2838)">
<path d="M31.1339 169.064L49.0704 173.845C24.8034 187.96 -15.079 216.735 19.528 218.92C54.1349 221.106 74.041 235.767 79.6681 242.824L108.156 257.849C111.321 261.491 124.615 271.371 152.469 281.752C180.324 292.133 182.364 281.069 179.902 274.24C187.498 284.621 214.72 269.914 227.381 261.264C240.042 267.82 250.241 255.8 253.758 248.97C261.355 244.599 275.915 235.767 282.245 231.896C299.127 232.989 324.449 208.676 335 196.383C335 176.714 315.305 162.69 305.457 158.137C303.347 151.307 288.576 136.965 282.245 136.965C277.181 136.965 270.288 126.949 267.474 121.94L253.758 115.111C247.005 104.184 216.478 110.558 202.059 115.111L187.287 121.94L179.902 115.111C184.122 106.369 163.372 101.907 152.469 100.769C139.808 91.4805 109.914 121.03 96.5496 136.965L108.156 153.356C103.584 152.673 92.9623 150.761 87.0538 148.576C81.1452 146.39 74.7444 154.039 72.2825 158.137C67.3587 154.267 53.9239 145.844 39.5746 143.112C25.2254 140.38 27.9686 159.275 31.1339 169.064Z" fill="url(#paint0_linear_514_2838)" fill-opacity="0.3"/>
<path d="M132.035 147.595C126.97 115.906 145.399 105.252 155.247 103.886C136.677 89.6804 114.45 109.805 105.658 121.643C97.2169 118.365 97.217 129.838 98.2721 135.985C102.141 139.855 111.144 148.961 116.209 154.425C121.273 159.888 111.285 168.994 105.658 172.865V183.792C103.196 186.524 100.593 189.938 109.878 181.743C119.163 173.547 133.442 178.328 139.421 181.743L132.035 147.595Z" fill="url(#paint1_linear_514_2838)" fill-opacity="0.3"/>
<path d="M188.531 115.876L165.319 102.217C156.034 96.7533 157.23 111.778 158.988 119.974L222.294 154.122L165.319 133.633L136.831 154.122V175.293L180.09 181.44L188.531 175.293L165.319 160.268V154.122L203.302 166.415V175.293L222.294 184.855V166.415L269.773 154.122L276.103 137.731C265.974 143.741 247.967 135.227 240.23 130.218V133.633C236.361 136.82 220.605 140.599 188.531 130.218C156.456 119.837 175.166 116.331 188.531 115.876Z" fill="url(#paint2_linear_514_2838)" fill-opacity="0.3"/>
<path d="M273.993 146.807V138.611C273.993 182.867 259.222 206.679 251.836 213.054L267.662 220.566L288.764 231.494C294.743 227.396 310.288 217.288 324.637 209.639C338.987 201.99 325.692 189.15 317.252 183.687V162.515L295.095 159.1L288.764 146.807H273.993Z" fill="url(#paint3_linear_514_2838)" fill-opacity="0.3"/>
<path d="M177.98 206.753C215.963 172.878 257.112 190.362 272.938 203.338L314.086 229.974C300.37 233.844 268.929 243.769 252.891 252.511C236.854 261.253 201.192 241.129 185.365 229.974L213.853 252.511L241.285 256.609C231.789 266.853 218.073 264.804 202.247 264.121C189.586 263.575 180.793 271.179 177.98 275.049L169.539 241.584V225.876L144.217 212.217L177.98 219.046V206.753Z" fill="url(#paint4_linear_514_2838)" fill-opacity="0.3"/>
<path d="M60.0745 169.369C59.2304 162.813 38.621 164.361 28.4218 165.954L23.1463 169.369L53.7439 174.15L35.8073 183.028C27.0149 188.037 8.79708 199.692 6.26486 206.249C3.73264 212.805 19.981 208.981 28.4218 206.249L47.4134 187.809C57.9643 188.947 78.8551 190.541 78.011 187.809C77.1669 185.077 87.5068 174.378 92.7823 169.369H60.0745Z" fill="url(#paint5_linear_514_2838)" fill-opacity="0.3"/>
<path d="M26.0467 205.365H13.3856L6 209.463L13.3856 217.658C17.606 218.341 29.845 219.98 45.0383 221.073C60.2316 222.166 72.4707 237.464 76.6911 244.977L107.289 252.489V244.977L100.958 205.365C91.4623 205.365 69.5164 203.59 57.6994 196.487C45.8824 189.384 38.7078 193.527 36.5976 196.487L26.0467 205.365Z" fill="url(#paint6_linear_514_2838)" fill-opacity="0.3"/>
<path d="M174.814 258.129L185.365 285.447L163.208 258.129V244.47L137.886 209.639L163.208 213.054V226.03L174.814 236.274V258.129Z" fill="url(#paint7_linear_514_2838)" fill-opacity="0.3"/>
<path d="M76.6911 195.297L118.895 180.272H126.28L172.704 186.418L233.9 188.467L176.925 195.297C176.573 203.037 172.071 216.059 156.878 206.224C141.685 196.39 118.191 213.054 108.344 222.615V206.224L76.6911 195.297Z" fill="url(#paint8_linear_514_2838)" fill-opacity="0.3"/>
</g>
<path d="M29.8216 105.59L46.8216 112.59C23.8216 133.256 -13.9784 175.39 18.8216 178.59C51.6216 181.79 70.4883 203.257 75.8216 213.59L102.822 235.59C105.822 240.923 118.422 255.39 144.822 270.59C171.222 285.79 173.155 269.59 170.822 259.59C178.022 274.79 203.822 253.257 215.822 240.59C227.822 250.19 237.488 232.59 240.822 222.59C248.022 216.19 261.822 203.257 267.822 197.59C283.822 199.19 307.822 163.59 317.822 145.59C317.822 116.79 299.155 96.2565 289.822 89.5898C287.822 79.5897 273.822 58.5898 267.822 58.5898C263.022 58.5898 256.488 43.9232 253.822 36.5898L240.822 26.5898C234.422 10.5898 205.488 19.9232 191.822 26.5898L177.822 36.5898L170.822 26.5898C174.822 13.7898 155.155 7.25648 144.822 5.58979C132.822 -8.01021 104.488 35.2565 91.8216 58.5898L102.822 82.5898C98.4883 81.5898 88.4216 78.7898 82.8216 75.5898C77.2216 72.3898 71.1549 83.5898 68.8216 89.5898C64.1549 83.9231 51.4216 71.5898 37.8216 67.5898C24.2216 63.5898 26.8216 91.2565 29.8216 105.59Z" fill="url(#paint9_linear_514_2838)" stroke="url(#paint10_linear_514_2838)" stroke-opacity="0.5"/>
<path d="M125.454 74.154C120.654 27.754 138.121 12.154 147.454 10.154C129.854 -10.646 108.787 18.8207 100.454 36.154C92.4542 31.354 92.4542 48.154 93.4542 57.154C97.1209 62.8207 105.654 76.154 110.454 84.154C115.254 92.154 105.788 105.487 100.454 111.154V127.154C98.1208 131.154 95.6542 136.154 104.454 124.154C113.254 112.154 126.788 119.154 132.454 124.154L125.454 74.154Z" fill="url(#paint11_linear_514_2838)" stroke="#D9D9D9" stroke-opacity="0.5"/>
<path d="M179 27.7103L157 7.71031C148.2 -0.289688 149.333 21.7103 151 33.7103L211 83.7103L157 53.7103L130 83.7103V114.71L171 123.71L179 114.71L157 92.7103V83.7103L193 101.71V114.71L211 128.71V101.71L256 83.7103L262 59.7103C252.4 68.5103 235.333 56.0436 228 48.7103V53.7103C224.333 58.377 209.4 63.9103 179 48.7103C148.6 33.5103 166.333 28.377 179 27.7103Z" fill="url(#paint12_linear_514_2838)" stroke="#D9D9D9" stroke-opacity="0.5"/>
<path d="M260 73V61C260 125.8 246 160.667 239 170L254 181L274 197C279.667 191 294.4 176.2 308 165C321.6 153.8 309 135 301 127V96L280 91L274 73H260Z" fill="url(#paint13_linear_514_2838)" stroke="#D9D9D9" stroke-opacity="0.5"/>
<path d="M169 160.774C205 111.174 244 136.774 259 155.774L298 194.774C285 200.441 255.2 214.974 240 227.774C224.8 240.574 191 211.108 176 194.774L203 227.774L229 233.774C220 248.774 207 245.774 192 244.774C180 243.974 171.667 255.108 169 260.774L161 211.774V188.774L137 168.774L169 178.774V160.774Z" fill="url(#paint14_linear_514_2838)" stroke="#D9D9D9" stroke-opacity="0.5"/>
<path d="M57.251 106.036C56.451 96.4361 36.9177 98.7028 27.251 101.036L22.251 106.036L51.251 113.036L34.251 126.036C25.9177 133.369 8.65103 150.436 6.25103 160.036C3.85103 169.636 19.251 164.036 27.251 160.036L45.251 133.036C55.251 134.703 75.051 137.036 74.251 133.036C73.451 129.036 83.251 113.369 88.251 106.036H57.251Z" fill="url(#paint15_linear_514_2838)" stroke="#D9D9D9" stroke-opacity="0.5"/>
<path d="M25 158.742H13L6 164.742L13 176.742C17 177.742 28.6 180.142 43 181.742C57.4 183.342 69 205.742 73 216.742L102 227.742V216.742L96 158.742C87 158.742 66.2 156.142 55 145.742C43.8 135.342 37 141.409 35 145.742L25 158.742Z" fill="url(#paint16_linear_514_2838)" stroke="#D9D9D9" stroke-opacity="0.5"/>
<path d="M166 236L176 276L155 236V216L131 165L155 170V189L166 204V236Z" fill="#D9D9D9" stroke="#D9D9D9" stroke-opacity="0.5"/>
<path d="M73 144L113 122H120L164 131L222 134L168 144C167.667 155.333 163.4 174.4 149 160C134.6 145.6 112.333 170 103 184V160L73 144Z" fill="url(#paint17_linear_514_2838)" stroke="#D9D9D9" stroke-opacity="0.5"/>
</g>
<defs>
<filter id="filter0_f_514_2838" x="3.3584" y="0.5" width="333.642" height="287.5" filterUnits="userSpaceOnUse" color-interpolation-filters="sRGB">
<feFlood flood-opacity="0" result="BackgroundImageFix"/>
<feBlend mode="normal" in="SourceGraphic" in2="BackgroundImageFix" result="shape"/>
<feGaussianBlur stdDeviation="1" result="effect1_foregroundBlur_514_2838"/>
</filter>
<filter id="filter1_f_514_2838" x="0" y="93" width="341" height="199" filterUnits="userSpaceOnUse" color-interpolation-filters="sRGB">
<feFlood flood-opacity="0" result="BackgroundImageFix"/>
<feBlend mode="normal" in="SourceGraphic" in2="BackgroundImageFix" result="shape"/>
<feGaussianBlur stdDeviation="3" result="effect1_foregroundBlur_514_2838"/>
</filter>
<linearGradient id="paint0_linear_514_2838" x1="170.5" y1="99" x2="170" y2="318" gradientUnits="userSpaceOnUse">
<stop offset="0.161458" stop-color="#373737" stop-opacity="0.69"/>
<stop offset="1" stop-color="#D9D9D9"/>
<stop offset="1" stop-color="#454545" stop-opacity="0.76"/>
</linearGradient>
<linearGradient id="paint1_linear_514_2838" x1="170.5" y1="99" x2="170" y2="318" gradientUnits="userSpaceOnUse">
<stop offset="0.161458" stop-color="#373737" stop-opacity="0.69"/>
<stop offset="1" stop-color="#D9D9D9"/>
<stop offset="1" stop-color="#454545" stop-opacity="0.76"/>
</linearGradient>
<linearGradient id="paint2_linear_514_2838" x1="170.5" y1="99" x2="170" y2="318" gradientUnits="userSpaceOnUse">
<stop offset="0.161458" stop-color="#373737" stop-opacity="0.69"/>
<stop offset="1" stop-color="#D9D9D9"/>
<stop offset="1" stop-color="#454545" stop-opacity="0.76"/>
</linearGradient>
<linearGradient id="paint3_linear_514_2838" x1="170.5" y1="99" x2="170" y2="318" gradientUnits="userSpaceOnUse">
<stop offset="0.161458" stop-color="#373737" stop-opacity="0.69"/>
<stop offset="1" stop-color="#D9D9D9"/>
<stop offset="1" stop-color="#454545" stop-opacity="0.76"/>
</linearGradient>
<linearGradient id="paint4_linear_514_2838" x1="170.5" y1="99" x2="170" y2="318" gradientUnits="userSpaceOnUse">
<stop offset="0.161458" stop-color="#373737" stop-opacity="0.69"/>
<stop offset="1" stop-color="#D9D9D9"/>
<stop offset="1" stop-color="#454545" stop-opacity="0.76"/>
</linearGradient>
<linearGradient id="paint5_linear_514_2838" x1="170.5" y1="99" x2="170" y2="318" gradientUnits="userSpaceOnUse">
<stop offset="0.161458" stop-color="#373737" stop-opacity="0.69"/>
<stop offset="1" stop-color="#D9D9D9"/>
<stop offset="1" stop-color="#454545" stop-opacity="0.76"/>
</linearGradient>
<linearGradient id="paint6_linear_514_2838" x1="170.5" y1="99" x2="170" y2="318" gradientUnits="userSpaceOnUse">
<stop offset="0.161458" stop-color="#373737" stop-opacity="0.69"/>
<stop offset="1" stop-color="#D9D9D9"/>
<stop offset="1" stop-color="#454545" stop-opacity="0.76"/>
</linearGradient>
<linearGradient id="paint7_linear_514_2838" x1="170.5" y1="99" x2="170" y2="318" gradientUnits="userSpaceOnUse">
<stop offset="0.161458" stop-color="#373737" stop-opacity="0.69"/>
<stop offset="1" stop-color="#D9D9D9"/>
<stop offset="1" stop-color="#454545" stop-opacity="0.76"/>
</linearGradient>
<linearGradient id="paint8_linear_514_2838" x1="170.5" y1="99" x2="170" y2="318" gradientUnits="userSpaceOnUse">
<stop offset="0.161458" stop-color="#373737" stop-opacity="0.69"/>
<stop offset="1" stop-color="#D9D9D9"/>
<stop offset="1" stop-color="#454545" stop-opacity="0.76"/>
</linearGradient>
<linearGradient id="paint9_linear_514_2838" x1="161.911" y1="3" x2="161.911" y2="276.809" gradientUnits="userSpaceOnUse">
<stop offset="0.25" stop-color="#EFEFEF"/>
<stop offset="0.625" stop-color="#F7F7F7"/>
<stop offset="1" stop-color="#D9D9D9"/>
</linearGradient>
<linearGradient id="paint10_linear_514_2838" x1="161.911" y1="3" x2="161.911" y2="276.809" gradientUnits="userSpaceOnUse">
<stop stop-color="#F7F7F7"/>
<stop offset="1" stop-color="#D9D9D9"/>
</linearGradient>
<linearGradient id="paint11_linear_514_2838" x1="120.227" y1="3" x2="120.227" y2="131.677" gradientUnits="userSpaceOnUse">
<stop stop-color="#FDFDFD"/>
<stop offset="1" stop-color="#D9D9D9"/>
</linearGradient>
<linearGradient id="paint12_linear_514_2838" x1="196" y1="6" x2="196" y2="128.71" gradientUnits="userSpaceOnUse">
<stop offset="0.479167" stop-color="#F7F7F7"/>
<stop offset="1" stop-color="#D9D9D9"/>
</linearGradient>
<linearGradient id="paint13_linear_514_2838" x1="276.508" y1="61" x2="276.508" y2="197" gradientUnits="userSpaceOnUse">
<stop stop-color="#F7F7F7"/>
<stop offset="1" stop-color="#E0E0E0"/>
</linearGradient>
<linearGradient id="paint14_linear_514_2838" x1="217.5" y1="132" x2="217.5" y2="260.774" gradientUnits="userSpaceOnUse">
<stop stop-color="#F7F7F7"/>
<stop offset="1" stop-color="#CCCCCC"/>
</linearGradient>
<linearGradient id="paint15_linear_514_2838" x1="47.1255" y1="99" x2="47.1255" y2="165.337" gradientUnits="userSpaceOnUse">
<stop offset="0.161458" stop-color="#F7F7F7"/>
<stop offset="1" stop-color="#D9D9D9"/>
</linearGradient>
<linearGradient id="paint16_linear_514_2838" x1="54" y1="140" x2="54" y2="227.742" gradientUnits="userSpaceOnUse">
<stop stop-color="#F7F7F7"/>
<stop offset="1" stop-color="#D9D9D9"/>
</linearGradient>
<linearGradient id="paint17_linear_514_2838" x1="147.5" y1="122" x2="147.5" y2="184" gradientUnits="userSpaceOnUse">
<stop stop-color="#F7F7F7"/>
<stop offset="1" stop-color="#D9D9D9"/>
</linearGradient>
</defs>
</svg>
