<svg width="460" height="195" viewBox="0 0 460 195" fill="none" xmlns="http://www.w3.org/2000/svg">
<g filter="url(#filter0_f_514_2827)">
<g filter="url(#filter1_f_514_2827)">
<path d="M25.0214 134.288L16.0112 143.361L6 151.334L75.0776 159.307C73.2422 158.666 71.1732 157.768 77.5804 159.307C83.9876 160.847 118.96 151.884 135.646 147.21C140.051 145.671 165.179 147.852 177.192 149.135C168.683 157.108 214.234 176.628 217.237 179.652C219.64 182.072 254.279 186.892 271.298 189C266.893 186.361 303.501 175.253 322.355 170.03C317.55 167.39 330.364 155 337.372 149.135L354.391 153.809C360.398 155.458 376.416 152.434 389.431 149.135C399.843 146.495 418.463 124.757 426.472 114.218L451 90.5741L420.466 88.3747L367.406 93.0485L315.848 99.6469L276.804 114.218L244.768 127.69C224.746 136.488 228.25 126.315 227.749 124.116C227.349 122.356 199.551 115.318 185.702 112.019C174.489 113.339 156.669 104.321 149.161 99.6469L108.115 87C102.609 90.5741 91.6963 98.1073 92.0967 99.6469C92.4972 101.187 65.5669 116.601 52.0517 124.116C39.2373 121.697 28.6922 129.89 25.0214 134.288Z" fill="url(#paint0_linear_514_2827)"/>
<path d="M193.711 124.116C192.51 121.257 164.845 117.059 151.163 115.318C157.17 121.916 193.711 134.93 211.231 140.612C205.891 136.305 194.912 126.975 193.711 124.116Z" fill="url(#paint1_linear_514_2827)"/>
<path d="M297.828 128.515C341.076 124.996 378.252 140.429 391.433 148.585C376.616 152.544 357.895 150.235 350.387 148.585L289.318 133.464L271.799 146.935C267.127 148.86 257.182 152.819 254.78 153.259C252.377 153.699 236.759 150.326 229.251 148.585L244.768 137.863C254.613 136.396 273.801 132.969 271.799 130.989C269.796 129.01 279.307 123.199 284.313 120.542C290.72 120.542 286.982 129.156 284.313 133.464L297.828 128.515Z" fill="url(#paint2_linear_514_2827)"/>
<path d="M16.0112 141.987L8.00225 150.235L38.036 156.833L16.0112 141.987Z" fill="url(#paint3_linear_514_2827)"/>
<path d="M140.151 137.588L103.109 145.836C92.0967 149.135 70.072 156.503 70.072 159.582C70.072 162.661 96.7687 158.299 110.117 155.733L140.151 145.836L182.198 149.135L215.235 159.582C218.572 160.132 226.247 162.661 230.252 168.38C234.256 174.099 258.117 175.803 270.798 174.704L322.355 169.755L295.325 133.189L268.295 149.135L247.271 155.733L230.252 149.135L215.235 155.733C210.897 150.968 200.619 141.437 194.211 141.437H182.198V137.588L140.151 133.189V137.588Z" fill="url(#paint4_linear_514_2827)"/>
<path d="M284.356 124.391L240.306 141.987C231.964 147.21 220.284 154.908 240.306 143.911C265.334 130.164 284.356 135.113 289.862 136.763C294.267 138.082 288.027 129.065 284.356 124.391Z" fill="url(#paint5_linear_514_2827)"/>
<path d="M347.884 118.089C337.873 109.291 294.991 118.456 274.802 124.138L254.279 131.561C249.607 133.944 237.16 139.259 224.746 141.459C212.332 143.658 206.559 137.976 205.224 134.86H231.754L236.759 130.186L314.346 100.219L344.38 95.27C380.399 91.2935 404.684 89.6011 420.593 89.1519C427.007 88.4752 433.527 88.4236 439.719 89.3597C444.882 89.7586 447.145 90.4564 447.496 91.146C444.988 90.3484 442.384 89.7626 439.719 89.3597C435.481 89.0324 429.288 88.9065 420.593 89.1519C404.65 90.8342 389.365 96.3794 381.422 100.219C368.607 98.899 362.067 106.634 360.398 110.666L347.884 118.089Z" fill="url(#paint6_linear_514_2827)"/>
<path d="M43.0416 127.415C43.9552 127.437 44.9031 127.459 45.8821 127.481C55.6353 125.792 79.3122 109.208 91.0956 100.197L152.665 119.442L187.704 135.388H147.659C145.657 130.073 139.65 120.432 131.641 124.391C123.911 128.212 72.9753 128.072 45.8821 127.481C44.7249 127.681 43.7637 127.672 43.0416 127.415Z" fill="url(#paint7_linear_514_2827)"/>
<path d="M118.627 94.4232L106.112 87C138.315 97.1725 201.319 117.518 195.713 117.518C190.107 117.518 184.701 119.167 182.699 119.992L164.178 115.868L154.667 109.27H125.134L118.627 94.4232Z" fill="url(#paint8_linear_514_2827)"/>
</g>
<path d="M31 89.0001L22 105.5L12 120L81 134.5C79.1667 133.333 77.1 131.7 83.5 134.5C89.9 137.3 124.833 121 141.5 112.5C145.9 109.7 171 113.667 183 116C174.5 130.5 220 166 223 171.5C225.4 175.9 260 184.667 277 188.5C272.6 183.7 309.167 163.5 328 154C323.2 149.2 336 126.667 343 116L360 124.5C366 127.5 382 122 395 116C405.4 111.2 424 71.6667 432 52.5L456.5 9.5L426 5.5L373 14L321.5 26L282.5 52.5L250.5 77C230.5 93 234 74.5 233.5 70.5001C233.1 67.3002 205.333 54.5001 191.5 48.5C180.3 50.9 162.5 34.5 155 26L114 3C108.5 9.5 97.6 23.2 98 26C98.4 28.8 71.5 56.8334 58 70.5001C45.2 66.1001 34.6667 81.0001 31 89.0001Z" fill="url(#paint9_linear_514_2827)" stroke="#D9D9D9" stroke-opacity="0.5"/>
<path d="M199.5 70.5C198.3 65.3 170.667 57.6667 157 54.5C163 66.5 199.5 90.1667 217 100.5C211.667 92.6667 200.7 75.7 199.5 70.5Z" fill="url(#paint10_linear_514_2827)"/>
<path d="M136.5 39.5L157 54.5M157 54.5C170.667 57.6667 198.3 65.3 199.5 70.5C200.7 75.7 211.667 92.6667 217 100.5C199.5 90.1667 163 66.5 157 54.5Z" stroke="#D9D9D9" stroke-opacity="0.5"/>
<path d="M303.5 78.5001C346.7 72.1001 383.833 100.167 397 115C382.2 122.2 363.5 118 356 115L295 87.5L277.5 112C272.833 115.5 262.9 122.7 260.5 123.5C258.1 124.3 242.5 118.167 235 115L250.5 95.5C260.333 92.8333 279.5 86.6 277.5 83C275.5 79.4 285 68.8333 290 64C296.4 64 292.667 79.6667 290 87.5L303.5 78.5001Z" fill="url(#paint11_linear_514_2827)" stroke="#D9D9D9" stroke-opacity="0.5"/>
<path d="M22 103L14 118L44 130L22 103Z" fill="url(#paint12_linear_514_2827)"/>
<path d="M146 95L109 110C98 116 76 129.4 76 135C76 140.6 102.667 132.667 116 128L146 110L188 116L221 135C224.333 136 232 140.6 236 151C240 161.4 263.833 164.5 276.5 162.5L328 153.5L301 87L274 116L253 128L236 116L221 128C216.667 119.333 206.4 102 200 102H188V95L146 87V95Z" fill="url(#paint13_linear_514_2827)" stroke="#D9D9D9" stroke-opacity="0.5"/>
<path d="M290.043 71L246.043 103C237.71 112.5 226.043 126.5 246.043 106.5C271.043 81.5 290.043 90.5 295.543 93.5C299.943 95.9 293.71 79.5 290.043 71Z" fill="url(#paint14_linear_514_2827)" stroke="#D9D9D9" stroke-opacity="0.5"/>
<path d="M353.5 59.5399C343.5 43.5399 300.667 60.2066 280.5 70.5399L260 84.04C255.333 88.3734 242.9 98.04 230.5 102.04C218.1 106.04 212.333 95.7067 211 90.04H237.5L242.5 81.54L320 27.0399L350 18.04C385.978 10.8083 410.236 7.73043 426.127 6.91359C432.534 5.68286 439.047 5.58903 445.232 7.29145C450.389 8.01679 452.649 9.28596 453 10.54C450.494 9.08945 447.893 8.02411 445.232 7.29145C440.998 6.69611 434.813 6.46713 426.127 6.91359C410.202 9.97297 394.934 20.0577 387 27.0399C374.2 24.6399 367.667 38.7066 366 46.0399L353.5 59.5399Z" fill="url(#paint15_linear_514_2827)"/>
<path d="M280.5 70.5399C300.667 60.2066 343.5 43.5399 353.5 59.5399L366 46.0399C367.667 38.7066 374.2 24.6399 387 27.0399C399.5 16.04 430.2 -2.65987 453 10.54C451.833 6.37337 429.6 2.04004 350 18.04L320 27.0399L242.5 81.54L237.5 90.04H211C212.333 95.7067 218.1 106.04 230.5 102.04C242.9 98.04 255.333 88.3734 260 84.04L280.5 70.5399Z" stroke="#D9D9D9" stroke-opacity="0.5"/>
<path d="M49 76.4999C49.9126 76.5406 50.8594 76.5805 51.8373 76.6193C61.5795 73.5489 85.2299 43.3888 97 27L158.5 62L193.5 90.9999H153.5C151.5 81.3332 145.5 63.7999 137.5 70.9999C129.779 77.9488 78.9001 77.6944 51.8373 76.6193C50.6814 76.9836 49.7213 76.9666 49 76.4999Z" fill="url(#paint16_linear_514_2827)"/>
<path d="M49 76.4999C75.1667 77.6666 129.5 78.1999 137.5 70.9999C145.5 63.7999 151.5 81.3332 153.5 90.9999H193.5L158.5 62L97 27C83.8333 45.3333 55.8 80.8999 49 76.4999Z" stroke="#D9D9D9" stroke-opacity="0.5"/>
<path d="M124.5 16.5L112 3C144.167 21.5 207.1 58.5 201.5 58.5C195.9 58.5 190.5 61.5 188.5 63L170 55.5L160.5 43.5H142H131L124.5 16.5Z" fill="url(#paint17_linear_514_2827)" stroke="#D9D9D9" stroke-opacity="0.5"/>
</g>
<defs>
<filter id="filter0_f_514_2827" x="4" y="0.362305" width="455.303" height="190.977" filterUnits="userSpaceOnUse" color-interpolation-filters="sRGB">
<feFlood flood-opacity="0" result="BackgroundImageFix"/>
<feBlend mode="normal" in="SourceGraphic" in2="BackgroundImageFix" result="shape"/>
<feGaussianBlur stdDeviation="1" result="effect1_foregroundBlur_514_2827"/>
</filter>
<filter id="filter1_f_514_2827" x="0" y="81" width="457" height="114" filterUnits="userSpaceOnUse" color-interpolation-filters="sRGB">
<feFlood flood-opacity="0" result="BackgroundImageFix"/>
<feBlend mode="normal" in="SourceGraphic" in2="BackgroundImageFix" result="shape"/>
<feGaussianBlur stdDeviation="3" result="effect1_foregroundBlur_514_2827"/>
</filter>
<linearGradient id="paint0_linear_514_2827" x1="151.088" y1="87" x2="151.088" y2="119.992" gradientUnits="userSpaceOnUse">
<stop stop-color="#5A5A5A" stop-opacity="0.55"/>
<stop offset="0.890625" stop-color="#444444" stop-opacity="0.21"/>
</linearGradient>
<linearGradient id="paint1_linear_514_2827" x1="151.088" y1="87" x2="151.088" y2="119.992" gradientUnits="userSpaceOnUse">
<stop stop-color="#5A5A5A" stop-opacity="0.55"/>
<stop offset="0.890625" stop-color="#444444" stop-opacity="0.21"/>
</linearGradient>
<linearGradient id="paint2_linear_514_2827" x1="151.088" y1="87" x2="151.088" y2="119.992" gradientUnits="userSpaceOnUse">
<stop stop-color="#5A5A5A" stop-opacity="0.55"/>
<stop offset="0.890625" stop-color="#444444" stop-opacity="0.21"/>
</linearGradient>
<linearGradient id="paint3_linear_514_2827" x1="151.088" y1="87" x2="151.088" y2="119.992" gradientUnits="userSpaceOnUse">
<stop stop-color="#5A5A5A" stop-opacity="0.55"/>
<stop offset="0.890625" stop-color="#444444" stop-opacity="0.21"/>
</linearGradient>
<linearGradient id="paint4_linear_514_2827" x1="151.088" y1="87" x2="151.088" y2="119.992" gradientUnits="userSpaceOnUse">
<stop stop-color="#5A5A5A" stop-opacity="0.55"/>
<stop offset="0.890625" stop-color="#444444" stop-opacity="0.21"/>
</linearGradient>
<linearGradient id="paint5_linear_514_2827" x1="151.088" y1="87" x2="151.088" y2="119.992" gradientUnits="userSpaceOnUse">
<stop stop-color="#5A5A5A" stop-opacity="0.55"/>
<stop offset="0.890625" stop-color="#444444" stop-opacity="0.21"/>
</linearGradient>
<linearGradient id="paint6_linear_514_2827" x1="151.088" y1="87" x2="151.088" y2="119.992" gradientUnits="userSpaceOnUse">
<stop stop-color="#5A5A5A" stop-opacity="0.55"/>
<stop offset="0.890625" stop-color="#444444" stop-opacity="0.21"/>
</linearGradient>
<linearGradient id="paint7_linear_514_2827" x1="151.088" y1="87" x2="151.088" y2="119.992" gradientUnits="userSpaceOnUse">
<stop stop-color="#5A5A5A" stop-opacity="0.55"/>
<stop offset="0.890625" stop-color="#444444" stop-opacity="0.21"/>
</linearGradient>
<linearGradient id="paint8_linear_514_2827" x1="151.088" y1="87" x2="151.088" y2="119.992" gradientUnits="userSpaceOnUse">
<stop stop-color="#5A5A5A" stop-opacity="0.55"/>
<stop offset="0.890625" stop-color="#444444" stop-opacity="0.21"/>
</linearGradient>
<linearGradient id="paint9_linear_514_2827" x1="246.5" y1="-18.5" x2="234" y2="175" gradientUnits="userSpaceOnUse">
<stop stop-color="#F8F8F8"/>
<stop offset="0.395833" stop-color="#F8F8F8"/>
<stop offset="0.692708" stop-color="#D9D9D9"/>
<stop offset="0.885417" stop-color="#F7F7F7"/>
</linearGradient>
<linearGradient id="paint10_linear_514_2827" x1="176.75" y1="39.5" x2="176.75" y2="100.5" gradientUnits="userSpaceOnUse">
<stop stop-color="#D9D9D9"/>
<stop offset="1" stop-color="#F7F7F7"/>
</linearGradient>
<linearGradient id="paint11_linear_514_2827" x1="316" y1="64" x2="316" y2="123.571" gradientUnits="userSpaceOnUse">
<stop stop-color="#D9D9D9"/>
<stop offset="1" stop-color="#F7F7F7"/>
</linearGradient>
<linearGradient id="paint12_linear_514_2827" x1="29" y1="103" x2="22.5" y2="119.5" gradientUnits="userSpaceOnUse">
<stop stop-color="#D9D9D9"/>
<stop offset="1" stop-color="#F7F7F7"/>
</linearGradient>
<linearGradient id="paint13_linear_514_2827" x1="206.5" y1="87" x2="239" y2="176" gradientUnits="userSpaceOnUse">
<stop stop-color="#F7F7F7"/>
<stop offset="0.348958" stop-color="#D9D9D9"/>
<stop offset="1" stop-color="#F7F7F7"/>
</linearGradient>
<linearGradient id="paint14_linear_514_2827" x1="266.028" y1="71" x2="266.028" y2="116.687" gradientUnits="userSpaceOnUse">
<stop stop-color="#D9D9D9"/>
<stop offset="1" stop-color="#F7F7F7"/>
</linearGradient>
<linearGradient id="paint15_linear_514_2827" x1="332" y1="6" x2="332" y2="102.938" gradientUnits="userSpaceOnUse">
<stop stop-color="#F7F7F7"/>
<stop offset="1" stop-color="#D9D9D9"/>
</linearGradient>
<linearGradient id="paint16_linear_514_2827" x1="121.25" y1="27" x2="121.25" y2="90.9999" gradientUnits="userSpaceOnUse">
<stop stop-color="#D9D9D9"/>
<stop offset="1" stop-color="#F7F7F7"/>
</linearGradient>
<linearGradient id="paint17_linear_514_2827" x1="156.925" y1="3" x2="156.925" y2="63" gradientUnits="userSpaceOnUse">
<stop stop-color="#D9D9D9"/>
<stop offset="0.697917" stop-color="#F7F7F7" stop-opacity="0.21"/>
</linearGradient>
</defs>
</svg>
