<svg width="452" height="271" viewBox="0 0 452 271" fill="none" xmlns="http://www.w3.org/2000/svg">
<path d="M331.804 227.105C332.094 227.511 333.913 230.467 334.019 230.862C334.14 231.313 333.629 232.114 333.178 232.235C331.093 232.794 328.878 226.56 326.454 227.209C325.383 227.496 324.134 229.825 323.654 230.739C320.401 236.867 318.947 246.32 320.744 253.029C321.333 255.228 323.017 261.06 326.23 260.199C329.218 259.399 332.674 247.718 333.182 247.582L333.268 247.679L333.325 247.664C333.426 247.818 333.543 248.029 333.562 248.326L333.724 248.705L333.755 248.818C333.83 249.1 333.973 249.182 334.034 249.408C334.124 249.746 333.353 252.732 333.188 253.018C333.249 253.243 333.166 253.386 333.099 253.586L333.231 253.852C332.739 254.951 332.263 256.106 331.787 257.26L331.817 257.373C331.165 258.998 328.049 262.25 326.357 262.703C321.791 263.927 318.654 259.208 317.611 255.319C315.587 247.764 316.408 235.943 321.114 228.701C321.969 227.384 323.576 225.261 325.041 224.869C327.184 224.295 330.373 225.374 331.804 227.105ZM357.629 240.125L357.833 240.433C358.186 240.398 358.693 240.262 358.979 240.427C358.84 240.586 358.559 240.661 358.292 240.793C358.521 240.973 358.593 241.014 358.623 241.127L358.612 241.311L358.796 241.322C358.703 241.65 354.664 243.94 353.894 244.449C354.377 249.636 350.063 257.439 344.369 258.964C343.806 259.116 342.843 259.132 342.354 258.659C341.951 258.283 340.058 256.857 339.953 256.462C341.113 252.224 346.795 246.593 350.435 244.167C350.186 243.69 349.313 243.138 348.899 242.947C343.818 241.348 336.088 243.842 334.351 237.359C332.901 231.947 339.368 220.003 346.866 217.994C347.26 217.888 347.67 217.839 348.08 217.789C352.599 217.968 353.262 219.543 354.335 223.545C354.486 224.109 354.333 225.117 353.657 225.298C351.74 225.812 351.578 219.571 347.857 220.568C342.615 221.973 336.299 232.003 337.674 237.133C338.761 241.192 349.81 237.326 352.88 242.243C354.522 241.38 355.799 240.736 357.629 240.125ZM342.821 256.117C343.061 256.113 343.358 256.093 343.528 256.048C346.741 255.187 350.092 249.878 350.548 247.521C350.574 247.393 350.641 247.193 350.596 247.024C348.687 248.019 342.842 254.842 342.821 256.117ZM378.55 234.519L378.753 234.827C379.107 234.793 379.614 234.657 379.9 234.822C379.761 234.98 379.479 235.055 379.212 235.187C379.442 235.368 379.513 235.409 379.543 235.522L379.532 235.706L379.717 235.717C379.623 236.044 375.584 238.335 374.814 238.843C375.298 244.031 370.984 251.833 365.29 253.359C364.726 253.51 363.764 253.526 363.274 253.053C362.872 252.678 360.979 251.251 360.873 250.857C362.034 246.618 367.715 240.987 371.355 238.562C371.106 238.084 370.234 237.533 369.82 237.342C364.739 235.742 357.008 238.237 355.271 231.753C353.821 226.341 360.288 214.397 367.786 212.388C368.181 212.282 368.59 212.233 369 212.184C373.519 212.362 374.183 213.937 375.255 217.94C375.406 218.503 375.253 219.511 374.577 219.692C372.66 220.206 372.499 213.965 368.778 214.962C363.535 216.367 357.22 226.398 358.594 231.528C359.682 235.587 370.73 231.72 373.8 236.638C375.442 235.775 376.72 235.13 378.55 234.519ZM363.741 250.511C363.982 250.507 364.279 250.488 364.448 250.442C367.661 249.581 371.012 244.273 371.468 241.915C371.494 241.787 371.562 241.588 371.516 241.419C369.608 242.413 363.762 249.236 363.741 250.511ZM398.941 203.496C402.807 204.394 402.855 216.526 403.174 219.522C404.697 219.114 406.99 219.104 408.39 220.723L408.278 220.753L408.082 220.926L408.188 221.321C408.102 221.223 408.015 221.125 407.928 221.028C408.019 221.366 408.177 221.505 408.222 221.674L408.268 221.843L408.053 221.719C407.083 221.254 405.737 221.192 405.101 221.302L405.117 221.358L405.444 221.452C404.85 221.49 404.327 221.57 403.876 221.69C403.651 221.751 403.44 221.868 403.215 221.928C403.314 222.748 403.301 227.887 403.32 228.184C403.38 230.887 403.679 236.063 404.359 238.6L405.311 242.152C405.371 242.377 405.823 243.163 405.726 243.249C406.027 243.471 406.102 243.753 406.204 243.907C406.091 243.937 405.967 244.151 405.854 244.181C405.798 244.197 405.685 244.227 405.629 244.242C405.403 244.302 405.178 244.363 404.877 244.141C404.775 243.987 404.098 243.262 404.098 243.262L404.199 243.416L404.004 243.59C402.816 243.666 401.319 239.657 401.002 238.473C399.729 233.497 399.546 228.531 399.608 223.801C398.357 224.317 394.164 226.71 392.82 228.46C392.553 231.069 391.778 243.965 390.611 245.245C390.318 245.505 390.07 245.933 389.788 246.009C389.732 246.024 389.379 246.058 389.379 246.058L389.164 245.935C388.995 245.98 388.871 246.194 388.646 246.255C387.631 246.527 385.917 243.965 385.691 243.119C384.327 237.805 386.651 232.046 389.041 227.66C389.775 222.508 393.183 204.556 396.565 203.65C397.185 203.484 398.317 203.422 398.941 203.496ZM398.067 205.422C395.66 207.94 393.75 219.751 393.116 224.151L393.172 224.136C394.686 223.247 396.842 221.823 399.555 220.673C399.611 219.752 399.396 207 398.214 205.746C398.199 205.689 398.097 205.535 398.067 205.422ZM407.601 220.934C407.545 220.949 407.785 220.945 407.913 220.971C407.842 220.93 407.77 220.889 407.699 220.848L407.658 220.919L407.642 220.863L407.601 220.934ZM413.099 235.05C412.995 236.467 413.189 237.866 412.702 239.205C412.593 239.476 412.376 240.017 411.996 240.179L411.868 240.153L411.658 240.27C411.658 240.27 411.556 240.116 411.331 240.176C409.435 239.415 409.277 239.277 408.733 237.247C407.57 232.906 408.268 225.589 408.559 221.04L408.677 218.773C408.816 218.615 408.914 218.528 409.083 218.483C409.139 218.468 409.267 218.494 409.38 218.464C410.368 218.32 411.196 218.702 411.317 219.153C411.815 221.013 411.277 226.898 411.291 229.432C412.111 225.949 414.069 219.503 417.677 218.536C417.846 218.491 418.087 218.487 418.384 218.468L418.722 218.377L419.121 218.512C419.279 218.651 419.64 219.098 419.614 219.226C419.802 219.477 419.652 219.82 419.867 219.944L419.927 220.169C419.942 220.225 420.015 221.173 420.015 221.173L420.045 221.286C419.8 221.049 418.95 220.129 418.837 220.159C418.499 220.25 417.913 220.769 417.594 221.157C414.301 224.879 413.402 230.316 413.099 235.05ZM429.654 208.983C429.669 209.039 429.959 209.445 429.933 209.573C428.305 209.586 426.839 209.979 425.317 210.387C425.288 214.563 424.664 220.35 424.362 222.606C423.801 225.475 424.329 229.926 424.7 231.76C424.821 232.211 424.9 232.734 425.006 233.128C425.097 233.467 425.274 233.903 425.421 234.226L425.564 234.308L426.113 234.101C427.685 231.625 430.279 225.069 431.814 220.428L432.232 220.86L432.093 221.018C432.139 221.187 432.688 221.886 432.775 221.983L433 221.923C432.878 223.043 432.449 222.796 432.413 224.014L432.18 224.499C432.147 225.052 431.821 225.864 431.705 226.56L431.964 225.947C431.953 226.131 431.788 226.417 431.72 226.616L432.009 226.116C432.013 226.357 431.987 226.484 432.032 226.654L432.07 226.341L432.115 226.511C431.969 227.093 430.319 230.859 430.102 231.4C429.911 231.814 429.157 233.285 428.924 233.77C428.872 234.026 428.733 234.184 428.579 234.286L428.47 234.557C427.7 235.065 426.995 236.04 425.923 236.327C424.683 236.659 423.889 235.724 422.888 235.146C422.523 234.458 421.928 233.591 421.788 232.843C421.829 232.771 421.501 231.772 421.44 231.546C420.532 226.352 421.241 218.85 421.8 211.692C419.959 212.487 418.087 213.17 416.17 213.683C414.987 214.001 414.389 213.798 414.061 213.705C413.775 213.54 413.44 212.965 413.395 212.796L413.274 212.345L414.785 212.121C417.096 211.502 419.482 210.258 421.944 209.297C422.062 207.935 422.109 206.533 422.228 205.172C422.285 205.157 422.341 205.142 422.397 205.127C422.623 205.066 423.089 205.002 423.258 204.956C423.314 204.941 423.371 204.926 423.427 204.911C423.54 204.881 423.724 204.892 423.965 204.888L424.48 205.233C424.627 205.556 424.789 205.936 424.895 206.33C425.087 206.823 425.156 207.529 425.255 208.349C426.822 208.11 429.337 207.799 429.654 208.983Z" fill="#393939"/>
</svg>
