<svg width="249" height="108" viewBox="0 0 249 108" fill="none" xmlns="http://www.w3.org/2000/svg">
<path d="M14.6811 34.8414C19.9611 34.1278 25.9868 37.1399 27.1825 44.1954C28.1738 50.455 24.8455 57.0078 20.675 60.9135C19.6774 61.7749 18.7183 62.9217 17.5716 63.7548C16.9442 64.1302 14.2033 65.7115 13.68 65.7822C13.5373 65.8015 13.4898 65.808 13.3535 65.8748C13.3316 66.0715 13.1954 66.1384 13.0527 66.1576C13.0051 66.1641 12.9575 66.1705 12.8624 66.1834C12.7673 66.1962 12.2222 66.4636 12.1746 66.4701L11.9368 66.5022L11.6192 66.3029C11.5305 66.3634 11.4289 66.3287 11.3338 66.3415C11.2862 66.3479 11.2387 66.3544 11.1564 66.4624C11.0137 66.4816 10.7694 66.4662 10.5792 66.4919C10.2462 66.5369 9.93892 66.7722 9.60595 66.8172C9.17784 66.8751 7.79066 66.2876 7.55539 65.9803C7.60938 66.0214 7.75851 66.0497 7.81894 66.1384L7.84079 65.9417C7.52324 65.7425 7.1517 65.5021 6.79944 65.4044C6.80587 65.4519 6.77116 65.5535 6.63488 65.6203L6.65674 65.4236L6.53589 65.2462L6.54874 65.3414C6.41504 65.0688 6.30062 64.939 6.26847 64.7011C6.0872 64.435 5.70922 64.147 5.67065 63.8616C5.65137 63.7189 5.97148 63.5788 5.93291 63.2934L6.00233 63.0903C6.00233 63.0903 5.8532 63.062 5.90077 63.0556C6.75696 61.1477 7.95898 59.29 9.35514 57.7935L9.51326 57.53C9.66878 54.0215 10.354 50.4899 10.9504 47.0188C11.5791 43.7854 12.0599 41.2502 12.3966 38.0079L12.3426 37.9668C10.2021 38.256 6.53686 40.8826 5.53154 42.7622L5.62667 42.7493C5.72181 42.7365 5.97507 42.4601 6.09848 42.2981C6.04835 42.6439 6.03293 42.8882 5.55468 43.2919C5.32327 43.3716 5.0443 43.4577 4.75889 43.4963C4.28322 43.5606 3.69955 43.5426 3.36271 43.2006C3.18787 42.982 2.26736 42.6221 2.48205 42.0603C3.72778 39.8092 6.80679 37.504 9.08874 36.4691C11.1393 35.5138 12.4455 35.1436 14.6811 34.8414ZM9.76144 61.5166C9.11221 62.0887 8.28044 63.4605 7.94876 64.2319L7.96805 64.3746L8.17117 64.444C8.29845 64.669 9.31666 64.6767 9.64963 64.6317C11.5523 64.3745 14.6069 62.6055 16.1779 61.3276C18.753 59.2358 21.58 56.1413 22.9671 53.1446C19.1617 53.6589 14.8832 55.6902 12.3635 58.5494C12.2414 59.4378 11.8853 62.5374 12.4702 63.2817L12.1784 63.2727L11.7824 63.5684C11.2489 63.2046 10.9159 63.2496 10.439 62.5875C9.80001 61.802 9.917 61.5925 9.76144 61.5166ZM14.8727 37.3342C15.3099 40.5688 12.9226 50.1428 12.5948 54.8854C14.0707 53.6203 17.763 51.9104 20.4743 51.544C21.5208 51.4026 22.5519 51.5054 23.5829 51.6082C25.8404 47.5251 25.3312 35.8723 15.0566 37.2609C15.009 37.2674 14.9679 37.3213 14.8727 37.3342ZM31.2241 47.1366L31.2177 47.089L30.9066 46.9373L30.7639 46.9566C30.6687 46.9694 30.4875 46.7033 30.4746 46.6082C30.4669 45.8343 30.7638 45.1644 31.4542 44.5383C31.7332 44.4522 31.917 44.3789 32.1549 44.3468C32.583 44.2889 32.7861 44.3583 33.0085 44.5705L33.0728 45.0461L33.2695 45.068C33.3235 45.1091 33.3299 45.1567 33.3299 45.1567C33.4071 45.7275 32.1652 46.5735 31.7821 46.9643L31.7499 46.7264L31.5918 46.99L31.4015 47.0157L31.2241 47.1366ZM38.9944 50.1551C39.0047 50.5896 39.1037 50.9637 39.1551 51.3443C39.1744 51.487 39.1461 51.6361 39.1178 51.7852L39.1718 51.8264C39.033 52.2326 38.9803 52.9179 38.889 53.3177C38.8954 53.3653 38.8067 53.4257 38.9019 53.4128C37.3155 56.7272 35.9528 59.1878 33.9331 61.4467C33.2646 61.8761 32.8403 62.3209 31.9841 62.4366C30.4581 62.2554 28.7881 61.367 28.5361 58.7855C28.2763 55.4301 30.1275 49.416 30.4206 48.3592L30.544 48.1972C30.5916 48.1908 30.5916 48.1908 30.6392 48.1843C30.9722 48.1393 31.1406 48.3103 31.426 48.2718C31.8129 48.2679 32.0225 48.3849 32.2385 48.5494C32.3246 48.8284 32.484 49.2912 32.4751 49.5831C32.1267 53.4566 30.8347 58.2327 31.619 60.4516C31.6383 60.5943 31.6923 60.6355 31.8825 60.6098C33.4175 60.4992 36.053 54.9119 38.7823 50.3775L38.9185 50.3106L38.9944 50.1551ZM48.0653 44.2308L48.2016 44.164C48.7094 44.3375 48.8997 44.3118 49.0938 44.6731C49.3959 45.1166 49.8639 47.8627 49.9218 48.2908C50.0375 49.147 50.0581 50.0161 50.1738 50.8723L50.1867 50.9674C51.489 50.2102 52.4609 49.1585 54.3816 48.3177C54.4291 48.3113 54.4767 48.3049 54.4767 48.3049C54.7621 48.2663 55.0385 48.5195 55.2828 48.535L55.0514 48.6147C55.1594 48.697 55.3021 48.6777 55.4512 48.706L54.9601 49.0145L54.9254 49.1161C55.1632 49.0839 55.3471 49.0106 55.5373 48.9849C55.4011 49.0518 55.2712 49.1662 55.1414 49.2806L55.0372 49.5853C53.6308 50.6473 51.8001 52.154 50.2895 53.5206L50.1726 55.5223C50.1868 59.9281 48.0952 68.1059 44.1574 70.8662C43.8437 71.0539 42.9155 71.7121 42.4398 71.7764C42.0117 71.8343 41.5643 71.7494 41.0848 71.4268L41.0372 71.4332C40.7544 71.1324 39.5138 70.9125 39.3608 70.4973C39.4019 70.4433 39.3415 70.3546 39.2399 70.3199C39.1319 70.2376 39.0586 70.0538 39.0329 69.8635L39.2451 69.6411C39.2193 69.4508 39.2888 69.2477 39.3042 69.0034L39.4276 68.8414C40.2053 63.8442 43.9862 56.6975 47.6849 53.243C48.0166 52.4716 47.6372 47.873 47.5408 47.1595L47.5151 46.9692C46.6898 48.3885 46.1845 49.6677 45.3116 51.0935C44.3757 52.7699 41.4562 59.1222 39.4583 59.3922C37.7459 59.6236 36.2687 58.3701 36.0694 56.8956C35.5616 53.1377 39.0648 46.8035 42.2994 46.3663C43.2031 46.2442 44.0157 46.5218 44.7999 46.9487C45.3887 46.2879 46.3683 44.218 47.1769 44.1087C47.2721 44.0959 47.7799 44.2694 48.0653 44.2308ZM38.6561 57.7569C39.4892 57.1115 43.5863 49.4376 43.8576 48.5775C43.6004 48.467 43.3562 48.4516 43.1183 48.4837C41.4059 48.7151 39.6575 51.906 38.818 54.296C38.5224 55.6922 38.4697 56.3774 38.6561 57.7569ZM47.7415 56.529L47.7222 56.3863C47.6399 56.4943 47.4625 56.6151 47.3867 56.7707C45.4814 59.1594 41.5321 66.1352 41.95 69.2271L41.9975 69.2206C42.3652 69.0741 42.6789 68.8864 42.6879 68.5945C42.783 68.5817 42.9193 68.5148 42.9065 68.4197L42.9669 68.5084C45.0033 66.7317 46.7041 61.755 47.2671 59.1118C47.3906 58.9498 47.7415 56.529 47.7415 56.529ZM55.1944 45.4954C55.242 45.489 55.4194 45.3681 55.4065 45.273L55.5017 45.2602C55.5492 45.2537 56.021 44.8025 56.687 44.7125C56.9724 44.6739 57.5689 44.787 57.6268 45.2151C57.7103 45.8335 57.5407 46.7283 57.5355 47.4071C57.3761 50.5286 56.2539 54.4098 56.6524 57.359C56.7103 57.7871 56.7874 58.358 57.0291 58.7128L56.8389 58.7385L56.6833 58.6626L56.493 58.6884L56.5535 58.7771L56.4969 59.0753L56.3953 59.0406C56.2333 58.9172 56.1858 58.9236 56.0906 58.9365C54.904 58.7578 54.2201 57.6393 54.0722 56.5453C53.6865 53.6912 54.166 48.6375 55.1031 45.8953L55.071 45.6574L55.1944 45.4954ZM57.1601 43.1954C57.1472 43.1003 56.9981 43.072 56.9981 43.072C56.8554 43.0913 56.6844 43.2597 56.4941 43.2854C56.4466 43.2919 56.4337 43.1967 56.3861 43.2032C56.1959 43.2289 56.174 43.4256 56.0313 43.4449C55.841 43.4706 55.7639 42.8998 55.751 42.8046C55.6803 42.2814 55.8732 41.9163 56.1418 41.3956C56.3668 41.2683 56.6047 41.2362 56.7949 41.2105L57.3182 41.1397C57.6164 41.1963 58.1783 41.411 58.2233 41.744C58.2618 42.0294 57.7116 42.9756 57.3375 43.0746L57.2899 43.081C57.1472 43.1003 57.1536 43.1479 57.1601 43.1954ZM55.1216 40.0319C55.0741 40.0384 55.0265 40.0448 54.9789 40.0512C53.7898 40.212 49.8828 40.6915 50.37 38.2039L50.3571 38.1087C50.3983 38.0547 50.4394 38.0007 50.4394 38.0007C50.5346 37.9879 50.5127 38.1846 50.5127 38.1846C50.802 38.533 50.7827 38.3903 51.0874 38.4944C51.7379 38.6487 52.7972 38.6024 54.034 38.4352C56.2221 38.1395 58.8949 37.4877 60.9081 36.9734C61.3774 36.8615 62.1668 36.6096 63.0577 36.3923C63.2685 35.4435 63.4665 34.3996 63.6297 33.4572C63.6773 33.4508 63.7249 33.4444 63.7724 33.4379C64.0103 33.4058 64.3972 33.4019 64.4924 33.3891C64.54 33.3826 64.5875 33.3762 64.6351 33.3698C64.7778 33.3505 64.8794 33.3852 65.0761 33.4071L65.4605 33.7426C65.5942 34.0152 65.6867 34.3417 65.7253 34.6271C65.7703 34.9601 65.8282 35.3882 65.8385 35.8227C66.1239 35.7841 66.4093 35.7456 66.6947 35.707C69.3584 35.347 71.8423 35.4472 71.4206 37.3448L71.373 37.3512C71.3885 37.107 70.1543 36.9347 68.3943 37.1726C67.538 37.2883 66.6343 37.4104 65.6418 37.593C65.242 41.086 64.1184 46.0331 63.5476 47.9024C62.838 50.1779 62.8034 53.8637 62.8664 55.4052C62.9178 55.7857 62.9281 56.2203 62.9731 56.5532C63.0117 56.8387 63.1107 57.2128 63.2444 57.4853L63.3524 57.5676L63.8216 57.4557C65.363 55.6006 68.1643 50.5237 69.8548 46.9046L70.0168 47.0281L70.1505 47.3006L70.0683 47.4086C70.0875 47.5513 70.463 48.1787 70.5234 48.2674L70.7137 48.2417C70.4488 49.1493 70.1248 48.9025 69.9552 49.7973L69.7276 50.2639C69.6903 50.7049 69.2918 51.34 69.1722 51.889L69.4474 51.4159C69.4191 51.565 69.2481 51.7334 69.1787 51.9365L69.4666 51.5586C69.4384 51.7077 69.3625 51.8633 69.3818 52.006L69.4859 51.7013L69.5117 51.8915C69.0476 53.1167 67.0896 56.1906 66.1434 57.4326C66.0329 57.6897 65.9506 57.7977 65.7667 57.871L65.6973 58.0741C64.9684 58.4148 64.3384 59.1296 63.3871 59.2582C62.3882 59.3932 61.7904 58.5537 61.082 57.9713C60.8081 57.3786 60.4134 56.6086 60.425 55.9773C60.4661 55.9233 60.3029 55.0735 60.2771 54.8833C60.0662 50.4556 61.4572 44.2615 62.6836 38.2834C60.2075 38.9571 57.6903 39.6848 55.1216 40.0319ZM70.0593 43.4865C70.1068 43.48 70.2842 43.3592 70.2714 43.2641L70.3665 43.2512C70.4141 43.2448 70.8859 42.7935 71.5518 42.7035C71.8373 42.6649 72.4338 42.7781 72.4916 43.2062C72.5752 43.8246 72.4055 44.7193 72.4004 45.3981C72.241 48.5196 71.1187 52.4009 71.5173 55.3501C71.5752 55.7782 71.6523 56.349 71.894 56.7038L71.7037 56.7295L71.5482 56.6537L71.3579 56.6794L71.4183 56.7681L71.3618 57.0664L71.2602 57.0317C71.0982 56.9082 71.0506 56.9147 70.9555 56.9275C69.7689 56.7488 69.0849 55.6304 68.9371 54.5363C68.5513 51.6823 69.0308 46.6285 69.968 43.8863L69.9358 43.6485L70.0593 43.4865ZM72.0249 41.1865C72.0121 41.0913 71.8629 41.0631 71.8629 41.0631C71.7202 41.0824 71.5493 41.2508 71.359 41.2765C71.3114 41.2829 71.2986 41.1878 71.251 41.1942C71.0607 41.2199 71.0389 41.4166 70.8962 41.4359C70.7059 41.4616 70.6288 40.8908 70.6159 40.7957C70.5452 40.2724 70.738 39.9073 71.0067 39.3866C71.2317 39.2594 71.4695 39.2272 71.6598 39.2015L72.183 39.1308C72.4813 39.1873 73.0431 39.402 73.0881 39.735C73.1267 40.0204 72.5765 40.9666 72.2023 41.0656L72.1548 41.0721C72.0121 41.0913 72.0185 41.1389 72.0249 41.1865ZM83.9549 51.7801L84.104 51.8084L83.9806 51.9704C83.9806 51.9704 83.9806 51.9704 83.9934 52.0655C84.0063 52.1607 83.7247 52.5862 83.69 52.6878C83.3699 52.8279 82.9585 53.3679 82.5908 53.5144C82.5279 53.7651 82.0715 53.9721 81.8529 54.147C80.1868 55.4378 78.869 56.4393 76.7285 56.7286C75.4853 56.8481 74.6021 56.0472 74.4889 54.8516C74.2395 51.9307 77.987 47.404 79.6004 45.0063C80.0401 44.3172 81.2678 42.6498 81.5236 42.0339L81.3809 42.0532C81.3334 42.0597 81.2858 42.0661 81.2382 42.0725C79.8588 42.259 78.1104 43.6577 77.3428 43.713C76.6229 43.7619 76.0739 43.6423 76.0187 42.8748C75.9608 42.4467 76.0932 41.9929 76.0829 41.5583L76.2063 41.3964C77.5344 40.8294 78.7955 40.1261 80.3177 39.9204C81.656 39.788 83.3415 40.4321 83.4996 41.9606C83.7799 44.393 79.5156 49.038 78.2223 51.2955C77.6245 52.2482 77.1218 53.188 76.7336 54.2576L76.7465 54.3527C76.7465 54.3527 76.8892 54.3335 76.9367 54.327C77.631 54.0879 83.9947 50.9998 84.1914 51.0216L84.2107 51.1643C84.1824 51.3135 84.0654 51.523 83.942 51.685L83.9549 51.7801ZM97.7011 42.4632C97.714 42.5583 97.7333 42.701 97.651 42.809L97.8194 42.98C97.858 43.2654 97.6651 43.6305 97.6973 43.8683C97.7037 43.9159 97.8053 43.9506 97.8053 43.9506L97.9673 44.074C98.0033 44.6988 97.5983 45.2864 97.4723 45.7878C96.7074 49.0879 92.699 54.9092 89.9876 55.2757C89.8449 55.2949 89.7433 55.2602 89.6482 55.2731C86.546 55.2564 85.1601 53.6031 84.8978 50.5871C84.6445 47.2792 86.5214 41.4554 88.7378 39.2184L88.8136 39.0628C88.8484 38.9613 89.4667 38.8777 89.657 38.852C89.99 38.807 91.2306 39.0268 91.5353 39.1309C92.5252 39.2878 93.0459 39.5564 93.1937 40.6505C93.7787 44.9791 88.5245 45.883 88.1979 45.9756C87.7403 47.2483 86.5087 53.9052 89.1725 53.5452C91.4082 53.2431 95.0361 47.4732 96.1044 45.3429C96.4078 44.7207 97.2164 42.8193 97.7011 42.4632ZM90.6624 40.5567C90.314 40.846 89.2392 42.9287 88.8034 44.0047C90.7434 43.3066 91.7963 41.4206 90.6624 40.5567ZM105.548 43.3886C105.111 45.5304 104.986 48.5503 105.231 50.3579L105.276 50.6908C106.228 49.4965 107.881 42.7341 107.978 41.6555C107.836 40.609 108.014 38.696 108.406 38.0134C108.387 37.8707 108.482 37.8578 108.475 37.8102C108.57 37.7974 108.618 37.791 108.666 37.7845C108.808 37.7652 108.754 37.7241 109.04 37.6855C109.04 37.6855 109.414 37.5865 109.461 37.5801C110.378 37.5531 110.35 39.4944 110.186 40.4367C111.17 40.546 112.711 40.483 113.913 40.4174C113.87 40.8108 113.731 41.2171 113.471 41.4459C113.348 41.6079 113.233 41.478 113.021 41.7005C113.218 41.7223 113.266 41.7159 113.313 41.7094C113.136 41.8303 113.257 42.0077 112.841 42.1607C112.705 42.2276 112.515 42.2533 112.324 42.279C111.706 42.3626 110.783 42.342 109.955 42.3086C109.735 43.5492 108.311 50.5712 106.895 51.925C106.832 52.1757 106.595 52.2078 106.465 52.3223C106.382 52.4303 106.246 52.4971 106.056 52.5228C104.106 52.7864 102.801 52.0909 102.511 49.9504C102.151 47.2866 102.648 44.5071 103.074 41.9307C103.209 41.1375 103.591 38.2281 103.456 37.2292C103.398 36.8011 103.645 36.4771 103.41 36.1699C103.432 35.9732 103.473 35.9192 103.52 35.9127C103.806 35.8742 104.091 35.8356 104.424 35.7906C106.898 35.4563 106.265 40.0948 105.95 41.3483C105.79 41.9512 105.806 42.4333 105.548 43.3886ZM124.504 38.8408C124.517 38.9359 124.536 39.0786 124.454 39.1866L124.623 39.3576C124.661 39.643 124.468 40.0081 124.5 40.2459C124.507 40.2935 124.608 40.3282 124.608 40.3282L124.77 40.4516C124.806 41.0764 124.402 41.664 124.276 42.1653C123.511 45.4655 119.502 51.2868 116.791 51.6533C116.648 51.6725 116.547 51.6378 116.451 51.6507C113.349 51.634 111.963 49.9807 111.701 46.9647C111.448 43.6568 113.325 37.833 115.541 35.596L115.617 35.4404C115.652 35.3389 116.27 35.2553 116.46 35.2296C116.793 35.1846 118.034 35.4044 118.338 35.5085C119.328 35.6654 119.849 35.934 119.997 37.0281C120.582 41.3567 115.328 42.2606 115.001 42.3532C114.543 43.6259 113.312 50.2828 115.976 49.9228C118.211 49.6207 121.839 43.8508 122.908 41.7205C123.211 41.0983 124.02 39.1969 124.504 38.8408ZM117.466 36.9343C117.117 37.2235 116.042 39.3063 115.607 40.3823C117.547 39.6842 118.599 37.7982 117.466 36.9343ZM126.685 46.9255C126.453 48.071 126.464 49.2319 125.927 50.2732C125.81 50.4828 125.576 50.9019 125.249 50.9945L125.148 50.9598L124.964 51.033C124.964 51.033 124.897 50.8968 124.707 50.9225C123.24 50.1036 123.125 49.9737 122.894 48.2613C122.399 44.5986 123.733 38.7028 124.447 35.022L124.78 33.1849C124.91 33.0705 124.998 33.0101 125.141 32.9908C125.189 32.9843 125.29 33.019 125.385 33.0062C126.207 32.992 126.842 33.3906 126.893 33.7711C127.106 35.3408 126.051 40.0848 125.798 42.1533C126.83 39.3982 129.102 34.3445 132.146 33.933C132.289 33.9137 132.486 33.9356 132.73 33.951L133.015 33.9124L133.327 34.0641C133.441 34.194 133.689 34.5964 133.654 34.698C133.782 34.9229 133.624 35.1865 133.786 35.3099L133.811 35.5002C133.818 35.5477 133.778 36.3281 133.778 36.3281L133.791 36.4232C133.616 36.2047 133.018 35.3652 132.923 35.378C132.637 35.4166 132.105 35.7792 131.804 36.062C128.729 38.7541 127.427 43.0956 126.685 46.9255ZM134.253 47.162C134.138 46.3058 135.531 45.1488 135.715 45.0755L135.912 45.0973L135.678 45.5164L135.684 45.564L136.225 44.9096C136.292 45.0459 136.245 45.0523 136.394 45.0806L136.504 44.8235L136.666 44.9469C136.53 45.0138 136.473 45.312 136.439 45.4136L136.686 45.0896L136.806 45.267L136.061 46.9178L136.134 47.1016C137.038 46.9794 138.581 45.8507 138.446 44.8517C138.24 43.3296 134.603 40.4306 134.198 37.4338C133.825 34.6749 136.471 31.3143 139.23 30.9414C139.8 30.8643 142.372 31.9699 142.449 32.5407L142.462 32.6358C142.247 33.1976 141.883 35.5233 141.217 35.6133C140.789 35.6712 140.716 35.4873 140.418 35.4308C140.338 35.1993 140.384 34.4665 140.441 34.1683C140.439 33.4419 140.639 33.1244 139.982 32.9225C138.555 33.1154 136.574 35.6596 136.766 37.0867C137.075 39.3699 140.492 41.7174 140.865 44.4763C141.161 46.6644 138.763 48.6353 136.765 48.9053C135.957 49.0146 134.369 48.0183 134.253 47.162ZM145.544 31.6864L145.538 31.6388L145.227 31.4871L145.084 31.5064C144.989 31.5193 144.808 31.2532 144.795 31.158C144.787 30.3841 145.084 29.7143 145.774 29.0882C146.053 29.002 146.237 28.9288 146.475 28.8966C146.903 28.8388 147.106 28.9082 147.329 29.1203L147.393 29.596L147.59 29.6178C147.644 29.659 147.65 29.7065 147.65 29.7065C147.727 30.2774 146.485 31.1233 146.102 31.5141L146.07 31.2763L145.912 31.5398L145.722 31.5656L145.544 31.6864ZM153.314 34.7049C153.325 35.1395 153.424 35.5136 153.475 35.8941C153.494 36.0368 153.466 36.186 153.438 36.3351L153.492 36.3762C153.353 36.7825 153.3 37.4677 153.209 37.8675C153.216 37.9151 153.127 37.9755 153.222 37.9627C151.636 41.277 150.273 43.7377 148.253 45.9965C147.585 46.4259 147.16 46.8708 146.304 46.9865C144.778 46.8052 143.108 45.9169 142.856 43.3354C142.596 39.9799 144.448 33.9658 144.741 32.909L144.864 32.7471C144.912 32.7406 144.912 32.7406 144.959 32.7342C145.292 32.6892 145.461 32.8602 145.746 32.8216C146.133 32.8177 146.343 32.9347 146.559 33.0993C146.645 33.3783 146.804 33.8411 146.795 34.1329C146.447 38.0065 145.155 42.7825 145.939 45.0015C145.958 45.1442 146.012 45.1853 146.203 45.1596C147.738 45.049 150.373 39.4617 153.102 34.9273L153.239 34.8605L153.314 34.7049ZM161.962 31.744C160.263 32.0706 158.894 32.6916 157.458 33.1763C157.678 33.7278 157.904 34.3269 158.029 34.8913C158.295 36.5021 157.843 39.6146 157.472 41.1663C157.081 42.5754 155.709 45.3279 154.051 45.6005C152.339 45.8319 151.265 45.0567 150.843 43.37C150.068 39.067 153.516 31.9653 153.764 30.5755L153.84 30.4199L154.534 30.1808C154.677 30.1615 154.772 30.1487 154.915 30.1294C155.628 30.033 156.028 30.1242 156.505 30.7863C156.411 31.5255 156.195 31.361 155.974 31.8752C156.123 31.9035 156.177 31.9447 156.231 31.9858C157.363 31.397 158.928 30.7979 160.152 30.5356C160.438 30.497 161.05 30.3659 161.62 30.2887C162.429 30.1794 163.251 30.1653 163.499 30.5677L163.074 31.0125L163.128 31.0536L162.992 31.1205L163.065 31.3043C163.018 31.3108 163.024 31.3583 163.031 31.4059C163.031 31.4059 163.152 31.5833 163.199 31.5769L163.11 31.6373C162.724 31.6412 162.343 31.6926 161.962 31.744ZM153.312 43.7145C153.379 43.8507 153.398 43.9934 153.424 44.1837C153.566 44.1644 153.69 44.0024 153.718 43.8533C155.145 41.8683 155.992 36.668 155.541 34.404C155.509 34.1662 155.347 34.0428 155.267 33.8114C154.439 35.5701 153.974 37.8611 153.816 38.1246C153.407 40.1173 153.094 42.8235 153.312 43.7145ZM175.562 32.2311C175.711 32.2593 175.743 32.4972 175.728 32.7414C175.978 32.8044 175.956 33.0011 175.989 33.239C175.863 33.7404 176.165 34.1839 176.093 34.7264C175.114 37.5226 173.632 42.3244 170.488 43.4275C168.68 43.6718 167.507 42.5225 167.203 40.6262C166.786 38.2607 167.721 34.0657 167.5 32.7878C167.467 32.55 167.357 32.8071 167.357 32.8071C165.479 36.1124 163.674 39.6016 162.967 43.3299C162.895 43.8724 162.81 44.3198 162.734 44.4754C162.591 44.4947 162.503 44.5551 162.468 44.6567C162.366 44.622 162.319 44.6284 162.319 44.6284C162.271 44.6348 162.278 44.6824 162.135 44.7017C161.932 44.6322 162.021 44.5718 161.871 44.5435L161.837 44.6451C161.58 44.5345 161.418 44.4111 161.227 44.4368C161.018 44.3199 160.992 44.1296 160.789 44.0602L160.687 44.0255C160.554 43.7529 160.439 43.6231 160.394 43.2901C159.814 40.0748 161.916 32.3315 161.536 30.5908C161.529 30.5432 161.504 30.353 161.497 30.3054L161.506 30.0136C161.798 30.0226 162.321 29.9518 162.823 30.0778C164.307 30.3131 163.923 33.5618 163.738 34.7009L163.716 34.8976C164.073 34.3165 166.138 30.5985 167.368 30.3837C168.238 30.3632 169.307 30.7514 169.622 31.2901C169.683 31.3788 169.715 31.6166 169.788 31.8005C170.629 33.7211 169.012 39.3161 170.18 41.8706L170.228 41.8642C171.331 41.4245 173.18 37.5419 174.5 34.4089C174.673 33.9011 175.397 32.447 175.562 32.2311ZM190.995 27.8203C189.296 28.1468 187.927 28.7678 186.491 29.2525C186.71 29.804 186.937 30.4031 187.061 30.9675C187.328 32.5784 186.876 35.6908 186.505 37.2426C186.114 38.6516 184.742 41.4041 183.084 41.6767C181.371 41.9081 180.298 41.1329 179.876 39.4462C179.101 35.1433 182.549 28.0415 182.797 26.6518L182.873 26.4962L183.567 26.2571C183.71 26.2378 183.805 26.2249 183.948 26.2056C184.661 26.1092 185.061 26.2005 185.538 26.8626C185.444 27.6018 185.228 27.4372 185.007 27.9515C185.156 27.9798 185.21 28.0209 185.264 28.062C186.395 27.4732 187.961 26.8741 189.185 26.6118C189.471 26.5733 190.083 26.4421 190.653 26.365C191.462 26.2557 192.284 26.2415 192.532 26.6439L192.107 27.0887L192.161 27.1299L192.025 27.1967L192.098 27.3806C192.051 27.387 192.057 27.4346 192.064 27.4821C192.064 27.4821 192.185 27.6596 192.232 27.6531L192.143 27.7136C191.756 27.7174 191.376 27.7688 190.995 27.8203ZM182.345 39.7907C182.412 39.927 182.431 40.0697 182.457 40.26C182.599 40.2407 182.723 40.0787 182.751 39.9296C184.178 37.9446 185.025 32.7442 184.574 30.4803C184.542 30.2425 184.38 30.119 184.3 29.8876C183.472 31.6464 183.007 33.9373 182.849 34.2009C182.44 36.1936 182.127 38.8998 182.345 39.7907ZM193.849 29.0814C194.059 29.1984 194.18 29.3758 194.342 29.4992C196.701 29.0351 200.324 27.5283 201.89 26.9292C202.543 26.744 203.138 26.1308 203.962 25.7772L204.083 25.9546L203.864 26.1295L204.102 26.0973L204.188 26.3763L203.656 26.7389L203.894 26.7067L203.961 26.843L203.632 27.275C203.42 27.4974 203.039 27.5488 202.827 27.7712C201.507 29.1121 198.026 30.5996 195.496 31.2322L195.63 31.5047C196.737 33.2442 197.633 35.9324 198.385 37.9135C199.294 40.6968 199.873 46.77 198.825 49.7694L198.784 49.8234L198.812 49.6743C198.636 50.5215 198.007 51.9627 197.479 52.7122C197.325 53.3627 196.232 54.2369 195.544 54.5236L195.522 54.7203C195.427 54.7332 195.38 54.7396 195.243 54.8065C191.676 55.2886 190.388 51.4909 189.764 48.669C188.667 43.7799 189.011 37.0008 189.99 31.3467C189.999 31.0548 190.263 29.4208 190.297 29.3193C190.243 29.2781 189.688 29.111 189.669 28.9683L189.662 28.9207C189.887 28.7935 190.131 28.8089 190.296 28.5929C190.467 28.4245 190.554 27.6377 190.665 27.3806C191.562 21.8344 193.316 14.3804 195.711 9.16466C195.967 8.54885 196.577 7.69134 196.69 7.09481C196.814 6.93283 197.454 6.65255 197.787 6.60755L198.025 6.57541C198.345 6.43527 199.57 6.89937 199.777 7.35575C199.803 7.54603 199.835 7.78386 199.921 8.06284C200.695 11.6394 197.914 21.1697 195.775 23.9775C195.639 24.0443 195.496 24.0636 195.401 24.0765C195.629 23.6098 195.757 22.769 195.924 22.2136C196.39 19.9227 198.659 11.624 198.132 9.5156C197.322 10.6907 193.142 27.4332 193.446 28.6031C193.478 28.841 193.729 28.904 193.849 29.0814ZM196.54 40.3909C195.831 37.29 194.788 34.2341 193.207 31.4932C193.099 31.4109 192.997 31.3762 192.896 31.3415C192.437 33.68 191.82 39.8664 192.144 45.4897C192.157 45.5848 192.223 45.7211 192.23 45.7686C192.393 46.6184 192.284 47.6019 192.549 48.4864C192.772 49.4249 193.568 52.8048 195.138 52.5926C195.186 52.5862 195.233 52.5798 195.281 52.5734C195.94 52.4358 196.22 51.2839 196.388 50.7285C197.327 47.6469 197.25 43.4918 196.54 40.3909ZM217.381 24.2544C215.681 24.5809 214.312 25.2019 212.876 25.6866C213.096 26.2381 213.322 26.8372 213.447 27.4016C213.713 29.0125 213.262 32.1249 212.89 33.6767C212.499 35.0857 211.127 37.8382 209.469 38.1108C207.757 38.3422 206.683 37.567 206.261 35.8803C205.486 31.5774 208.934 24.4756 209.182 23.0859L209.258 22.9303L209.952 22.6912C210.095 22.6719 210.19 22.659 210.333 22.6397C211.046 22.5433 211.446 22.6346 211.923 23.2967C211.829 24.0359 211.613 23.8713 211.392 24.3856C211.541 24.4139 211.595 24.455 211.649 24.4961C212.781 23.9073 214.346 23.3082 215.57 23.0459C215.856 23.0073 216.468 22.8762 217.039 22.7991C217.847 22.6898 218.669 22.6756 218.917 23.078L218.493 23.5228L218.547 23.564L218.41 23.6308L218.484 23.8147C218.436 23.8211 218.442 23.8687 218.449 23.9162C218.449 23.9162 218.57 24.0937 218.617 24.0872L218.529 24.1477C218.142 24.1515 217.761 24.2029 217.381 24.2544ZM208.73 36.2248C208.797 36.3611 208.816 36.5038 208.842 36.6941C208.984 36.6748 209.108 36.5128 209.136 36.3637C210.563 34.3787 211.41 29.1783 210.959 26.9144C210.927 26.6765 210.765 26.5531 210.685 26.3217C209.857 28.0805 209.392 30.3714 209.234 30.635C208.825 32.6277 208.512 35.3339 208.73 36.2248ZM227.999 35.655C227.561 36.0047 227.555 35.9571 226.833 36.3454C225.868 36.3788 224.716 36.0986 224.287 35.4301C223.066 33.5608 223.782 29.5407 223.954 28.3065C223.354 29.5985 220.662 35.4841 218.902 35.722C218.616 35.7605 218.324 35.7515 218.121 35.6821C216.843 35.9033 216.285 34.2834 216.144 33.2369C215.675 29.7645 217.298 26.0092 217.657 22.5702L217.694 22.1292C217.688 22.0816 217.675 21.9865 217.621 21.9454C217.662 21.8914 217.757 21.8785 217.9 21.8592C218.043 21.8399 218.185 21.8207 218.233 21.8142C218.715 21.7975 219.007 21.8065 219.264 21.9171C219.711 22.0019 220.074 22.5341 220.138 23.0098C220.472 25.4833 218.606 29.9496 219.017 32.9939C220.635 30.9832 223.411 24.6502 224.984 22.3065L224.964 22.1638L225.101 22.097C225.351 22.16 225.589 22.1278 225.779 22.1021C226.017 22.07 226.255 22.0378 226.553 22.0944C227.001 22.1792 227.242 22.5341 227.142 23.2257C226.811 25.7892 225.786 32.9025 226.528 34.4491L226.623 34.4363C226.766 34.417 226.848 34.309 227.073 34.1817C228.607 31.5526 230.081 27.769 231.806 24.0485L231.839 24.2863C231.893 24.3274 231.851 24.3814 231.858 24.429C231.884 24.6193 232.026 24.6 231.957 24.8031C231.976 24.9458 232.002 25.1361 231.974 25.2852L231.986 25.3803C232.015 25.2312 232.056 25.1772 232.043 25.0821L232.11 25.2184C232.062 25.2248 232.082 25.3675 232.272 25.3418C232.285 25.4369 232.209 25.5925 232.304 25.5796C232.304 25.5796 232.352 25.5732 232.393 25.5192L232.406 25.6143L232.377 25.7634L232.289 25.8239L232.301 25.919C232.463 26.0424 232.366 26.3947 232.201 26.6107C232.287 26.8896 231.99 27.5595 231.839 27.8706C231.845 27.9181 231.918 28.102 231.782 28.1688C231.855 28.3527 231.684 28.5211 231.608 28.6767C231.414 30.1075 229.23 34.3745 227.999 35.655ZM234.409 32.3668C234.176 33.5123 234.188 34.6732 233.651 35.7146C233.534 35.9241 233.3 36.3432 232.973 36.4358L232.872 36.4011L232.688 36.4744C232.688 36.4744 232.621 36.3381 232.431 36.3638C230.964 35.5449 230.849 35.415 230.618 33.7026C230.123 30.0399 231.457 24.1441 232.171 20.4634L232.504 18.6262C232.633 18.5118 232.722 18.4514 232.865 18.4321C232.912 18.4257 233.014 18.4604 233.109 18.4475C233.931 18.4334 234.566 18.8319 234.617 19.2124C234.829 20.7822 233.775 25.5261 233.522 27.5946C234.554 24.8396 236.826 19.7858 239.87 19.3744C240.013 19.3551 240.21 19.3769 240.454 19.3923L240.739 19.3538L241.05 19.5055C241.165 19.6353 241.413 20.0377 241.378 20.1393C241.505 20.3643 241.347 20.6278 241.509 20.7512L241.535 20.9415C241.541 20.9891 241.502 21.7694 241.502 21.7694L241.514 21.8646C241.34 21.646 240.742 20.8065 240.647 20.8194C240.361 20.8579 239.829 21.2205 239.528 21.5033C236.453 24.1954 235.151 28.537 234.409 32.3668ZM53.4796 73.3521C53.6738 73.7133 54.8488 76.3154 54.8938 76.6483C54.9453 77.0289 54.4452 77.6293 54.0646 77.6807C52.3046 77.9186 51.1501 72.6013 49.1047 72.8777C48.2009 72.9999 46.9384 74.7689 46.4512 75.4644C43.1575 80.1235 40.9824 87.6829 41.7474 93.3435C41.9981 95.1986 42.7618 100.133 45.4732 99.7663C47.9943 99.4256 52.0348 90.2579 52.4629 90.2L52.5233 90.2887L52.5709 90.2823C52.6378 90.4186 52.711 90.6024 52.6956 90.8467L52.7882 91.1732L52.801 91.2684C52.8332 91.5062 52.9412 91.5885 52.9669 91.7787C53.0055 92.0641 52.0644 94.4194 51.8999 94.6354C51.9256 94.8256 51.8433 94.9336 51.7675 95.0892L51.8472 95.3206C51.3317 96.1653 50.8226 97.0575 50.3135 97.9497L50.3263 98.0448C49.6244 99.3022 46.7421 101.629 45.3151 101.822C41.4621 102.343 39.3961 98.1658 38.9525 94.8837C38.091 88.5096 39.9962 78.9524 44.5922 73.536C45.4278 72.5512 46.9603 70.9879 48.197 70.8208C50.0046 70.5765 52.4935 71.79 53.4796 73.3521ZM63.3239 84.6635C63.8947 84.5864 65.7794 84.9129 66.1368 86.1239C66.8517 88.546 65.5237 92.6973 65.9222 95.6465C65.9801 96.0746 65.9338 96.8074 66.3054 97.0478L66.4481 97.0285C67.7825 96.5091 70.6879 89.3353 71.6135 87.2243L71.782 87.3953L71.8514 87.1922C71.9722 87.3696 72.0802 87.4519 72.1059 87.6422C72.1638 88.0703 72.0314 88.5241 71.9877 88.9175L72.07 88.8095L72.0828 88.9046C72.0327 89.2505 71.9285 89.5552 71.8784 89.901L72.106 89.4343L71.9736 89.8881L72.1381 89.6721L71.8 90.3959C71.6419 90.6595 71.5917 91.0053 71.5352 91.3036C71.0287 93.6486 68.793 97.535 67.5319 98.2382C67.294 98.2704 67.0819 98.4928 66.8916 98.5185C66.6538 98.5507 66.3555 98.4941 66.1177 98.5262C65.6227 98.4478 64.6482 98.0467 64.4824 97.5363C63.8344 97.0427 63.4834 95.8792 63.3742 95.0705C62.9563 91.9787 64.4887 86.831 63.8536 86.4325C62.4818 87.3929 59.9454 95.1464 59.0648 97.5904C58.9697 97.6033 58.8746 97.6161 58.7794 97.629C58.3513 97.6868 57.7265 97.7228 57.346 97.7743C56.7276 97.8578 56.6067 97.6804 56.1246 97.6971C55.4445 96.9656 55.2851 96.5028 55.1977 95.4975C54.5856 88.46 58.6879 76.5231 57.8509 76.7815L57.9139 76.5308C58.5387 76.4948 58.6814 76.4755 59.0273 76.5256C61.5149 77.0129 59.3333 84.5247 58.8217 85.7563C58.1095 88.3713 57.8781 92.0353 57.9167 94.1128C58.5055 91.6599 60.8979 84.9914 63.3239 84.6635ZM74.2321 94.3781C73.9994 95.5236 74.011 96.6845 73.4736 97.7258C73.3567 97.9354 73.1227 98.3545 72.7961 98.4471L72.6946 98.4124L72.5107 98.4856C72.5107 98.4856 72.4439 98.3494 72.2536 98.3751C70.7867 97.5562 70.6723 97.4263 70.4409 95.7139C69.9459 92.0512 71.2802 86.1554 71.9937 82.4746L72.3267 80.6375C72.4565 80.5231 72.5452 80.4627 72.6879 80.4434C72.7355 80.4369 72.837 80.4716 72.9322 80.4588C73.7537 80.4446 74.3888 80.8432 74.4402 81.2237C74.6524 82.7934 73.5982 87.5374 73.345 89.6059C74.3773 86.8508 76.6489 81.7971 79.6932 81.3856C79.8359 81.3663 80.0326 81.3882 80.2769 81.4036L80.5623 81.365L80.8734 81.5167C80.9878 81.6466 81.236 82.049 81.2013 82.1505C81.3285 82.3755 81.1704 82.6391 81.3324 82.7625L81.3581 82.9528C81.3645 83.0003 81.3247 83.7807 81.3247 83.7807L81.3376 83.8758C81.1627 83.6573 80.5649 82.8178 80.4698 82.8306C80.1844 82.8692 79.6521 83.2318 79.3513 83.5146C76.2761 86.2067 74.9739 90.5482 74.2321 94.3781ZM83.7541 80.4009L83.7476 80.3533L83.4365 80.2016L83.2938 80.2209C83.1987 80.2338 83.0174 79.9676 83.0045 79.8725C82.9968 79.0986 83.2938 78.4288 83.9841 77.8027C84.2631 77.7165 84.447 77.6432 84.6848 77.6111C85.1129 77.5532 85.316 77.6227 85.5384 77.8348L85.6027 78.3105L85.7994 78.3323C85.8534 78.3735 85.8599 78.421 85.8599 78.421C85.937 78.9918 84.6951 79.8378 84.312 80.2286L84.2799 79.9908L84.1217 80.2543L83.9315 80.28L83.7541 80.4009ZM91.5243 83.4194C91.5346 83.8539 91.6336 84.2281 91.685 84.6086C91.7043 84.7513 91.676 84.9004 91.6478 85.0496L91.7018 85.0907C91.5629 85.497 91.5102 86.1822 91.4189 86.582C91.4254 86.6296 91.3367 86.69 91.4318 86.6771C89.8454 89.9915 88.4827 92.4522 86.463 94.711C85.7945 95.1404 85.3703 95.5852 84.514 95.7009C82.988 95.5197 81.318 94.6314 81.066 92.0499C80.8063 88.6944 82.6575 82.6803 82.9506 81.6235L83.074 81.4615C83.1215 81.4551 83.1215 81.4551 83.1691 81.4487C83.5021 81.4037 83.6705 81.5747 83.9559 81.5361C84.3429 81.5322 84.5524 81.6492 84.7684 81.8138C84.8546 82.0927 85.014 82.5556 85.005 82.8474C84.6566 86.7209 83.3647 91.497 84.1489 93.716C84.1682 93.8587 84.2222 93.8998 84.4125 93.8741C85.9475 93.7635 88.5829 88.1762 91.3122 83.6418L91.4485 83.575L91.5243 83.4194ZM90.1151 93.4909C89.9994 92.6347 91.393 91.4776 91.5768 91.4043L91.7735 91.4262L91.5396 91.8453L91.546 91.8928L92.0872 91.2385C92.1541 91.3747 92.1065 91.3812 92.2557 91.4094L92.3662 91.1523L92.5282 91.2757C92.3919 91.3426 92.3354 91.6409 92.3007 91.7424L92.5475 91.4184L92.6683 91.5959L91.9227 93.2466L91.996 93.4304C92.8998 93.3083 94.4425 92.1795 94.3075 91.1806C94.1018 89.6584 90.4647 86.7594 90.0597 83.7627C89.6869 81.0037 92.3326 77.6431 95.0915 77.2702C95.6623 77.1931 98.2336 78.2987 98.3107 78.8695L98.3236 78.9646C98.1089 79.5265 97.7451 81.8521 97.0791 81.9421C96.651 82 96.5778 81.8162 96.2795 81.7596C96.1998 81.5282 96.2461 80.7954 96.3026 80.4971C96.3013 79.7707 96.5006 79.4532 95.8436 79.2514C94.4166 79.4442 92.4355 81.9885 92.6284 83.4155C92.937 85.6987 96.3541 88.0462 96.727 90.8051C97.0227 92.9933 94.6251 94.9641 92.6272 95.2341C91.8186 95.3434 90.2309 94.3471 90.1151 93.4909ZM93.9945 75.142C93.9469 75.1484 93.8993 75.1549 93.8518 75.1613C92.6626 75.322 88.7556 75.8016 89.2428 73.3139L89.23 73.2188C89.2711 73.1648 89.3123 73.1108 89.3123 73.1108C89.4074 73.0979 89.3855 73.2946 89.3855 73.2946C89.6748 73.643 89.6555 73.5003 89.9602 73.6045C90.6107 73.7587 91.6701 73.7124 92.9068 73.5453C95.0949 73.2496 97.7677 72.5977 99.781 72.0835C100.25 71.9716 101.04 71.7196 101.931 71.5023C102.141 70.5535 102.339 69.5096 102.503 68.5673C102.55 68.5608 102.598 68.5544 102.645 68.548C102.883 68.5158 103.27 68.512 103.365 68.4991C103.413 68.4927 103.46 68.4863 103.508 68.4798C103.651 68.4606 103.752 68.4953 103.949 68.5171L104.333 68.8527C104.467 69.1252 104.56 69.4517 104.598 69.7372C104.643 70.0701 104.701 70.4982 104.711 70.9328C104.997 70.8942 105.282 70.8556 105.568 70.8171C108.231 70.457 110.715 70.5573 110.293 72.4549L110.246 72.4613C110.261 72.217 109.027 72.0448 107.267 72.2826C106.411 72.3983 105.507 72.5205 104.515 72.7031C104.115 76.1961 102.991 81.1431 102.42 83.0124C101.711 85.288 101.676 88.9738 101.739 90.5152C101.791 90.8958 101.801 91.3303 101.846 91.6633C101.884 91.9487 101.983 92.3228 102.117 92.5954L102.225 92.6776L102.694 92.5658C104.236 90.7106 107.037 85.6337 108.728 82.0147L108.89 82.1381L109.023 82.4107L108.941 82.5186C108.96 82.6614 109.336 83.2887 109.396 83.3774L109.586 83.3517C109.322 84.2594 108.998 84.0125 108.828 84.9073L108.6 85.374C108.563 85.815 108.165 86.4501 108.045 86.999L108.32 86.5259C108.292 86.675 108.121 86.8435 108.052 87.0466L108.339 86.6686C108.311 86.8177 108.235 86.9733 108.255 87.116L108.359 86.8113L108.384 87.0016C107.92 88.2268 105.962 91.3007 105.016 92.5426C104.906 92.7997 104.823 92.9077 104.64 92.981L104.57 93.1841C103.841 93.5248 103.211 94.2396 102.26 94.3682C101.261 94.5032 100.663 93.6637 99.9548 93.0814C99.681 92.4887 99.2863 91.7186 99.2978 91.0874C99.339 91.0334 99.1757 90.1836 99.15 89.9933C98.9391 85.5657 100.33 79.3716 101.556 73.3935C99.0804 74.0672 96.5631 74.7949 93.9945 75.142ZM121.769 89.3582C121.435 88.6768 121.245 86.9104 121.363 85.6351C121.495 83.3891 122.228 78.059 122.065 77.2092C121.394 77.978 120.923 79.1556 120.345 80.251C119.166 82.6384 118.555 85.288 117.843 87.9029C117.752 88.3028 117.2 90.3148 116.947 90.5912L116.804 90.6105L116.577 91.0771C116.415 90.9537 116.199 90.7892 116.078 90.6118L115.961 90.8213L115.866 90.8342L115.65 90.6696L115.479 90.838C115.377 90.8033 114.608 90.1322 114.535 89.9484L114.516 89.8057L114.544 89.6566L114.531 89.5614C114.896 87.9621 115.253 80.2125 115.039 78.9821L114.944 78.995C113.668 80.6689 112.226 84.6903 111.665 86.9941C111.233 88.4571 111.1 89.9767 110.655 91.3446C110.443 91.567 110.218 91.6943 110.107 91.9514L109.917 91.9772C109.809 91.8949 109.66 91.8666 109.565 91.8795C109.375 91.9052 109.15 92.0324 109.061 92.0929L108.763 92.0363C108.223 91.6249 107.758 91.058 107.668 90.392C107.019 85.5877 108.54 79.2792 108.747 76.1513C109.365 76.0677 110.336 76.0818 110.8 76.6488C110.962 76.7722 111.112 77.5269 111.11 77.8663C111.129 79.8011 110.543 81.9147 110.535 82.9329C111.104 81.403 112.621 78.2918 114.053 77.4201C114.265 77.1977 115.264 77.0627 115.549 77.0241C117.214 76.7991 117.404 80.3577 117.526 81.2615C118.092 80.071 120.19 75.525 121.271 75.2821C121.55 75.1959 121.788 75.1638 122.074 75.1252L122.454 75.0738C123.643 74.9131 124.334 76.0791 124.482 77.1731C124.861 79.9796 124.352 82.664 124.1 85.4589C124.029 86.7278 123.955 87.6098 123.985 88.9134C124.005 89.0561 124.059 89.0972 124.119 89.1859L124.316 89.2078C125.22 89.0856 128.839 81.8154 130.408 78.019L130.485 78.5898L130.546 78.6785C130.6 78.7197 130.701 78.7544 130.714 78.8495L130.619 78.8624L130.638 79.0051C130.645 79.0526 130.74 79.0398 130.753 79.1349L130.467 79.1735C130.617 79.2018 130.759 79.1825 130.807 79.176C131.144 79.518 130.916 79.9847 130.419 80.2457C130.676 80.3562 130.879 80.4257 130.784 80.4385C130.784 80.4385 130.689 80.4514 130.539 80.4231C130.762 80.6352 130.87 80.7175 130.746 80.8795C130.854 80.9618 130.813 81.0158 130.617 80.9939C130.376 83.1576 126.945 90.7415 124.376 91.0886C124.281 91.1015 124.138 91.1208 124.037 91.086C122.593 90.7968 122.276 90.5975 121.769 89.3582ZM139.911 75.9113C139.413 79.0302 138.968 82.1902 139.398 85.3772C139.424 85.5675 139.715 86.6423 139.857 86.623C141.142 86.4494 143.985 80.2527 144.896 78.386L146.352 75.1861C146.514 75.3095 146.455 75.9472 146.563 76.0295C146.725 76.1529 146.463 76.7211 146.688 76.5938L146.672 76.8381L146.834 76.9615L146.854 77.1042C146.933 77.3356 146.555 78.8398 146.467 78.9002C145.88 81.0138 142.683 88.1785 140.305 88.5C139.972 88.545 139.877 88.5578 139.626 88.4948C139.423 88.4254 139.328 88.4383 139.22 88.356C137.519 87.9562 136.97 86.0445 136.758 84.4748C136.52 82.7148 136.643 80.7606 136.888 78.9839L136.84 78.9903C135.908 81.0538 133.148 87.8688 131.388 88.1067C129.485 88.3638 128.68 87.0679 128.36 85.4159C127.717 82.4513 130.535 74.2722 133.817 73.8286C134.816 73.6936 135.781 73.6602 136.515 74.4329C136.948 73.6962 137.457 72.804 137.776 71.9375L137.649 71.7125C137.731 71.6045 137.861 71.4901 138.003 71.4708C138.812 71.3615 140.122 71.3782 140.264 72.4247C140.424 73.6139 140.084 74.6771 139.911 75.9113ZM130.845 86.2426C132.321 83.1854 134.068 79.2681 135.551 76.2584C135.376 76.0399 134.985 75.6568 134.652 75.7018C134.366 75.7403 133.977 76.0836 133.854 76.2456C132.154 78.3643 130.399 83.2998 130.753 85.916L130.845 86.2426ZM145.022 86.0703C144.906 85.2141 146.3 84.057 146.484 83.9837L146.681 84.0056L146.447 84.4247L146.453 84.4722L146.994 83.8179C147.061 83.9541 147.014 83.9606 147.163 83.9888L147.273 83.7317L147.435 83.8551C147.299 83.922 147.242 84.2203 147.208 84.3218L147.455 83.9978L147.575 84.1753L146.83 85.826L146.903 86.0098C147.807 85.8877 149.35 84.7589 149.215 83.76C149.009 82.2378 145.372 79.3388 144.967 76.3421C144.594 73.5831 147.24 70.2225 149.999 69.8497C150.569 69.7725 153.141 70.8781 153.218 71.4489L153.231 71.544C153.016 72.1059 152.652 74.4315 151.986 74.5215C151.558 74.5794 151.485 74.3956 151.187 74.339C151.107 74.1076 151.153 73.3748 151.21 73.0765C151.208 72.3502 151.408 72.0326 150.751 71.8308C149.324 72.0236 147.343 74.5679 147.535 75.9949C147.844 78.2782 151.261 80.6256 151.634 83.3846C151.93 85.5727 149.532 87.5435 147.534 87.8135C146.726 87.9228 145.138 86.9265 145.022 86.0703ZM174.953 56.9351C175.148 57.2963 176.323 59.8984 176.368 60.2314C176.419 60.6119 175.919 61.2123 175.538 61.2637C173.778 61.5016 172.624 56.1843 170.578 56.4608C169.675 56.5829 168.412 58.3519 167.925 59.0474C164.631 63.7065 162.456 71.266 163.221 76.9265C163.472 78.7816 164.236 83.7158 166.947 83.3494C169.468 83.0087 173.509 73.8409 173.937 73.783L173.997 73.8718L174.045 73.8653C174.112 74.0016 174.185 74.1854 174.169 74.4297L174.262 74.7563L174.275 74.8514C174.307 75.0892 174.415 75.1715 174.441 75.3618C174.479 75.6472 173.538 78.0024 173.374 78.2184C173.399 78.4087 173.317 78.5167 173.241 78.6722L173.321 78.9036C172.805 79.7483 172.296 80.6405 171.787 81.5327L171.8 81.6279C171.098 82.8852 168.216 85.2122 166.789 85.4051C162.936 85.9258 160.87 81.7489 160.426 78.4667C159.565 72.0927 161.47 62.5354 166.066 57.119C166.902 56.1343 168.434 54.5709 169.671 54.4038C171.478 54.1595 173.967 55.3731 174.953 56.9351ZM187.293 69.5077C186.794 72.6266 186.349 75.7866 186.78 78.9737C186.806 79.1639 187.096 80.2387 187.239 80.2194C188.524 80.0458 191.367 73.8492 192.277 71.9824L193.734 68.7825C193.896 68.906 193.837 69.5436 193.945 69.6259C194.107 69.7493 193.845 70.3176 194.07 70.1903L194.054 70.4345L194.216 70.558L194.235 70.7007C194.315 70.9321 193.937 72.4362 193.848 72.4967C193.262 74.6102 190.065 81.775 187.687 82.0964C187.354 82.1414 187.259 82.1543 187.008 82.0913C186.805 82.0219 186.71 82.0347 186.602 81.9524C184.901 81.5526 184.352 79.6409 184.14 78.0712C183.902 76.3112 184.025 74.3571 184.269 72.5804L184.222 72.5868C183.29 74.6502 180.53 81.4653 178.77 81.7031C176.867 81.9603 176.062 80.6644 175.742 79.0124C175.099 76.0478 177.917 67.8687 181.199 67.4251C182.198 67.2901 183.162 67.2566 183.896 68.0293C184.33 67.2926 184.839 66.4004 185.158 65.5339L185.03 65.3089C185.113 65.2009 185.242 65.0865 185.385 65.0672C186.194 64.9579 187.504 64.9746 187.645 66.0211C187.806 67.2103 187.465 68.2735 187.293 69.5077ZM178.227 79.839C179.703 76.7818 181.45 72.8645 182.932 69.8549C182.757 69.6363 182.367 69.2532 182.034 69.2982C181.748 69.3368 181.359 69.6801 181.235 69.842C179.536 71.9608 177.781 76.8962 178.134 79.5125L178.227 79.839ZM195.567 77.98C195.334 79.1254 195.345 80.2864 194.808 81.3277C194.691 81.5373 194.457 81.9564 194.131 82.0489L194.029 82.0142L193.845 82.0875C193.845 82.0875 193.778 81.9512 193.588 81.977C192.121 81.158 192.007 81.0282 191.775 79.3158C191.28 75.6531 192.615 69.7572 193.328 66.0765L193.661 64.2394C193.791 64.1249 193.88 64.0645 194.022 64.0452C194.07 64.0388 194.171 64.0735 194.267 64.0607C195.088 64.0465 195.723 64.445 195.775 64.8256C195.987 66.3953 194.933 71.1392 194.679 73.2078C195.712 70.4527 197.983 65.3989 201.028 64.9875C201.17 64.9682 201.367 64.9901 201.611 65.0055L201.897 64.9669L202.208 65.1186C202.322 65.2485 202.57 65.6509 202.536 65.7524C202.663 65.9774 202.505 66.2409 202.667 66.3644L202.693 66.5546C202.699 66.6022 202.659 67.3826 202.659 67.3826L202.672 67.4777C202.497 67.2592 201.899 66.4197 201.804 66.4325C201.519 66.4711 200.987 66.8336 200.686 67.1165C197.611 69.8086 196.308 74.1501 195.567 77.98ZM214.006 75.1489C214.147 76.1954 214.31 77.0452 214.737 78.0531C214.737 78.0531 215.092 77.8114 215.408 77.2843C217.069 74.8802 219.292 69.1065 220.809 65.9953L221.094 65.9567L221.12 66.147L221.288 66.3179C221.384 66.3051 221.431 66.2986 221.466 66.1971C221.479 66.2922 221.479 66.2922 221.492 66.3874L221.524 66.6252C221.578 66.6663 221.733 66.7422 221.746 66.8373C221.753 66.8849 221.664 66.9453 221.664 66.9453L221.696 67.1831C221.661 67.2847 221.633 67.4338 221.687 67.475C221.583 67.7797 221.214 68.992 221.173 69.046C221.062 69.3031 220.828 69.7222 220.867 70.0076L220.797 70.2108C220.864 70.347 220.557 70.5823 220.596 70.8677L220.418 70.9886L220.396 71.1853L220.403 71.2328C219.788 73.4955 216.858 79.4132 214.861 79.6832C214.718 79.7025 214.616 79.6678 214.467 79.6395C213.925 79.5675 213.443 79.5843 213.106 79.2423C209.869 76.4346 211.514 67.1061 212.047 63.8857C210.95 67.2309 208.799 77.8385 205.422 78.2949C205.279 78.3142 205.184 78.327 205.035 78.2988C203.515 78.1651 202.674 76.2444 202.377 75.122C201.751 72.6395 204.174 63.6904 207.457 63.2468C208.598 63.0925 209.188 63.1581 209.852 63.4075C209.928 63.2519 213.372 52.1789 213.739 52.0323C214.163 51.5875 213.992 51.7559 214.544 51.5361C214.795 51.599 215.08 51.5605 215.324 51.5759L215.493 51.7469L215.737 51.7623L215.921 51.689L216.083 51.8124L216.154 52.3357C216.314 53.5249 215.468 57.6594 215.296 58.8936C214.76 62.4535 213.369 70.4397 214.006 75.1489ZM205.37 76.1222C206.099 75.7815 208.587 67.308 209.17 65.5339C209.056 65.404 208.555 65.278 208.269 65.3166C206.303 65.8245 204.196 74.2465 205.37 76.1222Z" fill="#393939"/>
</svg>
