<svg width="1008" height="740" viewBox="0 0 1008 740" fill="none" xmlns="http://www.w3.org/2000/svg">
<circle cx="888.5" cy="715.5" r="24.5" fill="url(#paint0_radial_431_2977)"/>
<rect x="862" y="716" width="52" height="8" fill="#515153"/>
<circle cx="98.5" cy="715.5" r="24.5" fill="url(#paint1_radial_431_2977)"/>
<rect x="72" y="716" width="52" height="8" fill="#515153"/>
<rect x="10" width="998" height="716" rx="20" fill="#2F2F31"/>
<path d="M0 36C0 24.9543 8.95431 16 20 16H974C985.046 16 994 24.9543 994 36V711C994 713.761 991.761 716 989 716H4.99997C2.23855 716 0 713.761 0 711V36Z" fill="url(#paint2_linear_431_2977)"/>
<rect x="554" y="43" width="29" height="4" fill="url(#paint3_linear_431_2977)"/>
<path fill-rule="evenodd" clip-rule="evenodd" d="M553 45H551V65H553V45ZM584 65H586V45H584V65Z" fill="url(#paint4_linear_431_2977)"/>
<circle cx="569" cy="62" r="6" fill="url(#paint5_radial_431_2977)"/>
<path fill-rule="evenodd" clip-rule="evenodd" d="M551.038 65C551.013 65.1653 551 65.332 551 65.5C551 69.6422 558.835 73 568.5 73C578.165 73 586 69.6422 586 65.5C586 65.332 585.987 65.1653 585.962 65H551.038Z" fill="#555557"/>
<rect x="404" y="43" width="29" height="4" fill="url(#paint6_linear_431_2977)"/>
<path fill-rule="evenodd" clip-rule="evenodd" d="M403 45H401V65H403V45ZM434 65H436V45H434V65Z" fill="url(#paint7_linear_431_2977)"/>
<circle cx="419" cy="62" r="6" fill="url(#paint8_radial_431_2977)"/>
<path fill-rule="evenodd" clip-rule="evenodd" d="M401.038 65C401.013 65.1653 401 65.332 401 65.5C401 69.6421 408.835 73 418.5 73C428.165 73 436 69.6421 436 65.5C436 65.332 435.987 65.1653 435.962 65H401.038Z" fill="#555557"/>
<path fill-rule="evenodd" clip-rule="evenodd" d="M432.777 84.7461C431.636 87.2624 431 90.057 431 93V103C431 114.046 439.954 123 451 123H474.774C472.789 140.446 457.977 154 440 154C420.67 154 405 138.33 405 119C405 102.146 416.913 88.0745 432.777 84.7461Z" fill="#58595E"/>
<path fill-rule="evenodd" clip-rule="evenodd" d="M433.503 83.3037C431.908 86.1758 431 89.4818 431 93V103C431 114.046 439.954 123 451 123H477.488C474.642 139.471 460.284 152 443 152C423.67 152 408 136.33 408 117C408 100.961 418.788 87.4425 433.503 83.3037Z" fill="#39383D"/>
<path fill-rule="evenodd" clip-rule="evenodd" d="M432 95.8878C430.719 98.4849 430 101.408 430 104.5C430 115.27 438.73 124 449.5 124C451.66 124 453.739 123.649 455.681 123H452C440.954 123 432 114.046 432 103V95.8878Z" fill="#58595E"/>
<path fill-rule="evenodd" clip-rule="evenodd" d="M554.71 84.7461C555.852 87.2624 556.487 90.057 556.487 93V103C556.487 114.046 547.533 123 536.487 123H512.713C514.698 140.446 529.51 154 547.487 154C566.817 154 582.487 138.33 582.487 119C582.487 102.146 570.575 88.0745 554.71 84.7461Z" fill="#58595E"/>
<path fill-rule="evenodd" clip-rule="evenodd" d="M553.984 83.3037C555.579 86.1758 556.487 89.4818 556.487 93V103C556.487 114.046 547.533 123 536.487 123H510C512.845 139.471 527.203 152 544.487 152C563.817 152 579.487 136.33 579.487 117C579.487 100.961 568.699 87.4425 553.984 83.3037Z" fill="#39383D"/>
<path fill-rule="evenodd" clip-rule="evenodd" d="M555.487 95.8878C556.768 98.4849 557.487 101.408 557.487 104.5C557.487 115.27 548.757 124 537.987 124C535.827 124 533.749 123.649 531.806 123H535.487C546.533 123 555.487 114.046 555.487 103V95.8878Z" fill="#58595E"/>
<rect x="408" y="70" width="22" height="47" fill="#39383D"/>
<rect x="430" y="70" width="2" height="36" fill="#58595E"/>
<rect x="405" y="70" width="3" height="54" fill="#58595E"/>
<rect width="22" height="47" transform="matrix(-1 0 0 1 579 70)" fill="#39383D"/>
<rect width="2" height="36" transform="matrix(-1 0 0 1 557 70)" fill="#58595E"/>
<rect width="3" height="54" transform="matrix(-1 0 0 1 582 70)" fill="#58595E"/>
<rect x="445" y="152" width="27" height="92" transform="rotate(-90 445 152)" fill="#39383D"/>
<rect x="451" y="125" width="2" height="92" transform="rotate(-90 451 125)" fill="#58595E"/>
<rect x="442" y="154" width="2" height="104" transform="rotate(-90 442 154)" fill="#58595E"/>
<path d="M499 232.194C513.452 232.194 525.194 220.452 525.194 206C525.194 191.548 513.452 179.806 499 179.806C484.548 179.806 472.806 191.548 472.806 206C472.806 220.452 484.548 232.194 499 232.194ZM499 234C483.545 234 471 221.455 471 206C471 190.545 483.545 178 499 178C514.455 178 527 190.545 527 206C527 221.455 514.455 234 499 234Z" fill="#C5C5C5"/>
<path d="M503.364 194.559L499.701 194.434C500.127 195.538 500.328 196.642 500.328 197.771C500.328 200.53 499.324 202.839 497.292 204.67C495.26 206.502 492.801 207.43 489.866 207.43H488.711C487.181 207.43 485.952 207.631 485.048 208.032C484.145 208.434 483.693 208.91 483.693 209.437C483.693 210.115 484.07 210.667 484.823 211.093C485.575 211.52 486.629 211.746 487.959 211.771L494.633 211.846C497.518 211.896 499.751 212.498 501.357 213.652C502.962 214.806 503.765 216.412 503.765 218.444C503.765 221.556 502.084 224.265 498.697 226.574C495.31 228.882 491.296 230.061 486.679 230.061C483.643 230.061 481.084 229.333 479.002 227.853C476.919 226.373 475.891 224.591 475.891 222.484C475.891 221.079 476.543 219.674 477.873 218.344C479.202 216.989 480.758 216.011 482.539 215.384C481.335 214.857 480.382 214.079 479.629 213.1C478.876 212.122 478.5 211.118 478.5 210.14C478.5 209.437 479.202 208.71 480.633 207.932C482.038 207.154 483.518 206.627 485.048 206.351C483.392 205.548 482.113 204.47 481.185 203.14C480.256 201.81 479.805 200.305 479.805 198.649C479.805 196.014 480.833 193.706 482.866 191.724C484.923 189.742 487.357 188.763 490.167 188.763C491.672 188.763 493.152 189.014 494.582 189.541C496.038 190.068 497.242 190.771 498.17 191.649L503.389 191.473C503.891 191.473 504.142 192 504.142 193.029C504.142 194.057 503.891 194.584 503.389 194.584L503.364 194.559ZM480.708 221.204C480.708 223.086 481.511 224.642 483.116 225.796C484.722 226.975 486.754 227.552 489.213 227.552C492.174 227.552 494.758 226.875 496.916 225.545C499.099 224.215 500.177 222.559 500.177 220.602C500.177 219.272 499.751 218.344 498.873 217.767C497.995 217.19 496.539 216.889 494.482 216.839L487.783 216.688C486.453 216.688 485.274 216.487 484.271 216.111C481.912 217.391 480.758 219.072 480.758 221.154L480.708 221.204ZM493.805 192.326C493.052 191.172 491.823 190.595 490.167 190.595C486.98 190.595 485.4 193.28 485.4 198.649C485.4 201.082 485.776 202.864 486.504 203.943C487.231 205.047 488.461 205.599 490.167 205.599C493.353 205.599 494.934 202.964 494.934 197.72C494.934 195.262 494.557 193.455 493.805 192.326ZM523.109 193.581C522.633 194.108 522.056 194.384 521.403 194.384C520.55 194.384 519.722 194.108 518.894 193.556C518.242 193.104 517.665 192.903 517.188 192.903C515.934 192.903 514.654 193.631 513.324 195.086V208.032C513.324 209.688 513.6 210.867 514.202 211.52C514.78 212.172 516.009 212.624 517.891 212.875C518.192 212.925 518.342 213.176 518.342 213.652C518.342 214.179 518.192 214.455 517.891 214.455C517.113 214.455 515.984 214.405 514.554 214.28C512.948 214.154 511.693 214.104 510.765 214.104C509.837 214.104 508.658 214.154 507.278 214.28C506.048 214.405 505.045 214.455 504.242 214.455C503.941 214.455 503.79 214.179 503.79 213.652C503.79 213.176 503.941 212.925 504.242 212.875C505.923 212.674 507.002 212.272 507.453 211.695C507.93 211.118 508.156 209.889 508.156 208.032V197.419C508.156 195.889 507.955 194.885 507.554 194.409C507.152 193.932 506.274 193.606 504.919 193.455C504.618 193.455 504.468 193.204 504.468 192.703C504.468 192.226 504.618 192 504.919 192C506.826 191.523 508.407 190.996 509.636 190.394C510.866 189.817 511.693 189.315 512.07 188.889C512.296 188.663 512.521 188.538 512.747 188.538C513.274 188.538 513.55 188.688 513.55 188.989L513.324 192.602C514.855 191.172 516.185 190.194 517.288 189.617C518.392 189.039 519.496 188.763 520.6 188.763C521.478 188.763 522.256 189.039 522.883 189.617C523.511 190.194 523.837 190.871 523.837 191.624C523.837 192.376 523.611 193.054 523.134 193.581H523.109Z" fill="#C5C5C5"/>
<defs>
<radialGradient id="paint0_radial_431_2977" cx="0" cy="0" r="1" gradientUnits="userSpaceOnUse" gradientTransform="translate(888.5 715.5) rotate(90) scale(24.5)">
<stop stop-color="#404040"/>
<stop offset="1" stop-color="#252525"/>
</radialGradient>
<radialGradient id="paint1_radial_431_2977" cx="0" cy="0" r="1" gradientUnits="userSpaceOnUse" gradientTransform="translate(98.5 715.5) rotate(90) scale(24.5)">
<stop stop-color="#404040"/>
<stop offset="1" stop-color="#252525"/>
</radialGradient>
<linearGradient id="paint2_linear_431_2977" x1="736" y1="50" x2="736" y2="656" gradientUnits="userSpaceOnUse">
<stop stop-color="#333439"/>
<stop offset="0.3125" stop-color="#575962"/>
<stop offset="0.494792" stop-color="#6A6C75"/>
<stop offset="0.645833" stop-color="#595A5F"/>
<stop offset="0.8125" stop-color="#48494D"/>
<stop offset="1" stop-color="#1A1A1B"/>
</linearGradient>
<linearGradient id="paint3_linear_431_2977" x1="568.5" y1="43" x2="568.5" y2="47" gradientUnits="userSpaceOnUse">
<stop stop-color="#45423B"/>
<stop offset="0.442708" stop-color="#717171"/>
<stop offset="1" stop-color="#383838"/>
</linearGradient>
<linearGradient id="paint4_linear_431_2977" x1="568.5" y1="45" x2="568.5" y2="65" gradientUnits="userSpaceOnUse">
<stop stop-color="#9D9D9D"/>
<stop offset="0.822917" stop-color="#C8C8C8"/>
<stop offset="0.864583" stop-color="#545456"/>
<stop offset="1" stop-color="#545456"/>
</linearGradient>
<radialGradient id="paint5_radial_431_2977" cx="0" cy="0" r="1" gradientUnits="userSpaceOnUse" gradientTransform="translate(569 62) rotate(90) scale(6)">
<stop stop-color="#949494"/>
<stop offset="1" stop-color="#5E5E5E"/>
</radialGradient>
<linearGradient id="paint6_linear_431_2977" x1="418.5" y1="43" x2="418.5" y2="47" gradientUnits="userSpaceOnUse">
<stop stop-color="#45423B"/>
<stop offset="0.442708" stop-color="#717171"/>
<stop offset="1" stop-color="#383838"/>
</linearGradient>
<linearGradient id="paint7_linear_431_2977" x1="418.5" y1="45" x2="418.5" y2="65" gradientUnits="userSpaceOnUse">
<stop stop-color="#9D9D9D"/>
<stop offset="0.822917" stop-color="#C8C8C8"/>
<stop offset="0.864583" stop-color="#545456"/>
<stop offset="1" stop-color="#545456"/>
</linearGradient>
<radialGradient id="paint8_radial_431_2977" cx="0" cy="0" r="1" gradientUnits="userSpaceOnUse" gradientTransform="translate(419 62) rotate(90) scale(6)">
<stop stop-color="#949494"/>
<stop offset="1" stop-color="#5E5E5E"/>
</radialGradient>
</defs>
</svg>
