<svg width="346" height="352" viewBox="0 0 346 352" fill="none" xmlns="http://www.w3.org/2000/svg">
<g filter="url(#filter0_d_511_2788)">
<rect x="4.00098" y="0.00219727" width="338" height="344" fill="#FAFAFA"/>
</g>
<path fill-rule="evenodd" clip-rule="evenodd" d="M281.046 65.0022H342.065V63.0022H283.046L281.046 65.0022ZM291.046 55.0022H342.065V53.0022H293.046L291.046 55.0022ZM301.046 45.0022H342.065V43.0022H303.046L301.046 45.0022ZM311.046 35.0022H342.065V33.0022H313.046L311.046 35.0022ZM321.046 25.0022H342.065V23.0022H323.046L321.046 25.0022ZM331.046 15.0022H342.065V13.0022H333.046L331.046 15.0022ZM341.046 5.00215H342.065V3.98315L341.046 5.00215ZM275.065 75.0022H342.065V73.0022H275.065V75.0022ZM275.065 85.0022H342.065V83.0022H275.065V85.0022ZM275.065 95.0022H342.065V93.0022H275.065V95.0022ZM275.065 105.002H342.065V103.002H275.065V105.002ZM275.065 115.002H342.065V113.002H275.065V115.002ZM275.065 125.002H342.065V123.002H275.065V125.002ZM275.065 135.002H342.065V133.002H275.065V135.002ZM275.065 145.002H342.065V143.002H275.065V145.002ZM275.065 155.002H342.065V153.002H275.065V155.002ZM275.065 165.002H342.065V163.002H275.065V165.002ZM275.065 175.002H342.065V173.002H275.065V175.002ZM275.065 185.002H342.065V183.002H275.065V185.002ZM275.065 195.002H342.065V193.002H275.065V195.002ZM275.065 205.002H342.065V203.002H275.065V205.002ZM275.065 215.002H342.065V213.002H275.065V215.002ZM275.065 225.002H342.065V223.002H275.065V225.002ZM275.065 235.002H342.065V233.002H275.065V235.002ZM275.065 245.002H342.065V243.002H275.065V245.002ZM275.065 255.002H342.065V253.002H275.065V255.002ZM275.065 265.002H342.065V263.002H275.065V265.002ZM275.065 275.002H342.065V273.002H275.065V275.002ZM275.065 285.002H342.065V283.002H275.065V285.002ZM275.065 295.002H342.065V293.002H275.065V295.002ZM275.065 305.002H342.065V303.002H275.065V305.002ZM275.065 315.002H342.065V313.002H275.065V315.002ZM275.065 325.002H342.065V323.002H275.065V325.002ZM275.065 335.002H342.065V333.002H275.065V335.002Z" fill="#E6E6E6" fill-opacity="0.5"/>
<path fill-rule="evenodd" clip-rule="evenodd" d="M279.001 64.0212L279.001 3.0022L281.001 3.0022L281.001 62.0212L279.001 64.0212ZM289.001 54.0212L289.001 3.0022L291.001 3.0022L291.001 52.0212L289.001 54.0212ZM299.001 44.0212L299.001 3.0022L301.001 3.0022L301.001 42.0212L299.001 44.0212ZM309.001 34.0212L309.001 3.0022L311.001 3.0022L311.001 32.0212L309.001 34.0212ZM319.001 24.0212L319.001 3.0022L321.001 3.0022L321.001 22.0212L319.001 24.0212ZM329.001 14.0212L329.001 3.0022L331.001 3.0022L331.001 12.0212L329.001 14.0212ZM339.001 4.02119L339.001 3.0022L340.02 3.0022L339.001 4.02119ZM269.001 70.0022L269.001 3.0022L271.001 3.0022L271.001 70.0022L269.001 70.0022ZM259.001 70.0022L259.001 3.0022L261.001 3.0022L261.001 70.0022L259.001 70.0022ZM249.001 70.0022L249.001 3.0022L251.001 3.0022L251.001 70.0022L249.001 70.0022ZM239.001 70.0022L239.001 3.0022L241.001 3.0022L241.001 70.0022L239.001 70.0022ZM229.001 70.0022L229.001 3.0022L231.001 3.0022L231.001 70.0022L229.001 70.0022ZM219.001 70.0022L219.001 3.0022L221.001 3.0022L221.001 70.0022L219.001 70.0022ZM209.001 70.0022L209.001 3.0022L211.001 3.0022L211.001 70.0022L209.001 70.0022ZM199.001 70.0022L199.001 3.0022L201.001 3.0022L201.001 70.0022L199.001 70.0022ZM189.001 70.0022L189.001 3.0022L191.001 3.0022L191.001 70.0022L189.001 70.0022ZM179.001 70.0022L179.001 3.0022L181.001 3.0022L181.001 70.0022L179.001 70.0022ZM169.001 70.0022L169.001 3.0022L171.001 3.0022L171.001 70.0022L169.001 70.0022ZM159.001 70.0022L159.001 3.00221L161.001 3.00221L161.001 70.0022L159.001 70.0022ZM149.001 70.0022L149.001 3.00221L151.001 3.00221L151.001 70.0022L149.001 70.0022ZM139.001 70.0022L139.001 3.00221L141.001 3.00221L141.001 70.0022L139.001 70.0022ZM129.001 70.0022L129.001 3.00221L131.001 3.00221L131.001 70.0022L129.001 70.0022ZM119.001 70.0022L119.001 3.00221L121.001 3.00221L121.001 70.0022L119.001 70.0022ZM109.001 70.0022L109.001 3.00221L111.001 3.00221L111.001 70.0022L109.001 70.0022ZM99.0005 70.0022L99.0005 3.00221L101.001 3.00221L101.001 70.0022L99.0005 70.0022ZM89.0005 70.0022L89.0005 3.00221L91.0005 3.00221L91.0005 70.0022L89.0005 70.0022ZM79.0005 70.0022L79.0005 3.00221L81.0005 3.00221L81.0005 70.0022L79.0005 70.0022ZM69.0005 70.0022L69.0005 3.00221L71.0005 3.00221L71.0005 70.0022L69.0005 70.0022ZM59.0005 70.0022L59.0005 3.00221L61.0005 3.00221L61.0005 70.0022L59.0005 70.0022ZM49.0005 70.0022L49.0005 3.00221L51.0005 3.00221L51.0005 70.0022L49.0005 70.0022ZM39.0005 70.0022L39.0005 3.00221L41.0005 3.00221L41.0005 70.0022L39.0005 70.0022ZM29.0005 70.0022L29.0005 3.00221L31.0005 3.00221L31.0005 70.0022L29.0005 70.0022ZM19.0005 70.0022L19.0005 3.00221L21.0005 3.00221L21.0005 70.0022L19.0005 70.0022ZM9.00054 70.0022L9.00054 3.00221L11.0005 3.00221L11.0005 70.0022L9.00054 70.0022Z" fill="#E6E6E6" fill-opacity="0.5"/>
<defs>
<filter id="filter0_d_511_2788" x="0.000976562" y="0.00219727" width="346" height="352" filterUnits="userSpaceOnUse" color-interpolation-filters="sRGB">
<feFlood flood-opacity="0" result="BackgroundImageFix"/>
<feColorMatrix in="SourceAlpha" type="matrix" values="0 0 0 0 0 0 0 0 0 0 0 0 0 0 0 0 0 0 127 0" result="hardAlpha"/>
<feOffset dy="4"/>
<feGaussianBlur stdDeviation="2"/>
<feComposite in2="hardAlpha" operator="out"/>
<feColorMatrix type="matrix" values="0 0 0 0 0 0 0 0 0 0 0 0 0 0 0 0 0 0 0.25 0"/>
<feBlend mode="normal" in2="BackgroundImageFix" result="effect1_dropShadow_511_2788"/>
<feBlend mode="normal" in="SourceGraphic" in2="effect1_dropShadow_511_2788" result="shape"/>
</filter>
</defs>
</svg>
