<svg width="342" height="463" viewBox="0 0 342 463" fill="none" xmlns="http://www.w3.org/2000/svg">
<rect x="19" y="18" width="317" height="444" fill="#CFCDCD"/>
<g filter="url(#filter0_f_404_383)">
<rect x="4.60742" y="4.67969" width="317" height="418" fill="#9C9C9C" fill-opacity="0.5"/>
</g>
<g filter="url(#filter1_f_404_383)">
<rect x="19" y="9" width="317" height="446" fill="#9C9C9C" fill-opacity="0.5"/>
</g>
<rect x="25" y="14" width="317" height="449" fill="white"/>
<rect x="37" y="34" width="7" height="8" fill="#616161"/>
<rect x="37" y="74" width="7" height="8" fill="#616161"/>
<rect x="37" y="54" width="7" height="8" fill="#616161"/>
<rect x="37" y="94" width="7" height="8" fill="#616161"/>
<rect x="37" y="134" width="7" height="8" fill="#616161"/>
<rect x="37" y="114" width="7" height="8" fill="#616161"/>
<rect x="37" y="154" width="7" height="8" fill="#616161"/>
<rect x="37" y="194" width="7" height="8" fill="#616161"/>
<rect x="37" y="174" width="7" height="8" fill="#616161"/>
<rect x="37" y="214" width="7" height="8" fill="#616161"/>
<rect x="37" y="254" width="7" height="8" fill="#616161"/>
<rect x="37" y="234" width="7" height="8" fill="#616161"/>
<rect x="37" y="274" width="7" height="8" fill="#616161"/>
<rect x="37" y="314" width="7" height="8" fill="#616161"/>
<rect x="37" y="294" width="7" height="8" fill="#616161"/>
<rect x="37" y="334" width="7" height="8" fill="#616161"/>
<rect x="37" y="374" width="7" height="8" fill="#616161"/>
<rect x="37" y="354" width="7" height="8" fill="#616161"/>
<rect x="37" y="394" width="7" height="8" fill="#616161"/>
<rect x="37" y="434" width="7" height="8" fill="#616161"/>
<rect x="37" y="414" width="7" height="8" fill="#616161"/>
<rect x="12" y="34" width="28" height="2.94231" fill="url(#paint0_linear_404_383)"/>
<rect x="12" y="38.9038" width="28" height="2.94231" fill="url(#paint1_linear_404_383)"/>
<rect x="12" y="53.5962" width="28" height="2.94231" fill="url(#paint2_linear_404_383)"/>
<rect x="12" y="58.5" width="28" height="2.94231" fill="url(#paint3_linear_404_383)"/>
<rect x="12" y="74.1924" width="28" height="2.94231" fill="url(#paint4_linear_404_383)"/>
<rect x="12" y="79.0962" width="28" height="2.94231" fill="url(#paint5_linear_404_383)"/>
<rect x="12" y="93.8269" width="28" height="2.94231" fill="url(#paint6_linear_404_383)"/>
<rect x="12" y="98.7307" width="28" height="2.94231" fill="url(#paint7_linear_404_383)"/>
<rect x="12" y="114.423" width="28" height="2.94231" fill="url(#paint8_linear_404_383)"/>
<rect x="12" y="119.327" width="28" height="2.94231" fill="url(#paint9_linear_404_383)"/>
<rect x="12" y="134" width="28" height="2.94231" fill="url(#paint10_linear_404_383)"/>
<rect x="12" y="138.904" width="28" height="2.94231" fill="url(#paint11_linear_404_383)"/>
<rect x="12" y="154" width="28" height="2.94231" fill="url(#paint12_linear_404_383)"/>
<rect x="12" y="158.904" width="28" height="2.94231" fill="url(#paint13_linear_404_383)"/>
<rect x="12" y="174.25" width="28" height="2.94231" fill="url(#paint14_linear_404_383)"/>
<rect x="12" y="179.154" width="28" height="2.94231" fill="url(#paint15_linear_404_383)"/>
<rect x="12" y="194" width="28" height="2.94231" fill="url(#paint16_linear_404_383)"/>
<rect x="12" y="198.904" width="28" height="2.94231" fill="url(#paint17_linear_404_383)"/>
<rect x="12" y="214" width="28" height="2.94231" fill="url(#paint18_linear_404_383)"/>
<rect x="12" y="218.904" width="28" height="2.94231" fill="url(#paint19_linear_404_383)"/>
<rect x="12" y="234" width="28" height="2.94231" fill="url(#paint20_linear_404_383)"/>
<rect x="12" y="238.904" width="28" height="2.94231" fill="url(#paint21_linear_404_383)"/>
<rect x="12" y="254" width="28" height="2.94231" fill="url(#paint22_linear_404_383)"/>
<rect x="12" y="258.904" width="28" height="2.94231" fill="url(#paint23_linear_404_383)"/>
<rect x="12" y="274" width="28" height="2.94231" fill="url(#paint24_linear_404_383)"/>
<rect x="12" y="278.904" width="28" height="2.94231" fill="url(#paint25_linear_404_383)"/>
<rect x="12" y="294" width="28" height="2.94231" fill="url(#paint26_linear_404_383)"/>
<rect x="12" y="298.904" width="28" height="2.94231" fill="url(#paint27_linear_404_383)"/>
<rect x="12" y="314" width="28" height="2.94231" fill="url(#paint28_linear_404_383)"/>
<rect x="12" y="318.904" width="28" height="2.94231" fill="url(#paint29_linear_404_383)"/>
<rect x="12" y="334" width="28" height="2.94231" fill="url(#paint30_linear_404_383)"/>
<rect x="12" y="338.904" width="28" height="2.94231" fill="url(#paint31_linear_404_383)"/>
<rect x="12" y="355" width="28" height="2.94231" fill="url(#paint32_linear_404_383)"/>
<rect x="12" y="359.904" width="28" height="2.94231" fill="url(#paint33_linear_404_383)"/>
<rect x="12" y="375" width="28" height="2.94231" fill="url(#paint34_linear_404_383)"/>
<rect x="12" y="379.904" width="28" height="2.94231" fill="url(#paint35_linear_404_383)"/>
<rect x="12" y="394" width="28" height="2.94231" fill="url(#paint36_linear_404_383)"/>
<rect x="12" y="398.904" width="28" height="2.94231" fill="url(#paint37_linear_404_383)"/>
<rect x="12" y="414" width="28" height="2.94231" fill="url(#paint38_linear_404_383)"/>
<rect x="12" y="418.904" width="28" height="2.94231" fill="url(#paint39_linear_404_383)"/>
<rect x="12" y="434.154" width="28" height="2.94231" fill="url(#paint40_linear_404_383)"/>
<rect x="12" y="439.058" width="28" height="2.94231" fill="url(#paint41_linear_404_383)"/>
<path d="M72.88 45.72C73.86 45.94 74.48 46.8 74.48 47.74C74.48 48.82 72.58 51.8 71.78 51.8C71.54 51.8 71.24 51.52 71.24 51.3C71.24 51 71.34 50.68 71.62 50.62C71.72 50.62 71.74 50.6 71.82 50.5C72.46 49.86 73.44 48.48 73.44 47.52C73.44 46.38 71.4 46.92 71.4 45.86C71.4 45.62 71.54 45.44 71.74 45.3C72.72 44.74 74.32 42.64 74.32 41.34C74.32 41.12 74.18 41.02 73.96 41.02C73.46 41.02 72.96 41.36 72.48 41.36C72.14 41.36 71.9 40.98 71.9 40.64C71.9 40.6 71.9 40.52 71.92 40.46C72 40.16 73.36 39.88 73.66 39.88C74.6 39.88 75.36 40.54 75.36 41.54C75.36 42.96 73.84 45.06 72.88 45.72ZM76.6084 47.26C76.2684 47.26 76.2284 46.86 76.2284 46.62C76.2284 46.18 78.7084 45.98 79.1084 45.98C79.3884 45.98 79.6684 46.14 79.6684 46.48C79.6684 46.64 79.6084 46.84 79.3884 46.84C78.6684 46.86 76.9684 47.26 76.6084 47.26ZM81.8239 44.86C82.5239 44.74 83.1439 44.66 83.8439 44.6C83.9439 43.66 84.1439 41.76 84.1439 40.36C84.1439 40.14 84.2039 39.98 84.4239 39.98C84.7839 39.98 85.2039 40.3 85.2039 40.76C85.2039 41.32 85.0639 41.92 85.0239 42.48C84.9439 43.38 84.9439 43.58 84.8639 44.5L85.4239 44.44C85.4639 44.4 85.5239 44.4 85.5639 44.4C85.7239 44.4 85.8039 44.66 85.8039 44.78C85.8039 45.12 85.0639 45.32 84.8039 45.36C84.6039 47.48 84.4839 49.38 84.4839 51.48C84.4839 51.68 84.5439 51.84 84.6439 51.98C84.6439 52.08 84.7039 52.18 84.7039 52.24C84.7039 52.42 84.3839 52.58 84.2239 52.58C83.6639 52.58 83.4839 52.16 83.4839 51.66C83.4839 50.8 83.5039 50.04 83.5639 49.18C83.6639 47.88 83.6639 46.8 83.8239 45.48C83.0439 45.56 82.7639 45.6 82.0039 45.76C81.8039 45.82 81.7639 45.78 81.7439 45.98C81.6239 47.06 81.2839 50.52 81.6839 51.34C81.6839 51.42 81.7039 51.48 81.7039 51.56C81.7039 51.76 81.3639 51.86 81.2239 51.86C80.6839 51.86 80.5039 51.38 80.5039 50.92C80.5039 50.48 80.4239 50.04 80.4239 49.6C80.4239 48.3 80.5639 47.34 80.6639 46.04C80.3639 46.04 80.2439 46.04 80.0039 45.78C80.0039 45.72 79.9239 45.76 79.9239 45.68C79.9039 45.6 79.8839 45.54 79.8839 45.48C79.8839 45.38 79.9239 45.3 80.0039 45.26C80.3239 45.14 80.6639 45.08 80.7639 45.06C80.8039 44.4 81.1039 41.58 81.1039 40.5C81.1039 40.36 81.0639 40.2 81.0639 40.04C81.0639 39.9 81.2039 39.76 81.3439 39.76C81.6639 39.76 82.1839 40.16 82.1839 40.48C82.1839 41.8 81.8439 43.74 81.8239 44.86ZM89.927 46.78C89.807 47.96 89.307 52.12 87.607 52.12C87.087 52.12 86.647 51.72 86.427 51.28C86.267 50.96 86.247 50.6 86.207 50.26C86.007 48.58 86.127 47.16 86.267 45.56C86.407 44.06 86.667 42.66 87.027 41.18C87.107 40.84 87.367 40.16 87.727 40.16C87.807 40.16 87.887 40.2 87.967 40.26C88.067 40.32 88.127 40.34 88.187 40.34C88.267 40.34 88.327 40.32 88.427 40.32C88.707 40.38 88.947 40.42 89.247 40.62C89.327 40.66 89.447 40.82 89.527 41.04C90.087 42.3 90.147 44.1 89.927 46.78ZM87.567 51.12C87.587 51.16 87.607 51.18 87.627 51.18C87.647 51.18 87.687 51.1 87.727 51.04C88.367 49.8 88.727 48 88.907 46.64C89.027 45.54 89.187 41.7 88.327 40.92C87.627 41.86 86.687 50 87.567 51.12ZM92.6531 51.14C92.9731 51.14 93.3531 49.26 93.6731 47.4C94.0331 45.14 94.2531 42.24 94.2531 39.96C94.3731 39.92 94.4931 39.9 94.5931 39.9C95.4131 39.9 95.2131 41.14 95.2331 41.54C95.2531 42.1 95.0331 45.5 94.7531 47.56C94.6331 48.48 94.1131 52.12 92.7531 52.12C91.0731 52.12 90.8731 49.04 90.9531 46.46C90.9931 44.92 91.0331 43.32 91.1531 41.84C91.1531 41.62 91.1731 41.44 91.1731 41.22C91.1531 40.78 91.4731 40.6 91.8531 40.58C92.1331 40.56 92.5331 40.8 92.5331 41.12C92.5331 41.24 92.4531 41.36 92.4331 41.5C92.2731 42.16 92.1731 45.14 92.1131 46.9C92.0331 48.88 92.2131 51.14 92.6531 51.14ZM96.2089 40.64C96.5089 40.3 96.7089 39.86 97.1889 39.84C97.5289 39.84 97.7489 40.02 97.9089 40.3C98.3289 40.64 99.3689 41.06 99.4089 42.84C99.4489 44.42 98.5489 45.58 97.8889 46.34C97.9889 46.44 98.3889 47.52 98.4289 47.62C98.9489 48.82 99.6489 50.06 99.7889 50.32C99.8689 50.5 99.6689 50.58 99.4889 50.58C99.4489 50.58 99.4089 50.58 99.3689 50.58C98.5489 50.46 97.5489 47.96 97.2289 47.28C97.2289 48 97.1689 48.38 97.1489 48.92C97.1289 49.2 97.0489 50.42 97.0689 51.34C97.0889 51.92 97.0489 52.36 96.8089 52.36C96.3089 52.36 96.0689 52.24 96.0489 51.7C96.0289 50.9 96.0689 50.1 96.1089 49.32C96.1689 47.68 96.2289 46.06 96.3089 44.44C96.3489 43.84 96.5489 42.02 96.5089 41.44C96.4889 40.84 96.2089 40.78 96.2089 40.64ZM97.3089 45.34C97.7889 45 98.3689 43.98 98.4089 42.88C98.4289 42.1 97.9889 41.56 97.6289 41.5C97.5689 42.36 97.3889 44.48 97.3089 45.34ZM104.434 51.14C104.474 51.2 104.534 51.22 104.574 51.22C104.854 51.22 105.134 50.6 105.434 50.34C105.614 50.4 105.714 50.56 105.754 50.6C106.194 51.04 105.394 52.08 104.674 52.12C103.594 52.12 103.094 51.14 102.874 50.22C102.594 49.14 102.394 47.66 102.594 45.98C102.734 44.58 103.494 40.16 105.334 40.02C105.674 40 106.554 40.36 106.614 40.78C106.654 41.02 106.454 41.22 106.174 41.26C105.994 41.26 105.794 40.98 105.574 40.98C105.214 41 105.074 41.3 104.934 41.56C103.774 43.6 103.394 46.52 103.674 48.92C103.794 49.8 104.054 50.66 104.434 51.14ZM110.982 46.78C110.862 47.96 110.362 52.12 108.662 52.12C108.142 52.12 107.702 51.72 107.482 51.28C107.322 50.96 107.302 50.6 107.262 50.26C107.062 48.58 107.182 47.16 107.322 45.56C107.462 44.06 107.722 42.66 108.082 41.18C108.162 40.84 108.422 40.16 108.782 40.16C108.862 40.16 108.942 40.2 109.022 40.26C109.122 40.32 109.182 40.34 109.242 40.34C109.322 40.34 109.382 40.32 109.482 40.32C109.762 40.38 110.002 40.42 110.302 40.62C110.382 40.66 110.502 40.82 110.582 41.04C111.142 42.3 111.202 44.1 110.982 46.78ZM108.622 51.12C108.642 51.16 108.662 51.18 108.682 51.18C108.702 51.18 108.742 51.1 108.782 51.04C109.422 49.8 109.782 48 109.962 46.64C110.082 45.54 110.242 41.7 109.382 40.92C108.682 41.86 107.742 50 108.622 51.12ZM115.188 48.64C115.208 46.72 115.348 43.04 115.368 42.26C115.368 41.92 115.368 40.46 115.608 40.34C115.688 40.28 115.768 40.26 115.848 40.26C116.128 40.26 116.368 40.5 116.368 40.74C116.388 41.44 116.328 42.48 116.288 43.18C116.188 45.02 116.128 48.24 116.088 50.1C116.088 50.36 116.168 50.6 116.168 50.86C116.168 51.16 115.948 51.32 115.568 51.32C115.548 51.54 115.428 51.7 115.208 51.72C115.028 51.72 114.848 51.58 114.808 51.42C114.268 49.3 113.808 46.5 113.768 46.28C113.728 46.06 113.308 43.36 113.208 43.24C113.228 43.66 113.208 44.54 113.188 44.94C113.188 45.06 113.048 50.92 112.848 51.76C112.788 52.02 112.568 52.14 112.388 52.14C112.208 52.14 112.048 52.04 112.008 51.86C111.808 51.1 111.988 50.22 112.088 49.1C112.128 48.22 112.168 47.18 112.188 46.28C112.248 44.66 112.308 43.04 112.288 41.42C112.268 40.68 112.528 40.2 113.048 40.2C113.508 40.2 113.728 40.3 113.828 40.78C113.948 41.26 113.988 41.78 114.068 42.28C114.208 43.06 114.368 43.96 114.488 44.76C114.688 45.84 114.848 46.8 115.068 47.88C115.128 48.12 115.188 48.38 115.188 48.64ZM119.199 51.14C119.239 51.2 119.299 51.22 119.339 51.22C119.619 51.22 119.899 50.6 120.199 50.34C120.379 50.4 120.479 50.56 120.519 50.6C120.959 51.04 120.159 52.08 119.439 52.12C118.359 52.12 117.859 51.14 117.639 50.22C117.359 49.14 117.159 47.66 117.359 45.98C117.499 44.58 118.259 40.16 120.099 40.02C120.439 40 121.319 40.36 121.379 40.78C121.419 41.02 121.219 41.22 120.939 41.26C120.759 41.26 120.559 40.98 120.339 40.98C119.979 41 119.839 41.3 119.699 41.56C118.539 43.6 118.159 46.52 118.439 48.92C118.559 49.8 118.819 50.66 119.199 51.14ZM123.047 40.78L123.007 40.34C123.087 40.14 123.187 40.02 123.427 40C123.647 39.98 123.987 39.94 124.347 39.94C124.947 39.94 125.587 40.06 125.627 40.64C125.647 40.88 125.487 40.98 125.267 40.98L123.547 41.08C123.627 41.16 123.787 41.3 123.787 41.44C123.787 41.6 123.707 41.74 123.667 41.92C123.487 42.86 123.447 44.34 123.347 45.18L125.047 45.24C125.287 45.24 125.447 45.3 125.447 45.52C125.447 45.68 125.307 45.9 125.147 45.96C125.027 45.96 124.867 46.04 124.747 46.06C124.367 46.1 123.767 46.12 123.387 46.22C123.147 46.28 123.207 46.56 123.167 46.84C122.987 48.2 122.947 49.44 122.967 50.84C123.447 50.7 123.987 50.4 124.447 50.4C124.787 50.4 125.247 50.52 125.247 50.92C125.247 51.16 125.087 51.24 124.847 51.26C124.007 51.38 123.327 51.94 122.307 51.96C121.927 51.96 121.847 51.5 121.847 51.22C121.847 49.96 121.887 48.68 121.987 47.44C122.127 45.5 122.347 43.52 122.527 41.58C122.587 41.06 122.547 41.06 123.047 40.78ZM129.407 48.64C129.427 46.72 129.567 43.04 129.587 42.26C129.587 41.92 129.587 40.46 129.827 40.34C129.907 40.28 129.987 40.26 130.067 40.26C130.347 40.26 130.587 40.5 130.587 40.74C130.607 41.44 130.547 42.48 130.507 43.18C130.407 45.02 130.347 48.24 130.307 50.1C130.307 50.36 130.387 50.6 130.387 50.86C130.387 51.16 130.167 51.32 129.787 51.32C129.767 51.54 129.647 51.7 129.427 51.72C129.247 51.72 129.067 51.58 129.027 51.42C128.487 49.3 128.027 46.5 127.987 46.28C127.947 46.06 127.527 43.36 127.427 43.24C127.447 43.66 127.427 44.54 127.407 44.94C127.407 45.06 127.267 50.92 127.067 51.76C127.007 52.02 126.787 52.14 126.607 52.14C126.427 52.14 126.267 52.04 126.227 51.86C126.027 51.1 126.207 50.22 126.307 49.1C126.347 48.22 126.387 47.18 126.407 46.28C126.467 44.66 126.527 43.04 126.507 41.42C126.487 40.68 126.747 40.2 127.267 40.2C127.727 40.2 127.947 40.3 128.047 40.78C128.167 41.26 128.207 41.78 128.287 42.28C128.427 43.06 128.587 43.96 128.707 44.76C128.907 45.84 129.067 46.8 129.287 47.88C129.347 48.12 129.407 48.38 129.407 48.64ZM134.158 41.36C133.938 41.74 133.938 42.16 133.898 42.56C133.758 43.94 133.378 49.38 133.418 50.98C133.438 51.22 133.558 51.42 133.558 51.66C133.558 51.92 133.338 52.06 133.098 52.06C132.578 52.08 132.378 51.7 132.358 51.24C132.318 49.52 132.498 47.62 132.618 45.94C132.698 44.62 132.878 42.6 132.898 41.6C132.898 41.36 132.778 41.36 132.538 41.36C132.158 41.38 132.378 41.4 132.018 41.42C131.658 41.44 131.538 41.18 131.498 40.88C131.398 40.8 131.418 40.66 131.418 40.56C131.398 40.4 131.538 40.26 131.678 40.26C131.698 40.26 131.718 40.26 131.718 40.26C131.898 40.26 132.058 40.34 132.238 40.34C132.238 40.34 132.258 40.34 132.278 40.34C132.518 40.32 132.778 40.32 133.058 40.32C133.918 40.32 134.818 40.38 135.038 40.48C135.258 40.6 135.378 40.8 135.398 41.04C135.398 41.22 135.258 41.38 135.078 41.36C134.978 41.36 134.738 41.36 134.498 41.36C134.378 41.36 134.258 41.36 134.158 41.36ZM136.287 40.64C136.587 40.3 136.787 39.86 137.267 39.84C137.607 39.84 137.827 40.02 137.987 40.3C138.407 40.64 139.447 41.06 139.487 42.84C139.527 44.42 138.627 45.58 137.967 46.34C138.067 46.44 138.467 47.52 138.507 47.62C139.027 48.82 139.727 50.06 139.867 50.32C139.947 50.5 139.747 50.58 139.567 50.58C139.527 50.58 139.487 50.58 139.447 50.58C138.627 50.46 137.627 47.96 137.307 47.28C137.307 48 137.247 48.38 137.227 48.92C137.207 49.2 137.127 50.42 137.147 51.34C137.167 51.92 137.127 52.36 136.887 52.36C136.387 52.36 136.147 52.24 136.127 51.7C136.107 50.9 136.147 50.1 136.187 49.32C136.247 47.68 136.307 46.06 136.387 44.44C136.427 43.84 136.627 42.02 136.587 41.44C136.567 40.84 136.287 40.78 136.287 40.64ZM137.387 45.34C137.867 45 138.447 43.98 138.487 42.88C138.507 42.1 138.067 41.56 137.707 41.5C137.647 42.36 137.467 44.48 137.387 45.34ZM142.864 45.96C142.484 46 142.364 45.98 141.944 46C141.704 47.3 141.244 50.02 141.024 51.92C141.004 52.14 140.884 52.3 140.644 52.32C140.464 52.32 140.004 52.08 140.004 51.88C139.964 51.2 140.144 50.14 140.264 49.44C140.844 46.52 141.344 43.54 142.024 40.72C142.104 40.4 142.304 39.98 142.724 39.96C142.944 39.96 143.584 40.12 143.624 40.38C143.724 41.66 143.824 43.64 143.884 44.92C144.044 44.98 144.124 45.22 144.084 45.44C144.064 45.66 143.904 45.72 143.924 45.92C143.964 47.18 144.044 50.3 144.304 51.8C144.324 51.94 144.404 51.94 144.404 52.06C144.384 52.2 143.904 52.24 143.704 52.24C143.364 52.22 143.244 52.1 143.224 51.76C142.984 49.18 143.004 47.34 142.864 45.96ZM142.824 42.46L142.804 41.6C142.664 42.28 142.244 44.08 142.144 44.96C142.184 44.96 142.304 44.98 142.424 44.98C142.604 44.98 142.804 44.96 142.864 44.94C142.844 44.2 142.864 43.2 142.824 42.46ZM147.81 41.36C147.59 41.74 147.59 42.16 147.55 42.56C147.41 43.94 147.03 49.38 147.07 50.98C147.09 51.22 147.21 51.42 147.21 51.66C147.21 51.92 146.99 52.06 146.75 52.06C146.23 52.08 146.03 51.7 146.01 51.24C145.97 49.52 146.15 47.62 146.27 45.94C146.35 44.62 146.53 42.6 146.55 41.6C146.55 41.36 146.43 41.36 146.19 41.36C145.81 41.38 146.03 41.4 145.67 41.42C145.31 41.44 145.19 41.18 145.15 40.88C145.05 40.8 145.07 40.66 145.07 40.56C145.05 40.4 145.19 40.26 145.33 40.26C145.35 40.26 145.37 40.26 145.37 40.26C145.55 40.26 145.71 40.34 145.89 40.34C145.89 40.34 145.91 40.34 145.93 40.34C146.17 40.32 146.43 40.32 146.71 40.32C147.57 40.32 148.47 40.38 148.69 40.48C148.91 40.6 149.03 40.8 149.05 41.04C149.05 41.22 148.91 41.38 148.73 41.36C148.63 41.36 148.39 41.36 148.15 41.36C148.03 41.36 147.91 41.36 147.81 41.36ZM150.879 40.78L150.839 40.34C150.919 40.14 151.019 40.02 151.259 40C151.479 39.98 151.819 39.94 152.179 39.94C152.779 39.94 153.419 40.06 153.459 40.64C153.479 40.88 153.319 40.98 153.099 40.98L151.379 41.08C151.459 41.16 151.619 41.3 151.619 41.44C151.619 41.6 151.539 41.74 151.499 41.92C151.319 42.86 151.279 44.34 151.179 45.18L152.879 45.24C153.119 45.24 153.279 45.3 153.279 45.52C153.279 45.68 153.139 45.9 152.979 45.96C152.859 45.96 152.699 46.04 152.579 46.06C152.199 46.1 151.599 46.12 151.219 46.22C150.979 46.28 151.039 46.56 150.999 46.84C150.819 48.2 150.779 49.44 150.799 50.84C151.279 50.7 151.819 50.4 152.279 50.4C152.619 50.4 153.079 50.52 153.079 50.92C153.079 51.16 152.919 51.24 152.679 51.26C151.839 51.38 151.159 51.94 150.139 51.96C149.759 51.96 149.679 51.5 149.679 51.22C149.679 49.96 149.719 48.68 149.819 47.44C149.959 45.5 150.179 43.52 150.359 41.58C150.419 41.06 150.379 41.06 150.879 40.78Z" fill="black"/>
<path d="M72.88 163.72C73.86 163.94 74.48 164.8 74.48 165.74C74.48 166.82 72.58 169.8 71.78 169.8C71.54 169.8 71.24 169.52 71.24 169.3C71.24 169 71.34 168.68 71.62 168.62C71.72 168.62 71.74 168.6 71.82 168.5C72.46 167.86 73.44 166.48 73.44 165.52C73.44 164.38 71.4 164.92 71.4 163.86C71.4 163.62 71.54 163.44 71.74 163.3C72.72 162.74 74.32 160.64 74.32 159.34C74.32 159.12 74.18 159.02 73.96 159.02C73.46 159.02 72.96 159.36 72.48 159.36C72.14 159.36 71.9 158.98 71.9 158.64C71.9 158.6 71.9 158.52 71.92 158.46C72 158.16 73.36 157.88 73.66 157.88C74.6 157.88 75.36 158.54 75.36 159.54C75.36 160.96 73.84 163.06 72.88 163.72ZM78.5764 168.66C78.7764 168.84 78.8764 168.98 79.0764 168.96C79.7164 168.9 80.1564 167.66 80.0364 166.46C79.8964 164.84 78.4364 163.76 78.3164 162.24C78.1964 160.98 79.1764 158.54 80.9164 158.4C81.2164 158.4 81.5564 158.44 81.6564 158.78C81.6964 158.92 81.6764 159.46 81.3964 159.46C81.3564 159.46 81.3164 159.44 81.2764 159.42C80.1364 159.44 79.1764 161.06 79.2764 162.12C79.3964 163.24 80.8564 164.42 81.0364 166.34C81.1364 167.5 80.6764 169.84 79.2764 170C78.7364 170 78.2564 169.6 78.2164 169.06C78.2164 168.96 78.4764 168.64 78.5764 168.66ZM88.4784 159.84C87.5984 162.94 86.6784 166.56 86.1384 168.3C86.1384 168.6 86.0784 168.96 85.6784 168.96C85.2984 168.96 85.1384 168.66 85.0584 168.34C84.6984 167.06 84.0384 163.68 83.6184 161.94C83.6184 162.08 83.6184 162.26 83.5984 162.4C83.4984 163.3 83.2584 167.74 83.4384 169.88C83.4384 169.92 83.4784 169.98 83.4784 170.06C83.4784 170.22 82.9384 170.24 82.8384 170.24C82.3384 170.24 82.3384 168.88 82.3384 168.54C82.3184 166.92 82.3784 165.58 82.4784 163.82C82.5584 162.5 82.6784 161.12 82.6784 159.8C82.6784 159.54 82.6184 158.78 82.6184 158.4C82.6184 158.02 82.7984 157.94 83.1984 157.94C83.5984 157.94 84.0384 158.36 84.0784 158.78C84.4984 161.7 84.9984 164 85.6784 166.86C86.1784 164.6 87.2584 160.86 87.8184 158.72C87.9384 158.3 88.0184 158.2 88.4984 158.2C88.9584 158.2 89.4584 158.56 89.4584 158.98C89.4184 162.68 89.0784 166.06 89.0384 169.76C89.0384 170.1 88.9784 170.1 88.5984 170.1C88.2784 170.1 87.9184 169.38 87.9184 169.04C87.9184 167.38 88.1384 166.98 88.1984 165.42C88.2784 163.94 88.4584 161.34 88.4784 159.84ZM92.61 163.96C92.23 164 92.11 163.98 91.69 164C91.45 165.3 90.99 168.02 90.77 169.92C90.75 170.14 90.63 170.3 90.39 170.32C90.21 170.32 89.75 170.08 89.75 169.88C89.71 169.2 89.89 168.14 90.01 167.44C90.59 164.52 91.09 161.54 91.77 158.72C91.85 158.4 92.05 157.98 92.47 157.96C92.69 157.96 93.33 158.12 93.37 158.38C93.47 159.66 93.57 161.64 93.63 162.92C93.79 162.98 93.87 163.22 93.83 163.44C93.81 163.66 93.65 163.72 93.67 163.92C93.71 165.18 93.79 168.3 94.05 169.8C94.07 169.94 94.15 169.94 94.15 170.06C94.13 170.2 93.65 170.24 93.45 170.24C93.11 170.22 92.99 170.1 92.97 169.76C92.73 167.18 92.75 165.34 92.61 163.96ZM92.57 160.46L92.55 159.6C92.41 160.28 91.99 162.08 91.89 162.96C91.93 162.96 92.05 162.98 92.17 162.98C92.35 162.98 92.55 162.96 92.61 162.94C92.59 162.2 92.61 161.2 92.57 160.46ZM95.9366 168.74C96.6366 168.74 97.5366 168.5 97.9966 168.38C98.1366 168.36 98.2566 168.54 98.2566 168.7C98.2566 169.42 96.3766 169.74 95.8366 169.9C95.7966 169.92 95.7166 169.92 95.6566 169.92C95.2366 169.92 94.9966 169.7 94.8166 169.36C94.7766 169.16 94.9966 168.58 94.9966 168.22C94.9966 165.62 95.2366 162.96 95.3966 160.34C95.4366 159.84 95.4566 159.32 95.4566 158.78C95.4566 158.3 95.6966 158.3 96.0966 158.3C96.3766 158.3 96.5966 158.6 96.5766 158.86C96.2566 161.8 95.9366 165.42 95.9366 168.74ZM100.314 169.26C101.054 169.16 101.974 168.92 102.594 168.68C102.614 168.66 102.634 168.66 102.654 168.66C102.794 168.66 102.874 168.86 102.874 169.06C102.874 169.54 101.214 169.92 100.794 170.16C100.734 170.2 100.194 170.4 100.114 170.4C99.6744 170.4 99.2144 169.8 99.2344 169.42C99.2944 168.66 99.3344 167.8 99.3544 167.04C99.4944 164.18 99.6744 161.66 99.9144 158.8C99.9344 158.68 99.8944 158.44 99.8344 158.34C99.8344 158.02 100.034 157.96 100.294 157.96C100.554 157.96 101.134 158.08 101.134 158.44C101.134 158.46 101.094 158.52 101.094 158.58C100.634 162.54 100.374 165.62 100.314 169.26ZM104.883 158.78L104.843 158.34C104.923 158.14 105.023 158.02 105.263 158C105.483 157.98 105.823 157.94 106.183 157.94C106.783 157.94 107.423 158.06 107.463 158.64C107.483 158.88 107.323 158.98 107.103 158.98L105.383 159.08C105.463 159.16 105.623 159.3 105.623 159.44C105.623 159.6 105.543 159.74 105.503 159.92C105.323 160.86 105.283 162.34 105.183 163.18L106.883 163.24C107.123 163.24 107.283 163.3 107.283 163.52C107.283 163.68 107.143 163.9 106.983 163.96C106.863 163.96 106.703 164.04 106.583 164.06C106.203 164.1 105.603 164.12 105.223 164.22C104.983 164.28 105.043 164.56 105.003 164.84C104.823 166.2 104.783 167.44 104.803 168.84C105.283 168.7 105.823 168.4 106.283 168.4C106.623 168.4 107.083 168.52 107.083 168.92C107.083 169.16 106.923 169.24 106.683 169.26C105.843 169.38 105.163 169.94 104.143 169.96C103.763 169.96 103.683 169.5 103.683 169.22C103.683 167.96 103.723 166.68 103.823 165.44C103.963 163.5 104.183 161.52 104.363 159.58C104.423 159.06 104.383 159.06 104.883 158.78ZM108.143 158.64C108.443 158.3 108.643 157.86 109.123 157.84C109.463 157.84 109.683 158.02 109.843 158.3C110.263 158.64 111.303 159.06 111.343 160.84C111.383 162.42 110.483 163.58 109.823 164.34C109.923 164.44 110.323 165.52 110.363 165.62C110.883 166.82 111.583 168.06 111.723 168.32C111.803 168.5 111.603 168.58 111.423 168.58C111.383 168.58 111.343 168.58 111.303 168.58C110.483 168.46 109.483 165.96 109.163 165.28C109.163 166 109.103 166.38 109.083 166.92C109.063 167.2 108.983 168.42 109.003 169.34C109.023 169.92 108.983 170.36 108.743 170.36C108.243 170.36 108.003 170.24 107.983 169.7C107.963 168.9 108.003 168.1 108.043 167.32C108.103 165.68 108.163 164.06 108.243 162.44C108.283 161.84 108.483 160.02 108.443 159.44C108.423 158.84 108.143 158.78 108.143 158.64ZM109.243 163.34C109.723 163 110.303 161.98 110.343 160.88C110.363 160.1 109.923 159.56 109.563 159.5C109.503 160.36 109.323 162.48 109.243 163.34ZM117.107 159.36C116.887 159.74 116.887 160.16 116.847 160.56C116.707 161.94 116.327 167.38 116.367 168.98C116.387 169.22 116.507 169.42 116.507 169.66C116.507 169.92 116.287 170.06 116.047 170.06C115.527 170.08 115.327 169.7 115.307 169.24C115.267 167.52 115.447 165.62 115.567 163.94C115.647 162.62 115.827 160.6 115.847 159.6C115.847 159.36 115.727 159.36 115.487 159.36C115.107 159.38 115.327 159.4 114.967 159.42C114.607 159.44 114.487 159.18 114.447 158.88C114.347 158.8 114.367 158.66 114.367 158.56C114.347 158.4 114.487 158.26 114.627 158.26C114.647 158.26 114.667 158.26 114.667 158.26C114.847 158.26 115.007 158.34 115.187 158.34C115.187 158.34 115.207 158.34 115.227 158.34C115.467 158.32 115.727 158.32 116.007 158.32C116.867 158.32 117.767 158.38 117.987 158.48C118.207 158.6 118.327 158.8 118.347 159.04C118.347 159.22 118.207 159.38 118.027 159.36C117.927 159.36 117.687 159.36 117.447 159.36C117.327 159.36 117.207 159.36 117.107 159.36ZM120.476 162.86C121.176 162.74 121.796 162.66 122.496 162.6C122.596 161.66 122.796 159.76 122.796 158.36C122.796 158.14 122.856 157.98 123.076 157.98C123.436 157.98 123.856 158.3 123.856 158.76C123.856 159.32 123.716 159.92 123.676 160.48C123.596 161.38 123.596 161.58 123.516 162.5L124.076 162.44C124.116 162.4 124.176 162.4 124.216 162.4C124.376 162.4 124.456 162.66 124.456 162.78C124.456 163.12 123.716 163.32 123.456 163.36C123.256 165.48 123.136 167.38 123.136 169.48C123.136 169.68 123.196 169.84 123.296 169.98C123.296 170.08 123.356 170.18 123.356 170.24C123.356 170.42 123.036 170.58 122.876 170.58C122.316 170.58 122.136 170.16 122.136 169.66C122.136 168.8 122.156 168.04 122.216 167.18C122.316 165.88 122.316 164.8 122.476 163.48C121.696 163.56 121.416 163.6 120.656 163.76C120.456 163.82 120.416 163.78 120.396 163.98C120.276 165.06 119.936 168.52 120.336 169.34C120.336 169.42 120.356 169.48 120.356 169.56C120.356 169.76 120.016 169.86 119.876 169.86C119.336 169.86 119.156 169.38 119.156 168.92C119.156 168.48 119.076 168.04 119.076 167.6C119.076 166.3 119.216 165.34 119.316 164.04C119.016 164.04 118.896 164.04 118.656 163.78C118.656 163.72 118.576 163.76 118.576 163.68C118.556 163.6 118.536 163.54 118.536 163.48C118.536 163.38 118.576 163.3 118.656 163.26C118.976 163.14 119.316 163.08 119.416 163.06C119.456 162.4 119.756 159.58 119.756 158.5C119.756 158.36 119.716 158.2 119.716 158.04C119.716 157.9 119.856 157.76 119.996 157.76C120.316 157.76 120.836 158.16 120.836 158.48C120.836 159.8 120.496 161.74 120.476 162.86ZM125.819 158.12C126.039 158.28 126.299 158.24 126.259 158.6C126.039 161.96 126.039 166.06 125.699 169.62C125.659 169.9 125.619 170 125.379 170C125.299 170 125.219 170 125.099 169.98C124.859 169.94 124.699 169.5 124.739 169.26C124.699 169.22 124.719 169.14 124.719 169.08C124.939 166 125.099 162.74 125.139 159.7C125.139 159.32 125.139 159 125.179 158.62C125.259 158.24 125.459 158.12 125.819 158.12ZM130.422 166.64C130.442 164.72 130.582 161.04 130.602 160.26C130.602 159.92 130.602 158.46 130.842 158.34C130.922 158.28 131.002 158.26 131.082 158.26C131.362 158.26 131.602 158.5 131.602 158.74C131.622 159.44 131.562 160.48 131.522 161.18C131.422 163.02 131.362 166.24 131.322 168.1C131.322 168.36 131.402 168.6 131.402 168.86C131.402 169.16 131.182 169.32 130.802 169.32C130.782 169.54 130.662 169.7 130.442 169.72C130.262 169.72 130.082 169.58 130.042 169.42C129.502 167.3 129.042 164.5 129.002 164.28C128.962 164.06 128.542 161.36 128.442 161.24C128.462 161.66 128.442 162.54 128.422 162.94C128.422 163.06 128.282 168.92 128.082 169.76C128.022 170.02 127.802 170.14 127.622 170.14C127.442 170.14 127.282 170.04 127.242 169.86C127.042 169.1 127.222 168.22 127.322 167.1C127.362 166.22 127.402 165.18 127.422 164.28C127.482 162.66 127.542 161.04 127.522 159.42C127.502 158.68 127.762 158.2 128.282 158.2C128.742 158.2 128.962 158.3 129.062 158.78C129.182 159.26 129.222 159.78 129.302 160.28C129.442 161.06 129.602 161.96 129.722 162.76C129.922 163.84 130.082 164.8 130.302 165.88C130.362 166.12 130.422 166.38 130.422 166.64ZM133.914 163.56C134.974 163.5 135.654 163.42 136.454 163.24C136.634 163.18 136.854 163.16 137.074 163.08C137.114 163.26 137.154 163.32 137.134 163.5C137.114 163.98 136.054 164.26 136.034 164.42C135.894 165.58 135.714 168.04 134.914 169.14C134.654 169.5 134.374 169.8 133.954 169.8C132.674 169.8 132.534 167.2 132.534 166.28C132.534 163.72 133.314 160.68 134.734 158.62C134.834 158.44 134.954 158.3 135.154 158.3C135.434 158.3 135.794 158.64 135.794 158.98C135.794 159.12 135.754 159.24 135.674 159.34C134.954 159.66 134.054 162.78 133.914 163.56ZM133.854 164C133.714 164.62 133.654 165.82 133.654 166.48C133.654 167.18 133.854 168.44 133.994 168.78C134.574 167.86 134.914 165.62 134.954 164.48C134.674 164.48 134.054 164.46 133.854 164ZM137.815 168.66C138.015 168.84 138.115 168.98 138.315 168.96C138.955 168.9 139.395 167.66 139.275 166.46C139.135 164.84 137.675 163.76 137.555 162.24C137.435 160.98 138.415 158.54 140.155 158.4C140.455 158.4 140.795 158.44 140.895 158.78C140.935 158.92 140.915 159.46 140.635 159.46C140.595 159.46 140.555 159.44 140.515 159.42C139.375 159.44 138.415 161.06 138.515 162.12C138.635 163.24 140.095 164.42 140.275 166.34C140.375 167.5 139.915 169.84 138.515 170C137.975 170 137.495 169.6 137.455 169.06C137.455 168.96 137.715 168.64 137.815 168.66Z" fill="black"/>
<path d="M72.88 315.72C73.86 315.94 74.48 316.8 74.48 317.74C74.48 318.82 72.58 321.8 71.78 321.8C71.54 321.8 71.24 321.52 71.24 321.3C71.24 321 71.34 320.68 71.62 320.62C71.72 320.62 71.74 320.6 71.82 320.5C72.46 319.86 73.44 318.48 73.44 317.52C73.44 316.38 71.4 316.92 71.4 315.86C71.4 315.62 71.54 315.44 71.74 315.3C72.72 314.74 74.32 312.64 74.32 311.34C74.32 311.12 74.18 311.02 73.96 311.02C73.46 311.02 72.96 311.36 72.48 311.36C72.14 311.36 71.9 310.98 71.9 310.64C71.9 310.6 71.9 310.52 71.92 310.46C72 310.16 73.36 309.88 73.66 309.88C74.6 309.88 75.36 310.54 75.36 311.54C75.36 312.96 73.84 315.06 72.88 315.72ZM82.0364 316.78C81.9164 317.96 81.4164 322.12 79.7164 322.12C79.1964 322.12 78.7564 321.72 78.5364 321.28C78.3764 320.96 78.3564 320.6 78.3164 320.26C78.1164 318.58 78.2364 317.16 78.3764 315.56C78.5164 314.06 78.7764 312.66 79.1364 311.18C79.2164 310.84 79.4764 310.16 79.8364 310.16C79.9164 310.16 79.9964 310.2 80.0764 310.26C80.1764 310.32 80.2364 310.34 80.2964 310.34C80.3764 310.34 80.4364 310.32 80.5364 310.32C80.8164 310.38 81.0564 310.42 81.3564 310.62C81.4364 310.66 81.5564 310.82 81.6364 311.04C82.1964 312.3 82.2564 314.1 82.0364 316.78ZM79.6764 321.12C79.6964 321.16 79.7164 321.18 79.7364 321.18C79.7564 321.18 79.7964 321.1 79.8364 321.04C80.4764 319.8 80.8364 318 81.0164 316.64C81.1364 315.54 81.2964 311.7 80.4364 310.92C79.7364 311.86 78.7964 320 79.6764 321.12ZM86.2425 318.64C86.2625 316.72 86.4025 313.04 86.4225 312.26C86.4225 311.92 86.4225 310.46 86.6625 310.34C86.7425 310.28 86.8225 310.26 86.9025 310.26C87.1825 310.26 87.4225 310.5 87.4225 310.74C87.4425 311.44 87.3825 312.48 87.3425 313.18C87.2425 315.02 87.1825 318.24 87.1425 320.1C87.1425 320.36 87.2225 320.6 87.2225 320.86C87.2225 321.16 87.0025 321.32 86.6225 321.32C86.6025 321.54 86.4825 321.7 86.2625 321.72C86.0825 321.72 85.9025 321.58 85.8625 321.42C85.3225 319.3 84.8625 316.5 84.8225 316.28C84.7825 316.06 84.3625 313.36 84.2625 313.24C84.2825 313.66 84.2625 314.54 84.2425 314.94C84.2425 315.06 84.1025 320.92 83.9025 321.76C83.8425 322.02 83.6225 322.14 83.4425 322.14C83.2625 322.14 83.1025 322.04 83.0625 321.86C82.8625 321.1 83.0425 320.22 83.1425 319.1C83.1825 318.22 83.2225 317.18 83.2425 316.28C83.3025 314.66 83.3625 313.04 83.3425 311.42C83.3225 310.68 83.5825 310.2 84.1025 310.2C84.5625 310.2 84.7825 310.3 84.8825 310.78C85.0025 311.26 85.0425 311.78 85.1225 312.28C85.2625 313.06 85.4225 313.96 85.5425 314.76C85.7425 315.84 85.9025 316.8 86.1225 317.88C86.1825 318.12 86.2425 318.38 86.2425 318.64ZM89.7341 315.56C90.7941 315.5 91.4741 315.42 92.2741 315.24C92.4541 315.18 92.6741 315.16 92.8941 315.08C92.9341 315.26 92.9741 315.32 92.9541 315.5C92.9341 315.98 91.8741 316.26 91.8541 316.42C91.7141 317.58 91.5341 320.04 90.7341 321.14C90.4741 321.5 90.1941 321.8 89.7741 321.8C88.4941 321.8 88.3541 319.2 88.3541 318.28C88.3541 315.72 89.1341 312.68 90.5541 310.62C90.6541 310.44 90.7741 310.3 90.9741 310.3C91.2541 310.3 91.6141 310.64 91.6141 310.98C91.6141 311.12 91.5741 311.24 91.4941 311.34C90.7741 311.66 89.8741 314.78 89.7341 315.56ZM89.6741 316C89.5341 316.62 89.4741 317.82 89.4741 318.48C89.4741 319.18 89.6741 320.44 89.8141 320.78C90.3941 319.86 90.7341 317.62 90.7741 316.48C90.4941 316.48 89.8741 316.46 89.6741 316ZM97.095 316.78C96.975 317.96 96.475 322.12 94.775 322.12C94.255 322.12 93.815 321.72 93.595 321.28C93.435 320.96 93.415 320.6 93.375 320.26C93.175 318.58 93.295 317.16 93.435 315.56C93.575 314.06 93.835 312.66 94.195 311.18C94.275 310.84 94.535 310.16 94.895 310.16C94.975 310.16 95.055 310.2 95.135 310.26C95.235 310.32 95.295 310.34 95.355 310.34C95.435 310.34 95.495 310.32 95.595 310.32C95.875 310.38 96.115 310.42 96.415 310.62C96.495 310.66 96.615 310.82 96.695 311.04C97.255 312.3 97.315 314.1 97.095 316.78ZM94.735 321.12C94.755 321.16 94.775 321.18 94.795 321.18C94.815 321.18 94.855 321.1 94.895 321.04C95.535 319.8 95.895 318 96.075 316.64C96.195 315.54 96.355 311.7 95.495 310.92C94.795 311.86 93.855 320 94.735 321.12ZM99.0811 310.12C99.3011 310.28 99.5611 310.24 99.5211 310.6C99.3011 313.96 99.3011 318.06 98.9611 321.62C98.9211 321.9 98.8811 322 98.6411 322C98.5611 322 98.4811 322 98.3611 321.98C98.1211 321.94 97.9611 321.5 98.0011 321.26C97.9611 321.22 97.9811 321.14 97.9811 321.08C98.2011 318 98.3611 314.74 98.4011 311.7C98.4011 311.32 98.4011 311 98.4411 310.62C98.5211 310.24 98.7211 310.12 99.0811 310.12ZM103.684 318.64C103.704 316.72 103.844 313.04 103.864 312.26C103.864 311.92 103.864 310.46 104.104 310.34C104.184 310.28 104.264 310.26 104.344 310.26C104.624 310.26 104.864 310.5 104.864 310.74C104.884 311.44 104.824 312.48 104.784 313.18C104.684 315.02 104.624 318.24 104.584 320.1C104.584 320.36 104.664 320.6 104.664 320.86C104.664 321.16 104.444 321.32 104.064 321.32C104.044 321.54 103.924 321.7 103.704 321.72C103.524 321.72 103.344 321.58 103.304 321.42C102.764 319.3 102.304 316.5 102.264 316.28C102.224 316.06 101.804 313.36 101.704 313.24C101.724 313.66 101.704 314.54 101.684 314.94C101.684 315.06 101.544 320.92 101.344 321.76C101.284 322.02 101.064 322.14 100.884 322.14C100.704 322.14 100.544 322.04 100.504 321.86C100.304 321.1 100.484 320.22 100.584 319.1C100.624 318.22 100.664 317.18 100.684 316.28C100.744 314.66 100.804 313.04 100.784 311.42C100.764 310.68 101.024 310.2 101.544 310.2C102.004 310.2 102.224 310.3 102.324 310.78C102.444 311.26 102.484 311.78 102.564 312.28C102.704 313.06 102.864 313.96 102.984 314.76C103.184 315.84 103.344 316.8 103.564 317.88C103.624 318.12 103.684 318.38 103.684 318.64ZM107.175 315.56C108.235 315.5 108.915 315.42 109.715 315.24C109.895 315.18 110.115 315.16 110.335 315.08C110.375 315.26 110.415 315.32 110.395 315.5C110.375 315.98 109.315 316.26 109.295 316.42C109.155 317.58 108.975 320.04 108.175 321.14C107.915 321.5 107.635 321.8 107.215 321.8C105.935 321.8 105.795 319.2 105.795 318.28C105.795 315.72 106.575 312.68 107.995 310.62C108.095 310.44 108.215 310.3 108.415 310.3C108.695 310.3 109.055 310.64 109.055 310.98C109.055 311.12 109.015 311.24 108.935 311.34C108.215 311.66 107.315 314.78 107.175 315.56ZM107.115 316C106.975 316.62 106.915 317.82 106.915 318.48C106.915 319.18 107.115 320.44 107.255 320.78C107.835 319.86 108.175 317.62 108.215 316.48C107.935 316.48 107.315 316.46 107.115 316ZM115.564 311.36C115.344 311.74 115.344 312.16 115.304 312.56C115.164 313.94 114.784 319.38 114.824 320.98C114.844 321.22 114.964 321.42 114.964 321.66C114.964 321.92 114.744 322.06 114.504 322.06C113.984 322.08 113.784 321.7 113.764 321.24C113.724 319.52 113.904 317.62 114.024 315.94C114.104 314.62 114.284 312.6 114.304 311.6C114.304 311.36 114.184 311.36 113.944 311.36C113.564 311.38 113.784 311.4 113.424 311.42C113.064 311.44 112.944 311.18 112.904 310.88C112.804 310.8 112.824 310.66 112.824 310.56C112.804 310.4 112.944 310.26 113.084 310.26C113.104 310.26 113.124 310.26 113.124 310.26C113.304 310.26 113.464 310.34 113.644 310.34C113.644 310.34 113.664 310.34 113.684 310.34C113.924 310.32 114.184 310.32 114.464 310.32C115.324 310.32 116.224 310.38 116.444 310.48C116.664 310.6 116.784 310.8 116.804 311.04C116.804 311.22 116.664 311.38 116.484 311.36C116.384 311.36 116.144 311.36 115.904 311.36C115.784 311.36 115.664 311.36 115.564 311.36ZM119.27 315.96C118.89 316 118.77 315.98 118.35 316C118.11 317.3 117.65 320.02 117.43 321.92C117.41 322.14 117.29 322.3 117.05 322.32C116.87 322.32 116.41 322.08 116.41 321.88C116.37 321.2 116.55 320.14 116.67 319.44C117.25 316.52 117.75 313.54 118.43 310.72C118.51 310.4 118.71 309.98 119.13 309.96C119.35 309.96 119.99 310.12 120.03 310.38C120.13 311.66 120.23 313.64 120.29 314.92C120.45 314.98 120.53 315.22 120.49 315.44C120.47 315.66 120.31 315.72 120.33 315.92C120.37 317.18 120.45 320.3 120.71 321.8C120.73 321.94 120.81 321.94 120.81 322.06C120.79 322.2 120.31 322.24 120.11 322.24C119.77 322.22 119.65 322.1 119.63 321.76C119.39 319.18 119.41 317.34 119.27 315.96ZM119.23 312.46L119.21 311.6C119.07 312.28 118.65 314.08 118.55 314.96C118.59 314.96 118.71 314.98 118.83 314.98C119.01 314.98 119.21 314.96 119.27 314.94C119.25 314.2 119.27 313.2 119.23 312.46ZM121.897 320.66C122.097 320.84 122.197 320.98 122.397 320.96C123.037 320.9 123.477 319.66 123.357 318.46C123.217 316.84 121.757 315.76 121.637 314.24C121.517 312.98 122.497 310.54 124.237 310.4C124.537 310.4 124.877 310.44 124.977 310.78C125.017 310.92 124.997 311.46 124.717 311.46C124.677 311.46 124.637 311.44 124.597 311.42C123.457 311.44 122.497 313.06 122.597 314.12C122.717 315.24 124.177 316.42 124.357 318.34C124.457 319.5 123.997 321.84 122.597 322C122.057 322 121.577 321.6 121.537 321.06C121.537 320.96 121.797 320.64 121.897 320.66ZM127.159 313.76C127.659 313.44 128.939 311.28 129.479 311.28C129.999 311.28 130.059 312.02 129.759 312.34C128.919 313.18 127.779 314.68 127.419 315.3C127.419 316.02 129.899 319.36 129.899 319.56C129.899 319.74 129.639 319.8 129.479 319.8C128.659 319.8 127.379 317.54 126.939 316.84C126.939 316.96 126.919 317.12 126.899 317.26C126.779 318.66 126.639 320.32 126.679 321.72C126.679 321.92 126.659 322.14 126.299 322.14C126.279 322.16 126.239 322.18 126.219 322.18C125.699 322.18 125.639 321.1 125.639 320.72C125.639 319.12 125.799 317 125.899 315.38C125.979 314.48 126.079 313.36 126.159 312.44C126.199 311.78 126.259 311.14 126.319 310.44C126.339 310.24 126.479 310.12 126.679 310.12C126.679 310.12 126.699 310.12 126.719 310.12C127.099 310.12 127.439 310.56 127.419 310.96C127.379 311.76 127.179 312.98 127.159 313.76ZM130.703 321.12C130.843 321.34 131.063 321.36 131.223 321.36C132.303 321.32 132.683 319.54 132.663 318.68C132.603 316.6 130.563 316.1 130.463 313.48C130.443 312.18 132.123 309.82 133.483 309.78C133.903 309.78 134.383 310.12 134.403 310.56C134.403 310.78 134.223 310.94 134.003 310.94C133.943 310.94 133.863 310.92 133.783 310.88C132.543 310.92 131.423 312.6 131.463 313.74C131.503 315.34 133.563 316.02 133.663 318.74C133.683 320.04 132.783 322.3 131.323 322.36C130.843 322.38 130.383 322.02 130.283 321.56C130.383 321.36 130.523 321.14 130.703 321.12Z" fill="black"/>
<rect x="73.5" y="188.5" width="14" height="14" rx="2.5" fill="white" stroke="black" stroke-linejoin="round"/>
<rect x="73.5" y="219.5" width="14" height="14" rx="2.5" fill="white" stroke="black" stroke-linejoin="round"/>
<rect x="73.5" y="253.5" width="14" height="14" rx="2.5" fill="white" stroke="black" stroke-linejoin="round"/>
<rect x="73.5" y="336.5" width="14" height="14" rx="2.5" fill="white" stroke="black" stroke-linejoin="round"/>
<rect x="73.5" y="367.5" width="14" height="14" rx="2.5" fill="white" stroke="black" stroke-linejoin="round"/>
<rect x="73.5" y="401.5" width="14" height="14" rx="2.5" fill="white" stroke="black" stroke-linejoin="round"/>
<defs>
<filter id="filter0_f_404_383" x="0.607422" y="0.679688" width="325" height="426" filterUnits="userSpaceOnUse" color-interpolation-filters="sRGB">
<feFlood flood-opacity="0" result="BackgroundImageFix"/>
<feBlend mode="normal" in="SourceGraphic" in2="BackgroundImageFix" result="shape"/>
<feGaussianBlur stdDeviation="2" result="effect1_foregroundBlur_404_383"/>
</filter>
<filter id="filter1_f_404_383" x="15" y="5" width="325" height="454" filterUnits="userSpaceOnUse" color-interpolation-filters="sRGB">
<feFlood flood-opacity="0" result="BackgroundImageFix"/>
<feBlend mode="normal" in="SourceGraphic" in2="BackgroundImageFix" result="shape"/>
<feGaussianBlur stdDeviation="2" result="effect1_foregroundBlur_404_383"/>
</filter>
<linearGradient id="paint0_linear_404_383" x1="26" y1="34" x2="26" y2="36.9423" gradientUnits="userSpaceOnUse">
<stop stop-color="#F7F7F7"/>
<stop offset="0.645833" stop-color="#D9D9D9"/>
<stop offset="1" stop-color="#616161"/>
</linearGradient>
<linearGradient id="paint1_linear_404_383" x1="26" y1="38.9038" x2="26" y2="41.8461" gradientUnits="userSpaceOnUse">
<stop stop-color="#F7F7F7"/>
<stop offset="0.645833" stop-color="#D9D9D9"/>
<stop offset="1" stop-color="#616161"/>
</linearGradient>
<linearGradient id="paint2_linear_404_383" x1="26" y1="53.5962" x2="26" y2="56.5385" gradientUnits="userSpaceOnUse">
<stop stop-color="#F7F7F7"/>
<stop offset="0.645833" stop-color="#D9D9D9"/>
<stop offset="1" stop-color="#616161"/>
</linearGradient>
<linearGradient id="paint3_linear_404_383" x1="26" y1="58.5" x2="26" y2="61.4423" gradientUnits="userSpaceOnUse">
<stop stop-color="#F7F7F7"/>
<stop offset="0.645833" stop-color="#D9D9D9"/>
<stop offset="1" stop-color="#616161"/>
</linearGradient>
<linearGradient id="paint4_linear_404_383" x1="26" y1="74.1924" x2="26" y2="77.1347" gradientUnits="userSpaceOnUse">
<stop stop-color="#F7F7F7"/>
<stop offset="0.645833" stop-color="#D9D9D9"/>
<stop offset="1" stop-color="#616161"/>
</linearGradient>
<linearGradient id="paint5_linear_404_383" x1="26" y1="79.0962" x2="26" y2="82.0385" gradientUnits="userSpaceOnUse">
<stop stop-color="#F7F7F7"/>
<stop offset="0.645833" stop-color="#D9D9D9"/>
<stop offset="1" stop-color="#616161"/>
</linearGradient>
<linearGradient id="paint6_linear_404_383" x1="26" y1="93.8269" x2="26" y2="96.7692" gradientUnits="userSpaceOnUse">
<stop stop-color="#F7F7F7"/>
<stop offset="0.645833" stop-color="#D9D9D9"/>
<stop offset="1" stop-color="#616161"/>
</linearGradient>
<linearGradient id="paint7_linear_404_383" x1="26" y1="98.7307" x2="26" y2="101.673" gradientUnits="userSpaceOnUse">
<stop stop-color="#F7F7F7"/>
<stop offset="0.645833" stop-color="#D9D9D9"/>
<stop offset="1" stop-color="#616161"/>
</linearGradient>
<linearGradient id="paint8_linear_404_383" x1="26" y1="114.423" x2="26" y2="117.365" gradientUnits="userSpaceOnUse">
<stop stop-color="#F7F7F7"/>
<stop offset="0.645833" stop-color="#D9D9D9"/>
<stop offset="1" stop-color="#616161"/>
</linearGradient>
<linearGradient id="paint9_linear_404_383" x1="26" y1="119.327" x2="26" y2="122.269" gradientUnits="userSpaceOnUse">
<stop stop-color="#F7F7F7"/>
<stop offset="0.645833" stop-color="#D9D9D9"/>
<stop offset="1" stop-color="#616161"/>
</linearGradient>
<linearGradient id="paint10_linear_404_383" x1="26" y1="134" x2="26" y2="136.942" gradientUnits="userSpaceOnUse">
<stop stop-color="#F7F7F7"/>
<stop offset="0.645833" stop-color="#D9D9D9"/>
<stop offset="1" stop-color="#616161"/>
</linearGradient>
<linearGradient id="paint11_linear_404_383" x1="26" y1="138.904" x2="26" y2="141.846" gradientUnits="userSpaceOnUse">
<stop stop-color="#F7F7F7"/>
<stop offset="0.645833" stop-color="#D9D9D9"/>
<stop offset="1" stop-color="#616161"/>
</linearGradient>
<linearGradient id="paint12_linear_404_383" x1="26" y1="154" x2="26" y2="156.942" gradientUnits="userSpaceOnUse">
<stop stop-color="#F7F7F7"/>
<stop offset="0.645833" stop-color="#D9D9D9"/>
<stop offset="1" stop-color="#616161"/>
</linearGradient>
<linearGradient id="paint13_linear_404_383" x1="26" y1="158.904" x2="26" y2="161.846" gradientUnits="userSpaceOnUse">
<stop stop-color="#F7F7F7"/>
<stop offset="0.645833" stop-color="#D9D9D9"/>
<stop offset="1" stop-color="#616161"/>
</linearGradient>
<linearGradient id="paint14_linear_404_383" x1="26" y1="174.25" x2="26" y2="177.192" gradientUnits="userSpaceOnUse">
<stop stop-color="#F7F7F7"/>
<stop offset="0.645833" stop-color="#D9D9D9"/>
<stop offset="1" stop-color="#616161"/>
</linearGradient>
<linearGradient id="paint15_linear_404_383" x1="26" y1="179.154" x2="26" y2="182.096" gradientUnits="userSpaceOnUse">
<stop stop-color="#F7F7F7"/>
<stop offset="0.645833" stop-color="#D9D9D9"/>
<stop offset="1" stop-color="#616161"/>
</linearGradient>
<linearGradient id="paint16_linear_404_383" x1="26" y1="194" x2="26" y2="196.942" gradientUnits="userSpaceOnUse">
<stop stop-color="#F7F7F7"/>
<stop offset="0.645833" stop-color="#D9D9D9"/>
<stop offset="1" stop-color="#616161"/>
</linearGradient>
<linearGradient id="paint17_linear_404_383" x1="26" y1="198.904" x2="26" y2="201.846" gradientUnits="userSpaceOnUse">
<stop stop-color="#F7F7F7"/>
<stop offset="0.645833" stop-color="#D9D9D9"/>
<stop offset="1" stop-color="#616161"/>
</linearGradient>
<linearGradient id="paint18_linear_404_383" x1="26" y1="214" x2="26" y2="216.942" gradientUnits="userSpaceOnUse">
<stop stop-color="#F7F7F7"/>
<stop offset="0.645833" stop-color="#D9D9D9"/>
<stop offset="1" stop-color="#616161"/>
</linearGradient>
<linearGradient id="paint19_linear_404_383" x1="26" y1="218.904" x2="26" y2="221.846" gradientUnits="userSpaceOnUse">
<stop stop-color="#F7F7F7"/>
<stop offset="0.645833" stop-color="#D9D9D9"/>
<stop offset="1" stop-color="#616161"/>
</linearGradient>
<linearGradient id="paint20_linear_404_383" x1="26" y1="234" x2="26" y2="236.942" gradientUnits="userSpaceOnUse">
<stop stop-color="#F7F7F7"/>
<stop offset="0.645833" stop-color="#D9D9D9"/>
<stop offset="1" stop-color="#616161"/>
</linearGradient>
<linearGradient id="paint21_linear_404_383" x1="26" y1="238.904" x2="26" y2="241.846" gradientUnits="userSpaceOnUse">
<stop stop-color="#F7F7F7"/>
<stop offset="0.645833" stop-color="#D9D9D9"/>
<stop offset="1" stop-color="#616161"/>
</linearGradient>
<linearGradient id="paint22_linear_404_383" x1="26" y1="254" x2="26" y2="256.942" gradientUnits="userSpaceOnUse">
<stop stop-color="#F7F7F7"/>
<stop offset="0.645833" stop-color="#D9D9D9"/>
<stop offset="1" stop-color="#616161"/>
</linearGradient>
<linearGradient id="paint23_linear_404_383" x1="26" y1="258.904" x2="26" y2="261.846" gradientUnits="userSpaceOnUse">
<stop stop-color="#F7F7F7"/>
<stop offset="0.645833" stop-color="#D9D9D9"/>
<stop offset="1" stop-color="#616161"/>
</linearGradient>
<linearGradient id="paint24_linear_404_383" x1="26" y1="274" x2="26" y2="276.942" gradientUnits="userSpaceOnUse">
<stop stop-color="#F7F7F7"/>
<stop offset="0.645833" stop-color="#D9D9D9"/>
<stop offset="1" stop-color="#616161"/>
</linearGradient>
<linearGradient id="paint25_linear_404_383" x1="26" y1="278.904" x2="26" y2="281.846" gradientUnits="userSpaceOnUse">
<stop stop-color="#F7F7F7"/>
<stop offset="0.645833" stop-color="#D9D9D9"/>
<stop offset="1" stop-color="#616161"/>
</linearGradient>
<linearGradient id="paint26_linear_404_383" x1="26" y1="294" x2="26" y2="296.942" gradientUnits="userSpaceOnUse">
<stop stop-color="#F7F7F7"/>
<stop offset="0.645833" stop-color="#D9D9D9"/>
<stop offset="1" stop-color="#616161"/>
</linearGradient>
<linearGradient id="paint27_linear_404_383" x1="26" y1="298.904" x2="26" y2="301.846" gradientUnits="userSpaceOnUse">
<stop stop-color="#F7F7F7"/>
<stop offset="0.645833" stop-color="#D9D9D9"/>
<stop offset="1" stop-color="#616161"/>
</linearGradient>
<linearGradient id="paint28_linear_404_383" x1="26" y1="314" x2="26" y2="316.942" gradientUnits="userSpaceOnUse">
<stop stop-color="#F7F7F7"/>
<stop offset="0.645833" stop-color="#D9D9D9"/>
<stop offset="1" stop-color="#616161"/>
</linearGradient>
<linearGradient id="paint29_linear_404_383" x1="26" y1="318.904" x2="26" y2="321.846" gradientUnits="userSpaceOnUse">
<stop stop-color="#F7F7F7"/>
<stop offset="0.645833" stop-color="#D9D9D9"/>
<stop offset="1" stop-color="#616161"/>
</linearGradient>
<linearGradient id="paint30_linear_404_383" x1="26" y1="334" x2="26" y2="336.942" gradientUnits="userSpaceOnUse">
<stop stop-color="#F7F7F7"/>
<stop offset="0.645833" stop-color="#D9D9D9"/>
<stop offset="1" stop-color="#616161"/>
</linearGradient>
<linearGradient id="paint31_linear_404_383" x1="26" y1="338.904" x2="26" y2="341.846" gradientUnits="userSpaceOnUse">
<stop stop-color="#F7F7F7"/>
<stop offset="0.645833" stop-color="#D9D9D9"/>
<stop offset="1" stop-color="#616161"/>
</linearGradient>
<linearGradient id="paint32_linear_404_383" x1="26" y1="355" x2="26" y2="357.942" gradientUnits="userSpaceOnUse">
<stop stop-color="#F7F7F7"/>
<stop offset="0.645833" stop-color="#D9D9D9"/>
<stop offset="1" stop-color="#616161"/>
</linearGradient>
<linearGradient id="paint33_linear_404_383" x1="26" y1="359.904" x2="26" y2="362.846" gradientUnits="userSpaceOnUse">
<stop stop-color="#F7F7F7"/>
<stop offset="0.645833" stop-color="#D9D9D9"/>
<stop offset="1" stop-color="#616161"/>
</linearGradient>
<linearGradient id="paint34_linear_404_383" x1="26" y1="375" x2="26" y2="377.942" gradientUnits="userSpaceOnUse">
<stop stop-color="#F7F7F7"/>
<stop offset="0.645833" stop-color="#D9D9D9"/>
<stop offset="1" stop-color="#616161"/>
</linearGradient>
<linearGradient id="paint35_linear_404_383" x1="26" y1="379.904" x2="26" y2="382.846" gradientUnits="userSpaceOnUse">
<stop stop-color="#F7F7F7"/>
<stop offset="0.645833" stop-color="#D9D9D9"/>
<stop offset="1" stop-color="#616161"/>
</linearGradient>
<linearGradient id="paint36_linear_404_383" x1="26" y1="394" x2="26" y2="396.942" gradientUnits="userSpaceOnUse">
<stop stop-color="#F7F7F7"/>
<stop offset="0.645833" stop-color="#D9D9D9"/>
<stop offset="1" stop-color="#616161"/>
</linearGradient>
<linearGradient id="paint37_linear_404_383" x1="26" y1="398.904" x2="26" y2="401.846" gradientUnits="userSpaceOnUse">
<stop stop-color="#F7F7F7"/>
<stop offset="0.645833" stop-color="#D9D9D9"/>
<stop offset="1" stop-color="#616161"/>
</linearGradient>
<linearGradient id="paint38_linear_404_383" x1="26" y1="414" x2="26" y2="416.942" gradientUnits="userSpaceOnUse">
<stop stop-color="#F7F7F7"/>
<stop offset="0.645833" stop-color="#D9D9D9"/>
<stop offset="1" stop-color="#616161"/>
</linearGradient>
<linearGradient id="paint39_linear_404_383" x1="26" y1="418.904" x2="26" y2="421.846" gradientUnits="userSpaceOnUse">
<stop stop-color="#F7F7F7"/>
<stop offset="0.645833" stop-color="#D9D9D9"/>
<stop offset="1" stop-color="#616161"/>
</linearGradient>
<linearGradient id="paint40_linear_404_383" x1="26" y1="434.154" x2="26" y2="437.096" gradientUnits="userSpaceOnUse">
<stop stop-color="#F7F7F7"/>
<stop offset="0.645833" stop-color="#D9D9D9"/>
<stop offset="1" stop-color="#616161"/>
</linearGradient>
<linearGradient id="paint41_linear_404_383" x1="26" y1="439.058" x2="26" y2="442" gradientUnits="userSpaceOnUse">
<stop stop-color="#F7F7F7"/>
<stop offset="0.645833" stop-color="#D9D9D9"/>
<stop offset="1" stop-color="#616161"/>
</linearGradient>
</defs>
</svg>
