<svg width="472" height="355" viewBox="0 0 472 355" fill="none" xmlns="http://www.w3.org/2000/svg">
<rect x="458.5" y="14.5" width="317" height="444" transform="rotate(90 458.5 14.5)" fill="#CFCDCD"/>
<g filter="url(#filter0_f_404_383)">
<rect x="422.82" y="33.1077" width="317" height="418" transform="rotate(90 422.82 33.1077)" fill="#9C9C9C" fill-opacity="0.5"/>
</g>
<g filter="url(#filter1_f_404_383)">
<rect x="467.5" y="14.5" width="317" height="446" transform="rotate(90 467.5 14.5)" fill="#9C9C9C" fill-opacity="0.5"/>
</g>
<rect x="462.5" y="20.5" width="317" height="449" transform="rotate(90 462.5 20.5)" fill="white"/>
<rect x="442.5" y="32.5" width="7" height="8" transform="rotate(90 442.5 32.5)" fill="#616161"/>
<rect x="402.5" y="32.5" width="7" height="8" transform="rotate(90 402.5 32.5)" fill="#616161"/>
<rect x="422.5" y="32.5" width="7" height="8" transform="rotate(90 422.5 32.5)" fill="#616161"/>
<rect x="382.5" y="32.5" width="7" height="8" transform="rotate(90 382.5 32.5)" fill="#616161"/>
<rect x="342.5" y="32.5" width="7" height="8" transform="rotate(90 342.5 32.5)" fill="#616161"/>
<rect x="362.5" y="32.5" width="7" height="8" transform="rotate(90 362.5 32.5)" fill="#616161"/>
<rect x="322.5" y="32.5" width="7" height="8" transform="rotate(90 322.5 32.5)" fill="#616161"/>
<rect x="282.5" y="32.5" width="7" height="8" transform="rotate(90 282.5 32.5)" fill="#616161"/>
<rect x="302.5" y="32.5" width="7" height="8" transform="rotate(90 302.5 32.5)" fill="#616161"/>
<rect x="262.5" y="32.5" width="7" height="8" transform="rotate(90 262.5 32.5)" fill="#616161"/>
<rect x="222.5" y="32.5" width="7" height="8" transform="rotate(90 222.5 32.5)" fill="#616161"/>
<rect x="242.5" y="32.5" width="7" height="8" transform="rotate(90 242.5 32.5)" fill="#616161"/>
<rect x="202.5" y="32.5" width="7" height="8" transform="rotate(90 202.5 32.5)" fill="#616161"/>
<rect x="162.5" y="32.5" width="7" height="8" transform="rotate(90 162.5 32.5)" fill="#616161"/>
<rect x="182.5" y="32.5" width="7" height="8" transform="rotate(90 182.5 32.5)" fill="#616161"/>
<rect x="142.5" y="32.5" width="7" height="8" transform="rotate(90 142.5 32.5)" fill="#616161"/>
<rect x="102.5" y="32.5" width="7" height="8" transform="rotate(90 102.5 32.5)" fill="#616161"/>
<rect x="122.5" y="32.5" width="7" height="8" transform="rotate(90 122.5 32.5)" fill="#616161"/>
<rect x="82.5" y="32.5" width="7" height="8" transform="rotate(90 82.5 32.5)" fill="#616161"/>
<rect x="42.5" y="32.5" width="7" height="8" transform="rotate(90 42.5 32.5)" fill="#616161"/>
<rect x="62.5" y="32.5" width="7" height="8" transform="rotate(90 62.5 32.5)" fill="#616161"/>
<rect x="442.5" y="7.5" width="28" height="2.94231" transform="rotate(90 442.5 7.5)" fill="url(#paint0_linear_404_383)"/>
<rect x="437.596" y="7.5" width="28" height="2.94231" transform="rotate(90 437.596 7.5)" fill="url(#paint1_linear_404_383)"/>
<rect x="422.904" y="7.5" width="28" height="2.94231" transform="rotate(90 422.904 7.5)" fill="url(#paint2_linear_404_383)"/>
<rect x="418" y="7.5" width="28" height="2.94231" transform="rotate(90 418 7.5)" fill="url(#paint3_linear_404_383)"/>
<rect x="402.308" y="7.5" width="28" height="2.94231" transform="rotate(90 402.308 7.5)" fill="url(#paint4_linear_404_383)"/>
<rect x="397.404" y="7.5" width="28" height="2.94231" transform="rotate(90 397.404 7.5)" fill="url(#paint5_linear_404_383)"/>
<rect x="382.673" y="7.5" width="28" height="2.94231" transform="rotate(90 382.673 7.5)" fill="url(#paint6_linear_404_383)"/>
<rect x="377.769" y="7.5" width="28" height="2.94231" transform="rotate(90 377.769 7.5)" fill="url(#paint7_linear_404_383)"/>
<rect x="362.077" y="7.5" width="28" height="2.94231" transform="rotate(90 362.077 7.5)" fill="url(#paint8_linear_404_383)"/>
<rect x="357.173" y="7.5" width="28" height="2.94231" transform="rotate(90 357.173 7.5)" fill="url(#paint9_linear_404_383)"/>
<rect x="342.5" y="7.5" width="28" height="2.94231" transform="rotate(90 342.5 7.5)" fill="url(#paint10_linear_404_383)"/>
<rect x="337.596" y="7.5" width="28" height="2.94231" transform="rotate(90 337.596 7.5)" fill="url(#paint11_linear_404_383)"/>
<rect x="322.5" y="7.5" width="28" height="2.94231" transform="rotate(90 322.5 7.5)" fill="url(#paint12_linear_404_383)"/>
<rect x="317.596" y="7.5" width="28" height="2.94231" transform="rotate(90 317.596 7.5)" fill="url(#paint13_linear_404_383)"/>
<rect x="302.25" y="7.5" width="28" height="2.94231" transform="rotate(90 302.25 7.5)" fill="url(#paint14_linear_404_383)"/>
<rect x="297.346" y="7.5" width="28" height="2.94231" transform="rotate(90 297.346 7.5)" fill="url(#paint15_linear_404_383)"/>
<rect x="282.5" y="7.5" width="28" height="2.94231" transform="rotate(90 282.5 7.5)" fill="url(#paint16_linear_404_383)"/>
<rect x="277.596" y="7.5" width="28" height="2.94231" transform="rotate(90 277.596 7.5)" fill="url(#paint17_linear_404_383)"/>
<rect x="262.5" y="7.5" width="28" height="2.94231" transform="rotate(90 262.5 7.5)" fill="url(#paint18_linear_404_383)"/>
<rect x="257.596" y="7.5" width="28" height="2.94231" transform="rotate(90 257.596 7.5)" fill="url(#paint19_linear_404_383)"/>
<rect x="242.5" y="7.5" width="28" height="2.94231" transform="rotate(90 242.5 7.5)" fill="url(#paint20_linear_404_383)"/>
<rect x="237.596" y="7.5" width="28" height="2.94231" transform="rotate(90 237.596 7.5)" fill="url(#paint21_linear_404_383)"/>
<rect x="222.5" y="7.5" width="28" height="2.94231" transform="rotate(90 222.5 7.5)" fill="url(#paint22_linear_404_383)"/>
<rect x="217.596" y="7.5" width="28" height="2.94231" transform="rotate(90 217.596 7.5)" fill="url(#paint23_linear_404_383)"/>
<rect x="202.5" y="7.5" width="28" height="2.94231" transform="rotate(90 202.5 7.5)" fill="url(#paint24_linear_404_383)"/>
<rect x="197.596" y="7.5" width="28" height="2.94231" transform="rotate(90 197.596 7.5)" fill="url(#paint25_linear_404_383)"/>
<rect x="182.5" y="7.5" width="28" height="2.94231" transform="rotate(90 182.5 7.5)" fill="url(#paint26_linear_404_383)"/>
<rect x="177.596" y="7.5" width="28" height="2.94231" transform="rotate(90 177.596 7.5)" fill="url(#paint27_linear_404_383)"/>
<rect x="162.5" y="7.5" width="28" height="2.94231" transform="rotate(90 162.5 7.5)" fill="url(#paint28_linear_404_383)"/>
<rect x="157.596" y="7.5" width="28" height="2.94231" transform="rotate(90 157.596 7.5)" fill="url(#paint29_linear_404_383)"/>
<rect x="142.5" y="7.5" width="28" height="2.94231" transform="rotate(90 142.5 7.5)" fill="url(#paint30_linear_404_383)"/>
<rect x="137.596" y="7.5" width="28" height="2.94231" transform="rotate(90 137.596 7.5)" fill="url(#paint31_linear_404_383)"/>
<rect x="121.5" y="7.5" width="28" height="2.94231" transform="rotate(90 121.5 7.5)" fill="url(#paint32_linear_404_383)"/>
<rect x="116.596" y="7.5" width="28" height="2.94231" transform="rotate(90 116.596 7.5)" fill="url(#paint33_linear_404_383)"/>
<rect x="101.5" y="7.5" width="28" height="2.94231" transform="rotate(90 101.5 7.5)" fill="url(#paint34_linear_404_383)"/>
<rect x="96.5962" y="7.5" width="28" height="2.94231" transform="rotate(90 96.5962 7.5)" fill="url(#paint35_linear_404_383)"/>
<rect x="82.5" y="7.5" width="28" height="2.94231" transform="rotate(90 82.5 7.5)" fill="url(#paint36_linear_404_383)"/>
<rect x="77.5962" y="7.5" width="28" height="2.94231" transform="rotate(90 77.5962 7.5)" fill="url(#paint37_linear_404_383)"/>
<rect x="62.5" y="7.5" width="28" height="2.94231" transform="rotate(90 62.5 7.5)" fill="url(#paint38_linear_404_383)"/>
<rect x="57.5962" y="7.5" width="28" height="2.94231" transform="rotate(90 57.5962 7.5)" fill="url(#paint39_linear_404_383)"/>
<rect x="42.3462" y="7.5" width="28" height="2.94231" transform="rotate(90 42.3462 7.5)" fill="url(#paint40_linear_404_383)"/>
<rect x="37.4424" y="7.5" width="28" height="2.94231" transform="rotate(90 37.4424 7.5)" fill="url(#paint41_linear_404_383)"/>
<defs>
<filter id="filter0_f_404_383" x="0.820312" y="29.1077" width="426" height="325" filterUnits="userSpaceOnUse" color-interpolation-filters="sRGB">
<feFlood flood-opacity="0" result="BackgroundImageFix"/>
<feBlend mode="normal" in="SourceGraphic" in2="BackgroundImageFix" result="shape"/>
<feGaussianBlur stdDeviation="2" result="effect1_foregroundBlur_404_383"/>
</filter>
<filter id="filter1_f_404_383" x="17.5" y="10.5" width="454" height="325" filterUnits="userSpaceOnUse" color-interpolation-filters="sRGB">
<feFlood flood-opacity="0" result="BackgroundImageFix"/>
<feBlend mode="normal" in="SourceGraphic" in2="BackgroundImageFix" result="shape"/>
<feGaussianBlur stdDeviation="2" result="effect1_foregroundBlur_404_383"/>
</filter>
<linearGradient id="paint0_linear_404_383" x1="456.5" y1="7.5" x2="456.5" y2="10.4423" gradientUnits="userSpaceOnUse">
<stop stop-color="#F7F7F7"/>
<stop offset="0.645833" stop-color="#D9D9D9"/>
<stop offset="1" stop-color="#616161"/>
</linearGradient>
<linearGradient id="paint1_linear_404_383" x1="451.596" y1="7.5" x2="451.596" y2="10.4423" gradientUnits="userSpaceOnUse">
<stop stop-color="#F7F7F7"/>
<stop offset="0.645833" stop-color="#D9D9D9"/>
<stop offset="1" stop-color="#616161"/>
</linearGradient>
<linearGradient id="paint2_linear_404_383" x1="436.904" y1="7.5" x2="436.904" y2="10.4423" gradientUnits="userSpaceOnUse">
<stop stop-color="#F7F7F7"/>
<stop offset="0.645833" stop-color="#D9D9D9"/>
<stop offset="1" stop-color="#616161"/>
</linearGradient>
<linearGradient id="paint3_linear_404_383" x1="432" y1="7.5" x2="432" y2="10.4423" gradientUnits="userSpaceOnUse">
<stop stop-color="#F7F7F7"/>
<stop offset="0.645833" stop-color="#D9D9D9"/>
<stop offset="1" stop-color="#616161"/>
</linearGradient>
<linearGradient id="paint4_linear_404_383" x1="416.308" y1="7.5" x2="416.308" y2="10.4423" gradientUnits="userSpaceOnUse">
<stop stop-color="#F7F7F7"/>
<stop offset="0.645833" stop-color="#D9D9D9"/>
<stop offset="1" stop-color="#616161"/>
</linearGradient>
<linearGradient id="paint5_linear_404_383" x1="411.404" y1="7.5" x2="411.404" y2="10.4423" gradientUnits="userSpaceOnUse">
<stop stop-color="#F7F7F7"/>
<stop offset="0.645833" stop-color="#D9D9D9"/>
<stop offset="1" stop-color="#616161"/>
</linearGradient>
<linearGradient id="paint6_linear_404_383" x1="396.673" y1="7.5" x2="396.673" y2="10.4423" gradientUnits="userSpaceOnUse">
<stop stop-color="#F7F7F7"/>
<stop offset="0.645833" stop-color="#D9D9D9"/>
<stop offset="1" stop-color="#616161"/>
</linearGradient>
<linearGradient id="paint7_linear_404_383" x1="391.769" y1="7.5" x2="391.769" y2="10.4423" gradientUnits="userSpaceOnUse">
<stop stop-color="#F7F7F7"/>
<stop offset="0.645833" stop-color="#D9D9D9"/>
<stop offset="1" stop-color="#616161"/>
</linearGradient>
<linearGradient id="paint8_linear_404_383" x1="376.077" y1="7.5" x2="376.077" y2="10.4423" gradientUnits="userSpaceOnUse">
<stop stop-color="#F7F7F7"/>
<stop offset="0.645833" stop-color="#D9D9D9"/>
<stop offset="1" stop-color="#616161"/>
</linearGradient>
<linearGradient id="paint9_linear_404_383" x1="371.173" y1="7.5" x2="371.173" y2="10.4423" gradientUnits="userSpaceOnUse">
<stop stop-color="#F7F7F7"/>
<stop offset="0.645833" stop-color="#D9D9D9"/>
<stop offset="1" stop-color="#616161"/>
</linearGradient>
<linearGradient id="paint10_linear_404_383" x1="356.5" y1="7.5" x2="356.5" y2="10.4423" gradientUnits="userSpaceOnUse">
<stop stop-color="#F7F7F7"/>
<stop offset="0.645833" stop-color="#D9D9D9"/>
<stop offset="1" stop-color="#616161"/>
</linearGradient>
<linearGradient id="paint11_linear_404_383" x1="351.596" y1="7.5" x2="351.596" y2="10.4423" gradientUnits="userSpaceOnUse">
<stop stop-color="#F7F7F7"/>
<stop offset="0.645833" stop-color="#D9D9D9"/>
<stop offset="1" stop-color="#616161"/>
</linearGradient>
<linearGradient id="paint12_linear_404_383" x1="336.5" y1="7.5" x2="336.5" y2="10.4423" gradientUnits="userSpaceOnUse">
<stop stop-color="#F7F7F7"/>
<stop offset="0.645833" stop-color="#D9D9D9"/>
<stop offset="1" stop-color="#616161"/>
</linearGradient>
<linearGradient id="paint13_linear_404_383" x1="331.596" y1="7.5" x2="331.596" y2="10.4423" gradientUnits="userSpaceOnUse">
<stop stop-color="#F7F7F7"/>
<stop offset="0.645833" stop-color="#D9D9D9"/>
<stop offset="1" stop-color="#616161"/>
</linearGradient>
<linearGradient id="paint14_linear_404_383" x1="316.25" y1="7.5" x2="316.25" y2="10.4423" gradientUnits="userSpaceOnUse">
<stop stop-color="#F7F7F7"/>
<stop offset="0.645833" stop-color="#D9D9D9"/>
<stop offset="1" stop-color="#616161"/>
</linearGradient>
<linearGradient id="paint15_linear_404_383" x1="311.346" y1="7.5" x2="311.346" y2="10.4423" gradientUnits="userSpaceOnUse">
<stop stop-color="#F7F7F7"/>
<stop offset="0.645833" stop-color="#D9D9D9"/>
<stop offset="1" stop-color="#616161"/>
</linearGradient>
<linearGradient id="paint16_linear_404_383" x1="296.5" y1="7.5" x2="296.5" y2="10.4423" gradientUnits="userSpaceOnUse">
<stop stop-color="#F7F7F7"/>
<stop offset="0.645833" stop-color="#D9D9D9"/>
<stop offset="1" stop-color="#616161"/>
</linearGradient>
<linearGradient id="paint17_linear_404_383" x1="291.596" y1="7.5" x2="291.596" y2="10.4423" gradientUnits="userSpaceOnUse">
<stop stop-color="#F7F7F7"/>
<stop offset="0.645833" stop-color="#D9D9D9"/>
<stop offset="1" stop-color="#616161"/>
</linearGradient>
<linearGradient id="paint18_linear_404_383" x1="276.5" y1="7.5" x2="276.5" y2="10.4423" gradientUnits="userSpaceOnUse">
<stop stop-color="#F7F7F7"/>
<stop offset="0.645833" stop-color="#D9D9D9"/>
<stop offset="1" stop-color="#616161"/>
</linearGradient>
<linearGradient id="paint19_linear_404_383" x1="271.596" y1="7.5" x2="271.596" y2="10.4423" gradientUnits="userSpaceOnUse">
<stop stop-color="#F7F7F7"/>
<stop offset="0.645833" stop-color="#D9D9D9"/>
<stop offset="1" stop-color="#616161"/>
</linearGradient>
<linearGradient id="paint20_linear_404_383" x1="256.5" y1="7.5" x2="256.5" y2="10.4423" gradientUnits="userSpaceOnUse">
<stop stop-color="#F7F7F7"/>
<stop offset="0.645833" stop-color="#D9D9D9"/>
<stop offset="1" stop-color="#616161"/>
</linearGradient>
<linearGradient id="paint21_linear_404_383" x1="251.596" y1="7.5" x2="251.596" y2="10.4423" gradientUnits="userSpaceOnUse">
<stop stop-color="#F7F7F7"/>
<stop offset="0.645833" stop-color="#D9D9D9"/>
<stop offset="1" stop-color="#616161"/>
</linearGradient>
<linearGradient id="paint22_linear_404_383" x1="236.5" y1="7.5" x2="236.5" y2="10.4423" gradientUnits="userSpaceOnUse">
<stop stop-color="#F7F7F7"/>
<stop offset="0.645833" stop-color="#D9D9D9"/>
<stop offset="1" stop-color="#616161"/>
</linearGradient>
<linearGradient id="paint23_linear_404_383" x1="231.596" y1="7.5" x2="231.596" y2="10.4423" gradientUnits="userSpaceOnUse">
<stop stop-color="#F7F7F7"/>
<stop offset="0.645833" stop-color="#D9D9D9"/>
<stop offset="1" stop-color="#616161"/>
</linearGradient>
<linearGradient id="paint24_linear_404_383" x1="216.5" y1="7.5" x2="216.5" y2="10.4423" gradientUnits="userSpaceOnUse">
<stop stop-color="#F7F7F7"/>
<stop offset="0.645833" stop-color="#D9D9D9"/>
<stop offset="1" stop-color="#616161"/>
</linearGradient>
<linearGradient id="paint25_linear_404_383" x1="211.596" y1="7.5" x2="211.596" y2="10.4423" gradientUnits="userSpaceOnUse">
<stop stop-color="#F7F7F7"/>
<stop offset="0.645833" stop-color="#D9D9D9"/>
<stop offset="1" stop-color="#616161"/>
</linearGradient>
<linearGradient id="paint26_linear_404_383" x1="196.5" y1="7.5" x2="196.5" y2="10.4423" gradientUnits="userSpaceOnUse">
<stop stop-color="#F7F7F7"/>
<stop offset="0.645833" stop-color="#D9D9D9"/>
<stop offset="1" stop-color="#616161"/>
</linearGradient>
<linearGradient id="paint27_linear_404_383" x1="191.596" y1="7.5" x2="191.596" y2="10.4423" gradientUnits="userSpaceOnUse">
<stop stop-color="#F7F7F7"/>
<stop offset="0.645833" stop-color="#D9D9D9"/>
<stop offset="1" stop-color="#616161"/>
</linearGradient>
<linearGradient id="paint28_linear_404_383" x1="176.5" y1="7.5" x2="176.5" y2="10.4423" gradientUnits="userSpaceOnUse">
<stop stop-color="#F7F7F7"/>
<stop offset="0.645833" stop-color="#D9D9D9"/>
<stop offset="1" stop-color="#616161"/>
</linearGradient>
<linearGradient id="paint29_linear_404_383" x1="171.596" y1="7.5" x2="171.596" y2="10.4423" gradientUnits="userSpaceOnUse">
<stop stop-color="#F7F7F7"/>
<stop offset="0.645833" stop-color="#D9D9D9"/>
<stop offset="1" stop-color="#616161"/>
</linearGradient>
<linearGradient id="paint30_linear_404_383" x1="156.5" y1="7.5" x2="156.5" y2="10.4423" gradientUnits="userSpaceOnUse">
<stop stop-color="#F7F7F7"/>
<stop offset="0.645833" stop-color="#D9D9D9"/>
<stop offset="1" stop-color="#616161"/>
</linearGradient>
<linearGradient id="paint31_linear_404_383" x1="151.596" y1="7.5" x2="151.596" y2="10.4423" gradientUnits="userSpaceOnUse">
<stop stop-color="#F7F7F7"/>
<stop offset="0.645833" stop-color="#D9D9D9"/>
<stop offset="1" stop-color="#616161"/>
</linearGradient>
<linearGradient id="paint32_linear_404_383" x1="135.5" y1="7.5" x2="135.5" y2="10.4423" gradientUnits="userSpaceOnUse">
<stop stop-color="#F7F7F7"/>
<stop offset="0.645833" stop-color="#D9D9D9"/>
<stop offset="1" stop-color="#616161"/>
</linearGradient>
<linearGradient id="paint33_linear_404_383" x1="130.596" y1="7.5" x2="130.596" y2="10.4423" gradientUnits="userSpaceOnUse">
<stop stop-color="#F7F7F7"/>
<stop offset="0.645833" stop-color="#D9D9D9"/>
<stop offset="1" stop-color="#616161"/>
</linearGradient>
<linearGradient id="paint34_linear_404_383" x1="115.5" y1="7.5" x2="115.5" y2="10.4423" gradientUnits="userSpaceOnUse">
<stop stop-color="#F7F7F7"/>
<stop offset="0.645833" stop-color="#D9D9D9"/>
<stop offset="1" stop-color="#616161"/>
</linearGradient>
<linearGradient id="paint35_linear_404_383" x1="110.596" y1="7.5" x2="110.596" y2="10.4423" gradientUnits="userSpaceOnUse">
<stop stop-color="#F7F7F7"/>
<stop offset="0.645833" stop-color="#D9D9D9"/>
<stop offset="1" stop-color="#616161"/>
</linearGradient>
<linearGradient id="paint36_linear_404_383" x1="96.5" y1="7.5" x2="96.5" y2="10.4423" gradientUnits="userSpaceOnUse">
<stop stop-color="#F7F7F7"/>
<stop offset="0.645833" stop-color="#D9D9D9"/>
<stop offset="1" stop-color="#616161"/>
</linearGradient>
<linearGradient id="paint37_linear_404_383" x1="91.5962" y1="7.5" x2="91.5962" y2="10.4423" gradientUnits="userSpaceOnUse">
<stop stop-color="#F7F7F7"/>
<stop offset="0.645833" stop-color="#D9D9D9"/>
<stop offset="1" stop-color="#616161"/>
</linearGradient>
<linearGradient id="paint38_linear_404_383" x1="76.5" y1="7.5" x2="76.5" y2="10.4423" gradientUnits="userSpaceOnUse">
<stop stop-color="#F7F7F7"/>
<stop offset="0.645833" stop-color="#D9D9D9"/>
<stop offset="1" stop-color="#616161"/>
</linearGradient>
<linearGradient id="paint39_linear_404_383" x1="71.5962" y1="7.5" x2="71.5962" y2="10.4423" gradientUnits="userSpaceOnUse">
<stop stop-color="#F7F7F7"/>
<stop offset="0.645833" stop-color="#D9D9D9"/>
<stop offset="1" stop-color="#616161"/>
</linearGradient>
<linearGradient id="paint40_linear_404_383" x1="56.3462" y1="7.5" x2="56.3462" y2="10.4423" gradientUnits="userSpaceOnUse">
<stop stop-color="#F7F7F7"/>
<stop offset="0.645833" stop-color="#D9D9D9"/>
<stop offset="1" stop-color="#616161"/>
</linearGradient>
<linearGradient id="paint41_linear_404_383" x1="51.4424" y1="7.5" x2="51.4424" y2="10.4423" gradientUnits="userSpaceOnUse">
<stop stop-color="#F7F7F7"/>
<stop offset="0.645833" stop-color="#D9D9D9"/>
<stop offset="1" stop-color="#616161"/>
</linearGradient>
</defs>
</svg>
