<svg width="361" height="356" viewBox="0 0 361 356" fill="none" xmlns="http://www.w3.org/2000/svg">
<g filter="url(#filter0_d_517_2881)">
<path d="M12.0342 339.032L12.0342 1.03223L276.034 1.03222C320.217 1.03221 356.034 36.8494 356.034 81.0322L356.034 339.032L12.0342 339.032Z" fill="url(#paint0_linear_517_2881)"/>
<path fill-rule="evenodd" clip-rule="evenodd" d="M77.0336 0.967527L77.0336 61.9865L75.0336 59.9865L75.0336 0.967527L77.0336 0.967527ZM67.0336 0.967527L67.0336 51.9865L65.0336 49.9865L65.0336 0.967527L67.0336 0.967527ZM57.0336 0.967528L57.0336 41.9865L55.0336 39.9865L55.0336 0.967528L57.0336 0.967528ZM47.0336 0.967528L47.0336 31.9865L45.0336 29.9865L45.0336 0.967528L47.0336 0.967528ZM37.0336 0.967528L37.0336 21.9865L35.0336 19.9865L35.0336 0.967528L37.0336 0.967528ZM27.0336 0.967529L27.0336 11.9865L25.0336 9.98653L25.0336 0.967529L27.0336 0.967529ZM17.0336 0.967529L17.0336 1.98653L16.0146 0.967529L17.0336 0.967529ZM87.0336 0.967526L87.0336 67.9675L85.0336 67.9675L85.0336 0.967526L87.0336 0.967526ZM97.0336 0.967526L97.0336 67.9675L95.0336 67.9675L95.0336 0.967526L97.0336 0.967526ZM107.034 0.967525L107.034 67.9675L105.034 67.9675L105.034 0.967525L107.034 0.967525ZM117.034 0.967525L117.034 67.9675L115.034 67.9675L115.034 0.967525L117.034 0.967525ZM127.034 0.967524L127.034 67.9675L125.034 67.9675L125.034 0.967525L127.034 0.967524ZM137.034 0.967524L137.034 67.9675L135.034 67.9675L135.034 0.967524L137.034 0.967524ZM147.034 0.967524L147.034 67.9675L145.034 67.9675L145.034 0.967524L147.034 0.967524ZM157.034 0.967523L157.034 67.9675L155.034 67.9675L155.034 0.967523L157.034 0.967523ZM167.034 0.967523L167.034 67.9675L165.034 67.9675L165.034 0.967523L167.034 0.967523ZM177.034 0.967522L177.034 67.9675L175.034 67.9675L175.034 0.967522L177.034 0.967522ZM187.034 0.967522L187.034 67.9675L185.034 67.9675L185.034 0.967522L187.034 0.967522ZM197.034 0.967521L197.034 67.9675L195.034 67.9675L195.034 0.967521L197.034 0.967521ZM207.034 0.967521L207.034 67.9675L205.034 67.9675L205.034 0.967521L207.034 0.967521ZM217.034 0.967521L217.034 67.9675L215.034 67.9675L215.034 0.967521L217.034 0.967521ZM227.034 0.96752L227.034 67.9675L225.034 67.9675L225.034 0.96752L227.034 0.96752ZM237.034 0.96752L237.034 67.9675L235.034 67.9675L235.034 0.96752L237.034 0.96752ZM247.034 0.967519L247.034 67.9675L245.034 67.9675L245.034 0.967519L247.034 0.967519ZM257.034 0.967519L257.034 67.9675L255.034 67.9675L255.034 0.967519L257.034 0.967519ZM267.034 0.967518L267.034 67.9675L265.034 67.9675L265.034 0.967518L267.034 0.967518ZM277.034 0.967518L277.034 67.9675L275.034 67.9675L275.034 0.967518L277.034 0.967518ZM287.034 0.967517L287.034 67.9675L285.034 67.9675L285.034 0.967518L287.034 0.967517ZM297.034 4.54024L297.034 67.9675L295.034 67.9675L295.034 2.57257L297.034 4.54024ZM305.034 12.4109L305.034 67.9675L307.034 67.9675L307.034 14.3786L305.034 12.4109ZM315.034 22.2493L315.034 67.9675L317.034 67.9675L317.034 24.217L315.034 22.2493ZM325.034 32.0877L325.034 67.9675L327.034 67.9675L327.034 34.0553L325.034 32.0877ZM335.034 41.926L335.034 67.9675L337.034 67.9675L337.034 43.8937L335.034 41.926ZM345.034 51.7644L345.034 67.9675L347.034 67.9675L347.034 53.7321L345.034 51.7644Z" fill="#E6E6E6" fill-opacity="0.3"/>
<path fill-rule="evenodd" clip-rule="evenodd" d="M76.0532 64.0322L15.0342 64.0322L15.0342 62.0322L74.0532 62.0322L76.0532 64.0322ZM66.0532 54.0322L15.0342 54.0322L15.0342 52.0322L64.0532 52.0322L66.0532 54.0322ZM56.0532 44.0322L15.0342 44.0322L15.0342 42.0322L54.0532 42.0322L56.0532 44.0322ZM46.0532 34.0322L15.0342 34.0322L15.0342 32.0322L44.0532 32.0322L46.0532 34.0322ZM36.0532 24.0322L15.0342 24.0322L15.0342 22.0322L34.0532 22.0322L36.0532 24.0322ZM26.0532 14.0322L15.0342 14.0322L15.0342 12.0322L24.0532 12.0322L26.0532 14.0322ZM16.0532 4.03219L15.0342 4.03219L15.0342 3.01319L16.0532 4.03219ZM82.0342 74.0322L15.0342 74.0322L15.0342 72.0322L82.0342 72.0322L82.0342 74.0322ZM82.0342 84.0322L15.0342 84.0322L15.0342 82.0322L82.0342 82.0322L82.0342 84.0322ZM82.0342 94.0322L15.0342 94.0322L15.0342 92.0322L82.0342 92.0322L82.0342 94.0322ZM82.0342 104.032L15.0342 104.032L15.0342 102.032L82.0342 102.032L82.0342 104.032ZM82.0342 114.032L15.0342 114.032L15.0342 112.032L82.0342 112.032L82.0342 114.032ZM82.0342 124.032L15.0342 124.032L15.0342 122.032L82.0342 122.032L82.0342 124.032ZM82.0342 134.032L15.0342 134.032L15.0342 132.032L82.0342 132.032L82.0342 134.032ZM82.0342 144.032L15.0342 144.032L15.0342 142.032L82.0342 142.032L82.0342 144.032ZM82.0342 154.032L15.0342 154.032L15.0342 152.032L82.0342 152.032L82.0342 154.032ZM82.0342 164.032L15.0342 164.032L15.0342 162.032L82.0342 162.032L82.0342 164.032ZM82.0342 174.032L15.0342 174.032L15.0342 172.032L82.0342 172.032L82.0342 174.032ZM82.0342 184.032L15.0342 184.032L15.0342 182.032L82.0342 182.032L82.0342 184.032ZM82.0342 194.032L15.0342 194.032L15.0342 192.032L82.0342 192.032L82.0342 194.032ZM82.0342 204.032L15.0342 204.032L15.0342 202.032L82.0342 202.032L82.0342 204.032ZM82.0342 214.032L15.0342 214.032L15.0342 212.032L82.0342 212.032L82.0342 214.032ZM82.0342 224.032L15.0342 224.032L15.0342 222.032L82.0342 222.032L82.0342 224.032ZM82.0342 234.032L15.0342 234.032L15.0342 232.032L82.0342 232.032L82.0342 234.032ZM82.0342 244.032L15.0342 244.032L15.0342 242.032L82.0342 242.032L82.0342 244.032ZM82.0342 254.032L15.0342 254.032L15.0342 252.032L82.0342 252.032L82.0342 254.032ZM82.0342 264.032L15.0342 264.032L15.0342 262.032L82.0342 262.032L82.0342 264.032ZM82.0342 274.032L15.0342 274.032L15.0342 272.032L82.0342 272.032L82.0342 274.032ZM82.0342 284.032L15.0342 284.032L15.0342 282.032L82.0342 282.032L82.0342 284.032ZM82.0342 294.032L15.0342 294.032L15.0342 292.032L82.0342 292.032L82.0342 294.032ZM82.0342 304.032L15.0342 304.032L15.0342 302.032L82.0342 302.032L82.0342 304.032ZM82.0342 314.032L15.0342 314.032L15.0342 312.032L82.0342 312.032L82.0342 314.032ZM82.0342 324.032L15.0342 324.032L15.0342 322.032L82.0342 322.032L82.0342 324.032ZM82.0342 334.032L15.0342 334.032L15.0342 332.032L82.0342 332.032L82.0342 334.032Z" fill="#E6E6E6" fill-opacity="0.3"/>
<path d="M355.534 63.0327C346.034 55.5327 330.534 52.0327 307.034 52.0327C310.034 26.0327 307.034 20.5327 297.034 3.03259C341.034 17.5327 355.534 63.0327 355.534 63.0327Z" fill="#E9E9E9"/>
</g>
<path d="M121.229 257.001L121.321 257.835L122.022 257.758L122.067 257.054L121.229 257.001ZM100.081 259.336L99.2426 259.283L99.1794 260.281L100.173 260.171L100.081 259.336ZM100.541 252.075L100.448 251.24L99.7471 251.318L99.7025 252.022L100.541 252.075ZM108.065 251.244L108.157 252.079L108.859 252.001L108.903 251.296L108.065 251.244ZM108.81 239.219L109.648 239.271L109.714 238.201L108.659 238.393L108.81 239.219ZM101.256 240.595L100.418 240.536L100.343 241.614L101.406 241.421L101.256 240.595ZM101.76 233.328L101.484 232.535L100.961 232.718L100.922 233.27L101.76 233.328ZM111.611 229.897L111.519 229.062L111.424 229.073L111.335 229.104L111.611 229.897ZM118.289 229.16L119.127 229.214L119.192 228.215L118.197 228.325L118.289 229.16ZM116.925 250.266L116.087 250.211L116.022 251.21L117.017 251.1L116.925 250.266ZM121.689 249.739L122.527 249.792L122.59 248.795L121.596 248.905L121.689 249.739ZM121.137 256.166L99.9886 258.501L100.173 260.171L121.321 257.835L121.137 256.166ZM100.919 259.389L101.379 252.128L99.7025 252.022L99.2426 259.283L100.919 259.389ZM100.633 252.91L108.157 252.079L107.973 250.409L100.448 251.24L100.633 252.91ZM108.903 251.296L109.648 239.271L107.972 239.168L107.227 251.192L108.903 251.296ZM108.659 238.393L101.105 239.768L101.406 241.421L108.96 240.046L108.659 238.393ZM102.093 240.653L102.598 233.387L100.922 233.27L100.418 240.536L102.093 240.653ZM102.036 234.122L111.887 230.69L111.335 229.104L101.484 232.535L102.036 234.122ZM111.703 230.732L118.381 229.994L118.197 228.325L111.519 229.062L111.703 230.732ZM117.451 229.105L116.087 250.211L117.763 250.32L119.127 229.214L117.451 229.105ZM117.017 251.1L121.781 250.574L121.596 248.905L116.833 249.431L117.017 251.1ZM120.85 249.686L120.391 256.948L122.067 257.054L122.527 249.792L120.85 249.686ZM126.197 236.037L125.36 236.113L125.457 237.192L126.478 236.829L126.197 236.037ZM125.597 229.389L125.268 228.616L124.706 228.856L124.761 229.464L125.597 229.389ZM144.287 227.235L144.767 226.546L144.76 226.541L144.287 227.235ZM146.289 237.198L145.479 236.974L145.477 236.982L146.289 237.198ZM143.372 241.396L142.835 240.75L142.83 240.755L143.372 241.396ZM139.577 244.159L139.983 244.894L139.577 244.159ZM133.555 247.167L133.203 246.404L132.75 246.613L132.717 247.111L133.555 247.167ZM133.47 248.438L132.632 248.382L132.565 249.383L133.562 249.273L133.47 248.438ZM145.402 247.121L146.24 247.174L146.303 246.176L145.309 246.286L145.402 247.121ZM144.942 254.382L145.034 255.217L145.735 255.139L145.78 254.435L144.942 254.382ZM123.215 256.781L122.377 256.727L122.313 257.726L123.307 257.616L123.215 256.781ZM123.58 251.108L124.418 251.162L124.418 251.154L123.58 251.108ZM124.389 247.008L123.64 246.627L123.635 246.636L123.631 246.646L124.389 247.008ZM125.553 244.896L124.847 244.441L124.843 244.447L125.553 244.896ZM126.914 243.349L127.474 243.975L127.484 243.966L127.493 243.957L126.914 243.349ZM128.433 242.009L128.954 242.669L128.964 242.66L128.433 242.009ZM130.358 240.67L130.804 241.382L130.814 241.376L130.358 240.67ZM132.467 239.356L132.893 240.079L132.467 239.356ZM134.881 237.962L135.297 238.692L134.881 237.962ZM137.464 236.46L137.896 237.181L138.279 236.952L138.303 236.507L137.464 236.46ZM137.6 234.012L138.438 234.058L138.487 233.18L137.607 233.172L137.6 234.012ZM127.033 235.962L126.434 229.314L124.761 229.464L125.36 236.113L127.033 235.962ZM125.927 230.161C129.475 228.649 132.954 227.709 136.366 227.332L136.182 225.662C132.589 226.059 128.95 227.047 125.268 228.616L125.927 230.161ZM136.366 227.332C138.323 227.116 139.924 227.073 141.183 227.188C142.456 227.306 143.301 227.579 143.814 227.928L144.76 226.541C143.908 225.96 142.736 225.645 141.337 225.516C139.925 225.386 138.202 225.439 136.182 225.662L136.366 227.332ZM143.807 227.924C144.849 228.65 145.539 229.898 145.754 231.85L147.424 231.665C147.174 229.402 146.329 227.634 144.767 226.546L143.807 227.924ZM145.754 231.85C145.975 233.851 145.873 235.553 145.479 236.974L147.098 237.423C147.563 235.744 147.662 233.819 147.424 231.665L145.754 231.85ZM145.477 236.982C145.129 238.29 144.279 239.549 142.835 240.75L143.909 242.042C145.547 240.679 146.641 239.14 147.1 237.414L145.477 236.982ZM142.83 240.755C141.336 242.019 140.119 242.899 139.17 243.423L139.983 244.894C141.072 244.292 142.386 243.33 143.915 242.037L142.83 240.755ZM139.17 243.423C137.494 244.35 135.506 245.343 133.203 246.404L133.906 247.93C136.235 246.857 138.261 245.845 139.983 244.894L139.17 243.423ZM132.717 247.111L132.632 248.382L134.308 248.494L134.393 247.223L132.717 247.111ZM133.562 249.273L145.494 247.955L145.309 246.286L133.377 247.603L133.562 249.273ZM144.563 247.067L144.104 254.329L145.78 254.435L146.24 247.174L144.563 247.067ZM144.85 253.547L123.123 255.946L123.307 257.616L145.034 255.217L144.85 253.547ZM124.053 256.835L124.418 251.162L122.742 251.054L122.377 256.727L124.053 256.835ZM124.418 251.154C124.516 249.378 124.778 248.141 125.147 247.37L123.631 246.646C123.121 247.714 122.843 249.211 122.741 251.062L124.418 251.154ZM125.138 247.388C125.602 246.473 125.976 245.797 126.262 245.346L124.843 244.447C124.515 244.965 124.113 245.696 123.64 246.627L125.138 247.388ZM126.259 245.351C126.543 244.91 126.943 244.451 127.474 243.975L126.354 242.723C125.737 243.275 125.229 243.847 124.847 244.441L126.259 245.351ZM127.493 243.957C128.052 243.425 128.538 242.997 128.954 242.668L127.913 241.35C127.444 241.721 126.917 242.186 126.335 242.741L127.493 243.957ZM128.964 242.66C129.395 242.309 130.004 241.883 130.804 241.382L129.913 239.958C129.083 240.478 128.409 240.945 127.902 241.359L128.964 242.66ZM130.814 241.376C131.65 240.835 132.343 240.404 132.893 240.079L132.04 238.632C131.462 238.973 130.749 239.418 129.903 239.965L130.814 241.376ZM132.893 240.079C133.452 239.75 134.253 239.288 135.297 238.692L134.465 237.233C133.419 237.83 132.609 238.296 132.04 238.632L132.893 240.079ZM135.297 238.692C136.346 238.094 137.213 237.59 137.896 237.181L137.033 235.74C136.364 236.141 135.508 236.638 134.465 237.233L135.297 238.692ZM138.303 236.507L138.438 234.058L136.761 233.966L136.626 236.414L138.303 236.507ZM137.607 233.172C136.316 233.161 135.117 233.216 134.01 233.338L134.195 235.008C135.225 234.894 136.357 234.841 137.593 234.852L137.607 233.172ZM134.01 233.338C131.357 233.631 128.658 234.269 125.915 235.246L126.478 236.829C129.111 235.89 131.683 235.285 134.195 235.008L134.01 233.338ZM148.934 249.479L149.772 249.545L149.772 249.536L149.773 249.528L148.934 249.479ZM150.084 245.612L149.45 245.061L149.445 245.067L149.44 245.074L150.084 245.612ZM156.986 244.444L156.541 245.156L156.55 245.162L156.558 245.167L156.986 244.444ZM158.15 248.461L157.313 248.396L157.312 248.404L157.312 248.413L158.15 248.461ZM156.951 252.289L156.329 251.725L156.323 251.731L156.318 251.737L156.951 252.289ZM150.05 253.457L149.605 254.169L149.625 254.182L149.646 254.194L150.05 253.457ZM149.773 249.528C149.872 247.807 150.239 246.738 150.729 246.15L149.44 245.074C148.604 246.075 148.203 247.584 148.096 249.431L149.773 249.528ZM150.718 246.163C151.213 245.593 152.13 245.149 153.665 244.98L153.481 243.31C151.75 243.501 150.341 244.036 149.45 245.061L150.718 246.163ZM153.665 244.98C154.464 244.892 155.104 244.875 155.599 244.919C156.105 244.963 156.393 245.064 156.541 245.156L157.431 243.732C156.965 243.441 156.378 243.301 155.746 243.245C155.103 243.189 154.344 243.215 153.481 243.31L153.665 244.98ZM156.558 245.167C156.944 245.395 157.186 245.748 157.253 246.352L158.922 246.168C158.805 245.11 158.313 244.253 157.413 243.721L156.558 245.167ZM157.253 246.352C157.34 247.146 157.358 247.825 157.313 248.396L158.988 248.527C159.043 247.825 159.018 247.036 158.922 246.168L157.253 246.352ZM157.312 248.413C157.212 250.131 156.831 251.171 156.329 251.725L157.573 252.853C158.463 251.872 158.882 250.36 158.989 248.51L157.312 248.413ZM156.318 251.737C155.855 252.268 154.946 252.702 153.365 252.877L153.55 254.546C155.294 254.354 156.713 253.84 157.584 252.841L156.318 251.737ZM153.365 252.877C152.58 252.964 151.943 252.983 151.444 252.946C150.935 252.908 150.625 252.815 150.453 252.72L149.646 254.194C150.114 254.45 150.691 254.574 151.319 254.621C151.955 254.668 152.703 254.64 153.55 254.546L153.365 252.877ZM150.494 252.745C150.126 252.515 149.896 252.168 149.832 251.588L148.162 251.773C148.275 252.796 148.746 253.633 149.605 254.169L150.494 252.745ZM149.832 251.588C149.744 250.795 149.727 250.116 149.772 249.545L148.097 249.414C148.042 250.116 148.066 250.904 148.162 251.773L149.832 251.588ZM158.005 238.743L158.843 238.801L158.843 238.799L158.005 238.743ZM158.87 232.294L158.055 232.092L158.052 232.104L158.87 232.294ZM160.872 227.566L161.578 228.022L161.582 228.015L160.872 227.566ZM177.826 223.981L177.315 224.648L177.322 224.653L177.826 223.981ZM180.637 236.379L179.8 236.32L179.799 236.328L180.637 236.379ZM179.787 242.962L180.604 243.156L180.606 243.152L179.787 242.962ZM177.83 247.685L178.538 248.138L178.541 248.133L177.83 247.685ZM160.876 251.27L161.38 250.598L160.876 251.27ZM167.076 232.739L167.914 232.795L167.915 232.79L167.076 232.739ZM166.227 245.451L165.389 245.395L165.322 246.396L166.319 246.286L166.227 245.451ZM170.724 244.549L171.165 245.264L171.18 245.255L171.195 245.245L170.724 244.549ZM171.621 242.467L172.459 242.522L172.459 242.52L171.621 242.467ZM172.426 229.76L173.264 229.813L173.327 228.816L172.333 228.925L172.426 229.76ZM167.84 230.672L167.368 229.978L167.359 229.984L167.35 229.99L167.84 230.672ZM158.88 245.136C158.688 243.39 158.672 241.281 158.843 238.801L157.168 238.686C156.992 241.231 157.004 243.445 157.211 245.321L158.88 245.136ZM158.843 238.799C159.011 236.285 159.295 234.183 159.689 232.483L158.052 232.104C157.632 233.919 157.339 236.117 157.167 238.687L158.843 238.799ZM159.686 232.496C160.102 230.816 160.735 229.328 161.578 228.022L160.166 227.111C159.214 228.587 158.512 230.25 158.055 232.092L159.686 232.496ZM161.582 228.015C163.107 225.6 165.959 224.064 170.391 223.574L170.206 221.905C165.496 222.425 162.063 224.107 160.162 227.118L161.582 228.015ZM170.391 223.574C173.766 223.202 176.001 223.64 177.315 224.648L178.337 223.315C176.5 221.906 173.717 221.517 170.206 221.905L170.391 223.574ZM177.322 224.653C178.638 225.639 179.521 227.389 179.822 230.115L181.491 229.931C181.163 226.957 180.159 224.68 178.33 223.309L177.322 224.653ZM179.822 230.115C179.987 231.616 179.985 233.677 179.8 236.32L181.475 236.438C181.663 233.752 181.673 231.576 181.491 229.931L179.822 230.115ZM179.799 236.328C179.641 238.932 179.362 241.077 178.969 242.773L180.606 243.152C181.026 241.333 181.314 239.089 181.476 236.43L179.799 236.328ZM178.97 242.768C178.58 244.412 177.962 245.899 177.12 247.238L178.541 248.133C179.488 246.629 180.174 244.969 180.604 243.156L178.97 242.768ZM177.123 247.232C175.596 249.62 172.742 251.142 168.307 251.632L168.491 253.302C173.198 252.782 176.632 251.117 178.538 248.138L177.123 247.232ZM168.307 251.632C164.928 252.005 162.691 251.581 161.38 250.598L160.372 251.942C162.206 253.316 164.984 253.689 168.491 253.302L168.307 251.632ZM161.38 250.598C160.065 249.612 159.182 247.862 158.88 245.136L157.211 245.321C157.539 248.294 158.543 250.571 160.372 251.942L161.38 250.598ZM166.238 232.683L165.389 245.395L167.065 245.507L167.914 232.795L166.238 232.683ZM166.319 246.286L168.1 246.09L167.916 244.42L166.135 244.617L166.319 246.286ZM168.1 246.09C169.397 245.946 170.462 245.697 171.165 245.264L170.283 243.834C169.917 244.06 169.171 244.281 167.916 244.42L168.1 246.09ZM171.195 245.245C172.045 244.67 172.386 243.652 172.459 242.522L170.783 242.413C170.723 243.34 170.466 243.71 170.254 243.853L171.195 245.245ZM172.459 242.52L173.264 229.813L171.587 229.707L170.783 242.414L172.459 242.52ZM172.333 228.925L170.33 229.147L170.514 230.816L172.518 230.595L172.333 228.925ZM170.33 229.147C169.072 229.286 168.027 229.529 167.368 229.978L168.312 231.367C168.602 231.17 169.279 230.953 170.514 230.816L170.33 229.147ZM167.35 229.99C166.572 230.548 166.304 231.593 166.238 232.689L167.915 232.79C167.976 231.769 168.216 231.435 168.329 231.355L167.35 229.99ZM184.78 229.567L183.943 229.643L184.04 230.722L185.062 230.359L184.78 229.567ZM184.181 222.919L183.851 222.146L183.289 222.386L183.344 222.994L184.181 222.919ZM202.87 220.765L203.35 220.076L203.343 220.071L202.87 220.765ZM204.872 230.728L204.062 230.504L204.06 230.512L204.872 230.728ZM201.956 234.926L201.418 234.28L201.413 234.285L201.956 234.926ZM198.16 237.689L198.566 238.424L198.16 237.689ZM192.138 240.697L191.786 239.934L191.333 240.143L191.3 240.641L192.138 240.697ZM192.053 241.968L191.215 241.912L191.148 242.913L192.145 242.803L192.053 241.968ZM203.985 240.65L204.823 240.704L204.886 239.706L203.893 239.816L203.985 240.65ZM203.525 247.912L203.617 248.747L204.318 248.669L204.363 247.965L203.525 247.912ZM181.798 250.311L180.96 250.257L180.896 251.256L181.89 251.146L181.798 250.311ZM182.163 244.638L183.001 244.692L183.001 244.684L182.163 244.638ZM182.972 240.538L182.223 240.157L182.218 240.166L182.214 240.176L182.972 240.538ZM184.136 238.426L183.43 237.971L183.426 237.977L184.136 238.426ZM185.497 236.879L186.057 237.505L186.067 237.496L186.076 237.487L185.497 236.879ZM187.017 235.539L187.537 236.199L187.547 236.19L187.017 235.539ZM188.942 234.2L189.388 234.912L189.397 234.906L188.942 234.2ZM191.05 232.886L191.476 233.609L191.05 232.886ZM193.465 231.492L193.881 232.222L193.465 231.492ZM196.048 229.99L196.479 230.711L196.862 230.482L196.886 230.037L196.048 229.99ZM196.183 227.542L197.021 227.588L197.07 226.71L196.19 226.702L196.183 227.542ZM185.616 229.492L185.017 222.843L183.344 222.994L183.943 229.643L185.616 229.492ZM184.51 223.691C188.058 222.179 191.537 221.239 194.949 220.862L194.765 219.192C191.172 219.589 187.534 220.577 183.851 222.146L184.51 223.691ZM194.949 220.862C196.906 220.646 198.507 220.603 199.766 220.718C201.039 220.836 201.884 221.109 202.397 221.458L203.343 220.071C202.491 219.49 201.319 219.175 199.92 219.046C198.508 218.916 196.785 218.969 194.765 219.192L194.949 220.862ZM202.39 221.454C203.432 222.18 204.122 223.428 204.337 225.38L206.007 225.195C205.757 222.932 204.912 221.164 203.35 220.076L202.39 221.454ZM204.337 225.38C204.558 227.381 204.456 229.083 204.062 230.504L205.681 230.953C206.147 229.274 206.245 227.349 206.007 225.195L204.337 225.38ZM204.06 230.512C203.713 231.82 202.863 233.079 201.418 234.28L202.493 235.572C204.13 234.209 205.224 232.67 205.683 230.944L204.06 230.512ZM201.413 234.285C199.919 235.549 198.702 236.429 197.753 236.953L198.566 238.424C199.656 237.822 200.969 236.86 202.498 235.567L201.413 234.285ZM197.753 236.953C196.077 237.88 194.089 238.873 191.786 239.934L192.489 241.46C194.818 240.387 196.844 239.375 198.566 238.424L197.753 236.953ZM191.3 240.641L191.215 241.912L192.891 242.024L192.976 240.753L191.3 240.641ZM192.145 242.803L204.077 241.485L203.893 239.816L191.961 241.133L192.145 242.803ZM203.147 240.597L202.687 247.859L204.363 247.965L204.823 240.704L203.147 240.597ZM203.433 247.077L181.706 249.476L181.89 251.146L203.617 248.747L203.433 247.077ZM182.636 250.365L183.001 244.692L181.325 244.584L180.96 250.257L182.636 250.365ZM183.001 244.684C183.1 242.908 183.361 241.671 183.73 240.9L182.214 240.176C181.704 241.244 181.427 242.741 181.324 244.592L183.001 244.684ZM183.721 240.918C184.185 240.003 184.559 239.327 184.845 238.876L183.426 237.977C183.098 238.495 182.696 239.226 182.223 240.157L183.721 240.918ZM184.842 238.881C185.126 238.44 185.526 237.981 186.057 237.505L184.937 236.253C184.32 236.805 183.813 237.377 183.43 237.971L184.842 238.881ZM186.076 237.487C186.635 236.955 187.122 236.527 187.537 236.198L186.496 234.88C186.027 235.251 185.501 235.716 184.918 236.271L186.076 237.487ZM187.547 236.19C187.978 235.839 188.587 235.413 189.388 234.912L188.496 233.488C187.666 234.008 186.992 234.475 186.486 234.889L187.547 236.19ZM189.397 234.906C190.234 234.365 190.926 233.934 191.476 233.609L190.623 232.162C190.045 232.503 189.332 232.948 188.486 233.495L189.397 234.906ZM191.476 233.609C192.035 233.28 192.836 232.818 193.881 232.222L193.049 230.763C192.002 231.36 191.193 231.826 190.623 232.162L191.476 233.609ZM193.881 232.222C194.929 231.624 195.796 231.12 196.479 230.711L195.616 229.27C194.947 229.671 194.092 230.168 193.049 230.763L193.881 232.222ZM196.886 230.037L197.021 227.588L195.344 227.496L195.209 229.944L196.886 230.037ZM196.19 226.702C194.899 226.691 193.7 226.746 192.593 226.868L192.778 228.538C193.808 228.424 194.94 228.371 196.176 228.382L196.19 226.702ZM192.593 226.868C189.94 227.161 187.241 227.799 184.498 228.776L185.062 230.359C187.694 229.42 190.266 228.815 192.778 228.538L192.593 226.868ZM207.517 243.009L208.355 243.075L208.355 243.066L208.356 243.058L207.517 243.009ZM208.668 239.142L208.034 238.591L208.028 238.597L208.023 238.604L208.668 239.142ZM215.569 237.974L215.124 238.686L215.133 238.692L215.142 238.697L215.569 237.974ZM216.733 241.991L215.896 241.926L215.896 241.934L215.895 241.943L216.733 241.991ZM215.534 245.819L214.912 245.255L214.906 245.261L214.901 245.267L215.534 245.819ZM208.633 246.987L208.188 247.699L208.208 247.712L208.23 247.724L208.633 246.987ZM208.356 243.058C208.456 241.337 208.822 240.267 209.312 239.68L208.023 238.604C207.187 239.605 206.786 241.114 206.679 242.961L208.356 243.058ZM209.302 239.693C209.797 239.123 210.713 238.679 212.248 238.51L212.064 236.84C210.333 237.031 208.925 237.566 208.034 238.591L209.302 239.693ZM212.248 238.51C213.047 238.422 213.688 238.405 214.182 238.449C214.688 238.493 214.976 238.594 215.124 238.686L216.014 237.262C215.548 236.971 214.961 236.831 214.329 236.775C213.686 236.719 212.927 236.745 212.064 236.84L212.248 238.51ZM215.142 238.697C215.527 238.925 215.769 239.278 215.836 239.882L217.505 239.698C217.389 238.64 216.896 237.783 215.996 237.251L215.142 238.697ZM215.836 239.882C215.924 240.676 215.941 241.355 215.896 241.926L217.571 242.057C217.626 241.355 217.601 240.566 217.505 239.698L215.836 239.882ZM215.895 241.943C215.795 243.661 215.415 244.701 214.912 245.255L216.156 246.383C217.046 245.402 217.465 243.89 217.572 242.04L215.895 241.943ZM214.901 245.267C214.439 245.798 213.529 246.232 211.949 246.407L212.133 248.076C213.877 247.884 215.296 247.37 216.167 246.371L214.901 245.267ZM211.949 246.407C211.163 246.494 210.526 246.513 210.027 246.476C209.518 246.438 209.208 246.345 209.036 246.25L208.23 247.724C208.697 247.98 209.275 248.104 209.902 248.151C210.538 248.198 211.286 248.17 212.133 248.076L211.949 246.407ZM209.078 246.275C208.71 246.045 208.479 245.698 208.415 245.118L206.745 245.303C206.858 246.326 207.33 247.163 208.188 247.699L209.078 246.275ZM208.415 245.118C208.327 244.325 208.31 243.646 208.355 243.075L206.68 242.944C206.625 243.646 206.65 244.434 206.745 245.303L208.415 245.118ZM218.893 225.8L218.057 225.875L218.154 226.955L219.175 226.591L218.893 225.8ZM218.294 219.151L217.965 218.379L217.403 218.618L217.457 219.227L218.294 219.151ZM236.983 216.997L237.464 216.308L237.457 216.303L236.983 216.997ZM238.985 226.961L238.176 226.736L238.173 226.745L238.985 226.961ZM236.069 231.158L235.532 230.513L235.526 230.517L236.069 231.158ZM232.273 233.921L232.679 234.656L232.273 233.921ZM226.251 236.93L225.9 236.167L225.446 236.376L225.413 236.874L226.251 236.93ZM226.166 238.201L225.328 238.145L225.261 239.146L226.258 239.036L226.166 238.201ZM238.098 236.883L238.936 236.936L238.999 235.938L238.006 236.048L238.098 236.883ZM237.638 244.144L237.73 244.979L238.432 244.902L238.476 244.197L237.638 244.144ZM215.911 246.544L215.073 246.49L215.009 247.488L216.004 247.379L215.911 246.544ZM216.276 240.87L217.114 240.924L217.115 240.917L216.276 240.87ZM217.085 236.77L216.336 236.39L216.332 236.399L216.327 236.408L217.085 236.77ZM218.249 234.659L217.543 234.204L217.54 234.209L218.249 234.659ZM219.61 233.111L220.171 233.737L220.18 233.728L220.19 233.72L219.61 233.111ZM221.13 231.772L221.651 232.431L221.661 232.423L221.13 231.772ZM223.055 230.433L223.501 231.144L223.511 231.138L223.055 230.433ZM225.163 229.118L225.59 229.842L225.163 229.118ZM227.578 227.725L227.994 228.455L227.578 227.725ZM230.161 226.223L230.593 226.943L230.975 226.714L231 226.269L230.161 226.223ZM230.296 223.774L231.135 223.821L231.183 222.942L230.303 222.935L230.296 223.774ZM219.73 225.725L219.13 219.076L217.457 219.227L218.057 225.875L219.73 225.725ZM218.623 219.924C222.172 218.412 225.651 217.471 229.063 217.095L228.878 215.425C225.285 215.822 221.647 216.809 217.965 218.379L218.623 219.924ZM229.063 217.095C231.02 216.878 232.621 216.835 233.88 216.951C235.152 217.068 235.997 217.341 236.51 217.691L237.457 216.303C236.605 215.722 235.432 215.407 234.034 215.278C232.622 215.148 230.899 215.202 228.878 215.425L229.063 217.095ZM236.503 217.686C237.545 218.413 238.235 219.66 238.451 221.612L240.12 221.428C239.87 219.165 239.025 217.397 237.464 216.308L236.503 217.686ZM238.451 221.612C238.672 223.614 238.57 225.315 238.176 226.736L239.794 227.185C240.26 225.507 240.358 223.581 240.12 221.428L238.451 221.612ZM238.173 226.745C237.826 228.052 236.976 229.311 235.532 230.513L236.606 231.804C238.244 230.442 239.338 228.903 239.797 227.177L238.173 226.745ZM235.526 230.517C234.033 231.781 232.816 232.662 231.867 233.186L232.679 234.656C233.769 234.054 235.083 233.093 236.611 231.8L235.526 230.517ZM231.867 233.186C230.19 234.112 228.202 235.106 225.9 236.167L226.603 237.692C228.931 236.619 230.958 235.607 232.679 234.656L231.867 233.186ZM225.413 236.874L225.328 238.145L227.004 238.257L227.089 236.986L225.413 236.874ZM226.258 239.036L238.19 237.718L238.006 236.048L226.074 237.366L226.258 239.036ZM237.26 236.83L236.8 244.091L238.476 244.197L238.936 236.936L237.26 236.83ZM237.546 243.309L215.819 245.709L216.004 247.379L237.73 244.979L237.546 243.309ZM216.75 246.598L217.114 240.924L215.438 240.816L215.073 246.49L216.75 246.598ZM217.115 240.917C217.213 239.14 217.475 237.904 217.843 237.132L216.327 236.408C215.817 237.476 215.54 238.973 215.438 240.824L217.115 240.917ZM217.834 237.151C218.299 236.236 218.673 235.559 218.959 235.108L217.54 234.209C217.211 234.727 216.809 235.459 216.336 236.39L217.834 237.151ZM218.955 235.114C219.239 234.673 219.639 234.213 220.171 233.737L219.05 232.486C218.433 233.038 217.926 233.61 217.543 234.204L218.955 235.114ZM220.19 233.72C220.749 233.187 221.235 232.759 221.651 232.431L220.609 231.113C220.141 231.483 219.614 231.948 219.031 232.503L220.19 233.72ZM221.661 232.423C222.091 232.071 222.701 231.646 223.501 231.144L222.609 229.721C221.78 230.241 221.105 230.708 220.599 231.121L221.661 232.423ZM223.511 231.138C224.347 230.598 225.039 230.166 225.59 229.842L224.736 228.395C224.159 228.735 223.446 229.18 222.599 229.727L223.511 231.138ZM225.59 229.842C226.149 229.512 226.949 229.05 227.994 228.455L227.162 226.995C226.115 227.592 225.306 228.059 224.736 228.395L225.59 229.842ZM227.994 228.455C229.042 227.857 229.909 227.353 230.593 226.943L229.729 225.502C229.06 225.903 228.205 226.401 227.162 226.995L227.994 228.455ZM231 226.269L231.135 223.821L229.458 223.728L229.322 226.177L231 226.269ZM230.303 222.935C229.013 222.924 227.813 222.978 226.707 223.101L226.891 224.77C227.922 224.656 229.054 224.604 230.289 224.614L230.303 222.935ZM226.707 223.101C224.054 223.394 221.355 224.031 218.611 225.009L219.175 226.591C221.808 225.653 224.379 225.048 226.891 224.77L226.707 223.101ZM241.058 229.571L241.896 229.629L241.896 229.627L241.058 229.571ZM241.923 223.121L241.108 222.919L241.105 222.932L241.923 223.121ZM243.925 218.394L244.631 218.849L244.635 218.842L243.925 218.394ZM260.879 214.809L260.368 215.475L260.375 215.481L260.879 214.809ZM263.69 227.207L262.853 227.148L262.852 227.156L263.69 227.207ZM262.84 233.79L263.657 233.984L263.658 233.979L262.84 233.79ZM260.883 238.513L261.591 238.965L261.594 238.96L260.883 238.513ZM243.929 242.097L244.433 241.425L243.929 242.097ZM250.129 223.567L250.967 223.623L250.968 223.617L250.129 223.567ZM249.28 236.279L248.442 236.223L248.375 237.224L249.372 237.114L249.28 236.279ZM253.777 235.377L254.218 236.092L254.233 236.082L254.247 236.072L253.777 235.377ZM254.674 233.295L255.512 233.349L255.512 233.348L254.674 233.295ZM255.479 220.588L256.317 220.641L256.38 219.643L255.386 219.753L255.479 220.588ZM250.893 221.5L250.42 220.805L250.412 220.811L250.403 220.817L250.893 221.5ZM241.933 235.964C241.741 234.218 241.725 232.109 241.896 229.629L240.221 229.513C240.045 232.058 240.057 234.273 240.264 236.148L241.933 235.964ZM241.896 229.627C242.064 227.113 242.348 225.01 242.742 223.311L241.105 222.932C240.685 224.747 240.392 226.944 240.22 229.515L241.896 229.627ZM242.739 223.323C243.155 221.644 243.787 220.155 244.631 218.849L243.219 217.938C242.267 219.414 241.565 221.077 241.108 222.919L242.739 223.323ZM244.635 218.842C246.16 216.427 249.012 214.891 253.443 214.402L253.259 212.732C248.549 213.252 245.116 214.934 243.215 217.945L244.635 218.842ZM253.443 214.402C256.819 214.029 259.054 214.468 260.368 215.475L261.39 214.142C259.553 212.734 256.77 212.345 253.259 212.732L253.443 214.402ZM260.375 215.481C261.69 216.466 262.574 218.217 262.875 220.943L264.544 220.758C264.216 217.785 263.212 215.508 261.383 214.137L260.375 215.481ZM262.875 220.943C263.04 222.443 263.038 224.505 262.853 227.148L264.528 227.265C264.716 224.58 264.726 222.404 264.544 220.758L262.875 220.943ZM262.852 227.156C262.694 229.76 262.415 231.904 262.022 233.601L263.658 233.979C264.079 232.161 264.367 229.916 264.529 227.258L262.852 227.156ZM262.023 233.596C261.633 235.239 261.015 236.727 260.173 238.065L261.594 238.96C262.54 237.457 263.227 235.796 263.657 233.984L262.023 233.596ZM260.176 238.06C258.649 240.447 255.795 241.97 251.36 242.46L251.544 244.129C256.251 243.61 259.685 241.944 261.591 238.965L260.176 238.06ZM251.36 242.46C247.981 242.833 245.744 242.408 244.433 241.425L243.425 242.77C245.259 244.143 248.037 244.517 251.544 244.129L251.36 242.46ZM244.433 241.425C243.118 240.44 242.234 238.689 241.933 235.964L240.264 236.148C240.592 239.121 241.596 241.398 243.425 242.77L244.433 241.425ZM249.291 223.511L248.442 236.223L250.118 236.335L250.967 223.623L249.291 223.511ZM249.372 237.114L251.153 236.917L250.969 235.247L249.188 235.444L249.372 237.114ZM251.153 236.917C252.45 236.774 253.515 236.525 254.218 236.092L253.336 234.662C252.97 234.887 252.224 235.109 250.969 235.247L251.153 236.917ZM254.247 236.072C255.098 235.498 255.439 234.479 255.512 233.349L253.836 233.24C253.776 234.168 253.519 234.537 253.307 234.681L254.247 236.072ZM255.512 233.348L256.317 220.641L254.64 220.535L253.836 233.242L255.512 233.348ZM255.386 219.753L253.383 219.974L253.567 221.644L255.571 221.422L255.386 219.753ZM253.383 219.974C252.125 220.113 251.08 220.357 250.42 220.805L251.365 222.194C251.655 221.997 252.332 221.78 253.567 221.644L253.383 219.974ZM250.403 220.817C249.625 221.376 249.357 222.421 249.291 223.517L250.968 223.617C251.029 222.596 251.269 222.263 251.382 222.182L250.403 220.817ZM267.833 220.395L266.996 220.47L267.093 221.55L268.115 221.186L267.833 220.395ZM267.234 213.746L266.904 212.974L266.342 213.213L266.397 213.822L267.234 213.746ZM285.923 211.592L286.403 210.903L286.396 210.898L285.923 211.592ZM287.925 221.556L287.115 221.331L287.113 221.34L287.925 221.556ZM285.008 225.754L284.471 225.108L284.466 225.112L285.008 225.754ZM281.213 228.516L281.619 229.251L281.213 228.516ZM275.191 231.525L274.839 230.762L274.386 230.971L274.353 231.469L275.191 231.525ZM275.106 232.796L274.268 232.74L274.201 233.741L275.198 233.631L275.106 232.796ZM287.038 231.478L287.876 231.531L287.939 230.533L286.946 230.643L287.038 231.478ZM286.578 238.739L286.67 239.574L287.371 239.497L287.416 238.792L286.578 238.739ZM264.851 241.139L264.013 241.085L263.949 242.083L264.943 241.974L264.851 241.139ZM265.216 235.465L266.054 235.519L266.054 235.512L265.216 235.465ZM266.025 231.365L265.276 230.985L265.271 230.994L265.267 231.003L266.025 231.365ZM267.189 229.254L266.483 228.799L266.479 228.804L267.189 229.254ZM268.55 227.706L269.11 228.332L269.12 228.323L269.129 228.315L268.55 227.706ZM270.069 226.367L270.59 227.026L270.6 227.018L270.069 226.367ZM271.995 225.028L272.441 225.739L272.45 225.733L271.995 225.028ZM274.103 223.713L274.529 224.437L274.103 223.713ZM276.518 222.32L276.933 223.05L276.518 222.32ZM279.101 220.818L279.532 221.538L279.915 221.309L279.939 220.864L279.101 220.818ZM279.236 218.369L280.074 218.416L280.123 217.537L279.243 217.53L279.236 218.369ZM268.669 220.32L268.07 213.671L266.397 213.822L266.996 220.47L268.669 220.32ZM267.563 214.519C271.111 213.007 274.59 212.066 278.002 211.69L277.818 210.02C274.225 210.417 270.587 211.404 266.904 212.974L267.563 214.519ZM278.002 211.69C279.959 211.473 281.56 211.43 282.819 211.546C284.092 211.663 284.937 211.936 285.45 212.286L286.396 210.898C285.544 210.317 284.372 210.002 282.973 209.873C281.561 209.743 279.838 209.797 277.818 210.02L278.002 211.69ZM285.443 212.281C286.485 213.008 287.175 214.255 287.39 216.207L289.06 216.023C288.81 213.76 287.965 211.992 286.403 210.903L285.443 212.281ZM287.39 216.207C287.611 218.209 287.509 219.911 287.115 221.331L288.734 221.78C289.199 220.102 289.298 218.176 289.06 216.023L287.39 216.207ZM287.113 221.34C286.766 222.647 285.916 223.907 284.471 225.108L285.546 226.399C287.183 225.037 288.277 223.498 288.736 221.772L287.113 221.34ZM284.466 225.112C282.972 226.376 281.755 227.257 280.806 227.781L281.619 229.251C282.709 228.649 284.022 227.688 285.551 226.395L284.466 225.112ZM280.806 227.781C279.13 228.707 277.142 229.701 274.839 230.762L275.542 232.287C277.871 231.214 279.897 230.202 281.619 229.251L280.806 227.781ZM274.353 231.469L274.268 232.74L275.944 232.852L276.029 231.581L274.353 231.469ZM275.198 233.631L287.13 232.313L286.946 230.643L275.014 231.961L275.198 233.631ZM286.2 231.425L285.74 238.686L287.416 238.792L287.876 231.531L286.2 231.425ZM286.486 237.904L264.759 240.304L264.943 241.974L286.67 239.574L286.486 237.904ZM265.689 241.193L266.054 235.519L264.378 235.411L264.013 241.085L265.689 241.193ZM266.054 235.512C266.153 233.735 266.414 232.499 266.783 231.727L265.267 231.003C264.757 232.071 264.479 233.568 264.377 235.419L266.054 235.512ZM266.774 231.746C267.238 230.831 267.612 230.154 267.898 229.703L266.479 228.804C266.151 229.322 265.749 230.054 265.276 230.985L266.774 231.746ZM267.895 229.709C268.179 229.268 268.579 228.808 269.11 228.332L267.99 227.081C267.373 227.633 266.866 228.205 266.483 228.799L267.895 229.709ZM269.129 228.315C269.688 227.782 270.175 227.354 270.59 227.026L269.549 225.708C269.08 226.078 268.554 226.543 267.971 227.098L269.129 228.315ZM270.6 227.018C271.031 226.666 271.64 226.241 272.441 225.739L271.549 224.316C270.719 224.836 270.045 225.303 269.539 225.716L270.6 227.018ZM272.45 225.733C273.286 225.193 273.979 224.761 274.529 224.437L273.676 222.99C273.098 223.331 272.385 223.775 271.539 224.322L272.45 225.733ZM274.529 224.437C275.088 224.107 275.889 223.645 276.933 223.05L276.102 221.59C275.055 222.187 274.245 222.654 273.676 222.99L274.529 224.437ZM276.933 223.05C277.982 222.452 278.849 221.948 279.532 221.538L278.669 220.097C278 220.498 277.144 220.996 276.102 221.59L276.933 223.05ZM279.939 220.864L280.074 218.416L278.397 218.323L278.262 220.772L279.939 220.864ZM279.243 217.53C277.952 217.519 276.753 217.573 275.646 217.696L275.831 219.365C276.861 219.251 277.993 219.199 279.229 219.209L279.243 217.53ZM275.646 217.696C272.993 217.989 270.294 218.626 267.551 219.604L268.115 221.186C270.747 220.248 273.319 219.643 275.831 219.365L275.646 217.696ZM311.804 235.953L311.897 236.788L312.598 236.71L312.643 236.006L311.804 235.953ZM290.656 238.289L289.818 238.236L289.755 239.233L290.749 239.124L290.656 238.289ZM291.116 231.028L291.024 230.193L290.323 230.27L290.278 230.974L291.116 231.028ZM298.641 230.197L298.733 231.031L299.435 230.954L299.479 230.249L298.641 230.197ZM299.386 218.172L300.224 218.224L300.29 217.154L299.235 217.346L299.386 218.172ZM291.831 219.547L290.993 219.489L290.919 220.567L291.982 220.373L291.831 219.547ZM292.336 212.281L292.059 211.488L291.536 211.67L291.498 212.223L292.336 212.281ZM302.187 208.85L302.094 208.015L302 208.025L301.91 208.057L302.187 208.85ZM308.865 208.112L309.703 208.166L309.768 207.167L308.773 207.277L308.865 208.112ZM307.501 229.218L306.662 229.164L306.598 230.163L307.593 230.053L307.501 229.218ZM312.264 228.692L313.103 228.745L313.166 227.747L312.172 227.857L312.264 228.692ZM311.712 235.118L290.564 237.454L290.749 239.124L311.897 236.788L311.712 235.118ZM291.495 238.342L291.955 231.081L290.278 230.974L289.818 238.236L291.495 238.342ZM291.209 231.862L298.733 231.031L298.548 229.362L291.024 230.193L291.209 231.862ZM299.479 230.249L300.224 218.224L298.547 218.12L297.802 230.145L299.479 230.249ZM299.235 217.346L291.681 218.721L291.982 220.373L299.536 218.998L299.235 217.346ZM292.669 219.605L293.174 212.339L291.498 212.223L290.993 219.489L292.669 219.605ZM292.612 213.074L302.463 209.643L301.91 208.057L292.059 211.488L292.612 213.074ZM302.279 209.684L308.957 208.947L308.773 207.277L302.094 208.015L302.279 209.684ZM308.027 208.058L306.662 229.164L308.339 229.272L309.703 208.166L308.027 208.058ZM307.593 230.053L312.357 229.527L312.172 227.857L307.408 228.383L307.593 230.053ZM311.426 228.639L310.966 235.9L312.643 236.006L313.103 228.745L311.426 228.639Z" fill="url(#paint1_linear_517_2881)"/>
<path d="M185.496 258.842L186.324 258.701L186.191 257.921L185.404 258.008L185.496 258.842ZM187.157 268.573L186.329 268.715L186.462 269.495L187.249 269.408L187.157 268.573ZM187.468 268.539L187.56 269.374L188.116 269.312L188.274 268.776L187.468 268.539ZM190.482 258.292L190.39 257.457L189.835 257.518L189.677 258.055L190.482 258.292ZM199.832 257.259L200.607 257.583L201.157 256.268L199.74 256.424L199.832 257.259ZM190.85 278.756L190.075 278.432L190.02 278.564L190.011 278.706L190.85 278.756ZM190.395 286.467L190.487 287.302L191.191 287.224L191.233 286.517L190.395 286.467ZM181.935 287.401L181.097 287.352L181.038 288.345L182.028 288.236L181.935 287.401ZM182.391 279.69L183.229 279.74L183.238 279.585L183.192 279.438L182.391 279.69ZM176.146 259.875L176.054 259.04L175.038 259.152L175.345 260.127L176.146 259.875ZM184.668 258.984L186.329 268.715L187.984 268.432L186.324 258.701L184.668 258.984ZM187.249 269.408L187.56 269.374L187.376 267.704L187.064 267.739L187.249 269.408ZM188.274 268.776L191.288 258.529L189.677 258.055L186.662 268.302L188.274 268.776ZM190.575 259.126L199.924 258.094L199.74 256.424L190.39 257.457L190.575 259.126ZM199.057 256.935L190.075 278.432L191.625 279.08L200.607 257.583L199.057 256.935ZM190.011 278.706L189.556 286.418L191.233 286.517L191.688 278.805L190.011 278.706ZM190.302 285.632L181.843 286.567L182.028 288.236L190.487 287.302L190.302 285.632ZM182.774 287.451L183.229 279.74L181.552 279.641L181.097 287.352L182.774 287.451ZM183.192 279.438L176.947 259.623L175.345 260.127L181.59 279.942L183.192 279.438ZM176.239 260.71L185.588 259.677L185.404 258.008L176.054 259.04L176.239 260.71ZM206.586 277.018L206.48 276.185L205.789 276.273L205.748 276.968L206.586 277.018ZM206.491 278.606L205.653 278.555L205.599 279.448L206.494 279.445L206.491 278.606ZM217.043 276.223L217.88 276.148L217.774 274.967L216.695 275.459L217.043 276.223ZM217.633 282.783L217.94 283.565L218.526 283.335L218.469 282.708L217.633 282.783ZM201.925 264.193L201.362 263.57L201.355 263.576L201.925 264.193ZM216.865 261.552L216.543 262.328L216.555 262.332L216.865 261.552ZM219.279 269.938L218.469 269.713L218.467 269.722L218.465 269.731L219.279 269.938ZM217.812 272.984L217.168 272.446L217.812 272.984ZM215.016 275.005L215.348 275.777L215.358 275.772L215.368 275.768L215.016 275.005ZM207.061 269.89L206.223 269.829L206.222 269.841L207.061 269.89ZM206.951 271.75L206.112 271.7L206.053 272.694L207.043 272.585L206.951 271.75ZM210.879 271.001L211.282 271.738L211.3 271.728L211.317 271.717L210.879 271.001ZM211.686 269.334L210.849 269.265L210.848 269.273L211.686 269.334ZM211.841 267.47L212.678 267.539L212.762 266.523L211.748 266.635L211.841 267.47ZM207.873 268.268L208.276 269.005L208.294 268.995L208.312 268.984L207.873 268.268ZM205.748 276.968L205.653 278.555L207.329 278.656L207.424 277.068L205.748 276.968ZM206.494 279.445C207.365 279.443 208.246 279.392 209.136 279.294L208.951 277.624C208.119 277.716 207.298 277.763 206.488 277.766L206.494 279.445ZM209.136 279.294C211.959 278.982 214.712 278.212 217.392 276.987L216.695 275.459C214.17 276.613 211.589 277.333 208.951 277.624L209.136 279.294ZM216.207 276.299L216.796 282.858L218.469 282.708L217.88 276.148L216.207 276.299ZM217.326 282.001C214.194 283.23 211.065 284.015 207.938 284.361L208.122 286.03C211.406 285.668 214.679 284.844 217.94 283.565L217.326 282.001ZM207.938 284.361C204.923 284.694 202.745 284.27 201.271 283.253C199.822 282.253 198.901 280.572 198.62 278.033L196.951 278.217C197.267 281.08 198.351 283.279 200.317 284.635C202.258 285.975 204.904 286.386 208.122 286.03L207.938 284.361ZM198.62 278.033C197.964 272.092 199.315 267.748 202.495 264.81L201.355 263.576C197.665 266.985 196.256 271.929 196.951 278.217L198.62 278.033ZM202.488 264.817C204.196 263.274 206.377 262.338 209.078 262.04L208.893 260.371C205.895 260.702 203.369 261.758 201.362 263.57L202.488 264.817ZM209.078 262.04C212.781 261.631 215.216 261.776 216.543 262.327L217.187 260.776C215.429 260.046 212.611 259.96 208.893 260.371L209.078 262.04ZM216.555 262.332C217.188 262.584 217.654 262.95 217.988 263.424C218.326 263.904 218.558 264.538 218.65 265.366L220.319 265.181C220.204 264.139 219.897 263.218 219.362 262.457C218.822 261.691 218.082 261.131 217.175 260.771L216.555 262.332ZM218.65 265.366C218.849 267.174 218.774 268.613 218.469 269.713L220.088 270.162C220.47 268.784 220.533 267.113 220.319 265.181L218.65 265.366ZM218.465 269.731C218.174 270.873 217.734 271.768 217.168 272.446L218.457 273.522C219.217 272.612 219.755 271.475 220.093 270.145L218.465 269.731ZM217.168 272.446C216.603 273.122 215.783 273.727 214.665 274.242L215.368 275.768C216.651 275.177 217.695 274.435 218.457 273.522L217.168 272.446ZM214.684 274.234C212.721 275.079 209.998 275.737 206.48 276.185L206.692 277.851C210.285 277.393 213.182 276.709 215.348 275.777L214.684 274.234ZM206.222 269.841L206.112 271.7L207.789 271.8L207.899 269.94L206.222 269.841ZM207.043 272.585L208.779 272.393L208.595 270.723L206.858 270.915L207.043 272.585ZM208.779 272.393C209.795 272.281 210.656 272.08 211.282 271.738L210.476 270.264C210.138 270.448 209.538 270.619 208.595 270.723L208.779 272.393ZM211.317 271.717C212.12 271.225 212.454 270.352 212.524 269.396L210.848 269.273C210.799 269.952 210.594 270.19 210.44 270.285L211.317 271.717ZM212.523 269.404L212.678 267.539L211.004 267.4L210.849 269.265L212.523 269.404ZM211.748 266.635L210.012 266.827L210.196 268.496L211.933 268.304L211.748 266.635ZM210.012 266.827C208.964 266.942 208.072 267.161 207.434 267.552L208.312 268.984C208.631 268.789 209.226 268.603 210.196 268.496L210.012 266.827ZM207.47 267.531C206.63 267.991 206.293 268.876 206.223 269.829L207.898 269.952C207.948 269.268 208.152 269.073 208.276 269.005L207.47 267.531ZM223.042 262.222L223.67 262.779L223.671 262.779L223.042 262.222ZM240.412 259.132L241.232 259.312L241.408 258.511L240.611 258.316L240.412 259.132ZM239.032 265.413L238.867 266.236L239.676 266.399L239.853 265.593L239.032 265.413ZM229.594 265.644L229.423 264.822L228.804 264.95L228.757 265.581L229.594 265.644ZM229.484 267.098L228.647 267.035L228.571 268.044L229.577 267.933L229.484 267.098ZM237.755 267.717L237.382 268.47L237.392 268.474L237.755 267.717ZM219.794 282.589L218.973 282.409L218.792 283.236L219.62 283.411L219.794 282.589ZM221.233 276.031L221.412 275.211L220.592 275.031L220.412 275.851L221.233 276.031ZM232.338 275.796L232.524 276.615L233.129 276.477L233.175 275.859L232.338 275.796ZM232.448 274.342L233.285 274.405L233.361 273.396L232.355 273.507L232.448 274.342ZM223.97 273.881L223.623 274.646L223.632 274.65L223.64 274.654L223.97 273.881ZM221.918 269.691C221.586 266.681 222.213 264.42 223.67 262.779L222.414 261.664C220.558 263.754 219.88 266.534 220.249 269.876L221.918 269.691ZM223.671 262.779C225.166 261.092 227.587 259.996 231.091 259.609L230.906 257.939C227.168 258.352 224.285 259.554 222.414 261.664L223.671 262.779ZM231.091 259.609C234.677 259.213 237.711 259.336 240.212 259.947L240.611 258.316C237.864 257.644 234.622 257.529 230.906 257.939L231.091 259.609ZM239.591 258.951L238.212 265.233L239.853 265.593L241.232 259.312L239.591 258.951ZM239.198 264.589C236.99 264.145 234.73 264.052 232.421 264.307L232.605 265.976C234.748 265.739 236.834 265.827 238.867 266.236L239.198 264.589ZM232.421 264.307C231.67 264.39 230.667 264.563 229.423 264.822L229.765 266.466C230.989 266.212 231.932 266.051 232.605 265.976L232.421 264.307ZM228.757 265.581L228.647 267.035L230.322 267.161L230.432 265.707L228.757 265.581ZM229.577 267.933C233.382 267.513 235.928 267.749 237.382 268.469L238.128 266.965C236.212 266.015 233.245 265.838 229.392 266.263L229.577 267.933ZM237.392 268.474C238.809 269.153 239.577 270.238 239.752 271.823L241.421 271.638C241.183 269.483 240.063 267.892 238.118 266.96L237.392 268.474ZM239.752 271.823C240.093 274.912 239.453 277.183 237.982 278.783C236.491 280.405 234.018 281.48 230.396 281.88L230.58 283.55C234.408 283.127 237.343 281.96 239.219 279.92C241.114 277.859 241.798 275.049 241.421 271.638L239.752 271.823ZM230.396 281.88C226.015 282.364 222.551 282.314 219.968 281.768L219.62 283.411C222.451 284.01 226.116 284.043 230.58 283.55L230.396 281.88ZM220.614 282.769L222.053 276.211L220.412 275.851L218.973 282.409L220.614 282.769ZM221.053 276.852C223.523 277.393 226.151 277.505 228.932 277.197L228.748 275.528C226.127 275.817 223.684 275.708 221.412 275.211L221.053 276.852ZM228.932 277.197C230.263 277.051 231.461 276.857 232.524 276.615L232.151 274.977C231.163 275.202 230.03 275.386 228.748 275.528L228.932 277.197ZM233.175 275.859L233.285 274.405L231.61 274.279L231.5 275.733L233.175 275.859ZM232.355 273.507C228.456 273.938 225.819 273.757 224.299 273.109L223.64 274.654C225.588 275.485 228.603 275.611 232.54 275.177L232.355 273.507ZM224.316 273.116C222.895 272.473 222.104 271.374 221.918 269.691L220.249 269.876C220.496 272.111 221.629 273.744 223.623 274.646L224.316 273.116ZM250.253 272.195L250.345 273.03L251 272.958L251.086 272.305L250.253 272.195ZM243.085 272.987L242.245 272.987L242.246 273.925L243.177 273.822L243.085 272.987ZM243.073 253.7L242.234 253.669L242.233 253.685L242.233 253.701L243.073 253.7ZM252.823 252.623L252.036 252.333L252.003 252.421L251.991 252.514L252.823 252.623ZM242.639 275.064L243.222 275.668L242.639 275.064ZM249.975 273.758L249.614 274.516L249.627 274.523L249.641 274.529L249.975 273.758ZM250.298 279.13L250.92 279.694L250.922 279.693L250.298 279.13ZM242.788 280.5L242.454 281.271L242.468 281.277L242.483 281.283L242.788 280.5ZM250.161 271.36L242.993 272.152L243.177 273.822L250.345 273.03L250.161 271.36ZM243.925 272.986L243.913 253.7L242.233 253.701L242.245 272.987L243.925 272.986ZM243.912 253.731C243.92 253.533 243.979 253.448 244.055 253.385C244.162 253.296 244.395 253.183 244.858 253.131L244.674 251.462C244.039 251.532 243.44 251.713 242.983 252.092C242.495 252.497 242.257 253.053 242.234 253.669L243.912 253.731ZM244.858 253.131L251.447 252.404L251.263 250.734L244.674 251.462L244.858 253.131ZM251.447 252.404C251.635 252.383 251.777 252.383 251.88 252.393C251.983 252.404 252.029 252.423 252.04 252.429C252.044 252.431 252.024 252.42 252.005 252.392C251.988 252.366 251.994 252.359 251.999 252.399L253.668 252.215C253.607 251.663 253.316 251.188 252.79 250.926C252.331 250.697 251.786 250.676 251.263 250.734L251.447 252.404ZM251.999 252.399C252.001 252.423 252.003 252.44 252.003 252.453C252.004 252.466 252.004 252.471 252.004 252.47C252.004 252.47 252.004 252.458 252.007 252.438C252.011 252.418 252.018 252.381 252.036 252.333L253.611 252.914C253.709 252.651 253.686 252.37 253.668 252.215L251.999 252.399ZM251.991 252.514L249.42 272.086L251.086 272.305L253.656 252.733L251.991 252.514ZM242.491 278.731C242.32 277.175 242.641 276.23 243.222 275.668L242.055 274.46C240.953 275.526 240.62 277.087 240.822 278.915L242.491 278.731ZM243.222 275.668C243.881 275.03 244.943 274.573 246.531 274.398L246.346 272.728C244.551 272.926 243.079 273.47 242.055 274.46L243.222 275.668ZM246.531 274.398C247.349 274.307 248.017 274.281 248.545 274.31C249.083 274.34 249.421 274.425 249.614 274.516L250.336 273C249.863 272.775 249.279 272.668 248.638 272.633C247.987 272.597 247.22 272.632 246.346 272.728L246.531 274.398ZM249.641 274.529C249.979 274.675 250.207 274.94 250.272 275.528L251.942 275.344C251.823 274.269 251.297 273.416 250.309 272.988L249.641 274.529ZM250.272 275.528C250.444 277.082 250.166 278.023 249.675 278.568L250.922 279.693C251.876 278.636 252.137 277.114 251.942 275.344L250.272 275.528ZM249.676 278.566C249.191 279.101 248.182 279.556 246.401 279.752L246.585 281.422C248.485 281.212 250.013 280.695 250.92 279.694L249.676 278.566ZM246.401 279.752C245.517 279.85 244.796 279.889 244.229 279.876C243.647 279.862 243.289 279.794 243.094 279.718L242.483 281.283C242.947 281.464 243.536 281.54 244.189 281.555C244.857 281.571 245.659 281.524 246.585 281.422L246.401 279.752ZM243.122 279.73C242.785 279.583 242.556 279.319 242.491 278.731L240.822 278.915C240.94 279.989 241.467 280.843 242.454 281.271L243.122 279.73Z" fill="url(#paint2_linear_517_2881)"/>
<path d="M72.3495 106.755C72.5572 107.142 73.8141 109.925 73.8622 110.281C73.9172 110.688 73.3823 111.331 72.9753 111.386C71.0927 111.64 69.8577 105.952 67.6699 106.248C66.7032 106.379 65.3528 108.271 64.8316 109.015C61.3086 113.998 58.9819 122.084 59.8002 128.139C60.0684 130.123 60.8853 135.401 63.7855 135.009C66.4821 134.645 70.8041 124.839 71.262 124.777L71.3266 124.872L71.3775 124.865C71.449 125.01 71.5274 125.207 71.5109 125.468L71.6099 125.818L71.6237 125.919C71.6581 126.174 71.7736 126.262 71.8011 126.465C71.8423 126.771 70.8358 129.29 70.6598 129.521C70.6873 129.724 70.5992 129.84 70.5181 130.006L70.6034 130.254C70.052 131.157 69.5074 132.112 68.9629 133.066L68.9766 133.168C68.2258 134.513 65.1428 137.002 63.6164 137.208C59.4951 137.765 57.2851 133.297 56.8107 129.787C55.8892 122.969 57.9271 112.746 62.8431 106.952C63.737 105.899 65.3761 104.227 66.699 104.048C68.6325 103.787 71.2948 105.085 72.3495 106.755ZM82.8794 118.855C83.4899 118.772 85.5059 119.121 85.8882 120.417C86.6528 123.008 85.2323 127.448 85.6587 130.602C85.7206 131.06 85.6711 131.844 86.0685 132.101L86.2211 132.081C87.6485 131.525 90.7563 123.852 91.7463 121.594L91.9265 121.777L92.0007 121.559C92.13 121.749 92.2455 121.837 92.273 122.041C92.3349 122.499 92.1933 122.984 92.1465 123.405L92.2345 123.289L92.2483 123.391C92.1947 123.761 92.0833 124.087 92.0296 124.457L92.273 123.958L92.1314 124.443L92.3074 124.212L91.9458 124.986C91.7766 125.268 91.723 125.638 91.6625 125.957C91.1207 128.465 88.7294 132.623 87.3804 133.375C87.126 133.409 86.8991 133.647 86.6956 133.675C86.4412 133.709 86.1221 133.648 85.8677 133.683C85.3383 133.599 84.2959 133.17 84.1185 132.624C83.4255 132.096 83.05 130.851 82.9331 129.986C82.4862 126.679 84.1253 121.173 83.4459 120.747C81.9787 121.774 79.2656 130.068 78.3237 132.682C78.2219 132.696 78.1202 132.709 78.0184 132.723C77.5605 132.785 76.8922 132.823 76.4851 132.878C75.8237 132.968 75.6944 132.778 75.1787 132.796C74.4513 132.014 74.2807 131.518 74.1872 130.443C73.5325 122.916 77.9205 110.147 77.0253 110.424L77.0926 110.156C77.761 110.117 77.9136 110.096 78.2835 110.15C80.9444 110.671 78.6109 118.706 78.0636 120.024C77.3018 122.821 77.0543 126.74 77.0956 128.962C77.7254 126.338 80.2845 119.205 82.8794 118.855ZM103.941 119.013C103.955 119.115 103.975 119.268 103.887 119.383L104.067 119.566C104.109 119.871 103.902 120.262 103.937 120.516C103.944 120.567 104.052 120.604 104.052 120.604L104.225 120.736C104.264 121.405 103.831 122.033 103.696 122.569C102.878 126.099 98.5902 132.326 95.6901 132.718C95.5374 132.739 95.4288 132.701 95.327 132.715C92.0088 132.697 90.5264 130.929 90.2458 127.703C89.9748 124.165 91.9825 117.935 94.3532 115.542L94.4343 115.376C94.4715 115.267 95.1329 115.178 95.3364 115.151C95.6926 115.102 97.0196 115.338 97.3455 115.449C98.4044 115.617 98.9613 115.904 99.1195 117.074C99.7452 121.704 94.125 122.671 93.7757 122.77C93.2862 124.132 91.9689 131.252 94.8182 130.867C97.2096 130.544 101.09 124.372 102.233 122.094C102.557 121.428 103.422 119.394 103.941 119.013ZM96.4118 116.974C96.0391 117.283 94.8896 119.511 94.4234 120.662C96.4985 119.915 97.6247 117.898 96.4118 116.974ZM109.08 114.692C109.929 114.836 110.058 115.026 110.198 115.681C110.359 116.488 110.952 117.807 110.993 118.112C111.014 118.265 110.597 118.632 110.282 118.985L110.187 119.05C109.946 119.186 109.801 119.257 109.648 119.278C109.394 119.312 109.22 119.18 109.091 118.991C108.628 117.862 108.283 116.458 108.102 116.275L107.899 116.302C105.234 119.201 103.966 127.455 106.007 128.371C106.173 128.452 106.384 128.475 106.587 128.448C109.335 128.076 114.112 118.571 115.059 117.148L115.398 116.584C115.601 116.557 115.561 118.945 115.734 119.077C115.739 119.491 115.396 119.641 115.278 119.916L115.275 120.279C115.208 120.547 115.09 120.822 114.964 121.046C114.846 121.321 114.816 121.481 114.735 121.647L114.955 121.359C114.881 121.576 114.461 122.306 114.278 122.486C114.062 123.189 113.483 123.889 112.969 124.684C111.525 127.417 109.298 130.102 106.092 130.535C103.921 130.569 102.414 128.234 102.268 126.389C101.861 122.61 103.307 117.596 106.051 114.894C106.284 114.707 106.372 114.592 106.627 114.557C107.543 114.433 108.564 114.71 109.08 114.692ZM117.578 115.979C118.634 114.592 124.21 107.933 124.371 106.823L124.496 106.599L124.699 106.571C124.808 106.608 124.808 106.608 124.91 106.594C125.164 106.56 125.412 106.475 125.608 106.396C125.768 106.427 125.883 106.515 126.101 106.589L126.202 106.575L126.362 106.605L126.382 106.758C126.092 107.678 125.839 108.489 125.542 109.359C125.099 110.299 121.933 115.235 121.208 116.006C120.96 116.091 117.958 120.331 117.831 120.918C118.711 123.597 121.101 126.331 124.204 125.911C124.51 125.87 124.662 125.849 124.815 125.829C124.968 125.808 125.12 125.787 125.419 125.695C125.287 125.869 125.25 125.977 125.053 126.056C125.009 126.113 125.111 126.1 125.111 126.1L125.06 126.106C124.856 126.134 124.609 126.219 124.405 126.247C124.354 126.254 124.303 126.26 124.253 126.267C123.917 126.468 123.459 126.53 123.052 126.585L123.212 126.615C123.059 126.636 122.862 126.714 122.71 126.735C122.659 126.742 122.659 126.742 122.608 126.749C122.448 126.718 122.347 126.732 122.143 126.76C122.085 126.716 121.984 126.729 121.78 126.757L121.794 126.859C122.048 126.824 122.642 127.003 122.897 126.969L122.954 127.013L122.598 127.061C120.054 127.405 118.049 125.603 116.472 123.899C116.207 125.386 115.837 127.249 116.029 128.674C115.89 128.796 115.918 129 115.932 129.102C115.98 129.458 116.174 129.742 116.368 130.027L116.208 129.997L116.215 130.048C116.337 130.187 116.517 130.369 116.735 130.444L116.85 130.532C116.457 130.689 116.2 131.086 115.844 131.134C114.521 131.313 113.514 128.081 113.37 127.013C113.122 125.181 113.591 121.75 114.229 118.037C115.403 110.625 117.227 101.882 117.049 101.336L117.066 101.075C117.394 100.823 117.679 100.629 118.137 100.567C119.002 100.45 119.084 101.061 119.174 101.722C119.827 106.556 118.122 111.19 117.571 115.928L117.52 115.935L117.578 115.979ZM134.992 110.206L134.985 110.155L134.653 109.992L134.5 110.013C134.398 110.027 134.204 109.742 134.19 109.64C134.182 108.813 134.5 108.096 135.238 107.426C135.537 107.334 135.733 107.256 135.988 107.221C136.446 107.16 136.663 107.234 136.901 107.461L136.97 107.97L137.18 107.993C137.238 108.037 137.245 108.088 137.245 108.088C137.327 108.698 135.999 109.603 135.589 110.021L135.555 109.767L135.385 110.049L135.182 110.076L134.992 110.206ZM143.304 113.434C143.315 113.899 143.421 114.299 143.476 114.706C143.496 114.859 143.466 115.018 143.436 115.178L143.493 115.222C143.345 115.657 143.289 116.389 143.191 116.817C143.198 116.868 143.103 116.933 143.205 116.919C141.508 120.464 140.05 123.096 137.89 125.512C137.175 125.972 136.721 126.447 135.805 126.571C134.173 126.377 132.386 125.427 132.117 122.666C131.839 119.077 133.819 112.644 134.133 111.513L134.265 111.34C134.316 111.333 134.316 111.333 134.367 111.326C134.723 111.278 134.903 111.461 135.208 111.42C135.622 111.416 135.846 111.541 136.077 111.717C136.169 112.015 136.34 112.51 136.33 112.822C135.958 116.966 134.576 122.074 135.415 124.448C135.435 124.601 135.493 124.645 135.696 124.617C137.338 124.499 140.157 118.522 143.077 113.672L143.222 113.601L143.304 113.434ZM145.868 112.932C146.092 113.057 146.221 113.247 146.395 113.379C148.918 112.883 152.793 111.271 154.468 110.63C155.167 110.432 155.803 109.776 156.685 109.398L156.814 109.588L156.58 109.775L156.835 109.74L156.927 110.039L156.358 110.427L156.612 110.392L156.683 110.538L156.331 111C156.104 111.238 155.697 111.293 155.471 111.531C154.058 112.965 150.336 114.556 147.63 115.233L147.773 115.524C148.957 117.385 149.915 120.26 150.72 122.38C151.692 125.357 152.311 131.853 151.19 135.061L151.146 135.119L151.176 134.959C150.988 135.866 150.315 137.407 149.75 138.209C149.585 138.905 148.416 139.84 147.681 140.146L147.657 140.357C147.556 140.371 147.505 140.377 147.359 140.449C143.543 140.965 142.165 136.903 141.498 133.884C140.325 128.654 140.692 121.403 141.74 115.355C141.749 115.043 142.031 113.295 142.068 113.187C142.011 113.143 141.417 112.964 141.396 112.811L141.389 112.76C141.63 112.624 141.891 112.641 142.067 112.41C142.25 112.23 142.343 111.388 142.462 111.113C143.421 105.181 145.297 97.2075 147.859 91.6285C148.133 90.9698 148.786 90.0526 148.907 89.4145C149.039 89.2413 149.724 88.9415 150.08 88.8933L150.334 88.859C150.677 88.7091 151.987 89.2055 152.208 89.6937C152.236 89.8972 152.27 90.1516 152.362 90.45C153.19 94.2756 150.216 104.47 147.928 107.473C147.782 107.544 147.629 107.565 147.528 107.579C147.771 107.08 147.909 106.18 148.087 105.586C148.585 103.136 151.012 94.2592 150.448 92.0039C149.582 93.2608 145.112 111.169 145.436 112.421C145.471 112.675 145.739 112.743 145.868 112.932ZM148.746 125.029C147.987 121.713 146.872 118.444 145.18 115.512C145.065 115.424 144.956 115.387 144.848 115.35C144.357 117.851 143.697 124.468 144.043 130.483C144.057 130.585 144.129 130.731 144.135 130.782C144.31 131.691 144.193 132.743 144.477 133.689C144.716 134.693 145.567 138.308 147.246 138.081C147.297 138.074 147.348 138.067 147.399 138.06C148.104 137.913 148.404 136.681 148.583 136.087C149.588 132.791 149.505 128.346 148.746 125.029ZM160.902 102.559C160.851 102.566 160.8 102.573 160.749 102.58C159.477 102.752 155.298 103.265 155.819 100.604L155.806 100.502C155.85 100.444 155.894 100.387 155.894 100.387C155.995 100.373 155.972 100.583 155.972 100.583C156.281 100.956 156.261 100.803 156.587 100.915C157.282 101.08 158.416 101.03 159.738 100.851C162.079 100.535 164.938 99.8377 167.091 99.2876C167.593 99.168 168.438 98.8984 169.391 98.666C169.616 97.6512 169.828 96.5345 170.002 95.5266C170.053 95.5197 170.104 95.5128 170.155 95.5059C170.409 95.4715 170.823 95.4674 170.925 95.4537C170.976 95.4468 171.027 95.4399 171.078 95.433C171.23 95.4124 171.339 95.4495 171.549 95.4729L171.961 95.8318C172.104 96.1233 172.203 96.4726 172.244 96.7779C172.292 97.1341 172.354 97.592 172.365 98.0568C172.67 98.0155 172.976 97.9743 173.281 97.933C176.13 97.5479 178.787 97.6552 178.336 99.6849L178.285 99.6918C178.301 99.4305 176.981 99.2462 175.099 99.5007C174.183 99.6244 173.216 99.7551 172.155 99.9504C171.727 103.687 170.525 108.978 169.915 110.978C169.156 113.412 169.119 117.354 169.186 119.003C169.241 119.41 169.252 119.875 169.3 120.231C169.341 120.536 169.447 120.936 169.59 121.228L169.706 121.316L170.208 121.196C171.856 119.212 174.853 113.782 176.661 109.91L176.834 110.043L176.977 110.334L176.889 110.45C176.91 110.602 177.312 111.273 177.376 111.368L177.58 111.341C177.296 112.311 176.95 112.047 176.768 113.005L176.525 113.504C176.485 113.975 176.059 114.655 175.931 115.242L176.225 114.736C176.195 114.895 176.012 115.076 175.938 115.293L176.246 114.889C176.216 115.048 176.134 115.214 176.155 115.367L176.266 115.041L176.294 115.245C175.798 116.555 173.703 119.843 172.691 121.172C172.573 121.447 172.485 121.562 172.288 121.641L172.214 121.858C171.434 122.222 170.76 122.987 169.743 123.124C168.674 123.269 168.035 122.371 167.277 121.748C166.984 121.114 166.562 120.29 166.575 119.615C166.619 119.557 166.444 118.648 166.416 118.445C166.191 113.709 167.679 107.083 168.99 100.689C166.342 101.409 163.649 102.188 160.902 102.559ZM180.085 105.821C180.584 106.064 180.846 106.081 181.104 106.46C181.774 107.199 182.057 108.145 182.283 109.047C182.567 110.77 182.085 114.099 181.687 115.759C181.276 117.317 179.802 120.211 178.028 120.502C176.196 120.75 175.048 119.92 174.597 118.116C173.768 113.514 177.456 105.917 177.721 104.431L177.941 104.142L178.545 104.009C178.698 103.988 178.799 103.974 178.952 103.954C179.715 103.85 180.143 103.948 180.653 104.656C180.553 105.447 180.322 105.271 180.085 105.821ZM177.357 118.987C177.51 118.966 177.642 118.793 177.672 118.633C179.198 116.51 180.105 110.948 179.622 108.526C179.587 108.272 179.414 108.14 179.278 107.899C178.443 109.773 177.946 112.224 177.783 112.557C177.346 114.688 177.005 117.532 177.237 118.485C177.309 118.631 177.33 118.783 177.357 118.987ZM196.703 115.077C196.854 116.196 197.028 117.105 197.485 118.183C197.485 118.183 197.865 117.925 198.203 117.361C199.979 114.79 202.357 108.614 203.98 105.286L204.285 105.245L204.312 105.448L204.493 105.631C204.594 105.617 204.645 105.61 204.682 105.502C204.696 105.604 204.696 105.604 204.71 105.705L204.744 105.96C204.802 106.004 204.968 106.085 204.982 106.187C204.989 106.237 204.894 106.302 204.894 106.302L204.929 106.556C204.891 106.665 204.861 106.825 204.919 106.869C204.808 107.195 204.413 108.491 204.369 108.549C204.251 108.824 204 109.272 204.042 109.578L203.967 109.795C204.039 109.941 203.71 110.192 203.751 110.498L203.562 110.627L203.538 110.837L203.545 110.888C202.888 113.308 199.754 119.638 197.617 119.927C197.464 119.948 197.356 119.911 197.196 119.88C196.616 119.803 196.1 119.821 195.74 119.455C192.277 116.452 194.037 106.474 194.608 103.029C193.434 106.608 191.133 117.954 187.521 118.442C187.368 118.463 187.266 118.476 187.107 118.446C185.481 118.303 184.582 116.249 184.264 115.048C183.595 112.393 186.187 102.82 189.697 102.346C190.918 102.181 191.55 102.251 192.259 102.518C192.34 102.351 196.024 90.5073 196.418 90.3505C196.871 89.8747 196.688 90.0548 197.278 89.8197C197.547 89.8871 197.852 89.8458 198.113 89.8623L198.293 90.0452L198.555 90.0617L198.751 89.9833L198.924 90.1153L199 90.675C199.172 91.947 198.267 96.3695 198.083 97.6896C197.51 101.497 196.022 110.04 196.703 115.077ZM187.466 116.118C188.245 115.754 190.906 106.69 191.53 104.792C191.408 104.653 190.872 104.519 190.566 104.56C188.464 105.103 186.21 114.112 187.466 116.118ZM213.942 102.851C213.408 106.188 212.932 109.568 213.393 112.977C213.421 113.18 213.732 114.33 213.884 114.309C215.258 114.124 218.3 107.495 219.273 105.499L220.831 102.076C221.004 102.208 220.941 102.89 221.057 102.978C221.23 103.11 220.95 103.718 221.19 103.582L221.174 103.843L221.347 103.975L221.368 104.128C221.453 104.375 221.049 105.984 220.954 106.049C220.327 108.309 216.907 115.973 214.363 116.317C214.007 116.365 213.905 116.379 213.637 116.311C213.419 116.237 213.318 116.251 213.202 116.163C211.383 115.735 210.796 113.69 210.569 112.011C210.314 110.129 210.446 108.039 210.707 106.138L210.657 106.145C209.66 108.352 206.707 115.642 204.825 115.896C202.789 116.171 201.929 114.785 201.586 113.018C200.899 109.847 203.913 101.098 207.424 100.624C208.492 100.479 209.523 100.444 210.309 101.27C210.772 100.482 211.317 99.5278 211.658 98.601L211.521 98.3603C211.609 98.2448 211.748 98.1224 211.901 98.1018C212.766 97.9849 214.167 98.0027 214.318 99.1221C214.49 100.394 214.126 101.531 213.942 102.851ZM204.244 113.902C205.823 110.632 207.692 106.442 209.277 103.223C209.09 102.989 208.672 102.579 208.316 102.627C208.011 102.669 207.594 103.036 207.462 103.209C205.644 105.475 203.767 110.755 204.145 113.553L204.244 113.902ZM231.768 111.633C231.227 116.058 229.9 121.574 226.723 124.905C226.547 125.136 225.961 125.785 225.802 125.755C225.598 125.782 225.408 125.911 225.307 125.925C224.9 125.98 224.299 125.75 223.952 125.486C223.952 125.486 223.721 125.31 223.613 125.273C223.548 125.178 221.9 124.106 221.88 123.953C221.832 123.597 222.152 122.518 222.067 122.27C222.781 119.117 225.122 113.827 227.556 110.752C228.355 109.763 229.198 108.716 229.486 108.16C229.703 106.317 229.673 104.559 229.583 101.981C228.867 103.58 225.969 109.36 223.773 112.662C223.252 113.406 222.104 114.494 221.086 114.631C220.069 114.769 218.343 113.499 218.205 112.482C217.896 110.192 218.533 107.619 219.102 105.315L220.352 100.379C220.51 99.6324 220.922 98.8513 220.724 98.1527C220.914 98.0235 221.111 97.9451 221.263 97.9245C222.078 97.8144 222.868 97.9148 222.985 98.7798C223.315 101.222 220.503 109.166 221.068 112.198L221.235 112.28C223.904 107.878 226.973 101.453 228.746 98.4675L228.633 98.0165C228.883 97.5682 229.32 97.3537 229.829 97.2849C230.135 97.2436 230.65 97.2258 230.881 97.4018C231.092 97.4251 231.309 97.4994 231.764 97.8006C231.836 97.9463 231.849 98.0481 231.877 98.2516C232.221 100.796 232.365 103.781 232.266 105.349C234.074 103.395 234.785 102.521 236.924 101.093L236.9 101.303C236.944 101.245 236.995 101.238 237.148 101.218C237.206 101.262 237.494 101.482 237.575 101.315L237.626 101.308C237.779 101.288 237.8 101.44 237.806 101.491L237.549 101.889C236.876 102.653 235.311 104.108 234.884 104.788C235.711 104.002 236.845 102.813 237.364 102.432C236.053 103.853 236.165 103.527 233.046 106.901C232.914 107.075 232.182 107.795 232.261 107.992L233.937 106.211C233.964 106.414 232.288 108.195 232.251 108.304C232.107 109.152 231.913 110.785 231.768 111.633ZM224.169 123.644C226.459 123.334 228.892 113.732 229.092 112.15L229.085 112.099C227.659 113.432 223.971 121.028 223.996 123.512C224.01 123.614 224.068 123.658 224.169 123.644ZM223.724 123.03C223.918 121.398 224.898 119.452 225.584 118.013C224.867 118.835 223.624 121.904 223.724 123.03ZM244.256 95.4388L244.249 95.3879L243.916 95.2257L243.763 95.2463C243.662 95.2601 243.468 94.9754 243.454 94.8736C243.446 94.0458 243.763 93.3294 244.502 92.6596C244.8 92.5675 244.997 92.4891 245.251 92.4547C245.709 92.3929 245.926 92.4671 246.164 92.694L246.233 93.2028L246.443 93.2262C246.501 93.2702 246.508 93.3211 246.508 93.3211C246.591 93.9316 245.262 94.8365 244.852 95.2545L244.818 95.0001L244.649 95.282L244.445 95.3096L244.256 95.4388ZM252.567 98.6676C252.578 99.1324 252.684 99.5325 252.739 99.9396C252.76 100.092 252.729 100.252 252.699 100.411L252.757 100.455C252.608 100.89 252.552 101.623 252.454 102.05C252.461 102.101 252.366 102.166 252.468 102.152C250.771 105.697 249.314 108.329 247.153 110.746C246.438 111.205 245.984 111.681 245.069 111.804C243.436 111.611 241.65 110.66 241.38 107.899C241.103 104.31 243.083 97.877 243.396 96.7466L243.528 96.5733C243.579 96.5664 243.579 96.5664 243.63 96.5596C243.986 96.5114 244.166 96.6943 244.472 96.6531C244.885 96.6489 245.11 96.7741 245.341 96.9501C245.433 97.2485 245.603 97.7435 245.594 98.0557C245.221 102.199 243.839 107.308 244.678 109.681C244.699 109.834 244.756 109.878 244.96 109.85C246.602 109.732 249.421 103.756 252.34 98.9055L252.486 98.8339L252.567 98.6676ZM251.06 109.44C250.936 108.525 252.427 107.287 252.623 107.209L252.834 107.232L252.583 107.68L252.59 107.731L253.169 107.031C253.241 107.177 253.19 107.184 253.349 107.214L253.468 106.939L253.641 107.071C253.495 107.143 253.435 107.462 253.397 107.57L253.661 107.224L253.791 107.413L252.993 109.179L253.072 109.376C254.038 109.245 255.688 108.038 255.544 106.969C255.324 105.341 251.434 102.24 251 99.0347C250.602 96.0836 253.432 92.489 256.383 92.0902C256.993 92.0076 259.744 93.1902 259.826 93.8008L259.84 93.9025C259.61 94.5035 259.221 96.9911 258.509 97.0874C258.051 97.1493 257.972 96.9526 257.653 96.8921C257.568 96.6446 257.618 95.8608 257.678 95.5417C257.677 94.7648 257.89 94.4251 257.187 94.2092C255.661 94.4155 253.542 97.137 253.748 98.6634C254.078 101.106 257.733 103.617 258.132 106.568C258.448 108.908 255.884 111.016 253.747 111.305C252.882 111.422 251.183 110.356 251.06 109.44ZM278.635 94.1083C278.102 97.4444 277.626 100.825 278.087 104.233C278.114 104.437 278.425 105.587 278.578 105.566C279.951 105.38 282.993 98.7521 283.967 96.7554L285.525 93.3326C285.698 93.4646 285.635 94.1467 285.75 94.2347C285.924 94.3667 285.643 94.9745 285.884 94.8384L285.867 95.0997L286.04 95.2317L286.061 95.3843C286.146 95.6319 285.742 97.2408 285.647 97.3054C285.02 99.5662 281.6 107.23 279.056 107.574C278.7 107.622 278.598 107.636 278.33 107.568C278.113 107.494 278.011 107.508 277.896 107.42C276.076 106.992 275.489 104.947 275.262 103.268C275.008 101.386 275.14 99.2954 275.401 97.3949L275.35 97.4018C274.353 99.6089 271.401 106.899 269.518 107.153C267.483 107.428 266.622 106.042 266.28 104.275C265.592 101.104 268.606 92.3551 272.117 91.8806C273.185 91.7362 274.217 91.7005 275.002 92.5269C275.465 91.739 276.01 90.7846 276.351 89.8577L276.215 89.6171C276.303 89.5016 276.442 89.3792 276.594 89.3586C277.459 89.2417 278.861 89.2595 279.012 90.3789C279.184 91.6509 278.819 92.7881 278.635 94.1083ZM268.938 105.159C270.516 101.889 272.385 97.6989 273.971 94.4796C273.784 94.2459 273.366 93.8361 273.01 93.8842C272.704 93.9255 272.288 94.2926 272.156 94.4659C270.338 96.7322 268.461 102.011 268.839 104.81L268.938 105.159ZM117.051 149.313C117.479 157.078 108.775 163.591 101.73 164.751C101.541 167.574 101.176 171.768 101.79 174.016C101.753 174.125 101.594 174.095 101.543 174.102L101.781 174.328C101.635 174.4 101.584 174.407 101.482 174.421C101.228 174.455 100.814 174.459 100.546 174.392C100.186 174.026 100.28 173.961 99.9064 173.494C98.754 172.251 98.4817 169.852 98.4721 168.248C98.3992 167.325 98.7415 165.258 98.6755 164.386C98.4816 164.102 97.4351 163.259 97.1697 162.828C97.0982 162.682 96.9112 162.449 97.0501 162.326C96.8906 162.296 97.134 161.797 97.1202 161.695C97.299 161.101 98.8804 159.385 99.4194 159.157C100.172 154.755 101.42 150.959 102.314 146.072C102.236 145.875 102.259 145.665 102.231 145.461L102.37 145.339L102.676 145.298C103.055 145.039 103.448 144.882 103.855 144.827C104.32 144.816 104.782 145.168 104.78 145.532C104.901 148.727 102.959 155.829 102.842 156.881C103.361 156.5 105.211 155.628 106.585 155.442C106.992 155.387 107.355 155.39 107.63 155.508C107.681 155.501 107.458 156.153 107.516 156.197L107.435 156.364C107.259 156.595 106.655 156.728 106.35 156.769L106.116 156.956C106.218 156.942 106.269 156.936 106.371 156.922C106.523 156.901 106.625 156.887 106.727 156.874C106.88 156.853 106.937 156.897 106.988 156.89C106.836 156.911 106.588 156.996 106.391 157.074L106.442 157.068C106.158 157.261 105.961 157.34 105.669 157.483C104.612 158.092 102.962 159.299 102.339 160.057C102.133 160.448 102.08 161.595 101.976 161.971C108.931 160.151 115.041 153.989 114.798 148.737C114.621 145.134 111.808 142.717 107.645 142.968C103.931 143.47 100.595 144.854 97.9671 147.644C97.1173 148.639 97.2438 149.192 96.7598 149.828C96.6649 149.892 96.4751 150.021 96.3225 150.042C94.8332 150.14 95.2691 149.148 94.6159 148.149C94.6049 147.684 95.2141 146.824 95.5152 146.369C97.8983 143.301 101.457 141.266 105.171 140.764C105.578 140.709 105.935 140.661 106.349 140.657C111.899 140.321 116.64 143.203 117.051 149.313ZM127.943 156.856C127.409 160.192 126.933 163.572 127.394 166.981C127.422 167.185 127.732 168.334 127.885 168.314C129.259 168.128 132.3 161.5 133.274 159.503L134.832 156.08C135.005 156.212 134.942 156.894 135.058 156.982C135.231 157.114 134.95 157.722 135.191 157.586L135.174 157.847L135.348 157.979L135.368 158.132C135.454 158.38 135.049 159.988 134.954 160.053C134.327 162.314 130.908 169.978 128.364 170.321C128.007 170.37 127.906 170.383 127.637 170.316C127.42 170.242 127.318 170.255 127.203 170.167C125.384 169.74 124.796 167.695 124.569 166.016C124.315 164.133 124.447 162.043 124.708 160.143L124.657 160.149C123.66 162.357 120.708 169.646 118.826 169.901C116.79 170.176 115.929 168.79 115.587 167.023C114.899 163.851 117.914 155.103 121.424 154.628C122.493 154.484 123.524 154.448 124.309 155.275C124.773 154.487 125.317 153.532 125.658 152.605L125.522 152.365C125.61 152.249 125.749 152.127 125.902 152.106C126.767 151.989 128.168 152.007 128.319 153.127C128.491 154.399 128.127 155.536 127.943 156.856ZM118.245 167.907C119.824 164.637 121.693 160.447 123.278 157.227C123.091 156.994 122.673 156.584 122.317 156.632C122.012 156.673 121.595 157.04 121.463 157.214C119.645 159.48 117.768 164.759 118.146 167.557L118.245 167.907ZM144.878 154.826C144.899 154.979 144.905 155.03 144.875 155.189C144.787 155.305 144.757 155.464 144.771 155.566C144.784 155.668 144.555 156.269 144.511 156.327L144.596 156.574L144.742 156.503L144.749 156.553L144.681 156.822C144.563 157.097 144.431 157.27 144.415 157.531C144.553 157.409 144.57 157.147 144.695 156.923L144.716 157.076C144.757 157.381 143.79 159.429 143.706 159.958C143.957 159.51 144.156 159.069 144.406 158.62C144.332 158.838 144.2 159.011 144.17 159.17L144.292 159.309C144.225 159.577 144.035 159.707 144.019 159.968C143.88 160.09 143.495 161.075 143.376 161.35L143.281 161.415L143.353 161.56L143.156 161.639L143.089 161.907C143.008 162.073 142.934 162.291 142.795 162.413C142.572 163.065 142.021 163.968 141.638 164.59C140.586 166.39 139.36 169.198 137.121 169.5C136.917 169.528 136.765 169.549 136.554 169.525C134.159 169.435 133.874 167.711 133.647 166.032C132.815 159.876 134.956 152.333 135.93 146.503C136.114 145.182 136.419 143.224 136.851 141.819L136.946 141.754C137.591 141.926 138.188 141.742 138.827 142.64C139.661 143.822 139.332 149.825 137.371 155.634C136.546 159.113 135.823 162.578 136.256 165.783C136.359 166.547 136.411 167.317 136.85 167.879L137.054 167.852C140.208 163.591 142.588 158.97 143.4 157.306C143.849 156.416 144.278 155.374 144.844 154.572L144.878 154.826ZM145.189 151.209L145.182 151.159L144.849 150.996L144.696 151.017C144.594 151.031 144.401 150.746 144.387 150.644C144.379 149.816 144.696 149.1 145.435 148.43C145.733 148.338 145.93 148.26 146.184 148.225C146.642 148.163 146.859 148.238 147.097 148.465L147.166 148.973L147.376 148.997C147.434 149.041 147.441 149.092 147.441 149.092C147.524 149.702 146.195 150.607 145.785 151.025L145.751 150.771L145.582 151.053L145.378 151.08L145.189 151.209ZM153.5 154.438C153.511 154.903 153.617 155.303 153.672 155.71C153.693 155.863 153.662 156.022 153.632 156.182L153.69 156.226C153.541 156.66 153.485 157.393 153.387 157.821C153.394 157.872 153.299 157.936 153.401 157.923C151.704 161.468 150.247 164.1 148.086 166.516C147.371 166.975 146.917 167.451 146.001 167.575C144.369 167.381 142.583 166.431 142.313 163.67C142.035 160.08 144.016 153.648 144.329 152.517L144.461 152.344C144.512 152.337 144.512 152.337 144.563 152.33C144.919 152.282 145.099 152.465 145.404 152.424C145.818 152.42 146.043 152.545 146.274 152.721C146.366 153.019 146.536 153.514 146.527 153.826C146.154 157.97 144.772 163.078 145.611 165.452C145.632 165.604 145.689 165.648 145.893 165.621C147.535 165.503 150.354 159.526 153.273 154.676L153.419 154.605L153.5 154.438ZM167.558 153.108C167.717 153.138 167.752 153.393 167.735 153.654C168.003 153.721 167.98 153.932 168.014 154.186C167.88 154.723 168.203 155.197 168.126 155.777C167.079 158.768 165.494 163.904 162.13 165.084C160.197 165.346 158.943 164.116 158.617 162.088C158.171 159.558 159.171 155.071 158.934 153.704C158.9 153.449 158.782 153.724 158.782 153.724C156.773 157.26 154.842 160.992 154.086 164.98C154.009 165.56 153.918 166.039 153.837 166.205C153.684 166.226 153.589 166.29 153.552 166.399C153.443 166.362 153.393 166.369 153.393 166.369C153.342 166.376 153.349 166.427 153.196 166.447C152.979 166.373 153.074 166.308 152.914 166.278L152.877 166.387C152.602 166.268 152.429 166.136 152.225 166.164C152.001 166.039 151.973 165.835 151.756 165.761L151.647 165.724C151.504 165.432 151.382 165.294 151.334 164.937C150.714 161.498 152.962 153.216 152.555 151.354C152.548 151.303 152.521 151.099 152.514 151.048L152.523 150.736C152.835 150.746 153.395 150.67 153.931 150.805C155.52 151.057 155.109 154.532 154.911 155.75L154.887 155.96C155.269 155.339 157.478 151.362 158.794 151.132C159.724 151.11 160.868 151.525 161.205 152.102C161.269 152.197 161.304 152.451 161.382 152.648C162.281 154.702 160.551 160.687 161.802 163.419L161.852 163.412C163.032 162.942 165.01 158.789 166.422 155.438C166.608 154.894 167.382 153.339 167.558 153.108ZM178.477 159.922C178.629 161.041 178.803 161.95 179.26 163.028C179.26 163.028 179.64 162.77 179.978 162.206C181.754 159.634 184.132 153.459 185.755 150.131L186.06 150.09L186.087 150.293L186.268 150.476C186.369 150.462 186.42 150.455 186.457 150.347C186.471 150.448 186.471 150.448 186.485 150.55L186.519 150.805C186.577 150.849 186.743 150.93 186.757 151.031C186.764 151.082 186.669 151.147 186.669 151.147L186.703 151.401C186.666 151.51 186.636 151.67 186.694 151.714C186.582 152.039 186.188 153.336 186.144 153.394C186.026 153.669 185.775 154.117 185.817 154.423L185.742 154.64C185.814 154.786 185.485 155.037 185.526 155.343L185.337 155.472L185.313 155.682L185.32 155.733C184.663 158.153 181.529 164.483 179.392 164.772C179.239 164.793 179.131 164.756 178.971 164.725C178.391 164.648 177.875 164.666 177.515 164.3C174.052 161.297 175.812 151.319 176.383 147.874C175.209 151.452 172.908 162.799 169.296 163.287C169.143 163.308 169.041 163.321 168.882 163.291C167.256 163.148 166.357 161.094 166.039 159.893C165.37 157.238 167.962 147.665 171.472 147.191C172.693 147.026 173.325 147.096 174.034 147.363C174.115 147.196 177.799 135.352 178.192 135.195C178.646 134.72 178.463 134.9 179.053 134.665C179.321 134.732 179.627 134.691 179.888 134.707L180.068 134.89L180.329 134.907L180.526 134.828L180.699 134.96L180.775 135.52C180.947 136.792 180.042 141.214 179.858 142.535C179.285 146.342 177.797 154.885 178.477 159.922ZM169.241 160.963C170.02 160.599 172.681 151.535 173.305 149.637C173.183 149.498 172.647 149.364 172.341 149.405C170.239 149.948 167.985 158.957 169.241 160.963ZM187.971 159.002C187.722 160.227 187.734 161.469 187.159 162.582C187.034 162.807 186.784 163.255 186.435 163.354L186.326 163.317L186.129 163.395C186.129 163.395 186.058 163.249 185.854 163.277C184.285 162.401 184.163 162.262 183.915 160.43C183.386 156.513 184.813 150.206 185.576 146.269L185.932 144.304C186.071 144.182 186.166 144.117 186.319 144.096C186.37 144.09 186.478 144.127 186.58 144.113C187.459 144.098 188.138 144.524 188.193 144.931C188.42 146.61 187.293 151.684 187.022 153.897C188.126 150.95 190.556 145.544 193.812 145.104C193.965 145.084 194.175 145.107 194.436 145.124L194.742 145.082L195.074 145.245C195.197 145.383 195.462 145.814 195.425 145.922C195.561 146.163 195.392 146.445 195.565 146.577L195.593 146.781C195.6 146.831 195.557 147.666 195.557 147.666L195.571 147.768C195.384 147.534 194.744 146.636 194.643 146.65C194.337 146.691 193.768 147.079 193.446 147.382C190.157 150.261 188.764 154.905 187.971 159.002ZM206.823 145.315C205.005 145.664 203.541 146.328 202.005 146.847C202.24 147.437 202.482 148.077 202.615 148.681C202.9 150.404 202.417 153.733 202.02 155.393C201.602 156.9 200.135 159.844 198.361 160.136C196.529 160.384 195.381 159.554 194.93 157.75C194.101 153.148 197.789 145.551 198.054 144.065L198.135 143.898L198.878 143.643C199.03 143.622 199.132 143.608 199.285 143.588C200.048 143.484 200.476 143.582 200.986 144.29C200.885 145.081 200.654 144.905 200.418 145.455C200.577 145.485 200.635 145.529 200.693 145.573C201.903 144.943 203.578 144.303 204.887 144.022C205.192 143.981 205.847 143.84 206.457 143.758C207.322 143.641 208.201 143.626 208.467 144.056L208.013 144.532L208.071 144.576L207.925 144.648L208.003 144.844C207.952 144.851 207.959 144.902 207.966 144.953C207.966 144.953 208.095 145.143 208.146 145.136L208.051 145.2C207.637 145.205 207.23 145.26 206.823 145.315ZM197.57 158.119C197.642 158.264 197.662 158.417 197.69 158.621C197.842 158.6 197.974 158.427 198.005 158.267C199.531 156.144 200.437 150.582 199.954 148.16C199.92 147.905 199.747 147.773 199.662 147.526C198.776 149.407 198.278 151.858 198.109 152.14C197.672 154.271 197.338 157.166 197.57 158.119ZM220.682 156.083C220.325 155.354 220.121 153.465 220.248 152.101C220.389 149.698 221.173 143.997 220.998 143.088C220.28 143.91 219.777 145.17 219.158 146.342C217.897 148.895 217.244 151.729 216.482 154.527C216.385 154.954 215.795 157.106 215.524 157.402L215.371 157.423L215.128 157.922C214.955 157.79 214.724 157.614 214.594 157.424L214.469 157.648L214.368 157.662L214.136 157.486L213.954 157.666C213.845 157.629 213.023 156.911 212.944 156.714L212.924 156.562L212.954 156.402L212.94 156.301C213.331 154.59 213.713 146.3 213.483 144.984L213.381 144.998C212.017 146.789 210.474 151.09 209.875 153.554C209.413 155.119 209.27 156.745 208.794 158.208C208.567 158.446 208.327 158.582 208.208 158.857L208.005 158.884C207.889 158.796 207.73 158.766 207.628 158.78C207.424 158.807 207.184 158.944 207.089 159.008L206.77 158.948C206.192 158.508 205.696 157.901 205.6 157.189C204.905 152.05 206.532 145.302 206.753 141.956C207.415 141.867 208.453 141.882 208.949 142.489C209.123 142.621 209.283 143.428 209.281 143.791C209.301 145.86 208.674 148.121 208.666 149.21C209.274 147.574 210.896 144.246 212.428 143.314C212.655 143.076 213.724 142.931 214.029 142.89C215.81 142.649 216.013 146.456 216.144 147.423C216.749 146.149 218.993 141.287 220.15 141.027C220.448 140.935 220.703 140.9 221.008 140.859L221.415 140.804C222.687 140.632 223.425 141.879 223.584 143.049C223.989 146.051 223.445 148.923 223.175 151.912C223.1 153.27 223.02 154.213 223.053 155.607C223.074 155.76 223.131 155.804 223.196 155.899L223.406 155.922C224.373 155.792 228.244 148.015 229.923 143.954L230.006 144.565L230.07 144.66C230.128 144.704 230.237 144.741 230.25 144.843L230.149 144.856L230.169 145.009C230.176 145.06 230.278 145.046 230.292 145.148L229.986 145.189C230.146 145.219 230.298 145.199 230.349 145.192C230.71 145.558 230.466 146.057 229.934 146.336C230.209 146.454 230.426 146.529 230.325 146.542C230.325 146.542 230.223 146.556 230.063 146.526C230.301 146.753 230.417 146.841 230.285 147.014C230.4 147.102 230.356 147.16 230.146 147.136C229.889 149.451 226.219 157.563 223.471 157.934C223.369 157.948 223.217 157.968 223.108 157.931C221.564 157.622 221.224 157.409 220.682 156.083ZM241.735 142.772C241.749 142.874 241.77 143.027 241.682 143.142L241.862 143.325C241.903 143.63 241.697 144.021 241.731 144.275C241.738 144.326 241.847 144.363 241.847 144.363L242.02 144.495C242.059 145.164 241.625 145.792 241.491 146.328C240.672 149.858 236.385 156.085 233.485 156.477C233.332 156.498 233.223 156.461 233.122 156.474C229.803 156.457 228.321 154.688 228.04 151.462C227.769 147.924 229.777 141.694 232.148 139.302L232.229 139.135C232.266 139.027 232.927 138.937 233.131 138.91C233.487 138.862 234.814 139.097 235.14 139.208C236.199 139.376 236.756 139.663 236.914 140.833C237.54 145.464 231.92 146.43 231.57 146.529C231.081 147.891 229.763 155.011 232.613 154.626C235.004 154.303 238.885 148.131 240.027 145.853C240.352 145.187 241.217 143.153 241.735 142.772ZM234.206 140.733C233.834 141.042 232.684 143.27 232.218 144.421C234.293 143.675 235.419 141.657 234.206 140.733ZM244.223 131.867L244.23 131.918C244.237 131.969 244.251 132.07 244.135 131.982C243.935 131.647 243.741 131.362 243.591 131.02C243.353 130.793 243.115 130.566 243.118 130.203C243.076 129.898 243.581 129.415 243.859 129.17C245.861 127.501 247.129 126.915 249.724 126.564C251.576 126.469 254.091 127.062 254.241 129.321C254.449 133.542 244.8 141.115 245.102 147.187L245 147.201C245.014 147.303 245.042 147.506 245.106 147.601L244.903 147.629C244.706 147.707 244.805 148.056 244.884 148.253C244.731 148.274 244.609 148.135 244.456 148.156C244.405 148.162 244.361 148.22 244.31 148.227L244.266 148.285C244.035 148.109 243.943 147.81 243.821 147.671C243.277 147.486 243.195 146.875 243.075 146.373C243.02 145.966 242.819 145.631 242.815 145.217C242.481 140.444 251.884 131.816 251.703 128.939C251.675 128.736 250.891 128.686 250.739 128.707C248.856 128.961 247.412 129.778 245.843 130.819C245.653 130.948 245.125 131.641 244.908 131.567C244.732 131.798 244.522 131.775 244.223 131.867ZM242.578 154.575L242.395 154.755C242.316 154.558 242.275 154.253 241.977 154.345C241.704 153.864 241.52 153.267 241.546 152.694C241.535 152.229 241.858 150.786 242.323 150.775C242.425 150.761 242.947 150.794 243.012 150.889C243.518 151.184 244.343 151.538 244.141 152.343C244.104 152.451 243.28 154.791 243.077 154.818C242.917 154.788 242.649 154.72 242.578 154.575Z" fill="#393939"/>
<defs>
<filter id="filter0_d_517_2881" x="0.0341797" y="0.967529" width="360" height="354.065" filterUnits="userSpaceOnUse" color-interpolation-filters="sRGB">
<feFlood flood-opacity="0" result="BackgroundImageFix"/>
<feColorMatrix in="SourceAlpha" type="matrix" values="0 0 0 0 0 0 0 0 0 0 0 0 0 0 0 0 0 0 127 0" result="hardAlpha"/>
<feOffset dx="-4" dy="8"/>
<feGaussianBlur stdDeviation="4"/>
<feComposite in2="hardAlpha" operator="out"/>
<feColorMatrix type="matrix" values="0 0 0 0 0 0 0 0 0 0 0 0 0 0 0 0 0 0 0.15 0"/>
<feBlend mode="normal" in2="BackgroundImageFix" result="effect1_dropShadow_517_2881"/>
<feBlend mode="normal" in="SourceGraphic" in2="effect1_dropShadow_517_2881" result="shape"/>
</filter>
<linearGradient id="paint0_linear_517_2881" x1="78.0342" y1="105.032" x2="462.034" y2="303.032" gradientUnits="userSpaceOnUse">
<stop stop-color="white"/>
<stop offset="1" stop-color="#E8E6E6"/>
</linearGradient>
<linearGradient id="paint1_linear_517_2881" x1="210.918" y1="206.852" x2="214.79" y2="241.912" gradientUnits="userSpaceOnUse">
<stop stop-color="#585858" stop-opacity="0.88"/>
<stop offset="0.729167" stop-color="#3E3E3E"/>
</linearGradient>
<linearGradient id="paint2_linear_517_2881" x1="212.524" y1="243.78" x2="216.396" y2="278.84" gradientUnits="userSpaceOnUse">
<stop stop-color="#585858" stop-opacity="0.88"/>
<stop offset="0.729167" stop-color="#3E3E3E"/>
</linearGradient>
</defs>
</svg>
